<?xml version="1.0" encoding="UTF-8" standalone="no"?><svg xmlns="http://www.w3.org/2000/svg" xmlns:xlink="http://www.w3.org/1999/xlink" contentScriptType="application/ecmascript" contentStyleType="text/css" height="534px" preserveAspectRatio="none" style="width:987px;height:534px;" version="1.1" viewBox="0 0 987 534" width="987px" zoomAndPan="magnify"><defs><filter height="300%" id="fvmvo75br86zh" width="300%" x="-1" y="-1"><feGaussianBlur result="blurOut" stdDeviation="2.0"/><feColorMatrix in="blurOut" result="blurOut2" type="matrix" values="0 0 0 0 0 0 0 0 0 0 0 0 0 0 0 0 0 0 .4 0"/><feOffset dx="4.0" dy="4.0" in="blurOut2" result="blurOut3"/><feBlend in="SourceGraphic" in2="blurOut3" mode="normal"/></filter></defs><g><!--MD5=[ba6352d6620934742c5e2f102149d6aa]
cluster org.eclipse.jdt.core.dom.VariableDeclarationStatement--><polygon fill="#FFFFFF" filter="url(#fvmvo75br86zh)" points="151.5,6,540.5,6,547.5,31.2295,970.5,31.2295,970.5,527,151.5,527,151.5,6" style="stroke: #000000; stroke-width: 1.5;"/><line style="stroke: #000000; stroke-width: 1.5;" x1="151.5" x2="547.5" y1="31.2295" y2="31.2295"/><text fill="#000000" font-family="sans-serif" font-size="14" font-weight="bold" lengthAdjust="spacingAndGlyphs" textLength="383" x="155.5" y="24.1533">org.eclipse.jdt.core.dom.VariableDeclarationStatement</text><!--MD5=[6e30f97b1c0f79faa1be3c65b81e884b]
class org.eclipse.jdt.core.dom.VariableDeclarationStatement.fragments771459166--><rect codeLine="22" fill="#FEFECE" filter="url(#fvmvo75br86zh)" height="467.0488" id="org.eclipse.jdt.core.dom.VariableDeclarationStatement.fragments771459166" style="stroke: #008000; stroke-width: 1.5;" width="376" x="578.5" y="44"/><ellipse cx="730.25" cy="60" fill="#ADD1B2" rx="11" ry="11" style="stroke: #008000; stroke-width: 1.0;"/><path d="M730.0781,53.4844 Q728.2031,53.4844 727.0469,55.2344 Q725.8594,57.0156 725.8594,60.0156 Q725.8594,63.3906 727.0625,65.1563 Q728.125,66.7813 729.875,66.7813 Q731.5625,66.7813 732.5156,65.875 Q733.5781,64.8594 733.7188,62.625 Q733.7188,62.2031 733.4844,61.9688 Q733.2969,61.7344 732.9531,61.7031 Q732.625,61.7031 732.3906,61.8906 Q732.125,62.125 732.125,62.5156 Q732.0938,63.9063 731.5,64.6406 Q730.9688,65.3438 730.0156,65.3438 Q728.8594,65.3438 728.1406,63.9063 Q727.4219,62.4063 727.4219,59.9844 Q727.4219,57.4375 728.3125,56.0469 Q729.0625,54.9219 730.2031,54.9219 Q730.8594,54.9219 731.3594,55.4688 Q731.9219,56.0781 732.0469,57.1406 Q732.0938,57.8438 732.9219,57.7344 Q733.7031,57.625 733.6563,56.9375 Q733.4688,55.4219 732.7031,54.5469 Q731.7656,53.4844 730.0781,53.4844 Z "/><text fill="#000000" font-family="sans-serif" font-size="12" lengthAdjust="spacingAndGlyphs" textLength="64" x="750.75" y="65.6045">fragments()</text><line style="stroke: #008000; stroke-width: 1.5;" x1="579.5" x2="953.5" y1="76" y2="76"/><text fill="#000000" font-family="sans-serif" font-size="11" lengthAdjust="spacingAndGlyphs" textLength="44" x="584.5" y="92.6919">pram : ( )</text><text fill="#000000" font-family="sans-serif" font-size="11" lengthAdjust="spacingAndGlyphs" textLength="364" x="584.5" y="107.8008">SrcOwnClassName : org.eclipse.jdt.core.dom.VariableDeclarationStatement</text><text fill="#000000" font-family="sans-serif" font-size="11" lengthAdjust="spacingAndGlyphs" textLength="361" x="584.5" y="122.9097">SrcSig : org.eclipse.jdt.core.dom.VariableDeclarationStatement.fragments()</text><text fill="#000000" font-family="sans-serif" font-size="11" lengthAdjust="spacingAndGlyphs" textLength="81" x="584.5" y="138.0186">Sig : fragments()</text><text fill="#000000" font-family="sans-serif" font-size="11" lengthAdjust="spacingAndGlyphs" textLength="96" x="584.5" y="172.2363">parameter Score : 0</text><text fill="#000000" font-family="sans-serif" font-size="11" lengthAdjust="spacingAndGlyphs" textLength="90" x="584.5" y="187.3452">classCall Score : 0</text><text fill="#000000" font-family="sans-serif" font-size="11" lengthAdjust="spacingAndGlyphs" textLength="64" x="584.5" y="202.4541">Call Score : 0</text><text fill="#000000" font-family="sans-serif" font-size="11" lengthAdjust="spacingAndGlyphs" textLength="77" x="584.5" y="217.563">CallBy Score : 2</text><text fill="#000000" font-family="sans-serif" font-size="11" lengthAdjust="spacingAndGlyphs" textLength="104" x="584.5" y="232.6719">memberUse Score : 0</text><text fill="#000000" font-family="sans-serif" font-size="11" lengthAdjust="spacingAndGlyphs" textLength="97" x="584.5" y="247.7808">localValue Score : 0</text><text fill="#000000" font-family="sans-serif" font-size="11" lengthAdjust="spacingAndGlyphs" textLength="65" x="584.5" y="262.8896">exp Score : 0</text><text fill="#000000" font-family="sans-serif" font-size="11" lengthAdjust="spacingAndGlyphs" textLength="78" x="584.5" y="277.9985">repeat Score : 0</text><text fill="#000000" font-family="sans-serif" font-size="11" lengthAdjust="spacingAndGlyphs" textLength="81" x="584.5" y="293.1074">brench Score : 0</text><text fill="#000000" font-family="sans-serif" font-size="11" lengthAdjust="spacingAndGlyphs" textLength="80" x="584.5" y="308.2163">callCountNum : 0</text><text fill="#000000" font-family="sans-serif" font-size="11" lengthAdjust="spacingAndGlyphs" textLength="66" x="584.5" y="323.3252">cyclomatic : 1</text><text fill="#000000" font-family="sans-serif" font-size="11" lengthAdjust="spacingAndGlyphs" textLength="105" x="584.5" y="338.4341">State Node lineNum: 0</text><text fill="#000000" font-family="sans-serif" font-size="11" lengthAdjust="spacingAndGlyphs" textLength="92" x="584.5" y="353.543">State Node Num : 0</text><text fill="#000000" font-family="sans-serif" font-size="11" lengthAdjust="spacingAndGlyphs" textLength="122" x="584.5" y="368.6519">State Node callListSize: 0</text><text fill="#000000" font-family="sans-serif" font-size="11" lengthAdjust="spacingAndGlyphs" textLength="123" x="584.5" y="383.7607">State Node repeatSize : 0</text><text fill="#000000" font-family="sans-serif" font-size="11" lengthAdjust="spacingAndGlyphs" textLength="117" x="584.5" y="398.8696">State Node writeSize : 0</text><text fill="#000000" font-family="sans-serif" font-size="11" lengthAdjust="spacingAndGlyphs" textLength="114" x="584.5" y="413.9785">State Node bifurSize : 0</text><text fill="#000000" font-family="sans-serif" font-size="11" lengthAdjust="spacingAndGlyphs" textLength="206" x="584.5" y="429.0874">Calculated Estunated Program Length: NaN</text><text fill="#000000" font-family="sans-serif" font-size="11" lengthAdjust="spacingAndGlyphs" textLength="65" x="584.5" y="444.1963">Volume : NaN</text><text fill="#000000" font-family="sans-serif" font-size="11" lengthAdjust="spacingAndGlyphs" textLength="72" x="584.5" y="459.3052">Diffifculty: NaN</text><text fill="#000000" font-family="sans-serif" font-size="11" lengthAdjust="spacingAndGlyphs" textLength="56" x="584.5" y="474.4141">Effort : NaN</text><text fill="#000000" font-family="sans-serif" font-size="11" lengthAdjust="spacingAndGlyphs" textLength="69" x="584.5" y="489.5229">ABS Score : 0</text><text fill="#000000" font-family="sans-serif" font-size="11" lengthAdjust="spacingAndGlyphs" textLength="85" x="584.5" y="504.6318">Relative Score : 0</text><line style="stroke: #008000; stroke-width: 1.5;" x1="579.5" x2="730" y1="151.99" y2="151.99"/><text fill="#FFA500" font-family="sans-serif" font-size="11" font-weight="bold" lengthAdjust="spacingAndGlyphs" textLength="73" x="730" y="156.6274">Complex Info</text><line style="stroke: #008000; stroke-width: 1.5;" x1="803" x2="953.5" y1="151.99" y2="151.99"/><!--MD5=[b9e7026592ae9d27aea1acd2c270571d]
class org.eclipse.jdt.core.dom.VariableDeclarationStatement.getType1824423245--><rect codeLine="53" fill="#FEFECE" filter="url(#fvmvo75br86zh)" height="467.0488" id="org.eclipse.jdt.core.dom.VariableDeclarationStatement.getType1824423245" style="stroke: #008000; stroke-width: 1.5;" width="376" x="167.5" y="44"/><ellipse cx="325.75" cy="60" fill="#ADD1B2" rx="11" ry="11" style="stroke: #008000; stroke-width: 1.0;"/><path d="M325.5781,53.4844 Q323.7031,53.4844 322.5469,55.2344 Q321.3594,57.0156 321.3594,60.0156 Q321.3594,63.3906 322.5625,65.1563 Q323.625,66.7813 325.375,66.7813 Q327.0625,66.7813 328.0156,65.875 Q329.0781,64.8594 329.2188,62.625 Q329.2188,62.2031 328.9844,61.9688 Q328.7969,61.7344 328.4531,61.7031 Q328.125,61.7031 327.8906,61.8906 Q327.625,62.125 327.625,62.5156 Q327.5938,63.9063 327,64.6406 Q326.4688,65.3438 325.5156,65.3438 Q324.3594,65.3438 323.6406,63.9063 Q322.9219,62.4063 322.9219,59.9844 Q322.9219,57.4375 323.8125,56.0469 Q324.5625,54.9219 325.7031,54.9219 Q326.3594,54.9219 326.8594,55.4688 Q327.4219,56.0781 327.5469,57.1406 Q327.5938,57.8438 328.4219,57.7344 Q329.2031,57.625 329.1563,56.9375 Q328.9688,55.4219 328.2031,54.5469 Q327.2656,53.4844 325.5781,53.4844 Z "/><text fill="#000000" font-family="sans-serif" font-size="12" lengthAdjust="spacingAndGlyphs" textLength="51" x="346.25" y="65.6045">getType()</text><line style="stroke: #008000; stroke-width: 1.5;" x1="168.5" x2="542.5" y1="76" y2="76"/><text fill="#000000" font-family="sans-serif" font-size="11" lengthAdjust="spacingAndGlyphs" textLength="44" x="173.5" y="92.6919">pram : ( )</text><text fill="#000000" font-family="sans-serif" font-size="11" lengthAdjust="spacingAndGlyphs" textLength="364" x="173.5" y="107.8008">SrcOwnClassName : org.eclipse.jdt.core.dom.VariableDeclarationStatement</text><text fill="#000000" font-family="sans-serif" font-size="11" lengthAdjust="spacingAndGlyphs" textLength="351" x="173.5" y="122.9097">SrcSig : org.eclipse.jdt.core.dom.VariableDeclarationStatement.getType()</text><text fill="#000000" font-family="sans-serif" font-size="11" lengthAdjust="spacingAndGlyphs" textLength="71" x="173.5" y="138.0186">Sig : getType()</text><text fill="#000000" font-family="sans-serif" font-size="11" lengthAdjust="spacingAndGlyphs" textLength="96" x="173.5" y="172.2363">parameter Score : 0</text><text fill="#000000" font-family="sans-serif" font-size="11" lengthAdjust="spacingAndGlyphs" textLength="90" x="173.5" y="187.3452">classCall Score : 0</text><text fill="#000000" font-family="sans-serif" font-size="11" lengthAdjust="spacingAndGlyphs" textLength="64" x="173.5" y="202.4541">Call Score : 0</text><text fill="#000000" font-family="sans-serif" font-size="11" lengthAdjust="spacingAndGlyphs" textLength="77" x="173.5" y="217.563">CallBy Score : 2</text><text fill="#000000" font-family="sans-serif" font-size="11" lengthAdjust="spacingAndGlyphs" textLength="104" x="173.5" y="232.6719">memberUse Score : 0</text><text fill="#000000" font-family="sans-serif" font-size="11" lengthAdjust="spacingAndGlyphs" textLength="97" x="173.5" y="247.7808">localValue Score : 0</text><text fill="#000000" font-family="sans-serif" font-size="11" lengthAdjust="spacingAndGlyphs" textLength="65" x="173.5" y="262.8896">exp Score : 0</text><text fill="#000000" font-family="sans-serif" font-size="11" lengthAdjust="spacingAndGlyphs" textLength="78" x="173.5" y="277.9985">repeat Score : 0</text><text fill="#000000" font-family="sans-serif" font-size="11" lengthAdjust="spacingAndGlyphs" textLength="81" x="173.5" y="293.1074">brench Score : 0</text><text fill="#000000" font-family="sans-serif" font-size="11" lengthAdjust="spacingAndGlyphs" textLength="80" x="173.5" y="308.2163">callCountNum : 0</text><text fill="#000000" font-family="sans-serif" font-size="11" lengthAdjust="spacingAndGlyphs" textLength="66" x="173.5" y="323.3252">cyclomatic : 1</text><text fill="#000000" font-family="sans-serif" font-size="11" lengthAdjust="spacingAndGlyphs" textLength="105" x="173.5" y="338.4341">State Node lineNum: 0</text><text fill="#000000" font-family="sans-serif" font-size="11" lengthAdjust="spacingAndGlyphs" textLength="92" x="173.5" y="353.543">State Node Num : 0</text><text fill="#000000" font-family="sans-serif" font-size="11" lengthAdjust="spacingAndGlyphs" textLength="122" x="173.5" y="368.6519">State Node callListSize: 0</text><text fill="#000000" font-family="sans-serif" font-size="11" lengthAdjust="spacingAndGlyphs" textLength="123" x="173.5" y="383.7607">State Node repeatSize : 0</text><text fill="#000000" font-family="sans-serif" font-size="11" lengthAdjust="spacingAndGlyphs" textLength="117" x="173.5" y="398.8696">State Node writeSize : 0</text><text fill="#000000" font-family="sans-serif" font-size="11" lengthAdjust="spacingAndGlyphs" textLength="114" x="173.5" y="413.9785">State Node bifurSize : 0</text><text fill="#000000" font-family="sans-serif" font-size="11" lengthAdjust="spacingAndGlyphs" textLength="206" x="173.5" y="429.0874">Calculated Estunated Program Length: NaN</text><text fill="#000000" font-family="sans-serif" font-size="11" lengthAdjust="spacingAndGlyphs" textLength="65" x="173.5" y="444.1963">Volume : NaN</text><text fill="#000000" font-family="sans-serif" font-size="11" lengthAdjust="spacingAndGlyphs" textLength="72" x="173.5" y="459.3052">Diffifculty: NaN</text><text fill="#000000" font-family="sans-serif" font-size="11" lengthAdjust="spacingAndGlyphs" textLength="56" x="173.5" y="474.4141">Effort : NaN</text><text fill="#000000" font-family="sans-serif" font-size="11" lengthAdjust="spacingAndGlyphs" textLength="69" x="173.5" y="489.5229">ABS Score : 0</text><text fill="#000000" font-family="sans-serif" font-size="11" lengthAdjust="spacingAndGlyphs" textLength="85" x="173.5" y="504.6318">Relative Score : 0</text><line style="stroke: #008000; stroke-width: 1.5;" x1="168.5" x2="319" y1="151.99" y2="151.99"/><text fill="#FFA500" font-family="sans-serif" font-size="11" font-weight="bold" lengthAdjust="spacingAndGlyphs" textLength="73" x="319" y="156.6274">Complex Info</text><line style="stroke: #008000; stroke-width: 1.5;" x1="392" x2="542.5" y1="151.99" y2="151.99"/><!--MD5=[f04bc90bf33944b7fab332a83ab18852]
class ClassComplex--><rect codeLine="1" fill="#FEFECE" filter="url(#fvmvo75br86zh)" height="319.96" id="ClassComplex" style="stroke: #A80036; stroke-width: 1.5;" width="125" x="7" y="117.5"/><ellipse cx="26.95" cy="133.5" fill="#ADD1B2" rx="11" ry="11" style="stroke: #A80036; stroke-width: 1.0;"/><path d="M26.7781,126.9844 Q24.9031,126.9844 23.7469,128.7344 Q22.5594,130.5156 22.5594,133.5156 Q22.5594,136.8906 23.7625,138.6563 Q24.825,140.2813 26.575,140.2813 Q28.2625,140.2813 29.2156,139.375 Q30.2781,138.3594 30.4188,136.125 Q30.4188,135.7031 30.1844,135.4688 Q29.9969,135.2344 29.6531,135.2031 Q29.325,135.2031 29.0906,135.3906 Q28.825,135.625 28.825,136.0156 Q28.7938,137.4063 28.2,138.1406 Q27.6688,138.8438 26.7156,138.8438 Q25.5594,138.8438 24.8406,137.4063 Q24.1219,135.9063 24.1219,133.4844 Q24.1219,130.9375 25.0125,129.5469 Q25.7625,128.4219 26.9031,128.4219 Q27.5594,128.4219 28.0594,128.9688 Q28.6219,129.5781 28.7469,130.6406 Q28.7938,131.3438 29.6219,131.2344 Q30.4031,131.125 30.3563,130.4375 Q30.1688,128.9219 29.4031,128.0469 Q28.4656,126.9844 26.7781,126.9844 Z "/><text fill="#000000" font-family="sans-serif" font-size="12" lengthAdjust="spacingAndGlyphs" textLength="82" x="42.05" y="139.1045">ClassComplex</text><line style="stroke: #A80036; stroke-width: 1.5;" x1="8" x2="131" y1="149.5" y2="149.5"/><text fill="#000000" font-family="sans-serif" font-size="11" lengthAdjust="spacingAndGlyphs" textLength="79" x="13" y="185.3008">memberScor = 0</text><text fill="#000000" font-family="sans-serif" font-size="11" lengthAdjust="spacingAndGlyphs" textLength="113" x="13" y="200.4097">extendsClassScore = 0</text><text fill="#000000" font-family="sans-serif" font-size="11" lengthAdjust="spacingAndGlyphs" textLength="63" x="13" y="215.5186">callScore = 0</text><text fill="#000000" font-family="sans-serif" font-size="11" lengthAdjust="spacingAndGlyphs" textLength="76" x="13" y="230.6274">callByScore = 0</text><text fill="#000000" font-family="sans-serif" font-size="11" lengthAdjust="spacingAndGlyphs" textLength="74" x="13" y="245.7363">methodNum = 0</text><text fill="#000000" font-family="sans-serif" font-size="11" lengthAdjust="spacingAndGlyphs" textLength="77" x="13" y="260.8452">memberNum = 0</text><text fill="#000000" font-family="sans-serif" font-size="11" lengthAdjust="spacingAndGlyphs" textLength="95" x="13" y="275.9541">constructorNum = 0</text><text fill="#000000" font-family="sans-serif" font-size="11" lengthAdjust="spacingAndGlyphs" textLength="83" x="13" y="291.063">selfCoverage = 0</text><text fill="#000000" font-family="sans-serif" font-size="11" lengthAdjust="spacingAndGlyphs" textLength="72" x="13" y="306.1719">needCallBy = 0</text><text fill="#000000" font-family="sans-serif" font-size="11" lengthAdjust="spacingAndGlyphs" textLength="40" x="13" y="321.2808">ABS = 0</text><text fill="#000000" font-family="sans-serif" font-size="11" lengthAdjust="spacingAndGlyphs" textLength="37" x="13" y="336.3896">REL = 0</text><text fill="#000000" font-family="sans-serif" font-size="11" lengthAdjust="spacingAndGlyphs" textLength="40" x="13" y="351.4985">ABS = 0</text><text fill="#000000" font-family="sans-serif" font-size="11" lengthAdjust="spacingAndGlyphs" textLength="37" x="13" y="366.6074">REL = 0</text><text fill="#000000" font-family="sans-serif" font-size="11" lengthAdjust="spacingAndGlyphs" textLength="83" x="13" y="381.7163">coverage = 0.0%</text><line style="stroke: #A80036; stroke-width: 1.5;" x1="8" x2="33" y1="165.0544" y2="165.0544"/><text fill="#FFA500" font-family="sans-serif" font-size="11" font-weight="bold" lengthAdjust="spacingAndGlyphs" textLength="73" x="33" y="169.6919">Complex Info</text><line style="stroke: #A80036; stroke-width: 1.5;" x1="106" x2="131" y1="165.0544" y2="165.0544"/><text fill="#008000" font-family="sans-serif" font-size="11" lengthAdjust="spacingAndGlyphs" textLength="93" x="13" y="415.9341">null fragments() (0)</text><text fill="#008000" font-family="sans-serif" font-size="11" lengthAdjust="spacingAndGlyphs" textLength="83" x="13" y="431.043">null getType() (0)</text><line style="stroke: #A80036; stroke-width: 1.5;" x1="8" x2="49.5" y1="395.6877" y2="395.6877"/><text fill="#008000" font-family="sans-serif" font-size="11" font-weight="bold" lengthAdjust="spacingAndGlyphs" textLength="40" x="49.5" y="400.3252">has list</text><line style="stroke: #A80036; stroke-width: 1.5;" x1="89.5" x2="131" y1="395.6877" y2="395.6877"/><!--MD5=[80ef6fb599a914c3f49053fae5404f03]
@startuml
class ClassComplex{
__**<color:orange>Complex Info</color>**__
	memberScor = 0
	extendsClassScore = 0
	callScore = 0
	callByScore = 0
	methodNum = 0
	memberNum = 0
	constructorNum = 0
	selfCoverage = 0
	needCallBy = 0
	ABS = 0
	REL = 0
	ABS = 0
	REL = 0
	coverage = 0.0%
__**<color:green>has list</color>**__
	<color:green>null fragments() (0)
	<color:green>null getType() (0)
}

class org.eclipse.jdt.core.dom.VariableDeclarationStatement.fragments771459166 as "fragments()"#line:green 
{
	pram : ( )
	SrcOwnClassName : org.eclipse.jdt.core.dom.VariableDeclarationStatement
	SrcSig : org.eclipse.jdt.core.dom.VariableDeclarationStatement.fragments()
	Sig : fragments()
	__**<color:orange>Complex Info</color>**__
	parameter Score : 0
	classCall Score : 0
	Call Score : 0
	CallBy Score : 2
	memberUse Score : 0
	localValue Score : 0
	exp Score : 0
	repeat Score : 0
	brench Score : 0
	callCountNum : 0
	cyclomatic : 1
	State Node lineNum: 0
	State Node Num : 0
	State Node callListSize: 0
	State Node repeatSize : 0
	State Node writeSize : 0
	State Node bifurSize : 0
	Calculated Estunated Program Length: NaN
	Volume : NaN
	Diffifculty: NaN
	Effort : NaN
	ABS Score : 0
	Relative Score : 0
}
class org.eclipse.jdt.core.dom.VariableDeclarationStatement.getType1824423245 as "getType()"#line:green 
{
	pram : ( )
	SrcOwnClassName : org.eclipse.jdt.core.dom.VariableDeclarationStatement
	SrcSig : org.eclipse.jdt.core.dom.VariableDeclarationStatement.getType()
	Sig : getType()
	__**<color:orange>Complex Info</color>**__
	parameter Score : 0
	classCall Score : 0
	Call Score : 0
	CallBy Score : 2
	memberUse Score : 0
	localValue Score : 0
	exp Score : 0
	repeat Score : 0
	brench Score : 0
	callCountNum : 0
	cyclomatic : 1
	State Node lineNum: 0
	State Node Num : 0
	State Node callListSize: 0
	State Node repeatSize : 0
	State Node writeSize : 0
	State Node bifurSize : 0
	Calculated Estunated Program Length: NaN
	Volume : NaN
	Diffifculty: NaN
	Effort : NaN
	ABS Score : 0
	Relative Score : 0
}

@enduml

PlantUML version 1.2020.19(Tue Oct 13 00:10:01 KST 2020)
(APACHE source distribution)
Java Runtime: Java(TM) SE Runtime Environment
JVM: Java HotSpot(TM) 64-Bit Server VM
Default Encoding: MS949
Language: ko
Country: KR
--></g></svg>