<?xml version="1.0" encoding="UTF-8" standalone="no"?><svg xmlns="http://www.w3.org/2000/svg" xmlns:xlink="http://www.w3.org/1999/xlink" contentScriptType="application/ecmascript" contentStyleType="text/css" height="315px" preserveAspectRatio="none" style="width:453px;height:315px;" version="1.1" viewBox="0 0 453 315" width="453px" zoomAndPan="magnify"><defs><filter height="300%" id="fz1romg0v1cck" width="300%" x="-1" y="-1"><feGaussianBlur result="blurOut" stdDeviation="2.0"/><feColorMatrix in="blurOut" result="blurOut2" type="matrix" values="0 0 0 0 0 0 0 0 0 0 0 0 0 0 0 0 0 0 .4 0"/><feOffset dx="4.0" dy="4.0" in="blurOut2" result="blurOut3"/><feBlend in="SourceGraphic" in2="blurOut3" mode="normal"/></filter></defs><g><rect fill="#FFFFFF" filter="url(#fz1romg0v1cck)" height="192.1357" style="stroke: #000000; stroke-width: 2.0;" width="429" x="10" y="60.2295"/><line style="stroke: #A80036; stroke-width: 1.0; stroke-dasharray: 5.0,5.0;" x1="33" x2="33" y1="43.2295" y2="269.3652"/><line style="stroke: #A80036; stroke-width: 1.0; stroke-dasharray: 5.0,5.0;" x1="90.5" x2="90.5" y1="43.2295" y2="269.3652"/><line style="stroke: #A80036; stroke-width: 1.0; stroke-dasharray: 5.0,5.0;" x1="127.5" x2="127.5" y1="43.2295" y2="269.3652"/><rect fill="#FEFECE" filter="url(#fz1romg0v1cck)" height="33.2295" style="stroke: #A80036; stroke-width: 1.5;" width="23" x="20" y="5"/><text fill="#000000" font-family="sans-serif" font-size="14" lengthAdjust="spacingAndGlyphs" textLength="9" x="27" y="28.1533">B</text><rect fill="#FEFECE" filter="url(#fz1romg0v1cck)" height="33.2295" style="stroke: #A80036; stroke-width: 1.5;" width="23" x="20" y="268.3652"/><text fill="#000000" font-family="sans-serif" font-size="14" lengthAdjust="spacingAndGlyphs" textLength="9" x="27" y="291.5186">B</text><rect fill="#FEFECE" filter="url(#fz1romg0v1cck)" height="33.2295" style="stroke: #A80036; stroke-width: 1.5;" width="24" x="76.5" y="5"/><text fill="#000000" font-family="sans-serif" font-size="14" lengthAdjust="spacingAndGlyphs" textLength="10" x="83.5" y="28.1533">C</text><rect fill="#FEFECE" filter="url(#fz1romg0v1cck)" height="33.2295" style="stroke: #A80036; stroke-width: 1.5;" width="24" x="76.5" y="268.3652"/><text fill="#000000" font-family="sans-serif" font-size="14" lengthAdjust="spacingAndGlyphs" textLength="10" x="83.5" y="291.5186">C</text><rect fill="#FEFECE" filter="url(#fz1romg0v1cck)" height="33.2295" style="stroke: #A80036; stroke-width: 1.5;" width="23" x="114.5" y="5"/><text fill="#000000" font-family="sans-serif" font-size="14" lengthAdjust="spacingAndGlyphs" textLength="9" x="121.5" y="28.1533">A</text><rect fill="#FEFECE" filter="url(#fz1romg0v1cck)" height="33.2295" style="stroke: #A80036; stroke-width: 1.5;" width="23" x="114.5" y="268.3652"/><text fill="#000000" font-family="sans-serif" font-size="14" lengthAdjust="spacingAndGlyphs" textLength="9" x="121.5" y="291.5186">A</text><path d="M10,60.2295 L434,60.2295 L434,69.2295 L424,79.2295 L10,79.2295 L10,60.2295 " fill="#EEEEEE" style="stroke: #000000; stroke-width: 1.0;"/><rect fill="none" height="192.1357" style="stroke: #000000; stroke-width: 2.0;" width="429" x="10" y="60.2295"/><text fill="#000000" font-family="sans-serif" font-size="13" font-weight="bold" lengthAdjust="spacingAndGlyphs" textLength="379" x="25" y="76.229">void connectTarget.B.Bc(connectTarget.C, connectTarget.A)</text><polygon fill="#A80036" points="78.5,99.9414,88.5,103.9414,78.5,107.9414,82.5,103.9414" style="stroke: #A80036; stroke-width: 1.0;"/><line style="stroke: #A80036; stroke-width: 1.0;" x1="33.5" x2="84.5" y1="103.9414" y2="103.9414"/><text fill="#000000" font-family="sans-serif" font-size="13" lengthAdjust="spacingAndGlyphs" textLength="26" x="40.5" y="99.085">AC()</text><polygon fill="#A80036" points="78.5,131.7974,88.5,135.7974,78.5,139.7974,82.5,135.7974" style="stroke: #A80036; stroke-width: 1.0;"/><line style="stroke: #A80036; stroke-width: 1.0;" x1="33.5" x2="84.5" y1="135.7974" y2="135.7974"/><text fill="#000000" font-family="sans-serif" font-size="13" lengthAdjust="spacingAndGlyphs" textLength="33" x="40.5" y="130.9409">CC1()</text><polygon fill="#A80036" points="78.5,163.6533,88.5,167.6533,78.5,171.6533,82.5,167.6533" style="stroke: #A80036; stroke-width: 1.0;"/><line style="stroke: #A80036; stroke-width: 1.0;" x1="33.5" x2="84.5" y1="167.6533" y2="167.6533"/><text fill="#000000" font-family="sans-serif" font-size="13" lengthAdjust="spacingAndGlyphs" textLength="33" x="40.5" y="162.7969">CC2()</text><polygon fill="#A80036" points="116,195.5093,126,199.5093,116,203.5093,120,199.5093" style="stroke: #A80036; stroke-width: 1.0;"/><line style="stroke: #A80036; stroke-width: 1.0;" x1="33.5" x2="122" y1="199.5093" y2="199.5093"/><text fill="#000000" font-family="sans-serif" font-size="13" lengthAdjust="spacingAndGlyphs" textLength="24" x="40.5" y="194.6528">Ba()</text><line style="stroke: #A80036; stroke-width: 1.0;" x1="33.5" x2="75.5" y1="231.3652" y2="231.3652"/><line style="stroke: #A80036; stroke-width: 1.0;" x1="75.5" x2="75.5" y1="231.3652" y2="244.3652"/><line style="stroke: #A80036; stroke-width: 1.0;" x1="34.5" x2="75.5" y1="244.3652" y2="244.3652"/><polygon fill="#A80036" points="44.5,240.3652,34.5,244.3652,44.5,248.3652,40.5,244.3652" style="stroke: #A80036; stroke-width: 1.0;"/><text fill="#000000" font-family="sans-serif" font-size="13" lengthAdjust="spacingAndGlyphs" textLength="26" x="40.5" y="226.5088">BB()</text><!--MD5=[0993b239cff6cb6d4a41a73cf6196b30]
@startuml
group void connectTarget.B.Bc(connectTarget.C, connectTarget.A)
	B->C : AC()
	B->C : CC1()
	B->C : CC2()
	B->A : Ba()
	B->B : BB()
end

@enduml

PlantUML version 1.2020.19(Tue Oct 13 00:10:01 KST 2020)
(APACHE source distribution)
Java Runtime: Java(TM) SE Runtime Environment
JVM: Java HotSpot(TM) 64-Bit Server VM
Default Encoding: MS949
Language: ko
Country: KR
--></g></svg>