<?xml version="1.0" encoding="UTF-8" standalone="no"?><svg xmlns="http://www.w3.org/2000/svg" xmlns:xlink="http://www.w3.org/1999/xlink" contentScriptType="application/ecmascript" contentStyleType="text/css" height="392px" preserveAspectRatio="none" style="width:221px;height:392px;" version="1.1" viewBox="0 0 221 392" width="221px" zoomAndPan="magnify"><defs><filter height="300%" id="f3uke5gsr0gz4" width="300%" x="-1" y="-1"><feGaussianBlur result="blurOut" stdDeviation="2.0"/><feColorMatrix in="blurOut" result="blurOut2" type="matrix" values="0 0 0 0 0 0 0 0 0 0 0 0 0 0 0 0 0 0 .4 0"/><feOffset dx="4.0" dy="4.0" in="blurOut2" result="blurOut3"/><feBlend in="SourceGraphic" in2="blurOut3" mode="normal"/></filter></defs><g><!--MD5=[26c5909e3beb0655f44a32ec04b7bf98]
cluster target--><polygon fill="#FFFFFF" filter="url(#f3uke5gsr0gz4)" points="16,6,64,6,71,31.2295,204,31.2295,204,385,16,385,16,6" style="stroke: #000000; stroke-width: 1.5;"/><line style="stroke: #000000; stroke-width: 1.5;" x1="16" x2="71" y1="31.2295" y2="31.2295"/><text fill="#000000" font-family="sans-serif" font-size="14" font-weight="bold" lengthAdjust="spacingAndGlyphs" textLength="42" x="20" y="24.1533">target</text><!--MD5=[d61eeb21116d1cdc310095b4f877fa95]
class target.Coffee--><rect codeLine="1" fill="#FEFECE" filter="url(#f3uke5gsr0gz4)" height="323.5144" id="target.Coffee" style="stroke: #A80036; stroke-width: 1.5;" width="157" x="32" y="45"/><ellipse cx="88.25" cy="61" fill="#ADD1B2" rx="11" ry="11" style="stroke: #A80036; stroke-width: 1.0;"/><path d="M87.8125,54.5156 Q85.0781,54.5156 84,56.1406 Q82.8594,57.8594 82.8594,60.7813 Q82.8594,64.0781 84.0156,65.7813 Q85,67.2813 87.6094,67.2813 Q89.1875,67.2813 90.0625,66.4531 Q91.0469,65.5 91.1875,63.375 Q91.1875,63.0781 91.0156,62.9063 Q90.8906,62.75 90.6719,62.7344 Q89.4531,62.7344 89.2969,62.8594 Q89.125,63.0156 89.125,63.2813 Q89.0938,64.7656 88.4375,65.5781 Q87.8281,66.375 87.75,66.375 Q86.4219,66.375 85.6406,64.7813 Q84.8906,63.2344 84.8906,60.75 Q84.8906,58.125 85.8281,56.6719 Q86.6563,55.4219 87.9375,55.4219 Q87.9375,55.4219 88.2813,56.0469 Q88.9063,56.7188 89.0469,57.875 Q89.1563,58.4531 90.625,58.2344 Q91.1563,58.1563 91.125,57.7344 Q90.9531,56.2969 90.2344,55.4844 Q89.375,54.5156 87.8125,54.5156 Z "/><text fill="#000000" font-family="sans-serif" font-size="12" lengthAdjust="spacingAndGlyphs" textLength="36" x="108.75" y="66.6045">Coffee</text><line style="stroke: #A80036; stroke-width: 1.5;" x1="33" x2="188" y1="77" y2="77"/><line style="stroke: #A80036; stroke-width: 1.5;" x1="33" x2="90.5" y1="92.5544" y2="92.5544"/><text fill="#008000" font-family="sans-serif" font-size="11" font-weight="bold" lengthAdjust="spacingAndGlyphs" textLength="40" x="90.5" y="97.1919">has list</text><line style="stroke: #A80036; stroke-width: 1.5;" x1="130.5" x2="188" y1="92.5544" y2="92.5544"/><line style="stroke: #A80036; stroke-width: 1.0; stroke-dasharray: 1.0,2.0;" x1="33" x2="97.5" y1="115.2178" y2="115.2178"/><text fill="#000000" font-family="sans-serif" font-size="11" lengthAdjust="spacingAndGlyphs" textLength="26" x="97.5" y="119.8552">class</text><line style="stroke: #A80036; stroke-width: 1.0; stroke-dasharray: 1.0,2.0;" x1="123.5" x2="188" y1="115.2178" y2="115.2178"/><line style="stroke: #A80036; stroke-width: 1.0; stroke-dasharray: 1.0,2.0;" x1="33" x2="91.5" y1="137.8811" y2="137.8811"/><text fill="#000000" font-family="sans-serif" font-size="11" lengthAdjust="spacingAndGlyphs" textLength="38" x="91.5" y="142.5186">member</text><line style="stroke: #A80036; stroke-width: 1.0; stroke-dasharray: 1.0,2.0;" x1="129.5" x2="188" y1="137.8811" y2="137.8811"/><text fill="#000000" font-family="sans-serif" font-size="11" lengthAdjust="spacingAndGlyphs" textLength="145" x="38" y="180.7908">void addShot() (2142080121);</text><line style="stroke: #A80036; stroke-width: 1.0; stroke-dasharray: 1.0,2.0;" x1="33" x2="93" y1="160.5444" y2="160.5444"/><text fill="#000000" font-family="sans-serif" font-size="11" lengthAdjust="spacingAndGlyphs" textLength="35" x="93" y="165.1819">method</text><line style="stroke: #A80036; stroke-width: 1.0; stroke-dasharray: 1.0,2.0;" x1="128" x2="188" y1="160.5444" y2="160.5444"/><line style="stroke: #A80036; stroke-width: 1.5;" x1="33" x2="83" y1="194.7622" y2="194.7622"/><text fill="#0000FF" font-family="sans-serif" font-size="11" font-weight="bold" lengthAdjust="spacingAndGlyphs" textLength="55" x="83" y="199.3997">calling list</text><line style="stroke: #A80036; stroke-width: 1.5;" x1="138" x2="188" y1="194.7622" y2="194.7622"/><line style="stroke: #A80036; stroke-width: 1.0; stroke-dasharray: 1.0,2.0;" x1="33" x2="97.5" y1="217.4255" y2="217.4255"/><text fill="#000000" font-family="sans-serif" font-size="11" lengthAdjust="spacingAndGlyphs" textLength="26" x="97.5" y="222.063">class</text><line style="stroke: #A80036; stroke-width: 1.0; stroke-dasharray: 1.0,2.0;" x1="123.5" x2="188" y1="217.4255" y2="217.4255"/><line style="stroke: #A80036; stroke-width: 1.0; stroke-dasharray: 1.0,2.0;" x1="33" x2="91.5" y1="240.0889" y2="240.0889"/><text fill="#000000" font-family="sans-serif" font-size="11" lengthAdjust="spacingAndGlyphs" textLength="38" x="91.5" y="244.7263">member</text><line style="stroke: #A80036; stroke-width: 1.0; stroke-dasharray: 1.0,2.0;" x1="129.5" x2="188" y1="240.0889" y2="240.0889"/><line style="stroke: #A80036; stroke-width: 1.0; stroke-dasharray: 1.0,2.0;" x1="33" x2="93" y1="262.7522" y2="262.7522"/><text fill="#000000" font-family="sans-serif" font-size="11" lengthAdjust="spacingAndGlyphs" textLength="35" x="93" y="267.3896">method</text><line style="stroke: #A80036; stroke-width: 1.0; stroke-dasharray: 1.0,2.0;" x1="128" x2="188" y1="262.7522" y2="262.7522"/><line style="stroke: #A80036; stroke-width: 1.5;" x1="33" x2="76.5" y1="285.4155" y2="285.4155"/><text fill="#FFA500" font-family="sans-serif" font-size="11" font-weight="bold" lengthAdjust="spacingAndGlyphs" textLength="68" x="76.5" y="290.053">called by list</text><line style="stroke: #A80036; stroke-width: 1.5;" x1="144.5" x2="188" y1="285.4155" y2="285.4155"/><line style="stroke: #A80036; stroke-width: 1.0; stroke-dasharray: 1.0,2.0;" x1="33" x2="97.5" y1="308.0789" y2="308.0789"/><text fill="#000000" font-family="sans-serif" font-size="11" lengthAdjust="spacingAndGlyphs" textLength="26" x="97.5" y="312.7163">class</text><line style="stroke: #A80036; stroke-width: 1.0; stroke-dasharray: 1.0,2.0;" x1="123.5" x2="188" y1="308.0789" y2="308.0789"/><line style="stroke: #A80036; stroke-width: 1.0; stroke-dasharray: 1.0,2.0;" x1="33" x2="91.5" y1="330.7422" y2="330.7422"/><text fill="#000000" font-family="sans-serif" font-size="11" lengthAdjust="spacingAndGlyphs" textLength="38" x="91.5" y="335.3796">member</text><line style="stroke: #A80036; stroke-width: 1.0; stroke-dasharray: 1.0,2.0;" x1="129.5" x2="188" y1="330.7422" y2="330.7422"/><line style="stroke: #A80036; stroke-width: 1.0; stroke-dasharray: 1.0,2.0;" x1="33" x2="93" y1="353.4055" y2="353.4055"/><text fill="#000000" font-family="sans-serif" font-size="11" lengthAdjust="spacingAndGlyphs" textLength="35" x="93" y="358.043">method</text><line style="stroke: #A80036; stroke-width: 1.0; stroke-dasharray: 1.0,2.0;" x1="128" x2="188" y1="353.4055" y2="353.4055"/><!--MD5=[b80992b76ffb98b4d787a6c6f200e27d]
@startuml
class target.Coffee{
__**<color:green>has list</color>**__
..class..
..member..
..method..
	void addShot() (2142080121);
__**<color:blue>calling list</color>**__
..class..
..member..
..method..
__**<color:orange>called by list</color>**__
..class..
..member..
..method..
}

@enduml

PlantUML version 1.2020.19(Tue Oct 13 00:10:01 KST 2020)
(APACHE source distribution)
Java Runtime: Java(TM) SE Runtime Environment
JVM: Java HotSpot(TM) 64-Bit Server VM
Default Encoding: MS949
Language: ko
Country: KR
--></g></svg>