<?xml version="1.0" encoding="UTF-8" standalone="no"?><svg xmlns="http://www.w3.org/2000/svg" xmlns:xlink="http://www.w3.org/1999/xlink" contentScriptType="application/ecmascript" contentStyleType="text/css" height="2660px" preserveAspectRatio="none" style="width:633px;height:2660px;" version="1.1" viewBox="0 0 633 2660" width="633px" zoomAndPan="magnify"><defs><filter height="300%" id="f1udymhrngi92o" width="300%" x="-1" y="-1"><feGaussianBlur result="blurOut" stdDeviation="2.0"/><feColorMatrix in="blurOut" result="blurOut2" type="matrix" values="0 0 0 0 0 0 0 0 0 0 0 0 0 0 0 0 0 0 .4 0"/><feOffset dx="4.0" dy="4.0" in="blurOut2" result="blurOut3"/><feBlend in="SourceGraphic" in2="blurOut3" mode="normal"/></filter></defs><g><rect fill="#FFFFFF" filter="url(#f1udymhrngi92o)" height="103.9316" style="stroke: #000000; stroke-width: 2.0;" width="359" x="10" y="57.4883"/><rect fill="#FFFFFF" filter="url(#f1udymhrngi92o)" height="103.9316" style="stroke: #000000; stroke-width: 2.0;" width="359" x="10" y="175.4199"/><rect fill="#FFFFFF" filter="url(#f1udymhrngi92o)" height="145.2422" style="stroke: #000000; stroke-width: 2.0;" width="359" x="10" y="293.3516"/><rect fill="#FFFFFF" filter="url(#f1udymhrngi92o)" height="60.6211" style="stroke: #000000; stroke-width: 2.0;" width="416" x="10" y="452.5938"/><rect fill="#FFFFFF" filter="url(#f1udymhrngi92o)" height="233.8633" style="stroke: #000000; stroke-width: 2.0;" width="524" x="10" y="527.2148"/><rect fill="#FFFFFF" filter="url(#f1udymhrngi92o)" height="233.8633" style="stroke: #000000; stroke-width: 2.0;" width="524" x="10" y="775.0781"/><rect fill="#FFFFFF" filter="url(#f1udymhrngi92o)" height="233.8633" style="stroke: #000000; stroke-width: 2.0;" width="524" x="10" y="1022.9414"/><rect fill="#FFFFFF" filter="url(#f1udymhrngi92o)" height="189.5527" style="stroke: #000000; stroke-width: 2.0;" width="524" x="10" y="1270.8047"/><rect fill="#FFFFFF" filter="url(#f1udymhrngi92o)" height="189.5527" style="stroke: #000000; stroke-width: 2.0;" width="524" x="10" y="1474.3574"/><rect fill="#FFFFFF" filter="url(#f1udymhrngi92o)" height="103.9316" style="stroke: #000000; stroke-width: 2.0;" width="609" x="10" y="1677.9102"/><rect fill="#FFFFFF" filter="url(#f1udymhrngi92o)" height="233.8633" style="stroke: #000000; stroke-width: 2.0;" width="524" x="10" y="1795.8418"/><rect fill="#FFFFFF" filter="url(#f1udymhrngi92o)" height="233.8633" style="stroke: #000000; stroke-width: 2.0;" width="524" x="10" y="2043.7051"/><rect fill="#FFFFFF" filter="url(#f1udymhrngi92o)" height="233.8633" style="stroke: #000000; stroke-width: 2.0;" width="524" x="10" y="2291.5684"/><rect fill="#FFFFFF" filter="url(#f1udymhrngi92o)" height="60.6211" style="stroke: #000000; stroke-width: 2.0;" width="524" x="10" y="2539.4316"/><line style="stroke: #A80036; stroke-width: 1.0; stroke-dasharray: 5.0,5.0;" x1="72" x2="72" y1="40.4883" y2="2617.0527"/><line style="stroke: #A80036; stroke-width: 1.0; stroke-dasharray: 5.0,5.0;" x1="266" x2="266" y1="40.4883" y2="2617.0527"/><line style="stroke: #A80036; stroke-width: 1.0; stroke-dasharray: 5.0,5.0;" x1="329" x2="329" y1="40.4883" y2="2617.0527"/><line style="stroke: #A80036; stroke-width: 1.0; stroke-dasharray: 5.0,5.0;" x1="392" x2="392" y1="40.4883" y2="2617.0527"/><line style="stroke: #A80036; stroke-width: 1.0; stroke-dasharray: 5.0,5.0;" x1="475" x2="475" y1="40.4883" y2="2617.0527"/><line style="stroke: #A80036; stroke-width: 1.0; stroke-dasharray: 5.0,5.0;" x1="571" x2="571" y1="40.4883" y2="2617.0527"/><rect fill="#FEFECE" filter="url(#f1udymhrngi92o)" height="30.4883" style="stroke: #A80036; stroke-width: 1.5;" width="101" x="20" y="5"/><text fill="#000000" font-family="sans-serif" font-size="14" lengthAdjust="spacingAndGlyphs" textLength="87" x="27" y="25.5352">GameSystem</text><rect fill="#FEFECE" filter="url(#f1udymhrngi92o)" height="30.4883" style="stroke: #A80036; stroke-width: 1.5;" width="101" x="20" y="2616.0527"/><text fill="#000000" font-family="sans-serif" font-size="14" lengthAdjust="spacingAndGlyphs" textLength="87" x="27" y="2636.5879">GameSystem</text><rect fill="#FEFECE" filter="url(#f1udymhrngi92o)" height="30.4883" style="stroke: #A80036; stroke-width: 1.5;" width="43" x="243" y="5"/><text fill="#000000" font-family="sans-serif" font-size="14" lengthAdjust="spacingAndGlyphs" textLength="29" x="250" y="25.5352">Map</text><rect fill="#FEFECE" filter="url(#f1udymhrngi92o)" height="30.4883" style="stroke: #A80036; stroke-width: 1.5;" width="43" x="243" y="2616.0527"/><text fill="#000000" font-family="sans-serif" font-size="14" lengthAdjust="spacingAndGlyphs" textLength="29" x="250" y="2636.5879">Map</text><rect fill="#FEFECE" filter="url(#f1udymhrngi92o)" height="30.4883" style="stroke: #A80036; stroke-width: 1.5;" width="55" x="300" y="5"/><text fill="#000000" font-family="sans-serif" font-size="14" lengthAdjust="spacingAndGlyphs" textLength="41" x="307" y="25.5352">Player</text><rect fill="#FEFECE" filter="url(#f1udymhrngi92o)" height="30.4883" style="stroke: #A80036; stroke-width: 1.5;" width="55" x="300" y="2616.0527"/><text fill="#000000" font-family="sans-serif" font-size="14" lengthAdjust="spacingAndGlyphs" textLength="41" x="307" y="2636.5879">Player</text><rect fill="#FEFECE" filter="url(#f1udymhrngi92o)" height="30.4883" style="stroke: #A80036; stroke-width: 1.5;" width="43" x="369" y="5"/><text fill="#000000" font-family="sans-serif" font-size="14" lengthAdjust="spacingAndGlyphs" textLength="29" x="376" y="25.5352">Dice</text><rect fill="#FEFECE" filter="url(#f1udymhrngi92o)" height="30.4883" style="stroke: #A80036; stroke-width: 1.5;" width="43" x="369" y="2616.0527"/><text fill="#000000" font-family="sans-serif" font-size="14" lengthAdjust="spacingAndGlyphs" textLength="29" x="376" y="2636.5879">Dice</text><rect fill="#FEFECE" filter="url(#f1udymhrngi92o)" height="30.4883" style="stroke: #A80036; stroke-width: 1.5;" width="94" x="426" y="5"/><text fill="#000000" font-family="sans-serif" font-size="14" lengthAdjust="spacingAndGlyphs" textLength="80" x="433" y="25.5352">PrintStream</text><rect fill="#FEFECE" filter="url(#f1udymhrngi92o)" height="30.4883" style="stroke: #A80036; stroke-width: 1.5;" width="94" x="426" y="2616.0527"/><text fill="#000000" font-family="sans-serif" font-size="14" lengthAdjust="spacingAndGlyphs" textLength="80" x="433" y="2636.5879">PrintStream</text><rect fill="#FEFECE" filter="url(#f1udymhrngi92o)" height="30.4883" style="stroke: #A80036; stroke-width: 1.5;" width="71" x="534" y="5"/><text fill="#000000" font-family="sans-serif" font-size="14" lengthAdjust="spacingAndGlyphs" textLength="57" x="541" y="25.5352">Random</text><rect fill="#FEFECE" filter="url(#f1udymhrngi92o)" height="30.4883" style="stroke: #A80036; stroke-width: 1.5;" width="71" x="534" y="2616.0527"/><text fill="#000000" font-family="sans-serif" font-size="14" lengthAdjust="spacingAndGlyphs" textLength="57" x="541" y="2636.5879">Random</text><path d="M10,57.4883 L222,57.4883 L222,64.4883 L212,74.4883 L10,74.4883 L10,57.4883 " fill="#EEEEEE" style="stroke: #000000; stroke-width: 1.0;"/><rect fill="none" height="103.9316" style="stroke: #000000; stroke-width: 2.0;" width="359" x="10" y="57.4883"/><text fill="#000000" font-family="sans-serif" font-size="13" font-weight="bold" lengthAdjust="spacingAndGlyphs" textLength="167" x="25" y="71.0566">new GameSystem(int[][])</text><polygon fill="#A80036" points="254.5,92.1094,264.5,96.1094,254.5,100.1094,258.5,96.1094" style="stroke: #A80036; stroke-width: 1.0;"/><line style="stroke: #A80036; stroke-width: 1.0;" x1="72.5" x2="260.5" y1="96.1094" y2="96.1094"/><text fill="#000000" font-family="sans-serif" font-size="13" lengthAdjust="spacingAndGlyphs" textLength="34" x="79.5" y="91.3672">Map()</text><polygon fill="#A80036" points="83.5,106.1094,73.5,110.1094,83.5,114.1094,79.5,110.1094" style="stroke: #A80036; stroke-width: 1.0;"/><line style="stroke: #A80036; stroke-width: 1.0; stroke-dasharray: 2.0,2.0;" x1="77.5" x2="265.5" y1="110.1094" y2="110.1094"/><polygon fill="#A80036" points="317.5,135.4199,327.5,139.4199,317.5,143.4199,321.5,139.4199" style="stroke: #A80036; stroke-width: 1.0;"/><line style="stroke: #A80036; stroke-width: 1.0;" x1="72.5" x2="323.5" y1="139.4199" y2="139.4199"/><text fill="#000000" font-family="sans-serif" font-size="13" lengthAdjust="spacingAndGlyphs" textLength="142" x="79.5" y="134.6777">Player(java.lang.String)</text><polygon fill="#A80036" points="83.5,149.4199,73.5,153.4199,83.5,157.4199,79.5,153.4199" style="stroke: #A80036; stroke-width: 1.0;"/><line style="stroke: #A80036; stroke-width: 1.0; stroke-dasharray: 2.0,2.0;" x1="77.5" x2="328.5" y1="153.4199" y2="153.4199"/><path d="M10,175.4199 L222,175.4199 L222,182.4199 L212,192.4199 L10,192.4199 L10,175.4199 " fill="#EEEEEE" style="stroke: #000000; stroke-width: 1.0;"/><rect fill="none" height="103.9316" style="stroke: #000000; stroke-width: 2.0;" width="359" x="10" y="175.4199"/><text fill="#000000" font-family="sans-serif" font-size="13" font-weight="bold" lengthAdjust="spacingAndGlyphs" textLength="167" x="25" y="188.9883">new GameSystem(int[][])</text><polygon fill="#A80036" points="254.5,210.041,264.5,214.041,254.5,218.041,258.5,214.041" style="stroke: #A80036; stroke-width: 1.0;"/><line style="stroke: #A80036; stroke-width: 1.0;" x1="72.5" x2="260.5" y1="214.041" y2="214.041"/><text fill="#000000" font-family="sans-serif" font-size="13" lengthAdjust="spacingAndGlyphs" textLength="34" x="79.5" y="209.2988">Map()</text><polygon fill="#A80036" points="83.5,224.041,73.5,228.041,83.5,232.041,79.5,228.041" style="stroke: #A80036; stroke-width: 1.0;"/><line style="stroke: #A80036; stroke-width: 1.0; stroke-dasharray: 2.0,2.0;" x1="77.5" x2="265.5" y1="228.041" y2="228.041"/><polygon fill="#A80036" points="317.5,253.3516,327.5,257.3516,317.5,261.3516,321.5,257.3516" style="stroke: #A80036; stroke-width: 1.0;"/><line style="stroke: #A80036; stroke-width: 1.0;" x1="72.5" x2="323.5" y1="257.3516" y2="257.3516"/><text fill="#000000" font-family="sans-serif" font-size="13" lengthAdjust="spacingAndGlyphs" textLength="142" x="79.5" y="252.6094">Player(java.lang.String)</text><polygon fill="#A80036" points="83.5,267.3516,73.5,271.3516,83.5,275.3516,79.5,271.3516" style="stroke: #A80036; stroke-width: 1.0;"/><line style="stroke: #A80036; stroke-width: 1.0; stroke-dasharray: 2.0,2.0;" x1="77.5" x2="328.5" y1="271.3516" y2="271.3516"/><path d="M10,293.3516 L270,293.3516 L270,300.3516 L260,310.3516 L10,310.3516 L10,293.3516 " fill="#EEEEEE" style="stroke: #000000; stroke-width: 1.0;"/><rect fill="none" height="145.2422" style="stroke: #000000; stroke-width: 2.0;" width="359" x="10" y="293.3516"/><text fill="#000000" font-family="sans-serif" font-size="13" font-weight="bold" lengthAdjust="spacingAndGlyphs" textLength="215" x="25" y="306.9199">void playGame(java.lang.String)</text><polygon fill="#A80036" points="317.5,327.9727,327.5,331.9727,317.5,335.9727,321.5,331.9727" style="stroke: #A80036; stroke-width: 1.0;"/><line style="stroke: #A80036; stroke-width: 1.0;" x1="72.5" x2="323.5" y1="331.9727" y2="331.9727"/><text fill="#000000" font-family="sans-serif" font-size="13" lengthAdjust="spacingAndGlyphs" textLength="142" x="79.5" y="327.2305">Player(java.lang.String)</text><polygon fill="#A80036" points="83.5,341.9727,73.5,345.9727,83.5,349.9727,79.5,345.9727" style="stroke: #A80036; stroke-width: 1.0;"/><line style="stroke: #A80036; stroke-width: 1.0; stroke-dasharray: 2.0,2.0;" x1="77.5" x2="328.5" y1="345.9727" y2="345.9727"/><line style="stroke: #A80036; stroke-width: 1.0;" x1="72.5" x2="114.5" y1="375.2832" y2="375.2832"/><line style="stroke: #A80036; stroke-width: 1.0;" x1="114.5" x2="114.5" y1="375.2832" y2="388.2832"/><line style="stroke: #A80036; stroke-width: 1.0;" x1="73.5" x2="114.5" y1="388.2832" y2="388.2832"/><polygon fill="#A80036" points="83.5,384.2832,73.5,388.2832,83.5,392.2832,79.5,388.2832" style="stroke: #A80036; stroke-width: 1.0;"/><text fill="#000000" font-family="sans-serif" font-size="13" lengthAdjust="spacingAndGlyphs" textLength="78" x="79.5" y="370.541">diceSetting()</text><line style="stroke: #A80036; stroke-width: 1.0;" x1="72.5" x2="114.5" y1="417.5938" y2="417.5938"/><line style="stroke: #A80036; stroke-width: 1.0;" x1="114.5" x2="114.5" y1="417.5938" y2="430.5938"/><line style="stroke: #A80036; stroke-width: 1.0;" x1="73.5" x2="114.5" y1="430.5938" y2="430.5938"/><polygon fill="#A80036" points="83.5,426.5938,73.5,430.5938,83.5,434.5938,79.5,430.5938" style="stroke: #A80036; stroke-width: 1.0;"/><text fill="#000000" font-family="sans-serif" font-size="13" lengthAdjust="spacingAndGlyphs" textLength="39" x="79.5" y="412.8516">main()</text><path d="M10,452.5938 L173,452.5938 L173,459.5938 L163,469.5938 L10,469.5938 L10,452.5938 " fill="#EEEEEE" style="stroke: #000000; stroke-width: 1.0;"/><rect fill="none" height="60.6211" style="stroke: #000000; stroke-width: 2.0;" width="416" x="10" y="452.5938"/><text fill="#000000" font-family="sans-serif" font-size="13" font-weight="bold" lengthAdjust="spacingAndGlyphs" textLength="118" x="25" y="466.1621">void diceSetting()</text><polygon fill="#A80036" points="380.5,487.2148,390.5,491.2148,380.5,495.2148,384.5,491.2148" style="stroke: #A80036; stroke-width: 1.0;"/><line style="stroke: #A80036; stroke-width: 1.0;" x1="72.5" x2="386.5" y1="491.2148" y2="491.2148"/><text fill="#000000" font-family="sans-serif" font-size="13" lengthAdjust="spacingAndGlyphs" textLength="61" x="79.5" y="486.4727">Dice(int[])</text><polygon fill="#A80036" points="83.5,501.2148,73.5,505.2148,83.5,509.2148,79.5,505.2148" style="stroke: #A80036; stroke-width: 1.0;"/><line style="stroke: #A80036; stroke-width: 1.0; stroke-dasharray: 2.0,2.0;" x1="77.5" x2="391.5" y1="505.2148" y2="505.2148"/><path d="M10,527.2148 L285,527.2148 L285,534.2148 L275,544.2148 L10,544.2148 L10,527.2148 " fill="#EEEEEE" style="stroke: #000000; stroke-width: 1.0;"/><rect fill="none" height="233.8633" style="stroke: #000000; stroke-width: 2.0;" width="524" x="10" y="527.2148"/><text fill="#000000" font-family="sans-serif" font-size="13" font-weight="bold" lengthAdjust="spacingAndGlyphs" textLength="230" x="25" y="540.7832">void printPos(gameSystem.Player)</text><polygon fill="#A80036" points="317.5,561.8359,327.5,565.8359,317.5,569.8359,321.5,565.8359" style="stroke: #A80036; stroke-width: 1.0;"/><line style="stroke: #A80036; stroke-width: 1.0;" x1="72.5" x2="323.5" y1="565.8359" y2="565.8359"/><text fill="#000000" font-family="sans-serif" font-size="13" lengthAdjust="spacingAndGlyphs" textLength="50" x="79.5" y="561.0938">getPos()</text><polygon fill="#A80036" points="83.5,575.8359,73.5,579.8359,83.5,583.8359,79.5,579.8359" style="stroke: #A80036; stroke-width: 1.0;"/><line style="stroke: #A80036; stroke-width: 1.0; stroke-dasharray: 2.0,2.0;" x1="77.5" x2="328.5" y1="579.8359" y2="579.8359"/><polygon fill="#A80036" points="254.5,605.1465,264.5,609.1465,254.5,613.1465,258.5,609.1465" style="stroke: #A80036; stroke-width: 1.0;"/><line style="stroke: #A80036; stroke-width: 1.0;" x1="72.5" x2="260.5" y1="609.1465" y2="609.1465"/><text fill="#000000" font-family="sans-serif" font-size="13" lengthAdjust="spacingAndGlyphs" textLength="53" x="79.5" y="604.4043">getSize()</text><polygon fill="#A80036" points="83.5,619.1465,73.5,623.1465,83.5,627.1465,79.5,623.1465" style="stroke: #A80036; stroke-width: 1.0;"/><line style="stroke: #A80036; stroke-width: 1.0; stroke-dasharray: 2.0,2.0;" x1="77.5" x2="265.5" y1="623.1465" y2="623.1465"/><polygon fill="#A80036" points="463,648.457,473,652.457,463,656.457,467,652.457" style="stroke: #A80036; stroke-width: 1.0;"/><line style="stroke: #A80036; stroke-width: 1.0;" x1="72.5" x2="469" y1="652.457" y2="652.457"/><text fill="#000000" font-family="sans-serif" font-size="13" lengthAdjust="spacingAndGlyphs" textLength="147" x="79.5" y="647.7148">println(java.lang.String)</text><polygon fill="#A80036" points="83.5,662.457,73.5,666.457,83.5,670.457,79.5,666.457" style="stroke: #A80036; stroke-width: 1.0;"/><line style="stroke: #A80036; stroke-width: 1.0; stroke-dasharray: 2.0,2.0;" x1="77.5" x2="474" y1="666.457" y2="666.457"/><polygon fill="#A80036" points="463,691.7676,473,695.7676,463,699.7676,467,695.7676" style="stroke: #A80036; stroke-width: 1.0;"/><line style="stroke: #A80036; stroke-width: 1.0;" x1="72.5" x2="469" y1="695.7676" y2="695.7676"/><text fill="#000000" font-family="sans-serif" font-size="13" lengthAdjust="spacingAndGlyphs" textLength="135" x="79.5" y="691.0254">print(java.lang.String)</text><polygon fill="#A80036" points="83.5,705.7676,73.5,709.7676,83.5,713.7676,79.5,709.7676" style="stroke: #A80036; stroke-width: 1.0;"/><line style="stroke: #A80036; stroke-width: 1.0; stroke-dasharray: 2.0,2.0;" x1="77.5" x2="474" y1="709.7676" y2="709.7676"/><polygon fill="#A80036" points="463,735.0781,473,739.0781,463,743.0781,467,739.0781" style="stroke: #A80036; stroke-width: 1.0;"/><line style="stroke: #A80036; stroke-width: 1.0;" x1="72.5" x2="469" y1="739.0781" y2="739.0781"/><text fill="#000000" font-family="sans-serif" font-size="13" lengthAdjust="spacingAndGlyphs" textLength="50" x="79.5" y="734.3359">println()</text><polygon fill="#A80036" points="83.5,749.0781,73.5,753.0781,83.5,757.0781,79.5,753.0781" style="stroke: #A80036; stroke-width: 1.0;"/><line style="stroke: #A80036; stroke-width: 1.0; stroke-dasharray: 2.0,2.0;" x1="77.5" x2="474" y1="753.0781" y2="753.0781"/><path d="M10,775.0781 L285,775.0781 L285,782.0781 L275,792.0781 L10,792.0781 L10,775.0781 " fill="#EEEEEE" style="stroke: #000000; stroke-width: 1.0;"/><rect fill="none" height="233.8633" style="stroke: #000000; stroke-width: 2.0;" width="524" x="10" y="775.0781"/><text fill="#000000" font-family="sans-serif" font-size="13" font-weight="bold" lengthAdjust="spacingAndGlyphs" textLength="230" x="25" y="788.6465">void printPos(gameSystem.Player)</text><polygon fill="#A80036" points="317.5,809.6992,327.5,813.6992,317.5,817.6992,321.5,813.6992" style="stroke: #A80036; stroke-width: 1.0;"/><line style="stroke: #A80036; stroke-width: 1.0;" x1="72.5" x2="323.5" y1="813.6992" y2="813.6992"/><text fill="#000000" font-family="sans-serif" font-size="13" lengthAdjust="spacingAndGlyphs" textLength="50" x="79.5" y="808.957">getPos()</text><polygon fill="#A80036" points="83.5,823.6992,73.5,827.6992,83.5,831.6992,79.5,827.6992" style="stroke: #A80036; stroke-width: 1.0;"/><line style="stroke: #A80036; stroke-width: 1.0; stroke-dasharray: 2.0,2.0;" x1="77.5" x2="328.5" y1="827.6992" y2="827.6992"/><polygon fill="#A80036" points="254.5,853.0098,264.5,857.0098,254.5,861.0098,258.5,857.0098" style="stroke: #A80036; stroke-width: 1.0;"/><line style="stroke: #A80036; stroke-width: 1.0;" x1="72.5" x2="260.5" y1="857.0098" y2="857.0098"/><text fill="#000000" font-family="sans-serif" font-size="13" lengthAdjust="spacingAndGlyphs" textLength="53" x="79.5" y="852.2676">getSize()</text><polygon fill="#A80036" points="83.5,867.0098,73.5,871.0098,83.5,875.0098,79.5,871.0098" style="stroke: #A80036; stroke-width: 1.0;"/><line style="stroke: #A80036; stroke-width: 1.0; stroke-dasharray: 2.0,2.0;" x1="77.5" x2="265.5" y1="871.0098" y2="871.0098"/><polygon fill="#A80036" points="463,896.3203,473,900.3203,463,904.3203,467,900.3203" style="stroke: #A80036; stroke-width: 1.0;"/><line style="stroke: #A80036; stroke-width: 1.0;" x1="72.5" x2="469" y1="900.3203" y2="900.3203"/><text fill="#000000" font-family="sans-serif" font-size="13" lengthAdjust="spacingAndGlyphs" textLength="147" x="79.5" y="895.5781">println(java.lang.String)</text><polygon fill="#A80036" points="83.5,910.3203,73.5,914.3203,83.5,918.3203,79.5,914.3203" style="stroke: #A80036; stroke-width: 1.0;"/><line style="stroke: #A80036; stroke-width: 1.0; stroke-dasharray: 2.0,2.0;" x1="77.5" x2="474" y1="914.3203" y2="914.3203"/><polygon fill="#A80036" points="463,939.6309,473,943.6309,463,947.6309,467,943.6309" style="stroke: #A80036; stroke-width: 1.0;"/><line style="stroke: #A80036; stroke-width: 1.0;" x1="72.5" x2="469" y1="943.6309" y2="943.6309"/><text fill="#000000" font-family="sans-serif" font-size="13" lengthAdjust="spacingAndGlyphs" textLength="135" x="79.5" y="938.8887">print(java.lang.String)</text><polygon fill="#A80036" points="83.5,953.6309,73.5,957.6309,83.5,961.6309,79.5,957.6309" style="stroke: #A80036; stroke-width: 1.0;"/><line style="stroke: #A80036; stroke-width: 1.0; stroke-dasharray: 2.0,2.0;" x1="77.5" x2="474" y1="957.6309" y2="957.6309"/><polygon fill="#A80036" points="463,982.9414,473,986.9414,463,990.9414,467,986.9414" style="stroke: #A80036; stroke-width: 1.0;"/><line style="stroke: #A80036; stroke-width: 1.0;" x1="72.5" x2="469" y1="986.9414" y2="986.9414"/><text fill="#000000" font-family="sans-serif" font-size="13" lengthAdjust="spacingAndGlyphs" textLength="50" x="79.5" y="982.1992">println()</text><polygon fill="#A80036" points="83.5,996.9414,73.5,1000.9414,83.5,1004.9414,79.5,1000.9414" style="stroke: #A80036; stroke-width: 1.0;"/><line style="stroke: #A80036; stroke-width: 1.0; stroke-dasharray: 2.0,2.0;" x1="77.5" x2="474" y1="1000.9414" y2="1000.9414"/><path d="M10,1022.9414 L285,1022.9414 L285,1029.9414 L275,1039.9414 L10,1039.9414 L10,1022.9414 " fill="#EEEEEE" style="stroke: #000000; stroke-width: 1.0;"/><rect fill="none" height="233.8633" style="stroke: #000000; stroke-width: 2.0;" width="524" x="10" y="1022.9414"/><text fill="#000000" font-family="sans-serif" font-size="13" font-weight="bold" lengthAdjust="spacingAndGlyphs" textLength="230" x="25" y="1036.5098">void printPos(gameSystem.Player)</text><polygon fill="#A80036" points="317.5,1057.5625,327.5,1061.5625,317.5,1065.5625,321.5,1061.5625" style="stroke: #A80036; stroke-width: 1.0;"/><line style="stroke: #A80036; stroke-width: 1.0;" x1="72.5" x2="323.5" y1="1061.5625" y2="1061.5625"/><text fill="#000000" font-family="sans-serif" font-size="13" lengthAdjust="spacingAndGlyphs" textLength="50" x="79.5" y="1056.8203">getPos()</text><polygon fill="#A80036" points="83.5,1071.5625,73.5,1075.5625,83.5,1079.5625,79.5,1075.5625" style="stroke: #A80036; stroke-width: 1.0;"/><line style="stroke: #A80036; stroke-width: 1.0; stroke-dasharray: 2.0,2.0;" x1="77.5" x2="328.5" y1="1075.5625" y2="1075.5625"/><polygon fill="#A80036" points="254.5,1100.873,264.5,1104.873,254.5,1108.873,258.5,1104.873" style="stroke: #A80036; stroke-width: 1.0;"/><line style="stroke: #A80036; stroke-width: 1.0;" x1="72.5" x2="260.5" y1="1104.873" y2="1104.873"/><text fill="#000000" font-family="sans-serif" font-size="13" lengthAdjust="spacingAndGlyphs" textLength="53" x="79.5" y="1100.1309">getSize()</text><polygon fill="#A80036" points="83.5,1114.873,73.5,1118.873,83.5,1122.873,79.5,1118.873" style="stroke: #A80036; stroke-width: 1.0;"/><line style="stroke: #A80036; stroke-width: 1.0; stroke-dasharray: 2.0,2.0;" x1="77.5" x2="265.5" y1="1118.873" y2="1118.873"/><polygon fill="#A80036" points="463,1144.1836,473,1148.1836,463,1152.1836,467,1148.1836" style="stroke: #A80036; stroke-width: 1.0;"/><line style="stroke: #A80036; stroke-width: 1.0;" x1="72.5" x2="469" y1="1148.1836" y2="1148.1836"/><text fill="#000000" font-family="sans-serif" font-size="13" lengthAdjust="spacingAndGlyphs" textLength="147" x="79.5" y="1143.4414">println(java.lang.String)</text><polygon fill="#A80036" points="83.5,1158.1836,73.5,1162.1836,83.5,1166.1836,79.5,1162.1836" style="stroke: #A80036; stroke-width: 1.0;"/><line style="stroke: #A80036; stroke-width: 1.0; stroke-dasharray: 2.0,2.0;" x1="77.5" x2="474" y1="1162.1836" y2="1162.1836"/><polygon fill="#A80036" points="463,1187.4941,473,1191.4941,463,1195.4941,467,1191.4941" style="stroke: #A80036; stroke-width: 1.0;"/><line style="stroke: #A80036; stroke-width: 1.0;" x1="72.5" x2="469" y1="1191.4941" y2="1191.4941"/><text fill="#000000" font-family="sans-serif" font-size="13" lengthAdjust="spacingAndGlyphs" textLength="135" x="79.5" y="1186.752">print(java.lang.String)</text><polygon fill="#A80036" points="83.5,1201.4941,73.5,1205.4941,83.5,1209.4941,79.5,1205.4941" style="stroke: #A80036; stroke-width: 1.0;"/><line style="stroke: #A80036; stroke-width: 1.0; stroke-dasharray: 2.0,2.0;" x1="77.5" x2="474" y1="1205.4941" y2="1205.4941"/><polygon fill="#A80036" points="463,1230.8047,473,1234.8047,463,1238.8047,467,1234.8047" style="stroke: #A80036; stroke-width: 1.0;"/><line style="stroke: #A80036; stroke-width: 1.0;" x1="72.5" x2="469" y1="1234.8047" y2="1234.8047"/><text fill="#000000" font-family="sans-serif" font-size="13" lengthAdjust="spacingAndGlyphs" textLength="50" x="79.5" y="1230.0625">println()</text><polygon fill="#A80036" points="83.5,1244.8047,73.5,1248.8047,83.5,1252.8047,79.5,1248.8047" style="stroke: #A80036; stroke-width: 1.0;"/><line style="stroke: #A80036; stroke-width: 1.0; stroke-dasharray: 2.0,2.0;" x1="77.5" x2="474" y1="1248.8047" y2="1248.8047"/><path d="M10,1270.8047 L301,1270.8047 L301,1277.8047 L291,1287.8047 L10,1287.8047 L10,1270.8047 " fill="#EEEEEE" style="stroke: #000000; stroke-width: 1.0;"/><rect fill="none" height="189.5527" style="stroke: #000000; stroke-width: 2.0;" width="524" x="10" y="1270.8047"/><text fill="#000000" font-family="sans-serif" font-size="13" font-weight="bold" lengthAdjust="spacingAndGlyphs" textLength="246" x="25" y="1284.373">Dice choiceDice(gameSystem.Player)</text><polygon fill="#A80036" points="463,1305.4258,473,1309.4258,463,1313.4258,467,1309.4258" style="stroke: #A80036; stroke-width: 1.0;"/><line style="stroke: #A80036; stroke-width: 1.0;" x1="72.5" x2="469" y1="1309.4258" y2="1309.4258"/><text fill="#000000" font-family="sans-serif" font-size="13" lengthAdjust="spacingAndGlyphs" textLength="147" x="79.5" y="1304.6836">println(java.lang.String)</text><polygon fill="#A80036" points="83.5,1319.4258,73.5,1323.4258,83.5,1327.4258,79.5,1323.4258" style="stroke: #A80036; stroke-width: 1.0;"/><line style="stroke: #A80036; stroke-width: 1.0; stroke-dasharray: 2.0,2.0;" x1="77.5" x2="474" y1="1323.4258" y2="1323.4258"/><line style="stroke: #A80036; stroke-width: 1.0;" x1="72.5" x2="114.5" y1="1352.7363" y2="1352.7363"/><line style="stroke: #A80036; stroke-width: 1.0;" x1="114.5" x2="114.5" y1="1352.7363" y2="1365.7363"/><line style="stroke: #A80036; stroke-width: 1.0;" x1="73.5" x2="114.5" y1="1365.7363" y2="1365.7363"/><polygon fill="#A80036" points="83.5,1361.7363,73.5,1365.7363,83.5,1369.7363,79.5,1365.7363" style="stroke: #A80036; stroke-width: 1.0;"/><text fill="#000000" font-family="sans-serif" font-size="13" lengthAdjust="spacingAndGlyphs" textLength="180" x="79.5" y="1347.9941">printPos(gameSystem.Player)</text><polygon fill="#A80036" points="463,1391.0469,473,1395.0469,463,1399.0469,467,1395.0469" style="stroke: #A80036; stroke-width: 1.0;"/><line style="stroke: #A80036; stroke-width: 1.0;" x1="72.5" x2="469" y1="1395.0469" y2="1395.0469"/><text fill="#000000" font-family="sans-serif" font-size="13" lengthAdjust="spacingAndGlyphs" textLength="135" x="79.5" y="1390.3047">print(java.lang.String)</text><polygon fill="#A80036" points="83.5,1405.0469,73.5,1409.0469,83.5,1413.0469,79.5,1409.0469" style="stroke: #A80036; stroke-width: 1.0;"/><line style="stroke: #A80036; stroke-width: 1.0; stroke-dasharray: 2.0,2.0;" x1="77.5" x2="474" y1="1409.0469" y2="1409.0469"/><polygon fill="#A80036" points="463,1434.3574,473,1438.3574,463,1442.3574,467,1438.3574" style="stroke: #A80036; stroke-width: 1.0;"/><line style="stroke: #A80036; stroke-width: 1.0;" x1="72.5" x2="469" y1="1438.3574" y2="1438.3574"/><text fill="#000000" font-family="sans-serif" font-size="13" lengthAdjust="spacingAndGlyphs" textLength="50" x="79.5" y="1433.6152">println()</text><polygon fill="#A80036" points="83.5,1448.3574,73.5,1452.3574,83.5,1456.3574,79.5,1452.3574" style="stroke: #A80036; stroke-width: 1.0;"/><line style="stroke: #A80036; stroke-width: 1.0; stroke-dasharray: 2.0,2.0;" x1="77.5" x2="474" y1="1452.3574" y2="1452.3574"/><path d="M10,1474.3574 L301,1474.3574 L301,1481.3574 L291,1491.3574 L10,1491.3574 L10,1474.3574 " fill="#EEEEEE" style="stroke: #000000; stroke-width: 1.0;"/><rect fill="none" height="189.5527" style="stroke: #000000; stroke-width: 2.0;" width="524" x="10" y="1474.3574"/><text fill="#000000" font-family="sans-serif" font-size="13" font-weight="bold" lengthAdjust="spacingAndGlyphs" textLength="246" x="25" y="1487.9258">Dice choiceDice(gameSystem.Player)</text><polygon fill="#A80036" points="463,1508.9785,473,1512.9785,463,1516.9785,467,1512.9785" style="stroke: #A80036; stroke-width: 1.0;"/><line style="stroke: #A80036; stroke-width: 1.0;" x1="72.5" x2="469" y1="1512.9785" y2="1512.9785"/><text fill="#000000" font-family="sans-serif" font-size="13" lengthAdjust="spacingAndGlyphs" textLength="147" x="79.5" y="1508.2363">println(java.lang.String)</text><polygon fill="#A80036" points="83.5,1522.9785,73.5,1526.9785,83.5,1530.9785,79.5,1526.9785" style="stroke: #A80036; stroke-width: 1.0;"/><line style="stroke: #A80036; stroke-width: 1.0; stroke-dasharray: 2.0,2.0;" x1="77.5" x2="474" y1="1526.9785" y2="1526.9785"/><line style="stroke: #A80036; stroke-width: 1.0;" x1="72.5" x2="114.5" y1="1556.2891" y2="1556.2891"/><line style="stroke: #A80036; stroke-width: 1.0;" x1="114.5" x2="114.5" y1="1556.2891" y2="1569.2891"/><line style="stroke: #A80036; stroke-width: 1.0;" x1="73.5" x2="114.5" y1="1569.2891" y2="1569.2891"/><polygon fill="#A80036" points="83.5,1565.2891,73.5,1569.2891,83.5,1573.2891,79.5,1569.2891" style="stroke: #A80036; stroke-width: 1.0;"/><text fill="#000000" font-family="sans-serif" font-size="13" lengthAdjust="spacingAndGlyphs" textLength="180" x="79.5" y="1551.5469">printPos(gameSystem.Player)</text><polygon fill="#A80036" points="463,1594.5996,473,1598.5996,463,1602.5996,467,1598.5996" style="stroke: #A80036; stroke-width: 1.0;"/><line style="stroke: #A80036; stroke-width: 1.0;" x1="72.5" x2="469" y1="1598.5996" y2="1598.5996"/><text fill="#000000" font-family="sans-serif" font-size="13" lengthAdjust="spacingAndGlyphs" textLength="135" x="79.5" y="1593.8574">print(java.lang.String)</text><polygon fill="#A80036" points="83.5,1608.5996,73.5,1612.5996,83.5,1616.5996,79.5,1612.5996" style="stroke: #A80036; stroke-width: 1.0;"/><line style="stroke: #A80036; stroke-width: 1.0; stroke-dasharray: 2.0,2.0;" x1="77.5" x2="474" y1="1612.5996" y2="1612.5996"/><polygon fill="#A80036" points="463,1637.9102,473,1641.9102,463,1645.9102,467,1641.9102" style="stroke: #A80036; stroke-width: 1.0;"/><line style="stroke: #A80036; stroke-width: 1.0;" x1="72.5" x2="469" y1="1641.9102" y2="1641.9102"/><text fill="#000000" font-family="sans-serif" font-size="13" lengthAdjust="spacingAndGlyphs" textLength="50" x="79.5" y="1637.168">println()</text><polygon fill="#A80036" points="83.5,1651.9102,73.5,1655.9102,83.5,1659.9102,79.5,1655.9102" style="stroke: #A80036; stroke-width: 1.0;"/><line style="stroke: #A80036; stroke-width: 1.0; stroke-dasharray: 2.0,2.0;" x1="77.5" x2="474" y1="1655.9102" y2="1655.9102"/><path d="M10,1677.9102 L258,1677.9102 L258,1684.9102 L248,1694.9102 L10,1694.9102 L10,1677.9102 " fill="#EEEEEE" style="stroke: #000000; stroke-width: 1.0;"/><rect fill="none" height="103.9316" style="stroke: #000000; stroke-width: 2.0;" width="609" x="10" y="1677.9102"/><text fill="#000000" font-family="sans-serif" font-size="13" font-weight="bold" lengthAdjust="spacingAndGlyphs" textLength="203" x="25" y="1691.4785">int diceRoll(gameSystem.Dice)</text><polygon fill="#A80036" points="380.5,1712.5313,390.5,1716.5313,380.5,1720.5313,384.5,1716.5313" style="stroke: #A80036; stroke-width: 1.0;"/><line style="stroke: #A80036; stroke-width: 1.0;" x1="72.5" x2="386.5" y1="1716.5313" y2="1716.5313"/><text fill="#000000" font-family="sans-serif" font-size="13" lengthAdjust="spacingAndGlyphs" textLength="29" x="79.5" y="1711.7891">roll()</text><polygon fill="#A80036" points="559.5,1741.8418,569.5,1745.8418,559.5,1749.8418,563.5,1745.8418" style="stroke: #A80036; stroke-width: 1.0;"/><line style="stroke: #A80036; stroke-width: 1.0;" x1="392.5" x2="565.5" y1="1745.8418" y2="1745.8418"/><text fill="#000000" font-family="sans-serif" font-size="13" lengthAdjust="spacingAndGlyphs" textLength="70" x="399.5" y="1741.0996">nextInt(int)</text><polygon fill="#A80036" points="403.5,1755.8418,393.5,1759.8418,403.5,1763.8418,399.5,1759.8418" style="stroke: #A80036; stroke-width: 1.0;"/><line style="stroke: #A80036; stroke-width: 1.0; stroke-dasharray: 2.0,2.0;" x1="397.5" x2="570.5" y1="1759.8418" y2="1759.8418"/><polygon fill="#A80036" points="83.5,1769.8418,73.5,1773.8418,83.5,1777.8418,79.5,1773.8418" style="stroke: #A80036; stroke-width: 1.0;"/><line style="stroke: #A80036; stroke-width: 1.0; stroke-dasharray: 2.0,2.0;" x1="77.5" x2="391.5" y1="1773.8418" y2="1773.8418"/><path d="M10,1795.8418 L291,1795.8418 L291,1802.8418 L281,1812.8418 L10,1812.8418 L10,1795.8418 " fill="#EEEEEE" style="stroke: #000000; stroke-width: 1.0;"/><rect fill="none" height="233.8633" style="stroke: #000000; stroke-width: 2.0;" width="524" x="10" y="1795.8418"/><text fill="#000000" font-family="sans-serif" font-size="13" font-weight="bold" lengthAdjust="spacingAndGlyphs" textLength="236" x="25" y="1809.4102">void move(int, gameSystem.Player)</text><polygon fill="#A80036" points="317.5,1830.4629,327.5,1834.4629,317.5,1838.4629,321.5,1834.4629" style="stroke: #A80036; stroke-width: 1.0;"/><line style="stroke: #A80036; stroke-width: 1.0;" x1="72.5" x2="323.5" y1="1834.4629" y2="1834.4629"/><text fill="#000000" font-family="sans-serif" font-size="13" lengthAdjust="spacingAndGlyphs" textLength="50" x="79.5" y="1829.7207">getPos()</text><polygon fill="#A80036" points="83.5,1844.4629,73.5,1848.4629,83.5,1852.4629,79.5,1848.4629" style="stroke: #A80036; stroke-width: 1.0;"/><line style="stroke: #A80036; stroke-width: 1.0; stroke-dasharray: 2.0,2.0;" x1="77.5" x2="328.5" y1="1848.4629" y2="1848.4629"/><polygon fill="#A80036" points="254.5,1873.7734,264.5,1877.7734,254.5,1881.7734,258.5,1877.7734" style="stroke: #A80036; stroke-width: 1.0;"/><line style="stroke: #A80036; stroke-width: 1.0;" x1="72.5" x2="260.5" y1="1877.7734" y2="1877.7734"/><text fill="#000000" font-family="sans-serif" font-size="13" lengthAdjust="spacingAndGlyphs" textLength="53" x="79.5" y="1873.0313">getSize()</text><polygon fill="#A80036" points="83.5,1887.7734,73.5,1891.7734,83.5,1895.7734,79.5,1891.7734" style="stroke: #A80036; stroke-width: 1.0;"/><line style="stroke: #A80036; stroke-width: 1.0; stroke-dasharray: 2.0,2.0;" x1="77.5" x2="265.5" y1="1891.7734" y2="1891.7734"/><polygon fill="#A80036" points="254.5,1917.084,264.5,1921.084,254.5,1925.084,258.5,1921.084" style="stroke: #A80036; stroke-width: 1.0;"/><line style="stroke: #A80036; stroke-width: 1.0;" x1="72.5" x2="260.5" y1="1921.084" y2="1921.084"/><text fill="#000000" font-family="sans-serif" font-size="13" lengthAdjust="spacingAndGlyphs" textLength="79" x="79.5" y="1916.3418">getEvent(int)</text><polygon fill="#A80036" points="83.5,1931.084,73.5,1935.084,83.5,1939.084,79.5,1935.084" style="stroke: #A80036; stroke-width: 1.0;"/><line style="stroke: #A80036; stroke-width: 1.0; stroke-dasharray: 2.0,2.0;" x1="77.5" x2="265.5" y1="1935.084" y2="1935.084"/><polygon fill="#A80036" points="463,1960.3945,473,1964.3945,463,1968.3945,467,1964.3945" style="stroke: #A80036; stroke-width: 1.0;"/><line style="stroke: #A80036; stroke-width: 1.0;" x1="72.5" x2="469" y1="1964.3945" y2="1964.3945"/><text fill="#000000" font-family="sans-serif" font-size="13" lengthAdjust="spacingAndGlyphs" textLength="147" x="79.5" y="1959.6523">println(java.lang.String)</text><polygon fill="#A80036" points="83.5,1974.3945,73.5,1978.3945,83.5,1982.3945,79.5,1978.3945" style="stroke: #A80036; stroke-width: 1.0;"/><line style="stroke: #A80036; stroke-width: 1.0; stroke-dasharray: 2.0,2.0;" x1="77.5" x2="474" y1="1978.3945" y2="1978.3945"/><polygon fill="#A80036" points="317.5,2003.7051,327.5,2007.7051,317.5,2011.7051,321.5,2007.7051" style="stroke: #A80036; stroke-width: 1.0;"/><line style="stroke: #A80036; stroke-width: 1.0;" x1="72.5" x2="323.5" y1="2007.7051" y2="2007.7051"/><text fill="#000000" font-family="sans-serif" font-size="13" lengthAdjust="spacingAndGlyphs" textLength="66" x="79.5" y="2002.9629">setPos(int)</text><polygon fill="#A80036" points="83.5,2017.7051,73.5,2021.7051,83.5,2025.7051,79.5,2021.7051" style="stroke: #A80036; stroke-width: 1.0;"/><line style="stroke: #A80036; stroke-width: 1.0; stroke-dasharray: 2.0,2.0;" x1="77.5" x2="328.5" y1="2021.7051" y2="2021.7051"/><path d="M10,2043.7051 L291,2043.7051 L291,2050.7051 L281,2060.7051 L10,2060.7051 L10,2043.7051 " fill="#EEEEEE" style="stroke: #000000; stroke-width: 1.0;"/><rect fill="none" height="233.8633" style="stroke: #000000; stroke-width: 2.0;" width="524" x="10" y="2043.7051"/><text fill="#000000" font-family="sans-serif" font-size="13" font-weight="bold" lengthAdjust="spacingAndGlyphs" textLength="236" x="25" y="2057.2734">void move(int, gameSystem.Player)</text><polygon fill="#A80036" points="317.5,2078.3262,327.5,2082.3262,317.5,2086.3262,321.5,2082.3262" style="stroke: #A80036; stroke-width: 1.0;"/><line style="stroke: #A80036; stroke-width: 1.0;" x1="72.5" x2="323.5" y1="2082.3262" y2="2082.3262"/><text fill="#000000" font-family="sans-serif" font-size="13" lengthAdjust="spacingAndGlyphs" textLength="50" x="79.5" y="2077.584">getPos()</text><polygon fill="#A80036" points="83.5,2092.3262,73.5,2096.3262,83.5,2100.3262,79.5,2096.3262" style="stroke: #A80036; stroke-width: 1.0;"/><line style="stroke: #A80036; stroke-width: 1.0; stroke-dasharray: 2.0,2.0;" x1="77.5" x2="328.5" y1="2096.3262" y2="2096.3262"/><polygon fill="#A80036" points="254.5,2121.6367,264.5,2125.6367,254.5,2129.6367,258.5,2125.6367" style="stroke: #A80036; stroke-width: 1.0;"/><line style="stroke: #A80036; stroke-width: 1.0;" x1="72.5" x2="260.5" y1="2125.6367" y2="2125.6367"/><text fill="#000000" font-family="sans-serif" font-size="13" lengthAdjust="spacingAndGlyphs" textLength="53" x="79.5" y="2120.8945">getSize()</text><polygon fill="#A80036" points="83.5,2135.6367,73.5,2139.6367,83.5,2143.6367,79.5,2139.6367" style="stroke: #A80036; stroke-width: 1.0;"/><line style="stroke: #A80036; stroke-width: 1.0; stroke-dasharray: 2.0,2.0;" x1="77.5" x2="265.5" y1="2139.6367" y2="2139.6367"/><polygon fill="#A80036" points="254.5,2164.9473,264.5,2168.9473,254.5,2172.9473,258.5,2168.9473" style="stroke: #A80036; stroke-width: 1.0;"/><line style="stroke: #A80036; stroke-width: 1.0;" x1="72.5" x2="260.5" y1="2168.9473" y2="2168.9473"/><text fill="#000000" font-family="sans-serif" font-size="13" lengthAdjust="spacingAndGlyphs" textLength="79" x="79.5" y="2164.2051">getEvent(int)</text><polygon fill="#A80036" points="83.5,2178.9473,73.5,2182.9473,83.5,2186.9473,79.5,2182.9473" style="stroke: #A80036; stroke-width: 1.0;"/><line style="stroke: #A80036; stroke-width: 1.0; stroke-dasharray: 2.0,2.0;" x1="77.5" x2="265.5" y1="2182.9473" y2="2182.9473"/><polygon fill="#A80036" points="463,2208.2578,473,2212.2578,463,2216.2578,467,2212.2578" style="stroke: #A80036; stroke-width: 1.0;"/><line style="stroke: #A80036; stroke-width: 1.0;" x1="72.5" x2="469" y1="2212.2578" y2="2212.2578"/><text fill="#000000" font-family="sans-serif" font-size="13" lengthAdjust="spacingAndGlyphs" textLength="147" x="79.5" y="2207.5156">println(java.lang.String)</text><polygon fill="#A80036" points="83.5,2222.2578,73.5,2226.2578,83.5,2230.2578,79.5,2226.2578" style="stroke: #A80036; stroke-width: 1.0;"/><line style="stroke: #A80036; stroke-width: 1.0; stroke-dasharray: 2.0,2.0;" x1="77.5" x2="474" y1="2226.2578" y2="2226.2578"/><polygon fill="#A80036" points="317.5,2251.5684,327.5,2255.5684,317.5,2259.5684,321.5,2255.5684" style="stroke: #A80036; stroke-width: 1.0;"/><line style="stroke: #A80036; stroke-width: 1.0;" x1="72.5" x2="323.5" y1="2255.5684" y2="2255.5684"/><text fill="#000000" font-family="sans-serif" font-size="13" lengthAdjust="spacingAndGlyphs" textLength="66" x="79.5" y="2250.8262">setPos(int)</text><polygon fill="#A80036" points="83.5,2265.5684,73.5,2269.5684,83.5,2273.5684,79.5,2269.5684" style="stroke: #A80036; stroke-width: 1.0;"/><line style="stroke: #A80036; stroke-width: 1.0; stroke-dasharray: 2.0,2.0;" x1="77.5" x2="328.5" y1="2269.5684" y2="2269.5684"/><path d="M10,2291.5684 L291,2291.5684 L291,2298.5684 L281,2308.5684 L10,2308.5684 L10,2291.5684 " fill="#EEEEEE" style="stroke: #000000; stroke-width: 1.0;"/><rect fill="none" height="233.8633" style="stroke: #000000; stroke-width: 2.0;" width="524" x="10" y="2291.5684"/><text fill="#000000" font-family="sans-serif" font-size="13" font-weight="bold" lengthAdjust="spacingAndGlyphs" textLength="236" x="25" y="2305.1367">void move(int, gameSystem.Player)</text><polygon fill="#A80036" points="317.5,2326.1895,327.5,2330.1895,317.5,2334.1895,321.5,2330.1895" style="stroke: #A80036; stroke-width: 1.0;"/><line style="stroke: #A80036; stroke-width: 1.0;" x1="72.5" x2="323.5" y1="2330.1895" y2="2330.1895"/><text fill="#000000" font-family="sans-serif" font-size="13" lengthAdjust="spacingAndGlyphs" textLength="50" x="79.5" y="2325.4473">getPos()</text><polygon fill="#A80036" points="83.5,2340.1895,73.5,2344.1895,83.5,2348.1895,79.5,2344.1895" style="stroke: #A80036; stroke-width: 1.0;"/><line style="stroke: #A80036; stroke-width: 1.0; stroke-dasharray: 2.0,2.0;" x1="77.5" x2="328.5" y1="2344.1895" y2="2344.1895"/><polygon fill="#A80036" points="254.5,2369.5,264.5,2373.5,254.5,2377.5,258.5,2373.5" style="stroke: #A80036; stroke-width: 1.0;"/><line style="stroke: #A80036; stroke-width: 1.0;" x1="72.5" x2="260.5" y1="2373.5" y2="2373.5"/><text fill="#000000" font-family="sans-serif" font-size="13" lengthAdjust="spacingAndGlyphs" textLength="53" x="79.5" y="2368.7578">getSize()</text><polygon fill="#A80036" points="83.5,2383.5,73.5,2387.5,83.5,2391.5,79.5,2387.5" style="stroke: #A80036; stroke-width: 1.0;"/><line style="stroke: #A80036; stroke-width: 1.0; stroke-dasharray: 2.0,2.0;" x1="77.5" x2="265.5" y1="2387.5" y2="2387.5"/><polygon fill="#A80036" points="254.5,2412.8105,264.5,2416.8105,254.5,2420.8105,258.5,2416.8105" style="stroke: #A80036; stroke-width: 1.0;"/><line style="stroke: #A80036; stroke-width: 1.0;" x1="72.5" x2="260.5" y1="2416.8105" y2="2416.8105"/><text fill="#000000" font-family="sans-serif" font-size="13" lengthAdjust="spacingAndGlyphs" textLength="79" x="79.5" y="2412.0684">getEvent(int)</text><polygon fill="#A80036" points="83.5,2426.8105,73.5,2430.8105,83.5,2434.8105,79.5,2430.8105" style="stroke: #A80036; stroke-width: 1.0;"/><line style="stroke: #A80036; stroke-width: 1.0; stroke-dasharray: 2.0,2.0;" x1="77.5" x2="265.5" y1="2430.8105" y2="2430.8105"/><polygon fill="#A80036" points="463,2456.1211,473,2460.1211,463,2464.1211,467,2460.1211" style="stroke: #A80036; stroke-width: 1.0;"/><line style="stroke: #A80036; stroke-width: 1.0;" x1="72.5" x2="469" y1="2460.1211" y2="2460.1211"/><text fill="#000000" font-family="sans-serif" font-size="13" lengthAdjust="spacingAndGlyphs" textLength="147" x="79.5" y="2455.3789">println(java.lang.String)</text><polygon fill="#A80036" points="83.5,2470.1211,73.5,2474.1211,83.5,2478.1211,79.5,2474.1211" style="stroke: #A80036; stroke-width: 1.0;"/><line style="stroke: #A80036; stroke-width: 1.0; stroke-dasharray: 2.0,2.0;" x1="77.5" x2="474" y1="2474.1211" y2="2474.1211"/><polygon fill="#A80036" points="317.5,2499.4316,327.5,2503.4316,317.5,2507.4316,321.5,2503.4316" style="stroke: #A80036; stroke-width: 1.0;"/><line style="stroke: #A80036; stroke-width: 1.0;" x1="72.5" x2="323.5" y1="2503.4316" y2="2503.4316"/><text fill="#000000" font-family="sans-serif" font-size="13" lengthAdjust="spacingAndGlyphs" textLength="66" x="79.5" y="2498.6895">setPos(int)</text><polygon fill="#A80036" points="83.5,2513.4316,73.5,2517.4316,83.5,2521.4316,79.5,2517.4316" style="stroke: #A80036; stroke-width: 1.0;"/><line style="stroke: #A80036; stroke-width: 1.0; stroke-dasharray: 2.0,2.0;" x1="77.5" x2="328.5" y1="2517.4316" y2="2517.4316"/><path d="M10,2539.4316 L173,2539.4316 L173,2546.4316 L163,2556.4316 L10,2556.4316 L10,2539.4316 " fill="#EEEEEE" style="stroke: #000000; stroke-width: 1.0;"/><rect fill="none" height="60.6211" style="stroke: #000000; stroke-width: 2.0;" width="524" x="10" y="2539.4316"/><text fill="#000000" font-family="sans-serif" font-size="13" font-weight="bold" lengthAdjust="spacingAndGlyphs" textLength="118" x="25" y="2553">void printResult()</text><polygon fill="#A80036" points="463,2574.0527,473,2578.0527,463,2582.0527,467,2578.0527" style="stroke: #A80036; stroke-width: 1.0;"/><line style="stroke: #A80036; stroke-width: 1.0;" x1="72.5" x2="469" y1="2578.0527" y2="2578.0527"/><text fill="#000000" font-family="sans-serif" font-size="13" lengthAdjust="spacingAndGlyphs" textLength="147" x="79.5" y="2573.3105">println(java.lang.String)</text><polygon fill="#A80036" points="83.5,2588.0527,73.5,2592.0527,83.5,2596.0527,79.5,2592.0527" style="stroke: #A80036; stroke-width: 1.0;"/><line style="stroke: #A80036; stroke-width: 1.0; stroke-dasharray: 2.0,2.0;" x1="77.5" x2="474" y1="2592.0527" y2="2592.0527"/><!--MD5=[269324014f4b6f60ba0822bead4b8c2f]
@startuml
group new GameSystem(int[][])
	GameSystem->Map : Map()
		Map- ->GameSystem
	GameSystem->Player : Player(java.lang.String)
		Player- ->GameSystem
end

group new GameSystem(int[][])
	GameSystem->Map : Map()
		Map- ->GameSystem
	GameSystem->Player : Player(java.lang.String)
		Player- ->GameSystem
end

group void playGame(java.lang.String)
	GameSystem->Player : Player(java.lang.String)
		Player- ->GameSystem
	GameSystem->GameSystem : diceSetting()
	GameSystem->GameSystem : main()
end

group void diceSetting()
	GameSystem->Dice : Dice(int[])
		Dice- ->GameSystem
end

group void printPos(gameSystem.Player)
	GameSystem->Player : getPos()
		Player- ->GameSystem
	GameSystem->Map : getSize()
		Map- ->GameSystem
	GameSystem->PrintStream : println(java.lang.String)
		PrintStream- ->GameSystem
	GameSystem->PrintStream : print(java.lang.String)
		PrintStream- ->GameSystem
	GameSystem->PrintStream : println()
		PrintStream- ->GameSystem
end

group void printPos(gameSystem.Player)
	GameSystem->Player : getPos()
		Player- ->GameSystem
	GameSystem->Map : getSize()
		Map- ->GameSystem
	GameSystem->PrintStream : println(java.lang.String)
		PrintStream- ->GameSystem
	GameSystem->PrintStream : print(java.lang.String)
		PrintStream- ->GameSystem
	GameSystem->PrintStream : println()
		PrintStream- ->GameSystem
end

group void printPos(gameSystem.Player)
	GameSystem->Player : getPos()
		Player- ->GameSystem
	GameSystem->Map : getSize()
		Map- ->GameSystem
	GameSystem->PrintStream : println(java.lang.String)
		PrintStream- ->GameSystem
	GameSystem->PrintStream : print(java.lang.String)
		PrintStream- ->GameSystem
	GameSystem->PrintStream : println()
		PrintStream- ->GameSystem
end

group Dice choiceDice(gameSystem.Player)
	GameSystem->PrintStream : println(java.lang.String)
		PrintStream- ->GameSystem
	GameSystem->GameSystem : printPos(gameSystem.Player)
	GameSystem->PrintStream : print(java.lang.String)
		PrintStream- ->GameSystem
	GameSystem->PrintStream : println()
		PrintStream- ->GameSystem
end

group Dice choiceDice(gameSystem.Player)
	GameSystem->PrintStream : println(java.lang.String)
		PrintStream- ->GameSystem
	GameSystem->GameSystem : printPos(gameSystem.Player)
	GameSystem->PrintStream : print(java.lang.String)
		PrintStream- ->GameSystem
	GameSystem->PrintStream : println()
		PrintStream- ->GameSystem
end

group int diceRoll(gameSystem.Dice)
	GameSystem->Dice : roll()
		Dice->Random : nextInt(int)
			Random- ->Dice
		Dice- ->GameSystem
end

group void move(int, gameSystem.Player)
	GameSystem->Player : getPos()
		Player- ->GameSystem
	GameSystem->Map : getSize()
		Map- ->GameSystem
	GameSystem->Map : getEvent(int)
		Map- ->GameSystem
	GameSystem->PrintStream : println(java.lang.String)
		PrintStream- ->GameSystem
	GameSystem->Player : setPos(int)
		Player- ->GameSystem
end

group void move(int, gameSystem.Player)
	GameSystem->Player : getPos()
		Player- ->GameSystem
	GameSystem->Map : getSize()
		Map- ->GameSystem
	GameSystem->Map : getEvent(int)
		Map- ->GameSystem
	GameSystem->PrintStream : println(java.lang.String)
		PrintStream- ->GameSystem
	GameSystem->Player : setPos(int)
		Player- ->GameSystem
end

group void move(int, gameSystem.Player)
	GameSystem->Player : getPos()
		Player- ->GameSystem
	GameSystem->Map : getSize()
		Map- ->GameSystem
	GameSystem->Map : getEvent(int)
		Map- ->GameSystem
	GameSystem->PrintStream : println(java.lang.String)
		PrintStream- ->GameSystem
	GameSystem->Player : setPos(int)
		Player- ->GameSystem
end

group void printResult()
	GameSystem->PrintStream : println(java.lang.String)
		PrintStream- ->GameSystem
end

@enduml

PlantUML version 1.2020.19(Tue Oct 13 00:10:01 KST 2020)
(APACHE source distribution)
Java Runtime: Java(TM) SE Runtime Environment
JVM: Java HotSpot(TM) 64-Bit Server VM
Default Encoding: UTF-8
Language: ko
Country: KR
--></g></svg>