<?xml version="1.0" encoding="UTF-8" standalone="no"?><svg xmlns="http://www.w3.org/2000/svg" xmlns:xlink="http://www.w3.org/1999/xlink" contentScriptType="application/ecmascript" contentStyleType="text/css" height="1347px" preserveAspectRatio="none" style="width:633px;height:1347px;" version="1.1" viewBox="0 0 633 1347" width="633px" zoomAndPan="magnify"><defs><filter height="300%" id="fmncg9xspf9zg" width="300%" x="-1" y="-1"><feGaussianBlur result="blurOut" stdDeviation="2.0"/><feColorMatrix in="blurOut" result="blurOut2" type="matrix" values="0 0 0 0 0 0 0 0 0 0 0 0 0 0 0 0 0 0 .4 0"/><feOffset dx="4.0" dy="4.0" in="blurOut2" result="blurOut3"/><feBlend in="SourceGraphic" in2="blurOut3" mode="normal"/></filter></defs><g><rect fill="#FFFFFF" filter="url(#fmncg9xspf9zg)" height="103.9316" style="stroke: #000000; stroke-width: 2.0;" width="359" x="10" y="57.4883"/><rect fill="#FFFFFF" filter="url(#fmncg9xspf9zg)" height="145.2422" style="stroke: #000000; stroke-width: 2.0;" width="359" x="10" y="175.4199"/><rect fill="#FFFFFF" filter="url(#fmncg9xspf9zg)" height="60.6211" style="stroke: #000000; stroke-width: 2.0;" width="416" x="10" y="334.6621"/><rect fill="#FFFFFF" filter="url(#fmncg9xspf9zg)" height="233.8633" style="stroke: #000000; stroke-width: 2.0;" width="524" x="10" y="409.2832"/><rect fill="#FFFFFF" filter="url(#fmncg9xspf9zg)" height="189.5527" style="stroke: #000000; stroke-width: 2.0;" width="524" x="10" y="657.1465"/><rect fill="#FFFFFF" filter="url(#fmncg9xspf9zg)" height="103.9316" style="stroke: #000000; stroke-width: 2.0;" width="609" x="10" y="860.6992"/><rect fill="#FFFFFF" filter="url(#fmncg9xspf9zg)" height="233.8633" style="stroke: #000000; stroke-width: 2.0;" width="524" x="10" y="978.6309"/><rect fill="#FFFFFF" filter="url(#fmncg9xspf9zg)" height="60.6211" style="stroke: #000000; stroke-width: 2.0;" width="524" x="10" y="1226.4941"/><line style="stroke: #A80036; stroke-width: 1.0; stroke-dasharray: 5.0,5.0;" x1="72" x2="72" y1="40.4883" y2="1304.1152"/><line style="stroke: #A80036; stroke-width: 1.0; stroke-dasharray: 5.0,5.0;" x1="266" x2="266" y1="40.4883" y2="1304.1152"/><line style="stroke: #A80036; stroke-width: 1.0; stroke-dasharray: 5.0,5.0;" x1="329" x2="329" y1="40.4883" y2="1304.1152"/><line style="stroke: #A80036; stroke-width: 1.0; stroke-dasharray: 5.0,5.0;" x1="392" x2="392" y1="40.4883" y2="1304.1152"/><line style="stroke: #A80036; stroke-width: 1.0; stroke-dasharray: 5.0,5.0;" x1="475" x2="475" y1="40.4883" y2="1304.1152"/><line style="stroke: #A80036; stroke-width: 1.0; stroke-dasharray: 5.0,5.0;" x1="571" x2="571" y1="40.4883" y2="1304.1152"/><rect fill="#FEFECE" filter="url(#fmncg9xspf9zg)" height="30.4883" style="stroke: #A80036; stroke-width: 1.5;" width="101" x="20" y="5"/><text fill="#000000" font-family="sans-serif" font-size="14" lengthAdjust="spacingAndGlyphs" textLength="87" x="27" y="25.5352">GameSystem</text><rect fill="#FEFECE" filter="url(#fmncg9xspf9zg)" height="30.4883" style="stroke: #A80036; stroke-width: 1.5;" width="101" x="20" y="1303.1152"/><text fill="#000000" font-family="sans-serif" font-size="14" lengthAdjust="spacingAndGlyphs" textLength="87" x="27" y="1323.6504">GameSystem</text><rect fill="#FEFECE" filter="url(#fmncg9xspf9zg)" height="30.4883" style="stroke: #A80036; stroke-width: 1.5;" width="43" x="243" y="5"/><text fill="#000000" font-family="sans-serif" font-size="14" lengthAdjust="spacingAndGlyphs" textLength="29" x="250" y="25.5352">Map</text><rect fill="#FEFECE" filter="url(#fmncg9xspf9zg)" height="30.4883" style="stroke: #A80036; stroke-width: 1.5;" width="43" x="243" y="1303.1152"/><text fill="#000000" font-family="sans-serif" font-size="14" lengthAdjust="spacingAndGlyphs" textLength="29" x="250" y="1323.6504">Map</text><rect fill="#FEFECE" filter="url(#fmncg9xspf9zg)" height="30.4883" style="stroke: #A80036; stroke-width: 1.5;" width="55" x="300" y="5"/><text fill="#000000" font-family="sans-serif" font-size="14" lengthAdjust="spacingAndGlyphs" textLength="41" x="307" y="25.5352">Player</text><rect fill="#FEFECE" filter="url(#fmncg9xspf9zg)" height="30.4883" style="stroke: #A80036; stroke-width: 1.5;" width="55" x="300" y="1303.1152"/><text fill="#000000" font-family="sans-serif" font-size="14" lengthAdjust="spacingAndGlyphs" textLength="41" x="307" y="1323.6504">Player</text><rect fill="#FEFECE" filter="url(#fmncg9xspf9zg)" height="30.4883" style="stroke: #A80036; stroke-width: 1.5;" width="43" x="369" y="5"/><text fill="#000000" font-family="sans-serif" font-size="14" lengthAdjust="spacingAndGlyphs" textLength="29" x="376" y="25.5352">Dice</text><rect fill="#FEFECE" filter="url(#fmncg9xspf9zg)" height="30.4883" style="stroke: #A80036; stroke-width: 1.5;" width="43" x="369" y="1303.1152"/><text fill="#000000" font-family="sans-serif" font-size="14" lengthAdjust="spacingAndGlyphs" textLength="29" x="376" y="1323.6504">Dice</text><rect fill="#FEFECE" filter="url(#fmncg9xspf9zg)" height="30.4883" style="stroke: #A80036; stroke-width: 1.5;" width="94" x="426" y="5"/><text fill="#000000" font-family="sans-serif" font-size="14" lengthAdjust="spacingAndGlyphs" textLength="80" x="433" y="25.5352">PrintStream</text><rect fill="#FEFECE" filter="url(#fmncg9xspf9zg)" height="30.4883" style="stroke: #A80036; stroke-width: 1.5;" width="94" x="426" y="1303.1152"/><text fill="#000000" font-family="sans-serif" font-size="14" lengthAdjust="spacingAndGlyphs" textLength="80" x="433" y="1323.6504">PrintStream</text><rect fill="#FEFECE" filter="url(#fmncg9xspf9zg)" height="30.4883" style="stroke: #A80036; stroke-width: 1.5;" width="71" x="534" y="5"/><text fill="#000000" font-family="sans-serif" font-size="14" lengthAdjust="spacingAndGlyphs" textLength="57" x="541" y="25.5352">Random</text><rect fill="#FEFECE" filter="url(#fmncg9xspf9zg)" height="30.4883" style="stroke: #A80036; stroke-width: 1.5;" width="71" x="534" y="1303.1152"/><text fill="#000000" font-family="sans-serif" font-size="14" lengthAdjust="spacingAndGlyphs" textLength="57" x="541" y="1323.6504">Random</text><path d="M10,57.4883 L222,57.4883 L222,64.4883 L212,74.4883 L10,74.4883 L10,57.4883 " fill="#EEEEEE" style="stroke: #000000; stroke-width: 1.0;"/><rect fill="none" height="103.9316" style="stroke: #000000; stroke-width: 2.0;" width="359" x="10" y="57.4883"/><text fill="#000000" font-family="sans-serif" font-size="13" font-weight="bold" lengthAdjust="spacingAndGlyphs" textLength="167" x="25" y="71.0566">new GameSystem(int[][])</text><polygon fill="#A80036" points="254.5,92.1094,264.5,96.1094,254.5,100.1094,258.5,96.1094" style="stroke: #A80036; stroke-width: 1.0;"/><line style="stroke: #A80036; stroke-width: 1.0;" x1="72.5" x2="260.5" y1="96.1094" y2="96.1094"/><text fill="#000000" font-family="sans-serif" font-size="13" lengthAdjust="spacingAndGlyphs" textLength="34" x="79.5" y="91.3672">Map()</text><polygon fill="#A80036" points="83.5,106.1094,73.5,110.1094,83.5,114.1094,79.5,110.1094" style="stroke: #A80036; stroke-width: 1.0;"/><line style="stroke: #A80036; stroke-width: 1.0; stroke-dasharray: 2.0,2.0;" x1="77.5" x2="265.5" y1="110.1094" y2="110.1094"/><polygon fill="#A80036" points="317.5,135.4199,327.5,139.4199,317.5,143.4199,321.5,139.4199" style="stroke: #A80036; stroke-width: 1.0;"/><line style="stroke: #A80036; stroke-width: 1.0;" x1="72.5" x2="323.5" y1="139.4199" y2="139.4199"/><text fill="#000000" font-family="sans-serif" font-size="13" lengthAdjust="spacingAndGlyphs" textLength="142" x="79.5" y="134.6777">Player(java.lang.String)</text><polygon fill="#A80036" points="83.5,149.4199,73.5,153.4199,83.5,157.4199,79.5,153.4199" style="stroke: #A80036; stroke-width: 1.0;"/><line style="stroke: #A80036; stroke-width: 1.0; stroke-dasharray: 2.0,2.0;" x1="77.5" x2="328.5" y1="153.4199" y2="153.4199"/><path d="M10,175.4199 L270,175.4199 L270,182.4199 L260,192.4199 L10,192.4199 L10,175.4199 " fill="#EEEEEE" style="stroke: #000000; stroke-width: 1.0;"/><rect fill="none" height="145.2422" style="stroke: #000000; stroke-width: 2.0;" width="359" x="10" y="175.4199"/><text fill="#000000" font-family="sans-serif" font-size="13" font-weight="bold" lengthAdjust="spacingAndGlyphs" textLength="215" x="25" y="188.9883">void playGame(java.lang.String)</text><polygon fill="#A80036" points="317.5,210.041,327.5,214.041,317.5,218.041,321.5,214.041" style="stroke: #A80036; stroke-width: 1.0;"/><line style="stroke: #A80036; stroke-width: 1.0;" x1="72.5" x2="323.5" y1="214.041" y2="214.041"/><text fill="#000000" font-family="sans-serif" font-size="13" lengthAdjust="spacingAndGlyphs" textLength="142" x="79.5" y="209.2988">Player(java.lang.String)</text><polygon fill="#A80036" points="83.5,224.041,73.5,228.041,83.5,232.041,79.5,228.041" style="stroke: #A80036; stroke-width: 1.0;"/><line style="stroke: #A80036; stroke-width: 1.0; stroke-dasharray: 2.0,2.0;" x1="77.5" x2="328.5" y1="228.041" y2="228.041"/><line style="stroke: #A80036; stroke-width: 1.0;" x1="72.5" x2="114.5" y1="257.3516" y2="257.3516"/><line style="stroke: #A80036; stroke-width: 1.0;" x1="114.5" x2="114.5" y1="257.3516" y2="270.3516"/><line style="stroke: #A80036; stroke-width: 1.0;" x1="73.5" x2="114.5" y1="270.3516" y2="270.3516"/><polygon fill="#A80036" points="83.5,266.3516,73.5,270.3516,83.5,274.3516,79.5,270.3516" style="stroke: #A80036; stroke-width: 1.0;"/><text fill="#000000" font-family="sans-serif" font-size="13" lengthAdjust="spacingAndGlyphs" textLength="78" x="79.5" y="252.6094">diceSetting()</text><line style="stroke: #A80036; stroke-width: 1.0;" x1="72.5" x2="114.5" y1="299.6621" y2="299.6621"/><line style="stroke: #A80036; stroke-width: 1.0;" x1="114.5" x2="114.5" y1="299.6621" y2="312.6621"/><line style="stroke: #A80036; stroke-width: 1.0;" x1="73.5" x2="114.5" y1="312.6621" y2="312.6621"/><polygon fill="#A80036" points="83.5,308.6621,73.5,312.6621,83.5,316.6621,79.5,312.6621" style="stroke: #A80036; stroke-width: 1.0;"/><text fill="#000000" font-family="sans-serif" font-size="13" lengthAdjust="spacingAndGlyphs" textLength="39" x="79.5" y="294.9199">main()</text><path d="M10,334.6621 L173,334.6621 L173,341.6621 L163,351.6621 L10,351.6621 L10,334.6621 " fill="#EEEEEE" style="stroke: #000000; stroke-width: 1.0;"/><rect fill="none" height="60.6211" style="stroke: #000000; stroke-width: 2.0;" width="416" x="10" y="334.6621"/><text fill="#000000" font-family="sans-serif" font-size="13" font-weight="bold" lengthAdjust="spacingAndGlyphs" textLength="118" x="25" y="348.2305">void diceSetting()</text><polygon fill="#A80036" points="380.5,369.2832,390.5,373.2832,380.5,377.2832,384.5,373.2832" style="stroke: #A80036; stroke-width: 1.0;"/><line style="stroke: #A80036; stroke-width: 1.0;" x1="72.5" x2="386.5" y1="373.2832" y2="373.2832"/><text fill="#000000" font-family="sans-serif" font-size="13" lengthAdjust="spacingAndGlyphs" textLength="61" x="79.5" y="368.541">Dice(int[])</text><polygon fill="#A80036" points="83.5,383.2832,73.5,387.2832,83.5,391.2832,79.5,387.2832" style="stroke: #A80036; stroke-width: 1.0;"/><line style="stroke: #A80036; stroke-width: 1.0; stroke-dasharray: 2.0,2.0;" x1="77.5" x2="391.5" y1="387.2832" y2="387.2832"/><path d="M10,409.2832 L285,409.2832 L285,416.2832 L275,426.2832 L10,426.2832 L10,409.2832 " fill="#EEEEEE" style="stroke: #000000; stroke-width: 1.0;"/><rect fill="none" height="233.8633" style="stroke: #000000; stroke-width: 2.0;" width="524" x="10" y="409.2832"/><text fill="#000000" font-family="sans-serif" font-size="13" font-weight="bold" lengthAdjust="spacingAndGlyphs" textLength="230" x="25" y="422.8516">void printPos(gameSystem.Player)</text><polygon fill="#A80036" points="317.5,443.9043,327.5,447.9043,317.5,451.9043,321.5,447.9043" style="stroke: #A80036; stroke-width: 1.0;"/><line style="stroke: #A80036; stroke-width: 1.0;" x1="72.5" x2="323.5" y1="447.9043" y2="447.9043"/><text fill="#000000" font-family="sans-serif" font-size="13" lengthAdjust="spacingAndGlyphs" textLength="50" x="79.5" y="443.1621">getPos()</text><polygon fill="#A80036" points="83.5,457.9043,73.5,461.9043,83.5,465.9043,79.5,461.9043" style="stroke: #A80036; stroke-width: 1.0;"/><line style="stroke: #A80036; stroke-width: 1.0; stroke-dasharray: 2.0,2.0;" x1="77.5" x2="328.5" y1="461.9043" y2="461.9043"/><polygon fill="#A80036" points="254.5,487.2148,264.5,491.2148,254.5,495.2148,258.5,491.2148" style="stroke: #A80036; stroke-width: 1.0;"/><line style="stroke: #A80036; stroke-width: 1.0;" x1="72.5" x2="260.5" y1="491.2148" y2="491.2148"/><text fill="#000000" font-family="sans-serif" font-size="13" lengthAdjust="spacingAndGlyphs" textLength="53" x="79.5" y="486.4727">getSize()</text><polygon fill="#A80036" points="83.5,501.2148,73.5,505.2148,83.5,509.2148,79.5,505.2148" style="stroke: #A80036; stroke-width: 1.0;"/><line style="stroke: #A80036; stroke-width: 1.0; stroke-dasharray: 2.0,2.0;" x1="77.5" x2="265.5" y1="505.2148" y2="505.2148"/><polygon fill="#A80036" points="463,530.5254,473,534.5254,463,538.5254,467,534.5254" style="stroke: #A80036; stroke-width: 1.0;"/><line style="stroke: #A80036; stroke-width: 1.0;" x1="72.5" x2="469" y1="534.5254" y2="534.5254"/><text fill="#000000" font-family="sans-serif" font-size="13" lengthAdjust="spacingAndGlyphs" textLength="147" x="79.5" y="529.7832">println(java.lang.String)</text><polygon fill="#A80036" points="83.5,544.5254,73.5,548.5254,83.5,552.5254,79.5,548.5254" style="stroke: #A80036; stroke-width: 1.0;"/><line style="stroke: #A80036; stroke-width: 1.0; stroke-dasharray: 2.0,2.0;" x1="77.5" x2="474" y1="548.5254" y2="548.5254"/><polygon fill="#A80036" points="463,573.8359,473,577.8359,463,581.8359,467,577.8359" style="stroke: #A80036; stroke-width: 1.0;"/><line style="stroke: #A80036; stroke-width: 1.0;" x1="72.5" x2="469" y1="577.8359" y2="577.8359"/><text fill="#000000" font-family="sans-serif" font-size="13" lengthAdjust="spacingAndGlyphs" textLength="135" x="79.5" y="573.0938">print(java.lang.String)</text><polygon fill="#A80036" points="83.5,587.8359,73.5,591.8359,83.5,595.8359,79.5,591.8359" style="stroke: #A80036; stroke-width: 1.0;"/><line style="stroke: #A80036; stroke-width: 1.0; stroke-dasharray: 2.0,2.0;" x1="77.5" x2="474" y1="591.8359" y2="591.8359"/><polygon fill="#A80036" points="463,617.1465,473,621.1465,463,625.1465,467,621.1465" style="stroke: #A80036; stroke-width: 1.0;"/><line style="stroke: #A80036; stroke-width: 1.0;" x1="72.5" x2="469" y1="621.1465" y2="621.1465"/><text fill="#000000" font-family="sans-serif" font-size="13" lengthAdjust="spacingAndGlyphs" textLength="50" x="79.5" y="616.4043">println()</text><polygon fill="#A80036" points="83.5,631.1465,73.5,635.1465,83.5,639.1465,79.5,635.1465" style="stroke: #A80036; stroke-width: 1.0;"/><line style="stroke: #A80036; stroke-width: 1.0; stroke-dasharray: 2.0,2.0;" x1="77.5" x2="474" y1="635.1465" y2="635.1465"/><path d="M10,657.1465 L301,657.1465 L301,664.1465 L291,674.1465 L10,674.1465 L10,657.1465 " fill="#EEEEEE" style="stroke: #000000; stroke-width: 1.0;"/><rect fill="none" height="189.5527" style="stroke: #000000; stroke-width: 2.0;" width="524" x="10" y="657.1465"/><text fill="#000000" font-family="sans-serif" font-size="13" font-weight="bold" lengthAdjust="spacingAndGlyphs" textLength="246" x="25" y="670.7148">Dice choiceDice(gameSystem.Player)</text><polygon fill="#A80036" points="463,691.7676,473,695.7676,463,699.7676,467,695.7676" style="stroke: #A80036; stroke-width: 1.0;"/><line style="stroke: #A80036; stroke-width: 1.0;" x1="72.5" x2="469" y1="695.7676" y2="695.7676"/><text fill="#000000" font-family="sans-serif" font-size="13" lengthAdjust="spacingAndGlyphs" textLength="147" x="79.5" y="691.0254">println(java.lang.String)</text><polygon fill="#A80036" points="83.5,705.7676,73.5,709.7676,83.5,713.7676,79.5,709.7676" style="stroke: #A80036; stroke-width: 1.0;"/><line style="stroke: #A80036; stroke-width: 1.0; stroke-dasharray: 2.0,2.0;" x1="77.5" x2="474" y1="709.7676" y2="709.7676"/><line style="stroke: #A80036; stroke-width: 1.0;" x1="72.5" x2="114.5" y1="739.0781" y2="739.0781"/><line style="stroke: #A80036; stroke-width: 1.0;" x1="114.5" x2="114.5" y1="739.0781" y2="752.0781"/><line style="stroke: #A80036; stroke-width: 1.0;" x1="73.5" x2="114.5" y1="752.0781" y2="752.0781"/><polygon fill="#A80036" points="83.5,748.0781,73.5,752.0781,83.5,756.0781,79.5,752.0781" style="stroke: #A80036; stroke-width: 1.0;"/><text fill="#000000" font-family="sans-serif" font-size="13" lengthAdjust="spacingAndGlyphs" textLength="180" x="79.5" y="734.3359">printPos(gameSystem.Player)</text><polygon fill="#A80036" points="463,777.3887,473,781.3887,463,785.3887,467,781.3887" style="stroke: #A80036; stroke-width: 1.0;"/><line style="stroke: #A80036; stroke-width: 1.0;" x1="72.5" x2="469" y1="781.3887" y2="781.3887"/><text fill="#000000" font-family="sans-serif" font-size="13" lengthAdjust="spacingAndGlyphs" textLength="135" x="79.5" y="776.6465">print(java.lang.String)</text><polygon fill="#A80036" points="83.5,791.3887,73.5,795.3887,83.5,799.3887,79.5,795.3887" style="stroke: #A80036; stroke-width: 1.0;"/><line style="stroke: #A80036; stroke-width: 1.0; stroke-dasharray: 2.0,2.0;" x1="77.5" x2="474" y1="795.3887" y2="795.3887"/><polygon fill="#A80036" points="463,820.6992,473,824.6992,463,828.6992,467,824.6992" style="stroke: #A80036; stroke-width: 1.0;"/><line style="stroke: #A80036; stroke-width: 1.0;" x1="72.5" x2="469" y1="824.6992" y2="824.6992"/><text fill="#000000" font-family="sans-serif" font-size="13" lengthAdjust="spacingAndGlyphs" textLength="50" x="79.5" y="819.957">println()</text><polygon fill="#A80036" points="83.5,834.6992,73.5,838.6992,83.5,842.6992,79.5,838.6992" style="stroke: #A80036; stroke-width: 1.0;"/><line style="stroke: #A80036; stroke-width: 1.0; stroke-dasharray: 2.0,2.0;" x1="77.5" x2="474" y1="838.6992" y2="838.6992"/><path d="M10,860.6992 L258,860.6992 L258,867.6992 L248,877.6992 L10,877.6992 L10,860.6992 " fill="#EEEEEE" style="stroke: #000000; stroke-width: 1.0;"/><rect fill="none" height="103.9316" style="stroke: #000000; stroke-width: 2.0;" width="609" x="10" y="860.6992"/><text fill="#000000" font-family="sans-serif" font-size="13" font-weight="bold" lengthAdjust="spacingAndGlyphs" textLength="203" x="25" y="874.2676">int diceRoll(gameSystem.Dice)</text><polygon fill="#A80036" points="380.5,895.3203,390.5,899.3203,380.5,903.3203,384.5,899.3203" style="stroke: #A80036; stroke-width: 1.0;"/><line style="stroke: #A80036; stroke-width: 1.0;" x1="72.5" x2="386.5" y1="899.3203" y2="899.3203"/><text fill="#000000" font-family="sans-serif" font-size="13" lengthAdjust="spacingAndGlyphs" textLength="29" x="79.5" y="894.5781">roll()</text><polygon fill="#A80036" points="559.5,924.6309,569.5,928.6309,559.5,932.6309,563.5,928.6309" style="stroke: #A80036; stroke-width: 1.0;"/><line style="stroke: #A80036; stroke-width: 1.0;" x1="392.5" x2="565.5" y1="928.6309" y2="928.6309"/><text fill="#000000" font-family="sans-serif" font-size="13" lengthAdjust="spacingAndGlyphs" textLength="70" x="399.5" y="923.8887">nextInt(int)</text><polygon fill="#A80036" points="403.5,938.6309,393.5,942.6309,403.5,946.6309,399.5,942.6309" style="stroke: #A80036; stroke-width: 1.0;"/><line style="stroke: #A80036; stroke-width: 1.0; stroke-dasharray: 2.0,2.0;" x1="397.5" x2="570.5" y1="942.6309" y2="942.6309"/><polygon fill="#A80036" points="83.5,952.6309,73.5,956.6309,83.5,960.6309,79.5,956.6309" style="stroke: #A80036; stroke-width: 1.0;"/><line style="stroke: #A80036; stroke-width: 1.0; stroke-dasharray: 2.0,2.0;" x1="77.5" x2="391.5" y1="956.6309" y2="956.6309"/><path d="M10,978.6309 L291,978.6309 L291,985.6309 L281,995.6309 L10,995.6309 L10,978.6309 " fill="#EEEEEE" style="stroke: #000000; stroke-width: 1.0;"/><rect fill="none" height="233.8633" style="stroke: #000000; stroke-width: 2.0;" width="524" x="10" y="978.6309"/><text fill="#000000" font-family="sans-serif" font-size="13" font-weight="bold" lengthAdjust="spacingAndGlyphs" textLength="236" x="25" y="992.1992">void move(int, gameSystem.Player)</text><polygon fill="#A80036" points="317.5,1013.252,327.5,1017.252,317.5,1021.252,321.5,1017.252" style="stroke: #A80036; stroke-width: 1.0;"/><line style="stroke: #A80036; stroke-width: 1.0;" x1="72.5" x2="323.5" y1="1017.252" y2="1017.252"/><text fill="#000000" font-family="sans-serif" font-size="13" lengthAdjust="spacingAndGlyphs" textLength="50" x="79.5" y="1012.5098">getPos()</text><polygon fill="#A80036" points="83.5,1027.252,73.5,1031.252,83.5,1035.252,79.5,1031.252" style="stroke: #A80036; stroke-width: 1.0;"/><line style="stroke: #A80036; stroke-width: 1.0; stroke-dasharray: 2.0,2.0;" x1="77.5" x2="328.5" y1="1031.252" y2="1031.252"/><polygon fill="#A80036" points="254.5,1056.5625,264.5,1060.5625,254.5,1064.5625,258.5,1060.5625" style="stroke: #A80036; stroke-width: 1.0;"/><line style="stroke: #A80036; stroke-width: 1.0;" x1="72.5" x2="260.5" y1="1060.5625" y2="1060.5625"/><text fill="#000000" font-family="sans-serif" font-size="13" lengthAdjust="spacingAndGlyphs" textLength="53" x="79.5" y="1055.8203">getSize()</text><polygon fill="#A80036" points="83.5,1070.5625,73.5,1074.5625,83.5,1078.5625,79.5,1074.5625" style="stroke: #A80036; stroke-width: 1.0;"/><line style="stroke: #A80036; stroke-width: 1.0; stroke-dasharray: 2.0,2.0;" x1="77.5" x2="265.5" y1="1074.5625" y2="1074.5625"/><polygon fill="#A80036" points="254.5,1099.873,264.5,1103.873,254.5,1107.873,258.5,1103.873" style="stroke: #A80036; stroke-width: 1.0;"/><line style="stroke: #A80036; stroke-width: 1.0;" x1="72.5" x2="260.5" y1="1103.873" y2="1103.873"/><text fill="#000000" font-family="sans-serif" font-size="13" lengthAdjust="spacingAndGlyphs" textLength="79" x="79.5" y="1099.1309">getEvent(int)</text><polygon fill="#A80036" points="83.5,1113.873,73.5,1117.873,83.5,1121.873,79.5,1117.873" style="stroke: #A80036; stroke-width: 1.0;"/><line style="stroke: #A80036; stroke-width: 1.0; stroke-dasharray: 2.0,2.0;" x1="77.5" x2="265.5" y1="1117.873" y2="1117.873"/><polygon fill="#A80036" points="463,1143.1836,473,1147.1836,463,1151.1836,467,1147.1836" style="stroke: #A80036; stroke-width: 1.0;"/><line style="stroke: #A80036; stroke-width: 1.0;" x1="72.5" x2="469" y1="1147.1836" y2="1147.1836"/><text fill="#000000" font-family="sans-serif" font-size="13" lengthAdjust="spacingAndGlyphs" textLength="147" x="79.5" y="1142.4414">println(java.lang.String)</text><polygon fill="#A80036" points="83.5,1157.1836,73.5,1161.1836,83.5,1165.1836,79.5,1161.1836" style="stroke: #A80036; stroke-width: 1.0;"/><line style="stroke: #A80036; stroke-width: 1.0; stroke-dasharray: 2.0,2.0;" x1="77.5" x2="474" y1="1161.1836" y2="1161.1836"/><polygon fill="#A80036" points="317.5,1186.4941,327.5,1190.4941,317.5,1194.4941,321.5,1190.4941" style="stroke: #A80036; stroke-width: 1.0;"/><line style="stroke: #A80036; stroke-width: 1.0;" x1="72.5" x2="323.5" y1="1190.4941" y2="1190.4941"/><text fill="#000000" font-family="sans-serif" font-size="13" lengthAdjust="spacingAndGlyphs" textLength="66" x="79.5" y="1185.752">setPos(int)</text><polygon fill="#A80036" points="83.5,1200.4941,73.5,1204.4941,83.5,1208.4941,79.5,1204.4941" style="stroke: #A80036; stroke-width: 1.0;"/><line style="stroke: #A80036; stroke-width: 1.0; stroke-dasharray: 2.0,2.0;" x1="77.5" x2="328.5" y1="1204.4941" y2="1204.4941"/><path d="M10,1226.4941 L173,1226.4941 L173,1233.4941 L163,1243.4941 L10,1243.4941 L10,1226.4941 " fill="#EEEEEE" style="stroke: #000000; stroke-width: 1.0;"/><rect fill="none" height="60.6211" style="stroke: #000000; stroke-width: 2.0;" width="524" x="10" y="1226.4941"/><text fill="#000000" font-family="sans-serif" font-size="13" font-weight="bold" lengthAdjust="spacingAndGlyphs" textLength="118" x="25" y="1240.0625">void printResult()</text><polygon fill="#A80036" points="463,1261.1152,473,1265.1152,463,1269.1152,467,1265.1152" style="stroke: #A80036; stroke-width: 1.0;"/><line style="stroke: #A80036; stroke-width: 1.0;" x1="72.5" x2="469" y1="1265.1152" y2="1265.1152"/><text fill="#000000" font-family="sans-serif" font-size="13" lengthAdjust="spacingAndGlyphs" textLength="147" x="79.5" y="1260.373">println(java.lang.String)</text><polygon fill="#A80036" points="83.5,1275.1152,73.5,1279.1152,83.5,1283.1152,79.5,1279.1152" style="stroke: #A80036; stroke-width: 1.0;"/><line style="stroke: #A80036; stroke-width: 1.0; stroke-dasharray: 2.0,2.0;" x1="77.5" x2="474" y1="1279.1152" y2="1279.1152"/><!--MD5=[5ed5b7b7c722a9a4afaa73a5ec80e5db]
@startuml
group new GameSystem(int[][])
	GameSystem->Map : Map()
		Map- ->GameSystem
	GameSystem->Player : Player(java.lang.String)
		Player- ->GameSystem
end

group void playGame(java.lang.String)
	GameSystem->Player : Player(java.lang.String)
		Player- ->GameSystem
	GameSystem->GameSystem : diceSetting()
	GameSystem->GameSystem : main()
end

group void diceSetting()
	GameSystem->Dice : Dice(int[])
		Dice- ->GameSystem
end

group void printPos(gameSystem.Player)
	GameSystem->Player : getPos()
		Player- ->GameSystem
	GameSystem->Map : getSize()
		Map- ->GameSystem
	GameSystem->PrintStream : println(java.lang.String)
		PrintStream- ->GameSystem
	GameSystem->PrintStream : print(java.lang.String)
		PrintStream- ->GameSystem
	GameSystem->PrintStream : println()
		PrintStream- ->GameSystem
end

group Dice choiceDice(gameSystem.Player)
	GameSystem->PrintStream : println(java.lang.String)
		PrintStream- ->GameSystem
	GameSystem->GameSystem : printPos(gameSystem.Player)
	GameSystem->PrintStream : print(java.lang.String)
		PrintStream- ->GameSystem
	GameSystem->PrintStream : println()
		PrintStream- ->GameSystem
end

group int diceRoll(gameSystem.Dice)
	GameSystem->Dice : roll()
		Dice->Random : nextInt(int)
			Random- ->Dice
		Dice- ->GameSystem
end

group void move(int, gameSystem.Player)
	GameSystem->Player : getPos()
		Player- ->GameSystem
	GameSystem->Map : getSize()
		Map- ->GameSystem
	GameSystem->Map : getEvent(int)
		Map- ->GameSystem
	GameSystem->PrintStream : println(java.lang.String)
		PrintStream- ->GameSystem
	GameSystem->Player : setPos(int)
		Player- ->GameSystem
end

group void printResult()
	GameSystem->PrintStream : println(java.lang.String)
		PrintStream- ->GameSystem
end

@enduml

PlantUML version 1.2020.19(Tue Oct 13 00:10:01 KST 2020)
(APACHE source distribution)
Java Runtime: Java(TM) SE Runtime Environment
JVM: Java HotSpot(TM) 64-Bit Server VM
Default Encoding: UTF-8
Language: ko
Country: KR
--></g></svg>