<?xml version="1.0" encoding="UTF-8" standalone="no"?><svg xmlns="http://www.w3.org/2000/svg" xmlns:xlink="http://www.w3.org/1999/xlink" contentScriptType="application/ecmascript" contentStyleType="text/css" height="315px" preserveAspectRatio="none" style="width:453px;height:315px;" version="1.1" viewBox="0 0 453 315" width="453px" zoomAndPan="magnify"><defs><filter height="300%" id="fnxsl079zr870" width="300%" x="-1" y="-1"><feGaussianBlur result="blurOut" stdDeviation="2.0"/><feColorMatrix in="blurOut" result="blurOut2" type="matrix" values="0 0 0 0 0 0 0 0 0 0 0 0 0 0 0 0 0 0 .4 0"/><feOffset dx="4.0" dy="4.0" in="blurOut2" result="blurOut3"/><feBlend in="SourceGraphic" in2="blurOut3" mode="normal"/></filter></defs><g><rect fill="#FFFFFF" filter="url(#fnxsl079zr870)" height="192.1357" style="stroke: #000000; stroke-width: 2.0;" width="429" x="10" y="60.2295"/><line style="stroke: #A80036; stroke-width: 1.0; stroke-dasharray: 5.0,5.0;" x1="33" x2="33" y1="43.2295" y2="269.3652"/><line style="stroke: #A80036; stroke-width: 1.0; stroke-dasharray: 5.0,5.0;" x1="81" x2="81" y1="43.2295" y2="269.3652"/><line style="stroke: #A80036; stroke-width: 1.0; stroke-dasharray: 5.0,5.0;" x1="119" x2="119" y1="43.2295" y2="269.3652"/><rect fill="#FEFECE" filter="url(#fnxsl079zr870)" height="33.2295" style="stroke: #A80036; stroke-width: 1.5;" width="23" x="20" y="5"/><text fill="#000000" font-family="sans-serif" font-size="14" lengthAdjust="spacingAndGlyphs" textLength="9" x="27" y="28.1533">B</text><rect fill="#FEFECE" filter="url(#fnxsl079zr870)" height="33.2295" style="stroke: #A80036; stroke-width: 1.5;" width="23" x="20" y="268.3652"/><text fill="#000000" font-family="sans-serif" font-size="14" lengthAdjust="spacingAndGlyphs" textLength="9" x="27" y="291.5186">B</text><rect fill="#FEFECE" filter="url(#fnxsl079zr870)" height="33.2295" style="stroke: #A80036; stroke-width: 1.5;" width="23" x="68" y="5"/><text fill="#000000" font-family="sans-serif" font-size="14" lengthAdjust="spacingAndGlyphs" textLength="9" x="75" y="28.1533">A</text><rect fill="#FEFECE" filter="url(#fnxsl079zr870)" height="33.2295" style="stroke: #A80036; stroke-width: 1.5;" width="23" x="68" y="268.3652"/><text fill="#000000" font-family="sans-serif" font-size="14" lengthAdjust="spacingAndGlyphs" textLength="9" x="75" y="291.5186">A</text><rect fill="#FEFECE" filter="url(#fnxsl079zr870)" height="33.2295" style="stroke: #A80036; stroke-width: 1.5;" width="24" x="105" y="5"/><text fill="#000000" font-family="sans-serif" font-size="14" lengthAdjust="spacingAndGlyphs" textLength="10" x="112" y="28.1533">C</text><rect fill="#FEFECE" filter="url(#fnxsl079zr870)" height="33.2295" style="stroke: #A80036; stroke-width: 1.5;" width="24" x="105" y="268.3652"/><text fill="#000000" font-family="sans-serif" font-size="14" lengthAdjust="spacingAndGlyphs" textLength="10" x="112" y="291.5186">C</text><path d="M10,60.2295 L434,60.2295 L434,69.2295 L424,79.2295 L10,79.2295 L10,60.2295 " fill="#EEEEEE" style="stroke: #000000; stroke-width: 1.0;"/><rect fill="none" height="192.1357" style="stroke: #000000; stroke-width: 2.0;" width="429" x="10" y="60.2295"/><text fill="#000000" font-family="sans-serif" font-size="13" font-weight="bold" lengthAdjust="spacingAndGlyphs" textLength="379" x="25" y="76.229">void connectTarget.B.Bc(connectTarget.C, connectTarget.A)</text><polygon fill="#A80036" points="69.5,99.9414,79.5,103.9414,69.5,107.9414,73.5,103.9414" style="stroke: #A80036; stroke-width: 1.0;"/><line style="stroke: #A80036; stroke-width: 1.0;" x1="33.5" x2="75.5" y1="103.9414" y2="103.9414"/><text fill="#000000" font-family="sans-serif" font-size="13" lengthAdjust="spacingAndGlyphs" textLength="24" x="40.5" y="99.085">Ba()</text><line style="stroke: #A80036; stroke-width: 1.0;" x1="33.5" x2="75.5" y1="135.7974" y2="135.7974"/><line style="stroke: #A80036; stroke-width: 1.0;" x1="75.5" x2="75.5" y1="135.7974" y2="148.7974"/><line style="stroke: #A80036; stroke-width: 1.0;" x1="34.5" x2="75.5" y1="148.7974" y2="148.7974"/><polygon fill="#A80036" points="44.5,144.7974,34.5,148.7974,44.5,152.7974,40.5,148.7974" style="stroke: #A80036; stroke-width: 1.0;"/><text fill="#000000" font-family="sans-serif" font-size="13" lengthAdjust="spacingAndGlyphs" textLength="26" x="40.5" y="130.9409">BB()</text><polygon fill="#A80036" points="107,176.6533,117,180.6533,107,184.6533,111,180.6533" style="stroke: #A80036; stroke-width: 1.0;"/><line style="stroke: #A80036; stroke-width: 1.0;" x1="33.5" x2="113" y1="180.6533" y2="180.6533"/><text fill="#000000" font-family="sans-serif" font-size="13" lengthAdjust="spacingAndGlyphs" textLength="26" x="40.5" y="175.7969">AC()</text><polygon fill="#A80036" points="107,208.5093,117,212.5093,107,216.5093,111,212.5093" style="stroke: #A80036; stroke-width: 1.0;"/><line style="stroke: #A80036; stroke-width: 1.0;" x1="33.5" x2="113" y1="212.5093" y2="212.5093"/><text fill="#000000" font-family="sans-serif" font-size="13" lengthAdjust="spacingAndGlyphs" textLength="33" x="40.5" y="207.6528">CC1()</text><polygon fill="#A80036" points="107,240.3652,117,244.3652,107,248.3652,111,244.3652" style="stroke: #A80036; stroke-width: 1.0;"/><line style="stroke: #A80036; stroke-width: 1.0;" x1="33.5" x2="113" y1="244.3652" y2="244.3652"/><text fill="#000000" font-family="sans-serif" font-size="13" lengthAdjust="spacingAndGlyphs" textLength="33" x="40.5" y="239.5088">CC2()</text><!--MD5=[426c58e25e227d5986f61c73dc0af4a5]
@startuml
group void connectTarget.B.Bc(connectTarget.C, connectTarget.A)
	B->A : Ba()
	B->B : BB()
	B->C : AC()
	B->C : CC1()
	B->C : CC2()
end

@enduml

PlantUML version 1.2020.19(Tue Oct 13 00:10:01 KST 2020)
(APACHE source distribution)
Java Runtime: Java(TM) SE Runtime Environment
JVM: Java HotSpot(TM) 64-Bit Server VM
Default Encoding: MS949
Language: ko
Country: KR
--></g></svg>