<?xml version="1.0" encoding="UTF-8" standalone="no"?><svg xmlns="http://www.w3.org/2000/svg" xmlns:xlink="http://www.w3.org/1999/xlink" contentScriptType="application/ecmascript" contentStyleType="text/css" height="416px" preserveAspectRatio="none" style="width:294px;height:416px;" version="1.1" viewBox="0 0 294 416" width="294px" zoomAndPan="magnify"><defs><filter height="300%" id="feq0mgxkvqcyf" width="300%" x="-1" y="-1"><feGaussianBlur result="blurOut" stdDeviation="2.0"/><feColorMatrix in="blurOut" result="blurOut2" type="matrix" values="0 0 0 0 0 0 0 0 0 0 0 0 0 0 0 0 0 0 .4 0"/><feOffset dx="4.0" dy="4.0" in="blurOut2" result="blurOut3"/><feBlend in="SourceGraphic" in2="blurOut3" mode="normal"/></filter></defs><g><!--MD5=[16e5e4aab6e01a7d78c4f5a37997d801]
cluster connectTarget.A.Ab(connectTarget--><polygon fill="#FFFFFF" filter="url(#feq0mgxkvqcyf)" points="16,6,266,6,273,31.2295,277,31.2295,277,409,16,409,16,6" style="stroke: #000000; stroke-width: 1.5;"/><line style="stroke: #000000; stroke-width: 1.5;" x1="16" x2="273" y1="31.2295" y2="31.2295"/><text fill="#000000" font-family="sans-serif" font-size="14" font-weight="bold" lengthAdjust="spacingAndGlyphs" textLength="244" x="20" y="24.1533">connectTarget.A.Ab(connectTarget</text><!--MD5=[d3715584d1795ecaff65f60984998c83]
class connectTarget.A.Ab(connectTarget.B)--><rect codeLine="1" fill="#FEFECE" filter="url(#feq0mgxkvqcyf)" height="346.6233" id="connectTarget.A.Ab(connectTarget.B)" style="stroke: #A80036; stroke-width: 1.5;" width="131" x="81" y="45.5"/><ellipse cx="136.25" cy="61.5" fill="#ADD1B2" rx="11" ry="11" style="stroke: #A80036; stroke-width: 1.0;"/><path d="M135.8125,55.0156 Q133.0781,55.0156 132,56.6406 Q130.8594,58.3594 130.8594,61.2813 Q130.8594,64.5781 132.0156,66.2813 Q133,67.7813 135.6094,67.7813 Q137.1875,67.7813 138.0625,66.9531 Q139.0469,66 139.1875,63.875 Q139.1875,63.5781 139.0156,63.4063 Q138.8906,63.25 138.6719,63.2344 Q137.4531,63.2344 137.2969,63.3594 Q137.125,63.5156 137.125,63.7813 Q137.0938,65.2656 136.4375,66.0781 Q135.8281,66.875 135.75,66.875 Q134.4219,66.875 133.6406,65.2813 Q132.8906,63.7344 132.8906,61.25 Q132.8906,58.625 133.8281,57.1719 Q134.6563,55.9219 135.9375,55.9219 Q135.9375,55.9219 136.2813,56.5469 Q136.9063,57.2188 137.0469,58.375 Q137.1563,58.9531 138.625,58.7344 Q139.1563,58.6563 139.125,58.2344 Q138.9531,56.7969 138.2344,55.9844 Q137.375,55.0156 135.8125,55.0156 Z "/><text fill="#000000" font-family="sans-serif" font-size="12" lengthAdjust="spacingAndGlyphs" textLength="12" x="156.75" y="67.1045">B)</text><line style="stroke: #A80036; stroke-width: 1.5;" x1="82" x2="211" y1="77.5" y2="77.5"/><line style="stroke: #A80036; stroke-width: 1.5;" x1="82" x2="126.5" y1="93.0544" y2="93.0544"/><text fill="#008000" font-family="sans-serif" font-size="11" font-weight="bold" lengthAdjust="spacingAndGlyphs" textLength="40" x="126.5" y="97.6919">has list</text><line style="stroke: #A80036; stroke-width: 1.5;" x1="166.5" x2="211" y1="93.0544" y2="93.0544"/><line style="stroke: #A80036; stroke-width: 1.0; stroke-dasharray: 1.0,2.0;" x1="82" x2="133.5" y1="115.7178" y2="115.7178"/><text fill="#000000" font-family="sans-serif" font-size="11" lengthAdjust="spacingAndGlyphs" textLength="26" x="133.5" y="120.3552">class</text><line style="stroke: #A80036; stroke-width: 1.0; stroke-dasharray: 1.0,2.0;" x1="159.5" x2="211" y1="115.7178" y2="115.7178"/><text fill="#000000" font-family="sans-serif" font-size="11" lengthAdjust="spacingAndGlyphs" textLength="90" x="87" y="158.6274">B b (1782580546);</text><line style="stroke: #A80036; stroke-width: 1.0; stroke-dasharray: 1.0,2.0;" x1="82" x2="127.5" y1="138.3811" y2="138.3811"/><text fill="#000000" font-family="sans-serif" font-size="11" lengthAdjust="spacingAndGlyphs" textLength="38" x="127.5" y="143.0186">member</text><line style="stroke: #A80036; stroke-width: 1.0; stroke-dasharray: 1.0,2.0;" x1="165.5" x2="211" y1="138.3811" y2="138.3811"/><line style="stroke: #A80036; stroke-width: 1.0; stroke-dasharray: 1.0,2.0;" x1="82" x2="129" y1="172.5989" y2="172.5989"/><text fill="#000000" font-family="sans-serif" font-size="11" lengthAdjust="spacingAndGlyphs" textLength="35" x="129" y="177.2363">method</text><line style="stroke: #A80036; stroke-width: 1.0; stroke-dasharray: 1.0,2.0;" x1="164" x2="211" y1="172.5989" y2="172.5989"/><line style="stroke: #A80036; stroke-width: 1.5;" x1="82" x2="119" y1="195.2622" y2="195.2622"/><text fill="#0000FF" font-family="sans-serif" font-size="11" font-weight="bold" lengthAdjust="spacingAndGlyphs" textLength="55" x="119" y="199.8997">calling list</text><line style="stroke: #A80036; stroke-width: 1.5;" x1="174" x2="211" y1="195.2622" y2="195.2622"/><text fill="#000000" font-family="sans-serif" font-size="11" lengthAdjust="spacingAndGlyphs" textLength="81" x="87" y="238.1719">B (1238959340);</text><line style="stroke: #A80036; stroke-width: 1.0; stroke-dasharray: 1.0,2.0;" x1="82" x2="133.5" y1="217.9255" y2="217.9255"/><text fill="#000000" font-family="sans-serif" font-size="11" lengthAdjust="spacingAndGlyphs" textLength="26" x="133.5" y="222.563">class</text><line style="stroke: #A80036; stroke-width: 1.0; stroke-dasharray: 1.0,2.0;" x1="159.5" x2="211" y1="217.9255" y2="217.9255"/><line style="stroke: #A80036; stroke-width: 1.0; stroke-dasharray: 1.0,2.0;" x1="82" x2="127.5" y1="252.1433" y2="252.1433"/><text fill="#000000" font-family="sans-serif" font-size="11" lengthAdjust="spacingAndGlyphs" textLength="38" x="127.5" y="256.7808">member</text><line style="stroke: #A80036; stroke-width: 1.0; stroke-dasharray: 1.0,2.0;" x1="165.5" x2="211" y1="252.1433" y2="252.1433"/><text fill="#000000" font-family="sans-serif" font-size="11" lengthAdjust="spacingAndGlyphs" textLength="119" x="87" y="295.053">void Ab() (1030228826);</text><line style="stroke: #A80036; stroke-width: 1.0; stroke-dasharray: 1.0,2.0;" x1="82" x2="129" y1="274.8066" y2="274.8066"/><text fill="#000000" font-family="sans-serif" font-size="11" lengthAdjust="spacingAndGlyphs" textLength="35" x="129" y="279.4441">method</text><line style="stroke: #A80036; stroke-width: 1.0; stroke-dasharray: 1.0,2.0;" x1="164" x2="211" y1="274.8066" y2="274.8066"/><line style="stroke: #A80036; stroke-width: 1.5;" x1="82" x2="112.5" y1="309.0244" y2="309.0244"/><text fill="#FFA500" font-family="sans-serif" font-size="11" font-weight="bold" lengthAdjust="spacingAndGlyphs" textLength="68" x="112.5" y="313.6619">called by list</text><line style="stroke: #A80036; stroke-width: 1.5;" x1="180.5" x2="211" y1="309.0244" y2="309.0244"/><line style="stroke: #A80036; stroke-width: 1.0; stroke-dasharray: 1.0,2.0;" x1="82" x2="133.5" y1="331.6877" y2="331.6877"/><text fill="#000000" font-family="sans-serif" font-size="11" lengthAdjust="spacingAndGlyphs" textLength="26" x="133.5" y="336.3252">class</text><line style="stroke: #A80036; stroke-width: 1.0; stroke-dasharray: 1.0,2.0;" x1="159.5" x2="211" y1="331.6877" y2="331.6877"/><line style="stroke: #A80036; stroke-width: 1.0; stroke-dasharray: 1.0,2.0;" x1="82" x2="127.5" y1="354.3511" y2="354.3511"/><text fill="#000000" font-family="sans-serif" font-size="11" lengthAdjust="spacingAndGlyphs" textLength="38" x="127.5" y="358.9885">member</text><line style="stroke: #A80036; stroke-width: 1.0; stroke-dasharray: 1.0,2.0;" x1="165.5" x2="211" y1="354.3511" y2="354.3511"/><line style="stroke: #A80036; stroke-width: 1.0; stroke-dasharray: 1.0,2.0;" x1="82" x2="129" y1="377.0144" y2="377.0144"/><text fill="#000000" font-family="sans-serif" font-size="11" lengthAdjust="spacingAndGlyphs" textLength="35" x="129" y="381.6519">method</text><line style="stroke: #A80036; stroke-width: 1.0; stroke-dasharray: 1.0,2.0;" x1="164" x2="211" y1="377.0144" y2="377.0144"/><!--MD5=[d4df5e0fc092cd2f52b85e48ab875f23]
@startuml
class connectTarget.A.Ab(connectTarget.B){
__**<color:green>has list</color>**__
..class..
..member..
	B b (1782580546);
..method..
__**<color:blue>calling list</color>**__
..class..
	B (1238959340);
..member..
..method..
	void Ab() (1030228826);
__**<color:orange>called by list</color>**__
..class..
..member..
..method..
}

@enduml

PlantUML version 1.2020.19(Tue Oct 13 00:10:01 KST 2020)
(APACHE source distribution)
Java Runtime: Java(TM) SE Runtime Environment
JVM: Java HotSpot(TM) 64-Bit Server VM
Default Encoding: MS949
Language: ko
Country: KR
--></g></svg>