<?xml version="1.0" encoding="UTF-8" standalone="no"?><svg xmlns="http://www.w3.org/2000/svg" xmlns:xlink="http://www.w3.org/1999/xlink" contentScriptType="application/ecmascript" contentStyleType="text/css" height="472px" preserveAspectRatio="none" style="width:361px;height:472px;" version="1.1" viewBox="0 0 361 472" width="361px" zoomAndPan="magnify"><defs><filter height="300%" id="fs86fkcezq6na" width="300%" x="-1" y="-1"><feGaussianBlur result="blurOut" stdDeviation="2.0"/><feColorMatrix in="blurOut" result="blurOut2" type="matrix" values="0 0 0 0 0 0 0 0 0 0 0 0 0 0 0 0 0 0 .4 0"/><feOffset dx="4.0" dy="4.0" in="blurOut2" result="blurOut3"/><feBlend in="SourceGraphic" in2="blurOut3" mode="normal"/></filter></defs><g><!--MD5=[a02260b0991962dab8568441092ed007]
cluster connectTarget.C--><polygon fill="#FFFFFF" filter="url(#fs86fkcezq6na)" points="16,6,138,6,145,31.2295,344,31.2295,344,465,16,465,16,6" style="stroke: #000000; stroke-width: 1.5;"/><line style="stroke: #000000; stroke-width: 1.5;" x1="16" x2="145" y1="31.2295" y2="31.2295"/><text fill="#000000" font-family="sans-serif" font-size="14" font-weight="bold" lengthAdjust="spacingAndGlyphs" textLength="116" x="20" y="24.1533">connectTarget.C</text><!--MD5=[051fbf6357b923a4a959f61fb696ebb1]
class connectTarget.C.AC()--><rect codeLine="1" fill="#FEFECE" filter="url(#fs86fkcezq6na)" height="403.5044" id="connectTarget.C.AC()" style="stroke: #A80036; stroke-width: 1.5;" width="297" x="32" y="45"/><ellipse cx="164.25" cy="61" fill="#ADD1B2" rx="11" ry="11" style="stroke: #A80036; stroke-width: 1.0;"/><path d="M163.8125,54.5156 Q161.0781,54.5156 160,56.1406 Q158.8594,57.8594 158.8594,60.7813 Q158.8594,64.0781 160.0156,65.7813 Q161,67.2813 163.6094,67.2813 Q165.1875,67.2813 166.0625,66.4531 Q167.0469,65.5 167.1875,63.375 Q167.1875,63.0781 167.0156,62.9063 Q166.8906,62.75 166.6719,62.7344 Q165.4531,62.7344 165.2969,62.8594 Q165.125,63.0156 165.125,63.2813 Q165.0938,64.7656 164.4375,65.5781 Q163.8281,66.375 163.75,66.375 Q162.4219,66.375 161.6406,64.7813 Q160.8906,63.2344 160.8906,60.75 Q160.8906,58.125 161.8281,56.6719 Q162.6563,55.4219 163.9375,55.4219 Q163.9375,55.4219 164.2813,56.0469 Q164.9063,56.7188 165.0469,57.875 Q165.1563,58.4531 166.625,58.2344 Q167.1563,58.1563 167.125,57.7344 Q166.9531,56.2969 166.2344,55.4844 Q165.375,54.5156 163.8125,54.5156 Z "/><text fill="#000000" font-family="sans-serif" font-size="12" lengthAdjust="spacingAndGlyphs" textLength="24" x="184.75" y="66.6045">AC()</text><line style="stroke: #A80036; stroke-width: 1.5;" x1="33" x2="328" y1="77" y2="77"/><line style="stroke: #A80036; stroke-width: 1.5;" x1="33" x2="160.5" y1="92.5544" y2="92.5544"/><text fill="#008000" font-family="sans-serif" font-size="11" font-weight="bold" lengthAdjust="spacingAndGlyphs" textLength="40" x="160.5" y="97.1919">has list</text><line style="stroke: #A80036; stroke-width: 1.5;" x1="200.5" x2="328" y1="92.5544" y2="92.5544"/><line style="stroke: #A80036; stroke-width: 1.0; stroke-dasharray: 1.0,2.0;" x1="33" x2="167.5" y1="115.2178" y2="115.2178"/><text fill="#000000" font-family="sans-serif" font-size="11" lengthAdjust="spacingAndGlyphs" textLength="26" x="167.5" y="119.8552">class</text><line style="stroke: #A80036; stroke-width: 1.0; stroke-dasharray: 1.0,2.0;" x1="193.5" x2="328" y1="115.2178" y2="115.2178"/><line style="stroke: #A80036; stroke-width: 1.0; stroke-dasharray: 1.0,2.0;" x1="33" x2="161.5" y1="137.8811" y2="137.8811"/><text fill="#000000" font-family="sans-serif" font-size="11" lengthAdjust="spacingAndGlyphs" textLength="38" x="161.5" y="142.5186">member</text><line style="stroke: #A80036; stroke-width: 1.0; stroke-dasharray: 1.0,2.0;" x1="199.5" x2="328" y1="137.8811" y2="137.8811"/><line style="stroke: #A80036; stroke-width: 1.0; stroke-dasharray: 1.0,2.0;" x1="33" x2="163" y1="160.5444" y2="160.5444"/><text fill="#000000" font-family="sans-serif" font-size="11" lengthAdjust="spacingAndGlyphs" textLength="35" x="163" y="165.1819">method</text><line style="stroke: #A80036; stroke-width: 1.0; stroke-dasharray: 1.0,2.0;" x1="198" x2="328" y1="160.5444" y2="160.5444"/><line style="stroke: #A80036; stroke-width: 1.5;" x1="33" x2="153" y1="183.2078" y2="183.2078"/><text fill="#0000FF" font-family="sans-serif" font-size="11" font-weight="bold" lengthAdjust="spacingAndGlyphs" textLength="55" x="153" y="187.8452">calling list</text><line style="stroke: #A80036; stroke-width: 1.5;" x1="208" x2="328" y1="183.2078" y2="183.2078"/><text fill="#000000" font-family="sans-serif" font-size="11" lengthAdjust="spacingAndGlyphs" textLength="81" x="38" y="226.1174">C (1000975683);</text><line style="stroke: #A80036; stroke-width: 1.0; stroke-dasharray: 1.0,2.0;" x1="33" x2="167.5" y1="205.8711" y2="205.8711"/><text fill="#000000" font-family="sans-serif" font-size="11" lengthAdjust="spacingAndGlyphs" textLength="26" x="167.5" y="210.5085">class</text><line style="stroke: #A80036; stroke-width: 1.0; stroke-dasharray: 1.0,2.0;" x1="193.5" x2="328" y1="205.8711" y2="205.8711"/><line style="stroke: #A80036; stroke-width: 1.0; stroke-dasharray: 1.0,2.0;" x1="33" x2="161.5" y1="240.0889" y2="240.0889"/><text fill="#000000" font-family="sans-serif" font-size="11" lengthAdjust="spacingAndGlyphs" textLength="38" x="161.5" y="244.7263">member</text><line style="stroke: #A80036; stroke-width: 1.0; stroke-dasharray: 1.0,2.0;" x1="199.5" x2="328" y1="240.0889" y2="240.0889"/><text fill="#000000" font-family="sans-serif" font-size="11" lengthAdjust="spacingAndGlyphs" textLength="125" x="38" y="282.9985">void CC1() (1099855928);</text><text fill="#000000" font-family="sans-serif" font-size="11" lengthAdjust="spacingAndGlyphs" textLength="125" x="38" y="298.1074">void CC2() (1629687658);</text><line style="stroke: #A80036; stroke-width: 1.0; stroke-dasharray: 1.0,2.0;" x1="33" x2="163" y1="262.7522" y2="262.7522"/><text fill="#000000" font-family="sans-serif" font-size="11" lengthAdjust="spacingAndGlyphs" textLength="35" x="163" y="267.3896">method</text><line style="stroke: #A80036; stroke-width: 1.0; stroke-dasharray: 1.0,2.0;" x1="198" x2="328" y1="262.7522" y2="262.7522"/><line style="stroke: #A80036; stroke-width: 1.5;" x1="33" x2="146.5" y1="312.0789" y2="312.0789"/><text fill="#FFA500" font-family="sans-serif" font-size="11" font-weight="bold" lengthAdjust="spacingAndGlyphs" textLength="68" x="146.5" y="316.7163">called by list</text><line style="stroke: #A80036; stroke-width: 1.5;" x1="214.5" x2="328" y1="312.0789" y2="312.0789"/><text fill="#000000" font-family="sans-serif" font-size="11" lengthAdjust="spacingAndGlyphs" textLength="82" x="38" y="354.9885">A (1010931249);</text><text fill="#000000" font-family="sans-serif" font-size="11" lengthAdjust="spacingAndGlyphs" textLength="81" x="38" y="370.0974">B (1238959340);</text><line style="stroke: #A80036; stroke-width: 1.0; stroke-dasharray: 1.0,2.0;" x1="33" x2="167.5" y1="334.7422" y2="334.7422"/><text fill="#000000" font-family="sans-serif" font-size="11" lengthAdjust="spacingAndGlyphs" textLength="26" x="167.5" y="339.3796">class</text><line style="stroke: #A80036; stroke-width: 1.0; stroke-dasharray: 1.0,2.0;" x1="193.5" x2="328" y1="334.7422" y2="334.7422"/><line style="stroke: #A80036; stroke-width: 1.0; stroke-dasharray: 1.0,2.0;" x1="33" x2="161.5" y1="384.0688" y2="384.0688"/><text fill="#000000" font-family="sans-serif" font-size="11" lengthAdjust="spacingAndGlyphs" textLength="38" x="161.5" y="388.7063">member</text><line style="stroke: #A80036; stroke-width: 1.0; stroke-dasharray: 1.0,2.0;" x1="199.5" x2="328" y1="384.0688" y2="384.0688"/><text fill="#000000" font-family="sans-serif" font-size="11" lengthAdjust="spacingAndGlyphs" textLength="120" x="38" y="426.9785">void AC() (1524960486);</text><text fill="#000000" font-family="sans-serif" font-size="11" lengthAdjust="spacingAndGlyphs" textLength="285" x="38" y="442.0874">void Bc(connectTarget.C, connectTarget.A) (1264413185);</text><line style="stroke: #A80036; stroke-width: 1.0; stroke-dasharray: 1.0,2.0;" x1="33" x2="163" y1="406.7322" y2="406.7322"/><text fill="#000000" font-family="sans-serif" font-size="11" lengthAdjust="spacingAndGlyphs" textLength="35" x="163" y="411.3696">method</text><line style="stroke: #A80036; stroke-width: 1.0; stroke-dasharray: 1.0,2.0;" x1="198" x2="328" y1="406.7322" y2="406.7322"/><!--MD5=[0fc32a5b29ceeb7c288dbda1f93c2b7a]
@startuml
class connectTarget.C.AC(){
__**<color:green>has list</color>**__
..class..
..member..
..method..
__**<color:blue>calling list</color>**__
..class..
	C (1000975683);
..member..
..method..
	void CC1() (1099855928);
	void CC2() (1629687658);
__**<color:orange>called by list</color>**__
..class..
	A (1010931249);
	B (1238959340);
..member..
..method..
	void AC() (1524960486);
	void Bc(connectTarget.C, connectTarget.A) (1264413185);
}

@enduml

PlantUML version 1.2020.19(Tue Oct 13 00:10:01 KST 2020)
(APACHE source distribution)
Java Runtime: Java(TM) SE Runtime Environment
JVM: Java HotSpot(TM) 64-Bit Server VM
Default Encoding: MS949
Language: ko
Country: KR
--></g></svg>