<?xml version="1.0" encoding="UTF-8" standalone="no"?><svg xmlns="http://www.w3.org/2000/svg" xmlns:xlink="http://www.w3.org/1999/xlink" contentScriptType="application/ecmascript" contentStyleType="text/css" height="380px" preserveAspectRatio="none" style="width:163px;height:380px;" version="1.1" viewBox="0 0 163 380" width="163px" zoomAndPan="magnify"><defs><filter height="300%" id="f1hct31menfyiv" width="300%" x="-1" y="-1"><feGaussianBlur result="blurOut" stdDeviation="2.0"/><feColorMatrix in="blurOut" result="blurOut2" type="matrix" values="0 0 0 0 0 0 0 0 0 0 0 0 0 0 0 0 0 0 .4 0"/><feOffset dx="4.0" dy="4.0" in="blurOut2" result="blurOut3"/><feBlend in="SourceGraphic" in2="blurOut3" mode="normal"/></filter></defs><g><!--MD5=[4664e286fd72daaf0ced34faacba02bc]
cluster target.CafeLatte--><polygon fill="#FFFFFF" filter="url(#f1hct31menfyiv)" points="16,6,135,6,142,31.2295,146,31.2295,146,373,16,373,16,6" style="stroke: #000000; stroke-width: 1.5;"/><line style="stroke: #000000; stroke-width: 1.5;" x1="16" x2="142" y1="31.2295" y2="31.2295"/><text fill="#000000" font-family="sans-serif" font-size="14" font-weight="bold" lengthAdjust="spacingAndGlyphs" textLength="113" x="20" y="24.1533">target.CafeLatte</text><!--MD5=[bcf77c558ea50234e0cab9e804805f69]
class target.CafeLatte.make()--><rect codeLine="1" fill="#FEFECE" filter="url(#f1hct31menfyiv)" height="311.96" id="target.CafeLatte.make()" style="stroke: #A80036; stroke-width: 1.5;" width="76" x="43" y="45"/><ellipse cx="60.25" cy="61" fill="#ADD1B2" rx="11" ry="11" style="stroke: #A80036; stroke-width: 1.0;"/><path d="M59.8125,54.5156 Q57.0781,54.5156 56,56.1406 Q54.8594,57.8594 54.8594,60.7813 Q54.8594,64.0781 56.0156,65.7813 Q57,67.2813 59.6094,67.2813 Q61.1875,67.2813 62.0625,66.4531 Q63.0469,65.5 63.1875,63.375 Q63.1875,63.0781 63.0156,62.9063 Q62.8906,62.75 62.6719,62.7344 Q61.4531,62.7344 61.2969,62.8594 Q61.125,63.0156 61.125,63.2813 Q61.0938,64.7656 60.4375,65.5781 Q59.8281,66.375 59.75,66.375 Q58.4219,66.375 57.6406,64.7813 Q56.8906,63.2344 56.8906,60.75 Q56.8906,58.125 57.8281,56.6719 Q58.6563,55.4219 59.9375,55.4219 Q59.9375,55.4219 60.2813,56.0469 Q60.9063,56.7188 61.0469,57.875 Q61.1563,58.4531 62.625,58.2344 Q63.1563,58.1563 63.125,57.7344 Q62.9531,56.2969 62.2344,55.4844 Q61.375,54.5156 59.8125,54.5156 Z "/><text fill="#000000" font-family="sans-serif" font-size="12" lengthAdjust="spacingAndGlyphs" textLength="39" x="74.75" y="66.6045">make()</text><line style="stroke: #A80036; stroke-width: 1.5;" x1="44" x2="118" y1="77" y2="77"/><line style="stroke: #A80036; stroke-width: 1.5;" x1="44" x2="61" y1="92.5544" y2="92.5544"/><text fill="#008000" font-family="sans-serif" font-size="11" font-weight="bold" lengthAdjust="spacingAndGlyphs" textLength="40" x="61" y="97.1919">has list</text><line style="stroke: #A80036; stroke-width: 1.5;" x1="101" x2="118" y1="92.5544" y2="92.5544"/><line style="stroke: #A80036; stroke-width: 1.0; stroke-dasharray: 1.0,2.0;" x1="44" x2="68" y1="115.2178" y2="115.2178"/><text fill="#000000" font-family="sans-serif" font-size="11" lengthAdjust="spacingAndGlyphs" textLength="26" x="68" y="119.8552">class</text><line style="stroke: #A80036; stroke-width: 1.0; stroke-dasharray: 1.0,2.0;" x1="94" x2="118" y1="115.2178" y2="115.2178"/><line style="stroke: #A80036; stroke-width: 1.0; stroke-dasharray: 1.0,2.0;" x1="44" x2="62" y1="137.8811" y2="137.8811"/><text fill="#000000" font-family="sans-serif" font-size="11" lengthAdjust="spacingAndGlyphs" textLength="38" x="62" y="142.5186">member</text><line style="stroke: #A80036; stroke-width: 1.0; stroke-dasharray: 1.0,2.0;" x1="100" x2="118" y1="137.8811" y2="137.8811"/><line style="stroke: #A80036; stroke-width: 1.0; stroke-dasharray: 1.0,2.0;" x1="44" x2="63.5" y1="160.5444" y2="160.5444"/><text fill="#000000" font-family="sans-serif" font-size="11" lengthAdjust="spacingAndGlyphs" textLength="35" x="63.5" y="165.1819">method</text><line style="stroke: #A80036; stroke-width: 1.0; stroke-dasharray: 1.0,2.0;" x1="98.5" x2="118" y1="160.5444" y2="160.5444"/><line style="stroke: #A80036; stroke-width: 1.5;" x1="44" x2="53.5" y1="183.2078" y2="183.2078"/><text fill="#0000FF" font-family="sans-serif" font-size="11" font-weight="bold" lengthAdjust="spacingAndGlyphs" textLength="55" x="53.5" y="187.8452">calling list</text><line style="stroke: #A80036; stroke-width: 1.5;" x1="108.5" x2="118" y1="183.2078" y2="183.2078"/><line style="stroke: #A80036; stroke-width: 1.0; stroke-dasharray: 1.0,2.0;" x1="44" x2="68" y1="205.8711" y2="205.8711"/><text fill="#000000" font-family="sans-serif" font-size="11" lengthAdjust="spacingAndGlyphs" textLength="26" x="68" y="210.5085">class</text><line style="stroke: #A80036; stroke-width: 1.0; stroke-dasharray: 1.0,2.0;" x1="94" x2="118" y1="205.8711" y2="205.8711"/><line style="stroke: #A80036; stroke-width: 1.0; stroke-dasharray: 1.0,2.0;" x1="44" x2="62" y1="228.5344" y2="228.5344"/><text fill="#000000" font-family="sans-serif" font-size="11" lengthAdjust="spacingAndGlyphs" textLength="38" x="62" y="233.1719">member</text><line style="stroke: #A80036; stroke-width: 1.0; stroke-dasharray: 1.0,2.0;" x1="100" x2="118" y1="228.5344" y2="228.5344"/><line style="stroke: #A80036; stroke-width: 1.0; stroke-dasharray: 1.0,2.0;" x1="44" x2="63.5" y1="251.1978" y2="251.1978"/><text fill="#000000" font-family="sans-serif" font-size="11" lengthAdjust="spacingAndGlyphs" textLength="35" x="63.5" y="255.8352">method</text><line style="stroke: #A80036; stroke-width: 1.0; stroke-dasharray: 1.0,2.0;" x1="98.5" x2="118" y1="251.1978" y2="251.1978"/><line style="stroke: #A80036; stroke-width: 1.5;" x1="44" x2="47" y1="273.8611" y2="273.8611"/><text fill="#FFA500" font-family="sans-serif" font-size="11" font-weight="bold" lengthAdjust="spacingAndGlyphs" textLength="68" x="47" y="278.4985">called by list</text><line style="stroke: #A80036; stroke-width: 1.5;" x1="115" x2="118" y1="273.8611" y2="273.8611"/><line style="stroke: #A80036; stroke-width: 1.0; stroke-dasharray: 1.0,2.0;" x1="44" x2="68" y1="296.5244" y2="296.5244"/><text fill="#000000" font-family="sans-serif" font-size="11" lengthAdjust="spacingAndGlyphs" textLength="26" x="68" y="301.1619">class</text><line style="stroke: #A80036; stroke-width: 1.0; stroke-dasharray: 1.0,2.0;" x1="94" x2="118" y1="296.5244" y2="296.5244"/><line style="stroke: #A80036; stroke-width: 1.0; stroke-dasharray: 1.0,2.0;" x1="44" x2="62" y1="319.1877" y2="319.1877"/><text fill="#000000" font-family="sans-serif" font-size="11" lengthAdjust="spacingAndGlyphs" textLength="38" x="62" y="323.8252">member</text><line style="stroke: #A80036; stroke-width: 1.0; stroke-dasharray: 1.0,2.0;" x1="100" x2="118" y1="319.1877" y2="319.1877"/><line style="stroke: #A80036; stroke-width: 1.0; stroke-dasharray: 1.0,2.0;" x1="44" x2="63.5" y1="341.8511" y2="341.8511"/><text fill="#000000" font-family="sans-serif" font-size="11" lengthAdjust="spacingAndGlyphs" textLength="35" x="63.5" y="346.4885">method</text><line style="stroke: #A80036; stroke-width: 1.0; stroke-dasharray: 1.0,2.0;" x1="98.5" x2="118" y1="341.8511" y2="341.8511"/><!--MD5=[708f531ccbad70cec6a191f12e19cac1]
@startuml
class target.CafeLatte.make(){
__**<color:green>has list</color>**__
..class..
..member..
..method..
__**<color:blue>calling list</color>**__
..class..
..member..
..method..
__**<color:orange>called by list</color>**__
..class..
..member..
..method..
}

@enduml

PlantUML version 1.2020.19(Tue Oct 13 00:10:01 KST 2020)
(APACHE source distribution)
Java Runtime: Java(TM) SE Runtime Environment
JVM: Java HotSpot(TM) 64-Bit Server VM
Default Encoding: MS949
Language: ko
Country: KR
--></g></svg>