<?xml version="1.0" encoding="UTF-8" standalone="no"?><svg xmlns="http://www.w3.org/2000/svg" xmlns:xlink="http://www.w3.org/1999/xlink" contentScriptType="application/ecmascript" contentStyleType="text/css" height="430px" preserveAspectRatio="none" style="width:355px;height:430px;" version="1.1" viewBox="0 0 355 430" width="355px" zoomAndPan="magnify"><defs><filter height="300%" id="f1ot0amp25e3wi" width="300%" x="-1" y="-1"><feGaussianBlur result="blurOut" stdDeviation="2.0"/><feColorMatrix in="blurOut" result="blurOut2" type="matrix" values="0 0 0 0 0 0 0 0 0 0 0 0 0 0 0 0 0 0 .4 0"/><feOffset dx="4.0" dy="4.0" in="blurOut2" result="blurOut3"/><feBlend in="SourceGraphic" in2="blurOut3" mode="normal"/></filter></defs><g><!--MD5=[26c5909e3beb0655f44a32ec04b7bf98]
cluster target--><polygon fill="#FFFFFF" filter="url(#f1ot0amp25e3wi)" points="16,6,64,6,71,31.2295,338,31.2295,338,423,16,423,16,6" style="stroke: #000000; stroke-width: 1.5;"/><line style="stroke: #000000; stroke-width: 1.5;" x1="16" x2="71" y1="31.2295" y2="31.2295"/><text fill="#000000" font-family="sans-serif" font-size="14" font-weight="bold" lengthAdjust="spacingAndGlyphs" textLength="42" x="20" y="24.1533">target</text><!--MD5=[b4399907fd0a3f402ef141ce3b89b92a]
class target.Barista--><rect codeLine="1" fill="#FEFECE" filter="url(#f1ot0amp25e3wi)" height="361.7322" id="target.Barista" style="stroke: #A80036; stroke-width: 1.5;" width="290" x="32" y="45"/><ellipse cx="153.25" cy="61" fill="#ADD1B2" rx="11" ry="11" style="stroke: #A80036; stroke-width: 1.0;"/><path d="M152.8125,54.5156 Q150.0781,54.5156 149,56.1406 Q147.8594,57.8594 147.8594,60.7813 Q147.8594,64.0781 149.0156,65.7813 Q150,67.2813 152.6094,67.2813 Q154.1875,67.2813 155.0625,66.4531 Q156.0469,65.5 156.1875,63.375 Q156.1875,63.0781 156.0156,62.9063 Q155.8906,62.75 155.6719,62.7344 Q154.4531,62.7344 154.2969,62.8594 Q154.125,63.0156 154.125,63.2813 Q154.0938,64.7656 153.4375,65.5781 Q152.8281,66.375 152.75,66.375 Q151.4219,66.375 150.6406,64.7813 Q149.8906,63.2344 149.8906,60.75 Q149.8906,58.125 150.8281,56.6719 Q151.6563,55.4219 152.9375,55.4219 Q152.9375,55.4219 153.2813,56.0469 Q153.9063,56.7188 154.0469,57.875 Q154.1563,58.4531 155.625,58.2344 Q156.1563,58.1563 156.125,57.7344 Q155.9531,56.2969 155.2344,55.4844 Q154.375,54.5156 152.8125,54.5156 Z "/><text fill="#000000" font-family="sans-serif" font-size="12" lengthAdjust="spacingAndGlyphs" textLength="39" x="173.75" y="66.6045">Barista</text><line style="stroke: #A80036; stroke-width: 1.5;" x1="33" x2="321" y1="77" y2="77"/><line style="stroke: #A80036; stroke-width: 1.5;" x1="33" x2="157" y1="92.5544" y2="92.5544"/><text fill="#008000" font-family="sans-serif" font-size="11" font-weight="bold" lengthAdjust="spacingAndGlyphs" textLength="40" x="157" y="97.1919">has list</text><line style="stroke: #A80036; stroke-width: 1.5;" x1="197" x2="321" y1="92.5544" y2="92.5544"/><line style="stroke: #A80036; stroke-width: 1.0; stroke-dasharray: 1.0,2.0;" x1="33" x2="164" y1="115.2178" y2="115.2178"/><text fill="#000000" font-family="sans-serif" font-size="11" lengthAdjust="spacingAndGlyphs" textLength="26" x="164" y="119.8552">class</text><line style="stroke: #A80036; stroke-width: 1.0; stroke-dasharray: 1.0,2.0;" x1="190" x2="321" y1="115.2178" y2="115.2178"/><line style="stroke: #A80036; stroke-width: 1.0; stroke-dasharray: 1.0,2.0;" x1="33" x2="158" y1="137.8811" y2="137.8811"/><text fill="#000000" font-family="sans-serif" font-size="11" lengthAdjust="spacingAndGlyphs" textLength="38" x="158" y="142.5186">member</text><line style="stroke: #A80036; stroke-width: 1.0; stroke-dasharray: 1.0,2.0;" x1="196" x2="321" y1="137.8811" y2="137.8811"/><text fill="#000000" font-family="sans-serif" font-size="11" lengthAdjust="spacingAndGlyphs" textLength="278" x="38" y="180.7908">Coffee makeCoffee(target.Coffee, boolean) (386163331);</text><text fill="#000000" font-family="sans-serif" font-size="11" lengthAdjust="spacingAndGlyphs" textLength="230" x="38" y="195.8997">boolean getOrder(target.Coffee) (1540374340);</text><line style="stroke: #A80036; stroke-width: 1.0; stroke-dasharray: 1.0,2.0;" x1="33" x2="159.5" y1="160.5444" y2="160.5444"/><text fill="#000000" font-family="sans-serif" font-size="11" lengthAdjust="spacingAndGlyphs" textLength="35" x="159.5" y="165.1819">method</text><line style="stroke: #A80036; stroke-width: 1.0; stroke-dasharray: 1.0,2.0;" x1="194.5" x2="321" y1="160.5444" y2="160.5444"/><line style="stroke: #A80036; stroke-width: 1.5;" x1="33" x2="149.5" y1="209.8711" y2="209.8711"/><text fill="#0000FF" font-family="sans-serif" font-size="11" font-weight="bold" lengthAdjust="spacingAndGlyphs" textLength="55" x="149.5" y="214.5085">calling list</text><line style="stroke: #A80036; stroke-width: 1.5;" x1="204.5" x2="321" y1="209.8711" y2="209.8711"/><line style="stroke: #A80036; stroke-width: 1.0; stroke-dasharray: 1.0,2.0;" x1="33" x2="164" y1="232.5344" y2="232.5344"/><text fill="#000000" font-family="sans-serif" font-size="11" lengthAdjust="spacingAndGlyphs" textLength="26" x="164" y="237.1719">class</text><line style="stroke: #A80036; stroke-width: 1.0; stroke-dasharray: 1.0,2.0;" x1="190" x2="321" y1="232.5344" y2="232.5344"/><line style="stroke: #A80036; stroke-width: 1.0; stroke-dasharray: 1.0,2.0;" x1="33" x2="158" y1="255.1978" y2="255.1978"/><text fill="#000000" font-family="sans-serif" font-size="11" lengthAdjust="spacingAndGlyphs" textLength="38" x="158" y="259.8352">member</text><line style="stroke: #A80036; stroke-width: 1.0; stroke-dasharray: 1.0,2.0;" x1="196" x2="321" y1="255.1978" y2="255.1978"/><line style="stroke: #A80036; stroke-width: 1.0; stroke-dasharray: 1.0,2.0;" x1="33" x2="159.5" y1="277.8611" y2="277.8611"/><text fill="#000000" font-family="sans-serif" font-size="11" lengthAdjust="spacingAndGlyphs" textLength="35" x="159.5" y="282.4985">method</text><line style="stroke: #A80036; stroke-width: 1.0; stroke-dasharray: 1.0,2.0;" x1="194.5" x2="321" y1="277.8611" y2="277.8611"/><line style="stroke: #A80036; stroke-width: 1.5;" x1="33" x2="143" y1="300.5244" y2="300.5244"/><text fill="#FFA500" font-family="sans-serif" font-size="11" font-weight="bold" lengthAdjust="spacingAndGlyphs" textLength="68" x="143" y="305.1619">called by list</text><line style="stroke: #A80036; stroke-width: 1.5;" x1="211" x2="321" y1="300.5244" y2="300.5244"/><text fill="#000000" font-family="sans-serif" font-size="11" lengthAdjust="spacingAndGlyphs" textLength="126" x="38" y="343.4341">CoffeeShop (694316372);</text><line style="stroke: #A80036; stroke-width: 1.0; stroke-dasharray: 1.0,2.0;" x1="33" x2="164" y1="323.1877" y2="323.1877"/><text fill="#000000" font-family="sans-serif" font-size="11" lengthAdjust="spacingAndGlyphs" textLength="26" x="164" y="327.8252">class</text><line style="stroke: #A80036; stroke-width: 1.0; stroke-dasharray: 1.0,2.0;" x1="190" x2="321" y1="323.1877" y2="323.1877"/><line style="stroke: #A80036; stroke-width: 1.0; stroke-dasharray: 1.0,2.0;" x1="33" x2="158" y1="357.4055" y2="357.4055"/><text fill="#000000" font-family="sans-serif" font-size="11" lengthAdjust="spacingAndGlyphs" textLength="38" x="158" y="362.043">member</text><line style="stroke: #A80036; stroke-width: 1.0; stroke-dasharray: 1.0,2.0;" x1="196" x2="321" y1="357.4055" y2="357.4055"/><text fill="#000000" font-family="sans-serif" font-size="11" lengthAdjust="spacingAndGlyphs" textLength="207" x="38" y="400.3152">void main(java.lang.String[]) (1516500233);</text><line style="stroke: #A80036; stroke-width: 1.0; stroke-dasharray: 1.0,2.0;" x1="33" x2="159.5" y1="380.0688" y2="380.0688"/><text fill="#000000" font-family="sans-serif" font-size="11" lengthAdjust="spacingAndGlyphs" textLength="35" x="159.5" y="384.7063">method</text><line style="stroke: #A80036; stroke-width: 1.0; stroke-dasharray: 1.0,2.0;" x1="194.5" x2="321" y1="380.0688" y2="380.0688"/><!--MD5=[e56a2f29d7d5ca68274dd238d98fd95d]
@startuml
class target.Barista{
__**<color:green>has list</color>**__
..class..
..member..
..method..
	Coffee makeCoffee(target.Coffee, boolean) (386163331);
	boolean getOrder(target.Coffee) (1540374340);
__**<color:blue>calling list</color>**__
..class..
..member..
..method..
__**<color:orange>called by list</color>**__
..class..
	CoffeeShop (694316372);
..member..
..method..
	void main(java.lang.String[]) (1516500233);
}

@enduml

PlantUML version 1.2020.19(Tue Oct 13 00:10:01 KST 2020)
(APACHE source distribution)
Java Runtime: Java(TM) SE Runtime Environment
JVM: Java HotSpot(TM) 64-Bit Server VM
Default Encoding: MS949
Language: ko
Country: KR
--></g></svg>