<?xml version="1.0" encoding="UTF-8" standalone="no"?><svg xmlns="http://www.w3.org/2000/svg" xmlns:xlink="http://www.w3.org/1999/xlink" contentScriptType="application/ecmascript" contentStyleType="text/css" height="491px" preserveAspectRatio="none" style="width:265px;height:491px;" version="1.1" viewBox="0 0 265 491" width="265px" zoomAndPan="magnify"><defs><filter height="300%" id="f1xy1djsngmkbu" width="300%" x="-1" y="-1"><feGaussianBlur result="blurOut" stdDeviation="2.0"/><feColorMatrix in="blurOut" result="blurOut2" type="matrix" values="0 0 0 0 0 0 0 0 0 0 0 0 0 0 0 0 0 0 .4 0"/><feOffset dx="4.0" dy="4.0" in="blurOut2" result="blurOut3"/><feBlend in="SourceGraphic" in2="blurOut3" mode="normal"/></filter></defs><g><!--MD5=[f84b217020bdb875be7d37de79ed20c2]
cluster SwitchNode--><rect fill="#FFFFFF" filter="url(#f1xy1djsngmkbu)" height="292" style="stroke: #000000; stroke-width: 1.5;" width="164" x="89" y="7"/><text fill="#000000" font-family="sans-serif" font-size="14" font-weight="bold" lengthAdjust="spacingAndGlyphs" textLength="83" x="129.5" y="25.1533">SwitchNode</text><!--MD5=[d7cb485c184685c60a24d7d833bd66f5]
cluster print--><rect fill="#FFFFFF" filter="url(#f1xy1djsngmkbu)" height="156" style="stroke: #000000; stroke-width: 1.5;" width="107" x="117.5" y="323"/><text fill="#000000" font-family="sans-serif" font-size="14" font-weight="bold" lengthAdjust="spacingAndGlyphs" textLength="33" x="154.5" y="341.1533">print</text><ellipse cx="171.1482" cy="62.0973" fill="#FEFECE" filter="url(#f1xy1djsngmkbu)" rx="37.6482" ry="16.5973" style="stroke: #A80036; stroke-width: 1.5;"/><text fill="#000000" font-family="sans-serif" font-size="14" lengthAdjust="spacingAndGlyphs" textLength="49" x="146.6482" y="68.2121">toString</text><ellipse cx="170.9325" cy="130.0973" fill="#FEFECE" filter="url(#f1xy1djsngmkbu)" rx="65.9325" ry="16.5973" style="stroke: #A80036; stroke-width: 1.5;"/><text fill="#000000" font-family="sans-serif" font-size="14" lengthAdjust="spacingAndGlyphs" textLength="89" x="126.4325" y="136.2121">getExpression</text><ellipse cx="170.9836" cy="198.0869" fill="#FEFECE" filter="url(#f1xy1djsngmkbu)" rx="19.9836" ry="16.5869" style="stroke: #A80036; stroke-width: 1.5;"/><text fill="#000000" font-family="sans-serif" font-size="14" lengthAdjust="spacingAndGlyphs" textLength="24" x="158.9836" y="204.2016">add</text><ellipse cx="170.7904" cy="266.0973" fill="#FEFECE" filter="url(#f1xy1djsngmkbu)" rx="51.7904" ry="16.5973" style="stroke: #A80036; stroke-width: 1.5;"/><text fill="#000000" font-family="sans-serif" font-size="14" lengthAdjust="spacingAndGlyphs" textLength="69" x="136.2904" y="272.2121">statements</text><ellipse cx="171.0772" cy="378.0973" fill="#FEFECE" filter="url(#f1xy1djsngmkbu)" rx="30.5772" ry="16.5973" style="stroke: #A80036; stroke-width: 1.5;"/><text fill="#000000" font-family="sans-serif" font-size="14" lengthAdjust="spacingAndGlyphs" textLength="39" x="151.5772" y="384.2121">println</text><ellipse cx="171.1482" cy="446.0973" fill="#FEFECE" filter="url(#f1xy1djsngmkbu)" rx="37.6482" ry="16.5973" style="stroke: #A80036; stroke-width: 1.5;"/><text fill="#000000" font-family="sans-serif" font-size="14" lengthAdjust="spacingAndGlyphs" textLength="49" x="146.6482" y="452.2121">toString</text><!--MD5=[72a9bcd9c8f6b0523487f87d1c5e2444]
entity actor1511319053--><ellipse cx="25.5" cy="199.5" fill="#FEFECE" filter="url(#f1xy1djsngmkbu)" rx="8" ry="8" style="stroke: #A80036; stroke-width: 1.5;"/><path d="M25.5,207.5 L25.5,234.5 M12.5,215.5 L38.5,215.5 M25.5,234.5 L12.5,249.5 M25.5,234.5 L38.5,249.5 " fill="none" filter="url(#f1xy1djsngmkbu)" style="stroke: #A80036; stroke-width: 1.5;"/><text fill="#000000" font-family="sans-serif" font-size="14" lengthAdjust="spacingAndGlyphs" textLength="39" x="6" y="271.1533">println</text><!--MD5=[f71f8e9bafc8b24bbfb1b1897188c663]
link actor1511319053 to UC157--><path d="M31.04,190 C37.26,154.84 51.26,107.26 81,78 C97.51,61.76 122.58,53.11 141.91,51.56 " fill="none" id="actor1511319053-UC157" style="stroke: #A80036; stroke-width: 1.0;"/><!--MD5=[75ce4655f47e830405a97dccdf91586e]
link UC157 to actor1511319053--><path d="M152.7,76.58 C132.95,84.96 100.81,93.51 81,113 C59.6,134.05 46.35,164.59 38.29,189.73 " fill="none" id="UC157-actor1511319053" style="stroke: #A80036; stroke-width: 1.0;"/><!--MD5=[1675e0540d0d0a93fb68647db5092064]
link actor1511319053 to UC158--><path d="M42.7,189.65 C52.37,173.62 65.72,157.14 81,146 C88.35,140.64 96.65,136.01 105.15,132.23 " fill="none" id="actor1511319053-UC158" style="stroke: #A80036; stroke-width: 1.0;"/><!--MD5=[d38e01770bff8e241bdc594934e8fbf2]
link UC158 to actor1511319053--><path d="M152.96,146.02 C134.02,155.33 103.19,164.82 81,181 C66.94,191.25 54.52,206.01 45.09,217.63 " fill="none" id="UC158-actor1511319053" style="stroke: #A80036; stroke-width: 1.0;"/><!--MD5=[1789d9204389ded20212d12097a18c8e]
link actor1511319053 to UC159--><path d="M45.26,218.09 C72.91,206.13 124.29,193.98 151.69,192.96 " fill="none" id="actor1511319053-UC159" style="stroke: #A80036; stroke-width: 1.0;"/><!--MD5=[09c22915c983a0da2065ed0e511f45d1]
link UC159 to actor1511319053--><path d="M155.98,209.28 C130.01,221.48 74.43,234.97 45.26,236.49 " fill="none" id="UC159-actor1511319053" style="stroke: #A80036; stroke-width: 1.0;"/><!--MD5=[a0268f1a65bdc8fa5e026b3e56cc5993]
link actor1511319053 to UC160--><path d="M45.26,226.98 C71.85,228.08 120.38,239.4 148.42,250.91 " fill="none" id="actor1511319053-UC160" style="stroke: #A80036; stroke-width: 1.0;"/><!--MD5=[f82c3d527112148aba79e37716e3d211]
link UC160 to actor1511319053--><path d="M118.8,266.14 C93.24,261.3 63.87,253.23 45.26,245.38 " fill="none" id="UC160-actor1511319053" style="stroke: #A80036; stroke-width: 1.0;"/><!--MD5=[16e2160653c4956bec246b041659297d]
link actor1511319053 to UC161--><path d="M45.02,240.67 C55.16,251.69 68.24,267.68 81,281 C109.01,310.24 146.3,341.02 162.24,361.91 " fill="none" id="actor1511319053-UC161" style="stroke: #A80036; stroke-width: 1.0;"/><!--MD5=[99eba4c38b36d6578c0b6977462b5c2c]
link UC161 to actor1511319053--><path d="M143.27,370.58 C125.04,357.94 100.72,336.59 81,316 C68.24,302.68 55.16,286.69 45.02,271.79 " fill="none" id="UC161-actor1511319053" style="stroke: #A80036; stroke-width: 1.0;"/><!--MD5=[8c2673b7e878adedcb4dc5e1067b8133]
link actor1511319053 to UC162--><path d="M30.8,274.11 C36.56,310.22 49.95,360.67 81,394 C100.17,414.58 133.12,422.82 153.11,431.3 " fill="none" id="actor1511319053-UC162" style="stroke: #A80036; stroke-width: 1.0;"/><!--MD5=[74c6dcffc93bc4998f15ac324fe6599d]
link UC162 to actor1511319053--><path d="M141.04,456.01 C121.56,454.4 96.67,445.82 81,429 C42.17,387.31 30.95,318.82 27.75,274.05 " fill="none" id="UC162-actor1511319053" style="stroke: #A80036; stroke-width: 1.0;"/><!--MD5=[de135974abae2ea19e1afc70495965e2]
@startuml
 left to right direction

actor SwitchNode as actor1511319053

	rectangle SwitchNode{
	 usecase toString as UC157
	actor1511319053- -UC157
	 usecase getExpression as UC158
	actor1511319053- -UC158
	 usecase add as UC159
	actor1511319053- -UC159
	 usecase statements as UC160
	actor1511319053- -UC160
	}
actor statements as actor1511319053
UC160- -actor1511319053
actor add as actor1511319053
UC159- -actor1511319053
actor getExpression as actor1511319053
UC158- -actor1511319053
actor toString as actor1511319053
UC157- -actor1511319053

	rectangle print{
	 usecase println as UC161
	actor1511319053- -UC161
	 usecase toString as UC162
	actor1511319053- -UC162
	}
actor toString as actor1511319053
UC162- -actor1511319053
actor println as actor1511319053
UC161- -actor1511319053


@enduml

PlantUML version 1.2020.19(Tue Oct 13 00:10:01 KST 2020)
(APACHE source distribution)
Java Runtime: Java(TM) SE Runtime Environment
JVM: Java HotSpot(TM) 64-Bit Server VM
Default Encoding: MS949
Language: ko
Country: KR
--></g></svg>