<?xml version="1.0" encoding="UTF-8" standalone="no"?><svg xmlns="http://www.w3.org/2000/svg" xmlns:xlink="http://www.w3.org/1999/xlink" contentScriptType="application/ecmascript" contentStyleType="text/css" height="873px" preserveAspectRatio="none" style="width:358px;height:873px;" version="1.1" viewBox="0 0 358 873" width="358px" zoomAndPan="magnify"><defs><filter height="300%" id="f1j11cogblenl5" width="300%" x="-1" y="-1"><feGaussianBlur result="blurOut" stdDeviation="2.0"/><feColorMatrix in="blurOut" result="blurOut2" type="matrix" values="0 0 0 0 0 0 0 0 0 0 0 0 0 0 0 0 0 0 .4 0"/><feOffset dx="4.0" dy="4.0" in="blurOut2" result="blurOut3"/><feBlend in="SourceGraphic" in2="blurOut3" mode="normal"/></filter></defs><g><!--MD5=[3df72e327fda6a9c75e1d3c13478bbff]
cluster addHas--><rect fill="#FFFFFF" filter="url(#f1j11cogblenl5)" height="88" style="stroke: #000000; stroke-width: 1.5;" width="114" x="196.5" y="7"/><text fill="#000000" font-family="sans-serif" font-size="14" font-weight="bold" lengthAdjust="spacingAndGlyphs" textLength="52" x="227.5" y="25.1533">addHas</text><!--MD5=[89e6df34a40fd0f881e4a85c208f9fb2]
cluster addCallBy--><rect fill="#FFFFFF" filter="url(#f1j11cogblenl5)" height="156" style="stroke: #000000; stroke-width: 1.5;" width="129" x="189" y="119"/><text fill="#000000" font-family="sans-serif" font-size="14" font-weight="bold" lengthAdjust="spacingAndGlyphs" textLength="69" x="219" y="137.1533">addCallBy</text><!--MD5=[e72b28ea75be9a6e9901756f23061282]
cluster addCall--><rect fill="#FFFFFF" filter="url(#f1j11cogblenl5)" height="224" style="stroke: #000000; stroke-width: 1.5;" width="129" x="189" y="299"/><text fill="#000000" font-family="sans-serif" font-size="14" font-weight="bold" lengthAdjust="spacingAndGlyphs" textLength="52" x="227.5" y="317.1533">addCall</text><!--MD5=[2ed68a8df47df60ed763f499b5bc43b2]
cluster addImage--><rect fill="#FFFFFF" filter="url(#f1j11cogblenl5)" height="88" style="stroke: #000000; stroke-width: 1.5;" width="84" x="211.5" y="547"/><text fill="#000000" font-family="sans-serif" font-size="14" font-weight="bold" lengthAdjust="spacingAndGlyphs" textLength="68" x="219.5" y="565.1533">addImage</text><!--MD5=[a1eef7bbc55d6e115a3736b1cb383f24]
cluster getSrcName--><rect fill="#FFFFFF" filter="url(#f1j11cogblenl5)" height="88" style="stroke: #000000; stroke-width: 1.5;" width="147" x="180" y="659"/><text fill="#000000" font-family="sans-serif" font-size="14" font-weight="bold" lengthAdjust="spacingAndGlyphs" textLength="85" x="211" y="677.1533">getSrcName</text><!--MD5=[c34a5b0034f574704b03ebcea5fc6794]
cluster getPackageName--><rect fill="#FFFFFF" filter="url(#f1j11cogblenl5)" height="90" style="stroke: #000000; stroke-width: 1.5;" width="185" x="161" y="771"/><text fill="#000000" font-family="sans-serif" font-size="14" font-weight="bold" lengthAdjust="spacingAndGlyphs" textLength="121" x="193" y="789.1533">getPackageName</text><ellipse cx="253.6838" cy="62.0973" fill="#FEFECE" filter="url(#f1j11cogblenl5)" rx="41.1838" ry="16.5973" style="stroke: #A80036; stroke-width: 1.5;"/><text fill="#000000" font-family="sans-serif" font-size="14" lengthAdjust="spacingAndGlyphs" textLength="54" x="226.6838" y="68.2121">addData</text><ellipse cx="253.6838" cy="174.0973" fill="#FEFECE" filter="url(#f1j11cogblenl5)" rx="41.1838" ry="16.5973" style="stroke: #A80036; stroke-width: 1.5;"/><text fill="#000000" font-family="sans-serif" font-size="14" lengthAdjust="spacingAndGlyphs" textLength="54" x="226.6838" y="180.2121">addData</text><ellipse cx="253.2548" cy="242.0973" fill="#FEFECE" filter="url(#f1j11cogblenl5)" rx="48.2548" ry="16.5973" style="stroke: #A80036; stroke-width: 1.5;"/><text fill="#000000" font-family="sans-serif" font-size="14" lengthAdjust="spacingAndGlyphs" textLength="64" x="221.2548" y="248.2121">addCallBy</text><ellipse cx="253.6838" cy="354.0973" fill="#FEFECE" filter="url(#f1j11cogblenl5)" rx="41.1838" ry="16.5973" style="stroke: #A80036; stroke-width: 1.5;"/><text fill="#000000" font-family="sans-serif" font-size="14" lengthAdjust="spacingAndGlyphs" textLength="54" x="226.6838" y="360.2121">addData</text><ellipse cx="253.4411" cy="422.0973" fill="#FEFECE" filter="url(#f1j11cogblenl5)" rx="36.9411" ry="16.5973" style="stroke: #A80036; stroke-width: 1.5;"/><text fill="#000000" font-family="sans-serif" font-size="14" lengthAdjust="spacingAndGlyphs" textLength="48" x="229.4411" y="428.2121">addCall</text><ellipse cx="253.2548" cy="490.0973" fill="#FEFECE" filter="url(#f1j11cogblenl5)" rx="48.2548" ry="16.5973" style="stroke: #A80036; stroke-width: 1.5;"/><text fill="#000000" font-family="sans-serif" font-size="14" lengthAdjust="spacingAndGlyphs" textLength="64" x="221.2548" y="496.2121">addCallBy</text><ellipse cx="253.4836" cy="602.0869" fill="#FEFECE" filter="url(#f1j11cogblenl5)" rx="19.9836" ry="16.5869" style="stroke: #A80036; stroke-width: 1.5;"/><text fill="#000000" font-family="sans-serif" font-size="14" lengthAdjust="spacingAndGlyphs" textLength="24" x="241.4836" y="608.2016">add</text><ellipse cx="253.4472" cy="714.0973" fill="#FEFECE" filter="url(#f1j11cogblenl5)" rx="57.4472" ry="16.5973" style="stroke: #A80036; stroke-width: 1.5;"/><text fill="#000000" font-family="sans-serif" font-size="14" lengthAdjust="spacingAndGlyphs" textLength="77" x="214.9472" y="720.2121">getSrcName</text><ellipse cx="253.4257" cy="827.1851" fill="#FEFECE" filter="url(#f1j11cogblenl5)" rx="76.4257" ry="17.6851" style="stroke: #A80036; stroke-width: 1.5;"/><text fill="#000000" font-family="sans-serif" font-size="14" lengthAdjust="spacingAndGlyphs" textLength="111" x="197.9257" y="833.2999">getPackageName</text><!--MD5=[ff2cfac5f43e701ce7de056768dc8c39]
entity actor417118375--><ellipse cx="61.5" cy="355.5" fill="#FEFECE" filter="url(#f1j11cogblenl5)" rx="8" ry="8" style="stroke: #A80036; stroke-width: 1.5;"/><path d="M61.5,363.5 L61.5,390.5 M48.5,371.5 L74.5,371.5 M61.5,390.5 L48.5,405.5 M61.5,390.5 L74.5,405.5 " fill="none" filter="url(#f1j11cogblenl5)" style="stroke: #A80036; stroke-width: 1.5;"/><text fill="#000000" font-family="sans-serif" font-size="14" lengthAdjust="spacingAndGlyphs" textLength="111" x="6" y="427.1533">getPackageName</text><!--MD5=[f652d269cc35280b9bc53a6fed4af787]
link actor417118375 to UC163--><path d="M68.19,345.68 C78.44,289.45 103.67,191.31 153,123 C169.53,100.11 194.4,80.36 215.15,68.58 " fill="none" id="actor417118375-UC163" style="stroke: #A80036; stroke-width: 1.0;"/><!--MD5=[2c19596330dfe8d9a6e72eacb83d8f0c]
link UC163 to actor417118375--><path d="M241.28,78.03 C220.91,96.68 177.67,123.85 153,158 C110.75,216.5 86.18,296.87 73.56,345.84 " fill="none" id="UC163-actor417118375" style="stroke: #A80036; stroke-width: 1.0;"/><!--MD5=[aa163dc156d39e1cda28dfe363bbbd9c]
link actor417118375 to UC164--><path d="M69.9,345.95 C81.23,300.36 106.6,230.46 153,190 C172.54,172.96 201.01,164.37 222.5,163.16 " fill="none" id="actor417118375-UC164" style="stroke: #A80036; stroke-width: 1.0;"/><!--MD5=[6d416ef2afaafa12fa323e2517736c43]
link UC164 to actor417118375--><path d="M233.12,188.49 C211.32,196.6 175.98,204.96 153,225 C115.7,257.53 91.98,309.09 78.23,345.84 " fill="none" id="UC164-actor417118375" style="stroke: #A80036; stroke-width: 1.0;"/><!--MD5=[820811dd64cfc9c10d4d729df1cc4f31]
link actor417118375 to UC165--><path d="M102.79,345.77 C138.63,314.92 190.23,275.65 222.53,254.87 " fill="none" id="actor417118375-UC165" style="stroke: #A80036; stroke-width: 1.0;"/><!--MD5=[035699669bf4e2411a6c40a21bd37a4c]
link UC165 to actor417118375--><path d="M240.4,257.94 C216.08,282.41 159.96,327.22 117.2,357.64 " fill="none" id="UC165-actor417118375" style="stroke: #A80036; stroke-width: 1.0;"/><!--MD5=[ec221e04d9a11678e51ce1b28fe7e47b]
link actor417118375 to UC166--><path d="M117.2,365.85 C148.12,358.46 186.02,352.09 213.84,349.8 " fill="none" id="actor417118375-UC166" style="stroke: #A80036; stroke-width: 1.0;"/><!--MD5=[69c41bff1f6afa527fc5c2f0123d4077]
link UC166 to actor417118375--><path d="M228.34,367.16 C200.52,376.12 153.93,385.4 117.2,389.88 " fill="none" id="UC166-actor417118375" style="stroke: #A80036; stroke-width: 1.0;"/><!--MD5=[2bb0d21fadcc7a4979f7c3f79ddbe29c]
link actor417118375 to UC167--><path d="M117.2,385.43 C154.91,389.91 203.03,399.63 230.54,409.06 " fill="none" id="actor417118375-UC167" style="stroke: #A80036; stroke-width: 1.0;"/><!--MD5=[bdee3447dd23ae76ee666847afd9e65f]
link UC167 to actor417118375--><path d="M217.33,425.87 C189.26,423.69 149.43,417.06 117.2,409.46 " fill="none" id="UC167-actor417118375" style="stroke: #A80036; stroke-width: 1.0;"/><!--MD5=[e6c515f3255f8bd9b5e9fa8315d737a7]
link actor417118375 to UC168--><path d="M117.15,415.7 C128.57,423.56 140.84,431.56 153,438 C181.4,453.03 217.78,463.46 237.74,474.37 " fill="none" id="actor417118375-UC168" style="stroke: #A80036; stroke-width: 1.0;"/><!--MD5=[ee42db5ae04fe7db8f9ce748549d0636]
link UC168 to actor417118375--><path d="M205.92,493.34 C188.78,488.95 169.54,481.75 153,473 C131.81,461.78 110.26,445.81 93.51,430.33 " fill="none" id="UC168-actor417118375" style="stroke: #A80036; stroke-width: 1.0;"/><!--MD5=[16fc624e5893929bd1ee28298e9ec5f5]
link actor417118375 to UC169--><path d="M96.27,430.18 C111.93,453.54 131.76,481.98 153,505 C182.76,537.26 226.38,567.1 244.32,587.25 " fill="none" id="actor417118375-UC169" style="stroke: #A80036; stroke-width: 1.0;"/><!--MD5=[e4f35e6a06073c0c4fc080dcf7442d32]
link UC169 to actor417118375--><path d="M233.46,601.92 C212.29,592.14 177.83,566.91 153,540 C122.58,507.03 95.03,462.93 78.53,430.18 " fill="none" id="UC169-actor417118375" style="stroke: #A80036; stroke-width: 1.0;"/><!--MD5=[cc8c8596d97dd095352577964c004e01]
link actor417118375 to UC170--><path d="M73.8,430.32 C86.49,479.14 111.02,558.87 153,617 C177.79,651.33 221.37,678.6 241.6,697.69 " fill="none" id="actor417118375-UC170" style="stroke: #A80036; stroke-width: 1.0;"/><!--MD5=[4745cf79283d7c59d46c221c5d933e72]
link UC170 to actor417118375--><path d="M209.72,703.3 C190.19,691.22 168.11,672.92 153,652 C103.8,583.88 78.57,486.08 68.27,430.15 " fill="none" id="UC170-actor417118375" style="stroke: #A80036; stroke-width: 1.0;"/><!--MD5=[f842b778bc99e178de275febbf9c85b4]
link actor417118375 to UC171--><path d="M65.49,430.05 C71.83,498.28 91.58,633.23 153,729 C175.5,764.08 218.61,790.78 239.93,809.62 " fill="none" id="actor417118375-UC171" style="stroke: #A80036; stroke-width: 1.0;"/><!--MD5=[ce14d578ba1dbef3fff42dd9e065df21]
link UC171 to actor417118375--><path d="M204.14,813.63 C185.65,801.54 165.92,784.15 153,764 C85.07,658.09 68.11,504.25 63.89,430.1 " fill="none" id="UC171-actor417118375" style="stroke: #A80036; stroke-width: 1.0;"/><!--MD5=[2970292e6504ed72d72395a64406600b]
@startuml
 left to right direction

actor Member as actor417118375

	rectangle addHas{
	 usecase addData as UC163
	actor417118375- -UC163
	}
actor addData as actor417118375
UC163- -actor417118375

	rectangle addCallBy{
	 usecase addData as UC164
	actor417118375- -UC164
	 usecase addCallBy as UC165
	actor417118375- -UC165
	}
actor addCallBy as actor417118375
UC165- -actor417118375
actor addData as actor417118375
UC164- -actor417118375

	rectangle addCall{
	 usecase addData as UC166
	actor417118375- -UC166
	 usecase addCall as UC167
	actor417118375- -UC167
	 usecase addCallBy as UC168
	actor417118375- -UC168
	}
actor addCallBy as actor417118375
UC168- -actor417118375
actor addCall as actor417118375
UC167- -actor417118375
actor addData as actor417118375
UC166- -actor417118375

	rectangle addImage{
	 usecase add as UC169
	actor417118375- -UC169
	}
actor add as actor417118375
UC169- -actor417118375

	rectangle getSrcName{
	 usecase getSrcName as UC170
	actor417118375- -UC170
	}
actor getSrcName as actor417118375
UC170- -actor417118375

	rectangle getPackageName{
	 usecase getPackageName as UC171
	actor417118375- -UC171
	}
actor getPackageName as actor417118375
UC171- -actor417118375


@enduml

PlantUML version 1.2020.19(Tue Oct 13 00:10:01 KST 2020)
(APACHE source distribution)
Java Runtime: Java(TM) SE Runtime Environment
JVM: Java HotSpot(TM) 64-Bit Server VM
Default Encoding: MS949
Language: ko
Country: KR
--></g></svg>