<?xml version="1.0" encoding="UTF-8" standalone="no"?><svg xmlns="http://www.w3.org/2000/svg" xmlns:xlink="http://www.w3.org/1999/xlink" contentScriptType="application/ecmascript" contentStyleType="text/css" height="873px" preserveAspectRatio="none" style="width:301px;height:873px;" version="1.1" viewBox="0 0 301 873" width="301px" zoomAndPan="magnify"><defs><filter height="300%" id="fwe3irx5dlxgl" width="300%" x="-1" y="-1"><feGaussianBlur result="blurOut" stdDeviation="2.0"/><feColorMatrix in="blurOut" result="blurOut2" type="matrix" values="0 0 0 0 0 0 0 0 0 0 0 0 0 0 0 0 0 0 .4 0"/><feOffset dx="4.0" dy="4.0" in="blurOut2" result="blurOut3"/><feBlend in="SourceGraphic" in2="blurOut3" mode="normal"/></filter></defs><g><!--MD5=[3fd23fd997070011d1cb4974b5e1f645]
cluster Function--><rect fill="#FFFFFF" filter="url(#fwe3irx5dlxgl)" height="88" style="stroke: #000000; stroke-width: 1.5;" width="106" x="143.5" y="7"/><text fill="#000000" font-family="sans-serif" font-size="14" font-weight="bold" lengthAdjust="spacingAndGlyphs" textLength="62" x="165.5" y="25.1533">Function</text><!--MD5=[a1eef7bbc55d6e115a3736b1cb383f24]
cluster getSrcName--><rect fill="#FFFFFF" filter="url(#fwe3irx5dlxgl)" height="88" style="stroke: #000000; stroke-width: 1.5;" width="147" x="123" y="119"/><text fill="#000000" font-family="sans-serif" font-size="14" font-weight="bold" lengthAdjust="spacingAndGlyphs" textLength="85" x="154" y="137.1533">getSrcName</text><!--MD5=[c34a5b0034f574704b03ebcea5fc6794]
cluster getPackageName--><rect fill="#FFFFFF" filter="url(#fwe3irx5dlxgl)" height="90" style="stroke: #000000; stroke-width: 1.5;" width="185" x="104" y="231"/><text fill="#000000" font-family="sans-serif" font-size="14" font-weight="bold" lengthAdjust="spacingAndGlyphs" textLength="121" x="136" y="249.1533">getPackageName</text><!--MD5=[3df72e327fda6a9c75e1d3c13478bbff]
cluster addHas--><rect fill="#FFFFFF" filter="url(#fwe3irx5dlxgl)" height="88" style="stroke: #000000; stroke-width: 1.5;" width="114" x="139.5" y="345"/><text fill="#000000" font-family="sans-serif" font-size="14" font-weight="bold" lengthAdjust="spacingAndGlyphs" textLength="52" x="170.5" y="363.1533">addHas</text><!--MD5=[89e6df34a40fd0f881e4a85c208f9fb2]
cluster addCallBy--><rect fill="#FFFFFF" filter="url(#fwe3irx5dlxgl)" height="156" style="stroke: #000000; stroke-width: 1.5;" width="129" x="132" y="457"/><text fill="#000000" font-family="sans-serif" font-size="14" font-weight="bold" lengthAdjust="spacingAndGlyphs" textLength="69" x="162" y="475.1533">addCallBy</text><!--MD5=[e72b28ea75be9a6e9901756f23061282]
cluster addCall--><rect fill="#FFFFFF" filter="url(#fwe3irx5dlxgl)" height="224" style="stroke: #000000; stroke-width: 1.5;" width="129" x="132" y="637"/><text fill="#000000" font-family="sans-serif" font-size="14" font-weight="bold" lengthAdjust="spacingAndGlyphs" textLength="52" x="170.5" y="655.1533">addCall</text><ellipse cx="196.4411" cy="62.0973" fill="#FEFECE" filter="url(#fwe3irx5dlxgl)" rx="36.9411" ry="16.5973" style="stroke: #A80036; stroke-width: 1.5;"/><text fill="#000000" font-family="sans-serif" font-size="14" lengthAdjust="spacingAndGlyphs" textLength="48" x="172.4411" y="68.2121">addHas</text><ellipse cx="196.4472" cy="174.0973" fill="#FEFECE" filter="url(#fwe3irx5dlxgl)" rx="57.4472" ry="16.5973" style="stroke: #A80036; stroke-width: 1.5;"/><text fill="#000000" font-family="sans-serif" font-size="14" lengthAdjust="spacingAndGlyphs" textLength="77" x="157.9472" y="180.2121">getSrcName</text><ellipse cx="196.4257" cy="287.1851" fill="#FEFECE" filter="url(#fwe3irx5dlxgl)" rx="76.4257" ry="17.6851" style="stroke: #A80036; stroke-width: 1.5;"/><text fill="#000000" font-family="sans-serif" font-size="14" lengthAdjust="spacingAndGlyphs" textLength="111" x="140.9257" y="293.2999">getPackageName</text><ellipse cx="196.6838" cy="400.0973" fill="#FEFECE" filter="url(#fwe3irx5dlxgl)" rx="41.1838" ry="16.5973" style="stroke: #A80036; stroke-width: 1.5;"/><text fill="#000000" font-family="sans-serif" font-size="14" lengthAdjust="spacingAndGlyphs" textLength="54" x="169.6838" y="406.2121">addData</text><ellipse cx="196.6838" cy="512.0973" fill="#FEFECE" filter="url(#fwe3irx5dlxgl)" rx="41.1838" ry="16.5973" style="stroke: #A80036; stroke-width: 1.5;"/><text fill="#000000" font-family="sans-serif" font-size="14" lengthAdjust="spacingAndGlyphs" textLength="54" x="169.6838" y="518.2121">addData</text><ellipse cx="196.2548" cy="580.0973" fill="#FEFECE" filter="url(#fwe3irx5dlxgl)" rx="48.2548" ry="16.5973" style="stroke: #A80036; stroke-width: 1.5;"/><text fill="#000000" font-family="sans-serif" font-size="14" lengthAdjust="spacingAndGlyphs" textLength="64" x="164.2548" y="586.2121">addCallBy</text><ellipse cx="196.6838" cy="692.0973" fill="#FEFECE" filter="url(#fwe3irx5dlxgl)" rx="41.1838" ry="16.5973" style="stroke: #A80036; stroke-width: 1.5;"/><text fill="#000000" font-family="sans-serif" font-size="14" lengthAdjust="spacingAndGlyphs" textLength="54" x="169.6838" y="698.2121">addData</text><ellipse cx="196.4411" cy="760.0973" fill="#FEFECE" filter="url(#fwe3irx5dlxgl)" rx="36.9411" ry="16.5973" style="stroke: #A80036; stroke-width: 1.5;"/><text fill="#000000" font-family="sans-serif" font-size="14" lengthAdjust="spacingAndGlyphs" textLength="48" x="172.4411" y="766.2121">addCall</text><ellipse cx="196.2548" cy="828.0973" fill="#FEFECE" filter="url(#fwe3irx5dlxgl)" rx="48.2548" ry="16.5973" style="stroke: #A80036; stroke-width: 1.5;"/><text fill="#000000" font-family="sans-serif" font-size="14" lengthAdjust="spacingAndGlyphs" textLength="64" x="164.2548" y="834.2121">addCallBy</text><!--MD5=[c3a79de3dfdf70b4ead88bc26ff6f883]
entity actor927744186--><ellipse cx="33" cy="547.5" fill="#FEFECE" filter="url(#fwe3irx5dlxgl)" rx="8" ry="8" style="stroke: #A80036; stroke-width: 1.5;"/><path d="M33,555.5 L33,582.5 M20,563.5 L46,563.5 M33,582.5 L20,597.5 M33,582.5 L46,597.5 " fill="none" filter="url(#fwe3irx5dlxgl)" style="stroke: #A80036; stroke-width: 1.5;"/><text fill="#000000" font-family="sans-serif" font-size="14" lengthAdjust="spacingAndGlyphs" textLength="54" x="6" y="619.1533">addData</text><!--MD5=[a50d09c41f895af50ae9f41ddd5e5e93]
link actor927744186 to UC130--><path d="M35.56,537.75 C40.23,437.68 56.32,192.3 96,123 C110.91,96.97 138.06,76.3 160.23,65.34 " fill="none" id="actor927744186-UC130" style="stroke: #A80036; stroke-width: 1.0;"/><!--MD5=[bd83a0b89f864a1db9508e42a691b23c]
link UC130 to actor927744186--><path d="M183.56,77.56 C162.02,95.46 116.93,121.44 96,158 C58.71,223.13 42.26,443.75 36.53,537.68 " fill="none" id="UC130-actor927744186" style="stroke: #A80036; stroke-width: 1.0;"/><!--MD5=[d6169b65532842b2003ec28cd1a315bd]
link actor927744186 to UC131--><path d="M37.28,537.89 C45.03,456.65 66.08,284.52 96,235 C109,213.48 130.16,195.46 149.62,183.68 " fill="none" id="actor927744186-UC131" style="stroke: #A80036; stroke-width: 1.0;"/><!--MD5=[3fc99d8fa503b2afeb98cf92976f5baf]
link UC131 to actor927744186--><path d="M183.05,190.23 C161.52,208.26 117.56,234.32 96,270 C68.58,315.37 48.61,463.71 39.5,537.83 " fill="none" id="UC131-actor927744186" style="stroke: #A80036; stroke-width: 1.0;"/><!--MD5=[0a8ad01dcdc5c5d22afe0d4eeecb7839]
link actor927744186 to UC132--><path d="M37.02,537.92 C42.58,488.09 57.63,406.51 96,349 C109.04,329.46 128.34,312.38 146.48,300.36 " fill="none" id="actor927744186-UC132" style="stroke: #A80036; stroke-width: 1.0;"/><!--MD5=[c55dc6c215b51762bca0053c90ecdb93]
link UC132 to actor927744186--><path d="M182.38,304.46 C161.04,323.01 118.88,349.71 96,384 C64.25,431.57 48.48,495.63 40.82,537.71 " fill="none" id="UC132-actor927744186" style="stroke: #A80036; stroke-width: 1.0;"/><!--MD5=[9daba6fd4bb6080f38088261caef94a1]
link actor927744186 to UC133--><path d="M47.47,537.87 C58.71,513.17 76.08,483.48 96,461 C114.73,439.87 139.6,420.12 159.79,407.9 " fill="none" id="actor927744186-UC133" style="stroke: #A80036; stroke-width: 1.0;"/><!--MD5=[cc22c51a6a5b8d14b4f28aa3a2714fba]
link UC133 to actor927744186--><path d="M185.52,415.93 C166.45,435.42 124.23,464.14 96,496 C82.49,511.24 70.16,529.8 60.11,545.85 " fill="none" id="UC133-actor927744186" style="stroke: #A80036; stroke-width: 1.0;"/><!--MD5=[ab3598893009ccc1ec3a4fc65530dbbb]
link actor927744186 to UC134--><path d="M60.04,547.76 C70.94,540.24 83.87,533.35 96,528 C115.71,519.31 138.39,511.4 157.11,507.17 " fill="none" id="actor927744186-UC134" style="stroke: #A80036; stroke-width: 1.0;"/><!--MD5=[79f94e2d91f8bee1330457cbb8bab7a5]
link UC134 to actor927744186--><path d="M181.37,527.37 C161.81,538.7 125.56,549.96 96,563 C83.87,568.35 70.94,575.24 60.04,580.14 " fill="none" id="UC134-actor927744186" style="stroke: #A80036; stroke-width: 1.0;"/><!--MD5=[f24bc4472a5c63210b87538f2154aa3d]
link actor927744186 to UC135--><path d="M60.31,569.72 C87.75,565.8 130.89,565.46 161.03,568.7 " fill="none" id="actor927744186-UC135" style="stroke: #A80036; stroke-width: 1.0;"/><!--MD5=[443680dced133167b192ba6fb66451f9]
link UC135 to actor927744186--><path d="M159.55,590.81 C129.49,593.72 87.3,593.35 60.31,589.71 " fill="none" id="UC135-actor927744186" style="stroke: #A80036; stroke-width: 1.0;"/><!--MD5=[3a987d00421817e7ae485ad62611b2db]
link actor927744186 to UC136--><path d="M60.31,587.96 C95.7,607.45 157.22,651.02 183.28,675.95 " fill="none" id="actor927744186-UC136" style="stroke: #A80036; stroke-width: 1.0;"/><!--MD5=[1878c62faf8517e3b93cd47069ba47fd]
link UC136 to actor927744186--><path d="M165.07,681.13 C134.85,663.7 89,631.72 60.31,607.95 " fill="none" id="UC136-actor927744186" style="stroke: #A80036; stroke-width: 1.0;"/><!--MD5=[5e2d0be796080f9606ff74ef24b4abfa]
link actor927744186 to UC137--><path d="M46.62,622.25 C55.79,650.04 71.1,684.84 96,708 C118.86,729.26 155.57,737.29 177.44,745.64 " fill="none" id="actor927744186-UC137" style="stroke: #A80036; stroke-width: 1.0;"/><!--MD5=[4d7f8dfff1acff605cde577411678c4a]
link UC137 to actor927744186--><path d="M167.88,770.49 C145.95,769.89 115.78,761.4 96,743 C62.53,711.87 46.4,659.72 39.19,622.27 " fill="none" id="UC137-actor927744186" style="stroke: #A80036; stroke-width: 1.0;"/><!--MD5=[4a04de84a556a8135386552b9f2103e9]
link actor927744186 to UC138--><path d="M36.34,622.4 C41.27,666.43 55.55,733.6 96,776 C116.79,797.8 152.11,805.62 174.6,813.25 " fill="none" id="actor927744186-UC138" style="stroke: #A80036; stroke-width: 1.0;"/><!--MD5=[40357f791ea7f592581d68871d4719c1]
link UC138 to actor927744186--><path d="M159.3,838.7 C138.17,836.8 112.51,828.3 96,811 C47.68,760.34 36.69,674.34 34.4,622.29 " fill="none" id="UC138-actor927744186" style="stroke: #A80036; stroke-width: 1.0;"/><!--MD5=[f3e76f233062fb28cc0b9f9ddf7231f2]
@startuml
 left to right direction

actor Function as actor927744186

	rectangle Function{
	 usecase addHas as UC130
	actor927744186- -UC130
	}
actor addHas as actor927744186
UC130- -actor927744186

	rectangle getSrcName{
	 usecase getSrcName as UC131
	actor927744186- -UC131
	}
actor getSrcName as actor927744186
UC131- -actor927744186

	rectangle getPackageName{
	 usecase getPackageName as UC132
	actor927744186- -UC132
	}
actor getPackageName as actor927744186
UC132- -actor927744186

	rectangle addHas{
	 usecase addData as UC133
	actor927744186- -UC133
	}
actor addData as actor927744186
UC133- -actor927744186

	rectangle addCallBy{
	 usecase addData as UC134
	actor927744186- -UC134
	 usecase addCallBy as UC135
	actor927744186- -UC135
	}
actor addCallBy as actor927744186
UC135- -actor927744186
actor addData as actor927744186
UC134- -actor927744186

	rectangle addCall{
	 usecase addData as UC136
	actor927744186- -UC136
	 usecase addCall as UC137
	actor927744186- -UC137
	 usecase addCallBy as UC138
	actor927744186- -UC138
	}
actor addCallBy as actor927744186
UC138- -actor927744186
actor addCall as actor927744186
UC137- -actor927744186
actor addData as actor927744186
UC136- -actor927744186


@enduml

PlantUML version 1.2020.19(Tue Oct 13 00:10:01 KST 2020)
(APACHE source distribution)
Java Runtime: Java(TM) SE Runtime Environment
JVM: Java HotSpot(TM) 64-Bit Server VM
Default Encoding: MS949
Language: ko
Country: KR
--></g></svg>