<?xml version="1.0" encoding="UTF-8" standalone="no"?><svg xmlns="http://www.w3.org/2000/svg" xmlns:xlink="http://www.w3.org/1999/xlink" contentScriptType="application/ecmascript" contentStyleType="text/css" height="1303px" preserveAspectRatio="none" style="width:266px;height:1303px;" version="1.1" viewBox="0 0 266 1303" width="266px" zoomAndPan="magnify"><defs><filter height="300%" id="f10j92t8ay7tug" width="300%" x="-1" y="-1"><feGaussianBlur result="blurOut" stdDeviation="2.0"/><feColorMatrix in="blurOut" result="blurOut2" type="matrix" values="0 0 0 0 0 0 0 0 0 0 0 0 0 0 0 0 0 0 .4 0"/><feOffset dx="4.0" dy="4.0" in="blurOut2" result="blurOut3"/><feBlend in="SourceGraphic" in2="blurOut3" mode="normal"/></filter></defs><g><!--MD5=[a70b0d373322012744ecc119c63f921b]
cluster main--><rect fill="#FFFFFF" filter="url(#f10j92t8ay7tug)" height="224" style="stroke: #000000; stroke-width: 1.5;" width="147" x="93" y="7"/><text fill="#000000" font-family="sans-serif" font-size="14" font-weight="bold" lengthAdjust="spacingAndGlyphs" textLength="33" x="150" y="25.1533">main</text><!--MD5=[34cb1141ed5c8afa1d4c2c83d67642d3]
cluster makeString--><rect fill="#FFFFFF" filter="url(#f10j92t8ay7tug)" height="156" style="stroke: #000000; stroke-width: 1.5;" width="107" x="113" y="255"/><text fill="#000000" font-family="sans-serif" font-size="14" font-weight="bold" lengthAdjust="spacingAndGlyphs" textLength="79" x="127" y="273.1533">makeString</text><!--MD5=[169ded1774b4ebedaf5b3d453063cde8]
cluster getCallerFunList--><rect fill="#FFFFFF" filter="url(#f10j92t8ay7tug)" height="360" style="stroke: #000000; stroke-width: 1.5;" width="175" x="79" y="435"/><text fill="#000000" font-family="sans-serif" font-size="14" font-weight="bold" lengthAdjust="spacingAndGlyphs" textLength="116" x="108.5" y="453.1533">getCallerFunList</text><!--MD5=[c6bdd26f9d0c779513684dd3959e914f]
cluster drawConnect--><rect fill="#FFFFFF" filter="url(#f10j92t8ay7tug)" height="292" style="stroke: #000000; stroke-width: 1.5;" width="175" x="79" y="819"/><text fill="#000000" font-family="sans-serif" font-size="14" font-weight="bold" lengthAdjust="spacingAndGlyphs" textLength="93" x="120" y="837.1533">drawConnect</text><!--MD5=[1e829f21a74d4de467c1b519aceec237]
cluster makeFile--><rect fill="#FFFFFF" filter="url(#f10j92t8ay7tug)" height="156" style="stroke: #000000; stroke-width: 1.5;" width="85" x="124" y="1135"/><text fill="#000000" font-family="sans-serif" font-size="14" font-weight="bold" lengthAdjust="spacingAndGlyphs" textLength="63" x="135" y="1153.1533">makeFile</text><ellipse cx="166.5269" cy="62.0973" fill="#FEFECE" filter="url(#f10j92t8ay7tug)" rx="35.5269" ry="16.5973" style="stroke: #A80036; stroke-width: 1.5;"/><text fill="#000000" font-family="sans-serif" font-size="14" lengthAdjust="spacingAndGlyphs" textLength="46" x="143.5269" y="68.2121">waitFor</text><ellipse cx="166.5772" cy="130.0973" fill="#FEFECE" filter="url(#f10j92t8ay7tug)" rx="30.5772" ry="16.5973" style="stroke: #A80036; stroke-width: 1.5;"/><text fill="#000000" font-family="sans-serif" font-size="14" lengthAdjust="spacingAndGlyphs" textLength="39" x="147.0772" y="136.2121">println</text><ellipse cx="166.4472" cy="198.0973" fill="#FEFECE" filter="url(#f10j92t8ay7tug)" rx="57.4472" ry="16.5973" style="stroke: #A80036; stroke-width: 1.5;"/><text fill="#000000" font-family="sans-serif" font-size="14" lengthAdjust="spacingAndGlyphs" textLength="77" x="127.9472" y="204.2121">getClassList</text><ellipse cx="166.4411" cy="310.0973" fill="#FEFECE" filter="url(#f10j92t8ay7tug)" rx="36.9411" ry="16.5973" style="stroke: #A80036; stroke-width: 1.5;"/><text fill="#000000" font-family="sans-serif" font-size="14" lengthAdjust="spacingAndGlyphs" textLength="48" x="142.4411" y="316.2121">append</text><ellipse cx="166.6482" cy="378.0973" fill="#FEFECE" filter="url(#f10j92t8ay7tug)" rx="37.6482" ry="16.5973" style="stroke: #A80036; stroke-width: 1.5;"/><text fill="#000000" font-family="sans-serif" font-size="14" lengthAdjust="spacingAndGlyphs" textLength="49" x="142.1482" y="384.2121">toString</text><ellipse cx="166.4836" cy="490.0869" fill="#FEFECE" filter="url(#f10j92t8ay7tug)" rx="19.9836" ry="16.5869" style="stroke: #A80036; stroke-width: 1.5;"/><text fill="#000000" font-family="sans-serif" font-size="14" lengthAdjust="spacingAndGlyphs" textLength="24" x="154.4836" y="496.2016">add</text><ellipse cx="166.4472" cy="558.0973" fill="#FEFECE" filter="url(#f10j92t8ay7tug)" rx="57.4472" ry="16.5973" style="stroke: #A80036; stroke-width: 1.5;"/><text fill="#000000" font-family="sans-serif" font-size="14" lengthAdjust="spacingAndGlyphs" textLength="77" x="127.9472" y="564.2121">getClassList</text><ellipse cx="166.669" cy="626.0973" fill="#FEFECE" filter="url(#f10j92t8ay7tug)" rx="49.669" ry="16.5973" style="stroke: #A80036; stroke-width: 1.5;"/><text fill="#000000" font-family="sans-serif" font-size="14" lengthAdjust="spacingAndGlyphs" textLength="66" x="133.669" y="632.2121">getCallList</text><ellipse cx="166.2886" cy="694.1577" fill="#FEFECE" filter="url(#f10j92t8ay7tug)" rx="71.2886" ry="16.6577" style="stroke: #A80036; stroke-width: 1.5;"/><text fill="#000000" font-family="sans-serif" font-size="14" lengthAdjust="spacingAndGlyphs" textLength="97" x="117.7886" y="700.2725">getFunctionList</text><ellipse cx="166.669" cy="762.0973" fill="#FEFECE" filter="url(#f10j92t8ay7tug)" rx="49.669" ry="16.5973" style="stroke: #A80036; stroke-width: 1.5;"/><text fill="#000000" font-family="sans-serif" font-size="14" lengthAdjust="spacingAndGlyphs" textLength="66" x="133.669" y="768.2121">getHasList</text><ellipse cx="166.4411" cy="874.0973" fill="#FEFECE" filter="url(#f10j92t8ay7tug)" rx="36.9411" ry="16.5973" style="stroke: #A80036; stroke-width: 1.5;"/><text fill="#000000" font-family="sans-serif" font-size="14" lengthAdjust="spacingAndGlyphs" textLength="48" x="142.4411" y="880.2121">append</text><ellipse cx="166.4836" cy="942.0869" fill="#FEFECE" filter="url(#f10j92t8ay7tug)" rx="19.9836" ry="16.5869" style="stroke: #A80036; stroke-width: 1.5;"/><text fill="#000000" font-family="sans-serif" font-size="14" lengthAdjust="spacingAndGlyphs" textLength="24" x="154.4836" y="948.2016">add</text><ellipse cx="166.2886" cy="1010.1577" fill="#FEFECE" filter="url(#f10j92t8ay7tug)" rx="71.2886" ry="16.6577" style="stroke: #A80036; stroke-width: 1.5;"/><text fill="#000000" font-family="sans-serif" font-size="14" lengthAdjust="spacingAndGlyphs" textLength="97" x="117.7886" y="1016.2725">getFunctionList</text><ellipse cx="166.669" cy="1078.0973" fill="#FEFECE" filter="url(#f10j92t8ay7tug)" rx="49.669" ry="16.5973" style="stroke: #A80036; stroke-width: 1.5;"/><text fill="#000000" font-family="sans-serif" font-size="14" lengthAdjust="spacingAndGlyphs" textLength="66" x="133.669" y="1084.2121">getCallList</text><ellipse cx="166.5061" cy="1190.0973" fill="#FEFECE" filter="url(#f10j92t8ay7tug)" rx="23.5061" ry="16.5973" style="stroke: #A80036; stroke-width: 1.5;"/><text fill="#000000" font-family="sans-serif" font-size="14" lengthAdjust="spacingAndGlyphs" textLength="29" x="152.0061" y="1196.2121">write</text><ellipse cx="166.3345" cy="1258.0973" fill="#FEFECE" filter="url(#f10j92t8ay7tug)" rx="26.3345" ry="16.5973" style="stroke: #A80036; stroke-width: 1.5;"/><text fill="#000000" font-family="sans-serif" font-size="14" lengthAdjust="spacingAndGlyphs" textLength="33" x="149.8345" y="1264.2121">close</text><!--MD5=[3b9a75c8d3572c5083ea72ba9e1d88da]
entity actor1861416877--><ellipse cx="20.5" cy="627.5" fill="#FEFECE" filter="url(#f10j92t8ay7tug)" rx="8" ry="8" style="stroke: #A80036; stroke-width: 1.5;"/><path d="M20.5,635.5 L20.5,662.5 M7.5,643.5 L33.5,643.5 M20.5,662.5 L7.5,677.5 M20.5,662.5 L33.5,677.5 " fill="none" filter="url(#f10j92t8ay7tug)" style="stroke: #A80036; stroke-width: 1.5;"/><text fill="#000000" font-family="sans-serif" font-size="14" lengthAdjust="spacingAndGlyphs" textLength="29" x="6" y="699.1533">write</text><!--MD5=[bfd2daa7229798c29330518111b3f793]
link actor1861416877 to UC246--><path d="M22.41,617.56 C25.73,490.08 38.72,119.9 71,78 C87.92,56.04 120.28,48.24 142.37,49.8 " fill="none" id="actor1861416877-UC246" style="stroke: #A80036; stroke-width: 1.0;"/><!--MD5=[ad59d48260f80a1d0a2278ea9d82586f]
link UC246 to actor1861416877--><path d="M145.62,75.39 C123.57,82.49 88.77,89.93 71,113 C39.99,153.24 26.78,496.35 22.85,617.92 " fill="none" id="UC246-actor1861416877" style="stroke: #A80036; stroke-width: 1.0;"/><!--MD5=[7faddd029fb615c1b88eea306208e635]
link actor1861416877 to UC247--><path d="M22.84,617.75 C27.25,500.83 42.69,182.29 71,146 C88.8,123.18 123.25,115.66 145.27,118.1 " fill="none" id="actor1861416877-UC247" style="stroke: #A80036; stroke-width: 1.0;"/><!--MD5=[c79047552ecae8bb6009e527d256f625]
link UC247 to actor1861416877--><path d="M147.23,142.91 C125.34,150.22 89.34,157.49 71,181 C44.02,215.59 28.73,506.51 23.53,617.59 " fill="none" id="UC247-actor1861416877" style="stroke: #A80036; stroke-width: 1.0;"/><!--MD5=[4016a12dc3ad4d78ee90652436fe8aa9]
link actor1861416877 to UC248--><path d="M22.72,617.88 C26.18,527.08 38.08,319.04 71,259 C82.62,237.81 102.39,219.94 120.86,208.13 " fill="none" id="actor1861416877-UC248" style="stroke: #A80036; stroke-width: 1.0;"/><!--MD5=[0d037e245333c19513bfc00251941cf5]
link UC248 to actor1861416877--><path d="M153.46,214.28 C132.68,232.39 90.43,258.56 71,294 C40.38,349.85 27.94,533.77 23.57,617.94 " fill="none" id="UC248-actor1861416877" style="stroke: #A80036; stroke-width: 1.0;"/><!--MD5=[ab32a8103226e4611a147d39b102b702]
link actor1861416877 to UC249--><path d="M22.49,617.98 C25.32,537.6 35.64,368.81 71,326 C88.21,305.16 119.22,297.09 141.02,297.97 " fill="none" id="actor1861416877-UC249" style="stroke: #A80036; stroke-width: 1.0;"/><!--MD5=[066b0e7ace1264bf2205cfce1bdeb1db]
link UC249 to actor1861416877--><path d="M145.51,323.74 C123.69,331.01 89.43,338.68 71,361 C38.64,400.17 27.25,544.82 23.39,617.91 " fill="none" id="UC249-actor1861416877" style="stroke: #A80036; stroke-width: 1.0;"/><!--MD5=[06f58b596ae09e0d1ee7dbccc3faf4ab]
link actor1861416877 to UC250--><path d="M23.01,617.86 C26.33,570.11 36.97,493.66 71,439 C85.8,415.22 110.2,395.09 130.5,383.51 " fill="none" id="actor1861416877-UC250" style="stroke: #A80036; stroke-width: 1.0;"/><!--MD5=[eb0347b41f86dece0f7cf903f6a11a25]
link UC250 to actor1861416877--><path d="M154.49,393.93 C134.57,412.42 92.59,439.33 71,474 C43.2,518.65 31.01,577.85 25.67,617.7 " fill="none" id="UC250-actor1861416877" style="stroke: #A80036; stroke-width: 1.0;"/><!--MD5=[3969620a667a6857ab39cb82f033a1a6]
link actor1861416877 to UC251--><path d="M24.77,617.93 C29.7,582.72 41.81,535.08 71,506 C93.11,483.97 130.5,476.13 151,479.55 " fill="none" id="actor1861416877-UC251" style="stroke: #A80036; stroke-width: 1.0;"/><!--MD5=[5689bea8388396782c8775fd288d30e5]
link UC251 to actor1861416877--><path d="M152.34,502.01 C132.18,510.78 93.6,518.48 71,541 C49.91,562.02 37.74,592.72 30.75,617.95 " fill="none" id="UC251-actor1861416877" style="stroke: #A80036; stroke-width: 1.0;"/><!--MD5=[1e99ad7ebe02a22bbc07dbcac6b4f7b6]
link actor1861416877 to UC252--><path d="M35.04,618.66 C43.67,602.21 56.05,585.21 71,574 C82.58,565.32 96.58,558.69 110.22,554.31 " fill="none" id="actor1861416877-UC252" style="stroke: #A80036; stroke-width: 1.0;"/><!--MD5=[57c482127be3e41354d842957772a042]
link UC252 to actor1861416877--><path d="M147.26,573.58 C127.02,582.49 94.16,591.63 71,609 C56.05,620.21 43.67,637.21 35.04,649.29 " fill="none" id="UC252-actor1861416877" style="stroke: #A80036; stroke-width: 1.0;"/><!--MD5=[85223c1d782803e5e2a8b6a452e79a2b]
link actor1861416877 to UC253--><path d="M35.05,648.51 C53.67,639.4 88.15,629.75 116.99,624.61 " fill="none" id="actor1861416877-UC253" style="stroke: #A80036; stroke-width: 1.0;"/><!--MD5=[a29a09926c24413cdc7c912dc3a8438e]
link UC253 to actor1861416877--><path d="M143.49,640.68 C113.3,652.66 59.97,664.7 35.05,664.63 " fill="none" id="UC253-actor1861416877" style="stroke: #A80036; stroke-width: 1.0;"/><!--MD5=[c3ef772de43e871c58346626a97f3828]
link actor1861416877 to UC254--><path d="M35.05,654.91 C59.69,654.5 112.11,666.23 142.46,678.35 " fill="none" id="actor1861416877-UC254" style="stroke: #A80036; stroke-width: 1.0;"/><!--MD5=[6bf07e62259729296305bf434e57eeaa]
link UC254 to actor1861416877--><path d="M96.52,690.45 C73.17,685.09 49.4,677.85 35.05,671.03 " fill="none" id="UC254-actor1861416877" style="stroke: #A80036; stroke-width: 1.0;"/><!--MD5=[a8ac719b7e92b96a5e187a708fb6d000]
link actor1861416877 to UC255--><path d="M35.04,669.84 C43.67,681.79 56.05,698.79 71,710 C94.85,727.89 129,737.05 149.05,746.53 " fill="none" id="actor1861416877-UC255" style="stroke: #A80036; stroke-width: 1.0;"/><!--MD5=[592a531d38e8a8ec6c51420e1ed796d9]
link UC255 to actor1861416877--><path d="M119.5,767.4 C103.12,763.24 85.23,755.67 71,745 C56.05,733.79 43.67,716.79 35.04,700.46 " fill="none" id="UC255-actor1861416877" style="stroke: #A80036; stroke-width: 1.0;"/><!--MD5=[baceee5e7da182945ea66118fac8f6d1]
link actor1861416877 to UC256--><path d="M35.08,700.32 C42.92,724.15 54.56,753.62 71,777 C94.87,810.93 136.83,838.8 155.76,858.15 " fill="none" id="actor1861416877-UC256" style="stroke: #A80036; stroke-width: 1.0;"/><!--MD5=[fbd9fe456ec044ad071ed9995941d3f0]
link UC256 to actor1861416877--><path d="M132.35,867.54 C112.23,855.68 87.36,835.26 71,812 C48.09,779.43 34.52,735.04 27.53,702.09 " fill="none" id="UC256-actor1861416877" style="stroke: #A80036; stroke-width: 1.0;"/><!--MD5=[15014c9b0994972a8f1919d514c40e02]
link actor1861416877 to UC257--><path d="M26.17,702.08 C32.68,760.76 46.53,861.6 71,890 C92.06,914.44 132.03,921.31 152.58,930.04 " fill="none" id="actor1861416877-UC257" style="stroke: #A80036; stroke-width: 1.0;"/><!--MD5=[124973eb38f59641e9bc44575184e3dc]
link UC257 to actor1861416877--><path d="M150.52,952.23 C129.46,955.85 91.37,948.64 71,925 C43.42,892.99 29.33,768.89 24.03,702.07 " fill="none" id="UC257-actor1861416877" style="stroke: #A80036; stroke-width: 1.0;"/><!--MD5=[d865bcb671086b1c74e94d23a359e954]
link actor1861416877 to UC258--><path d="M23.42,702.05 C27.31,774.97 38.73,918.93 71,958 C88.54,979.24 120.43,987.21 142.27,994.44 " fill="none" id="actor1861416877-UC258" style="stroke: #A80036; stroke-width: 1.0;"/><!--MD5=[ae7165f09a460ba545f4da36c39a4bf2]
link UC258 to actor1861416877--><path d="M94.91,1011.24 C85.81,1006.81 77.44,1000.8 71,993 C35.72,950.29 25.37,782.24 22.51,702.1 " fill="none" id="UC258-actor1861416877" style="stroke: #A80036; stroke-width: 1.0;"/><!--MD5=[b2434001e2d8d26f2b97996a58efb258]
link actor1861416877 to UC259--><path d="M21.69,702.17 C23.07,787.82 30.9,976.09 71,1026 C88.8,1048.16 122.24,1055.88 144.19,1063.22 " fill="none" id="actor1861416877-UC259" style="stroke: #A80036; stroke-width: 1.0;"/><!--MD5=[4721ea3a684c1ffe08dc750b535e01bc]
link UC259 to actor1861416877--><path d="M129.2,1088.97 C108.97,1087.03 85.09,1078.53 71,1061 C27.95,1007.42 22.09,794.4 21.48,702.2 " fill="none" id="UC259-actor1861416877" style="stroke: #A80036; stroke-width: 1.0;"/><!--MD5=[35458f3d9136ceae28b9fd35049f9e68]
link actor1861416877 to UC260--><path d="M22.39,702.31 C24.94,797.9 34.63,1025.13 71,1093 C90.8,1129.94 135.67,1156.63 155.62,1175.18 " fill="none" id="actor1861416877-UC260" style="stroke: #A80036; stroke-width: 1.0;"/><!--MD5=[28b45b82c8727a25805c0073cdbe2c13]
link UC260 to actor1861416877--><path d="M142.84,1190.75 C120.45,1181.77 87.26,1158.35 71,1128 C32.36,1055.88 23.83,803.8 21.99,702.25 " fill="none" id="UC260-actor1861416877" style="stroke: #A80036; stroke-width: 1.0;"/><!--MD5=[48260844a31f052bf37d816b83179c12]
link actor1861416877 to UC261--><path d="M22.86,702.04 C26.81,823.48 40.03,1165.8 71,1206 C89.84,1230.45 127.8,1237.34 149.44,1245.22 " fill="none" id="actor1861416877-UC261" style="stroke: #A80036; stroke-width: 1.0;"/><!--MD5=[f7d5868c823935875af3f342d7f2e442]
link UC261 to actor1861416877--><path d="M146.8,1269.04 C124.83,1271.77 89.09,1264.48 71,1241 C38.72,1199.1 25.73,828.92 22.41,702.03 " fill="none" id="UC261-actor1861416877" style="stroke: #A80036; stroke-width: 1.0;"/><!--MD5=[f1c4c1b44ce647dbb8b548e1d546053b]
@startuml
 left to right direction

actor Sequence as actor1861416877

	rectangle main{
	 usecase waitFor as UC246
	actor1861416877- -UC246
	 usecase println as UC247
	actor1861416877- -UC247
	 usecase getClassList as UC248
	actor1861416877- -UC248
	}
actor getClassList as actor1861416877
UC248- -actor1861416877
actor println as actor1861416877
UC247- -actor1861416877
actor waitFor as actor1861416877
UC246- -actor1861416877

	rectangle makeString{
	 usecase append as UC249
	actor1861416877- -UC249
	 usecase toString as UC250
	actor1861416877- -UC250
	}
actor toString as actor1861416877
UC250- -actor1861416877
actor append as actor1861416877
UC249- -actor1861416877

	rectangle getCallerFunList{
	 usecase add as UC251
	actor1861416877- -UC251
	 usecase getClassList as UC252
	actor1861416877- -UC252
	 usecase getCallList as UC253
	actor1861416877- -UC253
	 usecase getFunctionList as UC254
	actor1861416877- -UC254
	 usecase getHasList as UC255
	actor1861416877- -UC255
	}
actor getHasList as actor1861416877
UC255- -actor1861416877
actor getFunctionList as actor1861416877
UC254- -actor1861416877
actor getCallList as actor1861416877
UC253- -actor1861416877
actor getClassList as actor1861416877
UC252- -actor1861416877
actor add as actor1861416877
UC251- -actor1861416877

	rectangle drawConnect{
	 usecase append as UC256
	actor1861416877- -UC256
	 usecase add as UC257
	actor1861416877- -UC257
	 usecase getFunctionList as UC258
	actor1861416877- -UC258
	 usecase getCallList as UC259
	actor1861416877- -UC259
	}
actor getCallList as actor1861416877
UC259- -actor1861416877
actor getFunctionList as actor1861416877
UC258- -actor1861416877
actor add as actor1861416877
UC257- -actor1861416877
actor append as actor1861416877
UC256- -actor1861416877

	rectangle makeFile{
	 usecase write as UC260
	actor1861416877- -UC260
	 usecase close as UC261
	actor1861416877- -UC261
	}
actor close as actor1861416877
UC261- -actor1861416877
actor write as actor1861416877
UC260- -actor1861416877


@enduml

PlantUML version 1.2020.19(Tue Oct 13 00:10:01 KST 2020)
(APACHE source distribution)
Java Runtime: Java(TM) SE Runtime Environment
JVM: Java HotSpot(TM) 64-Bit Server VM
Default Encoding: MS949
Language: ko
Country: KR
--></g></svg>