<?xml version="1.0" encoding="UTF-8" standalone="no"?><svg xmlns="http://www.w3.org/2000/svg" xmlns:xlink="http://www.w3.org/1999/xlink" contentScriptType="application/ecmascript" contentStyleType="text/css" height="2159px" preserveAspectRatio="none" style="width:285px;height:2159px;" version="1.1" viewBox="0 0 285 2159" width="285px" zoomAndPan="magnify"><defs><filter height="300%" id="f6cjoy8slc2vv" width="300%" x="-1" y="-1"><feGaussianBlur result="blurOut" stdDeviation="2.0"/><feColorMatrix in="blurOut" result="blurOut2" type="matrix" values="0 0 0 0 0 0 0 0 0 0 0 0 0 0 0 0 0 0 .4 0"/><feOffset dx="4.0" dy="4.0" in="blurOut2" result="blurOut3"/><feBlend in="SourceGraphic" in2="blurOut3" mode="normal"/></filter></defs><g><!--MD5=[a70b0d373322012744ecc119c63f921b]
cluster main--><rect fill="#FFFFFF" filter="url(#f6cjoy8slc2vv)" height="428" style="stroke: #000000; stroke-width: 1.5;" width="140" x="115.5" y="7"/><text fill="#000000" font-family="sans-serif" font-size="14" font-weight="bold" lengthAdjust="spacingAndGlyphs" textLength="33" x="169" y="25.1533">main</text><!--MD5=[1e829f21a74d4de467c1b519aceec237]
cluster makeFile--><rect fill="#FFFFFF" filter="url(#f6cjoy8slc2vv)" height="156" style="stroke: #000000; stroke-width: 1.5;" width="85" x="143" y="459"/><text fill="#000000" font-family="sans-serif" font-size="14" font-weight="bold" lengthAdjust="spacingAndGlyphs" textLength="63" x="154" y="477.1533">makeFile</text><!--MD5=[f7b8ef1aad535ba0cf171373eed63d39]
cluster makeGraphScript--><rect fill="#FFFFFF" filter="url(#f6cjoy8slc2vv)" height="360" style="stroke: #000000; stroke-width: 1.5;" width="175" x="98" y="639"/><text fill="#000000" font-family="sans-serif" font-size="14" font-weight="bold" lengthAdjust="spacingAndGlyphs" textLength="121" x="125" y="657.1533">makeGraphScript</text><!--MD5=[2478a7cca4ec048c8dd1e5506b0f7815]
cluster classExtends--><rect fill="#FFFFFF" filter="url(#f6cjoy8slc2vv)" height="156" style="stroke: #000000; stroke-width: 1.5;" width="117" x="127" y="1023"/><text fill="#000000" font-family="sans-serif" font-size="14" font-weight="bold" lengthAdjust="spacingAndGlyphs" textLength="93" x="139" y="1041.1533">classExtends</text><!--MD5=[a16c90b2e4a6c7d43da9372c08772bf6]
cluster addListSize--><rect fill="#FFFFFF" filter="url(#f6cjoy8slc2vv)" height="88" style="stroke: #000000; stroke-width: 1.5;" width="106" x="132.5" y="1203"/><text fill="#000000" font-family="sans-serif" font-size="14" font-weight="bold" lengthAdjust="spacingAndGlyphs" textLength="80" x="145.5" y="1221.1533">addListSize</text><!--MD5=[600e115adc72a6cbabecdb59f99145ea]
cluster classDef--><rect fill="#FFFFFF" filter="url(#f6cjoy8slc2vv)" height="88" style="stroke: #000000; stroke-width: 1.5;" width="106" x="132.5" y="1315"/><text fill="#000000" font-family="sans-serif" font-size="14" font-weight="bold" lengthAdjust="spacingAndGlyphs" textLength="60" x="155.5" y="1333.1533">classDef</text><!--MD5=[f187f0e524dea2ebe3ce3bb66eee0c84]
cluster addList--><rect fill="#FFFFFF" filter="url(#f6cjoy8slc2vv)" height="292" style="stroke: #000000; stroke-width: 1.5;" width="175" x="98" y="1427"/><text fill="#000000" font-family="sans-serif" font-size="14" font-weight="bold" lengthAdjust="spacingAndGlyphs" textLength="51" x="160" y="1445.1533">addList</text><!--MD5=[7fe9491b1c7f8d0ad3b12d91a25e243b]
cluster functionDef--><rect fill="#FFFFFF" filter="url(#f6cjoy8slc2vv)" height="156" style="stroke: #000000; stroke-width: 1.5;" width="117" x="127" y="1743"/><text fill="#000000" font-family="sans-serif" font-size="14" font-weight="bold" lengthAdjust="spacingAndGlyphs" textLength="82" x="144.5" y="1761.1533">functionDef</text><!--MD5=[436e124e9ab1774894a62329e4fc6a00]
cluster memberDef--><rect fill="#FFFFFF" filter="url(#f6cjoy8slc2vv)" height="224" style="stroke: #000000; stroke-width: 1.5;" width="151" x="110" y="1923"/><text fill="#000000" font-family="sans-serif" font-size="14" font-weight="bold" lengthAdjust="spacingAndGlyphs" textLength="81" x="145" y="1941.1533">memberDef</text><ellipse cx="185.5061" cy="62.0973" fill="#FEFECE" filter="url(#f6cjoy8slc2vv)" rx="23.5061" ry="16.5973" style="stroke: #A80036; stroke-width: 1.5;"/><text fill="#000000" font-family="sans-serif" font-size="14" lengthAdjust="spacingAndGlyphs" textLength="29" x="171.0061" y="68.2121">exec</text><ellipse cx="185.4117" cy="130.0973" fill="#FEFECE" filter="url(#f6cjoy8slc2vv)" rx="53.9117" ry="16.5973" style="stroke: #A80036; stroke-width: 1.5;"/><text fill="#000000" font-family="sans-serif" font-size="14" lengthAdjust="spacingAndGlyphs" textLength="72" x="149.4117" y="136.2121">getRuntime</text><ellipse cx="185.5269" cy="198.0973" fill="#FEFECE" filter="url(#f6cjoy8slc2vv)" rx="35.5269" ry="16.5973" style="stroke: #A80036; stroke-width: 1.5;"/><text fill="#000000" font-family="sans-serif" font-size="14" lengthAdjust="spacingAndGlyphs" textLength="46" x="162.5269" y="204.2121">waitFor</text><ellipse cx="185.5772" cy="266.0973" fill="#FEFECE" filter="url(#f6cjoy8slc2vv)" rx="30.5772" ry="16.5973" style="stroke: #A80036; stroke-width: 1.5;"/><text fill="#000000" font-family="sans-serif" font-size="14" lengthAdjust="spacingAndGlyphs" textLength="39" x="166.0772" y="272.2121">println</text><ellipse cx="185.5772" cy="334.0973" fill="#FEFECE" filter="url(#f6cjoy8slc2vv)" rx="30.5772" ry="16.5973" style="stroke: #A80036; stroke-width: 1.5;"/><text fill="#000000" font-family="sans-serif" font-size="14" lengthAdjust="spacingAndGlyphs" textLength="39" x="166.0772" y="340.2121">println</text><ellipse cx="185.5269" cy="402.0973" fill="#FEFECE" filter="url(#f6cjoy8slc2vv)" rx="35.5269" ry="16.5973" style="stroke: #A80036; stroke-width: 1.5;"/><text fill="#000000" font-family="sans-serif" font-size="14" lengthAdjust="spacingAndGlyphs" textLength="46" x="162.5269" y="408.2121">waitFor</text><ellipse cx="185.5061" cy="514.0973" fill="#FEFECE" filter="url(#f6cjoy8slc2vv)" rx="23.5061" ry="16.5973" style="stroke: #A80036; stroke-width: 1.5;"/><text fill="#000000" font-family="sans-serif" font-size="14" lengthAdjust="spacingAndGlyphs" textLength="29" x="171.0061" y="520.2121">write</text><ellipse cx="185.3345" cy="582.0973" fill="#FEFECE" filter="url(#f6cjoy8slc2vv)" rx="26.3345" ry="16.5973" style="stroke: #A80036; stroke-width: 1.5;"/><text fill="#000000" font-family="sans-serif" font-size="14" lengthAdjust="spacingAndGlyphs" textLength="33" x="168.8345" y="588.2121">close</text><ellipse cx="185.4411" cy="694.0973" fill="#FEFECE" filter="url(#f6cjoy8slc2vv)" rx="36.9411" ry="16.5973" style="stroke: #A80036; stroke-width: 1.5;"/><text fill="#000000" font-family="sans-serif" font-size="14" lengthAdjust="spacingAndGlyphs" textLength="48" x="161.4411" y="700.2121">append</text><ellipse cx="185.4472" cy="762.0973" fill="#FEFECE" filter="url(#f6cjoy8slc2vv)" rx="57.4472" ry="16.5973" style="stroke: #A80036; stroke-width: 1.5;"/><text fill="#000000" font-family="sans-serif" font-size="14" lengthAdjust="spacingAndGlyphs" textLength="77" x="146.9472" y="768.2121">getClassList</text><ellipse cx="185.2886" cy="830.1577" fill="#FEFECE" filter="url(#f6cjoy8slc2vv)" rx="71.2886" ry="16.6577" style="stroke: #A80036; stroke-width: 1.5;"/><text fill="#000000" font-family="sans-serif" font-size="14" lengthAdjust="spacingAndGlyphs" textLength="97" x="136.7886" y="836.2725">getFunctionList</text><ellipse cx="185.2609" cy="898.0973" fill="#FEFECE" filter="url(#f6cjoy8slc2vv)" rx="68.7609" ry="16.5973" style="stroke: #A80036; stroke-width: 1.5;"/><text fill="#000000" font-family="sans-serif" font-size="14" lengthAdjust="spacingAndGlyphs" textLength="93" x="138.7609" y="904.2121">getMemberList</text><ellipse cx="185.6482" cy="966.0973" fill="#FEFECE" filter="url(#f6cjoy8slc2vv)" rx="37.6482" ry="16.5973" style="stroke: #A80036; stroke-width: 1.5;"/><text fill="#000000" font-family="sans-serif" font-size="14" lengthAdjust="spacingAndGlyphs" textLength="49" x="161.1482" y="972.2121">toString</text><ellipse cx="185.4411" cy="1078.0973" fill="#FEFECE" filter="url(#f6cjoy8slc2vv)" rx="36.9411" ry="16.5973" style="stroke: #A80036; stroke-width: 1.5;"/><text fill="#000000" font-family="sans-serif" font-size="14" lengthAdjust="spacingAndGlyphs" textLength="48" x="161.4411" y="1084.2121">append</text><ellipse cx="185.598" cy="1146.0973" fill="#FEFECE" filter="url(#f6cjoy8slc2vv)" rx="42.598" ry="16.5973" style="stroke: #A80036; stroke-width: 1.5;"/><text fill="#000000" font-family="sans-serif" font-size="14" lengthAdjust="spacingAndGlyphs" textLength="56" x="157.598" y="1152.2121">getName</text><ellipse cx="185.4411" cy="1258.0973" fill="#FEFECE" filter="url(#f6cjoy8slc2vv)" rx="36.9411" ry="16.5973" style="stroke: #A80036; stroke-width: 1.5;"/><text fill="#000000" font-family="sans-serif" font-size="14" lengthAdjust="spacingAndGlyphs" textLength="48" x="161.4411" y="1264.2121">append</text><ellipse cx="185.4411" cy="1370.0973" fill="#FEFECE" filter="url(#f6cjoy8slc2vv)" rx="36.9411" ry="16.5973" style="stroke: #A80036; stroke-width: 1.5;"/><text fill="#000000" font-family="sans-serif" font-size="14" lengthAdjust="spacingAndGlyphs" textLength="48" x="161.4411" y="1376.2121">append</text><ellipse cx="185.4411" cy="1482.0973" fill="#FEFECE" filter="url(#f6cjoy8slc2vv)" rx="36.9411" ry="16.5973" style="stroke: #A80036; stroke-width: 1.5;"/><text fill="#000000" font-family="sans-serif" font-size="14" lengthAdjust="spacingAndGlyphs" textLength="48" x="161.4411" y="1488.2121">append</text><ellipse cx="185.4472" cy="1550.0973" fill="#FEFECE" filter="url(#f6cjoy8slc2vv)" rx="57.4472" ry="16.5973" style="stroke: #A80036; stroke-width: 1.5;"/><text fill="#000000" font-family="sans-serif" font-size="14" lengthAdjust="spacingAndGlyphs" textLength="77" x="146.9472" y="1556.2121">getClassList</text><ellipse cx="185.2609" cy="1618.0973" fill="#FEFECE" filter="url(#f6cjoy8slc2vv)" rx="68.7609" ry="16.5973" style="stroke: #A80036; stroke-width: 1.5;"/><text fill="#000000" font-family="sans-serif" font-size="14" lengthAdjust="spacingAndGlyphs" textLength="93" x="138.7609" y="1624.2121">getMemberList</text><ellipse cx="185.2886" cy="1686.1577" fill="#FEFECE" filter="url(#f6cjoy8slc2vv)" rx="71.2886" ry="16.6577" style="stroke: #A80036; stroke-width: 1.5;"/><text fill="#000000" font-family="sans-serif" font-size="14" lengthAdjust="spacingAndGlyphs" textLength="97" x="136.7886" y="1692.2725">getFunctionList</text><ellipse cx="185.4411" cy="1798.0973" fill="#FEFECE" filter="url(#f6cjoy8slc2vv)" rx="36.9411" ry="16.5973" style="stroke: #A80036; stroke-width: 1.5;"/><text fill="#000000" font-family="sans-serif" font-size="14" lengthAdjust="spacingAndGlyphs" textLength="48" x="161.4411" y="1804.2121">append</text><ellipse cx="185.598" cy="1866.0973" fill="#FEFECE" filter="url(#f6cjoy8slc2vv)" rx="42.598" ry="16.5973" style="stroke: #A80036; stroke-width: 1.5;"/><text fill="#000000" font-family="sans-serif" font-size="14" lengthAdjust="spacingAndGlyphs" textLength="56" x="157.598" y="1872.2121">getName</text><ellipse cx="185.4411" cy="1978.0973" fill="#FEFECE" filter="url(#f6cjoy8slc2vv)" rx="36.9411" ry="16.5973" style="stroke: #A80036; stroke-width: 1.5;"/><text fill="#000000" font-family="sans-serif" font-size="14" lengthAdjust="spacingAndGlyphs" textLength="48" x="161.4411" y="1984.2121">append</text><ellipse cx="185.598" cy="2046.0973" fill="#FEFECE" filter="url(#f6cjoy8slc2vv)" rx="42.598" ry="16.5973" style="stroke: #A80036; stroke-width: 1.5;"/><text fill="#000000" font-family="sans-serif" font-size="14" lengthAdjust="spacingAndGlyphs" textLength="56" x="157.598" y="2052.2121">getName</text><ellipse cx="185.5685" cy="2114.0973" fill="#FEFECE" filter="url(#f6cjoy8slc2vv)" rx="59.5685" ry="16.5973" style="stroke: #A80036; stroke-width: 1.5;"/><text fill="#000000" font-family="sans-serif" font-size="14" lengthAdjust="spacingAndGlyphs" textLength="80" x="145.5685" y="2120.2121">getImageList</text><!--MD5=[03b229b308f75a06ea58ea7131e807f7]
entity actor2045560071--><ellipse cx="30" cy="933.5" fill="#FEFECE" filter="url(#f6cjoy8slc2vv)" rx="8" ry="8" style="stroke: #A80036; stroke-width: 1.5;"/><path d="M30,941.5 L30,968.5 M17,949.5 L43,949.5 M30,968.5 L17,983.5 M30,968.5 L43,983.5 " fill="none" filter="url(#f6cjoy8slc2vv)" style="stroke: #A80036; stroke-width: 1.5;"/><text fill="#000000" font-family="sans-serif" font-size="14" lengthAdjust="spacingAndGlyphs" textLength="48" x="6" y="1005.1533">append</text><!--MD5=[71c5f37394a0b5368bcfc06a3d455e21]
link actor2045560071 to UC27--><path d="M31.15,923.9 C32.11,756.21 39.13,145.4 90,78 C108.59,53.37 146.65,46.54 168.37,50.63 " fill="none" id="actor2045560071-UC27" style="stroke: #A80036; stroke-width: 1.0;"/><!--MD5=[81b581406ed4975691a8c8d715cb7655]
link UC27 to actor2045560071--><path d="M168.73,73.93 C147.08,81.47 108.7,88.23 90,113 C40.41,178.7 32.5,760.76 31.24,923.92 " fill="none" id="UC27-actor2045560071" style="stroke: #A80036; stroke-width: 1.0;"/><!--MD5=[b9e050fae468391832d8b8fabffdb046]
link actor2045560071 to UC28--><path d="M31.37,923.78 C33.21,764.25 43.2,207.64 90,146 C103.81,127.81 128.23,119.33 148.79,117.8 " fill="none" id="actor2045560071-UC28" style="stroke: #A80036; stroke-width: 1.0;"/><!--MD5=[bba299cea51609eb7eed2b4c05e4135b]
link UC28 to actor2045560071--><path d="M160.46,144.62 C138.35,151.35 106.55,159.2 90,181 C44.49,240.94 33.79,768.88 31.54,923.76 " fill="none" id="UC28-actor2045560071" style="stroke: #A80036; stroke-width: 1.0;"/><!--MD5=[3ac33dba596a8a9b9710fc7451c4d67b]
link actor2045560071 to UC29--><path d="M31.63,923.79 C34.39,772.93 47.24,269.92 90,214 C106.84,191.98 139.22,184.2 161.33,185.77 " fill="none" id="actor2045560071-UC29" style="stroke: #A80036; stroke-width: 1.0;"/><!--MD5=[76000905d6c97efe422ab2435f538e60]
link UC29 to actor2045560071--><path d="M164.59,211.36 C142.51,218.45 107.69,225.87 90,249 C48.53,303.24 35.19,778.07 31.91,923.9 " fill="none" id="UC29-actor2045560071" style="stroke: #A80036; stroke-width: 1.0;"/><!--MD5=[729351ddfad1ae51d44a43a6f6f814ae]
link actor2045560071 to UC30--><path d="M31.93,923.74 C35.68,781.88 51.28,332.21 90,282 C107.67,259.08 142.16,251.59 164.23,254.06 " fill="none" id="actor2045560071-UC30" style="stroke: #A80036; stroke-width: 1.0;"/><!--MD5=[100f9b738fca3c6efe35fe6c17f20e51]
link UC30 to actor2045560071--><path d="M166.19,278.88 C144.25,286.15 108.21,293.39 90,317 C52.56,365.55 36.74,787.48 32.35,923.96 " fill="none" id="UC30-actor2045560071" style="stroke: #A80036; stroke-width: 1.0;"/><!--MD5=[b103762e225b53a5dcdec71e10ee1a9b]
link actor2045560071 to UC31--><path d="M32.3,923.75 C37.09,791.44 55.3,394.54 90,350 C107.79,327.17 142.24,319.65 164.27,322.09 " fill="none" id="actor2045560071-UC31" style="stroke: #A80036; stroke-width: 1.0;"/><!--MD5=[4bab7a9284532228a1af4c49e6d76126]
link UC31 to actor2045560071--><path d="M166.22,346.91 C144.33,354.21 108.32,361.48 90,385 C56.62,427.84 38.5,796.71 32.91,923.67 " fill="none" id="UC31-actor2045560071" style="stroke: #A80036; stroke-width: 1.0;"/><!--MD5=[ae46f566e7feeb650f63aaabb7f1bdaa]
link actor2045560071 to UC32--><path d="M31.92,923.78 C35.05,816.83 47.53,541.16 90,463 C103.89,437.45 129.69,416.75 150.83,405.66 " fill="none" id="actor2045560071-UC32" style="stroke: #A80036; stroke-width: 1.0;"/><!--MD5=[99cee7e66786a2948211f1dcc1b5e3f5]
link UC32 to actor2045560071--><path d="M173.09,417.69 C152.51,435.8 109.5,462.11 90,498 C49.8,571.97 36.47,822.83 32.51,923.86 " fill="none" id="UC32-actor2045560071" style="stroke: #A80036; stroke-width: 1.0;"/><!--MD5=[a9eb59b89703b40758c6ff2501d8df36]
link actor2045560071 to UC33--><path d="M31.4,923.9 C33.1,825.83 42.14,588.85 90,530 C109.36,506.19 146.77,499.05 168.26,502.76 " fill="none" id="actor2045560071-UC33" style="stroke: #A80036; stroke-width: 1.0;"/><!--MD5=[7dce02241261121dd9aa9f293b60e9e7]
link UC33 to actor2045560071--><path d="M169.34,525.99 C148.05,533.81 109.69,540.79 90,565 C45.09,620.22 34.36,832.31 31.8,923.98 " fill="none" id="UC33-actor2045560071" style="stroke: #A80036; stroke-width: 1.0;"/><!--MD5=[c1290ae2156d2c38db991f561ad384b9]
link actor2045560071 to UC34--><path d="M30.36,923.89 C30.57,858.17 37.61,731.85 90,643 C106.62,614.82 137.13,592.1 158.99,582.23 " fill="none" id="actor2045560071-UC34" style="stroke: #A80036; stroke-width: 1.0;"/><!--MD5=[b037c83c7f3ee22e3c42b3c0c0966014]
link UC34 to actor2045560071--><path d="M174.26,596.97 C154.48,615.32 111.07,642.27 90,678 C43.63,756.63 32.79,864.6 30.76,923.84 " fill="none" id="UC34-actor2045560071" style="stroke: #A80036; stroke-width: 1.0;"/><!--MD5=[7f22dbe2ba25dac77cf83ad4c819eff0]
link actor2045560071 to UC35--><path d="M35.12,923.84 C43.17,858.74 62.65,740.3 90,710 C107.76,690.33 137.74,682.03 159.18,682.3 " fill="none" id="actor2045560071-UC35" style="stroke: #A80036; stroke-width: 1.0;"/><!--MD5=[0b5536ae25b48eee4f512f34d0c52bf2]
link UC35 to actor2045560071--><path d="M165.25,707.91 C143.78,715.5 109.51,723.38 90,745 C65.86,771.74 47.85,867.15 38.42,923.83 " fill="none" id="UC35-actor2045560071" style="stroke: #A80036; stroke-width: 1.0;"/><!--MD5=[2160836c57d6a8982d894be73f4c85b9]
link actor2045560071 to UC36--><path d="M33.6,923.65 C38.42,880.56 52,816.43 90,778 C102.26,765.6 119.36,757.7 135.65,753.75 " fill="none" id="actor2045560071-UC36" style="stroke: #A80036; stroke-width: 1.0;"/><!--MD5=[f5fdccf856b6c9ce8e4a17450822061a]
link UC36 to actor2045560071--><path d="M162.87,777.24 C141.62,784.84 109.61,793.16 90,813 C60.02,843.32 45.23,889.64 37.97,923.7 " fill="none" id="UC36-actor2045560071" style="stroke: #A80036; stroke-width: 1.0;"/><!--MD5=[63a22d2962c290d3f3b7d2ad0345558c]
link actor2045560071 to UC37--><path d="M40.86,923.76 C50.24,897.31 66.45,865.67 90,846 C97.09,840.08 105.3,835.15 113.85,831.22 " fill="none" id="actor2045560071-UC37" style="stroke: #A80036; stroke-width: 1.0;"/><!--MD5=[1471ecef7ca24567436fb96c5fae3a40]
link UC37 to actor2045560071--><path d="M164.02,845.91 C143.37,854.2 111.54,863 90,881 C75.16,893.39 63.24,910.54 54.1,926.38 " fill="none" id="UC37-actor2045560071" style="stroke: #A80036; stroke-width: 1.0;"/><!--MD5=[11cfcb36c4fd8d9ac24ea519a039b1b5]
link actor2045560071 to UC38--><path d="M54.03,935.04 C64.74,927.03 77.77,919.67 90,914 C99.1,909.78 108.87,905.75 118.57,902.22 " fill="none" id="actor2045560071-UC38" style="stroke: #A80036; stroke-width: 1.0;"/><!--MD5=[069711c4894f835f2546cc12f842e9a7]
link UC38 to actor2045560071--><path d="M169.77,914.16 C150.9,925.25 117.37,936.31 90,949 C77.77,954.67 64.74,962.03 54.03,966.95 " fill="none" id="UC38-actor2045560071" style="stroke: #A80036; stroke-width: 1.0;"/><!--MD5=[99377ef7623f7545a059c857730c00ec]
link actor2045560071 to UC39--><path d="M54.31,955.98 C81.82,951.57 127.51,951.35 156.8,955.33 " fill="none" id="actor2045560071-UC39" style="stroke: #A80036; stroke-width: 1.0;"/><!--MD5=[9ad0796880936e722448f5fbe33dc30a]
link UC39 to actor2045560071--><path d="M155.72,976.21 C126.4,979.83 81.49,979.58 54.31,975.46 " fill="none" id="UC39-actor2045560071" style="stroke: #A80036; stroke-width: 1.0;"/><!--MD5=[0508acd66fb9a5b2cf433977598bc63c]
link actor2045560071 to UC40--><path d="M54.31,972.99 C87.69,991.99 147.84,1036.7 172.98,1062.05 " fill="none" id="actor2045560071-UC40" style="stroke: #A80036; stroke-width: 1.0;"/><!--MD5=[7ddb5e3a3844d60c5687e24a2770498f]
link UC40 to actor2045560071--><path d="M156.53,1067.7 C127.24,1050.05 81.74,1016.64 54.31,992.47 " fill="none" id="UC40-actor2045560071" style="stroke: #A80036; stroke-width: 1.0;"/><!--MD5=[0ec0a4014d471ed2f8352f907c0e3c3c]
link actor2045560071 to UC41--><path d="M42.5,1008.06 C51.08,1035.79 65.67,1070.59 90,1094 C111.23,1114.43 145.62,1122.7 166.53,1131.15 " fill="none" id="actor2045560071-UC41" style="stroke: #A80036; stroke-width: 1.0;"/><!--MD5=[1e03d9ade14b7d391719cb5b3b681045]
link UC41 to actor2045560071--><path d="M150.68,1155.65 C130.82,1153.37 106.46,1144.84 90,1129 C57.3,1097.54 42.2,1045.49 35.62,1008.15 " fill="none" id="UC41-actor2045560071" style="stroke: #A80036; stroke-width: 1.0;"/><!--MD5=[f35e3fc6105111469e9c17e99c591999]
link actor2045560071 to UC42--><path d="M37.29,1008.16 C44.43,1049.96 59.35,1113.42 90,1161 C112.35,1195.69 154.71,1222.98 174.21,1242.02 " fill="none" id="actor2045560071-UC42" style="stroke: #A80036; stroke-width: 1.0;"/><!--MD5=[96db09aad10e354f0d9bfb0eba126dbb]
link UC42 to actor2045560071--><path d="M150.69,1251.99 C130.31,1240.3 105.4,1219.91 90,1196 C52.9,1138.42 38.85,1057.58 33.75,1008.15 " fill="none" id="UC42-actor2045560071" style="stroke: #A80036; stroke-width: 1.0;"/><!--MD5=[9caa2689ce405b5fb2d128c250f768d0]
link actor2045560071 to UC43--><path d="M36.25,1008.02 C44.85,1081.46 63.64,1227.71 90,1273 C110.76,1308.67 153.93,1335.46 173.92,1354.2 " fill="none" id="actor2045560071-UC43" style="stroke: #A80036; stroke-width: 1.0;"/><!--MD5=[79cb8ed729149070fbf04759aa21c016]
link UC43 to actor2045560071--><path d="M150.39,1364.71 C129.63,1353.25 104.41,1332.77 90,1308 C61.23,1258.56 41.47,1088.8 34.15,1008.23 " fill="none" id="UC43-actor2045560071" style="stroke: #A80036; stroke-width: 1.0;"/><!--MD5=[a1a7fbe939973882ebd51a20b5890f47]
link actor2045560071 to UC44--><path d="M33.35,1008.15 C38.66,1101.43 54.02,1319.82 90,1385 C109.94,1421.13 153.53,1447.69 173.77,1466.28 " fill="none" id="actor2045560071-UC44" style="stroke: #A80036; stroke-width: 1.0;"/><!--MD5=[8b0dbaec04533faf649d761fc136ecd1]
link UC44 to actor2045560071--><path d="M150,1476.93 C129.09,1465.56 103.85,1445.09 90,1420 C51.71,1350.63 36.77,1107.72 32.45,1008.29 " fill="none" id="UC44-actor2045560071" style="stroke: #A80036; stroke-width: 1.0;"/><!--MD5=[511e70535c89c4a3124a0bf04f4d43f3]
link actor2045560071 to UC45--><path d="M33.4,1008.11 C39.91,1127.48 59.47,1459.16 90,1498 C107.24,1519.93 139.84,1527.73 161.87,1534.89 " fill="none" id="actor2045560071-UC45" style="stroke: #A80036; stroke-width: 1.0;"/><!--MD5=[ab8f1819942802332b2d4a76c2cace4e]
link UC45 to actor2045560071--><path d="M139.4,1559.89 C121.31,1556.63 101.96,1548.22 90,1533 C58.14,1492.46 38.21,1132.9 32.62,1008.05 " fill="none" id="UC45-actor2045560071" style="stroke: #A80036; stroke-width: 1.0;"/><!--MD5=[8d763ffbceb70356c5474fc950764a17]
link actor2045560071 to UC46--><path d="M32.74,1008.14 C37.99,1137.76 55.46,1521.52 90,1566 C106.79,1587.62 138.53,1595.51 160.57,1602.53 " fill="none" id="actor2045560071-UC46" style="stroke: #A80036; stroke-width: 1.0;"/><!--MD5=[7056812eacd4ba84e37fdc1baf249cf5]
link UC46 to actor2045560071--><path d="M118.23,1621.75 C107.35,1617.15 97.27,1610.36 90,1601 C54.14,1554.82 36.68,1142.88 32.19,1008.09 " fill="none" id="UC46-actor2045560071" style="stroke: #A80036; stroke-width: 1.0;"/><!--MD5=[b8f88cd451c8238aa29ccb6390a95eb1]
link actor2045560071 to UC47--><path d="M32.22,1008.09 C36.3,1147.32 51.42,1583.84 90,1634 C106.58,1655.56 138.05,1663.47 160.1,1670.43 " fill="none" id="actor2045560071-UC47" style="stroke: #A80036; stroke-width: 1.0;"/><!--MD5=[4e48542154dd77e4256a1f4ce60a5139]
link UC47 to actor2045560071--><path d="M114.36,1688.09 C104.96,1683.57 96.38,1677.29 90,1669 C50.15,1617.18 35.32,1153.03 31.85,1008.45 " fill="none" id="UC47-actor2045560071" style="stroke: #A80036; stroke-width: 1.0;"/><!--MD5=[c5a165c4d788fb2d0202ebba083c25c3]
link actor2045560071 to UC48--><path d="M32.67,1008.15 C38.26,1155.48 57.87,1638.73 90,1701 C108.92,1737.68 153.03,1763.95 173.59,1782.38 " fill="none" id="actor2045560071-UC48" style="stroke: #A80036; stroke-width: 1.0;"/><!--MD5=[9ac5e6365849fb2e2c93d1b05f076365]
link UC48 to actor2045560071--><path d="M149.52,1793.19 C128.41,1781.92 103.14,1761.46 90,1736 C56.87,1671.8 37.06,1160.12 32.19,1008.11 " fill="none" id="UC48-actor2045560071" style="stroke: #A80036; stroke-width: 1.0;"/><!--MD5=[85049474b9dc114a7b2b5a1eb8fb99af]
link actor2045560071 to UC49--><path d="M31.26,1008.03 C32.58,1170.55 40.68,1748.68 90,1814 C107.34,1836.96 141.58,1844.45 163.74,1851.69 " fill="none" id="actor2045560071-UC49" style="stroke: #A80036; stroke-width: 1.0;"/><!--MD5=[8a882930629110409c080bc0dd39f311]
link UC49 to actor2045560071--><path d="M155.2,1877.66 C133.53,1877.4 105.23,1869.18 90,1849 C39.4,1781.99 32.19,1175.27 31.17,1008.16 " fill="none" id="UC49-actor2045560071" style="stroke: #A80036; stroke-width: 1.0;"/><!--MD5=[8dac814213dedc131d427c82e6426ea6]
link actor2045560071 to UC50--><path d="M31.84,1008 C35.27,1177.43 49.92,1801.86 90,1881 C108.55,1917.63 152.43,1943.75 173.21,1962.12 " fill="none" id="actor2045560071-UC50" style="stroke: #A80036; stroke-width: 1.0;"/><!--MD5=[9848c28c4a2b5f51e54672cd36822420]
link UC50 to actor2045560071--><path d="M149.86,1973.5 C128.61,1962.31 103.04,1941.75 90,1916 C48.96,1834.96 34.58,1182.13 31.62,1008.19 " fill="none" id="UC50-actor2045560071" style="stroke: #A80036; stroke-width: 1.0;"/><!--MD5=[10143eefea24d686770084cc48be4dc4]
link actor2045560071 to UC51--><path d="M30.64,1008.06 C29.6,1191.62 29.88,1913.4 90,1994 C107.2,2017.06 141.49,2024.52 163.69,2031.73 " fill="none" id="actor2045560071-UC51" style="stroke: #A80036; stroke-width: 1.0;"/><!--MD5=[de4dae605ab10607359d73289fb278d3]
link UC51 to actor2045560071--><path d="M155.13,2057.71 C133.43,2057.48 105.12,2049.27 90,2029 C28.62,1946.72 29.61,1196.15 30.71,1008.26 " fill="none" id="UC51-actor2045560071" style="stroke: #A80036; stroke-width: 1.0;"/><!--MD5=[9dc97e466b090077676c0e380c27b803]
link actor2045560071 to UC52--><path d="M32.07,1008.17 C36.9,1204.61 57.78,2018.65 90,2062 C106.43,2084.11 138.58,2091.88 160.78,2098.82 " fill="none" id="actor2045560071-UC52" style="stroke: #A80036; stroke-width: 1.0;"/><!--MD5=[802e5e2bc7e67ec48e9991110a05dadf]
link UC52 to actor2045560071--><path d="M138.02,2124.02 C120.15,2120.68 101.34,2112.25 90,2097 C57.16,2052.82 36.11,1208.32 31.82,1008.1 " fill="none" id="UC52-actor2045560071" style="stroke: #A80036; stroke-width: 1.0;"/><!--MD5=[185a6daae094c8e695e110e2e337df75]
@startuml
 left to right direction

actor GraphStructure as actor2045560071

	rectangle main{
	 usecase exec as UC27
	actor2045560071- -UC27
	 usecase getRuntime as UC28
	actor2045560071- -UC28
	 usecase waitFor as UC29
	actor2045560071- -UC29
	 usecase println as UC30
	actor2045560071- -UC30
	}
actor println as actor2045560071
UC30- -actor2045560071
actor waitFor as actor2045560071
UC29- -actor2045560071
actor getRuntime as actor2045560071
UC28- -actor2045560071
actor exec as actor2045560071
UC27- -actor2045560071

	rectangle main{
	 usecase println as UC31
	actor2045560071- -UC31
	 usecase waitFor as UC32
	actor2045560071- -UC32
	}
actor waitFor as actor2045560071
UC32- -actor2045560071
actor println as actor2045560071
UC31- -actor2045560071

	rectangle makeFile{
	 usecase write as UC33
	actor2045560071- -UC33
	 usecase close as UC34
	actor2045560071- -UC34
	}
actor close as actor2045560071
UC34- -actor2045560071
actor write as actor2045560071
UC33- -actor2045560071

	rectangle makeGraphScript{
	 usecase append as UC35
	actor2045560071- -UC35
	 usecase getClassList as UC36
	actor2045560071- -UC36
	 usecase getFunctionList as UC37
	actor2045560071- -UC37
	 usecase getMemberList as UC38
	actor2045560071- -UC38
	 usecase toString as UC39
	actor2045560071- -UC39
	}
actor toString as actor2045560071
UC39- -actor2045560071
actor getMemberList as actor2045560071
UC38- -actor2045560071
actor getFunctionList as actor2045560071
UC37- -actor2045560071
actor getClassList as actor2045560071
UC36- -actor2045560071
actor append as actor2045560071
UC35- -actor2045560071

	rectangle classExtends{
	 usecase append as UC40
	actor2045560071- -UC40
	 usecase getName as UC41
	actor2045560071- -UC41
	}
actor getName as actor2045560071
UC41- -actor2045560071
actor append as actor2045560071
UC40- -actor2045560071

	rectangle addListSize{
	 usecase append as UC42
	actor2045560071- -UC42
	}
actor append as actor2045560071
UC42- -actor2045560071

	rectangle classDef{
	 usecase append as UC43
	actor2045560071- -UC43
	}
actor append as actor2045560071
UC43- -actor2045560071

	rectangle addList{
	 usecase append as UC44
	actor2045560071- -UC44
	 usecase getClassList as UC45
	actor2045560071- -UC45
	 usecase getMemberList as UC46
	actor2045560071- -UC46
	 usecase getFunctionList as UC47
	actor2045560071- -UC47
	}
actor getFunctionList as actor2045560071
UC47- -actor2045560071
actor getMemberList as actor2045560071
UC46- -actor2045560071
actor getClassList as actor2045560071
UC45- -actor2045560071
actor append as actor2045560071
UC44- -actor2045560071

	rectangle functionDef{
	 usecase append as UC48
	actor2045560071- -UC48
	 usecase getName as UC49
	actor2045560071- -UC49
	}
actor getName as actor2045560071
UC49- -actor2045560071
actor append as actor2045560071
UC48- -actor2045560071

	rectangle memberDef{
	 usecase append as UC50
	actor2045560071- -UC50
	 usecase getName as UC51
	actor2045560071- -UC51
	 usecase getImageList as UC52
	actor2045560071- -UC52
	}
actor getImageList as actor2045560071
UC52- -actor2045560071
actor getName as actor2045560071
UC51- -actor2045560071
actor append as actor2045560071
UC50- -actor2045560071


@enduml

PlantUML version 1.2020.19(Tue Oct 13 00:10:01 KST 2020)
(APACHE source distribution)
Java Runtime: Java(TM) SE Runtime Environment
JVM: Java HotSpot(TM) 64-Bit Server VM
Default Encoding: MS949
Language: ko
Country: KR
--></g></svg>