<?xml version="1.0" encoding="UTF-8" standalone="no"?><svg xmlns="http://www.w3.org/2000/svg" xmlns:xlink="http://www.w3.org/1999/xlink" contentScriptType="application/ecmascript" contentStyleType="text/css" height="673px" preserveAspectRatio="none" style="width:341px;height:673px;" version="1.1" viewBox="0 0 341 673" width="341px" zoomAndPan="magnify"><defs><filter height="300%" id="f3c2ja6b4isnc" width="300%" x="-1" y="-1"><feGaussianBlur result="blurOut" stdDeviation="2.0"/><feColorMatrix in="blurOut" result="blurOut2" type="matrix" values="0 0 0 0 0 0 0 0 0 0 0 0 0 0 0 0 0 0 .4 0"/><feOffset dx="4.0" dy="4.0" in="blurOut2" result="blurOut3"/><feBlend in="SourceGraphic" in2="blurOut3" mode="normal"/></filter></defs><g><!--MD5=[19cf646e193b9a40ce20afd4a39c7868]
cluster makeDateFolder--><rect fill="#FFFFFF" filter="url(#f3c2ja6b4isnc)" height="88" style="stroke: #000000; stroke-width: 1.5;" width="131" x="172.5" y="7"/><text fill="#000000" font-family="sans-serif" font-size="14" font-weight="bold" lengthAdjust="spacingAndGlyphs" textLength="115" x="180.5" y="25.1533">makeDateFolder</text><!--MD5=[1e829f21a74d4de467c1b519aceec237]
cluster makeFile--><rect fill="#FFFFFF" filter="url(#f3c2ja6b4isnc)" height="224" style="stroke: #000000; stroke-width: 1.5;" width="93" x="191" y="119"/><text fill="#000000" font-family="sans-serif" font-size="14" font-weight="bold" lengthAdjust="spacingAndGlyphs" textLength="63" x="206" y="137.1533">makeFile</text><!--MD5=[e87643375315858534042310e8422e5d]
cluster printLog--><rect fill="#FFFFFF" filter="url(#f3c2ja6b4isnc)" height="294" style="stroke: #000000; stroke-width: 1.5;" width="183" x="146" y="367"/><text fill="#000000" font-family="sans-serif" font-size="14" font-weight="bold" lengthAdjust="spacingAndGlyphs" textLength="59" x="208" y="385.1533">printLog</text><ellipse cx="237.5416" cy="62.0973" fill="#FEFECE" filter="url(#f3c2ja6b4isnc)" rx="27.0416" ry="16.5973" style="stroke: #A80036; stroke-width: 1.5;"/><text fill="#000000" font-family="sans-serif" font-size="14" lengthAdjust="spacingAndGlyphs" textLength="34" x="220.5416" y="68.2121">mkdir</text><ellipse cx="237.5772" cy="174.0973" fill="#FEFECE" filter="url(#f3c2ja6b4isnc)" rx="30.5772" ry="16.5973" style="stroke: #A80036; stroke-width: 1.5;"/><text fill="#000000" font-family="sans-serif" font-size="14" lengthAdjust="spacingAndGlyphs" textLength="39" x="218.0772" y="180.2121">println</text><ellipse cx="237.5061" cy="242.0973" fill="#FEFECE" filter="url(#f3c2ja6b4isnc)" rx="23.5061" ry="16.5973" style="stroke: #A80036; stroke-width: 1.5;"/><text fill="#000000" font-family="sans-serif" font-size="14" lengthAdjust="spacingAndGlyphs" textLength="29" x="223.0061" y="248.2121">write</text><ellipse cx="237.3345" cy="310.0973" fill="#FEFECE" filter="url(#f3c2ja6b4isnc)" rx="26.3345" ry="16.5973" style="stroke: #A80036; stroke-width: 1.5;"/><text fill="#000000" font-family="sans-serif" font-size="14" lengthAdjust="spacingAndGlyphs" textLength="33" x="220.8345" y="316.2121">close</text><ellipse cx="237.3823" cy="422.0973" fill="#FEFECE" filter="url(#f3c2ja6b4isnc)" rx="70.8823" ry="16.5973" style="stroke: #A80036; stroke-width: 1.5;"/><text fill="#000000" font-family="sans-serif" font-size="14" lengthAdjust="spacingAndGlyphs" textLength="96" x="189.3823" y="428.2121">getInputStream</text><ellipse cx="237.2986" cy="490.9597" fill="#FEFECE" filter="url(#f3c2ja6b4isnc)" rx="75.2986" ry="17.4597" style="stroke: #A80036; stroke-width: 1.5;"/><text fill="#000000" font-family="sans-serif" font-size="14" lengthAdjust="spacingAndGlyphs" textLength="108" x="183.2986" y="497.0745">getOutputStream</text><ellipse cx="237.5772" cy="560.0973" fill="#FEFECE" filter="url(#f3c2ja6b4isnc)" rx="30.5772" ry="16.5973" style="stroke: #A80036; stroke-width: 1.5;"/><text fill="#000000" font-family="sans-serif" font-size="14" lengthAdjust="spacingAndGlyphs" textLength="39" x="218.0772" y="566.2121">println</text><ellipse cx="237.598" cy="628.0973" fill="#FEFECE" filter="url(#f3c2ja6b4isnc)" rx="42.598" ry="16.5973" style="stroke: #A80036; stroke-width: 1.5;"/><text fill="#000000" font-family="sans-serif" font-size="14" lengthAdjust="spacingAndGlyphs" textLength="56" x="209.598" y="634.2121">readLine</text><!--MD5=[7cef00015646b70125f20e642565791e]
entity actor260580453--><ellipse cx="54" cy="389.5" fill="#FEFECE" filter="url(#f3c2ja6b4isnc)" rx="8" ry="8" style="stroke: #A80036; stroke-width: 1.5;"/><path d="M54,397.5 L54,424.5 M41,405.5 L67,405.5 M54,424.5 L41,439.5 M54,424.5 L67,439.5 " fill="none" filter="url(#f3c2ja6b4isnc)" style="stroke: #A80036; stroke-width: 1.5;"/><text fill="#000000" font-family="sans-serif" font-size="14" lengthAdjust="spacingAndGlyphs" textLength="96" x="6" y="461.1533">getInputStream</text><!--MD5=[11e2aaa1a2c21811fc6c431e8d1799c7]
link actor260580453 to UC53--><path d="M58.07,379.98 C64.72,317.95 84.43,202.83 138,123 C156.57,95.33 187.81,72.67 210.13,62.59 " fill="none" id="actor260580453-UC53" style="stroke: #A80036; stroke-width: 1.0;"/><!--MD5=[7c8e65b88f2aa8405723ba75c56a9e67]
link UC53 to actor260580453--><path d="M226.14,77.04 C206.04,95.53 161.7,122.69 138,158 C91.16,227.8 70.21,324.58 61.24,379.84 " fill="none" id="UC53-actor260580453" style="stroke: #A80036; stroke-width: 1.0;"/><!--MD5=[906061e96c94b7b80880af05a9acb450]
link actor260580453 to UC54--><path d="M58.7,379.77 C65.85,327.25 85.76,240.31 138,190 C159.11,169.67 192.95,161.45 214.95,162.72 " fill="none" id="actor260580453-UC54" style="stroke: #A80036; stroke-width: 1.0;"/><!--MD5=[bb854125c1576ce3e06a95660a39d916]
link UC54 to actor260580453--><path d="M219.26,187.31 C197.6,195.4 160.54,203.29 138,225 C94.08,267.29 73.02,335.47 63.17,379.86 " fill="none" id="UC54-actor260580453" style="stroke: #A80036; stroke-width: 1.0;"/><!--MD5=[00d0aa8c948b40bfe23945dfdc742607]
link actor260580453 to UC55--><path d="M64.43,379.95 C76.49,342.08 100.43,289.2 138,258 C161.8,238.23 197.75,229.7 219,231.58 " fill="none" id="actor260580453-UC55" style="stroke: #A80036; stroke-width: 1.0;"/><!--MD5=[866fbe63d8b8a5c9fc8fdf21834a37ab]
link UC55 to actor260580453--><path d="M222.23,254.8 C201.57,263.84 163.05,272.19 138,293 C109.96,316.29 89.52,351.64 75.93,379.75 " fill="none" id="UC55-actor260580453" style="stroke: #A80036; stroke-width: 1.0;"/><!--MD5=[d996fc2b6c5154109bc504676edfb247]
link actor260580453 to UC56--><path d="M102.21,380.85 C137.5,356.46 184.31,328.41 212.32,315.39 " fill="none" id="actor260580453-UC56" style="stroke: #A80036; stroke-width: 1.0;"/><!--MD5=[58799dd177de4268a89a5727b581ba4c]
link UC56 to actor260580453--><path d="M224.24,324.38 C199.65,345.44 143.18,381.8 102.21,404.21 " fill="none" id="UC56-actor260580453" style="stroke: #A80036; stroke-width: 1.0;"/><!--MD5=[cc6731d704cfe67f6c9246c0d9f1370b]
link actor260580453 to UC57--><path d="M102.21,409.99 C128.89,408.01 162.15,408 188.89,409.96 " fill="none" id="actor260580453-UC57" style="stroke: #A80036; stroke-width: 1.0;"/><!--MD5=[a6b8620e023538bd23e2f8ef603bbd06]
link UC57 to actor260580453--><path d="M186.67,433.52 C160.32,435.22 128.16,435.16 102.21,433.34 " fill="none" id="UC57-actor260580453" style="stroke: #A80036; stroke-width: 1.0;"/><!--MD5=[6429ec0ccad7695d2db41393c74e10f5]
link actor260580453 to UC58--><path d="M102.25,424.36 C113.89,428.56 126.36,433.55 138,438 C167.67,449.34 202.8,461.53 222.07,473.86 " fill="none" id="actor260580453-UC58" style="stroke: #A80036; stroke-width: 1.0;"/><!--MD5=[ca46be75e806a4a98e4e0cee9cbd3b14]
link UC58 to actor260580453--><path d="M167.99,483.94 C157.91,480.48 147.66,476.69 138,473 C126.36,468.55 113.89,463.56 102.25,458.29 " fill="none" id="UC58-actor260580453" style="stroke: #A80036; stroke-width: 1.0;"/><!--MD5=[c051249739cc6a8a9aa07cc2cfd8cb7c]
link actor260580453 to UC59--><path d="M93.01,464.13 C105.72,479.59 121.02,496.01 138,508 C164.31,526.57 201.65,535.76 221.97,545.68 " fill="none" id="actor260580453-UC59" style="stroke: #A80036; stroke-width: 1.0;"/><!--MD5=[bd7215cc63b1482559bf1c9234522dbb]
link UC59 to actor260580453--><path d="M211.64,569 C190.57,567.75 160.32,558.76 138,543 C109.69,523.01 86.06,490.74 71.35,464.03 " fill="none" id="UC59-actor260580453" style="stroke: #A80036; stroke-width: 1.0;"/><!--MD5=[741d91afa9c6f23e9df0b4ec4724a477]
link actor260580453 to UC60--><path d="M70.13,464.14 C82.67,498.68 104.05,545.82 138,576 C160.98,596.44 196.88,604.72 218.4,613.26 " fill="none" id="actor260580453-UC60" style="stroke: #A80036; stroke-width: 1.0;"/><!--MD5=[03cbeea102195770592d2992a5ee46fe]
link UC60 to actor260580453--><path d="M203.05,637.73 C182.25,635.67 156.12,627.11 138,611 C95.13,572.89 72.3,507.74 62,464.25 " fill="none" id="UC60-actor260580453" style="stroke: #A80036; stroke-width: 1.0;"/><!--MD5=[c61fc4135546846a45c1230ec649dc74]
@startuml
 left to right direction

actor Base as actor260580453

	rectangle makeDateFolder{
	 usecase mkdir as UC53
	actor260580453- -UC53
	}
actor mkdir as actor260580453
UC53- -actor260580453

	rectangle makeFile{
	 usecase println as UC54
	actor260580453- -UC54
	 usecase write as UC55
	actor260580453- -UC55
	 usecase close as UC56
	actor260580453- -UC56
	}
actor close as actor260580453
UC56- -actor260580453
actor write as actor260580453
UC55- -actor260580453
actor println as actor260580453
UC54- -actor260580453

	rectangle printLog{
	 usecase getInputStream as UC57
	actor260580453- -UC57
	 usecase getOutputStream as UC58
	actor260580453- -UC58
	 usecase println as UC59
	actor260580453- -UC59
	 usecase readLine as UC60
	actor260580453- -UC60
	}
actor readLine as actor260580453
UC60- -actor260580453
actor println as actor260580453
UC59- -actor260580453
actor getOutputStream as actor260580453
UC58- -actor260580453
actor getInputStream as actor260580453
UC57- -actor260580453


@enduml

PlantUML version 1.2020.19(Tue Oct 13 00:10:01 KST 2020)
(APACHE source distribution)
Java Runtime: Java(TM) SE Runtime Environment
JVM: Java HotSpot(TM) 64-Bit Server VM
Default Encoding: MS949
Language: ko
Country: KR
--></g></svg>