<?xml version="1.0" encoding="UTF-8" standalone="no"?><svg xmlns="http://www.w3.org/2000/svg" xmlns:xlink="http://www.w3.org/1999/xlink" contentScriptType="application/ecmascript" contentStyleType="text/css" height="1360px" preserveAspectRatio="none" style="width:317px;height:1360px;" version="1.1" viewBox="0 0 317 1360" width="317px" zoomAndPan="magnify"><defs><filter height="300%" id="f1q4caj2a8l6ks" width="300%" x="-1" y="-1"><feGaussianBlur result="blurOut" stdDeviation="2.0"/><feColorMatrix in="blurOut" result="blurOut2" type="matrix" values="0 0 0 0 0 0 0 0 0 0 0 0 0 0 0 0 0 0 .4 0"/><feOffset dx="4.0" dy="4.0" in="blurOut2" result="blurOut3"/><feBlend in="SourceGraphic" in2="blurOut3" mode="normal"/></filter></defs><g><!--MD5=[f6cc7c11640e1aa40840472fadf01e77]
cluster makeASTList--><rect fill="#FFFFFF" filter="url(#f1q4caj2a8l6ks)" height="88" style="stroke: #000000; stroke-width: 1.5;" width="104" x="145" y="7"/><text fill="#000000" font-family="sans-serif" font-size="14" font-weight="bold" lengthAdjust="spacingAndGlyphs" textLength="88" x="153" y="25.1533">makeASTList</text><!--MD5=[e5dd8a5917535f46f5bc2692b2c9a989]
cluster makeFileList--><rect fill="#FFFFFF" filter="url(#f1q4caj2a8l6ks)" height="88" style="stroke: #000000; stroke-width: 1.5;" width="104" x="145" y="119"/><text fill="#000000" font-family="sans-serif" font-size="14" font-weight="bold" lengthAdjust="spacingAndGlyphs" textLength="88" x="153" y="137.1533">makeFileList</text><!--MD5=[62e981aedead5d296a0ed090cac6c220]
cluster init--><rect fill="#FFFFFF" filter="url(#f1q4caj2a8l6ks)" height="1005" style="stroke: #000000; stroke-width: 1.5;" width="216" x="89" y="231"/><text fill="#000000" font-family="sans-serif" font-size="14" font-weight="bold" lengthAdjust="spacingAndGlyphs" textLength="22" x="186" y="249.1533">init</text><!--MD5=[a70b0d373322012744ecc119c63f921b]
cluster main--><rect fill="#FFFFFF" filter="url(#f1q4caj2a8l6ks)" height="88" style="stroke: #000000; stroke-width: 1.5;" width="93" x="150.5" y="1260"/><text fill="#000000" font-family="sans-serif" font-size="14" font-weight="bold" lengthAdjust="spacingAndGlyphs" textLength="33" x="180.5" y="1278.1533">main</text><ellipse cx="196.9836" cy="62.0869" fill="#FEFECE" filter="url(#f1q4caj2a8l6ks)" rx="19.9836" ry="16.5869" style="stroke: #A80036; stroke-width: 1.5;"/><text fill="#000000" font-family="sans-serif" font-size="14" lengthAdjust="spacingAndGlyphs" textLength="24" x="184.9836" y="68.2016">size</text><ellipse cx="196.9836" cy="174.0869" fill="#FEFECE" filter="url(#f1q4caj2a8l6ks)" rx="19.9836" ry="16.5869" style="stroke: #A80036; stroke-width: 1.5;"/><text fill="#000000" font-family="sans-serif" font-size="14" lengthAdjust="spacingAndGlyphs" textLength="24" x="184.9836" y="180.2016">add</text><ellipse cx="196.862" cy="285.8724" fill="#FEFECE" filter="url(#f1q4caj2a8l6ks)" rx="72.362" ry="16.8724" style="stroke: #A80036; stroke-width: 1.5;"/><text fill="#000000" font-family="sans-serif" font-size="14" lengthAdjust="spacingAndGlyphs" textLength="100" x="146.862" y="291.9871">printStackTrace</text><ellipse cx="196.9411" cy="355.0973" fill="#FEFECE" filter="url(#f1q4caj2a8l6ks)" rx="36.9411" ry="16.5973" style="stroke: #A80036; stroke-width: 1.5;"/><text fill="#000000" font-family="sans-serif" font-size="14" lengthAdjust="spacingAndGlyphs" textLength="48" x="172.9411" y="361.2121">append</text><ellipse cx="197.0061" cy="423.0973" fill="#FEFECE" filter="url(#f1q4caj2a8l6ks)" rx="23.5061" ry="16.5973" style="stroke: #A80036; stroke-width: 1.5;"/><text fill="#000000" font-family="sans-serif" font-size="14" lengthAdjust="spacingAndGlyphs" textLength="29" x="182.5061" y="429.2121">read</text><ellipse cx="196.8345" cy="491.0973" fill="#FEFECE" filter="url(#f1q4caj2a8l6ks)" rx="26.3345" ry="16.5973" style="stroke: #A80036; stroke-width: 1.5;"/><text fill="#000000" font-family="sans-serif" font-size="14" lengthAdjust="spacingAndGlyphs" textLength="33" x="180.3345" y="497.2121">close</text><ellipse cx="196.8762" cy="559.0973" fill="#FEFECE" filter="url(#f1q4caj2a8l6ks)" rx="50.3762" ry="16.5973" style="stroke: #A80036; stroke-width: 1.5;"/><text fill="#000000" font-family="sans-serif" font-size="14" lengthAdjust="spacingAndGlyphs" textLength="67" x="163.3762" y="565.2121">newParser</text><ellipse cx="197.234" cy="627.0973" fill="#FEFECE" filter="url(#f1q4caj2a8l6ks)" rx="36.234" ry="16.5973" style="stroke: #A80036; stroke-width: 1.5;"/><text fill="#000000" font-family="sans-serif" font-size="14" lengthAdjust="spacingAndGlyphs" textLength="47" x="173.734" y="633.2121">setKind</text><ellipse cx="196.7548" cy="695.0973" fill="#FEFECE" filter="url(#f1q4caj2a8l6ks)" rx="48.2548" ry="16.5973" style="stroke: #A80036; stroke-width: 1.5;"/><text fill="#000000" font-family="sans-serif" font-size="14" lengthAdjust="spacingAndGlyphs" textLength="64" x="164.7548" y="701.2121">setSource</text><ellipse cx="196.9472" cy="763.0973" fill="#FEFECE" filter="url(#f1q4caj2a8l6ks)" rx="57.4472" ry="16.5973" style="stroke: #A80036; stroke-width: 1.5;"/><text fill="#000000" font-family="sans-serif" font-size="14" lengthAdjust="spacingAndGlyphs" textLength="77" x="158.4472" y="769.2121">toCharArray</text><ellipse cx="197.1482" cy="831.0973" fill="#FEFECE" filter="url(#f1q4caj2a8l6ks)" rx="37.6482" ry="16.5973" style="stroke: #A80036; stroke-width: 1.5;"/><text fill="#000000" font-family="sans-serif" font-size="14" lengthAdjust="spacingAndGlyphs" textLength="49" x="172.6482" y="837.2121">toString</text><ellipse cx="197.0847" cy="903.8169" fill="#FEFECE" filter="url(#f1q4caj2a8l6ks)" rx="92.0847" ry="20.8169" style="stroke: #A80036; stroke-width: 1.5;"/><text fill="#000000" font-family="sans-serif" font-size="14" lengthAdjust="spacingAndGlyphs" textLength="150" x="122.0847" y="909.9317">setStatementsRecovery</text><ellipse cx="197.0569" cy="979.9114" fill="#FEFECE" filter="url(#f1q4caj2a8l6ks)" rx="85.0569" ry="19.4114" style="stroke: #A80036; stroke-width: 1.5;"/><text fill="#000000" font-family="sans-serif" font-size="14" lengthAdjust="spacingAndGlyphs" textLength="133" x="130.5569" y="986.0261">setBindingsRecovery</text><ellipse cx="196.9543" cy="1053.1909" fill="#FEFECE" filter="url(#f1q4caj2a8l6ks)" rx="81.4543" ry="18.6909" style="stroke: #A80036; stroke-width: 1.5;"/><text fill="#000000" font-family="sans-serif" font-size="14" lengthAdjust="spacingAndGlyphs" textLength="124" x="134.9543" y="1059.3056">setResolveBindings</text><ellipse cx="197.2443" cy="1127.1489" fill="#FEFECE" filter="url(#f1q4caj2a8l6ks)" rx="88.7443" ry="20.1489" style="stroke: #A80036; stroke-width: 1.5;"/><text fill="#000000" font-family="sans-serif" font-size="14" lengthAdjust="spacingAndGlyphs" textLength="142" x="126.2443" y="1133.2636">setComplianceOptions</text><ellipse cx="196.9543" cy="1201.1909" fill="#FEFECE" filter="url(#f1q4caj2a8l6ks)" rx="81.4543" ry="18.6909" style="stroke: #A80036; stroke-width: 1.5;"/><text fill="#000000" font-family="sans-serif" font-size="14" lengthAdjust="spacingAndGlyphs" textLength="124" x="134.9543" y="1207.3056">setCompilerOptions</text><ellipse cx="197.0772" cy="1315.0973" fill="#FEFECE" filter="url(#f1q4caj2a8l6ks)" rx="30.5772" ry="16.5973" style="stroke: #A80036; stroke-width: 1.5;"/><text fill="#000000" font-family="sans-serif" font-size="14" lengthAdjust="spacingAndGlyphs" textLength="39" x="177.5772" y="1321.2121">println</text><!--MD5=[0d013428919e86c9b087b4ef23cd7f7d]
entity actor1585824283--><ellipse cx="25.5" cy="662.5" fill="#FEFECE" filter="url(#f1q4caj2a8l6ks)" rx="8" ry="8" style="stroke: #A80036; stroke-width: 1.5;"/><path d="M25.5,670.5 L25.5,697.5 M12.5,678.5 L38.5,678.5 M25.5,697.5 L12.5,712.5 M25.5,697.5 L38.5,712.5 " fill="none" filter="url(#f1q4caj2a8l6ks)" style="stroke: #A80036; stroke-width: 1.5;"/><text fill="#000000" font-family="sans-serif" font-size="14" lengthAdjust="spacingAndGlyphs" textLength="39" x="6" y="734.1533">println</text><!--MD5=[5c92be23129032ae2d53cb6af233fcf4]
link actor1585824283 to UC172--><path d="M26.16,652.82 C25.69,535.53 28.72,211.52 81,123 C103.29,85.25 151.55,61.39 177.91,57.01 " fill="none" id="actor1585824283-UC172" style="stroke: #A80036; stroke-width: 1.0;"/><!--MD5=[20d85e055a8357f9d01c1b7ba794254e]
link UC172 to actor1585824283--><path d="M184.72,75.1 C160.84,92.03 105.39,116.7 81,158 C31.12,242.46 26.08,541.33 26.13,652.98 " fill="none" id="UC172-actor1585824283" style="stroke: #A80036; stroke-width: 1.0;"/><!--MD5=[baba2e18fad7e4491cc6ad4dda2188e9]
link actor1585824283 to UC173--><path d="M27.14,652.75 C29.39,551.96 39.31,303.65 81,235 C103.63,197.73 151.29,173.82 177.6,169.16 " fill="none" id="actor1585824283-UC173" style="stroke: #A80036; stroke-width: 1.0;"/><!--MD5=[70efc918f7a361eb136626da5a7e8a6f]
link UC173 to actor1585824283--><path d="M184.8,187.15 C161.07,204.17 105.9,229.01 81,270 C41.77,334.6 30.67,558.3 27.62,652.86 " fill="none" id="UC173-actor1585824283" style="stroke: #A80036; stroke-width: 1.0;"/><!--MD5=[bb6f32cbc029e724320810c4e1652165]
link actor1585824283 to UC174--><path d="M26.93,652.7 C28.65,561.62 37.32,353.82 81,303 C98.75,282.35 128.29,273.66 152.98,272.48 " fill="none" id="actor1585824283-UC174" style="stroke: #A80036; stroke-width: 1.0;"/><!--MD5=[b9f5b05519dfb595ed47844cb4072757]
link UC174 to actor1585824283--><path d="M161.55,300.88 C135.47,306.76 100.86,314.89 81,338 C40.37,385.27 30.03,568.39 27.4,652.72 " fill="none" id="UC174-actor1585824283" style="stroke: #A80036; stroke-width: 1.0;"/><!--MD5=[b386951717ea46c732021b18447207cf]
link actor1585824283 to UC175--><path d="M28.06,652.95 C32.09,574.13 45.16,411.07 81,371 C104.46,344.78 147.06,338.36 173.31,342.2 " fill="none" id="actor1585824283-UC175" style="stroke: #A80036; stroke-width: 1.0;"/><!--MD5=[f2f95510e464adf9f9489081c0d0ac34]
link UC175 to actor1585824283--><path d="M172.37,367.36 C146.06,373.51 104.18,380.09 81,406 C48.31,442.55 34.56,581.44 29.34,652.85 " fill="none" id="UC175-actor1585824283" style="stroke: #A80036; stroke-width: 1.0;"/><!--MD5=[2ef68649893ec122252760830ce7a108]
link actor1585824283 to UC176--><path d="M29.79,652.97 C36.41,587.7 53.14,468.66 81,439 C107.09,411.23 154.64,405.79 179.64,411.52 " fill="none" id="actor1585824283-UC176" style="stroke: #A80036; stroke-width: 1.0;"/><!--MD5=[a120cfda16f2eb2f12826209d07d60af]
link UC176 to actor1585824283--><path d="M179.23,433.85 C154.12,440.85 106.95,446.38 81,474 C56.4,500.18 40.48,596.03 32.54,652.88 " fill="none" id="UC176-actor1585824283" style="stroke: #A80036; stroke-width: 1.0;"/><!--MD5=[4eb4dda35d05291317e2e0ad9d0c8971]
link actor1585824283 to UC177--><path d="M27.85,652.73 C31.18,609.31 42.55,544.59 81,507 C107.5,481.1 152.75,474.78 177.86,479.38 " fill="none" id="actor1585824283-UC177" style="stroke: #A80036; stroke-width: 1.0;"/><!--MD5=[b66cb8554e4be5e171174e6a785f5ff8]
link UC177 to actor1585824283--><path d="M177.86,502.62 C152.75,509.78 107.5,516.1 81,542 C50.52,571.79 37.06,618.62 31.13,652.96 " fill="none" id="UC177-actor1585824283" style="stroke: #A80036; stroke-width: 1.0;"/><!--MD5=[4d5fc24e1e012539f206f125f9cde837]
link actor1585824283 to UC178--><path d="M34.62,652.96 C42.76,626.2 57.5,594.15 81,575 C103.92,556.32 136.79,547.91 161.53,547.18 " fill="none" id="actor1585824283-UC178" style="stroke: #A80036; stroke-width: 1.0;"/><!--MD5=[6605a38164ba798919cd7d909babd9f8]
link UC178 to actor1585824283--><path d="M171.91,573.33 C146.74,580.64 107.31,588.56 81,610 C65.44,622.68 53.72,641.02 45.21,657.65 " fill="none" id="UC178-actor1585824283" style="stroke: #A80036; stroke-width: 1.0;"/><!--MD5=[356a132714ec32b9b79a6bfe1892111f]
link actor1585824283 to UC179--><path d="M45.47,665.34 C55.63,656.56 68.59,648.58 81,643 C108.53,630.62 141.77,621.35 165.42,618.92 " fill="none" id="actor1585824283-UC179" style="stroke: #A80036; stroke-width: 1.0;"/><!--MD5=[4f55cd718dc1584fbac036d6585b4d27]
link UC179 to actor1585824283--><path d="M179.89,641.6 C157.19,652.3 114.8,662.8 81,678 C68.59,683.58 55.63,691.56 45.47,696.55 " fill="none" id="UC179-actor1585824283" style="stroke: #A80036; stroke-width: 1.0;"/><!--MD5=[5de4cced221f59842151bb8a4dbef362]
link actor1585824283 to UC180--><path d="M45.29,686.13 C73.13,680.86 125.82,680.09 160.93,683.82 " fill="none" id="actor1585824283-UC180" style="stroke: #A80036; stroke-width: 1.0;"/><!--MD5=[859fab3b401481cbfc2d9fc312f24cb8]
link UC180 to actor1585824283--><path d="M159.95,705.66 C124.85,709.07 72.87,708.31 45.29,703.37 " fill="none" id="UC180-actor1585824283" style="stroke: #A80036; stroke-width: 1.0;"/><!--MD5=[a099a401eed845d3725d828a91105d3c]
link actor1585824283 to UC181--><path d="M45.47,692.56 C55.63,697.44 68.59,705.42 81,711 C114.23,725.94 155.77,736.34 178.73,747.18 " fill="none" id="actor1585824283-UC181" style="stroke: #A80036; stroke-width: 1.0;"/><!--MD5=[3e5c16c6bf5939807bcf8fe39aae4327]
link UC181 to actor1585824283--><path d="M140.21,765.81 C121.04,761.38 99.7,754.41 81,746 C68.59,740.42 55.63,732.44 45.47,723.77 " fill="none" id="UC181-actor1585824283" style="stroke: #A80036; stroke-width: 1.0;"/><!--MD5=[745a9d68fab7bede15d4e04e23adbbbb]
link actor1585824283 to UC182--><path d="M45.21,731.41 C53.72,747.98 65.44,766.32 81,779 C108.76,801.62 151.13,809.19 175.95,817.19 " fill="none" id="actor1585824283-UC182" style="stroke: #A80036; stroke-width: 1.0;"/><!--MD5=[158583cbcfc43b3fdfac4305dab6ed0e]
link UC182 to actor1585824283--><path d="M169.07,842.02 C143.85,842.76 106.34,834.65 81,814 C57.73,795.04 43.05,763.44 34.87,737.04 " fill="none" id="UC182-actor1585824283" style="stroke: #A80036; stroke-width: 1.0;"/><!--MD5=[8a3b03055185e09cb44383cbd79b52c3]
link actor1585824283 to UC183--><path d="M31.79,737.3 C38.01,771.19 51.55,817.06 81,847 C101.47,867.82 133.45,877.53 158.5,884.9 " fill="none" id="actor1585824283-UC183" style="stroke: #A80036; stroke-width: 1.0;"/><!--MD5=[a0148fed78f03c27df7341ac742ff99c]
link UC183 to actor1585824283--><path d="M106.23,900.07 C96.93,895.34 88.24,889.37 81,882 C43.51,843.88 31.8,779.95 28.15,737.09 " fill="none" id="UC183-actor1585824283" style="stroke: #A80036; stroke-width: 1.0;"/><!--MD5=[eb39d37160c8eb8945ec6f2be0ee0bc8]
link actor1585824283 to UC184--><path d="M32.25,737.01 C40.02,795.58 55.88,896.17 81,924 C101.08,946.24 134.44,955.49 160.07,962.43 " fill="none" id="actor1585824283-UC184" style="stroke: #A80036; stroke-width: 1.0;"/><!--MD5=[2d73d8d3e9737d451813685a4129ec51]
link UC184 to actor1585824283--><path d="M111.86,980.53 C100.26,975.43 89.45,968.36 81,959 C52.67,927.63 36.13,803.77 29.67,737.03 " fill="none" id="UC184-actor1585824283" style="stroke: #A80036; stroke-width: 1.0;"/><!--MD5=[503c838185be2fc5f008a398562fe14b]
link actor1585824283 to UC185--><path d="M28.91,737.05 C33.62,811.36 46.79,959.81 81,999 C100.67,1021.54 134.25,1030.13 160.06,1036.46 " fill="none" id="actor1585824283-UC185" style="stroke: #A80036; stroke-width: 1.0;"/><!--MD5=[3defda90b473107b52398cd920229164]
link UC185 to actor1585824283--><path d="M118.82,1058.25 C104.52,1053.27 90.97,1045.43 81,1034 C43.72,991.28 31.43,818.78 27.83,737.24 " fill="none" id="UC185-actor1585824283" style="stroke: #A80036; stroke-width: 1.0;"/><!--MD5=[3017daddaa8efa453e48f215329fc1c7]
link actor1585824283 to UC186--><path d="M27.08,737.29 C29.18,824.93 38.68,1020.2 81,1071 C99.51,1093.21 131.31,1102.53 156.78,1109.18 " fill="none" id="actor1585824283-UC186" style="stroke: #A80036; stroke-width: 1.0;"/><!--MD5=[d9cd757fb02998f1d401ecac8d2465e2]
link UC186 to actor1585824283--><path d="M108.33,1126.77 C97.93,1121.71 88.4,1114.89 81,1106 C35.64,1051.55 27.98,831.14 26.73,737.13 " fill="none" id="UC186-actor1585824283" style="stroke: #A80036; stroke-width: 1.0;"/><!--MD5=[5e17b802fe5c25b1e3424a6215e624e7]
link actor1585824283 to UC187--><path d="M25.69,737.36 C25.07,837.65 29.56,1083.37 81,1146 C100.1,1169.26 133.92,1178.07 159.96,1184.49 " fill="none" id="actor1585824283-UC187" style="stroke: #A80036; stroke-width: 1.0;"/><!--MD5=[f60191b2031fe55f25ad63e419ae189e]
link UC187 to actor1585824283--><path d="M118.32,1205.95 C104.06,1200.81 90.65,1192.75 81,1181 C26.57,1114.73 24.71,843.45 25.84,737.3 " fill="none" id="UC187-actor1585824283" style="stroke: #A80036; stroke-width: 1.0;"/><!--MD5=[f988f03ad19ddcbd9dc484b7597c9576]
link actor1585824283 to UC188--><path d="M26.27,737.36 C26.59,847.27 32.48,1136.06 81,1218 C104.82,1258.23 158.09,1282.7 182.86,1300.02 " fill="none" id="actor1585824283-UC188" style="stroke: #A80036; stroke-width: 1.0;"/><!--MD5=[4c96db63672c3463785c0f9258599a82]
link UC188 to actor1585824283--><path d="M166.4,1316.45 C139.24,1308.02 100.38,1285.72 81,1253 C30.01,1166.9 26.1,852.39 26.26,737.17 " fill="none" id="UC188-actor1585824283" style="stroke: #A80036; stroke-width: 1.0;"/><!--MD5=[3f754c861bdaba8c4202e1b8badc90b0]
@startuml
 left to right direction

actor JavaParser as actor1585824283

	rectangle makeASTList{
	 usecase size as UC172
	actor1585824283- -UC172
	}
actor size as actor1585824283
UC172- -actor1585824283

	rectangle makeFileList{
	 usecase add as UC173
	actor1585824283- -UC173
	}
actor add as actor1585824283
UC173- -actor1585824283

	rectangle init{
	 usecase printStackTrace as UC174
	actor1585824283- -UC174
	 usecase append as UC175
	actor1585824283- -UC175
	 usecase read as UC176
	actor1585824283- -UC176
	 usecase close as UC177
	actor1585824283- -UC177
	 usecase newParser as UC178
	actor1585824283- -UC178
	 usecase setKind as UC179
	actor1585824283- -UC179
	 usecase setSource as UC180
	actor1585824283- -UC180
	 usecase toCharArray as UC181
	actor1585824283- -UC181
	 usecase toString as UC182
	actor1585824283- -UC182
	 usecase setStatementsRecovery as UC183
	actor1585824283- -UC183
	 usecase setBindingsRecovery as UC184
	actor1585824283- -UC184
	 usecase setResolveBindings as UC185
	actor1585824283- -UC185
	 usecase setComplianceOptions as UC186
	actor1585824283- -UC186
	 usecase setCompilerOptions as UC187
	actor1585824283- -UC187
	}
actor setCompilerOptions as actor1585824283
UC187- -actor1585824283
actor setComplianceOptions as actor1585824283
UC186- -actor1585824283
actor setResolveBindings as actor1585824283
UC185- -actor1585824283
actor setBindingsRecovery as actor1585824283
UC184- -actor1585824283
actor setStatementsRecovery as actor1585824283
UC183- -actor1585824283
actor toString as actor1585824283
UC182- -actor1585824283
actor toCharArray as actor1585824283
UC181- -actor1585824283
actor setSource as actor1585824283
UC180- -actor1585824283
actor setKind as actor1585824283
UC179- -actor1585824283
actor newParser as actor1585824283
UC178- -actor1585824283
actor close as actor1585824283
UC177- -actor1585824283
actor read as actor1585824283
UC176- -actor1585824283
actor append as actor1585824283
UC175- -actor1585824283
actor printStackTrace as actor1585824283
UC174- -actor1585824283

	rectangle main{
	 usecase println as UC188
	actor1585824283- -UC188
	}
actor println as actor1585824283
UC188- -actor1585824283


@enduml

PlantUML version 1.2020.19(Tue Oct 13 00:10:01 KST 2020)
(APACHE source distribution)
Java Runtime: Java(TM) SE Runtime Environment
JVM: Java HotSpot(TM) 64-Bit Server VM
Default Encoding: MS949
Language: ko
Country: KR
--></g></svg>