<?xml version="1.0" encoding="UTF-8" standalone="no"?><svg xmlns="http://www.w3.org/2000/svg" xmlns:xlink="http://www.w3.org/1999/xlink" contentScriptType="application/ecmascript" contentStyleType="text/css" height="498px" preserveAspectRatio="none" style="width:361px;height:498px;" version="1.1" viewBox="0 0 361 498" width="361px" zoomAndPan="magnify"><defs><filter height="300%" id="f15mo9wk3anzvk" width="300%" x="-1" y="-1"><feGaussianBlur result="blurOut" stdDeviation="2.0"/><feColorMatrix in="blurOut" result="blurOut2" type="matrix" values="0 0 0 0 0 0 0 0 0 0 0 0 0 0 0 0 0 0 .4 0"/><feOffset dx="4.0" dy="4.0" in="blurOut2" result="blurOut3"/><feBlend in="SourceGraphic" in2="blurOut3" mode="normal"/></filter></defs><g><!--MD5=[96cb5ba73e1a787dabda12a2bbaf8f21]
cluster connectTarget--><polygon fill="#FFFFFF" filter="url(#f15mo9wk3anzvk)" points="16,6,124,6,131,31.2295,344,31.2295,344,491,16,491,16,6" style="stroke: #000000; stroke-width: 1.5;"/><line style="stroke: #000000; stroke-width: 1.5;" x1="16" x2="131" y1="31.2295" y2="31.2295"/><text fill="#000000" font-family="sans-serif" font-size="14" font-weight="bold" lengthAdjust="spacingAndGlyphs" textLength="102" x="20" y="24.1533">connectTarget</text><!--MD5=[e71d973cb899e69e078819684e647dab]
class connectTarget.A--><rect codeLine="1" fill="#FEFECE" filter="url(#f15mo9wk3anzvk)" height="430.1677" id="connectTarget.A" style="stroke: #A80036; stroke-width: 1.5;" width="297" x="32" y="45"/><ellipse cx="172.75" cy="61" fill="#ADD1B2" rx="11" ry="11" style="stroke: #A80036; stroke-width: 1.0;"/><path d="M172.3125,54.5156 Q169.5781,54.5156 168.5,56.1406 Q167.3594,57.8594 167.3594,60.7813 Q167.3594,64.0781 168.5156,65.7813 Q169.5,67.2813 172.1094,67.2813 Q173.6875,67.2813 174.5625,66.4531 Q175.5469,65.5 175.6875,63.375 Q175.6875,63.0781 175.5156,62.9063 Q175.3906,62.75 175.1719,62.7344 Q173.9531,62.7344 173.7969,62.8594 Q173.625,63.0156 173.625,63.2813 Q173.5938,64.7656 172.9375,65.5781 Q172.3281,66.375 172.25,66.375 Q170.9219,66.375 170.1406,64.7813 Q169.3906,63.2344 169.3906,60.75 Q169.3906,58.125 170.3281,56.6719 Q171.1563,55.4219 172.4375,55.4219 Q172.4375,55.4219 172.7813,56.0469 Q173.4063,56.7188 173.5469,57.875 Q173.6563,58.4531 175.125,58.2344 Q175.6563,58.1563 175.625,57.7344 Q175.4531,56.2969 174.7344,55.4844 Q173.875,54.5156 172.3125,54.5156 Z "/><text fill="#000000" font-family="sans-serif" font-size="12" lengthAdjust="spacingAndGlyphs" textLength="7" x="193.25" y="66.6045">A</text><line style="stroke: #A80036; stroke-width: 1.5;" x1="33" x2="328" y1="77" y2="77"/><line style="stroke: #A80036; stroke-width: 1.5;" x1="33" x2="160.5" y1="92.5544" y2="92.5544"/><text fill="#008000" font-family="sans-serif" font-size="11" font-weight="bold" lengthAdjust="spacingAndGlyphs" textLength="40" x="160.5" y="97.1919">has list</text><line style="stroke: #A80036; stroke-width: 1.5;" x1="200.5" x2="328" y1="92.5544" y2="92.5544"/><line style="stroke: #A80036; stroke-width: 1.0; stroke-dasharray: 1.0,2.0;" x1="33" x2="167.5" y1="115.2178" y2="115.2178"/><text fill="#000000" font-family="sans-serif" font-size="11" lengthAdjust="spacingAndGlyphs" textLength="26" x="167.5" y="119.8552">class</text><line style="stroke: #A80036; stroke-width: 1.0; stroke-dasharray: 1.0,2.0;" x1="193.5" x2="328" y1="115.2178" y2="115.2178"/><line style="stroke: #A80036; stroke-width: 1.0; stroke-dasharray: 1.0,2.0;" x1="33" x2="161.5" y1="137.8811" y2="137.8811"/><text fill="#000000" font-family="sans-serif" font-size="11" lengthAdjust="spacingAndGlyphs" textLength="38" x="161.5" y="142.5186">member</text><line style="stroke: #A80036; stroke-width: 1.0; stroke-dasharray: 1.0,2.0;" x1="199.5" x2="328" y1="137.8811" y2="137.8811"/><text fill="#000000" font-family="sans-serif" font-size="11" lengthAdjust="spacingAndGlyphs" textLength="120" x="38" y="180.7908">void AC() (1524960486);</text><text fill="#000000" font-family="sans-serif" font-size="11" lengthAdjust="spacingAndGlyphs" textLength="193" x="38" y="195.8997">void Ab(connectTarget.B) (117009527);</text><text fill="#000000" font-family="sans-serif" font-size="11" lengthAdjust="spacingAndGlyphs" textLength="112" x="38" y="211.0085">void Ba() (199640888);</text><line style="stroke: #A80036; stroke-width: 1.0; stroke-dasharray: 1.0,2.0;" x1="33" x2="163" y1="160.5444" y2="160.5444"/><text fill="#000000" font-family="sans-serif" font-size="11" lengthAdjust="spacingAndGlyphs" textLength="35" x="163" y="165.1819">method</text><line style="stroke: #A80036; stroke-width: 1.0; stroke-dasharray: 1.0,2.0;" x1="198" x2="328" y1="160.5444" y2="160.5444"/><line style="stroke: #A80036; stroke-width: 1.5;" x1="33" x2="153" y1="224.98" y2="224.98"/><text fill="#0000FF" font-family="sans-serif" font-size="11" font-weight="bold" lengthAdjust="spacingAndGlyphs" textLength="55" x="153" y="229.6174">calling list</text><line style="stroke: #A80036; stroke-width: 1.5;" x1="208" x2="328" y1="224.98" y2="224.98"/><text fill="#000000" font-family="sans-serif" font-size="11" lengthAdjust="spacingAndGlyphs" textLength="81" x="38" y="267.8896">C (1000975683);</text><text fill="#000000" font-family="sans-serif" font-size="11" lengthAdjust="spacingAndGlyphs" textLength="81" x="38" y="282.9985">B (1238959340);</text><line style="stroke: #A80036; stroke-width: 1.0; stroke-dasharray: 1.0,2.0;" x1="33" x2="167.5" y1="247.6433" y2="247.6433"/><text fill="#000000" font-family="sans-serif" font-size="11" lengthAdjust="spacingAndGlyphs" textLength="26" x="167.5" y="252.2808">class</text><line style="stroke: #A80036; stroke-width: 1.0; stroke-dasharray: 1.0,2.0;" x1="193.5" x2="328" y1="247.6433" y2="247.6433"/><line style="stroke: #A80036; stroke-width: 1.0; stroke-dasharray: 1.0,2.0;" x1="33" x2="161.5" y1="296.97" y2="296.97"/><text fill="#000000" font-family="sans-serif" font-size="11" lengthAdjust="spacingAndGlyphs" textLength="38" x="161.5" y="301.6074">member</text><line style="stroke: #A80036; stroke-width: 1.0; stroke-dasharray: 1.0,2.0;" x1="199.5" x2="328" y1="296.97" y2="296.97"/><text fill="#000000" font-family="sans-serif" font-size="11" lengthAdjust="spacingAndGlyphs" textLength="108" x="38" y="339.8796">void AC() (76432244);</text><text fill="#000000" font-family="sans-serif" font-size="11" lengthAdjust="spacingAndGlyphs" textLength="119" x="38" y="354.9885">void Ab() (1030228826);</text><line style="stroke: #A80036; stroke-width: 1.0; stroke-dasharray: 1.0,2.0;" x1="33" x2="163" y1="319.6333" y2="319.6333"/><text fill="#000000" font-family="sans-serif" font-size="11" lengthAdjust="spacingAndGlyphs" textLength="35" x="163" y="324.2708">method</text><line style="stroke: #A80036; stroke-width: 1.0; stroke-dasharray: 1.0,2.0;" x1="198" x2="328" y1="319.6333" y2="319.6333"/><line style="stroke: #A80036; stroke-width: 1.5;" x1="33" x2="146.5" y1="368.96" y2="368.96"/><text fill="#FFA500" font-family="sans-serif" font-size="11" font-weight="bold" lengthAdjust="spacingAndGlyphs" textLength="68" x="146.5" y="373.5974">called by list</text><line style="stroke: #A80036; stroke-width: 1.5;" x1="214.5" x2="328" y1="368.96" y2="368.96"/><text fill="#000000" font-family="sans-serif" font-size="11" lengthAdjust="spacingAndGlyphs" textLength="81" x="38" y="411.8696">B (1238959340);</text><line style="stroke: #A80036; stroke-width: 1.0; stroke-dasharray: 1.0,2.0;" x1="33" x2="167.5" y1="391.6233" y2="391.6233"/><text fill="#000000" font-family="sans-serif" font-size="11" lengthAdjust="spacingAndGlyphs" textLength="26" x="167.5" y="396.2607">class</text><line style="stroke: #A80036; stroke-width: 1.0; stroke-dasharray: 1.0,2.0;" x1="193.5" x2="328" y1="391.6233" y2="391.6233"/><line style="stroke: #A80036; stroke-width: 1.0; stroke-dasharray: 1.0,2.0;" x1="33" x2="161.5" y1="425.8411" y2="425.8411"/><text fill="#000000" font-family="sans-serif" font-size="11" lengthAdjust="spacingAndGlyphs" textLength="38" x="161.5" y="430.4785">member</text><line style="stroke: #A80036; stroke-width: 1.0; stroke-dasharray: 1.0,2.0;" x1="199.5" x2="328" y1="425.8411" y2="425.8411"/><text fill="#000000" font-family="sans-serif" font-size="11" lengthAdjust="spacingAndGlyphs" textLength="285" x="38" y="468.7507">void Bc(connectTarget.C, connectTarget.A) (1264413185);</text><line style="stroke: #A80036; stroke-width: 1.0; stroke-dasharray: 1.0,2.0;" x1="33" x2="163" y1="448.5044" y2="448.5044"/><text fill="#000000" font-family="sans-serif" font-size="11" lengthAdjust="spacingAndGlyphs" textLength="35" x="163" y="453.1418">method</text><line style="stroke: #A80036; stroke-width: 1.0; stroke-dasharray: 1.0,2.0;" x1="198" x2="328" y1="448.5044" y2="448.5044"/><!--MD5=[5a42cb54714ba350645d34fcb04ac09f]
@startuml
class connectTarget.A{
__**<color:green>has list</color>**__
..class..
..member..
..method..
	void AC() (1524960486);
	void Ab(connectTarget.B) (117009527);
	void Ba() (199640888);
__**<color:blue>calling list</color>**__
..class..
	C (1000975683);
	B (1238959340);
..member..
..method..
	void AC() (76432244);
	void Ab() (1030228826);
__**<color:orange>called by list</color>**__
..class..
	B (1238959340);
..member..
..method..
	void Bc(connectTarget.C, connectTarget.A) (1264413185);
}

@enduml

PlantUML version 1.2020.19(Tue Oct 13 00:10:01 KST 2020)
(APACHE source distribution)
Java Runtime: Java(TM) SE Runtime Environment
JVM: Java HotSpot(TM) 64-Bit Server VM
Default Encoding: MS949
Language: ko
Country: KR
--></g></svg>