<?xml version="1.0" encoding="UTF-8" standalone="no"?><svg xmlns="http://www.w3.org/2000/svg" xmlns:xlink="http://www.w3.org/1999/xlink" contentScriptType="application/ecmascript" contentStyleType="text/css" height="544px" preserveAspectRatio="none" style="width:361px;height:544px;" version="1.1" viewBox="0 0 361 544" width="361px" zoomAndPan="magnify"><defs><filter height="300%" id="f1dsiyg5bvowd6" width="300%" x="-1" y="-1"><feGaussianBlur result="blurOut" stdDeviation="2.0"/><feColorMatrix in="blurOut" result="blurOut2" type="matrix" values="0 0 0 0 0 0 0 0 0 0 0 0 0 0 0 0 0 0 .4 0"/><feOffset dx="4.0" dy="4.0" in="blurOut2" result="blurOut3"/><feBlend in="SourceGraphic" in2="blurOut3" mode="normal"/></filter></defs><g><!--MD5=[96cb5ba73e1a787dabda12a2bbaf8f21]
cluster connectTarget--><polygon fill="#FFFFFF" filter="url(#f1dsiyg5bvowd6)" points="16,6,124,6,131,31.2295,344,31.2295,344,537,16,537,16,6" style="stroke: #000000; stroke-width: 1.5;"/><line style="stroke: #000000; stroke-width: 1.5;" x1="16" x2="131" y1="31.2295" y2="31.2295"/><text fill="#000000" font-family="sans-serif" font-size="14" font-weight="bold" lengthAdjust="spacingAndGlyphs" textLength="102" x="20" y="24.1533">connectTarget</text><!--MD5=[f2d5ac563d5b6c33c09207f65816acdb]
class connectTarget.C--><rect codeLine="1" fill="#FEFECE" filter="url(#f1dsiyg5bvowd6)" height="475.4944" id="connectTarget.C" style="stroke: #A80036; stroke-width: 1.5;" width="297" x="32" y="45.5"/><ellipse cx="171.75" cy="61.5" fill="#ADD1B2" rx="11" ry="11" style="stroke: #A80036; stroke-width: 1.0;"/><path d="M171.3125,55.0156 Q168.5781,55.0156 167.5,56.6406 Q166.3594,58.3594 166.3594,61.2813 Q166.3594,64.5781 167.5156,66.2813 Q168.5,67.7813 171.1094,67.7813 Q172.6875,67.7813 173.5625,66.9531 Q174.5469,66 174.6875,63.875 Q174.6875,63.5781 174.5156,63.4063 Q174.3906,63.25 174.1719,63.2344 Q172.9531,63.2344 172.7969,63.3594 Q172.625,63.5156 172.625,63.7813 Q172.5938,65.2656 171.9375,66.0781 Q171.3281,66.875 171.25,66.875 Q169.9219,66.875 169.1406,65.2813 Q168.3906,63.7344 168.3906,61.25 Q168.3906,58.625 169.3281,57.1719 Q170.1563,55.9219 171.4375,55.9219 Q171.4375,55.9219 171.7813,56.5469 Q172.4063,57.2188 172.5469,58.375 Q172.6563,58.9531 174.125,58.7344 Q174.6563,58.6563 174.625,58.2344 Q174.4531,56.7969 173.7344,55.9844 Q172.875,55.0156 171.3125,55.0156 Z "/><text fill="#000000" font-family="sans-serif" font-size="12" lengthAdjust="spacingAndGlyphs" textLength="9" x="192.25" y="67.1045">C</text><line style="stroke: #A80036; stroke-width: 1.5;" x1="33" x2="328" y1="77.5" y2="77.5"/><line style="stroke: #A80036; stroke-width: 1.5;" x1="33" x2="160.5" y1="93.0544" y2="93.0544"/><text fill="#008000" font-family="sans-serif" font-size="11" font-weight="bold" lengthAdjust="spacingAndGlyphs" textLength="40" x="160.5" y="97.6919">has list</text><line style="stroke: #A80036; stroke-width: 1.5;" x1="200.5" x2="328" y1="93.0544" y2="93.0544"/><line style="stroke: #A80036; stroke-width: 1.0; stroke-dasharray: 1.0,2.0;" x1="33" x2="167.5" y1="115.7178" y2="115.7178"/><text fill="#000000" font-family="sans-serif" font-size="11" lengthAdjust="spacingAndGlyphs" textLength="26" x="167.5" y="120.3552">class</text><line style="stroke: #A80036; stroke-width: 1.0; stroke-dasharray: 1.0,2.0;" x1="193.5" x2="328" y1="115.7178" y2="115.7178"/><line style="stroke: #A80036; stroke-width: 1.0; stroke-dasharray: 1.0,2.0;" x1="33" x2="161.5" y1="138.3811" y2="138.3811"/><text fill="#000000" font-family="sans-serif" font-size="11" lengthAdjust="spacingAndGlyphs" textLength="38" x="161.5" y="143.0186">member</text><line style="stroke: #A80036; stroke-width: 1.0; stroke-dasharray: 1.0,2.0;" x1="199.5" x2="328" y1="138.3811" y2="138.3811"/><text fill="#000000" font-family="sans-serif" font-size="11" lengthAdjust="spacingAndGlyphs" textLength="125" x="38" y="181.2908">void CC1() (1099855928);</text><text fill="#000000" font-family="sans-serif" font-size="11" lengthAdjust="spacingAndGlyphs" textLength="125" x="38" y="196.3997">void CC2() (1629687658);</text><text fill="#000000" font-family="sans-serif" font-size="11" lengthAdjust="spacingAndGlyphs" textLength="108" x="38" y="211.5085">void AC() (76432244);</text><line style="stroke: #A80036; stroke-width: 1.0; stroke-dasharray: 1.0,2.0;" x1="33" x2="163" y1="161.0444" y2="161.0444"/><text fill="#000000" font-family="sans-serif" font-size="11" lengthAdjust="spacingAndGlyphs" textLength="35" x="163" y="165.6819">method</text><line style="stroke: #A80036; stroke-width: 1.0; stroke-dasharray: 1.0,2.0;" x1="198" x2="328" y1="161.0444" y2="161.0444"/><line style="stroke: #A80036; stroke-width: 1.5;" x1="33" x2="153" y1="225.48" y2="225.48"/><text fill="#0000FF" font-family="sans-serif" font-size="11" font-weight="bold" lengthAdjust="spacingAndGlyphs" textLength="55" x="153" y="230.1174">calling list</text><line style="stroke: #A80036; stroke-width: 1.5;" x1="208" x2="328" y1="225.48" y2="225.48"/><text fill="#000000" font-family="sans-serif" font-size="11" lengthAdjust="spacingAndGlyphs" textLength="81" x="38" y="268.3896">C (1000975683);</text><line style="stroke: #A80036; stroke-width: 1.0; stroke-dasharray: 1.0,2.0;" x1="33" x2="167.5" y1="248.1433" y2="248.1433"/><text fill="#000000" font-family="sans-serif" font-size="11" lengthAdjust="spacingAndGlyphs" textLength="26" x="167.5" y="252.7808">class</text><line style="stroke: #A80036; stroke-width: 1.0; stroke-dasharray: 1.0,2.0;" x1="193.5" x2="328" y1="248.1433" y2="248.1433"/><line style="stroke: #A80036; stroke-width: 1.0; stroke-dasharray: 1.0,2.0;" x1="33" x2="161.5" y1="282.3611" y2="282.3611"/><text fill="#000000" font-family="sans-serif" font-size="11" lengthAdjust="spacingAndGlyphs" textLength="38" x="161.5" y="286.9985">member</text><line style="stroke: #A80036; stroke-width: 1.0; stroke-dasharray: 1.0,2.0;" x1="199.5" x2="328" y1="282.3611" y2="282.3611"/><text fill="#000000" font-family="sans-serif" font-size="11" lengthAdjust="spacingAndGlyphs" textLength="125" x="38" y="325.2708">void CC1() (1099855928);</text><text fill="#000000" font-family="sans-serif" font-size="11" lengthAdjust="spacingAndGlyphs" textLength="125" x="38" y="340.3796">void CC2() (1629687658);</text><line style="stroke: #A80036; stroke-width: 1.0; stroke-dasharray: 1.0,2.0;" x1="33" x2="163" y1="305.0244" y2="305.0244"/><text fill="#000000" font-family="sans-serif" font-size="11" lengthAdjust="spacingAndGlyphs" textLength="35" x="163" y="309.6619">method</text><line style="stroke: #A80036; stroke-width: 1.0; stroke-dasharray: 1.0,2.0;" x1="198" x2="328" y1="305.0244" y2="305.0244"/><line style="stroke: #A80036; stroke-width: 1.5;" x1="33" x2="146.5" y1="354.3511" y2="354.3511"/><text fill="#FFA500" font-family="sans-serif" font-size="11" font-weight="bold" lengthAdjust="spacingAndGlyphs" textLength="68" x="146.5" y="358.9885">called by list</text><line style="stroke: #A80036; stroke-width: 1.5;" x1="214.5" x2="328" y1="354.3511" y2="354.3511"/><text fill="#000000" font-family="sans-serif" font-size="11" lengthAdjust="spacingAndGlyphs" textLength="82" x="38" y="397.2607">A (1010931249);</text><text fill="#000000" font-family="sans-serif" font-size="11" lengthAdjust="spacingAndGlyphs" textLength="81" x="38" y="412.3696">B (1238959340);</text><text fill="#000000" font-family="sans-serif" font-size="11" lengthAdjust="spacingAndGlyphs" textLength="81" x="38" y="427.4785">C (1000975683);</text><line style="stroke: #A80036; stroke-width: 1.0; stroke-dasharray: 1.0,2.0;" x1="33" x2="167.5" y1="377.0144" y2="377.0144"/><text fill="#000000" font-family="sans-serif" font-size="11" lengthAdjust="spacingAndGlyphs" textLength="26" x="167.5" y="381.6519">class</text><line style="stroke: #A80036; stroke-width: 1.0; stroke-dasharray: 1.0,2.0;" x1="193.5" x2="328" y1="377.0144" y2="377.0144"/><line style="stroke: #A80036; stroke-width: 1.0; stroke-dasharray: 1.0,2.0;" x1="33" x2="161.5" y1="441.45" y2="441.45"/><text fill="#000000" font-family="sans-serif" font-size="11" lengthAdjust="spacingAndGlyphs" textLength="38" x="161.5" y="446.0874">member</text><line style="stroke: #A80036; stroke-width: 1.0; stroke-dasharray: 1.0,2.0;" x1="199.5" x2="328" y1="441.45" y2="441.45"/><text fill="#000000" font-family="sans-serif" font-size="11" lengthAdjust="spacingAndGlyphs" textLength="120" x="38" y="484.3596">void AC() (1524960486);</text><text fill="#000000" font-family="sans-serif" font-size="11" lengthAdjust="spacingAndGlyphs" textLength="285" x="38" y="499.4685">void Bc(connectTarget.C, connectTarget.A) (1264413185);</text><text fill="#000000" font-family="sans-serif" font-size="11" lengthAdjust="spacingAndGlyphs" textLength="108" x="38" y="514.5774">void AC() (76432244);</text><line style="stroke: #A80036; stroke-width: 1.0; stroke-dasharray: 1.0,2.0;" x1="33" x2="163" y1="464.1133" y2="464.1133"/><text fill="#000000" font-family="sans-serif" font-size="11" lengthAdjust="spacingAndGlyphs" textLength="35" x="163" y="468.7507">method</text><line style="stroke: #A80036; stroke-width: 1.0; stroke-dasharray: 1.0,2.0;" x1="198" x2="328" y1="464.1133" y2="464.1133"/><!--MD5=[7b87705d1bbf4aba081a4f592088cae2]
@startuml
class connectTarget.C{
__**<color:green>has list</color>**__
..class..
..member..
..method..
	void CC1() (1099855928);
	void CC2() (1629687658);
	void AC() (76432244);
__**<color:blue>calling list</color>**__
..class..
	C (1000975683);
..member..
..method..
	void CC1() (1099855928);
	void CC2() (1629687658);
__**<color:orange>called by list</color>**__
..class..
	A (1010931249);
	B (1238959340);
	C (1000975683);
..member..
..method..
	void AC() (1524960486);
	void Bc(connectTarget.C, connectTarget.A) (1264413185);
	void AC() (76432244);
}

@enduml

PlantUML version 1.2020.19(Tue Oct 13 00:10:01 KST 2020)
(APACHE source distribution)
Java Runtime: Java(TM) SE Runtime Environment
JVM: Java HotSpot(TM) 64-Bit Server VM
Default Encoding: MS949
Language: ko
Country: KR
--></g></svg>