<?xml version="1.0" encoding="UTF-8" standalone="no"?><svg xmlns="http://www.w3.org/2000/svg" xmlns:xlink="http://www.w3.org/1999/xlink" contentScriptType="application/ecmascript" contentStyleType="text/css" height="560px" preserveAspectRatio="none" style="width:361px;height:560px;" version="1.1" viewBox="0 0 361 560" width="361px" zoomAndPan="magnify"><defs><filter height="300%" id="fwjgejrggdklg" width="300%" x="-1" y="-1"><feGaussianBlur result="blurOut" stdDeviation="2.0"/><feColorMatrix in="blurOut" result="blurOut2" type="matrix" values="0 0 0 0 0 0 0 0 0 0 0 0 0 0 0 0 0 0 .4 0"/><feOffset dx="4.0" dy="4.0" in="blurOut2" result="blurOut3"/><feBlend in="SourceGraphic" in2="blurOut3" mode="normal"/></filter></defs><g><!--MD5=[96cb5ba73e1a787dabda12a2bbaf8f21]
cluster connectTarget--><polygon fill="#FFFFFF" filter="url(#fwjgejrggdklg)" points="16,6,124,6,131,31.2295,344,31.2295,344,553,16,553,16,6" style="stroke: #000000; stroke-width: 1.5;"/><line style="stroke: #000000; stroke-width: 1.5;" x1="16" x2="131" y1="31.2295" y2="31.2295"/><text fill="#000000" font-family="sans-serif" font-size="14" font-weight="bold" lengthAdjust="spacingAndGlyphs" textLength="102" x="20" y="24.1533">connectTarget</text><!--MD5=[0f0eb3330b556e72803076cc1ad16590]
class connectTarget.B--><rect codeLine="1" fill="#FEFECE" filter="url(#fwjgejrggdklg)" height="490.6033" id="connectTarget.B" style="stroke: #A80036; stroke-width: 1.5;" width="297" x="32" y="45.5"/><ellipse cx="172.25" cy="61.5" fill="#ADD1B2" rx="11" ry="11" style="stroke: #A80036; stroke-width: 1.0;"/><path d="M171.8125,55.0156 Q169.0781,55.0156 168,56.6406 Q166.8594,58.3594 166.8594,61.2813 Q166.8594,64.5781 168.0156,66.2813 Q169,67.7813 171.6094,67.7813 Q173.1875,67.7813 174.0625,66.9531 Q175.0469,66 175.1875,63.875 Q175.1875,63.5781 175.0156,63.4063 Q174.8906,63.25 174.6719,63.2344 Q173.4531,63.2344 173.2969,63.3594 Q173.125,63.5156 173.125,63.7813 Q173.0938,65.2656 172.4375,66.0781 Q171.8281,66.875 171.75,66.875 Q170.4219,66.875 169.6406,65.2813 Q168.8906,63.7344 168.8906,61.25 Q168.8906,58.625 169.8281,57.1719 Q170.6563,55.9219 171.9375,55.9219 Q171.9375,55.9219 172.2813,56.5469 Q172.9063,57.2188 173.0469,58.375 Q173.1563,58.9531 174.625,58.7344 Q175.1563,58.6563 175.125,58.2344 Q174.9531,56.7969 174.2344,55.9844 Q173.375,55.0156 171.8125,55.0156 Z "/><text fill="#000000" font-family="sans-serif" font-size="12" lengthAdjust="spacingAndGlyphs" textLength="8" x="192.75" y="67.1045">B</text><line style="stroke: #A80036; stroke-width: 1.5;" x1="33" x2="328" y1="77.5" y2="77.5"/><line style="stroke: #A80036; stroke-width: 1.5;" x1="33" x2="160.5" y1="93.0544" y2="93.0544"/><text fill="#008000" font-family="sans-serif" font-size="11" font-weight="bold" lengthAdjust="spacingAndGlyphs" textLength="40" x="160.5" y="97.6919">has list</text><line style="stroke: #A80036; stroke-width: 1.5;" x1="200.5" x2="328" y1="93.0544" y2="93.0544"/><line style="stroke: #A80036; stroke-width: 1.0; stroke-dasharray: 1.0,2.0;" x1="33" x2="167.5" y1="115.7178" y2="115.7178"/><text fill="#000000" font-family="sans-serif" font-size="11" lengthAdjust="spacingAndGlyphs" textLength="26" x="167.5" y="120.3552">class</text><line style="stroke: #A80036; stroke-width: 1.0; stroke-dasharray: 1.0,2.0;" x1="193.5" x2="328" y1="115.7178" y2="115.7178"/><line style="stroke: #A80036; stroke-width: 1.0; stroke-dasharray: 1.0,2.0;" x1="33" x2="161.5" y1="138.3811" y2="138.3811"/><text fill="#000000" font-family="sans-serif" font-size="11" lengthAdjust="spacingAndGlyphs" textLength="38" x="161.5" y="143.0186">member</text><line style="stroke: #A80036; stroke-width: 1.0; stroke-dasharray: 1.0,2.0;" x1="199.5" x2="328" y1="138.3811" y2="138.3811"/><text fill="#000000" font-family="sans-serif" font-size="11" lengthAdjust="spacingAndGlyphs" textLength="119" x="38" y="181.2908">void BB() (1243806178);</text><text fill="#000000" font-family="sans-serif" font-size="11" lengthAdjust="spacingAndGlyphs" textLength="285" x="38" y="196.3997">void Bc(connectTarget.C, connectTarget.A) (1264413185);</text><text fill="#000000" font-family="sans-serif" font-size="11" lengthAdjust="spacingAndGlyphs" textLength="119" x="38" y="211.5085">void Ab() (1030228826);</text><line style="stroke: #A80036; stroke-width: 1.0; stroke-dasharray: 1.0,2.0;" x1="33" x2="163" y1="161.0444" y2="161.0444"/><text fill="#000000" font-family="sans-serif" font-size="11" lengthAdjust="spacingAndGlyphs" textLength="35" x="163" y="165.6819">method</text><line style="stroke: #A80036; stroke-width: 1.0; stroke-dasharray: 1.0,2.0;" x1="198" x2="328" y1="161.0444" y2="161.0444"/><line style="stroke: #A80036; stroke-width: 1.5;" x1="33" x2="153" y1="225.48" y2="225.48"/><text fill="#0000FF" font-family="sans-serif" font-size="11" font-weight="bold" lengthAdjust="spacingAndGlyphs" textLength="55" x="153" y="230.1174">calling list</text><line style="stroke: #A80036; stroke-width: 1.5;" x1="208" x2="328" y1="225.48" y2="225.48"/><text fill="#000000" font-family="sans-serif" font-size="11" lengthAdjust="spacingAndGlyphs" textLength="81" x="38" y="268.3896">C (1000975683);</text><text fill="#000000" font-family="sans-serif" font-size="11" lengthAdjust="spacingAndGlyphs" textLength="82" x="38" y="283.4985">A (1010931249);</text><text fill="#000000" font-family="sans-serif" font-size="11" lengthAdjust="spacingAndGlyphs" textLength="81" x="38" y="298.6074">B (1238959340);</text><line style="stroke: #A80036; stroke-width: 1.0; stroke-dasharray: 1.0,2.0;" x1="33" x2="167.5" y1="248.1433" y2="248.1433"/><text fill="#000000" font-family="sans-serif" font-size="11" lengthAdjust="spacingAndGlyphs" textLength="26" x="167.5" y="252.7808">class</text><line style="stroke: #A80036; stroke-width: 1.0; stroke-dasharray: 1.0,2.0;" x1="193.5" x2="328" y1="248.1433" y2="248.1433"/><line style="stroke: #A80036; stroke-width: 1.0; stroke-dasharray: 1.0,2.0;" x1="33" x2="161.5" y1="312.5789" y2="312.5789"/><text fill="#000000" font-family="sans-serif" font-size="11" lengthAdjust="spacingAndGlyphs" textLength="38" x="161.5" y="317.2163">member</text><line style="stroke: #A80036; stroke-width: 1.0; stroke-dasharray: 1.0,2.0;" x1="199.5" x2="328" y1="312.5789" y2="312.5789"/><text fill="#000000" font-family="sans-serif" font-size="11" lengthAdjust="spacingAndGlyphs" textLength="108" x="38" y="355.4885">void AC() (76432244);</text><text fill="#000000" font-family="sans-serif" font-size="11" lengthAdjust="spacingAndGlyphs" textLength="112" x="38" y="370.5974">void Ba() (199640888);</text><text fill="#000000" font-family="sans-serif" font-size="11" lengthAdjust="spacingAndGlyphs" textLength="119" x="38" y="385.7063">void BB() (1243806178);</text><line style="stroke: #A80036; stroke-width: 1.0; stroke-dasharray: 1.0,2.0;" x1="33" x2="163" y1="335.2422" y2="335.2422"/><text fill="#000000" font-family="sans-serif" font-size="11" lengthAdjust="spacingAndGlyphs" textLength="35" x="163" y="339.8796">method</text><line style="stroke: #A80036; stroke-width: 1.0; stroke-dasharray: 1.0,2.0;" x1="198" x2="328" y1="335.2422" y2="335.2422"/><line style="stroke: #A80036; stroke-width: 1.5;" x1="33" x2="146.5" y1="399.6777" y2="399.6777"/><text fill="#FFA500" font-family="sans-serif" font-size="11" font-weight="bold" lengthAdjust="spacingAndGlyphs" textLength="68" x="146.5" y="404.3152">called by list</text><line style="stroke: #A80036; stroke-width: 1.5;" x1="214.5" x2="328" y1="399.6777" y2="399.6777"/><text fill="#000000" font-family="sans-serif" font-size="11" lengthAdjust="spacingAndGlyphs" textLength="82" x="38" y="442.5874">A (1010931249);</text><text fill="#000000" font-family="sans-serif" font-size="11" lengthAdjust="spacingAndGlyphs" textLength="81" x="38" y="457.6963">B (1238959340);</text><line style="stroke: #A80036; stroke-width: 1.0; stroke-dasharray: 1.0,2.0;" x1="33" x2="167.5" y1="422.3411" y2="422.3411"/><text fill="#000000" font-family="sans-serif" font-size="11" lengthAdjust="spacingAndGlyphs" textLength="26" x="167.5" y="426.9785">class</text><line style="stroke: #A80036; stroke-width: 1.0; stroke-dasharray: 1.0,2.0;" x1="193.5" x2="328" y1="422.3411" y2="422.3411"/><line style="stroke: #A80036; stroke-width: 1.0; stroke-dasharray: 1.0,2.0;" x1="33" x2="161.5" y1="471.6677" y2="471.6677"/><text fill="#000000" font-family="sans-serif" font-size="11" lengthAdjust="spacingAndGlyphs" textLength="38" x="161.5" y="476.3052">member</text><line style="stroke: #A80036; stroke-width: 1.0; stroke-dasharray: 1.0,2.0;" x1="199.5" x2="328" y1="471.6677" y2="471.6677"/><text fill="#000000" font-family="sans-serif" font-size="11" lengthAdjust="spacingAndGlyphs" textLength="193" x="38" y="514.5774">void Ab(connectTarget.B) (117009527);</text><text fill="#000000" font-family="sans-serif" font-size="11" lengthAdjust="spacingAndGlyphs" textLength="285" x="38" y="529.6863">void Bc(connectTarget.C, connectTarget.A) (1264413185);</text><line style="stroke: #A80036; stroke-width: 1.0; stroke-dasharray: 1.0,2.0;" x1="33" x2="163" y1="494.3311" y2="494.3311"/><text fill="#000000" font-family="sans-serif" font-size="11" lengthAdjust="spacingAndGlyphs" textLength="35" x="163" y="498.9685">method</text><line style="stroke: #A80036; stroke-width: 1.0; stroke-dasharray: 1.0,2.0;" x1="198" x2="328" y1="494.3311" y2="494.3311"/><!--MD5=[7af3c4495981d612cc229be115d61d22]
@startuml
class connectTarget.B{
__**<color:green>has list</color>**__
..class..
..member..
..method..
	void BB() (1243806178);
	void Bc(connectTarget.C, connectTarget.A) (1264413185);
	void Ab() (1030228826);
__**<color:blue>calling list</color>**__
..class..
	C (1000975683);
	A (1010931249);
	B (1238959340);
..member..
..method..
	void AC() (76432244);
	void Ba() (199640888);
	void BB() (1243806178);
__**<color:orange>called by list</color>**__
..class..
	A (1010931249);
	B (1238959340);
..member..
..method..
	void Ab(connectTarget.B) (117009527);
	void Bc(connectTarget.C, connectTarget.A) (1264413185);
}

@enduml

PlantUML version 1.2020.19(Tue Oct 13 00:10:01 KST 2020)
(APACHE source distribution)
Java Runtime: Java(TM) SE Runtime Environment
JVM: Java HotSpot(TM) 64-Bit Server VM
Default Encoding: MS949
Language: ko
Country: KR
--></g></svg>