<?xml version="1.0" encoding="UTF-8" standalone="no"?><svg xmlns="http://www.w3.org/2000/svg" xmlns:xlink="http://www.w3.org/1999/xlink" contentScriptType="application/ecmascript" contentStyleType="text/css" height="484px" preserveAspectRatio="none" style="width:249px;height:484px;" version="1.1" viewBox="0 0 249 484" width="249px" zoomAndPan="magnify"><defs><filter height="300%" id="f1g6hz2lwf1z2e" width="300%" x="-1" y="-1"><feGaussianBlur result="blurOut" stdDeviation="2.0"/><feColorMatrix in="blurOut" result="blurOut2" type="matrix" values="0 0 0 0 0 0 0 0 0 0 0 0 0 0 0 0 0 0 .4 0"/><feOffset dx="4.0" dy="4.0" in="blurOut2" result="blurOut3"/><feBlend in="SourceGraphic" in2="blurOut3" mode="normal"/></filter></defs><g><!--MD5=[26c5909e3beb0655f44a32ec04b7bf98]
cluster target--><polygon fill="#FFFFFF" filter="url(#f1g6hz2lwf1z2e)" points="16,6,64,6,71,31.2295,232,31.2295,232,477,16,477,16,6" style="stroke: #000000; stroke-width: 1.5;"/><line style="stroke: #000000; stroke-width: 1.5;" x1="16" x2="71" y1="31.2295" y2="31.2295"/><text fill="#000000" font-family="sans-serif" font-size="14" font-weight="bold" lengthAdjust="spacingAndGlyphs" textLength="42" x="20" y="24.1533">target</text><!--MD5=[7eb593b4306a753c212e7bd0296e7abe]
class target.CafeLatte--><rect codeLine="1" fill="#FEFECE" filter="url(#f1g6hz2lwf1z2e)" height="415.0588" id="target.CafeLatte" style="stroke: #A80036; stroke-width: 1.5;" width="185" x="32" y="45.5"/><ellipse cx="93.75" cy="61.5" fill="#ADD1B2" rx="11" ry="11" style="stroke: #A80036; stroke-width: 1.0;"/><path d="M93.3125,55.0156 Q90.5781,55.0156 89.5,56.6406 Q88.3594,58.3594 88.3594,61.2813 Q88.3594,64.5781 89.5156,66.2813 Q90.5,67.7813 93.1094,67.7813 Q94.6875,67.7813 95.5625,66.9531 Q96.5469,66 96.6875,63.875 Q96.6875,63.5781 96.5156,63.4063 Q96.3906,63.25 96.1719,63.2344 Q94.9531,63.2344 94.7969,63.3594 Q94.625,63.5156 94.625,63.7813 Q94.5938,65.2656 93.9375,66.0781 Q93.3281,66.875 93.25,66.875 Q91.9219,66.875 91.1406,65.2813 Q90.3906,63.7344 90.3906,61.25 Q90.3906,58.625 91.3281,57.1719 Q92.1563,55.9219 93.4375,55.9219 Q93.4375,55.9219 93.7813,56.5469 Q94.4063,57.2188 94.5469,58.375 Q94.6563,58.9531 96.125,58.7344 Q96.6563,58.6563 96.625,58.2344 Q96.4531,56.7969 95.7344,55.9844 Q94.875,55.0156 93.3125,55.0156 Z "/><text fill="#000000" font-family="sans-serif" font-size="12" lengthAdjust="spacingAndGlyphs" textLength="53" x="114.25" y="67.1045">CafeLatte</text><line style="stroke: #A80036; stroke-width: 1.5;" x1="33" x2="216" y1="77.5" y2="77.5"/><line style="stroke: #A80036; stroke-width: 1.5;" x1="33" x2="104.5" y1="93.0544" y2="93.0544"/><text fill="#008000" font-family="sans-serif" font-size="11" font-weight="bold" lengthAdjust="spacingAndGlyphs" textLength="40" x="104.5" y="97.6919">has list</text><line style="stroke: #A80036; stroke-width: 1.5;" x1="144.5" x2="216" y1="93.0544" y2="93.0544"/><line style="stroke: #A80036; stroke-width: 1.0; stroke-dasharray: 1.0,2.0;" x1="33" x2="111.5" y1="115.7178" y2="115.7178"/><text fill="#000000" font-family="sans-serif" font-size="11" lengthAdjust="spacingAndGlyphs" textLength="26" x="111.5" y="120.3552">class</text><line style="stroke: #A80036; stroke-width: 1.0; stroke-dasharray: 1.0,2.0;" x1="137.5" x2="216" y1="115.7178" y2="115.7178"/><text fill="#000000" font-family="sans-serif" font-size="11" lengthAdjust="spacingAndGlyphs" textLength="105" x="38" y="158.6274">int milk (1850180796);</text><line style="stroke: #A80036; stroke-width: 1.0; stroke-dasharray: 1.0,2.0;" x1="33" x2="105.5" y1="138.3811" y2="138.3811"/><text fill="#000000" font-family="sans-serif" font-size="11" lengthAdjust="spacingAndGlyphs" textLength="38" x="105.5" y="143.0186">member</text><line style="stroke: #A80036; stroke-width: 1.0; stroke-dasharray: 1.0,2.0;" x1="143.5" x2="216" y1="138.3811" y2="138.3811"/><text fill="#000000" font-family="sans-serif" font-size="11" lengthAdjust="spacingAndGlyphs" textLength="173" x="38" y="192.8452">CafeLatte CafeLatte() (776700275);</text><text fill="#000000" font-family="sans-serif" font-size="11" lengthAdjust="spacingAndGlyphs" textLength="139" x="38" y="207.9541">void addShot() (118394766);</text><text fill="#000000" font-family="sans-serif" font-size="11" lengthAdjust="spacingAndGlyphs" textLength="137" x="38" y="223.063">Coffee make() (884452399);</text><line style="stroke: #A80036; stroke-width: 1.0; stroke-dasharray: 1.0,2.0;" x1="33" x2="107" y1="172.5989" y2="172.5989"/><text fill="#000000" font-family="sans-serif" font-size="11" lengthAdjust="spacingAndGlyphs" textLength="35" x="107" y="177.2363">method</text><line style="stroke: #A80036; stroke-width: 1.0; stroke-dasharray: 1.0,2.0;" x1="142" x2="216" y1="172.5989" y2="172.5989"/><line style="stroke: #A80036; stroke-width: 1.5;" x1="33" x2="97" y1="237.0344" y2="237.0344"/><text fill="#0000FF" font-family="sans-serif" font-size="11" font-weight="bold" lengthAdjust="spacingAndGlyphs" textLength="55" x="97" y="241.6719">calling list</text><line style="stroke: #A80036; stroke-width: 1.5;" x1="152" x2="216" y1="237.0344" y2="237.0344"/><line style="stroke: #A80036; stroke-width: 1.0; stroke-dasharray: 1.0,2.0;" x1="33" x2="111.5" y1="259.6978" y2="259.6978"/><text fill="#000000" font-family="sans-serif" font-size="11" lengthAdjust="spacingAndGlyphs" textLength="26" x="111.5" y="264.3352">class</text><line style="stroke: #A80036; stroke-width: 1.0; stroke-dasharray: 1.0,2.0;" x1="137.5" x2="216" y1="259.6978" y2="259.6978"/><text fill="#000000" font-family="sans-serif" font-size="11" lengthAdjust="spacingAndGlyphs" textLength="128" x="38" y="302.6074">int caffeine (1192171522);</text><text fill="#000000" font-family="sans-serif" font-size="11" lengthAdjust="spacingAndGlyphs" textLength="105" x="38" y="317.7163">int milk (1850180796);</text><line style="stroke: #A80036; stroke-width: 1.0; stroke-dasharray: 1.0,2.0;" x1="33" x2="105.5" y1="282.3611" y2="282.3611"/><text fill="#000000" font-family="sans-serif" font-size="11" lengthAdjust="spacingAndGlyphs" textLength="38" x="105.5" y="286.9985">member</text><line style="stroke: #A80036; stroke-width: 1.0; stroke-dasharray: 1.0,2.0;" x1="143.5" x2="216" y1="282.3611" y2="282.3611"/><line style="stroke: #A80036; stroke-width: 1.0; stroke-dasharray: 1.0,2.0;" x1="33" x2="107" y1="331.6877" y2="331.6877"/><text fill="#000000" font-family="sans-serif" font-size="11" lengthAdjust="spacingAndGlyphs" textLength="35" x="107" y="336.3252">method</text><line style="stroke: #A80036; stroke-width: 1.0; stroke-dasharray: 1.0,2.0;" x1="142" x2="216" y1="331.6877" y2="331.6877"/><line style="stroke: #A80036; stroke-width: 1.5;" x1="33" x2="90.5" y1="354.3511" y2="354.3511"/><text fill="#FFA500" font-family="sans-serif" font-size="11" font-weight="bold" lengthAdjust="spacingAndGlyphs" textLength="68" x="90.5" y="358.9885">called by list</text><line style="stroke: #A80036; stroke-width: 1.5;" x1="158.5" x2="216" y1="354.3511" y2="354.3511"/><text fill="#000000" font-family="sans-serif" font-size="11" lengthAdjust="spacingAndGlyphs" textLength="109" x="38" y="397.2607">CafeLatte (23211803);</text><line style="stroke: #A80036; stroke-width: 1.0; stroke-dasharray: 1.0,2.0;" x1="33" x2="111.5" y1="377.0144" y2="377.0144"/><text fill="#000000" font-family="sans-serif" font-size="11" lengthAdjust="spacingAndGlyphs" textLength="26" x="111.5" y="381.6519">class</text><line style="stroke: #A80036; stroke-width: 1.0; stroke-dasharray: 1.0,2.0;" x1="137.5" x2="216" y1="377.0144" y2="377.0144"/><line style="stroke: #A80036; stroke-width: 1.0; stroke-dasharray: 1.0,2.0;" x1="33" x2="105.5" y1="411.2322" y2="411.2322"/><text fill="#000000" font-family="sans-serif" font-size="11" lengthAdjust="spacingAndGlyphs" textLength="38" x="105.5" y="415.8696">member</text><line style="stroke: #A80036; stroke-width: 1.0; stroke-dasharray: 1.0,2.0;" x1="143.5" x2="216" y1="411.2322" y2="411.2322"/><text fill="#000000" font-family="sans-serif" font-size="11" lengthAdjust="spacingAndGlyphs" textLength="173" x="38" y="454.1418">CafeLatte CafeLatte() (776700275);</text><line style="stroke: #A80036; stroke-width: 1.0; stroke-dasharray: 1.0,2.0;" x1="33" x2="107" y1="433.8955" y2="433.8955"/><text fill="#000000" font-family="sans-serif" font-size="11" lengthAdjust="spacingAndGlyphs" textLength="35" x="107" y="438.533">method</text><line style="stroke: #A80036; stroke-width: 1.0; stroke-dasharray: 1.0,2.0;" x1="142" x2="216" y1="433.8955" y2="433.8955"/><!--MD5=[3bdd03d72a68afc6e37e6bddb41f7cdb]
@startuml
class target.CafeLatte{
__**<color:green>has list</color>**__
..class..
..member..
	int milk (1850180796);
..method..
	CafeLatte CafeLatte() (776700275);
	void addShot() (118394766);
	Coffee make() (884452399);
__**<color:blue>calling list</color>**__
..class..
..member..
	int caffeine (1192171522);
	int milk (1850180796);
..method..
__**<color:orange>called by list</color>**__
..class..
	CafeLatte (23211803);
..member..
..method..
	CafeLatte CafeLatte() (776700275);
}

@enduml

PlantUML version 1.2020.19(Tue Oct 13 00:10:01 KST 2020)
(APACHE source distribution)
Java Runtime: Java(TM) SE Runtime Environment
JVM: Java HotSpot(TM) 64-Bit Server VM
Default Encoding: MS949
Language: ko
Country: KR
--></g></svg>