<?xml version="1.0" encoding="UTF-8" standalone="no"?><svg xmlns="http://www.w3.org/2000/svg" xmlns:xlink="http://www.w3.org/1999/xlink" contentScriptType="application/ecmascript" contentStyleType="text/css" height="442px" preserveAspectRatio="none" style="width:355px;height:442px;" version="1.1" viewBox="0 0 355 442" width="355px" zoomAndPan="magnify"><defs><filter height="300%" id="f1945xbst1j5k9" width="300%" x="-1" y="-1"><feGaussianBlur result="blurOut" stdDeviation="2.0"/><feColorMatrix in="blurOut" result="blurOut2" type="matrix" values="0 0 0 0 0 0 0 0 0 0 0 0 0 0 0 0 0 0 .4 0"/><feOffset dx="4.0" dy="4.0" in="blurOut2" result="blurOut3"/><feBlend in="SourceGraphic" in2="blurOut3" mode="normal"/></filter></defs><g><!--MD5=[26c5909e3beb0655f44a32ec04b7bf98]
cluster target--><polygon fill="#FFFFFF" filter="url(#f1945xbst1j5k9)" points="16,6,64,6,71,31.2295,338,31.2295,338,435,16,435,16,6" style="stroke: #000000; stroke-width: 1.5;"/><line style="stroke: #000000; stroke-width: 1.5;" x1="16" x2="71" y1="31.2295" y2="31.2295"/><text fill="#000000" font-family="sans-serif" font-size="14" font-weight="bold" lengthAdjust="spacingAndGlyphs" textLength="42" x="20" y="24.1533">target</text><!--MD5=[c1ea81be69ddfb756213be10bc434fe8]
class target.CoffeeShop--><rect codeLine="1" fill="#FEFECE" filter="url(#f1945xbst1j5k9)" height="373.2866" id="target.CoffeeShop" style="stroke: #A80036; stroke-width: 1.5;" width="290" x="32" y="45.5"/><ellipse cx="140.25" cy="61.5" fill="#ADD1B2" rx="11" ry="11" style="stroke: #A80036; stroke-width: 1.0;"/><path d="M139.8125,55.0156 Q137.0781,55.0156 136,56.6406 Q134.8594,58.3594 134.8594,61.2813 Q134.8594,64.5781 136.0156,66.2813 Q137,67.7813 139.6094,67.7813 Q141.1875,67.7813 142.0625,66.9531 Q143.0469,66 143.1875,63.875 Q143.1875,63.5781 143.0156,63.4063 Q142.8906,63.25 142.6719,63.2344 Q141.4531,63.2344 141.2969,63.3594 Q141.125,63.5156 141.125,63.7813 Q141.0938,65.2656 140.4375,66.0781 Q139.8281,66.875 139.75,66.875 Q138.4219,66.875 137.6406,65.2813 Q136.8906,63.7344 136.8906,61.25 Q136.8906,58.625 137.8281,57.1719 Q138.6563,55.9219 139.9375,55.9219 Q139.9375,55.9219 140.2813,56.5469 Q140.9063,57.2188 141.0469,58.375 Q141.1563,58.9531 142.625,58.7344 Q143.1563,58.6563 143.125,58.2344 Q142.9531,56.7969 142.2344,55.9844 Q141.375,55.0156 139.8125,55.0156 Z "/><text fill="#000000" font-family="sans-serif" font-size="12" lengthAdjust="spacingAndGlyphs" textLength="65" x="160.75" y="67.1045">CoffeeShop</text><line style="stroke: #A80036; stroke-width: 1.5;" x1="33" x2="321" y1="77.5" y2="77.5"/><line style="stroke: #A80036; stroke-width: 1.5;" x1="33" x2="157" y1="93.0544" y2="93.0544"/><text fill="#008000" font-family="sans-serif" font-size="11" font-weight="bold" lengthAdjust="spacingAndGlyphs" textLength="40" x="157" y="97.6919">has list</text><line style="stroke: #A80036; stroke-width: 1.5;" x1="197" x2="321" y1="93.0544" y2="93.0544"/><line style="stroke: #A80036; stroke-width: 1.0; stroke-dasharray: 1.0,2.0;" x1="33" x2="164" y1="115.7178" y2="115.7178"/><text fill="#000000" font-family="sans-serif" font-size="11" lengthAdjust="spacingAndGlyphs" textLength="26" x="164" y="120.3552">class</text><line style="stroke: #A80036; stroke-width: 1.0; stroke-dasharray: 1.0,2.0;" x1="190" x2="321" y1="115.7178" y2="115.7178"/><text fill="#000000" font-family="sans-serif" font-size="11" lengthAdjust="spacingAndGlyphs" textLength="169" x="38" y="158.6274">target.Barista barista (235237152);</text><text fill="#000000" font-family="sans-serif" font-size="11" lengthAdjust="spacingAndGlyphs" textLength="173" x="38" y="173.7363">target.Coffee[] menu (1259014228);</text><line style="stroke: #A80036; stroke-width: 1.0; stroke-dasharray: 1.0,2.0;" x1="33" x2="158" y1="138.3811" y2="138.3811"/><text fill="#000000" font-family="sans-serif" font-size="11" lengthAdjust="spacingAndGlyphs" textLength="38" x="158" y="143.0186">member</text><line style="stroke: #A80036; stroke-width: 1.0; stroke-dasharray: 1.0,2.0;" x1="196" x2="321" y1="138.3811" y2="138.3811"/><text fill="#000000" font-family="sans-serif" font-size="11" lengthAdjust="spacingAndGlyphs" textLength="207" x="38" y="207.9541">void main(java.lang.String[]) (1516500233);</text><line style="stroke: #A80036; stroke-width: 1.0; stroke-dasharray: 1.0,2.0;" x1="33" x2="159.5" y1="187.7078" y2="187.7078"/><text fill="#000000" font-family="sans-serif" font-size="11" lengthAdjust="spacingAndGlyphs" textLength="35" x="159.5" y="192.3452">method</text><line style="stroke: #A80036; stroke-width: 1.0; stroke-dasharray: 1.0,2.0;" x1="194.5" x2="321" y1="187.7078" y2="187.7078"/><line style="stroke: #A80036; stroke-width: 1.5;" x1="33" x2="149.5" y1="221.9255" y2="221.9255"/><text fill="#0000FF" font-family="sans-serif" font-size="11" font-weight="bold" lengthAdjust="spacingAndGlyphs" textLength="55" x="149.5" y="226.563">calling list</text><line style="stroke: #A80036; stroke-width: 1.5;" x1="204.5" x2="321" y1="221.9255" y2="221.9255"/><text fill="#000000" font-family="sans-serif" font-size="11" lengthAdjust="spacingAndGlyphs" textLength="102" x="38" y="264.8352">Barista (431687661);</text><line style="stroke: #A80036; stroke-width: 1.0; stroke-dasharray: 1.0,2.0;" x1="33" x2="164" y1="244.5889" y2="244.5889"/><text fill="#000000" font-family="sans-serif" font-size="11" lengthAdjust="spacingAndGlyphs" textLength="26" x="164" y="249.2263">class</text><line style="stroke: #A80036; stroke-width: 1.0; stroke-dasharray: 1.0,2.0;" x1="190" x2="321" y1="244.5889" y2="244.5889"/><line style="stroke: #A80036; stroke-width: 1.0; stroke-dasharray: 1.0,2.0;" x1="33" x2="158" y1="278.8066" y2="278.8066"/><text fill="#000000" font-family="sans-serif" font-size="11" lengthAdjust="spacingAndGlyphs" textLength="38" x="158" y="283.4441">member</text><line style="stroke: #A80036; stroke-width: 1.0; stroke-dasharray: 1.0,2.0;" x1="196" x2="321" y1="278.8066" y2="278.8066"/><text fill="#000000" font-family="sans-serif" font-size="11" lengthAdjust="spacingAndGlyphs" textLength="278" x="38" y="321.7163">Coffee makeCoffee(target.Coffee, boolean) (386163331);</text><line style="stroke: #A80036; stroke-width: 1.0; stroke-dasharray: 1.0,2.0;" x1="33" x2="159.5" y1="301.47" y2="301.47"/><text fill="#000000" font-family="sans-serif" font-size="11" lengthAdjust="spacingAndGlyphs" textLength="35" x="159.5" y="306.1074">method</text><line style="stroke: #A80036; stroke-width: 1.0; stroke-dasharray: 1.0,2.0;" x1="194.5" x2="321" y1="301.47" y2="301.47"/><line style="stroke: #A80036; stroke-width: 1.5;" x1="33" x2="143" y1="335.6877" y2="335.6877"/><text fill="#FFA500" font-family="sans-serif" font-size="11" font-weight="bold" lengthAdjust="spacingAndGlyphs" textLength="68" x="143" y="340.3252">called by list</text><line style="stroke: #A80036; stroke-width: 1.5;" x1="211" x2="321" y1="335.6877" y2="335.6877"/><line style="stroke: #A80036; stroke-width: 1.0; stroke-dasharray: 1.0,2.0;" x1="33" x2="164" y1="358.3511" y2="358.3511"/><text fill="#000000" font-family="sans-serif" font-size="11" lengthAdjust="spacingAndGlyphs" textLength="26" x="164" y="362.9885">class</text><line style="stroke: #A80036; stroke-width: 1.0; stroke-dasharray: 1.0,2.0;" x1="190" x2="321" y1="358.3511" y2="358.3511"/><line style="stroke: #A80036; stroke-width: 1.0; stroke-dasharray: 1.0,2.0;" x1="33" x2="158" y1="381.0144" y2="381.0144"/><text fill="#000000" font-family="sans-serif" font-size="11" lengthAdjust="spacingAndGlyphs" textLength="38" x="158" y="385.6519">member</text><line style="stroke: #A80036; stroke-width: 1.0; stroke-dasharray: 1.0,2.0;" x1="196" x2="321" y1="381.0144" y2="381.0144"/><line style="stroke: #A80036; stroke-width: 1.0; stroke-dasharray: 1.0,2.0;" x1="33" x2="159.5" y1="403.6777" y2="403.6777"/><text fill="#000000" font-family="sans-serif" font-size="11" lengthAdjust="spacingAndGlyphs" textLength="35" x="159.5" y="408.3152">method</text><line style="stroke: #A80036; stroke-width: 1.0; stroke-dasharray: 1.0,2.0;" x1="194.5" x2="321" y1="403.6777" y2="403.6777"/><!--MD5=[d3a65f08e92025167a863b17e7e3325a]
@startuml
class target.CoffeeShop{
__**<color:green>has list</color>**__
..class..
..member..
	target.Barista barista (235237152);
	target.Coffee[] menu (1259014228);
..method..
	void main(java.lang.String[]) (1516500233);
__**<color:blue>calling list</color>**__
..class..
	Barista (431687661);
..member..
..method..
	Coffee makeCoffee(target.Coffee, boolean) (386163331);
__**<color:orange>called by list</color>**__
..class..
..member..
..method..
}

@enduml

PlantUML version 1.2020.19(Tue Oct 13 00:10:01 KST 2020)
(APACHE source distribution)
Java Runtime: Java(TM) SE Runtime Environment
JVM: Java HotSpot(TM) 64-Bit Server VM
Default Encoding: MS949
Language: ko
Country: KR
--></g></svg>