<?xml version="1.0" encoding="UTF-8" standalone="no"?><svg xmlns="http://www.w3.org/2000/svg" xmlns:xlink="http://www.w3.org/1999/xlink" contentScriptType="application/ecmascript" contentStyleType="text/css" height="440px" preserveAspectRatio="none" style="width:227px;height:440px;" version="1.1" viewBox="0 0 227 440" width="227px" zoomAndPan="magnify"><defs><filter height="300%" id="fe2y39ymd8c72" width="300%" x="-1" y="-1"><feGaussianBlur result="blurOut" stdDeviation="2.0"/><feColorMatrix in="blurOut" result="blurOut2" type="matrix" values="0 0 0 0 0 0 0 0 0 0 0 0 0 0 0 0 0 0 .4 0"/><feOffset dx="4.0" dy="4.0" in="blurOut2" result="blurOut3"/><feBlend in="SourceGraphic" in2="blurOut3" mode="normal"/></filter></defs><g><!--MD5=[f97325507fdb48a06ed3f545f55e0189]
cluster shop.User.buy(shop--><polygon fill="#FFFFFF" filter="url(#fe2y39ymd8c72)" points="16,6,163,6,170,31.2295,210,31.2295,210,433,16,433,16,6" style="stroke: #000000; stroke-width: 1.5;"/><line style="stroke: #000000; stroke-width: 1.5;" x1="16" x2="170" y1="31.2295" y2="31.2295"/><text fill="#000000" font-family="sans-serif" font-size="14" font-weight="bold" lengthAdjust="spacingAndGlyphs" textLength="141" x="20" y="24.1533">shop.User.buy(shop</text><!--MD5=[ceff3b47ec1e8e4d42979fdc04496714]
class shop.User.buy(shop.Goods)--><rect codeLine="1" fill="#FEFECE" filter="url(#fe2y39ymd8c72)" height="373.2866" id="shop.User.buy(shop.Goods)" style="stroke: #A80036; stroke-width: 1.5;" width="162" x="32" y="44"/><ellipse cx="88.25" cy="60" fill="#ADD1B2" rx="11" ry="11" style="stroke: #A80036; stroke-width: 1.0;"/><path d="M88.0781,53.4844 Q86.2031,53.4844 85.0469,55.2344 Q83.8594,57.0156 83.8594,60.0156 Q83.8594,63.3906 85.0625,65.1563 Q86.125,66.7813 87.875,66.7813 Q89.5625,66.7813 90.5156,65.875 Q91.5781,64.8594 91.7188,62.625 Q91.7188,62.2031 91.4844,61.9688 Q91.2969,61.7344 90.9531,61.7031 Q90.625,61.7031 90.3906,61.8906 Q90.125,62.125 90.125,62.5156 Q90.0938,63.9063 89.5,64.6406 Q88.9688,65.3438 88.0156,65.3438 Q86.8594,65.3438 86.1406,63.9063 Q85.4219,62.4063 85.4219,59.9844 Q85.4219,57.4375 86.3125,56.0469 Q87.0625,54.9219 88.2031,54.9219 Q88.8594,54.9219 89.3594,55.4688 Q89.9219,56.0781 90.0469,57.1406 Q90.0938,57.8438 90.9219,57.7344 Q91.7031,57.625 91.6563,56.9375 Q91.4688,55.4219 90.7031,54.5469 Q89.7656,53.4844 88.0781,53.4844 Z "/><text fill="#000000" font-family="sans-serif" font-size="12" lengthAdjust="spacingAndGlyphs" textLength="41" x="108.75" y="65.6045">Goods)</text><line style="stroke: #A80036; stroke-width: 1.5;" x1="33" x2="193" y1="76" y2="76"/><line style="stroke: #A80036; stroke-width: 1.5;" x1="33" x2="93" y1="91.5544" y2="91.5544"/><text fill="#008000" font-family="sans-serif" font-size="11" font-weight="bold" lengthAdjust="spacingAndGlyphs" textLength="40" x="93" y="96.1919">has list</text><line style="stroke: #A80036; stroke-width: 1.5;" x1="133" x2="193" y1="91.5544" y2="91.5544"/><line style="stroke: #A80036; stroke-width: 1.0; stroke-dasharray: 1.0,2.0;" x1="33" x2="100" y1="114.2178" y2="114.2178"/><text fill="#000000" font-family="sans-serif" font-size="11" lengthAdjust="spacingAndGlyphs" textLength="26" x="100" y="118.8552">class</text><line style="stroke: #A80036; stroke-width: 1.0; stroke-dasharray: 1.0,2.0;" x1="126" x2="193" y1="114.2178" y2="114.2178"/><text fill="#000000" font-family="sans-serif" font-size="11" lengthAdjust="spacingAndGlyphs" textLength="139" x="38" y="157.1274">Goods goods (1101184763);</text><text fill="#000000" font-family="sans-serif" font-size="11" lengthAdjust="spacingAndGlyphs" textLength="150" x="38" y="172.2363">int goodsMoney (1816147548);</text><line style="stroke: #A80036; stroke-width: 1.0; stroke-dasharray: 1.0,2.0;" x1="33" x2="94" y1="136.8811" y2="136.8811"/><text fill="#000000" font-family="sans-serif" font-size="11" lengthAdjust="spacingAndGlyphs" textLength="38" x="94" y="141.5186">member</text><line style="stroke: #A80036; stroke-width: 1.0; stroke-dasharray: 1.0,2.0;" x1="132" x2="193" y1="136.8811" y2="136.8811"/><line style="stroke: #A80036; stroke-width: 1.0; stroke-dasharray: 1.0,2.0;" x1="33" x2="95.5" y1="186.2078" y2="186.2078"/><text fill="#000000" font-family="sans-serif" font-size="11" lengthAdjust="spacingAndGlyphs" textLength="35" x="95.5" y="190.8452">method</text><line style="stroke: #A80036; stroke-width: 1.0; stroke-dasharray: 1.0,2.0;" x1="130.5" x2="193" y1="186.2078" y2="186.2078"/><line style="stroke: #A80036; stroke-width: 1.5;" x1="33" x2="85.5" y1="208.8711" y2="208.8711"/><text fill="#0000FF" font-family="sans-serif" font-size="11" font-weight="bold" lengthAdjust="spacingAndGlyphs" textLength="55" x="85.5" y="213.5085">calling list</text><line style="stroke: #A80036; stroke-width: 1.5;" x1="140.5" x2="193" y1="208.8711" y2="208.8711"/><text fill="#000000" font-family="sans-serif" font-size="11" lengthAdjust="spacingAndGlyphs" textLength="106" x="38" y="251.7808">Goods (1069716895);</text><line style="stroke: #A80036; stroke-width: 1.0; stroke-dasharray: 1.0,2.0;" x1="33" x2="100" y1="231.5344" y2="231.5344"/><text fill="#000000" font-family="sans-serif" font-size="11" lengthAdjust="spacingAndGlyphs" textLength="26" x="100" y="236.1719">class</text><line style="stroke: #A80036; stroke-width: 1.0; stroke-dasharray: 1.0,2.0;" x1="126" x2="193" y1="231.5344" y2="231.5344"/><text fill="#000000" font-family="sans-serif" font-size="11" lengthAdjust="spacingAndGlyphs" textLength="120" x="38" y="285.9985">int money (1965237677);</text><line style="stroke: #A80036; stroke-width: 1.0; stroke-dasharray: 1.0,2.0;" x1="33" x2="94" y1="265.7522" y2="265.7522"/><text fill="#000000" font-family="sans-serif" font-size="11" lengthAdjust="spacingAndGlyphs" textLength="38" x="94" y="270.3896">member</text><line style="stroke: #A80036; stroke-width: 1.0; stroke-dasharray: 1.0,2.0;" x1="132" x2="193" y1="265.7522" y2="265.7522"/><text fill="#000000" font-family="sans-serif" font-size="11" lengthAdjust="spacingAndGlyphs" textLength="137" x="38" y="320.2163">int getMoney() (522553046);</text><line style="stroke: #A80036; stroke-width: 1.0; stroke-dasharray: 1.0,2.0;" x1="33" x2="95.5" y1="299.97" y2="299.97"/><text fill="#000000" font-family="sans-serif" font-size="11" lengthAdjust="spacingAndGlyphs" textLength="35" x="95.5" y="304.6074">method</text><line style="stroke: #A80036; stroke-width: 1.0; stroke-dasharray: 1.0,2.0;" x1="130.5" x2="193" y1="299.97" y2="299.97"/><line style="stroke: #A80036; stroke-width: 1.5;" x1="33" x2="79" y1="334.1877" y2="334.1877"/><text fill="#FFA500" font-family="sans-serif" font-size="11" font-weight="bold" lengthAdjust="spacingAndGlyphs" textLength="68" x="79" y="338.8252">called by list</text><line style="stroke: #A80036; stroke-width: 1.5;" x1="147" x2="193" y1="334.1877" y2="334.1877"/><line style="stroke: #A80036; stroke-width: 1.0; stroke-dasharray: 1.0,2.0;" x1="33" x2="100" y1="356.8511" y2="356.8511"/><text fill="#000000" font-family="sans-serif" font-size="11" lengthAdjust="spacingAndGlyphs" textLength="26" x="100" y="361.4885">class</text><line style="stroke: #A80036; stroke-width: 1.0; stroke-dasharray: 1.0,2.0;" x1="126" x2="193" y1="356.8511" y2="356.8511"/><line style="stroke: #A80036; stroke-width: 1.0; stroke-dasharray: 1.0,2.0;" x1="33" x2="94" y1="379.5144" y2="379.5144"/><text fill="#000000" font-family="sans-serif" font-size="11" lengthAdjust="spacingAndGlyphs" textLength="38" x="94" y="384.1519">member</text><line style="stroke: #A80036; stroke-width: 1.0; stroke-dasharray: 1.0,2.0;" x1="132" x2="193" y1="379.5144" y2="379.5144"/><line style="stroke: #A80036; stroke-width: 1.0; stroke-dasharray: 1.0,2.0;" x1="33" x2="95.5" y1="402.1777" y2="402.1777"/><text fill="#000000" font-family="sans-serif" font-size="11" lengthAdjust="spacingAndGlyphs" textLength="35" x="95.5" y="406.8152">method</text><line style="stroke: #A80036; stroke-width: 1.0; stroke-dasharray: 1.0,2.0;" x1="130.5" x2="193" y1="402.1777" y2="402.1777"/><!--MD5=[119e1bed92441a30156f824bea2f55ee]
@startuml
class shop.User.buy(shop.Goods){
__**<color:green>has list</color>**__
..class..
..member..
	Goods goods (1101184763);
	int goodsMoney (1816147548);
..method..
__**<color:blue>calling list</color>**__
..class..
	Goods (1069716895);
..member..
	int money (1965237677);
..method..
	int getMoney() (522553046);
__**<color:orange>called by list</color>**__
..class..
..member..
..method..
}

@enduml

PlantUML version 1.2020.19(Tue Oct 13 00:10:01 KST 2020)
(APACHE source distribution)
Java Runtime: Java(TM) SE Runtime Environment
JVM: Java HotSpot(TM) 64-Bit Server VM
Default Encoding: MS949
Language: ko
Country: KR
--></g></svg>