<?xml version="1.0" encoding="UTF-8" standalone="no"?><svg xmlns="http://www.w3.org/2000/svg" xmlns:xlink="http://www.w3.org/1999/xlink" contentScriptType="application/ecmascript" contentStyleType="text/css" height="402px" preserveAspectRatio="none" style="width:355px;height:402px;" version="1.1" viewBox="0 0 355 402" width="355px" zoomAndPan="magnify"><defs><filter height="300%" id="f1litypgqc4a1m" width="300%" x="-1" y="-1"><feGaussianBlur result="blurOut" stdDeviation="2.0"/><feColorMatrix in="blurOut" result="blurOut2" type="matrix" values="0 0 0 0 0 0 0 0 0 0 0 0 0 0 0 0 0 0 .4 0"/><feOffset dx="4.0" dy="4.0" in="blurOut2" result="blurOut3"/><feBlend in="SourceGraphic" in2="blurOut3" mode="normal"/></filter></defs><g><!--MD5=[9b50449b776ecb812ac9f60be0621738]
cluster shopTest.TestScenario--><polygon fill="#FFFFFF" filter="url(#f1litypgqc4a1m)" points="16,6,183,6,190,31.2295,338,31.2295,338,395,16,395,16,6" style="stroke: #000000; stroke-width: 1.5;"/><line style="stroke: #000000; stroke-width: 1.5;" x1="16" x2="190" y1="31.2295" y2="31.2295"/><text fill="#000000" font-family="sans-serif" font-size="14" font-weight="bold" lengthAdjust="spacingAndGlyphs" textLength="161" x="20" y="24.1533">shopTest.TestScenario</text><!--MD5=[e4539ee94a6326d84d7b2a4d35934138]
class shopTest.TestScenario.Login()--><rect codeLine="1" fill="#FEFECE" filter="url(#f1litypgqc4a1m)" height="335.0688" id="shopTest.TestScenario.Login()" style="stroke: #A80036; stroke-width: 1.5;" width="290" x="32" y="44"/><ellipse cx="153.25" cy="60" fill="#ADD1B2" rx="11" ry="11" style="stroke: #A80036; stroke-width: 1.0;"/><path d="M153.0781,53.4844 Q151.2031,53.4844 150.0469,55.2344 Q148.8594,57.0156 148.8594,60.0156 Q148.8594,63.3906 150.0625,65.1563 Q151.125,66.7813 152.875,66.7813 Q154.5625,66.7813 155.5156,65.875 Q156.5781,64.8594 156.7188,62.625 Q156.7188,62.2031 156.4844,61.9688 Q156.2969,61.7344 155.9531,61.7031 Q155.625,61.7031 155.3906,61.8906 Q155.125,62.125 155.125,62.5156 Q155.0938,63.9063 154.5,64.6406 Q153.9688,65.3438 153.0156,65.3438 Q151.8594,65.3438 151.1406,63.9063 Q150.4219,62.4063 150.4219,59.9844 Q150.4219,57.4375 151.3125,56.0469 Q152.0625,54.9219 153.2031,54.9219 Q153.8594,54.9219 154.3594,55.4688 Q154.9219,56.0781 155.0469,57.1406 Q155.0938,57.8438 155.9219,57.7344 Q156.7031,57.625 156.6563,56.9375 Q156.4688,55.4219 155.7031,54.5469 Q154.7656,53.4844 153.0781,53.4844 Z "/><text fill="#000000" font-family="sans-serif" font-size="12" lengthAdjust="spacingAndGlyphs" textLength="39" x="173.75" y="65.6045">Login()</text><line style="stroke: #A80036; stroke-width: 1.5;" x1="33" x2="321" y1="76" y2="76"/><line style="stroke: #A80036; stroke-width: 1.5;" x1="33" x2="157" y1="91.5544" y2="91.5544"/><text fill="#008000" font-family="sans-serif" font-size="11" font-weight="bold" lengthAdjust="spacingAndGlyphs" textLength="40" x="157" y="96.1919">has list</text><line style="stroke: #A80036; stroke-width: 1.5;" x1="197" x2="321" y1="91.5544" y2="91.5544"/><line style="stroke: #A80036; stroke-width: 1.0; stroke-dasharray: 1.0,2.0;" x1="33" x2="164" y1="114.2178" y2="114.2178"/><text fill="#000000" font-family="sans-serif" font-size="11" lengthAdjust="spacingAndGlyphs" textLength="26" x="164" y="118.8552">class</text><line style="stroke: #A80036; stroke-width: 1.0; stroke-dasharray: 1.0,2.0;" x1="190" x2="321" y1="114.2178" y2="114.2178"/><line style="stroke: #A80036; stroke-width: 1.0; stroke-dasharray: 1.0,2.0;" x1="33" x2="158" y1="136.8811" y2="136.8811"/><text fill="#000000" font-family="sans-serif" font-size="11" lengthAdjust="spacingAndGlyphs" textLength="38" x="158" y="141.5186">member</text><line style="stroke: #A80036; stroke-width: 1.0; stroke-dasharray: 1.0,2.0;" x1="196" x2="321" y1="136.8811" y2="136.8811"/><line style="stroke: #A80036; stroke-width: 1.0; stroke-dasharray: 1.0,2.0;" x1="33" x2="159.5" y1="159.5444" y2="159.5444"/><text fill="#000000" font-family="sans-serif" font-size="11" lengthAdjust="spacingAndGlyphs" textLength="35" x="159.5" y="164.1819">method</text><line style="stroke: #A80036; stroke-width: 1.0; stroke-dasharray: 1.0,2.0;" x1="194.5" x2="321" y1="159.5444" y2="159.5444"/><line style="stroke: #A80036; stroke-width: 1.5;" x1="33" x2="149.5" y1="182.2078" y2="182.2078"/><text fill="#0000FF" font-family="sans-serif" font-size="11" font-weight="bold" lengthAdjust="spacingAndGlyphs" textLength="55" x="149.5" y="186.8452">calling list</text><line style="stroke: #A80036; stroke-width: 1.5;" x1="204.5" x2="321" y1="182.2078" y2="182.2078"/><text fill="#000000" font-family="sans-serif" font-size="11" lengthAdjust="spacingAndGlyphs" textLength="93" x="38" y="225.1174">Shop (536122141);</text><line style="stroke: #A80036; stroke-width: 1.0; stroke-dasharray: 1.0,2.0;" x1="33" x2="164" y1="204.8711" y2="204.8711"/><text fill="#000000" font-family="sans-serif" font-size="11" lengthAdjust="spacingAndGlyphs" textLength="26" x="164" y="209.5085">class</text><line style="stroke: #A80036; stroke-width: 1.0; stroke-dasharray: 1.0,2.0;" x1="190" x2="321" y1="204.8711" y2="204.8711"/><line style="stroke: #A80036; stroke-width: 1.0; stroke-dasharray: 1.0,2.0;" x1="33" x2="158" y1="239.0889" y2="239.0889"/><text fill="#000000" font-family="sans-serif" font-size="11" lengthAdjust="spacingAndGlyphs" textLength="38" x="158" y="243.7263">member</text><line style="stroke: #A80036; stroke-width: 1.0; stroke-dasharray: 1.0,2.0;" x1="196" x2="321" y1="239.0889" y2="239.0889"/><text fill="#000000" font-family="sans-serif" font-size="11" lengthAdjust="spacingAndGlyphs" textLength="278" x="38" y="281.9985">User login(java.lang.String, java.lang.String) (914356853);</text><line style="stroke: #A80036; stroke-width: 1.0; stroke-dasharray: 1.0,2.0;" x1="33" x2="159.5" y1="261.7522" y2="261.7522"/><text fill="#000000" font-family="sans-serif" font-size="11" lengthAdjust="spacingAndGlyphs" textLength="35" x="159.5" y="266.3896">method</text><line style="stroke: #A80036; stroke-width: 1.0; stroke-dasharray: 1.0,2.0;" x1="194.5" x2="321" y1="261.7522" y2="261.7522"/><line style="stroke: #A80036; stroke-width: 1.5;" x1="33" x2="143" y1="295.97" y2="295.97"/><text fill="#FFA500" font-family="sans-serif" font-size="11" font-weight="bold" lengthAdjust="spacingAndGlyphs" textLength="68" x="143" y="300.6074">called by list</text><line style="stroke: #A80036; stroke-width: 1.5;" x1="211" x2="321" y1="295.97" y2="295.97"/><line style="stroke: #A80036; stroke-width: 1.0; stroke-dasharray: 1.0,2.0;" x1="33" x2="164" y1="318.6333" y2="318.6333"/><text fill="#000000" font-family="sans-serif" font-size="11" lengthAdjust="spacingAndGlyphs" textLength="26" x="164" y="323.2708">class</text><line style="stroke: #A80036; stroke-width: 1.0; stroke-dasharray: 1.0,2.0;" x1="190" x2="321" y1="318.6333" y2="318.6333"/><line style="stroke: #A80036; stroke-width: 1.0; stroke-dasharray: 1.0,2.0;" x1="33" x2="158" y1="341.2966" y2="341.2966"/><text fill="#000000" font-family="sans-serif" font-size="11" lengthAdjust="spacingAndGlyphs" textLength="38" x="158" y="345.9341">member</text><line style="stroke: #A80036; stroke-width: 1.0; stroke-dasharray: 1.0,2.0;" x1="196" x2="321" y1="341.2966" y2="341.2966"/><line style="stroke: #A80036; stroke-width: 1.0; stroke-dasharray: 1.0,2.0;" x1="33" x2="159.5" y1="363.96" y2="363.96"/><text fill="#000000" font-family="sans-serif" font-size="11" lengthAdjust="spacingAndGlyphs" textLength="35" x="159.5" y="368.5974">method</text><line style="stroke: #A80036; stroke-width: 1.0; stroke-dasharray: 1.0,2.0;" x1="194.5" x2="321" y1="363.96" y2="363.96"/><!--MD5=[2bbabe11db34d259111533e1cac5ba61]
@startuml
class shopTest.TestScenario.Login(){
__**<color:green>has list</color>**__
..class..
..member..
..method..
__**<color:blue>calling list</color>**__
..class..
	Shop (536122141);
..member..
..method..
	User login(java.lang.String, java.lang.String) (914356853);
__**<color:orange>called by list</color>**__
..class..
..member..
..method..
}

@enduml

PlantUML version 1.2020.19(Tue Oct 13 00:10:01 KST 2020)
(APACHE source distribution)
Java Runtime: Java(TM) SE Runtime Environment
JVM: Java HotSpot(TM) 64-Bit Server VM
Default Encoding: MS949
Language: ko
Country: KR
--></g></svg>