<?xml version="1.0" encoding="UTF-8" standalone="no"?><svg xmlns="http://www.w3.org/2000/svg" xmlns:xlink="http://www.w3.org/1999/xlink" contentScriptType="application/ecmascript" contentStyleType="text/css" height="402px" preserveAspectRatio="none" style="width:197px;height:402px;" version="1.1" viewBox="0 0 197 402" width="197px" zoomAndPan="magnify"><defs><filter height="300%" id="fkc1ez6seb3f7" width="300%" x="-1" y="-1"><feGaussianBlur result="blurOut" stdDeviation="2.0"/><feColorMatrix in="blurOut" result="blurOut2" type="matrix" values="0 0 0 0 0 0 0 0 0 0 0 0 0 0 0 0 0 0 .4 0"/><feOffset dx="4.0" dy="4.0" in="blurOut2" result="blurOut3"/><feBlend in="SourceGraphic" in2="blurOut3" mode="normal"/></filter></defs><g><!--MD5=[231bc79096336a4205e8f81d22469b9c]
cluster shop.Goods--><polygon fill="#FFFFFF" filter="url(#fkc1ez6seb3f7)" points="16,6,107,6,114,31.2295,180,31.2295,180,395,16,395,16,6" style="stroke: #000000; stroke-width: 1.5;"/><line style="stroke: #000000; stroke-width: 1.5;" x1="16" x2="114" y1="31.2295" y2="31.2295"/><text fill="#000000" font-family="sans-serif" font-size="14" font-weight="bold" lengthAdjust="spacingAndGlyphs" textLength="85" x="20" y="24.1533">shop.Goods</text><!--MD5=[a19326e134b04e8ff6a4c1c2cd2e8bcd]
class shop.Goods.setMoney(int)--><rect codeLine="1" fill="#FEFECE" filter="url(#fkc1ez6seb3f7)" height="335.0688" id="shop.Goods.setMoney(int)" style="stroke: #A80036; stroke-width: 1.5;" width="132" x="32" y="44"/><ellipse cx="59.15" cy="60" fill="#ADD1B2" rx="11" ry="11" style="stroke: #A80036; stroke-width: 1.0;"/><path d="M58.9781,53.4844 Q57.1031,53.4844 55.9469,55.2344 Q54.7594,57.0156 54.7594,60.0156 Q54.7594,63.3906 55.9625,65.1563 Q57.025,66.7813 58.775,66.7813 Q60.4625,66.7813 61.4156,65.875 Q62.4781,64.8594 62.6188,62.625 Q62.6188,62.2031 62.3844,61.9688 Q62.1969,61.7344 61.8531,61.7031 Q61.525,61.7031 61.2906,61.8906 Q61.025,62.125 61.025,62.5156 Q60.9938,63.9063 60.4,64.6406 Q59.8688,65.3438 58.9156,65.3438 Q57.7594,65.3438 57.0406,63.9063 Q56.3219,62.4063 56.3219,59.9844 Q56.3219,57.4375 57.2125,56.0469 Q57.9625,54.9219 59.1031,54.9219 Q59.7594,54.9219 60.2594,55.4688 Q60.8219,56.0781 60.9469,57.1406 Q60.9938,57.8438 61.8219,57.7344 Q62.6031,57.625 62.5563,56.9375 Q62.3688,55.4219 61.6031,54.5469 Q60.6656,53.4844 58.9781,53.4844 Z "/><text fill="#000000" font-family="sans-serif" font-size="12" lengthAdjust="spacingAndGlyphs" textLength="73" x="75.85" y="65.6045">setMoney(int)</text><line style="stroke: #A80036; stroke-width: 1.5;" x1="33" x2="163" y1="76" y2="76"/><line style="stroke: #A80036; stroke-width: 1.5;" x1="33" x2="78" y1="91.5544" y2="91.5544"/><text fill="#008000" font-family="sans-serif" font-size="11" font-weight="bold" lengthAdjust="spacingAndGlyphs" textLength="40" x="78" y="96.1919">has list</text><line style="stroke: #A80036; stroke-width: 1.5;" x1="118" x2="163" y1="91.5544" y2="91.5544"/><line style="stroke: #A80036; stroke-width: 1.0; stroke-dasharray: 1.0,2.0;" x1="33" x2="85" y1="114.2178" y2="114.2178"/><text fill="#000000" font-family="sans-serif" font-size="11" lengthAdjust="spacingAndGlyphs" textLength="26" x="85" y="118.8552">class</text><line style="stroke: #A80036; stroke-width: 1.0; stroke-dasharray: 1.0,2.0;" x1="111" x2="163" y1="114.2178" y2="114.2178"/><text fill="#000000" font-family="sans-serif" font-size="11" lengthAdjust="spacingAndGlyphs" textLength="120" x="38" y="157.1274">int money (1792550665);</text><line style="stroke: #A80036; stroke-width: 1.0; stroke-dasharray: 1.0,2.0;" x1="33" x2="79" y1="136.8811" y2="136.8811"/><text fill="#000000" font-family="sans-serif" font-size="11" lengthAdjust="spacingAndGlyphs" textLength="38" x="79" y="141.5186">member</text><line style="stroke: #A80036; stroke-width: 1.0; stroke-dasharray: 1.0,2.0;" x1="117" x2="163" y1="136.8811" y2="136.8811"/><line style="stroke: #A80036; stroke-width: 1.0; stroke-dasharray: 1.0,2.0;" x1="33" x2="80.5" y1="171.0989" y2="171.0989"/><text fill="#000000" font-family="sans-serif" font-size="11" lengthAdjust="spacingAndGlyphs" textLength="35" x="80.5" y="175.7363">method</text><line style="stroke: #A80036; stroke-width: 1.0; stroke-dasharray: 1.0,2.0;" x1="115.5" x2="163" y1="171.0989" y2="171.0989"/><line style="stroke: #A80036; stroke-width: 1.5;" x1="33" x2="70.5" y1="193.7622" y2="193.7622"/><text fill="#0000FF" font-family="sans-serif" font-size="11" font-weight="bold" lengthAdjust="spacingAndGlyphs" textLength="55" x="70.5" y="198.3997">calling list</text><line style="stroke: #A80036; stroke-width: 1.5;" x1="125.5" x2="163" y1="193.7622" y2="193.7622"/><line style="stroke: #A80036; stroke-width: 1.0; stroke-dasharray: 1.0,2.0;" x1="33" x2="85" y1="216.4255" y2="216.4255"/><text fill="#000000" font-family="sans-serif" font-size="11" lengthAdjust="spacingAndGlyphs" textLength="26" x="85" y="221.063">class</text><line style="stroke: #A80036; stroke-width: 1.0; stroke-dasharray: 1.0,2.0;" x1="111" x2="163" y1="216.4255" y2="216.4255"/><text fill="#000000" font-family="sans-serif" font-size="11" lengthAdjust="spacingAndGlyphs" textLength="114" x="38" y="259.3352">int money (231756373);</text><line style="stroke: #A80036; stroke-width: 1.0; stroke-dasharray: 1.0,2.0;" x1="33" x2="79" y1="239.0889" y2="239.0889"/><text fill="#000000" font-family="sans-serif" font-size="11" lengthAdjust="spacingAndGlyphs" textLength="38" x="79" y="243.7263">member</text><line style="stroke: #A80036; stroke-width: 1.0; stroke-dasharray: 1.0,2.0;" x1="117" x2="163" y1="239.0889" y2="239.0889"/><line style="stroke: #A80036; stroke-width: 1.0; stroke-dasharray: 1.0,2.0;" x1="33" x2="80.5" y1="273.3066" y2="273.3066"/><text fill="#000000" font-family="sans-serif" font-size="11" lengthAdjust="spacingAndGlyphs" textLength="35" x="80.5" y="277.9441">method</text><line style="stroke: #A80036; stroke-width: 1.0; stroke-dasharray: 1.0,2.0;" x1="115.5" x2="163" y1="273.3066" y2="273.3066"/><line style="stroke: #A80036; stroke-width: 1.5;" x1="33" x2="64" y1="295.97" y2="295.97"/><text fill="#FFA500" font-family="sans-serif" font-size="11" font-weight="bold" lengthAdjust="spacingAndGlyphs" textLength="68" x="64" y="300.6074">called by list</text><line style="stroke: #A80036; stroke-width: 1.5;" x1="132" x2="163" y1="295.97" y2="295.97"/><line style="stroke: #A80036; stroke-width: 1.0; stroke-dasharray: 1.0,2.0;" x1="33" x2="85" y1="318.6333" y2="318.6333"/><text fill="#000000" font-family="sans-serif" font-size="11" lengthAdjust="spacingAndGlyphs" textLength="26" x="85" y="323.2708">class</text><line style="stroke: #A80036; stroke-width: 1.0; stroke-dasharray: 1.0,2.0;" x1="111" x2="163" y1="318.6333" y2="318.6333"/><line style="stroke: #A80036; stroke-width: 1.0; stroke-dasharray: 1.0,2.0;" x1="33" x2="79" y1="341.2966" y2="341.2966"/><text fill="#000000" font-family="sans-serif" font-size="11" lengthAdjust="spacingAndGlyphs" textLength="38" x="79" y="345.9341">member</text><line style="stroke: #A80036; stroke-width: 1.0; stroke-dasharray: 1.0,2.0;" x1="117" x2="163" y1="341.2966" y2="341.2966"/><line style="stroke: #A80036; stroke-width: 1.0; stroke-dasharray: 1.0,2.0;" x1="33" x2="80.5" y1="363.96" y2="363.96"/><text fill="#000000" font-family="sans-serif" font-size="11" lengthAdjust="spacingAndGlyphs" textLength="35" x="80.5" y="368.5974">method</text><line style="stroke: #A80036; stroke-width: 1.0; stroke-dasharray: 1.0,2.0;" x1="115.5" x2="163" y1="363.96" y2="363.96"/><!--MD5=[82a00a6d8a03f0cb6d1b9dfeba535dbb]
@startuml
class shop.Goods.setMoney(int){
__**<color:green>has list</color>**__
..class..
..member..
	int money (1792550665);
..method..
__**<color:blue>calling list</color>**__
..class..
..member..
	int money (231756373);
..method..
__**<color:orange>called by list</color>**__
..class..
..member..
..method..
}

@enduml

PlantUML version 1.2020.19(Tue Oct 13 00:10:01 KST 2020)
(APACHE source distribution)
Java Runtime: Java(TM) SE Runtime Environment
JVM: Java HotSpot(TM) 64-Bit Server VM
Default Encoding: MS949
Language: ko
Country: KR
--></g></svg>