<?xml version="1.0" encoding="UTF-8" standalone="no"?><svg xmlns="http://www.w3.org/2000/svg" xmlns:xlink="http://www.w3.org/1999/xlink" contentScriptType="application/ecmascript" contentStyleType="text/css" height="392px" preserveAspectRatio="none" style="width:227px;height:392px;" version="1.1" viewBox="0 0 227 392" width="227px" zoomAndPan="magnify"><defs><filter height="300%" id="f1opkkl3g97ahc" width="300%" x="-1" y="-1"><feGaussianBlur result="blurOut" stdDeviation="2.0"/><feColorMatrix in="blurOut" result="blurOut2" type="matrix" values="0 0 0 0 0 0 0 0 0 0 0 0 0 0 0 0 0 0 .4 0"/><feOffset dx="4.0" dy="4.0" in="blurOut2" result="blurOut3"/><feBlend in="SourceGraphic" in2="blurOut3" mode="normal"/></filter></defs><g><!--MD5=[bd01ec5e465a246bd31236c56549ca68]
cluster target.Exp.main(java.lang--><polygon fill="#FFFFFF" filter="url(#f1opkkl3g97ahc)" points="16,6,199,6,206,31.2295,210,31.2295,210,385,16,385,16,6" style="stroke: #000000; stroke-width: 1.5;"/><line style="stroke: #000000; stroke-width: 1.5;" x1="16" x2="206" y1="31.2295" y2="31.2295"/><text fill="#000000" font-family="sans-serif" font-size="14" font-weight="bold" lengthAdjust="spacingAndGlyphs" textLength="177" x="20" y="24.1533">target.Exp.main(java.lang</text><!--MD5=[180768c43588b510da8ba8388f8e5e8d]
class target.Exp.main(java.lang.String[])--><rect codeLine="1" fill="#FEFECE" filter="url(#f1opkkl3g97ahc)" height="323.5144" id="target.Exp.main(java.lang.String[])" style="stroke: #A80036; stroke-width: 1.5;" width="133" x="47" y="45"/><ellipse cx="88.55" cy="61" fill="#ADD1B2" rx="11" ry="11" style="stroke: #A80036; stroke-width: 1.0;"/><path d="M88.1125,54.5156 Q85.3781,54.5156 84.3,56.1406 Q83.1594,57.8594 83.1594,60.7813 Q83.1594,64.0781 84.3156,65.7813 Q85.3,67.2813 87.9094,67.2813 Q89.4875,67.2813 90.3625,66.4531 Q91.3469,65.5 91.4875,63.375 Q91.4875,63.0781 91.3156,62.9063 Q91.1906,62.75 90.9719,62.7344 Q89.7531,62.7344 89.5969,62.8594 Q89.425,63.0156 89.425,63.2813 Q89.3938,64.7656 88.7375,65.5781 Q88.1281,66.375 88.05,66.375 Q86.7219,66.375 85.9406,64.7813 Q85.1906,63.2344 85.1906,60.75 Q85.1906,58.125 86.1281,56.6719 Q86.9563,55.4219 88.2375,55.4219 Q88.2375,55.4219 88.5813,56.0469 Q89.2063,56.7188 89.3469,57.875 Q89.4563,58.4531 90.925,58.2344 Q91.4563,58.1563 91.425,57.7344 Q91.2531,56.2969 90.5344,55.4844 Q89.675,54.5156 88.1125,54.5156 Z "/><text fill="#000000" font-family="sans-serif" font-size="12" lengthAdjust="spacingAndGlyphs" textLength="42" x="108.45" y="66.6045">String[])</text><line style="stroke: #A80036; stroke-width: 1.5;" x1="48" x2="179" y1="77" y2="77"/><line style="stroke: #A80036; stroke-width: 1.5;" x1="48" x2="93.5" y1="92.5544" y2="92.5544"/><text fill="#008000" font-family="sans-serif" font-size="11" font-weight="bold" lengthAdjust="spacingAndGlyphs" textLength="40" x="93.5" y="97.1919">has list</text><line style="stroke: #A80036; stroke-width: 1.5;" x1="133.5" x2="179" y1="92.5544" y2="92.5544"/><line style="stroke: #A80036; stroke-width: 1.0; stroke-dasharray: 1.0,2.0;" x1="48" x2="100.5" y1="115.2178" y2="115.2178"/><text fill="#000000" font-family="sans-serif" font-size="11" lengthAdjust="spacingAndGlyphs" textLength="26" x="100.5" y="119.8552">class</text><line style="stroke: #A80036; stroke-width: 1.0; stroke-dasharray: 1.0,2.0;" x1="126.5" x2="179" y1="115.2178" y2="115.2178"/><text fill="#000000" font-family="sans-serif" font-size="11" lengthAdjust="spacingAndGlyphs" textLength="121" x="53" y="158.1274">String[] args (11902257);</text><line style="stroke: #A80036; stroke-width: 1.0; stroke-dasharray: 1.0,2.0;" x1="48" x2="94.5" y1="137.8811" y2="137.8811"/><text fill="#000000" font-family="sans-serif" font-size="11" lengthAdjust="spacingAndGlyphs" textLength="38" x="94.5" y="142.5186">member</text><line style="stroke: #A80036; stroke-width: 1.0; stroke-dasharray: 1.0,2.0;" x1="132.5" x2="179" y1="137.8811" y2="137.8811"/><line style="stroke: #A80036; stroke-width: 1.0; stroke-dasharray: 1.0,2.0;" x1="48" x2="96" y1="172.0989" y2="172.0989"/><text fill="#000000" font-family="sans-serif" font-size="11" lengthAdjust="spacingAndGlyphs" textLength="35" x="96" y="176.7363">method</text><line style="stroke: #A80036; stroke-width: 1.0; stroke-dasharray: 1.0,2.0;" x1="131" x2="179" y1="172.0989" y2="172.0989"/><line style="stroke: #A80036; stroke-width: 1.5;" x1="48" x2="86" y1="194.7622" y2="194.7622"/><text fill="#0000FF" font-family="sans-serif" font-size="11" font-weight="bold" lengthAdjust="spacingAndGlyphs" textLength="55" x="86" y="199.3997">calling list</text><line style="stroke: #A80036; stroke-width: 1.5;" x1="141" x2="179" y1="194.7622" y2="194.7622"/><line style="stroke: #A80036; stroke-width: 1.0; stroke-dasharray: 1.0,2.0;" x1="48" x2="100.5" y1="217.4255" y2="217.4255"/><text fill="#000000" font-family="sans-serif" font-size="11" lengthAdjust="spacingAndGlyphs" textLength="26" x="100.5" y="222.063">class</text><line style="stroke: #A80036; stroke-width: 1.0; stroke-dasharray: 1.0,2.0;" x1="126.5" x2="179" y1="217.4255" y2="217.4255"/><line style="stroke: #A80036; stroke-width: 1.0; stroke-dasharray: 1.0,2.0;" x1="48" x2="94.5" y1="240.0889" y2="240.0889"/><text fill="#000000" font-family="sans-serif" font-size="11" lengthAdjust="spacingAndGlyphs" textLength="38" x="94.5" y="244.7263">member</text><line style="stroke: #A80036; stroke-width: 1.0; stroke-dasharray: 1.0,2.0;" x1="132.5" x2="179" y1="240.0889" y2="240.0889"/><line style="stroke: #A80036; stroke-width: 1.0; stroke-dasharray: 1.0,2.0;" x1="48" x2="96" y1="262.7522" y2="262.7522"/><text fill="#000000" font-family="sans-serif" font-size="11" lengthAdjust="spacingAndGlyphs" textLength="35" x="96" y="267.3896">method</text><line style="stroke: #A80036; stroke-width: 1.0; stroke-dasharray: 1.0,2.0;" x1="131" x2="179" y1="262.7522" y2="262.7522"/><line style="stroke: #A80036; stroke-width: 1.5;" x1="48" x2="79.5" y1="285.4155" y2="285.4155"/><text fill="#FFA500" font-family="sans-serif" font-size="11" font-weight="bold" lengthAdjust="spacingAndGlyphs" textLength="68" x="79.5" y="290.053">called by list</text><line style="stroke: #A80036; stroke-width: 1.5;" x1="147.5" x2="179" y1="285.4155" y2="285.4155"/><line style="stroke: #A80036; stroke-width: 1.0; stroke-dasharray: 1.0,2.0;" x1="48" x2="100.5" y1="308.0789" y2="308.0789"/><text fill="#000000" font-family="sans-serif" font-size="11" lengthAdjust="spacingAndGlyphs" textLength="26" x="100.5" y="312.7163">class</text><line style="stroke: #A80036; stroke-width: 1.0; stroke-dasharray: 1.0,2.0;" x1="126.5" x2="179" y1="308.0789" y2="308.0789"/><line style="stroke: #A80036; stroke-width: 1.0; stroke-dasharray: 1.0,2.0;" x1="48" x2="94.5" y1="330.7422" y2="330.7422"/><text fill="#000000" font-family="sans-serif" font-size="11" lengthAdjust="spacingAndGlyphs" textLength="38" x="94.5" y="335.3796">member</text><line style="stroke: #A80036; stroke-width: 1.0; stroke-dasharray: 1.0,2.0;" x1="132.5" x2="179" y1="330.7422" y2="330.7422"/><line style="stroke: #A80036; stroke-width: 1.0; stroke-dasharray: 1.0,2.0;" x1="48" x2="96" y1="353.4055" y2="353.4055"/><text fill="#000000" font-family="sans-serif" font-size="11" lengthAdjust="spacingAndGlyphs" textLength="35" x="96" y="358.043">method</text><line style="stroke: #A80036; stroke-width: 1.0; stroke-dasharray: 1.0,2.0;" x1="131" x2="179" y1="353.4055" y2="353.4055"/><!--MD5=[aab27e6ad2c147be856a82750fc76052]
@startuml
class target.Exp.main(java.lang.String[]){
__**<color:green>has list</color>**__
..class..
..member..
	String[] args (11902257);
..method..
__**<color:blue>calling list</color>**__
..class..
..member..
..method..
__**<color:orange>called by list</color>**__
..class..
..member..
..method..
}

@enduml

PlantUML version 1.2020.19(Tue Oct 13 00:10:01 KST 2020)
(APACHE source distribution)
Java Runtime: Java(TM) SE Runtime Environment
JVM: Java HotSpot(TM) 64-Bit Server VM
Default Encoding: MS949
Language: ko
Country: KR
--></g></svg>