<?xml version="1.0" encoding="UTF-8" standalone="no"?><svg xmlns="http://www.w3.org/2000/svg" xmlns:xlink="http://www.w3.org/1999/xlink" contentScriptType="application/ecmascript" contentStyleType="text/css" height="404px" preserveAspectRatio="none" style="width:185px;height:404px;" version="1.1" viewBox="0 0 185 404" width="185px" zoomAndPan="magnify"><defs><filter height="300%" id="f1htyt09n4yfgw" width="300%" x="-1" y="-1"><feGaussianBlur result="blurOut" stdDeviation="2.0"/><feColorMatrix in="blurOut" result="blurOut2" type="matrix" values="0 0 0 0 0 0 0 0 0 0 0 0 0 0 0 0 0 0 .4 0"/><feOffset dx="4.0" dy="4.0" in="blurOut2" result="blurOut3"/><feBlend in="SourceGraphic" in2="blurOut3" mode="normal"/></filter></defs><g><!--MD5=[a02260b0991962dab8568441092ed007]
cluster connectTarget.C--><polygon fill="#FFFFFF" filter="url(#f1htyt09n4yfgw)" points="16,6,138,6,145,31.2295,168,31.2295,168,397,16,397,16,6" style="stroke: #000000; stroke-width: 1.5;"/><line style="stroke: #000000; stroke-width: 1.5;" x1="16" x2="145" y1="31.2295" y2="31.2295"/><text fill="#000000" font-family="sans-serif" font-size="14" font-weight="bold" lengthAdjust="spacingAndGlyphs" textLength="116" x="20" y="24.1533">connectTarget.C</text><!--MD5=[54d739ed476aec23192adda832f8ff52]
class connectTarget.C.CC2()--><rect codeLine="1" fill="#FEFECE" filter="url(#f1htyt09n4yfgw)" height="335.0688" id="connectTarget.C.CC2()" style="stroke: #A80036; stroke-width: 1.5;" width="120" x="32" y="45.5"/><ellipse cx="71.75" cy="61.5" fill="#ADD1B2" rx="11" ry="11" style="stroke: #A80036; stroke-width: 1.0;"/><path d="M71.3125,55.0156 Q68.5781,55.0156 67.5,56.6406 Q66.3594,58.3594 66.3594,61.2813 Q66.3594,64.5781 67.5156,66.2813 Q68.5,67.7813 71.1094,67.7813 Q72.6875,67.7813 73.5625,66.9531 Q74.5469,66 74.6875,63.875 Q74.6875,63.5781 74.5156,63.4063 Q74.3906,63.25 74.1719,63.2344 Q72.9531,63.2344 72.7969,63.3594 Q72.625,63.5156 72.625,63.7813 Q72.5938,65.2656 71.9375,66.0781 Q71.3281,66.875 71.25,66.875 Q69.9219,66.875 69.1406,65.2813 Q68.3906,63.7344 68.3906,61.25 Q68.3906,58.625 69.3281,57.1719 Q70.1563,55.9219 71.4375,55.9219 Q71.4375,55.9219 71.7813,56.5469 Q72.4063,57.2188 72.5469,58.375 Q72.6563,58.9531 74.125,58.7344 Q74.6563,58.6563 74.625,58.2344 Q74.4531,56.7969 73.7344,55.9844 Q72.875,55.0156 71.3125,55.0156 Z "/><text fill="#000000" font-family="sans-serif" font-size="12" lengthAdjust="spacingAndGlyphs" textLength="33" x="91.25" y="67.1045">CC2()</text><line style="stroke: #A80036; stroke-width: 1.5;" x1="33" x2="151" y1="77.5" y2="77.5"/><line style="stroke: #A80036; stroke-width: 1.5;" x1="33" x2="72" y1="93.0544" y2="93.0544"/><text fill="#008000" font-family="sans-serif" font-size="11" font-weight="bold" lengthAdjust="spacingAndGlyphs" textLength="40" x="72" y="97.6919">has list</text><line style="stroke: #A80036; stroke-width: 1.5;" x1="112" x2="151" y1="93.0544" y2="93.0544"/><line style="stroke: #A80036; stroke-width: 1.0; stroke-dasharray: 1.0,2.0;" x1="33" x2="79" y1="115.7178" y2="115.7178"/><text fill="#000000" font-family="sans-serif" font-size="11" lengthAdjust="spacingAndGlyphs" textLength="26" x="79" y="120.3552">class</text><line style="stroke: #A80036; stroke-width: 1.0; stroke-dasharray: 1.0,2.0;" x1="105" x2="151" y1="115.7178" y2="115.7178"/><line style="stroke: #A80036; stroke-width: 1.0; stroke-dasharray: 1.0,2.0;" x1="33" x2="73" y1="138.3811" y2="138.3811"/><text fill="#000000" font-family="sans-serif" font-size="11" lengthAdjust="spacingAndGlyphs" textLength="38" x="73" y="143.0186">member</text><line style="stroke: #A80036; stroke-width: 1.0; stroke-dasharray: 1.0,2.0;" x1="111" x2="151" y1="138.3811" y2="138.3811"/><line style="stroke: #A80036; stroke-width: 1.0; stroke-dasharray: 1.0,2.0;" x1="33" x2="74.5" y1="161.0444" y2="161.0444"/><text fill="#000000" font-family="sans-serif" font-size="11" lengthAdjust="spacingAndGlyphs" textLength="35" x="74.5" y="165.6819">method</text><line style="stroke: #A80036; stroke-width: 1.0; stroke-dasharray: 1.0,2.0;" x1="109.5" x2="151" y1="161.0444" y2="161.0444"/><line style="stroke: #A80036; stroke-width: 1.5;" x1="33" x2="64.5" y1="183.7078" y2="183.7078"/><text fill="#0000FF" font-family="sans-serif" font-size="11" font-weight="bold" lengthAdjust="spacingAndGlyphs" textLength="55" x="64.5" y="188.3452">calling list</text><line style="stroke: #A80036; stroke-width: 1.5;" x1="119.5" x2="151" y1="183.7078" y2="183.7078"/><line style="stroke: #A80036; stroke-width: 1.0; stroke-dasharray: 1.0,2.0;" x1="33" x2="79" y1="206.3711" y2="206.3711"/><text fill="#000000" font-family="sans-serif" font-size="11" lengthAdjust="spacingAndGlyphs" textLength="26" x="79" y="211.0085">class</text><line style="stroke: #A80036; stroke-width: 1.0; stroke-dasharray: 1.0,2.0;" x1="105" x2="151" y1="206.3711" y2="206.3711"/><line style="stroke: #A80036; stroke-width: 1.0; stroke-dasharray: 1.0,2.0;" x1="33" x2="73" y1="229.0344" y2="229.0344"/><text fill="#000000" font-family="sans-serif" font-size="11" lengthAdjust="spacingAndGlyphs" textLength="38" x="73" y="233.6719">member</text><line style="stroke: #A80036; stroke-width: 1.0; stroke-dasharray: 1.0,2.0;" x1="111" x2="151" y1="229.0344" y2="229.0344"/><line style="stroke: #A80036; stroke-width: 1.0; stroke-dasharray: 1.0,2.0;" x1="33" x2="74.5" y1="251.6978" y2="251.6978"/><text fill="#000000" font-family="sans-serif" font-size="11" lengthAdjust="spacingAndGlyphs" textLength="35" x="74.5" y="256.3352">method</text><line style="stroke: #A80036; stroke-width: 1.0; stroke-dasharray: 1.0,2.0;" x1="109.5" x2="151" y1="251.6978" y2="251.6978"/><line style="stroke: #A80036; stroke-width: 1.5;" x1="33" x2="58" y1="274.3611" y2="274.3611"/><text fill="#FFA500" font-family="sans-serif" font-size="11" font-weight="bold" lengthAdjust="spacingAndGlyphs" textLength="68" x="58" y="278.9985">called by list</text><line style="stroke: #A80036; stroke-width: 1.5;" x1="126" x2="151" y1="274.3611" y2="274.3611"/><text fill="#000000" font-family="sans-serif" font-size="11" lengthAdjust="spacingAndGlyphs" textLength="81" x="38" y="317.2708">C (1000975683);</text><line style="stroke: #A80036; stroke-width: 1.0; stroke-dasharray: 1.0,2.0;" x1="33" x2="79" y1="297.0244" y2="297.0244"/><text fill="#000000" font-family="sans-serif" font-size="11" lengthAdjust="spacingAndGlyphs" textLength="26" x="79" y="301.6619">class</text><line style="stroke: #A80036; stroke-width: 1.0; stroke-dasharray: 1.0,2.0;" x1="105" x2="151" y1="297.0244" y2="297.0244"/><line style="stroke: #A80036; stroke-width: 1.0; stroke-dasharray: 1.0,2.0;" x1="33" x2="73" y1="331.2422" y2="331.2422"/><text fill="#000000" font-family="sans-serif" font-size="11" lengthAdjust="spacingAndGlyphs" textLength="38" x="73" y="335.8796">member</text><line style="stroke: #A80036; stroke-width: 1.0; stroke-dasharray: 1.0,2.0;" x1="111" x2="151" y1="331.2422" y2="331.2422"/><text fill="#000000" font-family="sans-serif" font-size="11" lengthAdjust="spacingAndGlyphs" textLength="108" x="38" y="374.1519">void AC() (76432244);</text><line style="stroke: #A80036; stroke-width: 1.0; stroke-dasharray: 1.0,2.0;" x1="33" x2="74.5" y1="353.9055" y2="353.9055"/><text fill="#000000" font-family="sans-serif" font-size="11" lengthAdjust="spacingAndGlyphs" textLength="35" x="74.5" y="358.543">method</text><line style="stroke: #A80036; stroke-width: 1.0; stroke-dasharray: 1.0,2.0;" x1="109.5" x2="151" y1="353.9055" y2="353.9055"/><!--MD5=[65a5eba615182b18521bdf76d6603e78]
@startuml
class connectTarget.C.CC2(){
__**<color:green>has list</color>**__
..class..
..member..
..method..
__**<color:blue>calling list</color>**__
..class..
..member..
..method..
__**<color:orange>called by list</color>**__
..class..
	C (1000975683);
..member..
..method..
	void AC() (76432244);
}

@enduml

PlantUML version 1.2020.19(Tue Oct 13 00:10:01 KST 2020)
(APACHE source distribution)
Java Runtime: Java(TM) SE Runtime Environment
JVM: Java HotSpot(TM) 64-Bit Server VM
Default Encoding: MS949
Language: ko
Country: KR
--></g></svg>