<?xml version="1.0" encoding="UTF-8" standalone="no"?><svg xmlns="http://www.w3.org/2000/svg" xmlns:xlink="http://www.w3.org/1999/xlink" contentScriptType="application/ecmascript" contentStyleType="text/css" height="392px" preserveAspectRatio="none" style="width:205px;height:392px;" version="1.1" viewBox="0 0 205 392" width="205px" zoomAndPan="magnify"><defs><filter height="300%" id="f1t72xl2dk1ut5" width="300%" x="-1" y="-1"><feGaussianBlur result="blurOut" stdDeviation="2.0"/><feColorMatrix in="blurOut" result="blurOut2" type="matrix" values="0 0 0 0 0 0 0 0 0 0 0 0 0 0 0 0 0 0 .4 0"/><feOffset dx="4.0" dy="4.0" in="blurOut2" result="blurOut3"/><feBlend in="SourceGraphic" in2="blurOut3" mode="normal"/></filter></defs><g><!--MD5=[4664e286fd72daaf0ced34faacba02bc]
cluster target.CafeLatte--><polygon fill="#FFFFFF" filter="url(#f1t72xl2dk1ut5)" points="16,6,135,6,142,31.2295,188,31.2295,188,385,16,385,16,6" style="stroke: #000000; stroke-width: 1.5;"/><line style="stroke: #000000; stroke-width: 1.5;" x1="16" x2="142" y1="31.2295" y2="31.2295"/><text fill="#000000" font-family="sans-serif" font-size="14" font-weight="bold" lengthAdjust="spacingAndGlyphs" textLength="113" x="20" y="24.1533">target.CafeLatte</text><!--MD5=[1d1b22a1bbfd7fe9f268670e519f2671]
class target.CafeLatte.addShot()--><rect codeLine="1" fill="#FEFECE" filter="url(#f1t72xl2dk1ut5)" height="323.5144" id="target.CafeLatte.addShot()" style="stroke: #A80036; stroke-width: 1.5;" width="140" x="32" y="45"/><ellipse cx="71.3" cy="61" fill="#ADD1B2" rx="11" ry="11" style="stroke: #A80036; stroke-width: 1.0;"/><path d="M70.8625,54.5156 Q68.1281,54.5156 67.05,56.1406 Q65.9094,57.8594 65.9094,60.7813 Q65.9094,64.0781 67.0656,65.7813 Q68.05,67.2813 70.6594,67.2813 Q72.2375,67.2813 73.1125,66.4531 Q74.0969,65.5 74.2375,63.375 Q74.2375,63.0781 74.0656,62.9063 Q73.9406,62.75 73.7219,62.7344 Q72.5031,62.7344 72.3469,62.8594 Q72.175,63.0156 72.175,63.2813 Q72.1438,64.7656 71.4875,65.5781 Q70.8781,66.375 70.8,66.375 Q69.4719,66.375 68.6906,64.7813 Q67.9406,63.2344 67.9406,60.75 Q67.9406,58.125 68.8781,56.6719 Q69.7063,55.4219 70.9875,55.4219 Q70.9875,55.4219 71.3313,56.0469 Q71.9563,56.7188 72.0969,57.875 Q72.2063,58.4531 73.675,58.2344 Q74.2063,58.1563 74.175,57.7344 Q74.0031,56.2969 73.2844,55.4844 Q72.425,54.5156 70.8625,54.5156 Z "/><text fill="#000000" font-family="sans-serif" font-size="12" lengthAdjust="spacingAndGlyphs" textLength="54" x="90.7" y="66.6045">addShot()</text><line style="stroke: #A80036; stroke-width: 1.5;" x1="33" x2="171" y1="77" y2="77"/><line style="stroke: #A80036; stroke-width: 1.5;" x1="33" x2="82" y1="92.5544" y2="92.5544"/><text fill="#008000" font-family="sans-serif" font-size="11" font-weight="bold" lengthAdjust="spacingAndGlyphs" textLength="40" x="82" y="97.1919">has list</text><line style="stroke: #A80036; stroke-width: 1.5;" x1="122" x2="171" y1="92.5544" y2="92.5544"/><line style="stroke: #A80036; stroke-width: 1.0; stroke-dasharray: 1.0,2.0;" x1="33" x2="89" y1="115.2178" y2="115.2178"/><text fill="#000000" font-family="sans-serif" font-size="11" lengthAdjust="spacingAndGlyphs" textLength="26" x="89" y="119.8552">class</text><line style="stroke: #A80036; stroke-width: 1.0; stroke-dasharray: 1.0,2.0;" x1="115" x2="171" y1="115.2178" y2="115.2178"/><line style="stroke: #A80036; stroke-width: 1.0; stroke-dasharray: 1.0,2.0;" x1="33" x2="83" y1="137.8811" y2="137.8811"/><text fill="#000000" font-family="sans-serif" font-size="11" lengthAdjust="spacingAndGlyphs" textLength="38" x="83" y="142.5186">member</text><line style="stroke: #A80036; stroke-width: 1.0; stroke-dasharray: 1.0,2.0;" x1="121" x2="171" y1="137.8811" y2="137.8811"/><line style="stroke: #A80036; stroke-width: 1.0; stroke-dasharray: 1.0,2.0;" x1="33" x2="84.5" y1="160.5444" y2="160.5444"/><text fill="#000000" font-family="sans-serif" font-size="11" lengthAdjust="spacingAndGlyphs" textLength="35" x="84.5" y="165.1819">method</text><line style="stroke: #A80036; stroke-width: 1.0; stroke-dasharray: 1.0,2.0;" x1="119.5" x2="171" y1="160.5444" y2="160.5444"/><line style="stroke: #A80036; stroke-width: 1.5;" x1="33" x2="74.5" y1="183.2078" y2="183.2078"/><text fill="#0000FF" font-family="sans-serif" font-size="11" font-weight="bold" lengthAdjust="spacingAndGlyphs" textLength="55" x="74.5" y="187.8452">calling list</text><line style="stroke: #A80036; stroke-width: 1.5;" x1="129.5" x2="171" y1="183.2078" y2="183.2078"/><line style="stroke: #A80036; stroke-width: 1.0; stroke-dasharray: 1.0,2.0;" x1="33" x2="89" y1="205.8711" y2="205.8711"/><text fill="#000000" font-family="sans-serif" font-size="11" lengthAdjust="spacingAndGlyphs" textLength="26" x="89" y="210.5085">class</text><line style="stroke: #A80036; stroke-width: 1.0; stroke-dasharray: 1.0,2.0;" x1="115" x2="171" y1="205.8711" y2="205.8711"/><text fill="#000000" font-family="sans-serif" font-size="11" lengthAdjust="spacingAndGlyphs" textLength="128" x="38" y="248.7808">int caffeine (1192171522);</text><line style="stroke: #A80036; stroke-width: 1.0; stroke-dasharray: 1.0,2.0;" x1="33" x2="83" y1="228.5344" y2="228.5344"/><text fill="#000000" font-family="sans-serif" font-size="11" lengthAdjust="spacingAndGlyphs" textLength="38" x="83" y="233.1719">member</text><line style="stroke: #A80036; stroke-width: 1.0; stroke-dasharray: 1.0,2.0;" x1="121" x2="171" y1="228.5344" y2="228.5344"/><line style="stroke: #A80036; stroke-width: 1.0; stroke-dasharray: 1.0,2.0;" x1="33" x2="84.5" y1="262.7522" y2="262.7522"/><text fill="#000000" font-family="sans-serif" font-size="11" lengthAdjust="spacingAndGlyphs" textLength="35" x="84.5" y="267.3896">method</text><line style="stroke: #A80036; stroke-width: 1.0; stroke-dasharray: 1.0,2.0;" x1="119.5" x2="171" y1="262.7522" y2="262.7522"/><line style="stroke: #A80036; stroke-width: 1.5;" x1="33" x2="68" y1="285.4155" y2="285.4155"/><text fill="#FFA500" font-family="sans-serif" font-size="11" font-weight="bold" lengthAdjust="spacingAndGlyphs" textLength="68" x="68" y="290.053">called by list</text><line style="stroke: #A80036; stroke-width: 1.5;" x1="136" x2="171" y1="285.4155" y2="285.4155"/><line style="stroke: #A80036; stroke-width: 1.0; stroke-dasharray: 1.0,2.0;" x1="33" x2="89" y1="308.0789" y2="308.0789"/><text fill="#000000" font-family="sans-serif" font-size="11" lengthAdjust="spacingAndGlyphs" textLength="26" x="89" y="312.7163">class</text><line style="stroke: #A80036; stroke-width: 1.0; stroke-dasharray: 1.0,2.0;" x1="115" x2="171" y1="308.0789" y2="308.0789"/><line style="stroke: #A80036; stroke-width: 1.0; stroke-dasharray: 1.0,2.0;" x1="33" x2="83" y1="330.7422" y2="330.7422"/><text fill="#000000" font-family="sans-serif" font-size="11" lengthAdjust="spacingAndGlyphs" textLength="38" x="83" y="335.3796">member</text><line style="stroke: #A80036; stroke-width: 1.0; stroke-dasharray: 1.0,2.0;" x1="121" x2="171" y1="330.7422" y2="330.7422"/><line style="stroke: #A80036; stroke-width: 1.0; stroke-dasharray: 1.0,2.0;" x1="33" x2="84.5" y1="353.4055" y2="353.4055"/><text fill="#000000" font-family="sans-serif" font-size="11" lengthAdjust="spacingAndGlyphs" textLength="35" x="84.5" y="358.043">method</text><line style="stroke: #A80036; stroke-width: 1.0; stroke-dasharray: 1.0,2.0;" x1="119.5" x2="171" y1="353.4055" y2="353.4055"/><!--MD5=[7ae5dcdd70c25be2cf347979f306b866]
@startuml
class target.CafeLatte.addShot(){
__**<color:green>has list</color>**__
..class..
..member..
..method..
__**<color:blue>calling list</color>**__
..class..
..member..
	int caffeine (1192171522);
..method..
__**<color:orange>called by list</color>**__
..class..
..member..
..method..
}

@enduml

PlantUML version 1.2020.19(Tue Oct 13 00:10:01 KST 2020)
(APACHE source distribution)
Java Runtime: Java(TM) SE Runtime Environment
JVM: Java HotSpot(TM) 64-Bit Server VM
Default Encoding: MS949
Language: ko
Country: KR
--></g></svg>