<?xml version="1.0" encoding="UTF-8" standalone="no"?><svg xmlns="http://www.w3.org/2000/svg" xmlns:xlink="http://www.w3.org/1999/xlink" contentScriptType="application/ecmascript" contentStyleType="text/css" height="392px" preserveAspectRatio="none" style="width:260px;height:392px;" version="1.1" viewBox="0 0 260 392" width="260px" zoomAndPan="magnify"><defs><filter height="300%" id="f1xaxz5qy0zga0" width="300%" x="-1" y="-1"><feGaussianBlur result="blurOut" stdDeviation="2.0"/><feColorMatrix in="blurOut" result="blurOut2" type="matrix" values="0 0 0 0 0 0 0 0 0 0 0 0 0 0 0 0 0 0 .4 0"/><feOffset dx="4.0" dy="4.0" in="blurOut2" result="blurOut3"/><feBlend in="SourceGraphic" in2="blurOut3" mode="normal"/></filter></defs><g><!--MD5=[f855d74e4b556380056f383f6b1dbac4]
cluster target.Barista.getOrder(target--><polygon fill="#FFFFFF" filter="url(#f1xaxz5qy0zga0)" points="16,6,232,6,239,31.2295,243,31.2295,243,385,16,385,16,6" style="stroke: #000000; stroke-width: 1.5;"/><line style="stroke: #000000; stroke-width: 1.5;" x1="16" x2="239" y1="31.2295" y2="31.2295"/><text fill="#000000" font-family="sans-serif" font-size="14" font-weight="bold" lengthAdjust="spacingAndGlyphs" textLength="210" x="20" y="24.1533">target.Barista.getOrder(target</text><!--MD5=[0f3386266ced0333263f5e1f102fda37]
class target.Barista.getOrder(target.Coffee)--><rect codeLine="1" fill="#FEFECE" filter="url(#f1xaxz5qy0zga0)" height="323.5144" id="target.Barista.getOrder(target.Coffee)" style="stroke: #A80036; stroke-width: 1.5;" width="136" x="61" y="45"/><ellipse cx="104.8" cy="61" fill="#ADD1B2" rx="11" ry="11" style="stroke: #A80036; stroke-width: 1.0;"/><path d="M104.3625,54.5156 Q101.6281,54.5156 100.55,56.1406 Q99.4094,57.8594 99.4094,60.7813 Q99.4094,64.0781 100.5656,65.7813 Q101.55,67.2813 104.1594,67.2813 Q105.7375,67.2813 106.6125,66.4531 Q107.5969,65.5 107.7375,63.375 Q107.7375,63.0781 107.5656,62.9063 Q107.4406,62.75 107.2219,62.7344 Q106.0031,62.7344 105.8469,62.8594 Q105.675,63.0156 105.675,63.2813 Q105.6438,64.7656 104.9875,65.5781 Q104.3781,66.375 104.3,66.375 Q102.9719,66.375 102.1906,64.7813 Q101.4406,63.2344 101.4406,60.75 Q101.4406,58.125 102.3781,56.6719 Q103.2063,55.4219 104.4875,55.4219 Q104.4875,55.4219 104.8313,56.0469 Q105.4563,56.7188 105.5969,57.875 Q105.7063,58.4531 107.175,58.2344 Q107.7063,58.1563 107.675,57.7344 Q107.5031,56.2969 106.7844,55.4844 Q105.925,54.5156 104.3625,54.5156 Z "/><text fill="#000000" font-family="sans-serif" font-size="12" lengthAdjust="spacingAndGlyphs" textLength="40" x="125.2" y="66.6045">Coffee)</text><line style="stroke: #A80036; stroke-width: 1.5;" x1="62" x2="196" y1="77" y2="77"/><line style="stroke: #A80036; stroke-width: 1.5;" x1="62" x2="109" y1="92.5544" y2="92.5544"/><text fill="#008000" font-family="sans-serif" font-size="11" font-weight="bold" lengthAdjust="spacingAndGlyphs" textLength="40" x="109" y="97.1919">has list</text><line style="stroke: #A80036; stroke-width: 1.5;" x1="149" x2="196" y1="92.5544" y2="92.5544"/><line style="stroke: #A80036; stroke-width: 1.0; stroke-dasharray: 1.0,2.0;" x1="62" x2="116" y1="115.2178" y2="115.2178"/><text fill="#000000" font-family="sans-serif" font-size="11" lengthAdjust="spacingAndGlyphs" textLength="26" x="116" y="119.8552">class</text><line style="stroke: #A80036; stroke-width: 1.0; stroke-dasharray: 1.0,2.0;" x1="142" x2="196" y1="115.2178" y2="115.2178"/><text fill="#000000" font-family="sans-serif" font-size="11" lengthAdjust="spacingAndGlyphs" textLength="124" x="67" y="158.1274">Coffee menu (24119573);</text><line style="stroke: #A80036; stroke-width: 1.0; stroke-dasharray: 1.0,2.0;" x1="62" x2="110" y1="137.8811" y2="137.8811"/><text fill="#000000" font-family="sans-serif" font-size="11" lengthAdjust="spacingAndGlyphs" textLength="38" x="110" y="142.5186">member</text><line style="stroke: #A80036; stroke-width: 1.0; stroke-dasharray: 1.0,2.0;" x1="148" x2="196" y1="137.8811" y2="137.8811"/><line style="stroke: #A80036; stroke-width: 1.0; stroke-dasharray: 1.0,2.0;" x1="62" x2="111.5" y1="172.0989" y2="172.0989"/><text fill="#000000" font-family="sans-serif" font-size="11" lengthAdjust="spacingAndGlyphs" textLength="35" x="111.5" y="176.7363">method</text><line style="stroke: #A80036; stroke-width: 1.0; stroke-dasharray: 1.0,2.0;" x1="146.5" x2="196" y1="172.0989" y2="172.0989"/><line style="stroke: #A80036; stroke-width: 1.5;" x1="62" x2="101.5" y1="194.7622" y2="194.7622"/><text fill="#0000FF" font-family="sans-serif" font-size="11" font-weight="bold" lengthAdjust="spacingAndGlyphs" textLength="55" x="101.5" y="199.3997">calling list</text><line style="stroke: #A80036; stroke-width: 1.5;" x1="156.5" x2="196" y1="194.7622" y2="194.7622"/><line style="stroke: #A80036; stroke-width: 1.0; stroke-dasharray: 1.0,2.0;" x1="62" x2="116" y1="217.4255" y2="217.4255"/><text fill="#000000" font-family="sans-serif" font-size="11" lengthAdjust="spacingAndGlyphs" textLength="26" x="116" y="222.063">class</text><line style="stroke: #A80036; stroke-width: 1.0; stroke-dasharray: 1.0,2.0;" x1="142" x2="196" y1="217.4255" y2="217.4255"/><line style="stroke: #A80036; stroke-width: 1.0; stroke-dasharray: 1.0,2.0;" x1="62" x2="110" y1="240.0889" y2="240.0889"/><text fill="#000000" font-family="sans-serif" font-size="11" lengthAdjust="spacingAndGlyphs" textLength="38" x="110" y="244.7263">member</text><line style="stroke: #A80036; stroke-width: 1.0; stroke-dasharray: 1.0,2.0;" x1="148" x2="196" y1="240.0889" y2="240.0889"/><line style="stroke: #A80036; stroke-width: 1.0; stroke-dasharray: 1.0,2.0;" x1="62" x2="111.5" y1="262.7522" y2="262.7522"/><text fill="#000000" font-family="sans-serif" font-size="11" lengthAdjust="spacingAndGlyphs" textLength="35" x="111.5" y="267.3896">method</text><line style="stroke: #A80036; stroke-width: 1.0; stroke-dasharray: 1.0,2.0;" x1="146.5" x2="196" y1="262.7522" y2="262.7522"/><line style="stroke: #A80036; stroke-width: 1.5;" x1="62" x2="95" y1="285.4155" y2="285.4155"/><text fill="#FFA500" font-family="sans-serif" font-size="11" font-weight="bold" lengthAdjust="spacingAndGlyphs" textLength="68" x="95" y="290.053">called by list</text><line style="stroke: #A80036; stroke-width: 1.5;" x1="163" x2="196" y1="285.4155" y2="285.4155"/><line style="stroke: #A80036; stroke-width: 1.0; stroke-dasharray: 1.0,2.0;" x1="62" x2="116" y1="308.0789" y2="308.0789"/><text fill="#000000" font-family="sans-serif" font-size="11" lengthAdjust="spacingAndGlyphs" textLength="26" x="116" y="312.7163">class</text><line style="stroke: #A80036; stroke-width: 1.0; stroke-dasharray: 1.0,2.0;" x1="142" x2="196" y1="308.0789" y2="308.0789"/><line style="stroke: #A80036; stroke-width: 1.0; stroke-dasharray: 1.0,2.0;" x1="62" x2="110" y1="330.7422" y2="330.7422"/><text fill="#000000" font-family="sans-serif" font-size="11" lengthAdjust="spacingAndGlyphs" textLength="38" x="110" y="335.3796">member</text><line style="stroke: #A80036; stroke-width: 1.0; stroke-dasharray: 1.0,2.0;" x1="148" x2="196" y1="330.7422" y2="330.7422"/><line style="stroke: #A80036; stroke-width: 1.0; stroke-dasharray: 1.0,2.0;" x1="62" x2="111.5" y1="353.4055" y2="353.4055"/><text fill="#000000" font-family="sans-serif" font-size="11" lengthAdjust="spacingAndGlyphs" textLength="35" x="111.5" y="358.043">method</text><line style="stroke: #A80036; stroke-width: 1.0; stroke-dasharray: 1.0,2.0;" x1="146.5" x2="196" y1="353.4055" y2="353.4055"/><!--MD5=[d6d744913a041fcfa99e91a59df78498]
@startuml
class target.Barista.getOrder(target.Coffee){
__**<color:green>has list</color>**__
..class..
..member..
	Coffee menu (24119573);
..method..
__**<color:blue>calling list</color>**__
..class..
..member..
..method..
__**<color:orange>called by list</color>**__
..class..
..member..
..method..
}

@enduml

PlantUML version 1.2020.19(Tue Oct 13 00:10:01 KST 2020)
(APACHE source distribution)
Java Runtime: Java(TM) SE Runtime Environment
JVM: Java HotSpot(TM) 64-Bit Server VM
Default Encoding: MS949
Language: ko
Country: KR
--></g></svg>