<?xml version="1.0" encoding="UTF-8" standalone="no"?><svg xmlns="http://www.w3.org/2000/svg" xmlns:xlink="http://www.w3.org/1999/xlink" contentScriptType="application/ecmascript" contentStyleType="text/css" height="408px" preserveAspectRatio="none" style="width:205px;height:408px;" version="1.1" viewBox="0 0 205 408" width="205px" zoomAndPan="magnify"><defs><filter height="300%" id="fdbyyuu6e4zkc" width="300%" x="-1" y="-1"><feGaussianBlur result="blurOut" stdDeviation="2.0"/><feColorMatrix in="blurOut" result="blurOut2" type="matrix" values="0 0 0 0 0 0 0 0 0 0 0 0 0 0 0 0 0 0 .4 0"/><feOffset dx="4.0" dy="4.0" in="blurOut2" result="blurOut3"/><feBlend in="SourceGraphic" in2="blurOut3" mode="normal"/></filter></defs><g><!--MD5=[4664e286fd72daaf0ced34faacba02bc]
cluster target.CafeLatte--><polygon fill="#FFFFFF" filter="url(#fdbyyuu6e4zkc)" points="16,6,135,6,142,31.2295,188,31.2295,188,401,16,401,16,6" style="stroke: #000000; stroke-width: 1.5;"/><line style="stroke: #000000; stroke-width: 1.5;" x1="16" x2="142" y1="31.2295" y2="31.2295"/><text fill="#000000" font-family="sans-serif" font-size="14" font-weight="bold" lengthAdjust="spacingAndGlyphs" textLength="113" x="20" y="24.1533">target.CafeLatte</text><!--MD5=[b9b0c85324569653e29a6967284099b7]
class target.CafeLatte.CafeLatte()--><rect codeLine="1" fill="#FEFECE" filter="url(#fdbyyuu6e4zkc)" height="338.6233" id="target.CafeLatte.CafeLatte()" style="stroke: #A80036; stroke-width: 1.5;" width="140" x="32" y="45.5"/><ellipse cx="68.15" cy="61.5" fill="#ADD1B2" rx="11" ry="11" style="stroke: #A80036; stroke-width: 1.0;"/><path d="M67.7125,55.0156 Q64.9781,55.0156 63.9,56.6406 Q62.7594,58.3594 62.7594,61.2813 Q62.7594,64.5781 63.9156,66.2813 Q64.9,67.7813 67.5094,67.7813 Q69.0875,67.7813 69.9625,66.9531 Q70.9469,66 71.0875,63.875 Q71.0875,63.5781 70.9156,63.4063 Q70.7906,63.25 70.5719,63.2344 Q69.3531,63.2344 69.1969,63.3594 Q69.025,63.5156 69.025,63.7813 Q68.9938,65.2656 68.3375,66.0781 Q67.7281,66.875 67.65,66.875 Q66.3219,66.875 65.5406,65.2813 Q64.7906,63.7344 64.7906,61.25 Q64.7906,58.625 65.7281,57.1719 Q66.5563,55.9219 67.8375,55.9219 Q67.8375,55.9219 68.1813,56.5469 Q68.8063,57.2188 68.9469,58.375 Q69.0563,58.9531 70.525,58.7344 Q71.0563,58.6563 71.025,58.2344 Q70.8531,56.7969 70.1344,55.9844 Q69.275,55.0156 67.7125,55.0156 Z "/><text fill="#000000" font-family="sans-serif" font-size="12" lengthAdjust="spacingAndGlyphs" textLength="61" x="86.85" y="67.1045">CafeLatte()</text><line style="stroke: #A80036; stroke-width: 1.5;" x1="33" x2="171" y1="77.5" y2="77.5"/><line style="stroke: #A80036; stroke-width: 1.5;" x1="33" x2="82" y1="93.0544" y2="93.0544"/><text fill="#008000" font-family="sans-serif" font-size="11" font-weight="bold" lengthAdjust="spacingAndGlyphs" textLength="40" x="82" y="97.6919">has list</text><line style="stroke: #A80036; stroke-width: 1.5;" x1="122" x2="171" y1="93.0544" y2="93.0544"/><line style="stroke: #A80036; stroke-width: 1.0; stroke-dasharray: 1.0,2.0;" x1="33" x2="89" y1="115.7178" y2="115.7178"/><text fill="#000000" font-family="sans-serif" font-size="11" lengthAdjust="spacingAndGlyphs" textLength="26" x="89" y="120.3552">class</text><line style="stroke: #A80036; stroke-width: 1.0; stroke-dasharray: 1.0,2.0;" x1="115" x2="171" y1="115.7178" y2="115.7178"/><line style="stroke: #A80036; stroke-width: 1.0; stroke-dasharray: 1.0,2.0;" x1="33" x2="83" y1="138.3811" y2="138.3811"/><text fill="#000000" font-family="sans-serif" font-size="11" lengthAdjust="spacingAndGlyphs" textLength="38" x="83" y="143.0186">member</text><line style="stroke: #A80036; stroke-width: 1.0; stroke-dasharray: 1.0,2.0;" x1="121" x2="171" y1="138.3811" y2="138.3811"/><line style="stroke: #A80036; stroke-width: 1.0; stroke-dasharray: 1.0,2.0;" x1="33" x2="84.5" y1="161.0444" y2="161.0444"/><text fill="#000000" font-family="sans-serif" font-size="11" lengthAdjust="spacingAndGlyphs" textLength="35" x="84.5" y="165.6819">method</text><line style="stroke: #A80036; stroke-width: 1.0; stroke-dasharray: 1.0,2.0;" x1="119.5" x2="171" y1="161.0444" y2="161.0444"/><line style="stroke: #A80036; stroke-width: 1.5;" x1="33" x2="74.5" y1="183.7078" y2="183.7078"/><text fill="#0000FF" font-family="sans-serif" font-size="11" font-weight="bold" lengthAdjust="spacingAndGlyphs" textLength="55" x="74.5" y="188.3452">calling list</text><line style="stroke: #A80036; stroke-width: 1.5;" x1="129.5" x2="171" y1="183.7078" y2="183.7078"/><line style="stroke: #A80036; stroke-width: 1.0; stroke-dasharray: 1.0,2.0;" x1="33" x2="89" y1="206.3711" y2="206.3711"/><text fill="#000000" font-family="sans-serif" font-size="11" lengthAdjust="spacingAndGlyphs" textLength="26" x="89" y="211.0085">class</text><line style="stroke: #A80036; stroke-width: 1.0; stroke-dasharray: 1.0,2.0;" x1="115" x2="171" y1="206.3711" y2="206.3711"/><text fill="#000000" font-family="sans-serif" font-size="11" lengthAdjust="spacingAndGlyphs" textLength="128" x="38" y="249.2808">int caffeine (1192171522);</text><text fill="#000000" font-family="sans-serif" font-size="11" lengthAdjust="spacingAndGlyphs" textLength="105" x="38" y="264.3896">int milk (1850180796);</text><line style="stroke: #A80036; stroke-width: 1.0; stroke-dasharray: 1.0,2.0;" x1="33" x2="83" y1="229.0344" y2="229.0344"/><text fill="#000000" font-family="sans-serif" font-size="11" lengthAdjust="spacingAndGlyphs" textLength="38" x="83" y="233.6719">member</text><line style="stroke: #A80036; stroke-width: 1.0; stroke-dasharray: 1.0,2.0;" x1="121" x2="171" y1="229.0344" y2="229.0344"/><line style="stroke: #A80036; stroke-width: 1.0; stroke-dasharray: 1.0,2.0;" x1="33" x2="84.5" y1="278.3611" y2="278.3611"/><text fill="#000000" font-family="sans-serif" font-size="11" lengthAdjust="spacingAndGlyphs" textLength="35" x="84.5" y="282.9985">method</text><line style="stroke: #A80036; stroke-width: 1.0; stroke-dasharray: 1.0,2.0;" x1="119.5" x2="171" y1="278.3611" y2="278.3611"/><line style="stroke: #A80036; stroke-width: 1.5;" x1="33" x2="68" y1="301.0244" y2="301.0244"/><text fill="#FFA500" font-family="sans-serif" font-size="11" font-weight="bold" lengthAdjust="spacingAndGlyphs" textLength="68" x="68" y="305.6619">called by list</text><line style="stroke: #A80036; stroke-width: 1.5;" x1="136" x2="171" y1="301.0244" y2="301.0244"/><line style="stroke: #A80036; stroke-width: 1.0; stroke-dasharray: 1.0,2.0;" x1="33" x2="89" y1="323.6877" y2="323.6877"/><text fill="#000000" font-family="sans-serif" font-size="11" lengthAdjust="spacingAndGlyphs" textLength="26" x="89" y="328.3252">class</text><line style="stroke: #A80036; stroke-width: 1.0; stroke-dasharray: 1.0,2.0;" x1="115" x2="171" y1="323.6877" y2="323.6877"/><line style="stroke: #A80036; stroke-width: 1.0; stroke-dasharray: 1.0,2.0;" x1="33" x2="83" y1="346.3511" y2="346.3511"/><text fill="#000000" font-family="sans-serif" font-size="11" lengthAdjust="spacingAndGlyphs" textLength="38" x="83" y="350.9885">member</text><line style="stroke: #A80036; stroke-width: 1.0; stroke-dasharray: 1.0,2.0;" x1="121" x2="171" y1="346.3511" y2="346.3511"/><line style="stroke: #A80036; stroke-width: 1.0; stroke-dasharray: 1.0,2.0;" x1="33" x2="84.5" y1="369.0144" y2="369.0144"/><text fill="#000000" font-family="sans-serif" font-size="11" lengthAdjust="spacingAndGlyphs" textLength="35" x="84.5" y="373.6519">method</text><line style="stroke: #A80036; stroke-width: 1.0; stroke-dasharray: 1.0,2.0;" x1="119.5" x2="171" y1="369.0144" y2="369.0144"/><!--MD5=[b8b9f7d3a0cfdf24a4c5d1188f075400]
@startuml
class target.CafeLatte.CafeLatte(){
__**<color:green>has list</color>**__
..class..
..member..
..method..
__**<color:blue>calling list</color>**__
..class..
..member..
	int caffeine (1192171522);
	int milk (1850180796);
..method..
__**<color:orange>called by list</color>**__
..class..
..member..
..method..
}

@enduml

PlantUML version 1.2020.19(Tue Oct 13 00:10:01 KST 2020)
(APACHE source distribution)
Java Runtime: Java(TM) SE Runtime Environment
JVM: Java HotSpot(TM) 64-Bit Server VM
Default Encoding: MS949
Language: ko
Country: KR
--></g></svg>