<?xml version="1.0" encoding="UTF-8" standalone="no"?><svg xmlns="http://www.w3.org/2000/svg" xmlns:xlink="http://www.w3.org/1999/xlink" contentScriptType="application/ecmascript" contentStyleType="text/css" height="707px" preserveAspectRatio="none" style="width:413px;height:707px;" version="1.1" viewBox="0 0 413 707" width="413px" zoomAndPan="magnify"><defs><filter height="300%" id="fups9vhs1n98v" width="300%" x="-1" y="-1"><feGaussianBlur result="blurOut" stdDeviation="2.0"/><feColorMatrix in="blurOut" result="blurOut2" type="matrix" values="0 0 0 0 0 0 0 0 0 0 0 0 0 0 0 0 0 0 .4 0"/><feOffset dx="4.0" dy="4.0" in="blurOut2" result="blurOut3"/><feBlend in="SourceGraphic" in2="blurOut3" mode="normal"/></filter></defs><g><!--MD5=[537950558e43b2560df457283b5a85a7]
cluster getUndefSize--><rect fill="#FFFFFF" filter="url(#fups9vhs1n98v)" height="87" style="stroke: #000000; stroke-width: 1.5;" width="111" x="137" y="7"/><text fill="#000000" font-family="sans-serif" font-size="14" font-weight="bold" lengthAdjust="spacingAndGlyphs" textLength="94" x="145.5" y="25.1533">getUndefSize</text><!--MD5=[3a76cada14e7aa6ecc7524fc7634f68c]
cluster addFunctionScore--><rect fill="#FFFFFF" filter="url(#fups9vhs1n98v)" height="288" style="stroke: #000000; stroke-width: 1.5;" width="176" x="104" y="118"/><text fill="#000000" font-family="sans-serif" font-size="14" font-weight="bold" lengthAdjust="spacingAndGlyphs" textLength="129" x="127.5" y="136.1533">addFunctionScore</text><!--MD5=[3280d439c7efeca69ab8d3c7e9fc743d]
cluster getMemberScore--><rect fill="#FFFFFF" filter="url(#fups9vhs1n98v)" height="87" style="stroke: #000000; stroke-width: 1.5;" width="162" x="111" y="458"/><text fill="#000000" font-family="sans-serif" font-size="14" font-weight="bold" lengthAdjust="spacingAndGlyphs" textLength="122" x="131" y="476.1533">getMemberScore</text><!--MD5=[810ee23bb0ab43f2a38b555eb772dae5]
cluster getLineNum--><rect fill="#FFFFFF" filter="url(#fups9vhs1n98v)" height="87" style="stroke: #000000; stroke-width: 1.5;" width="110" x="137" y="587"/><text fill="#000000" font-family="sans-serif" font-size="14" font-weight="bold" lengthAdjust="spacingAndGlyphs" textLength="84" x="150" y="605.1533">getLineNum</text><ellipse cx="192.6482" cy="62.0973" fill="#FEFECE" filter="url(#fups9vhs1n98v)" rx="37.6482" ry="16.5973" style="stroke: #A80036; stroke-width: 1.5;"/><text fill="#000000" font-family="sans-serif" font-size="14" lengthAdjust="spacingAndGlyphs" textLength="49" x="168.1482" y="68.2121">toString</text><ellipse cx="191.9411" cy="173.0973" fill="#FEFECE" filter="url(#fups9vhs1n98v)" rx="36.9411" ry="16.5973" style="stroke: #A80036; stroke-width: 1.5;"/><text fill="#000000" font-family="sans-serif" font-size="14" lengthAdjust="spacingAndGlyphs" textLength="48" x="167.9411" y="179.2121">append</text><ellipse cx="192.2843" cy="240.0973" fill="#FEFECE" filter="url(#fups9vhs1n98v)" rx="31.2843" ry="16.5973" style="stroke: #A80036; stroke-width: 1.5;"/><text fill="#000000" font-family="sans-serif" font-size="14" lengthAdjust="spacingAndGlyphs" textLength="40" x="172.2843" y="246.2121">getSig</text><ellipse cx="192.2886" cy="307.1577" fill="#FEFECE" filter="url(#fups9vhs1n98v)" rx="71.2886" ry="16.6577" style="stroke: #A80036; stroke-width: 1.5;"/><text fill="#000000" font-family="sans-serif" font-size="14" lengthAdjust="spacingAndGlyphs" textLength="97" x="143.7886" y="313.2725">getFunctionList</text><ellipse cx="192.669" cy="374.0973" fill="#FEFECE" filter="url(#fups9vhs1n98v)" rx="49.669" ry="16.5973" style="stroke: #A80036; stroke-width: 1.5;"/><text fill="#000000" font-family="sans-serif" font-size="14" lengthAdjust="spacingAndGlyphs" textLength="66" x="159.669" y="380.2121">getHasList</text><ellipse cx="192.2254" cy="513.0973" fill="#FEFECE" filter="url(#fups9vhs1n98v)" rx="65.2254" ry="16.5973" style="stroke: #A80036; stroke-width: 1.5;"/><text fill="#000000" font-family="sans-serif" font-size="14" lengthAdjust="spacingAndGlyphs" textLength="88" x="148.2254" y="519.2121">getTypeName</text><ellipse cx="192.3553" cy="642.0973" fill="#FEFECE" filter="url(#fups9vhs1n98v)" rx="38.3553" ry="16.5973" style="stroke: #A80036; stroke-width: 1.5;"/><text fill="#000000" font-family="sans-serif" font-size="14" lengthAdjust="spacingAndGlyphs" textLength="50" x="167.3553" y="648.2121">hasNext</text><!--MD5=[08bb009ca546a11a56caf690d9b73368]
entity actor293749050--><ellipse cx="33" cy="241.5" fill="#FEFECE" filter="url(#fups9vhs1n98v)" rx="8" ry="8" style="stroke: #A80036; stroke-width: 1.5;"/><path d="M33,249.5 L33,276.5 M20,257.5 L46,257.5 M33,276.5 L20,291.5 M33,276.5 L46,291.5 " fill="none" filter="url(#fups9vhs1n98v)" style="stroke: #A80036; stroke-width: 1.5;"/><text fill="#000000" font-family="sans-serif" font-size="14" lengthAdjust="spacingAndGlyphs" textLength="54" x="6" y="313.1533">Complex</text><!--MD5=[b2b17946780437d3e03a3618b26c4aa9]
entity actor1795804759--><ellipse cx="365.5" cy="32.5" fill="#FEFECE" filter="url(#fups9vhs1n98v)" rx="8" ry="8" style="stroke: #A80036; stroke-width: 1.5;"/><path d="M365.5,40.5 L365.5,67.5 M352.5,48.5 L378.5,48.5 M365.5,67.5 L352.5,82.5 M365.5,67.5 L378.5,82.5 " fill="none" filter="url(#fups9vhs1n98v)" style="stroke: #A80036; stroke-width: 1.5;"/><text fill="#000000" font-family="sans-serif" font-size="14" lengthAdjust="spacingAndGlyphs" textLength="81" x="325" y="104.1533">StringBuilder</text><!--MD5=[662fbe8328652735fce5328a5367bfc1]
entity actor1785570426--><ellipse cx="365.5" cy="389.5" fill="#FEFECE" filter="url(#fups9vhs1n98v)" rx="8" ry="8" style="stroke: #A80036; stroke-width: 1.5;"/><path d="M365.5,397.5 L365.5,424.5 M352.5,405.5 L378.5,405.5 M365.5,424.5 L352.5,439.5 M365.5,424.5 L378.5,439.5 " fill="none" filter="url(#fups9vhs1n98v)" style="stroke: #A80036; stroke-width: 1.5;"/><text fill="#000000" font-family="sans-serif" font-size="14" lengthAdjust="spacingAndGlyphs" textLength="69" x="331" y="461.1533">Data_base</text><!--MD5=[2b800408cb2cdbeba4cee5b54d06b786]
entity actor1528099970--><ellipse cx="365" cy="270.5" fill="#FEFECE" filter="url(#fups9vhs1n98v)" rx="8" ry="8" style="stroke: #A80036; stroke-width: 1.5;"/><path d="M365,278.5 L365,305.5 M352,286.5 L378,286.5 M365,305.5 L352,320.5 M365,305.5 L378,320.5 " fill="none" filter="url(#fups9vhs1n98v)" style="stroke: #A80036; stroke-width: 1.5;"/><text fill="#000000" font-family="sans-serif" font-size="14" lengthAdjust="spacingAndGlyphs" textLength="52" x="339" y="342.1533">DataList</text><!--MD5=[37661927b57d6338813e607196720b2f]
entity actor426792528--><ellipse cx="365.5" cy="151.5" fill="#FEFECE" filter="url(#fups9vhs1n98v)" rx="8" ry="8" style="stroke: #A80036; stroke-width: 1.5;"/><path d="M365.5,159.5 L365.5,186.5 M352.5,167.5 L378.5,167.5 M365.5,186.5 L352.5,201.5 M365.5,186.5 L378.5,201.5 " fill="none" filter="url(#fups9vhs1n98v)" style="stroke: #A80036; stroke-width: 1.5;"/><text fill="#000000" font-family="sans-serif" font-size="14" lengthAdjust="spacingAndGlyphs" textLength="55" x="338" y="223.1533">Function</text><!--MD5=[7e98fb6c63a3f8812a1e24aa3667afb9]
entity actor444096469--><ellipse cx="365.5" cy="508.5" fill="#FEFECE" filter="url(#fups9vhs1n98v)" rx="8" ry="8" style="stroke: #A80036; stroke-width: 1.5;"/><path d="M365.5,516.5 L365.5,543.5 M352.5,524.5 L378.5,524.5 M365.5,543.5 L352.5,558.5 M365.5,543.5 L378.5,558.5 " fill="none" filter="url(#fups9vhs1n98v)" style="stroke: #A80036; stroke-width: 1.5;"/><text fill="#000000" font-family="sans-serif" font-size="14" lengthAdjust="spacingAndGlyphs" textLength="51" x="340" y="580.1533">Member</text><!--MD5=[ec692d90cb692a3066c9b34ff0c4353a]
entity actor1365349839--><ellipse cx="365.5" cy="627.5" fill="#FEFECE" filter="url(#fups9vhs1n98v)" rx="8" ry="8" style="stroke: #A80036; stroke-width: 1.5;"/><path d="M365.5,635.5 L365.5,662.5 M352.5,643.5 L378.5,643.5 M365.5,662.5 L352.5,677.5 M365.5,662.5 L378.5,677.5 " fill="none" filter="url(#fups9vhs1n98v)" style="stroke: #A80036; stroke-width: 1.5;"/><text fill="#000000" font-family="sans-serif" font-size="14" lengthAdjust="spacingAndGlyphs" textLength="53" x="339" y="699.1533">Scanner</text><!--MD5=[ca7b4d8a69d8adebf3caa2d9b14831e4]
link actor293749050 to UC1986751746--><path d="M47.4656,231.789 C58.1876,204.225 74.6324,168.401 96,141 C117.237,113.766 149.428,89.715 170.584,75.507 " fill="none" id="actor293749050-UC1986751746" style="stroke: #A80036; stroke-width: 1.0;"/><!--MD5=[d38bbcde15f3bbbea2f924710b14161f]
link UC1986751746 to actor1795804759--><path d="M229.538,62.651 C257.463,63.135 295.539,63.795 324.212,64.293 " fill="none" id="UC1986751746-actor1795804759" style="stroke: #A80036; stroke-width: 1.0;"/><!--MD5=[24aa517c975b4efae0f7f26d05e00529]
link actor293749050 to UC1698322791--><path d="M60.0862,255.075 C70.3424,244.617 82.7632,232.64 96,224 C121.763,207.185 156.854,197.52 176.691,187.717 " fill="none" id="actor293749050-UC1698322791" style="stroke: #A80036; stroke-width: 1.0;"/><!--MD5=[24aa517c975b4efae0f7f26d05e00529]
link actor293749050 to UC1698322791--><path d="M52.4779,231.987 C63.8747,216.138 79.2868,199.909 96,189 C115.692,176.147 140.835,167.472 160.449,164.627 " fill="none" id="actor293749050-UC1698322791-1" style="stroke: #A80036; stroke-width: 1.0;"/><!--MD5=[b70d168c971061c198567fafd2f6b89d]
link actor293749050 to UC1142350221--><path d="M60.3331,268.155 C88.9234,262.042 133.63,252.482 162.873,246.228 " fill="none" id="actor293749050-UC1142350221" style="stroke: #A80036; stroke-width: 1.0;"/><!--MD5=[4c408bcc790a7cd6245bc23cba5dd9f5]
link actor293749050 to UC98550436--><path d="M60.3331,279.673 C81.9978,284.169 112.916,290.586 139.349,296.072 " fill="none" id="actor293749050-UC98550436" style="stroke: #A80036; stroke-width: 1.0;"/><!--MD5=[18dd87e2224bd91c9c126532cb1dca5f]
link actor293749050 to UC741225568--><path d="M60.0411,309.011 C70.2934,320.458 82.7232,332.422 96,341 C112.727,351.808 133.392,359.504 151.259,364.73 " fill="none" id="actor293749050-UC741225568" style="stroke: #A80036; stroke-width: 1.0;"/><!--MD5=[d99735a8e294d34a903e22eb230990a7]
link UC741225568 to actor1785570426--><path d="M229.966,384.534 C259.904,392.84 301.311,404.329 330.356,412.388 " fill="none" id="UC741225568-actor1785570426" style="stroke: #A80036; stroke-width: 1.0;"/><!--MD5=[a678f0fc2a2cc66f18ede1ca16641599]
link UC98550436 to actor1528099970--><path d="M263.365,305.35 C289.984,304.734 318.578,304.073 338.634,303.61 " fill="none" id="UC98550436-actor1528099970" style="stroke: #A80036; stroke-width: 1.0;"/><!--MD5=[9a22b9ab6b01a614a422d8c9166b716c]
link UC1142350221 to actor426792528--><path d="M218.652,231.373 C250.878,220.941 304.84,203.474 337.459,192.915 " fill="none" id="UC1142350221-actor426792528" style="stroke: #A80036; stroke-width: 1.0;"/><!--MD5=[69bd8bc59a152daaf90aabbb532079af]
link UC1698322791 to actor1795804759--><path d="M222.531,163.935 C250.855,149.554 293.211,123.447 324.381,101.357 " fill="none" id="UC1698322791-actor1795804759" style="stroke: #A80036; stroke-width: 1.0;"/><!--MD5=[69bd8bc59a152daaf90aabbb532079af]
link UC1698322791 to actor1795804759--><path d="M204.442,157.827 C229.156,136.099 285.401,99.571 324.292,78.759 " fill="none" id="UC1698322791-actor1795804759-1" style="stroke: #A80036; stroke-width: 1.0;"/><!--MD5=[ca3c4b1883adf576dc763bf079233329]
link actor293749050 to UC1108374296--><path d="M49.4215,316.077 C60.7415,342.854 77.1175,377.693 96,406 C119.683,441.503 154.56,477.317 175.11,497.187 " fill="none" id="actor293749050-UC1108374296" style="stroke: #A80036; stroke-width: 1.0;"/><!--MD5=[60c336f348f4854763f4a0354195e30e]
link UC1108374296 to actor444096469--><path d="M246.738,521.859 C277.624,526.858 314.782,532.872 339.1,536.808 " fill="none" id="UC1108374296-actor444096469" style="stroke: #A80036; stroke-width: 1.0;"/><!--MD5=[1575d1e2b45e2e738bc43c4e55dd77e4]
link actor293749050 to UC863313225--><path d="M35.706,316.473 C40.795,372.097 55.2708,471.204 96,545 C115.234,579.849 150.567,610.7333 172.586,627.8481 " fill="none" id="actor293749050-UC863313225" style="stroke: #A80036; stroke-width: 1.0;"/><!--MD5=[09cc0056ece2a3574acfe86e9261e15a]
link UC863313225 to actor1365349839--><path d="M229.538,645.9057 C262.333,649.3178 309.127,654.1866 338.25,657.2168 " fill="none" id="UC863313225-actor1365349839" style="stroke: #A80036; stroke-width: 1.0;"/><!--MD5=[e447fe979c06c467a581ad788dd052c2]
@startuml
 left to right direction

actor Complex as actor293749050

	rectangle getUndefSize{
	 usecase toString as UC1986751746
	actor293749050- -UC1986751746
	}
	actor StringBuilder as actor1795804759
	 UC1986751746 - - actor1795804759
	rectangle addFunctionScore{
	 usecase append as UC1698322791
	actor293749050- -UC1698322791
	 usecase getSig as UC1142350221
	actor293749050- -UC1142350221
	 usecase getFunctionList as UC98550436
	actor293749050- -UC98550436
	 usecase getHasList as UC741225568
	actor293749050- -UC741225568
	}
	actor Data_base as actor1785570426
	 UC741225568 - - actor1785570426
	actor DataList as actor1528099970
	 UC98550436 - - actor1528099970
	actor Function as actor426792528
	 UC1142350221 - - actor426792528
	actor StringBuilder as actor1795804759
	 UC1698322791 - - actor1795804759
	rectangle getMemberScore{
	 usecase getTypeName as UC1108374296
	actor293749050- -UC1108374296
	 usecase append as UC1698322791
	actor293749050- -UC1698322791
	}
	actor StringBuilder as actor1795804759
	 UC1698322791 - - actor1795804759
	actor Member as actor444096469
	 UC1108374296 - - actor444096469
	rectangle getLineNum{
	 usecase hasNext as UC863313225
	actor293749050- -UC863313225
	}
	actor Scanner as actor1365349839
	 UC863313225 - - actor1365349839

@enduml

PlantUML version 1.2020.19(Tue Oct 13 00:10:01 KST 2020)
(APACHE source distribution)
Java Runtime: Java(TM) SE Runtime Environment
JVM: Java HotSpot(TM) 64-Bit Server VM
Default Encoding: MS949
Language: ko
Country: KR
--></g></svg>