<?xml version="1.0" encoding="UTF-8" standalone="no"?><svg xmlns="http://www.w3.org/2000/svg" xmlns:xlink="http://www.w3.org/1999/xlink" contentScriptType="application/ecmascript" contentStyleType="text/css" height="666px" preserveAspectRatio="none" style="width:412px;height:666px;" version="1.1" viewBox="0 0 412 666" width="412px" zoomAndPan="magnify"><defs><filter height="300%" id="f1kpnpe3kqv8n2" width="300%" x="-1" y="-1"><feGaussianBlur result="blurOut" stdDeviation="2.0"/><feColorMatrix in="blurOut" result="blurOut2" type="matrix" values="0 0 0 0 0 0 0 0 0 0 0 0 0 0 0 0 0 0 .4 0"/><feOffset dx="4.0" dy="4.0" in="blurOut2" result="blurOut3"/><feBlend in="SourceGraphic" in2="blurOut3" mode="normal"/></filter></defs><g><!--MD5=[3fd23fd997070011d1cb4974b5e1f645]
cluster Function--><rect fill="#FFFFFF" filter="url(#f1kpnpe3kqv8n2)" height="87" style="stroke: #000000; stroke-width: 1.5;" width="106" x="145" y="7"/><text fill="#000000" font-family="sans-serif" font-size="14" font-weight="bold" lengthAdjust="spacingAndGlyphs" textLength="62" x="167" y="25.1533">Function</text><!--MD5=[a1eef7bbc55d6e115a3736b1cb383f24]
cluster getSrcName--><rect fill="#FFFFFF" filter="url(#f1kpnpe3kqv8n2)" height="87" style="stroke: #000000; stroke-width: 1.5;" width="148" x="124" y="118"/><text fill="#000000" font-family="sans-serif" font-size="14" font-weight="bold" lengthAdjust="spacingAndGlyphs" textLength="85" x="155.5" y="136.1533">getSrcName</text><!--MD5=[c34a5b0034f574704b03ebcea5fc6794]
cluster getPackageName--><rect fill="#FFFFFF" filter="url(#f1kpnpe3kqv8n2)" height="89" style="stroke: #000000; stroke-width: 1.5;" width="186" x="105" y="229"/><text fill="#000000" font-family="sans-serif" font-size="14" font-weight="bold" lengthAdjust="spacingAndGlyphs" textLength="121" x="137.5" y="247.1533">getPackageName</text><!--MD5=[3df72e327fda6a9c75e1d3c13478bbff]
cluster addHas--><rect fill="#FFFFFF" filter="url(#f1kpnpe3kqv8n2)" height="87" style="stroke: #000000; stroke-width: 1.5;" width="114" x="141" y="564"/><text fill="#000000" font-family="sans-serif" font-size="14" font-weight="bold" lengthAdjust="spacingAndGlyphs" textLength="52" x="172" y="582.1533">addHas</text><!--MD5=[89e6df34a40fd0f881e4a85c208f9fb2]
cluster addCallBy--><rect fill="#FFFFFF" filter="url(#f1kpnpe3kqv8n2)" height="87" style="stroke: #000000; stroke-width: 1.5;" width="130" x="133" y="342"/><text fill="#000000" font-family="sans-serif" font-size="14" font-weight="bold" lengthAdjust="spacingAndGlyphs" textLength="69" x="163.5" y="360.1533">addCallBy</text><!--MD5=[e72b28ea75be9a6e9901756f23061282]
cluster addCall--><rect fill="#FFFFFF" filter="url(#f1kpnpe3kqv8n2)" height="87" style="stroke: #000000; stroke-width: 1.5;" width="106" x="145" y="453"/><text fill="#000000" font-family="sans-serif" font-size="14" font-weight="bold" lengthAdjust="spacingAndGlyphs" textLength="52" x="172" y="471.1533">addCall</text><ellipse cx="197.9411" cy="62.0973" fill="#FEFECE" filter="url(#f1kpnpe3kqv8n2)" rx="36.9411" ry="16.5973" style="stroke: #A80036; stroke-width: 1.5;"/><text fill="#000000" font-family="sans-serif" font-size="14" lengthAdjust="spacingAndGlyphs" textLength="48" x="173.9411" y="68.2121">addHas</text><ellipse cx="198.4472" cy="173.0973" fill="#FEFECE" filter="url(#f1kpnpe3kqv8n2)" rx="57.4472" ry="16.5973" style="stroke: #A80036; stroke-width: 1.5;"/><text fill="#000000" font-family="sans-serif" font-size="14" lengthAdjust="spacingAndGlyphs" textLength="77" x="159.9472" y="179.2121">getSrcName</text><ellipse cx="198.4257" cy="285.1851" fill="#FEFECE" filter="url(#f1kpnpe3kqv8n2)" rx="76.4257" ry="17.6851" style="stroke: #A80036; stroke-width: 1.5;"/><text fill="#000000" font-family="sans-serif" font-size="14" lengthAdjust="spacingAndGlyphs" textLength="111" x="142.9257" y="291.2999">getPackageName</text><ellipse cx="198.1838" cy="619.0973" fill="#FEFECE" filter="url(#f1kpnpe3kqv8n2)" rx="41.1838" ry="16.5973" style="stroke: #A80036; stroke-width: 1.5;"/><text fill="#000000" font-family="sans-serif" font-size="14" lengthAdjust="spacingAndGlyphs" textLength="54" x="171.1838" y="625.2121">addData</text><ellipse cx="198.2548" cy="397.0973" fill="#FEFECE" filter="url(#f1kpnpe3kqv8n2)" rx="48.2548" ry="16.5973" style="stroke: #A80036; stroke-width: 1.5;"/><text fill="#000000" font-family="sans-serif" font-size="14" lengthAdjust="spacingAndGlyphs" textLength="64" x="166.2548" y="403.2121">addCallBy</text><ellipse cx="197.9411" cy="508.0973" fill="#FEFECE" filter="url(#f1kpnpe3kqv8n2)" rx="36.9411" ry="16.5973" style="stroke: #A80036; stroke-width: 1.5;"/><text fill="#000000" font-family="sans-serif" font-size="14" lengthAdjust="spacingAndGlyphs" textLength="48" x="173.9411" y="514.2121">addCall</text><!--MD5=[37661927b57d6338813e607196720b2f]
entity actor426792528--><ellipse cx="33.5" cy="364.5" fill="#FEFECE" filter="url(#f1kpnpe3kqv8n2)" rx="8" ry="8" style="stroke: #A80036; stroke-width: 1.5;"/><path d="M33.5,372.5 L33.5,399.5 M20.5,380.5 L46.5,380.5 M33.5,399.5 L20.5,414.5 M33.5,399.5 L46.5,414.5 " fill="none" filter="url(#f1kpnpe3kqv8n2)" style="stroke: #A80036; stroke-width: 1.5;"/><text fill="#000000" font-family="sans-serif" font-size="14" lengthAdjust="spacingAndGlyphs" textLength="55" x="6" y="436.1533">Function</text><!--MD5=[662fbe8328652735fce5328a5367bfc1]
entity actor1785570426--><ellipse cx="370.5" cy="308.5" fill="#FEFECE" filter="url(#f1kpnpe3kqv8n2)" rx="8" ry="8" style="stroke: #A80036; stroke-width: 1.5;"/><path d="M370.5,316.5 L370.5,343.5 M357.5,324.5 L383.5,324.5 M370.5,343.5 L357.5,358.5 M370.5,343.5 L383.5,358.5 " fill="none" filter="url(#f1kpnpe3kqv8n2)" style="stroke: #A80036; stroke-width: 1.5;"/><text fill="#000000" font-family="sans-serif" font-size="14" lengthAdjust="spacingAndGlyphs" textLength="69" x="336" y="380.1533">Data_base</text><!--MD5=[2b800408cb2cdbeba4cee5b54d06b786]
entity actor1528099970--><ellipse cx="370" cy="586.5" fill="#FEFECE" filter="url(#f1kpnpe3kqv8n2)" rx="8" ry="8" style="stroke: #A80036; stroke-width: 1.5;"/><path d="M370,594.5 L370,621.5 M357,602.5 L383,602.5 M370,621.5 L357,636.5 M370,621.5 L383,636.5 " fill="none" filter="url(#f1kpnpe3kqv8n2)" style="stroke: #A80036; stroke-width: 1.5;"/><text fill="#000000" font-family="sans-serif" font-size="14" lengthAdjust="spacingAndGlyphs" textLength="52" x="344" y="658.1533">DataList</text><!--MD5=[f50d3bf64c4579068c89657402006259]
link actor426792528 to UC1905699057--><path d="M35.207,354.68 C39.7806,301.01 53.8319,207.467 97,141 C116.4,111.129 151.003,87.737 174.227,74.394 " fill="none" id="actor426792528-UC1905699057" style="stroke: #A80036; stroke-width: 1.0;"/><!--MD5=[702a258807a5f83747881b59ae4946f0]
link UC1905699057 to actor1785570426--><path d="M221.176,74.802 C243.937,88.462 278.187,112.095 299,141 C333.664,189.139 352.809,255.833 362.245,298.703 " fill="none" id="UC1905699057-actor1785570426" style="stroke: #A80036; stroke-width: 1.0;"/><!--MD5=[76b8499d40192366442e5e11ba08da6e]
link actor426792528 to UC150180388--><path d="M45.4943,354.692 C55.9353,324.076 73.0019,282.836 97,252 C118.192,224.769 150.748,201.553 173.138,187.472 " fill="none" id="actor426792528-UC150180388" style="stroke: #A80036; stroke-width: 1.0;"/><!--MD5=[94838471981e63312669bbf2b28f240d]
link UC150180388 to actor1785570426--><path d="M220.085,187.986 C241.394,202.957 274.01,227.248 299,252 C313.465,266.327 327.783,283.532 339.732,298.981 " fill="none" id="UC150180388-actor1785570426" style="stroke: #A80036; stroke-width: 1.0;"/><!--MD5=[a82e41b20beae86812e8220d35df0552]
link actor426792528 to UC133579455--><path d="M60.6173,378.254 C92.3597,356.707 143.94,321.695 174.05,301.257 " fill="none" id="actor426792528-UC133579455" style="stroke: #A80036; stroke-width: 1.0;"/><!--MD5=[a221f3ec7606c404f56897fe5e36c7d8]
link UC133579455 to actor1785570426--><path d="M241.403,299.131 C270.462,308.592 308.203,320.88 335.271,329.693 " fill="none" id="UC133579455-actor1785570426" style="stroke: #A80036; stroke-width: 1.0;"/><!--MD5=[a0a46b6de781d3dbef4e886cd1e2d077]
link actor426792528 to UC1138992016--><path d="M38.4495,439.275 C47.2316,480.796 66.6636,536.227 97,575 C118.262,602.1759 150.803,625.4043 173.17,631.7343 " fill="none" id="actor426792528-UC1138992016" style="stroke: #A80036; stroke-width: 1.0;"/><!--MD5=[a0a46b6de781d3dbef4e886cd1e2d077]
link actor426792528 to UC1138992016--><path d="M45.7234,439.039 C56.2323,469.196 73.284,509.688 97,540 C118.811,567.8772 152.49,591.6005 174.881,605.576 " fill="none" id="actor426792528-UC1138992016-1" style="stroke: #A80036; stroke-width: 1.0;"/><!--MD5=[a0a46b6de781d3dbef4e886cd1e2d077]
link actor426792528 to UC1138992016--><path d="M58.6814,439.201 C68.5678,460.496 81.329,484.971 97,505 C126.767,543.046 178.64,573.3554 193.755,603.0243 " fill="none" id="actor426792528-UC1138992016-2" style="stroke: #A80036; stroke-width: 1.0;"/><!--MD5=[b4257903b53b70770290f44bb17b39f4]
link UC1138992016 to actor1528099970--><path d="M239.198,619 C271.697,619 316.038,619 343.838,619 " fill="none" id="UC1138992016-actor1528099970" style="stroke: #A80036; stroke-width: 1.0;"/><!--MD5=[b4257903b53b70770290f44bb17b39f4]
link UC1138992016 to actor1528099970--><path d="M211.785,634.0793 C240.403,647.3056 306.674,648.7868 343.726,638.5229 " fill="none" id="UC1138992016-actor1528099970-1" style="stroke: #A80036; stroke-width: 1.0;"/><!--MD5=[b4257903b53b70770290f44bb17b39f4]
link UC1138992016 to actor1528099970--><path d="M211.785,603.9207 C240.403,590.6944 306.674,589.2132 343.726,599.4771 " fill="none" id="UC1138992016-actor1528099970-2" style="stroke: #A80036; stroke-width: 1.0;"/><!--MD5=[9d39e61b900d6fc84600fa18513d8ea4]
link actor426792528 to UC1152029154--><path d="M60.6173,406.807 C88.4149,410.385 131.426,410.701 161.909,407.754 " fill="none" id="actor426792528-UC1152029154" style="stroke: #A80036; stroke-width: 1.0;"/><!--MD5=[9d39e61b900d6fc84600fa18513d8ea4]
link actor426792528 to UC1152029154--><path d="M60.6173,386.616 C88.8736,382.765 132.85,382.483 163.407,385.771 " fill="none" id="actor426792528-UC1152029154-1" style="stroke: #A80036; stroke-width: 1.0;"/><!--MD5=[b6018625c6dd7303ca6a0891f5c4693d]
link UC1152029154 to actor1785570426--><path d="M245.455,393.085 C273.894,385.744 309.422,373.823 335.247,362.79 " fill="none" id="UC1152029154-actor1785570426" style="stroke: #A80036; stroke-width: 1.0;"/><!--MD5=[b6018625c6dd7303ca6a0891f5c4693d]
link UC1152029154 to actor1785570426--><path d="M216.734,382.097 C245.118,367.482 299.493,349.016 335.253,341.222 " fill="none" id="UC1152029154-actor1785570426-1" style="stroke: #A80036; stroke-width: 1.0;"/><!--MD5=[111e6d2341d1d6cb57ed034fbcf0c20e]
link actor426792528 to UC1356614113--><path d="M60.6173,415.579 C93.6441,437.797 148.147,474.462 177.597,494.274 " fill="none" id="actor426792528-UC1356614113" style="stroke: #A80036; stroke-width: 1.0;"/><!--MD5=[0c9a6df5cc86a6e7c60a2424f6635803]
link UC1356614113 to actor1785570426--><path d="M218.068,494.379 C239.271,479.528 273.149,454.464 299,429 C313.125,415.087 327.156,398.454 338.969,383.414 " fill="none" id="UC1356614113-actor1785570426" style="stroke: #A80036; stroke-width: 1.0;"/><!--MD5=[cb9b7cc846f93b258551e4af213dc03b]
@startuml
 left to right direction

actor Function as actor426792528

	rectangle Function{
	 usecase addHas as UC1905699057
	actor426792528- -UC1905699057
	}
	actor Data_base as actor1785570426
	 UC1905699057 - - actor1785570426
	rectangle getSrcName{
	 usecase getSrcName as UC150180388
	actor426792528- -UC150180388
	}
	actor Data_base as actor1785570426
	 UC150180388 - - actor1785570426
	rectangle getPackageName{
	 usecase getPackageName as UC133579455
	actor426792528- -UC133579455
	}
	actor Data_base as actor1785570426
	 UC133579455 - - actor1785570426
	rectangle addHas{
	 usecase addData as UC1138992016
	actor426792528- -UC1138992016
	}
	actor DataList as actor1528099970
	 UC1138992016 - - actor1528099970
	rectangle addCallBy{
	 usecase addData as UC1138992016
	actor426792528- -UC1138992016
	 usecase addCallBy as UC1152029154
	actor426792528- -UC1152029154
	}
	actor Data_base as actor1785570426
	 UC1152029154 - - actor1785570426
	actor DataList as actor1528099970
	 UC1138992016 - - actor1528099970
	rectangle addCall{
	 usecase addData as UC1138992016
	actor426792528- -UC1138992016
	 usecase addCall as UC1356614113
	actor426792528- -UC1356614113
	 usecase addCallBy as UC1152029154
	actor426792528- -UC1152029154
	}
	actor Data_base as actor1785570426
	 UC1152029154 - - actor1785570426
	actor Data_base as actor1785570426
	 UC1356614113 - - actor1785570426
	actor DataList as actor1528099970
	 UC1138992016 - - actor1528099970

@enduml

PlantUML version 1.2020.19(Tue Oct 13 00:10:01 KST 2020)
(APACHE source distribution)
Java Runtime: Java(TM) SE Runtime Environment
JVM: Java HotSpot(TM) 64-Bit Server VM
Default Encoding: MS949
Language: ko
Country: KR
--></g></svg>