<?xml version="1.0" encoding="UTF-8" standalone="no"?><svg xmlns="http://www.w3.org/2000/svg" xmlns:xlink="http://www.w3.org/1999/xlink" contentScriptType="application/ecmascript" contentStyleType="text/css" height="1061px" preserveAspectRatio="none" style="width:683px;height:1061px;" version="1.1" viewBox="0 0 683 1061" width="683px" zoomAndPan="magnify"><defs><filter height="300%" id="fu1oil06i859c" width="300%" x="-1" y="-1"><feGaussianBlur result="blurOut" stdDeviation="2.0"/><feColorMatrix in="blurOut" result="blurOut2" type="matrix" values="0 0 0 0 0 0 0 0 0 0 0 0 0 0 0 0 0 0 .4 0"/><feOffset dx="4.0" dy="4.0" in="blurOut2" result="blurOut3"/><feBlend in="SourceGraphic" in2="blurOut3" mode="normal"/></filter></defs><g><!--MD5=[e1b16b018d5b360257f98334f3afe3c6]
cluster gameSystem.Map--><polygon fill="#FFFFFF" filter="url(#fu1oil06i859c)" points="16,6,144,6,151,31.2295,525,31.2295,525,1054,16,1054,16,6" style="stroke: #000000; stroke-width: 1.5;"/><line style="stroke: #000000; stroke-width: 1.5;" x1="16" x2="151" y1="31.2295" y2="31.2295"/><text fill="#000000" font-family="sans-serif" font-size="14" font-weight="bold" lengthAdjust="spacingAndGlyphs" textLength="122" x="20" y="24.1533">gameSystem.Map</text><!--MD5=[b289abad52427ce6c46c2c06fcaa83ba]
class gameSystem.Map.Map800088638--><rect codeLine="22" fill="#FEFECE" filter="url(#fu1oil06i859c)" height="467.0488" id="gameSystem.Map.Map800088638" style="stroke: #008000; stroke-width: 1.5;" width="237" x="32.5" y="44"/><ellipse cx="131.25" cy="60" fill="#ADD1B2" rx="11" ry="11" style="stroke: #008000; stroke-width: 1.0;"/><path d="M131.0781,53.4844 Q129.2031,53.4844 128.0469,55.2344 Q126.8594,57.0156 126.8594,60.0156 Q126.8594,63.3906 128.0625,65.1563 Q129.125,66.7813 130.875,66.7813 Q132.5625,66.7813 133.5156,65.875 Q134.5781,64.8594 134.7188,62.625 Q134.7188,62.2031 134.4844,61.9688 Q134.2969,61.7344 133.9531,61.7031 Q133.625,61.7031 133.3906,61.8906 Q133.125,62.125 133.125,62.5156 Q133.0938,63.9063 132.5,64.6406 Q131.9688,65.3438 131.0156,65.3438 Q129.8594,65.3438 129.1406,63.9063 Q128.4219,62.4063 128.4219,59.9844 Q128.4219,57.4375 129.3125,56.0469 Q130.0625,54.9219 131.2031,54.9219 Q131.8594,54.9219 132.3594,55.4688 Q132.9219,56.0781 133.0469,57.1406 Q133.0938,57.8438 133.9219,57.7344 Q134.7031,57.625 134.6563,56.9375 Q134.4688,55.4219 133.7031,54.5469 Q132.7656,53.4844 131.0781,53.4844 Z "/><text fill="#000000" font-family="sans-serif" font-size="12" lengthAdjust="spacingAndGlyphs" textLength="31" x="151.75" y="65.6045">Map()</text><line style="stroke: #008000; stroke-width: 1.5;" x1="33.5" x2="268.5" y1="76" y2="76"/><text fill="#000000" font-family="sans-serif" font-size="11" lengthAdjust="spacingAndGlyphs" textLength="44" x="38.5" y="92.6919">pram : ( )</text><text fill="#000000" font-family="sans-serif" font-size="11" lengthAdjust="spacingAndGlyphs" textLength="189" x="38.5" y="107.8008">SrcOwnClassName : gameSystem.Map</text><text fill="#000000" font-family="sans-serif" font-size="11" lengthAdjust="spacingAndGlyphs" textLength="157" x="38.5" y="122.9097">SrcSig : gameSystem.Map.Map()</text><text fill="#000000" font-family="sans-serif" font-size="11" lengthAdjust="spacingAndGlyphs" textLength="52" x="38.5" y="138.0186">Sig : Map()</text><text fill="#000000" font-family="sans-serif" font-size="11" lengthAdjust="spacingAndGlyphs" textLength="96" x="38.5" y="172.2363">parameter Score : 0</text><text fill="#000000" font-family="sans-serif" font-size="11" lengthAdjust="spacingAndGlyphs" textLength="90" x="38.5" y="187.3452">classCall Score : 0</text><text fill="#000000" font-family="sans-serif" font-size="11" lengthAdjust="spacingAndGlyphs" textLength="64" x="38.5" y="202.4541">Call Score : 2</text><text fill="#000000" font-family="sans-serif" font-size="11" lengthAdjust="spacingAndGlyphs" textLength="77" x="38.5" y="217.563">CallBy Score : 2</text><text fill="#000000" font-family="sans-serif" font-size="11" lengthAdjust="spacingAndGlyphs" textLength="104" x="38.5" y="232.6719">memberUse Score : 2</text><text fill="#000000" font-family="sans-serif" font-size="11" lengthAdjust="spacingAndGlyphs" textLength="97" x="38.5" y="247.7808">localValue Score : 0</text><text fill="#000000" font-family="sans-serif" font-size="11" lengthAdjust="spacingAndGlyphs" textLength="65" x="38.5" y="262.8896">exp Score : 0</text><text fill="#000000" font-family="sans-serif" font-size="11" lengthAdjust="spacingAndGlyphs" textLength="78" x="38.5" y="277.9985">repeat Score : 0</text><text fill="#000000" font-family="sans-serif" font-size="11" lengthAdjust="spacingAndGlyphs" textLength="81" x="38.5" y="293.1074">brench Score : 0</text><text fill="#000000" font-family="sans-serif" font-size="11" lengthAdjust="spacingAndGlyphs" textLength="80" x="38.5" y="308.2163">callCountNum : 1</text><text fill="#000000" font-family="sans-serif" font-size="11" lengthAdjust="spacingAndGlyphs" textLength="66" x="38.5" y="323.3252">cyclomatic : 1</text><text fill="#000000" font-family="sans-serif" font-size="11" lengthAdjust="spacingAndGlyphs" textLength="105" x="38.5" y="338.4341">State Node lineNum: 7</text><text fill="#000000" font-family="sans-serif" font-size="11" lengthAdjust="spacingAndGlyphs" textLength="92" x="38.5" y="353.543">State Node Num : 0</text><text fill="#000000" font-family="sans-serif" font-size="11" lengthAdjust="spacingAndGlyphs" textLength="122" x="38.5" y="368.6519">State Node callListSize: 0</text><text fill="#000000" font-family="sans-serif" font-size="11" lengthAdjust="spacingAndGlyphs" textLength="123" x="38.5" y="383.7607">State Node repeatSize : 1</text><text fill="#000000" font-family="sans-serif" font-size="11" lengthAdjust="spacingAndGlyphs" textLength="117" x="38.5" y="398.8696">State Node writeSize : 3</text><text fill="#000000" font-family="sans-serif" font-size="11" lengthAdjust="spacingAndGlyphs" textLength="114" x="38.5" y="413.9785">State Node bifurSize : 1</text><text fill="#000000" font-family="sans-serif" font-size="11" lengthAdjust="spacingAndGlyphs" textLength="225" x="38.5" y="429.0874">Calculated Estunated Program Length: 35.1613</text><text fill="#000000" font-family="sans-serif" font-size="11" lengthAdjust="spacingAndGlyphs" textLength="90" x="38.5" y="444.1963">Volume : 111.0132</text><text fill="#000000" font-family="sans-serif" font-size="11" lengthAdjust="spacingAndGlyphs" textLength="85" x="38.5" y="459.3052">Diffifculty: 9.3333</text><text fill="#000000" font-family="sans-serif" font-size="11" lengthAdjust="spacingAndGlyphs" textLength="87" x="38.5" y="474.4141">Effort : 1036.1231</text><text fill="#000000" font-family="sans-serif" font-size="11" lengthAdjust="spacingAndGlyphs" textLength="90" x="38.5" y="489.5229">Absolute Score : 2</text><text fill="#000000" font-family="sans-serif" font-size="11" lengthAdjust="spacingAndGlyphs" textLength="85" x="38.5" y="504.6318">Relative Score : 2</text><line style="stroke: #008000; stroke-width: 1.5;" x1="33.5" x2="114.5" y1="151.99" y2="151.99"/><text fill="#FFA500" font-family="sans-serif" font-size="11" font-weight="bold" lengthAdjust="spacingAndGlyphs" textLength="73" x="114.5" y="156.6274">Complex Info</text><line style="stroke: #008000; stroke-width: 1.5;" x1="187.5" x2="268.5" y1="151.99" y2="151.99"/><!--MD5=[3440231ea4de1c37d9cb4eee5180eedf]
class gameSystem.Map.getSize1680503330--><rect codeLine="53" fill="#FEFECE" filter="url(#fu1oil06i859c)" height="467.0488" id="gameSystem.Map.getSize1680503330" style="stroke: #008000; stroke-width: 1.5;" width="204" x="305" y="44"/><ellipse cx="378.75" cy="60" fill="#ADD1B2" rx="11" ry="11" style="stroke: #008000; stroke-width: 1.0;"/><path d="M378.5781,53.4844 Q376.7031,53.4844 375.5469,55.2344 Q374.3594,57.0156 374.3594,60.0156 Q374.3594,63.3906 375.5625,65.1563 Q376.625,66.7813 378.375,66.7813 Q380.0625,66.7813 381.0156,65.875 Q382.0781,64.8594 382.2188,62.625 Q382.2188,62.2031 381.9844,61.9688 Q381.7969,61.7344 381.4531,61.7031 Q381.125,61.7031 380.8906,61.8906 Q380.625,62.125 380.625,62.5156 Q380.5938,63.9063 380,64.6406 Q379.4688,65.3438 378.5156,65.3438 Q377.3594,65.3438 376.6406,63.9063 Q375.9219,62.4063 375.9219,59.9844 Q375.9219,57.4375 376.8125,56.0469 Q377.5625,54.9219 378.7031,54.9219 Q379.3594,54.9219 379.8594,55.4688 Q380.4219,56.0781 380.5469,57.1406 Q380.5938,57.8438 381.4219,57.7344 Q382.2031,57.625 382.1563,56.9375 Q381.9688,55.4219 381.2031,54.5469 Q380.2656,53.4844 378.5781,53.4844 Z "/><text fill="#000000" font-family="sans-serif" font-size="12" lengthAdjust="spacingAndGlyphs" textLength="48" x="399.25" y="65.6045">getSize()</text><line style="stroke: #008000; stroke-width: 1.5;" x1="306" x2="508" y1="76" y2="76"/><text fill="#000000" font-family="sans-serif" font-size="11" lengthAdjust="spacingAndGlyphs" textLength="44" x="311" y="92.6919">pram : ( )</text><text fill="#000000" font-family="sans-serif" font-size="11" lengthAdjust="spacingAndGlyphs" textLength="189" x="311" y="107.8008">SrcOwnClassName : gameSystem.Map</text><text fill="#000000" font-family="sans-serif" font-size="11" lengthAdjust="spacingAndGlyphs" textLength="173" x="311" y="122.9097">SrcSig : gameSystem.Map.getSize()</text><text fill="#000000" font-family="sans-serif" font-size="11" lengthAdjust="spacingAndGlyphs" textLength="68" x="311" y="138.0186">Sig : getSize()</text><text fill="#000000" font-family="sans-serif" font-size="11" lengthAdjust="spacingAndGlyphs" textLength="96" x="311" y="172.2363">parameter Score : 0</text><text fill="#000000" font-family="sans-serif" font-size="11" lengthAdjust="spacingAndGlyphs" textLength="90" x="311" y="187.3452">classCall Score : 0</text><text fill="#000000" font-family="sans-serif" font-size="11" lengthAdjust="spacingAndGlyphs" textLength="64" x="311" y="202.4541">Call Score : 0</text><text fill="#000000" font-family="sans-serif" font-size="11" lengthAdjust="spacingAndGlyphs" textLength="77" x="311" y="217.563">CallBy Score : 2</text><text fill="#000000" font-family="sans-serif" font-size="11" lengthAdjust="spacingAndGlyphs" textLength="104" x="311" y="232.6719">memberUse Score : 0</text><text fill="#000000" font-family="sans-serif" font-size="11" lengthAdjust="spacingAndGlyphs" textLength="97" x="311" y="247.7808">localValue Score : 0</text><text fill="#000000" font-family="sans-serif" font-size="11" lengthAdjust="spacingAndGlyphs" textLength="65" x="311" y="262.8896">exp Score : 0</text><text fill="#000000" font-family="sans-serif" font-size="11" lengthAdjust="spacingAndGlyphs" textLength="78" x="311" y="277.9985">repeat Score : 0</text><text fill="#000000" font-family="sans-serif" font-size="11" lengthAdjust="spacingAndGlyphs" textLength="81" x="311" y="293.1074">brench Score : 0</text><text fill="#000000" font-family="sans-serif" font-size="11" lengthAdjust="spacingAndGlyphs" textLength="80" x="311" y="308.2163">callCountNum : 0</text><text fill="#000000" font-family="sans-serif" font-size="11" lengthAdjust="spacingAndGlyphs" textLength="66" x="311" y="323.3252">cyclomatic : 1</text><text fill="#000000" font-family="sans-serif" font-size="11" lengthAdjust="spacingAndGlyphs" textLength="105" x="311" y="338.4341">State Node lineNum: 1</text><text fill="#000000" font-family="sans-serif" font-size="11" lengthAdjust="spacingAndGlyphs" textLength="92" x="311" y="353.543">State Node Num : 0</text><text fill="#000000" font-family="sans-serif" font-size="11" lengthAdjust="spacingAndGlyphs" textLength="122" x="311" y="368.6519">State Node callListSize: 0</text><text fill="#000000" font-family="sans-serif" font-size="11" lengthAdjust="spacingAndGlyphs" textLength="123" x="311" y="383.7607">State Node repeatSize : 0</text><text fill="#000000" font-family="sans-serif" font-size="11" lengthAdjust="spacingAndGlyphs" textLength="117" x="311" y="398.8696">State Node writeSize : 0</text><text fill="#000000" font-family="sans-serif" font-size="11" lengthAdjust="spacingAndGlyphs" textLength="114" x="311" y="413.9785">State Node bifurSize : 0</text><text fill="#000000" font-family="sans-serif" font-size="11" lengthAdjust="spacingAndGlyphs" textLength="192" x="311" y="429.0874">Calculated Estunated Program Length: 4</text><text fill="#000000" font-family="sans-serif" font-size="11" lengthAdjust="spacingAndGlyphs" textLength="51" x="311" y="444.1963">Volume : 8</text><text fill="#000000" font-family="sans-serif" font-size="11" lengthAdjust="spacingAndGlyphs" textLength="58" x="311" y="459.3052">Diffifculty: 1</text><text fill="#000000" font-family="sans-serif" font-size="11" lengthAdjust="spacingAndGlyphs" textLength="42" x="311" y="474.4141">Effort : 8</text><text fill="#000000" font-family="sans-serif" font-size="11" lengthAdjust="spacingAndGlyphs" textLength="90" x="311" y="489.5229">Absolute Score : 0</text><text fill="#000000" font-family="sans-serif" font-size="11" lengthAdjust="spacingAndGlyphs" textLength="85" x="311" y="504.6318">Relative Score : 0</text><line style="stroke: #008000; stroke-width: 1.5;" x1="306" x2="370.5" y1="151.99" y2="151.99"/><text fill="#FFA500" font-family="sans-serif" font-size="11" font-weight="bold" lengthAdjust="spacingAndGlyphs" textLength="73" x="370.5" y="156.6274">Complex Info</text><line style="stroke: #008000; stroke-width: 1.5;" x1="443.5" x2="508" y1="151.99" y2="151.99"/><!--MD5=[dd6045ceef7e933198480e7a85aad647]
class gameSystem.Map.getEvent343812839--><rect codeLine="84" fill="#FEFECE" filter="url(#fu1oil06i859c)" height="467.0488" id="gameSystem.Map.getEvent343812839" style="stroke: #008000; stroke-width: 1.5;" width="237" x="32.5" y="571"/><ellipse cx="112.75" cy="587" fill="#ADD1B2" rx="11" ry="11" style="stroke: #008000; stroke-width: 1.0;"/><path d="M112.5781,580.4844 Q110.7031,580.4844 109.5469,582.2344 Q108.3594,584.0156 108.3594,587.0156 Q108.3594,590.3906 109.5625,592.1563 Q110.625,593.7813 112.375,593.7813 Q114.0625,593.7813 115.0156,592.875 Q116.0781,591.8594 116.2188,589.625 Q116.2188,589.2031 115.9844,588.9688 Q115.7969,588.7344 115.4531,588.7031 Q115.125,588.7031 114.8906,588.8906 Q114.625,589.125 114.625,589.5156 Q114.5938,590.9063 114,591.6406 Q113.4688,592.3438 112.5156,592.3438 Q111.3594,592.3438 110.6406,590.9063 Q109.9219,589.4063 109.9219,586.9844 Q109.9219,584.4375 110.8125,583.0469 Q111.5625,581.9219 112.7031,581.9219 Q113.3594,581.9219 113.8594,582.4688 Q114.4219,583.0781 114.5469,584.1406 Q114.5938,584.8438 115.4219,584.7344 Q116.2031,584.625 116.1563,583.9375 Q115.9688,582.4219 115.2031,581.5469 Q114.2656,580.4844 112.5781,580.4844 Z "/><text fill="#000000" font-family="sans-serif" font-size="12" lengthAdjust="spacingAndGlyphs" textLength="68" x="133.25" y="592.6045">getEvent(int)</text><line style="stroke: #008000; stroke-width: 1.5;" x1="33.5" x2="268.5" y1="603" y2="603"/><text fill="#000000" font-family="sans-serif" font-size="11" lengthAdjust="spacingAndGlyphs" textLength="55" x="38.5" y="619.6919">pram : (int )</text><text fill="#000000" font-family="sans-serif" font-size="11" lengthAdjust="spacingAndGlyphs" textLength="189" x="38.5" y="634.8008">SrcOwnClassName : gameSystem.Map</text><text fill="#000000" font-family="sans-serif" font-size="11" lengthAdjust="spacingAndGlyphs" textLength="190" x="38.5" y="649.9097">SrcSig : gameSystem.Map.getEvent(int)</text><text fill="#000000" font-family="sans-serif" font-size="11" lengthAdjust="spacingAndGlyphs" textLength="85" x="38.5" y="665.0186">Sig : getEvent(int)</text><text fill="#000000" font-family="sans-serif" font-size="11" lengthAdjust="spacingAndGlyphs" textLength="96" x="38.5" y="699.2363">parameter Score : 1</text><text fill="#000000" font-family="sans-serif" font-size="11" lengthAdjust="spacingAndGlyphs" textLength="90" x="38.5" y="714.3452">classCall Score : 0</text><text fill="#000000" font-family="sans-serif" font-size="11" lengthAdjust="spacingAndGlyphs" textLength="64" x="38.5" y="729.4541">Call Score : 0</text><text fill="#000000" font-family="sans-serif" font-size="11" lengthAdjust="spacingAndGlyphs" textLength="77" x="38.5" y="744.563">CallBy Score : 2</text><text fill="#000000" font-family="sans-serif" font-size="11" lengthAdjust="spacingAndGlyphs" textLength="104" x="38.5" y="759.6719">memberUse Score : 0</text><text fill="#000000" font-family="sans-serif" font-size="11" lengthAdjust="spacingAndGlyphs" textLength="97" x="38.5" y="774.7808">localValue Score : 1</text><text fill="#000000" font-family="sans-serif" font-size="11" lengthAdjust="spacingAndGlyphs" textLength="65" x="38.5" y="789.8896">exp Score : 0</text><text fill="#000000" font-family="sans-serif" font-size="11" lengthAdjust="spacingAndGlyphs" textLength="78" x="38.5" y="804.9985">repeat Score : 0</text><text fill="#000000" font-family="sans-serif" font-size="11" lengthAdjust="spacingAndGlyphs" textLength="81" x="38.5" y="820.1074">brench Score : 0</text><text fill="#000000" font-family="sans-serif" font-size="11" lengthAdjust="spacingAndGlyphs" textLength="80" x="38.5" y="835.2163">callCountNum : 0</text><text fill="#000000" font-family="sans-serif" font-size="11" lengthAdjust="spacingAndGlyphs" textLength="66" x="38.5" y="850.3252">cyclomatic : 1</text><text fill="#000000" font-family="sans-serif" font-size="11" lengthAdjust="spacingAndGlyphs" textLength="105" x="38.5" y="865.4341">State Node lineNum: 4</text><text fill="#000000" font-family="sans-serif" font-size="11" lengthAdjust="spacingAndGlyphs" textLength="92" x="38.5" y="880.543">State Node Num : 0</text><text fill="#000000" font-family="sans-serif" font-size="11" lengthAdjust="spacingAndGlyphs" textLength="122" x="38.5" y="895.6519">State Node callListSize: 0</text><text fill="#000000" font-family="sans-serif" font-size="11" lengthAdjust="spacingAndGlyphs" textLength="123" x="38.5" y="910.7607">State Node repeatSize : 0</text><text fill="#000000" font-family="sans-serif" font-size="11" lengthAdjust="spacingAndGlyphs" textLength="117" x="38.5" y="925.8696">State Node writeSize : 0</text><text fill="#000000" font-family="sans-serif" font-size="11" lengthAdjust="spacingAndGlyphs" textLength="114" x="38.5" y="940.9785">State Node bifurSize : 1</text><text fill="#000000" font-family="sans-serif" font-size="11" lengthAdjust="spacingAndGlyphs" textLength="225" x="38.5" y="956.0874">Calculated Estunated Program Length: 19.6096</text><text fill="#000000" font-family="sans-serif" font-size="11" lengthAdjust="spacingAndGlyphs" textLength="84" x="38.5" y="971.1963">Volume : 38.0391</text><text fill="#000000" font-family="sans-serif" font-size="11" lengthAdjust="spacingAndGlyphs" textLength="67" x="38.5" y="986.3052">Diffifculty: 3.2</text><text fill="#000000" font-family="sans-serif" font-size="11" lengthAdjust="spacingAndGlyphs" textLength="81" x="38.5" y="1001.4141">Effort : 121.7251</text><text fill="#000000" font-family="sans-serif" font-size="11" lengthAdjust="spacingAndGlyphs" textLength="90" x="38.5" y="1016.5229">Absolute Score : 1</text><text fill="#000000" font-family="sans-serif" font-size="11" lengthAdjust="spacingAndGlyphs" textLength="85" x="38.5" y="1031.6318">Relative Score : 1</text><line style="stroke: #008000; stroke-width: 1.5;" x1="33.5" x2="114.5" y1="678.99" y2="678.99"/><text fill="#FFA500" font-family="sans-serif" font-size="11" font-weight="bold" lengthAdjust="spacingAndGlyphs" textLength="73" x="114.5" y="683.6274">Complex Info</text><line style="stroke: #008000; stroke-width: 1.5;" x1="187.5" x2="268.5" y1="678.99" y2="678.99"/><!--MD5=[f04bc90bf33944b7fab332a83ab18852]
class ClassComplex--><rect codeLine="1" fill="#FEFECE" filter="url(#fu1oil06i859c)" height="319.96" id="ClassComplex" style="stroke: #A80036; stroke-width: 1.5;" width="125" x="544.5" y="117.5"/><ellipse cx="564.45" cy="133.5" fill="#ADD1B2" rx="11" ry="11" style="stroke: #A80036; stroke-width: 1.0;"/><path d="M564.2781,126.9844 Q562.4031,126.9844 561.2469,128.7344 Q560.0594,130.5156 560.0594,133.5156 Q560.0594,136.8906 561.2625,138.6563 Q562.325,140.2813 564.075,140.2813 Q565.7625,140.2813 566.7156,139.375 Q567.7781,138.3594 567.9188,136.125 Q567.9188,135.7031 567.6844,135.4688 Q567.4969,135.2344 567.1531,135.2031 Q566.825,135.2031 566.5906,135.3906 Q566.325,135.625 566.325,136.0156 Q566.2938,137.4063 565.7,138.1406 Q565.1688,138.8438 564.2156,138.8438 Q563.0594,138.8438 562.3406,137.4063 Q561.6219,135.9063 561.6219,133.4844 Q561.6219,130.9375 562.5125,129.5469 Q563.2625,128.4219 564.4031,128.4219 Q565.0594,128.4219 565.5594,128.9688 Q566.1219,129.5781 566.2469,130.6406 Q566.2938,131.3438 567.1219,131.2344 Q567.9031,131.125 567.8563,130.4375 Q567.6688,128.9219 566.9031,128.0469 Q565.9656,126.9844 564.2781,126.9844 Z "/><text fill="#000000" font-family="sans-serif" font-size="12" lengthAdjust="spacingAndGlyphs" textLength="82" x="579.55" y="139.1045">ClassComplex</text><line style="stroke: #A80036; stroke-width: 1.5;" x1="545.5" x2="668.5" y1="149.5" y2="149.5"/><text fill="#000000" font-family="sans-serif" font-size="11" lengthAdjust="spacingAndGlyphs" textLength="79" x="550.5" y="185.3008">memberScor = 2</text><text fill="#000000" font-family="sans-serif" font-size="11" lengthAdjust="spacingAndGlyphs" textLength="113" x="550.5" y="200.4097">extendsClassScore = 0</text><text fill="#000000" font-family="sans-serif" font-size="11" lengthAdjust="spacingAndGlyphs" textLength="63" x="550.5" y="215.5186">callScore = 1</text><text fill="#000000" font-family="sans-serif" font-size="11" lengthAdjust="spacingAndGlyphs" textLength="76" x="550.5" y="230.6274">callByScore = 1</text><text fill="#000000" font-family="sans-serif" font-size="11" lengthAdjust="spacingAndGlyphs" textLength="74" x="550.5" y="245.7363">methodNum = 3</text><text fill="#000000" font-family="sans-serif" font-size="11" lengthAdjust="spacingAndGlyphs" textLength="77" x="550.5" y="260.8452">memberNum = 1</text><text fill="#000000" font-family="sans-serif" font-size="11" lengthAdjust="spacingAndGlyphs" textLength="95" x="550.5" y="275.9541">constructorNum = 1</text><text fill="#000000" font-family="sans-serif" font-size="11" lengthAdjust="spacingAndGlyphs" textLength="83" x="550.5" y="291.063">selfCoverage = 1</text><text fill="#000000" font-family="sans-serif" font-size="11" lengthAdjust="spacingAndGlyphs" textLength="72" x="550.5" y="306.1719">needCallBy = 3</text><text fill="#000000" font-family="sans-serif" font-size="11" lengthAdjust="spacingAndGlyphs" textLength="93" x="550.5" y="321.2808">Absolute Score = 6</text><text fill="#000000" font-family="sans-serif" font-size="11" lengthAdjust="spacingAndGlyphs" textLength="88" x="550.5" y="336.3896">Relative Score = 1</text><text fill="#000000" font-family="sans-serif" font-size="11" lengthAdjust="spacingAndGlyphs" textLength="89" x="550.5" y="351.4985">coverage = 25.0%</text><line style="stroke: #A80036; stroke-width: 1.5;" x1="545.5" x2="570.5" y1="165.0544" y2="165.0544"/><text fill="#FFA500" font-family="sans-serif" font-size="11" font-weight="bold" lengthAdjust="spacingAndGlyphs" textLength="73" x="570.5" y="169.6919">Complex Info</text><line style="stroke: #A80036; stroke-width: 1.5;" x1="643.5" x2="668.5" y1="165.0544" y2="165.0544"/><text fill="#008000" font-family="sans-serif" font-size="11" lengthAdjust="spacingAndGlyphs" textLength="81" x="550.5" y="385.7163">int[] eventList (2)</text><text fill="#008000" font-family="sans-serif" font-size="11" lengthAdjust="spacingAndGlyphs" textLength="70" x="550.5" y="400.8252">new Map() (2)</text><text fill="#008000" font-family="sans-serif" font-size="11" lengthAdjust="spacingAndGlyphs" textLength="75" x="550.5" y="415.9341">int getSize() (0)</text><text fill="#008000" font-family="sans-serif" font-size="11" lengthAdjust="spacingAndGlyphs" textLength="92" x="550.5" y="431.043">int getEvent(int) (1)</text><line style="stroke: #A80036; stroke-width: 1.5;" x1="545.5" x2="587" y1="365.47" y2="365.47"/><text fill="#008000" font-family="sans-serif" font-size="11" font-weight="bold" lengthAdjust="spacingAndGlyphs" textLength="40" x="587" y="370.1074">has list</text><line style="stroke: #A80036; stroke-width: 1.5;" x1="627" x2="668.5" y1="365.47" y2="365.47"/><!--MD5=[6df4c693d7bc9f286211f76103678b8f]
link gameSystem.Map.Map800088638 to gameSystem.Map.getSize1680503330--><!--MD5=[4812b05fcbe4f62d8648e918fd762da2]
link gameSystem.Map.Map800088638 to gameSystem.Map.getEvent343812839--><!--MD5=[ab5a4132671c4f1eed47572e9d97e567]
@startuml
class ClassComplex{
__**<color:orange>Complex Info</color>**__
	memberScor = 2
	extendsClassScore = 0
	callScore = 1
	callByScore = 1
	methodNum = 3
	memberNum = 1
	constructorNum = 1
	selfCoverage = 1
	needCallBy = 3
	Absolute Score = 6
	Relative Score = 1
	coverage = 25.0%
__**<color:green>has list</color>**__
	<color:green>int[] eventList (2)
	<color:green>new Map() (2)
	<color:green>int getSize() (0)
	<color:green>int getEvent(int) (1)
}

class gameSystem.Map.Map800088638 as "Map()"#line:green 
{
	pram : ( )
	SrcOwnClassName : gameSystem.Map
	SrcSig : gameSystem.Map.Map()
	Sig : Map()
	__**<color:orange>Complex Info</color>**__
	parameter Score : 0
	classCall Score : 0
	Call Score : 2
	CallBy Score : 2
	memberUse Score : 2
	localValue Score : 0
	exp Score : 0
	repeat Score : 0
	brench Score : 0
	callCountNum : 1
	cyclomatic : 1
	State Node lineNum: 7
	State Node Num : 0
	State Node callListSize: 0
	State Node repeatSize : 1
	State Node writeSize : 3
	State Node bifurSize : 1
	Calculated Estunated Program Length: 35.1613
	Volume : 111.0132
	Diffifculty: 9.3333
	Effort : 1036.1231
	Absolute Score : 2
	Relative Score : 2
}
class gameSystem.Map.getSize1680503330 as "getSize()"#line:green 
{
	pram : ( )
	SrcOwnClassName : gameSystem.Map
	SrcSig : gameSystem.Map.getSize()
	Sig : getSize()
	__**<color:orange>Complex Info</color>**__
	parameter Score : 0
	classCall Score : 0
	Call Score : 0
	CallBy Score : 2
	memberUse Score : 0
	localValue Score : 0
	exp Score : 0
	repeat Score : 0
	brench Score : 0
	callCountNum : 0
	cyclomatic : 1
	State Node lineNum: 1
	State Node Num : 0
	State Node callListSize: 0
	State Node repeatSize : 0
	State Node writeSize : 0
	State Node bifurSize : 0
	Calculated Estunated Program Length: 4
	Volume : 8
	Diffifculty: 1
	Effort : 8
	Absolute Score : 0
	Relative Score : 0
}
class gameSystem.Map.getEvent343812839 as "getEvent(int)"#line:green 
{
	pram : (int )
	SrcOwnClassName : gameSystem.Map
	SrcSig : gameSystem.Map.getEvent(int)
	Sig : getEvent(int)
	__**<color:orange>Complex Info</color>**__
	parameter Score : 1
	classCall Score : 0
	Call Score : 0
	CallBy Score : 2
	memberUse Score : 0
	localValue Score : 1
	exp Score : 0
	repeat Score : 0
	brench Score : 0
	callCountNum : 0
	cyclomatic : 1
	State Node lineNum: 4
	State Node Num : 0
	State Node callListSize: 0
	State Node repeatSize : 0
	State Node writeSize : 0
	State Node bifurSize : 1
	Calculated Estunated Program Length: 19.6096
	Volume : 38.0391
	Diffifculty: 3.2
	Effort : 121.7251
	Absolute Score : 1
	Relative Score : 1
}

@enduml

PlantUML version 1.2020.19(Tue Oct 13 00:10:01 KST 2020)
(APACHE source distribution)
Java Runtime: OpenJDK Runtime Environment
JVM: OpenJDK 64-Bit Server VM
Default Encoding: MS949
Language: ko
Country: KR
--></g></svg>