<?xml version="1.0" encoding="UTF-8" standalone="no"?><svg xmlns="http://www.w3.org/2000/svg" xmlns:xlink="http://www.w3.org/1999/xlink" contentScriptType="application/ecmascript" contentStyleType="text/css" height="808px" preserveAspectRatio="none" style="width:319px;height:808px;" version="1.1" viewBox="0 0 319 808" width="319px" zoomAndPan="magnify"><defs><filter height="300%" id="fxz84ijtwagwl" width="300%" x="-1" y="-1"><feGaussianBlur result="blurOut" stdDeviation="2.0"/><feColorMatrix in="blurOut" result="blurOut2" type="matrix" values="0 0 0 0 0 0 0 0 0 0 0 0 0 0 0 0 0 0 .4 0"/><feOffset dx="4.0" dy="4.0" in="blurOut2" result="blurOut3"/><feBlend in="SourceGraphic" in2="blurOut3" mode="normal"/></filter></defs><g><!--MD5=[537950558e43b2560df457283b5a85a7]
cluster getUndefSize--><rect fill="#FFFFFF" filter="url(#fxz84ijtwagwl)" height="87" style="stroke: #000000; stroke-width: 1.5;" width="111" x="164" y="7"/><text fill="#000000" font-family="sans-serif" font-size="14" font-weight="bold" lengthAdjust="spacingAndGlyphs" textLength="94" x="172.5" y="25.1533">getUndefSize</text><!--MD5=[3a76cada14e7aa6ecc7524fc7634f68c]
cluster addFunctionScore--><rect fill="#FFFFFF" filter="url(#fxz84ijtwagwl)" height="288" style="stroke: #000000; stroke-width: 1.5;" width="176" x="131" y="148"/><text fill="#000000" font-family="sans-serif" font-size="14" font-weight="bold" lengthAdjust="spacingAndGlyphs" textLength="129" x="154.5" y="166.1533">addFunctionScore</text><!--MD5=[3280d439c7efeca69ab8d3c7e9fc743d]
cluster getMemberScore--><rect fill="#FFFFFF" filter="url(#fxz84ijtwagwl)" height="87" style="stroke: #000000; stroke-width: 1.5;" width="162" x="138" y="531"/><text fill="#000000" font-family="sans-serif" font-size="14" font-weight="bold" lengthAdjust="spacingAndGlyphs" textLength="122" x="158" y="549.1533">getMemberScore</text><!--MD5=[810ee23bb0ab43f2a38b555eb772dae5]
cluster getLineNum--><rect fill="#FFFFFF" filter="url(#fxz84ijtwagwl)" height="87" style="stroke: #000000; stroke-width: 1.5;" width="110" x="164" y="674"/><text fill="#000000" font-family="sans-serif" font-size="14" font-weight="bold" lengthAdjust="spacingAndGlyphs" textLength="84" x="177" y="692.1533">getLineNum</text><ellipse cx="219.6482" cy="62.0973" fill="#FEFECE" filter="url(#fxz84ijtwagwl)" rx="37.6482" ry="16.5973" style="stroke: #A80036; stroke-width: 1.5;"/><text fill="#000000" font-family="sans-serif" font-size="14" lengthAdjust="spacingAndGlyphs" textLength="49" x="195.1482" y="68.2121">toString</text><ellipse cx="218.9411" cy="203.0973" fill="#FEFECE" filter="url(#fxz84ijtwagwl)" rx="36.9411" ry="16.5973" style="stroke: #A80036; stroke-width: 1.5;"/><text fill="#000000" font-family="sans-serif" font-size="14" lengthAdjust="spacingAndGlyphs" textLength="48" x="194.9411" y="209.2121">append</text><ellipse cx="219.2843" cy="404.0973" fill="#FEFECE" filter="url(#fxz84ijtwagwl)" rx="31.2843" ry="16.5973" style="stroke: #A80036; stroke-width: 1.5;"/><text fill="#000000" font-family="sans-serif" font-size="14" lengthAdjust="spacingAndGlyphs" textLength="40" x="199.2843" y="410.2121">getSig</text><ellipse cx="219.2886" cy="337.1577" fill="#FEFECE" filter="url(#fxz84ijtwagwl)" rx="71.2886" ry="16.6577" style="stroke: #A80036; stroke-width: 1.5;"/><text fill="#000000" font-family="sans-serif" font-size="14" lengthAdjust="spacingAndGlyphs" textLength="97" x="170.7886" y="343.2725">getFunctionList</text><ellipse cx="219.669" cy="270.0973" fill="#FEFECE" filter="url(#fxz84ijtwagwl)" rx="49.669" ry="16.5973" style="stroke: #A80036; stroke-width: 1.5;"/><text fill="#000000" font-family="sans-serif" font-size="14" lengthAdjust="spacingAndGlyphs" textLength="66" x="186.669" y="276.2121">getHasList</text><ellipse cx="219.2254" cy="586.0973" fill="#FEFECE" filter="url(#fxz84ijtwagwl)" rx="65.2254" ry="16.5973" style="stroke: #A80036; stroke-width: 1.5;"/><text fill="#000000" font-family="sans-serif" font-size="14" lengthAdjust="spacingAndGlyphs" textLength="88" x="175.2254" y="592.2121">getTypeName</text><ellipse cx="219.3553" cy="729.0973" fill="#FEFECE" filter="url(#fxz84ijtwagwl)" rx="38.3553" ry="16.5973" style="stroke: #A80036; stroke-width: 1.5;"/><text fill="#000000" font-family="sans-serif" font-size="14" lengthAdjust="spacingAndGlyphs" textLength="50" x="194.3553" y="735.2121">hasNext</text><!--MD5=[08bb009ca546a11a56caf690d9b73368]
entity actor293749050--><ellipse cx="46" cy="252.5" fill="#FEFECE" filter="url(#fxz84ijtwagwl)" rx="8" ry="8" style="stroke: #A80036; stroke-width: 1.5;"/><path d="M46,260.5 L46,287.5 M33,268.5 L59,268.5 M46,287.5 L33,302.5 M46,287.5 L59,302.5 " fill="none" filter="url(#fxz84ijtwagwl)" style="stroke: #A80036; stroke-width: 1.5;"/><text fill="#000000" font-family="sans-serif" font-size="14" lengthAdjust="spacingAndGlyphs" textLength="54" x="19" y="324.1533">Complex</text><!--MD5=[b2b17946780437d3e03a3618b26c4aa9]
entity actor1795804759--><ellipse cx="46.5" cy="14.5" fill="#FEFECE" filter="url(#fxz84ijtwagwl)" rx="8" ry="8" style="stroke: #A80036; stroke-width: 1.5;"/><path d="M46.5,22.5 L46.5,49.5 M33.5,30.5 L59.5,30.5 M46.5,49.5 L33.5,64.5 M46.5,49.5 L59.5,64.5 " fill="none" filter="url(#fxz84ijtwagwl)" style="stroke: #A80036; stroke-width: 1.5;"/><text fill="#000000" font-family="sans-serif" font-size="14" lengthAdjust="spacingAndGlyphs" textLength="81" x="6" y="86.1533">StringBuilder</text><!--MD5=[662fbe8328652735fce5328a5367bfc1]
entity actor1785570426--><ellipse cx="46.5" cy="133.5" fill="#FEFECE" filter="url(#fxz84ijtwagwl)" rx="8" ry="8" style="stroke: #A80036; stroke-width: 1.5;"/><path d="M46.5,141.5 L46.5,168.5 M33.5,149.5 L59.5,149.5 M46.5,168.5 L33.5,183.5 M46.5,168.5 L59.5,183.5 " fill="none" filter="url(#fxz84ijtwagwl)" style="stroke: #A80036; stroke-width: 1.5;"/><text fill="#000000" font-family="sans-serif" font-size="14" lengthAdjust="spacingAndGlyphs" textLength="69" x="12" y="205.1533">Data_base</text><!--MD5=[2b800408cb2cdbeba4cee5b54d06b786]
entity actor1528099970--><ellipse cx="46" cy="371.5" fill="#FEFECE" filter="url(#fxz84ijtwagwl)" rx="8" ry="8" style="stroke: #A80036; stroke-width: 1.5;"/><path d="M46,379.5 L46,406.5 M33,387.5 L59,387.5 M46,406.5 L33,421.5 M46,406.5 L59,421.5 " fill="none" filter="url(#fxz84ijtwagwl)" style="stroke: #A80036; stroke-width: 1.5;"/><text fill="#000000" font-family="sans-serif" font-size="14" lengthAdjust="spacingAndGlyphs" textLength="52" x="20" y="443.1533">DataList</text><!--MD5=[37661927b57d6338813e607196720b2f]
entity actor426792528--><ellipse cx="46.5" cy="490.5" fill="#FEFECE" filter="url(#fxz84ijtwagwl)" rx="8" ry="8" style="stroke: #A80036; stroke-width: 1.5;"/><path d="M46.5,498.5 L46.5,525.5 M33.5,506.5 L59.5,506.5 M46.5,525.5 L33.5,540.5 M46.5,525.5 L59.5,540.5 " fill="none" filter="url(#fxz84ijtwagwl)" style="stroke: #A80036; stroke-width: 1.5;"/><text fill="#000000" font-family="sans-serif" font-size="14" lengthAdjust="spacingAndGlyphs" textLength="55" x="19" y="562.1533">Function</text><!--MD5=[7e98fb6c63a3f8812a1e24aa3667afb9]
entity actor444096469--><ellipse cx="46.5" cy="609.5" fill="#FEFECE" filter="url(#fxz84ijtwagwl)" rx="8" ry="8" style="stroke: #A80036; stroke-width: 1.5;"/><path d="M46.5,617.5 L46.5,644.5 M33.5,625.5 L59.5,625.5 M46.5,644.5 L33.5,659.5 M46.5,644.5 L59.5,659.5 " fill="none" filter="url(#fxz84ijtwagwl)" style="stroke: #A80036; stroke-width: 1.5;"/><text fill="#000000" font-family="sans-serif" font-size="14" lengthAdjust="spacingAndGlyphs" textLength="51" x="21" y="681.1533">Member</text><!--MD5=[ec692d90cb692a3066c9b34ff0c4353a]
entity actor1365349839--><ellipse cx="46.5" cy="728.5" fill="#FEFECE" filter="url(#fxz84ijtwagwl)" rx="8" ry="8" style="stroke: #A80036; stroke-width: 1.5;"/><path d="M46.5,736.5 L46.5,763.5 M33.5,744.5 L59.5,744.5 M46.5,763.5 L33.5,778.5 M46.5,763.5 L59.5,778.5 " fill="none" filter="url(#fxz84ijtwagwl)" style="stroke: #A80036; stroke-width: 1.5;"/><text fill="#000000" font-family="sans-serif" font-size="14" lengthAdjust="spacingAndGlyphs" textLength="53" x="20" y="800.1533">Scanner</text><!--MD5=[ca7b4d8a69d8adebf3caa2d9b14831e4]
link actor293749050 to UC1986751746--><path d="M73.0604,246.387 C77.7412,239.615 82.5358,232.618 87,226 C103.3375,201.78 105.3,194.243 123,171 C149.888,135.691 185.18,97.412 204.612,76.936 " fill="none" id="actor293749050-UC1986751746" style="stroke: #A80036; stroke-width: 1.0;"/><!--MD5=[b76e54f9f7cf040f3c7409f8fd9fd505]
link actor1795804759 to UC1986751746--><path d="M86.5608,50.517 C115.523,53.028 154.165,56.378 182.23,58.812 " fill="none" id="actor1795804759-UC1986751746" style="stroke: #A80036; stroke-width: 1.0;"/><!--MD5=[24aa517c975b4efae0f7f26d05e00529]
link actor293749050 to UC1698322791--><path d="M73.3286,281.139 C87.6865,273.448 105.828,262.272 123,254 C151.354,240.342 186.69,229.239 205.591,218.027 " fill="none" id="actor293749050-UC1698322791" style="stroke: #A80036; stroke-width: 1.0;"/><!--MD5=[24aa517c975b4efae0f7f26d05e00529]
link actor293749050 to UC1698322791--><path d="M73.3286,249.835 C87.6865,238.448 105.828,227.272 123,219 C142.593,209.562 165.52,201.344 184.054,197.35 " fill="none" id="actor293749050-UC1698322791-1" style="stroke: #A80036; stroke-width: 1.0;"/><!--MD5=[b70d168c971061c198567fafd2f6b89d]
link actor293749050 to UC1142350221--><path d="M73.2196,323.367 C86.6117,339.933 103.9632,358.369 123,371 C143.266,384.447 169.579,392.986 189.531,398 " fill="none" id="actor293749050-UC1142350221" style="stroke: #A80036; stroke-width: 1.0;"/><!--MD5=[4c408bcc790a7cd6245bc23cba5dd9f5]
link actor293749050 to UC98550436--><path d="M73.0313,293.125 C100.5905,301.409 143.759,314.384 176.014,324.079 " fill="none" id="actor293749050-UC98550436" style="stroke: #A80036; stroke-width: 1.0;"/><!--MD5=[18dd87e2224bd91c9c126532cb1dca5f]
link actor293749050 to UC741225568--><path d="M73.0313,282.656 C99.165,280.39 139.335,276.907 170.925,274.168 " fill="none" id="actor293749050-UC741225568" style="stroke: #A80036; stroke-width: 1.0;"/><!--MD5=[0b114be65e99b9495bd8f0b8c457a79c]
link actor1785570426 to UC741225568--><path d="M80.6841,203.685 C93.1302,215.58 107.853,227.962 123,237 C140.253,247.295 161.177,254.965 179.082,260.306 " fill="none" id="actor1785570426-UC741225568" style="stroke: #A80036; stroke-width: 1.0;"/><!--MD5=[5b7e763918f05c498a4f4b772b997d84]
link actor1528099970 to UC98550436--><path d="M72.1983,392.275 C87.0124,385.77 105.932,377.672 123,371 C141.279,363.855 161.755,356.514 179.086,350.49 " fill="none" id="actor1528099970-UC98550436" style="stroke: #A80036; stroke-width: 1.0;"/><!--MD5=[f7854a77af224ea617da296805c4954a]
link actor426792528 to UC1142350221--><path d="M73.7954,503.881 C109.136,479.571 169.229,438.236 199.843,417.177 " fill="none" id="actor426792528-UC1142350221" style="stroke: #A80036; stroke-width: 1.0;"/><!--MD5=[c8465fc9a2d2c8d348a544e77e1e1188]
link actor1795804759 to UC1698322791--><path d="M81.0091,89.05 C114.973,123.102 165.589,168.291 195.149,190.615 " fill="none" id="actor1795804759-UC1698322791" style="stroke: #A80036; stroke-width: 1.0;"/><!--MD5=[c8465fc9a2d2c8d348a544e77e1e1188]
link actor1795804759 to UC1698322791--><path d="M86.5608,71.934 C126.908,104.704 186.042,159.68 209.193,187.477 " fill="none" id="actor1795804759-UC1698322791-1" style="stroke: #A80036; stroke-width: 1.0;"/><!--MD5=[ca3c4b1883adf576dc763bf079233329]
link actor293749050 to UC1108374296--><path d="M73.1354,321.965 C78.0576,329.408 82.9178,337.311 87,345 C107.396,383.416 103.1853,397.281 123,436 C149.199,487.194 188.005,543.181 207.269,569.971 " fill="none" id="actor293749050-UC1108374296" style="stroke: #A80036; stroke-width: 1.0;"/><!--MD5=[e2481190c12e286991cfcfdb26d31b4c]
link actor444096469 to UC1108374296--><path d="M71.5267,633.737 C100.0057,624.518 146.426,609.492 179.578,598.761 " fill="none" id="actor444096469-UC1108374296" style="stroke: #A80036; stroke-width: 1.0;"/><!--MD5=[1575d1e2b45e2e738bc43c4e55dd77e4]
link actor293749050 to UC863313225--><path d="M73.0138,318.672 C78.4379,326.883 83.5298,335.926 87,345 C130.717,459.309 72.8637,506.357 123,618 C141.161,658.441 178.984,695.187 201.351,714.5779 " fill="none" id="actor293749050-UC863313225" style="stroke: #A80036; stroke-width: 1.0;"/><!--MD5=[9f468e39c918431f7ecc721ff2ee0125]
link actor1365349839 to UC863313225--><path d="M72.6521,756.0701 C102.4134,750.5652 150.714,741.6309 183.621,735.5441 " fill="none" id="actor1365349839-UC863313225" style="stroke: #A80036; stroke-width: 1.0;"/><!--MD5=[835c9fcb405a3d57b90cc2e47e0c18bd]
@startuml
 left to right direction

actor Complex as actor293749050

	rectangle getUndefSize{
	 usecase toString as UC1986751746
	actor293749050- -UC1986751746
	}
	actor StringBuilder as actor1795804759
	actor1795804759 - - UC1986751746
	rectangle addFunctionScore{
	 usecase append as UC1698322791
	actor293749050- -UC1698322791
	 usecase getSig as UC1142350221
	actor293749050- -UC1142350221
	 usecase getFunctionList as UC98550436
	actor293749050- -UC98550436
	 usecase getHasList as UC741225568
	actor293749050- -UC741225568
	}
	actor Data_base as actor1785570426
	actor1785570426 - - UC741225568
	actor DataList as actor1528099970
	actor1528099970 - - UC98550436
	actor Function as actor426792528
	actor426792528 - - UC1142350221
	actor StringBuilder as actor1795804759
	actor1795804759 - - UC1698322791
	rectangle getMemberScore{
	 usecase getTypeName as UC1108374296
	actor293749050- -UC1108374296
	 usecase append as UC1698322791
	actor293749050- -UC1698322791
	}
	actor StringBuilder as actor1795804759
	actor1795804759 - - UC1698322791
	actor Member as actor444096469
	actor444096469 - - UC1108374296
	rectangle getLineNum{
	 usecase hasNext as UC863313225
	actor293749050- -UC863313225
	}
	actor Scanner as actor1365349839
	actor1365349839 - - UC863313225

@enduml

PlantUML version 1.2020.19(Tue Oct 13 00:10:01 KST 2020)
(APACHE source distribution)
Java Runtime: Java(TM) SE Runtime Environment
JVM: Java HotSpot(TM) 64-Bit Server VM
Default Encoding: MS949
Language: ko
Country: KR
--></g></svg>