<?xml version="1.0" encoding="UTF-8" standalone="no"?><svg xmlns="http://www.w3.org/2000/svg" xmlns:xlink="http://www.w3.org/1999/xlink" contentScriptType="application/ecmascript" contentStyleType="text/css" height="666px" preserveAspectRatio="none" style="width:317px;height:666px;" version="1.1" viewBox="0 0 317 666" width="317px" zoomAndPan="magnify"><defs><filter height="300%" id="fb4f2dmmcs1te" width="300%" x="-1" y="-1"><feGaussianBlur result="blurOut" stdDeviation="2.0"/><feColorMatrix in="blurOut" result="blurOut2" type="matrix" values="0 0 0 0 0 0 0 0 0 0 0 0 0 0 0 0 0 0 .4 0"/><feOffset dx="4.0" dy="4.0" in="blurOut2" result="blurOut3"/><feBlend in="SourceGraphic" in2="blurOut3" mode="normal"/></filter></defs><g><!--MD5=[3df72e327fda6a9c75e1d3c13478bbff]
cluster addHas--><rect fill="#FFFFFF" filter="url(#fb4f2dmmcs1te)" height="87" style="stroke: #000000; stroke-width: 1.5;" width="114" x="155" y="7"/><text fill="#000000" font-family="sans-serif" font-size="14" font-weight="bold" lengthAdjust="spacingAndGlyphs" textLength="52" x="186" y="25.1533">addHas</text><!--MD5=[89e6df34a40fd0f881e4a85c208f9fb2]
cluster addCallBy--><rect fill="#FFFFFF" filter="url(#fb4f2dmmcs1te)" height="87" style="stroke: #000000; stroke-width: 1.5;" width="130" x="147" y="118"/><text fill="#000000" font-family="sans-serif" font-size="14" font-weight="bold" lengthAdjust="spacingAndGlyphs" textLength="69" x="177.5" y="136.1533">addCallBy</text><!--MD5=[e72b28ea75be9a6e9901756f23061282]
cluster addCall--><rect fill="#FFFFFF" filter="url(#fb4f2dmmcs1te)" height="87" style="stroke: #000000; stroke-width: 1.5;" width="106" x="159" y="229"/><text fill="#000000" font-family="sans-serif" font-size="14" font-weight="bold" lengthAdjust="spacingAndGlyphs" textLength="52" x="186" y="247.1533">addCall</text><!--MD5=[2ed68a8df47df60ed763f499b5bc43b2]
cluster addImage--><rect fill="#FFFFFF" filter="url(#fb4f2dmmcs1te)" height="87" style="stroke: #000000; stroke-width: 1.5;" width="85" x="170" y="564"/><text fill="#000000" font-family="sans-serif" font-size="14" font-weight="bold" lengthAdjust="spacingAndGlyphs" textLength="68" x="178.5" y="582.1533">addImage</text><!--MD5=[a1eef7bbc55d6e115a3736b1cb383f24]
cluster getSrcName--><rect fill="#FFFFFF" filter="url(#fb4f2dmmcs1te)" height="87" style="stroke: #000000; stroke-width: 1.5;" width="148" x="138" y="340"/><text fill="#000000" font-family="sans-serif" font-size="14" font-weight="bold" lengthAdjust="spacingAndGlyphs" textLength="85" x="169.5" y="358.1533">getSrcName</text><!--MD5=[c34a5b0034f574704b03ebcea5fc6794]
cluster getPackageName--><rect fill="#FFFFFF" filter="url(#fb4f2dmmcs1te)" height="89" style="stroke: #000000; stroke-width: 1.5;" width="186" x="119" y="451"/><text fill="#000000" font-family="sans-serif" font-size="14" font-weight="bold" lengthAdjust="spacingAndGlyphs" textLength="121" x="151.5" y="469.1533">getPackageName</text><ellipse cx="212.1838" cy="62.0973" fill="#FEFECE" filter="url(#fb4f2dmmcs1te)" rx="41.1838" ry="16.5973" style="stroke: #A80036; stroke-width: 1.5;"/><text fill="#000000" font-family="sans-serif" font-size="14" lengthAdjust="spacingAndGlyphs" textLength="54" x="185.1838" y="68.2121">addData</text><ellipse cx="212.2548" cy="173.0973" fill="#FEFECE" filter="url(#fb4f2dmmcs1te)" rx="48.2548" ry="16.5973" style="stroke: #A80036; stroke-width: 1.5;"/><text fill="#000000" font-family="sans-serif" font-size="14" lengthAdjust="spacingAndGlyphs" textLength="64" x="180.2548" y="179.2121">addCallBy</text><ellipse cx="211.9411" cy="284.0973" fill="#FEFECE" filter="url(#fb4f2dmmcs1te)" rx="36.9411" ry="16.5973" style="stroke: #A80036; stroke-width: 1.5;"/><text fill="#000000" font-family="sans-serif" font-size="14" lengthAdjust="spacingAndGlyphs" textLength="48" x="187.9411" y="290.2121">addCall</text><ellipse cx="211.9836" cy="619.0869" fill="#FEFECE" filter="url(#fb4f2dmmcs1te)" rx="19.9836" ry="16.5869" style="stroke: #A80036; stroke-width: 1.5;"/><text fill="#000000" font-family="sans-serif" font-size="14" lengthAdjust="spacingAndGlyphs" textLength="24" x="199.9836" y="625.2016">add</text><ellipse cx="212.4472" cy="395.0973" fill="#FEFECE" filter="url(#fb4f2dmmcs1te)" rx="57.4472" ry="16.5973" style="stroke: #A80036; stroke-width: 1.5;"/><text fill="#000000" font-family="sans-serif" font-size="14" lengthAdjust="spacingAndGlyphs" textLength="77" x="173.9472" y="401.2121">getSrcName</text><ellipse cx="212.4257" cy="507.1851" fill="#FEFECE" filter="url(#fb4f2dmmcs1te)" rx="76.4257" ry="17.6851" style="stroke: #A80036; stroke-width: 1.5;"/><text fill="#000000" font-family="sans-serif" font-size="14" lengthAdjust="spacingAndGlyphs" textLength="111" x="156.9257" y="513.2999">getPackageName</text><!--MD5=[7e98fb6c63a3f8812a1e24aa3667afb9]
entity actor444096469--><ellipse cx="40.5" cy="148.5" fill="#FEFECE" filter="url(#fb4f2dmmcs1te)" rx="8" ry="8" style="stroke: #A80036; stroke-width: 1.5;"/><path d="M40.5,156.5 L40.5,183.5 M27.5,164.5 L53.5,164.5 M40.5,183.5 L27.5,198.5 M40.5,183.5 L53.5,198.5 " fill="none" filter="url(#fb4f2dmmcs1te)" style="stroke: #A80036; stroke-width: 1.5;"/><text fill="#000000" font-family="sans-serif" font-size="14" lengthAdjust="spacingAndGlyphs" textLength="51" x="15" y="220.1533">Member</text><!--MD5=[2b800408cb2cdbeba4cee5b54d06b786]
entity actor1528099970--><ellipse cx="40" cy="29.5" fill="#FEFECE" filter="url(#fb4f2dmmcs1te)" rx="8" ry="8" style="stroke: #A80036; stroke-width: 1.5;"/><path d="M40,37.5 L40,64.5 M27,45.5 L53,45.5 M40,64.5 L27,79.5 M40,64.5 L53,79.5 " fill="none" filter="url(#fb4f2dmmcs1te)" style="stroke: #A80036; stroke-width: 1.5;"/><text fill="#000000" font-family="sans-serif" font-size="14" lengthAdjust="spacingAndGlyphs" textLength="52" x="14" y="101.1533">DataList</text><!--MD5=[662fbe8328652735fce5328a5367bfc1]
entity actor1785570426--><ellipse cx="40.5" cy="267.5" fill="#FEFECE" filter="url(#fb4f2dmmcs1te)" rx="8" ry="8" style="stroke: #A80036; stroke-width: 1.5;"/><path d="M40.5,275.5 L40.5,302.5 M27.5,283.5 L53.5,283.5 M40.5,302.5 L27.5,317.5 M40.5,302.5 L53.5,317.5 " fill="none" filter="url(#fb4f2dmmcs1te)" style="stroke: #A80036; stroke-width: 1.5;"/><text fill="#000000" font-family="sans-serif" font-size="14" lengthAdjust="spacingAndGlyphs" textLength="69" x="6" y="339.1533">Data_base</text><!--MD5=[b8cdde3df73f4298fd171ae207d79fef]
entity actor1538456363--><ellipse cx="40" cy="586.5" fill="#FEFECE" filter="url(#fb4f2dmmcs1te)" rx="8" ry="8" style="stroke: #A80036; stroke-width: 1.5;"/><path d="M40,594.5 L40,621.5 M27,602.5 L53,602.5 M40,621.5 L27,636.5 M40,621.5 L53,636.5 " fill="none" filter="url(#fb4f2dmmcs1te)" style="stroke: #A80036; stroke-width: 1.5;"/><text fill="#000000" font-family="sans-serif" font-size="14" lengthAdjust="spacingAndGlyphs" textLength="56" x="12" y="658.1533">ArrayList</text><!--MD5=[ba376aef408b821efef03811da7520e4]
link actor444096469 to UC1138992016--><path d="M65.7501,182.561 C106.048,166.05 181.813,110.896 205.049,77.982 " fill="none" id="actor444096469-UC1138992016" style="stroke: #A80036; stroke-width: 1.0;"/><!--MD5=[ba376aef408b821efef03811da7520e4]
link actor444096469 to UC1138992016--><path d="M65.7501,163.184 C100.1437,139.389 160.374,97.718 191.73,76.024 " fill="none" id="actor444096469-UC1138992016-1" style="stroke: #A80036; stroke-width: 1.0;"/><!--MD5=[ba376aef408b821efef03811da7520e4]
link actor444096469 to UC1138992016--><path d="M65.7501,143.808 C94.0522,116.242 139.849,83.529 172.656,66.76 " fill="none" id="actor444096469-UC1138992016-2" style="stroke: #A80036; stroke-width: 1.0;"/><!--MD5=[8a44fc2ef183dd9ec2fccece5881f44e]
link actor1528099970 to UC1138992016--><path d="M66.1231,81.481 C103.1502,91.792 169.575,90.323 198.227,77.074 " fill="none" id="actor1528099970-UC1138992016" style="stroke: #A80036; stroke-width: 1.0;"/><!--MD5=[8a44fc2ef183dd9ec2fccece5881f44e]
link actor1528099970 to UC1138992016--><path d="M66.1231,62 C93.9404,62 138.35,62 170.87,62 " fill="none" id="actor1528099970-UC1138992016-1" style="stroke: #A80036; stroke-width: 1.0;"/><!--MD5=[8a44fc2ef183dd9ec2fccece5881f44e]
link actor1528099970 to UC1138992016--><path d="M66.1231,42.519 C103.1502,32.208 169.575,33.677 198.227,46.926 " fill="none" id="actor1528099970-UC1138992016-2" style="stroke: #A80036; stroke-width: 1.0;"/><!--MD5=[1aa4e13ed1285667aec27ac78c5ec503]
link actor444096469 to UC1152029154--><path d="M65.7501,189.214 C95.9265,191.945 145.992,189.911 178.994,184.828 " fill="none" id="actor444096469-UC1152029154" style="stroke: #A80036; stroke-width: 1.0;"/><!--MD5=[1aa4e13ed1285667aec27ac78c5ec503]
link actor444096469 to UC1152029154--><path d="M65.7501,169.837 C94.2396,164.378 140.457,161.721 173.306,163.31 " fill="none" id="actor444096469-UC1152029154-1" style="stroke: #A80036; stroke-width: 1.0;"/><!--MD5=[53295e92e9bbb9aeeeed12439cc66f99]
link actor1785570426 to UC1152029154--><path d="M74.8068,284.78 C113.679,260.022 174.49,213.924 200.05,188.715 " fill="none" id="actor1785570426-UC1152029154" style="stroke: #A80036; stroke-width: 1.0;"/><!--MD5=[53295e92e9bbb9aeeeed12439cc66f99]
link actor1785570426 to UC1152029154--><path d="M74.8068,263.202 C105.826,236.967 150.816,203.881 180.715,185.403 " fill="none" id="actor1785570426-UC1152029154-1" style="stroke: #A80036; stroke-width: 1.0;"/><!--MD5=[bd3e5ea3e5647498b6fd76da74bc8e07]
link actor444096469 to UC1356614113--><path d="M65.7501,196.42 C99.5814,216.68 158.411,251.909 190.169,270.927 " fill="none" id="actor444096469-UC1356614113" style="stroke: #A80036; stroke-width: 1.0;"/><!--MD5=[695a3f9a92bb662651c7b5fa3ef971f8]
link actor1785570426 to UC1356614113--><path d="M74.8068,296.762 C104.1572,294.032 146.015,290.138 175.763,287.371 " fill="none" id="actor1785570426-UC1356614113" style="stroke: #A80036; stroke-width: 1.0;"/><!--MD5=[9c619d575ea6726afa09ea1eb6304dc9]
link actor444096469 to UC2030748640--><path d="M65.5697,218.925 C69.2419,225.715 72.5869,232.895 75,240 C118.188,367.156 45.0653,423.011 111,540 C130.346,574.3265 171.223,598.9512 194.609,610.8804 " fill="none" id="actor444096469-UC2030748640" style="stroke: #A80036; stroke-width: 1.0;"/><!--MD5=[30fcb46356906efe6d1db675dc656944]
link actor1538456363 to UC2030748640--><path d="M68.0176,619 C102.7626,619 161.143,619 191.801,619 " fill="none" id="actor1538456363-UC2030748640" style="stroke: #A80036; stroke-width: 1.0;"/><!--MD5=[a9bc7523053bf8a8af04d26ae3b61566]
link actor444096469 to UC150180388--><path d="M65.5284,222.948 C68.7983,228.633 72.0355,234.427 75,240 C92.5536,272.997 87.6529,286.813 111,316 C132.554,342.945 165.033,366.222 187.307,380.395 " fill="none" id="actor444096469-UC150180388" style="stroke: #A80036; stroke-width: 1.0;"/><!--MD5=[70100680c7c8b8084c1a9a8ff9571d6f]
link actor1785570426 to UC150180388--><path d="M74.8068,319.225 C107.691,337.387 156.276,364.222 185.938,380.605 " fill="none" id="actor1785570426-UC150180388" style="stroke: #A80036; stroke-width: 1.0;"/><!--MD5=[ce10c4153258f59f332bb91e942ee712]
link actor444096469 to UC133579455--><path d="M65.6737,220.048 C69.1941,226.529 72.464,233.319 75,240 C105.037,319.128 67.0831,354.648 111,427 C128.062,455.109 158.832,477.315 181.941,491.129 " fill="none" id="actor444096469-UC133579455" style="stroke: #A80036; stroke-width: 1.0;"/><!--MD5=[89a7c199bc0601b4934786c3ca356d4e]
link actor1785570426 to UC133579455--><path d="M58.3372,342.066 C70.9069,368.14 89.22,401.42 111,427 C133.042,452.888 164.516,476.237 186.45,490.936 " fill="none" id="actor1785570426-UC133579455" style="stroke: #A80036; stroke-width: 1.0;"/><!--MD5=[458b808158ea310c8f892d21db092228]
@startuml
 left to right direction

actor Member as actor444096469

	rectangle addHas{
	 usecase addData as UC1138992016
	actor444096469- -UC1138992016
	}
	actor DataList as actor1528099970
	actor1528099970 - - UC1138992016
	rectangle addCallBy{
	 usecase addData as UC1138992016
	actor444096469- -UC1138992016
	 usecase addCallBy as UC1152029154
	actor444096469- -UC1152029154
	}
	actor Data_base as actor1785570426
	actor1785570426 - - UC1152029154
	actor DataList as actor1528099970
	actor1528099970 - - UC1138992016
	rectangle addCall{
	 usecase addData as UC1138992016
	actor444096469- -UC1138992016
	 usecase addCall as UC1356614113
	actor444096469- -UC1356614113
	 usecase addCallBy as UC1152029154
	actor444096469- -UC1152029154
	}
	actor Data_base as actor1785570426
	actor1785570426 - - UC1152029154
	actor Data_base as actor1785570426
	actor1785570426 - - UC1356614113
	actor DataList as actor1528099970
	actor1528099970 - - UC1138992016
	rectangle addImage{
	 usecase add as UC2030748640
	actor444096469- -UC2030748640
	}
	actor ArrayList as actor1538456363
	actor1538456363 - - UC2030748640
	rectangle getSrcName{
	 usecase getSrcName as UC150180388
	actor444096469- -UC150180388
	}
	actor Data_base as actor1785570426
	actor1785570426 - - UC150180388
	rectangle getPackageName{
	 usecase getPackageName as UC133579455
	actor444096469- -UC133579455
	}
	actor Data_base as actor1785570426
	actor1785570426 - - UC133579455

@enduml

PlantUML version 1.2020.19(Tue Oct 13 00:10:01 KST 2020)
(APACHE source distribution)
Java Runtime: Java(TM) SE Runtime Environment
JVM: Java HotSpot(TM) 64-Bit Server VM
Default Encoding: MS949
Language: ko
Country: KR
--></g></svg>