<?xml version="1.0" encoding="UTF-8" standalone="no"?><svg xmlns="http://www.w3.org/2000/svg" xmlns:xlink="http://www.w3.org/1999/xlink" contentScriptType="application/ecmascript" contentStyleType="text/css" height="1072px" preserveAspectRatio="none" style="width:314px;height:1072px;" version="1.1" viewBox="0 0 314 1072" width="314px" zoomAndPan="magnify"><defs><filter height="300%" id="fnfed8u15ta7r" width="300%" x="-1" y="-1"><feGaussianBlur result="blurOut" stdDeviation="2.0"/><feColorMatrix in="blurOut" result="blurOut2" type="matrix" values="0 0 0 0 0 0 0 0 0 0 0 0 0 0 0 0 0 0 .4 0"/><feOffset dx="4.0" dy="4.0" in="blurOut2" result="blurOut3"/><feBlend in="SourceGraphic" in2="blurOut3" mode="normal"/></filter></defs><g><!--MD5=[a613d28d66ac88caaf3df7792fc429ff]
cluster ForStateNode--><rect fill="#FFFFFF" filter="url(#fnfed8u15ta7r)" height="355" style="stroke: #000000; stroke-width: 1.5;" width="164" x="138" y="7"/><text fill="#000000" font-family="sans-serif" font-size="14" font-weight="bold" lengthAdjust="spacingAndGlyphs" textLength="97" x="171.5" y="25.1533">ForStateNode</text><!--MD5=[ff834bb304bccc409df8506290c459be]
cluster getForLine--><rect fill="#FFFFFF" filter="url(#fnfed8u15ta7r)" height="355" style="stroke: #000000; stroke-width: 1.5;" width="152" x="144" y="386"/><text fill="#000000" font-family="sans-serif" font-size="14" font-weight="bold" lengthAdjust="spacingAndGlyphs" textLength="77" x="181.5" y="404.1533">getForLine</text><!--MD5=[80db4ded4fe429148ada482795995850]
cluster getLastFin--><rect fill="#FFFFFF" filter="url(#fnfed8u15ta7r)" height="219" style="stroke: #000000; stroke-width: 1.5;" width="114" x="163" y="765"/><text fill="#000000" font-family="sans-serif" font-size="14" font-weight="bold" lengthAdjust="spacingAndGlyphs" textLength="74" x="183" y="783.1533">getLastFin</text><ellipse cx="220.1335" cy="196.0973" fill="#FEFECE" filter="url(#fnfed8u15ta7r)" rx="46.1335" ry="16.5973" style="stroke: #A80036; stroke-width: 1.5;"/><text fill="#000000" font-family="sans-serif" font-size="14" lengthAdjust="spacingAndGlyphs" textLength="61" x="189.6335" y="202.2121">initializers</text><ellipse cx="220.6482" cy="330.0973" fill="#FEFECE" filter="url(#fnfed8u15ta7r)" rx="37.6482" ry="16.5973" style="stroke: #A80036; stroke-width: 1.5;"/><text fill="#000000" font-family="sans-serif" font-size="14" lengthAdjust="spacingAndGlyphs" textLength="49" x="196.1482" y="336.2121">toString</text><ellipse cx="219.9325" cy="62.0973" fill="#FEFECE" filter="url(#fnfed8u15ta7r)" rx="65.9325" ry="16.5973" style="stroke: #A80036; stroke-width: 1.5;"/><text fill="#000000" font-family="sans-serif" font-size="14" lengthAdjust="spacingAndGlyphs" textLength="89" x="175.4325" y="68.2121">getExpression</text><ellipse cx="220.4975" cy="263.0973" fill="#FEFECE" filter="url(#fnfed8u15ta7r)" rx="52.4975" ry="16.5973" style="stroke: #A80036; stroke-width: 1.5;"/><text fill="#000000" font-family="sans-serif" font-size="14" lengthAdjust="spacingAndGlyphs" textLength="70" x="185.4975" y="269.2121">getStmtList</text><ellipse cx="219.7696" cy="129.0973" fill="#FEFECE" filter="url(#fnfed8u15ta7r)" rx="39.7696" ry="16.5973" style="stroke: #A80036; stroke-width: 1.5;"/><text fill="#000000" font-family="sans-serif" font-size="14" lengthAdjust="spacingAndGlyphs" textLength="52" x="193.7696" y="135.2121">getBody</text><ellipse cx="219.9411" cy="441.0973" fill="#FEFECE" filter="url(#fnfed8u15ta7r)" rx="36.9411" ry="16.5973" style="stroke: #A80036; stroke-width: 1.5;"/><text fill="#000000" font-family="sans-serif" font-size="14" lengthAdjust="spacingAndGlyphs" textLength="48" x="195.9411" y="447.2121">append</text><ellipse cx="220.6482" cy="575.0973" fill="#FEFECE" filter="url(#fnfed8u15ta7r)" rx="37.6482" ry="16.5973" style="stroke: #A80036; stroke-width: 1.5;"/><text fill="#000000" font-family="sans-serif" font-size="14" lengthAdjust="spacingAndGlyphs" textLength="49" x="196.1482" y="581.2121">toString</text><ellipse cx="220.5685" cy="709.0973" fill="#FEFECE" filter="url(#fnfed8u15ta7r)" rx="59.5685" ry="16.5973" style="stroke: #A80036; stroke-width: 1.5;"/><text fill="#000000" font-family="sans-serif" font-size="14" lengthAdjust="spacingAndGlyphs" textLength="80" x="180.5685" y="715.2121">getCondition</text><ellipse cx="220.1838" cy="642.0973" fill="#FEFECE" filter="url(#fnfed8u15ta7r)" rx="41.1838" ry="16.5973" style="stroke: #A80036; stroke-width: 1.5;"/><text fill="#000000" font-family="sans-serif" font-size="14" lengthAdjust="spacingAndGlyphs" textLength="54" x="193.1838" y="648.2121">getCode</text><ellipse cx="220.6482" cy="508.0973" fill="#FEFECE" filter="url(#fnfed8u15ta7r)" rx="37.6482" ry="16.5973" style="stroke: #A80036; stroke-width: 1.5;"/><text fill="#000000" font-family="sans-serif" font-size="14" lengthAdjust="spacingAndGlyphs" textLength="49" x="196.1482" y="514.2121">toString</text><ellipse cx="220.6347" cy="886.0077" fill="#FEFECE" filter="url(#fnfed8u15ta7r)" rx="18.6347" ry="15.5077" style="stroke: #A80036; stroke-width: 1.5;"/><text fill="#000000" font-family="sans-serif" font-size="14" lengthAdjust="spacingAndGlyphs" textLength="20" x="210.6347" y="892.1225">get</text><ellipse cx="220.5772" cy="952.0973" fill="#FEFECE" filter="url(#fnfed8u15ta7r)" rx="30.5772" ry="16.5973" style="stroke: #A80036; stroke-width: 1.5;"/><text fill="#000000" font-family="sans-serif" font-size="14" lengthAdjust="spacingAndGlyphs" textLength="39" x="201.0772" y="958.2121">println</text><ellipse cx="220.4767" cy="820.0973" fill="#FEFECE" filter="url(#fnfed8u15ta7r)" rx="40.4767" ry="16.5973" style="stroke: #A80036; stroke-width: 1.5;"/><text fill="#000000" font-family="sans-serif" font-size="14" lengthAdjust="spacingAndGlyphs" textLength="53" x="193.9767" y="826.2121">getThen</text><!--MD5=[73fdd653ebe9723ebe68ee5647cdf910]
entity actor1248201524--><ellipse cx="50" cy="516.5" fill="#FEFECE" filter="url(#fnfed8u15ta7r)" rx="8" ry="8" style="stroke: #A80036; stroke-width: 1.5;"/><path d="M50,524.5 L50,551.5 M37,532.5 L63,532.5 M50,551.5 L37,566.5 M50,551.5 L63,566.5 " fill="none" filter="url(#fnfed8u15ta7r)" style="stroke: #A80036; stroke-width: 1.5;"/><text fill="#000000" font-family="sans-serif" font-size="14" lengthAdjust="spacingAndGlyphs" textLength="88" x="6" y="588.1533">ForStateNode</text><!--MD5=[00913d8fe6880253b410d5d9bed75261]
entity actor1340666542--><ellipse cx="50" cy="40.5" fill="#FEFECE" filter="url(#fnfed8u15ta7r)" rx="8" ry="8" style="stroke: #A80036; stroke-width: 1.5;"/><path d="M50,48.5 L50,75.5 M37,56.5 L63,56.5 M50,75.5 L37,90.5 M50,75.5 L63,90.5 " fill="none" filter="url(#fnfed8u15ta7r)" style="stroke: #A80036; stroke-width: 1.5;"/><text fill="#000000" font-family="sans-serif" font-size="14" lengthAdjust="spacingAndGlyphs" textLength="86" x="7" y="112.1533">ForStatement</text><!--MD5=[9e6ffdab585f7a40d2984860a76eec0e]
entity actor181451598--><ellipse cx="50.5" cy="159.5" fill="#FEFECE" filter="url(#fnfed8u15ta7r)" rx="8" ry="8" style="stroke: #A80036; stroke-width: 1.5;"/><path d="M50.5,167.5 L50.5,194.5 M37.5,175.5 L63.5,175.5 M50.5,194.5 L37.5,209.5 M50.5,194.5 L63.5,209.5 " fill="none" filter="url(#fnfed8u15ta7r)" style="stroke: #A80036; stroke-width: 1.5;"/><text fill="#000000" font-family="sans-serif" font-size="14" lengthAdjust="spacingAndGlyphs" textLength="75" x="13" y="231.1533">Test_Visitor</text><!--MD5=[4f7de1fe7bd115482050f2b64cadc785]
entity actor293285062--><ellipse cx="50" cy="278.5" fill="#FEFECE" filter="url(#fnfed8u15ta7r)" rx="8" ry="8" style="stroke: #A80036; stroke-width: 1.5;"/><path d="M50,286.5 L50,313.5 M37,294.5 L63,294.5 M50,313.5 L37,328.5 M50,313.5 L63,328.5 " fill="none" filter="url(#fnfed8u15ta7r)" style="stroke: #A80036; stroke-width: 1.5;"/><text fill="#000000" font-family="sans-serif" font-size="14" lengthAdjust="spacingAndGlyphs" textLength="60" x="20" y="350.1533">ASTNode</text><!--MD5=[b2b17946780437d3e03a3618b26c4aa9]
entity actor1795804759--><ellipse cx="50.5" cy="397.5" fill="#FEFECE" filter="url(#fnfed8u15ta7r)" rx="8" ry="8" style="stroke: #A80036; stroke-width: 1.5;"/><path d="M50.5,405.5 L50.5,432.5 M37.5,413.5 L63.5,413.5 M50.5,432.5 L37.5,447.5 M50.5,432.5 L63.5,447.5 " fill="none" filter="url(#fnfed8u15ta7r)" style="stroke: #A80036; stroke-width: 1.5;"/><text fill="#000000" font-family="sans-serif" font-size="14" lengthAdjust="spacingAndGlyphs" textLength="81" x="10" y="469.1533">StringBuilder</text><!--MD5=[100d7707da49a145ccc5de2dd9cc0e59]
entity actor2083220171--><ellipse cx="50" cy="754.5" fill="#FEFECE" filter="url(#fnfed8u15ta7r)" rx="8" ry="8" style="stroke: #A80036; stroke-width: 1.5;"/><path d="M50,762.5 L50,789.5 M37,770.5 L63,770.5 M50,789.5 L37,804.5 M50,789.5 L63,804.5 " fill="none" filter="url(#fnfed8u15ta7r)" style="stroke: #A80036; stroke-width: 1.5;"/><text fill="#000000" font-family="sans-serif" font-size="14" lengthAdjust="spacingAndGlyphs" textLength="66" x="17" y="826.1533">StateNode</text><!--MD5=[e4e1039503309ab0d43884529c74cd45]
entity actor1548698416--><ellipse cx="50.5" cy="635.5" fill="#FEFECE" filter="url(#fnfed8u15ta7r)" rx="8" ry="8" style="stroke: #A80036; stroke-width: 1.5;"/><path d="M50.5,643.5 L50.5,670.5 M37.5,651.5 L63.5,651.5 M50.5,670.5 L37.5,685.5 M50.5,670.5 L63.5,685.5 " fill="none" filter="url(#fnfed8u15ta7r)" style="stroke: #A80036; stroke-width: 1.5;"/><text fill="#000000" font-family="sans-serif" font-size="14" lengthAdjust="spacingAndGlyphs" textLength="41" x="30" y="707.1533">Object</text><!--MD5=[c6373e6f06c0704c33390c3718060f35]
entity actor731802107--><ellipse cx="50" cy="992.5" fill="#FEFECE" filter="url(#fnfed8u15ta7r)" rx="8" ry="8" style="stroke: #A80036; stroke-width: 1.5;"/><path d="M50,1000.5 L50,1027.5 M37,1008.5 L63,1008.5 M50,1027.5 L37,1042.5 M50,1027.5 L63,1042.5 " fill="none" filter="url(#fnfed8u15ta7r)" style="stroke: #A80036; stroke-width: 1.5;"/><text fill="#000000" font-family="sans-serif" font-size="14" lengthAdjust="spacingAndGlyphs" textLength="74" x="13" y="1064.1533">PrintStream</text><!--MD5=[b8cdde3df73f4298fd171ae207d79fef]
entity actor1538456363--><ellipse cx="50" cy="873.5" fill="#FEFECE" filter="url(#fnfed8u15ta7r)" rx="8" ry="8" style="stroke: #A80036; stroke-width: 1.5;"/><path d="M50,881.5 L50,908.5 M37,889.5 L63,889.5 M50,908.5 L37,923.5 M50,908.5 L63,923.5 " fill="none" filter="url(#fnfed8u15ta7r)" style="stroke: #A80036; stroke-width: 1.5;"/><text fill="#000000" font-family="sans-serif" font-size="14" lengthAdjust="spacingAndGlyphs" textLength="56" x="22" y="945.1533">ArrayList</text><!--MD5=[a986ddbbfa9162206501c99b394fd012]
link actor1248201524 to UC1799310296--><path d="M85.3305,506.683 C88.6714,501.296 91.6728,495.675 94,490 C138.264,382.066 57.2293,321.178 130,230 C141.669,215.379 160.355,207.043 177.683,202.292 " fill="none" id="actor1248201524-UC1799310296" style="stroke: #A80036; stroke-width: 1.0;"/><!--MD5=[d4273b7f98833dcf1dbbb8e13e414a8e]
link actor1248201524 to UC597399755--><path d="M83.1247,506.912 C86.982,501.349 90.7084,495.624 94,490 C113.899,455.999 106.653,440.732 130,409 C149.714,382.206 179.941,358.045 199.84,343.692 " fill="none" id="actor1248201524-UC597399755" style="stroke: #A80036; stroke-width: 1.0;"/><!--MD5=[2095166bc8e6d0dc24c2f91d397251d8]
link actor1248201524 to UC1041571359--><path d="M85.5928,506.787 C88.8867,501.381 91.8053,495.727 94,490 C125.461,407.901 76.767,165.973 130,96 C139.001,84.169 152.621,76.455 166.561,71.425 " fill="none" id="actor1248201524-UC1041571359" style="stroke: #A80036; stroke-width: 1.0;"/><!--MD5=[73b7552586ffdc473bfca5416d76b620]
link actor1248201524 to UC14093978--><path d="M84.8565,506.908 C88.3278,501.437 91.4894,495.736 94,490 C128.989,410.065 73.9877,363.906 130,297 C141.044,283.809 157.77,275.728 173.818,270.781 " fill="none" id="actor1248201524-UC14093978" style="stroke: #A80036; stroke-width: 1.0;"/><!--MD5=[0ce4531e53eaab5d9cb8588027562604]
link actor1248201524 to UC1587020590--><path d="M85.4879,506.747 C88.8006,501.348 91.7523,495.707 94,490 C120.791,421.98 85.1995,220.77 130,163 C142.385,147.029 163.169,138.56 181.645,134.069 " fill="none" id="actor1248201524-UC1587020590" style="stroke: #A80036; stroke-width: 1.0;"/><!--MD5=[b3b81f63f954c1721e26361d810b223f]
link actor1340666542 to UC1587020590--><path d="M93.338,87.276 C123.243,97.127 162.289,109.989 189.079,118.814 " fill="none" id="actor1340666542-UC1587020590" style="stroke: #A80036; stroke-width: 1.0;"/><!--MD5=[c7b063a4d63d03ac92a9660959dae2b6]
link actor181451598 to UC14093978--><path d="M87.524,210.698 C100.8201,217.09 115.964,224.108 130,230 C147.954,237.537 168.296,245.077 185.093,251.044 " fill="none" id="actor181451598-UC14093978" style="stroke: #A80036; stroke-width: 1.0;"/><!--MD5=[fe5ef9074e20872a7aac7956179843ef]
link actor1340666542 to UC1041571359--><path d="M93.338,70.196 C112.422,68.961 135.229,67.485 156.198,66.13 " fill="none" id="actor1340666542-UC1041571359" style="stroke: #A80036; stroke-width: 1.0;"/><!--MD5=[0f7b4f1cad884dd8314444cb3abfb747]
link actor293285062 to UC597399755--><path d="M80.0013,314.353 C108.883,317.581 152.611,322.468 183.499,325.92 " fill="none" id="actor293285062-UC597399755" style="stroke: #A80036; stroke-width: 1.0;"/><!--MD5=[d3b32dbefacc47d500042b9554718dd7]
link actor1340666542 to UC1799310296--><path d="M80.2094,115.26 C93.8657,131.955 111.165,150.175 130,163 C145.682,173.678 165.244,181.39 182.122,186.66 " fill="none" id="actor1340666542-UC1799310296" style="stroke: #A80036; stroke-width: 1.0;"/><!--MD5=[a310f6b2789f5c20287ca9e44e6982b6]
link actor1248201524 to UC1698322791--><path d="M89.432,506.919 C101.6459,495.499 115.679,483.856 130,475 C148.184,463.755 170.684,455.255 188.638,449.567 " fill="none" id="actor1248201524-UC1698322791" style="stroke: #A80036; stroke-width: 1.0;"/><!--MD5=[7652c9e9b4a60b69c049b61f9cc6d253]
link actor1248201524 to UC1495001258--><path d="M94.2217,555.763 C122.358,560.067 158.307,565.565 184.561,569.58 " fill="none" id="actor1248201524-UC1495001258" style="stroke: #A80036; stroke-width: 1.0;"/><!--MD5=[1c0d497d41b911a5226e1ecb0307951c]
link actor1248201524 to UC1513945124--><path d="M81.9998,591.098 C86.1679,597.021 90.2776,603.101 94,609 C112.039,637.588 104.4658,653.848 130,676 C142.194,686.579 158.068,693.879 173.083,698.865 " fill="none" id="actor1248201524-UC1513945124" style="stroke: #A80036; stroke-width: 1.0;"/><!--MD5=[5280f902457303b322cfc18855588655]
link actor1248201524 to UC8000369--><path d="M94.1384,585.686 C105.405,594.027 117.795,602.372 130,609 C147.989,618.768 169.468,626.768 186.931,632.444 " fill="none" id="actor1248201524-UC8000369" style="stroke: #A80036; stroke-width: 1.0;"/><!--MD5=[6ef36aee62ce6d75f73ce86fb6407a97]
link actor1248201524 to UC1986751746--><path d="M94.2217,538.335 C123.342,531.312 160.831,522.27 187.279,515.892 " fill="none" id="actor1248201524-UC1986751746" style="stroke: #A80036; stroke-width: 1.0;"/><!--MD5=[b76e54f9f7cf040f3c7409f8fd9fd505]
link actor1795804759 to UC1986751746--><path d="M90.8596,454.652 C103.2208,461.652 116.975,468.996 130,475 C149.497,483.987 172.198,492.296 189.922,498.329 " fill="none" id="actor1795804759-UC1986751746" style="stroke: #A80036; stroke-width: 1.0;"/><!--MD5=[04e17d771ae675f0e23738421aee8d26]
link actor2083220171 to UC8000369--><path d="M81.6674,744.913 C85.8459,739.25 90.0477,733.499 94,728 C110.405,705.174 107.85,693.306 130,676 C145.794,663.66 166.557,655.418 184.159,650.144 " fill="none" id="actor2083220171-UC8000369" style="stroke: #A80036; stroke-width: 1.0;"/><!--MD5=[3bb95a915124b22fbbf2914d0a6ff3d2]
link actor2083220171 to UC1513945124--><path d="M83.1813,771.776 C114.102,757.589 159.817,736.614 189.754,722.877 " fill="none" id="actor2083220171-UC1513945124" style="stroke: #A80036; stroke-width: 1.0;"/><!--MD5=[9b4c157e96256d6a2fbac797cc9e833c]
link actor1548698416 to UC1495001258--><path d="M70.658,650.289 C86.2147,637.585 108.475,620.713 130,609 C148.779,598.781 171.279,590.281 189.085,584.336 " fill="none" id="actor1548698416-UC1495001258" style="stroke: #A80036; stroke-width: 1.0;"/><!--MD5=[c8465fc9a2d2c8d348a544e77e1e1188]
link actor1795804759 to UC1698322791--><path d="M90.7192,432.635 C118.911,434.459 156.119,436.867 183.377,438.63 " fill="none" id="actor1795804759-UC1698322791" style="stroke: #A80036; stroke-width: 1.0;"/><!--MD5=[6636833573bc1865c66b47b00ea1089a]
link actor1248201524 to UC1635815117--><path d="M84.6466,591.08 C88.249,596.857 91.4995,602.905 94,609 C135.774,710.822 60.1531,768.946 130,854 C147.576,875.402 180.52,882.499 201.303,884.847 " fill="none" id="actor1248201524-UC1635815117" style="stroke: #A80036; stroke-width: 1.0;"/><!--MD5=[ef0de4f2e658194369405757eae14dfc]
link actor1248201524 to UC1001114349--><path d="M84.8247,591.008 C88.3973,596.798 91.5921,602.868 94,609 C119.349,673.553 87.0705,864.532 130,919 C144.319,937.168 169.622,945.336 189.759,949.006 " fill="none" id="actor1248201524-UC1001114349" style="stroke: #A80036; stroke-width: 1.0;"/><!--MD5=[20751ad2a4fa10037017ec02e7effe0d]
link actor1248201524 to UC113676940--><path d="M83.7311,591.054 C87.5329,596.883 91.0813,602.95 94,609 C120.423,663.769 97.7853,689.425 130,741 C147.402,768.861 177.607,792.424 198.181,806.381 " fill="none" id="actor1248201524-UC113676940" style="stroke: #A80036; stroke-width: 1.0;"/><!--MD5=[9ab7a702f5cb6e4d856bfc5a0924c447]
link actor2083220171 to UC113676940--><path d="M83.1813,793.441 C111.976,799.031 153.601,807.111 183.366,812.889 " fill="none" id="actor2083220171-UC113676940" style="stroke: #A80036; stroke-width: 1.0;"/><!--MD5=[fac2663d2f1db04fd2672b08487a7edd]
link actor731802107 to UC1001114349--><path d="M87.3072,1008.9798 C120.538,994.71 168.149,974.2654 196.387,962.14 " fill="none" id="actor731802107-UC1001114349" style="stroke: #A80036; stroke-width: 1.0;"/><!--MD5=[3b4cf00a30a17186a5450299e8db3394]
link actor1538456363 to UC1635815117--><path d="M78.072,902.697 C112.965,898.592 171.546,891.7 201.356,888.193 " fill="none" id="actor1538456363-UC1635815117" style="stroke: #A80036; stroke-width: 1.0;"/><!--MD5=[7d90f6a93e8fb7eee8e7a4a4d7892071]
@startuml
 left to right direction

actor ForStateNode as actor1248201524

	rectangle ForStateNode{
	 usecase initializers as UC1799310296
	actor1248201524- -UC1799310296
	 usecase toString as UC597399755
	actor1248201524- -UC597399755
	 usecase getExpression as UC1041571359
	actor1248201524- -UC1041571359
	 usecase getStmtList as UC14093978
	actor1248201524- -UC14093978
	 usecase getBody as UC1587020590
	actor1248201524- -UC1587020590
	}
	actor ForStatement as actor1340666542
	actor1340666542 - - UC1587020590
	actor Test_Visitor as actor181451598
	actor181451598 - - UC14093978
	actor ForStatement as actor1340666542
	actor1340666542 - - UC1041571359
	actor ASTNode as actor293285062
	actor293285062 - - UC597399755
	actor ForStatement as actor1340666542
	actor1340666542 - - UC1799310296
	rectangle getForLine{
	 usecase append as UC1698322791
	actor1248201524- -UC1698322791
	 usecase toString as UC1495001258
	actor1248201524- -UC1495001258
	 usecase getCondition as UC1513945124
	actor1248201524- -UC1513945124
	 usecase getCode as UC8000369
	actor1248201524- -UC8000369
	 usecase toString as UC1986751746
	actor1248201524- -UC1986751746
	}
	actor StringBuilder as actor1795804759
	actor1795804759 - - UC1986751746
	actor StateNode as actor2083220171
	actor2083220171 - - UC8000369
	actor StateNode as actor2083220171
	actor2083220171 - - UC1513945124
	actor Object as actor1548698416
	actor1548698416 - - UC1495001258
	actor StringBuilder as actor1795804759
	actor1795804759 - - UC1698322791
	rectangle getLastFin{
	 usecase get as UC1635815117
	actor1248201524- -UC1635815117
	 usecase println as UC1001114349
	actor1248201524- -UC1001114349
	 usecase getThen as UC113676940
	actor1248201524- -UC113676940
	}
	actor StateNode as actor2083220171
	actor2083220171 - - UC113676940
	actor PrintStream as actor731802107
	actor731802107 - - UC1001114349
	actor ArrayList as actor1538456363
	actor1538456363 - - UC1635815117

@enduml

PlantUML version 1.2020.19(Tue Oct 13 00:10:01 KST 2020)
(APACHE source distribution)
Java Runtime: Java(TM) SE Runtime Environment
JVM: Java HotSpot(TM) 64-Bit Server VM
Default Encoding: MS949
Language: ko
Country: KR
--></g></svg>