<?xml version="1.0" encoding="UTF-8" standalone="no"?><svg xmlns="http://www.w3.org/2000/svg" xmlns:xlink="http://www.w3.org/1999/xlink" contentScriptType="application/ecmascript" contentStyleType="text/css" height="570px" preserveAspectRatio="none" style="width:330px;height:570px;" version="1.1" viewBox="0 0 330 570" width="330px" zoomAndPan="magnify"><defs><filter height="300%" id="f1e1afithmcg3n" width="300%" x="-1" y="-1"><feGaussianBlur result="blurOut" stdDeviation="2.0"/><feColorMatrix in="blurOut" result="blurOut2" type="matrix" values="0 0 0 0 0 0 0 0 0 0 0 0 0 0 0 0 0 0 .4 0"/><feOffset dx="4.0" dy="4.0" in="blurOut2" result="blurOut3"/><feBlend in="SourceGraphic" in2="blurOut3" mode="normal"/></filter></defs><g><!--MD5=[f84b217020bdb875be7d37de79ed20c2]
cluster SwitchNode--><rect fill="#FFFFFF" filter="url(#f1e1afithmcg3n)" height="288" style="stroke: #000000; stroke-width: 1.5;" width="164" x="154" y="62.5"/><text fill="#000000" font-family="sans-serif" font-size="14" font-weight="bold" lengthAdjust="spacingAndGlyphs" textLength="83" x="194.5" y="80.6533">SwitchNode</text><!--MD5=[d7cb485c184685c60a24d7d833bd66f5]
cluster print--><rect fill="#FFFFFF" filter="url(#f1e1afithmcg3n)" height="87" style="stroke: #000000; stroke-width: 1.5;" width="94" x="189" y="437.5"/><text fill="#000000" font-family="sans-serif" font-size="14" font-weight="bold" lengthAdjust="spacingAndGlyphs" textLength="33" x="219.5" y="455.6533">print</text><ellipse cx="236.6482" cy="318.5973" fill="#FEFECE" filter="url(#f1e1afithmcg3n)" rx="37.6482" ry="16.5973" style="stroke: #A80036; stroke-width: 1.5;"/><text fill="#000000" font-family="sans-serif" font-size="14" lengthAdjust="spacingAndGlyphs" textLength="49" x="212.1482" y="324.7121">toString</text><ellipse cx="235.9325" cy="184.5973" fill="#FEFECE" filter="url(#f1e1afithmcg3n)" rx="65.9325" ry="16.5973" style="stroke: #A80036; stroke-width: 1.5;"/><text fill="#000000" font-family="sans-serif" font-size="14" lengthAdjust="spacingAndGlyphs" textLength="89" x="191.4325" y="190.7121">getExpression</text><ellipse cx="235.9836" cy="251.5869" fill="#FEFECE" filter="url(#f1e1afithmcg3n)" rx="19.9836" ry="16.5869" style="stroke: #A80036; stroke-width: 1.5;"/><text fill="#000000" font-family="sans-serif" font-size="14" lengthAdjust="spacingAndGlyphs" textLength="24" x="223.9836" y="257.7016">add</text><ellipse cx="235.7904" cy="117.5973" fill="#FEFECE" filter="url(#f1e1afithmcg3n)" rx="51.7904" ry="16.5973" style="stroke: #A80036; stroke-width: 1.5;"/><text fill="#000000" font-family="sans-serif" font-size="14" lengthAdjust="spacingAndGlyphs" textLength="69" x="201.2904" y="123.7121">statements</text><ellipse cx="236.5772" cy="492.5973" fill="#FEFECE" filter="url(#f1e1afithmcg3n)" rx="30.5772" ry="16.5973" style="stroke: #A80036; stroke-width: 1.5;"/><text fill="#000000" font-family="sans-serif" font-size="14" lengthAdjust="spacingAndGlyphs" textLength="39" x="217.0772" y="498.7121">println</text><!--MD5=[cdb2c9cb3618bb8a9519aab6193fd41d]
entity actor908744222--><ellipse cx="58.5" cy="252" fill="#FEFECE" filter="url(#f1e1afithmcg3n)" rx="8" ry="8" style="stroke: #A80036; stroke-width: 1.5;"/><path d="M58.5,260 L58.5,287 M45.5,268 L71.5,268 M58.5,287 L45.5,302 M58.5,287 L71.5,302 " fill="none" filter="url(#f1e1afithmcg3n)" style="stroke: #A80036; stroke-width: 1.5;"/><text fill="#000000" font-family="sans-serif" font-size="14" lengthAdjust="spacingAndGlyphs" textLength="73" x="22" y="323.6533">SwitchNode</text><!--MD5=[ebd05bc151ddf4d6a269c5d8df878274]
entity actor280960713--><ellipse cx="58" cy="14" fill="#FEFECE" filter="url(#f1e1afithmcg3n)" rx="8" ry="8" style="stroke: #A80036; stroke-width: 1.5;"/><path d="M58,22 L58,49 M45,30 L71,30 M58,49 L45,64 M58,49 L71,64 " fill="none" filter="url(#f1e1afithmcg3n)" style="stroke: #A80036; stroke-width: 1.5;"/><text fill="#000000" font-family="sans-serif" font-size="14" lengthAdjust="spacingAndGlyphs" textLength="104" x="6" y="85.6533">SwitchStatement</text><!--MD5=[b8cdde3df73f4298fd171ae207d79fef]
entity actor1538456363--><ellipse cx="58" cy="133" fill="#FEFECE" filter="url(#f1e1afithmcg3n)" rx="8" ry="8" style="stroke: #A80036; stroke-width: 1.5;"/><path d="M58,141 L58,168 M45,149 L71,149 M58,168 L45,183 M58,168 L71,183 " fill="none" filter="url(#f1e1afithmcg3n)" style="stroke: #A80036; stroke-width: 1.5;"/><text fill="#000000" font-family="sans-serif" font-size="14" lengthAdjust="spacingAndGlyphs" textLength="56" x="30" y="204.6533">ArrayList</text><!--MD5=[4f7de1fe7bd115482050f2b64cadc785]
entity actor293285062--><ellipse cx="58" cy="371" fill="#FEFECE" filter="url(#f1e1afithmcg3n)" rx="8" ry="8" style="stroke: #A80036; stroke-width: 1.5;"/><path d="M58,379 L58,406 M45,387 L71,387 M58,406 L45,421 M58,406 L71,421 " fill="none" filter="url(#f1e1afithmcg3n)" style="stroke: #A80036; stroke-width: 1.5;"/><text fill="#000000" font-family="sans-serif" font-size="14" lengthAdjust="spacingAndGlyphs" textLength="60" x="28" y="442.6533">ASTNode</text><!--MD5=[c6373e6f06c0704c33390c3718060f35]
entity actor731802107--><ellipse cx="58" cy="490" fill="#FEFECE" filter="url(#f1e1afithmcg3n)" rx="8" ry="8" style="stroke: #A80036; stroke-width: 1.5;"/><path d="M58,498 L58,525 M45,506 L71,506 M58,525 L45,540 M58,525 L71,540 " fill="none" filter="url(#f1e1afithmcg3n)" style="stroke: #A80036; stroke-width: 1.5;"/><text fill="#000000" font-family="sans-serif" font-size="14" lengthAdjust="spacingAndGlyphs" textLength="74" x="21" y="561.6533">PrintStream</text><!--MD5=[ea01f1ef8e59eef8636a813d87b00277]
link actor908744222 to UC597399755--><path d="M94.8817,302.109 C125.431,310.86 168.629,319.11 199.166,322.024 " fill="none" id="actor908744222-UC597399755" style="stroke: #A80036; stroke-width: 1.0;"/><!--MD5=[ea01f1ef8e59eef8636a813d87b00277]
link actor908744222 to UC597399755--><path d="M94.8817,280.359 C131.032,283.611 184.894,294.571 214.528,305.229 " fill="none" id="actor908744222-UC597399755-1" style="stroke: #A80036; stroke-width: 1.0;"/><!--MD5=[293f3621f8339ed21a646e7100a4faa1]
link actor908744222 to UC1907517568--><path d="M94.5299,253.451 C109.779,241.483 128.091,228.339 146,218.5 C161.371,210.056 179.274,202.819 195.045,197.219 " fill="none" id="actor908744222-UC1907517568" style="stroke: #A80036; stroke-width: 1.0;"/><!--MD5=[9d2dfe87d804a97c41aa9283c0a25122]
link actor908744222 to UC2030748640--><path d="M94.8817,277.662 C131.744,270.828 187.025,260.58 216.252,255.161 " fill="none" id="actor908744222-UC2030748640" style="stroke: #A80036; stroke-width: 1.0;"/><!--MD5=[54adb4205b519e77acaf827302844fc6]
link actor908744222 to UC346125981--><path d="M94.5129,246.019 C100.0136,239.41 105.3829,232.432 110,225.5 C130.275,195.06 118.981,176.151 146,151.5 C159.079,139.567 176.757,131.687 192.984,126.549 " fill="none" id="actor908744222-UC346125981" style="stroke: #A80036; stroke-width: 1.0;"/><!--MD5=[cc8e19b4595147b7781e00a5bcb856db]
link actor280960713 to UC346125981--><path d="M110.443,67.418 C140.798,79.526 178.02,94.373 204.023,104.745 " fill="none" id="actor280960713-UC346125981" style="stroke: #A80036; stroke-width: 1.0;"/><!--MD5=[30fcb46356906efe6d1db675dc656944]
link actor1538456363 to UC2030748640--><path d="M86.1651,184.35 C103.0684,195.18 125.251,208.56 146,218.5 C169.864,229.933 198.803,239.894 217.306,245.801 " fill="none" id="actor1538456363-UC2030748640" style="stroke: #A80036; stroke-width: 1.0;"/><!--MD5=[95ff09e1d385a6d2a27d5424515dd5f4]
link actor280960713 to UC1907517568--><path d="M95.792,88.782 C100.6236,94.362 105.463,100.039 110,105.5 C126.59,125.469 125.009,136.224 146,151.5 C158.918,160.901 174.804,167.892 189.615,172.958 " fill="none" id="actor280960713-UC1907517568" style="stroke: #A80036; stroke-width: 1.0;"/><!--MD5=[0f7b4f1cad884dd8314444cb3abfb747]
link actor293285062 to UC597399755--><path d="M88.1953,398.935 C126.68,385.09 191.718,353.244 220.963,333.169 " fill="none" id="actor293285062-UC597399755" style="stroke: #A80036; stroke-width: 1.0;"/><!--MD5=[0f7b4f1cad884dd8314444cb3abfb747]
link actor293285062 to UC597399755--><path d="M88.1953,378.647 C119.34,359.89 167.875,336.52 200.756,324.314 " fill="none" id="actor293285062-UC597399755-1" style="stroke: #A80036; stroke-width: 1.0;"/><!--MD5=[0745360e59ece3a0ab88cc37e9c4471d]
link actor908744222 to UC1001114349--><path d="M94.6947,326.746 C99.8425,332.7 105.06,338.749 110,344.5 C151.777,393.136 200.948,451.103 223.524,477.7589 " fill="none" id="actor908744222-UC1001114349" style="stroke: #A80036; stroke-width: 1.0;"/><!--MD5=[fac2663d2f1db04fd2672b08487a7edd]
link actor731802107 to UC1001114349--><path d="M95.3146,516.211 C128.548,510.6098 176.496,502.5287 206.948,497.3965 " fill="none" id="actor731802107-UC1001114349" style="stroke: #A80036; stroke-width: 1.0;"/><!--MD5=[1c71b62e295abce837c39bfe19b91bc0]
@startuml
 left to right direction

actor SwitchNode as actor908744222

	rectangle SwitchNode{
	 usecase toString as UC597399755
	actor908744222- -UC597399755
	 usecase getExpression as UC1907517568
	actor908744222- -UC1907517568
	 usecase add as UC2030748640
	actor908744222- -UC2030748640
	 usecase statements as UC346125981
	actor908744222- -UC346125981
	}
	actor SwitchStatement as actor280960713
	actor280960713 - - UC346125981
	actor ArrayList as actor1538456363
	actor1538456363 - - UC2030748640
	actor SwitchStatement as actor280960713
	actor280960713 - - UC1907517568
	actor ASTNode as actor293285062
	actor293285062 - - UC597399755
	rectangle print{
	 usecase println as UC1001114349
	actor908744222- -UC1001114349
	 usecase toString as UC597399755
	actor908744222- -UC597399755
	}
	actor ASTNode as actor293285062
	actor293285062 - - UC597399755
	actor PrintStream as actor731802107
	actor731802107 - - UC1001114349

@enduml

PlantUML version 1.2020.19(Tue Oct 13 00:10:01 KST 2020)
(APACHE source distribution)
Java Runtime: Java(TM) SE Runtime Environment
JVM: Java HotSpot(TM) 64-Bit Server VM
Default Encoding: MS949
Language: ko
Country: KR
--></g></svg>