<?xml version="1.0" encoding="UTF-8" standalone="no"?><svg xmlns="http://www.w3.org/2000/svg" xmlns:xlink="http://www.w3.org/1999/xlink" contentScriptType="application/ecmascript" contentStyleType="text/css" height="666px" preserveAspectRatio="none" style="width:317px;height:666px;" version="1.1" viewBox="0 0 317 666" width="317px" zoomAndPan="magnify"><defs><filter height="300%" id="f1v91cyr3ibtei" width="300%" x="-1" y="-1"><feGaussianBlur result="blurOut" stdDeviation="2.0"/><feColorMatrix in="blurOut" result="blurOut2" type="matrix" values="0 0 0 0 0 0 0 0 0 0 0 0 0 0 0 0 0 0 .4 0"/><feOffset dx="4.0" dy="4.0" in="blurOut2" result="blurOut3"/><feBlend in="SourceGraphic" in2="blurOut3" mode="normal"/></filter></defs><g><!--MD5=[3fd23fd997070011d1cb4974b5e1f645]
cluster Function--><rect fill="#FFFFFF" filter="url(#f1v91cyr3ibtei)" height="87" style="stroke: #000000; stroke-width: 1.5;" width="106" x="159" y="453"/><text fill="#000000" font-family="sans-serif" font-size="14" font-weight="bold" lengthAdjust="spacingAndGlyphs" textLength="62" x="181" y="471.1533">Function</text><!--MD5=[a1eef7bbc55d6e115a3736b1cb383f24]
cluster getSrcName--><rect fill="#FFFFFF" filter="url(#f1v91cyr3ibtei)" height="87" style="stroke: #000000; stroke-width: 1.5;" width="148" x="138" y="7"/><text fill="#000000" font-family="sans-serif" font-size="14" font-weight="bold" lengthAdjust="spacingAndGlyphs" textLength="85" x="169.5" y="25.1533">getSrcName</text><!--MD5=[c34a5b0034f574704b03ebcea5fc6794]
cluster getPackageName--><rect fill="#FFFFFF" filter="url(#f1v91cyr3ibtei)" height="89" style="stroke: #000000; stroke-width: 1.5;" width="186" x="119" y="118"/><text fill="#000000" font-family="sans-serif" font-size="14" font-weight="bold" lengthAdjust="spacingAndGlyphs" textLength="121" x="151.5" y="136.1533">getPackageName</text><!--MD5=[3df72e327fda6a9c75e1d3c13478bbff]
cluster addHas--><rect fill="#FFFFFF" filter="url(#f1v91cyr3ibtei)" height="87" style="stroke: #000000; stroke-width: 1.5;" width="114" x="155" y="564"/><text fill="#000000" font-family="sans-serif" font-size="14" font-weight="bold" lengthAdjust="spacingAndGlyphs" textLength="52" x="186" y="582.1533">addHas</text><!--MD5=[89e6df34a40fd0f881e4a85c208f9fb2]
cluster addCallBy--><rect fill="#FFFFFF" filter="url(#f1v91cyr3ibtei)" height="87" style="stroke: #000000; stroke-width: 1.5;" width="130" x="147" y="231"/><text fill="#000000" font-family="sans-serif" font-size="14" font-weight="bold" lengthAdjust="spacingAndGlyphs" textLength="69" x="177.5" y="249.1533">addCallBy</text><!--MD5=[e72b28ea75be9a6e9901756f23061282]
cluster addCall--><rect fill="#FFFFFF" filter="url(#f1v91cyr3ibtei)" height="87" style="stroke: #000000; stroke-width: 1.5;" width="106" x="159" y="342"/><text fill="#000000" font-family="sans-serif" font-size="14" font-weight="bold" lengthAdjust="spacingAndGlyphs" textLength="52" x="186" y="360.1533">addCall</text><ellipse cx="211.9411" cy="508.0973" fill="#FEFECE" filter="url(#f1v91cyr3ibtei)" rx="36.9411" ry="16.5973" style="stroke: #A80036; stroke-width: 1.5;"/><text fill="#000000" font-family="sans-serif" font-size="14" lengthAdjust="spacingAndGlyphs" textLength="48" x="187.9411" y="514.2121">addHas</text><ellipse cx="212.4472" cy="62.0973" fill="#FEFECE" filter="url(#f1v91cyr3ibtei)" rx="57.4472" ry="16.5973" style="stroke: #A80036; stroke-width: 1.5;"/><text fill="#000000" font-family="sans-serif" font-size="14" lengthAdjust="spacingAndGlyphs" textLength="77" x="173.9472" y="68.2121">getSrcName</text><ellipse cx="212.4257" cy="174.1851" fill="#FEFECE" filter="url(#f1v91cyr3ibtei)" rx="76.4257" ry="17.6851" style="stroke: #A80036; stroke-width: 1.5;"/><text fill="#000000" font-family="sans-serif" font-size="14" lengthAdjust="spacingAndGlyphs" textLength="111" x="156.9257" y="180.2999">getPackageName</text><ellipse cx="212.1838" cy="619.0973" fill="#FEFECE" filter="url(#f1v91cyr3ibtei)" rx="41.1838" ry="16.5973" style="stroke: #A80036; stroke-width: 1.5;"/><text fill="#000000" font-family="sans-serif" font-size="14" lengthAdjust="spacingAndGlyphs" textLength="54" x="185.1838" y="625.2121">addData</text><ellipse cx="212.2548" cy="286.0973" fill="#FEFECE" filter="url(#f1v91cyr3ibtei)" rx="48.2548" ry="16.5973" style="stroke: #A80036; stroke-width: 1.5;"/><text fill="#000000" font-family="sans-serif" font-size="14" lengthAdjust="spacingAndGlyphs" textLength="64" x="180.2548" y="292.2121">addCallBy</text><ellipse cx="211.9411" cy="397.0973" fill="#FEFECE" filter="url(#f1v91cyr3ibtei)" rx="36.9411" ry="16.5973" style="stroke: #A80036; stroke-width: 1.5;"/><text fill="#000000" font-family="sans-serif" font-size="14" lengthAdjust="spacingAndGlyphs" textLength="48" x="187.9411" y="403.2121">addCall</text><!--MD5=[37661927b57d6338813e607196720b2f]
entity actor426792528--><ellipse cx="40.5" cy="372.5" fill="#FEFECE" filter="url(#f1v91cyr3ibtei)" rx="8" ry="8" style="stroke: #A80036; stroke-width: 1.5;"/><path d="M40.5,380.5 L40.5,407.5 M27.5,388.5 L53.5,388.5 M40.5,407.5 L27.5,422.5 M40.5,407.5 L53.5,422.5 " fill="none" filter="url(#f1v91cyr3ibtei)" style="stroke: #A80036; stroke-width: 1.5;"/><text fill="#000000" font-family="sans-serif" font-size="14" lengthAdjust="spacingAndGlyphs" textLength="55" x="13" y="444.1533">Function</text><!--MD5=[662fbe8328652735fce5328a5367bfc1]
entity actor1785570426--><ellipse cx="40.5" cy="253.5" fill="#FEFECE" filter="url(#f1v91cyr3ibtei)" rx="8" ry="8" style="stroke: #A80036; stroke-width: 1.5;"/><path d="M40.5,261.5 L40.5,288.5 M27.5,269.5 L53.5,269.5 M40.5,288.5 L27.5,303.5 M40.5,288.5 L53.5,303.5 " fill="none" filter="url(#f1v91cyr3ibtei)" style="stroke: #A80036; stroke-width: 1.5;"/><text fill="#000000" font-family="sans-serif" font-size="14" lengthAdjust="spacingAndGlyphs" textLength="69" x="6" y="325.1533">Data_base</text><!--MD5=[2b800408cb2cdbeba4cee5b54d06b786]
entity actor1528099970--><ellipse cx="40" cy="586.5" fill="#FEFECE" filter="url(#f1v91cyr3ibtei)" rx="8" ry="8" style="stroke: #A80036; stroke-width: 1.5;"/><path d="M40,594.5 L40,621.5 M27,602.5 L53,602.5 M40,621.5 L27,636.5 M40,621.5 L53,636.5 " fill="none" filter="url(#f1v91cyr3ibtei)" style="stroke: #A80036; stroke-width: 1.5;"/><text fill="#000000" font-family="sans-serif" font-size="14" lengthAdjust="spacingAndGlyphs" textLength="52" x="14" y="658.1533">DataList</text><!--MD5=[f50d3bf64c4579068c89657402006259]
link actor426792528 to UC1905699057--><path d="M67.6348,421.549 C101.726,441.964 158.986,476.253 190.163,494.923 " fill="none" id="actor426792528-UC1905699057" style="stroke: #A80036; stroke-width: 1.0;"/><!--MD5=[f2ac44f1a20aec9f6113a4cf020bc990]
link actor1785570426 to UC1905699057--><path d="M65.9096,328.168 C69.0844,333.766 72.1944,339.479 75,345 C93.4007,381.21 86.2268,396.812 111,429 C132.86,457.403 167.172,481.327 189.628,495.171 " fill="none" id="actor1785570426-UC1905699057" style="stroke: #A80036; stroke-width: 1.0;"/><!--MD5=[76b8499d40192366442e5e11ba08da6e]
link actor426792528 to UC150180388--><path d="M66.9708,362.971 C70.011,357.089 72.8001,351.001 75,345 C106.689,258.558 63.598,219.927 111,141 C128.422,111.992 160.761,89.58 184.162,76.158 " fill="none" id="actor426792528-UC150180388" style="stroke: #A80036; stroke-width: 1.0;"/><!--MD5=[70100680c7c8b8084c1a9a8ff9571d6f]
link actor1785570426 to UC150180388--><path d="M54.7885,243.741 C66.8326,213.151 85.9365,171.919 111,141 C132.728,114.195 165.171,90.888 187.388,76.67 " fill="none" id="actor1785570426-UC150180388" style="stroke: #A80036; stroke-width: 1.0;"/><!--MD5=[a82e41b20beae86812e8220d35df0552]
link actor426792528 to UC133579455--><path d="M65.6681,362.823 C68.9505,356.913 72.1534,350.857 75,345 C94.0122,305.881 85.067,288.918 111,254 C131.006,227.063 162.243,204.227 184.681,189.934 " fill="none" id="actor426792528-UC133579455" style="stroke: #A80036; stroke-width: 1.0;"/><!--MD5=[89a7c199bc0601b4934786c3ca356d4e]
link actor1785570426 to UC133579455--><path d="M74.8068,263.335 C108.182,241.603 157.73,209.339 187.254,190.114 " fill="none" id="actor1785570426-UC133579455" style="stroke: #A80036; stroke-width: 1.0;"/><!--MD5=[a0a46b6de781d3dbef4e886cd1e2d077]
link actor426792528 to UC1138992016--><path d="M47.0708,447.12 C57.8878,486.82 80.5383,538.51 111,575 C129.831,597.5582 156.096,617.8569 177.121,627.4306 " fill="none" id="actor426792528-UC1138992016" style="stroke: #A80036; stroke-width: 1.0;"/><!--MD5=[a0a46b6de781d3dbef4e886cd1e2d077]
link actor426792528 to UC1138992016--><path d="M56.5558,447.031 C68.9151,475.177 87.6658,512.048 111,540 C133.826,567.3433 167.572,591.3668 189.673,605.5394 " fill="none" id="actor426792528-UC1138992016-1" style="stroke: #A80036; stroke-width: 1.0;"/><!--MD5=[a0a46b6de781d3dbef4e886cd1e2d077]
link actor426792528 to UC1138992016--><path d="M67.5454,437.797 C79.0479,458.872 93.7751,484.366 111,505 C141.957,542.084 193.003,573.0623 207.837,602.9573 " fill="none" id="actor426792528-UC1138992016-2" style="stroke: #A80036; stroke-width: 1.0;"/><!--MD5=[8a44fc2ef183dd9ec2fccece5881f44e]
link actor1528099970 to UC1138992016--><path d="M66.1231,619 C93.9404,619 138.35,619 170.87,619 " fill="none" id="actor1528099970-UC1138992016" style="stroke: #A80036; stroke-width: 1.0;"/><!--MD5=[8a44fc2ef183dd9ec2fccece5881f44e]
link actor1528099970 to UC1138992016--><path d="M66.1231,638.4808 C103.1502,648.7922 169.575,647.3232 198.227,634.074 " fill="none" id="actor1528099970-UC1138992016-1" style="stroke: #A80036; stroke-width: 1.0;"/><!--MD5=[8a44fc2ef183dd9ec2fccece5881f44e]
link actor1528099970 to UC1138992016--><path d="M66.1231,599.5192 C103.1502,589.2078 169.575,590.6768 198.227,603.926 " fill="none" id="actor1528099970-UC1138992016-2" style="stroke: #A80036; stroke-width: 1.0;"/><!--MD5=[9d39e61b900d6fc84600fa18513d8ea4]
link actor426792528 to UC1152029154--><path d="M67.6348,395.542 C105.43,374.246 171.7,327.531 199.337,301.826 " fill="none" id="actor426792528-UC1152029154" style="stroke: #A80036; stroke-width: 1.0;"/><!--MD5=[9d39e61b900d6fc84600fa18513d8ea4]
link actor426792528 to UC1152029154--><path d="M67.6348,375.651 C98.0225,350.496 146.818,316.519 179.142,297.852 " fill="none" id="actor426792528-UC1152029154-1" style="stroke: #A80036; stroke-width: 1.0;"/><!--MD5=[53295e92e9bbb9aeeeed12439cc66f99]
link actor1785570426 to UC1152029154--><path d="M74.8068,296.481 C104.059,299.448 145.735,299.505 175.464,296.651 " fill="none" id="actor1785570426-UC1152029154" style="stroke: #A80036; stroke-width: 1.0;"/><!--MD5=[53295e92e9bbb9aeeeed12439cc66f99]
link actor1785570426 to UC1152029154--><path d="M74.8068,274.903 C104.5498,271.708 147.137,271.699 176.95,274.877 " fill="none" id="actor1785570426-UC1152029154-1" style="stroke: #A80036; stroke-width: 1.0;"/><!--MD5=[111e6d2341d1d6cb57ed034fbcf0c20e]
link actor426792528 to UC1356614113--><path d="M67.6348,403.715 C96.788,402.359 142.884,400.215 175.123,398.715 " fill="none" id="actor426792528-UC1356614113" style="stroke: #A80036; stroke-width: 1.0;"/><!--MD5=[695a3f9a92bb662651c7b5fa3ef971f8]
link actor1785570426 to UC1356614113--><path d="M74.8068,308.463 C109.752,331.015 162.429,365.01 191.285,383.632 " fill="none" id="actor1785570426-UC1356614113" style="stroke: #A80036; stroke-width: 1.0;"/><!--MD5=[5c4f78034e0118e34fbb8f8f687ecf26]
@startuml
 left to right direction

actor Function as actor426792528

	rectangle Function{
	 usecase addHas as UC1905699057
	actor426792528- -UC1905699057
	}
	actor Data_base as actor1785570426
	actor1785570426 - - UC1905699057
	rectangle getSrcName{
	 usecase getSrcName as UC150180388
	actor426792528- -UC150180388
	}
	actor Data_base as actor1785570426
	actor1785570426 - - UC150180388
	rectangle getPackageName{
	 usecase getPackageName as UC133579455
	actor426792528- -UC133579455
	}
	actor Data_base as actor1785570426
	actor1785570426 - - UC133579455
	rectangle addHas{
	 usecase addData as UC1138992016
	actor426792528- -UC1138992016
	}
	actor DataList as actor1528099970
	actor1528099970 - - UC1138992016
	rectangle addCallBy{
	 usecase addData as UC1138992016
	actor426792528- -UC1138992016
	 usecase addCallBy as UC1152029154
	actor426792528- -UC1152029154
	}
	actor Data_base as actor1785570426
	actor1785570426 - - UC1152029154
	actor DataList as actor1528099970
	actor1528099970 - - UC1138992016
	rectangle addCall{
	 usecase addData as UC1138992016
	actor426792528- -UC1138992016
	 usecase addCall as UC1356614113
	actor426792528- -UC1356614113
	 usecase addCallBy as UC1152029154
	actor426792528- -UC1152029154
	}
	actor Data_base as actor1785570426
	actor1785570426 - - UC1152029154
	actor Data_base as actor1785570426
	actor1785570426 - - UC1356614113
	actor DataList as actor1528099970
	actor1528099970 - - UC1138992016

@enduml

PlantUML version 1.2020.19(Tue Oct 13 00:10:01 KST 2020)
(APACHE source distribution)
Java Runtime: Java(TM) SE Runtime Environment
JVM: Java HotSpot(TM) 64-Bit Server VM
Default Encoding: MS949
Language: ko
Country: KR
--></g></svg>