<?xml version="1.0" encoding="UTF-8" standalone="no"?><svg xmlns="http://www.w3.org/2000/svg" xmlns:xlink="http://www.w3.org/1999/xlink" contentScriptType="application/ecmascript" contentStyleType="text/css" height="1284px" preserveAspectRatio="none" style="width:348px;height:1284px;" version="1.1" viewBox="0 0 348 1284" width="348px" zoomAndPan="magnify"><defs><filter height="300%" id="f1jgi2iojwv10m" width="300%" x="-1" y="-1"><feGaussianBlur result="blurOut" stdDeviation="2.0"/><feColorMatrix in="blurOut" result="blurOut2" type="matrix" values="0 0 0 0 0 0 0 0 0 0 0 0 0 0 0 0 0 0 .4 0"/><feOffset dx="4.0" dy="4.0" in="blurOut2" result="blurOut3"/><feBlend in="SourceGraphic" in2="blurOut3" mode="normal"/></filter></defs><g><!--MD5=[a70b0d373322012744ecc119c63f921b]
cluster main--><rect fill="#FFFFFF" filter="url(#f1jgi2iojwv10m)" height="154" style="stroke: #000000; stroke-width: 1.5;" width="104" x="204" y="65.5"/><text fill="#000000" font-family="sans-serif" font-size="14" font-weight="bold" lengthAdjust="spacingAndGlyphs" textLength="33" x="239.5" y="83.6533">main</text><!--MD5=[1e829f21a74d4de467c1b519aceec237]
cluster makeFile--><rect fill="#FFFFFF" filter="url(#f1jgi2iojwv10m)" height="154" style="stroke: #000000; stroke-width: 1.5;" width="86" x="213" y="329.5"/><text fill="#000000" font-family="sans-serif" font-size="14" font-weight="bold" lengthAdjust="spacingAndGlyphs" textLength="63" x="224.5" y="347.6533">makeFile</text><!--MD5=[1cc943b86f50fda51864bd79c3035393]
cluster makeScript--><rect fill="#FFFFFF" filter="url(#f1jgi2iojwv10m)" height="221" style="stroke: #000000; stroke-width: 1.5;" width="130" x="191" y="550.5"/><text fill="#000000" font-family="sans-serif" font-size="14" font-weight="bold" lengthAdjust="spacingAndGlyphs" textLength="78" x="217" y="568.6533">makeScript</text><!--MD5=[25e01daf03fc02f3d0ae647926ef4273]
cluster makeMemberInfo--><rect fill="#FFFFFF" filter="url(#f1jgi2iojwv10m)" height="154" style="stroke: #000000; stroke-width: 1.5;" width="152" x="180" y="1053.5"/><text fill="#000000" font-family="sans-serif" font-size="14" font-weight="bold" lengthAdjust="spacingAndGlyphs" textLength="122" x="195" y="1071.6533">makeMemberInfo</text><!--MD5=[00f16b784483aebc7df27d93db3e9ac8]
cluster makeFunctionInfo--><rect fill="#FFFFFF" filter="url(#f1jgi2iojwv10m)" height="87" style="stroke: #000000; stroke-width: 1.5;" width="160" x="176" y="810.5"/><text fill="#000000" font-family="sans-serif" font-size="14" font-weight="bold" lengthAdjust="spacingAndGlyphs" textLength="126" x="193" y="828.6533">makeFunctionInfo</text><!--MD5=[1b8ffe1225e9a60f44b59857f1cb006c]
cluster makeExpInfo--><rect fill="#FFFFFF" filter="url(#f1jgi2iojwv10m)" height="87" style="stroke: #000000; stroke-width: 1.5;" width="107" x="203" y="932.5"/><text fill="#000000" font-family="sans-serif" font-size="14" font-weight="bold" lengthAdjust="spacingAndGlyphs" textLength="90" x="211.5" y="950.6533">makeExpInfo</text><ellipse cx="256.5269" cy="120.5973" fill="#FEFECE" filter="url(#f1jgi2iojwv10m)" rx="35.5269" ry="16.5973" style="stroke: #A80036; stroke-width: 1.5;"/><text fill="#000000" font-family="sans-serif" font-size="14" lengthAdjust="spacingAndGlyphs" textLength="46" x="233.5269" y="126.7121">waitFor</text><ellipse cx="256.5772" cy="187.5973" fill="#FEFECE" filter="url(#f1jgi2iojwv10m)" rx="30.5772" ry="16.5973" style="stroke: #A80036; stroke-width: 1.5;"/><text fill="#000000" font-family="sans-serif" font-size="14" lengthAdjust="spacingAndGlyphs" textLength="39" x="237.0772" y="193.7121">println</text><ellipse cx="256.5061" cy="384.5973" fill="#FEFECE" filter="url(#f1jgi2iojwv10m)" rx="23.5061" ry="16.5973" style="stroke: #A80036; stroke-width: 1.5;"/><text fill="#000000" font-family="sans-serif" font-size="14" lengthAdjust="spacingAndGlyphs" textLength="29" x="242.0061" y="390.7121">write</text><ellipse cx="256.3345" cy="451.5973" fill="#FEFECE" filter="url(#f1jgi2iojwv10m)" rx="26.3345" ry="16.5973" style="stroke: #A80036; stroke-width: 1.5;"/><text fill="#000000" font-family="sans-serif" font-size="14" lengthAdjust="spacingAndGlyphs" textLength="33" x="239.8345" y="457.7121">close</text><ellipse cx="255.9411" cy="739.5973" fill="#FEFECE" filter="url(#f1jgi2iojwv10m)" rx="36.9411" ry="16.5973" style="stroke: #A80036; stroke-width: 1.5;"/><text fill="#000000" font-family="sans-serif" font-size="14" lengthAdjust="spacingAndGlyphs" textLength="48" x="231.9411" y="745.7121">append</text><ellipse cx="255.9619" cy="605.5973" fill="#FEFECE" filter="url(#f1jgi2iojwv10m)" rx="48.9619" ry="16.5973" style="stroke: #A80036; stroke-width: 1.5;"/><text fill="#000000" font-family="sans-serif" font-size="14" lengthAdjust="spacingAndGlyphs" textLength="65" x="223.4619" y="611.7121">hashCode</text><ellipse cx="256.6482" cy="672.5973" fill="#FEFECE" filter="url(#f1jgi2iojwv10m)" rx="37.6482" ry="16.5973" style="stroke: #A80036; stroke-width: 1.5;"/><text fill="#000000" font-family="sans-serif" font-size="14" lengthAdjust="spacingAndGlyphs" textLength="49" x="232.1482" y="678.7121">toString</text><ellipse cx="256.6482" cy="1108.5973" fill="#FEFECE" filter="url(#f1jgi2iojwv10m)" rx="37.6482" ry="16.5973" style="stroke: #A80036; stroke-width: 1.5;"/><text fill="#000000" font-family="sans-serif" font-size="14" lengthAdjust="spacingAndGlyphs" textLength="49" x="232.1482" y="1114.7121">toString</text><ellipse cx="256.5685" cy="1175.5973" fill="#FEFECE" filter="url(#f1jgi2iojwv10m)" rx="59.5685" ry="16.5973" style="stroke: #A80036; stroke-width: 1.5;"/><text fill="#000000" font-family="sans-serif" font-size="14" lengthAdjust="spacingAndGlyphs" textLength="80" x="216.5685" y="1181.7121">getImageList</text><ellipse cx="255.8112" cy="865.5973" fill="#FEFECE" filter="url(#f1jgi2iojwv10m)" rx="63.8112" ry="16.5973" style="stroke: #A80036; stroke-width: 1.5;"/><text fill="#000000" font-family="sans-serif" font-size="14" lengthAdjust="spacingAndGlyphs" textLength="86" x="212.8112" y="871.7121">getHeadNode</text><ellipse cx="255.9836" cy="987.5869" fill="#FEFECE" filter="url(#f1jgi2iojwv10m)" rx="19.9836" ry="16.5869" style="stroke: #A80036; stroke-width: 1.5;"/><text fill="#000000" font-family="sans-serif" font-size="14" lengthAdjust="spacingAndGlyphs" textLength="24" x="243.9836" y="993.7016">add</text><!--MD5=[54bbf3ed438555e2f53524471cefdcec]
entity actor266906347--><ellipse cx="69" cy="609" fill="#FEFECE" filter="url(#f1jgi2iojwv10m)" rx="8" ry="8" style="stroke: #A80036; stroke-width: 1.5;"/><path d="M69,617 L69,644 M56,625 L82,625 M69,644 L56,659 M69,644 L82,659 " fill="none" filter="url(#f1jgi2iojwv10m)" style="stroke: #A80036; stroke-width: 1.5;"/><text fill="#000000" font-family="sans-serif" font-size="14" lengthAdjust="spacingAndGlyphs" textLength="58" x="40" y="680.6533">ForQuiz3</text><!--MD5=[c6373e6f06c0704c33390c3718060f35]
entity actor731802107--><ellipse cx="69" cy="133" fill="#FEFECE" filter="url(#f1jgi2iojwv10m)" rx="8" ry="8" style="stroke: #A80036; stroke-width: 1.5;"/><path d="M69,141 L69,168 M56,149 L82,149 M69,168 L56,183 M69,168 L82,183 " fill="none" filter="url(#f1jgi2iojwv10m)" style="stroke: #A80036; stroke-width: 1.5;"/><text fill="#000000" font-family="sans-serif" font-size="14" lengthAdjust="spacingAndGlyphs" textLength="74" x="32" y="204.6533">PrintStream</text><!--MD5=[062a681f1f9b86810eaa79255c6621ce]
entity actor431996456--><ellipse cx="69.5" cy="14" fill="#FEFECE" filter="url(#f1jgi2iojwv10m)" rx="8" ry="8" style="stroke: #A80036; stroke-width: 1.5;"/><path d="M69.5,22 L69.5,49 M56.5,30 L82.5,30 M69.5,49 L56.5,64 M69.5,49 L82.5,64 " fill="none" filter="url(#f1jgi2iojwv10m)" style="stroke: #A80036; stroke-width: 1.5;"/><text fill="#000000" font-family="sans-serif" font-size="14" lengthAdjust="spacingAndGlyphs" textLength="51" x="44" y="85.6533">Process</text><!--MD5=[b7ff3028df048458b75b57f58ef17add]
entity actor298295476--><ellipse cx="69" cy="371" fill="#FEFECE" filter="url(#f1jgi2iojwv10m)" rx="8" ry="8" style="stroke: #A80036; stroke-width: 1.5;"/><path d="M69,379 L69,406 M56,387 L82,387 M69,406 L56,421 M69,406 L82,421 " fill="none" filter="url(#f1jgi2iojwv10m)" style="stroke: #A80036; stroke-width: 1.5;"/><text fill="#000000" font-family="sans-serif" font-size="14" lengthAdjust="spacingAndGlyphs" textLength="126" x="6" y="442.6533">OutputStreamWriter</text><!--MD5=[91abf8970a3ff022ed6743739d14ea1d]
entity actor1978471002--><ellipse cx="69" cy="252" fill="#FEFECE" filter="url(#f1jgi2iojwv10m)" rx="8" ry="8" style="stroke: #A80036; stroke-width: 1.5;"/><path d="M69,260 L69,287 M56,268 L82,268 M69,287 L56,302 M69,287 L82,302 " fill="none" filter="url(#f1jgi2iojwv10m)" style="stroke: #A80036; stroke-width: 1.5;"/><text fill="#000000" font-family="sans-serif" font-size="14" lengthAdjust="spacingAndGlyphs" textLength="38" x="50" y="323.6533">Writer</text><!--MD5=[b2b17946780437d3e03a3618b26c4aa9]
entity actor1795804759--><ellipse cx="69.5" cy="728" fill="#FEFECE" filter="url(#f1jgi2iojwv10m)" rx="8" ry="8" style="stroke: #A80036; stroke-width: 1.5;"/><path d="M69.5,736 L69.5,763 M56.5,744 L82.5,744 M69.5,763 L56.5,778 M69.5,763 L82.5,778 " fill="none" filter="url(#f1jgi2iojwv10m)" style="stroke: #A80036; stroke-width: 1.5;"/><text fill="#000000" font-family="sans-serif" font-size="14" lengthAdjust="spacingAndGlyphs" textLength="81" x="29" y="799.6533">StringBuilder</text><!--MD5=[e4e1039503309ab0d43884529c74cd45]
entity actor1548698416--><ellipse cx="69.5" cy="490" fill="#FEFECE" filter="url(#f1jgi2iojwv10m)" rx="8" ry="8" style="stroke: #A80036; stroke-width: 1.5;"/><path d="M69.5,498 L69.5,525 M56.5,506 L82.5,506 M69.5,525 L56.5,540 M69.5,525 L82.5,540 " fill="none" filter="url(#f1jgi2iojwv10m)" style="stroke: #A80036; stroke-width: 1.5;"/><text fill="#000000" font-family="sans-serif" font-size="14" lengthAdjust="spacingAndGlyphs" textLength="41" x="49" y="561.6533">Object</text><!--MD5=[7e98fb6c63a3f8812a1e24aa3667afb9]
entity actor444096469--><ellipse cx="69.5" cy="1204" fill="#FEFECE" filter="url(#f1jgi2iojwv10m)" rx="8" ry="8" style="stroke: #A80036; stroke-width: 1.5;"/><path d="M69.5,1212 L69.5,1239 M56.5,1220 L82.5,1220 M69.5,1239 L56.5,1254 M69.5,1239 L82.5,1254 " fill="none" filter="url(#f1jgi2iojwv10m)" style="stroke: #A80036; stroke-width: 1.5;"/><text fill="#000000" font-family="sans-serif" font-size="14" lengthAdjust="spacingAndGlyphs" textLength="51" x="44" y="1275.6533">Member</text><!--MD5=[0bf89f2900f18adf03543591753f2c09]
entity actor602572848--><ellipse cx="69" cy="1085" fill="#FEFECE" filter="url(#f1jgi2iojwv10m)" rx="8" ry="8" style="stroke: #A80036; stroke-width: 1.5;"/><path d="M69,1093 L69,1120 M56,1101 L82,1101 M69,1120 L56,1135 M69,1120 L82,1135 " fill="none" filter="url(#f1jgi2iojwv10m)" style="stroke: #A80036; stroke-width: 1.5;"/><text fill="#000000" font-family="sans-serif" font-size="14" lengthAdjust="spacingAndGlyphs" textLength="114" x="12" y="1156.6533">AbstractCollection</text><!--MD5=[37661927b57d6338813e607196720b2f]
entity actor426792528--><ellipse cx="69.5" cy="847" fill="#FEFECE" filter="url(#f1jgi2iojwv10m)" rx="8" ry="8" style="stroke: #A80036; stroke-width: 1.5;"/><path d="M69.5,855 L69.5,882 M56.5,863 L82.5,863 M69.5,882 L56.5,897 M69.5,882 L82.5,897 " fill="none" filter="url(#f1jgi2iojwv10m)" style="stroke: #A80036; stroke-width: 1.5;"/><text fill="#000000" font-family="sans-serif" font-size="14" lengthAdjust="spacingAndGlyphs" textLength="55" x="42" y="918.6533">Function</text><!--MD5=[b8cdde3df73f4298fd171ae207d79fef]
entity actor1538456363--><ellipse cx="69" cy="966" fill="#FEFECE" filter="url(#f1jgi2iojwv10m)" rx="8" ry="8" style="stroke: #A80036; stroke-width: 1.5;"/><path d="M69,974 L69,1001 M56,982 L82,982 M69,1001 L56,1016 M69,1001 L82,1016 " fill="none" filter="url(#f1jgi2iojwv10m)" style="stroke: #A80036; stroke-width: 1.5;"/><text fill="#000000" font-family="sans-serif" font-size="14" lengthAdjust="spacingAndGlyphs" textLength="56" x="41" y="1037.6533">ArrayList</text><!--MD5=[0abbfa3add3852e207673c82765dc93f]
link actor266906347 to UC1695161087--><path d="M98.1184,637.318 C110.777,628.725 124.423,615.144 132,599.5 C173.606,513.598 110.77,247.89 168,171.5 C184.4,149.61 216.852,141.81 237.434,134.31 " fill="none" id="actor266906347-UC1695161087" style="stroke: #A80036; stroke-width: 1.0;"/><!--MD5=[0abbfa3add3852e207673c82765dc93f]
link actor266906347 to UC1695161087--><path d="M98.1184,605.575 C110.777,593.725 124.423,580.144 132,564.5 C173.606,478.598 110.77,212.89 168,136.5 C183.026,116.45 211.524,108.22 232.024,108.69 " fill="none" id="actor266906347-UC1695161087-1" style="stroke: #A80036; stroke-width: 1.0;"/><!--MD5=[0485113ecd08d6b045118c3b2e30ba1d]
link actor266906347 to UC1001114349--><path d="M98.2722,636.615 C110.643,627.95 124.01,614.599 132,599.5 C180.394,508.048 135.197,467.629 168,369.5 C189.512,305.148 234.553,235.9 250.366,203.38 " fill="none" id="actor266906347-UC1001114349" style="stroke: #A80036; stroke-width: 1.0;"/><!--MD5=[0485113ecd08d6b045118c3b2e30ba1d]
link actor266906347 to UC1001114349--><path d="M98.2722,604.706 C110.643,592.95 124.01,579.599 132,564.5 C180.394,473.048 135.197,432.629 168,334.5 C185.395,282.464 218.174,227.22 238.445,200.87 " fill="none" id="actor266906347-UC1001114349-1" style="stroke: #A80036; stroke-width: 1.0;"/><!--MD5=[fac2663d2f1db04fd2672b08487a7edd]
link actor731802107 to UC1001114349--><path d="M106.393,180.34 C142.205,187.94 195.444,193.87 227.814,193.62 " fill="none" id="actor731802107-UC1001114349" style="stroke: #A80036; stroke-width: 1.0;"/><!--MD5=[fac2663d2f1db04fd2672b08487a7edd]
link actor731802107 to UC1001114349--><path d="M106.393,158.85 C144.87,159.52 203.463,167.11 234.678,176.03 " fill="none" id="actor731802107-UC1001114349-1" style="stroke: #A80036; stroke-width: 1.0;"/><!--MD5=[9b47e7d95a96fb0e9f4fef5bd88cbe90]
link actor431996456 to UC1695161087--><path d="M94.6095,65.73 C127.419,83.19 184.426,106.11 221.162,116.9 " fill="none" id="actor431996456-UC1695161087" style="stroke: #A80036; stroke-width: 1.0;"/><!--MD5=[9b47e7d95a96fb0e9f4fef5bd88cbe90]
link actor431996456 to UC1695161087--><path d="M94.6095,47 C133.821,56.86 207.594,86.61 240.021,106.21 " fill="none" id="actor431996456-UC1695161087-1" style="stroke: #A80036; stroke-width: 1.0;"/><!--MD5=[5f8dfcd7f43e5745efea5dbffdadf103]
link actor266906347 to UC743936514--><path d="M98.1754,620.616 C110.373,610.439 123.629,597.219 132,582.5 C168.893,517.633 119.409,475.136 168,418.5 C184.317,399.481 212.563,391.051 232.651,387.347 " fill="none" id="actor266906347-UC743936514" style="stroke: #A80036; stroke-width: 1.0;"/><!--MD5=[86c9a2f124a2462111558814854b8f4c]
link actor266906347 to UC1238292935--><path d="M98.201,614.837 C108.961,604.835 121.163,593.279 132,582.5 C173.741,540.981 221.049,489.794 243.236,465.53 " fill="none" id="actor266906347-UC1238292935" style="stroke: #A80036; stroke-width: 1.0;"/><!--MD5=[7f229b0d55b603d96acef455fcd4dc1a]
link actor298295476 to UC1238292935--><path d="M132.049,419.684 C166.191,428.447 206.414,438.772 231.566,445.228 " fill="none" id="actor298295476-UC1238292935" style="stroke: #A80036; stroke-width: 1.0;"/><!--MD5=[be64261ecc075bdca6225fa740ac7dc6]
link actor1978471002 to UC743936514--><path d="M88.308,294.825 C124.422,314.137 201.748,355.488 237.352,374.528 " fill="none" id="actor1978471002-UC743936514" style="stroke: #A80036; stroke-width: 1.0;"/><!--MD5=[36b2833f2e3b183243a021d707841e83]
link actor266906347 to UC1698322791--><path d="M80.6703,683.721 C98.6728,715.852 134.634,741.557 168,758.5 C200.734,775.122 243.906,788.017 253.881,755.592 " fill="none" id="actor266906347-UC1698322791" style="stroke: #A80036; stroke-width: 1.0;"/><!--MD5=[36b2833f2e3b183243a021d707841e83]
link actor266906347 to UC1698322791--><path d="M98.2845,677.779 C117.461,693.801 143.434,711.025 168,723.5 C184.585,731.922 203.85,739.387 220.119,743.576 " fill="none" id="actor266906347-UC1698322791-1" style="stroke: #A80036; stroke-width: 1.0;"/><!--MD5=[36b2833f2e3b183243a021d707841e83]
link actor266906347 to UC1698322791--><path d="M98.2845,647.799 C117.461,658.801 143.434,676.025 168,688.5 C194.187,701.798 227.054,712.71 244.261,724.275 " fill="none" id="actor266906347-UC1698322791-2" style="stroke: #A80036; stroke-width: 1.0;"/><!--MD5=[36b2833f2e3b183243a021d707841e83]
link actor266906347 to UC1698322791--><path d="M98.2845,617.818 C117.461,623.801 143.434,641.025 168,653.5 C201.17,670.344 245.059,683.361 254.263,723.449 " fill="none" id="actor266906347-UC1698322791-3" style="stroke: #A80036; stroke-width: 1.0;"/><!--MD5=[7b32a627b37f6b56c89a98b1e48db527]
link actor266906347 to UC1518712038--><path d="M98.2188,655.562 C140.129,657.953 215.438,641.413 244.302,621.311 " fill="none" id="actor266906347-UC1518712038" style="stroke: #A80036; stroke-width: 1.0;"/><!--MD5=[7b32a627b37f6b56c89a98b1e48db527]
link actor266906347 to UC1518712038--><path d="M98.2188,635.875 C129.138,629.923 178.235,620.471 213.45,613.691 " fill="none" id="actor266906347-UC1518712038-1" style="stroke: #A80036; stroke-width: 1.0;"/><!--MD5=[7b32a627b37f6b56c89a98b1e48db527]
link actor266906347 to UC1518712038--><path d="M98.2188,616.187 C134.685,600.067 196.436,588.543 230.877,591.742 " fill="none" id="actor266906347-UC1518712038-2" style="stroke: #A80036; stroke-width: 1.0;"/><!--MD5=[7820edf9037d94f52c77640f00dd1ee6]
link actor266906347 to UC1986751746--><path d="M98.2188,646.344 C131.398,651.844 185.509,660.814 220.936,666.687 " fill="none" id="actor266906347-UC1986751746" style="stroke: #A80036; stroke-width: 1.0;"/><!--MD5=[b76e54f9f7cf040f3c7409f8fd9fd505]
link actor1795804759 to UC1986751746--><path d="M109.807,736.679 C127.435,726.8 148.461,715.556 168,706.5 C187.169,697.615 209.365,689.051 226.669,682.741 " fill="none" id="actor1795804759-UC1986751746" style="stroke: #A80036; stroke-width: 1.0;"/><!--MD5=[4e3c5a48084d1a263f63cc39ca222e6f]
link actor1548698416 to UC1518712038--><path d="M89.7268,548.937 C117.874,570.832 169.05,595.592 207.219,607.224 " fill="none" id="actor1548698416-UC1518712038" style="stroke: #A80036; stroke-width: 1.0;"/><!--MD5=[4e3c5a48084d1a263f63cc39ca222e6f]
link actor1548698416 to UC1518712038--><path d="M89.7268,531.7 C123.104,546.514 188.862,575.701 226.918,592.592 " fill="none" id="actor1548698416-UC1518712038-1" style="stroke: #A80036; stroke-width: 1.0;"/><!--MD5=[4e3c5a48084d1a263f63cc39ca222e6f]
link actor1548698416 to UC1518712038--><path d="M89.7268,514.462 C130.236,518.912 218.442,559.767 246.931,589.352 " fill="none" id="actor1548698416-UC1518712038-2" style="stroke: #A80036; stroke-width: 1.0;"/><!--MD5=[c8465fc9a2d2c8d348a544e77e1e1188]
link actor1795804759 to UC1698322791--><path d="M109.576,788.752 C155.981,795.764 228.319,781.765 249.792,755.379 " fill="none" id="actor1795804759-UC1698322791" style="stroke: #A80036; stroke-width: 1.0;"/><!--MD5=[c8465fc9a2d2c8d348a544e77e1e1188]
link actor1795804759 to UC1698322791--><path d="M109.576,766.669 C146.528,765.702 199.924,759.135 230.986,751.325 " fill="none" id="actor1795804759-UC1698322791-1" style="stroke: #A80036; stroke-width: 1.0;"/><!--MD5=[c8465fc9a2d2c8d348a544e77e1e1188]
link actor1795804759 to UC1698322791--><path d="M109.576,744.586 C143.306,737.723 190.736,732.631 222.376,732.623 " fill="none" id="actor1795804759-UC1698322791-2" style="stroke: #A80036; stroke-width: 1.0;"/><!--MD5=[c8465fc9a2d2c8d348a544e77e1e1188]
link actor1795804759 to UC1698322791--><path d="M109.576,722.504 C155.122,705.161 225.649,702.784 248.547,723.525 " fill="none" id="actor1795804759-UC1698322791-3" style="stroke: #A80036; stroke-width: 1.0;"/><!--MD5=[9c94c87f003021d684de253997818726]
link actor266906347 to UC731573979--><path d="M98.2467,661.899 C110.771,672.258 124.269,685.945 132,701.5 C195.305,828.872 106.614,891.192 168,1019.5 C183.38,1051.646 215.169,1079.131 236.032,1094.734 " fill="none" id="actor266906347-UC731573979" style="stroke: #A80036; stroke-width: 1.0;"/><!--MD5=[fd5acefad682a822993b07eb050028fa]
link actor266906347 to UC104105431--><path d="M98.1412,661.522 C110.805,671.889 124.448,685.69 132,701.5 C174.38,790.224 108.75,1064.031 168,1142.5 C177.046,1154.48 190.955,1162.111 205.064,1166.972 " fill="none" id="actor266906347-UC104105431" style="stroke: #A80036; stroke-width: 1.0;"/><!--MD5=[18f523fbc6ff868651dc1c65628eecd5]
link actor444096469 to UC104105431--><path d="M94.6095,1228.1461 C126.519,1217.7373 181.316,1199.8623 218.094,1187.8652 " fill="none" id="actor444096469-UC104105431" style="stroke: #A80036; stroke-width: 1.0;"/><!--MD5=[db8af73f162afe7a7a6342c36a1ff0e5]
link actor602572848 to UC731573979--><path d="M126.122,1114.751 C156.197,1113.303 192.22,1111.57 218.691,1110.296 " fill="none" id="actor602572848-UC731573979" style="stroke: #A80036; stroke-width: 1.0;"/><!--MD5=[945380fa92f4a560dd610cb0c859c61f]
link actor266906347 to UC93981118--><path d="M98.0234,665.378 C109.487,675.72 122.227,688.439 132,701.5 C152.96,729.511 147.852,742.9 168,771.5 C189.372,801.837 220.028,832.355 238.942,850.063 " fill="none" id="actor266906347-UC93981118" style="stroke: #A80036; stroke-width: 1.0;"/><!--MD5=[bb2670bf5da00781a8a4a074d74614ed]
link actor426792528 to UC93981118--><path d="M96.5925,877.434 C122.296,875.51 161.521,872.573 194.628,870.095 " fill="none" id="actor426792528-UC93981118" style="stroke: #A80036; stroke-width: 1.0;"/><!--MD5=[d5af39581100d9eefe4326f759391df9]
link actor266906347 to UC2030748640--><path d="M98.0874,662.422 C110.421,672.799 123.81,686.354 132,701.5 C174.129,779.407 127.266,818.855 168,897.5 C185.689,931.652 220.649,961.384 240.772,976.631 " fill="none" id="actor266906347-UC2030748640" style="stroke: #A80036; stroke-width: 1.0;"/><!--MD5=[30fcb46356906efe6d1db675dc656944]
link actor1538456363 to UC2030748640--><path d="M97.4013,996.829 C135.614,994.582 202.626,990.64 235.974,988.678 " fill="none" id="actor1538456363-UC2030748640" style="stroke: #A80036; stroke-width: 1.0;"/><!--MD5=[aeefdcc22354d1f271ac36ea97ab969f]
@startuml
 left to right direction

actor ForQuiz3 as actor266906347

	rectangle main{
	 usecase waitFor as UC1695161087
	actor266906347- -UC1695161087
	 usecase println as UC1001114349
	actor266906347- -UC1001114349
	}
	actor PrintStream as actor731802107
	actor731802107 - - UC1001114349
	actor Process as actor431996456
	actor431996456 - - UC1695161087
	rectangle main{
	 usecase waitFor as UC1695161087
	actor266906347- -UC1695161087
	 usecase println as UC1001114349
	actor266906347- -UC1001114349
	}
	actor PrintStream as actor731802107
	actor731802107 - - UC1001114349
	actor Process as actor431996456
	actor431996456 - - UC1695161087
	rectangle makeFile{
	 usecase write as UC743936514
	actor266906347- -UC743936514
	 usecase close as UC1238292935
	actor266906347- -UC1238292935
	}
	actor OutputStreamWriter as actor298295476
	actor298295476 - - UC1238292935
	actor Writer as actor1978471002
	actor1978471002 - - UC743936514
	rectangle makeScript{
	 usecase append as UC1698322791
	actor266906347- -UC1698322791
	 usecase hashCode as UC1518712038
	actor266906347- -UC1518712038
	 usecase toString as UC1986751746
	actor266906347- -UC1986751746
	}
	actor StringBuilder as actor1795804759
	actor1795804759 - - UC1986751746
	actor Object as actor1548698416
	actor1548698416 - - UC1518712038
	actor StringBuilder as actor1795804759
	actor1795804759 - - UC1698322791
	rectangle makeMemberInfo{
	 usecase append as UC1698322791
	actor266906347- -UC1698322791
	 usecase toString as UC731573979
	actor266906347- -UC731573979
	 usecase getImageList as UC104105431
	actor266906347- -UC104105431
	}
	actor Member as actor444096469
	actor444096469 - - UC104105431
	actor AbstractCollection as actor602572848
	actor602572848 - - UC731573979
	actor StringBuilder as actor1795804759
	actor1795804759 - - UC1698322791
	rectangle makeFunctionInfo{
	 usecase append as UC1698322791
	actor266906347- -UC1698322791
	 usecase hashCode as UC1518712038
	actor266906347- -UC1518712038
	 usecase getHeadNode as UC93981118
	actor266906347- -UC93981118
	}
	actor Function as actor426792528
	actor426792528 - - UC93981118
	actor Object as actor1548698416
	actor1548698416 - - UC1518712038
	actor StringBuilder as actor1795804759
	actor1795804759 - - UC1698322791
	rectangle makeExpInfo{
	 usecase add as UC2030748640
	actor266906347- -UC2030748640
	 usecase append as UC1698322791
	actor266906347- -UC1698322791
	 usecase hashCode as UC1518712038
	actor266906347- -UC1518712038
	}
	actor Object as actor1548698416
	actor1548698416 - - UC1518712038
	actor StringBuilder as actor1795804759
	actor1795804759 - - UC1698322791
	actor ArrayList as actor1538456363
	actor1538456363 - - UC2030748640

@enduml

PlantUML version 1.2020.19(Tue Oct 13 00:10:01 KST 2020)
(APACHE source distribution)
Java Runtime: Java(TM) SE Runtime Environment
JVM: Java HotSpot(TM) 64-Bit Server VM
Default Encoding: MS949
Language: ko
Country: KR
--></g></svg>