<?xml version="1.0" encoding="UTF-8" standalone="no"?><svg xmlns="http://www.w3.org/2000/svg" xmlns:xlink="http://www.w3.org/1999/xlink" contentScriptType="application/ecmascript" contentStyleType="text/css" height="1403px" preserveAspectRatio="none" style="width:348px;height:1403px;" version="1.1" viewBox="0 0 348 1403" width="348px" zoomAndPan="magnify"><defs><filter height="300%" id="fkq1nc9meh66p" width="300%" x="-1" y="-1"><feGaussianBlur result="blurOut" stdDeviation="2.0"/><feColorMatrix in="blurOut" result="blurOut2" type="matrix" values="0 0 0 0 0 0 0 0 0 0 0 0 0 0 0 0 0 0 .4 0"/><feOffset dx="4.0" dy="4.0" in="blurOut2" result="blurOut3"/><feBlend in="SourceGraphic" in2="blurOut3" mode="normal"/></filter></defs><g><!--MD5=[a70b0d373322012744ecc119c63f921b]
cluster main--><rect fill="#FFFFFF" filter="url(#fkq1nc9meh66p)" height="154" style="stroke: #000000; stroke-width: 1.5;" width="104" x="204" y="72.5"/><text fill="#000000" font-family="sans-serif" font-size="14" font-weight="bold" lengthAdjust="spacingAndGlyphs" textLength="33" x="239.5" y="90.6533">main</text><!--MD5=[1e829f21a74d4de467c1b519aceec237]
cluster makeFile--><rect fill="#FFFFFF" filter="url(#fkq1nc9meh66p)" height="154" style="stroke: #000000; stroke-width: 1.5;" width="86" x="213" y="285.5"/><text fill="#000000" font-family="sans-serif" font-size="14" font-weight="bold" lengthAdjust="spacingAndGlyphs" textLength="63" x="224.5" y="303.6533">makeFile</text><!--MD5=[1cc943b86f50fda51864bd79c3035393]
cluster makeScript--><rect fill="#FFFFFF" filter="url(#fkq1nc9meh66p)" height="221" style="stroke: #000000; stroke-width: 1.5;" width="130" x="191" y="468.5"/><text fill="#000000" font-family="sans-serif" font-size="14" font-weight="bold" lengthAdjust="spacingAndGlyphs" textLength="78" x="217" y="486.6533">makeScript</text><!--MD5=[25e01daf03fc02f3d0ae647926ef4273]
cluster makeMemberInfo--><rect fill="#FFFFFF" filter="url(#fkq1nc9meh66p)" height="154" style="stroke: #000000; stroke-width: 1.5;" width="152" x="180" y="714.5"/><text fill="#000000" font-family="sans-serif" font-size="14" font-weight="bold" lengthAdjust="spacingAndGlyphs" textLength="122" x="195" y="732.6533">makeMemberInfo</text><!--MD5=[00f16b784483aebc7df27d93db3e9ac8]
cluster makeFunctionInfo--><rect fill="#FFFFFF" filter="url(#fkq1nc9meh66p)" height="87" style="stroke: #000000; stroke-width: 1.5;" width="160" x="176" y="892.5"/><text fill="#000000" font-family="sans-serif" font-size="14" font-weight="bold" lengthAdjust="spacingAndGlyphs" textLength="126" x="193" y="910.6533">makeFunctionInfo</text><!--MD5=[e7bc2f6ef5e02a2474172b84c930eaaf]
cluster nextThen--><rect fill="#FFFFFF" filter="url(#fkq1nc9meh66p)" height="154" style="stroke: #000000; stroke-width: 1.5;" width="114" x="199" y="1114.5"/><text fill="#000000" font-family="sans-serif" font-size="14" font-weight="bold" lengthAdjust="spacingAndGlyphs" textLength="66" x="223" y="1132.6533">nextThen</text><!--MD5=[a1b6db54bcd003d53b3d875852bf00f3]
cluster nextElse--><rect fill="#FFFFFF" filter="url(#fkq1nc9meh66p)" height="87" style="stroke: #000000; stroke-width: 1.5;" width="104" x="204" y="1003.5"/><text fill="#000000" font-family="sans-serif" font-size="14" font-weight="bold" lengthAdjust="spacingAndGlyphs" textLength="61" x="225.5" y="1021.6533">nextElse</text><!--MD5=[1b8ffe1225e9a60f44b59857f1cb006c]
cluster makeExpInfo--><rect fill="#FFFFFF" filter="url(#fkq1nc9meh66p)" height="87" style="stroke: #000000; stroke-width: 1.5;" width="107" x="203" y="1296.5"/><text fill="#000000" font-family="sans-serif" font-size="14" font-weight="bold" lengthAdjust="spacingAndGlyphs" textLength="90" x="211.5" y="1314.6533">makeExpInfo</text><ellipse cx="256.5269" cy="194.5973" fill="#FEFECE" filter="url(#fkq1nc9meh66p)" rx="35.5269" ry="16.5973" style="stroke: #A80036; stroke-width: 1.5;"/><text fill="#000000" font-family="sans-serif" font-size="14" lengthAdjust="spacingAndGlyphs" textLength="46" x="233.5269" y="200.7121">waitFor</text><ellipse cx="256.5772" cy="127.5973" fill="#FEFECE" filter="url(#fkq1nc9meh66p)" rx="30.5772" ry="16.5973" style="stroke: #A80036; stroke-width: 1.5;"/><text fill="#000000" font-family="sans-serif" font-size="14" lengthAdjust="spacingAndGlyphs" textLength="39" x="237.0772" y="133.7121">println</text><ellipse cx="256.5061" cy="407.5973" fill="#FEFECE" filter="url(#fkq1nc9meh66p)" rx="23.5061" ry="16.5973" style="stroke: #A80036; stroke-width: 1.5;"/><text fill="#000000" font-family="sans-serif" font-size="14" lengthAdjust="spacingAndGlyphs" textLength="29" x="242.0061" y="413.7121">write</text><ellipse cx="256.3345" cy="340.5973" fill="#FEFECE" filter="url(#fkq1nc9meh66p)" rx="26.3345" ry="16.5973" style="stroke: #A80036; stroke-width: 1.5;"/><text fill="#000000" font-family="sans-serif" font-size="14" lengthAdjust="spacingAndGlyphs" textLength="33" x="239.8345" y="346.7121">close</text><ellipse cx="255.9411" cy="590.5973" fill="#FEFECE" filter="url(#fkq1nc9meh66p)" rx="36.9411" ry="16.5973" style="stroke: #A80036; stroke-width: 1.5;"/><text fill="#000000" font-family="sans-serif" font-size="14" lengthAdjust="spacingAndGlyphs" textLength="48" x="231.9411" y="596.7121">append</text><ellipse cx="255.9619" cy="657.5973" fill="#FEFECE" filter="url(#fkq1nc9meh66p)" rx="48.9619" ry="16.5973" style="stroke: #A80036; stroke-width: 1.5;"/><text fill="#000000" font-family="sans-serif" font-size="14" lengthAdjust="spacingAndGlyphs" textLength="65" x="223.4619" y="663.7121">hashCode</text><ellipse cx="256.6482" cy="523.5973" fill="#FEFECE" filter="url(#fkq1nc9meh66p)" rx="37.6482" ry="16.5973" style="stroke: #A80036; stroke-width: 1.5;"/><text fill="#000000" font-family="sans-serif" font-size="14" lengthAdjust="spacingAndGlyphs" textLength="49" x="232.1482" y="529.7121">toString</text><ellipse cx="256.6482" cy="836.5973" fill="#FEFECE" filter="url(#fkq1nc9meh66p)" rx="37.6482" ry="16.5973" style="stroke: #A80036; stroke-width: 1.5;"/><text fill="#000000" font-family="sans-serif" font-size="14" lengthAdjust="spacingAndGlyphs" textLength="49" x="232.1482" y="842.7121">toString</text><ellipse cx="256.5685" cy="769.5973" fill="#FEFECE" filter="url(#fkq1nc9meh66p)" rx="59.5685" ry="16.5973" style="stroke: #A80036; stroke-width: 1.5;"/><text fill="#000000" font-family="sans-serif" font-size="14" lengthAdjust="spacingAndGlyphs" textLength="80" x="216.5685" y="775.7121">getImageList</text><ellipse cx="255.8112" cy="947.5973" fill="#FEFECE" filter="url(#fkq1nc9meh66p)" rx="63.8112" ry="16.5973" style="stroke: #A80036; stroke-width: 1.5;"/><text fill="#000000" font-family="sans-serif" font-size="14" lengthAdjust="spacingAndGlyphs" textLength="86" x="212.8112" y="953.7121">getHeadNode</text><ellipse cx="256.4767" cy="1169.5973" fill="#FEFECE" filter="url(#fkq1nc9meh66p)" rx="40.4767" ry="16.5973" style="stroke: #A80036; stroke-width: 1.5;"/><text fill="#000000" font-family="sans-serif" font-size="14" lengthAdjust="spacingAndGlyphs" textLength="53" x="229.9767" y="1175.7121">getThen</text><ellipse cx="256.1127" cy="1236.5973" fill="#FEFECE" filter="url(#fkq1nc9meh66p)" rx="34.1127" ry="16.5973" style="stroke: #A80036; stroke-width: 1.5;"/><text fill="#000000" font-family="sans-serif" font-size="14" lengthAdjust="spacingAndGlyphs" textLength="44" x="234.1127" y="1242.7121">getKey</text><ellipse cx="256.234" cy="1058.5973" fill="#FEFECE" filter="url(#fkq1nc9meh66p)" rx="36.234" ry="16.5973" style="stroke: #A80036; stroke-width: 1.5;"/><text fill="#000000" font-family="sans-serif" font-size="14" lengthAdjust="spacingAndGlyphs" textLength="47" x="232.734" y="1064.7121">getElse</text><ellipse cx="255.9836" cy="1351.5869" fill="#FEFECE" filter="url(#fkq1nc9meh66p)" rx="19.9836" ry="16.5869" style="stroke: #A80036; stroke-width: 1.5;"/><text fill="#000000" font-family="sans-serif" font-size="14" lengthAdjust="spacingAndGlyphs" textLength="24" x="243.9836" y="1357.7016">add</text><!--MD5=[792e79a8ff5ee56f9a54f9470a75fcc4]
entity actor1805031342--><ellipse cx="69" cy="609" fill="#FEFECE" filter="url(#fkq1nc9meh66p)" rx="8" ry="8" style="stroke: #A80036; stroke-width: 1.5;"/><path d="M69,617 L69,644 M56,625 L82,625 M69,644 L56,659 M69,644 L82,659 " fill="none" filter="url(#fkq1nc9meh66p)" style="stroke: #A80036; stroke-width: 1.5;"/><text fill="#000000" font-family="sans-serif" font-size="14" lengthAdjust="spacingAndGlyphs" textLength="58" x="40" y="680.6533">ForQuiz4</text><!--MD5=[c6373e6f06c0704c33390c3718060f35]
entity actor731802107--><ellipse cx="69" cy="14" fill="#FEFECE" filter="url(#fkq1nc9meh66p)" rx="8" ry="8" style="stroke: #A80036; stroke-width: 1.5;"/><path d="M69,22 L69,49 M56,30 L82,30 M69,49 L56,64 M69,49 L82,64 " fill="none" filter="url(#fkq1nc9meh66p)" style="stroke: #A80036; stroke-width: 1.5;"/><text fill="#000000" font-family="sans-serif" font-size="14" lengthAdjust="spacingAndGlyphs" textLength="74" x="32" y="85.6533">PrintStream</text><!--MD5=[062a681f1f9b86810eaa79255c6621ce]
entity actor431996456--><ellipse cx="69.5" cy="133" fill="#FEFECE" filter="url(#fkq1nc9meh66p)" rx="8" ry="8" style="stroke: #A80036; stroke-width: 1.5;"/><path d="M69.5,141 L69.5,168 M56.5,149 L82.5,149 M69.5,168 L56.5,183 M69.5,168 L82.5,183 " fill="none" filter="url(#fkq1nc9meh66p)" style="stroke: #A80036; stroke-width: 1.5;"/><text fill="#000000" font-family="sans-serif" font-size="14" lengthAdjust="spacingAndGlyphs" textLength="51" x="44" y="204.6533">Process</text><!--MD5=[b7ff3028df048458b75b57f58ef17add]
entity actor298295476--><ellipse cx="69" cy="252" fill="#FEFECE" filter="url(#fkq1nc9meh66p)" rx="8" ry="8" style="stroke: #A80036; stroke-width: 1.5;"/><path d="M69,260 L69,287 M56,268 L82,268 M69,287 L56,302 M69,287 L82,302 " fill="none" filter="url(#fkq1nc9meh66p)" style="stroke: #A80036; stroke-width: 1.5;"/><text fill="#000000" font-family="sans-serif" font-size="14" lengthAdjust="spacingAndGlyphs" textLength="126" x="6" y="323.6533">OutputStreamWriter</text><!--MD5=[91abf8970a3ff022ed6743739d14ea1d]
entity actor1978471002--><ellipse cx="69" cy="371" fill="#FEFECE" filter="url(#fkq1nc9meh66p)" rx="8" ry="8" style="stroke: #A80036; stroke-width: 1.5;"/><path d="M69,379 L69,406 M56,387 L82,387 M69,406 L56,421 M69,406 L82,421 " fill="none" filter="url(#fkq1nc9meh66p)" style="stroke: #A80036; stroke-width: 1.5;"/><text fill="#000000" font-family="sans-serif" font-size="14" lengthAdjust="spacingAndGlyphs" textLength="38" x="50" y="442.6533">Writer</text><!--MD5=[b2b17946780437d3e03a3618b26c4aa9]
entity actor1795804759--><ellipse cx="69.5" cy="490" fill="#FEFECE" filter="url(#fkq1nc9meh66p)" rx="8" ry="8" style="stroke: #A80036; stroke-width: 1.5;"/><path d="M69.5,498 L69.5,525 M56.5,506 L82.5,506 M69.5,525 L56.5,540 M69.5,525 L82.5,540 " fill="none" filter="url(#fkq1nc9meh66p)" style="stroke: #A80036; stroke-width: 1.5;"/><text fill="#000000" font-family="sans-serif" font-size="14" lengthAdjust="spacingAndGlyphs" textLength="81" x="29" y="561.6533">StringBuilder</text><!--MD5=[e4e1039503309ab0d43884529c74cd45]
entity actor1548698416--><ellipse cx="69.5" cy="728" fill="#FEFECE" filter="url(#fkq1nc9meh66p)" rx="8" ry="8" style="stroke: #A80036; stroke-width: 1.5;"/><path d="M69.5,736 L69.5,763 M56.5,744 L82.5,744 M69.5,763 L56.5,778 M69.5,763 L82.5,778 " fill="none" filter="url(#fkq1nc9meh66p)" style="stroke: #A80036; stroke-width: 1.5;"/><text fill="#000000" font-family="sans-serif" font-size="14" lengthAdjust="spacingAndGlyphs" textLength="41" x="49" y="799.6533">Object</text><!--MD5=[7e98fb6c63a3f8812a1e24aa3667afb9]
entity actor444096469--><ellipse cx="69.5" cy="847" fill="#FEFECE" filter="url(#fkq1nc9meh66p)" rx="8" ry="8" style="stroke: #A80036; stroke-width: 1.5;"/><path d="M69.5,855 L69.5,882 M56.5,863 L82.5,863 M69.5,882 L56.5,897 M69.5,882 L82.5,897 " fill="none" filter="url(#fkq1nc9meh66p)" style="stroke: #A80036; stroke-width: 1.5;"/><text fill="#000000" font-family="sans-serif" font-size="14" lengthAdjust="spacingAndGlyphs" textLength="51" x="44" y="918.6533">Member</text><!--MD5=[0bf89f2900f18adf03543591753f2c09]
entity actor602572848--><ellipse cx="69" cy="966" fill="#FEFECE" filter="url(#fkq1nc9meh66p)" rx="8" ry="8" style="stroke: #A80036; stroke-width: 1.5;"/><path d="M69,974 L69,1001 M56,982 L82,982 M69,1001 L56,1016 M69,1001 L82,1016 " fill="none" filter="url(#fkq1nc9meh66p)" style="stroke: #A80036; stroke-width: 1.5;"/><text fill="#000000" font-family="sans-serif" font-size="14" lengthAdjust="spacingAndGlyphs" textLength="114" x="12" y="1037.6533">AbstractCollection</text><!--MD5=[37661927b57d6338813e607196720b2f]
entity actor426792528--><ellipse cx="69.5" cy="1085" fill="#FEFECE" filter="url(#fkq1nc9meh66p)" rx="8" ry="8" style="stroke: #A80036; stroke-width: 1.5;"/><path d="M69.5,1093 L69.5,1120 M56.5,1101 L82.5,1101 M69.5,1120 L56.5,1135 M69.5,1120 L82.5,1135 " fill="none" filter="url(#fkq1nc9meh66p)" style="stroke: #A80036; stroke-width: 1.5;"/><text fill="#000000" font-family="sans-serif" font-size="14" lengthAdjust="spacingAndGlyphs" textLength="55" x="42" y="1156.6533">Function</text><!--MD5=[100d7707da49a145ccc5de2dd9cc0e59]
entity actor2083220171--><ellipse cx="69" cy="1204" fill="#FEFECE" filter="url(#fkq1nc9meh66p)" rx="8" ry="8" style="stroke: #A80036; stroke-width: 1.5;"/><path d="M69,1212 L69,1239 M56,1220 L82,1220 M69,1239 L56,1254 M69,1239 L82,1254 " fill="none" filter="url(#fkq1nc9meh66p)" style="stroke: #A80036; stroke-width: 1.5;"/><text fill="#000000" font-family="sans-serif" font-size="14" lengthAdjust="spacingAndGlyphs" textLength="66" x="36" y="1275.6533">StateNode</text><!--MD5=[b8cdde3df73f4298fd171ae207d79fef]
entity actor1538456363--><ellipse cx="69" cy="1323" fill="#FEFECE" filter="url(#fkq1nc9meh66p)" rx="8" ry="8" style="stroke: #A80036; stroke-width: 1.5;"/><path d="M69,1331 L69,1358 M56,1339 L82,1339 M69,1358 L56,1373 M69,1358 L82,1373 " fill="none" filter="url(#fkq1nc9meh66p)" style="stroke: #A80036; stroke-width: 1.5;"/><text fill="#000000" font-family="sans-serif" font-size="14" lengthAdjust="spacingAndGlyphs" textLength="56" x="41" y="1394.6533">ArrayList</text><!--MD5=[70dda9b52aacb2eb524716e3e028721d]
link actor1805031342 to UC1695161087--><path d="M98.1181,636.931 C110.615,628.293 124.128,614.83 132,599.5 C188.107,490.24 120.848,438.913 168,325.5 C187.293,279.1 230.539,235.28 248.231,210.37 " fill="none" id="actor1805031342-UC1695161087" style="stroke: #A80036; stroke-width: 1.0;"/><!--MD5=[70dda9b52aacb2eb524716e3e028721d]
link actor1805031342 to UC1695161087--><path d="M98.1181,605.104 C110.615,593.293 124.128,579.83 132,564.5 C188.107,455.24 120.848,403.913 168,290.5 C182.206,256.33 209.398,223.57 229.813,205.48 " fill="none" id="actor1805031342-UC1695161087-1" style="stroke: #A80036; stroke-width: 1.0;"/><!--MD5=[1f21ff9f4cc3b6cce4107bec3b9340a3]
link actor1805031342 to UC1001114349--><path d="M98.1086,653.639 C110.765,646.719 124.412,633.139 132,617.5 C172.989,533.022 111.647,271.61 168,196.5 C188.642,168.99 234.635,163.73 250.497,143.41 " fill="none" id="actor1805031342-UC1001114349" style="stroke: #A80036; stroke-width: 1.0;"/><!--MD5=[1f21ff9f4cc3b6cce4107bec3b9340a3]
link actor1805031342 to UC1001114349--><path d="M98.1086,621.895 C110.765,611.719 124.412,598.139 132,582.5 C172.989,498.022 111.647,236.61 168,161.5 C181.565,143.42 206.077,134.95 225.792,130.99 " fill="none" id="actor1805031342-UC1001114349-1" style="stroke: #A80036; stroke-width: 1.0;"/><!--MD5=[1f21ff9f4cc3b6cce4107bec3b9340a3]
link actor1805031342 to UC1001114349--><path d="M89.8267,599.183 C104.3435,582.703 122.711,566.644 132,547.5 C172.989,463.022 111.647,201.61 168,126.5 C188.446,99.25 233.761,93.84 250.035,111.54 " fill="none" id="actor1805031342-UC1001114349-2" style="stroke: #A80036; stroke-width: 1.0;"/><!--MD5=[fac2663d2f1db04fd2672b08487a7edd]
link actor731802107 to UC1001114349--><path d="M106.393,84.19 C142.632,106.94 196.714,129.58 228.962,134.91 " fill="none" id="actor731802107-UC1001114349" style="stroke: #A80036; stroke-width: 1.0;"/><!--MD5=[fac2663d2f1db04fd2672b08487a7edd]
link actor731802107 to UC1001114349--><path d="M106.393,62.7 C143.911,78.95 200.554,103.48 232.293,117.23 " fill="none" id="actor731802107-UC1001114349-1" style="stroke: #A80036; stroke-width: 1.0;"/><!--MD5=[fac2663d2f1db04fd2672b08487a7edd]
link actor731802107 to UC1001114349--><path d="M106.393,41.21 C150.945,51.83 222.468,85.99 247.228,111.76 " fill="none" id="actor731802107-UC1001114349-2" style="stroke: #A80036; stroke-width: 1.0;"/><!--MD5=[9b47e7d95a96fb0e9f4fef5bd88cbe90]
link actor431996456 to UC1695161087--><path d="M94.6095,178.57 C127.619,188.19 185.122,197.45 221.832,199.32 " fill="none" id="actor431996456-UC1695161087" style="stroke: #A80036; stroke-width: 1.0;"/><!--MD5=[9b47e7d95a96fb0e9f4fef5bd88cbe90]
link actor431996456 to UC1695161087--><path d="M94.6095,159.84 C131.42,160.23 198.69,170.83 233.618,181.89 " fill="none" id="actor431996456-UC1695161087-1" style="stroke: #A80036; stroke-width: 1.0;"/><!--MD5=[2b75a43b8d673a322b4d88a6d82fa506]
link actor1805031342 to UC743936514--><path d="M98.053,619.116 C109.792,608.938 122.728,596.128 132,582.5 C156.467,546.54 143.705,527.576 168,491.5 C188.056,461.719 220.281,434.448 239.669,419.487 " fill="none" id="actor1805031342-UC743936514" style="stroke: #A80036; stroke-width: 1.0;"/><!--MD5=[1dfec7abcd93f9f29c9ed55e5da47cbe]
link actor1805031342 to UC1238292935--><path d="M98.1601,621.057 C110.508,610.878 123.888,597.534 132,582.5 C176.548,499.932 108.517,447.052 168,374.5 C183.161,356.01 209.652,347.55 229.618,343.7 " fill="none" id="actor1805031342-UC1238292935" style="stroke: #A80036; stroke-width: 1.0;"/><!--MD5=[7f229b0d55b603d96acef455fcd4dc1a]
link actor298295476 to UC1238292935--><path d="M132.049,303.38 C166.403,313.67 206.914,325.8 232.033,333.32 " fill="none" id="actor298295476-UC1238292935" style="stroke: #A80036; stroke-width: 1.0;"/><!--MD5=[be64261ecc075bdca6225fa740ac7dc6]
link actor1978471002 to UC743936514--><path d="M88.308,403.913 C122.835,404.652 195.034,406.196 232.426,406.996 " fill="none" id="actor1978471002-UC743936514" style="stroke: #A80036; stroke-width: 1.0;"/><!--MD5=[5735c5de84abaa49107ae271e2428c29]
link actor1805031342 to UC1698322791--><path d="M98.2188,662.781 C143.622,667.233 228.221,639.195 250.505,606.355 " fill="none" id="actor1805031342-UC1698322791" style="stroke: #A80036; stroke-width: 1.0;"/><!--MD5=[5735c5de84abaa49107ae271e2428c29]
link actor1805031342 to UC1698322791--><path d="M98.2188,643.094 C136.637,637.273 203.118,618.696 236.165,604.135 " fill="none" id="actor1805031342-UC1698322791-1" style="stroke: #A80036; stroke-width: 1.0;"/><!--MD5=[5735c5de84abaa49107ae271e2428c29]
link actor1805031342 to UC1698322791--><path d="M98.2188,623.406 C130.782,610.346 183.506,595.669 218.943,589.588 " fill="none" id="actor1805031342-UC1698322791-2" style="stroke: #A80036; stroke-width: 1.0;"/><!--MD5=[5735c5de84abaa49107ae271e2428c29]
link actor1805031342 to UC1698322791--><path d="M98.2188,603.719 C141.568,575.515 220.645,557.82 247.106,574.727 " fill="none" id="actor1805031342-UC1698322791-3" style="stroke: #A80036; stroke-width: 1.0;"/><!--MD5=[adad814ad1f2f2e42ed6d3bfe4e7bc58]
link actor1805031342 to UC1518712038--><path d="M98.2188,663.687 C137.15,676.734 204.901,681.459 237.472,672.386 " fill="none" id="actor1805031342-UC1518712038" style="stroke: #A80036; stroke-width: 1.0;"/><!--MD5=[adad814ad1f2f2e42ed6d3bfe4e7bc58]
link actor1805031342 to UC1518712038--><path d="M98.2188,644 C127.7,646.522 173.707,650.459 208.449,653.431 " fill="none" id="actor1805031342-UC1518712038-1" style="stroke: #A80036; stroke-width: 1.0;"/><!--MD5=[adad814ad1f2f2e42ed6d3bfe4e7bc58]
link actor1805031342 to UC1518712038--><path d="M98.2188,624.312 C139.308,617.574 212.497,625.599 242.551,641.949 " fill="none" id="actor1805031342-UC1518712038-2" style="stroke: #A80036; stroke-width: 1.0;"/><!--MD5=[46bc4cbb59110282ea48efb628b25472]
link actor1805031342 to UC1986751746--><path d="M98.1767,612.166 C116.9,594.557 142.421,572.699 168,557.5 C185.882,546.874 207.679,538.424 225.106,532.605 " fill="none" id="actor1805031342-UC1986751746" style="stroke: #A80036; stroke-width: 1.0;"/><!--MD5=[b76e54f9f7cf040f3c7409f8fd9fd505]
link actor1795804759 to UC1986751746--><path d="M109.576,522.717 C141.909,522.89 186.832,523.13 218.367,523.299 " fill="none" id="actor1795804759-UC1986751746" style="stroke: #A80036; stroke-width: 1.0;"/><!--MD5=[4e3c5a48084d1a263f63cc39ca222e6f]
link actor1548698416 to UC1518712038--><path d="M89.7268,766.321 C130.617,757.457 220.103,706.302 247.718,673.703 " fill="none" id="actor1548698416-UC1518712038" style="stroke: #A80036; stroke-width: 1.0;"/><!--MD5=[4e3c5a48084d1a263f63cc39ca222e6f]
link actor1548698416 to UC1518712038--><path d="M89.7268,749.084 C124.246,730.071 193.397,691.982 230.721,671.424 " fill="none" id="actor1548698416-UC1518712038-1" style="stroke: #A80036; stroke-width: 1.0;"/><!--MD5=[4e3c5a48084d1a263f63cc39ca222e6f]
link actor1548698416 to UC1518712038--><path d="M89.7268,731.846 C117.969,706.856 169.396,676.503 207.605,660.835 " fill="none" id="actor1548698416-UC1518712038-2" style="stroke: #A80036; stroke-width: 1.0;"/><!--MD5=[c8465fc9a2d2c8d348a544e77e1e1188]
link actor1795804759 to UC1698322791--><path d="M101.5729,564.775 C144.685,594.857 218.409,617.91 245.562,605.871 " fill="none" id="actor1795804759-UC1698322791" style="stroke: #A80036; stroke-width: 1.0;"/><!--MD5=[c8465fc9a2d2c8d348a544e77e1e1188]
link actor1795804759 to UC1698322791--><path d="M109.576,547.981 C142.231,562.668 187.729,579.094 219.306,587.528 " fill="none" id="actor1795804759-UC1698322791-1" style="stroke: #A80036; stroke-width: 1.0;"/><!--MD5=[c8465fc9a2d2c8d348a544e77e1e1188]
link actor1795804759 to UC1698322791--><path d="M109.576,525.898 C149.966,536.902 210,559.797 239.044,576.168 " fill="none" id="actor1795804759-UC1698322791-2" style="stroke: #A80036; stroke-width: 1.0;"/><!--MD5=[c8465fc9a2d2c8d348a544e77e1e1188]
link actor1795804759 to UC1698322791--><path d="M109.576,503.815 C156.84,508.313 231.007,541.73 250.932,574.56 " fill="none" id="actor1795804759-UC1698322791-3" style="stroke: #A80036; stroke-width: 1.0;"/><!--MD5=[ea4e3ba32705141d83cc4dcf8d37d89a]
link actor1805031342 to UC731573979--><path d="M98.2904,664.177 C110.069,674.514 122.971,687.553 132,701.5 C158.126,741.855 134.339,769.177 168,803.5 C182.052,817.829 202.916,826.007 220.802,830.636 " fill="none" id="actor1805031342-UC731573979" style="stroke: #A80036; stroke-width: 1.0;"/><!--MD5=[dc8ad2816c19cfb18e89a192ad72157d]
link actor1805031342 to UC104105431--><path d="M98.2188,661.5 C135.815,687.234 200.287,731.365 233.999,754.44 " fill="none" id="actor1805031342-UC104105431" style="stroke: #A80036; stroke-width: 1.0;"/><!--MD5=[18f523fbc6ff868651dc1c65628eecd5]
link actor444096469 to UC104105431--><path d="M94.8582,856.326 C114.034,839.996 141.361,818.46 168,803.5 C183.423,794.838 201.495,787.434 217.236,781.767 " fill="none" id="actor444096469-UC104105431" style="stroke: #A80036; stroke-width: 1.0;"/><!--MD5=[db8af73f162afe7a7a6342c36a1ff0e5]
link actor602572848 to UC731573979--><path d="M117.644,956.359 C157.684,921.672 212.108,874.524 239.216,851.04 " fill="none" id="actor602572848-UC731573979" style="stroke: #A80036; stroke-width: 1.0;"/><!--MD5=[3342b6f0db66f7d95a4c68690031964f]
link actor1805031342 to UC93981118--><path d="M98.1976,662.814 C110.399,673.178 123.652,686.613 132,701.5 C169.136,767.726 129.893,802.828 168,868.5 C183.765,895.67 212.119,918.581 232.383,932.62 " fill="none" id="actor1805031342-UC93981118" style="stroke: #A80036; stroke-width: 1.0;"/><!--MD5=[bb2670bf5da00781a8a4a074d74614ed]
link actor426792528 to UC93981118--><path d="M96.6579,1091.916 C116.468,1073.631 143.808,1048.476 168,1026.5 C192.315,1004.412 220.611,979.075 238.414,963.178 " fill="none" id="actor426792528-UC93981118" style="stroke: #A80036; stroke-width: 1.0;"/><!--MD5=[d53687a99c8ad55f43bc58db27cb9706]
link actor1805031342 to UC113676940--><path d="M98.0644,676.977 C110.711,688.934 124.363,702.731 132,718.5 C207.683,874.764 90.0234,952.367 168,1107.5 C179.618,1130.613 201.117,1150.112 219.957,1161.928 " fill="none" id="actor1805031342-UC113676940" style="stroke: #A80036; stroke-width: 1.0;"/><!--MD5=[d53687a99c8ad55f43bc58db27cb9706]
link actor1805031342 to UC113676940--><path d="M98.0644,645.233 C110.711,653.934 124.363,667.731 132,683.5 C207.683,839.764 90.0234,917.367 168,1072.5 C185.888,1108.087 227.201,1135.106 246.163,1153.939 " fill="none" id="actor1805031342-UC113676940-1" style="stroke: #A80036; stroke-width: 1.0;"/><!--MD5=[2f73b4098a99382b4335bf3fde7a2f14]
link actor1805031342 to UC1324029152--><path d="M89.6029,683.732 C104.2087,700.532 122.787,716.965 132,736.5 C179.707,837.657 101.0463,1148.913 168,1238.5 C188.415,1265.816 234.15,1270.525 250.255,1252.288 " fill="none" id="actor1805031342-UC1324029152" style="stroke: #A80036; stroke-width: 1.0;"/><!--MD5=[2f73b4098a99382b4335bf3fde7a2f14]
link actor1805031342 to UC1324029152--><path d="M98.2112,661.488 C110.89,671.848 124.526,685.653 132,701.5 C179.707,802.657 101.0463,1113.913 168,1203.5 C180.796,1220.622 203.539,1228.862 222.699,1232.826 " fill="none" id="actor1805031342-UC1324029152-1" style="stroke: #A80036; stroke-width: 1.0;"/><!--MD5=[2f73b4098a99382b4335bf3fde7a2f14]
link actor1805031342 to UC1324029152--><path d="M98.2112,629.745 C110.89,636.848 124.526,650.653 132,666.5 C179.707,767.657 101.0463,1078.913 168,1168.5 C188.513,1195.947 234.588,1200.57 250.484,1220.665 " fill="none" id="actor1805031342-UC1324029152-2" style="stroke: #A80036; stroke-width: 1.0;"/><!--MD5=[cfebc0717a728069aa1cc595a098d782]
link actor2083220171 to UC1324029152--><path d="M102.0014,1257.078 C143.313,1266.248 212.238,1264.299 241.814,1251.232 " fill="none" id="actor2083220171-UC1324029152" style="stroke: #A80036; stroke-width: 1.0;"/><!--MD5=[cfebc0717a728069aa1cc595a098d782]
link actor2083220171 to UC1324029152--><path d="M102.0014,1236.5 C135.659,1236.5 187.645,1236.5 221.748,1236.5 " fill="none" id="actor2083220171-UC1324029152-1" style="stroke: #A80036; stroke-width: 1.0;"/><!--MD5=[cfebc0717a728069aa1cc595a098d782]
link actor2083220171 to UC1324029152--><path d="M102.0014,1215.922 C143.313,1206.752 212.238,1208.701 241.814,1221.768 " fill="none" id="actor2083220171-UC1324029152-2" style="stroke: #A80036; stroke-width: 1.0;"/><!--MD5=[9ab7a702f5cb6e4d856bfc5a0924c447]
link actor2083220171 to UC113676940--><path d="M102.0014,1234.671 C141.635,1224.744 206.686,1200.739 238.021,1183.844 " fill="none" id="actor2083220171-UC113676940" style="stroke: #A80036; stroke-width: 1.0;"/><!--MD5=[9ab7a702f5cb6e4d856bfc5a0924c447]
link actor2083220171 to UC113676940--><path d="M102.0014,1214.093 C133.876,1199.034 182.19,1181.489 216.185,1172.479 " fill="none" id="actor2083220171-UC113676940-1" style="stroke: #A80036; stroke-width: 1.0;"/><!--MD5=[6e900cb854c978741bae87f9f74a892f]
link actor1805031342 to UC1009260571--><path d="M98.1333,661.956 C110.634,672.327 124.145,686.008 132,701.5 C188.344,812.619 110.026,869.223 168,979.5 C183.19,1008.395 213.458,1031.871 234.214,1045.514 " fill="none" id="actor1805031342-UC1009260571" style="stroke: #A80036; stroke-width: 1.0;"/><!--MD5=[26b33b6d322a4c11a95521e0261baf2f]
link actor2083220171 to UC1009260571--><path d="M102.2057,1206.397 C111.969,1197.282 122.559,1187.13 132,1177.5 C148.744,1160.421 151.077,1154.402 168,1137.5 C191.678,1113.851 220.88,1088.29 238.972,1072.84 " fill="none" id="actor2083220171-UC1009260571" style="stroke: #A80036; stroke-width: 1.0;"/><!--MD5=[4c0c78e41d5b82789cde67b974a2c631]
link actor1805031342 to UC2030748640--><path d="M98.2694,661.461 C110.961,671.815 124.591,685.623 132,701.5 C238.774,930.321 60.6715,1039.938 168,1268.5 C183.622,1301.7669 219.008,1328.3376 239.837,1341.8215 " fill="none" id="actor1805031342-UC2030748640" style="stroke: #A80036; stroke-width: 1.0;"/><!--MD5=[30fcb46356906efe6d1db675dc656944]
link actor1538456363 to UC2030748640--><path d="M97.4013,1354.8925 C135.614,1354.0751 202.626,1352.6417 235.974,1351.9284 " fill="none" id="actor1538456363-UC2030748640" style="stroke: #A80036; stroke-width: 1.0;"/><!--MD5=[6e0b350a95cfb4f1fb904e6486419747]
@startuml
 left to right direction

actor ForQuiz4 as actor1805031342

	rectangle main{
	 usecase waitFor as UC1695161087
	actor1805031342- -UC1695161087
	 usecase println as UC1001114349
	actor1805031342- -UC1001114349
	}
	actor PrintStream as actor731802107
	actor731802107 - - UC1001114349
	actor Process as actor431996456
	actor431996456 - - UC1695161087
	rectangle main{
	 usecase waitFor as UC1695161087
	actor1805031342- -UC1695161087
	 usecase println as UC1001114349
	actor1805031342- -UC1001114349
	}
	actor PrintStream as actor731802107
	actor731802107 - - UC1001114349
	actor Process as actor431996456
	actor431996456 - - UC1695161087
	rectangle makeFile{
	 usecase write as UC743936514
	actor1805031342- -UC743936514
	 usecase close as UC1238292935
	actor1805031342- -UC1238292935
	}
	actor OutputStreamWriter as actor298295476
	actor298295476 - - UC1238292935
	actor Writer as actor1978471002
	actor1978471002 - - UC743936514
	rectangle makeScript{
	 usecase append as UC1698322791
	actor1805031342- -UC1698322791
	 usecase hashCode as UC1518712038
	actor1805031342- -UC1518712038
	 usecase toString as UC1986751746
	actor1805031342- -UC1986751746
	}
	actor StringBuilder as actor1795804759
	actor1795804759 - - UC1986751746
	actor Object as actor1548698416
	actor1548698416 - - UC1518712038
	actor StringBuilder as actor1795804759
	actor1795804759 - - UC1698322791
	rectangle makeMemberInfo{
	 usecase append as UC1698322791
	actor1805031342- -UC1698322791
	 usecase toString as UC731573979
	actor1805031342- -UC731573979
	 usecase getImageList as UC104105431
	actor1805031342- -UC104105431
	}
	actor Member as actor444096469
	actor444096469 - - UC104105431
	actor AbstractCollection as actor602572848
	actor602572848 - - UC731573979
	actor StringBuilder as actor1795804759
	actor1795804759 - - UC1698322791
	rectangle makeFunctionInfo{
	 usecase append as UC1698322791
	actor1805031342- -UC1698322791
	 usecase hashCode as UC1518712038
	actor1805031342- -UC1518712038
	 usecase getHeadNode as UC93981118
	actor1805031342- -UC93981118
	}
	actor Function as actor426792528
	actor426792528 - - UC93981118
	actor Object as actor1548698416
	actor1548698416 - - UC1518712038
	actor StringBuilder as actor1795804759
	actor1795804759 - - UC1698322791
	rectangle nextThen{
	 usecase getThen as UC113676940
	actor1805031342- -UC113676940
	 usecase getKey as UC1324029152
	actor1805031342- -UC1324029152
	}
	actor StateNode as actor2083220171
	actor2083220171 - - UC1324029152
	actor StateNode as actor2083220171
	actor2083220171 - - UC113676940
	rectangle nextElse{
	 usecase getElse as UC1009260571
	actor1805031342- -UC1009260571
	 usecase getThen as UC113676940
	actor1805031342- -UC113676940
	 usecase getKey as UC1324029152
	actor1805031342- -UC1324029152
	}
	actor StateNode as actor2083220171
	actor2083220171 - - UC1324029152
	actor StateNode as actor2083220171
	actor2083220171 - - UC113676940
	actor StateNode as actor2083220171
	actor2083220171 - - UC1009260571
	rectangle makeExpInfo{
	 usecase add as UC2030748640
	actor1805031342- -UC2030748640
	 usecase println as UC1001114349
	actor1805031342- -UC1001114349
	 usecase append as UC1698322791
	actor1805031342- -UC1698322791
	 usecase getKey as UC1324029152
	actor1805031342- -UC1324029152
	 usecase hashCode as UC1518712038
	actor1805031342- -UC1518712038
	}
	actor Object as actor1548698416
	actor1548698416 - - UC1518712038
	actor StateNode as actor2083220171
	actor2083220171 - - UC1324029152
	actor StringBuilder as actor1795804759
	actor1795804759 - - UC1698322791
	actor PrintStream as actor731802107
	actor731802107 - - UC1001114349
	actor ArrayList as actor1538456363
	actor1538456363 - - UC2030748640

@enduml

PlantUML version 1.2020.19(Tue Oct 13 00:10:01 KST 2020)
(APACHE source distribution)
Java Runtime: Java(TM) SE Runtime Environment
JVM: Java HotSpot(TM) 64-Bit Server VM
Default Encoding: MS949
Language: ko
Country: KR
--></g></svg>