<?xml version="1.0" encoding="UTF-8" standalone="no"?><svg xmlns="http://www.w3.org/2000/svg" xmlns:xlink="http://www.w3.org/1999/xlink" contentScriptType="application/ecmascript" contentStyleType="text/css" height="1007px" preserveAspectRatio="none" style="width:340px;height:1007px;" version="1.1" viewBox="0 0 340 1007" width="340px" zoomAndPan="magnify"><defs><filter height="300%" id="f1hh6ya7q8cm6z" width="300%" x="-1" y="-1"><feGaussianBlur result="blurOut" stdDeviation="2.0"/><feColorMatrix in="blurOut" result="blurOut2" type="matrix" values="0 0 0 0 0 0 0 0 0 0 0 0 0 0 0 0 0 0 .4 0"/><feOffset dx="4.0" dy="4.0" in="blurOut2" result="blurOut3"/><feBlend in="SourceGraphic" in2="blurOut3" mode="normal"/></filter></defs><g><!--MD5=[a70b0d373322012744ecc119c63f921b]
cluster main--><rect fill="#FFFFFF" filter="url(#f1hh6ya7q8cm6z)" height="154" style="stroke: #000000; stroke-width: 1.5;" width="104" x="200" y="58.5"/><text fill="#000000" font-family="sans-serif" font-size="14" font-weight="bold" lengthAdjust="spacingAndGlyphs" textLength="33" x="235.5" y="76.6533">main</text><!--MD5=[1e829f21a74d4de467c1b519aceec237]
cluster makeFile--><rect fill="#FFFFFF" filter="url(#f1hh6ya7q8cm6z)" height="154" style="stroke: #000000; stroke-width: 1.5;" width="86" x="209" y="296.5"/><text fill="#000000" font-family="sans-serif" font-size="14" font-weight="bold" lengthAdjust="spacingAndGlyphs" textLength="63" x="220.5" y="314.6533">makeFile</text><!--MD5=[1cc943b86f50fda51864bd79c3035393]
cluster makeScript--><rect fill="#FFFFFF" filter="url(#f1hh6ya7q8cm6z)" height="154" style="stroke: #000000; stroke-width: 1.5;" width="108" x="198" y="504.5"/><text fill="#000000" font-family="sans-serif" font-size="14" font-weight="bold" lengthAdjust="spacingAndGlyphs" textLength="78" x="213" y="522.6533">makeScript</text><!--MD5=[835636fb4ca43055a96b5764f94d7d3d]
cluster switchNodeInfo--><rect fill="#FFFFFF" filter="url(#f1hh6ya7q8cm6z)" height="154" style="stroke: #000000; stroke-width: 1.5;" width="152" x="176" y="694.5"/><text fill="#000000" font-family="sans-serif" font-size="14" font-weight="bold" lengthAdjust="spacingAndGlyphs" textLength="109" x="197.5" y="712.6533">switchNodeInfo</text><ellipse cx="252.5269" cy="180.5973" fill="#FEFECE" filter="url(#f1hh6ya7q8cm6z)" rx="35.5269" ry="16.5973" style="stroke: #A80036; stroke-width: 1.5;"/><text fill="#000000" font-family="sans-serif" font-size="14" lengthAdjust="spacingAndGlyphs" textLength="46" x="229.5269" y="186.7121">waitFor</text><ellipse cx="252.5772" cy="113.5973" fill="#FEFECE" filter="url(#f1hh6ya7q8cm6z)" rx="30.5772" ry="16.5973" style="stroke: #A80036; stroke-width: 1.5;"/><text fill="#000000" font-family="sans-serif" font-size="14" lengthAdjust="spacingAndGlyphs" textLength="39" x="233.0772" y="119.7121">println</text><ellipse cx="252.5061" cy="418.5973" fill="#FEFECE" filter="url(#f1hh6ya7q8cm6z)" rx="23.5061" ry="16.5973" style="stroke: #A80036; stroke-width: 1.5;"/><text fill="#000000" font-family="sans-serif" font-size="14" lengthAdjust="spacingAndGlyphs" textLength="29" x="238.0061" y="424.7121">write</text><ellipse cx="252.3345" cy="351.5973" fill="#FEFECE" filter="url(#f1hh6ya7q8cm6z)" rx="26.3345" ry="16.5973" style="stroke: #A80036; stroke-width: 1.5;"/><text fill="#000000" font-family="sans-serif" font-size="14" lengthAdjust="spacingAndGlyphs" textLength="33" x="235.8345" y="357.7121">close</text><ellipse cx="251.9411" cy="559.5973" fill="#FEFECE" filter="url(#f1hh6ya7q8cm6z)" rx="36.9411" ry="16.5973" style="stroke: #A80036; stroke-width: 1.5;"/><text fill="#000000" font-family="sans-serif" font-size="14" lengthAdjust="spacingAndGlyphs" textLength="48" x="227.9411" y="565.7121">append</text><ellipse cx="252.6482" cy="626.5973" fill="#FEFECE" filter="url(#f1hh6ya7q8cm6z)" rx="37.6482" ry="16.5973" style="stroke: #A80036; stroke-width: 1.5;"/><text fill="#000000" font-family="sans-serif" font-size="14" lengthAdjust="spacingAndGlyphs" textLength="49" x="228.1482" y="632.7121">toString</text><ellipse cx="251.9836" cy="816.5869" fill="#FEFECE" filter="url(#f1hh6ya7q8cm6z)" rx="19.9836" ry="16.5869" style="stroke: #A80036; stroke-width: 1.5;"/><text fill="#000000" font-family="sans-serif" font-size="14" lengthAdjust="spacingAndGlyphs" textLength="24" x="239.9836" y="822.7016">add</text><ellipse cx="252.5685" cy="749.5973" fill="#FEFECE" filter="url(#f1hh6ya7q8cm6z)" rx="59.5685" ry="16.5973" style="stroke: #A80036; stroke-width: 1.5;"/><text fill="#000000" font-family="sans-serif" font-size="14" lengthAdjust="spacingAndGlyphs" textLength="80" x="212.5685" y="755.7121">getCondition</text><!--MD5=[5b99313fb94dac21f2a2eb15fa3796a8]
entity stateNodeInfo--><rect fill="#FFFFFF" filter="url(#f1hh6ya7q8cm6z)" height="39.2295" style="stroke: #000000; stroke-width: 1.5;" width="107" x="16" y="956"/><text fill="#000000" font-family="sans-serif" font-size="14" lengthAdjust="spacingAndGlyphs" textLength="87" x="26" y="982.1533">stateNodeInfo</text><!--MD5=[da7a537a7615392c40621fbafaa83a6e]
entity actor1559258941--><ellipse cx="69" cy="609" fill="#FEFECE" filter="url(#f1hh6ya7q8cm6z)" rx="8" ry="8" style="stroke: #A80036; stroke-width: 1.5;"/><path d="M69,617 L69,644 M56,625 L82,625 M69,644 L56,659 M69,644 L82,659 " fill="none" filter="url(#f1hh6ya7q8cm6z)" style="stroke: #A80036; stroke-width: 1.5;"/><text fill="#000000" font-family="sans-serif" font-size="14" lengthAdjust="spacingAndGlyphs" textLength="86" x="26" y="680.6533">NodeClassDg</text><!--MD5=[c6373e6f06c0704c33390c3718060f35]
entity actor731802107--><ellipse cx="69" cy="14" fill="#FEFECE" filter="url(#f1hh6ya7q8cm6z)" rx="8" ry="8" style="stroke: #A80036; stroke-width: 1.5;"/><path d="M69,22 L69,49 M56,30 L82,30 M69,49 L56,64 M69,49 L82,64 " fill="none" filter="url(#f1hh6ya7q8cm6z)" style="stroke: #A80036; stroke-width: 1.5;"/><text fill="#000000" font-family="sans-serif" font-size="14" lengthAdjust="spacingAndGlyphs" textLength="74" x="32" y="85.6533">PrintStream</text><!--MD5=[062a681f1f9b86810eaa79255c6621ce]
entity actor431996456--><ellipse cx="69.5" cy="133" fill="#FEFECE" filter="url(#f1hh6ya7q8cm6z)" rx="8" ry="8" style="stroke: #A80036; stroke-width: 1.5;"/><path d="M69.5,141 L69.5,168 M56.5,149 L82.5,149 M69.5,168 L56.5,183 M69.5,168 L82.5,183 " fill="none" filter="url(#f1hh6ya7q8cm6z)" style="stroke: #A80036; stroke-width: 1.5;"/><text fill="#000000" font-family="sans-serif" font-size="14" lengthAdjust="spacingAndGlyphs" textLength="51" x="44" y="204.6533">Process</text><!--MD5=[b7ff3028df048458b75b57f58ef17add]
entity actor298295476--><ellipse cx="69" cy="252" fill="#FEFECE" filter="url(#f1hh6ya7q8cm6z)" rx="8" ry="8" style="stroke: #A80036; stroke-width: 1.5;"/><path d="M69,260 L69,287 M56,268 L82,268 M69,287 L56,302 M69,287 L82,302 " fill="none" filter="url(#f1hh6ya7q8cm6z)" style="stroke: #A80036; stroke-width: 1.5;"/><text fill="#000000" font-family="sans-serif" font-size="14" lengthAdjust="spacingAndGlyphs" textLength="126" x="6" y="323.6533">OutputStreamWriter</text><!--MD5=[91abf8970a3ff022ed6743739d14ea1d]
entity actor1978471002--><ellipse cx="69" cy="371" fill="#FEFECE" filter="url(#f1hh6ya7q8cm6z)" rx="8" ry="8" style="stroke: #A80036; stroke-width: 1.5;"/><path d="M69,379 L69,406 M56,387 L82,387 M69,406 L56,421 M69,406 L82,421 " fill="none" filter="url(#f1hh6ya7q8cm6z)" style="stroke: #A80036; stroke-width: 1.5;"/><text fill="#000000" font-family="sans-serif" font-size="14" lengthAdjust="spacingAndGlyphs" textLength="38" x="50" y="442.6533">Writer</text><!--MD5=[b2b17946780437d3e03a3618b26c4aa9]
entity actor1795804759--><ellipse cx="69.5" cy="490" fill="#FEFECE" filter="url(#f1hh6ya7q8cm6z)" rx="8" ry="8" style="stroke: #A80036; stroke-width: 1.5;"/><path d="M69.5,498 L69.5,525 M56.5,506 L82.5,506 M69.5,525 L56.5,540 M69.5,525 L82.5,540 " fill="none" filter="url(#f1hh6ya7q8cm6z)" style="stroke: #A80036; stroke-width: 1.5;"/><text fill="#000000" font-family="sans-serif" font-size="14" lengthAdjust="spacingAndGlyphs" textLength="81" x="29" y="561.6533">StringBuilder</text><!--MD5=[100d7707da49a145ccc5de2dd9cc0e59]
entity actor2083220171--><ellipse cx="69" cy="728" fill="#FEFECE" filter="url(#f1hh6ya7q8cm6z)" rx="8" ry="8" style="stroke: #A80036; stroke-width: 1.5;"/><path d="M69,736 L69,763 M56,744 L82,744 M69,763 L56,778 M69,763 L82,778 " fill="none" filter="url(#f1hh6ya7q8cm6z)" style="stroke: #A80036; stroke-width: 1.5;"/><text fill="#000000" font-family="sans-serif" font-size="14" lengthAdjust="spacingAndGlyphs" textLength="66" x="36" y="799.6533">StateNode</text><!--MD5=[b8cdde3df73f4298fd171ae207d79fef]
entity actor1538456363--><ellipse cx="69" cy="847" fill="#FEFECE" filter="url(#f1hh6ya7q8cm6z)" rx="8" ry="8" style="stroke: #A80036; stroke-width: 1.5;"/><path d="M69,855 L69,882 M56,863 L82,863 M69,882 L56,897 M69,882 L82,897 " fill="none" filter="url(#f1hh6ya7q8cm6z)" style="stroke: #A80036; stroke-width: 1.5;"/><text fill="#000000" font-family="sans-serif" font-size="14" lengthAdjust="spacingAndGlyphs" textLength="56" x="41" y="918.6533">ArrayList</text><!--MD5=[a9d426f39d8d60910408058f4c7e2c24]
link actor1559258941 to UC1695161087--><path d="M112.174,608.73 C119.895,600.944 127.046,592.084 132,582.5 C186.177,477.696 128.676,430.733 168,319.5 C185.292,270.586 221.122,220.178 239.908,195.693 " fill="none" id="actor1559258941-UC1695161087" style="stroke: #A80036; stroke-width: 1.0;"/><!--MD5=[9a1a122e68e976bffae6f14c6502a2bf]
link actor1559258941 to UC1001114349--><path d="M112.255,609.255 C120.071,601.378 127.239,592.349 132,582.5 C174.311,494.972 109.987,224.512 168,146.5 C180.716,129.401 203.628,121.156 222.314,117.184 " fill="none" id="actor1559258941-UC1001114349" style="stroke: #A80036; stroke-width: 1.0;"/><!--MD5=[fac2663d2f1db04fd2672b08487a7edd]
link actor731802107 to UC1001114349--><path d="M106.033,60.058 C141.96,73.212 195.502,92.815 226.771,104.263 " fill="none" id="actor731802107-UC1001114349" style="stroke: #A80036; stroke-width: 1.0;"/><!--MD5=[9b47e7d95a96fb0e9f4fef5bd88cbe90]
link actor431996456 to UC1695161087--><path d="M94.8313,167.617 C126.753,170.234 181.212,174.698 216.902,177.623 " fill="none" id="actor431996456-UC1695161087" style="stroke: #A80036; stroke-width: 1.0;"/><!--MD5=[55675f8a1882633fb06e9630a473f18a]
link actor1559258941 to UC743936514--><path d="M112.075,603.784 C119.027,596.971 125.926,589.727 132,582.5 C150.796,560.134 151.071,551.31 168,527.5 C192.781,492.647 223.975,453.243 240.499,432.692 " fill="none" id="actor1559258941-UC743936514" style="stroke: #A80036; stroke-width: 1.0;"/><!--MD5=[7c870cf4a977472b6081e1c3e9722d47]
link actor1559258941 to UC1238292935--><path d="M112.173,608.233 C119.795,600.54 126.908,591.842 132,582.5 C174.804,503.964 111.194,453.587 168,384.5 C182.33,367.072 207.117,358.809 226.062,354.915 " fill="none" id="actor1559258941-UC1238292935" style="stroke: #A80036; stroke-width: 1.0;"/><!--MD5=[7f229b0d55b603d96acef455fcd4dc1a]
link actor298295476 to UC1238292935--><path d="M132.234,307.651 C165.707,319.907 204.776,334.21 228.955,343.063 " fill="none" id="actor298295476-UC1238292935" style="stroke: #A80036; stroke-width: 1.0;"/><!--MD5=[be64261ecc075bdca6225fa740ac7dc6]
link actor1978471002 to UC743936514--><path d="M88.2383,405.077 C122.008,407.845 191.834,413.568 228.439,416.569 " fill="none" id="actor1978471002-UC743936514" style="stroke: #A80036; stroke-width: 1.0;"/><!--MD5=[30701d42ca49b8266a7c394c3faffde9]
link actor1559258941 to UC1698322791--><path d="M112.078,619.839 C129.343,611.362 149.496,601.72 168,593.5 C186.548,585.261 207.732,576.692 224.186,570.218 " fill="none" id="actor1559258941-UC1698322791" style="stroke: #A80036; stroke-width: 1.0;"/><!--MD5=[30701d42ca49b8266a7c394c3faffde9]
link actor1559258941 to UC1698322791--><path d="M95.2475,599.281 C115.072,583.267 143.037,569.589 168,558.5 C196.756,545.726 231.85,532.16 245.828,543.525 " fill="none" id="actor1559258941-UC1698322791-1" style="stroke: #A80036; stroke-width: 1.0;"/><!--MD5=[30701d42ca49b8266a7c394c3faffde9]
link actor1559258941 to UC1698322791--><path d="M112.078,652.355 C129.343,646.362 149.496,636.72 168,628.5 C198.625,614.896 236.439,600.393 248.278,575.744 " fill="none" id="actor1559258941-UC1698322791-2" style="stroke: #A80036; stroke-width: 1.0;"/><!--MD5=[ef8747d60862274c43c0b933376bad6a]
link actor1559258941 to UC1986751746--><path d="M112.368,637.945 C143.654,635.381 185.434,631.956 215.119,629.523 " fill="none" id="actor1559258941-UC1986751746" style="stroke: #A80036; stroke-width: 1.0;"/><!--MD5=[b76e54f9f7cf040f3c7409f8fd9fd505]
link actor1795804759 to UC1986751746--><path d="M109.888,555.307 C127.179,568.242 147.934,582.584 168,593.5 C185.204,602.86 205.635,610.947 222.039,616.773 " fill="none" id="actor1795804759-UC1986751746" style="stroke: #A80036; stroke-width: 1.0;"/><!--MD5=[c8465fc9a2d2c8d348a544e77e1e1188]
link actor1795804759 to UC1698322791--><path d="M109.614,552.956 C147.1,567.145 201.295,576.532 230.84,572.754 " fill="none" id="actor1795804759-UC1698322791" style="stroke: #A80036; stroke-width: 1.0;"/><!--MD5=[c8465fc9a2d2c8d348a544e77e1e1188]
link actor1795804759 to UC1698322791--><path d="M109.614,530.711 C142.256,537.311 187.569,546.473 218.242,552.675 " fill="none" id="actor1795804759-UC1698322791-1" style="stroke: #A80036; stroke-width: 1.0;"/><!--MD5=[c8465fc9a2d2c8d348a544e77e1e1188]
link actor1795804759 to UC1698322791--><path d="M109.614,508.467 C151.944,509.562 215.579,525.395 240.969,543.928 " fill="none" id="actor1795804759-UC1698322791-2" style="stroke: #A80036; stroke-width: 1.0;"/><!--MD5=[d5fad2b505e91f983039d2574be9a9f5]
link actor1559258941 to UC2030748640--><path d="M101.3324,683.725 C112.045,694.512 123.413,706.259 132,718.5 C154.858,751.084 139.307,772.915 168,800.5 C186.976,818.743 217.222,827.254 235.773,826.145 " fill="none" id="actor1559258941-UC2030748640" style="stroke: #A80036; stroke-width: 1.0;"/><!--MD5=[d5fad2b505e91f983039d2574be9a9f5]
link actor1559258941 to UC2030748640--><path d="M112.136,660.415 C119.315,667.398 126.275,675.339 132,683.5 C154.858,716.084 139.307,737.915 168,765.5 C188.67,785.372 222.712,793.696 240.447,803.403 " fill="none" id="actor1559258941-UC2030748640-1" style="stroke: #A80036; stroke-width: 1.0;"/><!--MD5=[25757736d37f40d1f40a019997c22ae2]
link actor1559258941 to UC1513945124--><path d="M112.368,678.125 C143.02,698.632 183.745,722.535 213.299,737.296 " fill="none" id="actor1559258941-UC1513945124" style="stroke: #A80036; stroke-width: 1.0;"/><!--MD5=[25757736d37f40d1f40a019997c22ae2]
link actor1559258941 to UC1513945124--><path d="M112.368,655.415 C153.167,676.086 211.812,712.071 238.205,733.803 " fill="none" id="actor1559258941-UC1513945124-1" style="stroke: #A80036; stroke-width: 1.0;"/><!--MD5=[3bb95a915124b22fbbf2914d0a6ff3d2]
link actor2083220171 to UC1513945124--><path d="M102.1399,768.595 C134.07,770.103 182.272,767.325 215.337,762.149 " fill="none" id="actor2083220171-UC1513945124" style="stroke: #A80036; stroke-width: 1.0;"/><!--MD5=[3bb95a915124b22fbbf2914d0a6ff3d2]
link actor2083220171 to UC1513945124--><path d="M102.1399,747.828 C130.259,742.942 170.997,740.014 202.904,740.332 " fill="none" id="actor2083220171-UC1513945124-1" style="stroke: #A80036; stroke-width: 1.0;"/><!--MD5=[30fcb46356906efe6d1db675dc656944]
link actor1538456363 to UC2030748640--><path d="M97.1927,879.307 C137.096,870.577 208.507,845.192 238.328,828.316 " fill="none" id="actor1538456363-UC2030748640" style="stroke: #A80036; stroke-width: 1.0;"/><!--MD5=[30fcb46356906efe6d1db675dc656944]
link actor1538456363 to UC2030748640--><path d="M97.1927,859.722 C134.489,841.927 199.311,820.029 231.972,814.575 " fill="none" id="actor1538456363-UC2030748640-1" style="stroke: #A80036; stroke-width: 1.0;"/><!--MD5=[286e6cb9275194e1f56831480f8845af]
@startuml
 left to right direction

actor NodeClassDg as actor1559258941

	rectangle main{
	 usecase waitFor as UC1695161087
	actor1559258941- -UC1695161087
	 usecase println as UC1001114349
	actor1559258941- -UC1001114349
	}
	actor PrintStream as actor731802107
	actor731802107 - - UC1001114349
	actor Process as actor431996456
	actor431996456 - - UC1695161087
	rectangle makeFile{
	 usecase write as UC743936514
	actor1559258941- -UC743936514
	 usecase close as UC1238292935
	actor1559258941- -UC1238292935
	}
	actor OutputStreamWriter as actor298295476
	actor298295476 - - UC1238292935
	actor Writer as actor1978471002
	actor1978471002 - - UC743936514
	rectangle makeScript{
	 usecase append as UC1698322791
	actor1559258941- -UC1698322791
	 usecase toString as UC1986751746
	actor1559258941- -UC1986751746
	}
	actor StringBuilder as actor1795804759
	actor1795804759 - - UC1986751746
	actor StringBuilder as actor1795804759
	actor1795804759 - - UC1698322791
	rectangle switchNodeInfo{
	 usecase add as UC2030748640
	actor1559258941- -UC2030748640
	 usecase append as UC1698322791
	actor1559258941- -UC1698322791
	 usecase getCondition as UC1513945124
	actor1559258941- -UC1513945124
	}
	actor StateNode as actor2083220171
	actor2083220171 - - UC1513945124
	actor StringBuilder as actor1795804759
	actor1795804759 - - UC1698322791
	actor ArrayList as actor1538456363
	actor1538456363 - - UC2030748640
	rectangle stateNodeInfo{
	 usecase add as UC2030748640
	actor1559258941- -UC2030748640
	 usecase append as UC1698322791
	actor1559258941- -UC1698322791
	 usecase getCondition as UC1513945124
	actor1559258941- -UC1513945124
	}
	actor StateNode as actor2083220171
	actor2083220171 - - UC1513945124
	actor StringBuilder as actor1795804759
	actor1795804759 - - UC1698322791
	actor ArrayList as actor1538456363
	actor1538456363 - - UC2030748640

@enduml

PlantUML version 1.2020.19(Tue Oct 13 00:10:01 KST 2020)
(APACHE source distribution)
Java Runtime: Java(TM) SE Runtime Environment
JVM: Java HotSpot(TM) 64-Bit Server VM
Default Encoding: MS949
Language: ko
Country: KR
--></g></svg>