<?xml version="1.0" encoding="UTF-8" standalone="no"?><svg xmlns="http://www.w3.org/2000/svg" xmlns:xlink="http://www.w3.org/1999/xlink" contentScriptType="application/ecmascript" contentStyleType="text/css" height="1403px" preserveAspectRatio="none" style="width:348px;height:1403px;" version="1.1" viewBox="0 0 348 1403" width="348px" zoomAndPan="magnify"><defs><filter height="300%" id="f15azpuuceeoji" width="300%" x="-1" y="-1"><feGaussianBlur result="blurOut" stdDeviation="2.0"/><feColorMatrix in="blurOut" result="blurOut2" type="matrix" values="0 0 0 0 0 0 0 0 0 0 0 0 0 0 0 0 0 0 .4 0"/><feOffset dx="4.0" dy="4.0" in="blurOut2" result="blurOut3"/><feBlend in="SourceGraphic" in2="blurOut3" mode="normal"/></filter></defs><g><!--MD5=[a70b0d373322012744ecc119c63f921b]
cluster main--><rect fill="#FFFFFF" filter="url(#f15azpuuceeoji)" height="154" style="stroke: #000000; stroke-width: 1.5;" width="104" x="204" y="58.5"/><text fill="#000000" font-family="sans-serif" font-size="14" font-weight="bold" lengthAdjust="spacingAndGlyphs" textLength="33" x="239.5" y="76.6533">main</text><!--MD5=[1e829f21a74d4de467c1b519aceec237]
cluster makeFile--><rect fill="#FFFFFF" filter="url(#f15azpuuceeoji)" height="154" style="stroke: #000000; stroke-width: 1.5;" width="86" x="213" y="296.5"/><text fill="#000000" font-family="sans-serif" font-size="14" font-weight="bold" lengthAdjust="spacingAndGlyphs" textLength="63" x="224.5" y="314.6533">makeFile</text><!--MD5=[1cc943b86f50fda51864bd79c3035393]
cluster makeScript--><rect fill="#FFFFFF" filter="url(#f15azpuuceeoji)" height="221" style="stroke: #000000; stroke-width: 1.5;" width="130" x="191" y="504.5"/><text fill="#000000" font-family="sans-serif" font-size="14" font-weight="bold" lengthAdjust="spacingAndGlyphs" textLength="78" x="217" y="522.6533">makeScript</text><!--MD5=[25e01daf03fc02f3d0ae647926ef4273]
cluster makeMemberInfo--><rect fill="#FFFFFF" filter="url(#f15azpuuceeoji)" height="221" style="stroke: #000000; stroke-width: 1.5;" width="152" x="180" y="794.5"/><text fill="#000000" font-family="sans-serif" font-size="14" font-weight="bold" lengthAdjust="spacingAndGlyphs" textLength="122" x="195" y="812.6533">makeMemberInfo</text><!--MD5=[00f16b784483aebc7df27d93db3e9ac8]
cluster makeFunctionInfo--><rect fill="#FFFFFF" filter="url(#f15azpuuceeoji)" height="87" style="stroke: #000000; stroke-width: 1.5;" width="160" x="176" y="1125.5"/><text fill="#000000" font-family="sans-serif" font-size="14" font-weight="bold" lengthAdjust="spacingAndGlyphs" textLength="126" x="193" y="1143.6533">makeFunctionInfo</text><!--MD5=[1b8ffe1225e9a60f44b59857f1cb006c]
cluster makeExpInfo--><rect fill="#FFFFFF" filter="url(#f15azpuuceeoji)" height="87" style="stroke: #000000; stroke-width: 1.5;" width="107" x="203" y="1268.5"/><text fill="#000000" font-family="sans-serif" font-size="14" font-weight="bold" lengthAdjust="spacingAndGlyphs" textLength="90" x="211.5" y="1286.6533">makeExpInfo</text><ellipse cx="256.5269" cy="180.5973" fill="#FEFECE" filter="url(#f15azpuuceeoji)" rx="35.5269" ry="16.5973" style="stroke: #A80036; stroke-width: 1.5;"/><text fill="#000000" font-family="sans-serif" font-size="14" lengthAdjust="spacingAndGlyphs" textLength="46" x="233.5269" y="186.7121">waitFor</text><ellipse cx="256.5772" cy="113.5973" fill="#FEFECE" filter="url(#f15azpuuceeoji)" rx="30.5772" ry="16.5973" style="stroke: #A80036; stroke-width: 1.5;"/><text fill="#000000" font-family="sans-serif" font-size="14" lengthAdjust="spacingAndGlyphs" textLength="39" x="237.0772" y="119.7121">println</text><ellipse cx="256.5061" cy="418.5973" fill="#FEFECE" filter="url(#f15azpuuceeoji)" rx="23.5061" ry="16.5973" style="stroke: #A80036; stroke-width: 1.5;"/><text fill="#000000" font-family="sans-serif" font-size="14" lengthAdjust="spacingAndGlyphs" textLength="29" x="242.0061" y="424.7121">write</text><ellipse cx="256.3345" cy="351.5973" fill="#FEFECE" filter="url(#f15azpuuceeoji)" rx="26.3345" ry="16.5973" style="stroke: #A80036; stroke-width: 1.5;"/><text fill="#000000" font-family="sans-serif" font-size="14" lengthAdjust="spacingAndGlyphs" textLength="33" x="239.8345" y="357.7121">close</text><ellipse cx="255.9411" cy="626.5973" fill="#FEFECE" filter="url(#f15azpuuceeoji)" rx="36.9411" ry="16.5973" style="stroke: #A80036; stroke-width: 1.5;"/><text fill="#000000" font-family="sans-serif" font-size="14" lengthAdjust="spacingAndGlyphs" textLength="48" x="231.9411" y="632.7121">append</text><ellipse cx="255.9619" cy="693.5973" fill="#FEFECE" filter="url(#f15azpuuceeoji)" rx="48.9619" ry="16.5973" style="stroke: #A80036; stroke-width: 1.5;"/><text fill="#000000" font-family="sans-serif" font-size="14" lengthAdjust="spacingAndGlyphs" textLength="65" x="223.4619" y="699.7121">hashCode</text><ellipse cx="256.6482" cy="559.5973" fill="#FEFECE" filter="url(#f15azpuuceeoji)" rx="37.6482" ry="16.5973" style="stroke: #A80036; stroke-width: 1.5;"/><text fill="#000000" font-family="sans-serif" font-size="14" lengthAdjust="spacingAndGlyphs" textLength="49" x="232.1482" y="565.7121">toString</text><ellipse cx="255.9619" cy="983.5973" fill="#FEFECE" filter="url(#f15azpuuceeoji)" rx="48.9619" ry="16.5973" style="stroke: #A80036; stroke-width: 1.5;"/><text fill="#000000" font-family="sans-serif" font-size="14" lengthAdjust="spacingAndGlyphs" textLength="65" x="223.4619" y="989.7121">hashCode</text><ellipse cx="256.6482" cy="916.5973" fill="#FEFECE" filter="url(#f15azpuuceeoji)" rx="37.6482" ry="16.5973" style="stroke: #A80036; stroke-width: 1.5;"/><text fill="#000000" font-family="sans-serif" font-size="14" lengthAdjust="spacingAndGlyphs" textLength="49" x="232.1482" y="922.7121">toString</text><ellipse cx="256.5685" cy="849.5973" fill="#FEFECE" filter="url(#f15azpuuceeoji)" rx="59.5685" ry="16.5973" style="stroke: #A80036; stroke-width: 1.5;"/><text fill="#000000" font-family="sans-serif" font-size="14" lengthAdjust="spacingAndGlyphs" textLength="80" x="216.5685" y="855.7121">getImageList</text><ellipse cx="255.8112" cy="1180.5973" fill="#FEFECE" filter="url(#f15azpuuceeoji)" rx="63.8112" ry="16.5973" style="stroke: #A80036; stroke-width: 1.5;"/><text fill="#000000" font-family="sans-serif" font-size="14" lengthAdjust="spacingAndGlyphs" textLength="86" x="212.8112" y="1186.7121">getHeadNode</text><ellipse cx="255.9836" cy="1323.5869" fill="#FEFECE" filter="url(#f15azpuuceeoji)" rx="19.9836" ry="16.5869" style="stroke: #A80036; stroke-width: 1.5;"/><text fill="#000000" font-family="sans-serif" font-size="14" lengthAdjust="spacingAndGlyphs" textLength="24" x="243.9836" y="1329.7016">add</text><!--MD5=[f16a7d28a72966b4aad0200e9f453c28]
entity actor1974284481--><ellipse cx="69" cy="609" fill="#FEFECE" filter="url(#f15azpuuceeoji)" rx="8" ry="8" style="stroke: #A80036; stroke-width: 1.5;"/><path d="M69,617 L69,644 M56,625 L82,625 M69,644 L56,659 M69,644 L82,659 " fill="none" filter="url(#f15azpuuceeoji)" style="stroke: #A80036; stroke-width: 1.5;"/><text fill="#000000" font-family="sans-serif" font-size="14" lengthAdjust="spacingAndGlyphs" textLength="58" x="40" y="680.6533">ForQuiz2</text><!--MD5=[c6373e6f06c0704c33390c3718060f35]
entity actor731802107--><ellipse cx="69" cy="14" fill="#FEFECE" filter="url(#f15azpuuceeoji)" rx="8" ry="8" style="stroke: #A80036; stroke-width: 1.5;"/><path d="M69,22 L69,49 M56,30 L82,30 M69,49 L56,64 M69,49 L82,64 " fill="none" filter="url(#f15azpuuceeoji)" style="stroke: #A80036; stroke-width: 1.5;"/><text fill="#000000" font-family="sans-serif" font-size="14" lengthAdjust="spacingAndGlyphs" textLength="74" x="32" y="85.6533">PrintStream</text><!--MD5=[062a681f1f9b86810eaa79255c6621ce]
entity actor431996456--><ellipse cx="69.5" cy="133" fill="#FEFECE" filter="url(#f15azpuuceeoji)" rx="8" ry="8" style="stroke: #A80036; stroke-width: 1.5;"/><path d="M69.5,141 L69.5,168 M56.5,149 L82.5,149 M69.5,168 L56.5,183 M69.5,168 L82.5,183 " fill="none" filter="url(#f15azpuuceeoji)" style="stroke: #A80036; stroke-width: 1.5;"/><text fill="#000000" font-family="sans-serif" font-size="14" lengthAdjust="spacingAndGlyphs" textLength="51" x="44" y="204.6533">Process</text><!--MD5=[b7ff3028df048458b75b57f58ef17add]
entity actor298295476--><ellipse cx="69" cy="252" fill="#FEFECE" filter="url(#f15azpuuceeoji)" rx="8" ry="8" style="stroke: #A80036; stroke-width: 1.5;"/><path d="M69,260 L69,287 M56,268 L82,268 M69,287 L56,302 M69,287 L82,302 " fill="none" filter="url(#f15azpuuceeoji)" style="stroke: #A80036; stroke-width: 1.5;"/><text fill="#000000" font-family="sans-serif" font-size="14" lengthAdjust="spacingAndGlyphs" textLength="126" x="6" y="323.6533">OutputStreamWriter</text><!--MD5=[91abf8970a3ff022ed6743739d14ea1d]
entity actor1978471002--><ellipse cx="69" cy="371" fill="#FEFECE" filter="url(#f15azpuuceeoji)" rx="8" ry="8" style="stroke: #A80036; stroke-width: 1.5;"/><path d="M69,379 L69,406 M56,387 L82,387 M69,406 L56,421 M69,406 L82,421 " fill="none" filter="url(#f15azpuuceeoji)" style="stroke: #A80036; stroke-width: 1.5;"/><text fill="#000000" font-family="sans-serif" font-size="14" lengthAdjust="spacingAndGlyphs" textLength="38" x="50" y="442.6533">Writer</text><!--MD5=[b2b17946780437d3e03a3618b26c4aa9]
entity actor1795804759--><ellipse cx="69.5" cy="490" fill="#FEFECE" filter="url(#f15azpuuceeoji)" rx="8" ry="8" style="stroke: #A80036; stroke-width: 1.5;"/><path d="M69.5,498 L69.5,525 M56.5,506 L82.5,506 M69.5,525 L56.5,540 M69.5,525 L82.5,540 " fill="none" filter="url(#f15azpuuceeoji)" style="stroke: #A80036; stroke-width: 1.5;"/><text fill="#000000" font-family="sans-serif" font-size="14" lengthAdjust="spacingAndGlyphs" textLength="81" x="29" y="561.6533">StringBuilder</text><!--MD5=[e4e1039503309ab0d43884529c74cd45]
entity actor1548698416--><ellipse cx="69.5" cy="728" fill="#FEFECE" filter="url(#f15azpuuceeoji)" rx="8" ry="8" style="stroke: #A80036; stroke-width: 1.5;"/><path d="M69.5,736 L69.5,763 M56.5,744 L82.5,744 M69.5,763 L56.5,778 M69.5,763 L82.5,778 " fill="none" filter="url(#f15azpuuceeoji)" style="stroke: #A80036; stroke-width: 1.5;"/><text fill="#000000" font-family="sans-serif" font-size="14" lengthAdjust="spacingAndGlyphs" textLength="41" x="49" y="799.6533">Object</text><!--MD5=[7e98fb6c63a3f8812a1e24aa3667afb9]
entity actor444096469--><ellipse cx="69.5" cy="847" fill="#FEFECE" filter="url(#f15azpuuceeoji)" rx="8" ry="8" style="stroke: #A80036; stroke-width: 1.5;"/><path d="M69.5,855 L69.5,882 M56.5,863 L82.5,863 M69.5,882 L56.5,897 M69.5,882 L82.5,897 " fill="none" filter="url(#f15azpuuceeoji)" style="stroke: #A80036; stroke-width: 1.5;"/><text fill="#000000" font-family="sans-serif" font-size="14" lengthAdjust="spacingAndGlyphs" textLength="51" x="44" y="918.6533">Member</text><!--MD5=[0bf89f2900f18adf03543591753f2c09]
entity actor602572848--><ellipse cx="69" cy="966" fill="#FEFECE" filter="url(#f15azpuuceeoji)" rx="8" ry="8" style="stroke: #A80036; stroke-width: 1.5;"/><path d="M69,974 L69,1001 M56,982 L82,982 M69,1001 L56,1016 M69,1001 L82,1016 " fill="none" filter="url(#f15azpuuceeoji)" style="stroke: #A80036; stroke-width: 1.5;"/><text fill="#000000" font-family="sans-serif" font-size="14" lengthAdjust="spacingAndGlyphs" textLength="114" x="12" y="1037.6533">AbstractCollection</text><!--MD5=[4c464b33680e4db63525491c2926012d]
entity actor1134384220--><ellipse cx="69" cy="1085" fill="#FEFECE" filter="url(#f15azpuuceeoji)" rx="8" ry="8" style="stroke: #A80036; stroke-width: 1.5;"/><path d="M69,1093 L69,1120 M56,1101 L82,1101 M69,1120 L56,1135 M69,1120 L82,1135 " fill="none" filter="url(#f15azpuuceeoji)" style="stroke: #A80036; stroke-width: 1.5;"/><text fill="#000000" font-family="sans-serif" font-size="14" lengthAdjust="spacingAndGlyphs" textLength="74" x="32" y="1156.6533">AbstractList</text><!--MD5=[37661927b57d6338813e607196720b2f]
entity actor426792528--><ellipse cx="69.5" cy="1204" fill="#FEFECE" filter="url(#f15azpuuceeoji)" rx="8" ry="8" style="stroke: #A80036; stroke-width: 1.5;"/><path d="M69.5,1212 L69.5,1239 M56.5,1220 L82.5,1220 M69.5,1239 L56.5,1254 M69.5,1239 L82.5,1254 " fill="none" filter="url(#f15azpuuceeoji)" style="stroke: #A80036; stroke-width: 1.5;"/><text fill="#000000" font-family="sans-serif" font-size="14" lengthAdjust="spacingAndGlyphs" textLength="55" x="42" y="1275.6533">Function</text><!--MD5=[b8cdde3df73f4298fd171ae207d79fef]
entity actor1538456363--><ellipse cx="69" cy="1323" fill="#FEFECE" filter="url(#f15azpuuceeoji)" rx="8" ry="8" style="stroke: #A80036; stroke-width: 1.5;"/><path d="M69,1331 L69,1358 M56,1339 L82,1339 M69,1358 L56,1373 M69,1358 L82,1373 " fill="none" filter="url(#f15azpuuceeoji)" style="stroke: #A80036; stroke-width: 1.5;"/><text fill="#000000" font-family="sans-serif" font-size="14" lengthAdjust="spacingAndGlyphs" textLength="56" x="41" y="1394.6533">ArrayList</text><!--MD5=[2995fff1576425f78b90a40d7e529b12]
link actor1974284481 to UC1695161087--><path d="M98.0805,621.453 C110.57,611.269 124.087,597.808 132,582.5 C186.177,477.696 127.521,430.317 168,319.5 C186.031,270.14 223.603,219.93 243.312,195.59 " fill="none" id="actor1974284481-UC1695161087" style="stroke: #A80036; stroke-width: 1.0;"/><!--MD5=[4c45c692404ca103da54574633ff0fa3]
link actor1974284481 to UC1001114349--><path d="M98.1278,621.904 C110.789,611.73 124.433,598.149 132,582.5 C174.223,495.175 109.892,225.17 168,147.5 C181.54,129.4 206.054,120.94 225.776,116.98 " fill="none" id="actor1974284481-UC1001114349" style="stroke: #A80036; stroke-width: 1.0;"/><!--MD5=[fac2663d2f1db04fd2672b08487a7edd]
link actor731802107 to UC1001114349--><path d="M106.393,59.9 C143.271,73.11 198.629,92.94 230.648,104.42 " fill="none" id="actor731802107-UC1001114349" style="stroke: #A80036; stroke-width: 1.0;"/><!--MD5=[9b47e7d95a96fb0e9f4fef5bd88cbe90]
link actor431996456 to UC1695161087--><path d="M94.6095,167.55 C127.319,170.18 184.079,174.73 220.826,177.68 " fill="none" id="actor431996456-UC1695161087" style="stroke: #A80036; stroke-width: 1.0;"/><!--MD5=[585436ea210292d3f4f37c17a15e309a]
link actor1974284481 to UC743936514--><path d="M98.0158,616.994 C109.223,606.866 121.781,594.66 132,582.5 C150.796,560.134 150.803,551.117 168,527.5 C193.626,492.307 226.44,453.038 243.861,432.6 " fill="none" id="actor1974284481-UC743936514" style="stroke: #A80036; stroke-width: 1.0;"/><!--MD5=[065346a22b23fcb7c95b8796e8842f16]
link actor1974284481 to UC1238292935--><path d="M98.0952,621.021 C110.43,610.836 123.818,597.496 132,582.5 C174.629,504.367 111.247,454.064 168,385.5 C183.247,367.08 209.726,358.61 229.666,354.73 " fill="none" id="actor1974284481-UC1238292935" style="stroke: #A80036; stroke-width: 1.0;"/><!--MD5=[7f229b0d55b603d96acef455fcd4dc1a]
link actor298295476 to UC1238292935--><path d="M132.049,307.09 C166.827,319.55 207.915,334.27 232.956,343.24 " fill="none" id="actor298295476-UC1238292935" style="stroke: #A80036; stroke-width: 1.0;"/><!--MD5=[be64261ecc075bdca6225fa740ac7dc6]
link actor1978471002 to UC743936514--><path d="M88.308,405.049 C122.835,407.818 195.034,413.61 232.426,416.609 " fill="none" id="actor1978471002-UC743936514" style="stroke: #A80036; stroke-width: 1.0;"/><!--MD5=[5ef3c3cb761287f85a854a6d0c3ed444]
link actor1974284481 to UC1698322791--><path d="M98.2188,648.719 C134.274,650.197 195.047,645.198 229.703,637.801 " fill="none" id="actor1974284481-UC1698322791" style="stroke: #A80036; stroke-width: 1.0;"/><!--MD5=[5ef3c3cb761287f85a854a6d0c3ed444]
link actor1974284481 to UC1698322791--><path d="M98.2188,629.031 C132.22,621.94 188.202,617.317 223.534,618.583 " fill="none" id="actor1974284481-UC1698322791-1" style="stroke: #A80036; stroke-width: 1.0;"/><!--MD5=[5ef3c3cb761287f85a854a6d0c3ed444]
link actor1974284481 to UC1698322791--><path d="M98.2188,668.406 C143.006,681.419 225.931,670.162 249.563,642.45 " fill="none" id="actor1974284481-UC1698322791-2" style="stroke: #A80036; stroke-width: 1.0;"/><!--MD5=[5ef3c3cb761287f85a854a6d0c3ed444]
link actor1974284481 to UC1698322791--><path d="M98.2188,609.344 C142.595,589.015 224.413,586.906 248.898,610.62 " fill="none" id="actor1974284481-UC1698322791-3" style="stroke: #A80036; stroke-width: 1.0;"/><!--MD5=[02a94d19db2c84342fe52ae7114833e6]
link actor1974284481 to UC1518712038--><path d="M98.2188,669.312 C131.501,686.873 185.844,702.406 221.265,704.794 " fill="none" id="actor1974284481-UC1518712038" style="stroke: #A80036; stroke-width: 1.0;"/><!--MD5=[02a94d19db2c84342fe52ae7114833e6]
link actor1974284481 to UC1518712038--><path d="M98.2188,649.625 C130.679,658.651 183.173,673.249 218.607,683.102 " fill="none" id="actor1974284481-UC1518712038-1" style="stroke: #A80036; stroke-width: 1.0;"/><!--MD5=[02a94d19db2c84342fe52ae7114833e6]
link actor1974284481 to UC1518712038--><path d="M98.2188,629.937 C140.746,631.15 217.66,654.798 245.545,677.683 " fill="none" id="actor1974284481-UC1518712038-2" style="stroke: #A80036; stroke-width: 1.0;"/><!--MD5=[a2668abb26d7c92ec168ae75cf3fbad4]
link actor1974284481 to UC1986751746--><path d="M98.1612,626.574 C117.725,616.756 144.176,603.857 168,593.5 C187.527,585.011 209.914,576.376 227.222,569.933 " fill="none" id="actor1974284481-UC1986751746" style="stroke: #A80036; stroke-width: 1.0;"/><!--MD5=[b76e54f9f7cf040f3c7409f8fd9fd505]
link actor1795804759 to UC1986751746--><path d="M109.576,530.528 C143.091,537.16 190.132,546.467 221.769,552.727 " fill="none" id="actor1795804759-UC1986751746" style="stroke: #A80036; stroke-width: 1.0;"/><!--MD5=[4e3c5a48084d1a263f63cc39ca222e6f]
link actor1548698416 to UC1518712038--><path d="M89.7268,770.312 C130.046,769.333 217.615,736.332 246.526,709.255 " fill="none" id="actor1548698416-UC1518712038" style="stroke: #A80036; stroke-width: 1.0;"/><!--MD5=[4e3c5a48084d1a263f63cc39ca222e6f]
link actor1548698416 to UC1518712038--><path d="M89.7268,753.074 C121.963,741.524 184.404,719.152 222.92,705.352 " fill="none" id="actor1548698416-UC1518712038-1" style="stroke: #A80036; stroke-width: 1.0;"/><!--MD5=[4e3c5a48084d1a263f63cc39ca222e6f]
link actor1548698416 to UC1518712038--><path d="M89.7268,735.836 C118.92,715.625 172.885,694.452 211.419,686.72 " fill="none" id="actor1548698416-UC1518712038-2" style="stroke: #A80036; stroke-width: 1.0;"/><!--MD5=[c8465fc9a2d2c8d348a544e77e1e1188]
link actor1795804759 to UC1698322791--><path d="M79.9417,564.531 C97.5461,598.51 133.671,627.169 168,645.5 C200.385,662.793 243.821,675.18 253.866,642.622 " fill="none" id="actor1795804759-UC1698322791" style="stroke: #A80036; stroke-width: 1.0;"/><!--MD5=[c8465fc9a2d2c8d348a544e77e1e1188]
link actor1795804759 to UC1698322791--><path d="M102.3669,564.878 C120.915,581.102 144.865,598.146 168,610.5 C184.552,619.339 203.991,626.896 220.384,630.998 " fill="none" id="actor1795804759-UC1698322791-1" style="stroke: #A80036; stroke-width: 1.0;"/><!--MD5=[c8465fc9a2d2c8d348a544e77e1e1188]
link actor1795804759 to UC1698322791--><path d="M109.803,538.816 C127.082,550.423 147.85,564.74 168,575.5 C193.764,589.257 226.522,599.91 243.898,611.227 " fill="none" id="actor1795804759-UC1698322791-2" style="stroke: #A80036; stroke-width: 1.0;"/><!--MD5=[c8465fc9a2d2c8d348a544e77e1e1188]
link actor1795804759 to UC1698322791--><path d="M109.803,506.443 C127.082,515.423 147.85,529.74 168,540.5 C200.816,558.023 244.981,570.509 254.25,610.473 " fill="none" id="actor1795804759-UC1698322791-3" style="stroke: #A80036; stroke-width: 1.0;"/><!--MD5=[cdd27ca3c0f729a03711dbbb7d85d057]
link actor1974284481 to UC1891930552--><path d="M98.0291,662.009 C110.507,672.391 124.03,686.067 132,701.5 C183.306,800.852 97.8811,863.4 168,950.5 C178.744,963.845 195.478,971.795 211.482,976.53 " fill="none" id="actor1974284481-UC1891930552" style="stroke: #A80036; stroke-width: 1.0;"/><!--MD5=[c5b741951764702a43a64aa24c8279a9]
link actor1974284481 to UC731573979--><path d="M98.3166,662.748 C110.541,673.099 123.779,686.542 132,701.5 C171.715,773.762 114.65,820.629 168,883.5 C180.985,898.803 201.807,907.018 219.938,911.425 " fill="none" id="actor1974284481-UC731573979" style="stroke: #A80036; stroke-width: 1.0;"/><!--MD5=[27e28bd6937147498b8cd0c286780150]
link actor1974284481 to UC104105431--><path d="M98.204,668.02 C109.077,678.226 121.355,690.155 132,701.5 C175.122,747.456 221.782,805.732 243.528,833.448 " fill="none" id="actor1974284481-UC104105431" style="stroke: #A80036; stroke-width: 1.0;"/><!--MD5=[18f523fbc6ff868651dc1c65628eecd5]
link actor444096469 to UC104105431--><path d="M94.6095,875.392 C122.817,870.866 168.912,863.471 204.633,857.741 " fill="none" id="actor444096469-UC104105431" style="stroke: #A80036; stroke-width: 1.0;"/><!--MD5=[db8af73f162afe7a7a6342c36a1ff0e5]
link actor602572848 to UC731573979--><path d="M126.211,969.768 C139.808,963.216 154.336,956.44 168,950.5 C187.527,942.011 209.914,933.376 227.222,926.933 " fill="none" id="actor602572848-UC731573979" style="stroke: #A80036; stroke-width: 1.0;"/><!--MD5=[29b22fd9c7cc73cb63352565281ce975]
link actor1134384220 to UC1891930552--><path d="M106.393,1090.705 C145.19,1062.904 204.439,1020.448 235.45,998.226 " fill="none" id="actor1134384220-UC1891930552" style="stroke: #A80036; stroke-width: 1.0;"/><!--MD5=[eb15a120be2ac8d018b264e7cce90df7]
link actor1974284481 to UC93981118--><path d="M98.2366,661.904 C110.759,672.264 124.258,685.951 132,701.5 C194.609,827.245 126.213,881.39 168,1015.5 C186.253,1074.081 225.52,1136.099 244.823,1164.548 " fill="none" id="actor1974284481-UC93981118" style="stroke: #A80036; stroke-width: 1.0;"/><!--MD5=[bb2670bf5da00781a8a4a074d74614ed]
link actor426792528 to UC93981118--><path d="M96.5925,1228.237 C127.782,1218.897 178.881,1203.595 214.799,1192.838 " fill="none" id="actor426792528-UC93981118" style="stroke: #A80036; stroke-width: 1.0;"/><!--MD5=[6ea23a6d20fcf09331f36385056569fb]
link actor1974284481 to UC2030748640--><path d="M98.2201,661.484 C110.901,671.843 124.536,685.648 132,701.5 C228.987,907.483 85.599,1000.261 168,1212.5 C184.199,1254.224 221.843,1292.724 242.253,1311.4964 " fill="none" id="actor1974284481-UC2030748640" style="stroke: #A80036; stroke-width: 1.0;"/><!--MD5=[30fcb46356906efe6d1db675dc656944]
link actor1538456363 to UC2030748640--><path d="M97.4013,1350.6399 C135.716,1344.0833 202.985,1332.5721 236.241,1326.8813 " fill="none" id="actor1538456363-UC2030748640" style="stroke: #A80036; stroke-width: 1.0;"/><!--MD5=[4bc54dbf9c9d75df41efce98d00e1ec5]
@startuml
 left to right direction

actor ForQuiz2 as actor1974284481

	rectangle main{
	 usecase waitFor as UC1695161087
	actor1974284481- -UC1695161087
	 usecase println as UC1001114349
	actor1974284481- -UC1001114349
	}
	actor PrintStream as actor731802107
	actor731802107 - - UC1001114349
	actor Process as actor431996456
	actor431996456 - - UC1695161087
	rectangle makeFile{
	 usecase write as UC743936514
	actor1974284481- -UC743936514
	 usecase close as UC1238292935
	actor1974284481- -UC1238292935
	}
	actor OutputStreamWriter as actor298295476
	actor298295476 - - UC1238292935
	actor Writer as actor1978471002
	actor1978471002 - - UC743936514
	rectangle makeScript{
	 usecase append as UC1698322791
	actor1974284481- -UC1698322791
	 usecase hashCode as UC1518712038
	actor1974284481- -UC1518712038
	 usecase toString as UC1986751746
	actor1974284481- -UC1986751746
	}
	actor StringBuilder as actor1795804759
	actor1795804759 - - UC1986751746
	actor Object as actor1548698416
	actor1548698416 - - UC1518712038
	actor StringBuilder as actor1795804759
	actor1795804759 - - UC1698322791
	rectangle makeMemberInfo{
	 usecase append as UC1698322791
	actor1974284481- -UC1698322791
	 usecase hashCode as UC1891930552
	actor1974284481- -UC1891930552
	 usecase toString as UC731573979
	actor1974284481- -UC731573979
	 usecase getImageList as UC104105431
	actor1974284481- -UC104105431
	}
	actor Member as actor444096469
	actor444096469 - - UC104105431
	actor AbstractCollection as actor602572848
	actor602572848 - - UC731573979
	actor AbstractList as actor1134384220
	actor1134384220 - - UC1891930552
	actor StringBuilder as actor1795804759
	actor1795804759 - - UC1698322791
	rectangle makeFunctionInfo{
	 usecase append as UC1698322791
	actor1974284481- -UC1698322791
	 usecase hashCode as UC1518712038
	actor1974284481- -UC1518712038
	 usecase getHeadNode as UC93981118
	actor1974284481- -UC93981118
	}
	actor Function as actor426792528
	actor426792528 - - UC93981118
	actor Object as actor1548698416
	actor1548698416 - - UC1518712038
	actor StringBuilder as actor1795804759
	actor1795804759 - - UC1698322791
	rectangle makeExpInfo{
	 usecase add as UC2030748640
	actor1974284481- -UC2030748640
	 usecase append as UC1698322791
	actor1974284481- -UC1698322791
	 usecase hashCode as UC1518712038
	actor1974284481- -UC1518712038
	}
	actor Object as actor1548698416
	actor1548698416 - - UC1518712038
	actor StringBuilder as actor1795804759
	actor1795804759 - - UC1698322791
	actor ArrayList as actor1538456363
	actor1538456363 - - UC2030748640

@enduml

PlantUML version 1.2020.19(Tue Oct 13 00:10:01 KST 2020)
(APACHE source distribution)
Java Runtime: Java(TM) SE Runtime Environment
JVM: Java HotSpot(TM) 64-Bit Server VM
Default Encoding: MS949
Language: ko
Country: KR
--></g></svg>