<?xml version="1.0" encoding="UTF-8" standalone="no"?><svg xmlns="http://www.w3.org/2000/svg" xmlns:xlink="http://www.w3.org/1999/xlink" contentScriptType="application/ecmascript" contentStyleType="text/css" height="451px" preserveAspectRatio="none" style="width:283px;height:451px;" version="1.1" viewBox="0 0 283 451" width="283px" zoomAndPan="magnify"><defs><filter height="300%" id="fftz6abdranfc" width="300%" x="-1" y="-1"><feGaussianBlur result="blurOut" stdDeviation="2.0"/><feColorMatrix in="blurOut" result="blurOut2" type="matrix" values="0 0 0 0 0 0 0 0 0 0 0 0 0 0 0 0 0 0 .4 0"/><feOffset dx="4.0" dy="4.0" in="blurOut2" result="blurOut3"/><feBlend in="SourceGraphic" in2="blurOut3" mode="normal"/></filter></defs><g><!--MD5=[a70b0d373322012744ecc119c63f921b]
cluster main--><rect fill="#FFFFFF" filter="url(#fftz6abdranfc)" height="221" style="stroke: #000000; stroke-width: 1.5;" width="146" x="125" y="77.5"/><text fill="#000000" font-family="sans-serif" font-size="14" font-weight="bold" lengthAdjust="spacingAndGlyphs" textLength="33" x="181.5" y="95.6533">main</text><ellipse cx="198.7401" cy="266.5973" fill="#FEFECE" filter="url(#fftz6abdranfc)" rx="56.7401" ry="16.5973" style="stroke: #A80036; stroke-width: 1.5;"/><text fill="#000000" font-family="sans-serif" font-size="14" lengthAdjust="spacingAndGlyphs" textLength="76" x="160.7401" y="272.7121">addDataList</text><ellipse cx="198.2132" cy="199.5973" fill="#FEFECE" filter="url(#fftz6abdranfc)" rx="24.2132" ry="16.5973" style="stroke: #A80036; stroke-width: 1.5;"/><text fill="#000000" font-family="sans-serif" font-size="14" lengthAdjust="spacingAndGlyphs" textLength="30" x="183.2132" y="205.7121">main</text><ellipse cx="198.5772" cy="132.5973" fill="#FEFECE" filter="url(#fftz6abdranfc)" rx="30.5772" ry="16.5973" style="stroke: #A80036; stroke-width: 1.5;"/><text fill="#000000" font-family="sans-serif" font-size="14" lengthAdjust="spacingAndGlyphs" textLength="39" x="179.0772" y="138.7121">println</text><!--MD5=[2f05c78f74777b41d4421c0fba8f78f9]
entity actor1430710100--><ellipse cx="43" cy="133" fill="#FEFECE" filter="url(#fftz6abdranfc)" rx="8" ry="8" style="stroke: #A80036; stroke-width: 1.5;"/><path d="M43,141 L43,168 M30,149 L56,149 M43,168 L30,183 M43,168 L56,183 " fill="none" filter="url(#fftz6abdranfc)" style="stroke: #A80036; stroke-width: 1.5;"/><text fill="#000000" font-family="sans-serif" font-size="14" lengthAdjust="spacingAndGlyphs" textLength="30" x="28" y="204.6533">Main</text><!--MD5=[c6373e6f06c0704c33390c3718060f35]
entity actor731802107--><ellipse cx="43" cy="14" fill="#FEFECE" filter="url(#fftz6abdranfc)" rx="8" ry="8" style="stroke: #A80036; stroke-width: 1.5;"/><path d="M43,22 L43,49 M30,30 L56,30 M43,49 L30,64 M43,49 L56,64 " fill="none" filter="url(#fftz6abdranfc)" style="stroke: #A80036; stroke-width: 1.5;"/><text fill="#000000" font-family="sans-serif" font-size="14" lengthAdjust="spacingAndGlyphs" textLength="74" x="6" y="85.6533">PrintStream</text><!--MD5=[15c1fd565705824a0e487ce5aa3e8082]
entity actor770921565--><ellipse cx="43.5" cy="252" fill="#FEFECE" filter="url(#fftz6abdranfc)" rx="8" ry="8" style="stroke: #A80036; stroke-width: 1.5;"/><path d="M43.5,260 L43.5,287 M30.5,268 L56.5,268 M43.5,287 L30.5,302 M43.5,287 L56.5,302 " fill="none" filter="url(#fftz6abdranfc)" style="stroke: #A80036; stroke-width: 1.5;"/><text fill="#000000" font-family="sans-serif" font-size="14" lengthAdjust="spacingAndGlyphs" textLength="59" x="14" y="323.6533">ForMidEx</text><!--MD5=[9e6ffdab585f7a40d2984860a76eec0e]
entity actor181451598--><ellipse cx="43.5" cy="371" fill="#FEFECE" filter="url(#fftz6abdranfc)" rx="8" ry="8" style="stroke: #A80036; stroke-width: 1.5;"/><path d="M43.5,379 L43.5,406 M30.5,387 L56.5,387 M43.5,406 L30.5,421 M43.5,406 L56.5,421 " fill="none" filter="url(#fftz6abdranfc)" style="stroke: #A80036; stroke-width: 1.5;"/><text fill="#000000" font-family="sans-serif" font-size="14" lengthAdjust="spacingAndGlyphs" textLength="75" x="6" y="442.6533">Test_Visitor</text><!--MD5=[9552dba03d67a39f2e474235e18f2bff]
link actor1430710100 to UC2132762784--><path d="M58.0738,182.431 C72.1373,197.428 94.3067,219.113 117,233.5 C130.338,241.956 146.207,248.987 160.349,254.357 " fill="none" id="actor1430710100-UC2132762784" style="stroke: #A80036; stroke-width: 1.0;"/><!--MD5=[1dbeee792d9f621441e3a5c0489b5717]
link actor1430710100 to UC2011857007--><path d="M58.1443,168.822 C85.4152,174.804 142.926,187.419 175.055,194.467 " fill="none" id="actor1430710100-UC2011857007" style="stroke: #A80036; stroke-width: 1.0;"/><!--MD5=[cee76ff18edb3e78ea4ad59467d2eb73]
link actor1430710100 to UC1001114349--><path d="M58.1443,162.276 C83.9679,156.778 136.907,145.507 169.733,138.518 " fill="none" id="actor1430710100-UC1001114349" style="stroke: #A80036; stroke-width: 1.0;"/><!--MD5=[fac2663d2f1db04fd2672b08487a7edd]
link actor731802107 to UC1001114349--><path d="M80.1264,67.099 C110.398,83.895 152.072,107.017 176.901,120.793 " fill="none" id="actor731802107-UC1001114349" style="stroke: #A80036; stroke-width: 1.0;"/><!--MD5=[597285fe77047a873648bba16b859446]
link actor770921565 to UC2011857007--><path d="M72.703,261.947 C85.8742,252.502 101.8046,241.81 117,233.5 C136.536,222.816 160.135,213.26 176.808,207.02 " fill="none" id="actor770921565-UC2011857007" style="stroke: #A80036; stroke-width: 1.0;"/><!--MD5=[7448f55d03667a358ec15ce71df34d54]
link actor181451598 to UC2132762784--><path d="M80.5212,370.3361 C112.238,342.303 156.256,303.396 180.403,282.053 " fill="none" id="actor181451598-UC2132762784" style="stroke: #A80036; stroke-width: 1.0;"/><!--MD5=[cef9ac5871ec537fa64199915dacdaa8]
@startuml
 left to right direction

actor Main as actor1430710100

	rectangle main{
	 usecase addDataList as UC2132762784
	actor1430710100- -UC2132762784
	 usecase main as UC2011857007
	actor1430710100- -UC2011857007
	 usecase println as UC1001114349
	actor1430710100- -UC1001114349
	}
	actor PrintStream as actor731802107
	actor731802107 - - UC1001114349
	actor ForMidEx as actor770921565
	actor770921565 - - UC2011857007
	actor Test_Visitor as actor181451598
	actor181451598 - - UC2132762784

@enduml

PlantUML version 1.2020.19(Tue Oct 13 00:10:01 KST 2020)
(APACHE source distribution)
Java Runtime: Java(TM) SE Runtime Environment
JVM: Java HotSpot(TM) 64-Bit Server VM
Default Encoding: MS949
Language: ko
Country: KR
--></g></svg>