<?xml version="1.0" encoding="UTF-8" standalone="no"?><svg xmlns="http://www.w3.org/2000/svg" xmlns:xlink="http://www.w3.org/1999/xlink" contentScriptType="application/ecmascript" contentStyleType="text/css" height="414px" preserveAspectRatio="none" style="width:319px;height:414px;" version="1.1" viewBox="0 0 319 414" width="319px" zoomAndPan="magnify"><defs><filter height="300%" id="f1q9qrnrgcgx7h" width="300%" x="-1" y="-1"><feGaussianBlur result="blurOut" stdDeviation="2.0"/><feColorMatrix in="blurOut" result="blurOut2" type="matrix" values="0 0 0 0 0 0 0 0 0 0 0 0 0 0 0 0 0 0 .4 0"/><feOffset dx="4.0" dy="4.0" in="blurOut2" result="blurOut3"/><feBlend in="SourceGraphic" in2="blurOut3" mode="normal"/></filter></defs><g><!--MD5=[08db556fb7637cb13b44ac2d0f98c040]
cluster complexity.Complex.Complex(dataSet--><polygon fill="#FFFFFF" filter="url(#f1q9qrnrgcgx7h)" points="16,6,285,6,292,31.2295,302,31.2295,302,407,16,407,16,6" style="stroke: #000000; stroke-width: 1.5;"/><line style="stroke: #000000; stroke-width: 1.5;" x1="16" x2="292" y1="31.2295" y2="31.2295"/><text fill="#000000" font-family="sans-serif" font-size="14" font-weight="bold" lengthAdjust="spacingAndGlyphs" textLength="263" x="20" y="24.1533">complexity.Complex.Complex(dataSet</text><!--MD5=[6575635ba47ca72f682153975a7eacd7]
class complexity.Complex.Complex(dataSet.Function)--><rect codeLine="1" fill="#FEFECE" filter="url(#f1q9qrnrgcgx7h)" height="346.6233" id="complexity.Complex.Complex(dataSet.Function)" style="stroke: #A80036; stroke-width: 1.5;" width="253" x="32.5" y="44"/><ellipse cx="129.25" cy="60" fill="#ADD1B2" rx="11" ry="11" style="stroke: #A80036; stroke-width: 1.0;"/><path d="M129.0781,53.4844 Q127.2031,53.4844 126.0469,55.2344 Q124.8594,57.0156 124.8594,60.0156 Q124.8594,63.3906 126.0625,65.1563 Q127.125,66.7813 128.875,66.7813 Q130.5625,66.7813 131.5156,65.875 Q132.5781,64.8594 132.7188,62.625 Q132.7188,62.2031 132.4844,61.9688 Q132.2969,61.7344 131.9531,61.7031 Q131.625,61.7031 131.3906,61.8906 Q131.125,62.125 131.125,62.5156 Q131.0938,63.9063 130.5,64.6406 Q129.9688,65.3438 129.0156,65.3438 Q127.8594,65.3438 127.1406,63.9063 Q126.4219,62.4063 126.4219,59.9844 Q126.4219,57.4375 127.3125,56.0469 Q128.0625,54.9219 129.2031,54.9219 Q129.8594,54.9219 130.3594,55.4688 Q130.9219,56.0781 131.0469,57.1406 Q131.0938,57.8438 131.9219,57.7344 Q132.7031,57.625 132.6563,56.9375 Q132.4688,55.4219 131.7031,54.5469 Q130.7656,53.4844 129.0781,53.4844 Z "/><text fill="#000000" font-family="sans-serif" font-size="12" lengthAdjust="spacingAndGlyphs" textLength="51" x="149.75" y="65.6045">Function)</text><line style="stroke: #A80036; stroke-width: 1.5;" x1="33.5" x2="284.5" y1="76" y2="76"/><line style="stroke: #A80036; stroke-width: 1.5;" x1="33.5" x2="139" y1="91.5544" y2="91.5544"/><text fill="#008000" font-family="sans-serif" font-size="11" font-weight="bold" lengthAdjust="spacingAndGlyphs" textLength="40" x="139" y="96.1919">has list</text><line style="stroke: #A80036; stroke-width: 1.5;" x1="179" x2="284.5" y1="91.5544" y2="91.5544"/><line style="stroke: #A80036; stroke-width: 1.0; stroke-dasharray: 1.0,2.0;" x1="33.5" x2="146" y1="114.2178" y2="114.2178"/><text fill="#000000" font-family="sans-serif" font-size="11" lengthAdjust="spacingAndGlyphs" textLength="26" x="146" y="118.8552">class</text><line style="stroke: #A80036; stroke-width: 1.0; stroke-dasharray: 1.0,2.0;" x1="172" x2="284.5" y1="114.2178" y2="114.2178"/><text fill="#000000" font-family="sans-serif" font-size="11" lengthAdjust="spacingAndGlyphs" textLength="128" x="38.5" y="157.1274">Function fun (994825025);</text><line style="stroke: #A80036; stroke-width: 1.0; stroke-dasharray: 1.0,2.0;" x1="33.5" x2="140" y1="136.8811" y2="136.8811"/><text fill="#000000" font-family="sans-serif" font-size="11" lengthAdjust="spacingAndGlyphs" textLength="38" x="140" y="141.5186">member</text><line style="stroke: #A80036; stroke-width: 1.0; stroke-dasharray: 1.0,2.0;" x1="178" x2="284.5" y1="136.8811" y2="136.8811"/><line style="stroke: #A80036; stroke-width: 1.0; stroke-dasharray: 1.0,2.0;" x1="33.5" x2="141.5" y1="171.0989" y2="171.0989"/><text fill="#000000" font-family="sans-serif" font-size="11" lengthAdjust="spacingAndGlyphs" textLength="35" x="141.5" y="175.7363">method</text><line style="stroke: #A80036; stroke-width: 1.0; stroke-dasharray: 1.0,2.0;" x1="176.5" x2="284.5" y1="171.0989" y2="171.0989"/><line style="stroke: #A80036; stroke-width: 1.5;" x1="33.5" x2="131.5" y1="193.7622" y2="193.7622"/><text fill="#0000FF" font-family="sans-serif" font-size="11" font-weight="bold" lengthAdjust="spacingAndGlyphs" textLength="55" x="131.5" y="198.3997">calling list</text><line style="stroke: #A80036; stroke-width: 1.5;" x1="186.5" x2="284.5" y1="193.7622" y2="193.7622"/><text fill="#000000" font-family="sans-serif" font-size="11" lengthAdjust="spacingAndGlyphs" textLength="115" x="38.5" y="236.6719">Complex (2068103096);</text><line style="stroke: #A80036; stroke-width: 1.0; stroke-dasharray: 1.0,2.0;" x1="33.5" x2="146" y1="216.4255" y2="216.4255"/><text fill="#000000" font-family="sans-serif" font-size="11" lengthAdjust="spacingAndGlyphs" textLength="26" x="146" y="221.063">class</text><line style="stroke: #A80036; stroke-width: 1.0; stroke-dasharray: 1.0,2.0;" x1="172" x2="284.5" y1="216.4255" y2="216.4255"/><line style="stroke: #A80036; stroke-width: 1.0; stroke-dasharray: 1.0,2.0;" x1="33.5" x2="140" y1="250.6433" y2="250.6433"/><text fill="#000000" font-family="sans-serif" font-size="11" lengthAdjust="spacingAndGlyphs" textLength="38" x="140" y="255.2808">member</text><line style="stroke: #A80036; stroke-width: 1.0; stroke-dasharray: 1.0,2.0;" x1="178" x2="284.5" y1="250.6433" y2="250.6433"/><text fill="#000000" font-family="sans-serif" font-size="11" lengthAdjust="spacingAndGlyphs" textLength="241" x="38.5" y="293.553">void simpleMake(dataSet.Function) (2063332000);</text><line style="stroke: #A80036; stroke-width: 1.0; stroke-dasharray: 1.0,2.0;" x1="33.5" x2="141.5" y1="273.3066" y2="273.3066"/><text fill="#000000" font-family="sans-serif" font-size="11" lengthAdjust="spacingAndGlyphs" textLength="35" x="141.5" y="277.9441">method</text><line style="stroke: #A80036; stroke-width: 1.0; stroke-dasharray: 1.0,2.0;" x1="176.5" x2="284.5" y1="273.3066" y2="273.3066"/><line style="stroke: #A80036; stroke-width: 1.5;" x1="33.5" x2="125" y1="307.5244" y2="307.5244"/><text fill="#FFA500" font-family="sans-serif" font-size="11" font-weight="bold" lengthAdjust="spacingAndGlyphs" textLength="68" x="125" y="312.1619">called by list</text><line style="stroke: #A80036; stroke-width: 1.5;" x1="193" x2="284.5" y1="307.5244" y2="307.5244"/><line style="stroke: #A80036; stroke-width: 1.0; stroke-dasharray: 1.0,2.0;" x1="33.5" x2="146" y1="330.1877" y2="330.1877"/><text fill="#000000" font-family="sans-serif" font-size="11" lengthAdjust="spacingAndGlyphs" textLength="26" x="146" y="334.8252">class</text><line style="stroke: #A80036; stroke-width: 1.0; stroke-dasharray: 1.0,2.0;" x1="172" x2="284.5" y1="330.1877" y2="330.1877"/><line style="stroke: #A80036; stroke-width: 1.0; stroke-dasharray: 1.0,2.0;" x1="33.5" x2="140" y1="352.8511" y2="352.8511"/><text fill="#000000" font-family="sans-serif" font-size="11" lengthAdjust="spacingAndGlyphs" textLength="38" x="140" y="357.4885">member</text><line style="stroke: #A80036; stroke-width: 1.0; stroke-dasharray: 1.0,2.0;" x1="178" x2="284.5" y1="352.8511" y2="352.8511"/><line style="stroke: #A80036; stroke-width: 1.0; stroke-dasharray: 1.0,2.0;" x1="33.5" x2="141.5" y1="375.5144" y2="375.5144"/><text fill="#000000" font-family="sans-serif" font-size="11" lengthAdjust="spacingAndGlyphs" textLength="35" x="141.5" y="380.1519">method</text><line style="stroke: #A80036; stroke-width: 1.0; stroke-dasharray: 1.0,2.0;" x1="176.5" x2="284.5" y1="375.5144" y2="375.5144"/><!--MD5=[1fe145cec88fbcb36ff9a4011c110cd8]
@startuml
class complexity.Complex.Complex(dataSet.Function){
__**<color:green>has list</color>**__
..class..
..member..
	Function fun (994825025);
..method..
__**<color:blue>calling list</color>**__
..class..
	Complex (2068103096);
..member..
..method..
	void simpleMake(dataSet.Function) (2063332000);
__**<color:orange>called by list</color>**__
..class..
..member..
..method..
}

@enduml

PlantUML version 1.2020.19(Tue Oct 13 00:10:01 KST 2020)
(APACHE source distribution)
Java Runtime: Java(TM) SE Runtime Environment
JVM: Java HotSpot(TM) 64-Bit Server VM
Default Encoding: MS949
Language: ko
Country: KR
--></g></svg>