<?xml version="1.0" encoding="UTF-8" standalone="no"?><svg xmlns="http://www.w3.org/2000/svg" xmlns:xlink="http://www.w3.org/1999/xlink" contentScriptType="application/ecmascript" contentStyleType="text/css" height="584px" preserveAspectRatio="none" style="width:373px;height:584px;" version="1.1" viewBox="0 0 373 584" width="373px" zoomAndPan="magnify"><defs><filter height="300%" id="fxuh4way5tt6q" width="300%" x="-1" y="-1"><feGaussianBlur result="blurOut" stdDeviation="2.0"/><feColorMatrix in="blurOut" result="blurOut2" type="matrix" values="0 0 0 0 0 0 0 0 0 0 0 0 0 0 0 0 0 0 .4 0"/><feOffset dx="4.0" dy="4.0" in="blurOut2" result="blurOut3"/><feBlend in="SourceGraphic" in2="blurOut3" mode="normal"/></filter></defs><g><!--MD5=[e15dc73a9508d0b7ce63cc46a1df8ba2]
cluster complexity.Complex.getMemberScore(dataSet--><polygon fill="#FFFFFF" filter="url(#fxuh4way5tt6q)" points="16,6,346,6,353,31.2295,356,31.2295,356,577,16,577,16,6" style="stroke: #000000; stroke-width: 1.5;"/><line style="stroke: #000000; stroke-width: 1.5;" x1="16" x2="353" y1="31.2295" y2="31.2295"/><text fill="#000000" font-family="sans-serif" font-size="14" font-weight="bold" lengthAdjust="spacingAndGlyphs" textLength="324" x="20" y="24.1533">complexity.Complex.getMemberScore(dataSet</text><!--MD5=[928db294cec5aae58abce9a30aa367cc]
class complexity.Complex.getMemberScore(dataSet.Data_base)--><rect codeLine="1" fill="#FEFECE" filter="url(#fxuh4way5tt6q)" height="517.2666" id="complexity.Complex.getMemberScore(dataSet.Data_base)" style="stroke: #A80036; stroke-width: 1.5;" width="253" x="59.5" y="44"/><ellipse cx="149.25" cy="60" fill="#ADD1B2" rx="11" ry="11" style="stroke: #A80036; stroke-width: 1.0;"/><path d="M149.0781,53.4844 Q147.2031,53.4844 146.0469,55.2344 Q144.8594,57.0156 144.8594,60.0156 Q144.8594,63.3906 146.0625,65.1563 Q147.125,66.7813 148.875,66.7813 Q150.5625,66.7813 151.5156,65.875 Q152.5781,64.8594 152.7188,62.625 Q152.7188,62.2031 152.4844,61.9688 Q152.2969,61.7344 151.9531,61.7031 Q151.625,61.7031 151.3906,61.8906 Q151.125,62.125 151.125,62.5156 Q151.0938,63.9063 150.5,64.6406 Q149.9688,65.3438 149.0156,65.3438 Q147.8594,65.3438 147.1406,63.9063 Q146.4219,62.4063 146.4219,59.9844 Q146.4219,57.4375 147.3125,56.0469 Q148.0625,54.9219 149.2031,54.9219 Q149.8594,54.9219 150.3594,55.4688 Q150.9219,56.0781 151.0469,57.1406 Q151.0938,57.8438 151.9219,57.7344 Q152.7031,57.625 152.6563,56.9375 Q152.4688,55.4219 151.7031,54.5469 Q150.7656,53.4844 149.0781,53.4844 Z "/><text fill="#000000" font-family="sans-serif" font-size="12" lengthAdjust="spacingAndGlyphs" textLength="65" x="169.75" y="65.6045">Data_base)</text><line style="stroke: #A80036; stroke-width: 1.5;" x1="60.5" x2="311.5" y1="76" y2="76"/><line style="stroke: #A80036; stroke-width: 1.5;" x1="60.5" x2="166" y1="91.5544" y2="91.5544"/><text fill="#008000" font-family="sans-serif" font-size="11" font-weight="bold" lengthAdjust="spacingAndGlyphs" textLength="40" x="166" y="96.1919">has list</text><line style="stroke: #A80036; stroke-width: 1.5;" x1="206" x2="311.5" y1="91.5544" y2="91.5544"/><line style="stroke: #A80036; stroke-width: 1.0; stroke-dasharray: 1.0,2.0;" x1="60.5" x2="173" y1="114.2178" y2="114.2178"/><text fill="#000000" font-family="sans-serif" font-size="11" lengthAdjust="spacingAndGlyphs" textLength="26" x="173" y="118.8552">class</text><line style="stroke: #A80036; stroke-width: 1.0; stroke-dasharray: 1.0,2.0;" x1="199" x2="311.5" y1="114.2178" y2="114.2178"/><text fill="#000000" font-family="sans-serif" font-size="11" lengthAdjust="spacingAndGlyphs" textLength="145" x="65.5" y="157.1274">Data_base fun (1136705850);</text><text fill="#000000" font-family="sans-serif" font-size="11" lengthAdjust="spacingAndGlyphs" textLength="133" x="65.5" y="172.2363">int defScore (1931327807);</text><text fill="#000000" font-family="sans-serif" font-size="11" lengthAdjust="spacingAndGlyphs" textLength="209" x="65.5" y="187.3452">ArrayList&lt;Member&gt; memberList (6788125);</text><text fill="#000000" font-family="sans-serif" font-size="11" lengthAdjust="spacingAndGlyphs" textLength="116" x="65.5" y="202.4541">String key (718451316);</text><text fill="#000000" font-family="sans-serif" font-size="11" lengthAdjust="spacingAndGlyphs" textLength="133" x="65.5" y="217.563">String score (1876848389);</text><text fill="#000000" font-family="sans-serif" font-size="11" lengthAdjust="spacingAndGlyphs" textLength="98" x="65.5" y="232.6719">int w (1897195392);</text><text fill="#000000" font-family="sans-serif" font-size="11" lengthAdjust="spacingAndGlyphs" textLength="143" x="65.5" y="247.7808">Member target (1307525827);</text><line style="stroke: #A80036; stroke-width: 1.0; stroke-dasharray: 1.0,2.0;" x1="60.5" x2="167" y1="136.8811" y2="136.8811"/><text fill="#000000" font-family="sans-serif" font-size="11" lengthAdjust="spacingAndGlyphs" textLength="38" x="167" y="141.5186">member</text><line style="stroke: #A80036; stroke-width: 1.0; stroke-dasharray: 1.0,2.0;" x1="205" x2="311.5" y1="136.8811" y2="136.8811"/><line style="stroke: #A80036; stroke-width: 1.0; stroke-dasharray: 1.0,2.0;" x1="60.5" x2="168.5" y1="261.7522" y2="261.7522"/><text fill="#000000" font-family="sans-serif" font-size="11" lengthAdjust="spacingAndGlyphs" textLength="35" x="168.5" y="266.3896">method</text><line style="stroke: #A80036; stroke-width: 1.0; stroke-dasharray: 1.0,2.0;" x1="203.5" x2="311.5" y1="261.7522" y2="261.7522"/><line style="stroke: #A80036; stroke-width: 1.5;" x1="60.5" x2="158.5" y1="284.4155" y2="284.4155"/><text fill="#0000FF" font-family="sans-serif" font-size="11" font-weight="bold" lengthAdjust="spacingAndGlyphs" textLength="55" x="158.5" y="289.053">calling list</text><line style="stroke: #A80036; stroke-width: 1.5;" x1="213.5" x2="311.5" y1="284.4155" y2="284.4155"/><text fill="#000000" font-family="sans-serif" font-size="11" lengthAdjust="spacingAndGlyphs" textLength="106" x="65.5" y="327.3252">Member (861339480);</text><text fill="#000000" font-family="sans-serif" font-size="11" lengthAdjust="spacingAndGlyphs" textLength="135" x="65.5" y="342.4341">StringBuilder (1578052738);</text><line style="stroke: #A80036; stroke-width: 1.0; stroke-dasharray: 1.0,2.0;" x1="60.5" x2="173" y1="307.0789" y2="307.0789"/><text fill="#000000" font-family="sans-serif" font-size="11" lengthAdjust="spacingAndGlyphs" textLength="26" x="173" y="311.7163">class</text><line style="stroke: #A80036; stroke-width: 1.0; stroke-dasharray: 1.0,2.0;" x1="199" x2="311.5" y1="307.0789" y2="307.0789"/><text fill="#000000" font-family="sans-serif" font-size="11" lengthAdjust="spacingAndGlyphs" textLength="229" x="65.5" y="376.6519">Map&lt;String,String&gt; memberScore (804559024);</text><line style="stroke: #A80036; stroke-width: 1.0; stroke-dasharray: 1.0,2.0;" x1="60.5" x2="167" y1="356.4055" y2="356.4055"/><text fill="#000000" font-family="sans-serif" font-size="11" lengthAdjust="spacingAndGlyphs" textLength="38" x="167" y="361.043">member</text><line style="stroke: #A80036; stroke-width: 1.0; stroke-dasharray: 1.0,2.0;" x1="205" x2="311.5" y1="356.4055" y2="356.4055"/><text fill="#000000" font-family="sans-serif" font-size="11" lengthAdjust="spacingAndGlyphs" textLength="179" x="65.5" y="410.8696">String getTypeName() (1218734863);</text><text fill="#000000" font-family="sans-serif" font-size="11" lengthAdjust="spacingAndGlyphs" textLength="211" x="65.5" y="425.9785">null append(java.lang.String) (1798239502);</text><line style="stroke: #A80036; stroke-width: 1.0; stroke-dasharray: 1.0,2.0;" x1="60.5" x2="168.5" y1="390.6233" y2="390.6233"/><text fill="#000000" font-family="sans-serif" font-size="11" lengthAdjust="spacingAndGlyphs" textLength="35" x="168.5" y="395.2607">method</text><line style="stroke: #A80036; stroke-width: 1.0; stroke-dasharray: 1.0,2.0;" x1="203.5" x2="311.5" y1="390.6233" y2="390.6233"/><line style="stroke: #A80036; stroke-width: 1.5;" x1="60.5" x2="152" y1="439.95" y2="439.95"/><text fill="#FFA500" font-family="sans-serif" font-size="11" font-weight="bold" lengthAdjust="spacingAndGlyphs" textLength="68" x="152" y="444.5874">called by list</text><line style="stroke: #A80036; stroke-width: 1.5;" x1="220" x2="311.5" y1="439.95" y2="439.95"/><text fill="#000000" font-family="sans-serif" font-size="11" lengthAdjust="spacingAndGlyphs" textLength="115" x="65.5" y="482.8596">Complex (2068103096);</text><line style="stroke: #A80036; stroke-width: 1.0; stroke-dasharray: 1.0,2.0;" x1="60.5" x2="173" y1="462.6133" y2="462.6133"/><text fill="#000000" font-family="sans-serif" font-size="11" lengthAdjust="spacingAndGlyphs" textLength="26" x="173" y="467.2507">class</text><line style="stroke: #A80036; stroke-width: 1.0; stroke-dasharray: 1.0,2.0;" x1="199" x2="311.5" y1="462.6133" y2="462.6133"/><line style="stroke: #A80036; stroke-width: 1.0; stroke-dasharray: 1.0,2.0;" x1="60.5" x2="167" y1="496.8311" y2="496.8311"/><text fill="#000000" font-family="sans-serif" font-size="11" lengthAdjust="spacingAndGlyphs" textLength="38" x="167" y="501.4685">member</text><line style="stroke: #A80036; stroke-width: 1.0; stroke-dasharray: 1.0,2.0;" x1="205" x2="311.5" y1="496.8311" y2="496.8311"/><text fill="#000000" font-family="sans-serif" font-size="11" lengthAdjust="spacingAndGlyphs" textLength="227" x="65.5" y="539.7407">void simpleMake(dataSet.Class) (1478683866);</text><text fill="#000000" font-family="sans-serif" font-size="11" lengthAdjust="spacingAndGlyphs" textLength="241" x="65.5" y="554.8496">void simpleMake(dataSet.Function) (2063332000);</text><line style="stroke: #A80036; stroke-width: 1.0; stroke-dasharray: 1.0,2.0;" x1="60.5" x2="168.5" y1="519.4944" y2="519.4944"/><text fill="#000000" font-family="sans-serif" font-size="11" lengthAdjust="spacingAndGlyphs" textLength="35" x="168.5" y="524.1318">method</text><line style="stroke: #A80036; stroke-width: 1.0; stroke-dasharray: 1.0,2.0;" x1="203.5" x2="311.5" y1="519.4944" y2="519.4944"/><!--MD5=[810dd06adc41a56ea0a72c99651349bc]
@startuml
class complexity.Complex.getMemberScore(dataSet.Data_base){
__**<color:green>has list</color>**__
..class..
..member..
	Data_base fun (1136705850);
	int defScore (1931327807);
	ArrayList<Member> memberList (6788125);
	String key (718451316);
	String score (1876848389);
	int w (1897195392);
	Member target (1307525827);
..method..
__**<color:blue>calling list</color>**__
..class..
	Member (861339480);
	StringBuilder (1578052738);
..member..
	Map<String,String> memberScore (804559024);
..method..
	String getTypeName() (1218734863);
	null append(java.lang.String) (1798239502);
__**<color:orange>called by list</color>**__
..class..
	Complex (2068103096);
..member..
..method..
	void simpleMake(dataSet.Class) (1478683866);
	void simpleMake(dataSet.Function) (2063332000);
}

@enduml

PlantUML version 1.2020.19(Tue Oct 13 00:10:01 KST 2020)
(APACHE source distribution)
Java Runtime: Java(TM) SE Runtime Environment
JVM: Java HotSpot(TM) 64-Bit Server VM
Default Encoding: MS949
Language: ko
Country: KR
--></g></svg>