<?xml version="1.0" encoding="UTF-8" standalone="no"?><svg xmlns="http://www.w3.org/2000/svg" xmlns:xlink="http://www.w3.org/1999/xlink" contentScriptType="application/ecmascript" contentStyleType="text/css" height="402px" preserveAspectRatio="none" style="width:337px;height:402px;" version="1.1" viewBox="0 0 337 402" width="337px" zoomAndPan="magnify"><defs><filter height="300%" id="f1hrbfggix0qd0" width="300%" x="-1" y="-1"><feGaussianBlur result="blurOut" stdDeviation="2.0"/><feColorMatrix in="blurOut" result="blurOut2" type="matrix" values="0 0 0 0 0 0 0 0 0 0 0 0 0 0 0 0 0 0 .4 0"/><feOffset dx="4.0" dy="4.0" in="blurOut2" result="blurOut3"/><feBlend in="SourceGraphic" in2="blurOut3" mode="normal"/></filter></defs><g><!--MD5=[482f9006f970836977875388f65a0cc8]
cluster complexity.Complex--><polygon fill="#FFFFFF" filter="url(#f1hrbfggix0qd0)" points="16,6,162,6,169,31.2295,320,31.2295,320,395,16,395,16,6" style="stroke: #000000; stroke-width: 1.5;"/><line style="stroke: #000000; stroke-width: 1.5;" x1="16" x2="169" y1="31.2295" y2="31.2295"/><text fill="#000000" font-family="sans-serif" font-size="14" font-weight="bold" lengthAdjust="spacingAndGlyphs" textLength="140" x="20" y="24.1533">complexity.Complex</text><!--MD5=[fe92d58bb57380fe19e9cd2f68908f6a]
class complexity.Complex.getLine()--><rect codeLine="1" fill="#FEFECE" filter="url(#f1hrbfggix0qd0)" height="335.0688" id="complexity.Complex.getLine()" style="stroke: #A80036; stroke-width: 1.5;" width="272" x="32" y="44"/><ellipse cx="139.25" cy="60" fill="#ADD1B2" rx="11" ry="11" style="stroke: #A80036; stroke-width: 1.0;"/><path d="M139.0781,53.4844 Q137.2031,53.4844 136.0469,55.2344 Q134.8594,57.0156 134.8594,60.0156 Q134.8594,63.3906 136.0625,65.1563 Q137.125,66.7813 138.875,66.7813 Q140.5625,66.7813 141.5156,65.875 Q142.5781,64.8594 142.7188,62.625 Q142.7188,62.2031 142.4844,61.9688 Q142.2969,61.7344 141.9531,61.7031 Q141.625,61.7031 141.3906,61.8906 Q141.125,62.125 141.125,62.5156 Q141.0938,63.9063 140.5,64.6406 Q139.9688,65.3438 139.0156,65.3438 Q137.8594,65.3438 137.1406,63.9063 Q136.4219,62.4063 136.4219,59.9844 Q136.4219,57.4375 137.3125,56.0469 Q138.0625,54.9219 139.2031,54.9219 Q139.8594,54.9219 140.3594,55.4688 Q140.9219,56.0781 141.0469,57.1406 Q141.0938,57.8438 141.9219,57.7344 Q142.7031,57.625 142.6563,56.9375 Q142.4688,55.4219 141.7031,54.5469 Q140.7656,53.4844 139.0781,53.4844 Z "/><text fill="#000000" font-family="sans-serif" font-size="12" lengthAdjust="spacingAndGlyphs" textLength="49" x="159.75" y="65.6045">getLine()</text><line style="stroke: #A80036; stroke-width: 1.5;" x1="33" x2="303" y1="76" y2="76"/><line style="stroke: #A80036; stroke-width: 1.5;" x1="33" x2="148" y1="91.5544" y2="91.5544"/><text fill="#008000" font-family="sans-serif" font-size="11" font-weight="bold" lengthAdjust="spacingAndGlyphs" textLength="40" x="148" y="96.1919">has list</text><line style="stroke: #A80036; stroke-width: 1.5;" x1="188" x2="303" y1="91.5544" y2="91.5544"/><line style="stroke: #A80036; stroke-width: 1.0; stroke-dasharray: 1.0,2.0;" x1="33" x2="155" y1="114.2178" y2="114.2178"/><text fill="#000000" font-family="sans-serif" font-size="11" lengthAdjust="spacingAndGlyphs" textLength="26" x="155" y="118.8552">class</text><line style="stroke: #A80036; stroke-width: 1.0; stroke-dasharray: 1.0,2.0;" x1="181" x2="303" y1="114.2178" y2="114.2178"/><line style="stroke: #A80036; stroke-width: 1.0; stroke-dasharray: 1.0,2.0;" x1="33" x2="149" y1="136.8811" y2="136.8811"/><text fill="#000000" font-family="sans-serif" font-size="11" lengthAdjust="spacingAndGlyphs" textLength="38" x="149" y="141.5186">member</text><line style="stroke: #A80036; stroke-width: 1.0; stroke-dasharray: 1.0,2.0;" x1="187" x2="303" y1="136.8811" y2="136.8811"/><line style="stroke: #A80036; stroke-width: 1.0; stroke-dasharray: 1.0,2.0;" x1="33" x2="150.5" y1="159.5444" y2="159.5444"/><text fill="#000000" font-family="sans-serif" font-size="11" lengthAdjust="spacingAndGlyphs" textLength="35" x="150.5" y="164.1819">method</text><line style="stroke: #A80036; stroke-width: 1.0; stroke-dasharray: 1.0,2.0;" x1="185.5" x2="303" y1="159.5444" y2="159.5444"/><line style="stroke: #A80036; stroke-width: 1.5;" x1="33" x2="140.5" y1="182.2078" y2="182.2078"/><text fill="#0000FF" font-family="sans-serif" font-size="11" font-weight="bold" lengthAdjust="spacingAndGlyphs" textLength="55" x="140.5" y="186.8452">calling list</text><line style="stroke: #A80036; stroke-width: 1.5;" x1="195.5" x2="303" y1="182.2078" y2="182.2078"/><line style="stroke: #A80036; stroke-width: 1.0; stroke-dasharray: 1.0,2.0;" x1="33" x2="155" y1="204.8711" y2="204.8711"/><text fill="#000000" font-family="sans-serif" font-size="11" lengthAdjust="spacingAndGlyphs" textLength="26" x="155" y="209.5085">class</text><line style="stroke: #A80036; stroke-width: 1.0; stroke-dasharray: 1.0,2.0;" x1="181" x2="303" y1="204.8711" y2="204.8711"/><line style="stroke: #A80036; stroke-width: 1.0; stroke-dasharray: 1.0,2.0;" x1="33" x2="149" y1="227.5344" y2="227.5344"/><text fill="#000000" font-family="sans-serif" font-size="11" lengthAdjust="spacingAndGlyphs" textLength="38" x="149" y="232.1719">member</text><line style="stroke: #A80036; stroke-width: 1.0; stroke-dasharray: 1.0,2.0;" x1="187" x2="303" y1="227.5344" y2="227.5344"/><line style="stroke: #A80036; stroke-width: 1.0; stroke-dasharray: 1.0,2.0;" x1="33" x2="150.5" y1="250.1978" y2="250.1978"/><text fill="#000000" font-family="sans-serif" font-size="11" lengthAdjust="spacingAndGlyphs" textLength="35" x="150.5" y="254.8352">method</text><line style="stroke: #A80036; stroke-width: 1.0; stroke-dasharray: 1.0,2.0;" x1="185.5" x2="303" y1="250.1978" y2="250.1978"/><line style="stroke: #A80036; stroke-width: 1.5;" x1="33" x2="134" y1="272.8611" y2="272.8611"/><text fill="#FFA500" font-family="sans-serif" font-size="11" font-weight="bold" lengthAdjust="spacingAndGlyphs" textLength="68" x="134" y="277.4985">called by list</text><line style="stroke: #A80036; stroke-width: 1.5;" x1="202" x2="303" y1="272.8611" y2="272.8611"/><text fill="#000000" font-family="sans-serif" font-size="11" lengthAdjust="spacingAndGlyphs" textLength="115" x="38" y="315.7708">Complex (2068103096);</text><line style="stroke: #A80036; stroke-width: 1.0; stroke-dasharray: 1.0,2.0;" x1="33" x2="155" y1="295.5244" y2="295.5244"/><text fill="#000000" font-family="sans-serif" font-size="11" lengthAdjust="spacingAndGlyphs" textLength="26" x="155" y="300.1619">class</text><line style="stroke: #A80036; stroke-width: 1.0; stroke-dasharray: 1.0,2.0;" x1="181" x2="303" y1="295.5244" y2="295.5244"/><line style="stroke: #A80036; stroke-width: 1.0; stroke-dasharray: 1.0,2.0;" x1="33" x2="149" y1="329.7422" y2="329.7422"/><text fill="#000000" font-family="sans-serif" font-size="11" lengthAdjust="spacingAndGlyphs" textLength="38" x="149" y="334.3796">member</text><line style="stroke: #A80036; stroke-width: 1.0; stroke-dasharray: 1.0,2.0;" x1="187" x2="303" y1="329.7422" y2="329.7422"/><text fill="#000000" font-family="sans-serif" font-size="11" lengthAdjust="spacingAndGlyphs" textLength="260" x="38" y="372.6519">void addFunctionScore(dataSet.Class) (1493755606);</text><line style="stroke: #A80036; stroke-width: 1.0; stroke-dasharray: 1.0,2.0;" x1="33" x2="150.5" y1="352.4055" y2="352.4055"/><text fill="#000000" font-family="sans-serif" font-size="11" lengthAdjust="spacingAndGlyphs" textLength="35" x="150.5" y="357.043">method</text><line style="stroke: #A80036; stroke-width: 1.0; stroke-dasharray: 1.0,2.0;" x1="185.5" x2="303" y1="352.4055" y2="352.4055"/><!--MD5=[10f4f22ece34330435f9e341fb6cdcfe]
@startuml
class complexity.Complex.getLine(){
__**<color:green>has list</color>**__
..class..
..member..
..method..
__**<color:blue>calling list</color>**__
..class..
..member..
..method..
__**<color:orange>called by list</color>**__
..class..
	Complex (2068103096);
..member..
..method..
	void addFunctionScore(dataSet.Class) (1493755606);
}

@enduml

PlantUML version 1.2020.19(Tue Oct 13 00:10:01 KST 2020)
(APACHE source distribution)
Java Runtime: Java(TM) SE Runtime Environment
JVM: Java HotSpot(TM) 64-Bit Server VM
Default Encoding: MS949
Language: ko
Country: KR
--></g></svg>