<?xml version="1.0" encoding="UTF-8" standalone="no"?><svg xmlns="http://www.w3.org/2000/svg" xmlns:xlink="http://www.w3.org/1999/xlink" contentScriptType="application/ecmascript" contentStyleType="text/css" height="414px" preserveAspectRatio="none" style="width:312px;height:414px;" version="1.1" viewBox="0 0 312 414" width="312px" zoomAndPan="magnify"><defs><filter height="300%" id="fy37l23e9xuy9" width="300%" x="-1" y="-1"><feGaussianBlur result="blurOut" stdDeviation="2.0"/><feColorMatrix in="blurOut" result="blurOut2" type="matrix" values="0 0 0 0 0 0 0 0 0 0 0 0 0 0 0 0 0 0 .4 0"/><feOffset dx="4.0" dy="4.0" in="blurOut2" result="blurOut3"/><feBlend in="SourceGraphic" in2="blurOut3" mode="normal"/></filter></defs><g><!--MD5=[08db556fb7637cb13b44ac2d0f98c040]
cluster complexity.Complex.Complex(dataSet--><polygon fill="#FFFFFF" filter="url(#fy37l23e9xuy9)" points="16,6,285,6,292,31.2295,295,31.2295,295,407,16,407,16,6" style="stroke: #000000; stroke-width: 1.5;"/><line style="stroke: #000000; stroke-width: 1.5;" x1="16" x2="292" y1="31.2295" y2="31.2295"/><text fill="#000000" font-family="sans-serif" font-size="14" font-weight="bold" lengthAdjust="spacingAndGlyphs" textLength="263" x="20" y="24.1533">complexity.Complex.Complex(dataSet</text><!--MD5=[65092984f7dac6f7435c6192d28c9682]
class complexity.Complex.Complex(dataSet.Class)--><rect codeLine="1" fill="#FEFECE" filter="url(#fy37l23e9xuy9)" height="346.6233" id="complexity.Complex.Complex(dataSet.Class)" style="stroke: #A80036; stroke-width: 1.5;" width="239" x="35.5" y="44"/><ellipse cx="132.25" cy="60" fill="#ADD1B2" rx="11" ry="11" style="stroke: #A80036; stroke-width: 1.0;"/><path d="M132.0781,53.4844 Q130.2031,53.4844 129.0469,55.2344 Q127.8594,57.0156 127.8594,60.0156 Q127.8594,63.3906 129.0625,65.1563 Q130.125,66.7813 131.875,66.7813 Q133.5625,66.7813 134.5156,65.875 Q135.5781,64.8594 135.7188,62.625 Q135.7188,62.2031 135.4844,61.9688 Q135.2969,61.7344 134.9531,61.7031 Q134.625,61.7031 134.3906,61.8906 Q134.125,62.125 134.125,62.5156 Q134.0938,63.9063 133.5,64.6406 Q132.9688,65.3438 132.0156,65.3438 Q130.8594,65.3438 130.1406,63.9063 Q129.4219,62.4063 129.4219,59.9844 Q129.4219,57.4375 130.3125,56.0469 Q131.0625,54.9219 132.2031,54.9219 Q132.8594,54.9219 133.3594,55.4688 Q133.9219,56.0781 134.0469,57.1406 Q134.0938,57.8438 134.9219,57.7344 Q135.7031,57.625 135.6563,56.9375 Q135.4688,55.4219 134.7031,54.5469 Q133.7656,53.4844 132.0781,53.4844 Z "/><text fill="#000000" font-family="sans-serif" font-size="12" lengthAdjust="spacingAndGlyphs" textLength="37" x="152.75" y="65.6045">Class)</text><line style="stroke: #A80036; stroke-width: 1.5;" x1="36.5" x2="273.5" y1="76" y2="76"/><line style="stroke: #A80036; stroke-width: 1.5;" x1="36.5" x2="135" y1="91.5544" y2="91.5544"/><text fill="#008000" font-family="sans-serif" font-size="11" font-weight="bold" lengthAdjust="spacingAndGlyphs" textLength="40" x="135" y="96.1919">has list</text><line style="stroke: #A80036; stroke-width: 1.5;" x1="175" x2="273.5" y1="91.5544" y2="91.5544"/><line style="stroke: #A80036; stroke-width: 1.0; stroke-dasharray: 1.0,2.0;" x1="36.5" x2="142" y1="114.2178" y2="114.2178"/><text fill="#000000" font-family="sans-serif" font-size="11" lengthAdjust="spacingAndGlyphs" textLength="26" x="142" y="118.8552">class</text><line style="stroke: #A80036; stroke-width: 1.0; stroke-dasharray: 1.0,2.0;" x1="168" x2="273.5" y1="114.2178" y2="114.2178"/><text fill="#000000" font-family="sans-serif" font-size="11" lengthAdjust="spacingAndGlyphs" textLength="100" x="41.5" y="157.1274">Class cls (1920199);</text><line style="stroke: #A80036; stroke-width: 1.0; stroke-dasharray: 1.0,2.0;" x1="36.5" x2="136" y1="136.8811" y2="136.8811"/><text fill="#000000" font-family="sans-serif" font-size="11" lengthAdjust="spacingAndGlyphs" textLength="38" x="136" y="141.5186">member</text><line style="stroke: #A80036; stroke-width: 1.0; stroke-dasharray: 1.0,2.0;" x1="174" x2="273.5" y1="136.8811" y2="136.8811"/><line style="stroke: #A80036; stroke-width: 1.0; stroke-dasharray: 1.0,2.0;" x1="36.5" x2="137.5" y1="171.0989" y2="171.0989"/><text fill="#000000" font-family="sans-serif" font-size="11" lengthAdjust="spacingAndGlyphs" textLength="35" x="137.5" y="175.7363">method</text><line style="stroke: #A80036; stroke-width: 1.0; stroke-dasharray: 1.0,2.0;" x1="172.5" x2="273.5" y1="171.0989" y2="171.0989"/><line style="stroke: #A80036; stroke-width: 1.5;" x1="36.5" x2="127.5" y1="193.7622" y2="193.7622"/><text fill="#0000FF" font-family="sans-serif" font-size="11" font-weight="bold" lengthAdjust="spacingAndGlyphs" textLength="55" x="127.5" y="198.3997">calling list</text><line style="stroke: #A80036; stroke-width: 1.5;" x1="182.5" x2="273.5" y1="193.7622" y2="193.7622"/><text fill="#000000" font-family="sans-serif" font-size="11" lengthAdjust="spacingAndGlyphs" textLength="115" x="41.5" y="236.6719">Complex (2068103096);</text><line style="stroke: #A80036; stroke-width: 1.0; stroke-dasharray: 1.0,2.0;" x1="36.5" x2="142" y1="216.4255" y2="216.4255"/><text fill="#000000" font-family="sans-serif" font-size="11" lengthAdjust="spacingAndGlyphs" textLength="26" x="142" y="221.063">class</text><line style="stroke: #A80036; stroke-width: 1.0; stroke-dasharray: 1.0,2.0;" x1="168" x2="273.5" y1="216.4255" y2="216.4255"/><line style="stroke: #A80036; stroke-width: 1.0; stroke-dasharray: 1.0,2.0;" x1="36.5" x2="136" y1="250.6433" y2="250.6433"/><text fill="#000000" font-family="sans-serif" font-size="11" lengthAdjust="spacingAndGlyphs" textLength="38" x="136" y="255.2808">member</text><line style="stroke: #A80036; stroke-width: 1.0; stroke-dasharray: 1.0,2.0;" x1="174" x2="273.5" y1="250.6433" y2="250.6433"/><text fill="#000000" font-family="sans-serif" font-size="11" lengthAdjust="spacingAndGlyphs" textLength="227" x="41.5" y="293.553">void simpleMake(dataSet.Class) (1478683866);</text><line style="stroke: #A80036; stroke-width: 1.0; stroke-dasharray: 1.0,2.0;" x1="36.5" x2="137.5" y1="273.3066" y2="273.3066"/><text fill="#000000" font-family="sans-serif" font-size="11" lengthAdjust="spacingAndGlyphs" textLength="35" x="137.5" y="277.9441">method</text><line style="stroke: #A80036; stroke-width: 1.0; stroke-dasharray: 1.0,2.0;" x1="172.5" x2="273.5" y1="273.3066" y2="273.3066"/><line style="stroke: #A80036; stroke-width: 1.5;" x1="36.5" x2="121" y1="307.5244" y2="307.5244"/><text fill="#FFA500" font-family="sans-serif" font-size="11" font-weight="bold" lengthAdjust="spacingAndGlyphs" textLength="68" x="121" y="312.1619">called by list</text><line style="stroke: #A80036; stroke-width: 1.5;" x1="189" x2="273.5" y1="307.5244" y2="307.5244"/><line style="stroke: #A80036; stroke-width: 1.0; stroke-dasharray: 1.0,2.0;" x1="36.5" x2="142" y1="330.1877" y2="330.1877"/><text fill="#000000" font-family="sans-serif" font-size="11" lengthAdjust="spacingAndGlyphs" textLength="26" x="142" y="334.8252">class</text><line style="stroke: #A80036; stroke-width: 1.0; stroke-dasharray: 1.0,2.0;" x1="168" x2="273.5" y1="330.1877" y2="330.1877"/><line style="stroke: #A80036; stroke-width: 1.0; stroke-dasharray: 1.0,2.0;" x1="36.5" x2="136" y1="352.8511" y2="352.8511"/><text fill="#000000" font-family="sans-serif" font-size="11" lengthAdjust="spacingAndGlyphs" textLength="38" x="136" y="357.4885">member</text><line style="stroke: #A80036; stroke-width: 1.0; stroke-dasharray: 1.0,2.0;" x1="174" x2="273.5" y1="352.8511" y2="352.8511"/><line style="stroke: #A80036; stroke-width: 1.0; stroke-dasharray: 1.0,2.0;" x1="36.5" x2="137.5" y1="375.5144" y2="375.5144"/><text fill="#000000" font-family="sans-serif" font-size="11" lengthAdjust="spacingAndGlyphs" textLength="35" x="137.5" y="380.1519">method</text><line style="stroke: #A80036; stroke-width: 1.0; stroke-dasharray: 1.0,2.0;" x1="172.5" x2="273.5" y1="375.5144" y2="375.5144"/><!--MD5=[f89c9b35b4cae131bddbcff468382cda]
@startuml
class complexity.Complex.Complex(dataSet.Class){
__**<color:green>has list</color>**__
..class..
..member..
	Class cls (1920199);
..method..
__**<color:blue>calling list</color>**__
..class..
	Complex (2068103096);
..member..
..method..
	void simpleMake(dataSet.Class) (1478683866);
__**<color:orange>called by list</color>**__
..class..
..member..
..method..
}

@enduml

PlantUML version 1.2020.19(Tue Oct 13 00:10:01 KST 2020)
(APACHE source distribution)
Java Runtime: Java(TM) SE Runtime Environment
JVM: Java HotSpot(TM) 64-Bit Server VM
Default Encoding: MS949
Language: ko
Country: KR
--></g></svg>