<?xml version="1.0" encoding="UTF-8" standalone="no"?><svg xmlns="http://www.w3.org/2000/svg" xmlns:xlink="http://www.w3.org/1999/xlink" contentScriptType="application/ecmascript" contentStyleType="text/css" height="463px" preserveAspectRatio="none" style="width:341px;height:463px;" version="1.1" viewBox="0 0 341 463" width="341px" zoomAndPan="magnify"><defs><filter height="300%" id="f1cp8plqp5rnna" width="300%" x="-1" y="-1"><feGaussianBlur result="blurOut" stdDeviation="2.0"/><feColorMatrix in="blurOut" result="blurOut2" type="matrix" values="0 0 0 0 0 0 0 0 0 0 0 0 0 0 0 0 0 0 .4 0"/><feOffset dx="4.0" dy="4.0" in="blurOut2" result="blurOut3"/><feBlend in="SourceGraphic" in2="blurOut3" mode="normal"/></filter></defs><g><!--MD5=[c9584941b6311bac6fd9a80f8ba5ea1b]
cluster complexity.Complex.simpleMake(dataSet--><polygon fill="#FFFFFF" filter="url(#f1cp8plqp5rnna)" points="16,6,308,6,315,31.2295,324,31.2295,324,456,16,456,16,6" style="stroke: #000000; stroke-width: 1.5;"/><line style="stroke: #000000; stroke-width: 1.5;" x1="16" x2="315" y1="31.2295" y2="31.2295"/><text fill="#000000" font-family="sans-serif" font-size="14" font-weight="bold" lengthAdjust="spacingAndGlyphs" textLength="286" x="20" y="24.1533">complexity.Complex.simpleMake(dataSet</text><!--MD5=[264c3c94068412cd365edb911165332d]
class complexity.Complex.simpleMake(dataSet.Class)--><rect codeLine="1" fill="#FEFECE" filter="url(#f1cp8plqp5rnna)" height="396.3955" id="complexity.Complex.simpleMake(dataSet.Class)" style="stroke: #A80036; stroke-width: 1.5;" width="276" x="32" y="44"/><ellipse cx="147.25" cy="60" fill="#ADD1B2" rx="11" ry="11" style="stroke: #A80036; stroke-width: 1.0;"/><path d="M147.0781,53.4844 Q145.2031,53.4844 144.0469,55.2344 Q142.8594,57.0156 142.8594,60.0156 Q142.8594,63.3906 144.0625,65.1563 Q145.125,66.7813 146.875,66.7813 Q148.5625,66.7813 149.5156,65.875 Q150.5781,64.8594 150.7188,62.625 Q150.7188,62.2031 150.4844,61.9688 Q150.2969,61.7344 149.9531,61.7031 Q149.625,61.7031 149.3906,61.8906 Q149.125,62.125 149.125,62.5156 Q149.0938,63.9063 148.5,64.6406 Q147.9688,65.3438 147.0156,65.3438 Q145.8594,65.3438 145.1406,63.9063 Q144.4219,62.4063 144.4219,59.9844 Q144.4219,57.4375 145.3125,56.0469 Q146.0625,54.9219 147.2031,54.9219 Q147.8594,54.9219 148.3594,55.4688 Q148.9219,56.0781 149.0469,57.1406 Q149.0938,57.8438 149.9219,57.7344 Q150.7031,57.625 150.6563,56.9375 Q150.4688,55.4219 149.7031,54.5469 Q148.7656,53.4844 147.0781,53.4844 Z "/><text fill="#000000" font-family="sans-serif" font-size="12" lengthAdjust="spacingAndGlyphs" textLength="37" x="167.75" y="65.6045">Class)</text><line style="stroke: #A80036; stroke-width: 1.5;" x1="33" x2="307" y1="76" y2="76"/><line style="stroke: #A80036; stroke-width: 1.5;" x1="33" x2="150" y1="91.5544" y2="91.5544"/><text fill="#008000" font-family="sans-serif" font-size="11" font-weight="bold" lengthAdjust="spacingAndGlyphs" textLength="40" x="150" y="96.1919">has list</text><line style="stroke: #A80036; stroke-width: 1.5;" x1="190" x2="307" y1="91.5544" y2="91.5544"/><line style="stroke: #A80036; stroke-width: 1.0; stroke-dasharray: 1.0,2.0;" x1="33" x2="157" y1="114.2178" y2="114.2178"/><text fill="#000000" font-family="sans-serif" font-size="11" lengthAdjust="spacingAndGlyphs" textLength="26" x="157" y="118.8552">class</text><line style="stroke: #A80036; stroke-width: 1.0; stroke-dasharray: 1.0,2.0;" x1="183" x2="307" y1="114.2178" y2="114.2178"/><text fill="#000000" font-family="sans-serif" font-size="11" lengthAdjust="spacingAndGlyphs" textLength="118" x="38" y="157.1274">Class cls (2099826125);</text><line style="stroke: #A80036; stroke-width: 1.0; stroke-dasharray: 1.0,2.0;" x1="33" x2="151" y1="136.8811" y2="136.8811"/><text fill="#000000" font-family="sans-serif" font-size="11" lengthAdjust="spacingAndGlyphs" textLength="38" x="151" y="141.5186">member</text><line style="stroke: #A80036; stroke-width: 1.0; stroke-dasharray: 1.0,2.0;" x1="189" x2="307" y1="136.8811" y2="136.8811"/><line style="stroke: #A80036; stroke-width: 1.0; stroke-dasharray: 1.0,2.0;" x1="33" x2="152.5" y1="171.0989" y2="171.0989"/><text fill="#000000" font-family="sans-serif" font-size="11" lengthAdjust="spacingAndGlyphs" textLength="35" x="152.5" y="175.7363">method</text><line style="stroke: #A80036; stroke-width: 1.0; stroke-dasharray: 1.0,2.0;" x1="187.5" x2="307" y1="171.0989" y2="171.0989"/><line style="stroke: #A80036; stroke-width: 1.5;" x1="33" x2="142.5" y1="193.7622" y2="193.7622"/><text fill="#0000FF" font-family="sans-serif" font-size="11" font-weight="bold" lengthAdjust="spacingAndGlyphs" textLength="55" x="142.5" y="198.3997">calling list</text><line style="stroke: #A80036; stroke-width: 1.5;" x1="197.5" x2="307" y1="193.7622" y2="193.7622"/><text fill="#000000" font-family="sans-serif" font-size="11" lengthAdjust="spacingAndGlyphs" textLength="115" x="38" y="236.6719">Complex (2068103096);</text><line style="stroke: #A80036; stroke-width: 1.0; stroke-dasharray: 1.0,2.0;" x1="33" x2="157" y1="216.4255" y2="216.4255"/><text fill="#000000" font-family="sans-serif" font-size="11" lengthAdjust="spacingAndGlyphs" textLength="26" x="157" y="221.063">class</text><line style="stroke: #A80036; stroke-width: 1.0; stroke-dasharray: 1.0,2.0;" x1="183" x2="307" y1="216.4255" y2="216.4255"/><text fill="#000000" font-family="sans-serif" font-size="11" lengthAdjust="spacingAndGlyphs" textLength="104" x="38" y="270.8896">int line (1000600589);</text><line style="stroke: #A80036; stroke-width: 1.0; stroke-dasharray: 1.0,2.0;" x1="33" x2="151" y1="250.6433" y2="250.6433"/><text fill="#000000" font-family="sans-serif" font-size="11" lengthAdjust="spacingAndGlyphs" textLength="38" x="151" y="255.2808">member</text><line style="stroke: #A80036; stroke-width: 1.0; stroke-dasharray: 1.0,2.0;" x1="189" x2="307" y1="250.6433" y2="250.6433"/><text fill="#000000" font-family="sans-serif" font-size="11" lengthAdjust="spacingAndGlyphs" textLength="264" x="38" y="305.1074">int getMemberScore(dataSet.Data_base) (711964207);</text><text fill="#000000" font-family="sans-serif" font-size="11" lengthAdjust="spacingAndGlyphs" textLength="260" x="38" y="320.2163">void addFunctionScore(dataSet.Class) (1493755606);</text><line style="stroke: #A80036; stroke-width: 1.0; stroke-dasharray: 1.0,2.0;" x1="33" x2="152.5" y1="284.8611" y2="284.8611"/><text fill="#000000" font-family="sans-serif" font-size="11" lengthAdjust="spacingAndGlyphs" textLength="35" x="152.5" y="289.4985">method</text><line style="stroke: #A80036; stroke-width: 1.0; stroke-dasharray: 1.0,2.0;" x1="187.5" x2="307" y1="284.8611" y2="284.8611"/><line style="stroke: #A80036; stroke-width: 1.5;" x1="33" x2="136" y1="334.1877" y2="334.1877"/><text fill="#FFA500" font-family="sans-serif" font-size="11" font-weight="bold" lengthAdjust="spacingAndGlyphs" textLength="68" x="136" y="338.8252">called by list</text><line style="stroke: #A80036; stroke-width: 1.5;" x1="204" x2="307" y1="334.1877" y2="334.1877"/><text fill="#000000" font-family="sans-serif" font-size="11" lengthAdjust="spacingAndGlyphs" textLength="115" x="38" y="377.0974">Complex (2068103096);</text><line style="stroke: #A80036; stroke-width: 1.0; stroke-dasharray: 1.0,2.0;" x1="33" x2="157" y1="356.8511" y2="356.8511"/><text fill="#000000" font-family="sans-serif" font-size="11" lengthAdjust="spacingAndGlyphs" textLength="26" x="157" y="361.4885">class</text><line style="stroke: #A80036; stroke-width: 1.0; stroke-dasharray: 1.0,2.0;" x1="183" x2="307" y1="356.8511" y2="356.8511"/><line style="stroke: #A80036; stroke-width: 1.0; stroke-dasharray: 1.0,2.0;" x1="33" x2="151" y1="391.0688" y2="391.0688"/><text fill="#000000" font-family="sans-serif" font-size="11" lengthAdjust="spacingAndGlyphs" textLength="38" x="151" y="395.7063">member</text><line style="stroke: #A80036; stroke-width: 1.0; stroke-dasharray: 1.0,2.0;" x1="189" x2="307" y1="391.0688" y2="391.0688"/><text fill="#000000" font-family="sans-serif" font-size="11" lengthAdjust="spacingAndGlyphs" textLength="234" x="38" y="433.9785">Complex Complex(dataSet.Class) (1124131392);</text><line style="stroke: #A80036; stroke-width: 1.0; stroke-dasharray: 1.0,2.0;" x1="33" x2="152.5" y1="413.7322" y2="413.7322"/><text fill="#000000" font-family="sans-serif" font-size="11" lengthAdjust="spacingAndGlyphs" textLength="35" x="152.5" y="418.3696">method</text><line style="stroke: #A80036; stroke-width: 1.0; stroke-dasharray: 1.0,2.0;" x1="187.5" x2="307" y1="413.7322" y2="413.7322"/><!--MD5=[bad236fb441c75e5e93a2289c199fb6b]
@startuml
class complexity.Complex.simpleMake(dataSet.Class){
__**<color:green>has list</color>**__
..class..
..member..
	Class cls (2099826125);
..method..
__**<color:blue>calling list</color>**__
..class..
	Complex (2068103096);
..member..
	int line (1000600589);
..method..
	int getMemberScore(dataSet.Data_base) (711964207);
	void addFunctionScore(dataSet.Class) (1493755606);
__**<color:orange>called by list</color>**__
..class..
	Complex (2068103096);
..member..
..method..
	Complex Complex(dataSet.Class) (1124131392);
}

@enduml

PlantUML version 1.2020.19(Tue Oct 13 00:10:01 KST 2020)
(APACHE source distribution)
Java Runtime: Java(TM) SE Runtime Environment
JVM: Java HotSpot(TM) 64-Bit Server VM
Default Encoding: MS949
Language: ko
Country: KR
--></g></svg>