<?xml version="1.0" encoding="UTF-8" standalone="no"?><svg xmlns="http://www.w3.org/2000/svg" xmlns:xlink="http://www.w3.org/1999/xlink" contentScriptType="application/ecmascript" contentStyleType="text/css" height="402px" preserveAspectRatio="none" style="width:213px;height:402px;" version="1.1" viewBox="0 0 213 402" width="213px" zoomAndPan="magnify"><defs><filter height="300%" id="fyf6m0ud829kl" width="300%" x="-1" y="-1"><feGaussianBlur result="blurOut" stdDeviation="2.0"/><feColorMatrix in="blurOut" result="blurOut2" type="matrix" values="0 0 0 0 0 0 0 0 0 0 0 0 0 0 0 0 0 0 .4 0"/><feOffset dx="4.0" dy="4.0" in="blurOut2" result="blurOut3"/><feBlend in="SourceGraphic" in2="blurOut3" mode="normal"/></filter></defs><g><!--MD5=[482f9006f970836977875388f65a0cc8]
cluster complexity.Complex--><polygon fill="#FFFFFF" filter="url(#fyf6m0ud829kl)" points="16,6,162,6,169,31.2295,196,31.2295,196,395,16,395,16,6" style="stroke: #000000; stroke-width: 1.5;"/><line style="stroke: #000000; stroke-width: 1.5;" x1="16" x2="169" y1="31.2295" y2="31.2295"/><text fill="#000000" font-family="sans-serif" font-size="14" font-weight="bold" lengthAdjust="spacingAndGlyphs" textLength="140" x="20" y="24.1533">complexity.Complex</text><!--MD5=[efcf18678143cfff926200fe4395facc]
class complexity.Complex.getUndefSize()--><rect codeLine="1" fill="#FEFECE" filter="url(#fyf6m0ud829kl)" height="335.0688" id="complexity.Complex.getUndefSize()" style="stroke: #A80036; stroke-width: 1.5;" width="147" x="32.5" y="44"/><ellipse cx="62.8" cy="60" fill="#ADD1B2" rx="11" ry="11" style="stroke: #A80036; stroke-width: 1.0;"/><path d="M62.6281,53.4844 Q60.7531,53.4844 59.5969,55.2344 Q58.4094,57.0156 58.4094,60.0156 Q58.4094,63.3906 59.6125,65.1563 Q60.675,66.7813 62.425,66.7813 Q64.1125,66.7813 65.0656,65.875 Q66.1281,64.8594 66.2688,62.625 Q66.2688,62.2031 66.0344,61.9688 Q65.8469,61.7344 65.5031,61.7031 Q65.175,61.7031 64.9406,61.8906 Q64.675,62.125 64.675,62.5156 Q64.6438,63.9063 64.05,64.6406 Q63.5188,65.3438 62.5656,65.3438 Q61.4094,65.3438 60.6906,63.9063 Q59.9719,62.4063 59.9719,59.9844 Q59.9719,57.4375 60.8625,56.0469 Q61.6125,54.9219 62.7531,54.9219 Q63.4094,54.9219 63.9094,55.4688 Q64.4719,56.0781 64.5969,57.1406 Q64.6438,57.8438 65.4719,57.7344 Q66.2531,57.625 66.2063,56.9375 Q66.0188,55.4219 65.2531,54.5469 Q64.3156,53.4844 62.6281,53.4844 Z "/><text fill="#000000" font-family="sans-serif" font-size="12" lengthAdjust="spacingAndGlyphs" textLength="81" x="80.2" y="65.6045">getUndefSize()</text><line style="stroke: #A80036; stroke-width: 1.5;" x1="33.5" x2="178.5" y1="76" y2="76"/><line style="stroke: #A80036; stroke-width: 1.5;" x1="33.5" x2="86" y1="91.5544" y2="91.5544"/><text fill="#008000" font-family="sans-serif" font-size="11" font-weight="bold" lengthAdjust="spacingAndGlyphs" textLength="40" x="86" y="96.1919">has list</text><line style="stroke: #A80036; stroke-width: 1.5;" x1="126" x2="178.5" y1="91.5544" y2="91.5544"/><line style="stroke: #A80036; stroke-width: 1.0; stroke-dasharray: 1.0,2.0;" x1="33.5" x2="93" y1="114.2178" y2="114.2178"/><text fill="#000000" font-family="sans-serif" font-size="11" lengthAdjust="spacingAndGlyphs" textLength="26" x="93" y="118.8552">class</text><line style="stroke: #A80036; stroke-width: 1.0; stroke-dasharray: 1.0,2.0;" x1="119" x2="178.5" y1="114.2178" y2="114.2178"/><line style="stroke: #A80036; stroke-width: 1.0; stroke-dasharray: 1.0,2.0;" x1="33.5" x2="87" y1="136.8811" y2="136.8811"/><text fill="#000000" font-family="sans-serif" font-size="11" lengthAdjust="spacingAndGlyphs" textLength="38" x="87" y="141.5186">member</text><line style="stroke: #A80036; stroke-width: 1.0; stroke-dasharray: 1.0,2.0;" x1="125" x2="178.5" y1="136.8811" y2="136.8811"/><line style="stroke: #A80036; stroke-width: 1.0; stroke-dasharray: 1.0,2.0;" x1="33.5" x2="88.5" y1="159.5444" y2="159.5444"/><text fill="#000000" font-family="sans-serif" font-size="11" lengthAdjust="spacingAndGlyphs" textLength="35" x="88.5" y="164.1819">method</text><line style="stroke: #A80036; stroke-width: 1.0; stroke-dasharray: 1.0,2.0;" x1="123.5" x2="178.5" y1="159.5444" y2="159.5444"/><line style="stroke: #A80036; stroke-width: 1.5;" x1="33.5" x2="78.5" y1="182.2078" y2="182.2078"/><text fill="#0000FF" font-family="sans-serif" font-size="11" font-weight="bold" lengthAdjust="spacingAndGlyphs" textLength="55" x="78.5" y="186.8452">calling list</text><line style="stroke: #A80036; stroke-width: 1.5;" x1="133.5" x2="178.5" y1="182.2078" y2="182.2078"/><text fill="#000000" font-family="sans-serif" font-size="11" lengthAdjust="spacingAndGlyphs" textLength="135" x="38.5" y="225.1174">StringBuilder (1578052738);</text><line style="stroke: #A80036; stroke-width: 1.0; stroke-dasharray: 1.0,2.0;" x1="33.5" x2="93" y1="204.8711" y2="204.8711"/><text fill="#000000" font-family="sans-serif" font-size="11" lengthAdjust="spacingAndGlyphs" textLength="26" x="93" y="209.5085">class</text><line style="stroke: #A80036; stroke-width: 1.0; stroke-dasharray: 1.0,2.0;" x1="119" x2="178.5" y1="204.8711" y2="204.8711"/><line style="stroke: #A80036; stroke-width: 1.0; stroke-dasharray: 1.0,2.0;" x1="33.5" x2="87" y1="239.0889" y2="239.0889"/><text fill="#000000" font-family="sans-serif" font-size="11" lengthAdjust="spacingAndGlyphs" textLength="38" x="87" y="243.7263">member</text><line style="stroke: #A80036; stroke-width: 1.0; stroke-dasharray: 1.0,2.0;" x1="125" x2="178.5" y1="239.0889" y2="239.0889"/><text fill="#000000" font-family="sans-serif" font-size="11" lengthAdjust="spacingAndGlyphs" textLength="132" x="38.5" y="281.9985">null toString() (715570093);</text><line style="stroke: #A80036; stroke-width: 1.0; stroke-dasharray: 1.0,2.0;" x1="33.5" x2="88.5" y1="261.7522" y2="261.7522"/><text fill="#000000" font-family="sans-serif" font-size="11" lengthAdjust="spacingAndGlyphs" textLength="35" x="88.5" y="266.3896">method</text><line style="stroke: #A80036; stroke-width: 1.0; stroke-dasharray: 1.0,2.0;" x1="123.5" x2="178.5" y1="261.7522" y2="261.7522"/><line style="stroke: #A80036; stroke-width: 1.5;" x1="33.5" x2="72" y1="295.97" y2="295.97"/><text fill="#FFA500" font-family="sans-serif" font-size="11" font-weight="bold" lengthAdjust="spacingAndGlyphs" textLength="68" x="72" y="300.6074">called by list</text><line style="stroke: #A80036; stroke-width: 1.5;" x1="140" x2="178.5" y1="295.97" y2="295.97"/><line style="stroke: #A80036; stroke-width: 1.0; stroke-dasharray: 1.0,2.0;" x1="33.5" x2="93" y1="318.6333" y2="318.6333"/><text fill="#000000" font-family="sans-serif" font-size="11" lengthAdjust="spacingAndGlyphs" textLength="26" x="93" y="323.2708">class</text><line style="stroke: #A80036; stroke-width: 1.0; stroke-dasharray: 1.0,2.0;" x1="119" x2="178.5" y1="318.6333" y2="318.6333"/><line style="stroke: #A80036; stroke-width: 1.0; stroke-dasharray: 1.0,2.0;" x1="33.5" x2="87" y1="341.2966" y2="341.2966"/><text fill="#000000" font-family="sans-serif" font-size="11" lengthAdjust="spacingAndGlyphs" textLength="38" x="87" y="345.9341">member</text><line style="stroke: #A80036; stroke-width: 1.0; stroke-dasharray: 1.0,2.0;" x1="125" x2="178.5" y1="341.2966" y2="341.2966"/><line style="stroke: #A80036; stroke-width: 1.0; stroke-dasharray: 1.0,2.0;" x1="33.5" x2="88.5" y1="363.96" y2="363.96"/><text fill="#000000" font-family="sans-serif" font-size="11" lengthAdjust="spacingAndGlyphs" textLength="35" x="88.5" y="368.5974">method</text><line style="stroke: #A80036; stroke-width: 1.0; stroke-dasharray: 1.0,2.0;" x1="123.5" x2="178.5" y1="363.96" y2="363.96"/><!--MD5=[e312dff1041b7b71ad89ab4005ffe3d3]
@startuml
class complexity.Complex.getUndefSize(){
__**<color:green>has list</color>**__
..class..
..member..
..method..
__**<color:blue>calling list</color>**__
..class..
	StringBuilder (1578052738);
..member..
..method..
	null toString() (715570093);
__**<color:orange>called by list</color>**__
..class..
..member..
..method..
}

@enduml

PlantUML version 1.2020.19(Tue Oct 13 00:10:01 KST 2020)
(APACHE source distribution)
Java Runtime: Java(TM) SE Runtime Environment
JVM: Java HotSpot(TM) 64-Bit Server VM
Default Encoding: MS949
Language: ko
Country: KR
--></g></svg>