<?xml version="1.0" encoding="UTF-8" standalone="no"?><svg xmlns="http://www.w3.org/2000/svg" xmlns:xlink="http://www.w3.org/1999/xlink" contentScriptType="application/ecmascript" contentStyleType="text/css" height="379px" preserveAspectRatio="none" style="width:189px;height:379px;" version="1.1" viewBox="0 0 189 379" width="189px" zoomAndPan="magnify"><defs><filter height="300%" id="f1jvkr7umnd5yt" width="300%" x="-1" y="-1"><feGaussianBlur result="blurOut" stdDeviation="2.0"/><feColorMatrix in="blurOut" result="blurOut2" type="matrix" values="0 0 0 0 0 0 0 0 0 0 0 0 0 0 0 0 0 0 .4 0"/><feOffset dx="4.0" dy="4.0" in="blurOut2" result="blurOut3"/><feBlend in="SourceGraphic" in2="blurOut3" mode="normal"/></filter></defs><g><!--MD5=[482f9006f970836977875388f65a0cc8]
cluster complexity.Complex--><polygon fill="#FFFFFF" filter="url(#f1jvkr7umnd5yt)" points="16,6,162,6,169,31.2295,172,31.2295,172,372,16,372,16,6" style="stroke: #000000; stroke-width: 1.5;"/><line style="stroke: #000000; stroke-width: 1.5;" x1="16" x2="169" y1="31.2295" y2="31.2295"/><text fill="#000000" font-family="sans-serif" font-size="14" font-weight="bold" lengthAdjust="spacingAndGlyphs" textLength="140" x="20" y="24.1533">complexity.Complex</text><!--MD5=[10b9eb2330ce42d396539cc01d19a7d8]
class complexity.Complex.getScore()--><rect codeLine="1" fill="#FEFECE" filter="url(#f1jvkr7umnd5yt)" height="311.96" id="complexity.Complex.getScore()" style="stroke: #A80036; stroke-width: 1.5;" width="89" x="49.5" y="44"/><ellipse cx="64.5" cy="60" fill="#ADD1B2" rx="11" ry="11" style="stroke: #A80036; stroke-width: 1.0;"/><path d="M64.3281,53.4844 Q62.4531,53.4844 61.2969,55.2344 Q60.1094,57.0156 60.1094,60.0156 Q60.1094,63.3906 61.3125,65.1563 Q62.375,66.7813 64.125,66.7813 Q65.8125,66.7813 66.7656,65.875 Q67.8281,64.8594 67.9688,62.625 Q67.9688,62.2031 67.7344,61.9688 Q67.5469,61.7344 67.2031,61.7031 Q66.875,61.7031 66.6406,61.8906 Q66.375,62.125 66.375,62.5156 Q66.3438,63.9063 65.75,64.6406 Q65.2188,65.3438 64.2656,65.3438 Q63.1094,65.3438 62.3906,63.9063 Q61.6719,62.4063 61.6719,59.9844 Q61.6719,57.4375 62.5625,56.0469 Q63.3125,54.9219 64.4531,54.9219 Q65.1094,54.9219 65.6094,55.4688 Q66.1719,56.0781 66.2969,57.1406 Q66.3438,57.8438 67.1719,57.7344 Q67.9531,57.625 67.9063,56.9375 Q67.7188,55.4219 66.9531,54.5469 Q66.0156,53.4844 64.3281,53.4844 Z "/><text fill="#000000" font-family="sans-serif" font-size="12" lengthAdjust="spacingAndGlyphs" textLength="57" x="78.5" y="65.6045">getScore()</text><line style="stroke: #A80036; stroke-width: 1.5;" x1="50.5" x2="137.5" y1="76" y2="76"/><line style="stroke: #A80036; stroke-width: 1.5;" x1="50.5" x2="74" y1="91.5544" y2="91.5544"/><text fill="#008000" font-family="sans-serif" font-size="11" font-weight="bold" lengthAdjust="spacingAndGlyphs" textLength="40" x="74" y="96.1919">has list</text><line style="stroke: #A80036; stroke-width: 1.5;" x1="114" x2="137.5" y1="91.5544" y2="91.5544"/><line style="stroke: #A80036; stroke-width: 1.0; stroke-dasharray: 1.0,2.0;" x1="50.5" x2="81" y1="114.2178" y2="114.2178"/><text fill="#000000" font-family="sans-serif" font-size="11" lengthAdjust="spacingAndGlyphs" textLength="26" x="81" y="118.8552">class</text><line style="stroke: #A80036; stroke-width: 1.0; stroke-dasharray: 1.0,2.0;" x1="107" x2="137.5" y1="114.2178" y2="114.2178"/><line style="stroke: #A80036; stroke-width: 1.0; stroke-dasharray: 1.0,2.0;" x1="50.5" x2="75" y1="136.8811" y2="136.8811"/><text fill="#000000" font-family="sans-serif" font-size="11" lengthAdjust="spacingAndGlyphs" textLength="38" x="75" y="141.5186">member</text><line style="stroke: #A80036; stroke-width: 1.0; stroke-dasharray: 1.0,2.0;" x1="113" x2="137.5" y1="136.8811" y2="136.8811"/><line style="stroke: #A80036; stroke-width: 1.0; stroke-dasharray: 1.0,2.0;" x1="50.5" x2="76.5" y1="159.5444" y2="159.5444"/><text fill="#000000" font-family="sans-serif" font-size="11" lengthAdjust="spacingAndGlyphs" textLength="35" x="76.5" y="164.1819">method</text><line style="stroke: #A80036; stroke-width: 1.0; stroke-dasharray: 1.0,2.0;" x1="111.5" x2="137.5" y1="159.5444" y2="159.5444"/><line style="stroke: #A80036; stroke-width: 1.5;" x1="50.5" x2="66.5" y1="182.2078" y2="182.2078"/><text fill="#0000FF" font-family="sans-serif" font-size="11" font-weight="bold" lengthAdjust="spacingAndGlyphs" textLength="55" x="66.5" y="186.8452">calling list</text><line style="stroke: #A80036; stroke-width: 1.5;" x1="121.5" x2="137.5" y1="182.2078" y2="182.2078"/><line style="stroke: #A80036; stroke-width: 1.0; stroke-dasharray: 1.0,2.0;" x1="50.5" x2="81" y1="204.8711" y2="204.8711"/><text fill="#000000" font-family="sans-serif" font-size="11" lengthAdjust="spacingAndGlyphs" textLength="26" x="81" y="209.5085">class</text><line style="stroke: #A80036; stroke-width: 1.0; stroke-dasharray: 1.0,2.0;" x1="107" x2="137.5" y1="204.8711" y2="204.8711"/><line style="stroke: #A80036; stroke-width: 1.0; stroke-dasharray: 1.0,2.0;" x1="50.5" x2="75" y1="227.5344" y2="227.5344"/><text fill="#000000" font-family="sans-serif" font-size="11" lengthAdjust="spacingAndGlyphs" textLength="38" x="75" y="232.1719">member</text><line style="stroke: #A80036; stroke-width: 1.0; stroke-dasharray: 1.0,2.0;" x1="113" x2="137.5" y1="227.5344" y2="227.5344"/><line style="stroke: #A80036; stroke-width: 1.0; stroke-dasharray: 1.0,2.0;" x1="50.5" x2="76.5" y1="250.1978" y2="250.1978"/><text fill="#000000" font-family="sans-serif" font-size="11" lengthAdjust="spacingAndGlyphs" textLength="35" x="76.5" y="254.8352">method</text><line style="stroke: #A80036; stroke-width: 1.0; stroke-dasharray: 1.0,2.0;" x1="111.5" x2="137.5" y1="250.1978" y2="250.1978"/><line style="stroke: #A80036; stroke-width: 1.5;" x1="50.5" x2="60" y1="272.8611" y2="272.8611"/><text fill="#FFA500" font-family="sans-serif" font-size="11" font-weight="bold" lengthAdjust="spacingAndGlyphs" textLength="68" x="60" y="277.4985">called by list</text><line style="stroke: #A80036; stroke-width: 1.5;" x1="128" x2="137.5" y1="272.8611" y2="272.8611"/><line style="stroke: #A80036; stroke-width: 1.0; stroke-dasharray: 1.0,2.0;" x1="50.5" x2="81" y1="295.5244" y2="295.5244"/><text fill="#000000" font-family="sans-serif" font-size="11" lengthAdjust="spacingAndGlyphs" textLength="26" x="81" y="300.1619">class</text><line style="stroke: #A80036; stroke-width: 1.0; stroke-dasharray: 1.0,2.0;" x1="107" x2="137.5" y1="295.5244" y2="295.5244"/><line style="stroke: #A80036; stroke-width: 1.0; stroke-dasharray: 1.0,2.0;" x1="50.5" x2="75" y1="318.1877" y2="318.1877"/><text fill="#000000" font-family="sans-serif" font-size="11" lengthAdjust="spacingAndGlyphs" textLength="38" x="75" y="322.8252">member</text><line style="stroke: #A80036; stroke-width: 1.0; stroke-dasharray: 1.0,2.0;" x1="113" x2="137.5" y1="318.1877" y2="318.1877"/><line style="stroke: #A80036; stroke-width: 1.0; stroke-dasharray: 1.0,2.0;" x1="50.5" x2="76.5" y1="340.8511" y2="340.8511"/><text fill="#000000" font-family="sans-serif" font-size="11" lengthAdjust="spacingAndGlyphs" textLength="35" x="76.5" y="345.4885">method</text><line style="stroke: #A80036; stroke-width: 1.0; stroke-dasharray: 1.0,2.0;" x1="111.5" x2="137.5" y1="340.8511" y2="340.8511"/><!--MD5=[eebaf3969fac94fd02b8c5d8956ae0b0]
@startuml
class complexity.Complex.getScore(){
__**<color:green>has list</color>**__
..class..
..member..
..method..
__**<color:blue>calling list</color>**__
..class..
..member..
..method..
__**<color:orange>called by list</color>**__
..class..
..member..
..method..
}

@enduml

PlantUML version 1.2020.19(Tue Oct 13 00:10:01 KST 2020)
(APACHE source distribution)
Java Runtime: Java(TM) SE Runtime Environment
JVM: Java HotSpot(TM) 64-Bit Server VM
Default Encoding: MS949
Language: ko
Country: KR
--></g></svg>