<?xml version="1.0" encoding="UTF-8" standalone="no"?><svg xmlns="http://www.w3.org/2000/svg" xmlns:xlink="http://www.w3.org/1999/xlink" contentScriptType="application/ecmascript" contentStyleType="text/css" height="425px" preserveAspectRatio="none" style="width:575px;height:425px;" version="1.1" viewBox="0 0 575 425" width="575px" zoomAndPan="magnify"><defs><filter height="300%" id="f13s8fixwr2upt" width="300%" x="-1" y="-1"><feGaussianBlur result="blurOut" stdDeviation="2.0"/><feColorMatrix in="blurOut" result="blurOut2" type="matrix" values="0 0 0 0 0 0 0 0 0 0 0 0 0 0 0 0 0 0 .4 0"/><feOffset dx="4.0" dy="4.0" in="blurOut2" result="blurOut3"/><feBlend in="SourceGraphic" in2="blurOut3" mode="normal"/></filter></defs><g><!--MD5=[a1b0ae979997d63ab09457b59ce10cf7]
cluster dataSet.Function.setCode(java.lang--><polygon fill="#FFFFFF" filter="url(#f13s8fixwr2upt)" points="16,6,272,6,279,31.2295,558,31.2295,558,418,16,418,16,6" style="stroke: #000000; stroke-width: 1.5;"/><line style="stroke: #000000; stroke-width: 1.5;" x1="16" x2="279" y1="31.2295" y2="31.2295"/><text fill="#000000" font-family="sans-serif" font-size="14" font-weight="bold" lengthAdjust="spacingAndGlyphs" textLength="250" x="20" y="24.1533">dataSet.Function.setCode(java.lang</text><!--MD5=[e80992e2e1bf89c50a0a99c6802e6164]
class dataSet.Function.setCode(java.lang.String)--><rect codeLine="1" fill="#FEFECE" filter="url(#f13s8fixwr2upt)" height="358.1777" id="dataSet.Function.setCode(java.lang.String)" style="stroke: #A80036; stroke-width: 1.5;" width="509" x="32.5" y="44"/><ellipse cx="264.75" cy="60" fill="#ADD1B2" rx="11" ry="11" style="stroke: #A80036; stroke-width: 1.0;"/><path d="M264.5781,53.4844 Q262.7031,53.4844 261.5469,55.2344 Q260.3594,57.0156 260.3594,60.0156 Q260.3594,63.3906 261.5625,65.1563 Q262.625,66.7813 264.375,66.7813 Q266.0625,66.7813 267.0156,65.875 Q268.0781,64.8594 268.2188,62.625 Q268.2188,62.2031 267.9844,61.9688 Q267.7969,61.7344 267.4531,61.7031 Q267.125,61.7031 266.8906,61.8906 Q266.625,62.125 266.625,62.5156 Q266.5938,63.9063 266,64.6406 Q265.4688,65.3438 264.5156,65.3438 Q263.3594,65.3438 262.6406,63.9063 Q261.9219,62.4063 261.9219,59.9844 Q261.9219,57.4375 262.8125,56.0469 Q263.5625,54.9219 264.7031,54.9219 Q265.3594,54.9219 265.8594,55.4688 Q266.4219,56.0781 266.5469,57.1406 Q266.5938,57.8438 267.4219,57.7344 Q268.2031,57.625 268.1563,56.9375 Q267.9688,55.4219 267.2031,54.5469 Q266.2656,53.4844 264.5781,53.4844 Z "/><text fill="#000000" font-family="sans-serif" font-size="12" lengthAdjust="spacingAndGlyphs" textLength="36" x="285.25" y="65.6045">String)</text><line style="stroke: #A80036; stroke-width: 1.5;" x1="33.5" x2="540.5" y1="76" y2="76"/><line style="stroke: #A80036; stroke-width: 1.5;" x1="33.5" x2="267" y1="91.5544" y2="91.5544"/><text fill="#008000" font-family="sans-serif" font-size="11" font-weight="bold" lengthAdjust="spacingAndGlyphs" textLength="40" x="267" y="96.1919">has list</text><line style="stroke: #A80036; stroke-width: 1.5;" x1="307" x2="540.5" y1="91.5544" y2="91.5544"/><line style="stroke: #A80036; stroke-width: 1.0; stroke-dasharray: 1.0,2.0;" x1="33.5" x2="274" y1="114.2178" y2="114.2178"/><text fill="#000000" font-family="sans-serif" font-size="11" lengthAdjust="spacingAndGlyphs" textLength="26" x="274" y="118.8552">class</text><line style="stroke: #A80036; stroke-width: 1.0; stroke-dasharray: 1.0,2.0;" x1="300" x2="540.5" y1="114.2178" y2="114.2178"/><text fill="#000000" font-family="sans-serif" font-size="11" lengthAdjust="spacingAndGlyphs" textLength="123" x="38.5" y="157.1274">String code (725177729);</text><line style="stroke: #A80036; stroke-width: 1.0; stroke-dasharray: 1.0,2.0;" x1="33.5" x2="268" y1="136.8811" y2="136.8811"/><text fill="#000000" font-family="sans-serif" font-size="11" lengthAdjust="spacingAndGlyphs" textLength="38" x="268" y="141.5186">member</text><line style="stroke: #A80036; stroke-width: 1.0; stroke-dasharray: 1.0,2.0;" x1="306" x2="540.5" y1="136.8811" y2="136.8811"/><line style="stroke: #A80036; stroke-width: 1.0; stroke-dasharray: 1.0,2.0;" x1="33.5" x2="269.5" y1="171.0989" y2="171.0989"/><text fill="#000000" font-family="sans-serif" font-size="11" lengthAdjust="spacingAndGlyphs" textLength="35" x="269.5" y="175.7363">method</text><line style="stroke: #A80036; stroke-width: 1.0; stroke-dasharray: 1.0,2.0;" x1="304.5" x2="540.5" y1="171.0989" y2="171.0989"/><line style="stroke: #A80036; stroke-width: 1.5;" x1="33.5" x2="259.5" y1="193.7622" y2="193.7622"/><text fill="#0000FF" font-family="sans-serif" font-size="11" font-weight="bold" lengthAdjust="spacingAndGlyphs" textLength="55" x="259.5" y="198.3997">calling list</text><line style="stroke: #A80036; stroke-width: 1.5;" x1="314.5" x2="540.5" y1="193.7622" y2="193.7622"/><line style="stroke: #A80036; stroke-width: 1.0; stroke-dasharray: 1.0,2.0;" x1="33.5" x2="274" y1="216.4255" y2="216.4255"/><text fill="#000000" font-family="sans-serif" font-size="11" lengthAdjust="spacingAndGlyphs" textLength="26" x="274" y="221.063">class</text><line style="stroke: #A80036; stroke-width: 1.0; stroke-dasharray: 1.0,2.0;" x1="300" x2="540.5" y1="216.4255" y2="216.4255"/><text fill="#000000" font-family="sans-serif" font-size="11" lengthAdjust="spacingAndGlyphs" textLength="129" x="38.5" y="259.3352">String code (2039926996);</text><line style="stroke: #A80036; stroke-width: 1.0; stroke-dasharray: 1.0,2.0;" x1="33.5" x2="268" y1="239.0889" y2="239.0889"/><text fill="#000000" font-family="sans-serif" font-size="11" lengthAdjust="spacingAndGlyphs" textLength="38" x="268" y="243.7263">member</text><line style="stroke: #A80036; stroke-width: 1.0; stroke-dasharray: 1.0,2.0;" x1="306" x2="540.5" y1="239.0889" y2="239.0889"/><line style="stroke: #A80036; stroke-width: 1.0; stroke-dasharray: 1.0,2.0;" x1="33.5" x2="269.5" y1="273.3066" y2="273.3066"/><text fill="#000000" font-family="sans-serif" font-size="11" lengthAdjust="spacingAndGlyphs" textLength="35" x="269.5" y="277.9441">method</text><line style="stroke: #A80036; stroke-width: 1.0; stroke-dasharray: 1.0,2.0;" x1="304.5" x2="540.5" y1="273.3066" y2="273.3066"/><line style="stroke: #A80036; stroke-width: 1.5;" x1="33.5" x2="253" y1="295.97" y2="295.97"/><text fill="#FFA500" font-family="sans-serif" font-size="11" font-weight="bold" lengthAdjust="spacingAndGlyphs" textLength="68" x="253" y="300.6074">called by list</text><line style="stroke: #A80036; stroke-width: 1.5;" x1="321" x2="540.5" y1="295.97" y2="295.97"/><text fill="#000000" font-family="sans-serif" font-size="11" lengthAdjust="spacingAndGlyphs" textLength="126" x="38.5" y="338.8796">Test_Visitor (348026124);</text><line style="stroke: #A80036; stroke-width: 1.0; stroke-dasharray: 1.0,2.0;" x1="33.5" x2="274" y1="318.6333" y2="318.6333"/><text fill="#000000" font-family="sans-serif" font-size="11" lengthAdjust="spacingAndGlyphs" textLength="26" x="274" y="323.2708">class</text><line style="stroke: #A80036; stroke-width: 1.0; stroke-dasharray: 1.0,2.0;" x1="300" x2="540.5" y1="318.6333" y2="318.6333"/><line style="stroke: #A80036; stroke-width: 1.0; stroke-dasharray: 1.0,2.0;" x1="33.5" x2="268" y1="352.8511" y2="352.8511"/><text fill="#000000" font-family="sans-serif" font-size="11" lengthAdjust="spacingAndGlyphs" textLength="38" x="268" y="357.4885">member</text><line style="stroke: #A80036; stroke-width: 1.0; stroke-dasharray: 1.0,2.0;" x1="306" x2="540.5" y1="352.8511" y2="352.8511"/><text fill="#000000" font-family="sans-serif" font-size="11" lengthAdjust="spacingAndGlyphs" textLength="497" x="38.5" y="395.7607">Function makeFunction(org.eclipse.jdt.core.dom.MethodDeclaration, dataSet.Data_base) (1054334320);</text><line style="stroke: #A80036; stroke-width: 1.0; stroke-dasharray: 1.0,2.0;" x1="33.5" x2="269.5" y1="375.5144" y2="375.5144"/><text fill="#000000" font-family="sans-serif" font-size="11" lengthAdjust="spacingAndGlyphs" textLength="35" x="269.5" y="380.1519">method</text><line style="stroke: #A80036; stroke-width: 1.0; stroke-dasharray: 1.0,2.0;" x1="304.5" x2="540.5" y1="375.5144" y2="375.5144"/><!--MD5=[5ef05bc4e6f6bd6b751bf15175192f3b]
@startuml
class dataSet.Function.setCode(java.lang.String){
__**<color:green>has list</color>**__
..class..
..member..
	String code (725177729);
..method..
__**<color:blue>calling list</color>**__
..class..
..member..
	String code (2039926996);
..method..
__**<color:orange>called by list</color>**__
..class..
	Test_Visitor (348026124);
..member..
..method..
	Function makeFunction(org.eclipse.jdt.core.dom.MethodDeclaration, dataSet.Data_base) (1054334320);
}

@enduml

PlantUML version 1.2020.19(Tue Oct 13 00:10:01 KST 2020)
(APACHE source distribution)
Java Runtime: Java(TM) SE Runtime Environment
JVM: Java HotSpot(TM) 64-Bit Server VM
Default Encoding: MS949
Language: ko
Country: KR
--></g></svg>