<?xml version="1.0" encoding="UTF-8" standalone="no"?><svg xmlns="http://www.w3.org/2000/svg" xmlns:xlink="http://www.w3.org/1999/xlink" contentScriptType="application/ecmascript" contentStyleType="text/css" height="379px" preserveAspectRatio="none" style="width:179px;height:379px;" version="1.1" viewBox="0 0 179 379" width="179px" zoomAndPan="magnify"><defs><filter height="300%" id="f8x6u9qti82mn" width="300%" x="-1" y="-1"><feGaussianBlur result="blurOut" stdDeviation="2.0"/><feColorMatrix in="blurOut" result="blurOut2" type="matrix" values="0 0 0 0 0 0 0 0 0 0 0 0 0 0 0 0 0 0 .4 0"/><feOffset dx="4.0" dy="4.0" in="blurOut2" result="blurOut3"/><feBlend in="SourceGraphic" in2="blurOut3" mode="normal"/></filter></defs><g><!--MD5=[c4fd2dc20ceb3d4779ff614001bcf0b4]
cluster dataSet.Data_base--><polygon fill="#FFFFFF" filter="url(#f8x6u9qti82mn)" points="16,6,152,6,159,31.2295,162,31.2295,162,372,16,372,16,6" style="stroke: #000000; stroke-width: 1.5;"/><line style="stroke: #000000; stroke-width: 1.5;" x1="16" x2="159" y1="31.2295" y2="31.2295"/><text fill="#000000" font-family="sans-serif" font-size="14" font-weight="bold" lengthAdjust="spacingAndGlyphs" textLength="130" x="20" y="24.1533">dataSet.Data_base</text><!--MD5=[9136810ff7daa578a7c1d51272c0c4f4]
class dataSet.Data_base.isAbstract()--><rect codeLine="1" fill="#FEFECE" filter="url(#f8x6u9qti82mn)" height="311.96" id="dataSet.Data_base.isAbstract()" style="stroke: #A80036; stroke-width: 1.5;" width="94" x="42" y="44"/><ellipse cx="57" cy="60" fill="#ADD1B2" rx="11" ry="11" style="stroke: #A80036; stroke-width: 1.0;"/><path d="M56.8281,53.4844 Q54.9531,53.4844 53.7969,55.2344 Q52.6094,57.0156 52.6094,60.0156 Q52.6094,63.3906 53.8125,65.1563 Q54.875,66.7813 56.625,66.7813 Q58.3125,66.7813 59.2656,65.875 Q60.3281,64.8594 60.4688,62.625 Q60.4688,62.2031 60.2344,61.9688 Q60.0469,61.7344 59.7031,61.7031 Q59.375,61.7031 59.1406,61.8906 Q58.875,62.125 58.875,62.5156 Q58.8438,63.9063 58.25,64.6406 Q57.7188,65.3438 56.7656,65.3438 Q55.6094,65.3438 54.8906,63.9063 Q54.1719,62.4063 54.1719,59.9844 Q54.1719,57.4375 55.0625,56.0469 Q55.8125,54.9219 56.9531,54.9219 Q57.6094,54.9219 58.1094,55.4688 Q58.6719,56.0781 58.7969,57.1406 Q58.8438,57.8438 59.6719,57.7344 Q60.4531,57.625 60.4063,56.9375 Q60.2188,55.4219 59.4531,54.5469 Q58.5156,53.4844 56.8281,53.4844 Z "/><text fill="#000000" font-family="sans-serif" font-size="12" lengthAdjust="spacingAndGlyphs" textLength="62" x="71" y="65.6045">isAbstract()</text><line style="stroke: #A80036; stroke-width: 1.5;" x1="43" x2="135" y1="76" y2="76"/><line style="stroke: #A80036; stroke-width: 1.5;" x1="43" x2="69" y1="91.5544" y2="91.5544"/><text fill="#008000" font-family="sans-serif" font-size="11" font-weight="bold" lengthAdjust="spacingAndGlyphs" textLength="40" x="69" y="96.1919">has list</text><line style="stroke: #A80036; stroke-width: 1.5;" x1="109" x2="135" y1="91.5544" y2="91.5544"/><line style="stroke: #A80036; stroke-width: 1.0; stroke-dasharray: 1.0,2.0;" x1="43" x2="76" y1="114.2178" y2="114.2178"/><text fill="#000000" font-family="sans-serif" font-size="11" lengthAdjust="spacingAndGlyphs" textLength="26" x="76" y="118.8552">class</text><line style="stroke: #A80036; stroke-width: 1.0; stroke-dasharray: 1.0,2.0;" x1="102" x2="135" y1="114.2178" y2="114.2178"/><line style="stroke: #A80036; stroke-width: 1.0; stroke-dasharray: 1.0,2.0;" x1="43" x2="70" y1="136.8811" y2="136.8811"/><text fill="#000000" font-family="sans-serif" font-size="11" lengthAdjust="spacingAndGlyphs" textLength="38" x="70" y="141.5186">member</text><line style="stroke: #A80036; stroke-width: 1.0; stroke-dasharray: 1.0,2.0;" x1="108" x2="135" y1="136.8811" y2="136.8811"/><line style="stroke: #A80036; stroke-width: 1.0; stroke-dasharray: 1.0,2.0;" x1="43" x2="71.5" y1="159.5444" y2="159.5444"/><text fill="#000000" font-family="sans-serif" font-size="11" lengthAdjust="spacingAndGlyphs" textLength="35" x="71.5" y="164.1819">method</text><line style="stroke: #A80036; stroke-width: 1.0; stroke-dasharray: 1.0,2.0;" x1="106.5" x2="135" y1="159.5444" y2="159.5444"/><line style="stroke: #A80036; stroke-width: 1.5;" x1="43" x2="61.5" y1="182.2078" y2="182.2078"/><text fill="#0000FF" font-family="sans-serif" font-size="11" font-weight="bold" lengthAdjust="spacingAndGlyphs" textLength="55" x="61.5" y="186.8452">calling list</text><line style="stroke: #A80036; stroke-width: 1.5;" x1="116.5" x2="135" y1="182.2078" y2="182.2078"/><line style="stroke: #A80036; stroke-width: 1.0; stroke-dasharray: 1.0,2.0;" x1="43" x2="76" y1="204.8711" y2="204.8711"/><text fill="#000000" font-family="sans-serif" font-size="11" lengthAdjust="spacingAndGlyphs" textLength="26" x="76" y="209.5085">class</text><line style="stroke: #A80036; stroke-width: 1.0; stroke-dasharray: 1.0,2.0;" x1="102" x2="135" y1="204.8711" y2="204.8711"/><line style="stroke: #A80036; stroke-width: 1.0; stroke-dasharray: 1.0,2.0;" x1="43" x2="70" y1="227.5344" y2="227.5344"/><text fill="#000000" font-family="sans-serif" font-size="11" lengthAdjust="spacingAndGlyphs" textLength="38" x="70" y="232.1719">member</text><line style="stroke: #A80036; stroke-width: 1.0; stroke-dasharray: 1.0,2.0;" x1="108" x2="135" y1="227.5344" y2="227.5344"/><line style="stroke: #A80036; stroke-width: 1.0; stroke-dasharray: 1.0,2.0;" x1="43" x2="71.5" y1="250.1978" y2="250.1978"/><text fill="#000000" font-family="sans-serif" font-size="11" lengthAdjust="spacingAndGlyphs" textLength="35" x="71.5" y="254.8352">method</text><line style="stroke: #A80036; stroke-width: 1.0; stroke-dasharray: 1.0,2.0;" x1="106.5" x2="135" y1="250.1978" y2="250.1978"/><line style="stroke: #A80036; stroke-width: 1.5;" x1="43" x2="55" y1="272.8611" y2="272.8611"/><text fill="#FFA500" font-family="sans-serif" font-size="11" font-weight="bold" lengthAdjust="spacingAndGlyphs" textLength="68" x="55" y="277.4985">called by list</text><line style="stroke: #A80036; stroke-width: 1.5;" x1="123" x2="135" y1="272.8611" y2="272.8611"/><line style="stroke: #A80036; stroke-width: 1.0; stroke-dasharray: 1.0,2.0;" x1="43" x2="76" y1="295.5244" y2="295.5244"/><text fill="#000000" font-family="sans-serif" font-size="11" lengthAdjust="spacingAndGlyphs" textLength="26" x="76" y="300.1619">class</text><line style="stroke: #A80036; stroke-width: 1.0; stroke-dasharray: 1.0,2.0;" x1="102" x2="135" y1="295.5244" y2="295.5244"/><line style="stroke: #A80036; stroke-width: 1.0; stroke-dasharray: 1.0,2.0;" x1="43" x2="70" y1="318.1877" y2="318.1877"/><text fill="#000000" font-family="sans-serif" font-size="11" lengthAdjust="spacingAndGlyphs" textLength="38" x="70" y="322.8252">member</text><line style="stroke: #A80036; stroke-width: 1.0; stroke-dasharray: 1.0,2.0;" x1="108" x2="135" y1="318.1877" y2="318.1877"/><line style="stroke: #A80036; stroke-width: 1.0; stroke-dasharray: 1.0,2.0;" x1="43" x2="71.5" y1="340.8511" y2="340.8511"/><text fill="#000000" font-family="sans-serif" font-size="11" lengthAdjust="spacingAndGlyphs" textLength="35" x="71.5" y="345.4885">method</text><line style="stroke: #A80036; stroke-width: 1.0; stroke-dasharray: 1.0,2.0;" x1="106.5" x2="135" y1="340.8511" y2="340.8511"/><!--MD5=[2a02c7adb373d0695df7df142f68e7bd]
@startuml
class dataSet.Data_base.isAbstract(){
__**<color:green>has list</color>**__
..class..
..member..
..method..
__**<color:blue>calling list</color>**__
..class..
..member..
..method..
__**<color:orange>called by list</color>**__
..class..
..member..
..method..
}

@enduml

PlantUML version 1.2020.19(Tue Oct 13 00:10:01 KST 2020)
(APACHE source distribution)
Java Runtime: Java(TM) SE Runtime Environment
JVM: Java HotSpot(TM) 64-Bit Server VM
Default Encoding: MS949
Language: ko
Country: KR
--></g></svg>