<?xml version="1.0" encoding="UTF-8" standalone="no"?><svg xmlns="http://www.w3.org/2000/svg" xmlns:xlink="http://www.w3.org/1999/xlink" contentScriptType="application/ecmascript" contentStyleType="text/css" height="425px" preserveAspectRatio="none" style="width:427px;height:425px;" version="1.1" viewBox="0 0 427 425" width="427px" zoomAndPan="magnify"><defs><filter height="300%" id="fk1yvyhr2d9fk" width="300%" x="-1" y="-1"><feGaussianBlur result="blurOut" stdDeviation="2.0"/><feColorMatrix in="blurOut" result="blurOut2" type="matrix" values="0 0 0 0 0 0 0 0 0 0 0 0 0 0 0 0 0 0 .4 0"/><feOffset dx="4.0" dy="4.0" in="blurOut2" result="blurOut3"/><feBlend in="SourceGraphic" in2="blurOut3" mode="normal"/></filter></defs><g><!--MD5=[e105f759719fe8f26919c29203755413]
cluster dataSet.Function--><polygon fill="#FFFFFF" filter="url(#fk1yvyhr2d9fk)" points="16,6,141,6,148,31.2295,410,31.2295,410,418,16,418,16,6" style="stroke: #000000; stroke-width: 1.5;"/><line style="stroke: #000000; stroke-width: 1.5;" x1="16" x2="148" y1="31.2295" y2="31.2295"/><text fill="#000000" font-family="sans-serif" font-size="14" font-weight="bold" lengthAdjust="spacingAndGlyphs" textLength="119" x="20" y="24.1533">dataSet.Function</text><!--MD5=[a3beeec94bd50e22b48394bccc1108a3]
class dataSet.Function.getSrcName()--><rect codeLine="1" fill="#FEFECE" filter="url(#fk1yvyhr2d9fk)" height="358.1777" id="dataSet.Function.getSrcName()" style="stroke: #A80036; stroke-width: 1.5;" width="361" x="32.5" y="44"/><ellipse cx="170.25" cy="60" fill="#ADD1B2" rx="11" ry="11" style="stroke: #A80036; stroke-width: 1.0;"/><path d="M170.0781,53.4844 Q168.2031,53.4844 167.0469,55.2344 Q165.8594,57.0156 165.8594,60.0156 Q165.8594,63.3906 167.0625,65.1563 Q168.125,66.7813 169.875,66.7813 Q171.5625,66.7813 172.5156,65.875 Q173.5781,64.8594 173.7188,62.625 Q173.7188,62.2031 173.4844,61.9688 Q173.2969,61.7344 172.9531,61.7031 Q172.625,61.7031 172.3906,61.8906 Q172.125,62.125 172.125,62.5156 Q172.0938,63.9063 171.5,64.6406 Q170.9688,65.3438 170.0156,65.3438 Q168.8594,65.3438 168.1406,63.9063 Q167.4219,62.4063 167.4219,59.9844 Q167.4219,57.4375 168.3125,56.0469 Q169.0625,54.9219 170.2031,54.9219 Q170.8594,54.9219 171.3594,55.4688 Q171.9219,56.0781 172.0469,57.1406 Q172.0938,57.8438 172.9219,57.7344 Q173.7031,57.625 173.6563,56.9375 Q173.4688,55.4219 172.7031,54.5469 Q171.7656,53.4844 170.0781,53.4844 Z "/><text fill="#000000" font-family="sans-serif" font-size="12" lengthAdjust="spacingAndGlyphs" textLength="77" x="190.75" y="65.6045">getSrcName()</text><line style="stroke: #A80036; stroke-width: 1.5;" x1="33.5" x2="392.5" y1="76" y2="76"/><line style="stroke: #A80036; stroke-width: 1.5;" x1="33.5" x2="193" y1="91.5544" y2="91.5544"/><text fill="#008000" font-family="sans-serif" font-size="11" font-weight="bold" lengthAdjust="spacingAndGlyphs" textLength="40" x="193" y="96.1919">has list</text><line style="stroke: #A80036; stroke-width: 1.5;" x1="233" x2="392.5" y1="91.5544" y2="91.5544"/><line style="stroke: #A80036; stroke-width: 1.0; stroke-dasharray: 1.0,2.0;" x1="33.5" x2="200" y1="114.2178" y2="114.2178"/><text fill="#000000" font-family="sans-serif" font-size="11" lengthAdjust="spacingAndGlyphs" textLength="26" x="200" y="118.8552">class</text><line style="stroke: #A80036; stroke-width: 1.0; stroke-dasharray: 1.0,2.0;" x1="226" x2="392.5" y1="114.2178" y2="114.2178"/><line style="stroke: #A80036; stroke-width: 1.0; stroke-dasharray: 1.0,2.0;" x1="33.5" x2="194" y1="136.8811" y2="136.8811"/><text fill="#000000" font-family="sans-serif" font-size="11" lengthAdjust="spacingAndGlyphs" textLength="38" x="194" y="141.5186">member</text><line style="stroke: #A80036; stroke-width: 1.0; stroke-dasharray: 1.0,2.0;" x1="232" x2="392.5" y1="136.8811" y2="136.8811"/><line style="stroke: #A80036; stroke-width: 1.0; stroke-dasharray: 1.0,2.0;" x1="33.5" x2="195.5" y1="159.5444" y2="159.5444"/><text fill="#000000" font-family="sans-serif" font-size="11" lengthAdjust="spacingAndGlyphs" textLength="35" x="195.5" y="164.1819">method</text><line style="stroke: #A80036; stroke-width: 1.0; stroke-dasharray: 1.0,2.0;" x1="230.5" x2="392.5" y1="159.5444" y2="159.5444"/><line style="stroke: #A80036; stroke-width: 1.5;" x1="33.5" x2="185.5" y1="182.2078" y2="182.2078"/><text fill="#0000FF" font-family="sans-serif" font-size="11" font-weight="bold" lengthAdjust="spacingAndGlyphs" textLength="55" x="185.5" y="186.8452">calling list</text><line style="stroke: #A80036; stroke-width: 1.5;" x1="240.5" x2="392.5" y1="182.2078" y2="182.2078"/><text fill="#000000" font-family="sans-serif" font-size="11" lengthAdjust="spacingAndGlyphs" textLength="120" x="38.5" y="225.1174">Data_base (337295973);</text><line style="stroke: #A80036; stroke-width: 1.0; stroke-dasharray: 1.0,2.0;" x1="33.5" x2="200" y1="204.8711" y2="204.8711"/><text fill="#000000" font-family="sans-serif" font-size="11" lengthAdjust="spacingAndGlyphs" textLength="26" x="200" y="209.5085">class</text><line style="stroke: #A80036; stroke-width: 1.0; stroke-dasharray: 1.0,2.0;" x1="226" x2="392.5" y1="204.8711" y2="204.8711"/><line style="stroke: #A80036; stroke-width: 1.0; stroke-dasharray: 1.0,2.0;" x1="33.5" x2="194" y1="239.0889" y2="239.0889"/><text fill="#000000" font-family="sans-serif" font-size="11" lengthAdjust="spacingAndGlyphs" textLength="38" x="194" y="243.7263">member</text><line style="stroke: #A80036; stroke-width: 1.0; stroke-dasharray: 1.0,2.0;" x1="232" x2="392.5" y1="239.0889" y2="239.0889"/><text fill="#000000" font-family="sans-serif" font-size="11" lengthAdjust="spacingAndGlyphs" textLength="166" x="38.5" y="281.9985">String getSrcName() (589423746);</text><line style="stroke: #A80036; stroke-width: 1.0; stroke-dasharray: 1.0,2.0;" x1="33.5" x2="195.5" y1="261.7522" y2="261.7522"/><text fill="#000000" font-family="sans-serif" font-size="11" lengthAdjust="spacingAndGlyphs" textLength="35" x="195.5" y="266.3896">method</text><line style="stroke: #A80036; stroke-width: 1.0; stroke-dasharray: 1.0,2.0;" x1="230.5" x2="392.5" y1="261.7522" y2="261.7522"/><line style="stroke: #A80036; stroke-width: 1.5;" x1="33.5" x2="179" y1="295.97" y2="295.97"/><text fill="#FFA500" font-family="sans-serif" font-size="11" font-weight="bold" lengthAdjust="spacingAndGlyphs" textLength="68" x="179" y="300.6074">called by list</text><line style="stroke: #A80036; stroke-width: 1.5;" x1="247" x2="392.5" y1="295.97" y2="295.97"/><text fill="#000000" font-family="sans-serif" font-size="11" lengthAdjust="spacingAndGlyphs" textLength="146" x="38.5" y="338.8796">DataListDiagram (477239455);</text><line style="stroke: #A80036; stroke-width: 1.0; stroke-dasharray: 1.0,2.0;" x1="33.5" x2="200" y1="318.6333" y2="318.6333"/><text fill="#000000" font-family="sans-serif" font-size="11" lengthAdjust="spacingAndGlyphs" textLength="26" x="200" y="323.2708">class</text><line style="stroke: #A80036; stroke-width: 1.0; stroke-dasharray: 1.0,2.0;" x1="226" x2="392.5" y1="318.6333" y2="318.6333"/><line style="stroke: #A80036; stroke-width: 1.0; stroke-dasharray: 1.0,2.0;" x1="33.5" x2="194" y1="352.8511" y2="352.8511"/><text fill="#000000" font-family="sans-serif" font-size="11" lengthAdjust="spacingAndGlyphs" textLength="38" x="194" y="357.4885">member</text><line style="stroke: #A80036; stroke-width: 1.0; stroke-dasharray: 1.0,2.0;" x1="232" x2="392.5" y1="352.8511" y2="352.8511"/><text fill="#000000" font-family="sans-serif" font-size="11" lengthAdjust="spacingAndGlyphs" textLength="349" x="38.5" y="395.7607">void functionDef(dataSet.Function, java.lang.StringBuilder) (106787773);</text><line style="stroke: #A80036; stroke-width: 1.0; stroke-dasharray: 1.0,2.0;" x1="33.5" x2="195.5" y1="375.5144" y2="375.5144"/><text fill="#000000" font-family="sans-serif" font-size="11" lengthAdjust="spacingAndGlyphs" textLength="35" x="195.5" y="380.1519">method</text><line style="stroke: #A80036; stroke-width: 1.0; stroke-dasharray: 1.0,2.0;" x1="230.5" x2="392.5" y1="375.5144" y2="375.5144"/><!--MD5=[57f06b91af19d998b63bb84dddcd3c14]
@startuml
class dataSet.Function.getSrcName(){
__**<color:green>has list</color>**__
..class..
..member..
..method..
__**<color:blue>calling list</color>**__
..class..
	Data_base (337295973);
..member..
..method..
	String getSrcName() (589423746);
__**<color:orange>called by list</color>**__
..class..
	DataListDiagram (477239455);
..member..
..method..
	void functionDef(dataSet.Function, java.lang.StringBuilder) (106787773);
}

@enduml

PlantUML version 1.2020.19(Tue Oct 13 00:10:01 KST 2020)
(APACHE source distribution)
Java Runtime: Java(TM) SE Runtime Environment
JVM: Java HotSpot(TM) 64-Bit Server VM
Default Encoding: MS949
Language: ko
Country: KR
--></g></svg>