<?xml version="1.0" encoding="UTF-8" standalone="no"?><svg xmlns="http://www.w3.org/2000/svg" xmlns:xlink="http://www.w3.org/1999/xlink" contentScriptType="application/ecmascript" contentStyleType="text/css" height="406px" preserveAspectRatio="none" style="width:348px;height:406px;" version="1.1" viewBox="0 0 348 406" width="348px" zoomAndPan="magnify"><defs><filter height="300%" id="f1k3wkkup2dj6u" width="300%" x="-1" y="-1"><feGaussianBlur result="blurOut" stdDeviation="2.0"/><feColorMatrix in="blurOut" result="blurOut2" type="matrix" values="0 0 0 0 0 0 0 0 0 0 0 0 0 0 0 0 0 0 .4 0"/><feOffset dx="4.0" dy="4.0" in="blurOut2" result="blurOut3"/><feBlend in="SourceGraphic" in2="blurOut3" mode="normal"/></filter></defs><g><!--MD5=[8af43b8bc9b05838420d97aac413d2a4]
cluster dataSet.Member.getMemberScore(dataSet--><polygon fill="#FFFFFF" filter="url(#f1k3wkkup2dj6u)" points="16,6,321,6,328,31.2295,331,31.2295,331,399,16,399,16,6" style="stroke: #000000; stroke-width: 1.5;"/><line style="stroke: #000000; stroke-width: 1.5;" x1="16" x2="328" y1="31.2295" y2="31.2295"/><text fill="#000000" font-family="sans-serif" font-size="14" font-weight="bold" lengthAdjust="spacingAndGlyphs" textLength="299" x="20" y="24.1533">dataSet.Member.getMemberScore(dataSet</text><!--MD5=[1950ffd0afa58c19ae92b5ebf4f07930]
class dataSet.Member.getMemberScore(dataSet.Member)--><rect codeLine="1" fill="#FEFECE" filter="url(#f1k3wkkup2dj6u)" height="338.6233" id="dataSet.Member.getMemberScore(dataSet.Member)" style="stroke: #A80036; stroke-width: 1.5;" width="159" x="93.5" y="44"/><ellipse cx="144.25" cy="60" fill="#ADD1B2" rx="11" ry="11" style="stroke: #A80036; stroke-width: 1.0;"/><path d="M144.0781,53.4844 Q142.2031,53.4844 141.0469,55.2344 Q139.8594,57.0156 139.8594,60.0156 Q139.8594,63.3906 141.0625,65.1563 Q142.125,66.7813 143.875,66.7813 Q145.5625,66.7813 146.5156,65.875 Q147.5781,64.8594 147.7188,62.625 Q147.7188,62.2031 147.4844,61.9688 Q147.2969,61.7344 146.9531,61.7031 Q146.625,61.7031 146.3906,61.8906 Q146.125,62.125 146.125,62.5156 Q146.0938,63.9063 145.5,64.6406 Q144.9688,65.3438 144.0156,65.3438 Q142.8594,65.3438 142.1406,63.9063 Q141.4219,62.4063 141.4219,59.9844 Q141.4219,57.4375 142.3125,56.0469 Q143.0625,54.9219 144.2031,54.9219 Q144.8594,54.9219 145.3594,55.4688 Q145.9219,56.0781 146.0469,57.1406 Q146.0938,57.8438 146.9219,57.7344 Q147.7031,57.625 147.6563,56.9375 Q147.4688,55.4219 146.7031,54.5469 Q145.7656,53.4844 144.0781,53.4844 Z "/><text fill="#000000" font-family="sans-serif" font-size="12" lengthAdjust="spacingAndGlyphs" textLength="49" x="164.75" y="65.6045">Member)</text><line style="stroke: #A80036; stroke-width: 1.5;" x1="94.5" x2="251.5" y1="76" y2="76"/><line style="stroke: #A80036; stroke-width: 1.5;" x1="94.5" x2="153" y1="91.5544" y2="91.5544"/><text fill="#008000" font-family="sans-serif" font-size="11" font-weight="bold" lengthAdjust="spacingAndGlyphs" textLength="40" x="153" y="96.1919">has list</text><line style="stroke: #A80036; stroke-width: 1.5;" x1="193" x2="251.5" y1="91.5544" y2="91.5544"/><line style="stroke: #A80036; stroke-width: 1.0; stroke-dasharray: 1.0,2.0;" x1="94.5" x2="160" y1="114.2178" y2="114.2178"/><text fill="#000000" font-family="sans-serif" font-size="11" lengthAdjust="spacingAndGlyphs" textLength="26" x="160" y="118.8552">class</text><line style="stroke: #A80036; stroke-width: 1.0; stroke-dasharray: 1.0,2.0;" x1="186" x2="251.5" y1="114.2178" y2="114.2178"/><text fill="#000000" font-family="sans-serif" font-size="11" lengthAdjust="spacingAndGlyphs" textLength="147" x="99.5" y="157.1274">Member member (982054651);</text><text fill="#000000" font-family="sans-serif" font-size="11" lengthAdjust="spacingAndGlyphs" textLength="126" x="99.5" y="172.2363">String type (2068126708);</text><line style="stroke: #A80036; stroke-width: 1.0; stroke-dasharray: 1.0,2.0;" x1="94.5" x2="154" y1="136.8811" y2="136.8811"/><text fill="#000000" font-family="sans-serif" font-size="11" lengthAdjust="spacingAndGlyphs" textLength="38" x="154" y="141.5186">member</text><line style="stroke: #A80036; stroke-width: 1.0; stroke-dasharray: 1.0,2.0;" x1="192" x2="251.5" y1="136.8811" y2="136.8811"/><line style="stroke: #A80036; stroke-width: 1.0; stroke-dasharray: 1.0,2.0;" x1="94.5" x2="155.5" y1="186.2078" y2="186.2078"/><text fill="#000000" font-family="sans-serif" font-size="11" lengthAdjust="spacingAndGlyphs" textLength="35" x="155.5" y="190.8452">method</text><line style="stroke: #A80036; stroke-width: 1.0; stroke-dasharray: 1.0,2.0;" x1="190.5" x2="251.5" y1="186.2078" y2="186.2078"/><line style="stroke: #A80036; stroke-width: 1.5;" x1="94.5" x2="145.5" y1="208.8711" y2="208.8711"/><text fill="#0000FF" font-family="sans-serif" font-size="11" font-weight="bold" lengthAdjust="spacingAndGlyphs" textLength="55" x="145.5" y="213.5085">calling list</text><line style="stroke: #A80036; stroke-width: 1.5;" x1="200.5" x2="251.5" y1="208.8711" y2="208.8711"/><line style="stroke: #A80036; stroke-width: 1.0; stroke-dasharray: 1.0,2.0;" x1="94.5" x2="160" y1="231.5344" y2="231.5344"/><text fill="#000000" font-family="sans-serif" font-size="11" lengthAdjust="spacingAndGlyphs" textLength="26" x="160" y="236.1719">class</text><line style="stroke: #A80036; stroke-width: 1.0; stroke-dasharray: 1.0,2.0;" x1="186" x2="251.5" y1="231.5344" y2="231.5344"/><line style="stroke: #A80036; stroke-width: 1.0; stroke-dasharray: 1.0,2.0;" x1="94.5" x2="154" y1="254.1978" y2="254.1978"/><text fill="#000000" font-family="sans-serif" font-size="11" lengthAdjust="spacingAndGlyphs" textLength="38" x="154" y="258.8352">member</text><line style="stroke: #A80036; stroke-width: 1.0; stroke-dasharray: 1.0,2.0;" x1="192" x2="251.5" y1="254.1978" y2="254.1978"/><line style="stroke: #A80036; stroke-width: 1.0; stroke-dasharray: 1.0,2.0;" x1="94.5" x2="155.5" y1="276.8611" y2="276.8611"/><text fill="#000000" font-family="sans-serif" font-size="11" lengthAdjust="spacingAndGlyphs" textLength="35" x="155.5" y="281.4985">method</text><line style="stroke: #A80036; stroke-width: 1.0; stroke-dasharray: 1.0,2.0;" x1="190.5" x2="251.5" y1="276.8611" y2="276.8611"/><line style="stroke: #A80036; stroke-width: 1.5;" x1="94.5" x2="139" y1="299.5244" y2="299.5244"/><text fill="#FFA500" font-family="sans-serif" font-size="11" font-weight="bold" lengthAdjust="spacingAndGlyphs" textLength="68" x="139" y="304.1619">called by list</text><line style="stroke: #A80036; stroke-width: 1.5;" x1="207" x2="251.5" y1="299.5244" y2="299.5244"/><line style="stroke: #A80036; stroke-width: 1.0; stroke-dasharray: 1.0,2.0;" x1="94.5" x2="160" y1="322.1877" y2="322.1877"/><text fill="#000000" font-family="sans-serif" font-size="11" lengthAdjust="spacingAndGlyphs" textLength="26" x="160" y="326.8252">class</text><line style="stroke: #A80036; stroke-width: 1.0; stroke-dasharray: 1.0,2.0;" x1="186" x2="251.5" y1="322.1877" y2="322.1877"/><line style="stroke: #A80036; stroke-width: 1.0; stroke-dasharray: 1.0,2.0;" x1="94.5" x2="154" y1="344.8511" y2="344.8511"/><text fill="#000000" font-family="sans-serif" font-size="11" lengthAdjust="spacingAndGlyphs" textLength="38" x="154" y="349.4885">member</text><line style="stroke: #A80036; stroke-width: 1.0; stroke-dasharray: 1.0,2.0;" x1="192" x2="251.5" y1="344.8511" y2="344.8511"/><line style="stroke: #A80036; stroke-width: 1.0; stroke-dasharray: 1.0,2.0;" x1="94.5" x2="155.5" y1="367.5144" y2="367.5144"/><text fill="#000000" font-family="sans-serif" font-size="11" lengthAdjust="spacingAndGlyphs" textLength="35" x="155.5" y="372.1519">method</text><line style="stroke: #A80036; stroke-width: 1.0; stroke-dasharray: 1.0,2.0;" x1="190.5" x2="251.5" y1="367.5144" y2="367.5144"/><!--MD5=[72f9461fc67c930d9943c5844037392b]
@startuml
class dataSet.Member.getMemberScore(dataSet.Member){
__**<color:green>has list</color>**__
..class..
..member..
	Member member (982054651);
	String type (2068126708);
..method..
__**<color:blue>calling list</color>**__
..class..
..member..
..method..
__**<color:orange>called by list</color>**__
..class..
..member..
..method..
}

@enduml

PlantUML version 1.2020.19(Tue Oct 13 00:10:01 KST 2020)
(APACHE source distribution)
Java Runtime: Java(TM) SE Runtime Environment
JVM: Java HotSpot(TM) 64-Bit Server VM
Default Encoding: MS949
Language: ko
Country: KR
--></g></svg>