<?xml version="1.0" encoding="UTF-8" standalone="no"?><svg xmlns="http://www.w3.org/2000/svg" xmlns:xlink="http://www.w3.org/1999/xlink" contentScriptType="application/ecmascript" contentStyleType="text/css" height="546px" preserveAspectRatio="none" style="width:556px;height:546px;" version="1.1" viewBox="0 0 556 546" width="556px" zoomAndPan="magnify"><defs><filter height="300%" id="f1hmq6t2j30lk1" width="300%" x="-1" y="-1"><feGaussianBlur result="blurOut" stdDeviation="2.0"/><feColorMatrix in="blurOut" result="blurOut2" type="matrix" values="0 0 0 0 0 0 0 0 0 0 0 0 0 0 0 0 0 0 .4 0"/><feOffset dx="4.0" dy="4.0" in="blurOut2" result="blurOut3"/><feBlend in="SourceGraphic" in2="blurOut3" mode="normal"/></filter></defs><g><!--MD5=[f2401ce2104635857d865c0dea833c6c]
cluster dataSet.stateNode.ForStateNode.ForStateNode(org.eclipse.jdt.core.dom--><polygon fill="#FFFFFF" filter="url(#f1hmq6t2j30lk1)" points="16,6,529,6,536,31.2295,539,31.2295,539,539,16,539,16,6" style="stroke: #000000; stroke-width: 1.5;"/><line style="stroke: #000000; stroke-width: 1.5;" x1="16" x2="536" y1="31.2295" y2="31.2295"/><text fill="#000000" font-family="sans-serif" font-size="14" font-weight="bold" lengthAdjust="spacingAndGlyphs" textLength="507" x="20" y="24.1533">dataSet.stateNode.ForStateNode.ForStateNode(org.eclipse.jdt.core.dom</text><!--MD5=[678290d35a4e717e4c8c3f16d4032962]
class dataSet.stateNode.ForStateNode.ForStateNode(org.eclipse.jdt.core.dom.ForStatement)--><rect codeLine="1" fill="#FEFECE" filter="url(#f1hmq6t2j30lk1)" height="479.0488" id="dataSet.stateNode.ForStateNode.ForStateNode(org.eclipse.jdt.core.dom.ForStatement)" style="stroke: #A80036; stroke-width: 1.5;" width="415" x="69.5" y="44"/><ellipse cx="233.75" cy="60" fill="#ADD1B2" rx="11" ry="11" style="stroke: #A80036; stroke-width: 1.0;"/><path d="M233.5781,53.4844 Q231.7031,53.4844 230.5469,55.2344 Q229.3594,57.0156 229.3594,60.0156 Q229.3594,63.3906 230.5625,65.1563 Q231.625,66.7813 233.375,66.7813 Q235.0625,66.7813 236.0156,65.875 Q237.0781,64.8594 237.2188,62.625 Q237.2188,62.2031 236.9844,61.9688 Q236.7969,61.7344 236.4531,61.7031 Q236.125,61.7031 235.8906,61.8906 Q235.625,62.125 235.625,62.5156 Q235.5938,63.9063 235,64.6406 Q234.4688,65.3438 233.5156,65.3438 Q232.3594,65.3438 231.6406,63.9063 Q230.9219,62.4063 230.9219,59.9844 Q230.9219,57.4375 231.8125,56.0469 Q232.5625,54.9219 233.7031,54.9219 Q234.3594,54.9219 234.8594,55.4688 Q235.4219,56.0781 235.5469,57.1406 Q235.5938,57.8438 236.4219,57.7344 Q237.2031,57.625 237.1563,56.9375 Q236.9688,55.4219 236.2031,54.5469 Q235.2656,53.4844 233.5781,53.4844 Z "/><text fill="#000000" font-family="sans-serif" font-size="12" lengthAdjust="spacingAndGlyphs" textLength="78" x="254.25" y="65.6045">ForStatement)</text><line style="stroke: #A80036; stroke-width: 1.5;" x1="70.5" x2="483.5" y1="76" y2="76"/><line style="stroke: #A80036; stroke-width: 1.5;" x1="70.5" x2="257" y1="91.5544" y2="91.5544"/><text fill="#008000" font-family="sans-serif" font-size="11" font-weight="bold" lengthAdjust="spacingAndGlyphs" textLength="40" x="257" y="96.1919">has list</text><line style="stroke: #A80036; stroke-width: 1.5;" x1="297" x2="483.5" y1="91.5544" y2="91.5544"/><line style="stroke: #A80036; stroke-width: 1.0; stroke-dasharray: 1.0,2.0;" x1="70.5" x2="264" y1="114.2178" y2="114.2178"/><text fill="#000000" font-family="sans-serif" font-size="11" lengthAdjust="spacingAndGlyphs" textLength="26" x="264" y="118.8552">class</text><line style="stroke: #A80036; stroke-width: 1.0; stroke-dasharray: 1.0,2.0;" x1="290" x2="483.5" y1="114.2178" y2="114.2178"/><text fill="#000000" font-family="sans-serif" font-size="11" lengthAdjust="spacingAndGlyphs" textLength="165" x="75.5" y="157.1274">ForStatement node (1533434416);</text><line style="stroke: #A80036; stroke-width: 1.0; stroke-dasharray: 1.0,2.0;" x1="70.5" x2="258" y1="136.8811" y2="136.8811"/><text fill="#000000" font-family="sans-serif" font-size="11" lengthAdjust="spacingAndGlyphs" textLength="38" x="258" y="141.5186">member</text><line style="stroke: #A80036; stroke-width: 1.0; stroke-dasharray: 1.0,2.0;" x1="296" x2="483.5" y1="136.8811" y2="136.8811"/><line style="stroke: #A80036; stroke-width: 1.0; stroke-dasharray: 1.0,2.0;" x1="70.5" x2="259.5" y1="171.0989" y2="171.0989"/><text fill="#000000" font-family="sans-serif" font-size="11" lengthAdjust="spacingAndGlyphs" textLength="35" x="259.5" y="175.7363">method</text><line style="stroke: #A80036; stroke-width: 1.0; stroke-dasharray: 1.0,2.0;" x1="294.5" x2="483.5" y1="171.0989" y2="171.0989"/><line style="stroke: #A80036; stroke-width: 1.5;" x1="70.5" x2="249.5" y1="193.7622" y2="193.7622"/><text fill="#0000FF" font-family="sans-serif" font-size="11" font-weight="bold" lengthAdjust="spacingAndGlyphs" textLength="55" x="249.5" y="198.3997">calling list</text><line style="stroke: #A80036; stroke-width: 1.5;" x1="304.5" x2="483.5" y1="193.7622" y2="193.7622"/><text fill="#000000" font-family="sans-serif" font-size="11" lengthAdjust="spacingAndGlyphs" textLength="138" x="75.5" y="236.6719">ForStatement (1294534487);</text><text fill="#000000" font-family="sans-serif" font-size="11" lengthAdjust="spacingAndGlyphs" textLength="120" x="75.5" y="251.7808">ASTNode (1913266128);</text><text fill="#000000" font-family="sans-serif" font-size="11" lengthAdjust="spacingAndGlyphs" textLength="126" x="75.5" y="266.8896">Test_Visitor (348026124);</text><line style="stroke: #A80036; stroke-width: 1.0; stroke-dasharray: 1.0,2.0;" x1="70.5" x2="264" y1="216.4255" y2="216.4255"/><text fill="#000000" font-family="sans-serif" font-size="11" lengthAdjust="spacingAndGlyphs" textLength="26" x="264" y="221.063">class</text><line style="stroke: #A80036; stroke-width: 1.0; stroke-dasharray: 1.0,2.0;" x1="290" x2="483.5" y1="216.4255" y2="216.4255"/><text fill="#000000" font-family="sans-serif" font-size="11" lengthAdjust="spacingAndGlyphs" textLength="101" x="75.5" y="301.1074">List init (482614135);</text><text fill="#000000" font-family="sans-serif" font-size="11" lengthAdjust="spacingAndGlyphs" textLength="180" x="75.5" y="316.2163">String repeatCondition (1855172839);</text><text fill="#000000" font-family="sans-serif" font-size="11" lengthAdjust="spacingAndGlyphs" textLength="217" x="75.5" y="331.3252">ArrayList&lt;Statement&gt; bodyList (712949255);</text><line style="stroke: #A80036; stroke-width: 1.0; stroke-dasharray: 1.0,2.0;" x1="70.5" x2="258" y1="280.8611" y2="280.8611"/><text fill="#000000" font-family="sans-serif" font-size="11" lengthAdjust="spacingAndGlyphs" textLength="38" x="258" y="285.4985">member</text><line style="stroke: #A80036; stroke-width: 1.0; stroke-dasharray: 1.0,2.0;" x1="296" x2="483.5" y1="280.8611" y2="280.8611"/><text fill="#000000" font-family="sans-serif" font-size="11" lengthAdjust="spacingAndGlyphs" textLength="148" x="75.5" y="365.543">null initializers() (1336758691);</text><text fill="#000000" font-family="sans-serif" font-size="11" lengthAdjust="spacingAndGlyphs" textLength="138" x="75.5" y="380.6519">null toString() (1836786457);</text><text fill="#000000" font-family="sans-serif" font-size="11" lengthAdjust="spacingAndGlyphs" textLength="164" x="75.5" y="395.7607">null getExpression() (181097736);</text><text fill="#000000" font-family="sans-serif" font-size="11" lengthAdjust="spacingAndGlyphs" textLength="403" x="75.5" y="410.8696">ArrayList&lt;Statement&gt; getStmtList(org.eclipse.jdt.core.dom.Statement) (524671817);</text><text fill="#000000" font-family="sans-serif" font-size="11" lengthAdjust="spacingAndGlyphs" textLength="135" x="75.5" y="425.9785">null getBody() (985702731);</text><line style="stroke: #A80036; stroke-width: 1.0; stroke-dasharray: 1.0,2.0;" x1="70.5" x2="259.5" y1="345.2966" y2="345.2966"/><text fill="#000000" font-family="sans-serif" font-size="11" lengthAdjust="spacingAndGlyphs" textLength="35" x="259.5" y="349.9341">method</text><line style="stroke: #A80036; stroke-width: 1.0; stroke-dasharray: 1.0,2.0;" x1="294.5" x2="483.5" y1="345.2966" y2="345.2966"/><line style="stroke: #A80036; stroke-width: 1.5;" x1="70.5" x2="243" y1="439.95" y2="439.95"/><text fill="#FFA500" font-family="sans-serif" font-size="11" font-weight="bold" lengthAdjust="spacingAndGlyphs" textLength="68" x="243" y="444.5874">called by list</text><line style="stroke: #A80036; stroke-width: 1.5;" x1="311" x2="483.5" y1="439.95" y2="439.95"/><line style="stroke: #A80036; stroke-width: 1.0; stroke-dasharray: 1.0,2.0;" x1="70.5" x2="264" y1="462.6133" y2="462.6133"/><text fill="#000000" font-family="sans-serif" font-size="11" lengthAdjust="spacingAndGlyphs" textLength="26" x="264" y="467.2507">class</text><line style="stroke: #A80036; stroke-width: 1.0; stroke-dasharray: 1.0,2.0;" x1="290" x2="483.5" y1="462.6133" y2="462.6133"/><line style="stroke: #A80036; stroke-width: 1.0; stroke-dasharray: 1.0,2.0;" x1="70.5" x2="258" y1="485.2766" y2="485.2766"/><text fill="#000000" font-family="sans-serif" font-size="11" lengthAdjust="spacingAndGlyphs" textLength="38" x="258" y="489.9141">member</text><line style="stroke: #A80036; stroke-width: 1.0; stroke-dasharray: 1.0,2.0;" x1="296" x2="483.5" y1="485.2766" y2="485.2766"/><line style="stroke: #A80036; stroke-width: 1.0; stroke-dasharray: 1.0,2.0;" x1="70.5" x2="259.5" y1="507.9399" y2="507.9399"/><text fill="#000000" font-family="sans-serif" font-size="11" lengthAdjust="spacingAndGlyphs" textLength="35" x="259.5" y="512.5774">method</text><line style="stroke: #A80036; stroke-width: 1.0; stroke-dasharray: 1.0,2.0;" x1="294.5" x2="483.5" y1="507.9399" y2="507.9399"/><!--MD5=[5054c7f04cc4605bb769b9ca40072265]
@startuml
class dataSet.stateNode.ForStateNode.ForStateNode(org.eclipse.jdt.core.dom.ForStatement){
__**<color:green>has list</color>**__
..class..
..member..
	ForStatement node (1533434416);
..method..
__**<color:blue>calling list</color>**__
..class..
	ForStatement (1294534487);
	ASTNode (1913266128);
	Test_Visitor (348026124);
..member..
	List init (482614135);
	String repeatCondition (1855172839);
	ArrayList<Statement> bodyList (712949255);
..method..
	null initializers() (1336758691);
	null toString() (1836786457);
	null getExpression() (181097736);
	ArrayList<Statement> getStmtList(org.eclipse.jdt.core.dom.Statement) (524671817);
	null getBody() (985702731);
__**<color:orange>called by list</color>**__
..class..
..member..
..method..
}

@enduml

PlantUML version 1.2020.19(Tue Oct 13 00:10:01 KST 2020)
(APACHE source distribution)
Java Runtime: Java(TM) SE Runtime Environment
JVM: Java HotSpot(TM) 64-Bit Server VM
Default Encoding: MS949
Language: ko
Country: KR
--></g></svg>