<?xml version="1.0" encoding="UTF-8" standalone="no"?><svg xmlns="http://www.w3.org/2000/svg" xmlns:xlink="http://www.w3.org/1999/xlink" contentScriptType="application/ecmascript" contentStyleType="text/css" height="414px" preserveAspectRatio="none" style="width:297px;height:414px;" version="1.1" viewBox="0 0 297 414" width="297px" zoomAndPan="magnify"><defs><filter height="300%" id="f1nmzc6wdy6l3i" width="300%" x="-1" y="-1"><feGaussianBlur result="blurOut" stdDeviation="2.0"/><feColorMatrix in="blurOut" result="blurOut2" type="matrix" values="0 0 0 0 0 0 0 0 0 0 0 0 0 0 0 0 0 0 .4 0"/><feOffset dx="4.0" dy="4.0" in="blurOut2" result="blurOut3"/><feBlend in="SourceGraphic" in2="blurOut3" mode="normal"/></filter></defs><g><!--MD5=[a37d056a86612b378a7009d7ca85f97f]
cluster dataSet.Member.addHas(dataSet--><polygon fill="#FFFFFF" filter="url(#f1nmzc6wdy6l3i)" points="16,6,251,6,258,31.2295,280,31.2295,280,407,16,407,16,6" style="stroke: #000000; stroke-width: 1.5;"/><line style="stroke: #000000; stroke-width: 1.5;" x1="16" x2="258" y1="31.2295" y2="31.2295"/><text fill="#000000" font-family="sans-serif" font-size="14" font-weight="bold" lengthAdjust="spacingAndGlyphs" textLength="229" x="20" y="24.1533">dataSet.Member.addHas(dataSet</text><!--MD5=[ffbfa075fdc217926a64d805463e390d]
class dataSet.Member.addHas(dataSet.Data_base)--><rect codeLine="1" fill="#FEFECE" filter="url(#f1nmzc6wdy6l3i)" height="346.6233" id="dataSet.Member.addHas(dataSet.Data_base)" style="stroke: #A80036; stroke-width: 1.5;" width="231" x="32.5" y="44"/><ellipse cx="111.25" cy="60" fill="#ADD1B2" rx="11" ry="11" style="stroke: #A80036; stroke-width: 1.0;"/><path d="M111.0781,53.4844 Q109.2031,53.4844 108.0469,55.2344 Q106.8594,57.0156 106.8594,60.0156 Q106.8594,63.3906 108.0625,65.1563 Q109.125,66.7813 110.875,66.7813 Q112.5625,66.7813 113.5156,65.875 Q114.5781,64.8594 114.7188,62.625 Q114.7188,62.2031 114.4844,61.9688 Q114.2969,61.7344 113.9531,61.7031 Q113.625,61.7031 113.3906,61.8906 Q113.125,62.125 113.125,62.5156 Q113.0938,63.9063 112.5,64.6406 Q111.9688,65.3438 111.0156,65.3438 Q109.8594,65.3438 109.1406,63.9063 Q108.4219,62.4063 108.4219,59.9844 Q108.4219,57.4375 109.3125,56.0469 Q110.0625,54.9219 111.2031,54.9219 Q111.8594,54.9219 112.3594,55.4688 Q112.9219,56.0781 113.0469,57.1406 Q113.0938,57.8438 113.9219,57.7344 Q114.7031,57.625 114.6563,56.9375 Q114.4688,55.4219 113.7031,54.5469 Q112.7656,53.4844 111.0781,53.4844 Z "/><text fill="#000000" font-family="sans-serif" font-size="12" lengthAdjust="spacingAndGlyphs" textLength="65" x="131.75" y="65.6045">Data_base)</text><line style="stroke: #A80036; stroke-width: 1.5;" x1="33.5" x2="262.5" y1="76" y2="76"/><line style="stroke: #A80036; stroke-width: 1.5;" x1="33.5" x2="128" y1="91.5544" y2="91.5544"/><text fill="#008000" font-family="sans-serif" font-size="11" font-weight="bold" lengthAdjust="spacingAndGlyphs" textLength="40" x="128" y="96.1919">has list</text><line style="stroke: #A80036; stroke-width: 1.5;" x1="168" x2="262.5" y1="91.5544" y2="91.5544"/><line style="stroke: #A80036; stroke-width: 1.0; stroke-dasharray: 1.0,2.0;" x1="33.5" x2="135" y1="114.2178" y2="114.2178"/><text fill="#000000" font-family="sans-serif" font-size="11" lengthAdjust="spacingAndGlyphs" textLength="26" x="135" y="118.8552">class</text><line style="stroke: #A80036; stroke-width: 1.0; stroke-dasharray: 1.0,2.0;" x1="161" x2="262.5" y1="114.2178" y2="114.2178"/><text fill="#000000" font-family="sans-serif" font-size="11" lengthAdjust="spacingAndGlyphs" textLength="151" x="38.5" y="157.1274">Data_base target (675100200);</text><line style="stroke: #A80036; stroke-width: 1.0; stroke-dasharray: 1.0,2.0;" x1="33.5" x2="129" y1="136.8811" y2="136.8811"/><text fill="#000000" font-family="sans-serif" font-size="11" lengthAdjust="spacingAndGlyphs" textLength="38" x="129" y="141.5186">member</text><line style="stroke: #A80036; stroke-width: 1.0; stroke-dasharray: 1.0,2.0;" x1="167" x2="262.5" y1="136.8811" y2="136.8811"/><line style="stroke: #A80036; stroke-width: 1.0; stroke-dasharray: 1.0,2.0;" x1="33.5" x2="130.5" y1="171.0989" y2="171.0989"/><text fill="#000000" font-family="sans-serif" font-size="11" lengthAdjust="spacingAndGlyphs" textLength="35" x="130.5" y="175.7363">method</text><line style="stroke: #A80036; stroke-width: 1.0; stroke-dasharray: 1.0,2.0;" x1="165.5" x2="262.5" y1="171.0989" y2="171.0989"/><line style="stroke: #A80036; stroke-width: 1.5;" x1="33.5" x2="120.5" y1="193.7622" y2="193.7622"/><text fill="#0000FF" font-family="sans-serif" font-size="11" font-weight="bold" lengthAdjust="spacingAndGlyphs" textLength="55" x="120.5" y="198.3997">calling list</text><line style="stroke: #A80036; stroke-width: 1.5;" x1="175.5" x2="262.5" y1="193.7622" y2="193.7622"/><text fill="#000000" font-family="sans-serif" font-size="11" lengthAdjust="spacingAndGlyphs" textLength="113" x="38.5" y="236.6719">DataList (1258120701);</text><line style="stroke: #A80036; stroke-width: 1.0; stroke-dasharray: 1.0,2.0;" x1="33.5" x2="135" y1="216.4255" y2="216.4255"/><text fill="#000000" font-family="sans-serif" font-size="11" lengthAdjust="spacingAndGlyphs" textLength="26" x="135" y="221.063">class</text><line style="stroke: #A80036; stroke-width: 1.0; stroke-dasharray: 1.0,2.0;" x1="161" x2="262.5" y1="216.4255" y2="216.4255"/><line style="stroke: #A80036; stroke-width: 1.0; stroke-dasharray: 1.0,2.0;" x1="33.5" x2="129" y1="250.6433" y2="250.6433"/><text fill="#000000" font-family="sans-serif" font-size="11" lengthAdjust="spacingAndGlyphs" textLength="38" x="129" y="255.2808">member</text><line style="stroke: #A80036; stroke-width: 1.0; stroke-dasharray: 1.0,2.0;" x1="167" x2="262.5" y1="250.6433" y2="250.6433"/><text fill="#000000" font-family="sans-serif" font-size="11" lengthAdjust="spacingAndGlyphs" textLength="219" x="38.5" y="293.553">void addData(dataSet.Data_base) (5313207);</text><line style="stroke: #A80036; stroke-width: 1.0; stroke-dasharray: 1.0,2.0;" x1="33.5" x2="130.5" y1="273.3066" y2="273.3066"/><text fill="#000000" font-family="sans-serif" font-size="11" lengthAdjust="spacingAndGlyphs" textLength="35" x="130.5" y="277.9441">method</text><line style="stroke: #A80036; stroke-width: 1.0; stroke-dasharray: 1.0,2.0;" x1="165.5" x2="262.5" y1="273.3066" y2="273.3066"/><line style="stroke: #A80036; stroke-width: 1.5;" x1="33.5" x2="114" y1="307.5244" y2="307.5244"/><text fill="#FFA500" font-family="sans-serif" font-size="11" font-weight="bold" lengthAdjust="spacingAndGlyphs" textLength="68" x="114" y="312.1619">called by list</text><line style="stroke: #A80036; stroke-width: 1.5;" x1="182" x2="262.5" y1="307.5244" y2="307.5244"/><line style="stroke: #A80036; stroke-width: 1.0; stroke-dasharray: 1.0,2.0;" x1="33.5" x2="135" y1="330.1877" y2="330.1877"/><text fill="#000000" font-family="sans-serif" font-size="11" lengthAdjust="spacingAndGlyphs" textLength="26" x="135" y="334.8252">class</text><line style="stroke: #A80036; stroke-width: 1.0; stroke-dasharray: 1.0,2.0;" x1="161" x2="262.5" y1="330.1877" y2="330.1877"/><line style="stroke: #A80036; stroke-width: 1.0; stroke-dasharray: 1.0,2.0;" x1="33.5" x2="129" y1="352.8511" y2="352.8511"/><text fill="#000000" font-family="sans-serif" font-size="11" lengthAdjust="spacingAndGlyphs" textLength="38" x="129" y="357.4885">member</text><line style="stroke: #A80036; stroke-width: 1.0; stroke-dasharray: 1.0,2.0;" x1="167" x2="262.5" y1="352.8511" y2="352.8511"/><line style="stroke: #A80036; stroke-width: 1.0; stroke-dasharray: 1.0,2.0;" x1="33.5" x2="130.5" y1="375.5144" y2="375.5144"/><text fill="#000000" font-family="sans-serif" font-size="11" lengthAdjust="spacingAndGlyphs" textLength="35" x="130.5" y="380.1519">method</text><line style="stroke: #A80036; stroke-width: 1.0; stroke-dasharray: 1.0,2.0;" x1="165.5" x2="262.5" y1="375.5144" y2="375.5144"/><!--MD5=[65c9a4d550c84648145a84bc1ae65fba]
@startuml
class dataSet.Member.addHas(dataSet.Data_base){
__**<color:green>has list</color>**__
..class..
..member..
	Data_base target (675100200);
..method..
__**<color:blue>calling list</color>**__
..class..
	DataList (1258120701);
..member..
..method..
	void addData(dataSet.Data_base) (5313207);
__**<color:orange>called by list</color>**__
..class..
..member..
..method..
}

@enduml

PlantUML version 1.2020.19(Tue Oct 13 00:10:01 KST 2020)
(APACHE source distribution)
Java Runtime: Java(TM) SE Runtime Environment
JVM: Java HotSpot(TM) 64-Bit Server VM
Default Encoding: MS949
Language: ko
Country: KR
--></g></svg>