<?xml version="1.0" encoding="UTF-8" standalone="no"?><svg xmlns="http://www.w3.org/2000/svg" xmlns:xlink="http://www.w3.org/1999/xlink" contentScriptType="application/ecmascript" contentStyleType="text/css" height="402px" preserveAspectRatio="none" style="width:237px;height:402px;" version="1.1" viewBox="0 0 237 402" width="237px" zoomAndPan="magnify"><defs><filter height="300%" id="f15ilni1qsfjc1" width="300%" x="-1" y="-1"><feGaussianBlur result="blurOut" stdDeviation="2.0"/><feColorMatrix in="blurOut" result="blurOut2" type="matrix" values="0 0 0 0 0 0 0 0 0 0 0 0 0 0 0 0 0 0 .4 0"/><feOffset dx="4.0" dy="4.0" in="blurOut2" result="blurOut3"/><feBlend in="SourceGraphic" in2="blurOut3" mode="normal"/></filter></defs><g><!--MD5=[c4fd2dc20ceb3d4779ff614001bcf0b4]
cluster dataSet.Data_base--><polygon fill="#FFFFFF" filter="url(#f15ilni1qsfjc1)" points="16,6,152,6,159,31.2295,220,31.2295,220,395,16,395,16,6" style="stroke: #000000; stroke-width: 1.5;"/><line style="stroke: #000000; stroke-width: 1.5;" x1="16" x2="159" y1="31.2295" y2="31.2295"/><text fill="#000000" font-family="sans-serif" font-size="14" font-weight="bold" lengthAdjust="spacingAndGlyphs" textLength="130" x="20" y="24.1533">dataSet.Data_base</text><!--MD5=[6282360234c28e51d72bed68c71cab64]
class dataSet.Data_base.setAbstract(boolean)--><rect codeLine="1" fill="#FEFECE" filter="url(#f15ilni1qsfjc1)" height="335.0688" id="dataSet.Data_base.setAbstract(boolean)" style="stroke: #A80036; stroke-width: 1.5;" width="171" x="32.5" y="44"/><ellipse cx="58.75" cy="60" fill="#ADD1B2" rx="11" ry="11" style="stroke: #A80036; stroke-width: 1.0;"/><path d="M58.5781,53.4844 Q56.7031,53.4844 55.5469,55.2344 Q54.3594,57.0156 54.3594,60.0156 Q54.3594,63.3906 55.5625,65.1563 Q56.625,66.7813 58.375,66.7813 Q60.0625,66.7813 61.0156,65.875 Q62.0781,64.8594 62.2188,62.625 Q62.2188,62.2031 61.9844,61.9688 Q61.7969,61.7344 61.4531,61.7031 Q61.125,61.7031 60.8906,61.8906 Q60.625,62.125 60.625,62.5156 Q60.5938,63.9063 60,64.6406 Q59.4688,65.3438 58.5156,65.3438 Q57.3594,65.3438 56.6406,63.9063 Q55.9219,62.4063 55.9219,59.9844 Q55.9219,57.4375 56.8125,56.0469 Q57.5625,54.9219 58.7031,54.9219 Q59.3594,54.9219 59.8594,55.4688 Q60.4219,56.0781 60.5469,57.1406 Q60.5938,57.8438 61.4219,57.7344 Q62.2031,57.625 62.1563,56.9375 Q61.9688,55.4219 61.2031,54.5469 Q60.2656,53.4844 58.5781,53.4844 Z "/><text fill="#000000" font-family="sans-serif" font-size="12" lengthAdjust="spacingAndGlyphs" textLength="114" x="75.25" y="65.6045">setAbstract(boolean)</text><line style="stroke: #A80036; stroke-width: 1.5;" x1="33.5" x2="202.5" y1="76" y2="76"/><line style="stroke: #A80036; stroke-width: 1.5;" x1="33.5" x2="98" y1="91.5544" y2="91.5544"/><text fill="#008000" font-family="sans-serif" font-size="11" font-weight="bold" lengthAdjust="spacingAndGlyphs" textLength="40" x="98" y="96.1919">has list</text><line style="stroke: #A80036; stroke-width: 1.5;" x1="138" x2="202.5" y1="91.5544" y2="91.5544"/><line style="stroke: #A80036; stroke-width: 1.0; stroke-dasharray: 1.0,2.0;" x1="33.5" x2="105" y1="114.2178" y2="114.2178"/><text fill="#000000" font-family="sans-serif" font-size="11" lengthAdjust="spacingAndGlyphs" textLength="26" x="105" y="118.8552">class</text><line style="stroke: #A80036; stroke-width: 1.0; stroke-dasharray: 1.0,2.0;" x1="131" x2="202.5" y1="114.2178" y2="114.2178"/><text fill="#000000" font-family="sans-serif" font-size="11" lengthAdjust="spacingAndGlyphs" textLength="159" x="38.5" y="157.1274">boolean isAbstract (381045251);</text><line style="stroke: #A80036; stroke-width: 1.0; stroke-dasharray: 1.0,2.0;" x1="33.5" x2="99" y1="136.8811" y2="136.8811"/><text fill="#000000" font-family="sans-serif" font-size="11" lengthAdjust="spacingAndGlyphs" textLength="38" x="99" y="141.5186">member</text><line style="stroke: #A80036; stroke-width: 1.0; stroke-dasharray: 1.0,2.0;" x1="137" x2="202.5" y1="136.8811" y2="136.8811"/><line style="stroke: #A80036; stroke-width: 1.0; stroke-dasharray: 1.0,2.0;" x1="33.5" x2="100.5" y1="171.0989" y2="171.0989"/><text fill="#000000" font-family="sans-serif" font-size="11" lengthAdjust="spacingAndGlyphs" textLength="35" x="100.5" y="175.7363">method</text><line style="stroke: #A80036; stroke-width: 1.0; stroke-dasharray: 1.0,2.0;" x1="135.5" x2="202.5" y1="171.0989" y2="171.0989"/><line style="stroke: #A80036; stroke-width: 1.5;" x1="33.5" x2="90.5" y1="193.7622" y2="193.7622"/><text fill="#0000FF" font-family="sans-serif" font-size="11" font-weight="bold" lengthAdjust="spacingAndGlyphs" textLength="55" x="90.5" y="198.3997">calling list</text><line style="stroke: #A80036; stroke-width: 1.5;" x1="145.5" x2="202.5" y1="193.7622" y2="193.7622"/><line style="stroke: #A80036; stroke-width: 1.0; stroke-dasharray: 1.0,2.0;" x1="33.5" x2="105" y1="216.4255" y2="216.4255"/><text fill="#000000" font-family="sans-serif" font-size="11" lengthAdjust="spacingAndGlyphs" textLength="26" x="105" y="221.063">class</text><line style="stroke: #A80036; stroke-width: 1.0; stroke-dasharray: 1.0,2.0;" x1="131" x2="202.5" y1="216.4255" y2="216.4255"/><text fill="#000000" font-family="sans-serif" font-size="11" lengthAdjust="spacingAndGlyphs" textLength="159" x="38.5" y="259.3352">boolean isAbstract (422619140);</text><line style="stroke: #A80036; stroke-width: 1.0; stroke-dasharray: 1.0,2.0;" x1="33.5" x2="99" y1="239.0889" y2="239.0889"/><text fill="#000000" font-family="sans-serif" font-size="11" lengthAdjust="spacingAndGlyphs" textLength="38" x="99" y="243.7263">member</text><line style="stroke: #A80036; stroke-width: 1.0; stroke-dasharray: 1.0,2.0;" x1="137" x2="202.5" y1="239.0889" y2="239.0889"/><line style="stroke: #A80036; stroke-width: 1.0; stroke-dasharray: 1.0,2.0;" x1="33.5" x2="100.5" y1="273.3066" y2="273.3066"/><text fill="#000000" font-family="sans-serif" font-size="11" lengthAdjust="spacingAndGlyphs" textLength="35" x="100.5" y="277.9441">method</text><line style="stroke: #A80036; stroke-width: 1.0; stroke-dasharray: 1.0,2.0;" x1="135.5" x2="202.5" y1="273.3066" y2="273.3066"/><line style="stroke: #A80036; stroke-width: 1.5;" x1="33.5" x2="84" y1="295.97" y2="295.97"/><text fill="#FFA500" font-family="sans-serif" font-size="11" font-weight="bold" lengthAdjust="spacingAndGlyphs" textLength="68" x="84" y="300.6074">called by list</text><line style="stroke: #A80036; stroke-width: 1.5;" x1="152" x2="202.5" y1="295.97" y2="295.97"/><line style="stroke: #A80036; stroke-width: 1.0; stroke-dasharray: 1.0,2.0;" x1="33.5" x2="105" y1="318.6333" y2="318.6333"/><text fill="#000000" font-family="sans-serif" font-size="11" lengthAdjust="spacingAndGlyphs" textLength="26" x="105" y="323.2708">class</text><line style="stroke: #A80036; stroke-width: 1.0; stroke-dasharray: 1.0,2.0;" x1="131" x2="202.5" y1="318.6333" y2="318.6333"/><line style="stroke: #A80036; stroke-width: 1.0; stroke-dasharray: 1.0,2.0;" x1="33.5" x2="99" y1="341.2966" y2="341.2966"/><text fill="#000000" font-family="sans-serif" font-size="11" lengthAdjust="spacingAndGlyphs" textLength="38" x="99" y="345.9341">member</text><line style="stroke: #A80036; stroke-width: 1.0; stroke-dasharray: 1.0,2.0;" x1="137" x2="202.5" y1="341.2966" y2="341.2966"/><line style="stroke: #A80036; stroke-width: 1.0; stroke-dasharray: 1.0,2.0;" x1="33.5" x2="100.5" y1="363.96" y2="363.96"/><text fill="#000000" font-family="sans-serif" font-size="11" lengthAdjust="spacingAndGlyphs" textLength="35" x="100.5" y="368.5974">method</text><line style="stroke: #A80036; stroke-width: 1.0; stroke-dasharray: 1.0,2.0;" x1="135.5" x2="202.5" y1="363.96" y2="363.96"/><!--MD5=[5bd85b424fb7d0e374b89ba5c7e860e8]
@startuml
class dataSet.Data_base.setAbstract(boolean){
__**<color:green>has list</color>**__
..class..
..member..
	boolean isAbstract (381045251);
..method..
__**<color:blue>calling list</color>**__
..class..
..member..
	boolean isAbstract (422619140);
..method..
__**<color:orange>called by list</color>**__
..class..
..member..
..method..
}

@enduml

PlantUML version 1.2020.19(Tue Oct 13 00:10:01 KST 2020)
(APACHE source distribution)
Java Runtime: Java(TM) SE Runtime Environment
JVM: Java HotSpot(TM) 64-Bit Server VM
Default Encoding: MS949
Language: ko
Country: KR
--></g></svg>