<?xml version="1.0" encoding="UTF-8" standalone="no"?><svg xmlns="http://www.w3.org/2000/svg" xmlns:xlink="http://www.w3.org/1999/xlink" contentScriptType="application/ecmascript" contentStyleType="text/css" height="493px" preserveAspectRatio="none" style="width:447px;height:493px;" version="1.1" viewBox="0 0 447 493" width="447px" zoomAndPan="magnify"><defs><filter height="300%" id="fqla56cmd0eds" width="300%" x="-1" y="-1"><feGaussianBlur result="blurOut" stdDeviation="2.0"/><feColorMatrix in="blurOut" result="blurOut2" type="matrix" values="0 0 0 0 0 0 0 0 0 0 0 0 0 0 0 0 0 0 .4 0"/><feOffset dx="4.0" dy="4.0" in="blurOut2" result="blurOut3"/><feBlend in="SourceGraphic" in2="blurOut3" mode="normal"/></filter></defs><g><!--MD5=[e105f759719fe8f26919c29203755413]
cluster dataSet.Function--><polygon fill="#FFFFFF" filter="url(#fqla56cmd0eds)" points="16,6,141,6,148,31.2295,430,31.2295,430,486,16,486,16,6" style="stroke: #000000; stroke-width: 1.5;"/><line style="stroke: #000000; stroke-width: 1.5;" x1="16" x2="148" y1="31.2295" y2="31.2295"/><text fill="#000000" font-family="sans-serif" font-size="14" font-weight="bold" lengthAdjust="spacingAndGlyphs" textLength="119" x="20" y="24.1533">dataSet.Function</text><!--MD5=[863300a410ae5a4bc3d994347201dfc2]
class dataSet.Function.getHeadNode()--><rect codeLine="1" fill="#FEFECE" filter="url(#fqla56cmd0eds)" height="425.7222" id="dataSet.Function.getHeadNode()" style="stroke: #A80036; stroke-width: 1.5;" width="381" x="32.5" y="44"/><ellipse cx="176.25" cy="60" fill="#ADD1B2" rx="11" ry="11" style="stroke: #A80036; stroke-width: 1.0;"/><path d="M176.0781,53.4844 Q174.2031,53.4844 173.0469,55.2344 Q171.8594,57.0156 171.8594,60.0156 Q171.8594,63.3906 173.0625,65.1563 Q174.125,66.7813 175.875,66.7813 Q177.5625,66.7813 178.5156,65.875 Q179.5781,64.8594 179.7188,62.625 Q179.7188,62.2031 179.4844,61.9688 Q179.2969,61.7344 178.9531,61.7031 Q178.625,61.7031 178.3906,61.8906 Q178.125,62.125 178.125,62.5156 Q178.0938,63.9063 177.5,64.6406 Q176.9688,65.3438 176.0156,65.3438 Q174.8594,65.3438 174.1406,63.9063 Q173.4219,62.4063 173.4219,59.9844 Q173.4219,57.4375 174.3125,56.0469 Q175.0625,54.9219 176.2031,54.9219 Q176.8594,54.9219 177.3594,55.4688 Q177.9219,56.0781 178.0469,57.1406 Q178.0938,57.8438 178.9219,57.7344 Q179.7031,57.625 179.6563,56.9375 Q179.4688,55.4219 178.7031,54.5469 Q177.7656,53.4844 176.0781,53.4844 Z "/><text fill="#000000" font-family="sans-serif" font-size="12" lengthAdjust="spacingAndGlyphs" textLength="85" x="196.75" y="65.6045">getHeadNode()</text><line style="stroke: #A80036; stroke-width: 1.5;" x1="33.5" x2="412.5" y1="76" y2="76"/><line style="stroke: #A80036; stroke-width: 1.5;" x1="33.5" x2="203" y1="91.5544" y2="91.5544"/><text fill="#008000" font-family="sans-serif" font-size="11" font-weight="bold" lengthAdjust="spacingAndGlyphs" textLength="40" x="203" y="96.1919">has list</text><line style="stroke: #A80036; stroke-width: 1.5;" x1="243" x2="412.5" y1="91.5544" y2="91.5544"/><line style="stroke: #A80036; stroke-width: 1.0; stroke-dasharray: 1.0,2.0;" x1="33.5" x2="210" y1="114.2178" y2="114.2178"/><text fill="#000000" font-family="sans-serif" font-size="11" lengthAdjust="spacingAndGlyphs" textLength="26" x="210" y="118.8552">class</text><line style="stroke: #A80036; stroke-width: 1.0; stroke-dasharray: 1.0,2.0;" x1="236" x2="412.5" y1="114.2178" y2="114.2178"/><line style="stroke: #A80036; stroke-width: 1.0; stroke-dasharray: 1.0,2.0;" x1="33.5" x2="204" y1="136.8811" y2="136.8811"/><text fill="#000000" font-family="sans-serif" font-size="11" lengthAdjust="spacingAndGlyphs" textLength="38" x="204" y="141.5186">member</text><line style="stroke: #A80036; stroke-width: 1.0; stroke-dasharray: 1.0,2.0;" x1="242" x2="412.5" y1="136.8811" y2="136.8811"/><line style="stroke: #A80036; stroke-width: 1.0; stroke-dasharray: 1.0,2.0;" x1="33.5" x2="205.5" y1="159.5444" y2="159.5444"/><text fill="#000000" font-family="sans-serif" font-size="11" lengthAdjust="spacingAndGlyphs" textLength="35" x="205.5" y="164.1819">method</text><line style="stroke: #A80036; stroke-width: 1.0; stroke-dasharray: 1.0,2.0;" x1="240.5" x2="412.5" y1="159.5444" y2="159.5444"/><line style="stroke: #A80036; stroke-width: 1.5;" x1="33.5" x2="195.5" y1="182.2078" y2="182.2078"/><text fill="#0000FF" font-family="sans-serif" font-size="11" font-weight="bold" lengthAdjust="spacingAndGlyphs" textLength="55" x="195.5" y="186.8452">calling list</text><line style="stroke: #A80036; stroke-width: 1.5;" x1="250.5" x2="412.5" y1="182.2078" y2="182.2078"/><line style="stroke: #A80036; stroke-width: 1.0; stroke-dasharray: 1.0,2.0;" x1="33.5" x2="210" y1="204.8711" y2="204.8711"/><text fill="#000000" font-family="sans-serif" font-size="11" lengthAdjust="spacingAndGlyphs" textLength="26" x="210" y="209.5085">class</text><line style="stroke: #A80036; stroke-width: 1.0; stroke-dasharray: 1.0,2.0;" x1="236" x2="412.5" y1="204.8711" y2="204.8711"/><line style="stroke: #A80036; stroke-width: 1.0; stroke-dasharray: 1.0,2.0;" x1="33.5" x2="204" y1="227.5344" y2="227.5344"/><text fill="#000000" font-family="sans-serif" font-size="11" lengthAdjust="spacingAndGlyphs" textLength="38" x="204" y="232.1719">member</text><line style="stroke: #A80036; stroke-width: 1.0; stroke-dasharray: 1.0,2.0;" x1="242" x2="412.5" y1="227.5344" y2="227.5344"/><line style="stroke: #A80036; stroke-width: 1.0; stroke-dasharray: 1.0,2.0;" x1="33.5" x2="205.5" y1="250.1978" y2="250.1978"/><text fill="#000000" font-family="sans-serif" font-size="11" lengthAdjust="spacingAndGlyphs" textLength="35" x="205.5" y="254.8352">method</text><line style="stroke: #A80036; stroke-width: 1.0; stroke-dasharray: 1.0,2.0;" x1="240.5" x2="412.5" y1="250.1978" y2="250.1978"/><line style="stroke: #A80036; stroke-width: 1.5;" x1="33.5" x2="189" y1="272.8611" y2="272.8611"/><text fill="#FFA500" font-family="sans-serif" font-size="11" font-weight="bold" lengthAdjust="spacingAndGlyphs" textLength="68" x="189" y="277.4985">called by list</text><line style="stroke: #A80036; stroke-width: 1.5;" x1="257" x2="412.5" y1="272.8611" y2="272.8611"/><text fill="#000000" font-family="sans-serif" font-size="11" lengthAdjust="spacingAndGlyphs" textLength="118" x="38.5" y="315.7708">ForMidEx (1089579669);</text><text fill="#000000" font-family="sans-serif" font-size="11" lengthAdjust="spacingAndGlyphs" textLength="112" x="38.5" y="330.8796">ForQuiz2 (955581180);</text><text fill="#000000" font-family="sans-serif" font-size="11" lengthAdjust="spacingAndGlyphs" textLength="112" x="38.5" y="345.9885">ForQuiz3 (108798399);</text><text fill="#000000" font-family="sans-serif" font-size="11" lengthAdjust="spacingAndGlyphs" textLength="118" x="38.5" y="361.0974">ForQuiz4 (1739581705);</text><line style="stroke: #A80036; stroke-width: 1.0; stroke-dasharray: 1.0,2.0;" x1="33.5" x2="210" y1="295.5244" y2="295.5244"/><text fill="#000000" font-family="sans-serif" font-size="11" lengthAdjust="spacingAndGlyphs" textLength="26" x="210" y="300.1619">class</text><line style="stroke: #A80036; stroke-width: 1.0; stroke-dasharray: 1.0,2.0;" x1="236" x2="412.5" y1="295.5244" y2="295.5244"/><line style="stroke: #A80036; stroke-width: 1.0; stroke-dasharray: 1.0,2.0;" x1="33.5" x2="204" y1="375.0688" y2="375.0688"/><text fill="#000000" font-family="sans-serif" font-size="11" lengthAdjust="spacingAndGlyphs" textLength="38" x="204" y="379.7063">member</text><line style="stroke: #A80036; stroke-width: 1.0; stroke-dasharray: 1.0,2.0;" x1="242" x2="412.5" y1="375.0688" y2="375.0688"/><text fill="#000000" font-family="sans-serif" font-size="11" lengthAdjust="spacingAndGlyphs" textLength="307" x="38.5" y="417.9785">void funMake(dataSet.Function, java.lang.String) (2045895214);</text><text fill="#000000" font-family="sans-serif" font-size="11" lengthAdjust="spacingAndGlyphs" textLength="369" x="38.5" y="433.0874">void makeFunctionInfo(dataSet.Class, java.lang.StringBuilder) (1761864974);</text><text fill="#000000" font-family="sans-serif" font-size="11" lengthAdjust="spacingAndGlyphs" textLength="363" x="38.5" y="448.1963">void makeFunctionInfo(dataSet.Class, java.lang.StringBuilder) (236275784);</text><text fill="#000000" font-family="sans-serif" font-size="11" lengthAdjust="spacingAndGlyphs" textLength="363" x="38.5" y="463.3052">void makeFunctionInfo(dataSet.Class, java.lang.StringBuilder) (384438050);</text><line style="stroke: #A80036; stroke-width: 1.0; stroke-dasharray: 1.0,2.0;" x1="33.5" x2="205.5" y1="397.7322" y2="397.7322"/><text fill="#000000" font-family="sans-serif" font-size="11" lengthAdjust="spacingAndGlyphs" textLength="35" x="205.5" y="402.3696">method</text><line style="stroke: #A80036; stroke-width: 1.0; stroke-dasharray: 1.0,2.0;" x1="240.5" x2="412.5" y1="397.7322" y2="397.7322"/><!--MD5=[304b8b2d61d1df914cf52e5731a74f01]
@startuml
class dataSet.Function.getHeadNode(){
__**<color:green>has list</color>**__
..class..
..member..
..method..
__**<color:blue>calling list</color>**__
..class..
..member..
..method..
__**<color:orange>called by list</color>**__
..class..
	ForMidEx (1089579669);
	ForQuiz2 (955581180);
	ForQuiz3 (108798399);
	ForQuiz4 (1739581705);
..member..
..method..
	void funMake(dataSet.Function, java.lang.String) (2045895214);
	void makeFunctionInfo(dataSet.Class, java.lang.StringBuilder) (1761864974);
	void makeFunctionInfo(dataSet.Class, java.lang.StringBuilder) (236275784);
	void makeFunctionInfo(dataSet.Class, java.lang.StringBuilder) (384438050);
}

@enduml

PlantUML version 1.2020.19(Tue Oct 13 00:10:01 KST 2020)
(APACHE source distribution)
Java Runtime: Java(TM) SE Runtime Environment
JVM: Java HotSpot(TM) 64-Bit Server VM
Default Encoding: MS949
Language: ko
Country: KR
--></g></svg>