<?xml version="1.0" encoding="UTF-8" standalone="no"?><svg xmlns="http://www.w3.org/2000/svg" xmlns:xlink="http://www.w3.org/1999/xlink" contentScriptType="application/ecmascript" contentStyleType="text/css" height="391px" preserveAspectRatio="none" style="width:259px;height:391px;" version="1.1" viewBox="0 0 259 391" width="259px" zoomAndPan="magnify"><defs><filter height="300%" id="f14mqbegfr9e1v" width="300%" x="-1" y="-1"><feGaussianBlur result="blurOut" stdDeviation="2.0"/><feColorMatrix in="blurOut" result="blurOut2" type="matrix" values="0 0 0 0 0 0 0 0 0 0 0 0 0 0 0 0 0 0 .4 0"/><feOffset dx="4.0" dy="4.0" in="blurOut2" result="blurOut3"/><feBlend in="SourceGraphic" in2="blurOut3" mode="normal"/></filter></defs><g><!--MD5=[7eb7292645271d9cdc773bdc10fd65ea]
cluster dataSet.Member--><polygon fill="#FFFFFF" filter="url(#f14mqbegfr9e1v)" points="16,6,137,6,144,31.2295,242,31.2295,242,384,16,384,16,6" style="stroke: #000000; stroke-width: 1.5;"/><line style="stroke: #000000; stroke-width: 1.5;" x1="16" x2="144" y1="31.2295" y2="31.2295"/><text fill="#000000" font-family="sans-serif" font-size="14" font-weight="bold" lengthAdjust="spacingAndGlyphs" textLength="115" x="20" y="24.1533">dataSet.Member</text><!--MD5=[361b56754ef0418ef0fef63cd2e0fa10]
class dataSet.Member.setSuperMember()--><rect codeLine="1" fill="#FEFECE" filter="url(#f14mqbegfr9e1v)" height="323.5144" id="dataSet.Member.setSuperMember()" style="stroke: #A80036; stroke-width: 1.5;" width="193" x="32.5" y="44"/><ellipse cx="73.6" cy="60" fill="#ADD1B2" rx="11" ry="11" style="stroke: #A80036; stroke-width: 1.0;"/><path d="M73.4281,53.4844 Q71.5531,53.4844 70.3969,55.2344 Q69.2094,57.0156 69.2094,60.0156 Q69.2094,63.3906 70.4125,65.1563 Q71.475,66.7813 73.225,66.7813 Q74.9125,66.7813 75.8656,65.875 Q76.9281,64.8594 77.0688,62.625 Q77.0688,62.2031 76.8344,61.9688 Q76.6469,61.7344 76.3031,61.7031 Q75.975,61.7031 75.7406,61.8906 Q75.475,62.125 75.475,62.5156 Q75.4438,63.9063 74.85,64.6406 Q74.3188,65.3438 73.3656,65.3438 Q72.2094,65.3438 71.4906,63.9063 Q70.7719,62.4063 70.7719,59.9844 Q70.7719,57.4375 71.6625,56.0469 Q72.4125,54.9219 73.5531,54.9219 Q74.2094,54.9219 74.7094,55.4688 Q75.2719,56.0781 75.3969,57.1406 Q75.4438,57.8438 76.2719,57.7344 Q77.0531,57.625 77.0063,56.9375 Q76.8188,55.4219 76.0531,54.5469 Q75.1156,53.4844 73.4281,53.4844 Z "/><text fill="#000000" font-family="sans-serif" font-size="12" lengthAdjust="spacingAndGlyphs" textLength="103" x="93.4" y="65.6045">setSuperMember()</text><line style="stroke: #A80036; stroke-width: 1.5;" x1="33.5" x2="224.5" y1="76" y2="76"/><line style="stroke: #A80036; stroke-width: 1.5;" x1="33.5" x2="109" y1="91.5544" y2="91.5544"/><text fill="#008000" font-family="sans-serif" font-size="11" font-weight="bold" lengthAdjust="spacingAndGlyphs" textLength="40" x="109" y="96.1919">has list</text><line style="stroke: #A80036; stroke-width: 1.5;" x1="149" x2="224.5" y1="91.5544" y2="91.5544"/><line style="stroke: #A80036; stroke-width: 1.0; stroke-dasharray: 1.0,2.0;" x1="33.5" x2="116" y1="114.2178" y2="114.2178"/><text fill="#000000" font-family="sans-serif" font-size="11" lengthAdjust="spacingAndGlyphs" textLength="26" x="116" y="118.8552">class</text><line style="stroke: #A80036; stroke-width: 1.0; stroke-dasharray: 1.0,2.0;" x1="142" x2="224.5" y1="114.2178" y2="114.2178"/><line style="stroke: #A80036; stroke-width: 1.0; stroke-dasharray: 1.0,2.0;" x1="33.5" x2="110" y1="136.8811" y2="136.8811"/><text fill="#000000" font-family="sans-serif" font-size="11" lengthAdjust="spacingAndGlyphs" textLength="38" x="110" y="141.5186">member</text><line style="stroke: #A80036; stroke-width: 1.0; stroke-dasharray: 1.0,2.0;" x1="148" x2="224.5" y1="136.8811" y2="136.8811"/><line style="stroke: #A80036; stroke-width: 1.0; stroke-dasharray: 1.0,2.0;" x1="33.5" x2="111.5" y1="159.5444" y2="159.5444"/><text fill="#000000" font-family="sans-serif" font-size="11" lengthAdjust="spacingAndGlyphs" textLength="35" x="111.5" y="164.1819">method</text><line style="stroke: #A80036; stroke-width: 1.0; stroke-dasharray: 1.0,2.0;" x1="146.5" x2="224.5" y1="159.5444" y2="159.5444"/><line style="stroke: #A80036; stroke-width: 1.5;" x1="33.5" x2="101.5" y1="182.2078" y2="182.2078"/><text fill="#0000FF" font-family="sans-serif" font-size="11" font-weight="bold" lengthAdjust="spacingAndGlyphs" textLength="55" x="101.5" y="186.8452">calling list</text><line style="stroke: #A80036; stroke-width: 1.5;" x1="156.5" x2="224.5" y1="182.2078" y2="182.2078"/><line style="stroke: #A80036; stroke-width: 1.0; stroke-dasharray: 1.0,2.0;" x1="33.5" x2="116" y1="204.8711" y2="204.8711"/><text fill="#000000" font-family="sans-serif" font-size="11" lengthAdjust="spacingAndGlyphs" textLength="26" x="116" y="209.5085">class</text><line style="stroke: #A80036; stroke-width: 1.0; stroke-dasharray: 1.0,2.0;" x1="142" x2="224.5" y1="204.8711" y2="204.8711"/><text fill="#000000" font-family="sans-serif" font-size="11" lengthAdjust="spacingAndGlyphs" textLength="181" x="38.5" y="247.7808">boolean superMember (2009218448);</text><line style="stroke: #A80036; stroke-width: 1.0; stroke-dasharray: 1.0,2.0;" x1="33.5" x2="110" y1="227.5344" y2="227.5344"/><text fill="#000000" font-family="sans-serif" font-size="11" lengthAdjust="spacingAndGlyphs" textLength="38" x="110" y="232.1719">member</text><line style="stroke: #A80036; stroke-width: 1.0; stroke-dasharray: 1.0,2.0;" x1="148" x2="224.5" y1="227.5344" y2="227.5344"/><line style="stroke: #A80036; stroke-width: 1.0; stroke-dasharray: 1.0,2.0;" x1="33.5" x2="111.5" y1="261.7522" y2="261.7522"/><text fill="#000000" font-family="sans-serif" font-size="11" lengthAdjust="spacingAndGlyphs" textLength="35" x="111.5" y="266.3896">method</text><line style="stroke: #A80036; stroke-width: 1.0; stroke-dasharray: 1.0,2.0;" x1="146.5" x2="224.5" y1="261.7522" y2="261.7522"/><line style="stroke: #A80036; stroke-width: 1.5;" x1="33.5" x2="95" y1="284.4155" y2="284.4155"/><text fill="#FFA500" font-family="sans-serif" font-size="11" font-weight="bold" lengthAdjust="spacingAndGlyphs" textLength="68" x="95" y="289.053">called by list</text><line style="stroke: #A80036; stroke-width: 1.5;" x1="163" x2="224.5" y1="284.4155" y2="284.4155"/><line style="stroke: #A80036; stroke-width: 1.0; stroke-dasharray: 1.0,2.0;" x1="33.5" x2="116" y1="307.0789" y2="307.0789"/><text fill="#000000" font-family="sans-serif" font-size="11" lengthAdjust="spacingAndGlyphs" textLength="26" x="116" y="311.7163">class</text><line style="stroke: #A80036; stroke-width: 1.0; stroke-dasharray: 1.0,2.0;" x1="142" x2="224.5" y1="307.0789" y2="307.0789"/><line style="stroke: #A80036; stroke-width: 1.0; stroke-dasharray: 1.0,2.0;" x1="33.5" x2="110" y1="329.7422" y2="329.7422"/><text fill="#000000" font-family="sans-serif" font-size="11" lengthAdjust="spacingAndGlyphs" textLength="38" x="110" y="334.3796">member</text><line style="stroke: #A80036; stroke-width: 1.0; stroke-dasharray: 1.0,2.0;" x1="148" x2="224.5" y1="329.7422" y2="329.7422"/><line style="stroke: #A80036; stroke-width: 1.0; stroke-dasharray: 1.0,2.0;" x1="33.5" x2="111.5" y1="352.4055" y2="352.4055"/><text fill="#000000" font-family="sans-serif" font-size="11" lengthAdjust="spacingAndGlyphs" textLength="35" x="111.5" y="357.043">method</text><line style="stroke: #A80036; stroke-width: 1.0; stroke-dasharray: 1.0,2.0;" x1="146.5" x2="224.5" y1="352.4055" y2="352.4055"/><!--MD5=[782635570c8bce8c46535eed2036eced]
@startuml
class dataSet.Member.setSuperMember(){
__**<color:green>has list</color>**__
..class..
..member..
..method..
__**<color:blue>calling list</color>**__
..class..
..member..
	boolean superMember (2009218448);
..method..
__**<color:orange>called by list</color>**__
..class..
..member..
..method..
}

@enduml

PlantUML version 1.2020.19(Tue Oct 13 00:10:01 KST 2020)
(APACHE source distribution)
Java Runtime: Java(TM) SE Runtime Environment
JVM: Java HotSpot(TM) 64-Bit Server VM
Default Encoding: MS949
Language: ko
Country: KR
--></g></svg>