<?xml version="1.0" encoding="UTF-8" standalone="no"?><svg xmlns="http://www.w3.org/2000/svg" xmlns:xlink="http://www.w3.org/1999/xlink" contentScriptType="application/ecmascript" contentStyleType="text/css" height="414px" preserveAspectRatio="none" style="width:575px;height:414px;" version="1.1" viewBox="0 0 575 414" width="575px" zoomAndPan="magnify"><defs><filter height="300%" id="f35lc6jzsrv5f" width="300%" x="-1" y="-1"><feGaussianBlur result="blurOut" stdDeviation="2.0"/><feColorMatrix in="blurOut" result="blurOut2" type="matrix" values="0 0 0 0 0 0 0 0 0 0 0 0 0 0 0 0 0 0 .4 0"/><feOffset dx="4.0" dy="4.0" in="blurOut2" result="blurOut3"/><feBlend in="SourceGraphic" in2="blurOut3" mode="normal"/></filter></defs><g><!--MD5=[e105f759719fe8f26919c29203755413]
cluster dataSet.Function--><polygon fill="#FFFFFF" filter="url(#f35lc6jzsrv5f)" points="16,6,141,6,148,31.2295,558,31.2295,558,407,16,407,16,6" style="stroke: #000000; stroke-width: 1.5;"/><line style="stroke: #000000; stroke-width: 1.5;" x1="16" x2="148" y1="31.2295" y2="31.2295"/><text fill="#000000" font-family="sans-serif" font-size="14" font-weight="bold" lengthAdjust="spacingAndGlyphs" textLength="119" x="20" y="24.1533">dataSet.Function</text><!--MD5=[7dd1743b0ae4b76ed6cafcfbf49534ea]
class dataSet.Function.setComplex()--><rect codeLine="1" fill="#FEFECE" filter="url(#f35lc6jzsrv5f)" height="346.6233" id="dataSet.Function.setComplex()" style="stroke: #A80036; stroke-width: 1.5;" width="509" x="32.5" y="44"/><ellipse cx="245.75" cy="60" fill="#ADD1B2" rx="11" ry="11" style="stroke: #A80036; stroke-width: 1.0;"/><path d="M245.5781,53.4844 Q243.7031,53.4844 242.5469,55.2344 Q241.3594,57.0156 241.3594,60.0156 Q241.3594,63.3906 242.5625,65.1563 Q243.625,66.7813 245.375,66.7813 Q247.0625,66.7813 248.0156,65.875 Q249.0781,64.8594 249.2188,62.625 Q249.2188,62.2031 248.9844,61.9688 Q248.7969,61.7344 248.4531,61.7031 Q248.125,61.7031 247.8906,61.8906 Q247.625,62.125 247.625,62.5156 Q247.5938,63.9063 247,64.6406 Q246.4688,65.3438 245.5156,65.3438 Q244.3594,65.3438 243.6406,63.9063 Q242.9219,62.4063 242.9219,59.9844 Q242.9219,57.4375 243.8125,56.0469 Q244.5625,54.9219 245.7031,54.9219 Q246.3594,54.9219 246.8594,55.4688 Q247.4219,56.0781 247.5469,57.1406 Q247.5938,57.8438 248.4219,57.7344 Q249.2031,57.625 249.1563,56.9375 Q248.9688,55.4219 248.2031,54.5469 Q247.2656,53.4844 245.5781,53.4844 Z "/><text fill="#000000" font-family="sans-serif" font-size="12" lengthAdjust="spacingAndGlyphs" textLength="74" x="266.25" y="65.6045">setComplex()</text><line style="stroke: #A80036; stroke-width: 1.5;" x1="33.5" x2="540.5" y1="76" y2="76"/><line style="stroke: #A80036; stroke-width: 1.5;" x1="33.5" x2="267" y1="91.5544" y2="91.5544"/><text fill="#008000" font-family="sans-serif" font-size="11" font-weight="bold" lengthAdjust="spacingAndGlyphs" textLength="40" x="267" y="96.1919">has list</text><line style="stroke: #A80036; stroke-width: 1.5;" x1="307" x2="540.5" y1="91.5544" y2="91.5544"/><line style="stroke: #A80036; stroke-width: 1.0; stroke-dasharray: 1.0,2.0;" x1="33.5" x2="274" y1="114.2178" y2="114.2178"/><text fill="#000000" font-family="sans-serif" font-size="11" lengthAdjust="spacingAndGlyphs" textLength="26" x="274" y="118.8552">class</text><line style="stroke: #A80036; stroke-width: 1.0; stroke-dasharray: 1.0,2.0;" x1="300" x2="540.5" y1="114.2178" y2="114.2178"/><line style="stroke: #A80036; stroke-width: 1.0; stroke-dasharray: 1.0,2.0;" x1="33.5" x2="268" y1="136.8811" y2="136.8811"/><text fill="#000000" font-family="sans-serif" font-size="11" lengthAdjust="spacingAndGlyphs" textLength="38" x="268" y="141.5186">member</text><line style="stroke: #A80036; stroke-width: 1.0; stroke-dasharray: 1.0,2.0;" x1="306" x2="540.5" y1="136.8811" y2="136.8811"/><line style="stroke: #A80036; stroke-width: 1.0; stroke-dasharray: 1.0,2.0;" x1="33.5" x2="269.5" y1="159.5444" y2="159.5444"/><text fill="#000000" font-family="sans-serif" font-size="11" lengthAdjust="spacingAndGlyphs" textLength="35" x="269.5" y="164.1819">method</text><line style="stroke: #A80036; stroke-width: 1.0; stroke-dasharray: 1.0,2.0;" x1="304.5" x2="540.5" y1="159.5444" y2="159.5444"/><line style="stroke: #A80036; stroke-width: 1.5;" x1="33.5" x2="259.5" y1="182.2078" y2="182.2078"/><text fill="#0000FF" font-family="sans-serif" font-size="11" font-weight="bold" lengthAdjust="spacingAndGlyphs" textLength="55" x="259.5" y="186.8452">calling list</text><line style="stroke: #A80036; stroke-width: 1.5;" x1="314.5" x2="540.5" y1="182.2078" y2="182.2078"/><line style="stroke: #A80036; stroke-width: 1.0; stroke-dasharray: 1.0,2.0;" x1="33.5" x2="274" y1="204.8711" y2="204.8711"/><text fill="#000000" font-family="sans-serif" font-size="11" lengthAdjust="spacingAndGlyphs" textLength="26" x="274" y="209.5085">class</text><line style="stroke: #A80036; stroke-width: 1.0; stroke-dasharray: 1.0,2.0;" x1="300" x2="540.5" y1="204.8711" y2="204.8711"/><text fill="#000000" font-family="sans-serif" font-size="11" lengthAdjust="spacingAndGlyphs" textLength="152" x="38.5" y="247.7808">Complex complex (806073091);</text><line style="stroke: #A80036; stroke-width: 1.0; stroke-dasharray: 1.0,2.0;" x1="33.5" x2="268" y1="227.5344" y2="227.5344"/><text fill="#000000" font-family="sans-serif" font-size="11" lengthAdjust="spacingAndGlyphs" textLength="38" x="268" y="232.1719">member</text><line style="stroke: #A80036; stroke-width: 1.0; stroke-dasharray: 1.0,2.0;" x1="306" x2="540.5" y1="227.5344" y2="227.5344"/><line style="stroke: #A80036; stroke-width: 1.0; stroke-dasharray: 1.0,2.0;" x1="33.5" x2="269.5" y1="261.7522" y2="261.7522"/><text fill="#000000" font-family="sans-serif" font-size="11" lengthAdjust="spacingAndGlyphs" textLength="35" x="269.5" y="266.3896">method</text><line style="stroke: #A80036; stroke-width: 1.0; stroke-dasharray: 1.0,2.0;" x1="304.5" x2="540.5" y1="261.7522" y2="261.7522"/><line style="stroke: #A80036; stroke-width: 1.5;" x1="33.5" x2="253" y1="284.4155" y2="284.4155"/><text fill="#FFA500" font-family="sans-serif" font-size="11" font-weight="bold" lengthAdjust="spacingAndGlyphs" textLength="68" x="253" y="289.053">called by list</text><line style="stroke: #A80036; stroke-width: 1.5;" x1="321" x2="540.5" y1="284.4155" y2="284.4155"/><text fill="#000000" font-family="sans-serif" font-size="11" lengthAdjust="spacingAndGlyphs" textLength="126" x="38.5" y="327.3252">Test_Visitor (348026124);</text><line style="stroke: #A80036; stroke-width: 1.0; stroke-dasharray: 1.0,2.0;" x1="33.5" x2="274" y1="307.0789" y2="307.0789"/><text fill="#000000" font-family="sans-serif" font-size="11" lengthAdjust="spacingAndGlyphs" textLength="26" x="274" y="311.7163">class</text><line style="stroke: #A80036; stroke-width: 1.0; stroke-dasharray: 1.0,2.0;" x1="300" x2="540.5" y1="307.0789" y2="307.0789"/><line style="stroke: #A80036; stroke-width: 1.0; stroke-dasharray: 1.0,2.0;" x1="33.5" x2="268" y1="341.2966" y2="341.2966"/><text fill="#000000" font-family="sans-serif" font-size="11" lengthAdjust="spacingAndGlyphs" textLength="38" x="268" y="345.9341">member</text><line style="stroke: #A80036; stroke-width: 1.0; stroke-dasharray: 1.0,2.0;" x1="306" x2="540.5" y1="341.2966" y2="341.2966"/><text fill="#000000" font-family="sans-serif" font-size="11" lengthAdjust="spacingAndGlyphs" textLength="497" x="38.5" y="384.2063">Function makeFunction(org.eclipse.jdt.core.dom.MethodDeclaration, dataSet.Data_base) (1054334320);</text><line style="stroke: #A80036; stroke-width: 1.0; stroke-dasharray: 1.0,2.0;" x1="33.5" x2="269.5" y1="363.96" y2="363.96"/><text fill="#000000" font-family="sans-serif" font-size="11" lengthAdjust="spacingAndGlyphs" textLength="35" x="269.5" y="368.5974">method</text><line style="stroke: #A80036; stroke-width: 1.0; stroke-dasharray: 1.0,2.0;" x1="304.5" x2="540.5" y1="363.96" y2="363.96"/><!--MD5=[60523ccaecff4f6f2ae23cd4107c422f]
@startuml
class dataSet.Function.setComplex(){
__**<color:green>has list</color>**__
..class..
..member..
..method..
__**<color:blue>calling list</color>**__
..class..
..member..
	Complex complex (806073091);
..method..
__**<color:orange>called by list</color>**__
..class..
	Test_Visitor (348026124);
..member..
..method..
	Function makeFunction(org.eclipse.jdt.core.dom.MethodDeclaration, dataSet.Data_base) (1054334320);
}

@enduml

PlantUML version 1.2020.19(Tue Oct 13 00:10:01 KST 2020)
(APACHE source distribution)
Java Runtime: Java(TM) SE Runtime Environment
JVM: Java HotSpot(TM) 64-Bit Server VM
Default Encoding: MS949
Language: ko
Country: KR
--></g></svg>