<?xml version="1.0" encoding="UTF-8" standalone="no"?><svg xmlns="http://www.w3.org/2000/svg" xmlns:xlink="http://www.w3.org/1999/xlink" contentScriptType="application/ecmascript" contentStyleType="text/css" height="402px" preserveAspectRatio="none" style="width:339px;height:402px;" version="1.1" viewBox="0 0 339 402" width="339px" zoomAndPan="magnify"><defs><filter height="300%" id="f1ml8lw79twlt9" width="300%" x="-1" y="-1"><feGaussianBlur result="blurOut" stdDeviation="2.0"/><feColorMatrix in="blurOut" result="blurOut2" type="matrix" values="0 0 0 0 0 0 0 0 0 0 0 0 0 0 0 0 0 0 .4 0"/><feOffset dx="4.0" dy="4.0" in="blurOut2" result="blurOut3"/><feBlend in="SourceGraphic" in2="blurOut3" mode="normal"/></filter></defs><g><!--MD5=[cbe0e9d118ab763fc4fd63f7de6a14e8]
cluster dataSet.Class.setImplementClass(dataSet--><polygon fill="#FFFFFF" filter="url(#f1ml8lw79twlt9)" points="16,6,312,6,319,31.2295,322,31.2295,322,395,16,395,16,6" style="stroke: #000000; stroke-width: 1.5;"/><line style="stroke: #000000; stroke-width: 1.5;" x1="16" x2="319" y1="31.2295" y2="31.2295"/><text fill="#000000" font-family="sans-serif" font-size="14" font-weight="bold" lengthAdjust="spacingAndGlyphs" textLength="290" x="20" y="24.1533">dataSet.Class.setImplementClass(dataSet</text><!--MD5=[779b2aed3be5a8038a26a093dc35dea7]
class dataSet.Class.setImplementClass(dataSet.Class[])--><rect codeLine="1" fill="#FEFECE" filter="url(#f1ml8lw79twlt9)" height="335.0688" id="dataSet.Class.setImplementClass(dataSet.Class[])" style="stroke: #A80036; stroke-width: 1.5;" width="196" x="71" y="44"/><ellipse cx="143.25" cy="60" fill="#ADD1B2" rx="11" ry="11" style="stroke: #A80036; stroke-width: 1.0;"/><path d="M143.0781,53.4844 Q141.2031,53.4844 140.0469,55.2344 Q138.8594,57.0156 138.8594,60.0156 Q138.8594,63.3906 140.0625,65.1563 Q141.125,66.7813 142.875,66.7813 Q144.5625,66.7813 145.5156,65.875 Q146.5781,64.8594 146.7188,62.625 Q146.7188,62.2031 146.4844,61.9688 Q146.2969,61.7344 145.9531,61.7031 Q145.625,61.7031 145.3906,61.8906 Q145.125,62.125 145.125,62.5156 Q145.0938,63.9063 144.5,64.6406 Q143.9688,65.3438 143.0156,65.3438 Q141.8594,65.3438 141.1406,63.9063 Q140.4219,62.4063 140.4219,59.9844 Q140.4219,57.4375 141.3125,56.0469 Q142.0625,54.9219 143.2031,54.9219 Q143.8594,54.9219 144.3594,55.4688 Q144.9219,56.0781 145.0469,57.1406 Q145.0938,57.8438 145.9219,57.7344 Q146.7031,57.625 146.6563,56.9375 Q146.4688,55.4219 145.7031,54.5469 Q144.7656,53.4844 143.0781,53.4844 Z "/><text fill="#000000" font-family="sans-serif" font-size="12" lengthAdjust="spacingAndGlyphs" textLength="43" x="163.75" y="65.6045">Class[])</text><line style="stroke: #A80036; stroke-width: 1.5;" x1="72" x2="266" y1="76" y2="76"/><line style="stroke: #A80036; stroke-width: 1.5;" x1="72" x2="149" y1="91.5544" y2="91.5544"/><text fill="#008000" font-family="sans-serif" font-size="11" font-weight="bold" lengthAdjust="spacingAndGlyphs" textLength="40" x="149" y="96.1919">has list</text><line style="stroke: #A80036; stroke-width: 1.5;" x1="189" x2="266" y1="91.5544" y2="91.5544"/><line style="stroke: #A80036; stroke-width: 1.0; stroke-dasharray: 1.0,2.0;" x1="72" x2="156" y1="114.2178" y2="114.2178"/><text fill="#000000" font-family="sans-serif" font-size="11" lengthAdjust="spacingAndGlyphs" textLength="26" x="156" y="118.8552">class</text><line style="stroke: #A80036; stroke-width: 1.0; stroke-dasharray: 1.0,2.0;" x1="182" x2="266" y1="114.2178" y2="114.2178"/><text fill="#000000" font-family="sans-serif" font-size="11" lengthAdjust="spacingAndGlyphs" textLength="184" x="77" y="157.1274">Class[] implementClass (2079989429);</text><line style="stroke: #A80036; stroke-width: 1.0; stroke-dasharray: 1.0,2.0;" x1="72" x2="150" y1="136.8811" y2="136.8811"/><text fill="#000000" font-family="sans-serif" font-size="11" lengthAdjust="spacingAndGlyphs" textLength="38" x="150" y="141.5186">member</text><line style="stroke: #A80036; stroke-width: 1.0; stroke-dasharray: 1.0,2.0;" x1="188" x2="266" y1="136.8811" y2="136.8811"/><line style="stroke: #A80036; stroke-width: 1.0; stroke-dasharray: 1.0,2.0;" x1="72" x2="151.5" y1="171.0989" y2="171.0989"/><text fill="#000000" font-family="sans-serif" font-size="11" lengthAdjust="spacingAndGlyphs" textLength="35" x="151.5" y="175.7363">method</text><line style="stroke: #A80036; stroke-width: 1.0; stroke-dasharray: 1.0,2.0;" x1="186.5" x2="266" y1="171.0989" y2="171.0989"/><line style="stroke: #A80036; stroke-width: 1.5;" x1="72" x2="141.5" y1="193.7622" y2="193.7622"/><text fill="#0000FF" font-family="sans-serif" font-size="11" font-weight="bold" lengthAdjust="spacingAndGlyphs" textLength="55" x="141.5" y="198.3997">calling list</text><line style="stroke: #A80036; stroke-width: 1.5;" x1="196.5" x2="266" y1="193.7622" y2="193.7622"/><line style="stroke: #A80036; stroke-width: 1.0; stroke-dasharray: 1.0,2.0;" x1="72" x2="156" y1="216.4255" y2="216.4255"/><text fill="#000000" font-family="sans-serif" font-size="11" lengthAdjust="spacingAndGlyphs" textLength="26" x="156" y="221.063">class</text><line style="stroke: #A80036; stroke-width: 1.0; stroke-dasharray: 1.0,2.0;" x1="182" x2="266" y1="216.4255" y2="216.4255"/><text fill="#000000" font-family="sans-serif" font-size="11" lengthAdjust="spacingAndGlyphs" textLength="178" x="77" y="259.3352">Class[] implementClass (725579524);</text><line style="stroke: #A80036; stroke-width: 1.0; stroke-dasharray: 1.0,2.0;" x1="72" x2="150" y1="239.0889" y2="239.0889"/><text fill="#000000" font-family="sans-serif" font-size="11" lengthAdjust="spacingAndGlyphs" textLength="38" x="150" y="243.7263">member</text><line style="stroke: #A80036; stroke-width: 1.0; stroke-dasharray: 1.0,2.0;" x1="188" x2="266" y1="239.0889" y2="239.0889"/><line style="stroke: #A80036; stroke-width: 1.0; stroke-dasharray: 1.0,2.0;" x1="72" x2="151.5" y1="273.3066" y2="273.3066"/><text fill="#000000" font-family="sans-serif" font-size="11" lengthAdjust="spacingAndGlyphs" textLength="35" x="151.5" y="277.9441">method</text><line style="stroke: #A80036; stroke-width: 1.0; stroke-dasharray: 1.0,2.0;" x1="186.5" x2="266" y1="273.3066" y2="273.3066"/><line style="stroke: #A80036; stroke-width: 1.5;" x1="72" x2="135" y1="295.97" y2="295.97"/><text fill="#FFA500" font-family="sans-serif" font-size="11" font-weight="bold" lengthAdjust="spacingAndGlyphs" textLength="68" x="135" y="300.6074">called by list</text><line style="stroke: #A80036; stroke-width: 1.5;" x1="203" x2="266" y1="295.97" y2="295.97"/><line style="stroke: #A80036; stroke-width: 1.0; stroke-dasharray: 1.0,2.0;" x1="72" x2="156" y1="318.6333" y2="318.6333"/><text fill="#000000" font-family="sans-serif" font-size="11" lengthAdjust="spacingAndGlyphs" textLength="26" x="156" y="323.2708">class</text><line style="stroke: #A80036; stroke-width: 1.0; stroke-dasharray: 1.0,2.0;" x1="182" x2="266" y1="318.6333" y2="318.6333"/><line style="stroke: #A80036; stroke-width: 1.0; stroke-dasharray: 1.0,2.0;" x1="72" x2="150" y1="341.2966" y2="341.2966"/><text fill="#000000" font-family="sans-serif" font-size="11" lengthAdjust="spacingAndGlyphs" textLength="38" x="150" y="345.9341">member</text><line style="stroke: #A80036; stroke-width: 1.0; stroke-dasharray: 1.0,2.0;" x1="188" x2="266" y1="341.2966" y2="341.2966"/><line style="stroke: #A80036; stroke-width: 1.0; stroke-dasharray: 1.0,2.0;" x1="72" x2="151.5" y1="363.96" y2="363.96"/><text fill="#000000" font-family="sans-serif" font-size="11" lengthAdjust="spacingAndGlyphs" textLength="35" x="151.5" y="368.5974">method</text><line style="stroke: #A80036; stroke-width: 1.0; stroke-dasharray: 1.0,2.0;" x1="186.5" x2="266" y1="363.96" y2="363.96"/><!--MD5=[e24600c1f3637f289ee308d7e91e8b5e]
@startuml
class dataSet.Class.setImplementClass(dataSet.Class[]){
__**<color:green>has list</color>**__
..class..
..member..
	Class[] implementClass (2079989429);
..method..
__**<color:blue>calling list</color>**__
..class..
..member..
	Class[] implementClass (725579524);
..method..
__**<color:orange>called by list</color>**__
..class..
..member..
..method..
}

@enduml

PlantUML version 1.2020.19(Tue Oct 13 00:10:01 KST 2020)
(APACHE source distribution)
Java Runtime: Java(TM) SE Runtime Environment
JVM: Java HotSpot(TM) 64-Bit Server VM
Default Encoding: MS949
Language: ko
Country: KR
--></g></svg>