<?xml version="1.0" encoding="UTF-8" standalone="no"?><svg xmlns="http://www.w3.org/2000/svg" xmlns:xlink="http://www.w3.org/1999/xlink" contentScriptType="application/ecmascript" contentStyleType="text/css" height="493px" preserveAspectRatio="none" style="width:427px;height:493px;" version="1.1" viewBox="0 0 427 493" width="427px" zoomAndPan="magnify"><defs><filter height="300%" id="f1p11nhr2miqd3" width="300%" x="-1" y="-1"><feGaussianBlur result="blurOut" stdDeviation="2.0"/><feColorMatrix in="blurOut" result="blurOut2" type="matrix" values="0 0 0 0 0 0 0 0 0 0 0 0 0 0 0 0 0 0 .4 0"/><feOffset dx="4.0" dy="4.0" in="blurOut2" result="blurOut3"/><feBlend in="SourceGraphic" in2="blurOut3" mode="normal"/></filter></defs><g><!--MD5=[e105f759719fe8f26919c29203755413]
cluster dataSet.Function--><polygon fill="#FFFFFF" filter="url(#f1p11nhr2miqd3)" points="16,6,141,6,148,31.2295,410,31.2295,410,486,16,486,16,6" style="stroke: #000000; stroke-width: 1.5;"/><line style="stroke: #000000; stroke-width: 1.5;" x1="16" x2="148" y1="31.2295" y2="31.2295"/><text fill="#000000" font-family="sans-serif" font-size="14" font-weight="bold" lengthAdjust="spacingAndGlyphs" textLength="119" x="20" y="24.1533">dataSet.Function</text><!--MD5=[ef08ad40cce5a8c2ff60343bd31e5199]
class dataSet.Function.getSig()--><rect codeLine="1" fill="#FEFECE" filter="url(#f1p11nhr2miqd3)" height="425.7222" id="dataSet.Function.getSig()" style="stroke: #A80036; stroke-width: 1.5;" width="361" x="32.5" y="44"/><ellipse cx="187.25" cy="60" fill="#ADD1B2" rx="11" ry="11" style="stroke: #A80036; stroke-width: 1.0;"/><path d="M187.0781,53.4844 Q185.2031,53.4844 184.0469,55.2344 Q182.8594,57.0156 182.8594,60.0156 Q182.8594,63.3906 184.0625,65.1563 Q185.125,66.7813 186.875,66.7813 Q188.5625,66.7813 189.5156,65.875 Q190.5781,64.8594 190.7188,62.625 Q190.7188,62.2031 190.4844,61.9688 Q190.2969,61.7344 189.9531,61.7031 Q189.625,61.7031 189.3906,61.8906 Q189.125,62.125 189.125,62.5156 Q189.0938,63.9063 188.5,64.6406 Q187.9688,65.3438 187.0156,65.3438 Q185.8594,65.3438 185.1406,63.9063 Q184.4219,62.4063 184.4219,59.9844 Q184.4219,57.4375 185.3125,56.0469 Q186.0625,54.9219 187.2031,54.9219 Q187.8594,54.9219 188.3594,55.4688 Q188.9219,56.0781 189.0469,57.1406 Q189.0938,57.8438 189.9219,57.7344 Q190.7031,57.625 190.6563,56.9375 Q190.4688,55.4219 189.7031,54.5469 Q188.7656,53.4844 187.0781,53.4844 Z "/><text fill="#000000" font-family="sans-serif" font-size="12" lengthAdjust="spacingAndGlyphs" textLength="43" x="207.75" y="65.6045">getSig()</text><line style="stroke: #A80036; stroke-width: 1.5;" x1="33.5" x2="392.5" y1="76" y2="76"/><line style="stroke: #A80036; stroke-width: 1.5;" x1="33.5" x2="193" y1="91.5544" y2="91.5544"/><text fill="#008000" font-family="sans-serif" font-size="11" font-weight="bold" lengthAdjust="spacingAndGlyphs" textLength="40" x="193" y="96.1919">has list</text><line style="stroke: #A80036; stroke-width: 1.5;" x1="233" x2="392.5" y1="91.5544" y2="91.5544"/><line style="stroke: #A80036; stroke-width: 1.0; stroke-dasharray: 1.0,2.0;" x1="33.5" x2="200" y1="114.2178" y2="114.2178"/><text fill="#000000" font-family="sans-serif" font-size="11" lengthAdjust="spacingAndGlyphs" textLength="26" x="200" y="118.8552">class</text><line style="stroke: #A80036; stroke-width: 1.0; stroke-dasharray: 1.0,2.0;" x1="226" x2="392.5" y1="114.2178" y2="114.2178"/><line style="stroke: #A80036; stroke-width: 1.0; stroke-dasharray: 1.0,2.0;" x1="33.5" x2="194" y1="136.8811" y2="136.8811"/><text fill="#000000" font-family="sans-serif" font-size="11" lengthAdjust="spacingAndGlyphs" textLength="38" x="194" y="141.5186">member</text><line style="stroke: #A80036; stroke-width: 1.0; stroke-dasharray: 1.0,2.0;" x1="232" x2="392.5" y1="136.8811" y2="136.8811"/><line style="stroke: #A80036; stroke-width: 1.0; stroke-dasharray: 1.0,2.0;" x1="33.5" x2="195.5" y1="159.5444" y2="159.5444"/><text fill="#000000" font-family="sans-serif" font-size="11" lengthAdjust="spacingAndGlyphs" textLength="35" x="195.5" y="164.1819">method</text><line style="stroke: #A80036; stroke-width: 1.0; stroke-dasharray: 1.0,2.0;" x1="230.5" x2="392.5" y1="159.5444" y2="159.5444"/><line style="stroke: #A80036; stroke-width: 1.5;" x1="33.5" x2="185.5" y1="182.2078" y2="182.2078"/><text fill="#0000FF" font-family="sans-serif" font-size="11" font-weight="bold" lengthAdjust="spacingAndGlyphs" textLength="55" x="185.5" y="186.8452">calling list</text><line style="stroke: #A80036; stroke-width: 1.5;" x1="240.5" x2="392.5" y1="182.2078" y2="182.2078"/><line style="stroke: #A80036; stroke-width: 1.0; stroke-dasharray: 1.0,2.0;" x1="33.5" x2="200" y1="204.8711" y2="204.8711"/><text fill="#000000" font-family="sans-serif" font-size="11" lengthAdjust="spacingAndGlyphs" textLength="26" x="200" y="209.5085">class</text><line style="stroke: #A80036; stroke-width: 1.0; stroke-dasharray: 1.0,2.0;" x1="226" x2="392.5" y1="204.8711" y2="204.8711"/><line style="stroke: #A80036; stroke-width: 1.0; stroke-dasharray: 1.0,2.0;" x1="33.5" x2="194" y1="227.5344" y2="227.5344"/><text fill="#000000" font-family="sans-serif" font-size="11" lengthAdjust="spacingAndGlyphs" textLength="38" x="194" y="232.1719">member</text><line style="stroke: #A80036; stroke-width: 1.0; stroke-dasharray: 1.0,2.0;" x1="232" x2="392.5" y1="227.5344" y2="227.5344"/><line style="stroke: #A80036; stroke-width: 1.0; stroke-dasharray: 1.0,2.0;" x1="33.5" x2="195.5" y1="250.1978" y2="250.1978"/><text fill="#000000" font-family="sans-serif" font-size="11" lengthAdjust="spacingAndGlyphs" textLength="35" x="195.5" y="254.8352">method</text><line style="stroke: #A80036; stroke-width: 1.0; stroke-dasharray: 1.0,2.0;" x1="230.5" x2="392.5" y1="250.1978" y2="250.1978"/><line style="stroke: #A80036; stroke-width: 1.5;" x1="33.5" x2="179" y1="272.8611" y2="272.8611"/><text fill="#FFA500" font-family="sans-serif" font-size="11" font-weight="bold" lengthAdjust="spacingAndGlyphs" textLength="68" x="179" y="277.4985">called by list</text><line style="stroke: #A80036; stroke-width: 1.5;" x1="247" x2="392.5" y1="272.8611" y2="272.8611"/><text fill="#000000" font-family="sans-serif" font-size="11" lengthAdjust="spacingAndGlyphs" textLength="115" x="38.5" y="315.7708">Complex (2068103096);</text><text fill="#000000" font-family="sans-serif" font-size="11" lengthAdjust="spacingAndGlyphs" textLength="118" x="38.5" y="330.8796">ForMidEx (1089579669);</text><text fill="#000000" font-family="sans-serif" font-size="11" lengthAdjust="spacingAndGlyphs" textLength="146" x="38.5" y="345.9885">DataListDiagram (477239455);</text><line style="stroke: #A80036; stroke-width: 1.0; stroke-dasharray: 1.0,2.0;" x1="33.5" x2="200" y1="295.5244" y2="295.5244"/><text fill="#000000" font-family="sans-serif" font-size="11" lengthAdjust="spacingAndGlyphs" textLength="26" x="200" y="300.1619">class</text><line style="stroke: #A80036; stroke-width: 1.0; stroke-dasharray: 1.0,2.0;" x1="226" x2="392.5" y1="295.5244" y2="295.5244"/><line style="stroke: #A80036; stroke-width: 1.0; stroke-dasharray: 1.0,2.0;" x1="33.5" x2="194" y1="359.96" y2="359.96"/><text fill="#000000" font-family="sans-serif" font-size="11" lengthAdjust="spacingAndGlyphs" textLength="38" x="194" y="364.5974">member</text><line style="stroke: #A80036; stroke-width: 1.0; stroke-dasharray: 1.0,2.0;" x1="232" x2="392.5" y1="359.96" y2="359.96"/><text fill="#000000" font-family="sans-serif" font-size="11" lengthAdjust="spacingAndGlyphs" textLength="260" x="38.5" y="402.8696">void addFunctionScore(dataSet.Class) (1493755606);</text><text fill="#000000" font-family="sans-serif" font-size="11" lengthAdjust="spacingAndGlyphs" textLength="205" x="38.5" y="417.9785">void print(dataSet.DataList) (1485318803);</text><text fill="#000000" font-family="sans-serif" font-size="11" lengthAdjust="spacingAndGlyphs" textLength="307" x="38.5" y="433.0874">void funMake(dataSet.Function, java.lang.String) (2045895214);</text><text fill="#000000" font-family="sans-serif" font-size="11" lengthAdjust="spacingAndGlyphs" textLength="326" x="38.5" y="448.1963">void addList(dataSet.DataList, java.lang.StringBuilder) (429462686);</text><text fill="#000000" font-family="sans-serif" font-size="11" lengthAdjust="spacingAndGlyphs" textLength="349" x="38.5" y="463.3052">void functionDef(dataSet.Function, java.lang.StringBuilder) (106787773);</text><line style="stroke: #A80036; stroke-width: 1.0; stroke-dasharray: 1.0,2.0;" x1="33.5" x2="195.5" y1="382.6233" y2="382.6233"/><text fill="#000000" font-family="sans-serif" font-size="11" lengthAdjust="spacingAndGlyphs" textLength="35" x="195.5" y="387.2607">method</text><line style="stroke: #A80036; stroke-width: 1.0; stroke-dasharray: 1.0,2.0;" x1="230.5" x2="392.5" y1="382.6233" y2="382.6233"/><!--MD5=[5b644e6e7e3a6a7b844e1c58dcb01e16]
@startuml
class dataSet.Function.getSig(){
__**<color:green>has list</color>**__
..class..
..member..
..method..
__**<color:blue>calling list</color>**__
..class..
..member..
..method..
__**<color:orange>called by list</color>**__
..class..
	Complex (2068103096);
	ForMidEx (1089579669);
	DataListDiagram (477239455);
..member..
..method..
	void addFunctionScore(dataSet.Class) (1493755606);
	void print(dataSet.DataList) (1485318803);
	void funMake(dataSet.Function, java.lang.String) (2045895214);
	void addList(dataSet.DataList, java.lang.StringBuilder) (429462686);
	void functionDef(dataSet.Function, java.lang.StringBuilder) (106787773);
}

@enduml

PlantUML version 1.2020.19(Tue Oct 13 00:10:01 KST 2020)
(APACHE source distribution)
Java Runtime: Java(TM) SE Runtime Environment
JVM: Java HotSpot(TM) 64-Bit Server VM
Default Encoding: MS949
Language: ko
Country: KR
--></g></svg>