<?xml version="1.0" encoding="UTF-8" standalone="no"?><svg xmlns="http://www.w3.org/2000/svg" xmlns:xlink="http://www.w3.org/1999/xlink" contentScriptType="application/ecmascript" contentStyleType="text/css" height="512px" preserveAspectRatio="none" style="width:325px;height:512px;" version="1.1" viewBox="0 0 325 512" width="325px" zoomAndPan="magnify"><defs><filter height="300%" id="f10u9uuho8hlso" width="300%" x="-1" y="-1"><feGaussianBlur result="blurOut" stdDeviation="2.0"/><feColorMatrix in="blurOut" result="blurOut2" type="matrix" values="0 0 0 0 0 0 0 0 0 0 0 0 0 0 0 0 0 0 .4 0"/><feOffset dx="4.0" dy="4.0" in="blurOut2" result="blurOut3"/><feBlend in="SourceGraphic" in2="blurOut3" mode="normal"/></filter></defs><g><!--MD5=[c1024c7cd8becdffb453a1d58fb443a7]
cluster dataSet.DataList--><polygon fill="#FFFFFF" filter="url(#f10u9uuho8hlso)" points="16,6,135,6,142,31.2295,308,31.2295,308,505,16,505,16,6" style="stroke: #000000; stroke-width: 1.5;"/><line style="stroke: #000000; stroke-width: 1.5;" x1="16" x2="142" y1="31.2295" y2="31.2295"/><text fill="#000000" font-family="sans-serif" font-size="14" font-weight="bold" lengthAdjust="spacingAndGlyphs" textLength="113" x="20" y="24.1533">dataSet.DataList</text><!--MD5=[491537e4f9864e410215af71edbbfbe8]
class dataSet.DataList.separatePackage()--><rect codeLine="1" fill="#FEFECE" filter="url(#f10u9uuho8hlso)" height="445.2766" id="dataSet.DataList.separatePackage()" style="stroke: #A80036; stroke-width: 1.5;" width="259" x="32.5" y="44"/><ellipse cx="105.25" cy="60" fill="#ADD1B2" rx="11" ry="11" style="stroke: #A80036; stroke-width: 1.0;"/><path d="M105.0781,53.4844 Q103.2031,53.4844 102.0469,55.2344 Q100.8594,57.0156 100.8594,60.0156 Q100.8594,63.3906 102.0625,65.1563 Q103.125,66.7813 104.875,66.7813 Q106.5625,66.7813 107.5156,65.875 Q108.5781,64.8594 108.7188,62.625 Q108.7188,62.2031 108.4844,61.9688 Q108.2969,61.7344 107.9531,61.7031 Q107.625,61.7031 107.3906,61.8906 Q107.125,62.125 107.125,62.5156 Q107.0938,63.9063 106.5,64.6406 Q105.9688,65.3438 105.0156,65.3438 Q103.8594,65.3438 103.1406,63.9063 Q102.4219,62.4063 102.4219,59.9844 Q102.4219,57.4375 103.3125,56.0469 Q104.0625,54.9219 105.2031,54.9219 Q105.8594,54.9219 106.3594,55.4688 Q106.9219,56.0781 107.0469,57.1406 Q107.0938,57.8438 107.9219,57.7344 Q108.7031,57.625 108.6563,56.9375 Q108.4688,55.4219 107.7031,54.5469 Q106.7656,53.4844 105.0781,53.4844 Z "/><text fill="#000000" font-family="sans-serif" font-size="12" lengthAdjust="spacingAndGlyphs" textLength="105" x="125.75" y="65.6045">separatePackage()</text><line style="stroke: #A80036; stroke-width: 1.5;" x1="33.5" x2="290.5" y1="76" y2="76"/><line style="stroke: #A80036; stroke-width: 1.5;" x1="33.5" x2="142" y1="91.5544" y2="91.5544"/><text fill="#008000" font-family="sans-serif" font-size="11" font-weight="bold" lengthAdjust="spacingAndGlyphs" textLength="40" x="142" y="96.1919">has list</text><line style="stroke: #A80036; stroke-width: 1.5;" x1="182" x2="290.5" y1="91.5544" y2="91.5544"/><line style="stroke: #A80036; stroke-width: 1.0; stroke-dasharray: 1.0,2.0;" x1="33.5" x2="149" y1="114.2178" y2="114.2178"/><text fill="#000000" font-family="sans-serif" font-size="11" lengthAdjust="spacingAndGlyphs" textLength="26" x="149" y="118.8552">class</text><line style="stroke: #A80036; stroke-width: 1.0; stroke-dasharray: 1.0,2.0;" x1="175" x2="290.5" y1="114.2178" y2="114.2178"/><text fill="#000000" font-family="sans-serif" font-size="11" lengthAdjust="spacingAndGlyphs" textLength="247" x="38.5" y="157.1274">Map&lt;String, ArrayList&lt;Class&gt;&gt; map (1412195801);</text><text fill="#000000" font-family="sans-serif" font-size="11" lengthAdjust="spacingAndGlyphs" textLength="198" x="38.5" y="172.2363">ArrayList&lt;Class&gt; classList (215738773);</text><text fill="#000000" font-family="sans-serif" font-size="11" lengthAdjust="spacingAndGlyphs" textLength="118" x="38.5" y="187.3452">Class cls (2111069331);</text><text fill="#000000" font-family="sans-serif" font-size="11" lengthAdjust="spacingAndGlyphs" textLength="167" x="38.5" y="202.4541">String packageName (927690291);</text><text fill="#000000" font-family="sans-serif" font-size="11" lengthAdjust="spacingAndGlyphs" textLength="156" x="38.5" y="217.563">ArrayList&lt;Class&gt; list (8312750);</text><text fill="#000000" font-family="sans-serif" font-size="11" lengthAdjust="spacingAndGlyphs" textLength="122" x="38.5" y="232.6719">String key (1404703093);</text><line style="stroke: #A80036; stroke-width: 1.0; stroke-dasharray: 1.0,2.0;" x1="33.5" x2="143" y1="136.8811" y2="136.8811"/><text fill="#000000" font-family="sans-serif" font-size="11" lengthAdjust="spacingAndGlyphs" textLength="38" x="143" y="141.5186">member</text><line style="stroke: #A80036; stroke-width: 1.0; stroke-dasharray: 1.0,2.0;" x1="181" x2="290.5" y1="136.8811" y2="136.8811"/><line style="stroke: #A80036; stroke-width: 1.0; stroke-dasharray: 1.0,2.0;" x1="33.5" x2="144.5" y1="246.6433" y2="246.6433"/><text fill="#000000" font-family="sans-serif" font-size="11" lengthAdjust="spacingAndGlyphs" textLength="35" x="144.5" y="251.2808">method</text><line style="stroke: #A80036; stroke-width: 1.0; stroke-dasharray: 1.0,2.0;" x1="179.5" x2="290.5" y1="246.6433" y2="246.6433"/><line style="stroke: #A80036; stroke-width: 1.5;" x1="33.5" x2="134.5" y1="269.3066" y2="269.3066"/><text fill="#0000FF" font-family="sans-serif" font-size="11" font-weight="bold" lengthAdjust="spacingAndGlyphs" textLength="55" x="134.5" y="273.9441">calling list</text><line style="stroke: #A80036; stroke-width: 1.5;" x1="189.5" x2="290.5" y1="269.3066" y2="269.3066"/><text fill="#000000" font-family="sans-serif" font-size="11" lengthAdjust="spacingAndGlyphs" textLength="119" x="38.5" y="312.2163">ArrayList (2041386868);</text><line style="stroke: #A80036; stroke-width: 1.0; stroke-dasharray: 1.0,2.0;" x1="33.5" x2="149" y1="291.97" y2="291.97"/><text fill="#000000" font-family="sans-serif" font-size="11" lengthAdjust="spacingAndGlyphs" textLength="26" x="149" y="296.6074">class</text><line style="stroke: #A80036; stroke-width: 1.0; stroke-dasharray: 1.0,2.0;" x1="175" x2="290.5" y1="291.97" y2="291.97"/><line style="stroke: #A80036; stroke-width: 1.0; stroke-dasharray: 1.0,2.0;" x1="33.5" x2="143" y1="326.1877" y2="326.1877"/><text fill="#000000" font-family="sans-serif" font-size="11" lengthAdjust="spacingAndGlyphs" textLength="38" x="143" y="330.8252">member</text><line style="stroke: #A80036; stroke-width: 1.0; stroke-dasharray: 1.0,2.0;" x1="181" x2="290.5" y1="326.1877" y2="326.1877"/><text fill="#000000" font-family="sans-serif" font-size="11" lengthAdjust="spacingAndGlyphs" textLength="119" x="38.5" y="369.0974">null add(E) (105856166);</text><line style="stroke: #A80036; stroke-width: 1.0; stroke-dasharray: 1.0,2.0;" x1="33.5" x2="144.5" y1="348.8511" y2="348.8511"/><text fill="#000000" font-family="sans-serif" font-size="11" lengthAdjust="spacingAndGlyphs" textLength="35" x="144.5" y="353.4885">method</text><line style="stroke: #A80036; stroke-width: 1.0; stroke-dasharray: 1.0,2.0;" x1="179.5" x2="290.5" y1="348.8511" y2="348.8511"/><line style="stroke: #A80036; stroke-width: 1.5;" x1="33.5" x2="128" y1="383.0688" y2="383.0688"/><text fill="#FFA500" font-family="sans-serif" font-size="11" font-weight="bold" lengthAdjust="spacingAndGlyphs" textLength="68" x="128" y="387.7063">called by list</text><line style="stroke: #A80036; stroke-width: 1.5;" x1="196" x2="290.5" y1="383.0688" y2="383.0688"/><text fill="#000000" font-family="sans-serif" font-size="11" lengthAdjust="spacingAndGlyphs" textLength="118" x="38.5" y="425.9785">ForMidEx (1089579669);</text><line style="stroke: #A80036; stroke-width: 1.0; stroke-dasharray: 1.0,2.0;" x1="33.5" x2="149" y1="405.7322" y2="405.7322"/><text fill="#000000" font-family="sans-serif" font-size="11" lengthAdjust="spacingAndGlyphs" textLength="26" x="149" y="410.3696">class</text><line style="stroke: #A80036; stroke-width: 1.0; stroke-dasharray: 1.0,2.0;" x1="175" x2="290.5" y1="405.7322" y2="405.7322"/><line style="stroke: #A80036; stroke-width: 1.0; stroke-dasharray: 1.0,2.0;" x1="33.5" x2="143" y1="439.95" y2="439.95"/><text fill="#000000" font-family="sans-serif" font-size="11" lengthAdjust="spacingAndGlyphs" textLength="38" x="143" y="444.5874">member</text><line style="stroke: #A80036; stroke-width: 1.0; stroke-dasharray: 1.0,2.0;" x1="181" x2="290.5" y1="439.95" y2="439.95"/><text fill="#000000" font-family="sans-serif" font-size="11" lengthAdjust="spacingAndGlyphs" textLength="206" x="38.5" y="482.8596">void main(dataSet.DataList) (1662549347);</text><line style="stroke: #A80036; stroke-width: 1.0; stroke-dasharray: 1.0,2.0;" x1="33.5" x2="144.5" y1="462.6133" y2="462.6133"/><text fill="#000000" font-family="sans-serif" font-size="11" lengthAdjust="spacingAndGlyphs" textLength="35" x="144.5" y="467.2507">method</text><line style="stroke: #A80036; stroke-width: 1.0; stroke-dasharray: 1.0,2.0;" x1="179.5" x2="290.5" y1="462.6133" y2="462.6133"/><!--MD5=[1848e2fe920bb884fe6b4d6b50b7d875]
@startuml
class dataSet.DataList.separatePackage(){
__**<color:green>has list</color>**__
..class..
..member..
	Map<String, ArrayList<Class>> map (1412195801);
	ArrayList<Class> classList (215738773);
	Class cls (2111069331);
	String packageName (927690291);
	ArrayList<Class> list (8312750);
	String key (1404703093);
..method..
__**<color:blue>calling list</color>**__
..class..
	ArrayList (2041386868);
..member..
..method..
	null add(E) (105856166);
__**<color:orange>called by list</color>**__
..class..
	ForMidEx (1089579669);
..member..
..method..
	void main(dataSet.DataList) (1662549347);
}

@enduml

PlantUML version 1.2020.19(Tue Oct 13 00:10:01 KST 2020)
(APACHE source distribution)
Java Runtime: Java(TM) SE Runtime Environment
JVM: Java HotSpot(TM) 64-Bit Server VM
Default Encoding: MS949
Language: ko
Country: KR
--></g></svg>