<?xml version="1.0" encoding="UTF-8" standalone="no"?><svg xmlns="http://www.w3.org/2000/svg" xmlns:xlink="http://www.w3.org/1999/xlink" contentScriptType="application/ecmascript" contentStyleType="text/css" height="402px" preserveAspectRatio="none" style="width:243px;height:402px;" version="1.1" viewBox="0 0 243 402" width="243px" zoomAndPan="magnify"><defs><filter height="300%" id="f1hjs8d1tcawjl" width="300%" x="-1" y="-1"><feGaussianBlur result="blurOut" stdDeviation="2.0"/><feColorMatrix in="blurOut" result="blurOut2" type="matrix" values="0 0 0 0 0 0 0 0 0 0 0 0 0 0 0 0 0 0 .4 0"/><feOffset dx="4.0" dy="4.0" in="blurOut2" result="blurOut3"/><feBlend in="SourceGraphic" in2="blurOut3" mode="normal"/></filter></defs><g><!--MD5=[ae1c114076ab3c7d0d16779bc5369945]
cluster dataSet.Class--><polygon fill="#FFFFFF" filter="url(#f1hjs8d1tcawjl)" points="16,6,117,6,124,31.2295,226,31.2295,226,395,16,395,16,6" style="stroke: #000000; stroke-width: 1.5;"/><line style="stroke: #000000; stroke-width: 1.5;" x1="16" x2="124" y1="31.2295" y2="31.2295"/><text fill="#000000" font-family="sans-serif" font-size="14" font-weight="bold" lengthAdjust="spacingAndGlyphs" textLength="95" x="20" y="24.1533">dataSet.Class</text><!--MD5=[9d282dd37838922d1435d4e7fea51cc2]
class dataSet.Class.setInterface(boolean)--><rect codeLine="1" fill="#FEFECE" filter="url(#f1hjs8d1tcawjl)" height="335.0688" id="dataSet.Class.setInterface(boolean)" style="stroke: #A80036; stroke-width: 1.5;" width="178" x="32" y="44"/><ellipse cx="60.05" cy="60" fill="#ADD1B2" rx="11" ry="11" style="stroke: #A80036; stroke-width: 1.0;"/><path d="M59.8781,53.4844 Q58.0031,53.4844 56.8469,55.2344 Q55.6594,57.0156 55.6594,60.0156 Q55.6594,63.3906 56.8625,65.1563 Q57.925,66.7813 59.675,66.7813 Q61.3625,66.7813 62.3156,65.875 Q63.3781,64.8594 63.5188,62.625 Q63.5188,62.2031 63.2844,61.9688 Q63.0969,61.7344 62.7531,61.7031 Q62.425,61.7031 62.1906,61.8906 Q61.925,62.125 61.925,62.5156 Q61.8938,63.9063 61.3,64.6406 Q60.7688,65.3438 59.8156,65.3438 Q58.6594,65.3438 57.9406,63.9063 Q57.2219,62.4063 57.2219,59.9844 Q57.2219,57.4375 58.1125,56.0469 Q58.8625,54.9219 60.0031,54.9219 Q60.6594,54.9219 61.1594,55.4688 Q61.7219,56.0781 61.8469,57.1406 Q61.8938,57.8438 62.7219,57.7344 Q63.5031,57.625 63.4563,56.9375 Q63.2688,55.4219 62.5031,54.5469 Q61.5656,53.4844 59.8781,53.4844 Z "/><text fill="#000000" font-family="sans-serif" font-size="12" lengthAdjust="spacingAndGlyphs" textLength="117" x="76.95" y="65.6045">setInterface(boolean)</text><line style="stroke: #A80036; stroke-width: 1.5;" x1="33" x2="209" y1="76" y2="76"/><line style="stroke: #A80036; stroke-width: 1.5;" x1="33" x2="101" y1="91.5544" y2="91.5544"/><text fill="#008000" font-family="sans-serif" font-size="11" font-weight="bold" lengthAdjust="spacingAndGlyphs" textLength="40" x="101" y="96.1919">has list</text><line style="stroke: #A80036; stroke-width: 1.5;" x1="141" x2="209" y1="91.5544" y2="91.5544"/><line style="stroke: #A80036; stroke-width: 1.0; stroke-dasharray: 1.0,2.0;" x1="33" x2="108" y1="114.2178" y2="114.2178"/><text fill="#000000" font-family="sans-serif" font-size="11" lengthAdjust="spacingAndGlyphs" textLength="26" x="108" y="118.8552">class</text><line style="stroke: #A80036; stroke-width: 1.0; stroke-dasharray: 1.0,2.0;" x1="134" x2="209" y1="114.2178" y2="114.2178"/><text fill="#000000" font-family="sans-serif" font-size="11" lengthAdjust="spacingAndGlyphs" textLength="160" x="38" y="157.1274">boolean isInterface (850683953);</text><line style="stroke: #A80036; stroke-width: 1.0; stroke-dasharray: 1.0,2.0;" x1="33" x2="102" y1="136.8811" y2="136.8811"/><text fill="#000000" font-family="sans-serif" font-size="11" lengthAdjust="spacingAndGlyphs" textLength="38" x="102" y="141.5186">member</text><line style="stroke: #A80036; stroke-width: 1.0; stroke-dasharray: 1.0,2.0;" x1="140" x2="209" y1="136.8811" y2="136.8811"/><line style="stroke: #A80036; stroke-width: 1.0; stroke-dasharray: 1.0,2.0;" x1="33" x2="103.5" y1="171.0989" y2="171.0989"/><text fill="#000000" font-family="sans-serif" font-size="11" lengthAdjust="spacingAndGlyphs" textLength="35" x="103.5" y="175.7363">method</text><line style="stroke: #A80036; stroke-width: 1.0; stroke-dasharray: 1.0,2.0;" x1="138.5" x2="209" y1="171.0989" y2="171.0989"/><line style="stroke: #A80036; stroke-width: 1.5;" x1="33" x2="93.5" y1="193.7622" y2="193.7622"/><text fill="#0000FF" font-family="sans-serif" font-size="11" font-weight="bold" lengthAdjust="spacingAndGlyphs" textLength="55" x="93.5" y="198.3997">calling list</text><line style="stroke: #A80036; stroke-width: 1.5;" x1="148.5" x2="209" y1="193.7622" y2="193.7622"/><line style="stroke: #A80036; stroke-width: 1.0; stroke-dasharray: 1.0,2.0;" x1="33" x2="108" y1="216.4255" y2="216.4255"/><text fill="#000000" font-family="sans-serif" font-size="11" lengthAdjust="spacingAndGlyphs" textLength="26" x="108" y="221.063">class</text><line style="stroke: #A80036; stroke-width: 1.0; stroke-dasharray: 1.0,2.0;" x1="134" x2="209" y1="216.4255" y2="216.4255"/><text fill="#000000" font-family="sans-serif" font-size="11" lengthAdjust="spacingAndGlyphs" textLength="166" x="38" y="259.3352">boolean isInterface (1689730570);</text><line style="stroke: #A80036; stroke-width: 1.0; stroke-dasharray: 1.0,2.0;" x1="33" x2="102" y1="239.0889" y2="239.0889"/><text fill="#000000" font-family="sans-serif" font-size="11" lengthAdjust="spacingAndGlyphs" textLength="38" x="102" y="243.7263">member</text><line style="stroke: #A80036; stroke-width: 1.0; stroke-dasharray: 1.0,2.0;" x1="140" x2="209" y1="239.0889" y2="239.0889"/><line style="stroke: #A80036; stroke-width: 1.0; stroke-dasharray: 1.0,2.0;" x1="33" x2="103.5" y1="273.3066" y2="273.3066"/><text fill="#000000" font-family="sans-serif" font-size="11" lengthAdjust="spacingAndGlyphs" textLength="35" x="103.5" y="277.9441">method</text><line style="stroke: #A80036; stroke-width: 1.0; stroke-dasharray: 1.0,2.0;" x1="138.5" x2="209" y1="273.3066" y2="273.3066"/><line style="stroke: #A80036; stroke-width: 1.5;" x1="33" x2="87" y1="295.97" y2="295.97"/><text fill="#FFA500" font-family="sans-serif" font-size="11" font-weight="bold" lengthAdjust="spacingAndGlyphs" textLength="68" x="87" y="300.6074">called by list</text><line style="stroke: #A80036; stroke-width: 1.5;" x1="155" x2="209" y1="295.97" y2="295.97"/><line style="stroke: #A80036; stroke-width: 1.0; stroke-dasharray: 1.0,2.0;" x1="33" x2="108" y1="318.6333" y2="318.6333"/><text fill="#000000" font-family="sans-serif" font-size="11" lengthAdjust="spacingAndGlyphs" textLength="26" x="108" y="323.2708">class</text><line style="stroke: #A80036; stroke-width: 1.0; stroke-dasharray: 1.0,2.0;" x1="134" x2="209" y1="318.6333" y2="318.6333"/><line style="stroke: #A80036; stroke-width: 1.0; stroke-dasharray: 1.0,2.0;" x1="33" x2="102" y1="341.2966" y2="341.2966"/><text fill="#000000" font-family="sans-serif" font-size="11" lengthAdjust="spacingAndGlyphs" textLength="38" x="102" y="345.9341">member</text><line style="stroke: #A80036; stroke-width: 1.0; stroke-dasharray: 1.0,2.0;" x1="140" x2="209" y1="341.2966" y2="341.2966"/><line style="stroke: #A80036; stroke-width: 1.0; stroke-dasharray: 1.0,2.0;" x1="33" x2="103.5" y1="363.96" y2="363.96"/><text fill="#000000" font-family="sans-serif" font-size="11" lengthAdjust="spacingAndGlyphs" textLength="35" x="103.5" y="368.5974">method</text><line style="stroke: #A80036; stroke-width: 1.0; stroke-dasharray: 1.0,2.0;" x1="138.5" x2="209" y1="363.96" y2="363.96"/><!--MD5=[4c3f1aee9ce842ba56fb89425fb4af46]
@startuml
class dataSet.Class.setInterface(boolean){
__**<color:green>has list</color>**__
..class..
..member..
	boolean isInterface (850683953);
..method..
__**<color:blue>calling list</color>**__
..class..
..member..
	boolean isInterface (1689730570);
..method..
__**<color:orange>called by list</color>**__
..class..
..member..
..method..
}

@enduml

PlantUML version 1.2020.19(Tue Oct 13 00:10:01 KST 2020)
(APACHE source distribution)
Java Runtime: Java(TM) SE Runtime Environment
JVM: Java HotSpot(TM) 64-Bit Server VM
Default Encoding: MS949
Language: ko
Country: KR
--></g></svg>