<?xml version="1.0" encoding="UTF-8" standalone="no"?><svg xmlns="http://www.w3.org/2000/svg" xmlns:xlink="http://www.w3.org/1999/xlink" contentScriptType="application/ecmascript" contentStyleType="text/css" height="391px" preserveAspectRatio="none" style="width:284px;height:391px;" version="1.1" viewBox="0 0 284 391" width="284px" zoomAndPan="magnify"><defs><filter height="300%" id="f507y6d8y2tvf" width="300%" x="-1" y="-1"><feGaussianBlur result="blurOut" stdDeviation="2.0"/><feColorMatrix in="blurOut" result="blurOut2" type="matrix" values="0 0 0 0 0 0 0 0 0 0 0 0 0 0 0 0 0 0 .4 0"/><feOffset dx="4.0" dy="4.0" in="blurOut2" result="blurOut3"/><feBlend in="SourceGraphic" in2="blurOut3" mode="normal"/></filter></defs><g><!--MD5=[8cacd980a1a8ceb7cc6334dccd4638f8]
cluster dataSet.Data_base.main(java.lang--><polygon fill="#FFFFFF" filter="url(#f507y6d8y2tvf)" points="16,6,257,6,264,31.2295,267,31.2295,267,384,16,384,16,6" style="stroke: #000000; stroke-width: 1.5;"/><line style="stroke: #000000; stroke-width: 1.5;" x1="16" x2="264" y1="31.2295" y2="31.2295"/><text fill="#000000" font-family="sans-serif" font-size="14" font-weight="bold" lengthAdjust="spacingAndGlyphs" textLength="235" x="20" y="24.1533">dataSet.Data_base.main(java.lang</text><!--MD5=[a46796b4a54b24d0372ac5189e4a1fcb]
class dataSet.Data_base.main(java.lang.String[])--><rect codeLine="1" fill="#FEFECE" filter="url(#f507y6d8y2tvf)" height="323.5144" id="dataSet.Data_base.main(java.lang.String[])" style="stroke: #A80036; stroke-width: 1.5;" width="139" x="71.5" y="44"/><ellipse cx="115.75" cy="60" fill="#ADD1B2" rx="11" ry="11" style="stroke: #A80036; stroke-width: 1.0;"/><path d="M115.5781,53.4844 Q113.7031,53.4844 112.5469,55.2344 Q111.3594,57.0156 111.3594,60.0156 Q111.3594,63.3906 112.5625,65.1563 Q113.625,66.7813 115.375,66.7813 Q117.0625,66.7813 118.0156,65.875 Q119.0781,64.8594 119.2188,62.625 Q119.2188,62.2031 118.9844,61.9688 Q118.7969,61.7344 118.4531,61.7031 Q118.125,61.7031 117.8906,61.8906 Q117.625,62.125 117.625,62.5156 Q117.5938,63.9063 117,64.6406 Q116.4688,65.3438 115.5156,65.3438 Q114.3594,65.3438 113.6406,63.9063 Q112.9219,62.4063 112.9219,59.9844 Q112.9219,57.4375 113.8125,56.0469 Q114.5625,54.9219 115.7031,54.9219 Q116.3594,54.9219 116.8594,55.4688 Q117.4219,56.0781 117.5469,57.1406 Q117.5938,57.8438 118.4219,57.7344 Q119.2031,57.625 119.1563,56.9375 Q118.9688,55.4219 118.2031,54.5469 Q117.2656,53.4844 115.5781,53.4844 Z "/><text fill="#000000" font-family="sans-serif" font-size="12" lengthAdjust="spacingAndGlyphs" textLength="42" x="136.25" y="65.6045">String[])</text><line style="stroke: #A80036; stroke-width: 1.5;" x1="72.5" x2="209.5" y1="76" y2="76"/><line style="stroke: #A80036; stroke-width: 1.5;" x1="72.5" x2="121" y1="91.5544" y2="91.5544"/><text fill="#008000" font-family="sans-serif" font-size="11" font-weight="bold" lengthAdjust="spacingAndGlyphs" textLength="40" x="121" y="96.1919">has list</text><line style="stroke: #A80036; stroke-width: 1.5;" x1="161" x2="209.5" y1="91.5544" y2="91.5544"/><line style="stroke: #A80036; stroke-width: 1.0; stroke-dasharray: 1.0,2.0;" x1="72.5" x2="128" y1="114.2178" y2="114.2178"/><text fill="#000000" font-family="sans-serif" font-size="11" lengthAdjust="spacingAndGlyphs" textLength="26" x="128" y="118.8552">class</text><line style="stroke: #A80036; stroke-width: 1.0; stroke-dasharray: 1.0,2.0;" x1="154" x2="209.5" y1="114.2178" y2="114.2178"/><text fill="#000000" font-family="sans-serif" font-size="11" lengthAdjust="spacingAndGlyphs" textLength="127" x="77.5" y="157.1274">String[] args (914930347);</text><line style="stroke: #A80036; stroke-width: 1.0; stroke-dasharray: 1.0,2.0;" x1="72.5" x2="122" y1="136.8811" y2="136.8811"/><text fill="#000000" font-family="sans-serif" font-size="11" lengthAdjust="spacingAndGlyphs" textLength="38" x="122" y="141.5186">member</text><line style="stroke: #A80036; stroke-width: 1.0; stroke-dasharray: 1.0,2.0;" x1="160" x2="209.5" y1="136.8811" y2="136.8811"/><line style="stroke: #A80036; stroke-width: 1.0; stroke-dasharray: 1.0,2.0;" x1="72.5" x2="123.5" y1="171.0989" y2="171.0989"/><text fill="#000000" font-family="sans-serif" font-size="11" lengthAdjust="spacingAndGlyphs" textLength="35" x="123.5" y="175.7363">method</text><line style="stroke: #A80036; stroke-width: 1.0; stroke-dasharray: 1.0,2.0;" x1="158.5" x2="209.5" y1="171.0989" y2="171.0989"/><line style="stroke: #A80036; stroke-width: 1.5;" x1="72.5" x2="113.5" y1="193.7622" y2="193.7622"/><text fill="#0000FF" font-family="sans-serif" font-size="11" font-weight="bold" lengthAdjust="spacingAndGlyphs" textLength="55" x="113.5" y="198.3997">calling list</text><line style="stroke: #A80036; stroke-width: 1.5;" x1="168.5" x2="209.5" y1="193.7622" y2="193.7622"/><line style="stroke: #A80036; stroke-width: 1.0; stroke-dasharray: 1.0,2.0;" x1="72.5" x2="128" y1="216.4255" y2="216.4255"/><text fill="#000000" font-family="sans-serif" font-size="11" lengthAdjust="spacingAndGlyphs" textLength="26" x="128" y="221.063">class</text><line style="stroke: #A80036; stroke-width: 1.0; stroke-dasharray: 1.0,2.0;" x1="154" x2="209.5" y1="216.4255" y2="216.4255"/><line style="stroke: #A80036; stroke-width: 1.0; stroke-dasharray: 1.0,2.0;" x1="72.5" x2="122" y1="239.0889" y2="239.0889"/><text fill="#000000" font-family="sans-serif" font-size="11" lengthAdjust="spacingAndGlyphs" textLength="38" x="122" y="243.7263">member</text><line style="stroke: #A80036; stroke-width: 1.0; stroke-dasharray: 1.0,2.0;" x1="160" x2="209.5" y1="239.0889" y2="239.0889"/><line style="stroke: #A80036; stroke-width: 1.0; stroke-dasharray: 1.0,2.0;" x1="72.5" x2="123.5" y1="261.7522" y2="261.7522"/><text fill="#000000" font-family="sans-serif" font-size="11" lengthAdjust="spacingAndGlyphs" textLength="35" x="123.5" y="266.3896">method</text><line style="stroke: #A80036; stroke-width: 1.0; stroke-dasharray: 1.0,2.0;" x1="158.5" x2="209.5" y1="261.7522" y2="261.7522"/><line style="stroke: #A80036; stroke-width: 1.5;" x1="72.5" x2="107" y1="284.4155" y2="284.4155"/><text fill="#FFA500" font-family="sans-serif" font-size="11" font-weight="bold" lengthAdjust="spacingAndGlyphs" textLength="68" x="107" y="289.053">called by list</text><line style="stroke: #A80036; stroke-width: 1.5;" x1="175" x2="209.5" y1="284.4155" y2="284.4155"/><line style="stroke: #A80036; stroke-width: 1.0; stroke-dasharray: 1.0,2.0;" x1="72.5" x2="128" y1="307.0789" y2="307.0789"/><text fill="#000000" font-family="sans-serif" font-size="11" lengthAdjust="spacingAndGlyphs" textLength="26" x="128" y="311.7163">class</text><line style="stroke: #A80036; stroke-width: 1.0; stroke-dasharray: 1.0,2.0;" x1="154" x2="209.5" y1="307.0789" y2="307.0789"/><line style="stroke: #A80036; stroke-width: 1.0; stroke-dasharray: 1.0,2.0;" x1="72.5" x2="122" y1="329.7422" y2="329.7422"/><text fill="#000000" font-family="sans-serif" font-size="11" lengthAdjust="spacingAndGlyphs" textLength="38" x="122" y="334.3796">member</text><line style="stroke: #A80036; stroke-width: 1.0; stroke-dasharray: 1.0,2.0;" x1="160" x2="209.5" y1="329.7422" y2="329.7422"/><line style="stroke: #A80036; stroke-width: 1.0; stroke-dasharray: 1.0,2.0;" x1="72.5" x2="123.5" y1="352.4055" y2="352.4055"/><text fill="#000000" font-family="sans-serif" font-size="11" lengthAdjust="spacingAndGlyphs" textLength="35" x="123.5" y="357.043">method</text><line style="stroke: #A80036; stroke-width: 1.0; stroke-dasharray: 1.0,2.0;" x1="158.5" x2="209.5" y1="352.4055" y2="352.4055"/><!--MD5=[351136f5ae335b4b9cfa14484d74d31d]
@startuml
class dataSet.Data_base.main(java.lang.String[]){
__**<color:green>has list</color>**__
..class..
..member..
	String[] args (914930347);
..method..
__**<color:blue>calling list</color>**__
..class..
..member..
..method..
__**<color:orange>called by list</color>**__
..class..
..member..
..method..
}

@enduml

PlantUML version 1.2020.19(Tue Oct 13 00:10:01 KST 2020)
(APACHE source distribution)
Java Runtime: Java(TM) SE Runtime Environment
JVM: Java HotSpot(TM) 64-Bit Server VM
Default Encoding: MS949
Language: ko
Country: KR
--></g></svg>