<?xml version="1.0" encoding="UTF-8" standalone="no"?><svg xmlns="http://www.w3.org/2000/svg" xmlns:xlink="http://www.w3.org/1999/xlink" contentScriptType="application/ecmascript" contentStyleType="text/css" height="391px" preserveAspectRatio="none" style="width:267px;height:391px;" version="1.1" viewBox="0 0 267 391" width="267px" zoomAndPan="magnify"><defs><filter height="300%" id="f6mr5p42uyi8t" width="300%" x="-1" y="-1"><feGaussianBlur result="blurOut" stdDeviation="2.0"/><feColorMatrix in="blurOut" result="blurOut2" type="matrix" values="0 0 0 0 0 0 0 0 0 0 0 0 0 0 0 0 0 0 .4 0"/><feOffset dx="4.0" dy="4.0" in="blurOut2" result="blurOut3"/><feBlend in="SourceGraphic" in2="blurOut3" mode="normal"/></filter></defs><g><!--MD5=[bf8f241abf082e17fae0567d450abfa3]
cluster dataSet.DataList.main(java.lang--><polygon fill="#FFFFFF" filter="url(#f6mr5p42uyi8t)" points="16,6,240,6,247,31.2295,250,31.2295,250,384,16,384,16,6" style="stroke: #000000; stroke-width: 1.5;"/><line style="stroke: #000000; stroke-width: 1.5;" x1="16" x2="247" y1="31.2295" y2="31.2295"/><text fill="#000000" font-family="sans-serif" font-size="14" font-weight="bold" lengthAdjust="spacingAndGlyphs" textLength="218" x="20" y="24.1533">dataSet.DataList.main(java.lang</text><!--MD5=[a10b9d4725d61fd0861347c41637e256]
class dataSet.DataList.main(java.lang.String[])--><rect codeLine="1" fill="#FEFECE" filter="url(#f6mr5p42uyi8t)" height="323.5144" id="dataSet.DataList.main(java.lang.String[])" style="stroke: #A80036; stroke-width: 1.5;" width="135" x="65.5" y="44"/><ellipse cx="107.95" cy="60" fill="#ADD1B2" rx="11" ry="11" style="stroke: #A80036; stroke-width: 1.0;"/><path d="M107.7781,53.4844 Q105.9031,53.4844 104.7469,55.2344 Q103.5594,57.0156 103.5594,60.0156 Q103.5594,63.3906 104.7625,65.1563 Q105.825,66.7813 107.575,66.7813 Q109.2625,66.7813 110.2156,65.875 Q111.2781,64.8594 111.4188,62.625 Q111.4188,62.2031 111.1844,61.9688 Q110.9969,61.7344 110.6531,61.7031 Q110.325,61.7031 110.0906,61.8906 Q109.825,62.125 109.825,62.5156 Q109.7938,63.9063 109.2,64.6406 Q108.6688,65.3438 107.7156,65.3438 Q106.5594,65.3438 105.8406,63.9063 Q105.1219,62.4063 105.1219,59.9844 Q105.1219,57.4375 106.0125,56.0469 Q106.7625,54.9219 107.9031,54.9219 Q108.5594,54.9219 109.0594,55.4688 Q109.6219,56.0781 109.7469,57.1406 Q109.7938,57.8438 110.6219,57.7344 Q111.4031,57.625 111.3563,56.9375 Q111.1688,55.4219 110.4031,54.5469 Q109.4656,53.4844 107.7781,53.4844 Z "/><text fill="#000000" font-family="sans-serif" font-size="12" lengthAdjust="spacingAndGlyphs" textLength="42" x="128.05" y="65.6045">String[])</text><line style="stroke: #A80036; stroke-width: 1.5;" x1="66.5" x2="199.5" y1="76" y2="76"/><line style="stroke: #A80036; stroke-width: 1.5;" x1="66.5" x2="113" y1="91.5544" y2="91.5544"/><text fill="#008000" font-family="sans-serif" font-size="11" font-weight="bold" lengthAdjust="spacingAndGlyphs" textLength="40" x="113" y="96.1919">has list</text><line style="stroke: #A80036; stroke-width: 1.5;" x1="153" x2="199.5" y1="91.5544" y2="91.5544"/><line style="stroke: #A80036; stroke-width: 1.0; stroke-dasharray: 1.0,2.0;" x1="66.5" x2="120" y1="114.2178" y2="114.2178"/><text fill="#000000" font-family="sans-serif" font-size="11" lengthAdjust="spacingAndGlyphs" textLength="26" x="120" y="118.8552">class</text><line style="stroke: #A80036; stroke-width: 1.0; stroke-dasharray: 1.0,2.0;" x1="146" x2="199.5" y1="114.2178" y2="114.2178"/><text fill="#000000" font-family="sans-serif" font-size="11" lengthAdjust="spacingAndGlyphs" textLength="123" x="71.5" y="157.1274">String[] test (215351125);</text><line style="stroke: #A80036; stroke-width: 1.0; stroke-dasharray: 1.0,2.0;" x1="66.5" x2="114" y1="136.8811" y2="136.8811"/><text fill="#000000" font-family="sans-serif" font-size="11" lengthAdjust="spacingAndGlyphs" textLength="38" x="114" y="141.5186">member</text><line style="stroke: #A80036; stroke-width: 1.0; stroke-dasharray: 1.0,2.0;" x1="152" x2="199.5" y1="136.8811" y2="136.8811"/><line style="stroke: #A80036; stroke-width: 1.0; stroke-dasharray: 1.0,2.0;" x1="66.5" x2="115.5" y1="171.0989" y2="171.0989"/><text fill="#000000" font-family="sans-serif" font-size="11" lengthAdjust="spacingAndGlyphs" textLength="35" x="115.5" y="175.7363">method</text><line style="stroke: #A80036; stroke-width: 1.0; stroke-dasharray: 1.0,2.0;" x1="150.5" x2="199.5" y1="171.0989" y2="171.0989"/><line style="stroke: #A80036; stroke-width: 1.5;" x1="66.5" x2="105.5" y1="193.7622" y2="193.7622"/><text fill="#0000FF" font-family="sans-serif" font-size="11" font-weight="bold" lengthAdjust="spacingAndGlyphs" textLength="55" x="105.5" y="198.3997">calling list</text><line style="stroke: #A80036; stroke-width: 1.5;" x1="160.5" x2="199.5" y1="193.7622" y2="193.7622"/><line style="stroke: #A80036; stroke-width: 1.0; stroke-dasharray: 1.0,2.0;" x1="66.5" x2="120" y1="216.4255" y2="216.4255"/><text fill="#000000" font-family="sans-serif" font-size="11" lengthAdjust="spacingAndGlyphs" textLength="26" x="120" y="221.063">class</text><line style="stroke: #A80036; stroke-width: 1.0; stroke-dasharray: 1.0,2.0;" x1="146" x2="199.5" y1="216.4255" y2="216.4255"/><line style="stroke: #A80036; stroke-width: 1.0; stroke-dasharray: 1.0,2.0;" x1="66.5" x2="114" y1="239.0889" y2="239.0889"/><text fill="#000000" font-family="sans-serif" font-size="11" lengthAdjust="spacingAndGlyphs" textLength="38" x="114" y="243.7263">member</text><line style="stroke: #A80036; stroke-width: 1.0; stroke-dasharray: 1.0,2.0;" x1="152" x2="199.5" y1="239.0889" y2="239.0889"/><line style="stroke: #A80036; stroke-width: 1.0; stroke-dasharray: 1.0,2.0;" x1="66.5" x2="115.5" y1="261.7522" y2="261.7522"/><text fill="#000000" font-family="sans-serif" font-size="11" lengthAdjust="spacingAndGlyphs" textLength="35" x="115.5" y="266.3896">method</text><line style="stroke: #A80036; stroke-width: 1.0; stroke-dasharray: 1.0,2.0;" x1="150.5" x2="199.5" y1="261.7522" y2="261.7522"/><line style="stroke: #A80036; stroke-width: 1.5;" x1="66.5" x2="99" y1="284.4155" y2="284.4155"/><text fill="#FFA500" font-family="sans-serif" font-size="11" font-weight="bold" lengthAdjust="spacingAndGlyphs" textLength="68" x="99" y="289.053">called by list</text><line style="stroke: #A80036; stroke-width: 1.5;" x1="167" x2="199.5" y1="284.4155" y2="284.4155"/><line style="stroke: #A80036; stroke-width: 1.0; stroke-dasharray: 1.0,2.0;" x1="66.5" x2="120" y1="307.0789" y2="307.0789"/><text fill="#000000" font-family="sans-serif" font-size="11" lengthAdjust="spacingAndGlyphs" textLength="26" x="120" y="311.7163">class</text><line style="stroke: #A80036; stroke-width: 1.0; stroke-dasharray: 1.0,2.0;" x1="146" x2="199.5" y1="307.0789" y2="307.0789"/><line style="stroke: #A80036; stroke-width: 1.0; stroke-dasharray: 1.0,2.0;" x1="66.5" x2="114" y1="329.7422" y2="329.7422"/><text fill="#000000" font-family="sans-serif" font-size="11" lengthAdjust="spacingAndGlyphs" textLength="38" x="114" y="334.3796">member</text><line style="stroke: #A80036; stroke-width: 1.0; stroke-dasharray: 1.0,2.0;" x1="152" x2="199.5" y1="329.7422" y2="329.7422"/><line style="stroke: #A80036; stroke-width: 1.0; stroke-dasharray: 1.0,2.0;" x1="66.5" x2="115.5" y1="352.4055" y2="352.4055"/><text fill="#000000" font-family="sans-serif" font-size="11" lengthAdjust="spacingAndGlyphs" textLength="35" x="115.5" y="357.043">method</text><line style="stroke: #A80036; stroke-width: 1.0; stroke-dasharray: 1.0,2.0;" x1="150.5" x2="199.5" y1="352.4055" y2="352.4055"/><!--MD5=[13a847e1b535f35948c97fe7cc2a0595]
@startuml
class dataSet.DataList.main(java.lang.String[]){
__**<color:green>has list</color>**__
..class..
..member..
	String[] test (215351125);
..method..
__**<color:blue>calling list</color>**__
..class..
..member..
..method..
__**<color:orange>called by list</color>**__
..class..
..member..
..method..
}

@enduml

PlantUML version 1.2020.19(Tue Oct 13 00:10:01 KST 2020)
(APACHE source distribution)
Java Runtime: Java(TM) SE Runtime Environment
JVM: Java HotSpot(TM) 64-Bit Server VM
Default Encoding: MS949
Language: ko
Country: KR
--></g></svg>