<?xml version="1.0" encoding="UTF-8" standalone="no"?><svg xmlns="http://www.w3.org/2000/svg" xmlns:xlink="http://www.w3.org/1999/xlink" contentScriptType="application/ecmascript" contentStyleType="text/css" height="353px" preserveAspectRatio="none" style="width:235px;height:353px;" version="1.1" viewBox="0 0 235 353" width="235px" zoomAndPan="magnify"><defs><filter height="300%" id="fx7xfzhqvni0l" width="300%" x="-1" y="-1"><feGaussianBlur result="blurOut" stdDeviation="2.0"/><feColorMatrix in="blurOut" result="blurOut2" type="matrix" values="0 0 0 0 0 0 0 0 0 0 0 0 0 0 0 0 0 0 .4 0"/><feOffset dx="4.0" dy="4.0" in="blurOut2" result="blurOut3"/><feBlend in="SourceGraphic" in2="blurOut3" mode="normal"/></filter></defs><g><!--MD5=[a70b0d373322012744ecc119c63f921b]
cluster main--><polygon fill="#FFFFFF" filter="url(#fx7xfzhqvni0l)" points="16,6,58,6,65,28.4883,218,28.4883,218,346,16,346,16,6" style="stroke: #000000; stroke-width: 1.5;"/><line style="stroke: #000000; stroke-width: 1.5;" x1="16" x2="65" y1="28.4883" y2="28.4883"/><text fill="#000000" font-family="sans-serif" font-size="14" font-weight="bold" lengthAdjust="spacingAndGlyphs" textLength="36" x="20" y="21.5352">main</text><!--MD5=[03fbfd2914b70574b37b3e0042d538a3]
class main.C--><rect codeLine="1" fill="#FEFECE" filter="url(#fx7xfzhqvni0l)" height="304.624" id="main.C" style="stroke: #A80036; stroke-width: 1.5;" width="185" x="24.5" y="33"/><ellipse cx="108.75" cy="49" fill="#ADD1B2" rx="11" ry="11" style="stroke: #A80036; stroke-width: 1.0;"/><path d="M111.2231,55.1431 Q110.6421,55.4419 110.0029,55.5913 Q109.3638,55.7407 108.6582,55.7407 Q106.1514,55.7407 104.8315,54.0889 Q103.5117,52.437 103.5117,49.3159 Q103.5117,46.1865 104.8315,44.5347 Q106.1514,42.8828 108.6582,42.8828 Q109.3638,42.8828 110.0112,43.0322 Q110.6587,43.1816 111.2231,43.4805 L111.2231,46.2031 Q110.5923,45.6221 109.9988,45.3523 Q109.4053,45.0825 108.7744,45.0825 Q107.4297,45.0825 106.7449,46.1492 Q106.0601,47.2158 106.0601,49.3159 Q106.0601,51.4077 106.7449,52.4744 Q107.4297,53.541 108.7744,53.541 Q109.4053,53.541 109.9988,53.2712 Q110.5923,53.0015 111.2231,52.4204 Z "/><text fill="#000000" font-family="sans-serif" font-size="12" lengthAdjust="spacingAndGlyphs" textLength="8" x="129.25" y="53.5352">C</text><line style="stroke: #A80036; stroke-width: 1.5;" x1="25.5" x2="208.5" y1="65" y2="65"/><line style="stroke: #A80036; stroke-width: 1.5;" x1="25.5" x2="96.5" y1="79.4775" y2="79.4775"/><text fill="#008000" font-family="sans-serif" font-size="11" font-weight="bold" lengthAdjust="spacingAndGlyphs" textLength="41" x="96.5" y="83.1348">has list</text><line style="stroke: #A80036; stroke-width: 1.5;" x1="137.5" x2="208.5" y1="79.4775" y2="79.4775"/><line style="stroke: #A80036; stroke-width: 1.0; stroke-dasharray: 1.0,2.0;" x1="25.5" x2="103.5" y1="98.9102" y2="98.9102"/><text fill="#000000" font-family="sans-serif" font-size="11" lengthAdjust="spacingAndGlyphs" textLength="27" x="103.5" y="102.5674">class</text><line style="stroke: #A80036; stroke-width: 1.0; stroke-dasharray: 1.0,2.0;" x1="130.5" x2="208.5" y1="98.9102" y2="98.9102"/><line style="stroke: #A80036; stroke-width: 1.0; stroke-dasharray: 1.0,2.0;" x1="25.5" x2="95" y1="118.3428" y2="118.3428"/><text fill="#000000" font-family="sans-serif" font-size="11" lengthAdjust="spacingAndGlyphs" textLength="44" x="95" y="122">member</text><line style="stroke: #A80036; stroke-width: 1.0; stroke-dasharray: 1.0,2.0;" x1="139" x2="208.5" y1="118.3428" y2="118.3428"/><text fill="#000000" font-family="sans-serif" font-size="11" lengthAdjust="spacingAndGlyphs" textLength="173" x="30.5" y="154.8877">void test(main.B) (1632413663);</text><line style="stroke: #A80036; stroke-width: 1.0; stroke-dasharray: 1.0,2.0;" x1="25.5" x2="96.5" y1="137.7754" y2="137.7754"/><text fill="#000000" font-family="sans-serif" font-size="11" lengthAdjust="spacingAndGlyphs" textLength="41" x="96.5" y="141.4326">method</text><line style="stroke: #A80036; stroke-width: 1.0; stroke-dasharray: 1.0,2.0;" x1="137.5" x2="208.5" y1="137.7754" y2="137.7754"/><line style="stroke: #A80036; stroke-width: 1.5;" x1="25.5" x2="87" y1="167.6855" y2="167.6855"/><text fill="#0000FF" font-family="sans-serif" font-size="11" font-weight="bold" lengthAdjust="spacingAndGlyphs" textLength="60" x="87" y="171.3428">calling list</text><line style="stroke: #A80036; stroke-width: 1.5;" x1="147" x2="208.5" y1="167.6855" y2="167.6855"/><text fill="#000000" font-family="sans-serif" font-size="11" lengthAdjust="spacingAndGlyphs" textLength="92" x="30.5" y="204.2305">A (2122049087);</text><line style="stroke: #A80036; stroke-width: 1.0; stroke-dasharray: 1.0,2.0;" x1="25.5" x2="103.5" y1="187.1182" y2="187.1182"/><text fill="#000000" font-family="sans-serif" font-size="11" lengthAdjust="spacingAndGlyphs" textLength="27" x="103.5" y="190.7754">class</text><line style="stroke: #A80036; stroke-width: 1.0; stroke-dasharray: 1.0,2.0;" x1="130.5" x2="208.5" y1="187.1182" y2="187.1182"/><line style="stroke: #A80036; stroke-width: 1.0; stroke-dasharray: 1.0,2.0;" x1="25.5" x2="95" y1="217.0283" y2="217.0283"/><text fill="#000000" font-family="sans-serif" font-size="11" lengthAdjust="spacingAndGlyphs" textLength="44" x="95" y="220.6855">member</text><line style="stroke: #A80036; stroke-width: 1.0; stroke-dasharray: 1.0,2.0;" x1="139" x2="208.5" y1="217.0283" y2="217.0283"/><text fill="#000000" font-family="sans-serif" font-size="11" lengthAdjust="spacingAndGlyphs" textLength="119" x="30.5" y="253.5732">int getx() (27362884);</text><line style="stroke: #A80036; stroke-width: 1.0; stroke-dasharray: 1.0,2.0;" x1="25.5" x2="96.5" y1="236.4609" y2="236.4609"/><text fill="#000000" font-family="sans-serif" font-size="11" lengthAdjust="spacingAndGlyphs" textLength="41" x="96.5" y="240.1182">method</text><line style="stroke: #A80036; stroke-width: 1.0; stroke-dasharray: 1.0,2.0;" x1="137.5" x2="208.5" y1="236.4609" y2="236.4609"/><line style="stroke: #A80036; stroke-width: 1.5;" x1="25.5" x2="81" y1="266.3711" y2="266.3711"/><text fill="#FFA500" font-family="sans-serif" font-size="11" font-weight="bold" lengthAdjust="spacingAndGlyphs" textLength="72" x="81" y="270.0283">called by list</text><line style="stroke: #A80036; stroke-width: 1.5;" x1="153" x2="208.5" y1="266.3711" y2="266.3711"/><line style="stroke: #A80036; stroke-width: 1.0; stroke-dasharray: 1.0,2.0;" x1="25.5" x2="103.5" y1="285.8037" y2="285.8037"/><text fill="#000000" font-family="sans-serif" font-size="11" lengthAdjust="spacingAndGlyphs" textLength="27" x="103.5" y="289.4609">class</text><line style="stroke: #A80036; stroke-width: 1.0; stroke-dasharray: 1.0,2.0;" x1="130.5" x2="208.5" y1="285.8037" y2="285.8037"/><line style="stroke: #A80036; stroke-width: 1.0; stroke-dasharray: 1.0,2.0;" x1="25.5" x2="95" y1="305.2363" y2="305.2363"/><text fill="#000000" font-family="sans-serif" font-size="11" lengthAdjust="spacingAndGlyphs" textLength="44" x="95" y="308.8936">member</text><line style="stroke: #A80036; stroke-width: 1.0; stroke-dasharray: 1.0,2.0;" x1="139" x2="208.5" y1="305.2363" y2="305.2363"/><line style="stroke: #A80036; stroke-width: 1.0; stroke-dasharray: 1.0,2.0;" x1="25.5" x2="96.5" y1="324.6689" y2="324.6689"/><text fill="#000000" font-family="sans-serif" font-size="11" lengthAdjust="spacingAndGlyphs" textLength="41" x="96.5" y="328.3262">method</text><line style="stroke: #A80036; stroke-width: 1.0; stroke-dasharray: 1.0,2.0;" x1="137.5" x2="208.5" y1="324.6689" y2="324.6689"/><!--MD5=[452a13846f29520f8da905d4c39c6649]
@startuml
class main.C{
__**<color:green>has list</color>**__
..class..
..member..
..method..
	void test(main.B) (1632413663);
__**<color:blue>calling list</color>**__
..class..
	A (2122049087);
..member..
..method..
	int getx() (27362884);
__**<color:orange>called by list</color>**__
..class..
..member..
..method..
}

@enduml

PlantUML version 1.2020.19(Tue Oct 13 00:10:01 KST 2020)
(APACHE source distribution)
Java Runtime: Java(TM) SE Runtime Environment
JVM: Java HotSpot(TM) 64-Bit Server VM
Default Encoding: UTF-8
Language: ko
Country: KR
--></g></svg>