<?xml version="1.0" encoding="UTF-8" standalone="no"?><svg xmlns="http://www.w3.org/2000/svg" xmlns:xlink="http://www.w3.org/1999/xlink" contentScriptType="application/ecmascript" contentStyleType="text/css" height="656px" preserveAspectRatio="none" style="width:711px;height:656px;" version="1.1" viewBox="0 0 711 656" width="711px" zoomAndPan="magnify"><defs><filter height="300%" id="fzax49iqmt8qd" width="300%" x="-1" y="-1"><feGaussianBlur result="blurOut" stdDeviation="2.0"/><feColorMatrix in="blurOut" result="blurOut2" type="matrix" values="0 0 0 0 0 0 0 0 0 0 0 0 0 0 0 0 0 0 .4 0"/><feOffset dx="4.0" dy="4.0" in="blurOut2" result="blurOut3"/><feBlend in="SourceGraphic" in2="blurOut3" mode="normal"/></filter></defs><g><rect fill="#FFFFFF" filter="url(#fzax49iqmt8qd)" height="65.7119" style="stroke: #000000; stroke-width: 2.0;" width="267.5" x="10" y="60.2295"/><rect fill="#FFFFFF" filter="url(#fzax49iqmt8qd)" height="248.1357" style="stroke: #000000; stroke-width: 2.0;" width="527.5" x="10" y="139.9414"/><rect fill="#FFFFFF" filter="url(#fzax49iqmt8qd)" height="111.5679" style="stroke: #000000; stroke-width: 2.0;" width="606.5" x="10" y="402.0771"/><rect fill="#FFFFFF" filter="url(#fzax49iqmt8qd)" height="65.7119" style="stroke: #000000; stroke-width: 2.0;" width="687.5" x="10" y="527.645"/><line style="stroke: #A80036; stroke-width: 1.0; stroke-dasharray: 5.0,5.0;" x1="56" x2="56" y1="43.2295" y2="610.3569"/><line style="stroke: #A80036; stroke-width: 1.0; stroke-dasharray: 5.0,5.0;" x1="217.5" x2="217.5" y1="43.2295" y2="610.3569"/><line style="stroke: #A80036; stroke-width: 1.0; stroke-dasharray: 5.0,5.0;" x1="313.5" x2="313.5" y1="43.2295" y2="610.3569"/><line style="stroke: #A80036; stroke-width: 1.0; stroke-dasharray: 5.0,5.0;" x1="395.5" x2="395.5" y1="43.2295" y2="610.3569"/><line style="stroke: #A80036; stroke-width: 1.0; stroke-dasharray: 5.0,5.0;" x1="483.5" x2="483.5" y1="43.2295" y2="610.3569"/><line style="stroke: #A80036; stroke-width: 1.0; stroke-dasharray: 5.0,5.0;" x1="571.5" x2="571.5" y1="43.2295" y2="610.3569"/><line style="stroke: #A80036; stroke-width: 1.0; stroke-dasharray: 5.0,5.0;" x1="651.5" x2="651.5" y1="43.2295" y2="610.3569"/><rect fill="#FEFECE" filter="url(#fzax49iqmt8qd)" height="33.2295" style="stroke: #A80036; stroke-width: 1.5;" width="68" x="20" y="5"/><text fill="#000000" font-family="sans-serif" font-size="14" lengthAdjust="spacingAndGlyphs" textLength="54" x="27" y="28.1533">Complex</text><rect fill="#FEFECE" filter="url(#fzax49iqmt8qd)" height="33.2295" style="stroke: #A80036; stroke-width: 1.5;" width="68" x="20" y="609.3569"/><text fill="#000000" font-family="sans-serif" font-size="14" lengthAdjust="spacingAndGlyphs" textLength="54" x="27" y="632.5103">Complex</text><rect fill="#FEFECE" filter="url(#fzax49iqmt8qd)" height="33.2295" style="stroke: #A80036; stroke-width: 1.5;" width="95" x="168.5" y="5"/><text fill="#000000" font-family="sans-serif" font-size="14" lengthAdjust="spacingAndGlyphs" textLength="81" x="175.5" y="28.1533">StringBuilder</text><rect fill="#FEFECE" filter="url(#fzax49iqmt8qd)" height="33.2295" style="stroke: #A80036; stroke-width: 1.5;" width="95" x="168.5" y="609.3569"/><text fill="#000000" font-family="sans-serif" font-size="14" lengthAdjust="spacingAndGlyphs" textLength="81" x="175.5" y="632.5103">StringBuilder</text><rect fill="#FEFECE" filter="url(#fzax49iqmt8qd)" height="33.2295" style="stroke: #A80036; stroke-width: 1.5;" width="69" x="277.5" y="5"/><text fill="#000000" font-family="sans-serif" font-size="14" lengthAdjust="spacingAndGlyphs" textLength="55" x="284.5" y="28.1533">Function</text><rect fill="#FEFECE" filter="url(#fzax49iqmt8qd)" height="33.2295" style="stroke: #A80036; stroke-width: 1.5;" width="69" x="277.5" y="609.3569"/><text fill="#000000" font-family="sans-serif" font-size="14" lengthAdjust="spacingAndGlyphs" textLength="55" x="284.5" y="632.5103">Function</text><rect fill="#FEFECE" filter="url(#fzax49iqmt8qd)" height="33.2295" style="stroke: #A80036; stroke-width: 1.5;" width="66" x="360.5" y="5"/><text fill="#000000" font-family="sans-serif" font-size="14" lengthAdjust="spacingAndGlyphs" textLength="52" x="367.5" y="28.1533">DataList</text><rect fill="#FEFECE" filter="url(#fzax49iqmt8qd)" height="33.2295" style="stroke: #A80036; stroke-width: 1.5;" width="66" x="360.5" y="609.3569"/><text fill="#000000" font-family="sans-serif" font-size="14" lengthAdjust="spacingAndGlyphs" textLength="52" x="367.5" y="632.5103">DataList</text><rect fill="#FEFECE" filter="url(#fzax49iqmt8qd)" height="33.2295" style="stroke: #A80036; stroke-width: 1.5;" width="83" x="440.5" y="5"/><text fill="#000000" font-family="sans-serif" font-size="14" lengthAdjust="spacingAndGlyphs" textLength="69" x="447.5" y="28.1533">Data_base</text><rect fill="#FEFECE" filter="url(#fzax49iqmt8qd)" height="33.2295" style="stroke: #A80036; stroke-width: 1.5;" width="83" x="440.5" y="609.3569"/><text fill="#000000" font-family="sans-serif" font-size="14" lengthAdjust="spacingAndGlyphs" textLength="69" x="447.5" y="632.5103">Data_base</text><rect fill="#FEFECE" filter="url(#fzax49iqmt8qd)" height="33.2295" style="stroke: #A80036; stroke-width: 1.5;" width="65" x="537.5" y="5"/><text fill="#000000" font-family="sans-serif" font-size="14" lengthAdjust="spacingAndGlyphs" textLength="51" x="544.5" y="28.1533">Member</text><rect fill="#FEFECE" filter="url(#fzax49iqmt8qd)" height="33.2295" style="stroke: #A80036; stroke-width: 1.5;" width="65" x="537.5" y="609.3569"/><text fill="#000000" font-family="sans-serif" font-size="14" lengthAdjust="spacingAndGlyphs" textLength="51" x="544.5" y="632.5103">Member</text><rect fill="#FEFECE" filter="url(#fzax49iqmt8qd)" height="33.2295" style="stroke: #A80036; stroke-width: 1.5;" width="67" x="616.5" y="5"/><text fill="#000000" font-family="sans-serif" font-size="14" lengthAdjust="spacingAndGlyphs" textLength="53" x="623.5" y="28.1533">Scanner</text><rect fill="#FEFECE" filter="url(#fzax49iqmt8qd)" height="33.2295" style="stroke: #A80036; stroke-width: 1.5;" width="67" x="616.5" y="609.3569"/><text fill="#000000" font-family="sans-serif" font-size="14" lengthAdjust="spacingAndGlyphs" textLength="53" x="623.5" y="632.5103">Scanner</text><path d="M10,60.2295 L190,60.2295 L190,69.2295 L180,79.2295 L10,79.2295 L10,60.2295 " fill="#EEEEEE" style="stroke: #000000; stroke-width: 1.0;"/><rect fill="none" height="65.7119" style="stroke: #000000; stroke-width: 2.0;" width="267.5" x="10" y="60.2295"/><text fill="#000000" font-family="sans-serif" font-size="13" font-weight="bold" lengthAdjust="spacingAndGlyphs" textLength="135" x="25" y="76.229">String getUndefSize()</text><polygon fill="#A80036" points="206,99.9414,216,103.9414,206,107.9414,210,103.9414" style="stroke: #A80036; stroke-width: 1.0;"/><line style="stroke: #A80036; stroke-width: 1.0;" x1="56" x2="212" y1="103.9414" y2="103.9414"/><text fill="#000000" font-family="sans-serif" font-size="13" lengthAdjust="spacingAndGlyphs" textLength="53" x="63" y="99.085">toString()</text><polygon fill="#A80036" points="67,113.9414,57,117.9414,67,121.9414,63,117.9414" style="stroke: #A80036; stroke-width: 1.0;"/><line style="stroke: #A80036; stroke-width: 1.0; stroke-dasharray: 2.0,2.0;" x1="61" x2="217" y1="117.9414" y2="117.9414"/><path d="M10,139.9414 L296,139.9414 L296,148.9414 L286,158.9414 L10,158.9414 L10,139.9414 " fill="#EEEEEE" style="stroke: #000000; stroke-width: 1.0;"/><rect fill="none" height="248.1357" style="stroke: #000000; stroke-width: 2.0;" width="527.5" x="10" y="139.9414"/><text fill="#000000" font-family="sans-serif" font-size="13" font-weight="bold" lengthAdjust="spacingAndGlyphs" textLength="241" x="25" y="155.9409">void addFunctionScore(dataSet.Class)</text><line style="stroke: #A80036; stroke-width: 1.0;" x1="56" x2="98" y1="183.6533" y2="183.6533"/><line style="stroke: #A80036; stroke-width: 1.0;" x1="98" x2="98" y1="183.6533" y2="196.6533"/><line style="stroke: #A80036; stroke-width: 1.0;" x1="57" x2="98" y1="196.6533" y2="196.6533"/><polygon fill="#A80036" points="67,192.6533,57,196.6533,67,200.6533,63,196.6533" style="stroke: #A80036; stroke-width: 1.0;"/><text fill="#000000" font-family="sans-serif" font-size="13" lengthAdjust="spacingAndGlyphs" textLength="50" x="63" y="178.7969">getLine()</text><polygon fill="#A80036" points="206,224.5093,216,228.5093,206,232.5093,210,228.5093" style="stroke: #A80036; stroke-width: 1.0;"/><line style="stroke: #A80036; stroke-width: 1.0;" x1="56" x2="212" y1="228.5093" y2="228.5093"/><text fill="#000000" font-family="sans-serif" font-size="13" lengthAdjust="spacingAndGlyphs" textLength="138" x="63" y="223.6528">append(java.lang.String)</text><polygon fill="#A80036" points="67,238.5093,57,242.5093,67,246.5093,63,242.5093" style="stroke: #A80036; stroke-width: 1.0;"/><line style="stroke: #A80036; stroke-width: 1.0; stroke-dasharray: 2.0,2.0;" x1="61" x2="217" y1="242.5093" y2="242.5093"/><polygon fill="#A80036" points="302,270.3652,312,274.3652,302,278.3652,306,274.3652" style="stroke: #A80036; stroke-width: 1.0;"/><line style="stroke: #A80036; stroke-width: 1.0;" x1="56" x2="308" y1="274.3652" y2="274.3652"/><text fill="#000000" font-family="sans-serif" font-size="13" lengthAdjust="spacingAndGlyphs" textLength="45" x="63" y="269.5088">getSig()</text><polygon fill="#A80036" points="67,284.3652,57,288.3652,67,292.3652,63,288.3652" style="stroke: #A80036; stroke-width: 1.0;"/><line style="stroke: #A80036; stroke-width: 1.0; stroke-dasharray: 2.0,2.0;" x1="61" x2="313" y1="288.3652" y2="288.3652"/><polygon fill="#A80036" points="383.5,316.2212,393.5,320.2212,383.5,324.2212,387.5,320.2212" style="stroke: #A80036; stroke-width: 1.0;"/><line style="stroke: #A80036; stroke-width: 1.0;" x1="56" x2="389.5" y1="320.2212" y2="320.2212"/><text fill="#000000" font-family="sans-serif" font-size="13" lengthAdjust="spacingAndGlyphs" textLength="97" x="63" y="315.3647">getFunctionList()</text><polygon fill="#A80036" points="67,330.2212,57,334.2212,67,338.2212,63,334.2212" style="stroke: #A80036; stroke-width: 1.0;"/><line style="stroke: #A80036; stroke-width: 1.0; stroke-dasharray: 2.0,2.0;" x1="61" x2="394.5" y1="334.2212" y2="334.2212"/><polygon fill="#A80036" points="472,362.0771,482,366.0771,472,370.0771,476,366.0771" style="stroke: #A80036; stroke-width: 1.0;"/><line style="stroke: #A80036; stroke-width: 1.0;" x1="56" x2="478" y1="366.0771" y2="366.0771"/><text fill="#000000" font-family="sans-serif" font-size="13" lengthAdjust="spacingAndGlyphs" textLength="70" x="63" y="361.2207">getHasList()</text><polygon fill="#A80036" points="67,376.0771,57,380.0771,67,384.0771,63,380.0771" style="stroke: #A80036; stroke-width: 1.0;"/><line style="stroke: #A80036; stroke-width: 1.0; stroke-dasharray: 2.0,2.0;" x1="61" x2="483" y1="380.0771" y2="380.0771"/><path d="M10,402.0771 L311,402.0771 L311,411.0771 L301,421.0771 L10,421.0771 L10,402.0771 " fill="#EEEEEE" style="stroke: #000000; stroke-width: 1.0;"/><rect fill="none" height="111.5679" style="stroke: #000000; stroke-width: 2.0;" width="606.5" x="10" y="402.0771"/><text fill="#000000" font-family="sans-serif" font-size="13" font-weight="bold" lengthAdjust="spacingAndGlyphs" textLength="256" x="25" y="418.0767">int getMemberScore(dataSet.Data_base)</text><polygon fill="#A80036" points="560,441.7891,570,445.7891,560,449.7891,564,445.7891" style="stroke: #A80036; stroke-width: 1.0;"/><line style="stroke: #A80036; stroke-width: 1.0;" x1="56" x2="566" y1="445.7891" y2="445.7891"/><text fill="#000000" font-family="sans-serif" font-size="13" lengthAdjust="spacingAndGlyphs" textLength="88" x="63" y="440.9326">getTypeName()</text><polygon fill="#A80036" points="67,455.7891,57,459.7891,67,463.7891,63,459.7891" style="stroke: #A80036; stroke-width: 1.0;"/><line style="stroke: #A80036; stroke-width: 1.0; stroke-dasharray: 2.0,2.0;" x1="61" x2="571" y1="459.7891" y2="459.7891"/><polygon fill="#A80036" points="206,487.645,216,491.645,206,495.645,210,491.645" style="stroke: #A80036; stroke-width: 1.0;"/><line style="stroke: #A80036; stroke-width: 1.0;" x1="56" x2="212" y1="491.645" y2="491.645"/><text fill="#000000" font-family="sans-serif" font-size="13" lengthAdjust="spacingAndGlyphs" textLength="138" x="63" y="486.7886">append(java.lang.String)</text><polygon fill="#A80036" points="67,501.645,57,505.645,67,509.645,63,505.645" style="stroke: #A80036; stroke-width: 1.0;"/><line style="stroke: #A80036; stroke-width: 1.0; stroke-dasharray: 2.0,2.0;" x1="61" x2="217" y1="505.645" y2="505.645"/><path d="M10,527.645 L279,527.645 L279,536.645 L269,546.645 L10,546.645 L10,527.645 " fill="#EEEEEE" style="stroke: #000000; stroke-width: 1.0;"/><rect fill="none" height="65.7119" style="stroke: #000000; stroke-width: 2.0;" width="687.5" x="10" y="527.645"/><text fill="#000000" font-family="sans-serif" font-size="13" font-weight="bold" lengthAdjust="spacingAndGlyphs" textLength="224" x="25" y="543.6445">void getLineNum(dataSet.Function)</text><polygon fill="#A80036" points="640,567.3569,650,571.3569,640,575.3569,644,571.3569" style="stroke: #A80036; stroke-width: 1.0;"/><line style="stroke: #A80036; stroke-width: 1.0;" x1="56" x2="646" y1="571.3569" y2="571.3569"/><text fill="#000000" font-family="sans-serif" font-size="13" lengthAdjust="spacingAndGlyphs" textLength="56" x="63" y="566.5005">hasNext()</text><polygon fill="#A80036" points="67,581.3569,57,585.3569,67,589.3569,63,585.3569" style="stroke: #A80036; stroke-width: 1.0;"/><line style="stroke: #A80036; stroke-width: 1.0; stroke-dasharray: 2.0,2.0;" x1="61" x2="651" y1="585.3569" y2="585.3569"/><!--MD5=[22b906601eabb16e8a8070ffe6993ff4]
@startuml
group String getUndefSize()
	Complex->StringBuilder : toString()
		StringBuilder- ->Complex
end

group void addFunctionScore(dataSet.Class)
	Complex->Complex : getLine()
	Complex->StringBuilder : append(java.lang.String)
		StringBuilder- ->Complex
	Complex->Function : getSig()
		Function- ->Complex
	Complex->DataList : getFunctionList()
		DataList- ->Complex
	Complex->Data_base : getHasList()
		Data_base- ->Complex
end

group int getMemberScore(dataSet.Data_base)
	Complex->Member : getTypeName()
		Member- ->Complex
	Complex->StringBuilder : append(java.lang.String)
		StringBuilder- ->Complex
end

group void getLineNum(dataSet.Function)
	Complex->Scanner : hasNext()
		Scanner- ->Complex
end

@enduml

PlantUML version 1.2020.19(Tue Oct 13 00:10:01 KST 2020)
(APACHE source distribution)
Java Runtime: Java(TM) SE Runtime Environment
JVM: Java HotSpot(TM) 64-Bit Server VM
Default Encoding: MS949
Language: ko
Country: KR
--></g></svg>