<?xml version="1.0" encoding="UTF-8" standalone="no"?><svg xmlns="http://www.w3.org/2000/svg" xmlns:xlink="http://www.w3.org/1999/xlink" contentScriptType="application/ecmascript" contentStyleType="text/css" height="452px" preserveAspectRatio="none" style="width:541px;height:452px;" version="1.1" viewBox="0 0 541 452" width="541px" zoomAndPan="magnify"><defs><filter height="300%" id="fgkgh1szjvcxm" width="300%" x="-1" y="-1"><feGaussianBlur result="blurOut" stdDeviation="2.0"/><feColorMatrix in="blurOut" result="blurOut2" type="matrix" values="0 0 0 0 0 0 0 0 0 0 0 0 0 0 0 0 0 0 .4 0"/><feOffset dx="4.0" dy="4.0" in="blurOut2" result="blurOut3"/><feBlend in="SourceGraphic" in2="blurOut3" mode="normal"/></filter></defs><g><rect fill="#FFFFFF" filter="url(#fgkgh1szjvcxm)" height="203.2798" style="stroke: #000000; stroke-width: 2.0;" width="480" x="10" y="60.2295"/><rect fill="#FFFFFF" filter="url(#fgkgh1szjvcxm)" height="111.5679" style="stroke: #000000; stroke-width: 2.0;" width="517" x="10" y="277.5093"/><line style="stroke: #A80036; stroke-width: 1.0; stroke-dasharray: 5.0,5.0;" x1="65" x2="65" y1="43.2295" y2="406.0771"/><line style="stroke: #A80036; stroke-width: 1.0; stroke-dasharray: 5.0,5.0;" x1="160" x2="160" y1="43.2295" y2="406.0771"/><line style="stroke: #A80036; stroke-width: 1.0; stroke-dasharray: 5.0,5.0;" x1="270" x2="270" y1="43.2295" y2="406.0771"/><line style="stroke: #A80036; stroke-width: 1.0; stroke-dasharray: 5.0,5.0;" x1="378" x2="378" y1="43.2295" y2="406.0771"/><line style="stroke: #A80036; stroke-width: 1.0; stroke-dasharray: 5.0,5.0;" x1="471" x2="471" y1="43.2295" y2="406.0771"/><rect fill="#FEFECE" filter="url(#fgkgh1szjvcxm)" height="33.2295" style="stroke: #A80036; stroke-width: 1.5;" width="87" x="20" y="5"/><text fill="#000000" font-family="sans-serif" font-size="14" lengthAdjust="spacingAndGlyphs" textLength="73" x="27" y="28.1533">SwitchNode</text><rect fill="#FEFECE" filter="url(#fgkgh1szjvcxm)" height="33.2295" style="stroke: #A80036; stroke-width: 1.5;" width="87" x="20" y="405.0771"/><text fill="#000000" font-family="sans-serif" font-size="14" lengthAdjust="spacingAndGlyphs" textLength="73" x="27" y="428.2305">SwitchNode</text><rect fill="#FEFECE" filter="url(#fgkgh1szjvcxm)" height="33.2295" style="stroke: #A80036; stroke-width: 1.5;" width="74" x="121" y="5"/><text fill="#000000" font-family="sans-serif" font-size="14" lengthAdjust="spacingAndGlyphs" textLength="60" x="128" y="28.1533">ASTNode</text><rect fill="#FEFECE" filter="url(#fgkgh1szjvcxm)" height="33.2295" style="stroke: #A80036; stroke-width: 1.5;" width="74" x="121" y="405.0771"/><text fill="#000000" font-family="sans-serif" font-size="14" lengthAdjust="spacingAndGlyphs" textLength="60" x="128" y="428.2305">ASTNode</text><rect fill="#FEFECE" filter="url(#fgkgh1szjvcxm)" height="33.2295" style="stroke: #A80036; stroke-width: 1.5;" width="118" x="209" y="5"/><text fill="#000000" font-family="sans-serif" font-size="14" lengthAdjust="spacingAndGlyphs" textLength="104" x="216" y="28.1533">SwitchStatement</text><rect fill="#FEFECE" filter="url(#fgkgh1szjvcxm)" height="33.2295" style="stroke: #A80036; stroke-width: 1.5;" width="118" x="209" y="405.0771"/><text fill="#000000" font-family="sans-serif" font-size="14" lengthAdjust="spacingAndGlyphs" textLength="104" x="216" y="428.2305">SwitchStatement</text><rect fill="#FEFECE" filter="url(#fgkgh1szjvcxm)" height="33.2295" style="stroke: #A80036; stroke-width: 1.5;" width="70" x="341" y="5"/><text fill="#000000" font-family="sans-serif" font-size="14" lengthAdjust="spacingAndGlyphs" textLength="56" x="348" y="28.1533">ArrayList</text><rect fill="#FEFECE" filter="url(#fgkgh1szjvcxm)" height="33.2295" style="stroke: #A80036; stroke-width: 1.5;" width="70" x="341" y="405.0771"/><text fill="#000000" font-family="sans-serif" font-size="14" lengthAdjust="spacingAndGlyphs" textLength="56" x="348" y="428.2305">ArrayList</text><rect fill="#FEFECE" filter="url(#fgkgh1szjvcxm)" height="33.2295" style="stroke: #A80036; stroke-width: 1.5;" width="88" x="425" y="5"/><text fill="#000000" font-family="sans-serif" font-size="14" lengthAdjust="spacingAndGlyphs" textLength="74" x="432" y="28.1533">PrintStream</text><rect fill="#FEFECE" filter="url(#fgkgh1szjvcxm)" height="33.2295" style="stroke: #A80036; stroke-width: 1.5;" width="88" x="425" y="405.0771"/><text fill="#000000" font-family="sans-serif" font-size="14" lengthAdjust="spacingAndGlyphs" textLength="74" x="432" y="428.2305">PrintStream</text><path d="M10,60.2295 L485,60.2295 L485,69.2295 L475,79.2295 L10,79.2295 L10,60.2295 " fill="#EEEEEE" style="stroke: #000000; stroke-width: 1.0;"/><rect fill="none" height="203.2798" style="stroke: #000000; stroke-width: 2.0;" width="480" x="10" y="60.2295"/><text fill="#000000" font-family="sans-serif" font-size="13" font-weight="bold" lengthAdjust="spacingAndGlyphs" textLength="430" x="25" y="76.229">SwitchNode SwitchNode(org.eclipse.jdt.core.dom.SwitchStatement)</text><polygon fill="#A80036" points="148,99.9414,158,103.9414,148,107.9414,152,103.9414" style="stroke: #A80036; stroke-width: 1.0;"/><line style="stroke: #A80036; stroke-width: 1.0;" x1="65.5" x2="154" y1="103.9414" y2="103.9414"/><text fill="#000000" font-family="sans-serif" font-size="13" lengthAdjust="spacingAndGlyphs" textLength="53" x="72.5" y="99.085">toString()</text><polygon fill="#A80036" points="76.5,113.9414,66.5,117.9414,76.5,121.9414,72.5,117.9414" style="stroke: #A80036; stroke-width: 1.0;"/><line style="stroke: #A80036; stroke-width: 1.0; stroke-dasharray: 2.0,2.0;" x1="70.5" x2="159" y1="117.9414" y2="117.9414"/><polygon fill="#A80036" points="258,145.7974,268,149.7974,258,153.7974,262,149.7974" style="stroke: #A80036; stroke-width: 1.0;"/><line style="stroke: #A80036; stroke-width: 1.0;" x1="65.5" x2="264" y1="149.7974" y2="149.7974"/><text fill="#000000" font-family="sans-serif" font-size="13" lengthAdjust="spacingAndGlyphs" textLength="91" x="72.5" y="144.9409">getExpression()</text><polygon fill="#A80036" points="76.5,159.7974,66.5,163.7974,76.5,167.7974,72.5,163.7974" style="stroke: #A80036; stroke-width: 1.0;"/><line style="stroke: #A80036; stroke-width: 1.0; stroke-dasharray: 2.0,2.0;" x1="70.5" x2="269" y1="163.7974" y2="163.7974"/><polygon fill="#A80036" points="366,191.6533,376,195.6533,366,199.6533,370,195.6533" style="stroke: #A80036; stroke-width: 1.0;"/><line style="stroke: #A80036; stroke-width: 1.0;" x1="65.5" x2="372" y1="195.6533" y2="195.6533"/><text fill="#000000" font-family="sans-serif" font-size="13" lengthAdjust="spacingAndGlyphs" textLength="38" x="72.5" y="190.7969">add(E)</text><polygon fill="#A80036" points="76.5,205.6533,66.5,209.6533,76.5,213.6533,72.5,209.6533" style="stroke: #A80036; stroke-width: 1.0;"/><line style="stroke: #A80036; stroke-width: 1.0; stroke-dasharray: 2.0,2.0;" x1="70.5" x2="377" y1="209.6533" y2="209.6533"/><polygon fill="#A80036" points="258,237.5093,268,241.5093,258,245.5093,262,241.5093" style="stroke: #A80036; stroke-width: 1.0;"/><line style="stroke: #A80036; stroke-width: 1.0;" x1="65.5" x2="264" y1="241.5093" y2="241.5093"/><text fill="#000000" font-family="sans-serif" font-size="13" lengthAdjust="spacingAndGlyphs" textLength="73" x="72.5" y="236.6528">statements()</text><polygon fill="#A80036" points="76.5,251.5093,66.5,255.5093,76.5,259.5093,72.5,255.5093" style="stroke: #A80036; stroke-width: 1.0;"/><line style="stroke: #A80036; stroke-width: 1.0; stroke-dasharray: 2.0,2.0;" x1="70.5" x2="269" y1="255.5093" y2="255.5093"/><path d="M10,277.5093 L123,277.5093 L123,286.5093 L113,296.5093 L10,296.5093 L10,277.5093 " fill="#EEEEEE" style="stroke: #000000; stroke-width: 1.0;"/><rect fill="none" height="111.5679" style="stroke: #000000; stroke-width: 2.0;" width="517" x="10" y="277.5093"/><text fill="#000000" font-family="sans-serif" font-size="13" font-weight="bold" lengthAdjust="spacingAndGlyphs" textLength="68" x="25" y="293.5088">void print()</text><polygon fill="#A80036" points="459,317.2212,469,321.2212,459,325.2212,463,321.2212" style="stroke: #A80036; stroke-width: 1.0;"/><line style="stroke: #A80036; stroke-width: 1.0;" x1="65.5" x2="465" y1="321.2212" y2="321.2212"/><text fill="#000000" font-family="sans-serif" font-size="13" lengthAdjust="spacingAndGlyphs" textLength="131" x="72.5" y="316.3647">println(java.lang.String)</text><polygon fill="#A80036" points="76.5,331.2212,66.5,335.2212,76.5,339.2212,72.5,335.2212" style="stroke: #A80036; stroke-width: 1.0;"/><line style="stroke: #A80036; stroke-width: 1.0; stroke-dasharray: 2.0,2.0;" x1="70.5" x2="470" y1="335.2212" y2="335.2212"/><polygon fill="#A80036" points="148,363.0771,158,367.0771,148,371.0771,152,367.0771" style="stroke: #A80036; stroke-width: 1.0;"/><line style="stroke: #A80036; stroke-width: 1.0;" x1="65.5" x2="154" y1="367.0771" y2="367.0771"/><text fill="#000000" font-family="sans-serif" font-size="13" lengthAdjust="spacingAndGlyphs" textLength="53" x="72.5" y="362.2207">toString()</text><polygon fill="#A80036" points="76.5,377.0771,66.5,381.0771,76.5,385.0771,72.5,381.0771" style="stroke: #A80036; stroke-width: 1.0;"/><line style="stroke: #A80036; stroke-width: 1.0; stroke-dasharray: 2.0,2.0;" x1="70.5" x2="159" y1="381.0771" y2="381.0771"/><!--MD5=[aab6c88da21a47e68d0f28335d790789]
@startuml
group SwitchNode SwitchNode(org.eclipse.jdt.core.dom.SwitchStatement)
	SwitchNode->ASTNode : toString()
		ASTNode- ->SwitchNode
	SwitchNode->SwitchStatement : getExpression()
		SwitchStatement- ->SwitchNode
	SwitchNode->ArrayList : add(E)
		ArrayList- ->SwitchNode
	SwitchNode->SwitchStatement : statements()
		SwitchStatement- ->SwitchNode
end

group void print()
	SwitchNode->PrintStream : println(java.lang.String)
		PrintStream- ->SwitchNode
	SwitchNode->ASTNode : toString()
		ASTNode- ->SwitchNode
end

@enduml

PlantUML version 1.2020.19(Tue Oct 13 00:10:01 KST 2020)
(APACHE source distribution)
Java Runtime: Java(TM) SE Runtime Environment
JVM: Java HotSpot(TM) 64-Bit Server VM
Default Encoding: MS949
Language: ko
Country: KR
--></g></svg>