<?xml version="1.0" encoding="UTF-8" standalone="no"?><svg xmlns="http://www.w3.org/2000/svg" xmlns:xlink="http://www.w3.org/1999/xlink" contentScriptType="application/ecmascript" contentStyleType="text/css" height="862px" preserveAspectRatio="none" style="width:533px;height:862px;" version="1.1" viewBox="0 0 533 862" width="533px" zoomAndPan="magnify"><defs><filter height="300%" id="fcjuyroz1ens0" width="300%" x="-1" y="-1"><feGaussianBlur result="blurOut" stdDeviation="2.0"/><feColorMatrix in="blurOut" result="blurOut2" type="matrix" values="0 0 0 0 0 0 0 0 0 0 0 0 0 0 0 0 0 0 .4 0"/><feOffset dx="4.0" dy="4.0" in="blurOut2" result="blurOut3"/><feBlend in="SourceGraphic" in2="blurOut3" mode="normal"/></filter></defs><g><rect fill="#FFFFFF" filter="url(#fcjuyroz1ens0)" height="65.7119" style="stroke: #000000; stroke-width: 2.0;" width="509" x="10" y="60.2295"/><rect fill="#FFFFFF" filter="url(#fcjuyroz1ens0)" height="65.7119" style="stroke: #000000; stroke-width: 2.0;" width="302" x="10" y="139.9414"/><rect fill="#FFFFFF" filter="url(#fcjuyroz1ens0)" height="65.7119" style="stroke: #000000; stroke-width: 2.0;" width="302" x="10" y="219.6533"/><rect fill="#FFFFFF" filter="url(#fcjuyroz1ens0)" height="111.5679" style="stroke: #000000; stroke-width: 2.0;" width="397.5" x="10" y="299.3652"/><rect fill="#FFFFFF" filter="url(#fcjuyroz1ens0)" height="157.4238" style="stroke: #000000; stroke-width: 2.0;" width="397.5" x="10" y="424.9331"/><rect fill="#FFFFFF" filter="url(#fcjuyroz1ens0)" height="203.2798" style="stroke: #000000; stroke-width: 2.0;" width="397.5" x="10" y="596.3569"/><line style="stroke: #A80036; stroke-width: 1.0; stroke-dasharray: 5.0,5.0;" x1="56" x2="56" y1="43.2295" y2="816.6367"/><line style="stroke: #A80036; stroke-width: 1.0; stroke-dasharray: 5.0,5.0;" x1="258" x2="258" y1="43.2295" y2="816.6367"/><line style="stroke: #A80036; stroke-width: 1.0; stroke-dasharray: 5.0,5.0;" x1="362.5" x2="362.5" y1="43.2295" y2="816.6367"/><rect fill="#FEFECE" filter="url(#fcjuyroz1ens0)" height="33.2295" style="stroke: #A80036; stroke-width: 1.5;" width="69" x="20" y="5"/><text fill="#000000" font-family="sans-serif" font-size="14" lengthAdjust="spacingAndGlyphs" textLength="55" x="27" y="28.1533">Function</text><rect fill="#FEFECE" filter="url(#fcjuyroz1ens0)" height="33.2295" style="stroke: #A80036; stroke-width: 1.5;" width="69" x="20" y="815.6367"/><text fill="#000000" font-family="sans-serif" font-size="14" lengthAdjust="spacingAndGlyphs" textLength="55" x="27" y="838.79">Function</text><rect fill="#FEFECE" filter="url(#fcjuyroz1ens0)" height="33.2295" style="stroke: #A80036; stroke-width: 1.5;" width="83" x="215" y="5"/><text fill="#000000" font-family="sans-serif" font-size="14" lengthAdjust="spacingAndGlyphs" textLength="69" x="222" y="28.1533">Data_base</text><rect fill="#FEFECE" filter="url(#fcjuyroz1ens0)" height="33.2295" style="stroke: #A80036; stroke-width: 1.5;" width="83" x="215" y="815.6367"/><text fill="#000000" font-family="sans-serif" font-size="14" lengthAdjust="spacingAndGlyphs" textLength="69" x="222" y="838.79">Data_base</text><rect fill="#FEFECE" filter="url(#fcjuyroz1ens0)" height="33.2295" style="stroke: #A80036; stroke-width: 1.5;" width="66" x="327.5" y="5"/><text fill="#000000" font-family="sans-serif" font-size="14" lengthAdjust="spacingAndGlyphs" textLength="52" x="334.5" y="28.1533">DataList</text><rect fill="#FEFECE" filter="url(#fcjuyroz1ens0)" height="33.2295" style="stroke: #A80036; stroke-width: 1.5;" width="66" x="327.5" y="815.6367"/><text fill="#000000" font-family="sans-serif" font-size="14" lengthAdjust="spacingAndGlyphs" textLength="52" x="334.5" y="838.79">DataList</text><path d="M10,60.2295 L514,60.2295 L514,69.2295 L504,79.2295 L10,79.2295 L10,60.2295 " fill="#EEEEEE" style="stroke: #000000; stroke-width: 1.0;"/><rect fill="none" height="65.7119" style="stroke: #000000; stroke-width: 2.0;" width="509" x="10" y="60.2295"/><text fill="#000000" font-family="sans-serif" font-size="13" font-weight="bold" lengthAdjust="spacingAndGlyphs" textLength="459" x="25" y="76.229">Function Function(java.lang.String, java.lang.String, dataSet.Data_base)</text><polygon fill="#A80036" points="246.5,99.9414,256.5,103.9414,246.5,107.9414,250.5,103.9414" style="stroke: #A80036; stroke-width: 1.0;"/><line style="stroke: #A80036; stroke-width: 1.0;" x1="56.5" x2="252.5" y1="103.9414" y2="103.9414"/><text fill="#000000" font-family="sans-serif" font-size="13" lengthAdjust="spacingAndGlyphs" textLength="163" x="63.5" y="99.085">addHas(dataSet.Data_base)</text><polygon fill="#A80036" points="67.5,113.9414,57.5,117.9414,67.5,121.9414,63.5,117.9414" style="stroke: #A80036; stroke-width: 1.0;"/><line style="stroke: #A80036; stroke-width: 1.0; stroke-dasharray: 2.0,2.0;" x1="61.5" x2="257.5" y1="117.9414" y2="117.9414"/><path d="M10,139.9414 L183,139.9414 L183,148.9414 L173,158.9414 L10,158.9414 L10,139.9414 " fill="#EEEEEE" style="stroke: #000000; stroke-width: 1.0;"/><rect fill="none" height="65.7119" style="stroke: #000000; stroke-width: 2.0;" width="302" x="10" y="139.9414"/><text fill="#000000" font-family="sans-serif" font-size="13" font-weight="bold" lengthAdjust="spacingAndGlyphs" textLength="128" x="25" y="155.9409">String getSrcName()</text><polygon fill="#A80036" points="246.5,179.6533,256.5,183.6533,246.5,187.6533,250.5,183.6533" style="stroke: #A80036; stroke-width: 1.0;"/><line style="stroke: #A80036; stroke-width: 1.0;" x1="56.5" x2="252.5" y1="183.6533" y2="183.6533"/><text fill="#000000" font-family="sans-serif" font-size="13" lengthAdjust="spacingAndGlyphs" textLength="80" x="63.5" y="178.7969">getSrcName()</text><polygon fill="#A80036" points="67.5,193.6533,57.5,197.6533,67.5,201.6533,63.5,197.6533" style="stroke: #A80036; stroke-width: 1.0;"/><line style="stroke: #A80036; stroke-width: 1.0; stroke-dasharray: 2.0,2.0;" x1="61.5" x2="257.5" y1="197.6533" y2="197.6533"/><path d="M10,219.6533 L217,219.6533 L217,228.6533 L207,238.6533 L10,238.6533 L10,219.6533 " fill="#EEEEEE" style="stroke: #000000; stroke-width: 1.0;"/><rect fill="none" height="65.7119" style="stroke: #000000; stroke-width: 2.0;" width="302" x="10" y="219.6533"/><text fill="#000000" font-family="sans-serif" font-size="13" font-weight="bold" lengthAdjust="spacingAndGlyphs" textLength="162" x="25" y="235.6528">String getPackageName()</text><polygon fill="#A80036" points="246.5,259.3652,256.5,263.3652,246.5,267.3652,250.5,263.3652" style="stroke: #A80036; stroke-width: 1.0;"/><line style="stroke: #A80036; stroke-width: 1.0;" x1="56.5" x2="252.5" y1="263.3652" y2="263.3652"/><text fill="#000000" font-family="sans-serif" font-size="13" lengthAdjust="spacingAndGlyphs" textLength="111" x="63.5" y="258.5088">getPackageName()</text><polygon fill="#A80036" points="67.5,273.3652,57.5,277.3652,67.5,281.3652,63.5,277.3652" style="stroke: #A80036; stroke-width: 1.0;"/><line style="stroke: #A80036; stroke-width: 1.0; stroke-dasharray: 2.0,2.0;" x1="61.5" x2="257.5" y1="277.3652" y2="277.3652"/><path d="M10,299.3652 L260,299.3652 L260,308.3652 L250,318.3652 L10,318.3652 L10,299.3652 " fill="#EEEEEE" style="stroke: #000000; stroke-width: 1.0;"/><rect fill="none" height="111.5679" style="stroke: #000000; stroke-width: 2.0;" width="397.5" x="10" y="299.3652"/><text fill="#000000" font-family="sans-serif" font-size="13" font-weight="bold" lengthAdjust="spacingAndGlyphs" textLength="205" x="25" y="315.3647">void addHas(dataSet.Data_base)</text><polygon fill="#A80036" points="350.5,339.0771,360.5,343.0771,350.5,347.0771,354.5,343.0771" style="stroke: #A80036; stroke-width: 1.0;"/><line style="stroke: #A80036; stroke-width: 1.0;" x1="56.5" x2="356.5" y1="343.0771" y2="343.0771"/><text fill="#000000" font-family="sans-serif" font-size="13" lengthAdjust="spacingAndGlyphs" textLength="167" x="63.5" y="338.2207">addData(dataSet.Data_base)</text><polygon fill="#A80036" points="269.5,370.9331,259.5,374.9331,269.5,378.9331,265.5,374.9331" style="stroke: #A80036; stroke-width: 1.0;"/><line style="stroke: #A80036; stroke-width: 1.0;" x1="263.5" x2="361.5" y1="374.9331" y2="374.9331"/><text fill="#000000" font-family="sans-serif" font-size="13" lengthAdjust="spacingAndGlyphs" textLength="80" x="275.5" y="370.0767">getSrcName()</text><polygon fill="#A80036" points="350.5,384.9331,360.5,388.9331,350.5,392.9331,354.5,388.9331" style="stroke: #A80036; stroke-width: 1.0;"/><line style="stroke: #A80036; stroke-width: 1.0; stroke-dasharray: 2.0,2.0;" x1="258.5" x2="356.5" y1="388.9331" y2="388.9331"/><polygon fill="#A80036" points="67.5,398.9331,57.5,402.9331,67.5,406.9331,63.5,402.9331" style="stroke: #A80036; stroke-width: 1.0;"/><line style="stroke: #A80036; stroke-width: 1.0; stroke-dasharray: 2.0,2.0;" x1="61.5" x2="361.5" y1="402.9331" y2="402.9331"/><path d="M10,424.9331 L278,424.9331 L278,433.9331 L268,443.9331 L10,443.9331 L10,424.9331 " fill="#EEEEEE" style="stroke: #000000; stroke-width: 1.0;"/><rect fill="none" height="157.4238" style="stroke: #000000; stroke-width: 2.0;" width="397.5" x="10" y="424.9331"/><text fill="#000000" font-family="sans-serif" font-size="13" font-weight="bold" lengthAdjust="spacingAndGlyphs" textLength="223" x="25" y="440.9326">void addCallBy(dataSet.Data_base)</text><polygon fill="#A80036" points="350.5,464.645,360.5,468.645,350.5,472.645,354.5,468.645" style="stroke: #A80036; stroke-width: 1.0;"/><line style="stroke: #A80036; stroke-width: 1.0;" x1="56.5" x2="356.5" y1="468.645" y2="468.645"/><text fill="#000000" font-family="sans-serif" font-size="13" lengthAdjust="spacingAndGlyphs" textLength="167" x="63.5" y="463.7886">addData(dataSet.Data_base)</text><polygon fill="#A80036" points="269.5,496.501,259.5,500.501,269.5,504.501,265.5,500.501" style="stroke: #A80036; stroke-width: 1.0;"/><line style="stroke: #A80036; stroke-width: 1.0;" x1="263.5" x2="361.5" y1="500.501" y2="500.501"/><text fill="#000000" font-family="sans-serif" font-size="13" lengthAdjust="spacingAndGlyphs" textLength="80" x="275.5" y="495.6445">getSrcName()</text><polygon fill="#A80036" points="350.5,510.501,360.5,514.501,350.5,518.501,354.5,514.501" style="stroke: #A80036; stroke-width: 1.0;"/><line style="stroke: #A80036; stroke-width: 1.0; stroke-dasharray: 2.0,2.0;" x1="258.5" x2="356.5" y1="514.501" y2="514.501"/><polygon fill="#A80036" points="67.5,524.501,57.5,528.501,67.5,532.501,63.5,528.501" style="stroke: #A80036; stroke-width: 1.0;"/><line style="stroke: #A80036; stroke-width: 1.0; stroke-dasharray: 2.0,2.0;" x1="61.5" x2="361.5" y1="528.501" y2="528.501"/><polygon fill="#A80036" points="246.5,556.3569,256.5,560.3569,246.5,564.3569,250.5,560.3569" style="stroke: #A80036; stroke-width: 1.0;"/><line style="stroke: #A80036; stroke-width: 1.0;" x1="56.5" x2="252.5" y1="560.3569" y2="560.3569"/><text fill="#000000" font-family="sans-serif" font-size="13" lengthAdjust="spacingAndGlyphs" textLength="178" x="63.5" y="555.5005">addCallBy(dataSet.Data_base)</text><polygon fill="#A80036" points="67.5,570.3569,57.5,574.3569,67.5,578.3569,63.5,574.3569" style="stroke: #A80036; stroke-width: 1.0;"/><line style="stroke: #A80036; stroke-width: 1.0; stroke-dasharray: 2.0,2.0;" x1="61.5" x2="257.5" y1="574.3569" y2="574.3569"/><path d="M10,596.3569 L262,596.3569 L262,605.3569 L252,615.3569 L10,615.3569 L10,596.3569 " fill="#EEEEEE" style="stroke: #000000; stroke-width: 1.0;"/><rect fill="none" height="203.2798" style="stroke: #000000; stroke-width: 2.0;" width="397.5" x="10" y="596.3569"/><text fill="#000000" font-family="sans-serif" font-size="13" font-weight="bold" lengthAdjust="spacingAndGlyphs" textLength="207" x="25" y="612.3564">void addCall(dataSet.Data_base)</text><polygon fill="#A80036" points="350.5,636.0688,360.5,640.0688,350.5,644.0688,354.5,640.0688" style="stroke: #A80036; stroke-width: 1.0;"/><line style="stroke: #A80036; stroke-width: 1.0;" x1="56.5" x2="356.5" y1="640.0688" y2="640.0688"/><text fill="#000000" font-family="sans-serif" font-size="13" lengthAdjust="spacingAndGlyphs" textLength="167" x="63.5" y="635.2124">addData(dataSet.Data_base)</text><polygon fill="#A80036" points="269.5,667.9248,259.5,671.9248,269.5,675.9248,265.5,671.9248" style="stroke: #A80036; stroke-width: 1.0;"/><line style="stroke: #A80036; stroke-width: 1.0;" x1="263.5" x2="361.5" y1="671.9248" y2="671.9248"/><text fill="#000000" font-family="sans-serif" font-size="13" lengthAdjust="spacingAndGlyphs" textLength="80" x="275.5" y="667.0684">getSrcName()</text><polygon fill="#A80036" points="350.5,681.9248,360.5,685.9248,350.5,689.9248,354.5,685.9248" style="stroke: #A80036; stroke-width: 1.0;"/><line style="stroke: #A80036; stroke-width: 1.0; stroke-dasharray: 2.0,2.0;" x1="258.5" x2="356.5" y1="685.9248" y2="685.9248"/><polygon fill="#A80036" points="67.5,695.9248,57.5,699.9248,67.5,703.9248,63.5,699.9248" style="stroke: #A80036; stroke-width: 1.0;"/><line style="stroke: #A80036; stroke-width: 1.0; stroke-dasharray: 2.0,2.0;" x1="61.5" x2="361.5" y1="699.9248" y2="699.9248"/><polygon fill="#A80036" points="246.5,727.7808,256.5,731.7808,246.5,735.7808,250.5,731.7808" style="stroke: #A80036; stroke-width: 1.0;"/><line style="stroke: #A80036; stroke-width: 1.0;" x1="56.5" x2="252.5" y1="731.7808" y2="731.7808"/><text fill="#000000" font-family="sans-serif" font-size="13" lengthAdjust="spacingAndGlyphs" textLength="162" x="63.5" y="726.9243">addCall(dataSet.Data_base)</text><polygon fill="#A80036" points="67.5,741.7808,57.5,745.7808,67.5,749.7808,63.5,745.7808" style="stroke: #A80036; stroke-width: 1.0;"/><line style="stroke: #A80036; stroke-width: 1.0; stroke-dasharray: 2.0,2.0;" x1="61.5" x2="257.5" y1="745.7808" y2="745.7808"/><polygon fill="#A80036" points="246.5,773.6367,256.5,777.6367,246.5,781.6367,250.5,777.6367" style="stroke: #A80036; stroke-width: 1.0;"/><line style="stroke: #A80036; stroke-width: 1.0;" x1="56.5" x2="252.5" y1="777.6367" y2="777.6367"/><text fill="#000000" font-family="sans-serif" font-size="13" lengthAdjust="spacingAndGlyphs" textLength="178" x="63.5" y="772.7803">addCallBy(dataSet.Data_base)</text><polygon fill="#A80036" points="67.5,787.6367,57.5,791.6367,67.5,795.6367,63.5,791.6367" style="stroke: #A80036; stroke-width: 1.0;"/><line style="stroke: #A80036; stroke-width: 1.0; stroke-dasharray: 2.0,2.0;" x1="61.5" x2="257.5" y1="791.6367" y2="791.6367"/><!--MD5=[c4dd2188af4dadf9bf9e8bfec326012f]
@startuml
group Function Function(java.lang.String, java.lang.String, dataSet.Data_base)
	Function->Data_base : addHas(dataSet.Data_base)
		Data_base- ->Function
end

group String getSrcName()
	Function->Data_base : getSrcName()
		Data_base- ->Function
end

group String getPackageName()
	Function->Data_base : getPackageName()
		Data_base- ->Function
end

group void addHas(dataSet.Data_base)
	Function->DataList : addData(dataSet.Data_base)
		DataList->Data_base : getSrcName()
			Data_base- ->DataList
		DataList- ->Function
end

group void addCallBy(dataSet.Data_base)
	Function->DataList : addData(dataSet.Data_base)
		DataList->Data_base : getSrcName()
			Data_base- ->DataList
		DataList- ->Function
	Function->Data_base : addCallBy(dataSet.Data_base)
		Data_base- ->Function
end

group void addCall(dataSet.Data_base)
	Function->DataList : addData(dataSet.Data_base)
		DataList->Data_base : getSrcName()
			Data_base- ->DataList
		DataList- ->Function
	Function->Data_base : addCall(dataSet.Data_base)
		Data_base- ->Function
	Function->Data_base : addCallBy(dataSet.Data_base)
		Data_base- ->Function
end

@enduml

PlantUML version 1.2020.19(Tue Oct 13 00:10:01 KST 2020)
(APACHE source distribution)
Java Runtime: Java(TM) SE Runtime Environment
JVM: Java HotSpot(TM) 64-Bit Server VM
Default Encoding: MS949
Language: ko
Country: KR
--></g></svg>