<?xml version="1.0" encoding="UTF-8" standalone="no"?><svg xmlns="http://www.w3.org/2000/svg" xmlns:xlink="http://www.w3.org/1999/xlink" contentScriptType="application/ecmascript" contentStyleType="text/css" height="862px" preserveAspectRatio="none" style="width:501px;height:862px;" version="1.1" viewBox="0 0 501 862" width="501px" zoomAndPan="magnify"><defs><filter height="300%" id="f14f3vtuo2zu5q" width="300%" x="-1" y="-1"><feGaussianBlur result="blurOut" stdDeviation="2.0"/><feColorMatrix in="blurOut" result="blurOut2" type="matrix" values="0 0 0 0 0 0 0 0 0 0 0 0 0 0 0 0 0 0 .4 0"/><feOffset dx="4.0" dy="4.0" in="blurOut2" result="blurOut3"/><feBlend in="SourceGraphic" in2="blurOut3" mode="normal"/></filter></defs><g><rect fill="#FFFFFF" filter="url(#f14f3vtuo2zu5q)" height="111.5679" style="stroke: #000000; stroke-width: 2.0;" width="393" x="10" y="60.2295"/><rect fill="#FFFFFF" filter="url(#f14f3vtuo2zu5q)" height="157.4238" style="stroke: #000000; stroke-width: 2.0;" width="393" x="10" y="185.7974"/><rect fill="#FFFFFF" filter="url(#f14f3vtuo2zu5q)" height="203.2798" style="stroke: #000000; stroke-width: 2.0;" width="393" x="10" y="357.2212"/><rect fill="#FFFFFF" filter="url(#f14f3vtuo2zu5q)" height="65.7119" style="stroke: #000000; stroke-width: 2.0;" width="477" x="10" y="574.501"/><rect fill="#FFFFFF" filter="url(#f14f3vtuo2zu5q)" height="65.7119" style="stroke: #000000; stroke-width: 2.0;" width="393" x="10" y="654.2129"/><rect fill="#FFFFFF" filter="url(#f14f3vtuo2zu5q)" height="65.7119" style="stroke: #000000; stroke-width: 2.0;" width="393" x="10" y="733.9248"/><line style="stroke: #A80036; stroke-width: 1.0; stroke-dasharray: 5.0,5.0;" x1="54" x2="54" y1="43.2295" y2="816.6367"/><line style="stroke: #A80036; stroke-width: 1.0; stroke-dasharray: 5.0,5.0;" x1="245.5" x2="245.5" y1="43.2295" y2="816.6367"/><line style="stroke: #A80036; stroke-width: 1.0; stroke-dasharray: 5.0,5.0;" x1="349" x2="349" y1="43.2295" y2="816.6367"/><line style="stroke: #A80036; stroke-width: 1.0; stroke-dasharray: 5.0,5.0;" x1="440" x2="440" y1="43.2295" y2="816.6367"/><rect fill="#FEFECE" filter="url(#f14f3vtuo2zu5q)" height="33.2295" style="stroke: #A80036; stroke-width: 1.5;" width="65" x="20" y="5"/><text fill="#000000" font-family="sans-serif" font-size="14" lengthAdjust="spacingAndGlyphs" textLength="51" x="27" y="28.1533">Member</text><rect fill="#FEFECE" filter="url(#f14f3vtuo2zu5q)" height="33.2295" style="stroke: #A80036; stroke-width: 1.5;" width="65" x="20" y="815.6367"/><text fill="#000000" font-family="sans-serif" font-size="14" lengthAdjust="spacingAndGlyphs" textLength="51" x="27" y="838.79">Member</text><rect fill="#FEFECE" filter="url(#f14f3vtuo2zu5q)" height="33.2295" style="stroke: #A80036; stroke-width: 1.5;" width="66" x="210.5" y="5"/><text fill="#000000" font-family="sans-serif" font-size="14" lengthAdjust="spacingAndGlyphs" textLength="52" x="217.5" y="28.1533">DataList</text><rect fill="#FEFECE" filter="url(#f14f3vtuo2zu5q)" height="33.2295" style="stroke: #A80036; stroke-width: 1.5;" width="66" x="210.5" y="815.6367"/><text fill="#000000" font-family="sans-serif" font-size="14" lengthAdjust="spacingAndGlyphs" textLength="52" x="217.5" y="838.79">DataList</text><rect fill="#FEFECE" filter="url(#f14f3vtuo2zu5q)" height="33.2295" style="stroke: #A80036; stroke-width: 1.5;" width="83" x="306" y="5"/><text fill="#000000" font-family="sans-serif" font-size="14" lengthAdjust="spacingAndGlyphs" textLength="69" x="313" y="28.1533">Data_base</text><rect fill="#FEFECE" filter="url(#f14f3vtuo2zu5q)" height="33.2295" style="stroke: #A80036; stroke-width: 1.5;" width="83" x="306" y="815.6367"/><text fill="#000000" font-family="sans-serif" font-size="14" lengthAdjust="spacingAndGlyphs" textLength="69" x="313" y="838.79">Data_base</text><rect fill="#FEFECE" filter="url(#f14f3vtuo2zu5q)" height="33.2295" style="stroke: #A80036; stroke-width: 1.5;" width="70" x="403" y="5"/><text fill="#000000" font-family="sans-serif" font-size="14" lengthAdjust="spacingAndGlyphs" textLength="56" x="410" y="28.1533">ArrayList</text><rect fill="#FEFECE" filter="url(#f14f3vtuo2zu5q)" height="33.2295" style="stroke: #A80036; stroke-width: 1.5;" width="70" x="403" y="815.6367"/><text fill="#000000" font-family="sans-serif" font-size="14" lengthAdjust="spacingAndGlyphs" textLength="56" x="410" y="838.79">ArrayList</text><path d="M10,60.2295 L260,60.2295 L260,69.2295 L250,79.2295 L10,79.2295 L10,60.2295 " fill="#EEEEEE" style="stroke: #000000; stroke-width: 1.0;"/><rect fill="none" height="111.5679" style="stroke: #000000; stroke-width: 2.0;" width="393" x="10" y="60.2295"/><text fill="#000000" font-family="sans-serif" font-size="13" font-weight="bold" lengthAdjust="spacingAndGlyphs" textLength="205" x="25" y="76.229">void addHas(dataSet.Data_base)</text><polygon fill="#A80036" points="233.5,99.9414,243.5,103.9414,233.5,107.9414,237.5,103.9414" style="stroke: #A80036; stroke-width: 1.0;"/><line style="stroke: #A80036; stroke-width: 1.0;" x1="54.5" x2="239.5" y1="103.9414" y2="103.9414"/><text fill="#000000" font-family="sans-serif" font-size="13" lengthAdjust="spacingAndGlyphs" textLength="167" x="61.5" y="99.085">addData(dataSet.Data_base)</text><polygon fill="#A80036" points="337.5,131.7974,347.5,135.7974,337.5,139.7974,341.5,135.7974" style="stroke: #A80036; stroke-width: 1.0;"/><line style="stroke: #A80036; stroke-width: 1.0;" x1="245.5" x2="343.5" y1="135.7974" y2="135.7974"/><text fill="#000000" font-family="sans-serif" font-size="13" lengthAdjust="spacingAndGlyphs" textLength="80" x="252.5" y="130.9409">getSrcName()</text><polygon fill="#A80036" points="256.5,145.7974,246.5,149.7974,256.5,153.7974,252.5,149.7974" style="stroke: #A80036; stroke-width: 1.0;"/><line style="stroke: #A80036; stroke-width: 1.0; stroke-dasharray: 2.0,2.0;" x1="250.5" x2="348.5" y1="149.7974" y2="149.7974"/><polygon fill="#A80036" points="65.5,159.7974,55.5,163.7974,65.5,167.7974,61.5,163.7974" style="stroke: #A80036; stroke-width: 1.0;"/><line style="stroke: #A80036; stroke-width: 1.0; stroke-dasharray: 2.0,2.0;" x1="59.5" x2="244.5" y1="163.7974" y2="163.7974"/><path d="M10,185.7974 L278,185.7974 L278,194.7974 L268,204.7974 L10,204.7974 L10,185.7974 " fill="#EEEEEE" style="stroke: #000000; stroke-width: 1.0;"/><rect fill="none" height="157.4238" style="stroke: #000000; stroke-width: 2.0;" width="393" x="10" y="185.7974"/><text fill="#000000" font-family="sans-serif" font-size="13" font-weight="bold" lengthAdjust="spacingAndGlyphs" textLength="223" x="25" y="201.7969">void addCallBy(dataSet.Data_base)</text><polygon fill="#A80036" points="233.5,225.5093,243.5,229.5093,233.5,233.5093,237.5,229.5093" style="stroke: #A80036; stroke-width: 1.0;"/><line style="stroke: #A80036; stroke-width: 1.0;" x1="54.5" x2="239.5" y1="229.5093" y2="229.5093"/><text fill="#000000" font-family="sans-serif" font-size="13" lengthAdjust="spacingAndGlyphs" textLength="167" x="61.5" y="224.6528">addData(dataSet.Data_base)</text><polygon fill="#A80036" points="337.5,257.3652,347.5,261.3652,337.5,265.3652,341.5,261.3652" style="stroke: #A80036; stroke-width: 1.0;"/><line style="stroke: #A80036; stroke-width: 1.0;" x1="245.5" x2="343.5" y1="261.3652" y2="261.3652"/><text fill="#000000" font-family="sans-serif" font-size="13" lengthAdjust="spacingAndGlyphs" textLength="80" x="252.5" y="256.5088">getSrcName()</text><polygon fill="#A80036" points="256.5,271.3652,246.5,275.3652,256.5,279.3652,252.5,275.3652" style="stroke: #A80036; stroke-width: 1.0;"/><line style="stroke: #A80036; stroke-width: 1.0; stroke-dasharray: 2.0,2.0;" x1="250.5" x2="348.5" y1="275.3652" y2="275.3652"/><polygon fill="#A80036" points="65.5,285.3652,55.5,289.3652,65.5,293.3652,61.5,289.3652" style="stroke: #A80036; stroke-width: 1.0;"/><line style="stroke: #A80036; stroke-width: 1.0; stroke-dasharray: 2.0,2.0;" x1="59.5" x2="244.5" y1="289.3652" y2="289.3652"/><polygon fill="#A80036" points="337.5,317.2212,347.5,321.2212,337.5,325.2212,341.5,321.2212" style="stroke: #A80036; stroke-width: 1.0;"/><line style="stroke: #A80036; stroke-width: 1.0;" x1="54.5" x2="343.5" y1="321.2212" y2="321.2212"/><text fill="#000000" font-family="sans-serif" font-size="13" lengthAdjust="spacingAndGlyphs" textLength="178" x="61.5" y="316.3647">addCallBy(dataSet.Data_base)</text><polygon fill="#A80036" points="65.5,331.2212,55.5,335.2212,65.5,339.2212,61.5,335.2212" style="stroke: #A80036; stroke-width: 1.0;"/><line style="stroke: #A80036; stroke-width: 1.0; stroke-dasharray: 2.0,2.0;" x1="59.5" x2="348.5" y1="335.2212" y2="335.2212"/><path d="M10,357.2212 L262,357.2212 L262,366.2212 L252,376.2212 L10,376.2212 L10,357.2212 " fill="#EEEEEE" style="stroke: #000000; stroke-width: 1.0;"/><rect fill="none" height="203.2798" style="stroke: #000000; stroke-width: 2.0;" width="393" x="10" y="357.2212"/><text fill="#000000" font-family="sans-serif" font-size="13" font-weight="bold" lengthAdjust="spacingAndGlyphs" textLength="207" x="25" y="373.2207">void addCall(dataSet.Data_base)</text><polygon fill="#A80036" points="233.5,396.9331,243.5,400.9331,233.5,404.9331,237.5,400.9331" style="stroke: #A80036; stroke-width: 1.0;"/><line style="stroke: #A80036; stroke-width: 1.0;" x1="54.5" x2="239.5" y1="400.9331" y2="400.9331"/><text fill="#000000" font-family="sans-serif" font-size="13" lengthAdjust="spacingAndGlyphs" textLength="167" x="61.5" y="396.0767">addData(dataSet.Data_base)</text><polygon fill="#A80036" points="337.5,428.7891,347.5,432.7891,337.5,436.7891,341.5,432.7891" style="stroke: #A80036; stroke-width: 1.0;"/><line style="stroke: #A80036; stroke-width: 1.0;" x1="245.5" x2="343.5" y1="432.7891" y2="432.7891"/><text fill="#000000" font-family="sans-serif" font-size="13" lengthAdjust="spacingAndGlyphs" textLength="80" x="252.5" y="427.9326">getSrcName()</text><polygon fill="#A80036" points="256.5,442.7891,246.5,446.7891,256.5,450.7891,252.5,446.7891" style="stroke: #A80036; stroke-width: 1.0;"/><line style="stroke: #A80036; stroke-width: 1.0; stroke-dasharray: 2.0,2.0;" x1="250.5" x2="348.5" y1="446.7891" y2="446.7891"/><polygon fill="#A80036" points="65.5,456.7891,55.5,460.7891,65.5,464.7891,61.5,460.7891" style="stroke: #A80036; stroke-width: 1.0;"/><line style="stroke: #A80036; stroke-width: 1.0; stroke-dasharray: 2.0,2.0;" x1="59.5" x2="244.5" y1="460.7891" y2="460.7891"/><polygon fill="#A80036" points="337.5,488.645,347.5,492.645,337.5,496.645,341.5,492.645" style="stroke: #A80036; stroke-width: 1.0;"/><line style="stroke: #A80036; stroke-width: 1.0;" x1="54.5" x2="343.5" y1="492.645" y2="492.645"/><text fill="#000000" font-family="sans-serif" font-size="13" lengthAdjust="spacingAndGlyphs" textLength="162" x="61.5" y="487.7886">addCall(dataSet.Data_base)</text><polygon fill="#A80036" points="65.5,502.645,55.5,506.645,65.5,510.645,61.5,506.645" style="stroke: #A80036; stroke-width: 1.0;"/><line style="stroke: #A80036; stroke-width: 1.0; stroke-dasharray: 2.0,2.0;" x1="59.5" x2="348.5" y1="506.645" y2="506.645"/><polygon fill="#A80036" points="337.5,534.501,347.5,538.501,337.5,542.501,341.5,538.501" style="stroke: #A80036; stroke-width: 1.0;"/><line style="stroke: #A80036; stroke-width: 1.0;" x1="54.5" x2="343.5" y1="538.501" y2="538.501"/><text fill="#000000" font-family="sans-serif" font-size="13" lengthAdjust="spacingAndGlyphs" textLength="178" x="61.5" y="533.6445">addCallBy(dataSet.Data_base)</text><polygon fill="#A80036" points="65.5,548.501,55.5,552.501,65.5,556.501,61.5,552.501" style="stroke: #A80036; stroke-width: 1.0;"/><line style="stroke: #A80036; stroke-width: 1.0; stroke-dasharray: 2.0,2.0;" x1="59.5" x2="348.5" y1="552.501" y2="552.501"/><path d="M10,574.501 L259,574.501 L259,583.501 L249,593.501 L10,593.501 L10,574.501 " fill="#EEEEEE" style="stroke: #000000; stroke-width: 1.0;"/><rect fill="none" height="65.7119" style="stroke: #000000; stroke-width: 2.0;" width="477" x="10" y="574.501"/><text fill="#000000" font-family="sans-serif" font-size="13" font-weight="bold" lengthAdjust="spacingAndGlyphs" textLength="204" x="25" y="590.5005">void addImage(java.lang.String)</text><polygon fill="#A80036" points="428,614.2129,438,618.2129,428,622.2129,432,618.2129" style="stroke: #A80036; stroke-width: 1.0;"/><line style="stroke: #A80036; stroke-width: 1.0;" x1="54.5" x2="434" y1="618.2129" y2="618.2129"/><text fill="#000000" font-family="sans-serif" font-size="13" lengthAdjust="spacingAndGlyphs" textLength="38" x="61.5" y="613.3564">add(E)</text><polygon fill="#A80036" points="65.5,628.2129,55.5,632.2129,65.5,636.2129,61.5,632.2129" style="stroke: #A80036; stroke-width: 1.0;"/><line style="stroke: #A80036; stroke-width: 1.0; stroke-dasharray: 2.0,2.0;" x1="59.5" x2="439" y1="632.2129" y2="632.2129"/><path d="M10,654.2129 L183,654.2129 L183,663.2129 L173,673.2129 L10,673.2129 L10,654.2129 " fill="#EEEEEE" style="stroke: #000000; stroke-width: 1.0;"/><rect fill="none" height="65.7119" style="stroke: #000000; stroke-width: 2.0;" width="393" x="10" y="654.2129"/><text fill="#000000" font-family="sans-serif" font-size="13" font-weight="bold" lengthAdjust="spacingAndGlyphs" textLength="128" x="25" y="670.2124">String getSrcName()</text><polygon fill="#A80036" points="337.5,693.9248,347.5,697.9248,337.5,701.9248,341.5,697.9248" style="stroke: #A80036; stroke-width: 1.0;"/><line style="stroke: #A80036; stroke-width: 1.0;" x1="54.5" x2="343.5" y1="697.9248" y2="697.9248"/><text fill="#000000" font-family="sans-serif" font-size="13" lengthAdjust="spacingAndGlyphs" textLength="80" x="61.5" y="693.0684">getSrcName()</text><polygon fill="#A80036" points="65.5,707.9248,55.5,711.9248,65.5,715.9248,61.5,711.9248" style="stroke: #A80036; stroke-width: 1.0;"/><line style="stroke: #A80036; stroke-width: 1.0; stroke-dasharray: 2.0,2.0;" x1="59.5" x2="348.5" y1="711.9248" y2="711.9248"/><path d="M10,733.9248 L217,733.9248 L217,742.9248 L207,752.9248 L10,752.9248 L10,733.9248 " fill="#EEEEEE" style="stroke: #000000; stroke-width: 1.0;"/><rect fill="none" height="65.7119" style="stroke: #000000; stroke-width: 2.0;" width="393" x="10" y="733.9248"/><text fill="#000000" font-family="sans-serif" font-size="13" font-weight="bold" lengthAdjust="spacingAndGlyphs" textLength="162" x="25" y="749.9243">String getPackageName()</text><polygon fill="#A80036" points="337.5,773.6367,347.5,777.6367,337.5,781.6367,341.5,777.6367" style="stroke: #A80036; stroke-width: 1.0;"/><line style="stroke: #A80036; stroke-width: 1.0;" x1="54.5" x2="343.5" y1="777.6367" y2="777.6367"/><text fill="#000000" font-family="sans-serif" font-size="13" lengthAdjust="spacingAndGlyphs" textLength="111" x="61.5" y="772.7803">getPackageName()</text><polygon fill="#A80036" points="65.5,787.6367,55.5,791.6367,65.5,795.6367,61.5,791.6367" style="stroke: #A80036; stroke-width: 1.0;"/><line style="stroke: #A80036; stroke-width: 1.0; stroke-dasharray: 2.0,2.0;" x1="59.5" x2="348.5" y1="791.6367" y2="791.6367"/><!--MD5=[1d82dd8c7dd935c1b656cf85f4fbb273]
@startuml
group void addHas(dataSet.Data_base)
	Member->DataList : addData(dataSet.Data_base)
		DataList->Data_base : getSrcName()
			Data_base- ->DataList
		DataList- ->Member
end

group void addCallBy(dataSet.Data_base)
	Member->DataList : addData(dataSet.Data_base)
		DataList->Data_base : getSrcName()
			Data_base- ->DataList
		DataList- ->Member
	Member->Data_base : addCallBy(dataSet.Data_base)
		Data_base- ->Member
end

group void addCall(dataSet.Data_base)
	Member->DataList : addData(dataSet.Data_base)
		DataList->Data_base : getSrcName()
			Data_base- ->DataList
		DataList- ->Member
	Member->Data_base : addCall(dataSet.Data_base)
		Data_base- ->Member
	Member->Data_base : addCallBy(dataSet.Data_base)
		Data_base- ->Member
end

group void addImage(java.lang.String)
	Member->ArrayList : add(E)
		ArrayList- ->Member
end

group String getSrcName()
	Member->Data_base : getSrcName()
		Data_base- ->Member
end

group String getPackageName()
	Member->Data_base : getPackageName()
		Data_base- ->Member
end

@enduml

PlantUML version 1.2020.19(Tue Oct 13 00:10:01 KST 2020)
(APACHE source distribution)
Java Runtime: Java(TM) SE Runtime Environment
JVM: Java HotSpot(TM) 64-Bit Server VM
Default Encoding: MS949
Language: ko
Country: KR
--></g></svg>