<?xml version="1.0" encoding="UTF-8" standalone="no"?><svg xmlns="http://www.w3.org/2000/svg" xmlns:xlink="http://www.w3.org/1999/xlink" contentScriptType="application/ecmascript" contentStyleType="text/css" height="898px" preserveAspectRatio="none" style="width:989px;height:898px;" version="1.1" viewBox="0 0 989 898" width="989px" zoomAndPan="magnify"><defs><filter height="300%" id="f1wdicb1jaimoo" width="300%" x="-1" y="-1"><feGaussianBlur result="blurOut" stdDeviation="2.0"/><feColorMatrix in="blurOut" result="blurOut2" type="matrix" values="0 0 0 0 0 0 0 0 0 0 0 0 0 0 0 0 0 0 .4 0"/><feOffset dx="4.0" dy="4.0" in="blurOut2" result="blurOut3"/><feBlend in="SourceGraphic" in2="blurOut3" mode="normal"/></filter></defs><g><rect fill="#FFFFFF" filter="url(#f1wdicb1jaimoo)" height="340.8477" style="stroke: #000000; stroke-width: 2.0;" width="591.5" x="10" y="60.2295"/><rect fill="#FFFFFF" filter="url(#f1wdicb1jaimoo)" height="249.1357" style="stroke: #000000; stroke-width: 2.0;" width="863.5" x="10" y="415.0771"/><rect fill="#FFFFFF" filter="url(#f1wdicb1jaimoo)" height="157.4238" style="stroke: #000000; stroke-width: 2.0;" width="965.5" x="10" y="678.2129"/><line style="stroke: #A80036; stroke-width: 1.0; stroke-dasharray: 5.0,5.0;" x1="73" x2="73" y1="43.2295" y2="852.6367"/><line style="stroke: #A80036; stroke-width: 1.0; stroke-dasharray: 5.0,5.0;" x1="188" x2="188" y1="43.2295" y2="852.6367"/><line style="stroke: #A80036; stroke-width: 1.0; stroke-dasharray: 5.0,5.0;" x1="289" x2="289" y1="43.2295" y2="852.6367"/><line style="stroke: #A80036; stroke-width: 1.0; stroke-dasharray: 5.0,5.0;" x1="384" x2="384" y1="43.2295" y2="852.6367"/><line style="stroke: #A80036; stroke-width: 1.0; stroke-dasharray: 5.0,5.0;" x1="481.5" x2="481.5" y1="43.2295" y2="852.6367"/><line style="stroke: #A80036; stroke-width: 1.0; stroke-dasharray: 5.0,5.0;" x1="554.5" x2="554.5" y1="43.2295" y2="852.6367"/><line style="stroke: #A80036; stroke-width: 1.0; stroke-dasharray: 5.0,5.0;" x1="650.5" x2="650.5" y1="43.2295" y2="852.6367"/><line style="stroke: #A80036; stroke-width: 1.0; stroke-dasharray: 5.0,5.0;" x1="739.5" x2="739.5" y1="43.2295" y2="852.6367"/><line style="stroke: #A80036; stroke-width: 1.0; stroke-dasharray: 5.0,5.0;" x1="821.5" x2="821.5" y1="43.2295" y2="852.6367"/><line style="stroke: #A80036; stroke-width: 1.0; stroke-dasharray: 5.0,5.0;" x1="919.5" x2="919.5" y1="43.2295" y2="852.6367"/><rect fill="#FEFECE" filter="url(#f1wdicb1jaimoo)" height="33.2295" style="stroke: #A80036; stroke-width: 1.5;" width="102" x="20" y="5"/><text fill="#000000" font-family="sans-serif" font-size="14" lengthAdjust="spacingAndGlyphs" textLength="88" x="27" y="28.1533">ForStateNode</text><rect fill="#FEFECE" filter="url(#f1wdicb1jaimoo)" height="33.2295" style="stroke: #A80036; stroke-width: 1.5;" width="102" x="20" y="851.6367"/><text fill="#000000" font-family="sans-serif" font-size="14" lengthAdjust="spacingAndGlyphs" textLength="88" x="27" y="874.79">ForStateNode</text><rect fill="#FEFECE" filter="url(#f1wdicb1jaimoo)" height="33.2295" style="stroke: #A80036; stroke-width: 1.5;" width="100" x="136" y="5"/><text fill="#000000" font-family="sans-serif" font-size="14" lengthAdjust="spacingAndGlyphs" textLength="86" x="143" y="28.1533">ForStatement</text><rect fill="#FEFECE" filter="url(#f1wdicb1jaimoo)" height="33.2295" style="stroke: #A80036; stroke-width: 1.5;" width="100" x="136" y="851.6367"/><text fill="#000000" font-family="sans-serif" font-size="14" lengthAdjust="spacingAndGlyphs" textLength="86" x="143" y="874.79">ForStatement</text><rect fill="#FEFECE" filter="url(#f1wdicb1jaimoo)" height="33.2295" style="stroke: #A80036; stroke-width: 1.5;" width="74" x="250" y="5"/><text fill="#000000" font-family="sans-serif" font-size="14" lengthAdjust="spacingAndGlyphs" textLength="60" x="257" y="28.1533">ASTNode</text><rect fill="#FEFECE" filter="url(#f1wdicb1jaimoo)" height="33.2295" style="stroke: #A80036; stroke-width: 1.5;" width="74" x="250" y="851.6367"/><text fill="#000000" font-family="sans-serif" font-size="14" lengthAdjust="spacingAndGlyphs" textLength="60" x="257" y="874.79">ASTNode</text><rect fill="#FEFECE" filter="url(#f1wdicb1jaimoo)" height="33.2295" style="stroke: #A80036; stroke-width: 1.5;" width="89" x="338" y="5"/><text fill="#000000" font-family="sans-serif" font-size="14" lengthAdjust="spacingAndGlyphs" textLength="75" x="345" y="28.1533">Test_Visitor</text><rect fill="#FEFECE" filter="url(#f1wdicb1jaimoo)" height="33.2295" style="stroke: #A80036; stroke-width: 1.5;" width="89" x="338" y="851.6367"/><text fill="#000000" font-family="sans-serif" font-size="14" lengthAdjust="spacingAndGlyphs" textLength="75" x="345" y="874.79">Test_Visitor</text><rect fill="#FEFECE" filter="url(#f1wdicb1jaimoo)" height="33.2295" style="stroke: #A80036; stroke-width: 1.5;" width="48" x="455.5" y="5"/><text fill="#000000" font-family="sans-serif" font-size="14" lengthAdjust="spacingAndGlyphs" textLength="34" x="462.5" y="28.1533">Block</text><rect fill="#FEFECE" filter="url(#f1wdicb1jaimoo)" height="33.2295" style="stroke: #A80036; stroke-width: 1.5;" width="48" x="455.5" y="851.6367"/><text fill="#000000" font-family="sans-serif" font-size="14" lengthAdjust="spacingAndGlyphs" textLength="34" x="462.5" y="874.79">Block</text><rect fill="#FEFECE" filter="url(#f1wdicb1jaimoo)" height="33.2295" style="stroke: #A80036; stroke-width: 1.5;" width="70" x="517.5" y="5"/><text fill="#000000" font-family="sans-serif" font-size="14" lengthAdjust="spacingAndGlyphs" textLength="56" x="524.5" y="28.1533">ArrayList</text><rect fill="#FEFECE" filter="url(#f1wdicb1jaimoo)" height="33.2295" style="stroke: #A80036; stroke-width: 1.5;" width="70" x="517.5" y="851.6367"/><text fill="#000000" font-family="sans-serif" font-size="14" lengthAdjust="spacingAndGlyphs" textLength="56" x="524.5" y="874.79">ArrayList</text><rect fill="#FEFECE" filter="url(#f1wdicb1jaimoo)" height="33.2295" style="stroke: #A80036; stroke-width: 1.5;" width="95" x="601.5" y="5"/><text fill="#000000" font-family="sans-serif" font-size="14" lengthAdjust="spacingAndGlyphs" textLength="81" x="608.5" y="28.1533">StringBuilder</text><rect fill="#FEFECE" filter="url(#f1wdicb1jaimoo)" height="33.2295" style="stroke: #A80036; stroke-width: 1.5;" width="95" x="601.5" y="851.6367"/><text fill="#000000" font-family="sans-serif" font-size="14" lengthAdjust="spacingAndGlyphs" textLength="81" x="608.5" y="874.79">StringBuilder</text><rect fill="#FEFECE" filter="url(#f1wdicb1jaimoo)" height="33.2295" style="stroke: #A80036; stroke-width: 1.5;" width="55" x="710.5" y="5"/><text fill="#000000" font-family="sans-serif" font-size="14" lengthAdjust="spacingAndGlyphs" textLength="41" x="717.5" y="28.1533">Object</text><rect fill="#FEFECE" filter="url(#f1wdicb1jaimoo)" height="33.2295" style="stroke: #A80036; stroke-width: 1.5;" width="55" x="710.5" y="851.6367"/><text fill="#000000" font-family="sans-serif" font-size="14" lengthAdjust="spacingAndGlyphs" textLength="41" x="717.5" y="874.79">Object</text><rect fill="#FEFECE" filter="url(#f1wdicb1jaimoo)" height="33.2295" style="stroke: #A80036; stroke-width: 1.5;" width="80" x="779.5" y="5"/><text fill="#000000" font-family="sans-serif" font-size="14" lengthAdjust="spacingAndGlyphs" textLength="66" x="786.5" y="28.1533">StateNode</text><rect fill="#FEFECE" filter="url(#f1wdicb1jaimoo)" height="33.2295" style="stroke: #A80036; stroke-width: 1.5;" width="80" x="779.5" y="851.6367"/><text fill="#000000" font-family="sans-serif" font-size="14" lengthAdjust="spacingAndGlyphs" textLength="66" x="786.5" y="874.79">StateNode</text><rect fill="#FEFECE" filter="url(#f1wdicb1jaimoo)" height="33.2295" style="stroke: #A80036; stroke-width: 1.5;" width="88" x="873.5" y="5"/><text fill="#000000" font-family="sans-serif" font-size="14" lengthAdjust="spacingAndGlyphs" textLength="74" x="880.5" y="28.1533">PrintStream</text><rect fill="#FEFECE" filter="url(#f1wdicb1jaimoo)" height="33.2295" style="stroke: #A80036; stroke-width: 1.5;" width="88" x="873.5" y="851.6367"/><text fill="#000000" font-family="sans-serif" font-size="14" lengthAdjust="spacingAndGlyphs" textLength="74" x="880.5" y="874.79">PrintStream</text><path d="M10,60.2295 L485,60.2295 L485,69.2295 L475,79.2295 L10,79.2295 L10,60.2295 " fill="#EEEEEE" style="stroke: #000000; stroke-width: 1.0;"/><rect fill="none" height="340.8477" style="stroke: #000000; stroke-width: 2.0;" width="591.5" x="10" y="60.2295"/><text fill="#000000" font-family="sans-serif" font-size="13" font-weight="bold" lengthAdjust="spacingAndGlyphs" textLength="430" x="25" y="76.229">ForStateNode ForStateNode(org.eclipse.jdt.core.dom.ForStatement)</text><polygon fill="#A80036" points="176,99.9414,186,103.9414,176,107.9414,180,103.9414" style="stroke: #A80036; stroke-width: 1.0;"/><line style="stroke: #A80036; stroke-width: 1.0;" x1="73" x2="182" y1="103.9414" y2="103.9414"/><text fill="#000000" font-family="sans-serif" font-size="13" lengthAdjust="spacingAndGlyphs" textLength="66" x="80" y="99.085">initializers()</text><polygon fill="#A80036" points="84,113.9414,74,117.9414,84,121.9414,80,117.9414" style="stroke: #A80036; stroke-width: 1.0;"/><line style="stroke: #A80036; stroke-width: 1.0; stroke-dasharray: 2.0,2.0;" x1="78" x2="187" y1="117.9414" y2="117.9414"/><polygon fill="#A80036" points="277,145.7974,287,149.7974,277,153.7974,281,149.7974" style="stroke: #A80036; stroke-width: 1.0;"/><line style="stroke: #A80036; stroke-width: 1.0;" x1="73" x2="283" y1="149.7974" y2="149.7974"/><text fill="#000000" font-family="sans-serif" font-size="13" lengthAdjust="spacingAndGlyphs" textLength="53" x="80" y="144.9409">toString()</text><polygon fill="#A80036" points="84,159.7974,74,163.7974,84,167.7974,80,163.7974" style="stroke: #A80036; stroke-width: 1.0;"/><line style="stroke: #A80036; stroke-width: 1.0; stroke-dasharray: 2.0,2.0;" x1="78" x2="288" y1="163.7974" y2="163.7974"/><polygon fill="#A80036" points="176,191.6533,186,195.6533,176,199.6533,180,195.6533" style="stroke: #A80036; stroke-width: 1.0;"/><line style="stroke: #A80036; stroke-width: 1.0;" x1="73" x2="182" y1="195.6533" y2="195.6533"/><text fill="#000000" font-family="sans-serif" font-size="13" lengthAdjust="spacingAndGlyphs" textLength="91" x="80" y="190.7969">getExpression()</text><polygon fill="#A80036" points="84,205.6533,74,209.6533,84,213.6533,80,209.6533" style="stroke: #A80036; stroke-width: 1.0;"/><line style="stroke: #A80036; stroke-width: 1.0; stroke-dasharray: 2.0,2.0;" x1="78" x2="187" y1="209.6533" y2="209.6533"/><polygon fill="#A80036" points="372.5,237.5093,382.5,241.5093,372.5,245.5093,376.5,241.5093" style="stroke: #A80036; stroke-width: 1.0;"/><line style="stroke: #A80036; stroke-width: 1.0;" x1="73" x2="378.5" y1="241.5093" y2="241.5093"/><text fill="#000000" font-family="sans-serif" font-size="13" lengthAdjust="spacingAndGlyphs" textLength="278" x="80" y="236.6528">getStmtList(org.eclipse.jdt.core.dom.Statement)</text><polygon fill="#A80036" points="469.5,269.3652,479.5,273.3652,469.5,277.3652,473.5,273.3652" style="stroke: #A80036; stroke-width: 1.0;"/><line style="stroke: #A80036; stroke-width: 1.0;" x1="384.5" x2="475.5" y1="273.3652" y2="273.3652"/><text fill="#000000" font-family="sans-serif" font-size="13" lengthAdjust="spacingAndGlyphs" textLength="73" x="391.5" y="268.5088">statements()</text><polygon fill="#A80036" points="395.5,283.3652,385.5,287.3652,395.5,291.3652,391.5,287.3652" style="stroke: #A80036; stroke-width: 1.0;"/><line style="stroke: #A80036; stroke-width: 1.0; stroke-dasharray: 2.0,2.0;" x1="389.5" x2="480.5" y1="287.3652" y2="287.3652"/><polygon fill="#A80036" points="542.5,315.2212,552.5,319.2212,542.5,323.2212,546.5,319.2212" style="stroke: #A80036; stroke-width: 1.0;"/><line style="stroke: #A80036; stroke-width: 1.0;" x1="384.5" x2="548.5" y1="319.2212" y2="319.2212"/><text fill="#000000" font-family="sans-serif" font-size="13" lengthAdjust="spacingAndGlyphs" textLength="38" x="391.5" y="314.3647">add(E)</text><polygon fill="#A80036" points="395.5,329.2212,385.5,333.2212,395.5,337.2212,391.5,333.2212" style="stroke: #A80036; stroke-width: 1.0;"/><line style="stroke: #A80036; stroke-width: 1.0; stroke-dasharray: 2.0,2.0;" x1="389.5" x2="553.5" y1="333.2212" y2="333.2212"/><polygon fill="#A80036" points="84,343.2212,74,347.2212,84,351.2212,80,347.2212" style="stroke: #A80036; stroke-width: 1.0;"/><line style="stroke: #A80036; stroke-width: 1.0; stroke-dasharray: 2.0,2.0;" x1="78" x2="383.5" y1="347.2212" y2="347.2212"/><polygon fill="#A80036" points="176,375.0771,186,379.0771,176,383.0771,180,379.0771" style="stroke: #A80036; stroke-width: 1.0;"/><line style="stroke: #A80036; stroke-width: 1.0;" x1="73" x2="182" y1="379.0771" y2="379.0771"/><text fill="#000000" font-family="sans-serif" font-size="13" lengthAdjust="spacingAndGlyphs" textLength="56" x="80" y="374.2207">getBody()</text><polygon fill="#A80036" points="84,389.0771,74,393.0771,84,397.0771,80,393.0771" style="stroke: #A80036; stroke-width: 1.0;"/><line style="stroke: #A80036; stroke-width: 1.0; stroke-dasharray: 2.0,2.0;" x1="78" x2="187" y1="393.0771" y2="393.0771"/><path d="M10,415.0771 L174,415.0771 L174,424.0771 L164,434.0771 L10,434.0771 L10,415.0771 " fill="#EEEEEE" style="stroke: #000000; stroke-width: 1.0;"/><rect fill="none" height="249.1357" style="stroke: #000000; stroke-width: 2.0;" width="863.5" x="10" y="415.0771"/><text fill="#000000" font-family="sans-serif" font-size="13" font-weight="bold" lengthAdjust="spacingAndGlyphs" textLength="119" x="25" y="431.0767">String getForLine()</text><polygon fill="#A80036" points="639,454.7891,649,458.7891,639,462.7891,643,458.7891" style="stroke: #A80036; stroke-width: 1.0;"/><line style="stroke: #A80036; stroke-width: 1.0;" x1="73" x2="645" y1="458.7891" y2="458.7891"/><text fill="#000000" font-family="sans-serif" font-size="13" lengthAdjust="spacingAndGlyphs" textLength="138" x="80" y="453.9326">append(java.lang.String)</text><polygon fill="#A80036" points="84,468.7891,74,472.7891,84,476.7891,80,472.7891" style="stroke: #A80036; stroke-width: 1.0;"/><line style="stroke: #A80036; stroke-width: 1.0; stroke-dasharray: 2.0,2.0;" x1="78" x2="650" y1="472.7891" y2="472.7891"/><polygon fill="#A80036" points="728,500.645,738,504.645,728,508.645,732,504.645" style="stroke: #A80036; stroke-width: 1.0;"/><line style="stroke: #A80036; stroke-width: 1.0;" x1="73" x2="734" y1="504.645" y2="504.645"/><text fill="#000000" font-family="sans-serif" font-size="13" lengthAdjust="spacingAndGlyphs" textLength="53" x="80" y="499.7886">toString()</text><polygon fill="#A80036" points="84,514.645,74,518.645,84,522.645,80,518.645" style="stroke: #A80036; stroke-width: 1.0;"/><line style="stroke: #A80036; stroke-width: 1.0; stroke-dasharray: 2.0,2.0;" x1="78" x2="739" y1="518.645" y2="518.645"/><polygon fill="#A80036" points="809.5,546.501,819.5,550.501,809.5,554.501,813.5,550.501" style="stroke: #A80036; stroke-width: 1.0;"/><line style="stroke: #A80036; stroke-width: 1.0;" x1="73" x2="815.5" y1="550.501" y2="550.501"/><text fill="#000000" font-family="sans-serif" font-size="13" lengthAdjust="spacingAndGlyphs" textLength="80" x="80" y="545.6445">getCondition()</text><polygon fill="#A80036" points="84,560.501,74,564.501,84,568.501,80,564.501" style="stroke: #A80036; stroke-width: 1.0;"/><line style="stroke: #A80036; stroke-width: 1.0; stroke-dasharray: 2.0,2.0;" x1="78" x2="820.5" y1="564.501" y2="564.501"/><polygon fill="#A80036" points="809.5,592.3569,819.5,596.3569,809.5,600.3569,813.5,596.3569" style="stroke: #A80036; stroke-width: 1.0;"/><line style="stroke: #A80036; stroke-width: 1.0;" x1="73" x2="815.5" y1="596.3569" y2="596.3569"/><text fill="#000000" font-family="sans-serif" font-size="13" lengthAdjust="spacingAndGlyphs" textLength="56" x="80" y="591.5005">getCode()</text><polygon fill="#A80036" points="84,606.3569,74,610.3569,84,614.3569,80,610.3569" style="stroke: #A80036; stroke-width: 1.0;"/><line style="stroke: #A80036; stroke-width: 1.0; stroke-dasharray: 2.0,2.0;" x1="78" x2="820.5" y1="610.3569" y2="610.3569"/><polygon fill="#A80036" points="639,638.2129,649,642.2129,639,646.2129,643,642.2129" style="stroke: #A80036; stroke-width: 1.0;"/><line style="stroke: #A80036; stroke-width: 1.0;" x1="73" x2="645" y1="642.2129" y2="642.2129"/><text fill="#000000" font-family="sans-serif" font-size="13" lengthAdjust="spacingAndGlyphs" textLength="53" x="80" y="637.3564">toString()</text><polygon fill="#A80036" points="84,652.2129,74,656.2129,84,660.2129,80,656.2129" style="stroke: #A80036; stroke-width: 1.0;"/><line style="stroke: #A80036; stroke-width: 1.0; stroke-dasharray: 2.0,2.0;" x1="78" x2="650" y1="656.2129" y2="656.2129"/><path d="M10,678.2129 L199,678.2129 L199,687.2129 L189,697.2129 L10,697.2129 L10,678.2129 " fill="#EEEEEE" style="stroke: #000000; stroke-width: 1.0;"/><rect fill="none" height="157.4238" style="stroke: #000000; stroke-width: 2.0;" width="965.5" x="10" y="678.2129"/><text fill="#000000" font-family="sans-serif" font-size="13" font-weight="bold" lengthAdjust="spacingAndGlyphs" textLength="144" x="25" y="694.2124">StateNode getLastFin()</text><polygon fill="#A80036" points="542.5,717.9248,552.5,721.9248,542.5,725.9248,546.5,721.9248" style="stroke: #A80036; stroke-width: 1.0;"/><line style="stroke: #A80036; stroke-width: 1.0;" x1="73" x2="548.5" y1="721.9248" y2="721.9248"/><text fill="#000000" font-family="sans-serif" font-size="13" lengthAdjust="spacingAndGlyphs" textLength="40" x="80" y="717.0684">get(int)</text><polygon fill="#A80036" points="84,731.9248,74,735.9248,84,739.9248,80,735.9248" style="stroke: #A80036; stroke-width: 1.0;"/><line style="stroke: #A80036; stroke-width: 1.0; stroke-dasharray: 2.0,2.0;" x1="78" x2="553.5" y1="735.9248" y2="735.9248"/><polygon fill="#A80036" points="907.5,763.7808,917.5,767.7808,907.5,771.7808,911.5,767.7808" style="stroke: #A80036; stroke-width: 1.0;"/><line style="stroke: #A80036; stroke-width: 1.0;" x1="73" x2="913.5" y1="767.7808" y2="767.7808"/><text fill="#000000" font-family="sans-serif" font-size="13" lengthAdjust="spacingAndGlyphs" textLength="131" x="80" y="762.9243">println(java.lang.String)</text><polygon fill="#A80036" points="84,777.7808,74,781.7808,84,785.7808,80,781.7808" style="stroke: #A80036; stroke-width: 1.0;"/><line style="stroke: #A80036; stroke-width: 1.0; stroke-dasharray: 2.0,2.0;" x1="78" x2="918.5" y1="781.7808" y2="781.7808"/><polygon fill="#A80036" points="809.5,809.6367,819.5,813.6367,809.5,817.6367,813.5,813.6367" style="stroke: #A80036; stroke-width: 1.0;"/><line style="stroke: #A80036; stroke-width: 1.0;" x1="73" x2="815.5" y1="813.6367" y2="813.6367"/><text fill="#000000" font-family="sans-serif" font-size="13" lengthAdjust="spacingAndGlyphs" textLength="54" x="80" y="808.7803">getThen()</text><polygon fill="#A80036" points="84,823.6367,74,827.6367,84,831.6367,80,827.6367" style="stroke: #A80036; stroke-width: 1.0;"/><line style="stroke: #A80036; stroke-width: 1.0; stroke-dasharray: 2.0,2.0;" x1="78" x2="820.5" y1="827.6367" y2="827.6367"/><!--MD5=[bb08dae8705e91dff1df7b9c50b16c49]
@startuml
group ForStateNode ForStateNode(org.eclipse.jdt.core.dom.ForStatement)
	ForStateNode->ForStatement : initializers()
		ForStatement- ->ForStateNode
	ForStateNode->ASTNode : toString()
		ASTNode- ->ForStateNode
	ForStateNode->ForStatement : getExpression()
		ForStatement- ->ForStateNode
	ForStateNode->Test_Visitor : getStmtList(org.eclipse.jdt.core.dom.Statement)
		Test_Visitor->Block : statements()
			Block- ->Test_Visitor
		Test_Visitor->ArrayList : add(E)
			ArrayList- ->Test_Visitor
		Test_Visitor- ->ForStateNode
	ForStateNode->ForStatement : getBody()
		ForStatement- ->ForStateNode
end

group String getForLine()
	ForStateNode->StringBuilder : append(java.lang.String)
		StringBuilder- ->ForStateNode
	ForStateNode->Object : toString()
		Object- ->ForStateNode
	ForStateNode->StateNode : getCondition()
		StateNode- ->ForStateNode
	ForStateNode->StateNode : getCode()
		StateNode- ->ForStateNode
	ForStateNode->StringBuilder : toString()
		StringBuilder- ->ForStateNode
end

group StateNode getLastFin()
	ForStateNode->ArrayList : get(int)
		ArrayList- ->ForStateNode
	ForStateNode->PrintStream : println(java.lang.String)
		PrintStream- ->ForStateNode
	ForStateNode->StateNode : getThen()
		StateNode- ->ForStateNode
end

@enduml

PlantUML version 1.2020.19(Tue Oct 13 00:10:01 KST 2020)
(APACHE source distribution)
Java Runtime: Java(TM) SE Runtime Environment
JVM: Java HotSpot(TM) 64-Bit Server VM
Default Encoding: MS949
Language: ko
Country: KR
--></g></svg>