<?xml version="1.0" encoding="UTF-8" standalone="no"?><svg xmlns="http://www.w3.org/2000/svg" xmlns:xlink="http://www.w3.org/1999/xlink" contentScriptType="application/ecmascript" contentStyleType="text/css" height="565px" preserveAspectRatio="none" style="width:409px;height:565px;" version="1.1" viewBox="0 0 409 565" width="409px" zoomAndPan="magnify"><defs><filter height="300%" id="fv6lmbut1950c" width="300%" x="-1" y="-1"><feGaussianBlur result="blurOut" stdDeviation="2.0"/><feColorMatrix in="blurOut" result="blurOut2" type="matrix" values="0 0 0 0 0 0 0 0 0 0 0 0 0 0 0 0 0 0 .4 0"/><feOffset dx="4.0" dy="4.0" in="blurOut2" result="blurOut3"/><feBlend in="SourceGraphic" in2="blurOut3" mode="normal"/></filter></defs><g><rect fill="#FFFFFF" filter="url(#fv6lmbut1950c)" height="65.7119" style="stroke: #000000; stroke-width: 2.0;" width="338" x="10" y="60.2295"/><rect fill="#FFFFFF" filter="url(#fv6lmbut1950c)" height="111.5679" style="stroke: #000000; stroke-width: 2.0;" width="385" x="10" y="139.9414"/><rect fill="#FFFFFF" filter="url(#fv6lmbut1950c)" height="111.5679" style="stroke: #000000; stroke-width: 2.0;" width="385" x="10" y="265.5093"/><rect fill="#FFFFFF" filter="url(#fv6lmbut1950c)" height="111.5679" style="stroke: #000000; stroke-width: 2.0;" width="385" x="10" y="391.0771"/><line style="stroke: #A80036; stroke-width: 1.0; stroke-dasharray: 5.0,5.0;" x1="46" x2="46" y1="43.2295" y2="519.645"/><line style="stroke: #A80036; stroke-width: 1.0; stroke-dasharray: 5.0,5.0;" x1="129" x2="129" y1="43.2295" y2="519.645"/><line style="stroke: #A80036; stroke-width: 1.0; stroke-dasharray: 5.0,5.0;" x1="237.5" x2="237.5" y1="43.2295" y2="519.645"/><line style="stroke: #A80036; stroke-width: 1.0; stroke-dasharray: 5.0,5.0;" x1="341" x2="341" y1="43.2295" y2="519.645"/><rect fill="#FEFECE" filter="url(#fv6lmbut1950c)" height="33.2295" style="stroke: #A80036; stroke-width: 1.5;" width="49" x="20" y="5"/><text fill="#000000" font-family="sans-serif" font-size="14" lengthAdjust="spacingAndGlyphs" textLength="35" x="27" y="28.1533">Class</text><rect fill="#FEFECE" filter="url(#fv6lmbut1950c)" height="33.2295" style="stroke: #A80036; stroke-width: 1.5;" width="49" x="20" y="518.645"/><text fill="#000000" font-family="sans-serif" font-size="14" lengthAdjust="spacingAndGlyphs" textLength="35" x="27" y="541.7983">Class</text><rect fill="#FEFECE" filter="url(#fv6lmbut1950c)" height="33.2295" style="stroke: #A80036; stroke-width: 1.5;" width="88" x="83" y="5"/><text fill="#000000" font-family="sans-serif" font-size="14" lengthAdjust="spacingAndGlyphs" textLength="74" x="90" y="28.1533">PrintStream</text><rect fill="#FEFECE" filter="url(#fv6lmbut1950c)" height="33.2295" style="stroke: #A80036; stroke-width: 1.5;" width="88" x="83" y="518.645"/><text fill="#000000" font-family="sans-serif" font-size="14" lengthAdjust="spacingAndGlyphs" textLength="74" x="90" y="541.7983">PrintStream</text><rect fill="#FEFECE" filter="url(#fv6lmbut1950c)" height="33.2295" style="stroke: #A80036; stroke-width: 1.5;" width="66" x="202.5" y="5"/><text fill="#000000" font-family="sans-serif" font-size="14" lengthAdjust="spacingAndGlyphs" textLength="52" x="209.5" y="28.1533">DataList</text><rect fill="#FEFECE" filter="url(#fv6lmbut1950c)" height="33.2295" style="stroke: #A80036; stroke-width: 1.5;" width="66" x="202.5" y="518.645"/><text fill="#000000" font-family="sans-serif" font-size="14" lengthAdjust="spacingAndGlyphs" textLength="52" x="209.5" y="541.7983">DataList</text><rect fill="#FEFECE" filter="url(#fv6lmbut1950c)" height="33.2295" style="stroke: #A80036; stroke-width: 1.5;" width="83" x="298" y="5"/><text fill="#000000" font-family="sans-serif" font-size="14" lengthAdjust="spacingAndGlyphs" textLength="69" x="305" y="28.1533">Data_base</text><rect fill="#FEFECE" filter="url(#fv6lmbut1950c)" height="33.2295" style="stroke: #A80036; stroke-width: 1.5;" width="83" x="298" y="518.645"/><text fill="#000000" font-family="sans-serif" font-size="14" lengthAdjust="spacingAndGlyphs" textLength="69" x="305" y="541.7983">Data_base</text><path d="M10,60.2295 L343,60.2295 L343,69.2295 L333,79.2295 L10,79.2295 L10,60.2295 " fill="#EEEEEE" style="stroke: #000000; stroke-width: 1.0;"/><rect fill="none" height="65.7119" style="stroke: #000000; stroke-width: 2.0;" width="338" x="10" y="60.2295"/><text fill="#000000" font-family="sans-serif" font-size="13" font-weight="bold" lengthAdjust="spacingAndGlyphs" textLength="288" x="25" y="76.229">Class Class(java.lang.String, java.lang.String)</text><polygon fill="#A80036" points="117,99.9414,127,103.9414,117,107.9414,121,103.9414" style="stroke: #A80036; stroke-width: 1.0;"/><line style="stroke: #A80036; stroke-width: 1.0;" x1="46.5" x2="123" y1="103.9414" y2="103.9414"/><text fill="#000000" font-family="sans-serif" font-size="13" lengthAdjust="spacingAndGlyphs" textLength="43" x="53.5" y="99.085">println()</text><polygon fill="#A80036" points="57.5,113.9414,47.5,117.9414,57.5,121.9414,53.5,117.9414" style="stroke: #A80036; stroke-width: 1.0;"/><line style="stroke: #A80036; stroke-width: 1.0; stroke-dasharray: 2.0,2.0;" x1="51.5" x2="128" y1="117.9414" y2="117.9414"/><path d="M10,139.9414 L278,139.9414 L278,148.9414 L268,158.9414 L10,158.9414 L10,139.9414 " fill="#EEEEEE" style="stroke: #000000; stroke-width: 1.0;"/><rect fill="none" height="111.5679" style="stroke: #000000; stroke-width: 2.0;" width="385" x="10" y="139.9414"/><text fill="#000000" font-family="sans-serif" font-size="13" font-weight="bold" lengthAdjust="spacingAndGlyphs" textLength="223" x="25" y="155.9409">void addCallBy(dataSet.Data_base)</text><polygon fill="#A80036" points="225.5,179.6533,235.5,183.6533,225.5,187.6533,229.5,183.6533" style="stroke: #A80036; stroke-width: 1.0;"/><line style="stroke: #A80036; stroke-width: 1.0;" x1="46.5" x2="231.5" y1="183.6533" y2="183.6533"/><text fill="#000000" font-family="sans-serif" font-size="13" lengthAdjust="spacingAndGlyphs" textLength="167" x="53.5" y="178.7969">addData(dataSet.Data_base)</text><polygon fill="#A80036" points="329.5,211.5093,339.5,215.5093,329.5,219.5093,333.5,215.5093" style="stroke: #A80036; stroke-width: 1.0;"/><line style="stroke: #A80036; stroke-width: 1.0;" x1="237.5" x2="335.5" y1="215.5093" y2="215.5093"/><text fill="#000000" font-family="sans-serif" font-size="13" lengthAdjust="spacingAndGlyphs" textLength="80" x="244.5" y="210.6528">getSrcName()</text><polygon fill="#A80036" points="248.5,225.5093,238.5,229.5093,248.5,233.5093,244.5,229.5093" style="stroke: #A80036; stroke-width: 1.0;"/><line style="stroke: #A80036; stroke-width: 1.0; stroke-dasharray: 2.0,2.0;" x1="242.5" x2="340.5" y1="229.5093" y2="229.5093"/><polygon fill="#A80036" points="57.5,239.5093,47.5,243.5093,57.5,247.5093,53.5,243.5093" style="stroke: #A80036; stroke-width: 1.0;"/><line style="stroke: #A80036; stroke-width: 1.0; stroke-dasharray: 2.0,2.0;" x1="51.5" x2="236.5" y1="243.5093" y2="243.5093"/><path d="M10,265.5093 L262,265.5093 L262,274.5093 L252,284.5093 L10,284.5093 L10,265.5093 " fill="#EEEEEE" style="stroke: #000000; stroke-width: 1.0;"/><rect fill="none" height="111.5679" style="stroke: #000000; stroke-width: 2.0;" width="385" x="10" y="265.5093"/><text fill="#000000" font-family="sans-serif" font-size="13" font-weight="bold" lengthAdjust="spacingAndGlyphs" textLength="207" x="25" y="281.5088">void addCall(dataSet.Data_base)</text><polygon fill="#A80036" points="225.5,305.2212,235.5,309.2212,225.5,313.2212,229.5,309.2212" style="stroke: #A80036; stroke-width: 1.0;"/><line style="stroke: #A80036; stroke-width: 1.0;" x1="46.5" x2="231.5" y1="309.2212" y2="309.2212"/><text fill="#000000" font-family="sans-serif" font-size="13" lengthAdjust="spacingAndGlyphs" textLength="167" x="53.5" y="304.3647">addData(dataSet.Data_base)</text><polygon fill="#A80036" points="329.5,337.0771,339.5,341.0771,329.5,345.0771,333.5,341.0771" style="stroke: #A80036; stroke-width: 1.0;"/><line style="stroke: #A80036; stroke-width: 1.0;" x1="237.5" x2="335.5" y1="341.0771" y2="341.0771"/><text fill="#000000" font-family="sans-serif" font-size="13" lengthAdjust="spacingAndGlyphs" textLength="80" x="244.5" y="336.2207">getSrcName()</text><polygon fill="#A80036" points="248.5,351.0771,238.5,355.0771,248.5,359.0771,244.5,355.0771" style="stroke: #A80036; stroke-width: 1.0;"/><line style="stroke: #A80036; stroke-width: 1.0; stroke-dasharray: 2.0,2.0;" x1="242.5" x2="340.5" y1="355.0771" y2="355.0771"/><polygon fill="#A80036" points="57.5,365.0771,47.5,369.0771,57.5,373.0771,53.5,369.0771" style="stroke: #A80036; stroke-width: 1.0;"/><line style="stroke: #A80036; stroke-width: 1.0; stroke-dasharray: 2.0,2.0;" x1="51.5" x2="236.5" y1="369.0771" y2="369.0771"/><path d="M10,391.0771 L260,391.0771 L260,400.0771 L250,410.0771 L10,410.0771 L10,391.0771 " fill="#EEEEEE" style="stroke: #000000; stroke-width: 1.0;"/><rect fill="none" height="111.5679" style="stroke: #000000; stroke-width: 2.0;" width="385" x="10" y="391.0771"/><text fill="#000000" font-family="sans-serif" font-size="13" font-weight="bold" lengthAdjust="spacingAndGlyphs" textLength="205" x="25" y="407.0767">void addHas(dataSet.Data_base)</text><polygon fill="#A80036" points="225.5,430.7891,235.5,434.7891,225.5,438.7891,229.5,434.7891" style="stroke: #A80036; stroke-width: 1.0;"/><line style="stroke: #A80036; stroke-width: 1.0;" x1="46.5" x2="231.5" y1="434.7891" y2="434.7891"/><text fill="#000000" font-family="sans-serif" font-size="13" lengthAdjust="spacingAndGlyphs" textLength="167" x="53.5" y="429.9326">addData(dataSet.Data_base)</text><polygon fill="#A80036" points="329.5,462.645,339.5,466.645,329.5,470.645,333.5,466.645" style="stroke: #A80036; stroke-width: 1.0;"/><line style="stroke: #A80036; stroke-width: 1.0;" x1="237.5" x2="335.5" y1="466.645" y2="466.645"/><text fill="#000000" font-family="sans-serif" font-size="13" lengthAdjust="spacingAndGlyphs" textLength="80" x="244.5" y="461.7886">getSrcName()</text><polygon fill="#A80036" points="248.5,476.645,238.5,480.645,248.5,484.645,244.5,480.645" style="stroke: #A80036; stroke-width: 1.0;"/><line style="stroke: #A80036; stroke-width: 1.0; stroke-dasharray: 2.0,2.0;" x1="242.5" x2="340.5" y1="480.645" y2="480.645"/><polygon fill="#A80036" points="57.5,490.645,47.5,494.645,57.5,498.645,53.5,494.645" style="stroke: #A80036; stroke-width: 1.0;"/><line style="stroke: #A80036; stroke-width: 1.0; stroke-dasharray: 2.0,2.0;" x1="51.5" x2="236.5" y1="494.645" y2="494.645"/><!--MD5=[d00691138af53199ab93c2a85ea14bd0]
@startuml
group Class Class(java.lang.String, java.lang.String)
	Class->PrintStream : println()
		PrintStream- ->Class
end

group void addCallBy(dataSet.Data_base)
	Class->DataList : addData(dataSet.Data_base)
		DataList->Data_base : getSrcName()
			Data_base- ->DataList
		DataList- ->Class
end

group void addCall(dataSet.Data_base)
	Class->DataList : addData(dataSet.Data_base)
		DataList->Data_base : getSrcName()
			Data_base- ->DataList
		DataList- ->Class
end

group void addHas(dataSet.Data_base)
	Class->DataList : addData(dataSet.Data_base)
		DataList->Data_base : getSrcName()
			Data_base- ->DataList
		DataList- ->Class
end

@enduml

PlantUML version 1.2020.19(Tue Oct 13 00:10:01 KST 2020)
(APACHE source distribution)
Java Runtime: Java(TM) SE Runtime Environment
JVM: Java HotSpot(TM) 64-Bit Server VM
Default Encoding: MS949
Language: ko
Country: KR
--></g></svg>