<?xml version="1.0" encoding="UTF-8" standalone="no"?><svg xmlns="http://www.w3.org/2000/svg" xmlns:xlink="http://www.w3.org/1999/xlink" contentScriptType="application/ecmascript" contentStyleType="text/css" height="679px" preserveAspectRatio="none" style="width:989px;height:679px;" version="1.1" viewBox="0 0 989 679" width="989px" zoomAndPan="magnify"><defs><filter height="300%" id="ft77b3b2nesme" width="300%" x="-1" y="-1"><feGaussianBlur result="blurOut" stdDeviation="2.0"/><feColorMatrix in="blurOut" result="blurOut2" type="matrix" values="0 0 0 0 0 0 0 0 0 0 0 0 0 0 0 0 0 0 .4 0"/><feOffset dx="4.0" dy="4.0" in="blurOut2" result="blurOut3"/><feBlend in="SourceGraphic" in2="blurOut3" mode="normal"/></filter></defs><g><rect fill="#FFFFFF" filter="url(#ft77b3b2nesme)" height="385.7036" style="stroke: #000000; stroke-width: 2.0;" width="871.5" x="10" y="60.2295"/><rect fill="#FFFFFF" filter="url(#ft77b3b2nesme)" height="156.4238" style="stroke: #000000; stroke-width: 2.0;" width="965.5" x="10" y="459.9331"/><line style="stroke: #A80036; stroke-width: 1.0; stroke-dasharray: 5.0,5.0;" x1="72" x2="72" y1="43.2295" y2="633.3569"/><line style="stroke: #A80036; stroke-width: 1.0; stroke-dasharray: 5.0,5.0;" x1="419.5" x2="419.5" y1="43.2295" y2="633.3569"/><line style="stroke: #A80036; stroke-width: 1.0; stroke-dasharray: 5.0,5.0;" x1="507.5" x2="507.5" y1="43.2295" y2="633.3569"/><line style="stroke: #A80036; stroke-width: 1.0; stroke-dasharray: 5.0,5.0;" x1="617.5" x2="617.5" y1="43.2295" y2="633.3569"/><line style="stroke: #A80036; stroke-width: 1.0; stroke-dasharray: 5.0,5.0;" x1="734.5" x2="734.5" y1="43.2295" y2="633.3569"/><line style="stroke: #A80036; stroke-width: 1.0; stroke-dasharray: 5.0,5.0;" x1="825.5" x2="825.5" y1="43.2295" y2="633.3569"/><line style="stroke: #A80036; stroke-width: 1.0; stroke-dasharray: 5.0,5.0;" x1="923.5" x2="923.5" y1="43.2295" y2="633.3569"/><rect fill="#FEFECE" filter="url(#ft77b3b2nesme)" height="33.2295" style="stroke: #A80036; stroke-width: 1.5;" width="100" x="20" y="5"/><text fill="#000000" font-family="sans-serif" font-size="14" lengthAdjust="spacingAndGlyphs" textLength="86" x="27" y="28.1533">StateDiagram</text><rect fill="#FEFECE" filter="url(#ft77b3b2nesme)" height="33.2295" style="stroke: #A80036; stroke-width: 1.5;" width="100" x="20" y="632.3569"/><text fill="#000000" font-family="sans-serif" font-size="14" lengthAdjust="spacingAndGlyphs" textLength="86" x="27" y="655.5103">StateDiagram</text><rect fill="#FEFECE" filter="url(#ft77b3b2nesme)" height="33.2295" style="stroke: #A80036; stroke-width: 1.5;" width="95" x="370.5" y="5"/><text fill="#000000" font-family="sans-serif" font-size="14" lengthAdjust="spacingAndGlyphs" textLength="81" x="377.5" y="28.1533">StringBuilder</text><rect fill="#FEFECE" filter="url(#ft77b3b2nesme)" height="33.2295" style="stroke: #A80036; stroke-width: 1.5;" width="95" x="370.5" y="632.3569"/><text fill="#000000" font-family="sans-serif" font-size="14" lengthAdjust="spacingAndGlyphs" textLength="81" x="377.5" y="655.5103">StringBuilder</text><rect fill="#FEFECE" filter="url(#ft77b3b2nesme)" height="33.2295" style="stroke: #A80036; stroke-width: 1.5;" width="52" x="479.5" y="5"/><text fill="#000000" font-family="sans-serif" font-size="14" lengthAdjust="spacingAndGlyphs" textLength="38" x="486.5" y="28.1533">Writer</text><rect fill="#FEFECE" filter="url(#ft77b3b2nesme)" height="33.2295" style="stroke: #A80036; stroke-width: 1.5;" width="52" x="479.5" y="632.3569"/><text fill="#000000" font-family="sans-serif" font-size="14" lengthAdjust="spacingAndGlyphs" textLength="38" x="486.5" y="655.5103">Writer</text><rect fill="#FEFECE" filter="url(#ft77b3b2nesme)" height="33.2295" style="stroke: #A80036; stroke-width: 1.5;" width="140" x="545.5" y="5"/><text fill="#000000" font-family="sans-serif" font-size="14" lengthAdjust="spacingAndGlyphs" textLength="126" x="552.5" y="28.1533">OutputStreamWriter</text><rect fill="#FEFECE" filter="url(#ft77b3b2nesme)" height="33.2295" style="stroke: #A80036; stroke-width: 1.5;" width="140" x="545.5" y="632.3569"/><text fill="#000000" font-family="sans-serif" font-size="14" lengthAdjust="spacingAndGlyphs" textLength="126" x="552.5" y="655.5103">OutputStreamWriter</text><rect fill="#FEFECE" filter="url(#ft77b3b2nesme)" height="33.2295" style="stroke: #A80036; stroke-width: 1.5;" width="66" x="699.5" y="5"/><text fill="#000000" font-family="sans-serif" font-size="14" lengthAdjust="spacingAndGlyphs" textLength="52" x="706.5" y="28.1533">Runtime</text><rect fill="#FEFECE" filter="url(#ft77b3b2nesme)" height="33.2295" style="stroke: #A80036; stroke-width: 1.5;" width="66" x="699.5" y="632.3569"/><text fill="#000000" font-family="sans-serif" font-size="14" lengthAdjust="spacingAndGlyphs" textLength="52" x="706.5" y="655.5103">Runtime</text><rect fill="#FEFECE" filter="url(#ft77b3b2nesme)" height="33.2295" style="stroke: #A80036; stroke-width: 1.5;" width="88" x="779.5" y="5"/><text fill="#000000" font-family="sans-serif" font-size="14" lengthAdjust="spacingAndGlyphs" textLength="74" x="786.5" y="28.1533">PrintStream</text><rect fill="#FEFECE" filter="url(#ft77b3b2nesme)" height="33.2295" style="stroke: #A80036; stroke-width: 1.5;" width="88" x="779.5" y="632.3569"/><text fill="#000000" font-family="sans-serif" font-size="14" lengthAdjust="spacingAndGlyphs" textLength="74" x="786.5" y="655.5103">PrintStream</text><rect fill="#FEFECE" filter="url(#ft77b3b2nesme)" height="33.2295" style="stroke: #A80036; stroke-width: 1.5;" width="80" x="881.5" y="5"/><text fill="#000000" font-family="sans-serif" font-size="14" lengthAdjust="spacingAndGlyphs" textLength="66" x="888.5" y="28.1533">StateNode</text><rect fill="#FEFECE" filter="url(#ft77b3b2nesme)" height="33.2295" style="stroke: #A80036; stroke-width: 1.5;" width="80" x="881.5" y="632.3569"/><text fill="#000000" font-family="sans-serif" font-size="14" lengthAdjust="spacingAndGlyphs" textLength="66" x="888.5" y="655.5103">StateNode</text><path d="M10,60.2295 L352,60.2295 L352,69.2295 L342,79.2295 L10,79.2295 L10,60.2295 " fill="#EEEEEE" style="stroke: #000000; stroke-width: 1.0;"/><rect fill="none" height="385.7036" style="stroke: #000000; stroke-width: 2.0;" width="871.5" x="10" y="60.2295"/><text fill="#000000" font-family="sans-serif" font-size="13" font-weight="bold" lengthAdjust="spacingAndGlyphs" textLength="297" x="25" y="76.229">void drawMain(dataSet.Class, java.lang.String)</text><line style="stroke: #A80036; stroke-width: 1.0;" x1="72" x2="114" y1="103.9414" y2="103.9414"/><line style="stroke: #A80036; stroke-width: 1.0;" x1="114" x2="114" y1="103.9414" y2="116.9414"/><line style="stroke: #A80036; stroke-width: 1.0;" x1="73" x2="114" y1="116.9414" y2="116.9414"/><polygon fill="#A80036" points="83,112.9414,73,116.9414,83,120.9414,79,116.9414" style="stroke: #A80036; stroke-width: 1.0;"/><text fill="#000000" font-family="sans-serif" font-size="13" lengthAdjust="spacingAndGlyphs" textLength="238" x="79" y="99.085">draw(dataSet.Function, dataSet.Member)</text><polygon fill="#A80036" points="408,144.7974,418,148.7974,408,152.7974,412,148.7974" style="stroke: #A80036; stroke-width: 1.0;"/><line style="stroke: #A80036; stroke-width: 1.0;" x1="72" x2="414" y1="148.7974" y2="148.7974"/><text fill="#000000" font-family="sans-serif" font-size="13" lengthAdjust="spacingAndGlyphs" textLength="138" x="79" y="143.9409">append(java.lang.String)</text><polygon fill="#A80036" points="83,158.7974,73,162.7974,83,166.7974,79,162.7974" style="stroke: #A80036; stroke-width: 1.0;"/><line style="stroke: #A80036; stroke-width: 1.0; stroke-dasharray: 2.0,2.0;" x1="77" x2="419" y1="162.7974" y2="162.7974"/><polygon fill="#A80036" points="495.5,190.6533,505.5,194.6533,495.5,198.6533,499.5,194.6533" style="stroke: #A80036; stroke-width: 1.0;"/><line style="stroke: #A80036; stroke-width: 1.0;" x1="72" x2="501.5" y1="194.6533" y2="194.6533"/><text fill="#000000" font-family="sans-serif" font-size="13" lengthAdjust="spacingAndGlyphs" textLength="123" x="79" y="189.7969">write(java.lang.String)</text><polygon fill="#A80036" points="83,204.6533,73,208.6533,83,212.6533,79,208.6533" style="stroke: #A80036; stroke-width: 1.0;"/><line style="stroke: #A80036; stroke-width: 1.0; stroke-dasharray: 2.0,2.0;" x1="77" x2="506.5" y1="208.6533" y2="208.6533"/><polygon fill="#A80036" points="408,236.5093,418,240.5093,408,244.5093,412,240.5093" style="stroke: #A80036; stroke-width: 1.0;"/><line style="stroke: #A80036; stroke-width: 1.0;" x1="72" x2="414" y1="240.5093" y2="240.5093"/><text fill="#000000" font-family="sans-serif" font-size="13" lengthAdjust="spacingAndGlyphs" textLength="53" x="79" y="235.6528">toString()</text><polygon fill="#A80036" points="83,250.5093,73,254.5093,83,258.5093,79,254.5093" style="stroke: #A80036; stroke-width: 1.0;"/><line style="stroke: #A80036; stroke-width: 1.0; stroke-dasharray: 2.0,2.0;" x1="77" x2="419" y1="254.5093" y2="254.5093"/><polygon fill="#A80036" points="605.5,282.3652,615.5,286.3652,605.5,290.3652,609.5,286.3652" style="stroke: #A80036; stroke-width: 1.0;"/><line style="stroke: #A80036; stroke-width: 1.0;" x1="72" x2="611.5" y1="286.3652" y2="286.3652"/><text fill="#000000" font-family="sans-serif" font-size="13" lengthAdjust="spacingAndGlyphs" textLength="39" x="79" y="281.5088">close()</text><polygon fill="#A80036" points="83,296.3652,73,300.3652,83,304.3652,79,300.3652" style="stroke: #A80036; stroke-width: 1.0;"/><line style="stroke: #A80036; stroke-width: 1.0; stroke-dasharray: 2.0,2.0;" x1="77" x2="616.5" y1="300.3652" y2="300.3652"/><polygon fill="#A80036" points="722.5,328.2212,732.5,332.2212,722.5,336.2212,726.5,332.2212" style="stroke: #A80036; stroke-width: 1.0;"/><line style="stroke: #A80036; stroke-width: 1.0;" x1="72" x2="728.5" y1="332.2212" y2="332.2212"/><text fill="#000000" font-family="sans-serif" font-size="13" lengthAdjust="spacingAndGlyphs" textLength="124" x="79" y="327.3647">exec(java.lang.String)</text><polygon fill="#A80036" points="83,342.2212,73,346.2212,83,350.2212,79,346.2212" style="stroke: #A80036; stroke-width: 1.0;"/><line style="stroke: #A80036; stroke-width: 1.0; stroke-dasharray: 2.0,2.0;" x1="77" x2="733.5" y1="346.2212" y2="346.2212"/><polygon fill="#A80036" points="722.5,374.0771,732.5,378.0771,722.5,382.0771,726.5,378.0771" style="stroke: #A80036; stroke-width: 1.0;"/><line style="stroke: #A80036; stroke-width: 1.0;" x1="72" x2="728.5" y1="378.0771" y2="378.0771"/><text fill="#000000" font-family="sans-serif" font-size="13" lengthAdjust="spacingAndGlyphs" textLength="74" x="79" y="373.2207">getRuntime()</text><polygon fill="#A80036" points="83,388.0771,73,392.0771,83,396.0771,79,392.0771" style="stroke: #A80036; stroke-width: 1.0;"/><line style="stroke: #A80036; stroke-width: 1.0; stroke-dasharray: 2.0,2.0;" x1="77" x2="733.5" y1="392.0771" y2="392.0771"/><polygon fill="#A80036" points="813.5,419.9331,823.5,423.9331,813.5,427.9331,817.5,423.9331" style="stroke: #A80036; stroke-width: 1.0;"/><line style="stroke: #A80036; stroke-width: 1.0;" x1="72" x2="819.5" y1="423.9331" y2="423.9331"/><text fill="#000000" font-family="sans-serif" font-size="13" lengthAdjust="spacingAndGlyphs" textLength="131" x="79" y="419.0767">println(java.lang.String)</text><polygon fill="#A80036" points="83,433.9331,73,437.9331,83,441.9331,79,437.9331" style="stroke: #A80036; stroke-width: 1.0;"/><line style="stroke: #A80036; stroke-width: 1.0; stroke-dasharray: 2.0,2.0;" x1="77" x2="824.5" y1="437.9331" y2="437.9331"/><path d="M10,459.9331 L454,459.9331 L454,468.9331 L444,478.9331 L10,478.9331 L10,459.9331 " fill="#EEEEEE" style="stroke: #000000; stroke-width: 1.0;"/><rect fill="none" height="156.4238" style="stroke: #000000; stroke-width: 2.0;" width="965.5" x="10" y="459.9331"/><text fill="#000000" font-family="sans-serif" font-size="13" font-weight="bold" lengthAdjust="spacingAndGlyphs" textLength="399" x="25" y="475.9326">void drawNode(dataSet.stateNode.StateNode, java.lang.String)</text><polygon fill="#A80036" points="408,499.645,418,503.645,408,507.645,412,503.645" style="stroke: #A80036; stroke-width: 1.0;"/><line style="stroke: #A80036; stroke-width: 1.0;" x1="72" x2="414" y1="503.645" y2="503.645"/><text fill="#000000" font-family="sans-serif" font-size="13" lengthAdjust="spacingAndGlyphs" textLength="138" x="79" y="498.7886">append(java.lang.String)</text><polygon fill="#A80036" points="83,513.645,73,517.645,83,521.645,79,517.645" style="stroke: #A80036; stroke-width: 1.0;"/><line style="stroke: #A80036; stroke-width: 1.0; stroke-dasharray: 2.0,2.0;" x1="77" x2="419" y1="517.645" y2="517.645"/><polygon fill="#A80036" points="911.5,545.501,921.5,549.501,911.5,553.501,915.5,549.501" style="stroke: #A80036; stroke-width: 1.0;"/><line style="stroke: #A80036; stroke-width: 1.0;" x1="72" x2="917.5" y1="549.501" y2="549.501"/><text fill="#000000" font-family="sans-serif" font-size="13" lengthAdjust="spacingAndGlyphs" textLength="56" x="79" y="544.6445">getCode()</text><polygon fill="#A80036" points="83,559.501,73,563.501,83,567.501,79,563.501" style="stroke: #A80036; stroke-width: 1.0;"/><line style="stroke: #A80036; stroke-width: 1.0; stroke-dasharray: 2.0,2.0;" x1="77" x2="922.5" y1="563.501" y2="563.501"/><line style="stroke: #A80036; stroke-width: 1.0;" x1="72" x2="114" y1="595.3569" y2="595.3569"/><line style="stroke: #A80036; stroke-width: 1.0;" x1="114" x2="114" y1="595.3569" y2="608.3569"/><line style="stroke: #A80036; stroke-width: 1.0;" x1="73" x2="114" y1="608.3569" y2="608.3569"/><polygon fill="#A80036" points="83,604.3569,73,608.3569,83,612.3569,79,608.3569" style="stroke: #A80036; stroke-width: 1.0;"/><text fill="#000000" font-family="sans-serif" font-size="13" lengthAdjust="spacingAndGlyphs" textLength="334" x="79" y="590.5005">drawNode(dataSet.stateNode.StateNode, java.lang.String)</text><!--MD5=[06de2d57c0438f22a56b09683434715f]
@startuml
group void drawMain(dataSet.Class, java.lang.String)
	StateDiagram->StateDiagram : draw(dataSet.Function, dataSet.Member)
	StateDiagram->StringBuilder : append(java.lang.String)
		StringBuilder- ->StateDiagram
	StateDiagram->Writer : write(java.lang.String)
		Writer- ->StateDiagram
	StateDiagram->StringBuilder : toString()
		StringBuilder- ->StateDiagram
	StateDiagram->OutputStreamWriter : close()
		OutputStreamWriter- ->StateDiagram
	StateDiagram->Runtime : exec(java.lang.String)
		Runtime- ->StateDiagram
	StateDiagram->Runtime : getRuntime()
		Runtime- ->StateDiagram
	StateDiagram->PrintStream : println(java.lang.String)
		PrintStream- ->StateDiagram
end

group void drawNode(dataSet.stateNode.StateNode, java.lang.String)
	StateDiagram->StringBuilder : append(java.lang.String)
		StringBuilder- ->StateDiagram
	StateDiagram->StateNode : getCode()
		StateNode- ->StateDiagram
	StateDiagram->StateDiagram : drawNode(dataSet.stateNode.StateNode, java.lang.String)
end

@enduml

PlantUML version 1.2020.19(Tue Oct 13 00:10:01 KST 2020)
(APACHE source distribution)
Java Runtime: Java(TM) SE Runtime Environment
JVM: Java HotSpot(TM) 64-Bit Server VM
Default Encoding: MS949
Language: ko
Country: KR
--></g></svg>