<?xml version="1.0" encoding="UTF-8" standalone="no"?><svg xmlns="http://www.w3.org/2000/svg" xmlns:xlink="http://www.w3.org/1999/xlink" contentScriptType="application/ecmascript" contentStyleType="text/css" height="622px" preserveAspectRatio="none" style="width:789px;height:622px;" version="1.1" viewBox="0 0 789 622" width="789px" zoomAndPan="magnify"><defs><filter height="300%" id="fpghf6ysd2fc8" width="300%" x="-1" y="-1"><feGaussianBlur result="blurOut" stdDeviation="2.0"/><feColorMatrix in="blurOut" result="blurOut2" type="matrix" values="0 0 0 0 0 0 0 0 0 0 0 0 0 0 0 0 0 0 .4 0"/><feOffset dx="4.0" dy="4.0" in="blurOut2" result="blurOut3"/><feBlend in="SourceGraphic" in2="blurOut3" mode="normal"/></filter></defs><g><rect fill="#FFFFFF" filter="url(#fpghf6ysd2fc8)" height="65.7119" style="stroke: #000000; stroke-width: 2.0;" width="306" x="10" y="60.2295"/><rect fill="#FFFFFF" filter="url(#fpghf6ysd2fc8)" height="202.2798" style="stroke: #000000; stroke-width: 2.0;" width="557.5" x="10" y="139.9414"/><rect fill="#FFFFFF" filter="url(#fpghf6ysd2fc8)" height="203.2798" style="stroke: #000000; stroke-width: 2.0;" width="765.5" x="10" y="356.2212"/><line style="stroke: #A80036; stroke-width: 1.0; stroke-dasharray: 5.0,5.0;" x1="45" x2="45" y1="43.2295" y2="576.501"/><line style="stroke: #A80036; stroke-width: 1.0; stroke-dasharray: 5.0,5.0;" x1="214.5" x2="214.5" y1="43.2295" y2="576.501"/><line style="stroke: #A80036; stroke-width: 1.0; stroke-dasharray: 5.0,5.0;" x1="291.5" x2="291.5" y1="43.2295" y2="576.501"/><line style="stroke: #A80036; stroke-width: 1.0; stroke-dasharray: 5.0,5.0;" x1="375.5" x2="375.5" y1="43.2295" y2="576.501"/><line style="stroke: #A80036; stroke-width: 1.0; stroke-dasharray: 5.0,5.0;" x1="485.5" x2="485.5" y1="43.2295" y2="576.501"/><line style="stroke: #A80036; stroke-width: 1.0; stroke-dasharray: 5.0,5.0;" x1="601.5" x2="601.5" y1="43.2295" y2="576.501"/><line style="stroke: #A80036; stroke-width: 1.0; stroke-dasharray: 5.0,5.0;" x1="705.5" x2="705.5" y1="43.2295" y2="576.501"/><rect fill="#FEFECE" filter="url(#fpghf6ysd2fc8)" height="33.2295" style="stroke: #A80036; stroke-width: 1.5;" width="46" x="20" y="5"/><text fill="#000000" font-family="sans-serif" font-size="14" lengthAdjust="spacingAndGlyphs" textLength="32" x="27" y="28.1533">Base</text><rect fill="#FEFECE" filter="url(#fpghf6ysd2fc8)" height="33.2295" style="stroke: #A80036; stroke-width: 1.5;" width="46" x="20" y="575.501"/><text fill="#000000" font-family="sans-serif" font-size="14" lengthAdjust="spacingAndGlyphs" textLength="32" x="27" y="598.6543">Base</text><rect fill="#FEFECE" filter="url(#fpghf6ysd2fc8)" height="33.2295" style="stroke: #A80036; stroke-width: 1.5;" width="37" x="194.5" y="5"/><text fill="#000000" font-family="sans-serif" font-size="14" lengthAdjust="spacingAndGlyphs" textLength="23" x="201.5" y="28.1533">File</text><rect fill="#FEFECE" filter="url(#fpghf6ysd2fc8)" height="33.2295" style="stroke: #A80036; stroke-width: 1.5;" width="37" x="194.5" y="575.501"/><text fill="#000000" font-family="sans-serif" font-size="14" lengthAdjust="spacingAndGlyphs" textLength="23" x="201.5" y="598.6543">File</text><rect fill="#FEFECE" filter="url(#fpghf6ysd2fc8)" height="33.2295" style="stroke: #A80036; stroke-width: 1.5;" width="88" x="245.5" y="5"/><text fill="#000000" font-family="sans-serif" font-size="14" lengthAdjust="spacingAndGlyphs" textLength="74" x="252.5" y="28.1533">PrintStream</text><rect fill="#FEFECE" filter="url(#fpghf6ysd2fc8)" height="33.2295" style="stroke: #A80036; stroke-width: 1.5;" width="88" x="245.5" y="575.501"/><text fill="#000000" font-family="sans-serif" font-size="14" lengthAdjust="spacingAndGlyphs" textLength="74" x="252.5" y="598.6543">PrintStream</text><rect fill="#FEFECE" filter="url(#fpghf6ysd2fc8)" height="33.2295" style="stroke: #A80036; stroke-width: 1.5;" width="52" x="347.5" y="5"/><text fill="#000000" font-family="sans-serif" font-size="14" lengthAdjust="spacingAndGlyphs" textLength="38" x="354.5" y="28.1533">Writer</text><rect fill="#FEFECE" filter="url(#fpghf6ysd2fc8)" height="33.2295" style="stroke: #A80036; stroke-width: 1.5;" width="52" x="347.5" y="575.501"/><text fill="#000000" font-family="sans-serif" font-size="14" lengthAdjust="spacingAndGlyphs" textLength="38" x="354.5" y="598.6543">Writer</text><rect fill="#FEFECE" filter="url(#fpghf6ysd2fc8)" height="33.2295" style="stroke: #A80036; stroke-width: 1.5;" width="140" x="413.5" y="5"/><text fill="#000000" font-family="sans-serif" font-size="14" lengthAdjust="spacingAndGlyphs" textLength="126" x="420.5" y="28.1533">OutputStreamWriter</text><rect fill="#FEFECE" filter="url(#fpghf6ysd2fc8)" height="33.2295" style="stroke: #A80036; stroke-width: 1.5;" width="140" x="413.5" y="575.501"/><text fill="#000000" font-family="sans-serif" font-size="14" lengthAdjust="spacingAndGlyphs" textLength="126" x="420.5" y="598.6543">OutputStreamWriter</text><rect fill="#FEFECE" filter="url(#fpghf6ysd2fc8)" height="33.2295" style="stroke: #A80036; stroke-width: 1.5;" width="65" x="567.5" y="5"/><text fill="#000000" font-family="sans-serif" font-size="14" lengthAdjust="spacingAndGlyphs" textLength="51" x="574.5" y="28.1533">Process</text><rect fill="#FEFECE" filter="url(#fpghf6ysd2fc8)" height="33.2295" style="stroke: #A80036; stroke-width: 1.5;" width="65" x="567.5" y="575.501"/><text fill="#000000" font-family="sans-serif" font-size="14" lengthAdjust="spacingAndGlyphs" textLength="51" x="574.5" y="598.6543">Process</text><rect fill="#FEFECE" filter="url(#fpghf6ysd2fc8)" height="33.2295" style="stroke: #A80036; stroke-width: 1.5;" width="115" x="646.5" y="5"/><text fill="#000000" font-family="sans-serif" font-size="14" lengthAdjust="spacingAndGlyphs" textLength="101" x="653.5" y="28.1533">BufferedReader</text><rect fill="#FEFECE" filter="url(#fpghf6ysd2fc8)" height="33.2295" style="stroke: #A80036; stroke-width: 1.5;" width="115" x="646.5" y="575.501"/><text fill="#000000" font-family="sans-serif" font-size="14" lengthAdjust="spacingAndGlyphs" textLength="101" x="653.5" y="598.6543">BufferedReader</text><path d="M10,60.2295 L311,60.2295 L311,69.2295 L301,79.2295 L10,79.2295 L10,60.2295 " fill="#EEEEEE" style="stroke: #000000; stroke-width: 1.0;"/><rect fill="none" height="65.7119" style="stroke: #000000; stroke-width: 2.0;" width="306" x="10" y="60.2295"/><text fill="#000000" font-family="sans-serif" font-size="13" font-weight="bold" lengthAdjust="spacingAndGlyphs" textLength="256" x="25" y="76.229">String makeDateFolder(java.lang.String)</text><polygon fill="#A80036" points="203,99.9414,213,103.9414,203,107.9414,207,103.9414" style="stroke: #A80036; stroke-width: 1.0;"/><line style="stroke: #A80036; stroke-width: 1.0;" x1="45" x2="209" y1="103.9414" y2="103.9414"/><text fill="#000000" font-family="sans-serif" font-size="13" lengthAdjust="spacingAndGlyphs" textLength="40" x="52" y="99.085">mkdir()</text><polygon fill="#A80036" points="56,113.9414,46,117.9414,56,121.9414,52,117.9414" style="stroke: #A80036; stroke-width: 1.0;"/><line style="stroke: #A80036; stroke-width: 1.0; stroke-dasharray: 2.0,2.0;" x1="50" x2="214" y1="117.9414" y2="117.9414"/><path d="M10,139.9414 L363,139.9414 L363,148.9414 L353,158.9414 L10,158.9414 L10,139.9414 " fill="#EEEEEE" style="stroke: #000000; stroke-width: 1.0;"/><rect fill="none" height="202.2798" style="stroke: #000000; stroke-width: 2.0;" width="557.5" x="10" y="139.9414"/><text fill="#000000" font-family="sans-serif" font-size="13" font-weight="bold" lengthAdjust="spacingAndGlyphs" textLength="308" x="25" y="155.9409">void makeFile(java.lang.String, java.lang.String)</text><polygon fill="#A80036" points="279.5,179.6533,289.5,183.6533,279.5,187.6533,283.5,183.6533" style="stroke: #A80036; stroke-width: 1.0;"/><line style="stroke: #A80036; stroke-width: 1.0;" x1="45" x2="285.5" y1="183.6533" y2="183.6533"/><text fill="#000000" font-family="sans-serif" font-size="13" lengthAdjust="spacingAndGlyphs" textLength="131" x="52" y="178.7969">println(java.lang.String)</text><polygon fill="#A80036" points="56,193.6533,46,197.6533,56,201.6533,52,197.6533" style="stroke: #A80036; stroke-width: 1.0;"/><line style="stroke: #A80036; stroke-width: 1.0; stroke-dasharray: 2.0,2.0;" x1="50" x2="290.5" y1="197.6533" y2="197.6533"/><polygon fill="#A80036" points="363.5,225.5093,373.5,229.5093,363.5,233.5093,367.5,229.5093" style="stroke: #A80036; stroke-width: 1.0;"/><line style="stroke: #A80036; stroke-width: 1.0;" x1="45" x2="369.5" y1="229.5093" y2="229.5093"/><text fill="#000000" font-family="sans-serif" font-size="13" lengthAdjust="spacingAndGlyphs" textLength="123" x="52" y="224.6528">write(java.lang.String)</text><polygon fill="#A80036" points="56,239.5093,46,243.5093,56,247.5093,52,243.5093" style="stroke: #A80036; stroke-width: 1.0;"/><line style="stroke: #A80036; stroke-width: 1.0; stroke-dasharray: 2.0,2.0;" x1="50" x2="374.5" y1="243.5093" y2="243.5093"/><polygon fill="#A80036" points="473.5,271.3652,483.5,275.3652,473.5,279.3652,477.5,275.3652" style="stroke: #A80036; stroke-width: 1.0;"/><line style="stroke: #A80036; stroke-width: 1.0;" x1="45" x2="479.5" y1="275.3652" y2="275.3652"/><text fill="#000000" font-family="sans-serif" font-size="13" lengthAdjust="spacingAndGlyphs" textLength="39" x="52" y="270.5088">close()</text><polygon fill="#A80036" points="56,285.3652,46,289.3652,56,293.3652,52,289.3652" style="stroke: #A80036; stroke-width: 1.0;"/><line style="stroke: #A80036; stroke-width: 1.0; stroke-dasharray: 2.0,2.0;" x1="50" x2="484.5" y1="289.3652" y2="289.3652"/><line style="stroke: #A80036; stroke-width: 1.0;" x1="45" x2="87" y1="321.2212" y2="321.2212"/><line style="stroke: #A80036; stroke-width: 1.0;" x1="87" x2="87" y1="321.2212" y2="334.2212"/><line style="stroke: #A80036; stroke-width: 1.0;" x1="46" x2="87" y1="334.2212" y2="334.2212"/><polygon fill="#A80036" points="56,330.2212,46,334.2212,56,338.2212,52,334.2212" style="stroke: #A80036; stroke-width: 1.0;"/><text fill="#000000" font-family="sans-serif" font-size="13" lengthAdjust="spacingAndGlyphs" textLength="156" x="52" y="316.3647">printLog(java.lang.Process)</text><path d="M10,356.2212 L259,356.2212 L259,365.2212 L249,375.2212 L10,375.2212 L10,356.2212 " fill="#EEEEEE" style="stroke: #000000; stroke-width: 1.0;"/><rect fill="none" height="203.2798" style="stroke: #000000; stroke-width: 2.0;" width="765.5" x="10" y="356.2212"/><text fill="#000000" font-family="sans-serif" font-size="13" font-weight="bold" lengthAdjust="spacingAndGlyphs" textLength="204" x="25" y="372.2207">void printLog(java.lang.Process)</text><polygon fill="#A80036" points="590,395.9331,600,399.9331,590,403.9331,594,399.9331" style="stroke: #A80036; stroke-width: 1.0;"/><line style="stroke: #A80036; stroke-width: 1.0;" x1="45" x2="596" y1="399.9331" y2="399.9331"/><text fill="#000000" font-family="sans-serif" font-size="13" lengthAdjust="spacingAndGlyphs" textLength="96" x="52" y="395.0767">getInputStream()</text><polygon fill="#A80036" points="56,409.9331,46,413.9331,56,417.9331,52,413.9331" style="stroke: #A80036; stroke-width: 1.0;"/><line style="stroke: #A80036; stroke-width: 1.0; stroke-dasharray: 2.0,2.0;" x1="50" x2="601" y1="413.9331" y2="413.9331"/><polygon fill="#A80036" points="590,441.7891,600,445.7891,590,449.7891,594,445.7891" style="stroke: #A80036; stroke-width: 1.0;"/><line style="stroke: #A80036; stroke-width: 1.0;" x1="45" x2="596" y1="445.7891" y2="445.7891"/><text fill="#000000" font-family="sans-serif" font-size="13" lengthAdjust="spacingAndGlyphs" textLength="107" x="52" y="440.9326">getOutputStream()</text><polygon fill="#A80036" points="56,455.7891,46,459.7891,56,463.7891,52,459.7891" style="stroke: #A80036; stroke-width: 1.0;"/><line style="stroke: #A80036; stroke-width: 1.0; stroke-dasharray: 2.0,2.0;" x1="50" x2="601" y1="459.7891" y2="459.7891"/><polygon fill="#A80036" points="279.5,487.645,289.5,491.645,279.5,495.645,283.5,491.645" style="stroke: #A80036; stroke-width: 1.0;"/><line style="stroke: #A80036; stroke-width: 1.0;" x1="45" x2="285.5" y1="491.645" y2="491.645"/><text fill="#000000" font-family="sans-serif" font-size="13" lengthAdjust="spacingAndGlyphs" textLength="131" x="52" y="486.7886">println(java.lang.String)</text><polygon fill="#A80036" points="56,501.645,46,505.645,56,509.645,52,505.645" style="stroke: #A80036; stroke-width: 1.0;"/><line style="stroke: #A80036; stroke-width: 1.0; stroke-dasharray: 2.0,2.0;" x1="50" x2="290.5" y1="505.645" y2="505.645"/><polygon fill="#A80036" points="694,533.501,704,537.501,694,541.501,698,537.501" style="stroke: #A80036; stroke-width: 1.0;"/><line style="stroke: #A80036; stroke-width: 1.0;" x1="45" x2="700" y1="537.501" y2="537.501"/><text fill="#000000" font-family="sans-serif" font-size="13" lengthAdjust="spacingAndGlyphs" textLength="57" x="52" y="532.6445">readLine()</text><polygon fill="#A80036" points="56,547.501,46,551.501,56,555.501,52,551.501" style="stroke: #A80036; stroke-width: 1.0;"/><line style="stroke: #A80036; stroke-width: 1.0; stroke-dasharray: 2.0,2.0;" x1="50" x2="705" y1="551.501" y2="551.501"/><!--MD5=[d6c65f70702a2c61899af9bc3e9b3fbe]
@startuml
group String makeDateFolder(java.lang.String)
	Base->File : mkdir()
		File- ->Base
end

group void makeFile(java.lang.String, java.lang.String)
	Base->PrintStream : println(java.lang.String)
		PrintStream- ->Base
	Base->Writer : write(java.lang.String)
		Writer- ->Base
	Base->OutputStreamWriter : close()
		OutputStreamWriter- ->Base
	Base->Base : printLog(java.lang.Process)
end

group void printLog(java.lang.Process)
	Base->Process : getInputStream()
		Process- ->Base
	Base->Process : getOutputStream()
		Process- ->Base
	Base->PrintStream : println(java.lang.String)
		PrintStream- ->Base
	Base->BufferedReader : readLine()
		BufferedReader- ->Base
end

@enduml

PlantUML version 1.2020.19(Tue Oct 13 00:10:01 KST 2020)
(APACHE source distribution)
Java Runtime: Java(TM) SE Runtime Environment
JVM: Java HotSpot(TM) 64-Bit Server VM
Default Encoding: MS949
Language: ko
Country: KR
--></g></svg>