<?xml version="1.0" encoding="UTF-8" standalone="no"?><svg xmlns="http://www.w3.org/2000/svg" xmlns:xlink="http://www.w3.org/1999/xlink" contentScriptType="application/ecmascript" contentStyleType="text/css" height="1147px" preserveAspectRatio="none" style="width:1501px;height:1147px;" version="1.1" viewBox="0 0 1501 1147" width="1501px" zoomAndPan="magnify"><defs><filter height="300%" id="fwk72yhuinfe8" width="300%" x="-1" y="-1"><feGaussianBlur result="blurOut" stdDeviation="2.0"/><feColorMatrix in="blurOut" result="blurOut2" type="matrix" values="0 0 0 0 0 0 0 0 0 0 0 0 0 0 0 0 0 0 .4 0"/><feOffset dx="4.0" dy="4.0" in="blurOut2" result="blurOut3"/><feBlend in="SourceGraphic" in2="blurOut3" mode="normal"/></filter></defs><g><rect fill="#FFFFFF" filter="url(#fwk72yhuinfe8)" height="202.2798" style="stroke: #000000; stroke-width: 2.0;" width="898.5" x="10" y="60.2295"/><rect fill="#FFFFFF" filter="url(#fwk72yhuinfe8)" height="156.4238" style="stroke: #000000; stroke-width: 2.0;" width="1007.5" x="10" y="276.5093"/><rect fill="#FFFFFF" filter="url(#fwk72yhuinfe8)" height="249.1357" style="stroke: #000000; stroke-width: 2.0;" width="1188.5" x="10" y="446.9331"/><rect fill="#FFFFFF" filter="url(#fwk72yhuinfe8)" height="248.1357" style="stroke: #000000; stroke-width: 2.0;" width="1257.5" x="10" y="710.0688"/><rect fill="#FFFFFF" filter="url(#fwk72yhuinfe8)" height="111.5679" style="stroke: #000000; stroke-width: 2.0;" width="1477.5" x="10" y="972.2046"/><line style="stroke: #A80036; stroke-width: 1.0; stroke-dasharray: 5.0,5.0;" x1="61" x2="61" y1="43.2295" y2="1100.7725"/><line style="stroke: #A80036; stroke-width: 1.0; stroke-dasharray: 5.0,5.0;" x1="681.5" x2="681.5" y1="43.2295" y2="1100.7725"/><line style="stroke: #A80036; stroke-width: 1.0; stroke-dasharray: 5.0,5.0;" x1="772.5" x2="772.5" y1="43.2295" y2="1100.7725"/><line style="stroke: #A80036; stroke-width: 1.0; stroke-dasharray: 5.0,5.0;" x1="863.5" x2="863.5" y1="43.2295" y2="1100.7725"/><line style="stroke: #A80036; stroke-width: 1.0; stroke-dasharray: 5.0,5.0;" x1="957.5" x2="957.5" y1="43.2295" y2="1100.7725"/><line style="stroke: #A80036; stroke-width: 1.0; stroke-dasharray: 5.0,5.0;" x1="1054.5" x2="1054.5" y1="43.2295" y2="1100.7725"/><line style="stroke: #A80036; stroke-width: 1.0; stroke-dasharray: 5.0,5.0;" x1="1144.5" x2="1144.5" y1="43.2295" y2="1100.7725"/><line style="stroke: #A80036; stroke-width: 1.0; stroke-dasharray: 5.0,5.0;" x1="1227.5" x2="1227.5" y1="43.2295" y2="1100.7725"/><line style="stroke: #A80036; stroke-width: 1.0; stroke-dasharray: 5.0,5.0;" x1="1295.5" x2="1295.5" y1="43.2295" y2="1100.7725"/><line style="stroke: #A80036; stroke-width: 1.0; stroke-dasharray: 5.0,5.0;" x1="1405.5" x2="1405.5" y1="43.2295" y2="1100.7725"/><rect fill="#FEFECE" filter="url(#fwk72yhuinfe8)" height="33.2295" style="stroke: #A80036; stroke-width: 1.5;" width="78" x="20" y="5"/><text fill="#000000" font-family="sans-serif" font-size="14" lengthAdjust="spacingAndGlyphs" textLength="64" x="27" y="28.1533">Sequence</text><rect fill="#FEFECE" filter="url(#fwk72yhuinfe8)" height="33.2295" style="stroke: #A80036; stroke-width: 1.5;" width="78" x="20" y="1099.7725"/><text fill="#000000" font-family="sans-serif" font-size="14" lengthAdjust="spacingAndGlyphs" textLength="64" x="27" y="1122.9258">Sequence</text><rect fill="#FEFECE" filter="url(#fwk72yhuinfe8)" height="33.2295" style="stroke: #A80036; stroke-width: 1.5;" width="65" x="647.5" y="5"/><text fill="#000000" font-family="sans-serif" font-size="14" lengthAdjust="spacingAndGlyphs" textLength="51" x="654.5" y="28.1533">Process</text><rect fill="#FEFECE" filter="url(#fwk72yhuinfe8)" height="33.2295" style="stroke: #A80036; stroke-width: 1.5;" width="65" x="647.5" y="1099.7725"/><text fill="#000000" font-family="sans-serif" font-size="14" lengthAdjust="spacingAndGlyphs" textLength="51" x="654.5" y="1122.9258">Process</text><rect fill="#FEFECE" filter="url(#fwk72yhuinfe8)" height="33.2295" style="stroke: #A80036; stroke-width: 1.5;" width="88" x="726.5" y="5"/><text fill="#000000" font-family="sans-serif" font-size="14" lengthAdjust="spacingAndGlyphs" textLength="74" x="733.5" y="28.1533">PrintStream</text><rect fill="#FEFECE" filter="url(#fwk72yhuinfe8)" height="33.2295" style="stroke: #A80036; stroke-width: 1.5;" width="88" x="726.5" y="1099.7725"/><text fill="#000000" font-family="sans-serif" font-size="14" lengthAdjust="spacingAndGlyphs" textLength="74" x="733.5" y="1122.9258">PrintStream</text><rect fill="#FEFECE" filter="url(#fwk72yhuinfe8)" height="33.2295" style="stroke: #A80036; stroke-width: 1.5;" width="66" x="828.5" y="5"/><text fill="#000000" font-family="sans-serif" font-size="14" lengthAdjust="spacingAndGlyphs" textLength="52" x="835.5" y="28.1533">DataList</text><rect fill="#FEFECE" filter="url(#fwk72yhuinfe8)" height="33.2295" style="stroke: #A80036; stroke-width: 1.5;" width="66" x="828.5" y="1099.7725"/><text fill="#000000" font-family="sans-serif" font-size="14" lengthAdjust="spacingAndGlyphs" textLength="52" x="835.5" y="1122.9258">DataList</text><rect fill="#FEFECE" filter="url(#fwk72yhuinfe8)" height="33.2295" style="stroke: #A80036; stroke-width: 1.5;" width="95" x="908.5" y="5"/><text fill="#000000" font-family="sans-serif" font-size="14" lengthAdjust="spacingAndGlyphs" textLength="81" x="915.5" y="28.1533">StringBuilder</text><rect fill="#FEFECE" filter="url(#fwk72yhuinfe8)" height="33.2295" style="stroke: #A80036; stroke-width: 1.5;" width="95" x="908.5" y="1099.7725"/><text fill="#000000" font-family="sans-serif" font-size="14" lengthAdjust="spacingAndGlyphs" textLength="81" x="915.5" y="1122.9258">StringBuilder</text><rect fill="#FEFECE" filter="url(#fwk72yhuinfe8)" height="33.2295" style="stroke: #A80036; stroke-width: 1.5;" width="70" x="1017.5" y="5"/><text fill="#000000" font-family="sans-serif" font-size="14" lengthAdjust="spacingAndGlyphs" textLength="56" x="1024.5" y="28.1533">ArrayList</text><rect fill="#FEFECE" filter="url(#fwk72yhuinfe8)" height="33.2295" style="stroke: #A80036; stroke-width: 1.5;" width="70" x="1017.5" y="1099.7725"/><text fill="#000000" font-family="sans-serif" font-size="14" lengthAdjust="spacingAndGlyphs" textLength="56" x="1024.5" y="1122.9258">ArrayList</text><rect fill="#FEFECE" filter="url(#fwk72yhuinfe8)" height="33.2295" style="stroke: #A80036; stroke-width: 1.5;" width="83" x="1101.5" y="5"/><text fill="#000000" font-family="sans-serif" font-size="14" lengthAdjust="spacingAndGlyphs" textLength="69" x="1108.5" y="28.1533">Data_base</text><rect fill="#FEFECE" filter="url(#fwk72yhuinfe8)" height="33.2295" style="stroke: #A80036; stroke-width: 1.5;" width="83" x="1101.5" y="1099.7725"/><text fill="#000000" font-family="sans-serif" font-size="14" lengthAdjust="spacingAndGlyphs" textLength="69" x="1108.5" y="1122.9258">Data_base</text><rect fill="#FEFECE" filter="url(#fwk72yhuinfe8)" height="33.2295" style="stroke: #A80036; stroke-width: 1.5;" width="55" x="1198.5" y="5"/><text fill="#000000" font-family="sans-serif" font-size="14" lengthAdjust="spacingAndGlyphs" textLength="41" x="1205.5" y="28.1533">Vector</text><rect fill="#FEFECE" filter="url(#fwk72yhuinfe8)" height="33.2295" style="stroke: #A80036; stroke-width: 1.5;" width="55" x="1198.5" y="1099.7725"/><text fill="#000000" font-family="sans-serif" font-size="14" lengthAdjust="spacingAndGlyphs" textLength="41" x="1205.5" y="1122.9258">Vector</text><rect fill="#FEFECE" filter="url(#fwk72yhuinfe8)" height="33.2295" style="stroke: #A80036; stroke-width: 1.5;" width="52" x="1267.5" y="5"/><text fill="#000000" font-family="sans-serif" font-size="14" lengthAdjust="spacingAndGlyphs" textLength="38" x="1274.5" y="28.1533">Writer</text><rect fill="#FEFECE" filter="url(#fwk72yhuinfe8)" height="33.2295" style="stroke: #A80036; stroke-width: 1.5;" width="52" x="1267.5" y="1099.7725"/><text fill="#000000" font-family="sans-serif" font-size="14" lengthAdjust="spacingAndGlyphs" textLength="38" x="1274.5" y="1122.9258">Writer</text><rect fill="#FEFECE" filter="url(#fwk72yhuinfe8)" height="33.2295" style="stroke: #A80036; stroke-width: 1.5;" width="140" x="1333.5" y="5"/><text fill="#000000" font-family="sans-serif" font-size="14" lengthAdjust="spacingAndGlyphs" textLength="126" x="1340.5" y="28.1533">OutputStreamWriter</text><rect fill="#FEFECE" filter="url(#fwk72yhuinfe8)" height="33.2295" style="stroke: #A80036; stroke-width: 1.5;" width="140" x="1333.5" y="1099.7725"/><text fill="#000000" font-family="sans-serif" font-size="14" lengthAdjust="spacingAndGlyphs" textLength="126" x="1340.5" y="1122.9258">OutputStreamWriter</text><path d="M10,60.2295 L230,60.2295 L230,69.2295 L220,79.2295 L10,79.2295 L10,60.2295 " fill="#EEEEEE" style="stroke: #000000; stroke-width: 1.0;"/><rect fill="none" height="202.2798" style="stroke: #000000; stroke-width: 2.0;" width="898.5" x="10" y="60.2295"/><text fill="#000000" font-family="sans-serif" font-size="13" font-weight="bold" lengthAdjust="spacingAndGlyphs" textLength="175" x="25" y="76.229">void main(dataSet.DataList)</text><line style="stroke: #A80036; stroke-width: 1.0;" x1="61" x2="103" y1="103.9414" y2="103.9414"/><line style="stroke: #A80036; stroke-width: 1.0;" x1="103" x2="103" y1="103.9414" y2="116.9414"/><line style="stroke: #A80036; stroke-width: 1.0;" x1="62" x2="103" y1="116.9414" y2="116.9414"/><polygon fill="#A80036" points="72,112.9414,62,116.9414,72,120.9414,68,116.9414" style="stroke: #A80036; stroke-width: 1.0;"/><text fill="#000000" font-family="sans-serif" font-size="13" lengthAdjust="spacingAndGlyphs" textLength="245" x="68" y="99.085">makeFile(java.lang.String, java.lang.String)</text><polygon fill="#A80036" points="670,144.7974,680,148.7974,670,152.7974,674,148.7974" style="stroke: #A80036; stroke-width: 1.0;"/><line style="stroke: #A80036; stroke-width: 1.0;" x1="61" x2="676" y1="148.7974" y2="148.7974"/><text fill="#000000" font-family="sans-serif" font-size="13" lengthAdjust="spacingAndGlyphs" textLength="50" x="68" y="143.9409">waitFor()</text><polygon fill="#A80036" points="72,158.7974,62,162.7974,72,166.7974,68,162.7974" style="stroke: #A80036; stroke-width: 1.0;"/><line style="stroke: #A80036; stroke-width: 1.0; stroke-dasharray: 2.0,2.0;" x1="66" x2="681" y1="162.7974" y2="162.7974"/><polygon fill="#A80036" points="760.5,190.6533,770.5,194.6533,760.5,198.6533,764.5,194.6533" style="stroke: #A80036; stroke-width: 1.0;"/><line style="stroke: #A80036; stroke-width: 1.0;" x1="61" x2="766.5" y1="194.6533" y2="194.6533"/><text fill="#000000" font-family="sans-serif" font-size="13" lengthAdjust="spacingAndGlyphs" textLength="131" x="68" y="189.7969">println(java.lang.String)</text><polygon fill="#A80036" points="72,204.6533,62,208.6533,72,212.6533,68,208.6533" style="stroke: #A80036; stroke-width: 1.0;"/><line style="stroke: #A80036; stroke-width: 1.0; stroke-dasharray: 2.0,2.0;" x1="66" x2="771.5" y1="208.6533" y2="208.6533"/><polygon fill="#A80036" points="851.5,236.5093,861.5,240.5093,851.5,244.5093,855.5,240.5093" style="stroke: #A80036; stroke-width: 1.0;"/><line style="stroke: #A80036; stroke-width: 1.0;" x1="61" x2="857.5" y1="240.5093" y2="240.5093"/><text fill="#000000" font-family="sans-serif" font-size="13" lengthAdjust="spacingAndGlyphs" textLength="80" x="68" y="235.6528">getClassList()</text><polygon fill="#A80036" points="72,250.5093,62,254.5093,72,258.5093,68,254.5093" style="stroke: #A80036; stroke-width: 1.0;"/><line style="stroke: #A80036; stroke-width: 1.0; stroke-dasharray: 2.0,2.0;" x1="66" x2="862.5" y1="254.5093" y2="254.5093"/><path d="M10,276.5093 L264,276.5093 L264,285.5093 L254,295.5093 L10,295.5093 L10,276.5093 " fill="#EEEEEE" style="stroke: #000000; stroke-width: 1.0;"/><rect fill="none" height="156.4238" style="stroke: #000000; stroke-width: 2.0;" width="1007.5" x="10" y="276.5093"/><text fill="#000000" font-family="sans-serif" font-size="13" font-weight="bold" lengthAdjust="spacingAndGlyphs" textLength="209" x="25" y="292.5088">String makeString(dataSet.Class)</text><polygon fill="#A80036" points="946,316.2212,956,320.2212,946,324.2212,950,320.2212" style="stroke: #A80036; stroke-width: 1.0;"/><line style="stroke: #A80036; stroke-width: 1.0;" x1="61" x2="952" y1="320.2212" y2="320.2212"/><text fill="#000000" font-family="sans-serif" font-size="13" lengthAdjust="spacingAndGlyphs" textLength="138" x="68" y="315.3647">append(java.lang.String)</text><polygon fill="#A80036" points="72,330.2212,62,334.2212,72,338.2212,68,334.2212" style="stroke: #A80036; stroke-width: 1.0;"/><line style="stroke: #A80036; stroke-width: 1.0; stroke-dasharray: 2.0,2.0;" x1="66" x2="957" y1="334.2212" y2="334.2212"/><line style="stroke: #A80036; stroke-width: 1.0;" x1="61" x2="103" y1="366.0771" y2="366.0771"/><line style="stroke: #A80036; stroke-width: 1.0;" x1="103" x2="103" y1="366.0771" y2="379.0771"/><line style="stroke: #A80036; stroke-width: 1.0;" x1="62" x2="103" y1="379.0771" y2="379.0771"/><polygon fill="#A80036" points="72,375.0771,62,379.0771,72,383.0771,68,379.0771" style="stroke: #A80036; stroke-width: 1.0;"/><text fill="#000000" font-family="sans-serif" font-size="13" lengthAdjust="spacingAndGlyphs" textLength="607" x="68" y="361.2207">drawConnect(dataSet.Function, java.util.Stack&lt;java.lang.String&gt;, java.lang.String, java.lang.StringBuilder)</text><polygon fill="#A80036" points="946,406.9331,956,410.9331,946,414.9331,950,410.9331" style="stroke: #A80036; stroke-width: 1.0;"/><line style="stroke: #A80036; stroke-width: 1.0;" x1="61" x2="952" y1="410.9331" y2="410.9331"/><text fill="#000000" font-family="sans-serif" font-size="13" lengthAdjust="spacingAndGlyphs" textLength="53" x="68" y="406.0767">toString()</text><polygon fill="#A80036" points="72,420.9331,62,424.9331,72,428.9331,68,424.9331" style="stroke: #A80036; stroke-width: 1.0;"/><line style="stroke: #A80036; stroke-width: 1.0; stroke-dasharray: 2.0,2.0;" x1="66" x2="957" y1="424.9331" y2="424.9331"/><path d="M10,446.9331 L384,446.9331 L384,455.9331 L374,465.9331 L10,465.9331 L10,446.9331 " fill="#EEEEEE" style="stroke: #000000; stroke-width: 1.0;"/><rect fill="none" height="249.1357" style="stroke: #000000; stroke-width: 2.0;" width="1188.5" x="10" y="446.9331"/><text fill="#000000" font-family="sans-serif" font-size="13" font-weight="bold" lengthAdjust="spacingAndGlyphs" textLength="329" x="25" y="462.9326">ArrayList&lt;Function&gt; getCallerFunList(dataSet.Class)</text><polygon fill="#A80036" points="1042.5,486.645,1052.5,490.645,1042.5,494.645,1046.5,490.645" style="stroke: #A80036; stroke-width: 1.0;"/><line style="stroke: #A80036; stroke-width: 1.0;" x1="61" x2="1048.5" y1="490.645" y2="490.645"/><text fill="#000000" font-family="sans-serif" font-size="13" lengthAdjust="spacingAndGlyphs" textLength="38" x="68" y="485.7886">add(E)</text><polygon fill="#A80036" points="72,500.645,62,504.645,72,508.645,68,504.645" style="stroke: #A80036; stroke-width: 1.0;"/><line style="stroke: #A80036; stroke-width: 1.0; stroke-dasharray: 2.0,2.0;" x1="66" x2="1053.5" y1="504.645" y2="504.645"/><polygon fill="#A80036" points="851.5,532.501,861.5,536.501,851.5,540.501,855.5,536.501" style="stroke: #A80036; stroke-width: 1.0;"/><line style="stroke: #A80036; stroke-width: 1.0;" x1="61" x2="857.5" y1="536.501" y2="536.501"/><text fill="#000000" font-family="sans-serif" font-size="13" lengthAdjust="spacingAndGlyphs" textLength="80" x="68" y="531.6445">getClassList()</text><polygon fill="#A80036" points="72,546.501,62,550.501,72,554.501,68,550.501" style="stroke: #A80036; stroke-width: 1.0;"/><line style="stroke: #A80036; stroke-width: 1.0; stroke-dasharray: 2.0,2.0;" x1="66" x2="862.5" y1="550.501" y2="550.501"/><polygon fill="#A80036" points="1133,578.3569,1143,582.3569,1133,586.3569,1137,582.3569" style="stroke: #A80036; stroke-width: 1.0;"/><line style="stroke: #A80036; stroke-width: 1.0;" x1="61" x2="1139" y1="582.3569" y2="582.3569"/><text fill="#000000" font-family="sans-serif" font-size="13" lengthAdjust="spacingAndGlyphs" textLength="69" x="68" y="577.5005">getCallList()</text><polygon fill="#A80036" points="72,592.3569,62,596.3569,72,600.3569,68,596.3569" style="stroke: #A80036; stroke-width: 1.0;"/><line style="stroke: #A80036; stroke-width: 1.0; stroke-dasharray: 2.0,2.0;" x1="66" x2="1144" y1="596.3569" y2="596.3569"/><polygon fill="#A80036" points="851.5,624.2129,861.5,628.2129,851.5,632.2129,855.5,628.2129" style="stroke: #A80036; stroke-width: 1.0;"/><line style="stroke: #A80036; stroke-width: 1.0;" x1="61" x2="857.5" y1="628.2129" y2="628.2129"/><text fill="#000000" font-family="sans-serif" font-size="13" lengthAdjust="spacingAndGlyphs" textLength="97" x="68" y="623.3564">getFunctionList()</text><polygon fill="#A80036" points="72,638.2129,62,642.2129,72,646.2129,68,642.2129" style="stroke: #A80036; stroke-width: 1.0;"/><line style="stroke: #A80036; stroke-width: 1.0; stroke-dasharray: 2.0,2.0;" x1="66" x2="862.5" y1="642.2129" y2="642.2129"/><polygon fill="#A80036" points="1133,670.0688,1143,674.0688,1133,678.0688,1137,674.0688" style="stroke: #A80036; stroke-width: 1.0;"/><line style="stroke: #A80036; stroke-width: 1.0;" x1="61" x2="1139" y1="674.0688" y2="674.0688"/><text fill="#000000" font-family="sans-serif" font-size="13" lengthAdjust="spacingAndGlyphs" textLength="70" x="68" y="669.2124">getHasList()</text><polygon fill="#A80036" points="72,684.0688,62,688.0688,72,692.0688,68,688.0688" style="stroke: #A80036; stroke-width: 1.0;"/><line style="stroke: #A80036; stroke-width: 1.0; stroke-dasharray: 2.0,2.0;" x1="66" x2="1144" y1="688.0688" y2="688.0688"/><path d="M10,710.0688 L765,710.0688 L765,719.0688 L755,729.0688 L10,729.0688 L10,710.0688 " fill="#EEEEEE" style="stroke: #000000; stroke-width: 1.0;"/><rect fill="none" height="248.1357" style="stroke: #000000; stroke-width: 2.0;" width="1257.5" x="10" y="710.0688"/><text fill="#000000" font-family="sans-serif" font-size="13" font-weight="bold" lengthAdjust="spacingAndGlyphs" textLength="710" x="25" y="726.0684">void drawConnect(dataSet.Function, java.util.Stack&lt;java.lang.String&gt;, java.lang.String, java.lang.StringBuilder)</text><polygon fill="#A80036" points="946,749.7808,956,753.7808,946,757.7808,950,753.7808" style="stroke: #A80036; stroke-width: 1.0;"/><line style="stroke: #A80036; stroke-width: 1.0;" x1="61" x2="952" y1="753.7808" y2="753.7808"/><text fill="#000000" font-family="sans-serif" font-size="13" lengthAdjust="spacingAndGlyphs" textLength="138" x="68" y="748.9243">append(java.lang.String)</text><polygon fill="#A80036" points="72,763.7808,62,767.7808,72,771.7808,68,767.7808" style="stroke: #A80036; stroke-width: 1.0;"/><line style="stroke: #A80036; stroke-width: 1.0; stroke-dasharray: 2.0,2.0;" x1="66" x2="957" y1="767.7808" y2="767.7808"/><polygon fill="#A80036" points="1216,795.6367,1226,799.6367,1216,803.6367,1220,799.6367" style="stroke: #A80036; stroke-width: 1.0;"/><line style="stroke: #A80036; stroke-width: 1.0;" x1="61" x2="1222" y1="799.6367" y2="799.6367"/><text fill="#000000" font-family="sans-serif" font-size="13" lengthAdjust="spacingAndGlyphs" textLength="38" x="68" y="794.7803">add(E)</text><polygon fill="#A80036" points="72,809.6367,62,813.6367,72,817.6367,68,813.6367" style="stroke: #A80036; stroke-width: 1.0;"/><line style="stroke: #A80036; stroke-width: 1.0; stroke-dasharray: 2.0,2.0;" x1="66" x2="1227" y1="813.6367" y2="813.6367"/><line style="stroke: #A80036; stroke-width: 1.0;" x1="61" x2="103" y1="845.4927" y2="845.4927"/><line style="stroke: #A80036; stroke-width: 1.0;" x1="103" x2="103" y1="845.4927" y2="858.4927"/><line style="stroke: #A80036; stroke-width: 1.0;" x1="62" x2="103" y1="858.4927" y2="858.4927"/><polygon fill="#A80036" points="72,854.4927,62,858.4927,72,862.4927,68,858.4927" style="stroke: #A80036; stroke-width: 1.0;"/><text fill="#000000" font-family="sans-serif" font-size="13" lengthAdjust="spacingAndGlyphs" textLength="607" x="68" y="840.6362">drawConnect(dataSet.Function, java.util.Stack&lt;java.lang.String&gt;, java.lang.String, java.lang.StringBuilder)</text><polygon fill="#A80036" points="851.5,886.3486,861.5,890.3486,851.5,894.3486,855.5,890.3486" style="stroke: #A80036; stroke-width: 1.0;"/><line style="stroke: #A80036; stroke-width: 1.0;" x1="61" x2="857.5" y1="890.3486" y2="890.3486"/><text fill="#000000" font-family="sans-serif" font-size="13" lengthAdjust="spacingAndGlyphs" textLength="97" x="68" y="885.4922">getFunctionList()</text><polygon fill="#A80036" points="72,900.3486,62,904.3486,72,908.3486,68,904.3486" style="stroke: #A80036; stroke-width: 1.0;"/><line style="stroke: #A80036; stroke-width: 1.0; stroke-dasharray: 2.0,2.0;" x1="66" x2="862.5" y1="904.3486" y2="904.3486"/><polygon fill="#A80036" points="1133,932.2046,1143,936.2046,1133,940.2046,1137,936.2046" style="stroke: #A80036; stroke-width: 1.0;"/><line style="stroke: #A80036; stroke-width: 1.0;" x1="61" x2="1139" y1="936.2046" y2="936.2046"/><text fill="#000000" font-family="sans-serif" font-size="13" lengthAdjust="spacingAndGlyphs" textLength="69" x="68" y="931.3481">getCallList()</text><polygon fill="#A80036" points="72,946.2046,62,950.2046,72,954.2046,68,950.2046" style="stroke: #A80036; stroke-width: 1.0;"/><line style="stroke: #A80036; stroke-width: 1.0; stroke-dasharray: 2.0,2.0;" x1="66" x2="1144" y1="950.2046" y2="950.2046"/><path d="M10,972.2046 L363,972.2046 L363,981.2046 L353,991.2046 L10,991.2046 L10,972.2046 " fill="#EEEEEE" style="stroke: #000000; stroke-width: 1.0;"/><rect fill="none" height="111.5679" style="stroke: #000000; stroke-width: 2.0;" width="1477.5" x="10" y="972.2046"/><text fill="#000000" font-family="sans-serif" font-size="13" font-weight="bold" lengthAdjust="spacingAndGlyphs" textLength="308" x="25" y="988.2041">void makeFile(java.lang.String, java.lang.String)</text><polygon fill="#A80036" points="1283.5,1011.9165,1293.5,1015.9165,1283.5,1019.9165,1287.5,1015.9165" style="stroke: #A80036; stroke-width: 1.0;"/><line style="stroke: #A80036; stroke-width: 1.0;" x1="61" x2="1289.5" y1="1015.9165" y2="1015.9165"/><text fill="#000000" font-family="sans-serif" font-size="13" lengthAdjust="spacingAndGlyphs" textLength="123" x="68" y="1011.0601">write(java.lang.String)</text><polygon fill="#A80036" points="72,1025.9165,62,1029.9165,72,1033.9165,68,1029.9165" style="stroke: #A80036; stroke-width: 1.0;"/><line style="stroke: #A80036; stroke-width: 1.0; stroke-dasharray: 2.0,2.0;" x1="66" x2="1294.5" y1="1029.9165" y2="1029.9165"/><polygon fill="#A80036" points="1393.5,1057.7725,1403.5,1061.7725,1393.5,1065.7725,1397.5,1061.7725" style="stroke: #A80036; stroke-width: 1.0;"/><line style="stroke: #A80036; stroke-width: 1.0;" x1="61" x2="1399.5" y1="1061.7725" y2="1061.7725"/><text fill="#000000" font-family="sans-serif" font-size="13" lengthAdjust="spacingAndGlyphs" textLength="39" x="68" y="1056.916">close()</text><polygon fill="#A80036" points="72,1071.7725,62,1075.7725,72,1079.7725,68,1075.7725" style="stroke: #A80036; stroke-width: 1.0;"/><line style="stroke: #A80036; stroke-width: 1.0; stroke-dasharray: 2.0,2.0;" x1="66" x2="1404.5" y1="1075.7725" y2="1075.7725"/><!--MD5=[8a6521350942084765a920a9d82433f7]
@startuml
group void main(dataSet.DataList)
	Sequence->Sequence : makeFile(java.lang.String, java.lang.String)
	Sequence->Process : waitFor()
		Process- ->Sequence
	Sequence->PrintStream : println(java.lang.String)
		PrintStream- ->Sequence
	Sequence->DataList : getClassList()
		DataList- ->Sequence
end

group String makeString(dataSet.Class)
	Sequence->StringBuilder : append(java.lang.String)
		StringBuilder- ->Sequence
	Sequence->Sequence : drawConnect(dataSet.Function, java.util.Stack<java.lang.String>, java.lang.String, java.lang.StringBuilder)
	Sequence->StringBuilder : toString()
		StringBuilder- ->Sequence
end

group ArrayList<Function> getCallerFunList(dataSet.Class)
	Sequence->ArrayList : add(E)
		ArrayList- ->Sequence
	Sequence->DataList : getClassList()
		DataList- ->Sequence
	Sequence->Data_base : getCallList()
		Data_base- ->Sequence
	Sequence->DataList : getFunctionList()
		DataList- ->Sequence
	Sequence->Data_base : getHasList()
		Data_base- ->Sequence
end

group void drawConnect(dataSet.Function, java.util.Stack<java.lang.String>, java.lang.String, java.lang.StringBuilder)
	Sequence->StringBuilder : append(java.lang.String)
		StringBuilder- ->Sequence
	Sequence->Vector : add(E)
		Vector- ->Sequence
	Sequence->Sequence : drawConnect(dataSet.Function, java.util.Stack<java.lang.String>, java.lang.String, java.lang.StringBuilder)
	Sequence->DataList : getFunctionList()
		DataList- ->Sequence
	Sequence->Data_base : getCallList()
		Data_base- ->Sequence
end

group void makeFile(java.lang.String, java.lang.String)
	Sequence->Writer : write(java.lang.String)
		Writer- ->Sequence
	Sequence->OutputStreamWriter : close()
		OutputStreamWriter- ->Sequence
end

@enduml

PlantUML version 1.2020.19(Tue Oct 13 00:10:01 KST 2020)
(APACHE source distribution)
Java Runtime: Java(TM) SE Runtime Environment
JVM: Java HotSpot(TM) 64-Bit Server VM
Default Encoding: MS949
Language: ko
Country: KR
--></g></svg>