<?xml version="1.0" encoding="UTF-8" standalone="no"?><svg xmlns="http://www.w3.org/2000/svg" xmlns:xlink="http://www.w3.org/1999/xlink" contentScriptType="application/ecmascript" contentStyleType="text/css" height="371px" preserveAspectRatio="none" style="width:1189px;height:371px;" version="1.1" viewBox="0 0 1189 371" width="1189px" zoomAndPan="magnify"><defs><filter height="300%" id="f4f173izk38md" width="300%" x="-1" y="-1"><feGaussianBlur result="blurOut" stdDeviation="2.0"/><feColorMatrix in="blurOut" result="blurOut2" type="matrix" values="0 0 0 0 0 0 0 0 0 0 0 0 0 0 0 0 0 0 .4 0"/><feOffset dx="4.0" dy="4.0" in="blurOut2" result="blurOut3"/><feBlend in="SourceGraphic" in2="blurOut3" mode="normal"/></filter></defs><g><rect fill="#FFFFFF" filter="url(#f4f173izk38md)" height="248.1357" style="stroke: #000000; stroke-width: 2.0;" width="1165" x="10" y="60.2295"/><line style="stroke: #A80036; stroke-width: 1.0; stroke-dasharray: 5.0,5.0;" x1="44" x2="44" y1="43.2295" y2="325.3652"/><line style="stroke: #A80036; stroke-width: 1.0; stroke-dasharray: 5.0,5.0;" x1="483.5" x2="483.5" y1="43.2295" y2="325.3652"/><line style="stroke: #A80036; stroke-width: 1.0; stroke-dasharray: 5.0,5.0;" x1="881" x2="881" y1="43.2295" y2="325.3652"/><line style="stroke: #A80036; stroke-width: 1.0; stroke-dasharray: 5.0,5.0;" x1="990" x2="990" y1="43.2295" y2="325.3652"/><line style="stroke: #A80036; stroke-width: 1.0; stroke-dasharray: 5.0,5.0;" x1="1119" x2="1119" y1="43.2295" y2="325.3652"/><rect fill="#FEFECE" filter="url(#f4f173izk38md)" height="33.2295" style="stroke: #A80036; stroke-width: 1.5;" width="44" x="20" y="5"/><text fill="#000000" font-family="sans-serif" font-size="14" lengthAdjust="spacingAndGlyphs" textLength="30" x="27" y="28.1533">Main</text><rect fill="#FEFECE" filter="url(#f4f173izk38md)" height="33.2295" style="stroke: #A80036; stroke-width: 1.5;" width="44" x="20" y="324.3652"/><text fill="#000000" font-family="sans-serif" font-size="14" lengthAdjust="spacingAndGlyphs" textLength="30" x="27" y="347.5186">Main</text><rect fill="#FEFECE" filter="url(#f4f173izk38md)" height="33.2295" style="stroke: #A80036; stroke-width: 1.5;" width="89" x="437.5" y="5"/><text fill="#000000" font-family="sans-serif" font-size="14" lengthAdjust="spacingAndGlyphs" textLength="75" x="444.5" y="28.1533">Test_Visitor</text><rect fill="#FEFECE" filter="url(#f4f173izk38md)" height="33.2295" style="stroke: #A80036; stroke-width: 1.5;" width="89" x="437.5" y="324.3652"/><text fill="#000000" font-family="sans-serif" font-size="14" lengthAdjust="spacingAndGlyphs" textLength="75" x="444.5" y="347.5186">Test_Visitor</text><rect fill="#FEFECE" filter="url(#f4f173izk38md)" height="33.2295" style="stroke: #A80036; stroke-width: 1.5;" width="50" x="854" y="5"/><text fill="#000000" font-family="sans-serif" font-size="14" lengthAdjust="spacingAndGlyphs" textLength="36" x="861" y="28.1533">Name</text><rect fill="#FEFECE" filter="url(#f4f173izk38md)" height="33.2295" style="stroke: #A80036; stroke-width: 1.5;" width="50" x="854" y="324.3652"/><text fill="#000000" font-family="sans-serif" font-size="14" lengthAdjust="spacingAndGlyphs" textLength="36" x="861" y="347.5186">Name</text><rect fill="#FEFECE" filter="url(#f4f173izk38md)" height="33.2295" style="stroke: #A80036; stroke-width: 1.5;" width="141" x="918" y="5"/><text fill="#000000" font-family="sans-serif" font-size="14" lengthAdjust="spacingAndGlyphs" textLength="127" x="925" y="28.1533">PackageDeclaration</text><rect fill="#FEFECE" filter="url(#f4f173izk38md)" height="33.2295" style="stroke: #A80036; stroke-width: 1.5;" width="141" x="918" y="324.3652"/><text fill="#000000" font-family="sans-serif" font-size="14" lengthAdjust="spacingAndGlyphs" textLength="127" x="925" y="347.5186">PackageDeclaration</text><rect fill="#FEFECE" filter="url(#f4f173izk38md)" height="33.2295" style="stroke: #A80036; stroke-width: 1.5;" width="88" x="1073" y="5"/><text fill="#000000" font-family="sans-serif" font-size="14" lengthAdjust="spacingAndGlyphs" textLength="74" x="1080" y="28.1533">PrintStream</text><rect fill="#FEFECE" filter="url(#f4f173izk38md)" height="33.2295" style="stroke: #A80036; stroke-width: 1.5;" width="88" x="1073" y="324.3652"/><text fill="#000000" font-family="sans-serif" font-size="14" lengthAdjust="spacingAndGlyphs" textLength="74" x="1080" y="347.5186">PrintStream</text><path d="M10,60.2295 L235,60.2295 L235,69.2295 L225,79.2295 L10,79.2295 L10,60.2295 " fill="#EEEEEE" style="stroke: #000000; stroke-width: 1.0;"/><rect fill="none" height="248.1357" style="stroke: #000000; stroke-width: 2.0;" width="1165" x="10" y="60.2295"/><text fill="#000000" font-family="sans-serif" font-size="13" font-weight="bold" lengthAdjust="spacingAndGlyphs" textLength="180" x="25" y="76.229">void main(java.lang.String[])</text><polygon fill="#A80036" points="472,99.9414,482,103.9414,472,107.9414,476,103.9414" style="stroke: #A80036; stroke-width: 1.0;"/><line style="stroke: #A80036; stroke-width: 1.0;" x1="44" x2="478" y1="103.9414" y2="103.9414"/><text fill="#000000" font-family="sans-serif" font-size="13" lengthAdjust="spacingAndGlyphs" textLength="416" x="51" y="99.085">addDataList(org.eclipse.jdt.core.dom.CompilationUnit, dataSet.DataList)</text><polygon fill="#A80036" points="869,131.7974,879,135.7974,869,139.7974,873,135.7974" style="stroke: #A80036; stroke-width: 1.0;"/><line style="stroke: #A80036; stroke-width: 1.0;" x1="484" x2="875" y1="135.7974" y2="135.7974"/><text fill="#000000" font-family="sans-serif" font-size="13" lengthAdjust="spacingAndGlyphs" textLength="138" x="491" y="130.9409">getFullyQualifiedName()</text><polygon fill="#A80036" points="495,145.7974,485,149.7974,495,153.7974,491,149.7974" style="stroke: #A80036; stroke-width: 1.0;"/><line style="stroke: #A80036; stroke-width: 1.0; stroke-dasharray: 2.0,2.0;" x1="489" x2="880" y1="149.7974" y2="149.7974"/><polygon fill="#A80036" points="978.5,177.6533,988.5,181.6533,978.5,185.6533,982.5,181.6533" style="stroke: #A80036; stroke-width: 1.0;"/><line style="stroke: #A80036; stroke-width: 1.0;" x1="484" x2="984.5" y1="181.6533" y2="181.6533"/><text fill="#000000" font-family="sans-serif" font-size="13" lengthAdjust="spacingAndGlyphs" textLength="60" x="491" y="176.7969">getName()</text><polygon fill="#A80036" points="495,191.6533,485,195.6533,495,199.6533,491,195.6533" style="stroke: #A80036; stroke-width: 1.0;"/><line style="stroke: #A80036; stroke-width: 1.0; stroke-dasharray: 2.0,2.0;" x1="489" x2="989.5" y1="195.6533" y2="195.6533"/><line style="stroke: #A80036; stroke-width: 1.0;" x1="484" x2="526" y1="227.5093" y2="227.5093"/><line style="stroke: #A80036; stroke-width: 1.0;" x1="526" x2="526" y1="227.5093" y2="240.5093"/><line style="stroke: #A80036; stroke-width: 1.0;" x1="485" x2="526" y1="240.5093" y2="240.5093"/><polygon fill="#A80036" points="495,236.5093,485,240.5093,495,244.5093,491,240.5093" style="stroke: #A80036; stroke-width: 1.0;"/><text fill="#000000" font-family="sans-serif" font-size="13" lengthAdjust="spacingAndGlyphs" textLength="383" x="491" y="222.6528">typeDeclaration(org.eclipse.jdt.core.dom.AbstractTypeDeclaration)</text><polygon fill="#A80036" points="55,250.5093,45,254.5093,55,258.5093,51,254.5093" style="stroke: #A80036; stroke-width: 1.0;"/><line style="stroke: #A80036; stroke-width: 1.0; stroke-dasharray: 2.0,2.0;" x1="49" x2="483" y1="254.5093" y2="254.5093"/><polygon fill="#A80036" points="1107,282.3652,1117,286.3652,1107,290.3652,1111,286.3652" style="stroke: #A80036; stroke-width: 1.0;"/><line style="stroke: #A80036; stroke-width: 1.0;" x1="44" x2="1113" y1="286.3652" y2="286.3652"/><text fill="#000000" font-family="sans-serif" font-size="13" lengthAdjust="spacingAndGlyphs" textLength="131" x="51" y="281.5088">println(java.lang.String)</text><polygon fill="#A80036" points="55,296.3652,45,300.3652,55,304.3652,51,300.3652" style="stroke: #A80036; stroke-width: 1.0;"/><line style="stroke: #A80036; stroke-width: 1.0; stroke-dasharray: 2.0,2.0;" x1="49" x2="1118" y1="300.3652" y2="300.3652"/><!--MD5=[9af2b4fca8e504057235956f9cd32e19]
@startuml
group void main(java.lang.String[])
	Main->Test_Visitor : addDataList(org.eclipse.jdt.core.dom.CompilationUnit, dataSet.DataList)
		Test_Visitor->Name : getFullyQualifiedName()
			Name- ->Test_Visitor
		Test_Visitor->PackageDeclaration : getName()
			PackageDeclaration- ->Test_Visitor
		Test_Visitor->Test_Visitor : typeDeclaration(org.eclipse.jdt.core.dom.AbstractTypeDeclaration)
		Test_Visitor- ->Main
	Main->PrintStream : println(java.lang.String)
		PrintStream- ->Main
end

@enduml

PlantUML version 1.2020.19(Tue Oct 13 00:10:01 KST 2020)
(APACHE source distribution)
Java Runtime: Java(TM) SE Runtime Environment
JVM: Java HotSpot(TM) 64-Bit Server VM
Default Encoding: MS949
Language: ko
Country: KR
--></g></svg>