<?xml version="1.0" encoding="UTF-8" standalone="no"?><svg xmlns="http://www.w3.org/2000/svg" xmlns:xlink="http://www.w3.org/1999/xlink" contentScriptType="application/ecmascript" contentStyleType="text/css" height="356px" preserveAspectRatio="none" style="width:257px;height:356px;" version="1.1" viewBox="0 0 257 356" width="257px" zoomAndPan="magnify"><defs><filter height="300%" id="fr5031mhgbiww" width="300%" x="-1" y="-1"><feGaussianBlur result="blurOut" stdDeviation="2.0"/><feColorMatrix in="blurOut" result="blurOut2" type="matrix" values="0 0 0 0 0 0 0 0 0 0 0 0 0 0 0 0 0 0 .4 0"/><feOffset dx="4.0" dy="4.0" in="blurOut2" result="blurOut3"/><feBlend in="SourceGraphic" in2="blurOut3" mode="normal"/></filter></defs><g><!--MD5=[f6064968006b102cb1b3092be2f53bd9]
class cl1--><rect codeLine="1" fill="#FEFECE" filter="url(#fr5031mhgbiww)" height="335.0688" id="cl1" style="stroke: #A80036; stroke-width: 1.5;" width="236" x="7" y="7"/><ellipse cx="22.45" cy="23" fill="#ADD1B2" rx="11" ry="11" style="stroke: #A80036; stroke-width: 1.0;"/><path d="M22.2781,16.4844 Q20.4031,16.4844 19.2469,18.2344 Q18.0594,20.0156 18.0594,23.0156 Q18.0594,26.3906 19.2625,28.1563 Q20.325,29.7813 22.075,29.7813 Q23.7625,29.7813 24.7156,28.875 Q25.7781,27.8594 25.9188,25.625 Q25.9188,25.2031 25.6844,24.9688 Q25.4969,24.7344 25.1531,24.7031 Q24.825,24.7031 24.5906,24.8906 Q24.325,25.125 24.325,25.5156 Q24.2938,26.9063 23.7,27.6406 Q23.1688,28.3438 22.2156,28.3438 Q21.0594,28.3438 20.3406,26.9063 Q19.6219,25.4063 19.6219,22.9844 Q19.6219,20.4375 20.5125,19.0469 Q21.2625,17.9219 22.4031,17.9219 Q23.0594,17.9219 23.5594,18.4688 Q24.1219,19.0781 24.2469,20.1406 Q24.2938,20.8438 25.1219,20.7344 Q25.9031,20.625 25.8563,19.9375 Q25.6688,18.4219 24.9031,17.5469 Q23.9656,16.4844 22.2781,16.4844 Z "/><text fill="#000000" font-family="sans-serif" font-size="12" lengthAdjust="spacingAndGlyphs" textLength="203" x="36.55" y="28.6045">shopTest.TestCase.Charge_Money()</text><line style="stroke: #A80036; stroke-width: 1.5;" x1="8" x2="242" y1="39" y2="39"/><line style="stroke: #A80036; stroke-width: 1.5;" x1="8" x2="105" y1="54.5544" y2="54.5544"/><text fill="#008000" font-family="sans-serif" font-size="11" font-weight="bold" lengthAdjust="spacingAndGlyphs" textLength="40" x="105" y="59.1919">has list</text><line style="stroke: #A80036; stroke-width: 1.5;" x1="145" x2="242" y1="54.5544" y2="54.5544"/><line style="stroke: #A80036; stroke-width: 1.0; stroke-dasharray: 1.0,2.0;" x1="8" x2="112" y1="77.2178" y2="77.2178"/><text fill="#000000" font-family="sans-serif" font-size="11" lengthAdjust="spacingAndGlyphs" textLength="26" x="112" y="81.8552">class</text><line style="stroke: #A80036; stroke-width: 1.0; stroke-dasharray: 1.0,2.0;" x1="138" x2="242" y1="77.2178" y2="77.2178"/><line style="stroke: #A80036; stroke-width: 1.0; stroke-dasharray: 1.0,2.0;" x1="8" x2="106" y1="99.8811" y2="99.8811"/><text fill="#000000" font-family="sans-serif" font-size="11" lengthAdjust="spacingAndGlyphs" textLength="38" x="106" y="104.5186">member</text><line style="stroke: #A80036; stroke-width: 1.0; stroke-dasharray: 1.0,2.0;" x1="144" x2="242" y1="99.8811" y2="99.8811"/><line style="stroke: #A80036; stroke-width: 1.0; stroke-dasharray: 1.0,2.0;" x1="8" x2="107.5" y1="122.5444" y2="122.5444"/><text fill="#000000" font-family="sans-serif" font-size="11" lengthAdjust="spacingAndGlyphs" textLength="35" x="107.5" y="127.1819">method</text><line style="stroke: #A80036; stroke-width: 1.0; stroke-dasharray: 1.0,2.0;" x1="142.5" x2="242" y1="122.5444" y2="122.5444"/><line style="stroke: #A80036; stroke-width: 1.5;" x1="8" x2="97.5" y1="145.2078" y2="145.2078"/><text fill="#0000FF" font-family="sans-serif" font-size="11" font-weight="bold" lengthAdjust="spacingAndGlyphs" textLength="55" x="97.5" y="149.8452">calling list</text><line style="stroke: #A80036; stroke-width: 1.5;" x1="152.5" x2="242" y1="145.2078" y2="145.2078"/><text fill="#000000" font-family="sans-serif" font-size="11" lengthAdjust="spacingAndGlyphs" textLength="93" x="13" y="188.1174">Shop (239372207);</text><line style="stroke: #A80036; stroke-width: 1.0; stroke-dasharray: 1.0,2.0;" x1="8" x2="112" y1="167.8711" y2="167.8711"/><text fill="#000000" font-family="sans-serif" font-size="11" lengthAdjust="spacingAndGlyphs" textLength="26" x="112" y="172.5085">class</text><line style="stroke: #A80036; stroke-width: 1.0; stroke-dasharray: 1.0,2.0;" x1="138" x2="242" y1="167.8711" y2="167.8711"/><line style="stroke: #A80036; stroke-width: 1.0; stroke-dasharray: 1.0,2.0;" x1="8" x2="106" y1="202.0889" y2="202.0889"/><text fill="#000000" font-family="sans-serif" font-size="11" lengthAdjust="spacingAndGlyphs" textLength="38" x="106" y="206.7263">member</text><line style="stroke: #A80036; stroke-width: 1.0; stroke-dasharray: 1.0,2.0;" x1="144" x2="242" y1="202.0889" y2="202.0889"/><text fill="#000000" font-family="sans-serif" font-size="11" lengthAdjust="spacingAndGlyphs" textLength="224" x="13" y="244.9985">boolean charge(shop.User, int) (1781493632);</text><line style="stroke: #A80036; stroke-width: 1.0; stroke-dasharray: 1.0,2.0;" x1="8" x2="107.5" y1="224.7522" y2="224.7522"/><text fill="#000000" font-family="sans-serif" font-size="11" lengthAdjust="spacingAndGlyphs" textLength="35" x="107.5" y="229.3896">method</text><line style="stroke: #A80036; stroke-width: 1.0; stroke-dasharray: 1.0,2.0;" x1="142.5" x2="242" y1="224.7522" y2="224.7522"/><line style="stroke: #A80036; stroke-width: 1.5;" x1="8" x2="91" y1="258.97" y2="258.97"/><text fill="#FFA500" font-family="sans-serif" font-size="11" font-weight="bold" lengthAdjust="spacingAndGlyphs" textLength="68" x="91" y="263.6074">called by list</text><line style="stroke: #A80036; stroke-width: 1.5;" x1="159" x2="242" y1="258.97" y2="258.97"/><line style="stroke: #A80036; stroke-width: 1.0; stroke-dasharray: 1.0,2.0;" x1="8" x2="112" y1="281.6333" y2="281.6333"/><text fill="#000000" font-family="sans-serif" font-size="11" lengthAdjust="spacingAndGlyphs" textLength="26" x="112" y="286.2708">class</text><line style="stroke: #A80036; stroke-width: 1.0; stroke-dasharray: 1.0,2.0;" x1="138" x2="242" y1="281.6333" y2="281.6333"/><line style="stroke: #A80036; stroke-width: 1.0; stroke-dasharray: 1.0,2.0;" x1="8" x2="106" y1="304.2966" y2="304.2966"/><text fill="#000000" font-family="sans-serif" font-size="11" lengthAdjust="spacingAndGlyphs" textLength="38" x="106" y="308.9341">member</text><line style="stroke: #A80036; stroke-width: 1.0; stroke-dasharray: 1.0,2.0;" x1="144" x2="242" y1="304.2966" y2="304.2966"/><line style="stroke: #A80036; stroke-width: 1.0; stroke-dasharray: 1.0,2.0;" x1="8" x2="107.5" y1="326.96" y2="326.96"/><text fill="#000000" font-family="sans-serif" font-size="11" lengthAdjust="spacingAndGlyphs" textLength="35" x="107.5" y="331.5974">method</text><line style="stroke: #A80036; stroke-width: 1.0; stroke-dasharray: 1.0,2.0;" x1="142.5" x2="242" y1="326.96" y2="326.96"/><!--MD5=[19650a9f579b803e10e928fc5858a74d]
@startuml
class "shopTest.TestCase.Charge_Money()" as cl1{
__**<color:green>has list</color>**__
..class..
..member..
..method..
__**<color:blue>calling list</color>**__
..class..
	Shop (239372207);
..member..
..method..
	boolean charge(shop.User, int) (1781493632);
__**<color:orange>called by list</color>**__
..class..
..member..
..method..
}

@enduml

PlantUML version 1.2020.19(Tue Oct 13 00:10:01 KST 2020)
(APACHE source distribution)
Java Runtime: Java(TM) SE Runtime Environment
JVM: Java HotSpot(TM) 64-Bit Server VM
Default Encoding: MS949
Language: ko
Country: KR
--></g></svg>