<?xml version="1.0" encoding="UTF-8" standalone="no"?><svg xmlns="http://www.w3.org/2000/svg" xmlns:xlink="http://www.w3.org/1999/xlink" contentScriptType="application/ecmascript" contentStyleType="text/css" height="356px" preserveAspectRatio="none" style="width:283px;height:356px;" version="1.1" viewBox="0 0 283 356" width="283px" zoomAndPan="magnify"><defs><filter height="300%" id="faekbwj8mrj6b" width="300%" x="-1" y="-1"><feGaussianBlur result="blurOut" stdDeviation="2.0"/><feColorMatrix in="blurOut" result="blurOut2" type="matrix" values="0 0 0 0 0 0 0 0 0 0 0 0 0 0 0 0 0 0 .4 0"/><feOffset dx="4.0" dy="4.0" in="blurOut2" result="blurOut3"/><feBlend in="SourceGraphic" in2="blurOut3" mode="normal"/></filter></defs><g><!--MD5=[f6064968006b102cb1b3092be2f53bd9]
class cl1--><rect codeLine="1" fill="#FEFECE" filter="url(#faekbwj8mrj6b)" height="335.0688" id="cl1" style="stroke: #A80036; stroke-width: 1.5;" width="262" x="7" y="7"/><ellipse cx="40.45" cy="23" fill="#ADD1B2" rx="11" ry="11" style="stroke: #A80036; stroke-width: 1.0;"/><path d="M40.2781,16.4844 Q38.4031,16.4844 37.2469,18.2344 Q36.0594,20.0156 36.0594,23.0156 Q36.0594,26.3906 37.2625,28.1563 Q38.325,29.7813 40.075,29.7813 Q41.7625,29.7813 42.7156,28.875 Q43.7781,27.8594 43.9188,25.625 Q43.9188,25.2031 43.6844,24.9688 Q43.4969,24.7344 43.1531,24.7031 Q42.825,24.7031 42.5906,24.8906 Q42.325,25.125 42.325,25.5156 Q42.2938,26.9063 41.7,27.6406 Q41.1688,28.3438 40.2156,28.3438 Q39.0594,28.3438 38.3406,26.9063 Q37.6219,25.4063 37.6219,22.9844 Q37.6219,20.4375 38.5125,19.0469 Q39.2625,17.9219 40.4031,17.9219 Q41.0594,17.9219 41.5594,18.4688 Q42.1219,19.0781 42.2469,20.1406 Q42.2938,20.8438 43.1219,20.7344 Q43.9031,20.625 43.8563,19.9375 Q43.6688,18.4219 42.9031,17.5469 Q41.9656,16.4844 40.2781,16.4844 Z "/><text fill="#000000" font-family="sans-serif" font-size="12" lengthAdjust="spacingAndGlyphs" textLength="189" x="58.55" y="28.6045">shopTest.TestCase.Buy_Product()</text><line style="stroke: #A80036; stroke-width: 1.5;" x1="8" x2="268" y1="39" y2="39"/><line style="stroke: #A80036; stroke-width: 1.5;" x1="8" x2="118" y1="54.5544" y2="54.5544"/><text fill="#008000" font-family="sans-serif" font-size="11" font-weight="bold" lengthAdjust="spacingAndGlyphs" textLength="40" x="118" y="59.1919">has list</text><line style="stroke: #A80036; stroke-width: 1.5;" x1="158" x2="268" y1="54.5544" y2="54.5544"/><line style="stroke: #A80036; stroke-width: 1.0; stroke-dasharray: 1.0,2.0;" x1="8" x2="125" y1="77.2178" y2="77.2178"/><text fill="#000000" font-family="sans-serif" font-size="11" lengthAdjust="spacingAndGlyphs" textLength="26" x="125" y="81.8552">class</text><line style="stroke: #A80036; stroke-width: 1.0; stroke-dasharray: 1.0,2.0;" x1="151" x2="268" y1="77.2178" y2="77.2178"/><line style="stroke: #A80036; stroke-width: 1.0; stroke-dasharray: 1.0,2.0;" x1="8" x2="119" y1="99.8811" y2="99.8811"/><text fill="#000000" font-family="sans-serif" font-size="11" lengthAdjust="spacingAndGlyphs" textLength="38" x="119" y="104.5186">member</text><line style="stroke: #A80036; stroke-width: 1.0; stroke-dasharray: 1.0,2.0;" x1="157" x2="268" y1="99.8811" y2="99.8811"/><line style="stroke: #A80036; stroke-width: 1.0; stroke-dasharray: 1.0,2.0;" x1="8" x2="120.5" y1="122.5444" y2="122.5444"/><text fill="#000000" font-family="sans-serif" font-size="11" lengthAdjust="spacingAndGlyphs" textLength="35" x="120.5" y="127.1819">method</text><line style="stroke: #A80036; stroke-width: 1.0; stroke-dasharray: 1.0,2.0;" x1="155.5" x2="268" y1="122.5444" y2="122.5444"/><line style="stroke: #A80036; stroke-width: 1.5;" x1="8" x2="110.5" y1="145.2078" y2="145.2078"/><text fill="#0000FF" font-family="sans-serif" font-size="11" font-weight="bold" lengthAdjust="spacingAndGlyphs" textLength="55" x="110.5" y="149.8452">calling list</text><line style="stroke: #A80036; stroke-width: 1.5;" x1="165.5" x2="268" y1="145.2078" y2="145.2078"/><text fill="#000000" font-family="sans-serif" font-size="11" lengthAdjust="spacingAndGlyphs" textLength="93" x="13" y="188.1174">Shop (239372207);</text><line style="stroke: #A80036; stroke-width: 1.0; stroke-dasharray: 1.0,2.0;" x1="8" x2="125" y1="167.8711" y2="167.8711"/><text fill="#000000" font-family="sans-serif" font-size="11" lengthAdjust="spacingAndGlyphs" textLength="26" x="125" y="172.5085">class</text><line style="stroke: #A80036; stroke-width: 1.0; stroke-dasharray: 1.0,2.0;" x1="151" x2="268" y1="167.8711" y2="167.8711"/><line style="stroke: #A80036; stroke-width: 1.0; stroke-dasharray: 1.0,2.0;" x1="8" x2="119" y1="202.0889" y2="202.0889"/><text fill="#000000" font-family="sans-serif" font-size="11" lengthAdjust="spacingAndGlyphs" textLength="38" x="119" y="206.7263">member</text><line style="stroke: #A80036; stroke-width: 1.0; stroke-dasharray: 1.0,2.0;" x1="157" x2="268" y1="202.0889" y2="202.0889"/><text fill="#000000" font-family="sans-serif" font-size="11" lengthAdjust="spacingAndGlyphs" textLength="250" x="13" y="244.9985">boolean buy(shop.User, shop.Goods) (294658058);</text><line style="stroke: #A80036; stroke-width: 1.0; stroke-dasharray: 1.0,2.0;" x1="8" x2="120.5" y1="224.7522" y2="224.7522"/><text fill="#000000" font-family="sans-serif" font-size="11" lengthAdjust="spacingAndGlyphs" textLength="35" x="120.5" y="229.3896">method</text><line style="stroke: #A80036; stroke-width: 1.0; stroke-dasharray: 1.0,2.0;" x1="155.5" x2="268" y1="224.7522" y2="224.7522"/><line style="stroke: #A80036; stroke-width: 1.5;" x1="8" x2="104" y1="258.97" y2="258.97"/><text fill="#FFA500" font-family="sans-serif" font-size="11" font-weight="bold" lengthAdjust="spacingAndGlyphs" textLength="68" x="104" y="263.6074">called by list</text><line style="stroke: #A80036; stroke-width: 1.5;" x1="172" x2="268" y1="258.97" y2="258.97"/><line style="stroke: #A80036; stroke-width: 1.0; stroke-dasharray: 1.0,2.0;" x1="8" x2="125" y1="281.6333" y2="281.6333"/><text fill="#000000" font-family="sans-serif" font-size="11" lengthAdjust="spacingAndGlyphs" textLength="26" x="125" y="286.2708">class</text><line style="stroke: #A80036; stroke-width: 1.0; stroke-dasharray: 1.0,2.0;" x1="151" x2="268" y1="281.6333" y2="281.6333"/><line style="stroke: #A80036; stroke-width: 1.0; stroke-dasharray: 1.0,2.0;" x1="8" x2="119" y1="304.2966" y2="304.2966"/><text fill="#000000" font-family="sans-serif" font-size="11" lengthAdjust="spacingAndGlyphs" textLength="38" x="119" y="308.9341">member</text><line style="stroke: #A80036; stroke-width: 1.0; stroke-dasharray: 1.0,2.0;" x1="157" x2="268" y1="304.2966" y2="304.2966"/><line style="stroke: #A80036; stroke-width: 1.0; stroke-dasharray: 1.0,2.0;" x1="8" x2="120.5" y1="326.96" y2="326.96"/><text fill="#000000" font-family="sans-serif" font-size="11" lengthAdjust="spacingAndGlyphs" textLength="35" x="120.5" y="331.5974">method</text><line style="stroke: #A80036; stroke-width: 1.0; stroke-dasharray: 1.0,2.0;" x1="155.5" x2="268" y1="326.96" y2="326.96"/><!--MD5=[72a13940e7d4981eb6048d186378b2e5]
@startuml
class "shopTest.TestCase.Buy_Product()" as cl1{
__**<color:green>has list</color>**__
..class..
..member..
..method..
__**<color:blue>calling list</color>**__
..class..
	Shop (239372207);
..member..
..method..
	boolean buy(shop.User, shop.Goods) (294658058);
__**<color:orange>called by list</color>**__
..class..
..member..
..method..
}

@enduml

PlantUML version 1.2020.19(Tue Oct 13 00:10:01 KST 2020)
(APACHE source distribution)
Java Runtime: Java(TM) SE Runtime Environment
JVM: Java HotSpot(TM) 64-Bit Server VM
Default Encoding: MS949
Language: ko
Country: KR
--></g></svg>