<?xml version="1.0" encoding="UTF-8" standalone="no"?><svg xmlns="http://www.w3.org/2000/svg" xmlns:xlink="http://www.w3.org/1999/xlink" contentScriptType="application/ecmascript" contentStyleType="text/css" height="356px" preserveAspectRatio="none" style="width:327px;height:356px;" version="1.1" viewBox="0 0 327 356" width="327px" zoomAndPan="magnify"><defs><filter height="300%" id="f6tnyq5yrg9cc" width="300%" x="-1" y="-1"><feGaussianBlur result="blurOut" stdDeviation="2.0"/><feColorMatrix in="blurOut" result="blurOut2" type="matrix" values="0 0 0 0 0 0 0 0 0 0 0 0 0 0 0 0 0 0 .4 0"/><feOffset dx="4.0" dy="4.0" in="blurOut2" result="blurOut3"/><feBlend in="SourceGraphic" in2="blurOut3" mode="normal"/></filter></defs><g><!--MD5=[f6064968006b102cb1b3092be2f53bd9]
class cl1--><rect codeLine="1" fill="#FEFECE" filter="url(#f6tnyq5yrg9cc)" height="335.0688" id="cl1" style="stroke: #A80036; stroke-width: 1.5;" width="306" x="7" y="7"/><ellipse cx="51.25" cy="23" fill="#ADD1B2" rx="11" ry="11" style="stroke: #A80036; stroke-width: 1.0;"/><path d="M51.0781,16.4844 Q49.2031,16.4844 48.0469,18.2344 Q46.8594,20.0156 46.8594,23.0156 Q46.8594,26.3906 48.0625,28.1563 Q49.125,29.7813 50.875,29.7813 Q52.5625,29.7813 53.5156,28.875 Q54.5781,27.8594 54.7188,25.625 Q54.7188,25.2031 54.4844,24.9688 Q54.2969,24.7344 53.9531,24.7031 Q53.625,24.7031 53.3906,24.8906 Q53.125,25.125 53.125,25.5156 Q53.0938,26.9063 52.5,27.6406 Q51.9688,28.3438 51.0156,28.3438 Q49.8594,28.3438 49.1406,26.9063 Q48.4219,25.4063 48.4219,22.9844 Q48.4219,20.4375 49.3125,19.0469 Q50.0625,17.9219 51.2031,17.9219 Q51.8594,17.9219 52.3594,18.4688 Q52.9219,19.0781 53.0469,20.1406 Q53.0938,20.8438 53.9219,20.7344 Q54.7031,20.625 54.6563,19.9375 Q54.4688,18.4219 53.7031,17.5469 Q52.7656,16.4844 51.0781,16.4844 Z "/><text fill="#000000" font-family="sans-serif" font-size="12" lengthAdjust="spacingAndGlyphs" textLength="209" x="71.75" y="28.6045">shopTest.TestScenario.Add_Product()</text><line style="stroke: #A80036; stroke-width: 1.5;" x1="8" x2="312" y1="39" y2="39"/><line style="stroke: #A80036; stroke-width: 1.5;" x1="8" x2="140" y1="54.5544" y2="54.5544"/><text fill="#008000" font-family="sans-serif" font-size="11" font-weight="bold" lengthAdjust="spacingAndGlyphs" textLength="40" x="140" y="59.1919">has list</text><line style="stroke: #A80036; stroke-width: 1.5;" x1="180" x2="312" y1="54.5544" y2="54.5544"/><line style="stroke: #A80036; stroke-width: 1.0; stroke-dasharray: 1.0,2.0;" x1="8" x2="147" y1="77.2178" y2="77.2178"/><text fill="#000000" font-family="sans-serif" font-size="11" lengthAdjust="spacingAndGlyphs" textLength="26" x="147" y="81.8552">class</text><line style="stroke: #A80036; stroke-width: 1.0; stroke-dasharray: 1.0,2.0;" x1="173" x2="312" y1="77.2178" y2="77.2178"/><line style="stroke: #A80036; stroke-width: 1.0; stroke-dasharray: 1.0,2.0;" x1="8" x2="141" y1="99.8811" y2="99.8811"/><text fill="#000000" font-family="sans-serif" font-size="11" lengthAdjust="spacingAndGlyphs" textLength="38" x="141" y="104.5186">member</text><line style="stroke: #A80036; stroke-width: 1.0; stroke-dasharray: 1.0,2.0;" x1="179" x2="312" y1="99.8811" y2="99.8811"/><line style="stroke: #A80036; stroke-width: 1.0; stroke-dasharray: 1.0,2.0;" x1="8" x2="142.5" y1="122.5444" y2="122.5444"/><text fill="#000000" font-family="sans-serif" font-size="11" lengthAdjust="spacingAndGlyphs" textLength="35" x="142.5" y="127.1819">method</text><line style="stroke: #A80036; stroke-width: 1.0; stroke-dasharray: 1.0,2.0;" x1="177.5" x2="312" y1="122.5444" y2="122.5444"/><line style="stroke: #A80036; stroke-width: 1.5;" x1="8" x2="132.5" y1="145.2078" y2="145.2078"/><text fill="#0000FF" font-family="sans-serif" font-size="11" font-weight="bold" lengthAdjust="spacingAndGlyphs" textLength="55" x="132.5" y="149.8452">calling list</text><line style="stroke: #A80036; stroke-width: 1.5;" x1="187.5" x2="312" y1="145.2078" y2="145.2078"/><text fill="#000000" font-family="sans-serif" font-size="11" lengthAdjust="spacingAndGlyphs" textLength="93" x="13" y="188.1174">Shop (239372207);</text><line style="stroke: #A80036; stroke-width: 1.0; stroke-dasharray: 1.0,2.0;" x1="8" x2="147" y1="167.8711" y2="167.8711"/><text fill="#000000" font-family="sans-serif" font-size="11" lengthAdjust="spacingAndGlyphs" textLength="26" x="147" y="172.5085">class</text><line style="stroke: #A80036; stroke-width: 1.0; stroke-dasharray: 1.0,2.0;" x1="173" x2="312" y1="167.8711" y2="167.8711"/><line style="stroke: #A80036; stroke-width: 1.0; stroke-dasharray: 1.0,2.0;" x1="8" x2="141" y1="202.0889" y2="202.0889"/><text fill="#000000" font-family="sans-serif" font-size="11" lengthAdjust="spacingAndGlyphs" textLength="38" x="141" y="206.7263">member</text><line style="stroke: #A80036; stroke-width: 1.0; stroke-dasharray: 1.0,2.0;" x1="179" x2="312" y1="202.0889" y2="202.0889"/><text fill="#000000" font-family="sans-serif" font-size="11" lengthAdjust="spacingAndGlyphs" textLength="294" x="13" y="244.9985">void addGoods(shop.Goods, java.lang.String) (1169474473);</text><line style="stroke: #A80036; stroke-width: 1.0; stroke-dasharray: 1.0,2.0;" x1="8" x2="142.5" y1="224.7522" y2="224.7522"/><text fill="#000000" font-family="sans-serif" font-size="11" lengthAdjust="spacingAndGlyphs" textLength="35" x="142.5" y="229.3896">method</text><line style="stroke: #A80036; stroke-width: 1.0; stroke-dasharray: 1.0,2.0;" x1="177.5" x2="312" y1="224.7522" y2="224.7522"/><line style="stroke: #A80036; stroke-width: 1.5;" x1="8" x2="126" y1="258.97" y2="258.97"/><text fill="#FFA500" font-family="sans-serif" font-size="11" font-weight="bold" lengthAdjust="spacingAndGlyphs" textLength="68" x="126" y="263.6074">called by list</text><line style="stroke: #A80036; stroke-width: 1.5;" x1="194" x2="312" y1="258.97" y2="258.97"/><line style="stroke: #A80036; stroke-width: 1.0; stroke-dasharray: 1.0,2.0;" x1="8" x2="147" y1="281.6333" y2="281.6333"/><text fill="#000000" font-family="sans-serif" font-size="11" lengthAdjust="spacingAndGlyphs" textLength="26" x="147" y="286.2708">class</text><line style="stroke: #A80036; stroke-width: 1.0; stroke-dasharray: 1.0,2.0;" x1="173" x2="312" y1="281.6333" y2="281.6333"/><line style="stroke: #A80036; stroke-width: 1.0; stroke-dasharray: 1.0,2.0;" x1="8" x2="141" y1="304.2966" y2="304.2966"/><text fill="#000000" font-family="sans-serif" font-size="11" lengthAdjust="spacingAndGlyphs" textLength="38" x="141" y="308.9341">member</text><line style="stroke: #A80036; stroke-width: 1.0; stroke-dasharray: 1.0,2.0;" x1="179" x2="312" y1="304.2966" y2="304.2966"/><line style="stroke: #A80036; stroke-width: 1.0; stroke-dasharray: 1.0,2.0;" x1="8" x2="142.5" y1="326.96" y2="326.96"/><text fill="#000000" font-family="sans-serif" font-size="11" lengthAdjust="spacingAndGlyphs" textLength="35" x="142.5" y="331.5974">method</text><line style="stroke: #A80036; stroke-width: 1.0; stroke-dasharray: 1.0,2.0;" x1="177.5" x2="312" y1="326.96" y2="326.96"/><!--MD5=[1653d517688fa10fff16ff7f6586ae7e]
@startuml
class "shopTest.TestScenario.Add_Product()" as cl1{
__**<color:green>has list</color>**__
..class..
..member..
..method..
__**<color:blue>calling list</color>**__
..class..
	Shop (239372207);
..member..
..method..
	void addGoods(shop.Goods, java.lang.String) (1169474473);
__**<color:orange>called by list</color>**__
..class..
..member..
..method..
}

@enduml

PlantUML version 1.2020.19(Tue Oct 13 00:10:01 KST 2020)
(APACHE source distribution)
Java Runtime: Java(TM) SE Runtime Environment
JVM: Java HotSpot(TM) 64-Bit Server VM
Default Encoding: MS949
Language: ko
Country: KR
--></g></svg>