<?xml version="1.0" encoding="UTF-8" standalone="no"?><svg xmlns="http://www.w3.org/2000/svg" xmlns:xlink="http://www.w3.org/1999/xlink" contentScriptType="application/ecmascript" contentStyleType="text/css" height="356px" preserveAspectRatio="none" style="width:317px;height:356px;" version="1.1" viewBox="0 0 317 356" width="317px" zoomAndPan="magnify"><defs><filter height="300%" id="f15o2uc2u7cewt" width="300%" x="-1" y="-1"><feGaussianBlur result="blurOut" stdDeviation="2.0"/><feColorMatrix in="blurOut" result="blurOut2" type="matrix" values="0 0 0 0 0 0 0 0 0 0 0 0 0 0 0 0 0 0 .4 0"/><feOffset dx="4.0" dy="4.0" in="blurOut2" result="blurOut3"/><feBlend in="SourceGraphic" in2="blurOut3" mode="normal"/></filter></defs><g><!--MD5=[f6064968006b102cb1b3092be2f53bd9]
class cl1--><rect codeLine="1" fill="#FEFECE" filter="url(#f15o2uc2u7cewt)" height="335.0688" id="cl1" style="stroke: #A80036; stroke-width: 1.5;" width="296" x="7" y="7"/><ellipse cx="65.75" cy="23" fill="#ADD1B2" rx="11" ry="11" style="stroke: #A80036; stroke-width: 1.0;"/><path d="M65.5781,16.4844 Q63.7031,16.4844 62.5469,18.2344 Q61.3594,20.0156 61.3594,23.0156 Q61.3594,26.3906 62.5625,28.1563 Q63.625,29.7813 65.375,29.7813 Q67.0625,29.7813 68.0156,28.875 Q69.0781,27.8594 69.2188,25.625 Q69.2188,25.2031 68.9844,24.9688 Q68.7969,24.7344 68.4531,24.7031 Q68.125,24.7031 67.8906,24.8906 Q67.625,25.125 67.625,25.5156 Q67.5938,26.9063 67,27.6406 Q66.4688,28.3438 65.5156,28.3438 Q64.3594,28.3438 63.6406,26.9063 Q62.9219,25.4063 62.9219,22.9844 Q62.9219,20.4375 63.8125,19.0469 Q64.5625,17.9219 65.7031,17.9219 Q66.3594,17.9219 66.8594,18.4688 Q67.4219,19.0781 67.5469,20.1406 Q67.5938,20.8438 68.4219,20.7344 Q69.2031,20.625 69.1563,19.9375 Q68.9688,18.4219 68.2031,17.5469 Q67.2656,16.4844 65.5781,16.4844 Z "/><text fill="#000000" font-family="sans-serif" font-size="12" lengthAdjust="spacingAndGlyphs" textLength="170" x="86.25" y="28.6045">shopTest.TestScenario.Login()</text><line style="stroke: #A80036; stroke-width: 1.5;" x1="8" x2="302" y1="39" y2="39"/><line style="stroke: #A80036; stroke-width: 1.5;" x1="8" x2="135" y1="54.5544" y2="54.5544"/><text fill="#008000" font-family="sans-serif" font-size="11" font-weight="bold" lengthAdjust="spacingAndGlyphs" textLength="40" x="135" y="59.1919">has list</text><line style="stroke: #A80036; stroke-width: 1.5;" x1="175" x2="302" y1="54.5544" y2="54.5544"/><line style="stroke: #A80036; stroke-width: 1.0; stroke-dasharray: 1.0,2.0;" x1="8" x2="142" y1="77.2178" y2="77.2178"/><text fill="#000000" font-family="sans-serif" font-size="11" lengthAdjust="spacingAndGlyphs" textLength="26" x="142" y="81.8552">class</text><line style="stroke: #A80036; stroke-width: 1.0; stroke-dasharray: 1.0,2.0;" x1="168" x2="302" y1="77.2178" y2="77.2178"/><line style="stroke: #A80036; stroke-width: 1.0; stroke-dasharray: 1.0,2.0;" x1="8" x2="136" y1="99.8811" y2="99.8811"/><text fill="#000000" font-family="sans-serif" font-size="11" lengthAdjust="spacingAndGlyphs" textLength="38" x="136" y="104.5186">member</text><line style="stroke: #A80036; stroke-width: 1.0; stroke-dasharray: 1.0,2.0;" x1="174" x2="302" y1="99.8811" y2="99.8811"/><line style="stroke: #A80036; stroke-width: 1.0; stroke-dasharray: 1.0,2.0;" x1="8" x2="137.5" y1="122.5444" y2="122.5444"/><text fill="#000000" font-family="sans-serif" font-size="11" lengthAdjust="spacingAndGlyphs" textLength="35" x="137.5" y="127.1819">method</text><line style="stroke: #A80036; stroke-width: 1.0; stroke-dasharray: 1.0,2.0;" x1="172.5" x2="302" y1="122.5444" y2="122.5444"/><line style="stroke: #A80036; stroke-width: 1.5;" x1="8" x2="127.5" y1="145.2078" y2="145.2078"/><text fill="#0000FF" font-family="sans-serif" font-size="11" font-weight="bold" lengthAdjust="spacingAndGlyphs" textLength="55" x="127.5" y="149.8452">calling list</text><line style="stroke: #A80036; stroke-width: 1.5;" x1="182.5" x2="302" y1="145.2078" y2="145.2078"/><text fill="#000000" font-family="sans-serif" font-size="11" lengthAdjust="spacingAndGlyphs" textLength="93" x="13" y="188.1174">Shop (239372207);</text><line style="stroke: #A80036; stroke-width: 1.0; stroke-dasharray: 1.0,2.0;" x1="8" x2="142" y1="167.8711" y2="167.8711"/><text fill="#000000" font-family="sans-serif" font-size="11" lengthAdjust="spacingAndGlyphs" textLength="26" x="142" y="172.5085">class</text><line style="stroke: #A80036; stroke-width: 1.0; stroke-dasharray: 1.0,2.0;" x1="168" x2="302" y1="167.8711" y2="167.8711"/><line style="stroke: #A80036; stroke-width: 1.0; stroke-dasharray: 1.0,2.0;" x1="8" x2="136" y1="202.0889" y2="202.0889"/><text fill="#000000" font-family="sans-serif" font-size="11" lengthAdjust="spacingAndGlyphs" textLength="38" x="136" y="206.7263">member</text><line style="stroke: #A80036; stroke-width: 1.0; stroke-dasharray: 1.0,2.0;" x1="174" x2="302" y1="202.0889" y2="202.0889"/><text fill="#000000" font-family="sans-serif" font-size="11" lengthAdjust="spacingAndGlyphs" textLength="284" x="13" y="244.9985">User login(java.lang.String, java.lang.String) (1977310713);</text><line style="stroke: #A80036; stroke-width: 1.0; stroke-dasharray: 1.0,2.0;" x1="8" x2="137.5" y1="224.7522" y2="224.7522"/><text fill="#000000" font-family="sans-serif" font-size="11" lengthAdjust="spacingAndGlyphs" textLength="35" x="137.5" y="229.3896">method</text><line style="stroke: #A80036; stroke-width: 1.0; stroke-dasharray: 1.0,2.0;" x1="172.5" x2="302" y1="224.7522" y2="224.7522"/><line style="stroke: #A80036; stroke-width: 1.5;" x1="8" x2="121" y1="258.97" y2="258.97"/><text fill="#FFA500" font-family="sans-serif" font-size="11" font-weight="bold" lengthAdjust="spacingAndGlyphs" textLength="68" x="121" y="263.6074">called by list</text><line style="stroke: #A80036; stroke-width: 1.5;" x1="189" x2="302" y1="258.97" y2="258.97"/><line style="stroke: #A80036; stroke-width: 1.0; stroke-dasharray: 1.0,2.0;" x1="8" x2="142" y1="281.6333" y2="281.6333"/><text fill="#000000" font-family="sans-serif" font-size="11" lengthAdjust="spacingAndGlyphs" textLength="26" x="142" y="286.2708">class</text><line style="stroke: #A80036; stroke-width: 1.0; stroke-dasharray: 1.0,2.0;" x1="168" x2="302" y1="281.6333" y2="281.6333"/><line style="stroke: #A80036; stroke-width: 1.0; stroke-dasharray: 1.0,2.0;" x1="8" x2="136" y1="304.2966" y2="304.2966"/><text fill="#000000" font-family="sans-serif" font-size="11" lengthAdjust="spacingAndGlyphs" textLength="38" x="136" y="308.9341">member</text><line style="stroke: #A80036; stroke-width: 1.0; stroke-dasharray: 1.0,2.0;" x1="174" x2="302" y1="304.2966" y2="304.2966"/><line style="stroke: #A80036; stroke-width: 1.0; stroke-dasharray: 1.0,2.0;" x1="8" x2="137.5" y1="326.96" y2="326.96"/><text fill="#000000" font-family="sans-serif" font-size="11" lengthAdjust="spacingAndGlyphs" textLength="35" x="137.5" y="331.5974">method</text><line style="stroke: #A80036; stroke-width: 1.0; stroke-dasharray: 1.0,2.0;" x1="172.5" x2="302" y1="326.96" y2="326.96"/><!--MD5=[a050687ddce8a12eb66257fad22f2edd]
@startuml
class "shopTest.TestScenario.Login()" as cl1{
__**<color:green>has list</color>**__
..class..
..member..
..method..
__**<color:blue>calling list</color>**__
..class..
	Shop (239372207);
..member..
..method..
	User login(java.lang.String, java.lang.String) (1977310713);
__**<color:orange>called by list</color>**__
..class..
..member..
..method..
}

@enduml

PlantUML version 1.2020.19(Tue Oct 13 00:10:01 KST 2020)
(APACHE source distribution)
Java Runtime: Java(TM) SE Runtime Environment
JVM: Java HotSpot(TM) 64-Bit Server VM
Default Encoding: MS949
Language: ko
Country: KR
--></g></svg>