<?xml version="1.0" encoding="UTF-8" standalone="no"?><svg xmlns="http://www.w3.org/2000/svg" xmlns:xlink="http://www.w3.org/1999/xlink" contentScriptType="application/ecmascript" contentStyleType="text/css" height="380px" preserveAspectRatio="none" style="width:152px;height:380px;" version="1.1" viewBox="0 0 152 380" width="152px" zoomAndPan="magnify"><defs><filter height="300%" id="fn6cmaa499abc" width="300%" x="-1" y="-1"><feGaussianBlur result="blurOut" stdDeviation="2.0"/><feColorMatrix in="blurOut" result="blurOut2" type="matrix" values="0 0 0 0 0 0 0 0 0 0 0 0 0 0 0 0 0 0 .4 0"/><feOffset dx="4.0" dy="4.0" in="blurOut2" result="blurOut3"/><feBlend in="SourceGraphic" in2="blurOut3" mode="normal"/></filter></defs><g><!--MD5=[66694fa063c926b4aeee088b0666b669]
cluster target.A.main()--><polygon fill="#FFFFFF" filter="url(#fn6cmaa499abc)" points="16,6,124,6,131,31.2295,135,31.2295,135,373,16,373,16,6" style="stroke: #000000; stroke-width: 1.5;"/><line style="stroke: #000000; stroke-width: 1.5;" x1="16" x2="131" y1="31.2295" y2="31.2295"/><text fill="#000000" font-family="sans-serif" font-size="14" font-weight="bold" lengthAdjust="spacingAndGlyphs" textLength="102" x="20" y="24.1533">target.A.main()</text><!--MD5=[9c5118ba00ba84df602a4406ab0044b3]
class target.A.main().r--><rect codeLine="1" fill="#FEFECE" filter="url(#fn6cmaa499abc)" height="311.96" id="target.A.main().r" style="stroke: #A80036; stroke-width: 1.5;" width="76" x="37" y="45"/><ellipse cx="70" cy="61" fill="#ADD1B2" rx="11" ry="11" style="stroke: #A80036; stroke-width: 1.0;"/><path d="M69.5625,54.5156 Q66.8281,54.5156 65.75,56.1406 Q64.6094,57.8594 64.6094,60.7813 Q64.6094,64.0781 65.7656,65.7813 Q66.75,67.2813 69.3594,67.2813 Q70.9375,67.2813 71.8125,66.4531 Q72.7969,65.5 72.9375,63.375 Q72.9375,63.0781 72.7656,62.9063 Q72.6406,62.75 72.4219,62.7344 Q71.2031,62.7344 71.0469,62.8594 Q70.875,63.0156 70.875,63.2813 Q70.8438,64.7656 70.1875,65.5781 Q69.5781,66.375 69.5,66.375 Q68.1719,66.375 67.3906,64.7813 Q66.6406,63.2344 66.6406,60.75 Q66.6406,58.125 67.5781,56.6719 Q68.4063,55.4219 69.6875,55.4219 Q69.6875,55.4219 70.0313,56.0469 Q70.6563,56.7188 70.7969,57.875 Q70.9063,58.4531 72.375,58.2344 Q72.9063,58.1563 72.875,57.7344 Q72.7031,56.2969 71.9844,55.4844 Q71.125,54.5156 69.5625,54.5156 Z "/><text fill="#000000" font-family="sans-serif" font-size="12" lengthAdjust="spacingAndGlyphs" textLength="4" x="88" y="66.6045">r</text><line style="stroke: #A80036; stroke-width: 1.5;" x1="38" x2="112" y1="77" y2="77"/><line style="stroke: #A80036; stroke-width: 1.5;" x1="38" x2="55" y1="92.5544" y2="92.5544"/><text fill="#008000" font-family="sans-serif" font-size="11" font-weight="bold" lengthAdjust="spacingAndGlyphs" textLength="40" x="55" y="97.1919">has list</text><line style="stroke: #A80036; stroke-width: 1.5;" x1="95" x2="112" y1="92.5544" y2="92.5544"/><line style="stroke: #A80036; stroke-width: 1.0; stroke-dasharray: 1.0,2.0;" x1="38" x2="62" y1="115.2178" y2="115.2178"/><text fill="#000000" font-family="sans-serif" font-size="11" lengthAdjust="spacingAndGlyphs" textLength="26" x="62" y="119.8552">class</text><line style="stroke: #A80036; stroke-width: 1.0; stroke-dasharray: 1.0,2.0;" x1="88" x2="112" y1="115.2178" y2="115.2178"/><line style="stroke: #A80036; stroke-width: 1.0; stroke-dasharray: 1.0,2.0;" x1="38" x2="56" y1="137.8811" y2="137.8811"/><text fill="#000000" font-family="sans-serif" font-size="11" lengthAdjust="spacingAndGlyphs" textLength="38" x="56" y="142.5186">member</text><line style="stroke: #A80036; stroke-width: 1.0; stroke-dasharray: 1.0,2.0;" x1="94" x2="112" y1="137.8811" y2="137.8811"/><line style="stroke: #A80036; stroke-width: 1.0; stroke-dasharray: 1.0,2.0;" x1="38" x2="57.5" y1="160.5444" y2="160.5444"/><text fill="#000000" font-family="sans-serif" font-size="11" lengthAdjust="spacingAndGlyphs" textLength="35" x="57.5" y="165.1819">method</text><line style="stroke: #A80036; stroke-width: 1.0; stroke-dasharray: 1.0,2.0;" x1="92.5" x2="112" y1="160.5444" y2="160.5444"/><line style="stroke: #A80036; stroke-width: 1.5;" x1="38" x2="47.5" y1="183.2078" y2="183.2078"/><text fill="#0000FF" font-family="sans-serif" font-size="11" font-weight="bold" lengthAdjust="spacingAndGlyphs" textLength="55" x="47.5" y="187.8452">calling list</text><line style="stroke: #A80036; stroke-width: 1.5;" x1="102.5" x2="112" y1="183.2078" y2="183.2078"/><line style="stroke: #A80036; stroke-width: 1.0; stroke-dasharray: 1.0,2.0;" x1="38" x2="62" y1="205.8711" y2="205.8711"/><text fill="#000000" font-family="sans-serif" font-size="11" lengthAdjust="spacingAndGlyphs" textLength="26" x="62" y="210.5085">class</text><line style="stroke: #A80036; stroke-width: 1.0; stroke-dasharray: 1.0,2.0;" x1="88" x2="112" y1="205.8711" y2="205.8711"/><line style="stroke: #A80036; stroke-width: 1.0; stroke-dasharray: 1.0,2.0;" x1="38" x2="56" y1="228.5344" y2="228.5344"/><text fill="#000000" font-family="sans-serif" font-size="11" lengthAdjust="spacingAndGlyphs" textLength="38" x="56" y="233.1719">member</text><line style="stroke: #A80036; stroke-width: 1.0; stroke-dasharray: 1.0,2.0;" x1="94" x2="112" y1="228.5344" y2="228.5344"/><line style="stroke: #A80036; stroke-width: 1.0; stroke-dasharray: 1.0,2.0;" x1="38" x2="57.5" y1="251.1978" y2="251.1978"/><text fill="#000000" font-family="sans-serif" font-size="11" lengthAdjust="spacingAndGlyphs" textLength="35" x="57.5" y="255.8352">method</text><line style="stroke: #A80036; stroke-width: 1.0; stroke-dasharray: 1.0,2.0;" x1="92.5" x2="112" y1="251.1978" y2="251.1978"/><line style="stroke: #A80036; stroke-width: 1.5;" x1="38" x2="41" y1="273.8611" y2="273.8611"/><text fill="#FFA500" font-family="sans-serif" font-size="11" font-weight="bold" lengthAdjust="spacingAndGlyphs" textLength="68" x="41" y="278.4985">called by list</text><line style="stroke: #A80036; stroke-width: 1.5;" x1="109" x2="112" y1="273.8611" y2="273.8611"/><line style="stroke: #A80036; stroke-width: 1.0; stroke-dasharray: 1.0,2.0;" x1="38" x2="62" y1="296.5244" y2="296.5244"/><text fill="#000000" font-family="sans-serif" font-size="11" lengthAdjust="spacingAndGlyphs" textLength="26" x="62" y="301.1619">class</text><line style="stroke: #A80036; stroke-width: 1.0; stroke-dasharray: 1.0,2.0;" x1="88" x2="112" y1="296.5244" y2="296.5244"/><line style="stroke: #A80036; stroke-width: 1.0; stroke-dasharray: 1.0,2.0;" x1="38" x2="56" y1="319.1877" y2="319.1877"/><text fill="#000000" font-family="sans-serif" font-size="11" lengthAdjust="spacingAndGlyphs" textLength="38" x="56" y="323.8252">member</text><line style="stroke: #A80036; stroke-width: 1.0; stroke-dasharray: 1.0,2.0;" x1="94" x2="112" y1="319.1877" y2="319.1877"/><line style="stroke: #A80036; stroke-width: 1.0; stroke-dasharray: 1.0,2.0;" x1="38" x2="57.5" y1="341.8511" y2="341.8511"/><text fill="#000000" font-family="sans-serif" font-size="11" lengthAdjust="spacingAndGlyphs" textLength="35" x="57.5" y="346.4885">method</text><line style="stroke: #A80036; stroke-width: 1.0; stroke-dasharray: 1.0,2.0;" x1="92.5" x2="112" y1="341.8511" y2="341.8511"/><!--MD5=[09338c1eb1715ed4feae9a1e1f6e290c]
@startuml
class target.A.main().r{
__**<color:green>has list</color>**__
..class..
..member..
..method..
__**<color:blue>calling list</color>**__
..class..
..member..
..method..
__**<color:orange>called by list</color>**__
..class..
..member..
..method..
}

@enduml

PlantUML version 1.2020.19(Tue Oct 13 00:10:01 KST 2020)
(APACHE source distribution)
Java Runtime: Java(TM) SE Runtime Environment
JVM: Java HotSpot(TM) 64-Bit Server VM
Default Encoding: MS949
Language: ko
Country: KR
--></g></svg>