<?xml version="1.0" encoding="UTF-8" standalone="no"?><svg xmlns="http://www.w3.org/2000/svg" xmlns:xlink="http://www.w3.org/1999/xlink" contentScriptType="application/ecmascript" contentStyleType="text/css" height="404px" preserveAspectRatio="none" style="width:259px;height:404px;" version="1.1" viewBox="0 0 259 404" width="259px" zoomAndPan="magnify"><defs><filter height="300%" id="f1suqdnsbe23x6" width="300%" x="-1" y="-1"><feGaussianBlur result="blurOut" stdDeviation="2.0"/><feColorMatrix in="blurOut" result="blurOut2" type="matrix" values="0 0 0 0 0 0 0 0 0 0 0 0 0 0 0 0 0 0 .4 0"/><feOffset dx="4.0" dy="4.0" in="blurOut2" result="blurOut3"/><feBlend in="SourceGraphic" in2="blurOut3" mode="normal"/></filter></defs><g><!--MD5=[5a5e1445fbf430ecca47dcaca4cdc19e]
cluster target.Americano--><polygon fill="#FFFFFF" filter="url(#f1suqdnsbe23x6)" points="16,6,142,6,149,31.2295,242,31.2295,242,397,16,397,16,6" style="stroke: #000000; stroke-width: 1.5;"/><line style="stroke: #000000; stroke-width: 1.5;" x1="16" x2="149" y1="31.2295" y2="31.2295"/><text fill="#000000" font-family="sans-serif" font-size="14" font-weight="bold" lengthAdjust="spacingAndGlyphs" textLength="120" x="20" y="24.1533">target.Americano</text><!--MD5=[687f2eebb72748cc5425f3cd751fbd71]
class target.Americano.water--><rect codeLine="1" fill="#FEFECE" filter="url(#f1suqdnsbe23x6)" height="335.0688" id="target.Americano.water" style="stroke: #A80036; stroke-width: 1.5;" width="195" x="32" y="45.5"/><ellipse cx="110.25" cy="61.5" fill="#ADD1B2" rx="11" ry="11" style="stroke: #A80036; stroke-width: 1.0;"/><path d="M109.8125,55.0156 Q107.0781,55.0156 106,56.6406 Q104.8594,58.3594 104.8594,61.2813 Q104.8594,64.5781 106.0156,66.2813 Q107,67.7813 109.6094,67.7813 Q111.1875,67.7813 112.0625,66.9531 Q113.0469,66 113.1875,63.875 Q113.1875,63.5781 113.0156,63.4063 Q112.8906,63.25 112.6719,63.2344 Q111.4531,63.2344 111.2969,63.3594 Q111.125,63.5156 111.125,63.7813 Q111.0938,65.2656 110.4375,66.0781 Q109.8281,66.875 109.75,66.875 Q108.4219,66.875 107.6406,65.2813 Q106.8906,63.7344 106.8906,61.25 Q106.8906,58.625 107.8281,57.1719 Q108.6563,55.9219 109.9375,55.9219 Q109.9375,55.9219 110.2813,56.5469 Q110.9063,57.2188 111.0469,58.375 Q111.1563,58.9531 112.625,58.7344 Q113.1563,58.6563 113.125,58.2344 Q112.9531,56.7969 112.2344,55.9844 Q111.375,55.0156 109.8125,55.0156 Z "/><text fill="#000000" font-family="sans-serif" font-size="12" lengthAdjust="spacingAndGlyphs" textLength="30" x="130.75" y="67.1045">water</text><line style="stroke: #A80036; stroke-width: 1.5;" x1="33" x2="226" y1="77.5" y2="77.5"/><line style="stroke: #A80036; stroke-width: 1.5;" x1="33" x2="109.5" y1="93.0544" y2="93.0544"/><text fill="#008000" font-family="sans-serif" font-size="11" font-weight="bold" lengthAdjust="spacingAndGlyphs" textLength="40" x="109.5" y="97.6919">has list</text><line style="stroke: #A80036; stroke-width: 1.5;" x1="149.5" x2="226" y1="93.0544" y2="93.0544"/><line style="stroke: #A80036; stroke-width: 1.0; stroke-dasharray: 1.0,2.0;" x1="33" x2="116.5" y1="115.7178" y2="115.7178"/><text fill="#000000" font-family="sans-serif" font-size="11" lengthAdjust="spacingAndGlyphs" textLength="26" x="116.5" y="120.3552">class</text><line style="stroke: #A80036; stroke-width: 1.0; stroke-dasharray: 1.0,2.0;" x1="142.5" x2="226" y1="115.7178" y2="115.7178"/><line style="stroke: #A80036; stroke-width: 1.0; stroke-dasharray: 1.0,2.0;" x1="33" x2="110.5" y1="138.3811" y2="138.3811"/><text fill="#000000" font-family="sans-serif" font-size="11" lengthAdjust="spacingAndGlyphs" textLength="38" x="110.5" y="143.0186">member</text><line style="stroke: #A80036; stroke-width: 1.0; stroke-dasharray: 1.0,2.0;" x1="148.5" x2="226" y1="138.3811" y2="138.3811"/><line style="stroke: #A80036; stroke-width: 1.0; stroke-dasharray: 1.0,2.0;" x1="33" x2="112" y1="161.0444" y2="161.0444"/><text fill="#000000" font-family="sans-serif" font-size="11" lengthAdjust="spacingAndGlyphs" textLength="35" x="112" y="165.6819">method</text><line style="stroke: #A80036; stroke-width: 1.0; stroke-dasharray: 1.0,2.0;" x1="147" x2="226" y1="161.0444" y2="161.0444"/><line style="stroke: #A80036; stroke-width: 1.5;" x1="33" x2="102" y1="183.7078" y2="183.7078"/><text fill="#0000FF" font-family="sans-serif" font-size="11" font-weight="bold" lengthAdjust="spacingAndGlyphs" textLength="55" x="102" y="188.3452">calling list</text><line style="stroke: #A80036; stroke-width: 1.5;" x1="157" x2="226" y1="183.7078" y2="183.7078"/><line style="stroke: #A80036; stroke-width: 1.0; stroke-dasharray: 1.0,2.0;" x1="33" x2="116.5" y1="206.3711" y2="206.3711"/><text fill="#000000" font-family="sans-serif" font-size="11" lengthAdjust="spacingAndGlyphs" textLength="26" x="116.5" y="211.0085">class</text><line style="stroke: #A80036; stroke-width: 1.0; stroke-dasharray: 1.0,2.0;" x1="142.5" x2="226" y1="206.3711" y2="206.3711"/><line style="stroke: #A80036; stroke-width: 1.0; stroke-dasharray: 1.0,2.0;" x1="33" x2="110.5" y1="229.0344" y2="229.0344"/><text fill="#000000" font-family="sans-serif" font-size="11" lengthAdjust="spacingAndGlyphs" textLength="38" x="110.5" y="233.6719">member</text><line style="stroke: #A80036; stroke-width: 1.0; stroke-dasharray: 1.0,2.0;" x1="148.5" x2="226" y1="229.0344" y2="229.0344"/><line style="stroke: #A80036; stroke-width: 1.0; stroke-dasharray: 1.0,2.0;" x1="33" x2="112" y1="251.6978" y2="251.6978"/><text fill="#000000" font-family="sans-serif" font-size="11" lengthAdjust="spacingAndGlyphs" textLength="35" x="112" y="256.3352">method</text><line style="stroke: #A80036; stroke-width: 1.0; stroke-dasharray: 1.0,2.0;" x1="147" x2="226" y1="251.6978" y2="251.6978"/><line style="stroke: #A80036; stroke-width: 1.5;" x1="33" x2="95.5" y1="274.3611" y2="274.3611"/><text fill="#FFA500" font-family="sans-serif" font-size="11" font-weight="bold" lengthAdjust="spacingAndGlyphs" textLength="68" x="95.5" y="278.9985">called by list</text><line style="stroke: #A80036; stroke-width: 1.5;" x1="163.5" x2="226" y1="274.3611" y2="274.3611"/><text fill="#000000" font-family="sans-serif" font-size="11" lengthAdjust="spacingAndGlyphs" textLength="126" x="38" y="317.2708">Americano (1661081225);</text><line style="stroke: #A80036; stroke-width: 1.0; stroke-dasharray: 1.0,2.0;" x1="33" x2="116.5" y1="297.0244" y2="297.0244"/><text fill="#000000" font-family="sans-serif" font-size="11" lengthAdjust="spacingAndGlyphs" textLength="26" x="116.5" y="301.6619">class</text><line style="stroke: #A80036; stroke-width: 1.0; stroke-dasharray: 1.0,2.0;" x1="142.5" x2="226" y1="297.0244" y2="297.0244"/><line style="stroke: #A80036; stroke-width: 1.0; stroke-dasharray: 1.0,2.0;" x1="33" x2="110.5" y1="331.2422" y2="331.2422"/><text fill="#000000" font-family="sans-serif" font-size="11" lengthAdjust="spacingAndGlyphs" textLength="38" x="110.5" y="335.8796">member</text><line style="stroke: #A80036; stroke-width: 1.0; stroke-dasharray: 1.0,2.0;" x1="148.5" x2="226" y1="331.2422" y2="331.2422"/><text fill="#000000" font-family="sans-serif" font-size="11" lengthAdjust="spacingAndGlyphs" textLength="183" x="38" y="374.1519">Americano Americano() (215219944);</text><line style="stroke: #A80036; stroke-width: 1.0; stroke-dasharray: 1.0,2.0;" x1="33" x2="112" y1="353.9055" y2="353.9055"/><text fill="#000000" font-family="sans-serif" font-size="11" lengthAdjust="spacingAndGlyphs" textLength="35" x="112" y="358.543">method</text><line style="stroke: #A80036; stroke-width: 1.0; stroke-dasharray: 1.0,2.0;" x1="147" x2="226" y1="353.9055" y2="353.9055"/><!--MD5=[c6d49affe1acbdd06f5418c9576fdbb8]
@startuml
class target.Americano.water{
__**<color:green>has list</color>**__
..class..
..member..
..method..
__**<color:blue>calling list</color>**__
..class..
..member..
..method..
__**<color:orange>called by list</color>**__
..class..
	Americano (1661081225);
..member..
..method..
	Americano Americano() (215219944);
}

@enduml

PlantUML version 1.2020.19(Tue Oct 13 00:10:01 KST 2020)
(APACHE source distribution)
Java Runtime: Java(TM) SE Runtime Environment
JVM: Java HotSpot(TM) 64-Bit Server VM
Default Encoding: MS949
Language: ko
Country: KR
--></g></svg>