<?xml version="1.0" encoding="UTF-8" standalone="no"?><svg xmlns="http://www.w3.org/2000/svg" xmlns:xlink="http://www.w3.org/1999/xlink" contentScriptType="application/ecmascript" contentStyleType="text/css" height="380px" preserveAspectRatio="none" style="width:316px;height:380px;" version="1.1" viewBox="0 0 316 380" width="316px" zoomAndPan="magnify"><defs><filter height="300%" id="fb9rd05n0m0e6" width="300%" x="-1" y="-1"><feGaussianBlur result="blurOut" stdDeviation="2.0"/><feColorMatrix in="blurOut" result="blurOut2" type="matrix" values="0 0 0 0 0 0 0 0 0 0 0 0 0 0 0 0 0 0 .4 0"/><feOffset dx="4.0" dy="4.0" in="blurOut2" result="blurOut3"/><feBlend in="SourceGraphic" in2="blurOut3" mode="normal"/></filter></defs><g><!--MD5=[dbe9c85fa36f5b9fa76851b7c1ea9954]
cluster target.Barista.getOrder(target.Coffee)--><polygon fill="#FFFFFF" filter="url(#fb9rd05n0m0e6)" points="16,6,288,6,295,31.2295,299,31.2295,299,373,16,373,16,6" style="stroke: #000000; stroke-width: 1.5;"/><line style="stroke: #000000; stroke-width: 1.5;" x1="16" x2="295" y1="31.2295" y2="31.2295"/><text fill="#000000" font-family="sans-serif" font-size="14" font-weight="bold" lengthAdjust="spacingAndGlyphs" textLength="266" x="20" y="24.1533">target.Barista.getOrder(target.Coffee)</text><!--MD5=[1d5aa47a136287f240673cc25101a4da]
class target.Barista.getOrder(target.Coffee).menu--><rect codeLine="1" fill="#FEFECE" filter="url(#fb9rd05n0m0e6)" height="311.96" id="target.Barista.getOrder(target.Coffee).menu" style="stroke: #A80036; stroke-width: 1.5;" width="76" x="119" y="45"/><ellipse cx="139.4" cy="61" fill="#ADD1B2" rx="11" ry="11" style="stroke: #A80036; stroke-width: 1.0;"/><path d="M138.9625,54.5156 Q136.2281,54.5156 135.15,56.1406 Q134.0094,57.8594 134.0094,60.7813 Q134.0094,64.0781 135.1656,65.7813 Q136.15,67.2813 138.7594,67.2813 Q140.3375,67.2813 141.2125,66.4531 Q142.1969,65.5 142.3375,63.375 Q142.3375,63.0781 142.1656,62.9063 Q142.0406,62.75 141.8219,62.7344 Q140.6031,62.7344 140.4469,62.8594 Q140.275,63.0156 140.275,63.2813 Q140.2438,64.7656 139.5875,65.5781 Q138.9781,66.375 138.9,66.375 Q137.5719,66.375 136.7906,64.7813 Q136.0406,63.2344 136.0406,60.75 Q136.0406,58.125 136.9781,56.6719 Q137.8063,55.4219 139.0875,55.4219 Q139.0875,55.4219 139.4313,56.0469 Q140.0563,56.7188 140.1969,57.875 Q140.3063,58.4531 141.775,58.2344 Q142.3063,58.1563 142.275,57.7344 Q142.1031,56.2969 141.3844,55.4844 Q140.525,54.5156 138.9625,54.5156 Z "/><text fill="#000000" font-family="sans-serif" font-size="12" lengthAdjust="spacingAndGlyphs" textLength="32" x="154.6" y="66.6045">menu</text><line style="stroke: #A80036; stroke-width: 1.5;" x1="120" x2="194" y1="77" y2="77"/><line style="stroke: #A80036; stroke-width: 1.5;" x1="120" x2="137" y1="92.5544" y2="92.5544"/><text fill="#008000" font-family="sans-serif" font-size="11" font-weight="bold" lengthAdjust="spacingAndGlyphs" textLength="40" x="137" y="97.1919">has list</text><line style="stroke: #A80036; stroke-width: 1.5;" x1="177" x2="194" y1="92.5544" y2="92.5544"/><line style="stroke: #A80036; stroke-width: 1.0; stroke-dasharray: 1.0,2.0;" x1="120" x2="144" y1="115.2178" y2="115.2178"/><text fill="#000000" font-family="sans-serif" font-size="11" lengthAdjust="spacingAndGlyphs" textLength="26" x="144" y="119.8552">class</text><line style="stroke: #A80036; stroke-width: 1.0; stroke-dasharray: 1.0,2.0;" x1="170" x2="194" y1="115.2178" y2="115.2178"/><line style="stroke: #A80036; stroke-width: 1.0; stroke-dasharray: 1.0,2.0;" x1="120" x2="138" y1="137.8811" y2="137.8811"/><text fill="#000000" font-family="sans-serif" font-size="11" lengthAdjust="spacingAndGlyphs" textLength="38" x="138" y="142.5186">member</text><line style="stroke: #A80036; stroke-width: 1.0; stroke-dasharray: 1.0,2.0;" x1="176" x2="194" y1="137.8811" y2="137.8811"/><line style="stroke: #A80036; stroke-width: 1.0; stroke-dasharray: 1.0,2.0;" x1="120" x2="139.5" y1="160.5444" y2="160.5444"/><text fill="#000000" font-family="sans-serif" font-size="11" lengthAdjust="spacingAndGlyphs" textLength="35" x="139.5" y="165.1819">method</text><line style="stroke: #A80036; stroke-width: 1.0; stroke-dasharray: 1.0,2.0;" x1="174.5" x2="194" y1="160.5444" y2="160.5444"/><line style="stroke: #A80036; stroke-width: 1.5;" x1="120" x2="129.5" y1="183.2078" y2="183.2078"/><text fill="#0000FF" font-family="sans-serif" font-size="11" font-weight="bold" lengthAdjust="spacingAndGlyphs" textLength="55" x="129.5" y="187.8452">calling list</text><line style="stroke: #A80036; stroke-width: 1.5;" x1="184.5" x2="194" y1="183.2078" y2="183.2078"/><line style="stroke: #A80036; stroke-width: 1.0; stroke-dasharray: 1.0,2.0;" x1="120" x2="144" y1="205.8711" y2="205.8711"/><text fill="#000000" font-family="sans-serif" font-size="11" lengthAdjust="spacingAndGlyphs" textLength="26" x="144" y="210.5085">class</text><line style="stroke: #A80036; stroke-width: 1.0; stroke-dasharray: 1.0,2.0;" x1="170" x2="194" y1="205.8711" y2="205.8711"/><line style="stroke: #A80036; stroke-width: 1.0; stroke-dasharray: 1.0,2.0;" x1="120" x2="138" y1="228.5344" y2="228.5344"/><text fill="#000000" font-family="sans-serif" font-size="11" lengthAdjust="spacingAndGlyphs" textLength="38" x="138" y="233.1719">member</text><line style="stroke: #A80036; stroke-width: 1.0; stroke-dasharray: 1.0,2.0;" x1="176" x2="194" y1="228.5344" y2="228.5344"/><line style="stroke: #A80036; stroke-width: 1.0; stroke-dasharray: 1.0,2.0;" x1="120" x2="139.5" y1="251.1978" y2="251.1978"/><text fill="#000000" font-family="sans-serif" font-size="11" lengthAdjust="spacingAndGlyphs" textLength="35" x="139.5" y="255.8352">method</text><line style="stroke: #A80036; stroke-width: 1.0; stroke-dasharray: 1.0,2.0;" x1="174.5" x2="194" y1="251.1978" y2="251.1978"/><line style="stroke: #A80036; stroke-width: 1.5;" x1="120" x2="123" y1="273.8611" y2="273.8611"/><text fill="#FFA500" font-family="sans-serif" font-size="11" font-weight="bold" lengthAdjust="spacingAndGlyphs" textLength="68" x="123" y="278.4985">called by list</text><line style="stroke: #A80036; stroke-width: 1.5;" x1="191" x2="194" y1="273.8611" y2="273.8611"/><line style="stroke: #A80036; stroke-width: 1.0; stroke-dasharray: 1.0,2.0;" x1="120" x2="144" y1="296.5244" y2="296.5244"/><text fill="#000000" font-family="sans-serif" font-size="11" lengthAdjust="spacingAndGlyphs" textLength="26" x="144" y="301.1619">class</text><line style="stroke: #A80036; stroke-width: 1.0; stroke-dasharray: 1.0,2.0;" x1="170" x2="194" y1="296.5244" y2="296.5244"/><line style="stroke: #A80036; stroke-width: 1.0; stroke-dasharray: 1.0,2.0;" x1="120" x2="138" y1="319.1877" y2="319.1877"/><text fill="#000000" font-family="sans-serif" font-size="11" lengthAdjust="spacingAndGlyphs" textLength="38" x="138" y="323.8252">member</text><line style="stroke: #A80036; stroke-width: 1.0; stroke-dasharray: 1.0,2.0;" x1="176" x2="194" y1="319.1877" y2="319.1877"/><line style="stroke: #A80036; stroke-width: 1.0; stroke-dasharray: 1.0,2.0;" x1="120" x2="139.5" y1="341.8511" y2="341.8511"/><text fill="#000000" font-family="sans-serif" font-size="11" lengthAdjust="spacingAndGlyphs" textLength="35" x="139.5" y="346.4885">method</text><line style="stroke: #A80036; stroke-width: 1.0; stroke-dasharray: 1.0,2.0;" x1="174.5" x2="194" y1="341.8511" y2="341.8511"/><!--MD5=[2e588755d2cc4b62350c6894eb10290b]
@startuml
class target.Barista.getOrder(target.Coffee).menu{
__**<color:green>has list</color>**__
..class..
..member..
..method..
__**<color:blue>calling list</color>**__
..class..
..member..
..method..
__**<color:orange>called by list</color>**__
..class..
..member..
..method..
}

@enduml

PlantUML version 1.2020.19(Tue Oct 13 00:10:01 KST 2020)
(APACHE source distribution)
Java Runtime: Java(TM) SE Runtime Environment
JVM: Java HotSpot(TM) 64-Bit Server VM
Default Encoding: MS949
Language: ko
Country: KR
--></g></svg>