<?xml version="1.0" encoding="UTF-8" standalone="no"?><svg xmlns="http://www.w3.org/2000/svg" xmlns:xlink="http://www.w3.org/1999/xlink" contentScriptType="application/ecmascript" contentStyleType="text/css" height="480px" preserveAspectRatio="none" style="width:259px;height:480px;" version="1.1" viewBox="0 0 259 480" width="259px" zoomAndPan="magnify"><defs><filter height="300%" id="fuxhezpc65l17" width="300%" x="-1" y="-1"><feGaussianBlur result="blurOut" stdDeviation="2.0"/><feColorMatrix in="blurOut" result="blurOut2" type="matrix" values="0 0 0 0 0 0 0 0 0 0 0 0 0 0 0 0 0 0 .4 0"/><feOffset dx="4.0" dy="4.0" in="blurOut2" result="blurOut3"/><feBlend in="SourceGraphic" in2="blurOut3" mode="normal"/></filter></defs><g><!--MD5=[bef1dc5a5f986b4abb4386fbd2f5f120]
cluster target.Coffee--><polygon fill="#FFFFFF" filter="url(#fuxhezpc65l17)" points="16,6,115,6,122,31.2295,242,31.2295,242,473,16,473,16,6" style="stroke: #000000; stroke-width: 1.5;"/><line style="stroke: #000000; stroke-width: 1.5;" x1="16" x2="122" y1="31.2295" y2="31.2295"/><text fill="#000000" font-family="sans-serif" font-size="14" font-weight="bold" lengthAdjust="spacingAndGlyphs" textLength="93" x="20" y="24.1533">target.Coffee</text><!--MD5=[803785a08095d334e99201a866474311]
class target.Coffee.caffeine--><rect codeLine="1" fill="#FEFECE" filter="url(#fuxhezpc65l17)" height="410.6133" id="target.Coffee.caffeine" style="stroke: #A80036; stroke-width: 1.5;" width="195" x="32" y="45.5"/><ellipse cx="103.75" cy="61.5" fill="#ADD1B2" rx="11" ry="11" style="stroke: #A80036; stroke-width: 1.0;"/><path d="M103.3125,55.0156 Q100.5781,55.0156 99.5,56.6406 Q98.3594,58.3594 98.3594,61.2813 Q98.3594,64.5781 99.5156,66.2813 Q100.5,67.7813 103.1094,67.7813 Q104.6875,67.7813 105.5625,66.9531 Q106.5469,66 106.6875,63.875 Q106.6875,63.5781 106.5156,63.4063 Q106.3906,63.25 106.1719,63.2344 Q104.9531,63.2344 104.7969,63.3594 Q104.625,63.5156 104.625,63.7813 Q104.5938,65.2656 103.9375,66.0781 Q103.3281,66.875 103.25,66.875 Q101.9219,66.875 101.1406,65.2813 Q100.3906,63.7344 100.3906,61.25 Q100.3906,58.625 101.3281,57.1719 Q102.1563,55.9219 103.4375,55.9219 Q103.4375,55.9219 103.7813,56.5469 Q104.4063,57.2188 104.5469,58.375 Q104.6563,58.9531 106.125,58.7344 Q106.6563,58.6563 106.625,58.2344 Q106.4531,56.7969 105.7344,55.9844 Q104.875,55.0156 103.3125,55.0156 Z "/><text fill="#000000" font-family="sans-serif" font-size="12" lengthAdjust="spacingAndGlyphs" textLength="43" x="124.25" y="67.1045">caffeine</text><line style="stroke: #A80036; stroke-width: 1.5;" x1="33" x2="226" y1="77.5" y2="77.5"/><line style="stroke: #A80036; stroke-width: 1.5;" x1="33" x2="109.5" y1="93.0544" y2="93.0544"/><text fill="#008000" font-family="sans-serif" font-size="11" font-weight="bold" lengthAdjust="spacingAndGlyphs" textLength="40" x="109.5" y="97.6919">has list</text><line style="stroke: #A80036; stroke-width: 1.5;" x1="149.5" x2="226" y1="93.0544" y2="93.0544"/><line style="stroke: #A80036; stroke-width: 1.0; stroke-dasharray: 1.0,2.0;" x1="33" x2="116.5" y1="115.7178" y2="115.7178"/><text fill="#000000" font-family="sans-serif" font-size="11" lengthAdjust="spacingAndGlyphs" textLength="26" x="116.5" y="120.3552">class</text><line style="stroke: #A80036; stroke-width: 1.0; stroke-dasharray: 1.0,2.0;" x1="142.5" x2="226" y1="115.7178" y2="115.7178"/><line style="stroke: #A80036; stroke-width: 1.0; stroke-dasharray: 1.0,2.0;" x1="33" x2="110.5" y1="138.3811" y2="138.3811"/><text fill="#000000" font-family="sans-serif" font-size="11" lengthAdjust="spacingAndGlyphs" textLength="38" x="110.5" y="143.0186">member</text><line style="stroke: #A80036; stroke-width: 1.0; stroke-dasharray: 1.0,2.0;" x1="148.5" x2="226" y1="138.3811" y2="138.3811"/><line style="stroke: #A80036; stroke-width: 1.0; stroke-dasharray: 1.0,2.0;" x1="33" x2="112" y1="161.0444" y2="161.0444"/><text fill="#000000" font-family="sans-serif" font-size="11" lengthAdjust="spacingAndGlyphs" textLength="35" x="112" y="165.6819">method</text><line style="stroke: #A80036; stroke-width: 1.0; stroke-dasharray: 1.0,2.0;" x1="147" x2="226" y1="161.0444" y2="161.0444"/><line style="stroke: #A80036; stroke-width: 1.5;" x1="33" x2="102" y1="183.7078" y2="183.7078"/><text fill="#0000FF" font-family="sans-serif" font-size="11" font-weight="bold" lengthAdjust="spacingAndGlyphs" textLength="55" x="102" y="188.3452">calling list</text><line style="stroke: #A80036; stroke-width: 1.5;" x1="157" x2="226" y1="183.7078" y2="183.7078"/><line style="stroke: #A80036; stroke-width: 1.0; stroke-dasharray: 1.0,2.0;" x1="33" x2="116.5" y1="206.3711" y2="206.3711"/><text fill="#000000" font-family="sans-serif" font-size="11" lengthAdjust="spacingAndGlyphs" textLength="26" x="116.5" y="211.0085">class</text><line style="stroke: #A80036; stroke-width: 1.0; stroke-dasharray: 1.0,2.0;" x1="142.5" x2="226" y1="206.3711" y2="206.3711"/><line style="stroke: #A80036; stroke-width: 1.0; stroke-dasharray: 1.0,2.0;" x1="33" x2="110.5" y1="229.0344" y2="229.0344"/><text fill="#000000" font-family="sans-serif" font-size="11" lengthAdjust="spacingAndGlyphs" textLength="38" x="110.5" y="233.6719">member</text><line style="stroke: #A80036; stroke-width: 1.0; stroke-dasharray: 1.0,2.0;" x1="148.5" x2="226" y1="229.0344" y2="229.0344"/><line style="stroke: #A80036; stroke-width: 1.0; stroke-dasharray: 1.0,2.0;" x1="33" x2="112" y1="251.6978" y2="251.6978"/><text fill="#000000" font-family="sans-serif" font-size="11" lengthAdjust="spacingAndGlyphs" textLength="35" x="112" y="256.3352">method</text><line style="stroke: #A80036; stroke-width: 1.0; stroke-dasharray: 1.0,2.0;" x1="147" x2="226" y1="251.6978" y2="251.6978"/><line style="stroke: #A80036; stroke-width: 1.5;" x1="33" x2="95.5" y1="274.3611" y2="274.3611"/><text fill="#FFA500" font-family="sans-serif" font-size="11" font-weight="bold" lengthAdjust="spacingAndGlyphs" textLength="68" x="95.5" y="278.9985">called by list</text><line style="stroke: #A80036; stroke-width: 1.5;" x1="163.5" x2="226" y1="274.3611" y2="274.3611"/><text fill="#000000" font-family="sans-serif" font-size="11" lengthAdjust="spacingAndGlyphs" textLength="126" x="38" y="317.2708">Americano (1661081225);</text><text fill="#000000" font-family="sans-serif" font-size="11" lengthAdjust="spacingAndGlyphs" textLength="109" x="38" y="332.3796">CafeLatte (23211803);</text><text fill="#000000" font-family="sans-serif" font-size="11" lengthAdjust="spacingAndGlyphs" textLength="107" x="38" y="347.4885">Coffee (1923598304);</text><line style="stroke: #A80036; stroke-width: 1.0; stroke-dasharray: 1.0,2.0;" x1="33" x2="116.5" y1="297.0244" y2="297.0244"/><text fill="#000000" font-family="sans-serif" font-size="11" lengthAdjust="spacingAndGlyphs" textLength="26" x="116.5" y="301.6619">class</text><line style="stroke: #A80036; stroke-width: 1.0; stroke-dasharray: 1.0,2.0;" x1="142.5" x2="226" y1="297.0244" y2="297.0244"/><line style="stroke: #A80036; stroke-width: 1.0; stroke-dasharray: 1.0,2.0;" x1="33" x2="110.5" y1="361.46" y2="361.46"/><text fill="#000000" font-family="sans-serif" font-size="11" lengthAdjust="spacingAndGlyphs" textLength="38" x="110.5" y="366.0974">member</text><line style="stroke: #A80036; stroke-width: 1.0; stroke-dasharray: 1.0,2.0;" x1="148.5" x2="226" y1="361.46" y2="361.46"/><text fill="#000000" font-family="sans-serif" font-size="11" lengthAdjust="spacingAndGlyphs" textLength="183" x="38" y="404.3696">Americano Americano() (215219944);</text><text fill="#000000" font-family="sans-serif" font-size="11" lengthAdjust="spacingAndGlyphs" textLength="173" x="38" y="419.4785">CafeLatte CafeLatte() (776700275);</text><text fill="#000000" font-family="sans-serif" font-size="11" lengthAdjust="spacingAndGlyphs" textLength="139" x="38" y="434.5874">void addShot() (118394766);</text><text fill="#000000" font-family="sans-serif" font-size="11" lengthAdjust="spacingAndGlyphs" textLength="145" x="38" y="449.6963">void addShot() (1882554559);</text><line style="stroke: #A80036; stroke-width: 1.0; stroke-dasharray: 1.0,2.0;" x1="33" x2="112" y1="384.1233" y2="384.1233"/><text fill="#000000" font-family="sans-serif" font-size="11" lengthAdjust="spacingAndGlyphs" textLength="35" x="112" y="388.7607">method</text><line style="stroke: #A80036; stroke-width: 1.0; stroke-dasharray: 1.0,2.0;" x1="147" x2="226" y1="384.1233" y2="384.1233"/><!--MD5=[0078d58e44d2fc13fddefcf96aae02bc]
@startuml
class target.Coffee.caffeine{
__**<color:green>has list</color>**__
..class..
..member..
..method..
__**<color:blue>calling list</color>**__
..class..
..member..
..method..
__**<color:orange>called by list</color>**__
..class..
	Americano (1661081225);
	CafeLatte (23211803);
	Coffee (1923598304);
..member..
..method..
	Americano Americano() (215219944);
	CafeLatte CafeLatte() (776700275);
	void addShot() (118394766);
	void addShot() (1882554559);
}

@enduml

PlantUML version 1.2020.19(Tue Oct 13 00:10:01 KST 2020)
(APACHE source distribution)
Java Runtime: Java(TM) SE Runtime Environment
JVM: Java HotSpot(TM) 64-Bit Server VM
Default Encoding: MS949
Language: ko
Country: KR
--></g></svg>