<?xml version="1.0" encoding="UTF-8" standalone="no"?><svg xmlns="http://www.w3.org/2000/svg" xmlns:xlink="http://www.w3.org/1999/xlink" contentScriptType="application/ecmascript" contentStyleType="text/css" height="380px" preserveAspectRatio="none" style="width:345px;height:380px;" version="1.1" viewBox="0 0 345 380" width="345px" zoomAndPan="magnify"><defs><filter height="300%" id="f1ggiefglot93d" width="300%" x="-1" y="-1"><feGaussianBlur result="blurOut" stdDeviation="2.0"/><feColorMatrix in="blurOut" result="blurOut2" type="matrix" values="0 0 0 0 0 0 0 0 0 0 0 0 0 0 0 0 0 0 .4 0"/><feOffset dx="4.0" dy="4.0" in="blurOut2" result="blurOut3"/><feBlend in="SourceGraphic" in2="blurOut3" mode="normal"/></filter></defs><g><!--MD5=[10f24e211a2383b185748b7bbb12ae38]
cluster target.CoffeeShop.main(java.lang.String[])--><polygon fill="#FFFFFF" filter="url(#f1ggiefglot93d)" points="16,6,317,6,324,31.2295,328,31.2295,328,373,16,373,16,6" style="stroke: #000000; stroke-width: 1.5;"/><line style="stroke: #000000; stroke-width: 1.5;" x1="16" x2="324" y1="31.2295" y2="31.2295"/><text fill="#000000" font-family="sans-serif" font-size="14" font-weight="bold" lengthAdjust="spacingAndGlyphs" textLength="295" x="20" y="24.1533">target.CoffeeShop.main(java.lang.String[])</text><!--MD5=[10735f8b7331c4a2a314660811f6ac49]
class target.CoffeeShop.main(java.lang.String[]).cafe--><rect codeLine="1" fill="#FEFECE" filter="url(#f1ggiefglot93d)" height="311.96" id="target.CoffeeShop.main(java.lang.String[]).cafe" style="stroke: #A80036; stroke-width: 1.5;" width="76" x="134" y="45"/><ellipse cx="158.45" cy="61" fill="#ADD1B2" rx="11" ry="11" style="stroke: #A80036; stroke-width: 1.0;"/><path d="M158.0125,54.5156 Q155.2781,54.5156 154.2,56.1406 Q153.0594,57.8594 153.0594,60.7813 Q153.0594,64.0781 154.2156,65.7813 Q155.2,67.2813 157.8094,67.2813 Q159.3875,67.2813 160.2625,66.4531 Q161.2469,65.5 161.3875,63.375 Q161.3875,63.0781 161.2156,62.9063 Q161.0906,62.75 160.8719,62.7344 Q159.6531,62.7344 159.4969,62.8594 Q159.325,63.0156 159.325,63.2813 Q159.2938,64.7656 158.6375,65.5781 Q158.0281,66.375 157.95,66.375 Q156.6219,66.375 155.8406,64.7813 Q155.0906,63.2344 155.0906,60.75 Q155.0906,58.125 156.0281,56.6719 Q156.8563,55.4219 158.1375,55.4219 Q158.1375,55.4219 158.4813,56.0469 Q159.1063,56.7188 159.2469,57.875 Q159.3563,58.4531 160.825,58.2344 Q161.3563,58.1563 161.325,57.7344 Q161.1531,56.2969 160.4344,55.4844 Q159.575,54.5156 158.0125,54.5156 Z "/><text fill="#000000" font-family="sans-serif" font-size="12" lengthAdjust="spacingAndGlyphs" textLength="23" x="174.55" y="66.6045">cafe</text><line style="stroke: #A80036; stroke-width: 1.5;" x1="135" x2="209" y1="77" y2="77"/><line style="stroke: #A80036; stroke-width: 1.5;" x1="135" x2="152" y1="92.5544" y2="92.5544"/><text fill="#008000" font-family="sans-serif" font-size="11" font-weight="bold" lengthAdjust="spacingAndGlyphs" textLength="40" x="152" y="97.1919">has list</text><line style="stroke: #A80036; stroke-width: 1.5;" x1="192" x2="209" y1="92.5544" y2="92.5544"/><line style="stroke: #A80036; stroke-width: 1.0; stroke-dasharray: 1.0,2.0;" x1="135" x2="159" y1="115.2178" y2="115.2178"/><text fill="#000000" font-family="sans-serif" font-size="11" lengthAdjust="spacingAndGlyphs" textLength="26" x="159" y="119.8552">class</text><line style="stroke: #A80036; stroke-width: 1.0; stroke-dasharray: 1.0,2.0;" x1="185" x2="209" y1="115.2178" y2="115.2178"/><line style="stroke: #A80036; stroke-width: 1.0; stroke-dasharray: 1.0,2.0;" x1="135" x2="153" y1="137.8811" y2="137.8811"/><text fill="#000000" font-family="sans-serif" font-size="11" lengthAdjust="spacingAndGlyphs" textLength="38" x="153" y="142.5186">member</text><line style="stroke: #A80036; stroke-width: 1.0; stroke-dasharray: 1.0,2.0;" x1="191" x2="209" y1="137.8811" y2="137.8811"/><line style="stroke: #A80036; stroke-width: 1.0; stroke-dasharray: 1.0,2.0;" x1="135" x2="154.5" y1="160.5444" y2="160.5444"/><text fill="#000000" font-family="sans-serif" font-size="11" lengthAdjust="spacingAndGlyphs" textLength="35" x="154.5" y="165.1819">method</text><line style="stroke: #A80036; stroke-width: 1.0; stroke-dasharray: 1.0,2.0;" x1="189.5" x2="209" y1="160.5444" y2="160.5444"/><line style="stroke: #A80036; stroke-width: 1.5;" x1="135" x2="144.5" y1="183.2078" y2="183.2078"/><text fill="#0000FF" font-family="sans-serif" font-size="11" font-weight="bold" lengthAdjust="spacingAndGlyphs" textLength="55" x="144.5" y="187.8452">calling list</text><line style="stroke: #A80036; stroke-width: 1.5;" x1="199.5" x2="209" y1="183.2078" y2="183.2078"/><line style="stroke: #A80036; stroke-width: 1.0; stroke-dasharray: 1.0,2.0;" x1="135" x2="159" y1="205.8711" y2="205.8711"/><text fill="#000000" font-family="sans-serif" font-size="11" lengthAdjust="spacingAndGlyphs" textLength="26" x="159" y="210.5085">class</text><line style="stroke: #A80036; stroke-width: 1.0; stroke-dasharray: 1.0,2.0;" x1="185" x2="209" y1="205.8711" y2="205.8711"/><line style="stroke: #A80036; stroke-width: 1.0; stroke-dasharray: 1.0,2.0;" x1="135" x2="153" y1="228.5344" y2="228.5344"/><text fill="#000000" font-family="sans-serif" font-size="11" lengthAdjust="spacingAndGlyphs" textLength="38" x="153" y="233.1719">member</text><line style="stroke: #A80036; stroke-width: 1.0; stroke-dasharray: 1.0,2.0;" x1="191" x2="209" y1="228.5344" y2="228.5344"/><line style="stroke: #A80036; stroke-width: 1.0; stroke-dasharray: 1.0,2.0;" x1="135" x2="154.5" y1="251.1978" y2="251.1978"/><text fill="#000000" font-family="sans-serif" font-size="11" lengthAdjust="spacingAndGlyphs" textLength="35" x="154.5" y="255.8352">method</text><line style="stroke: #A80036; stroke-width: 1.0; stroke-dasharray: 1.0,2.0;" x1="189.5" x2="209" y1="251.1978" y2="251.1978"/><line style="stroke: #A80036; stroke-width: 1.5;" x1="135" x2="138" y1="273.8611" y2="273.8611"/><text fill="#FFA500" font-family="sans-serif" font-size="11" font-weight="bold" lengthAdjust="spacingAndGlyphs" textLength="68" x="138" y="278.4985">called by list</text><line style="stroke: #A80036; stroke-width: 1.5;" x1="206" x2="209" y1="273.8611" y2="273.8611"/><line style="stroke: #A80036; stroke-width: 1.0; stroke-dasharray: 1.0,2.0;" x1="135" x2="159" y1="296.5244" y2="296.5244"/><text fill="#000000" font-family="sans-serif" font-size="11" lengthAdjust="spacingAndGlyphs" textLength="26" x="159" y="301.1619">class</text><line style="stroke: #A80036; stroke-width: 1.0; stroke-dasharray: 1.0,2.0;" x1="185" x2="209" y1="296.5244" y2="296.5244"/><line style="stroke: #A80036; stroke-width: 1.0; stroke-dasharray: 1.0,2.0;" x1="135" x2="153" y1="319.1877" y2="319.1877"/><text fill="#000000" font-family="sans-serif" font-size="11" lengthAdjust="spacingAndGlyphs" textLength="38" x="153" y="323.8252">member</text><line style="stroke: #A80036; stroke-width: 1.0; stroke-dasharray: 1.0,2.0;" x1="191" x2="209" y1="319.1877" y2="319.1877"/><line style="stroke: #A80036; stroke-width: 1.0; stroke-dasharray: 1.0,2.0;" x1="135" x2="154.5" y1="341.8511" y2="341.8511"/><text fill="#000000" font-family="sans-serif" font-size="11" lengthAdjust="spacingAndGlyphs" textLength="35" x="154.5" y="346.4885">method</text><line style="stroke: #A80036; stroke-width: 1.0; stroke-dasharray: 1.0,2.0;" x1="189.5" x2="209" y1="341.8511" y2="341.8511"/><!--MD5=[fab129b75d7d9eb1caa792f32564d864]
@startuml
class target.CoffeeShop.main(java.lang.String[]).cafe{
__**<color:green>has list</color>**__
..class..
..member..
..method..
__**<color:blue>calling list</color>**__
..class..
..member..
..method..
__**<color:orange>called by list</color>**__
..class..
..member..
..method..
}

@enduml

PlantUML version 1.2020.19(Tue Oct 13 00:10:01 KST 2020)
(APACHE source distribution)
Java Runtime: Java(TM) SE Runtime Environment
JVM: Java HotSpot(TM) 64-Bit Server VM
Default Encoding: MS949
Language: ko
Country: KR
--></g></svg>