<?xml version="1.0" encoding="UTF-8" standalone="no"?><svg xmlns="http://www.w3.org/2000/svg" xmlns:xlink="http://www.w3.org/1999/xlink" contentScriptType="application/ecmascript" contentStyleType="text/css" height="380px" preserveAspectRatio="none" style="width:179px;height:380px;" version="1.1" viewBox="0 0 179 380" width="179px" zoomAndPan="magnify"><defs><filter height="300%" id="f1ec98cmezjn2" width="300%" x="-1" y="-1"><feGaussianBlur result="blurOut" stdDeviation="2.0"/><feColorMatrix in="blurOut" result="blurOut2" type="matrix" values="0 0 0 0 0 0 0 0 0 0 0 0 0 0 0 0 0 0 .4 0"/><feOffset dx="4.0" dy="4.0" in="blurOut2" result="blurOut3"/><feBlend in="SourceGraphic" in2="blurOut3" mode="normal"/></filter></defs><g><!--MD5=[28077b1fbc11dcab0fac192a96c31a26]
cluster target.CoffeeShop--><polygon fill="#FFFFFF" filter="url(#f1ec98cmezjn2)" points="16,6,151,6,158,31.2295,162,31.2295,162,373,16,373,16,6" style="stroke: #000000; stroke-width: 1.5;"/><line style="stroke: #000000; stroke-width: 1.5;" x1="16" x2="158" y1="31.2295" y2="31.2295"/><text fill="#000000" font-family="sans-serif" font-size="14" font-weight="bold" lengthAdjust="spacingAndGlyphs" textLength="129" x="20" y="24.1533">target.CoffeeShop</text><!--MD5=[5ff3815b4201d982d363530db2a2e343]
class target.CoffeeShop.menu--><rect codeLine="1" fill="#FEFECE" filter="url(#f1ec98cmezjn2)" height="311.96" id="target.CoffeeShop.menu" style="stroke: #A80036; stroke-width: 1.5;" width="76" x="51" y="45"/><ellipse cx="71.4" cy="61" fill="#ADD1B2" rx="11" ry="11" style="stroke: #A80036; stroke-width: 1.0;"/><path d="M70.9625,54.5156 Q68.2281,54.5156 67.15,56.1406 Q66.0094,57.8594 66.0094,60.7813 Q66.0094,64.0781 67.1656,65.7813 Q68.15,67.2813 70.7594,67.2813 Q72.3375,67.2813 73.2125,66.4531 Q74.1969,65.5 74.3375,63.375 Q74.3375,63.0781 74.1656,62.9063 Q74.0406,62.75 73.8219,62.7344 Q72.6031,62.7344 72.4469,62.8594 Q72.275,63.0156 72.275,63.2813 Q72.2438,64.7656 71.5875,65.5781 Q70.9781,66.375 70.9,66.375 Q69.5719,66.375 68.7906,64.7813 Q68.0406,63.2344 68.0406,60.75 Q68.0406,58.125 68.9781,56.6719 Q69.8063,55.4219 71.0875,55.4219 Q71.0875,55.4219 71.4313,56.0469 Q72.0563,56.7188 72.1969,57.875 Q72.3063,58.4531 73.775,58.2344 Q74.3063,58.1563 74.275,57.7344 Q74.1031,56.2969 73.3844,55.4844 Q72.525,54.5156 70.9625,54.5156 Z "/><text fill="#000000" font-family="sans-serif" font-size="12" lengthAdjust="spacingAndGlyphs" textLength="32" x="86.6" y="66.6045">menu</text><line style="stroke: #A80036; stroke-width: 1.5;" x1="52" x2="126" y1="77" y2="77"/><line style="stroke: #A80036; stroke-width: 1.5;" x1="52" x2="69" y1="92.5544" y2="92.5544"/><text fill="#008000" font-family="sans-serif" font-size="11" font-weight="bold" lengthAdjust="spacingAndGlyphs" textLength="40" x="69" y="97.1919">has list</text><line style="stroke: #A80036; stroke-width: 1.5;" x1="109" x2="126" y1="92.5544" y2="92.5544"/><line style="stroke: #A80036; stroke-width: 1.0; stroke-dasharray: 1.0,2.0;" x1="52" x2="76" y1="115.2178" y2="115.2178"/><text fill="#000000" font-family="sans-serif" font-size="11" lengthAdjust="spacingAndGlyphs" textLength="26" x="76" y="119.8552">class</text><line style="stroke: #A80036; stroke-width: 1.0; stroke-dasharray: 1.0,2.0;" x1="102" x2="126" y1="115.2178" y2="115.2178"/><line style="stroke: #A80036; stroke-width: 1.0; stroke-dasharray: 1.0,2.0;" x1="52" x2="70" y1="137.8811" y2="137.8811"/><text fill="#000000" font-family="sans-serif" font-size="11" lengthAdjust="spacingAndGlyphs" textLength="38" x="70" y="142.5186">member</text><line style="stroke: #A80036; stroke-width: 1.0; stroke-dasharray: 1.0,2.0;" x1="108" x2="126" y1="137.8811" y2="137.8811"/><line style="stroke: #A80036; stroke-width: 1.0; stroke-dasharray: 1.0,2.0;" x1="52" x2="71.5" y1="160.5444" y2="160.5444"/><text fill="#000000" font-family="sans-serif" font-size="11" lengthAdjust="spacingAndGlyphs" textLength="35" x="71.5" y="165.1819">method</text><line style="stroke: #A80036; stroke-width: 1.0; stroke-dasharray: 1.0,2.0;" x1="106.5" x2="126" y1="160.5444" y2="160.5444"/><line style="stroke: #A80036; stroke-width: 1.5;" x1="52" x2="61.5" y1="183.2078" y2="183.2078"/><text fill="#0000FF" font-family="sans-serif" font-size="11" font-weight="bold" lengthAdjust="spacingAndGlyphs" textLength="55" x="61.5" y="187.8452">calling list</text><line style="stroke: #A80036; stroke-width: 1.5;" x1="116.5" x2="126" y1="183.2078" y2="183.2078"/><line style="stroke: #A80036; stroke-width: 1.0; stroke-dasharray: 1.0,2.0;" x1="52" x2="76" y1="205.8711" y2="205.8711"/><text fill="#000000" font-family="sans-serif" font-size="11" lengthAdjust="spacingAndGlyphs" textLength="26" x="76" y="210.5085">class</text><line style="stroke: #A80036; stroke-width: 1.0; stroke-dasharray: 1.0,2.0;" x1="102" x2="126" y1="205.8711" y2="205.8711"/><line style="stroke: #A80036; stroke-width: 1.0; stroke-dasharray: 1.0,2.0;" x1="52" x2="70" y1="228.5344" y2="228.5344"/><text fill="#000000" font-family="sans-serif" font-size="11" lengthAdjust="spacingAndGlyphs" textLength="38" x="70" y="233.1719">member</text><line style="stroke: #A80036; stroke-width: 1.0; stroke-dasharray: 1.0,2.0;" x1="108" x2="126" y1="228.5344" y2="228.5344"/><line style="stroke: #A80036; stroke-width: 1.0; stroke-dasharray: 1.0,2.0;" x1="52" x2="71.5" y1="251.1978" y2="251.1978"/><text fill="#000000" font-family="sans-serif" font-size="11" lengthAdjust="spacingAndGlyphs" textLength="35" x="71.5" y="255.8352">method</text><line style="stroke: #A80036; stroke-width: 1.0; stroke-dasharray: 1.0,2.0;" x1="106.5" x2="126" y1="251.1978" y2="251.1978"/><line style="stroke: #A80036; stroke-width: 1.5;" x1="52" x2="55" y1="273.8611" y2="273.8611"/><text fill="#FFA500" font-family="sans-serif" font-size="11" font-weight="bold" lengthAdjust="spacingAndGlyphs" textLength="68" x="55" y="278.4985">called by list</text><line style="stroke: #A80036; stroke-width: 1.5;" x1="123" x2="126" y1="273.8611" y2="273.8611"/><line style="stroke: #A80036; stroke-width: 1.0; stroke-dasharray: 1.0,2.0;" x1="52" x2="76" y1="296.5244" y2="296.5244"/><text fill="#000000" font-family="sans-serif" font-size="11" lengthAdjust="spacingAndGlyphs" textLength="26" x="76" y="301.1619">class</text><line style="stroke: #A80036; stroke-width: 1.0; stroke-dasharray: 1.0,2.0;" x1="102" x2="126" y1="296.5244" y2="296.5244"/><line style="stroke: #A80036; stroke-width: 1.0; stroke-dasharray: 1.0,2.0;" x1="52" x2="70" y1="319.1877" y2="319.1877"/><text fill="#000000" font-family="sans-serif" font-size="11" lengthAdjust="spacingAndGlyphs" textLength="38" x="70" y="323.8252">member</text><line style="stroke: #A80036; stroke-width: 1.0; stroke-dasharray: 1.0,2.0;" x1="108" x2="126" y1="319.1877" y2="319.1877"/><line style="stroke: #A80036; stroke-width: 1.0; stroke-dasharray: 1.0,2.0;" x1="52" x2="71.5" y1="341.8511" y2="341.8511"/><text fill="#000000" font-family="sans-serif" font-size="11" lengthAdjust="spacingAndGlyphs" textLength="35" x="71.5" y="346.4885">method</text><line style="stroke: #A80036; stroke-width: 1.0; stroke-dasharray: 1.0,2.0;" x1="106.5" x2="126" y1="341.8511" y2="341.8511"/><!--MD5=[6f26e3edfb05872f14ba008a785191c9]
@startuml
class target.CoffeeShop.menu{
__**<color:green>has list</color>**__
..class..
..member..
..method..
__**<color:blue>calling list</color>**__
..class..
..member..
..method..
__**<color:orange>called by list</color>**__
..class..
..member..
..method..
}

@enduml

PlantUML version 1.2020.19(Tue Oct 13 00:10:01 KST 2020)
(APACHE source distribution)
Java Runtime: Java(TM) SE Runtime Environment
JVM: Java HotSpot(TM) 64-Bit Server VM
Default Encoding: MS949
Language: ko
Country: KR
--></g></svg>