<?xml version="1.0" encoding="UTF-8" standalone="no"?><svg xmlns="http://www.w3.org/2000/svg" xmlns:xlink="http://www.w3.org/1999/xlink" contentScriptType="application/ecmascript" contentStyleType="text/css" height="305px" preserveAspectRatio="none" style="width:231px;height:305px;" version="1.1" viewBox="0 0 231 305" width="231px" zoomAndPan="magnify"><defs><filter height="300%" id="f1fk2xsaqpm94n" width="300%" x="-1" y="-1"><feGaussianBlur result="blurOut" stdDeviation="2.0"/><feColorMatrix in="blurOut" result="blurOut2" type="matrix" values="0 0 0 0 0 0 0 0 0 0 0 0 0 0 0 0 0 0 .4 0"/><feOffset dx="4.0" dy="4.0" in="blurOut2" result="blurOut3"/><feBlend in="SourceGraphic" in2="blurOut3" mode="normal"/></filter></defs><g><!--MD5=[f552da2e968eda1b29b7ebf65b378026]
cluster shop--><polygon fill="#FFFFFF" filter="url(#f1fk2xsaqpm94n)" points="83,6,124,6,131,31.2295,214,31.2295,214,298,83,298,83,6" style="stroke: #000000; stroke-width: 1.5;"/><line style="stroke: #000000; stroke-width: 1.5;" x1="83" x2="131" y1="31.2295" y2="31.2295"/><text fill="#000000" font-family="sans-serif" font-size="14" font-weight="bold" lengthAdjust="spacingAndGlyphs" textLength="35" x="87" y="24.1533">shop</text><ellipse cx="148.7132" cy="61.0973" fill="#FEFECE" filter="url(#f1fk2xsaqpm94n)" rx="24.2132" ry="16.5973" style="stroke: #A80036; stroke-width: 1.5;"/><text fill="#000000" font-family="sans-serif" font-size="14" lengthAdjust="spacingAndGlyphs" textLength="30" x="133.7132" y="67.2121">login</text><ellipse cx="148.6341" cy="128.8073" fill="#FEFECE" filter="url(#f1fk2xsaqpm94n)" rx="19.6341" ry="16.3073" style="stroke: #A80036; stroke-width: 1.5;"/><text fill="#000000" font-family="sans-serif" font-size="14" lengthAdjust="spacingAndGlyphs" textLength="23" x="137.1341" y="134.922">buy</text><ellipse cx="148.6127" cy="197.0973" fill="#FEFECE" filter="url(#f1fk2xsaqpm94n)" rx="34.1127" ry="16.5973" style="stroke: #A80036; stroke-width: 1.5;"/><text fill="#000000" font-family="sans-serif" font-size="14" lengthAdjust="spacingAndGlyphs" textLength="44" x="126.6127" y="203.2121">charge</text><ellipse cx="148.669" cy="265.0973" fill="#FEFECE" filter="url(#f1fk2xsaqpm94n)" rx="49.669" ry="16.5973" style="stroke: #A80036; stroke-width: 1.5;"/><text fill="#000000" font-family="sans-serif" font-size="14" lengthAdjust="spacingAndGlyphs" textLength="66" x="115.669" y="271.2121">addGoods</text><!--MD5=[96478c3a44a8bbdce1bb9751fb0a54e8]
entity actor1732502545--><ellipse cx="22.5" cy="130.5" fill="#FEFECE" filter="url(#f1fk2xsaqpm94n)" rx="8" ry="8" style="stroke: #A80036; stroke-width: 1.5;"/><path d="M22.5,138.5 L22.5,165.5 M9.5,146.5 L35.5,146.5 M22.5,165.5 L9.5,180.5 M22.5,165.5 L35.5,180.5 " fill="none" filter="url(#f1fk2xsaqpm94n)" style="stroke: #A80036; stroke-width: 1.5;"/><text fill="#000000" font-family="sans-serif" font-size="14" lengthAdjust="spacingAndGlyphs" textLength="33" x="6" y="202.1533">Actor</text><!--MD5=[60262c6ce2758a9d0877be46e497fea5]
link actor1732502545 to UC396283472--><path d="M39.07,189.38 C48.2,203.13 60.73,219.45 75,231 C86.45,240.27 100.85,247.7 113.79,253.21 " fill="none" id="actor1732502545-UC396283472" style="stroke: #A80036; stroke-width: 1.0;"/><!--MD5=[7868a91407c64f5fe11863a499d1e288]
link actor1732502545 to UC164974746--><path d="M39.2,167.31 C59.02,172.74 93.48,182.19 118.21,188.97 " fill="none" id="actor1732502545-UC164974746" style="stroke: #A80036; stroke-width: 1.0;"/><!--MD5=[88ba48d0880a6c875ae733685e39d546]
link actor1732502545 to UC116405378--><path d="M39.2,158.69 C62.27,152.37 105.21,140.59 129.52,133.93 " fill="none" id="actor1732502545-UC116405378" style="stroke: #A80036; stroke-width: 1.0;"/><!--MD5=[766d95962a8d13f45cf83fcdf1021f13]
link actor1732502545 to UC25536233--><path d="M39.07,136.62 C48.2,122.87 60.73,106.55 75,95 C90.34,82.58 110.97,73.48 126.3,67.83 " fill="none" id="actor1732502545-UC25536233" style="stroke: #A80036; stroke-width: 1.0;"/><!--MD5=[d6d8a8859261e43907c45caf43a84e7e]
@startuml
 left to right direction

actor Actor as actor1732502545

	package shop {
		usecase login as UC25536233
		usecase buy as UC116405378
		usecase charge as UC164974746
		usecase addGoods as UC396283472
	}
	actor1732502545 - - UC396283472
	actor1732502545 - - UC164974746
	actor1732502545 - - UC116405378
	actor1732502545 - - UC25536233

@enduml

PlantUML version 1.2020.19(Tue Oct 13 00:10:01 KST 2020)
(APACHE source distribution)
Java Runtime: Java(TM) SE Runtime Environment
JVM: Java HotSpot(TM) 64-Bit Server VM
Default Encoding: MS949
Language: ko
Country: KR
--></g></svg>