<?xml version="1.0" encoding="UTF-8" standalone="no"?><svg xmlns="http://www.w3.org/2000/svg" xmlns:xlink="http://www.w3.org/1999/xlink" contentScriptType="application/ecmascript" contentStyleType="text/css" height="474px" preserveAspectRatio="none" style="width:453px;height:474px;" version="1.1" viewBox="0 0 453 474" width="453px" zoomAndPan="magnify"><defs><filter height="300%" id="f11wxq3vt5tye8" width="300%" x="-1" y="-1"><feGaussianBlur result="blurOut" stdDeviation="2.0"/><feColorMatrix in="blurOut" result="blurOut2" type="matrix" values="0 0 0 0 0 0 0 0 0 0 0 0 0 0 0 0 0 0 .4 0"/><feOffset dx="4.0" dy="4.0" in="blurOut2" result="blurOut3"/><feBlend in="SourceGraphic" in2="blurOut3" mode="normal"/></filter></defs><g><rect fill="#FFFFFF" filter="url(#f11wxq3vt5tye8)" height="65.7119" style="stroke: #000000; stroke-width: 2.0;" width="328" x="10" y="60.2295"/><rect fill="#FFFFFF" filter="url(#f11wxq3vt5tye8)" height="65.7119" style="stroke: #000000; stroke-width: 2.0;" width="328" x="10" y="139.9414"/><rect fill="#FFFFFF" filter="url(#f11wxq3vt5tye8)" height="111.5679" style="stroke: #000000; stroke-width: 2.0;" width="429" x="10" y="219.6533"/><rect fill="#FFFFFF" filter="url(#f11wxq3vt5tye8)" height="65.7119" style="stroke: #000000; stroke-width: 2.0;" width="328" x="10" y="345.2212"/><line style="stroke: #A80036; stroke-width: 1.0; stroke-dasharray: 5.0,5.0;" x1="45" x2="45" y1="43.2295" y2="427.9331"/><line style="stroke: #A80036; stroke-width: 1.0; stroke-dasharray: 5.0,5.0;" x1="302" x2="302" y1="43.2295" y2="427.9331"/><line style="stroke: #A80036; stroke-width: 1.0; stroke-dasharray: 5.0,5.0;" x1="405" x2="405" y1="43.2295" y2="427.9331"/><rect fill="#FEFECE" filter="url(#f11wxq3vt5tye8)" height="33.2295" style="stroke: #A80036; stroke-width: 1.5;" width="47" x="20" y="5"/><text fill="#000000" font-family="sans-serif" font-size="14" lengthAdjust="spacingAndGlyphs" textLength="33" x="27" y="28.1533">Actor</text><rect fill="#FEFECE" filter="url(#f11wxq3vt5tye8)" height="33.2295" style="stroke: #A80036; stroke-width: 1.5;" width="47" x="20" y="426.9331"/><text fill="#000000" font-family="sans-serif" font-size="14" lengthAdjust="spacingAndGlyphs" textLength="33" x="27" y="450.0864">Actor</text><rect fill="#FEFECE" filter="url(#f11wxq3vt5tye8)" height="33.2295" style="stroke: #A80036; stroke-width: 1.5;" width="47" x="277" y="5"/><text fill="#000000" font-family="sans-serif" font-size="14" lengthAdjust="spacingAndGlyphs" textLength="33" x="284" y="28.1533">Shop</text><rect fill="#FEFECE" filter="url(#f11wxq3vt5tye8)" height="33.2295" style="stroke: #A80036; stroke-width: 1.5;" width="47" x="277" y="426.9331"/><text fill="#000000" font-family="sans-serif" font-size="14" lengthAdjust="spacingAndGlyphs" textLength="33" x="284" y="450.0864">Shop</text><rect fill="#FEFECE" filter="url(#f11wxq3vt5tye8)" height="33.2295" style="stroke: #A80036; stroke-width: 1.5;" width="43" x="382" y="5"/><text fill="#000000" font-family="sans-serif" font-size="14" lengthAdjust="spacingAndGlyphs" textLength="29" x="389" y="28.1533">User</text><rect fill="#FEFECE" filter="url(#f11wxq3vt5tye8)" height="33.2295" style="stroke: #A80036; stroke-width: 1.5;" width="43" x="382" y="426.9331"/><text fill="#000000" font-family="sans-serif" font-size="14" lengthAdjust="spacingAndGlyphs" textLength="29" x="389" y="450.0864">User</text><path d="M10,60.2295 L126,60.2295 L126,69.2295 L116,79.2295 L10,79.2295 L10,60.2295 " fill="#EEEEEE" style="stroke: #000000; stroke-width: 1.0;"/><rect fill="none" height="65.7119" style="stroke: #000000; stroke-width: 2.0;" width="328" x="10" y="60.2295"/><text fill="#000000" font-family="sans-serif" font-size="13" font-weight="bold" lengthAdjust="spacingAndGlyphs" textLength="71" x="25" y="76.229">void login()</text><polygon fill="#A80036" points="290.5,99.9414,300.5,103.9414,290.5,107.9414,294.5,103.9414" style="stroke: #A80036; stroke-width: 1.0;"/><line style="stroke: #A80036; stroke-width: 1.0;" x1="45.5" x2="296.5" y1="103.9414" y2="103.9414"/><text fill="#000000" font-family="sans-serif" font-size="13" lengthAdjust="spacingAndGlyphs" textLength="219" x="52.5" y="99.085">login(java.lang.String, java.lang.String)</text><polygon fill="#A80036" points="56.5,113.9414,46.5,117.9414,56.5,121.9414,52.5,117.9414" style="stroke: #A80036; stroke-width: 1.0;"/><line style="stroke: #A80036; stroke-width: 1.0; stroke-dasharray: 2.0,2.0;" x1="50.5" x2="301.5" y1="117.9414" y2="117.9414"/><path d="M10,139.9414 L117,139.9414 L117,148.9414 L107,158.9414 L10,158.9414 L10,139.9414 " fill="#EEEEEE" style="stroke: #000000; stroke-width: 1.0;"/><rect fill="none" height="65.7119" style="stroke: #000000; stroke-width: 2.0;" width="328" x="10" y="139.9414"/><text fill="#000000" font-family="sans-serif" font-size="13" font-weight="bold" lengthAdjust="spacingAndGlyphs" textLength="62" x="25" y="155.9409">void buy()</text><polygon fill="#A80036" points="290.5,179.6533,300.5,183.6533,290.5,187.6533,294.5,183.6533" style="stroke: #A80036; stroke-width: 1.0;"/><line style="stroke: #A80036; stroke-width: 1.0;" x1="45.5" x2="296.5" y1="183.6533" y2="183.6533"/><text fill="#000000" font-family="sans-serif" font-size="13" lengthAdjust="spacingAndGlyphs" textLength="166" x="52.5" y="178.7969">buy(shop.User, shop.Goods)</text><polygon fill="#A80036" points="56.5,193.6533,46.5,197.6533,56.5,201.6533,52.5,197.6533" style="stroke: #A80036; stroke-width: 1.0;"/><line style="stroke: #A80036; stroke-width: 1.0; stroke-dasharray: 2.0,2.0;" x1="50.5" x2="301.5" y1="197.6533" y2="197.6533"/><path d="M10,219.6533 L138,219.6533 L138,228.6533 L128,238.6533 L10,238.6533 L10,219.6533 " fill="#EEEEEE" style="stroke: #000000; stroke-width: 1.0;"/><rect fill="none" height="111.5679" style="stroke: #000000; stroke-width: 2.0;" width="429" x="10" y="219.6533"/><text fill="#000000" font-family="sans-serif" font-size="13" font-weight="bold" lengthAdjust="spacingAndGlyphs" textLength="83" x="25" y="235.6528">void charge()</text><polygon fill="#A80036" points="290.5,259.3652,300.5,263.3652,290.5,267.3652,294.5,263.3652" style="stroke: #A80036; stroke-width: 1.0;"/><line style="stroke: #A80036; stroke-width: 1.0;" x1="45.5" x2="296.5" y1="263.3652" y2="263.3652"/><text fill="#000000" font-family="sans-serif" font-size="13" lengthAdjust="spacingAndGlyphs" textLength="128" x="52.5" y="258.5088">charge(shop.User, int)</text><polygon fill="#A80036" points="393.5,291.2212,403.5,295.2212,393.5,299.2212,397.5,295.2212" style="stroke: #A80036; stroke-width: 1.0;"/><line style="stroke: #A80036; stroke-width: 1.0;" x1="302.5" x2="399.5" y1="295.2212" y2="295.2212"/><text fill="#000000" font-family="sans-serif" font-size="13" lengthAdjust="spacingAndGlyphs" textLength="79" x="309.5" y="290.3647">setMoney(int)</text><polygon fill="#A80036" points="313.5,305.2212,303.5,309.2212,313.5,313.2212,309.5,309.2212" style="stroke: #A80036; stroke-width: 1.0;"/><line style="stroke: #A80036; stroke-width: 1.0; stroke-dasharray: 2.0,2.0;" x1="307.5" x2="404.5" y1="309.2212" y2="309.2212"/><polygon fill="#A80036" points="56.5,319.2212,46.5,323.2212,56.5,327.2212,52.5,323.2212" style="stroke: #A80036; stroke-width: 1.0;"/><line style="stroke: #A80036; stroke-width: 1.0; stroke-dasharray: 2.0,2.0;" x1="50.5" x2="301.5" y1="323.2212" y2="323.2212"/><path d="M10,345.2212 L158,345.2212 L158,354.2212 L148,364.2212 L10,364.2212 L10,345.2212 " fill="#EEEEEE" style="stroke: #000000; stroke-width: 1.0;"/><rect fill="none" height="65.7119" style="stroke: #000000; stroke-width: 2.0;" width="328" x="10" y="345.2212"/><text fill="#000000" font-family="sans-serif" font-size="13" font-weight="bold" lengthAdjust="spacingAndGlyphs" textLength="103" x="25" y="361.2207">void addGoods()</text><polygon fill="#A80036" points="290.5,384.9331,300.5,388.9331,290.5,392.9331,294.5,388.9331" style="stroke: #A80036; stroke-width: 1.0;"/><line style="stroke: #A80036; stroke-width: 1.0;" x1="45.5" x2="296.5" y1="388.9331" y2="388.9331"/><text fill="#000000" font-family="sans-serif" font-size="13" lengthAdjust="spacingAndGlyphs" textLength="233" x="52.5" y="384.0767">addGoods(shop.Goods, java.lang.String)</text><polygon fill="#A80036" points="56.5,398.9331,46.5,402.9331,56.5,406.9331,52.5,402.9331" style="stroke: #A80036; stroke-width: 1.0;"/><line style="stroke: #A80036; stroke-width: 1.0; stroke-dasharray: 2.0,2.0;" x1="50.5" x2="301.5" y1="402.9331" y2="402.9331"/><!--MD5=[004180c7d04dc13fcb9a039dea4e34d7]
@startuml
group void login()
	Actor->Shop : login(java.lang.String, java.lang.String)
		Shop- ->Actor
end

group void buy()
	Actor->Shop : buy(shop.User, shop.Goods)
		Shop- ->Actor
end

group void charge()
	Actor->Shop : charge(shop.User, int)
		Shop->User : setMoney(int)
			User- ->Shop
		Shop- ->Actor
end

group void addGoods()
	Actor->Shop : addGoods(shop.Goods, java.lang.String)
		Shop- ->Actor
end

@enduml

PlantUML version 1.2020.19(Tue Oct 13 00:10:01 KST 2020)
(APACHE source distribution)
Java Runtime: Java(TM) SE Runtime Environment
JVM: Java HotSpot(TM) 64-Bit Server VM
Default Encoding: MS949
Language: ko
Country: KR
--></g></svg>