<?xml version="1.0" encoding="UTF-8" standalone="no"?><svg xmlns="http://www.w3.org/2000/svg" xmlns:xlink="http://www.w3.org/1999/xlink" contentScriptType="application/ecmascript" contentStyleType="text/css" height="492px" preserveAspectRatio="none" style="width:283px;height:492px;" version="1.1" viewBox="0 0 283 492" width="283px" zoomAndPan="magnify"><defs><filter height="300%" id="fvuhi1fek3mjs" width="300%" x="-1" y="-1"><feGaussianBlur result="blurOut" stdDeviation="2.0"/><feColorMatrix in="blurOut" result="blurOut2" type="matrix" values="0 0 0 0 0 0 0 0 0 0 0 0 0 0 0 0 0 0 .4 0"/><feOffset dx="4.0" dy="4.0" in="blurOut2" result="blurOut3"/><feBlend in="SourceGraphic" in2="blurOut3" mode="normal"/></filter></defs><g><!--MD5=[26c5909e3beb0655f44a32ec04b7bf98]
cluster target--><polygon fill="#FFFFFF" filter="url(#fvuhi1fek3mjs)" points="16,6,64,6,71,31.2295,266,31.2295,266,485,16,485,16,6" style="stroke: #000000; stroke-width: 1.5;"/><line style="stroke: #000000; stroke-width: 1.5;" x1="16" x2="71" y1="31.2295" y2="31.2295"/><text fill="#000000" font-family="sans-serif" font-size="14" font-weight="bold" lengthAdjust="spacingAndGlyphs" textLength="42" x="20" y="24.1533">target</text><!--MD5=[b1763ce95d976a390a6b2595961c411f]
class target.Exp--><rect codeLine="1" fill="#FEFECE" filter="url(#fvuhi1fek3mjs)" height="423.0588" id="target.Exp" style="stroke: #A80036; stroke-width: 1.5;" width="219" x="32" y="45.5"/><ellipse cx="127.25" cy="61.5" fill="#ADD1B2" rx="11" ry="11" style="stroke: #A80036; stroke-width: 1.0;"/><path d="M126.8125,55.0156 Q124.0781,55.0156 123,56.6406 Q121.8594,58.3594 121.8594,61.2813 Q121.8594,64.5781 123.0156,66.2813 Q124,67.7813 126.6094,67.7813 Q128.1875,67.7813 129.0625,66.9531 Q130.0469,66 130.1875,63.875 Q130.1875,63.5781 130.0156,63.4063 Q129.8906,63.25 129.6719,63.2344 Q128.4531,63.2344 128.2969,63.3594 Q128.125,63.5156 128.125,63.7813 Q128.0938,65.2656 127.4375,66.0781 Q126.8281,66.875 126.75,66.875 Q125.4219,66.875 124.6406,65.2813 Q123.8906,63.7344 123.8906,61.25 Q123.8906,58.625 124.8281,57.1719 Q125.6563,55.9219 126.9375,55.9219 Q126.9375,55.9219 127.2813,56.5469 Q127.9063,57.2188 128.0469,58.375 Q128.1563,58.9531 129.625,58.7344 Q130.1563,58.6563 130.125,58.2344 Q129.9531,56.7969 129.2344,55.9844 Q128.375,55.0156 126.8125,55.0156 Z "/><text fill="#000000" font-family="sans-serif" font-size="12" lengthAdjust="spacingAndGlyphs" textLength="20" x="147.75" y="67.1045">Exp</text><line style="stroke: #A80036; stroke-width: 1.5;" x1="33" x2="250" y1="77.5" y2="77.5"/><line style="stroke: #A80036; stroke-width: 1.5;" x1="33" x2="121.5" y1="93.0544" y2="93.0544"/><text fill="#008000" font-family="sans-serif" font-size="11" font-weight="bold" lengthAdjust="spacingAndGlyphs" textLength="40" x="121.5" y="97.6919">has list</text><line style="stroke: #A80036; stroke-width: 1.5;" x1="161.5" x2="250" y1="93.0544" y2="93.0544"/><line style="stroke: #A80036; stroke-width: 1.0; stroke-dasharray: 1.0,2.0;" x1="33" x2="128.5" y1="115.7178" y2="115.7178"/><text fill="#000000" font-family="sans-serif" font-size="11" lengthAdjust="spacingAndGlyphs" textLength="26" x="128.5" y="120.3552">class</text><line style="stroke: #A80036; stroke-width: 1.0; stroke-dasharray: 1.0,2.0;" x1="154.5" x2="250" y1="115.7178" y2="115.7178"/><text fill="#000000" font-family="sans-serif" font-size="11" lengthAdjust="spacingAndGlyphs" textLength="102" x="38" y="158.6274">int field (125881207);</text><line style="stroke: #A80036; stroke-width: 1.0; stroke-dasharray: 1.0,2.0;" x1="33" x2="122.5" y1="138.3811" y2="138.3811"/><text fill="#000000" font-family="sans-serif" font-size="11" lengthAdjust="spacingAndGlyphs" textLength="38" x="122.5" y="143.0186">member</text><line style="stroke: #A80036; stroke-width: 1.0; stroke-dasharray: 1.0,2.0;" x1="160.5" x2="250" y1="138.3811" y2="138.3811"/><text fill="#000000" font-family="sans-serif" font-size="11" lengthAdjust="spacingAndGlyphs" textLength="207" x="38" y="192.8452">void main(java.lang.String[]) (1763344271);</text><text fill="#000000" font-family="sans-serif" font-size="11" lengthAdjust="spacingAndGlyphs" textLength="148" x="38" y="207.9541">int methodCall() (1353170030);</text><line style="stroke: #A80036; stroke-width: 1.0; stroke-dasharray: 1.0,2.0;" x1="33" x2="124" y1="172.5989" y2="172.5989"/><text fill="#000000" font-family="sans-serif" font-size="11" lengthAdjust="spacingAndGlyphs" textLength="35" x="124" y="177.2363">method</text><line style="stroke: #A80036; stroke-width: 1.0; stroke-dasharray: 1.0,2.0;" x1="159" x2="250" y1="172.5989" y2="172.5989"/><line style="stroke: #A80036; stroke-width: 1.5;" x1="33" x2="114" y1="221.9255" y2="221.9255"/><text fill="#0000FF" font-family="sans-serif" font-size="11" font-weight="bold" lengthAdjust="spacingAndGlyphs" textLength="55" x="114" y="226.563">calling list</text><line style="stroke: #A80036; stroke-width: 1.5;" x1="169" x2="250" y1="221.9255" y2="221.9255"/><text fill="#000000" font-family="sans-serif" font-size="11" lengthAdjust="spacingAndGlyphs" textLength="86" x="38" y="264.8352">Exp (370869802);</text><line style="stroke: #A80036; stroke-width: 1.0; stroke-dasharray: 1.0,2.0;" x1="33" x2="128.5" y1="244.5889" y2="244.5889"/><text fill="#000000" font-family="sans-serif" font-size="11" lengthAdjust="spacingAndGlyphs" textLength="26" x="128.5" y="249.2263">class</text><line style="stroke: #A80036; stroke-width: 1.0; stroke-dasharray: 1.0,2.0;" x1="154.5" x2="250" y1="244.5889" y2="244.5889"/><text fill="#000000" font-family="sans-serif" font-size="11" lengthAdjust="spacingAndGlyphs" textLength="102" x="38" y="299.053">int field (125881207);</text><line style="stroke: #A80036; stroke-width: 1.0; stroke-dasharray: 1.0,2.0;" x1="33" x2="122.5" y1="278.8066" y2="278.8066"/><text fill="#000000" font-family="sans-serif" font-size="11" lengthAdjust="spacingAndGlyphs" textLength="38" x="122.5" y="283.4441">member</text><line style="stroke: #A80036; stroke-width: 1.0; stroke-dasharray: 1.0,2.0;" x1="160.5" x2="250" y1="278.8066" y2="278.8066"/><text fill="#000000" font-family="sans-serif" font-size="11" lengthAdjust="spacingAndGlyphs" textLength="148" x="38" y="333.2708">int methodCall() (1353170030);</text><line style="stroke: #A80036; stroke-width: 1.0; stroke-dasharray: 1.0,2.0;" x1="33" x2="124" y1="313.0244" y2="313.0244"/><text fill="#000000" font-family="sans-serif" font-size="11" lengthAdjust="spacingAndGlyphs" textLength="35" x="124" y="317.6619">method</text><line style="stroke: #A80036; stroke-width: 1.0; stroke-dasharray: 1.0,2.0;" x1="159" x2="250" y1="313.0244" y2="313.0244"/><line style="stroke: #A80036; stroke-width: 1.5;" x1="33" x2="107.5" y1="347.2422" y2="347.2422"/><text fill="#FFA500" font-family="sans-serif" font-size="11" font-weight="bold" lengthAdjust="spacingAndGlyphs" textLength="68" x="107.5" y="351.8796">called by list</text><line style="stroke: #A80036; stroke-width: 1.5;" x1="175.5" x2="250" y1="347.2422" y2="347.2422"/><text fill="#000000" font-family="sans-serif" font-size="11" lengthAdjust="spacingAndGlyphs" textLength="86" x="38" y="390.1519">Exp (370869802);</text><line style="stroke: #A80036; stroke-width: 1.0; stroke-dasharray: 1.0,2.0;" x1="33" x2="128.5" y1="369.9055" y2="369.9055"/><text fill="#000000" font-family="sans-serif" font-size="11" lengthAdjust="spacingAndGlyphs" textLength="26" x="128.5" y="374.543">class</text><line style="stroke: #A80036; stroke-width: 1.0; stroke-dasharray: 1.0,2.0;" x1="154.5" x2="250" y1="369.9055" y2="369.9055"/><line style="stroke: #A80036; stroke-width: 1.0; stroke-dasharray: 1.0,2.0;" x1="33" x2="122.5" y1="404.1233" y2="404.1233"/><text fill="#000000" font-family="sans-serif" font-size="11" lengthAdjust="spacingAndGlyphs" textLength="38" x="122.5" y="408.7607">member</text><line style="stroke: #A80036; stroke-width: 1.0; stroke-dasharray: 1.0,2.0;" x1="160.5" x2="250" y1="404.1233" y2="404.1233"/><text fill="#000000" font-family="sans-serif" font-size="11" lengthAdjust="spacingAndGlyphs" textLength="207" x="38" y="447.033">void main(java.lang.String[]) (1763344271);</text><text fill="#000000" font-family="sans-serif" font-size="11" lengthAdjust="spacingAndGlyphs" textLength="148" x="38" y="462.1418">int methodCall() (1353170030);</text><line style="stroke: #A80036; stroke-width: 1.0; stroke-dasharray: 1.0,2.0;" x1="33" x2="124" y1="426.7866" y2="426.7866"/><text fill="#000000" font-family="sans-serif" font-size="11" lengthAdjust="spacingAndGlyphs" textLength="35" x="124" y="431.4241">method</text><line style="stroke: #A80036; stroke-width: 1.0; stroke-dasharray: 1.0,2.0;" x1="159" x2="250" y1="426.7866" y2="426.7866"/><!--MD5=[9d8fc41c1fb34db7b2c8466e12b41136]
@startuml
class target.Exp{
__**<color:green>has list</color>**__
..class..
..member..
	int field (125881207);
..method..
	void main(java.lang.String[]) (1763344271);
	int methodCall() (1353170030);
__**<color:blue>calling list</color>**__
..class..
	Exp (370869802);
..member..
	int field (125881207);
..method..
	int methodCall() (1353170030);
__**<color:orange>called by list</color>**__
..class..
	Exp (370869802);
..member..
..method..
	void main(java.lang.String[]) (1763344271);
	int methodCall() (1353170030);
}

@enduml

PlantUML version 1.2020.19(Tue Oct 13 00:10:01 KST 2020)
(APACHE source distribution)
Java Runtime: Java(TM) SE Runtime Environment
JVM: Java HotSpot(TM) 64-Bit Server VM
Default Encoding: MS949
Language: ko
Country: KR
--></g></svg>