<?xml version="1.0" encoding="UTF-8" standalone="no"?><svg xmlns="http://www.w3.org/2000/svg" xmlns:xlink="http://www.w3.org/1999/xlink" contentScriptType="application/ecmascript" contentStyleType="text/css" height="430px" preserveAspectRatio="none" style="width:227px;height:430px;" version="1.1" viewBox="0 0 227 430" width="227px" zoomAndPan="magnify"><defs><filter height="300%" id="f1k92kdccfhvyk" width="300%" x="-1" y="-1"><feGaussianBlur result="blurOut" stdDeviation="2.0"/><feColorMatrix in="blurOut" result="blurOut2" type="matrix" values="0 0 0 0 0 0 0 0 0 0 0 0 0 0 0 0 0 0 .4 0"/><feOffset dx="4.0" dy="4.0" in="blurOut2" result="blurOut3"/><feBlend in="SourceGraphic" in2="blurOut3" mode="normal"/></filter></defs><g><!--MD5=[bd01ec5e465a246bd31236c56549ca68]
cluster target.Exp.main(java.lang--><polygon fill="#FFFFFF" filter="url(#f1k92kdccfhvyk)" points="16,6,199,6,206,31.2295,210,31.2295,210,423,16,423,16,6" style="stroke: #000000; stroke-width: 1.5;"/><line style="stroke: #000000; stroke-width: 1.5;" x1="16" x2="206" y1="31.2295" y2="31.2295"/><text fill="#000000" font-family="sans-serif" font-size="14" font-weight="bold" lengthAdjust="spacingAndGlyphs" textLength="177" x="20" y="24.1533">target.Exp.main(java.lang</text><!--MD5=[180768c43588b510da8ba8388f8e5e8d]
class target.Exp.main(java.lang.String[])--><rect codeLine="1" fill="#FEFECE" filter="url(#f1k92kdccfhvyk)" height="361.7322" id="target.Exp.main(java.lang.String[])" style="stroke: #A80036; stroke-width: 1.5;" width="160" x="33" y="45"/><ellipse cx="87.75" cy="61" fill="#ADD1B2" rx="11" ry="11" style="stroke: #A80036; stroke-width: 1.0;"/><path d="M87.3125,54.5156 Q84.5781,54.5156 83.5,56.1406 Q82.3594,57.8594 82.3594,60.7813 Q82.3594,64.0781 83.5156,65.7813 Q84.5,67.2813 87.1094,67.2813 Q88.6875,67.2813 89.5625,66.4531 Q90.5469,65.5 90.6875,63.375 Q90.6875,63.0781 90.5156,62.9063 Q90.3906,62.75 90.1719,62.7344 Q88.9531,62.7344 88.7969,62.8594 Q88.625,63.0156 88.625,63.2813 Q88.5938,64.7656 87.9375,65.5781 Q87.3281,66.375 87.25,66.375 Q85.9219,66.375 85.1406,64.7813 Q84.3906,63.2344 84.3906,60.75 Q84.3906,58.125 85.3281,56.6719 Q86.1563,55.4219 87.4375,55.4219 Q87.4375,55.4219 87.7813,56.0469 Q88.4063,56.7188 88.5469,57.875 Q88.6563,58.4531 90.125,58.2344 Q90.6563,58.1563 90.625,57.7344 Q90.4531,56.2969 89.7344,55.4844 Q88.875,54.5156 87.3125,54.5156 Z "/><text fill="#000000" font-family="sans-serif" font-size="12" lengthAdjust="spacingAndGlyphs" textLength="42" x="108.25" y="66.6045">String[])</text><line style="stroke: #A80036; stroke-width: 1.5;" x1="34" x2="192" y1="77" y2="77"/><line style="stroke: #A80036; stroke-width: 1.5;" x1="34" x2="93" y1="92.5544" y2="92.5544"/><text fill="#008000" font-family="sans-serif" font-size="11" font-weight="bold" lengthAdjust="spacingAndGlyphs" textLength="40" x="93" y="97.1919">has list</text><line style="stroke: #A80036; stroke-width: 1.5;" x1="133" x2="192" y1="92.5544" y2="92.5544"/><line style="stroke: #A80036; stroke-width: 1.0; stroke-dasharray: 1.0,2.0;" x1="34" x2="100" y1="115.2178" y2="115.2178"/><text fill="#000000" font-family="sans-serif" font-size="11" lengthAdjust="spacingAndGlyphs" textLength="26" x="100" y="119.8552">class</text><line style="stroke: #A80036; stroke-width: 1.0; stroke-dasharray: 1.0,2.0;" x1="126" x2="192" y1="115.2178" y2="115.2178"/><text fill="#000000" font-family="sans-serif" font-size="11" lengthAdjust="spacingAndGlyphs" textLength="107" x="39" y="158.1274">Exp exp (765284253);</text><text fill="#000000" font-family="sans-serif" font-size="11" lengthAdjust="spacingAndGlyphs" textLength="133" x="39" y="173.2363">String[] args (1077199500);</text><line style="stroke: #A80036; stroke-width: 1.0; stroke-dasharray: 1.0,2.0;" x1="34" x2="94" y1="137.8811" y2="137.8811"/><text fill="#000000" font-family="sans-serif" font-size="11" lengthAdjust="spacingAndGlyphs" textLength="38" x="94" y="142.5186">member</text><line style="stroke: #A80036; stroke-width: 1.0; stroke-dasharray: 1.0,2.0;" x1="132" x2="192" y1="137.8811" y2="137.8811"/><line style="stroke: #A80036; stroke-width: 1.0; stroke-dasharray: 1.0,2.0;" x1="34" x2="95.5" y1="187.2078" y2="187.2078"/><text fill="#000000" font-family="sans-serif" font-size="11" lengthAdjust="spacingAndGlyphs" textLength="35" x="95.5" y="191.8452">method</text><line style="stroke: #A80036; stroke-width: 1.0; stroke-dasharray: 1.0,2.0;" x1="130.5" x2="192" y1="187.2078" y2="187.2078"/><line style="stroke: #A80036; stroke-width: 1.5;" x1="34" x2="85.5" y1="209.8711" y2="209.8711"/><text fill="#0000FF" font-family="sans-serif" font-size="11" font-weight="bold" lengthAdjust="spacingAndGlyphs" textLength="55" x="85.5" y="214.5085">calling list</text><line style="stroke: #A80036; stroke-width: 1.5;" x1="140.5" x2="192" y1="209.8711" y2="209.8711"/><text fill="#000000" font-family="sans-serif" font-size="11" lengthAdjust="spacingAndGlyphs" textLength="86" x="39" y="252.7808">Exp (370869802);</text><line style="stroke: #A80036; stroke-width: 1.0; stroke-dasharray: 1.0,2.0;" x1="34" x2="100" y1="232.5344" y2="232.5344"/><text fill="#000000" font-family="sans-serif" font-size="11" lengthAdjust="spacingAndGlyphs" textLength="26" x="100" y="237.1719">class</text><line style="stroke: #A80036; stroke-width: 1.0; stroke-dasharray: 1.0,2.0;" x1="126" x2="192" y1="232.5344" y2="232.5344"/><line style="stroke: #A80036; stroke-width: 1.0; stroke-dasharray: 1.0,2.0;" x1="34" x2="94" y1="266.7522" y2="266.7522"/><text fill="#000000" font-family="sans-serif" font-size="11" lengthAdjust="spacingAndGlyphs" textLength="38" x="94" y="271.3896">member</text><line style="stroke: #A80036; stroke-width: 1.0; stroke-dasharray: 1.0,2.0;" x1="132" x2="192" y1="266.7522" y2="266.7522"/><text fill="#000000" font-family="sans-serif" font-size="11" lengthAdjust="spacingAndGlyphs" textLength="148" x="39" y="309.6619">int methodCall() (1353170030);</text><line style="stroke: #A80036; stroke-width: 1.0; stroke-dasharray: 1.0,2.0;" x1="34" x2="95.5" y1="289.4155" y2="289.4155"/><text fill="#000000" font-family="sans-serif" font-size="11" lengthAdjust="spacingAndGlyphs" textLength="35" x="95.5" y="294.053">method</text><line style="stroke: #A80036; stroke-width: 1.0; stroke-dasharray: 1.0,2.0;" x1="130.5" x2="192" y1="289.4155" y2="289.4155"/><line style="stroke: #A80036; stroke-width: 1.5;" x1="34" x2="79" y1="323.6333" y2="323.6333"/><text fill="#FFA500" font-family="sans-serif" font-size="11" font-weight="bold" lengthAdjust="spacingAndGlyphs" textLength="68" x="79" y="328.2708">called by list</text><line style="stroke: #A80036; stroke-width: 1.5;" x1="147" x2="192" y1="323.6333" y2="323.6333"/><line style="stroke: #A80036; stroke-width: 1.0; stroke-dasharray: 1.0,2.0;" x1="34" x2="100" y1="346.2966" y2="346.2966"/><text fill="#000000" font-family="sans-serif" font-size="11" lengthAdjust="spacingAndGlyphs" textLength="26" x="100" y="350.9341">class</text><line style="stroke: #A80036; stroke-width: 1.0; stroke-dasharray: 1.0,2.0;" x1="126" x2="192" y1="346.2966" y2="346.2966"/><line style="stroke: #A80036; stroke-width: 1.0; stroke-dasharray: 1.0,2.0;" x1="34" x2="94" y1="368.96" y2="368.96"/><text fill="#000000" font-family="sans-serif" font-size="11" lengthAdjust="spacingAndGlyphs" textLength="38" x="94" y="373.5974">member</text><line style="stroke: #A80036; stroke-width: 1.0; stroke-dasharray: 1.0,2.0;" x1="132" x2="192" y1="368.96" y2="368.96"/><line style="stroke: #A80036; stroke-width: 1.0; stroke-dasharray: 1.0,2.0;" x1="34" x2="95.5" y1="391.6233" y2="391.6233"/><text fill="#000000" font-family="sans-serif" font-size="11" lengthAdjust="spacingAndGlyphs" textLength="35" x="95.5" y="396.2607">method</text><line style="stroke: #A80036; stroke-width: 1.0; stroke-dasharray: 1.0,2.0;" x1="130.5" x2="192" y1="391.6233" y2="391.6233"/><!--MD5=[e65bbc02d1dd86fb359a441f08f7cd88]
@startuml
class target.Exp.main(java.lang.String[]){
__**<color:green>has list</color>**__
..class..
..member..
	Exp exp (765284253);
	String[] args (1077199500);
..method..
__**<color:blue>calling list</color>**__
..class..
	Exp (370869802);
..member..
..method..
	int methodCall() (1353170030);
__**<color:orange>called by list</color>**__
..class..
..member..
..method..
}

@enduml

PlantUML version 1.2020.19(Tue Oct 13 00:10:01 KST 2020)
(APACHE source distribution)
Java Runtime: Java(TM) SE Runtime Environment
JVM: Java HotSpot(TM) 64-Bit Server VM
Default Encoding: MS949
Language: ko
Country: KR
--></g></svg>