<?xml version="1.0" encoding="UTF-8" standalone="no"?><svg xmlns="http://www.w3.org/2000/svg" xmlns:xlink="http://www.w3.org/1999/xlink" contentScriptType="application/ecmascript" contentStyleType="text/css" height="416px" preserveAspectRatio="none" style="width:361px;height:416px;" version="1.1" viewBox="0 0 361 416" width="361px" zoomAndPan="magnify"><defs><filter height="300%" id="f10hbfqa8xm0zz" width="300%" x="-1" y="-1"><feGaussianBlur result="blurOut" stdDeviation="2.0"/><feColorMatrix in="blurOut" result="blurOut2" type="matrix" values="0 0 0 0 0 0 0 0 0 0 0 0 0 0 0 0 0 0 .4 0"/><feOffset dx="4.0" dy="4.0" in="blurOut2" result="blurOut3"/><feBlend in="SourceGraphic" in2="blurOut3" mode="normal"/></filter></defs><g><!--MD5=[f855d74e4b556380056f383f6b1dbac4]
cluster target.Barista.getOrder(target--><polygon fill="#FFFFFF" filter="url(#f10hbfqa8xm0zz)" points="16,6,232,6,239,31.2295,344,31.2295,344,409,16,409,16,6" style="stroke: #000000; stroke-width: 1.5;"/><line style="stroke: #000000; stroke-width: 1.5;" x1="16" x2="239" y1="31.2295" y2="31.2295"/><text fill="#000000" font-family="sans-serif" font-size="14" font-weight="bold" lengthAdjust="spacingAndGlyphs" textLength="210" x="20" y="24.1533">target.Barista.getOrder(target</text><!--MD5=[58a6a067198b34196d9ca36f34cc152f]
class target.Barista.getOrder(target.Barista)--><rect codeLine="1" fill="#FEFECE" filter="url(#f10hbfqa8xm0zz)" height="346.6233" id="target.Barista.getOrder(target.Barista)" style="stroke: #A80036; stroke-width: 1.5;" width="296" x="32" y="45.5"/><ellipse cx="154.25" cy="61.5" fill="#ADD1B2" rx="11" ry="11" style="stroke: #A80036; stroke-width: 1.0;"/><path d="M153.8125,55.0156 Q151.0781,55.0156 150,56.6406 Q148.8594,58.3594 148.8594,61.2813 Q148.8594,64.5781 150.0156,66.2813 Q151,67.7813 153.6094,67.7813 Q155.1875,67.7813 156.0625,66.9531 Q157.0469,66 157.1875,63.875 Q157.1875,63.5781 157.0156,63.4063 Q156.8906,63.25 156.6719,63.2344 Q155.4531,63.2344 155.2969,63.3594 Q155.125,63.5156 155.125,63.7813 Q155.0938,65.2656 154.4375,66.0781 Q153.8281,66.875 153.75,66.875 Q152.4219,66.875 151.6406,65.2813 Q150.8906,63.7344 150.8906,61.25 Q150.8906,58.625 151.8281,57.1719 Q152.6563,55.9219 153.9375,55.9219 Q153.9375,55.9219 154.2813,56.5469 Q154.9063,57.2188 155.0469,58.375 Q155.1563,58.9531 156.625,58.7344 Q157.1563,58.6563 157.125,58.2344 Q156.9531,56.7969 156.2344,55.9844 Q155.375,55.0156 153.8125,55.0156 Z "/><text fill="#000000" font-family="sans-serif" font-size="12" lengthAdjust="spacingAndGlyphs" textLength="43" x="174.75" y="67.1045">Barista)</text><line style="stroke: #A80036; stroke-width: 1.5;" x1="33" x2="327" y1="77.5" y2="77.5"/><line style="stroke: #A80036; stroke-width: 1.5;" x1="33" x2="160" y1="93.0544" y2="93.0544"/><text fill="#008000" font-family="sans-serif" font-size="11" font-weight="bold" lengthAdjust="spacingAndGlyphs" textLength="40" x="160" y="97.6919">has list</text><line style="stroke: #A80036; stroke-width: 1.5;" x1="200" x2="327" y1="93.0544" y2="93.0544"/><line style="stroke: #A80036; stroke-width: 1.0; stroke-dasharray: 1.0,2.0;" x1="33" x2="167" y1="115.7178" y2="115.7178"/><text fill="#000000" font-family="sans-serif" font-size="11" lengthAdjust="spacingAndGlyphs" textLength="26" x="167" y="120.3552">class</text><line style="stroke: #A80036; stroke-width: 1.0; stroke-dasharray: 1.0,2.0;" x1="193" x2="327" y1="115.7178" y2="115.7178"/><text fill="#000000" font-family="sans-serif" font-size="11" lengthAdjust="spacingAndGlyphs" textLength="128" x="38" y="158.6274">Barista staff (398572781);</text><line style="stroke: #A80036; stroke-width: 1.0; stroke-dasharray: 1.0,2.0;" x1="33" x2="161" y1="138.3811" y2="138.3811"/><text fill="#000000" font-family="sans-serif" font-size="11" lengthAdjust="spacingAndGlyphs" textLength="38" x="161" y="143.0186">member</text><line style="stroke: #A80036; stroke-width: 1.0; stroke-dasharray: 1.0,2.0;" x1="199" x2="327" y1="138.3811" y2="138.3811"/><line style="stroke: #A80036; stroke-width: 1.0; stroke-dasharray: 1.0,2.0;" x1="33" x2="162.5" y1="172.5989" y2="172.5989"/><text fill="#000000" font-family="sans-serif" font-size="11" lengthAdjust="spacingAndGlyphs" textLength="35" x="162.5" y="177.2363">method</text><line style="stroke: #A80036; stroke-width: 1.0; stroke-dasharray: 1.0,2.0;" x1="197.5" x2="327" y1="172.5989" y2="172.5989"/><line style="stroke: #A80036; stroke-width: 1.5;" x1="33" x2="152.5" y1="195.2622" y2="195.2622"/><text fill="#0000FF" font-family="sans-serif" font-size="11" font-weight="bold" lengthAdjust="spacingAndGlyphs" textLength="55" x="152.5" y="199.8997">calling list</text><line style="stroke: #A80036; stroke-width: 1.5;" x1="207.5" x2="327" y1="195.2622" y2="195.2622"/><text fill="#000000" font-family="sans-serif" font-size="11" lengthAdjust="spacingAndGlyphs" textLength="108" x="38" y="238.1719">Barista (1593180232);</text><line style="stroke: #A80036; stroke-width: 1.0; stroke-dasharray: 1.0,2.0;" x1="33" x2="167" y1="217.9255" y2="217.9255"/><text fill="#000000" font-family="sans-serif" font-size="11" lengthAdjust="spacingAndGlyphs" textLength="26" x="167" y="222.563">class</text><line style="stroke: #A80036; stroke-width: 1.0; stroke-dasharray: 1.0,2.0;" x1="193" x2="327" y1="217.9255" y2="217.9255"/><line style="stroke: #A80036; stroke-width: 1.0; stroke-dasharray: 1.0,2.0;" x1="33" x2="161" y1="252.1433" y2="252.1433"/><text fill="#000000" font-family="sans-serif" font-size="11" lengthAdjust="spacingAndGlyphs" textLength="38" x="161" y="256.7808">member</text><line style="stroke: #A80036; stroke-width: 1.0; stroke-dasharray: 1.0,2.0;" x1="199" x2="327" y1="252.1433" y2="252.1433"/><text fill="#000000" font-family="sans-serif" font-size="11" lengthAdjust="spacingAndGlyphs" textLength="284" x="38" y="295.053">Coffee makeCoffee(target.Coffee, boolean) (1526298704);</text><line style="stroke: #A80036; stroke-width: 1.0; stroke-dasharray: 1.0,2.0;" x1="33" x2="162.5" y1="274.8066" y2="274.8066"/><text fill="#000000" font-family="sans-serif" font-size="11" lengthAdjust="spacingAndGlyphs" textLength="35" x="162.5" y="279.4441">method</text><line style="stroke: #A80036; stroke-width: 1.0; stroke-dasharray: 1.0,2.0;" x1="197.5" x2="327" y1="274.8066" y2="274.8066"/><line style="stroke: #A80036; stroke-width: 1.5;" x1="33" x2="146" y1="309.0244" y2="309.0244"/><text fill="#FFA500" font-family="sans-serif" font-size="11" font-weight="bold" lengthAdjust="spacingAndGlyphs" textLength="68" x="146" y="313.6619">called by list</text><line style="stroke: #A80036; stroke-width: 1.5;" x1="214" x2="327" y1="309.0244" y2="309.0244"/><line style="stroke: #A80036; stroke-width: 1.0; stroke-dasharray: 1.0,2.0;" x1="33" x2="167" y1="331.6877" y2="331.6877"/><text fill="#000000" font-family="sans-serif" font-size="11" lengthAdjust="spacingAndGlyphs" textLength="26" x="167" y="336.3252">class</text><line style="stroke: #A80036; stroke-width: 1.0; stroke-dasharray: 1.0,2.0;" x1="193" x2="327" y1="331.6877" y2="331.6877"/><line style="stroke: #A80036; stroke-width: 1.0; stroke-dasharray: 1.0,2.0;" x1="33" x2="161" y1="354.3511" y2="354.3511"/><text fill="#000000" font-family="sans-serif" font-size="11" lengthAdjust="spacingAndGlyphs" textLength="38" x="161" y="358.9885">member</text><line style="stroke: #A80036; stroke-width: 1.0; stroke-dasharray: 1.0,2.0;" x1="199" x2="327" y1="354.3511" y2="354.3511"/><line style="stroke: #A80036; stroke-width: 1.0; stroke-dasharray: 1.0,2.0;" x1="33" x2="162.5" y1="377.0144" y2="377.0144"/><text fill="#000000" font-family="sans-serif" font-size="11" lengthAdjust="spacingAndGlyphs" textLength="35" x="162.5" y="381.6519">method</text><line style="stroke: #A80036; stroke-width: 1.0; stroke-dasharray: 1.0,2.0;" x1="197.5" x2="327" y1="377.0144" y2="377.0144"/><!--MD5=[3618f3f7a24f01dbf3e7a3b8400823c2]
@startuml
class target.Barista.getOrder(target.Barista){
__**<color:green>has list</color>**__
..class..
..member..
	Barista staff (398572781);
..method..
__**<color:blue>calling list</color>**__
..class..
	Barista (1593180232);
..member..
..method..
	Coffee makeCoffee(target.Coffee, boolean) (1526298704);
__**<color:orange>called by list</color>**__
..class..
..member..
..method..
}

@enduml

PlantUML version 1.2020.19(Tue Oct 13 00:10:01 KST 2020)
(APACHE source distribution)
Java Runtime: Java(TM) SE Runtime Environment
JVM: Java HotSpot(TM) 64-Bit Server VM
Default Encoding: MS949
Language: ko
Country: KR
--></g></svg>