<?xml version="1.0" encoding="UTF-8" standalone="no"?><svg xmlns="http://www.w3.org/2000/svg" xmlns:xlink="http://www.w3.org/1999/xlink" contentScriptType="application/ecmascript" contentStyleType="text/css" height="367px" preserveAspectRatio="none" style="width:333px;height:367px;background:#FFFFFF;" version="1.1" viewBox="0 0 333 367" width="333px" zoomAndPan="magnify"><defs><filter height="300%" id="f1wtayulai6d70" width="300%" x="-1" y="-1"><feGaussianBlur result="blurOut" stdDeviation="2.0"/><feColorMatrix in="blurOut" result="blurOut2" type="matrix" values="0 0 0 0 0 0 0 0 0 0 0 0 0 0 0 0 0 0 .4 0"/><feOffset dx="4.0" dy="4.0" in="blurOut2" result="blurOut3"/><feBlend in="SourceGraphic" in2="blurOut3" mode="normal"/></filter></defs><g><!--MD5=[f6064968006b102cb1b3092be2f53bd9]
class cl1--><rect codeLine="1" fill="#FEFECE" filter="url(#f1wtayulai6d70)" height="346.6233" id="cl1" style="stroke:#A80036;stroke-width:1.5;" width="312" x="7" y="7"/><ellipse cx="33.7" cy="23" fill="#ADD1B2" rx="11" ry="11" style="stroke:#A80036;stroke-width:1.0;"/><path d="M33.5281,16.4844 Q31.6531,16.4844 30.4969,18.2344 Q29.3094,20.0156 29.3094,23.0156 Q29.3094,26.3906 30.5125,28.1563 Q31.575,29.7813 33.325,29.7813 Q35.0125,29.7813 35.9656,28.875 Q37.0281,27.8594 37.1688,25.625 Q37.1688,25.2031 36.9344,24.9688 Q36.7469,24.7344 36.4031,24.7031 Q36.075,24.7031 35.8406,24.8906 Q35.575,25.125 35.575,25.5156 Q35.5438,26.9063 34.95,27.6406 Q34.4188,28.3438 33.4656,28.3438 Q32.3094,28.3438 31.5906,26.9063 Q30.8719,25.4063 30.8719,22.9844 Q30.8719,20.4375 31.7625,19.0469 Q32.5125,17.9219 33.6531,17.9219 Q34.3094,17.9219 34.8094,18.4688 Q35.3719,19.0781 35.4969,20.1406 Q35.5438,20.8438 36.3719,20.7344 Q37.1531,20.625 37.1063,19.9375 Q36.9188,18.4219 36.1531,17.5469 Q35.2156,16.4844 33.5281,16.4844 Z " fill="#000000"/><text fill="#000000" font-family="sans-serif" font-size="12" lengthAdjust="spacing" textLength="254" x="50.3" y="28.6045">hongik.selab.parser.java.JavaParser.targetList</text><line style="stroke:#A80036;stroke-width:1.5;" x1="8" x2="318" y1="39" y2="39"/><line style="stroke:#A80036;stroke-width:1.5;" x1="8" x2="143" y1="54.5544" y2="54.5544"/><text fill="#008000" font-family="sans-serif" font-size="11" font-weight="bold" lengthAdjust="spacing" textLength="40" x="143" y="59.1919">has list</text><line style="stroke:#A80036;stroke-width:1.5;" x1="183" x2="318" y1="54.5544" y2="54.5544"/><line style="stroke:#A80036;stroke-width:1.0;stroke-dasharray:1.0,2.0;" x1="8" x2="150" y1="77.2178" y2="77.2178"/><text fill="#000000" font-family="sans-serif" font-size="11" lengthAdjust="spacing" textLength="26" x="150" y="81.8552">class</text><line style="stroke:#A80036;stroke-width:1.0;stroke-dasharray:1.0,2.0;" x1="176" x2="318" y1="77.2178" y2="77.2178"/><line style="stroke:#A80036;stroke-width:1.0;stroke-dasharray:1.0,2.0;" x1="8" x2="144" y1="99.8811" y2="99.8811"/><text fill="#000000" font-family="sans-serif" font-size="11" lengthAdjust="spacing" textLength="38" x="144" y="104.5186">member</text><line style="stroke:#A80036;stroke-width:1.0;stroke-dasharray:1.0,2.0;" x1="182" x2="318" y1="99.8811" y2="99.8811"/><line style="stroke:#A80036;stroke-width:1.0;stroke-dasharray:1.0,2.0;" x1="8" x2="145.5" y1="122.5444" y2="122.5444"/><text fill="#000000" font-family="sans-serif" font-size="11" lengthAdjust="spacing" textLength="35" x="145.5" y="127.1819">method</text><line style="stroke:#A80036;stroke-width:1.0;stroke-dasharray:1.0,2.0;" x1="180.5" x2="318" y1="122.5444" y2="122.5444"/><line style="stroke:#A80036;stroke-width:1.5;" x1="8" x2="135.5" y1="145.2078" y2="145.2078"/><text fill="#0000FF" font-family="sans-serif" font-size="11" font-weight="bold" lengthAdjust="spacing" textLength="55" x="135.5" y="149.8452">calling list</text><line style="stroke:#A80036;stroke-width:1.5;" x1="190.5" x2="318" y1="145.2078" y2="145.2078"/><line style="stroke:#A80036;stroke-width:1.0;stroke-dasharray:1.0,2.0;" x1="8" x2="150" y1="167.8711" y2="167.8711"/><text fill="#000000" font-family="sans-serif" font-size="11" lengthAdjust="spacing" textLength="26" x="150" y="172.5085">class</text><line style="stroke:#A80036;stroke-width:1.0;stroke-dasharray:1.0,2.0;" x1="176" x2="318" y1="167.8711" y2="167.8711"/><line style="stroke:#A80036;stroke-width:1.0;stroke-dasharray:1.0,2.0;" x1="8" x2="144" y1="190.5344" y2="190.5344"/><text fill="#000000" font-family="sans-serif" font-size="11" lengthAdjust="spacing" textLength="38" x="144" y="195.1719">member</text><line style="stroke:#A80036;stroke-width:1.0;stroke-dasharray:1.0,2.0;" x1="182" x2="318" y1="190.5344" y2="190.5344"/><text fill="#000000" font-family="sans-serif" font-size="11" lengthAdjust="spacing" textLength="127" x="13" y="233.4441">null get(int) (1836777499);</text><line style="stroke:#A80036;stroke-width:1.0;stroke-dasharray:1.0,2.0;" x1="8" x2="145.5" y1="213.1978" y2="213.1978"/><text fill="#000000" font-family="sans-serif" font-size="11" lengthAdjust="spacing" textLength="35" x="145.5" y="217.8352">method</text><line style="stroke:#A80036;stroke-width:1.0;stroke-dasharray:1.0,2.0;" x1="180.5" x2="318" y1="213.1978" y2="213.1978"/><line style="stroke:#A80036;stroke-width:1.5;" x1="8" x2="129" y1="247.4155" y2="247.4155"/><text fill="#FFA500" font-family="sans-serif" font-size="11" font-weight="bold" lengthAdjust="spacing" textLength="68" x="129" y="252.053">called by list</text><line style="stroke:#A80036;stroke-width:1.5;" x1="197" x2="318" y1="247.4155" y2="247.4155"/><text fill="#000000" font-family="sans-serif" font-size="11" lengthAdjust="spacing" textLength="123" x="13" y="290.3252">JavaParser (945150386);</text><line style="stroke:#A80036;stroke-width:1.0;stroke-dasharray:1.0,2.0;" x1="8" x2="150" y1="270.0789" y2="270.0789"/><text fill="#000000" font-family="sans-serif" font-size="11" lengthAdjust="spacing" textLength="26" x="150" y="274.7163">class</text><line style="stroke:#A80036;stroke-width:1.0;stroke-dasharray:1.0,2.0;" x1="176" x2="318" y1="270.0789" y2="270.0789"/><line style="stroke:#A80036;stroke-width:1.0;stroke-dasharray:1.0,2.0;" x1="8" x2="144" y1="304.2966" y2="304.2966"/><text fill="#000000" font-family="sans-serif" font-size="11" lengthAdjust="spacing" textLength="38" x="144" y="308.9341">member</text><line style="stroke:#A80036;stroke-width:1.0;stroke-dasharray:1.0,2.0;" x1="182" x2="318" y1="304.2966" y2="304.2966"/><text fill="#000000" font-family="sans-serif" font-size="11" lengthAdjust="spacing" textLength="300" x="13" y="347.2063">CompilationUnit[] makeASTList(java.lang.String) (1275339119);</text><line style="stroke:#A80036;stroke-width:1.0;stroke-dasharray:1.0,2.0;" x1="8" x2="145.5" y1="326.96" y2="326.96"/><text fill="#000000" font-family="sans-serif" font-size="11" lengthAdjust="spacing" textLength="35" x="145.5" y="331.5974">method</text><line style="stroke:#A80036;stroke-width:1.0;stroke-dasharray:1.0,2.0;" x1="180.5" x2="318" y1="326.96" y2="326.96"/><!--MD5=[0ae04ceae11215ae885e2db254ae38c7]
@startuml
class "hongik.selab.parser.java.JavaParser.targetList" as cl1{
__**<color:green>has list</color>**__
..class..
..member..
..method..
__**<color:blue>calling list</color>**__
..class..
..member..
..method..
	null get(int) (1836777499);
__**<color:orange>called by list</color>**__
..class..
	JavaParser (945150386);
..member..
..method..
	CompilationUnit[] makeASTList(java.lang.String) (1275339119);
}

@enduml

PlantUML version 1.2021.13(Mon Nov 01 20:38:45 KST 2021)
(GPL source distribution)
Java Runtime: Java(TM) SE Runtime Environment
JVM: Java HotSpot(TM) 64-Bit Server VM
Default Encoding: MS949
Language: ko
Country: KR
--></g></svg>