<?xml version="1.0" encoding="UTF-8" standalone="no"?><svg xmlns="http://www.w3.org/2000/svg" xmlns:xlink="http://www.w3.org/1999/xlink" contentScriptType="application/ecmascript" contentStyleType="text/css" height="484px" preserveAspectRatio="none" style="width:361px;height:484px;" version="1.1" viewBox="0 0 361 484" width="361px" zoomAndPan="magnify"><defs><filter height="300%" id="fc5ioghltb1ri" width="300%" x="-1" y="-1"><feGaussianBlur result="blurOut" stdDeviation="2.0"/><feColorMatrix in="blurOut" result="blurOut2" type="matrix" values="0 0 0 0 0 0 0 0 0 0 0 0 0 0 0 0 0 0 .4 0"/><feOffset dx="4.0" dy="4.0" in="blurOut2" result="blurOut3"/><feBlend in="SourceGraphic" in2="blurOut3" mode="normal"/></filter></defs><g><!--MD5=[26c5909e3beb0655f44a32ec04b7bf98]
cluster target--><polygon fill="#FFFFFF" filter="url(#fc5ioghltb1ri)" points="16,6,64,6,71,31.2295,344,31.2295,344,477,16,477,16,6" style="stroke: #000000; stroke-width: 1.5;"/><line style="stroke: #000000; stroke-width: 1.5;" x1="16" x2="71" y1="31.2295" y2="31.2295"/><text fill="#000000" font-family="sans-serif" font-size="14" font-weight="bold" lengthAdjust="spacingAndGlyphs" textLength="42" x="20" y="24.1533">target</text><!--MD5=[b4399907fd0a3f402ef141ce3b89b92a]
class target.Barista--><rect codeLine="1" fill="#FEFECE" filter="url(#fc5ioghltb1ri)" height="415.0588" id="target.Barista" style="stroke: #A80036; stroke-width: 1.5;" width="296" x="32" y="45.5"/><ellipse cx="156.25" cy="61.5" fill="#ADD1B2" rx="11" ry="11" style="stroke: #A80036; stroke-width: 1.0;"/><path d="M155.8125,55.0156 Q153.0781,55.0156 152,56.6406 Q150.8594,58.3594 150.8594,61.2813 Q150.8594,64.5781 152.0156,66.2813 Q153,67.7813 155.6094,67.7813 Q157.1875,67.7813 158.0625,66.9531 Q159.0469,66 159.1875,63.875 Q159.1875,63.5781 159.0156,63.4063 Q158.8906,63.25 158.6719,63.2344 Q157.4531,63.2344 157.2969,63.3594 Q157.125,63.5156 157.125,63.7813 Q157.0938,65.2656 156.4375,66.0781 Q155.8281,66.875 155.75,66.875 Q154.4219,66.875 153.6406,65.2813 Q152.8906,63.7344 152.8906,61.25 Q152.8906,58.625 153.8281,57.1719 Q154.6563,55.9219 155.9375,55.9219 Q155.9375,55.9219 156.2813,56.5469 Q156.9063,57.2188 157.0469,58.375 Q157.1563,58.9531 158.625,58.7344 Q159.1563,58.6563 159.125,58.2344 Q158.9531,56.7969 158.2344,55.9844 Q157.375,55.0156 155.8125,55.0156 Z "/><text fill="#000000" font-family="sans-serif" font-size="12" lengthAdjust="spacingAndGlyphs" textLength="39" x="176.75" y="67.1045">Barista</text><line style="stroke: #A80036; stroke-width: 1.5;" x1="33" x2="327" y1="77.5" y2="77.5"/><line style="stroke: #A80036; stroke-width: 1.5;" x1="33" x2="160" y1="93.0544" y2="93.0544"/><text fill="#008000" font-family="sans-serif" font-size="11" font-weight="bold" lengthAdjust="spacingAndGlyphs" textLength="40" x="160" y="97.6919">has list</text><line style="stroke: #A80036; stroke-width: 1.5;" x1="200" x2="327" y1="93.0544" y2="93.0544"/><line style="stroke: #A80036; stroke-width: 1.0; stroke-dasharray: 1.0,2.0;" x1="33" x2="167" y1="115.7178" y2="115.7178"/><text fill="#000000" font-family="sans-serif" font-size="11" lengthAdjust="spacingAndGlyphs" textLength="26" x="167" y="120.3552">class</text><line style="stroke: #A80036; stroke-width: 1.0; stroke-dasharray: 1.0,2.0;" x1="193" x2="327" y1="115.7178" y2="115.7178"/><line style="stroke: #A80036; stroke-width: 1.0; stroke-dasharray: 1.0,2.0;" x1="33" x2="161" y1="138.3811" y2="138.3811"/><text fill="#000000" font-family="sans-serif" font-size="11" lengthAdjust="spacingAndGlyphs" textLength="38" x="161" y="143.0186">member</text><line style="stroke: #A80036; stroke-width: 1.0; stroke-dasharray: 1.0,2.0;" x1="199" x2="327" y1="138.3811" y2="138.3811"/><text fill="#000000" font-family="sans-serif" font-size="11" lengthAdjust="spacingAndGlyphs" textLength="225" x="38" y="181.2908">boolean getOrder(target.Barista) (898406901);</text><text fill="#000000" font-family="sans-serif" font-size="11" lengthAdjust="spacingAndGlyphs" textLength="284" x="38" y="196.3997">Coffee makeCoffee(target.Coffee, boolean) (1054932644);</text><line style="stroke: #A80036; stroke-width: 1.0; stroke-dasharray: 1.0,2.0;" x1="33" x2="162.5" y1="161.0444" y2="161.0444"/><text fill="#000000" font-family="sans-serif" font-size="11" lengthAdjust="spacingAndGlyphs" textLength="35" x="162.5" y="165.6819">method</text><line style="stroke: #A80036; stroke-width: 1.0; stroke-dasharray: 1.0,2.0;" x1="197.5" x2="327" y1="161.0444" y2="161.0444"/><line style="stroke: #A80036; stroke-width: 1.5;" x1="33" x2="152.5" y1="210.3711" y2="210.3711"/><text fill="#0000FF" font-family="sans-serif" font-size="11" font-weight="bold" lengthAdjust="spacingAndGlyphs" textLength="55" x="152.5" y="215.0085">calling list</text><line style="stroke: #A80036; stroke-width: 1.5;" x1="207.5" x2="327" y1="210.3711" y2="210.3711"/><text fill="#000000" font-family="sans-serif" font-size="11" lengthAdjust="spacingAndGlyphs" textLength="108" x="38" y="253.2808">Barista (1213349904);</text><text fill="#000000" font-family="sans-serif" font-size="11" lengthAdjust="spacingAndGlyphs" textLength="107" x="38" y="268.3896">Coffee (1259769769);</text><line style="stroke: #A80036; stroke-width: 1.0; stroke-dasharray: 1.0,2.0;" x1="33" x2="167" y1="233.0344" y2="233.0344"/><text fill="#000000" font-family="sans-serif" font-size="11" lengthAdjust="spacingAndGlyphs" textLength="26" x="167" y="237.6719">class</text><line style="stroke: #A80036; stroke-width: 1.0; stroke-dasharray: 1.0,2.0;" x1="193" x2="327" y1="233.0344" y2="233.0344"/><line style="stroke: #A80036; stroke-width: 1.0; stroke-dasharray: 1.0,2.0;" x1="33" x2="161" y1="282.3611" y2="282.3611"/><text fill="#000000" font-family="sans-serif" font-size="11" lengthAdjust="spacingAndGlyphs" textLength="38" x="161" y="286.9985">member</text><line style="stroke: #A80036; stroke-width: 1.0; stroke-dasharray: 1.0,2.0;" x1="199" x2="327" y1="282.3611" y2="282.3611"/><text fill="#000000" font-family="sans-serif" font-size="11" lengthAdjust="spacingAndGlyphs" textLength="284" x="38" y="325.2708">Coffee makeCoffee(target.Coffee, boolean) (1054932644);</text><text fill="#000000" font-family="sans-serif" font-size="11" lengthAdjust="spacingAndGlyphs" textLength="139" x="38" y="340.3796">void addShot() (444920847);</text><line style="stroke: #A80036; stroke-width: 1.0; stroke-dasharray: 1.0,2.0;" x1="33" x2="162.5" y1="305.0244" y2="305.0244"/><text fill="#000000" font-family="sans-serif" font-size="11" lengthAdjust="spacingAndGlyphs" textLength="35" x="162.5" y="309.6619">method</text><line style="stroke: #A80036; stroke-width: 1.0; stroke-dasharray: 1.0,2.0;" x1="197.5" x2="327" y1="305.0244" y2="305.0244"/><line style="stroke: #A80036; stroke-width: 1.5;" x1="33" x2="146" y1="354.3511" y2="354.3511"/><text fill="#FFA500" font-family="sans-serif" font-size="11" font-weight="bold" lengthAdjust="spacingAndGlyphs" textLength="68" x="146" y="358.9885">called by list</text><line style="stroke: #A80036; stroke-width: 1.5;" x1="214" x2="327" y1="354.3511" y2="354.3511"/><text fill="#000000" font-family="sans-serif" font-size="11" lengthAdjust="spacingAndGlyphs" textLength="108" x="38" y="397.2607">Barista (1213349904);</text><line style="stroke: #A80036; stroke-width: 1.0; stroke-dasharray: 1.0,2.0;" x1="33" x2="167" y1="377.0144" y2="377.0144"/><text fill="#000000" font-family="sans-serif" font-size="11" lengthAdjust="spacingAndGlyphs" textLength="26" x="167" y="381.6519">class</text><line style="stroke: #A80036; stroke-width: 1.0; stroke-dasharray: 1.0,2.0;" x1="193" x2="327" y1="377.0144" y2="377.0144"/><line style="stroke: #A80036; stroke-width: 1.0; stroke-dasharray: 1.0,2.0;" x1="33" x2="161" y1="411.2322" y2="411.2322"/><text fill="#000000" font-family="sans-serif" font-size="11" lengthAdjust="spacingAndGlyphs" textLength="38" x="161" y="415.8696">member</text><line style="stroke: #A80036; stroke-width: 1.0; stroke-dasharray: 1.0,2.0;" x1="199" x2="327" y1="411.2322" y2="411.2322"/><text fill="#000000" font-family="sans-serif" font-size="11" lengthAdjust="spacingAndGlyphs" textLength="225" x="38" y="454.1418">boolean getOrder(target.Barista) (898406901);</text><line style="stroke: #A80036; stroke-width: 1.0; stroke-dasharray: 1.0,2.0;" x1="33" x2="162.5" y1="433.8955" y2="433.8955"/><text fill="#000000" font-family="sans-serif" font-size="11" lengthAdjust="spacingAndGlyphs" textLength="35" x="162.5" y="438.533">method</text><line style="stroke: #A80036; stroke-width: 1.0; stroke-dasharray: 1.0,2.0;" x1="197.5" x2="327" y1="433.8955" y2="433.8955"/><!--MD5=[d81df9bac209bb7f8eb7d184fee2cbcb]
@startuml
class target.Barista{
__**<color:green>has list</color>**__
..class..
..member..
..method..
	boolean getOrder(target.Barista) (898406901);
	Coffee makeCoffee(target.Coffee, boolean) (1054932644);
__**<color:blue>calling list</color>**__
..class..
	Barista (1213349904);
	Coffee (1259769769);
..member..
..method..
	Coffee makeCoffee(target.Coffee, boolean) (1054932644);
	void addShot() (444920847);
__**<color:orange>called by list</color>**__
..class..
	Barista (1213349904);
..member..
..method..
	boolean getOrder(target.Barista) (898406901);
}

@enduml

PlantUML version 1.2020.19(Tue Oct 13 00:10:01 KST 2020)
(APACHE source distribution)
Java Runtime: Java(TM) SE Runtime Environment
JVM: Java HotSpot(TM) 64-Bit Server VM
Default Encoding: MS949
Language: ko
Country: KR
--></g></svg>