<?xml version="1.0" encoding="UTF-8" standalone="no"?><svg xmlns="http://www.w3.org/2000/svg" xmlns:xlink="http://www.w3.org/1999/xlink" contentScriptType="application/ecmascript" contentStyleType="text/css" height="663px" preserveAspectRatio="none" style="width:310px;height:663px;" version="1.1" viewBox="0 0 310 663" width="310px" zoomAndPan="magnify"><defs><filter height="300%" id="f11s73u7i4zr4b" width="300%" x="-1" y="-1"><feGaussianBlur result="blurOut" stdDeviation="2.0"/><feColorMatrix in="blurOut" result="blurOut2" type="matrix" values="0 0 0 0 0 0 0 0 0 0 0 0 0 0 0 0 0 0 .4 0"/><feOffset dx="4.0" dy="4.0" in="blurOut2" result="blurOut3"/><feBlend in="SourceGraphic" in2="blurOut3" mode="normal"/></filter></defs><g><!--MD5=[a613d28d66ac88caaf3df7792fc429ff]
cluster ForStateNode--><rect fill="#FFFFFF" filter="url(#f11s73u7i4zr4b)" height="221" style="stroke: #000000; stroke-width: 1.5;" width="160" x="138" y="7"/><text fill="#000000" font-family="sans-serif" font-size="14" font-weight="bold" lengthAdjust="spacingAndGlyphs" textLength="97" x="169.5" y="25.1533">ForStateNode</text><!--MD5=[ff834bb304bccc409df8506290c459be]
cluster getForLine--><rect fill="#FFFFFF" filter="url(#f11s73u7i4zr4b)" height="221" style="stroke: #000000; stroke-width: 1.5;" width="154" x="141" y="252"/><text fill="#000000" font-family="sans-serif" font-size="14" font-weight="bold" lengthAdjust="spacingAndGlyphs" textLength="77" x="179.5" y="270.1533">getForLine</text><!--MD5=[80db4ded4fe429148ada482795995850]
cluster getLastFin--><rect fill="#FFFFFF" filter="url(#f11s73u7i4zr4b)" height="154" style="stroke: #000000; stroke-width: 1.5;" width="144" x="146" y="497"/><text fill="#000000" font-family="sans-serif" font-size="14" font-weight="bold" lengthAdjust="spacingAndGlyphs" textLength="74" x="181" y="515.1533">getLastFin</text><ellipse cx="217.8112" cy="62.0973" fill="#FEFECE" filter="url(#f11s73u7i4zr4b)" rx="63.8112" ry="16.5973" style="stroke: #A80036; stroke-width: 1.5;"/><text fill="#000000" font-family="sans-serif" font-size="14" lengthAdjust="spacingAndGlyphs" textLength="86" x="174.8112" y="68.2121">ForStatement</text><ellipse cx="218.4264" cy="129.0973" fill="#FEFECE" filter="url(#f11s73u7i4zr4b)" rx="45.4264" ry="16.5973" style="stroke: #A80036; stroke-width: 1.5;"/><text fill="#000000" font-family="sans-serif" font-size="14" lengthAdjust="spacingAndGlyphs" textLength="60" x="188.4264" y="135.2121">ASTNode</text><ellipse cx="218.033" cy="196.0973" fill="#FEFECE" filter="url(#f11s73u7i4zr4b)" rx="56.033" ry="16.5973" style="stroke: #A80036; stroke-width: 1.5;"/><text fill="#000000" font-family="sans-serif" font-size="14" lengthAdjust="spacingAndGlyphs" textLength="75" x="180.533" y="202.2121">Test_Visitor</text><ellipse cx="218.2756" cy="307.0973" fill="#FEFECE" filter="url(#f11s73u7i4zr4b)" rx="60.2756" ry="16.5973" style="stroke: #A80036; stroke-width: 1.5;"/><text fill="#000000" font-family="sans-serif" font-size="14" lengthAdjust="spacingAndGlyphs" textLength="81" x="177.7756" y="313.2121">StringBuilder</text><ellipse cx="217.9914" cy="374.0973" fill="#FEFECE" filter="url(#f11s73u7i4zr4b)" rx="31.9914" ry="16.5973" style="stroke: #A80036; stroke-width: 1.5;"/><text fill="#000000" font-family="sans-serif" font-size="14" lengthAdjust="spacingAndGlyphs" textLength="41" x="197.4914" y="380.2121">Object</text><ellipse cx="218.669" cy="441.0973" fill="#FEFECE" filter="url(#f11s73u7i4zr4b)" rx="49.669" ry="16.5973" style="stroke: #A80036; stroke-width: 1.5;"/><text fill="#000000" font-family="sans-serif" font-size="14" lengthAdjust="spacingAndGlyphs" textLength="66" x="185.669" y="447.2121">StateNode</text><ellipse cx="218.598" cy="552.0973" fill="#FEFECE" filter="url(#f11s73u7i4zr4b)" rx="42.598" ry="16.5973" style="stroke: #A80036; stroke-width: 1.5;"/><text fill="#000000" font-family="sans-serif" font-size="14" lengthAdjust="spacingAndGlyphs" textLength="56" x="190.598" y="558.2121">ArrayList</text><ellipse cx="218.3259" cy="619.0973" fill="#FEFECE" filter="url(#f11s73u7i4zr4b)" rx="55.3259" ry="16.5973" style="stroke: #A80036; stroke-width: 1.5;"/><text fill="#000000" font-family="sans-serif" font-size="14" lengthAdjust="spacingAndGlyphs" textLength="74" x="181.3259" y="625.2121">PrintStream</text><!--MD5=[73fdd653ebe9723ebe68ee5647cdf910]
entity actor1248201524--><ellipse cx="50" cy="341.5" fill="#FEFECE" filter="url(#f11s73u7i4zr4b)" rx="8" ry="8" style="stroke: #A80036; stroke-width: 1.5;"/><path d="M50,349.5 L50,376.5 M37,357.5 L63,357.5 M50,376.5 L37,391.5 M50,376.5 L63,391.5 " fill="none" filter="url(#f11s73u7i4zr4b)" style="stroke: #A80036; stroke-width: 1.5;"/><text fill="#000000" font-family="sans-serif" font-size="14" lengthAdjust="spacingAndGlyphs" textLength="88" x="6" y="413.1533">ForStateNode</text><!--MD5=[2683771842cd53aa038e35418b36267b]
link actor1248201524 to UC1978471002--><path d="M57.2851,331.941 C70.0079,262.884 97.9932,129.659 130,95 C139.963,84.212 153.797,76.93 167.549,72.023 " fill="none" id="actor1248201524-UC1978471002" style="stroke: #A80036; stroke-width: 1.0;"/><!--MD5=[f2ca08b439fbce1358db436a5ba25d20]
link actor1248201524 to UC298295476--><path d="M55.4231,331.773 C63.6224,284.484 83.498,208.406 130,162 C142.82,149.206 161.067,141.303 177.624,136.455 " fill="none" id="actor1248201524-UC298295476" style="stroke: #A80036; stroke-width: 1.0;"/><!--MD5=[7ba1563ac3d26d44fa8e4596647061dc]
link actor1248201524 to UC181451598--><path d="M81.6678,331.817 C95.8284,313.763 113.112,292.789 130,275 C152.476,251.326 180.979,226.585 199.353,211.234 " fill="none" id="actor1248201524-UC181451598" style="stroke: #A80036; stroke-width: 1.0;"/><!--MD5=[1ff588e0d7a420363db738cd6fea0cf7]
link actor1248201524 to UC1152029154--><path d="M94.2902,354.775 C105.871,349.858 118.369,344.65 130,340 C147.12,333.156 166.273,325.924 182.327,319.98 " fill="none" id="actor1248201524-UC1152029154" style="stroke: #A80036; stroke-width: 1.0;"/><!--MD5=[5bfa6c880e654f18225fff86d595503a]
link actor1248201524 to UC1356614113--><path d="M94.14,374 C122.916,374 159.818,374 185.832,374 " fill="none" id="actor1248201524-UC1356614113" style="stroke: #A80036; stroke-width: 1.0;"/><!--MD5=[03135d80aa9da36b9a59f8cdd0db711d]
link actor1248201524 to UC1238292935--><path d="M94.3588,408.927 C105.9386,414.28 118.419,419.375 130,424 C142.472,428.981 155.984,434.26 168.588,438.575 " fill="none" id="actor1248201524-UC1238292935" style="stroke: #A80036; stroke-width: 1.0;"/><!--MD5=[03135d80aa9da36b9a59f8cdd0db711d]
link actor1248201524 to UC1238292935--><path d="M94.3588,375.12 C105.9386,379.28 118.419,384.375 130,389 C157.683,400.056 190.482,412.576 207.131,425.359 " fill="none" id="actor1248201524-UC1238292935-1" style="stroke: #A80036; stroke-width: 1.0;"/><!--MD5=[ef0de4f2e658194369405757eae14dfc]
link actor1248201524 to UC1001114349--><path d="M81.6678,416.183 C95.8284,434.237 113.112,455.211 130,473 C152.759,496.972 181.697,522.038 200.041,537.341 " fill="none" id="actor1248201524-UC1001114349" style="stroke: #A80036; stroke-width: 1.0;"/><!--MD5=[9cb2760f377c43f0852cb3fed72c44bb]
link actor1248201524 to UC150180388--><path d="M55.638,416.371 C64.0104,463.393 84.0216,538.731 130,585 C141.545,596.6177 157.498,604.3471 172.654,609.4531 " fill="none" id="actor1248201524-UC150180388" style="stroke: #A80036; stroke-width: 1.0;"/><!--MD5=[826635d023e110899c931efb69be5868]
@startuml
 left to right direction

actor ForStateNode as actor1248201524

	rectangle ForStateNode{
	 usecase ForStatement as UC1978471002
	actor1248201524- -UC1978471002
	 usecase ASTNode as UC298295476
	actor1248201524- -UC298295476
	 usecase Test_Visitor as UC181451598
	actor1248201524- -UC181451598
	}
	rectangle getForLine{
	 usecase StringBuilder as UC1152029154
	actor1248201524- -UC1152029154
	 usecase Object as UC1356614113
	actor1248201524- -UC1356614113
	 usecase StateNode as UC1238292935
	actor1248201524- -UC1238292935
	}
	rectangle getLastFin{
	 usecase ArrayList as UC1001114349
	actor1248201524- -UC1001114349
	 usecase PrintStream as UC150180388
	actor1248201524- -UC150180388
	 usecase StateNode as UC1238292935
	actor1248201524- -UC1238292935
	}

@enduml

PlantUML version 1.2020.19(Tue Oct 13 00:10:01 KST 2020)
(APACHE source distribution)
Java Runtime: Java(TM) SE Runtime Environment
JVM: Java HotSpot(TM) 64-Bit Server VM
Default Encoding: MS949
Language: ko
Country: KR
--></g></svg>