<?xml version="1.0" encoding="UTF-8" standalone="no"?><svg xmlns="http://www.w3.org/2000/svg" xmlns:xlink="http://www.w3.org/1999/xlink" contentScriptType="application/ecmascript" contentStyleType="text/css" height="1381px" preserveAspectRatio="none" style="width:367px;height:1381px;" version="1.1" viewBox="0 0 367 1381" width="367px" zoomAndPan="magnify"><defs><filter height="300%" id="f2tcz4i9s0due" width="300%" x="-1" y="-1"><feGaussianBlur result="blurOut" stdDeviation="2.0"/><feColorMatrix in="blurOut" result="blurOut2" type="matrix" values="0 0 0 0 0 0 0 0 0 0 0 0 0 0 0 0 0 0 .4 0"/><feOffset dx="4.0" dy="4.0" in="blurOut2" result="blurOut3"/><feBlend in="SourceGraphic" in2="blurOut3" mode="normal"/></filter></defs><g><!--MD5=[d7cb485c184685c60a24d7d833bd66f5]
cluster print--><rect fill="#FFFFFF" filter="url(#f2tcz4i9s0due)" height="422" style="stroke: #000000; stroke-width: 1.5;" width="144" x="185" y="7"/><text fill="#000000" font-family="sans-serif" font-size="14" font-weight="bold" lengthAdjust="spacingAndGlyphs" textLength="33" x="240.5" y="25.1533">print</text><!--MD5=[a70b0d373322012744ecc119c63f921b]
cluster main--><rect fill="#FFFFFF" filter="url(#f2tcz4i9s0due)" height="154" style="stroke: #000000; stroke-width: 1.5;" width="154" x="180" y="453"/><text fill="#000000" font-family="sans-serif" font-size="14" font-weight="bold" lengthAdjust="spacingAndGlyphs" textLength="33" x="240.5" y="471.1533">main</text><!--MD5=[1e829f21a74d4de467c1b519aceec237]
cluster makeFile--><rect fill="#FFFFFF" filter="url(#f2tcz4i9s0due)" height="160" style="stroke: #000000; stroke-width: 1.5;" width="196" x="159" y="631"/><text fill="#000000" font-family="sans-serif" font-size="14" font-weight="bold" lengthAdjust="spacingAndGlyphs" textLength="63" x="225.5" y="649.1533">makeFile</text><!--MD5=[04725e2e0fdf7a2d0bf92e9288398473]
cluster sizeMake--><rect fill="#FFFFFF" filter="url(#f2tcz4i9s0due)" height="87" style="stroke: #000000; stroke-width: 1.5;" width="96" x="209" y="815"/><text fill="#000000" font-family="sans-serif" font-size="14" font-weight="bold" lengthAdjust="spacingAndGlyphs" textLength="66" x="224" y="833.1533">sizeMake</text><!--MD5=[7f656c1255dd22e778d6ce966876e807]
cluster stateMake--><rect fill="#FFFFFF" filter="url(#f2tcz4i9s0due)" height="154" style="stroke: #000000; stroke-width: 1.5;" width="132" x="191" y="926"/><text fill="#000000" font-family="sans-serif" font-size="14" font-weight="bold" lengthAdjust="spacingAndGlyphs" textLength="73" x="220.5" y="944.1533">stateMake</text><!--MD5=[667652b4681e53339784f878ac74c929]
cluster switchNodeStateMake--><rect fill="#FFFFFF" filter="url(#f2tcz4i9s0due)" height="154" style="stroke: #000000; stroke-width: 1.5;" width="173" x="171" y="1104"/><text fill="#000000" font-family="sans-serif" font-size="14" font-weight="bold" lengthAdjust="spacingAndGlyphs" textLength="156" x="179.5" y="1122.1533">switchNodeStateMake</text><!--MD5=[251cbdd5cbebffb01d2fc20aae2b1b55]
cluster forNodeMake--><rect fill="#FFFFFF" filter="url(#f2tcz4i9s0due)" height="87" style="stroke: #000000; stroke-width: 1.5;" width="162" x="176" y="1282"/><text fill="#000000" font-family="sans-serif" font-size="14" font-weight="bold" lengthAdjust="spacingAndGlyphs" textLength="95" x="209.5" y="1300.1533">forNodeMake</text><ellipse cx="257.3259" cy="62.0973" fill="#FEFECE" filter="url(#f2tcz4i9s0due)" rx="55.3259" ry="16.5973" style="stroke: #A80036; stroke-width: 1.5;"/><text fill="#000000" font-family="sans-serif" font-size="14" lengthAdjust="spacingAndGlyphs" textLength="74" x="220.3259" y="68.2121">PrintStream</text><ellipse cx="257.7487" cy="129.0973" fill="#FEFECE" filter="url(#f2tcz4i9s0due)" rx="27.7487" ry="16.5973" style="stroke: #A80036; stroke-width: 1.5;"/><text fill="#000000" font-family="sans-serif" font-size="14" lengthAdjust="spacingAndGlyphs" textLength="35" x="240.2487" y="135.2121">Class</text><ellipse cx="256.7904" cy="196.0973" fill="#FEFECE" filter="url(#f2tcz4i9s0due)" rx="51.7904" ry="16.5973" style="stroke: #A80036; stroke-width: 1.5;"/><text fill="#000000" font-family="sans-serif" font-size="14" lengthAdjust="spacingAndGlyphs" textLength="69" x="222.2904" y="202.2121">Data_base</text><ellipse cx="257.0624" cy="263.0973" fill="#FEFECE" filter="url(#f2tcz4i9s0due)" rx="39.0624" ry="16.5973" style="stroke: #A80036; stroke-width: 1.5;"/><text fill="#000000" font-family="sans-serif" font-size="14" lengthAdjust="spacingAndGlyphs" textLength="51" x="231.5624" y="269.2121">Member</text><ellipse cx="256.7696" cy="330.0973" fill="#FEFECE" filter="url(#f2tcz4i9s0due)" rx="39.7696" ry="16.5973" style="stroke: #A80036; stroke-width: 1.5;"/><text fill="#000000" font-family="sans-serif" font-size="14" lengthAdjust="spacingAndGlyphs" textLength="52" x="230.7696" y="336.2121">DataList</text><ellipse cx="256.8909" cy="397.0973" fill="#FEFECE" filter="url(#f2tcz4i9s0due)" rx="41.8909" ry="16.5973" style="stroke: #A80036; stroke-width: 1.5;"/><text fill="#000000" font-family="sans-serif" font-size="14" lengthAdjust="spacingAndGlyphs" textLength="55" x="229.3909" y="403.2121">Function</text><ellipse cx="257.2756" cy="508.0973" fill="#FEFECE" filter="url(#f2tcz4i9s0due)" rx="60.2756" ry="16.5973" style="stroke: #A80036; stroke-width: 1.5;"/><text fill="#000000" font-family="sans-serif" font-size="14" lengthAdjust="spacingAndGlyphs" textLength="81" x="216.7756" y="514.2121">StringBuilder</text><ellipse cx="257.0624" cy="575.0973" fill="#FEFECE" filter="url(#f2tcz4i9s0due)" rx="39.0624" ry="16.5973" style="stroke: #A80036; stroke-width: 1.5;"/><text fill="#000000" font-family="sans-serif" font-size="14" lengthAdjust="spacingAndGlyphs" textLength="51" x="231.5624" y="581.2121">Process</text><ellipse cx="256.8701" cy="686.0973" fill="#FEFECE" filter="url(#f2tcz4i9s0due)" rx="29.8701" ry="16.5973" style="stroke: #A80036; stroke-width: 1.5;"/><text fill="#000000" font-family="sans-serif" font-size="14" lengthAdjust="spacingAndGlyphs" textLength="38" x="237.8701" y="692.2121">Writer</text><ellipse cx="257.247" cy="755.8494" fill="#FEFECE" filter="url(#f2tcz4i9s0due)" rx="82.247" ry="18.8494" style="stroke: #A80036; stroke-width: 1.5;"/><text fill="#000000" font-family="sans-serif" font-size="14" lengthAdjust="spacingAndGlyphs" textLength="126" x="194.247" y="761.9641">OutputStreamWriter</text><!--MD5=[a59e3244c6c221b24c11c52a7036822d]
entity packageMake--><rect fill="#FFFFFF" filter="url(#f2tcz4i9s0due)" height="39.2295" style="stroke: #000000; stroke-width: 1.5;" width="108" x="7" y="803.5"/><text fill="#000000" font-family="sans-serif" font-size="14" lengthAdjust="spacingAndGlyphs" textLength="88" x="17" y="829.6533">packageMake</text><!--MD5=[233df6e2bf6c4ff2c95a417e288fe191]
entity classMake--><rect fill="#FFFFFF" filter="url(#f2tcz4i9s0due)" height="39.2295" style="stroke: #000000; stroke-width: 1.5;" width="86" x="18" y="730.5"/><text fill="#000000" font-family="sans-serif" font-size="14" lengthAdjust="spacingAndGlyphs" textLength="66" x="28" y="756.6533">classMake</text><!--MD5=[188cca62b881d1aaf8f88b28bc928cec]
entity funMake--><rect fill="#FFFFFF" filter="url(#f2tcz4i9s0due)" height="39.2295" style="stroke: #000000; stroke-width: 1.5;" width="74" x="24" y="657.5"/><text fill="#000000" font-family="sans-serif" font-size="14" lengthAdjust="spacingAndGlyphs" textLength="54" x="34" y="683.6533">funMake</text><ellipse cx="256.9914" cy="870.0973" fill="#FEFECE" filter="url(#f2tcz4i9s0due)" rx="31.9914" ry="16.5973" style="stroke: #A80036; stroke-width: 1.5;"/><text fill="#000000" font-family="sans-serif" font-size="14" lengthAdjust="spacingAndGlyphs" textLength="41" x="236.4914" y="876.2121">Object</text><ellipse cx="257.669" cy="981.0973" fill="#FEFECE" filter="url(#f2tcz4i9s0due)" rx="49.669" ry="16.5973" style="stroke: #A80036; stroke-width: 1.5;"/><text fill="#000000" font-family="sans-serif" font-size="14" lengthAdjust="spacingAndGlyphs" textLength="66" x="224.669" y="987.2121">StateNode</text><ellipse cx="257.598" cy="1048.0973" fill="#FEFECE" filter="url(#f2tcz4i9s0due)" rx="42.598" ry="16.5973" style="stroke: #A80036; stroke-width: 1.5;"/><text fill="#000000" font-family="sans-serif" font-size="14" lengthAdjust="spacingAndGlyphs" textLength="56" x="229.598" y="1054.2121">ArrayList</text><!--MD5=[0852d920a5f0e0b156705cd1081522a4]
entity stateParsing--><rect fill="#FFFFFF" filter="url(#f2tcz4i9s0due)" height="39.2295" style="stroke: #000000; stroke-width: 1.5;" width="99" x="12" y="584.5"/><text fill="#000000" font-family="sans-serif" font-size="14" lengthAdjust="spacingAndGlyphs" textLength="79" x="22" y="610.6533">stateParsing</text><ellipse cx="257.6188" cy="1159.0973" fill="#FEFECE" filter="url(#f2tcz4i9s0due)" rx="54.6188" ry="16.5973" style="stroke: #A80036; stroke-width: 1.5;"/><text fill="#000000" font-family="sans-serif" font-size="14" lengthAdjust="spacingAndGlyphs" textLength="73" x="221.1188" y="1165.2121">SwitchNode</text><ellipse cx="257.4264" cy="1226.0973" fill="#FEFECE" filter="url(#f2tcz4i9s0due)" rx="45.4264" ry="16.5973" style="stroke: #A80036; stroke-width: 1.5;"/><text fill="#000000" font-family="sans-serif" font-size="14" lengthAdjust="spacingAndGlyphs" textLength="60" x="227.4264" y="1232.2121">ASTNode</text><ellipse cx="257.2254" cy="1337.0973" fill="#FEFECE" filter="url(#f2tcz4i9s0due)" rx="65.2254" ry="16.5973" style="stroke: #A80036; stroke-width: 1.5;"/><text fill="#000000" font-family="sans-serif" font-size="14" lengthAdjust="spacingAndGlyphs" textLength="88" x="213.2254" y="1343.2121">ForStateNode</text><!--MD5=[15c1fd565705824a0e487ce5aa3e8082]
entity actor770921565--><ellipse cx="61.5" cy="475.5" fill="#FEFECE" filter="url(#f2tcz4i9s0due)" rx="8" ry="8" style="stroke: #A80036; stroke-width: 1.5;"/><path d="M61.5,483.5 L61.5,510.5 M48.5,491.5 L74.5,491.5 M61.5,510.5 L48.5,525.5 M61.5,510.5 L74.5,525.5 " fill="none" filter="url(#f2tcz4i9s0due)" style="stroke: #A80036; stroke-width: 1.5;"/><text fill="#000000" font-family="sans-serif" font-size="14" lengthAdjust="spacingAndGlyphs" textLength="59" x="32" y="547.1533">ForMidEx</text><!--MD5=[2ba3e2e80e681c7db9b254f9edbfc515]
link actor770921565 to UC150180388--><path d="M65.8175,465.897 C76.0208,374.6 102.9092,164.48 151,112 C171.313,89.83 206.232,82.43 230.412,76.18 " fill="none" id="actor770921565-UC150180388" style="stroke: #A80036; stroke-width: 1.0;"/><!--MD5=[2ba3e2e80e681c7db9b254f9edbfc515]
link actor770921565 to UC150180388--><path d="M64.0207,465.716 C72.5781,367.9 99.7486,132.93 151,77 C169.881,56.4 201.38,48.54 225.146,48.88 " fill="none" id="actor770921565-UC150180388-1" style="stroke: #A80036; stroke-width: 1.0;"/><!--MD5=[c79a20552b7edaf3bdc5ed8ccf8fe861]
link actor770921565 to UC1296277943--><path d="M66.7805,465.886 C78.876,383.62 109.233,205.79 151,162 C171.353,140.66 205.24,133.04 229.214,130.36 " fill="none" id="actor770921565-UC1296277943" style="stroke: #A80036; stroke-width: 1.0;"/><!--MD5=[b9254032c939b0953ccd573e5972d420]
link actor770921565 to UC1905699057--><path d="M72.0749,465.963 C87.9579,399.959 118.852,277.82 151,246 C172.78,224.44 208.396,216.93 232.258,210.26 " fill="none" id="actor770921565-UC1905699057" style="stroke: #A80036; stroke-width: 1.0;"/><!--MD5=[b9254032c939b0953ccd573e5972d420]
link actor770921565 to UC1905699057--><path d="M67.513,465.914 C81.3675,392.103 115.416,246.22 151,211 C170.589,191.61 201.368,183.59 224.724,183.42 " fill="none" id="actor770921565-UC1905699057-1" style="stroke: #A80036; stroke-width: 1.0;"/><!--MD5=[284cf86928ef9f554e623ddc974d974e]
link actor770921565 to UC444096469--><path d="M68.027,465.621 C78.1365,417.83 101.3417,340.94 151,296 C169.649,279.12 196.83,270.88 218.999,266.85 " fill="none" id="actor770921565-UC444096469" style="stroke: #A80036; stroke-width: 1.0;"/><!--MD5=[44fab807c1d30fbcc1c61d339fdd62d5]
link actor770921565 to UC1528099970--><path d="M90.6808,471.324 C105.3512,446.985 125.459,417.764 151,398 C183.011,373.23 233.833,366.89 251.063,346.09 " fill="none" id="actor770921565-UC1528099970" style="stroke: #A80036; stroke-width: 1.0;"/><!--MD5=[44fab807c1d30fbcc1c61d339fdd62d5]
link actor770921565 to UC1528099970--><path d="M77.4701,465.688 C92.159,433.21 116.671,389.563 151,363 C170.588,347.84 197.219,339.59 218.887,335.12 " fill="none" id="actor770921565-UC1528099970-1" style="stroke: #A80036; stroke-width: 1.0;"/><!--MD5=[44fab807c1d30fbcc1c61d339fdd62d5]
link actor770921565 to UC1528099970--><path d="M68.1213,465.955 C80.2532,421.674 107.884,361.36 151,328 C182.554,303.58 232.384,297.08 250.304,313.98 " fill="none" id="actor770921565-UC1528099970-2" style="stroke: #A80036; stroke-width: 1.0;"/><!--MD5=[e9a90e6ef90af2cc19ab23cf1035a663]
link actor770921565 to UC426792528--><path d="M90.7682,481.123 C126.108,456.667 184.949,423.153 222.315,406.05 " fill="none" id="actor770921565-UC426792528" style="stroke: #A80036; stroke-width: 1.0;"/><!--MD5=[e9a90e6ef90af2cc19ab23cf1035a663]
link actor770921565 to UC426792528--><path d="M90.7682,500.604 C133.604,481.429 210.969,436.803 242.766,412.085 " fill="none" id="actor770921565-UC426792528-1" style="stroke: #A80036; stroke-width: 1.0;"/><!--MD5=[0af7ae73dfa71220c17b240ab8ae9ed7]
link actor770921565 to UC1152029154--><path d="M67.9757,550.188 C101.3226,641.89 243.395,633.182 256.092,524.063 " fill="none" id="actor770921565-UC1152029154" style="stroke: #A80036; stroke-width: 1.0;"/><!--MD5=[0af7ae73dfa71220c17b240ab8ae9ed7]
link actor770921565 to UC1152029154--><path d="M74.4719,550.369 C115.9,606.444 239.57,597.696 255.339,524.128 " fill="none" id="actor770921565-UC1152029154-1" style="stroke: #A80036; stroke-width: 1.0;"/><!--MD5=[0af7ae73dfa71220c17b240ab8ae9ed7]
link actor770921565 to UC1152029154--><path d="M90.7682,546.962 C139.494,570.777 232.897,563.172 253.09,524.146 " fill="none" id="actor770921565-UC1152029154-2" style="stroke: #A80036; stroke-width: 1.0;"/><!--MD5=[0af7ae73dfa71220c17b240ab8ae9ed7]
link actor770921565 to UC1152029154--><path d="M90.7682,527.481 C132.534,537.687 207.122,536.352 240.297,523.474 " fill="none" id="actor770921565-UC1152029154-3" style="stroke: #A80036; stroke-width: 1.0;"/><!--MD5=[0af7ae73dfa71220c17b240ab8ae9ed7]
link actor770921565 to UC1152029154--><path d="M90.7682,508 C118.719,508 161.37,508 196.471,508 " fill="none" id="actor770921565-UC1152029154-4" style="stroke: #A80036; stroke-width: 1.0;"/><!--MD5=[0af7ae73dfa71220c17b240ab8ae9ed7]
link actor770921565 to UC1152029154--><path d="M90.7682,488.519 C132.534,478.313 207.122,479.648 240.297,492.526 " fill="none" id="actor770921565-UC1152029154-5" style="stroke: #A80036; stroke-width: 1.0;"/><!--MD5=[0af7ae73dfa71220c17b240ab8ae9ed7]
link actor770921565 to UC1152029154--><path d="M90.7682,469.038 C139.494,445.223 232.897,452.828 253.09,491.854 " fill="none" id="actor770921565-UC1152029154-6" style="stroke: #A80036; stroke-width: 1.0;"/><!--MD5=[0af7ae73dfa71220c17b240ab8ae9ed7]
link actor770921565 to UC1152029154--><path d="M74.4719,465.631 C115.9,409.556 239.57,418.304 255.339,491.872 " fill="none" id="actor770921565-UC1152029154-7" style="stroke: #A80036; stroke-width: 1.0;"/><!--MD5=[0af7ae73dfa71220c17b240ab8ae9ed7]
link actor770921565 to UC1152029154--><path d="M67.9757,465.812 C101.3226,374.11 243.395,382.82 256.092,491.937 " fill="none" id="actor770921565-UC1152029154-8" style="stroke: #A80036; stroke-width: 1.0;"/><!--MD5=[d2d68324175836b12f89f40cdf2fb2a7]
link actor770921565 to UC1785570426--><path d="M90.8384,519.781 C108.284,526.542 130.784,535.042 151,542 C175.785,550.531 204.152,559.312 225.3,565.669 " fill="none" id="actor770921565-UC1785570426" style="stroke: #A80036; stroke-width: 1.0;"/><!--MD5=[659268daf98e50ff28304486f066ac70]
link actor770921565 to UC133579455--><path d="M90.6581,540.926 C115.584,568.551 147.677,603.986 151,607 C179.389,632.752 215.848,658.524 237.767,673.332 " fill="none" id="actor770921565-UC133579455" style="stroke: #A80036; stroke-width: 1.0;"/><!--MD5=[0b8b34088b2ced92050f65b334c2cc2e]
link actor770921565 to UC1138992016--><path d="M90.5961,535.051 C99.6005,544.667 108.755,556.083 115,568 C147.224,629.493 104.2918,668.638 151,720 C161.526,731.575 175.914,739.43 190.693,744.76 " fill="none" id="actor770921565-UC1138992016" style="stroke: #A80036; stroke-width: 1.0;"/><!--MD5=[e373c1fa0cf6db3f7712dddef21b9f1c]
link actor770921565 to UC1356614113--><path d="M77.7044,550.361 C90.0677,567.856 106.2265,584.671 115,603 C158.345,693.555 98.9377,740.16 151,826 C173.971,863.875 222.554,889.543 245.074,884.885 " fill="none" id="actor770921565-UC1356614113" style="stroke: #A80036; stroke-width: 1.0;"/><!--MD5=[e373c1fa0cf6db3f7712dddef21b9f1c]
link actor770921565 to UC1356614113--><path d="M90.5422,534.197 C99.7671,543.916 109.07,555.612 115,568 C158.345,658.555 98.9377,705.16 151,791 C170.52,823.184 208.532,846.554 233.333,859.194 " fill="none" id="actor770921565-UC1356614113-1" style="stroke: #A80036; stroke-width: 1.0;"/><!--MD5=[e373c1fa0cf6db3f7712dddef21b9f1c]
link actor770921565 to UC1356614113--><path d="M90.5422,501.161 C99.7671,508.916 109.07,520.612 115,533 C158.345,623.555 98.9377,670.16 151,756 C176.709,798.388 234.497,825.488 251.928,853.945 " fill="none" id="actor770921565-UC1356614113-2" style="stroke: #A80036; stroke-width: 1.0;"/><!--MD5=[0efe635036da29c2286cc2586afb48b6]
link actor770921565 to UC1238292935--><path d="M77.9784,550.234 C90.489,567.661 106.7124,584.446 115,603 C175.893,739.322 76.9633,807.345 151,937 C172.283,974.271 219.033,999.244 242.688,996.357 " fill="none" id="actor770921565-UC1238292935" style="stroke: #A80036; stroke-width: 1.0;"/><!--MD5=[0efe635036da29c2286cc2586afb48b6]
link actor770921565 to UC1238292935--><path d="M90.6341,533.727 C99.9838,543.489 109.342,555.332 115,568 C175.893,704.322 76.9633,772.345 151,902 C168.413,932.494 202.875,954.757 227.786,967.734 " fill="none" id="actor770921565-UC1238292935-1" style="stroke: #A80036; stroke-width: 1.0;"/><!--MD5=[0efe635036da29c2286cc2586afb48b6]
link actor770921565 to UC1238292935--><path d="M90.6341,500.752 C99.9838,508.489 109.342,520.332 115,533 C175.893,669.322 76.9633,737.345 151,867 C175.583,910.051 234.145,936.695 251.846,964.993 " fill="none" id="actor770921565-UC1238292935-2" style="stroke: #A80036; stroke-width: 1.0;"/><!--MD5=[e06f120aef335e8b4d7e835bd09921c9]
link actor770921565 to UC1001114349--><path d="M90.5438,533.348 C100.0056,543.157 109.458,555.128 115,568 C154.411,659.531 88.7512,937.178 151,1015 C166.23,1034.04 192.291,1042.321 214.76,1045.826 " fill="none" id="actor770921565-UC1001114349" style="stroke: #A80036; stroke-width: 1.0;"/><!--MD5=[712cb7b73c42239336acd170b4c46150]
link actor770921565 to UC908744222--><path d="M90.6168,533.316 C100.0854,543.123 109.523,555.1 115,568 C159.575,672.988 96.2914,979.918 151,1080 C167.733,1110.611 201.965,1132.722 227.017,1145.635 " fill="none" id="actor770921565-UC908744222" style="stroke: #A80036; stroke-width: 1.0;"/><!--MD5=[fdb9268f3b2c2c203ff09cb79cc69cee]
link actor770921565 to UC298295476--><path d="M90.7079,533.278 C100.185,543.081 109.605,555.066 115,568 C168.557,696.397 65.3458,1083.376 151,1193 C165.418,1211.453 190.027,1219.823 211.906,1223.525 " fill="none" id="actor770921565-UC298295476" style="stroke: #A80036; stroke-width: 1.0;"/><!--MD5=[33cafaaaac03367bad19796a27c619e6]
link actor770921565 to UC1248201524--><path d="M90.7469,533.262 C100.2277,543.064 109.64,555.051 115,568 C173.726,709.868 78.5735,1122.613 151,1258 C167.131,1288.1541 200.393,1309.969 225.38,1322.937 " fill="none" id="actor770921565-UC1248201524" style="stroke: #A80036; stroke-width: 1.0;"/><!--MD5=[c0971a6c13c5efd8b66baa6a45a9e1b9]
@startuml
 left to right direction

actor ForMidEx as actor770921565

	rectangle print{
	 usecase PrintStream as UC150180388
	actor770921565- -UC150180388
	 usecase Class as UC1296277943
	actor770921565- -UC1296277943
	 usecase Data_base as UC1905699057
	actor770921565- -UC1905699057
	 usecase Member as UC444096469
	actor770921565- -UC444096469
	 usecase DataList as UC1528099970
	actor770921565- -UC1528099970
	 usecase Function as UC426792528
	actor770921565- -UC426792528
	}
	rectangle main{
	 usecase DataList as UC1528099970
	actor770921565- -UC1528099970
	 usecase StringBuilder as UC1152029154
	actor770921565- -UC1152029154
	 usecase Process as UC1785570426
	actor770921565- -UC1785570426
	 usecase PrintStream as UC150180388
	actor770921565- -UC150180388
	}
	rectangle makeFile{
	 usecase Writer as UC133579455
	actor770921565- -UC133579455
	 usecase OutputStreamWriter as UC1138992016
	actor770921565- -UC1138992016
	}
	rectangle packageMake{
	 usecase StringBuilder as UC1152029154
	actor770921565- -UC1152029154
	}
	rectangle classMake{
	 usecase StringBuilder as UC1152029154
	actor770921565- -UC1152029154
	 usecase Data_base as UC1905699057
	actor770921565- -UC1905699057
	 usecase DataList as UC1528099970
	actor770921565- -UC1528099970
	}
	rectangle funMake{
	 usecase StringBuilder as UC1152029154
	actor770921565- -UC1152029154
	 usecase Function as UC426792528
	actor770921565- -UC426792528
	}
	rectangle sizeMake{
	 usecase StringBuilder as UC1152029154
	actor770921565- -UC1152029154
	 usecase Object as UC1356614113
	actor770921565- -UC1356614113
	}
	rectangle stateMake{
	 usecase StringBuilder as UC1152029154
	actor770921565- -UC1152029154
	 usecase StateNode as UC1238292935
	actor770921565- -UC1238292935
	 usecase ArrayList as UC1001114349
	actor770921565- -UC1001114349
	}
	rectangle stateParsing{
	 usecase StateNode as UC1238292935
	actor770921565- -UC1238292935
	 usecase StringBuilder as UC1152029154
	actor770921565- -UC1152029154
	}
	rectangle switchNodeStateMake{
	 usecase StringBuilder as UC1152029154
	actor770921565- -UC1152029154
	 usecase Object as UC1356614113
	actor770921565- -UC1356614113
	 usecase SwitchNode as UC908744222
	actor770921565- -UC908744222
	 usecase ASTNode as UC298295476
	actor770921565- -UC298295476
	}
	rectangle forNodeMake{
	 usecase StringBuilder as UC1152029154
	actor770921565- -UC1152029154
	 usecase Object as UC1356614113
	actor770921565- -UC1356614113
	 usecase ForStateNode as UC1248201524
	actor770921565- -UC1248201524
	 usecase StateNode as UC1238292935
	actor770921565- -UC1238292935
	}

@enduml

PlantUML version 1.2020.19(Tue Oct 13 00:10:01 KST 2020)
(APACHE source distribution)
Java Runtime: Java(TM) SE Runtime Environment
JVM: Java HotSpot(TM) 64-Bit Server VM
Default Encoding: MS949
Language: ko
Country: KR
--></g></svg>