<?xml version="1.0" encoding="UTF-8" standalone="no"?><svg xmlns="http://www.w3.org/2000/svg" xmlns:xlink="http://www.w3.org/1999/xlink" contentScriptType="application/ecmascript" contentStyleType="text/css" height="1136px" preserveAspectRatio="none" style="width:404px;height:1136px;" version="1.1" viewBox="0 0 404 1136" width="404px" zoomAndPan="magnify"><defs><filter height="300%" id="f138e6ppdmm7rb" width="300%" x="-1" y="-1"><feGaussianBlur result="blurOut" stdDeviation="2.0"/><feColorMatrix in="blurOut" result="blurOut2" type="matrix" values="0 0 0 0 0 0 0 0 0 0 0 0 0 0 0 0 0 0 .4 0"/><feOffset dx="4.0" dy="4.0" in="blurOut2" result="blurOut3"/><feBlend in="SourceGraphic" in2="blurOut3" mode="normal"/></filter></defs><g><!--MD5=[a70b0d373322012744ecc119c63f921b]
cluster main--><rect fill="#FFFFFF" filter="url(#f138e6ppdmm7rb)" height="221" style="stroke: #000000; stroke-width: 1.5;" width="144" x="222" y="7"/><text fill="#000000" font-family="sans-serif" font-size="14" font-weight="bold" lengthAdjust="spacingAndGlyphs" textLength="33" x="277.5" y="25.1533">main</text><!--MD5=[1e829f21a74d4de467c1b519aceec237]
cluster makeFile--><rect fill="#FFFFFF" filter="url(#f138e6ppdmm7rb)" height="160" style="stroke: #000000; stroke-width: 1.5;" width="196" x="196" y="252"/><text fill="#000000" font-family="sans-serif" font-size="14" font-weight="bold" lengthAdjust="spacingAndGlyphs" textLength="63" x="262.5" y="270.1533">makeFile</text><!--MD5=[0b71714120d97c2309afa7cf18d6d277]
cluster makeClassScript--><rect fill="#FFFFFF" filter="url(#f138e6ppdmm7rb)" height="154" style="stroke: #000000; stroke-width: 1.5;" width="154" x="217" y="436"/><text fill="#000000" font-family="sans-serif" font-size="14" font-weight="bold" lengthAdjust="spacingAndGlyphs" textLength="116" x="236" y="454.1533">makeClassScript</text><!--MD5=[2478a7cca4ec048c8dd1e5506b0f7815]
cluster classExtends--><rect fill="#FFFFFF" filter="url(#f138e6ppdmm7rb)" height="154" style="stroke: #000000; stroke-width: 1.5;" width="136" x="226" y="614"/><text fill="#000000" font-family="sans-serif" font-size="14" font-weight="bold" lengthAdjust="spacingAndGlyphs" textLength="93" x="247.5" y="632.1533">classExtends</text><!--MD5=[600e115adc72a6cbabecdb59f99145ea]
cluster classDef--><rect fill="#FFFFFF" filter="url(#f138e6ppdmm7rb)" height="87" style="stroke: #000000; stroke-width: 1.5;" width="96" x="246" y="792"/><text fill="#000000" font-family="sans-serif" font-size="14" font-weight="bold" lengthAdjust="spacingAndGlyphs" textLength="60" x="264" y="810.1533">classDef</text><!--MD5=[f187f0e524dea2ebe3ce3bb66eee0c84]
cluster addList--><rect fill="#FFFFFF" filter="url(#f138e6ppdmm7rb)" height="221" style="stroke: #000000; stroke-width: 1.5;" width="116" x="236" y="903"/><text fill="#000000" font-family="sans-serif" font-size="14" font-weight="bold" lengthAdjust="spacingAndGlyphs" textLength="51" x="268.5" y="921.1533">addList</text><ellipse cx="293.7696" cy="62.0973" fill="#FEFECE" filter="url(#f138e6ppdmm7rb)" rx="39.7696" ry="16.5973" style="stroke: #A80036; stroke-width: 1.5;"/><text fill="#000000" font-family="sans-serif" font-size="14" lengthAdjust="spacingAndGlyphs" textLength="52" x="267.7696" y="68.2121">Runtime</text><ellipse cx="294.0624" cy="129.0973" fill="#FEFECE" filter="url(#f138e6ppdmm7rb)" rx="39.0624" ry="16.5973" style="stroke: #A80036; stroke-width: 1.5;"/><text fill="#000000" font-family="sans-serif" font-size="14" lengthAdjust="spacingAndGlyphs" textLength="51" x="268.5624" y="135.2121">Process</text><ellipse cx="294.3259" cy="196.0973" fill="#FEFECE" filter="url(#f138e6ppdmm7rb)" rx="55.3259" ry="16.5973" style="stroke: #A80036; stroke-width: 1.5;"/><text fill="#000000" font-family="sans-serif" font-size="14" lengthAdjust="spacingAndGlyphs" textLength="74" x="257.3259" y="202.2121">PrintStream</text><ellipse cx="293.8701" cy="307.0973" fill="#FEFECE" filter="url(#f138e6ppdmm7rb)" rx="29.8701" ry="16.5973" style="stroke: #A80036; stroke-width: 1.5;"/><text fill="#000000" font-family="sans-serif" font-size="14" lengthAdjust="spacingAndGlyphs" textLength="38" x="274.8701" y="313.2121">Writer</text><ellipse cx="294.247" cy="376.8494" fill="#FEFECE" filter="url(#f138e6ppdmm7rb)" rx="82.247" ry="18.8494" style="stroke: #A80036; stroke-width: 1.5;"/><text fill="#000000" font-family="sans-serif" font-size="14" lengthAdjust="spacingAndGlyphs" textLength="126" x="231.247" y="382.9641">OutputStreamWriter</text><ellipse cx="294.2756" cy="491.0973" fill="#FEFECE" filter="url(#f138e6ppdmm7rb)" rx="60.2756" ry="16.5973" style="stroke: #A80036; stroke-width: 1.5;"/><text fill="#000000" font-family="sans-serif" font-size="14" lengthAdjust="spacingAndGlyphs" textLength="81" x="253.7756" y="497.2121">StringBuilder</text><ellipse cx="294.7193" cy="558.0973" fill="#FEFECE" filter="url(#f138e6ppdmm7rb)" rx="44.7193" ry="16.5973" style="stroke: #A80036; stroke-width: 1.5;"/><text fill="#000000" font-family="sans-serif" font-size="14" lengthAdjust="spacingAndGlyphs" textLength="59" x="265.2193" y="564.2121">HashMap</text><!--MD5=[139b8621abb0d25fc62c519057c4bdee]
entity makeFunctionScript--><rect fill="#FFFFFF" filter="url(#f138e6ppdmm7rb)" height="39.2295" style="stroke: #000000; stroke-width: 1.5;" width="145" x="7" y="640.5"/><text fill="#000000" font-family="sans-serif" font-size="14" lengthAdjust="spacingAndGlyphs" textLength="125" x="17" y="666.6533">makeFunctionScript</text><ellipse cx="294.7487" cy="669.0973" fill="#FEFECE" filter="url(#f138e6ppdmm7rb)" rx="27.7487" ry="16.5973" style="stroke: #A80036; stroke-width: 1.5;"/><text fill="#000000" font-family="sans-serif" font-size="14" lengthAdjust="spacingAndGlyphs" textLength="35" x="277.2487" y="675.2121">Class</text><ellipse cx="293.7904" cy="736.0973" fill="#FEFECE" filter="url(#f138e6ppdmm7rb)" rx="51.7904" ry="16.5973" style="stroke: #A80036; stroke-width: 1.5;"/><text fill="#000000" font-family="sans-serif" font-size="14" lengthAdjust="spacingAndGlyphs" textLength="69" x="259.2904" y="742.2121">Data_base</text><ellipse cx="293.9914" cy="847.0973" fill="#FEFECE" filter="url(#f138e6ppdmm7rb)" rx="31.9914" ry="16.5973" style="stroke: #A80036; stroke-width: 1.5;"/><text fill="#000000" font-family="sans-serif" font-size="14" lengthAdjust="spacingAndGlyphs" textLength="41" x="273.4914" y="853.2121">Object</text><ellipse cx="293.7696" cy="958.0973" fill="#FEFECE" filter="url(#f138e6ppdmm7rb)" rx="39.7696" ry="16.5973" style="stroke: #A80036; stroke-width: 1.5;"/><text fill="#000000" font-family="sans-serif" font-size="14" lengthAdjust="spacingAndGlyphs" textLength="52" x="267.7696" y="964.2121">DataList</text><ellipse cx="294.0624" cy="1025.0973" fill="#FEFECE" filter="url(#f138e6ppdmm7rb)" rx="39.0624" ry="16.5973" style="stroke: #A80036; stroke-width: 1.5;"/><text fill="#000000" font-family="sans-serif" font-size="14" lengthAdjust="spacingAndGlyphs" textLength="51" x="268.5624" y="1031.2121">Member</text><ellipse cx="293.8909" cy="1092.0973" fill="#FEFECE" filter="url(#f138e6ppdmm7rb)" rx="41.8909" ry="16.5973" style="stroke: #A80036; stroke-width: 1.5;"/><text fill="#000000" font-family="sans-serif" font-size="14" lengthAdjust="spacingAndGlyphs" textLength="55" x="266.3909" y="1098.2121">Function</text><!--MD5=[522f8c2c6b071ef2d5128a2b7e7aefac]
entity functionDef--><rect fill="#FFFFFF" filter="url(#f138e6ppdmm7rb)" height="39.2295" style="stroke: #000000; stroke-width: 1.5;" width="92" x="33" y="567.5"/><text fill="#000000" font-family="sans-serif" font-size="14" lengthAdjust="spacingAndGlyphs" textLength="72" x="43" y="593.6533">functionDef</text><!--MD5=[679f72550ccd1c4fdc63f4b162d1b35c]
entity actor171063899--><ellipse cx="79.5" cy="458.5" fill="#FEFECE" filter="url(#f138e6ppdmm7rb)" rx="8" ry="8" style="stroke: #A80036; stroke-width: 1.5;"/><path d="M79.5,466.5 L79.5,493.5 M66.5,474.5 L92.5,474.5 M79.5,493.5 L66.5,508.5 M79.5,493.5 L92.5,508.5 " fill="none" filter="url(#f138e6ppdmm7rb)" style="stroke: #A80036; stroke-width: 1.5;"/><text fill="#000000" font-family="sans-serif" font-size="14" lengthAdjust="spacingAndGlyphs" textLength="105" x="27" y="530.1533">DataListDiagram</text><!--MD5=[f9ee491549569bdb6c18d1a7fdd58477]
link actor171063899 to UC731802107--><path d="M86.9845,448.87 C102.695,360.384 140.282,161.33 188,112 C210.111,89.14 247.754,82.04 271.722,75.33 " fill="none" id="actor171063899-UC731802107" style="stroke: #A80036; stroke-width: 1.0;"/><!--MD5=[f9ee491549569bdb6c18d1a7fdd58477]
link actor171063899 to UC731802107--><path d="M84.0551,448.656 C97.5687,353.495 136.997,129.73 188,77 C209.307,54.97 245.037,47.58 269.055,49.45 " fill="none" id="actor171063899-UC731802107-1" style="stroke: #A80036; stroke-width: 1.0;"/><!--MD5=[ba2a1d3d682cdc7078ead56dddebcbe7]
link actor171063899 to UC1785570426--><path d="M90.3383,448.701 C109.049,372.446 148.289,217.998 188,179 C210.828,156.582 248.621,149.362 272.372,142.421 " fill="none" id="actor171063899-UC1785570426" style="stroke: #A80036; stroke-width: 1.0;"/><!--MD5=[ba2a1d3d682cdc7078ead56dddebcbe7]
link actor171063899 to UC1785570426--><path d="M85.8965,448.858 C102.1596,365.47 144.801,186.424 188,144 C209.728,122.66 245.013,115.09 268.844,116.66 " fill="none" id="actor171063899-UC1785570426-1" style="stroke: #A80036; stroke-width: 1.0;"/><!--MD5=[0c8b31294b2711ae6b870d27e777cc37]
link actor171063899 to UC150180388--><path d="M98.7394,448.96 C117.011,406.104 147.467,340.237 188,292 C216.349,258.263 261.8,230.694 282.753,211.846 " fill="none" id="actor171063899-UC150180388" style="stroke: #A80036; stroke-width: 1.0;"/><!--MD5=[0c8b31294b2711ae6b870d27e777cc37]
link actor171063899 to UC150180388--><path d="M89.2554,448.754 C105.2319,398.156 139.36,314.885 188,257 C205.423,236.266 229.305,217.861 249.99,205.807 " fill="none" id="actor171063899-UC150180388-1" style="stroke: #A80036; stroke-width: 1.0;"/><!--MD5=[30fba5d7667f2e19d7cb211990adb9d0]
link actor171063899 to UC133579455--><path d="M100.0318,448.688 C118.797,415.009 149.272,369.024 188,341 C210.859,324.459 242.122,315.726 264.768,311.276 " fill="none" id="actor171063899-UC133579455" style="stroke: #A80036; stroke-width: 1.0;"/><!--MD5=[661ec33548955fe34a0206b44b5d17ab]
link actor171063899 to UC1138992016--><path d="M131.595,463.112 C171.998,441.689 226.546,412.767 261.001,394.497 " fill="none" id="actor171063899-UC1138992016" style="stroke: #A80036; stroke-width: 1.0;"/><!--MD5=[5a84f056aea5a921d7b6cc8d6381be59]
link actor171063899 to UC1152029154--><path d="M131.595,525.072 C184.305,535.446 261.09,529.441 285.928,507.055 " fill="none" id="actor171063899-UC1152029154" style="stroke: #A80036; stroke-width: 1.0;"/><!--MD5=[5a84f056aea5a921d7b6cc8d6381be59]
link actor171063899 to UC1152029154--><path d="M131.595,502.139 C167.398,504.443 214.309,504.276 248.503,501.638 " fill="none" id="actor171063899-UC1152029154-1" style="stroke: #A80036; stroke-width: 1.0;"/><!--MD5=[5a84f056aea5a921d7b6cc8d6381be59]
link actor171063899 to UC1152029154--><path d="M102.0088,533.247 C152.815,570.953 271.639,562.304 291.24,507.298 " fill="none" id="actor171063899-UC1152029154-2" style="stroke: #A80036; stroke-width: 1.0;"/><!--MD5=[5a84f056aea5a921d7b6cc8d6381be59]
link actor171063899 to UC1152029154--><path d="M131.595,479.206 C168.02,476.724 215.941,476.95 250.272,479.884 " fill="none" id="actor171063899-UC1152029154-3" style="stroke: #A80036; stroke-width: 1.0;"/><!--MD5=[5a84f056aea5a921d7b6cc8d6381be59]
link actor171063899 to UC1152029154--><path d="M131.595,456.273 C184.554,445.649 261.815,451.878 286.276,474.96 " fill="none" id="actor171063899-UC1152029154-4" style="stroke: #A80036; stroke-width: 1.0;"/><!--MD5=[5a84f056aea5a921d7b6cc8d6381be59]
link actor171063899 to UC1152029154--><path d="M101.199,448.884 C151.625,409.97 271.939,418.608 291.339,474.797 " fill="none" id="actor171063899-UC1152029154-5" style="stroke: #A80036; stroke-width: 1.0;"/><!--MD5=[3e78387fe94e0b758da97aaf9ea9896e]
link actor171063899 to UC431996456--><path d="M131.667,507.435 C149.547,513.013 169.643,519.279 188,525 C212.106,532.512 239.297,540.977 260.105,547.453 " fill="none" id="actor171063899-UC431996456" style="stroke: #A80036; stroke-width: 1.0;"/><!--MD5=[87ca04ff9eb9ca89c5fdfc801a9be345]
link actor171063899 to UC1296277943--><path d="M112.892,533.14 C125.497,544.422 139.714,556.4 152,568 C169.152,584.194 170.468,591.218 188,607 C213.416,629.88 245.155,652.888 267.247,664.773 " fill="none" id="actor171063899-UC1296277943" style="stroke: #A80036; stroke-width: 1.0;"/><!--MD5=[87ca04ff9eb9ca89c5fdfc801a9be345]
link actor171063899 to UC1296277943--><path d="M131.594,514.927 C138.587,520.733 145.559,526.918 152,533 C169.152,549.194 170.468,556.218 188,572 C221.775,602.404 266.714,633.035 285.343,653.682 " fill="none" id="actor171063899-UC1296277943-1" style="stroke: #A80036; stroke-width: 1.0;"/><!--MD5=[14b288dc559cf1057d9038e92451db85]
link actor171063899 to UC1905699057--><path d="M91.7367,533.292 C108.272,559.547 136.806,578.641 152,603 C188.742,661.905 140.638,704.239 188,755 C217.716,786.849 277.577,788.183 291.198,752.281 " fill="none" id="actor171063899-UC1905699057" style="stroke: #A80036; stroke-width: 1.0;"/><!--MD5=[14b288dc559cf1057d9038e92451db85]
link actor171063899 to UC1905699057--><path d="M119.896,533.112 C131.829,543.351 143.839,554.916 152,568 C188.742,626.905 140.638,669.239 188,720 C206.54,739.87 236.813,747.863 260.27,748.194 " fill="none" id="actor171063899-UC1905699057-1" style="stroke: #A80036; stroke-width: 1.0;"/><!--MD5=[14b288dc559cf1057d9038e92451db85]
link actor171063899 to UC1905699057--><path d="M131.586,509.203 C139.332,516.144 146.53,524.231 152,533 C188.742,591.905 140.638,634.239 188,685 C209.301,707.83 246.091,714.98 270.236,721.715 " fill="none" id="actor171063899-UC1905699057-2" style="stroke: #A80036; stroke-width: 1.0;"/><!--MD5=[14b288dc559cf1057d9038e92451db85]
link actor171063899 to UC1905699057--><path d="M131.586,474.725 C139.332,481.144 146.53,489.231 152,498 C188.742,556.905 140.638,599.239 188,650 C217.848,681.99 278.107,683.195 291.376,720.009 " fill="none" id="actor171063899-UC1905699057-3" style="stroke: #A80036; stroke-width: 1.0;"/><!--MD5=[3c3b128cea478daa43a31178a9622f8e]
link actor171063899 to UC1356614113--><path d="M120.819,533.113 C132.651,543.256 144.371,554.787 152,568 C200.883,652.664 137.121,701.52 188,785 C205.439,813.614 237.464,835.285 261.766,845.473 " fill="none" id="actor171063899-UC1356614113" style="stroke: #A80036; stroke-width: 1.0;"/><!--MD5=[3c3b128cea478daa43a31178a9622f8e]
link actor171063899 to UC1356614113--><path d="M131.735,508.563 C139.563,515.611 146.75,523.907 152,533 C200.883,617.664 137.121,666.52 188,750 C211.173,788.021 260.098,813.784 282.437,831.867 " fill="none" id="actor171063899-UC1356614113-1" style="stroke: #A80036; stroke-width: 1.0;"/><!--MD5=[cc54ac96284717c0b75a0fc4e1f61efc]
link actor171063899 to UC1528099970--><path d="M131.795,525.699 C139.72,533.138 146.924,541.622 152,551 C221.804,679.975 115.154,751.718 188,879 C206.013,910.473 242.169,933.189 267.211,945.969 " fill="none" id="actor171063899-UC1528099970" style="stroke: #A80036; stroke-width: 1.0;"/><!--MD5=[d6cd7313085f7ace26c4a0533a5988b6]
link actor171063899 to UC444096469--><path d="M131.649,525.239 C139.696,532.772 146.98,541.407 152,551 C197.592,638.117 126.54,915.25 188,992 C204.023,1012.009 232.008,1020.135 255.201,1023.324 " fill="none" id="actor171063899-UC444096469" style="stroke: #A80036; stroke-width: 1.0;"/><!--MD5=[a9241a8bf34adbece11190ea3f2005f4]
link actor171063899 to UC426792528--><path d="M121.965,533.024 C133.697,543.07 145.074,554.591 152,568 C203.938,668.55 117.734,987.284 188,1076 C207.027,1100.0232 243.309,1106.9351 268.073,1104.6509 " fill="none" id="actor171063899-UC426792528" style="stroke: #A80036; stroke-width: 1.0;"/><!--MD5=[a9241a8bf34adbece11190ea3f2005f4]
link actor171063899 to UC426792528--><path d="M131.734,507.504 C139.772,514.733 147.031,523.38 152,533 C203.938,633.55 117.734,952.284 188,1041 C207.626,1065.7787 245.608,1072.3529 270.374,1078.6103 " fill="none" id="actor171063899-UC426792528-1" style="stroke: #A80036; stroke-width: 1.0;"/><!--MD5=[b8cc0f4d42ed278602918979ebcd875c]
@startuml
 left to right direction

actor DataListDiagram as actor171063899

	rectangle main{
	 usecase Runtime as UC731802107
	actor171063899- -UC731802107
	 usecase Process as UC1785570426
	actor171063899- -UC1785570426
	 usecase PrintStream as UC150180388
	actor171063899- -UC150180388
	}
	rectangle main{
	 usecase PrintStream as UC150180388
	actor171063899- -UC150180388
	 usecase Process as UC1785570426
	actor171063899- -UC1785570426
	 usecase Runtime as UC731802107
	actor171063899- -UC731802107
	}
	rectangle makeFile{
	 usecase Writer as UC133579455
	actor171063899- -UC133579455
	 usecase OutputStreamWriter as UC1138992016
	actor171063899- -UC1138992016
	}
	rectangle makeClassScript{
	 usecase StringBuilder as UC1152029154
	actor171063899- -UC1152029154
	 usecase HashMap as UC431996456
	actor171063899- -UC431996456
	}
	rectangle makeFunctionScript{
	 usecase StringBuilder as UC1152029154
	actor171063899- -UC1152029154
	}
	rectangle classExtends{
	 usecase StringBuilder as UC1152029154
	actor171063899- -UC1152029154
	 usecase Class as UC1296277943
	actor171063899- -UC1296277943
	 usecase Data_base as UC1905699057
	actor171063899- -UC1905699057
	}
	rectangle classDef{
	 usecase StringBuilder as UC1152029154
	actor171063899- -UC1152029154
	 usecase Class as UC1296277943
	actor171063899- -UC1296277943
	 usecase Object as UC1356614113
	actor171063899- -UC1356614113
	 usecase Data_base as UC1905699057
	actor171063899- -UC1905699057
	}
	rectangle addList{
	 usecase StringBuilder as UC1152029154
	actor171063899- -UC1152029154
	 usecase Data_base as UC1905699057
	actor171063899- -UC1905699057
	 usecase DataList as UC1528099970
	actor171063899- -UC1528099970
	 usecase Member as UC444096469
	actor171063899- -UC444096469
	 usecase Function as UC426792528
	actor171063899- -UC426792528
	}
	rectangle functionDef{
	 usecase StringBuilder as UC1152029154
	actor171063899- -UC1152029154
	 usecase Function as UC426792528
	actor171063899- -UC426792528
	 usecase Data_base as UC1905699057
	actor171063899- -UC1905699057
	 usecase Object as UC1356614113
	actor171063899- -UC1356614113
	}

@enduml

PlantUML version 1.2020.19(Tue Oct 13 00:10:01 KST 2020)
(APACHE source distribution)
Java Runtime: Java(TM) SE Runtime Environment
JVM: Java HotSpot(TM) 64-Bit Server VM
Default Encoding: MS949
Language: ko
Country: KR
--></g></svg>