<?xml version="1.0" encoding="UTF-8" standalone="no"?><svg xmlns="http://www.w3.org/2000/svg" xmlns:xlink="http://www.w3.org/1999/xlink" contentScriptType="application/ecmascript" contentStyleType="text/css" height="420px" preserveAspectRatio="none" style="width:239px;height:420px;" version="1.1" viewBox="0 0 239 420" width="239px" zoomAndPan="magnify"><defs><filter height="300%" id="f12cr0269gnr3x" width="300%" x="-1" y="-1"><feGaussianBlur result="blurOut" stdDeviation="2.0"/><feColorMatrix in="blurOut" result="blurOut2" type="matrix" values="0 0 0 0 0 0 0 0 0 0 0 0 0 0 0 0 0 0 .4 0"/><feOffset dx="4.0" dy="4.0" in="blurOut2" result="blurOut3"/><feBlend in="SourceGraphic" in2="blurOut3" mode="normal"/></filter></defs><g><!--MD5=[f6064968006b102cb1b3092be2f53bd9]
class cl1--><rect codeLine="1" fill="#FEFECE" filter="url(#f12cr0269gnr3x)" height="399.95" id="cl1" style="stroke: #A80036; stroke-width: 1.5;" width="218" x="7" y="7"/><ellipse cx="22" cy="23" fill="#ADD1B2" rx="11" ry="11" style="stroke: #A80036; stroke-width: 1.0;"/><path d="M21.8281,16.4844 Q19.9531,16.4844 18.7969,18.2344 Q17.6094,20.0156 17.6094,23.0156 Q17.6094,26.3906 18.8125,28.1563 Q19.875,29.7813 21.625,29.7813 Q23.3125,29.7813 24.2656,28.875 Q25.3281,27.8594 25.4688,25.625 Q25.4688,25.2031 25.2344,24.9688 Q25.0469,24.7344 24.7031,24.7031 Q24.375,24.7031 24.1406,24.8906 Q23.875,25.125 23.875,25.5156 Q23.8438,26.9063 23.25,27.6406 Q22.7188,28.3438 21.7656,28.3438 Q20.6094,28.3438 19.8906,26.9063 Q19.1719,25.4063 19.1719,22.9844 Q19.1719,20.4375 20.0625,19.0469 Q20.8125,17.9219 21.9531,17.9219 Q22.6094,17.9219 23.1094,18.4688 Q23.6719,19.0781 23.7969,20.1406 Q23.8438,20.8438 24.6719,20.7344 Q25.4531,20.625 25.4063,19.9375 Q25.2188,18.4219 24.4531,17.5469 Q23.5156,16.4844 21.8281,16.4844 Z "/><text fill="#000000" font-family="sans-serif" font-size="12" lengthAdjust="spacingAndGlyphs" textLength="186" x="36" y="28.6045">shop.Shop.charge(shop.User, int)</text><line style="stroke: #A80036; stroke-width: 1.5;" x1="8" x2="224" y1="39" y2="39"/><line style="stroke: #A80036; stroke-width: 1.5;" x1="8" x2="96" y1="54.5544" y2="54.5544"/><text fill="#008000" font-family="sans-serif" font-size="11" font-weight="bold" lengthAdjust="spacingAndGlyphs" textLength="40" x="96" y="59.1919">has list</text><line style="stroke: #A80036; stroke-width: 1.5;" x1="136" x2="224" y1="54.5544" y2="54.5544"/><line style="stroke: #A80036; stroke-width: 1.0; stroke-dasharray: 1.0,2.0;" x1="8" x2="103" y1="77.2178" y2="77.2178"/><text fill="#000000" font-family="sans-serif" font-size="11" lengthAdjust="spacingAndGlyphs" textLength="26" x="103" y="81.8552">class</text><line style="stroke: #A80036; stroke-width: 1.0; stroke-dasharray: 1.0,2.0;" x1="129" x2="224" y1="77.2178" y2="77.2178"/><text fill="#000000" font-family="sans-serif" font-size="11" lengthAdjust="spacingAndGlyphs" textLength="122" x="13" y="120.1274">User user (1515638188);</text><text fill="#000000" font-family="sans-serif" font-size="11" lengthAdjust="spacingAndGlyphs" textLength="122" x="13" y="135.2363">int charge (2087785333);</text><text fill="#000000" font-family="sans-serif" font-size="11" lengthAdjust="spacingAndGlyphs" textLength="120" x="13" y="150.3452">int money (1473205473);</text><line style="stroke: #A80036; stroke-width: 1.0; stroke-dasharray: 1.0,2.0;" x1="8" x2="97" y1="99.8811" y2="99.8811"/><text fill="#000000" font-family="sans-serif" font-size="11" lengthAdjust="spacingAndGlyphs" textLength="38" x="97" y="104.5186">member</text><line style="stroke: #A80036; stroke-width: 1.0; stroke-dasharray: 1.0,2.0;" x1="135" x2="224" y1="99.8811" y2="99.8811"/><line style="stroke: #A80036; stroke-width: 1.0; stroke-dasharray: 1.0,2.0;" x1="8" x2="98.5" y1="164.3167" y2="164.3167"/><text fill="#000000" font-family="sans-serif" font-size="11" lengthAdjust="spacingAndGlyphs" textLength="35" x="98.5" y="168.9541">method</text><line style="stroke: #A80036; stroke-width: 1.0; stroke-dasharray: 1.0,2.0;" x1="133.5" x2="224" y1="164.3167" y2="164.3167"/><line style="stroke: #A80036; stroke-width: 1.5;" x1="8" x2="88.5" y1="186.98" y2="186.98"/><text fill="#0000FF" font-family="sans-serif" font-size="11" font-weight="bold" lengthAdjust="spacingAndGlyphs" textLength="55" x="88.5" y="191.6174">calling list</text><line style="stroke: #A80036; stroke-width: 1.5;" x1="143.5" x2="224" y1="186.98" y2="186.98"/><text fill="#000000" font-family="sans-serif" font-size="11" lengthAdjust="spacingAndGlyphs" textLength="91" x="13" y="229.8896">User (621300254);</text><line style="stroke: #A80036; stroke-width: 1.0; stroke-dasharray: 1.0,2.0;" x1="8" x2="103" y1="209.6433" y2="209.6433"/><text fill="#000000" font-family="sans-serif" font-size="11" lengthAdjust="spacingAndGlyphs" textLength="26" x="103" y="214.2808">class</text><line style="stroke: #A80036; stroke-width: 1.0; stroke-dasharray: 1.0,2.0;" x1="129" x2="224" y1="209.6433" y2="209.6433"/><line style="stroke: #A80036; stroke-width: 1.0; stroke-dasharray: 1.0,2.0;" x1="8" x2="97" y1="243.8611" y2="243.8611"/><text fill="#000000" font-family="sans-serif" font-size="11" lengthAdjust="spacingAndGlyphs" textLength="38" x="97" y="248.4985">member</text><line style="stroke: #A80036; stroke-width: 1.0; stroke-dasharray: 1.0,2.0;" x1="135" x2="224" y1="243.8611" y2="243.8611"/><text fill="#000000" font-family="sans-serif" font-size="11" lengthAdjust="spacingAndGlyphs" textLength="157" x="13" y="286.7708">void setMoney(int) (637241618);</text><line style="stroke: #A80036; stroke-width: 1.0; stroke-dasharray: 1.0,2.0;" x1="8" x2="98.5" y1="266.5244" y2="266.5244"/><text fill="#000000" font-family="sans-serif" font-size="11" lengthAdjust="spacingAndGlyphs" textLength="35" x="98.5" y="271.1619">method</text><line style="stroke: #A80036; stroke-width: 1.0; stroke-dasharray: 1.0,2.0;" x1="133.5" x2="224" y1="266.5244" y2="266.5244"/><line style="stroke: #A80036; stroke-width: 1.5;" x1="8" x2="82" y1="300.7422" y2="300.7422"/><text fill="#FFA500" font-family="sans-serif" font-size="11" font-weight="bold" lengthAdjust="spacingAndGlyphs" textLength="68" x="82" y="305.3796">called by list</text><line style="stroke: #A80036; stroke-width: 1.5;" x1="150" x2="224" y1="300.7422" y2="300.7422"/><text fill="#000000" font-family="sans-serif" font-size="11" lengthAdjust="spacingAndGlyphs" textLength="138" x="13" y="343.6519">TestScenario (2082781203);</text><line style="stroke: #A80036; stroke-width: 1.0; stroke-dasharray: 1.0,2.0;" x1="8" x2="103" y1="323.4055" y2="323.4055"/><text fill="#000000" font-family="sans-serif" font-size="11" lengthAdjust="spacingAndGlyphs" textLength="26" x="103" y="328.043">class</text><line style="stroke: #A80036; stroke-width: 1.0; stroke-dasharray: 1.0,2.0;" x1="129" x2="224" y1="323.4055" y2="323.4055"/><line style="stroke: #A80036; stroke-width: 1.0; stroke-dasharray: 1.0,2.0;" x1="8" x2="97" y1="357.6233" y2="357.6233"/><text fill="#000000" font-family="sans-serif" font-size="11" lengthAdjust="spacingAndGlyphs" textLength="38" x="97" y="362.2607">member</text><line style="stroke: #A80036; stroke-width: 1.0; stroke-dasharray: 1.0,2.0;" x1="135" x2="224" y1="357.6233" y2="357.6233"/><text fill="#000000" font-family="sans-serif" font-size="11" lengthAdjust="spacingAndGlyphs" textLength="166" x="13" y="400.533">void Charge_Money() (35534346);</text><line style="stroke: #A80036; stroke-width: 1.0; stroke-dasharray: 1.0,2.0;" x1="8" x2="98.5" y1="380.2866" y2="380.2866"/><text fill="#000000" font-family="sans-serif" font-size="11" lengthAdjust="spacingAndGlyphs" textLength="35" x="98.5" y="384.9241">method</text><line style="stroke: #A80036; stroke-width: 1.0; stroke-dasharray: 1.0,2.0;" x1="133.5" x2="224" y1="380.2866" y2="380.2866"/><!--MD5=[627df4ce7fcb36124d5013873d5020ab]
@startuml
class "shop.Shop.charge(shop.User, int)" as cl1{
__**<color:green>has list</color>**__
..class..
..member..
	User user (1515638188);
	int charge (2087785333);
	int money (1473205473);
..method..
__**<color:blue>calling list</color>**__
..class..
	User (621300254);
..member..
..method..
	void setMoney(int) (637241618);
__**<color:orange>called by list</color>**__
..class..
	TestScenario (2082781203);
..member..
..method..
	void Charge_Money() (35534346);
}

@enduml

PlantUML version 1.2020.19(Tue Oct 13 00:10:01 KST 2020)
(APACHE source distribution)
Java Runtime: Java(TM) SE Runtime Environment
JVM: Java HotSpot(TM) 64-Bit Server VM
Default Encoding: MS949
Language: ko
Country: KR
--></g></svg>