<?xml version="1.0" encoding="UTF-8" standalone="no"?><svg xmlns="http://www.w3.org/2000/svg" xmlns:xlink="http://www.w3.org/1999/xlink" contentScriptType="application/ecmascript" contentStyleType="text/css" height="356px" preserveAspectRatio="none" style="width:337px;height:356px;" version="1.1" viewBox="0 0 337 356" width="337px" zoomAndPan="magnify"><defs><filter height="300%" id="f1unr81qjuqd3w" width="300%" x="-1" y="-1"><feGaussianBlur result="blurOut" stdDeviation="2.0"/><feColorMatrix in="blurOut" result="blurOut2" type="matrix" values="0 0 0 0 0 0 0 0 0 0 0 0 0 0 0 0 0 0 .4 0"/><feOffset dx="4.0" dy="4.0" in="blurOut2" result="blurOut3"/><feBlend in="SourceGraphic" in2="blurOut3" mode="normal"/></filter></defs><g><!--MD5=[f6064968006b102cb1b3092be2f53bd9]
class cl1--><rect codeLine="1" fill="#FEFECE" filter="url(#f1unr81qjuqd3w)" height="335.0688" id="cl1" style="stroke: #A80036; stroke-width: 1.5;" width="316" x="7" y="7"/><ellipse cx="57.75" cy="23" fill="#ADD1B2" rx="11" ry="11" style="stroke: #A80036; stroke-width: 1.0;"/><path d="M57.5781,16.4844 Q55.7031,16.4844 54.5469,18.2344 Q53.3594,20.0156 53.3594,23.0156 Q53.3594,26.3906 54.5625,28.1563 Q55.625,29.7813 57.375,29.7813 Q59.0625,29.7813 60.0156,28.875 Q61.0781,27.8594 61.2188,25.625 Q61.2188,25.2031 60.9844,24.9688 Q60.7969,24.7344 60.4531,24.7031 Q60.125,24.7031 59.8906,24.8906 Q59.625,25.125 59.625,25.5156 Q59.5938,26.9063 59,27.6406 Q58.4688,28.3438 57.5156,28.3438 Q56.3594,28.3438 55.6406,26.9063 Q54.9219,25.4063 54.9219,22.9844 Q54.9219,20.4375 55.8125,19.0469 Q56.5625,17.9219 57.7031,17.9219 Q58.3594,17.9219 58.8594,18.4688 Q59.4219,19.0781 59.5469,20.1406 Q59.5938,20.8438 60.4219,20.7344 Q61.2031,20.625 61.1563,19.9375 Q60.9688,18.4219 60.2031,17.5469 Q59.2656,16.4844 57.5781,16.4844 Z "/><text fill="#000000" font-family="sans-serif" font-size="12" lengthAdjust="spacingAndGlyphs" textLength="206" x="78.25" y="28.6045">shopTest.TestScenario.Registration()</text><line style="stroke: #A80036; stroke-width: 1.5;" x1="8" x2="322" y1="39" y2="39"/><line style="stroke: #A80036; stroke-width: 1.5;" x1="8" x2="145" y1="54.5544" y2="54.5544"/><text fill="#008000" font-family="sans-serif" font-size="11" font-weight="bold" lengthAdjust="spacingAndGlyphs" textLength="40" x="145" y="59.1919">has list</text><line style="stroke: #A80036; stroke-width: 1.5;" x1="185" x2="322" y1="54.5544" y2="54.5544"/><line style="stroke: #A80036; stroke-width: 1.0; stroke-dasharray: 1.0,2.0;" x1="8" x2="152" y1="77.2178" y2="77.2178"/><text fill="#000000" font-family="sans-serif" font-size="11" lengthAdjust="spacingAndGlyphs" textLength="26" x="152" y="81.8552">class</text><line style="stroke: #A80036; stroke-width: 1.0; stroke-dasharray: 1.0,2.0;" x1="178" x2="322" y1="77.2178" y2="77.2178"/><line style="stroke: #A80036; stroke-width: 1.0; stroke-dasharray: 1.0,2.0;" x1="8" x2="146" y1="99.8811" y2="99.8811"/><text fill="#000000" font-family="sans-serif" font-size="11" lengthAdjust="spacingAndGlyphs" textLength="38" x="146" y="104.5186">member</text><line style="stroke: #A80036; stroke-width: 1.0; stroke-dasharray: 1.0,2.0;" x1="184" x2="322" y1="99.8811" y2="99.8811"/><line style="stroke: #A80036; stroke-width: 1.0; stroke-dasharray: 1.0,2.0;" x1="8" x2="147.5" y1="122.5444" y2="122.5444"/><text fill="#000000" font-family="sans-serif" font-size="11" lengthAdjust="spacingAndGlyphs" textLength="35" x="147.5" y="127.1819">method</text><line style="stroke: #A80036; stroke-width: 1.0; stroke-dasharray: 1.0,2.0;" x1="182.5" x2="322" y1="122.5444" y2="122.5444"/><line style="stroke: #A80036; stroke-width: 1.5;" x1="8" x2="137.5" y1="145.2078" y2="145.2078"/><text fill="#0000FF" font-family="sans-serif" font-size="11" font-weight="bold" lengthAdjust="spacingAndGlyphs" textLength="55" x="137.5" y="149.8452">calling list</text><line style="stroke: #A80036; stroke-width: 1.5;" x1="192.5" x2="322" y1="145.2078" y2="145.2078"/><text fill="#000000" font-family="sans-serif" font-size="11" lengthAdjust="spacingAndGlyphs" textLength="93" x="13" y="188.1174">Shop (236304360);</text><line style="stroke: #A80036; stroke-width: 1.0; stroke-dasharray: 1.0,2.0;" x1="8" x2="152" y1="167.8711" y2="167.8711"/><text fill="#000000" font-family="sans-serif" font-size="11" lengthAdjust="spacingAndGlyphs" textLength="26" x="152" y="172.5085">class</text><line style="stroke: #A80036; stroke-width: 1.0; stroke-dasharray: 1.0,2.0;" x1="178" x2="322" y1="167.8711" y2="167.8711"/><line style="stroke: #A80036; stroke-width: 1.0; stroke-dasharray: 1.0,2.0;" x1="8" x2="146" y1="202.0889" y2="202.0889"/><text fill="#000000" font-family="sans-serif" font-size="11" lengthAdjust="spacingAndGlyphs" textLength="38" x="146" y="206.7263">member</text><line style="stroke: #A80036; stroke-width: 1.0; stroke-dasharray: 1.0,2.0;" x1="184" x2="322" y1="202.0889" y2="202.0889"/><text fill="#000000" font-family="sans-serif" font-size="11" lengthAdjust="spacingAndGlyphs" textLength="304" x="13" y="244.9985">boolean regist(java.lang.String, java.lang.String) (1636050357);</text><line style="stroke: #A80036; stroke-width: 1.0; stroke-dasharray: 1.0,2.0;" x1="8" x2="147.5" y1="224.7522" y2="224.7522"/><text fill="#000000" font-family="sans-serif" font-size="11" lengthAdjust="spacingAndGlyphs" textLength="35" x="147.5" y="229.3896">method</text><line style="stroke: #A80036; stroke-width: 1.0; stroke-dasharray: 1.0,2.0;" x1="182.5" x2="322" y1="224.7522" y2="224.7522"/><line style="stroke: #A80036; stroke-width: 1.5;" x1="8" x2="131" y1="258.97" y2="258.97"/><text fill="#FFA500" font-family="sans-serif" font-size="11" font-weight="bold" lengthAdjust="spacingAndGlyphs" textLength="68" x="131" y="263.6074">called by list</text><line style="stroke: #A80036; stroke-width: 1.5;" x1="199" x2="322" y1="258.97" y2="258.97"/><line style="stroke: #A80036; stroke-width: 1.0; stroke-dasharray: 1.0,2.0;" x1="8" x2="152" y1="281.6333" y2="281.6333"/><text fill="#000000" font-family="sans-serif" font-size="11" lengthAdjust="spacingAndGlyphs" textLength="26" x="152" y="286.2708">class</text><line style="stroke: #A80036; stroke-width: 1.0; stroke-dasharray: 1.0,2.0;" x1="178" x2="322" y1="281.6333" y2="281.6333"/><line style="stroke: #A80036; stroke-width: 1.0; stroke-dasharray: 1.0,2.0;" x1="8" x2="146" y1="304.2966" y2="304.2966"/><text fill="#000000" font-family="sans-serif" font-size="11" lengthAdjust="spacingAndGlyphs" textLength="38" x="146" y="308.9341">member</text><line style="stroke: #A80036; stroke-width: 1.0; stroke-dasharray: 1.0,2.0;" x1="184" x2="322" y1="304.2966" y2="304.2966"/><line style="stroke: #A80036; stroke-width: 1.0; stroke-dasharray: 1.0,2.0;" x1="8" x2="147.5" y1="326.96" y2="326.96"/><text fill="#000000" font-family="sans-serif" font-size="11" lengthAdjust="spacingAndGlyphs" textLength="35" x="147.5" y="331.5974">method</text><line style="stroke: #A80036; stroke-width: 1.0; stroke-dasharray: 1.0,2.0;" x1="182.5" x2="322" y1="326.96" y2="326.96"/><!--MD5=[5b43c899cfcfc2b87889a9d7b619ffe7]
@startuml
class "shopTest.TestScenario.Registration()" as cl1{
__**<color:green>has list</color>**__
..class..
..member..
..method..
__**<color:blue>calling list</color>**__
..class..
	Shop (236304360);
..member..
..method..
	boolean regist(java.lang.String, java.lang.String) (1636050357);
__**<color:orange>called by list</color>**__
..class..
..member..
..method..
}

@enduml

PlantUML version 1.2020.19(Tue Oct 13 00:10:01 KST 2020)
(APACHE source distribution)
Java Runtime: Java(TM) SE Runtime Environment
JVM: Java HotSpot(TM) 64-Bit Server VM
Default Encoding: MS949
Language: ko
Country: KR
--></g></svg>