<?xml version="1.0" encoding="UTF-8" standalone="no"?><svg xmlns="http://www.w3.org/2000/svg" xmlns:xlink="http://www.w3.org/1999/xlink" contentScriptType="application/ecmascript" contentStyleType="text/css" height="356px" preserveAspectRatio="none" style="width:227px;height:356px;" version="1.1" viewBox="0 0 227 356" width="227px" zoomAndPan="magnify"><defs><filter height="300%" id="f13d9x9liox5ws" width="300%" x="-1" y="-1"><feGaussianBlur result="blurOut" stdDeviation="2.0"/><feColorMatrix in="blurOut" result="blurOut2" type="matrix" values="0 0 0 0 0 0 0 0 0 0 0 0 0 0 0 0 0 0 .4 0"/><feOffset dx="4.0" dy="4.0" in="blurOut2" result="blurOut3"/><feBlend in="SourceGraphic" in2="blurOut3" mode="normal"/></filter></defs><g><!--MD5=[f6064968006b102cb1b3092be2f53bd9]
class cl1--><rect codeLine="1" fill="#FEFECE" filter="url(#f13d9x9liox5ws)" height="335.0688" id="cl1" style="stroke: #A80036; stroke-width: 1.5;" width="206" x="7" y="7"/><ellipse cx="41.35" cy="23" fill="#ADD1B2" rx="11" ry="11" style="stroke: #A80036; stroke-width: 1.0;"/><path d="M41.1781,16.4844 Q39.3031,16.4844 38.1469,18.2344 Q36.9594,20.0156 36.9594,23.0156 Q36.9594,26.3906 38.1625,28.1563 Q39.225,29.7813 40.975,29.7813 Q42.6625,29.7813 43.6156,28.875 Q44.6781,27.8594 44.8188,25.625 Q44.8188,25.2031 44.5844,24.9688 Q44.3969,24.7344 44.0531,24.7031 Q43.725,24.7031 43.4906,24.8906 Q43.225,25.125 43.225,25.5156 Q43.1938,26.9063 42.6,27.6406 Q42.0688,28.3438 41.1156,28.3438 Q39.9594,28.3438 39.2406,26.9063 Q38.5219,25.4063 38.5219,22.9844 Q38.5219,20.4375 39.4125,19.0469 Q40.1625,17.9219 41.3031,17.9219 Q41.9594,17.9219 42.4594,18.4688 Q43.0219,19.0781 43.1469,20.1406 Q43.1938,20.8438 44.0219,20.7344 Q44.8031,20.625 44.7563,19.9375 Q44.5688,18.4219 43.8031,17.5469 Q42.8656,16.4844 41.1781,16.4844 Z "/><text fill="#000000" font-family="sans-serif" font-size="12" lengthAdjust="spacingAndGlyphs" textLength="131" x="59.65" y="28.6045">shop.Goods.getMoney()</text><line style="stroke: #A80036; stroke-width: 1.5;" x1="8" x2="212" y1="39" y2="39"/><line style="stroke: #A80036; stroke-width: 1.5;" x1="8" x2="90" y1="54.5544" y2="54.5544"/><text fill="#008000" font-family="sans-serif" font-size="11" font-weight="bold" lengthAdjust="spacingAndGlyphs" textLength="40" x="90" y="59.1919">has list</text><line style="stroke: #A80036; stroke-width: 1.5;" x1="130" x2="212" y1="54.5544" y2="54.5544"/><line style="stroke: #A80036; stroke-width: 1.0; stroke-dasharray: 1.0,2.0;" x1="8" x2="97" y1="77.2178" y2="77.2178"/><text fill="#000000" font-family="sans-serif" font-size="11" lengthAdjust="spacingAndGlyphs" textLength="26" x="97" y="81.8552">class</text><line style="stroke: #A80036; stroke-width: 1.0; stroke-dasharray: 1.0,2.0;" x1="123" x2="212" y1="77.2178" y2="77.2178"/><line style="stroke: #A80036; stroke-width: 1.0; stroke-dasharray: 1.0,2.0;" x1="8" x2="91" y1="99.8811" y2="99.8811"/><text fill="#000000" font-family="sans-serif" font-size="11" lengthAdjust="spacingAndGlyphs" textLength="38" x="91" y="104.5186">member</text><line style="stroke: #A80036; stroke-width: 1.0; stroke-dasharray: 1.0,2.0;" x1="129" x2="212" y1="99.8811" y2="99.8811"/><line style="stroke: #A80036; stroke-width: 1.0; stroke-dasharray: 1.0,2.0;" x1="8" x2="92.5" y1="122.5444" y2="122.5444"/><text fill="#000000" font-family="sans-serif" font-size="11" lengthAdjust="spacingAndGlyphs" textLength="35" x="92.5" y="127.1819">method</text><line style="stroke: #A80036; stroke-width: 1.0; stroke-dasharray: 1.0,2.0;" x1="127.5" x2="212" y1="122.5444" y2="122.5444"/><line style="stroke: #A80036; stroke-width: 1.5;" x1="8" x2="82.5" y1="145.2078" y2="145.2078"/><text fill="#0000FF" font-family="sans-serif" font-size="11" font-weight="bold" lengthAdjust="spacingAndGlyphs" textLength="55" x="82.5" y="149.8452">calling list</text><line style="stroke: #A80036; stroke-width: 1.5;" x1="137.5" x2="212" y1="145.2078" y2="145.2078"/><line style="stroke: #A80036; stroke-width: 1.0; stroke-dasharray: 1.0,2.0;" x1="8" x2="97" y1="167.8711" y2="167.8711"/><text fill="#000000" font-family="sans-serif" font-size="11" lengthAdjust="spacingAndGlyphs" textLength="26" x="97" y="172.5085">class</text><line style="stroke: #A80036; stroke-width: 1.0; stroke-dasharray: 1.0,2.0;" x1="123" x2="212" y1="167.8711" y2="167.8711"/><line style="stroke: #A80036; stroke-width: 1.0; stroke-dasharray: 1.0,2.0;" x1="8" x2="91" y1="190.5344" y2="190.5344"/><text fill="#000000" font-family="sans-serif" font-size="11" lengthAdjust="spacingAndGlyphs" textLength="38" x="91" y="195.1719">member</text><line style="stroke: #A80036; stroke-width: 1.0; stroke-dasharray: 1.0,2.0;" x1="129" x2="212" y1="190.5344" y2="190.5344"/><line style="stroke: #A80036; stroke-width: 1.0; stroke-dasharray: 1.0,2.0;" x1="8" x2="92.5" y1="213.1978" y2="213.1978"/><text fill="#000000" font-family="sans-serif" font-size="11" lengthAdjust="spacingAndGlyphs" textLength="35" x="92.5" y="217.8352">method</text><line style="stroke: #A80036; stroke-width: 1.0; stroke-dasharray: 1.0,2.0;" x1="127.5" x2="212" y1="213.1978" y2="213.1978"/><line style="stroke: #A80036; stroke-width: 1.5;" x1="8" x2="76" y1="235.8611" y2="235.8611"/><text fill="#FFA500" font-family="sans-serif" font-size="11" font-weight="bold" lengthAdjust="spacingAndGlyphs" textLength="68" x="76" y="240.4985">called by list</text><line style="stroke: #A80036; stroke-width: 1.5;" x1="144" x2="212" y1="235.8611" y2="235.8611"/><text fill="#000000" font-family="sans-serif" font-size="11" lengthAdjust="spacingAndGlyphs" textLength="91" x="13" y="278.7708">User (621300254);</text><line style="stroke: #A80036; stroke-width: 1.0; stroke-dasharray: 1.0,2.0;" x1="8" x2="97" y1="258.5244" y2="258.5244"/><text fill="#000000" font-family="sans-serif" font-size="11" lengthAdjust="spacingAndGlyphs" textLength="26" x="97" y="263.1619">class</text><line style="stroke: #A80036; stroke-width: 1.0; stroke-dasharray: 1.0,2.0;" x1="123" x2="212" y1="258.5244" y2="258.5244"/><line style="stroke: #A80036; stroke-width: 1.0; stroke-dasharray: 1.0,2.0;" x1="8" x2="91" y1="292.7422" y2="292.7422"/><text fill="#000000" font-family="sans-serif" font-size="11" lengthAdjust="spacingAndGlyphs" textLength="38" x="91" y="297.3796">member</text><line style="stroke: #A80036; stroke-width: 1.0; stroke-dasharray: 1.0,2.0;" x1="129" x2="212" y1="292.7422" y2="292.7422"/><text fill="#000000" font-family="sans-serif" font-size="11" lengthAdjust="spacingAndGlyphs" textLength="194" x="13" y="335.6519">boolean buy(shop.Goods) (359368949);</text><line style="stroke: #A80036; stroke-width: 1.0; stroke-dasharray: 1.0,2.0;" x1="8" x2="92.5" y1="315.4055" y2="315.4055"/><text fill="#000000" font-family="sans-serif" font-size="11" lengthAdjust="spacingAndGlyphs" textLength="35" x="92.5" y="320.043">method</text><line style="stroke: #A80036; stroke-width: 1.0; stroke-dasharray: 1.0,2.0;" x1="127.5" x2="212" y1="315.4055" y2="315.4055"/><!--MD5=[edf3c57b0dffcca9f53d21bbd5913582]
@startuml
class "shop.Goods.getMoney()" as cl1{
__**<color:green>has list</color>**__
..class..
..member..
..method..
__**<color:blue>calling list</color>**__
..class..
..member..
..method..
__**<color:orange>called by list</color>**__
..class..
	User (621300254);
..member..
..method..
	boolean buy(shop.Goods) (359368949);
}

@enduml

PlantUML version 1.2020.19(Tue Oct 13 00:10:01 KST 2020)
(APACHE source distribution)
Java Runtime: Java(TM) SE Runtime Environment
JVM: Java HotSpot(TM) 64-Bit Server VM
Default Encoding: MS949
Language: ko
Country: KR
--></g></svg>