<?xml version="1.0" encoding="UTF-8" standalone="no"?><svg xmlns="http://www.w3.org/2000/svg" xmlns:xlink="http://www.w3.org/1999/xlink" contentScriptType="application/ecmascript" contentStyleType="text/css" height="1756px" preserveAspectRatio="none" style="width:356px;height:1756px;" version="1.1" viewBox="0 0 356 1756" width="356px" zoomAndPan="magnify"><defs><filter height="300%" id="fy9mozom7mg14" width="300%" x="-1" y="-1"><feGaussianBlur result="blurOut" stdDeviation="2.0"/><feColorMatrix in="blurOut" result="blurOut2" type="matrix" values="0 0 0 0 0 0 0 0 0 0 0 0 0 0 0 0 0 0 .4 0"/><feOffset dx="4.0" dy="4.0" in="blurOut2" result="blurOut3"/><feBlend in="SourceGraphic" in2="blurOut3" mode="normal"/></filter></defs><g><!--MD5=[a70b0d373322012744ecc119c63f921b]
cluster main--><rect fill="#FFFFFF" filter="url(#fy9mozom7mg14)" height="360" style="stroke: #000000; stroke-width: 1.5;" width="143" x="174.5" y="7"/><text fill="#000000" font-family="sans-serif" font-size="14" font-weight="bold" lengthAdjust="spacingAndGlyphs" textLength="33" x="229.5" y="25.1533">main</text><!--MD5=[1e829f21a74d4de467c1b519aceec237]
cluster makeFile--><rect fill="#FFFFFF" filter="url(#fy9mozom7mg14)" height="161" style="stroke: #000000; stroke-width: 1.5;" width="196" x="148" y="391"/><text fill="#000000" font-family="sans-serif" font-size="14" font-weight="bold" lengthAdjust="spacingAndGlyphs" textLength="63" x="214.5" y="409.1533">makeFile</text><!--MD5=[f7b8ef1aad535ba0cf171373eed63d39]
cluster makeGraphScript--><rect fill="#FFFFFF" filter="url(#fy9mozom7mg14)" height="156" style="stroke: #000000; stroke-width: 1.5;" width="153" x="169.5" y="576"/><text fill="#000000" font-family="sans-serif" font-size="14" font-weight="bold" lengthAdjust="spacingAndGlyphs" textLength="121" x="185.5" y="594.1533">makeGraphScript</text><!--MD5=[2478a7cca4ec048c8dd1e5506b0f7815]
cluster classExtends--><rect fill="#FFFFFF" filter="url(#fy9mozom7mg14)" height="156" style="stroke: #000000; stroke-width: 1.5;" width="153" x="169.5" y="756"/><text fill="#000000" font-family="sans-serif" font-size="14" font-weight="bold" lengthAdjust="spacingAndGlyphs" textLength="93" x="199.5" y="774.1533">classExtends</text><!--MD5=[a16c90b2e4a6c7d43da9372c08772bf6]
cluster addListSize--><rect fill="#FFFFFF" filter="url(#fy9mozom7mg14)" height="88" style="stroke: #000000; stroke-width: 1.5;" width="153" x="169.5" y="936"/><text fill="#000000" font-family="sans-serif" font-size="14" font-weight="bold" lengthAdjust="spacingAndGlyphs" textLength="80" x="206" y="954.1533">addListSize</text><!--MD5=[600e115adc72a6cbabecdb59f99145ea]
cluster classDef--><rect fill="#FFFFFF" filter="url(#fy9mozom7mg14)" height="88" style="stroke: #000000; stroke-width: 1.5;" width="153" x="169.5" y="1048"/><text fill="#000000" font-family="sans-serif" font-size="14" font-weight="bold" lengthAdjust="spacingAndGlyphs" textLength="60" x="216" y="1066.1533">classDef</text><!--MD5=[f187f0e524dea2ebe3ce3bb66eee0c84]
cluster addList--><rect fill="#FFFFFF" filter="url(#fy9mozom7mg14)" height="156" style="stroke: #000000; stroke-width: 1.5;" width="153" x="169.5" y="1160"/><text fill="#000000" font-family="sans-serif" font-size="14" font-weight="bold" lengthAdjust="spacingAndGlyphs" textLength="51" x="220.5" y="1178.1533">addList</text><!--MD5=[7fe9491b1c7f8d0ad3b12d91a25e243b]
cluster functionDef--><rect fill="#FFFFFF" filter="url(#fy9mozom7mg14)" height="156" style="stroke: #000000; stroke-width: 1.5;" width="153" x="169.5" y="1340"/><text fill="#000000" font-family="sans-serif" font-size="14" font-weight="bold" lengthAdjust="spacingAndGlyphs" textLength="82" x="205" y="1358.1533">functionDef</text><!--MD5=[436e124e9ab1774894a62329e4fc6a00]
cluster memberDef--><rect fill="#FFFFFF" filter="url(#fy9mozom7mg14)" height="224" style="stroke: #000000; stroke-width: 1.5;" width="153" x="169.5" y="1520"/><text fill="#000000" font-family="sans-serif" font-size="14" font-weight="bold" lengthAdjust="spacingAndGlyphs" textLength="81" x="205.5" y="1538.1533">memberDef</text><ellipse cx="245.7696" cy="62.0973" fill="#FEFECE" filter="url(#fy9mozom7mg14)" rx="39.7696" ry="16.5973" style="stroke: #A80036; stroke-width: 1.5;"/><text fill="#000000" font-family="sans-serif" font-size="14" lengthAdjust="spacingAndGlyphs" textLength="52" x="219.7696" y="68.2121">Runtime</text><ellipse cx="246.0624" cy="130.0973" fill="#FEFECE" filter="url(#fy9mozom7mg14)" rx="39.0624" ry="16.5973" style="stroke: #A80036; stroke-width: 1.5;"/><text fill="#000000" font-family="sans-serif" font-size="14" lengthAdjust="spacingAndGlyphs" textLength="51" x="220.5624" y="136.2121">Process</text><ellipse cx="245.8259" cy="198.0973" fill="#FEFECE" filter="url(#fy9mozom7mg14)" rx="55.3259" ry="16.5973" style="stroke: #A80036; stroke-width: 1.5;"/><text fill="#000000" font-family="sans-serif" font-size="14" lengthAdjust="spacingAndGlyphs" textLength="74" x="208.8259" y="204.2121">PrintStream</text><ellipse cx="245.8259" cy="266.0973" fill="#FEFECE" filter="url(#fy9mozom7mg14)" rx="55.3259" ry="16.5973" style="stroke: #A80036; stroke-width: 1.5;"/><text fill="#000000" font-family="sans-serif" font-size="14" lengthAdjust="spacingAndGlyphs" textLength="74" x="208.8259" y="272.2121">PrintStream</text><ellipse cx="246.0624" cy="334.0973" fill="#FEFECE" filter="url(#fy9mozom7mg14)" rx="39.0624" ry="16.5973" style="stroke: #A80036; stroke-width: 1.5;"/><text fill="#000000" font-family="sans-serif" font-size="14" lengthAdjust="spacingAndGlyphs" textLength="51" x="220.5624" y="340.2121">Process</text><ellipse cx="245.8701" cy="446.0973" fill="#FEFECE" filter="url(#fy9mozom7mg14)" rx="29.8701" ry="16.5973" style="stroke: #A80036; stroke-width: 1.5;"/><text fill="#000000" font-family="sans-serif" font-size="14" lengthAdjust="spacingAndGlyphs" textLength="38" x="226.8701" y="452.2121">Writer</text><ellipse cx="246.247" cy="516.8494" fill="#FEFECE" filter="url(#fy9mozom7mg14)" rx="82.247" ry="18.8494" style="stroke: #A80036; stroke-width: 1.5;"/><text fill="#000000" font-family="sans-serif" font-size="14" lengthAdjust="spacingAndGlyphs" textLength="126" x="183.247" y="522.9641">OutputStreamWriter</text><ellipse cx="245.7756" cy="631.0973" fill="#FEFECE" filter="url(#fy9mozom7mg14)" rx="60.2756" ry="16.5973" style="stroke: #A80036; stroke-width: 1.5;"/><text fill="#000000" font-family="sans-serif" font-size="14" lengthAdjust="spacingAndGlyphs" textLength="81" x="205.2756" y="637.2121">StringBuilder</text><ellipse cx="245.7696" cy="699.0973" fill="#FEFECE" filter="url(#fy9mozom7mg14)" rx="39.7696" ry="16.5973" style="stroke: #A80036; stroke-width: 1.5;"/><text fill="#000000" font-family="sans-serif" font-size="14" lengthAdjust="spacingAndGlyphs" textLength="52" x="219.7696" y="705.2121">DataList</text><ellipse cx="245.7756" cy="811.0973" fill="#FEFECE" filter="url(#fy9mozom7mg14)" rx="60.2756" ry="16.5973" style="stroke: #A80036; stroke-width: 1.5;"/><text fill="#000000" font-family="sans-serif" font-size="14" lengthAdjust="spacingAndGlyphs" textLength="81" x="205.2756" y="817.2121">StringBuilder</text><ellipse cx="245.7904" cy="879.0973" fill="#FEFECE" filter="url(#fy9mozom7mg14)" rx="51.7904" ry="16.5973" style="stroke: #A80036; stroke-width: 1.5;"/><text fill="#000000" font-family="sans-serif" font-size="14" lengthAdjust="spacingAndGlyphs" textLength="69" x="211.2904" y="885.2121">Data_base</text><ellipse cx="245.7756" cy="991.0973" fill="#FEFECE" filter="url(#fy9mozom7mg14)" rx="60.2756" ry="16.5973" style="stroke: #A80036; stroke-width: 1.5;"/><text fill="#000000" font-family="sans-serif" font-size="14" lengthAdjust="spacingAndGlyphs" textLength="81" x="205.2756" y="997.2121">StringBuilder</text><ellipse cx="245.7756" cy="1103.0973" fill="#FEFECE" filter="url(#fy9mozom7mg14)" rx="60.2756" ry="16.5973" style="stroke: #A80036; stroke-width: 1.5;"/><text fill="#000000" font-family="sans-serif" font-size="14" lengthAdjust="spacingAndGlyphs" textLength="81" x="205.2756" y="1109.2121">StringBuilder</text><ellipse cx="245.7756" cy="1215.0973" fill="#FEFECE" filter="url(#fy9mozom7mg14)" rx="60.2756" ry="16.5973" style="stroke: #A80036; stroke-width: 1.5;"/><text fill="#000000" font-family="sans-serif" font-size="14" lengthAdjust="spacingAndGlyphs" textLength="81" x="205.2756" y="1221.2121">StringBuilder</text><ellipse cx="245.7696" cy="1283.0973" fill="#FEFECE" filter="url(#fy9mozom7mg14)" rx="39.7696" ry="16.5973" style="stroke: #A80036; stroke-width: 1.5;"/><text fill="#000000" font-family="sans-serif" font-size="14" lengthAdjust="spacingAndGlyphs" textLength="52" x="219.7696" y="1289.2121">DataList</text><ellipse cx="245.7756" cy="1395.0973" fill="#FEFECE" filter="url(#fy9mozom7mg14)" rx="60.2756" ry="16.5973" style="stroke: #A80036; stroke-width: 1.5;"/><text fill="#000000" font-family="sans-serif" font-size="14" lengthAdjust="spacingAndGlyphs" textLength="81" x="205.2756" y="1401.2121">StringBuilder</text><ellipse cx="245.7904" cy="1463.0973" fill="#FEFECE" filter="url(#fy9mozom7mg14)" rx="51.7904" ry="16.5973" style="stroke: #A80036; stroke-width: 1.5;"/><text fill="#000000" font-family="sans-serif" font-size="14" lengthAdjust="spacingAndGlyphs" textLength="69" x="211.2904" y="1469.2121">Data_base</text><ellipse cx="245.7756" cy="1575.0973" fill="#FEFECE" filter="url(#fy9mozom7mg14)" rx="60.2756" ry="16.5973" style="stroke: #A80036; stroke-width: 1.5;"/><text fill="#000000" font-family="sans-serif" font-size="14" lengthAdjust="spacingAndGlyphs" textLength="81" x="205.2756" y="1581.2121">StringBuilder</text><ellipse cx="245.7904" cy="1643.0973" fill="#FEFECE" filter="url(#fy9mozom7mg14)" rx="51.7904" ry="16.5973" style="stroke: #A80036; stroke-width: 1.5;"/><text fill="#000000" font-family="sans-serif" font-size="14" lengthAdjust="spacingAndGlyphs" textLength="69" x="211.2904" y="1649.2121">Data_base</text><ellipse cx="246.0624" cy="1711.0973" fill="#FEFECE" filter="url(#fy9mozom7mg14)" rx="39.0624" ry="16.5973" style="stroke: #A80036; stroke-width: 1.5;"/><text fill="#000000" font-family="sans-serif" font-size="14" lengthAdjust="spacingAndGlyphs" textLength="51" x="220.5624" y="1717.2121">Member</text><!--MD5=[03b229b308f75a06ea58ea7131e807f7]
entity actor2045560071--><ellipse cx="55" cy="812.5" fill="#FEFECE" filter="url(#fy9mozom7mg14)" rx="8" ry="8" style="stroke: #A80036; stroke-width: 1.5;"/><path d="M55,820.5 L55,847.5 M42,828.5 L68,828.5 M55,847.5 L42,862.5 M55,847.5 L68,862.5 " fill="none" filter="url(#fy9mozom7mg14)" style="stroke: #A80036; stroke-width: 1.5;"/><text fill="#000000" font-family="sans-serif" font-size="14" lengthAdjust="spacingAndGlyphs" textLength="98" x="6" y="884.1533">GraphStructure</text><!--MD5=[7f908ee3098db208716ed8e687dc786a]
link actor2045560071 to UC18--><path d="M58.09,802.76 C65.87,652.66 95.03,151.08 140,96 C156,76.41 183.41,67.98 206.22,64.41 " fill="none" id="actor2045560071-UC18" style="stroke: #A80036; stroke-width: 1.0;"/><!--MD5=[3cd8caa0be8753cf26e9c6818aff73c4]
link actor2045560071 to UC19--><path d="M55.48,802.56 C54.7,669.26 59.13,261.95 140,164 C156.35,144.2 184.35,135.81 207.33,132.32 " fill="none" id="actor2045560071-UC19" style="stroke: #A80036; stroke-width: 1.0;"/><!--MD5=[a9be72d02c429d967e168e1e8369363b]
link actor2045560071 to UC20--><path d="M56.13,802.89 C57.36,678.98 67.26,318.9 140,232 C153.16,216.28 173.66,207.76 193.07,203.17 " fill="none" id="actor2045560071-UC20" style="stroke: #A80036; stroke-width: 1.0;"/><!--MD5=[8a1a7be13ee81add6be197c930fab343]
link actor2045560071 to UC21--><path d="M56.94,802.7 C60.34,688.21 75.46,375.81 140,300 C153.29,284.39 173.81,275.89 193.2,271.28 " fill="none" id="actor2045560071-UC21" style="stroke: #A80036; stroke-width: 1.0;"/><!--MD5=[29f6a807ee04ead61e495c5ce51723b9]
link actor2045560071 to UC22--><path d="M60.33,802.76 C70.72,707.29 99.28,478.1 140,413 C159.23,382.25 195.08,359.22 219.48,346.19 " fill="none" id="actor2045560071-UC22" style="stroke: #A80036; stroke-width: 1.0;"/><!--MD5=[c5c9dda1fcf383afc50016319fb10e82]
link actor2045560071 to UC23--><path d="M60.47,802.97 C70.38,717.42 96.78,527.16 140,480 C159.42,458.81 192.13,450.78 215.89,447.76 " fill="none" id="actor2045560071-UC23" style="stroke: #A80036; stroke-width: 1.0;"/><!--MD5=[0de5a11e2a65e423a3700a8ad3eeeca3]
link actor2045560071 to UC24--><path d="M62.65,802.69 C72.47,750.57 94.82,661.19 140,598 C159.28,571.03 190.1,548.77 213.37,534.46 " fill="none" id="actor2045560071-UC24" style="stroke: #A80036; stroke-width: 1.0;"/><!--MD5=[832bf25bb11e474708791b7ec862feb4]
link actor2045560071 to UC25--><path d="M65.34,802.69 C76.46,761.95 98.91,701.31 140,665 C154.72,652 174.48,643.95 192.89,638.99 " fill="none" id="actor2045560071-UC25" style="stroke: #A80036; stroke-width: 1.0;"/><!--MD5=[3fce561e6d5fb9c968e693c148a8ebeb]
link actor2045560071 to UC26--><path d="M104.23,806.15 C115.89,796.86 128.35,787.03 140,778 C169.57,755.09 204.35,729.11 225.52,713.4 " fill="none" id="actor2045560071-UC26" style="stroke: #A80036; stroke-width: 1.0;"/><!--MD5=[71c5f37394a0b5368bcfc06a3d455e21]
link actor2045560071 to UC27--><path d="M104.18,836.33 C131.96,831.34 166.83,825.06 194.93,820.01 " fill="none" id="actor2045560071-UC27" style="stroke: #A80036; stroke-width: 1.0;"/><!--MD5=[b9e050fae468391832d8b8fabffdb046]
link actor2045560071 to UC28--><path d="M104.18,853.67 C133.82,859 171.53,865.78 200.47,870.99 " fill="none" id="actor2045560071-UC28" style="stroke: #A80036; stroke-width: 1.0;"/><!--MD5=[3ac33dba596a8a9b9710fc7451c4d67b]
link actor2045560071 to UC29--><path d="M104.23,883.85 C115.89,893.14 128.35,902.97 140,912 C168.85,934.35 202.66,959.63 223.95,975.43 " fill="none" id="actor2045560071-UC29" style="stroke: #A80036; stroke-width: 1.0;"/><!--MD5=[729351ddfad1ae51d44a43a6f6f814ae]
link actor2045560071 to UC30--><path d="M69.24,887.32 C82.73,925.79 106.45,982.7 140,1024 C162.01,1051.09 195.22,1074.02 218.37,1088.08 " fill="none" id="actor2045560071-UC30" style="stroke: #A80036; stroke-width: 1.0;"/><!--MD5=[b103762e225b53a5dcdec71e10ee1a9b]
link actor2045560071 to UC31--><path d="M59.73,887.11 C66.8,947.1 86.59,1058.5 140,1136 C159.55,1164.36 192.57,1186.75 216.36,1200.35 " fill="none" id="actor2045560071-UC31" style="stroke: #A80036; stroke-width: 1.0;"/><!--MD5=[ae46f566e7feeb650f63aaabb7f1bdaa]
link actor2045560071 to UC32--><path d="M59.46,887.23 C67.86,979.63 92.22,1195.75 140,1249 C156.83,1267.75 184.07,1276.21 206.59,1280 " fill="none" id="actor2045560071-UC32" style="stroke: #A80036; stroke-width: 1.0;"/><!--MD5=[a9eb59b89703b40758c6ff2501d8df36]
link actor2045560071 to UC33--><path d="M59.57,887.22 C68.77,988.84 95.74,1244 140,1316 C157.92,1345.15 190.89,1367.26 215.12,1380.58 " fill="none" id="actor2045560071-UC33" style="stroke: #A80036; stroke-width: 1.0;"/><!--MD5=[c1290ae2156d2c38db991f561ad384b9]
link actor2045560071 to UC34--><path d="M56.46,887.25 C58.6,1007.27 70.77,1346.85 140,1429 C153.83,1445.41 175.66,1453.97 195.83,1458.41 " fill="none" id="actor2045560071-UC34" style="stroke: #A80036; stroke-width: 1.0;"/><!--MD5=[7f22dbe2ba25dac77cf83ad4c819eff0]
link actor2045560071 to UC35--><path d="M57.22,887.28 C61.55,1014.55 79.31,1391.72 140,1496 C157.21,1525.58 190.3,1547.61 214.75,1560.8 " fill="none" id="actor2045560071-UC35" style="stroke: #A80036; stroke-width: 1.0;"/><!--MD5=[2160836c57d6a8982d894be73f4c85b9]
link actor2045560071 to UC36--><path d="M57.98,887.04 C65.48,1038.83 94.1,1552.65 140,1609 C153.55,1625.64 175.35,1634.23 195.57,1638.62 " fill="none" id="actor2045560071-UC36" style="stroke: #A80036; stroke-width: 1.0;"/><!--MD5=[63a22d2962c290d3f3b7d2ad0345558c]
link actor2045560071 to UC37--><path d="M57.58,887.14 C63.98,1047.66 89.96,1615.01 140,1677 C156.13,1696.98 184.14,1705.36 207.18,1708.81 " fill="none" id="actor2045560071-UC37" style="stroke: #A80036; stroke-width: 1.0;"/><!--MD5=[fa284f6e746a1a8b720fc484b4715c7a]
@startuml
 left to right direction

actor GraphStructure as actor2045560071

	rectangle main{
	 usecase Runtime as UC18
	actor2045560071- -UC18
	 usecase Process as UC19
	actor2045560071- -UC19
	 usecase PrintStream as UC20
	actor2045560071- -UC20
	}
	rectangle main{
	 usecase PrintStream as UC21
	actor2045560071- -UC21
	 usecase Process as UC22
	actor2045560071- -UC22
	}
	rectangle makeFile{
	 usecase Writer as UC23
	actor2045560071- -UC23
	 usecase OutputStreamWriter as UC24
	actor2045560071- -UC24
	}
	rectangle makeGraphScript{
	 usecase StringBuilder as UC25
	actor2045560071- -UC25
	 usecase DataList as UC26
	actor2045560071- -UC26
	}
	rectangle classExtends{
	 usecase StringBuilder as UC27
	actor2045560071- -UC27
	 usecase Data_base as UC28
	actor2045560071- -UC28
	}
	rectangle addListSize{
	 usecase StringBuilder as UC29
	actor2045560071- -UC29
	}
	rectangle classDef{
	 usecase StringBuilder as UC30
	actor2045560071- -UC30
	}
	rectangle addList{
	 usecase StringBuilder as UC31
	actor2045560071- -UC31
	 usecase DataList as UC32
	actor2045560071- -UC32
	}
	rectangle functionDef{
	 usecase StringBuilder as UC33
	actor2045560071- -UC33
	 usecase Data_base as UC34
	actor2045560071- -UC34
	}
	rectangle memberDef{
	 usecase StringBuilder as UC35
	actor2045560071- -UC35
	 usecase Data_base as UC36
	actor2045560071- -UC36
	 usecase Member as UC37
	actor2045560071- -UC37
	}

@enduml

PlantUML version 1.2020.19(Tue Oct 13 00:10:01 KST 2020)
(APACHE source distribution)
Java Runtime: Java(TM) SE Runtime Environment
JVM: Java HotSpot(TM) 64-Bit Server VM
Default Encoding: MS949
Language: ko
Country: KR
--></g></svg>