<?xml version="1.0" encoding="UTF-8" standalone="no"?><svg xmlns="http://www.w3.org/2000/svg" xmlns:xlink="http://www.w3.org/1999/xlink" contentScriptType="application/ecmascript" contentStyleType="text/css" height="2616px" preserveAspectRatio="none" style="width:322px;height:2616px;" version="1.1" viewBox="0 0 322 2616" width="322px" zoomAndPan="magnify"><defs><filter height="300%" id="f9ih3i06d1msp" width="300%" x="-1" y="-1"><feGaussianBlur result="blurOut" stdDeviation="2.0"/><feColorMatrix in="blurOut" result="blurOut2" type="matrix" values="0 0 0 0 0 0 0 0 0 0 0 0 0 0 0 0 0 0 .4 0"/><feOffset dx="4.0" dy="4.0" in="blurOut2" result="blurOut3"/><feBlend in="SourceGraphic" in2="blurOut3" mode="normal"/></filter></defs><g><!--MD5=[a70b0d373322012744ecc119c63f921b]
cluster main--><rect fill="#FFFFFF" filter="url(#f9ih3i06d1msp)" height="428" style="stroke: #000000; stroke-width: 1.5;" width="143" x="140.5" y="7"/><text fill="#000000" font-family="sans-serif" font-size="14" font-weight="bold" lengthAdjust="spacingAndGlyphs" textLength="33" x="195.5" y="25.1533">main</text><!--MD5=[81622683cdd0c3ab38252afba393cebc]
cluster makeMemberScript--><rect fill="#FFFFFF" filter="url(#f9ih3i06d1msp)" height="88" style="stroke: #000000; stroke-width: 1.5;" width="153" x="135.5" y="459"/><text fill="#000000" font-family="sans-serif" font-size="14" font-weight="bold" lengthAdjust="spacingAndGlyphs" textLength="136" x="144" y="477.1533">makeMemberScript</text><!--MD5=[0ae59dc46715bb6946a719fa53e53156]
cluster MemberDef--><rect fill="#FFFFFF" filter="url(#f9ih3i06d1msp)" height="292" style="stroke: #000000; stroke-width: 1.5;" width="153" x="135.5" y="571"/><text fill="#000000" font-family="sans-serif" font-size="14" font-weight="bold" lengthAdjust="spacingAndGlyphs" textLength="82" x="171" y="589.1533">MemberDef</text><!--MD5=[1e829f21a74d4de467c1b519aceec237]
cluster makeFile--><rect fill="#FFFFFF" filter="url(#f9ih3i06d1msp)" height="161" style="stroke: #000000; stroke-width: 1.5;" width="196" x="114" y="887"/><text fill="#000000" font-family="sans-serif" font-size="14" font-weight="bold" lengthAdjust="spacingAndGlyphs" textLength="63" x="180.5" y="905.1533">makeFile</text><!--MD5=[0b71714120d97c2309afa7cf18d6d277]
cluster makeClassScript--><rect fill="#FFFFFF" filter="url(#f9ih3i06d1msp)" height="156" style="stroke: #000000; stroke-width: 1.5;" width="153" x="135.5" y="1072"/><text fill="#000000" font-family="sans-serif" font-size="14" font-weight="bold" lengthAdjust="spacingAndGlyphs" textLength="116" x="154" y="1090.1533">makeClassScript</text><!--MD5=[77c1aebc40cc426a7f4f9a178f7c4066]
cluster makeFunctionScript--><rect fill="#FFFFFF" filter="url(#f9ih3i06d1msp)" height="88" style="stroke: #000000; stroke-width: 1.5;" width="156" x="134.5" y="1252"/><text fill="#000000" font-family="sans-serif" font-size="14" font-weight="bold" lengthAdjust="spacingAndGlyphs" textLength="140" x="142.5" y="1270.1533">makeFunctionScript</text><!--MD5=[2478a7cca4ec048c8dd1e5506b0f7815]
cluster classExtends--><rect fill="#FFFFFF" filter="url(#f9ih3i06d1msp)" height="224" style="stroke: #000000; stroke-width: 1.5;" width="153" x="135.5" y="1364"/><text fill="#000000" font-family="sans-serif" font-size="14" font-weight="bold" lengthAdjust="spacingAndGlyphs" textLength="93" x="165.5" y="1382.1533">classExtends</text><!--MD5=[600e115adc72a6cbabecdb59f99145ea]
cluster classDef--><rect fill="#FFFFFF" filter="url(#f9ih3i06d1msp)" height="292" style="stroke: #000000; stroke-width: 1.5;" width="153" x="135.5" y="1612"/><text fill="#000000" font-family="sans-serif" font-size="14" font-weight="bold" lengthAdjust="spacingAndGlyphs" textLength="60" x="182" y="1630.1533">classDef</text><!--MD5=[f187f0e524dea2ebe3ce3bb66eee0c84]
cluster addList--><rect fill="#FFFFFF" filter="url(#f9ih3i06d1msp)" height="360" style="stroke: #000000; stroke-width: 1.5;" width="153" x="135.5" y="1928"/><text fill="#000000" font-family="sans-serif" font-size="14" font-weight="bold" lengthAdjust="spacingAndGlyphs" textLength="51" x="186.5" y="1946.1533">addList</text><!--MD5=[7fe9491b1c7f8d0ad3b12d91a25e243b]
cluster functionDef--><rect fill="#FFFFFF" filter="url(#f9ih3i06d1msp)" height="292" style="stroke: #000000; stroke-width: 1.5;" width="153" x="135.5" y="2312"/><text fill="#000000" font-family="sans-serif" font-size="14" font-weight="bold" lengthAdjust="spacingAndGlyphs" textLength="82" x="171" y="2330.1533">functionDef</text><ellipse cx="211.7696" cy="62.0973" fill="#FEFECE" filter="url(#f9ih3i06d1msp)" rx="39.7696" ry="16.5973" style="stroke: #A80036; stroke-width: 1.5;"/><text fill="#000000" font-family="sans-serif" font-size="14" lengthAdjust="spacingAndGlyphs" textLength="52" x="185.7696" y="68.2121">Runtime</text><ellipse cx="212.0624" cy="130.0973" fill="#FEFECE" filter="url(#f9ih3i06d1msp)" rx="39.0624" ry="16.5973" style="stroke: #A80036; stroke-width: 1.5;"/><text fill="#000000" font-family="sans-serif" font-size="14" lengthAdjust="spacingAndGlyphs" textLength="51" x="186.5624" y="136.2121">Process</text><ellipse cx="211.8259" cy="198.0973" fill="#FEFECE" filter="url(#f9ih3i06d1msp)" rx="55.3259" ry="16.5973" style="stroke: #A80036; stroke-width: 1.5;"/><text fill="#000000" font-family="sans-serif" font-size="14" lengthAdjust="spacingAndGlyphs" textLength="74" x="174.8259" y="204.2121">PrintStream</text><ellipse cx="211.8259" cy="266.0973" fill="#FEFECE" filter="url(#f9ih3i06d1msp)" rx="55.3259" ry="16.5973" style="stroke: #A80036; stroke-width: 1.5;"/><text fill="#000000" font-family="sans-serif" font-size="14" lengthAdjust="spacingAndGlyphs" textLength="74" x="174.8259" y="272.2121">PrintStream</text><ellipse cx="212.0624" cy="334.0973" fill="#FEFECE" filter="url(#f9ih3i06d1msp)" rx="39.0624" ry="16.5973" style="stroke: #A80036; stroke-width: 1.5;"/><text fill="#000000" font-family="sans-serif" font-size="14" lengthAdjust="spacingAndGlyphs" textLength="51" x="186.5624" y="340.2121">Process</text><ellipse cx="211.7696" cy="402.0973" fill="#FEFECE" filter="url(#f9ih3i06d1msp)" rx="39.7696" ry="16.5973" style="stroke: #A80036; stroke-width: 1.5;"/><text fill="#000000" font-family="sans-serif" font-size="14" lengthAdjust="spacingAndGlyphs" textLength="52" x="185.7696" y="408.2121">Runtime</text><ellipse cx="211.7756" cy="514.0973" fill="#FEFECE" filter="url(#f9ih3i06d1msp)" rx="60.2756" ry="16.5973" style="stroke: #A80036; stroke-width: 1.5;"/><text fill="#000000" font-family="sans-serif" font-size="14" lengthAdjust="spacingAndGlyphs" textLength="81" x="171.2756" y="520.2121">StringBuilder</text><ellipse cx="211.7756" cy="626.0973" fill="#FEFECE" filter="url(#f9ih3i06d1msp)" rx="60.2756" ry="16.5973" style="stroke: #A80036; stroke-width: 1.5;"/><text fill="#000000" font-family="sans-serif" font-size="14" lengthAdjust="spacingAndGlyphs" textLength="81" x="171.2756" y="632.2121">StringBuilder</text><ellipse cx="211.7904" cy="694.0973" fill="#FEFECE" filter="url(#f9ih3i06d1msp)" rx="51.7904" ry="16.5973" style="stroke: #A80036; stroke-width: 1.5;"/><text fill="#000000" font-family="sans-serif" font-size="14" lengthAdjust="spacingAndGlyphs" textLength="69" x="177.2904" y="700.2121">Data_base</text><ellipse cx="212.0624" cy="762.0973" fill="#FEFECE" filter="url(#f9ih3i06d1msp)" rx="39.0624" ry="16.5973" style="stroke: #A80036; stroke-width: 1.5;"/><text fill="#000000" font-family="sans-serif" font-size="14" lengthAdjust="spacingAndGlyphs" textLength="51" x="186.5624" y="768.2121">Member</text><ellipse cx="211.9914" cy="830.0973" fill="#FEFECE" filter="url(#f9ih3i06d1msp)" rx="31.9914" ry="16.5973" style="stroke: #A80036; stroke-width: 1.5;"/><text fill="#000000" font-family="sans-serif" font-size="14" lengthAdjust="spacingAndGlyphs" textLength="41" x="191.4914" y="836.2121">Object</text><ellipse cx="211.8701" cy="942.0973" fill="#FEFECE" filter="url(#f9ih3i06d1msp)" rx="29.8701" ry="16.5973" style="stroke: #A80036; stroke-width: 1.5;"/><text fill="#000000" font-family="sans-serif" font-size="14" lengthAdjust="spacingAndGlyphs" textLength="38" x="192.8701" y="948.2121">Writer</text><ellipse cx="212.247" cy="1012.8494" fill="#FEFECE" filter="url(#f9ih3i06d1msp)" rx="82.247" ry="18.8494" style="stroke: #A80036; stroke-width: 1.5;"/><text fill="#000000" font-family="sans-serif" font-size="14" lengthAdjust="spacingAndGlyphs" textLength="126" x="149.247" y="1018.9641">OutputStreamWriter</text><ellipse cx="211.7756" cy="1127.0973" fill="#FEFECE" filter="url(#f9ih3i06d1msp)" rx="60.2756" ry="16.5973" style="stroke: #A80036; stroke-width: 1.5;"/><text fill="#000000" font-family="sans-serif" font-size="14" lengthAdjust="spacingAndGlyphs" textLength="81" x="171.2756" y="1133.2121">StringBuilder</text><ellipse cx="212.2193" cy="1195.0973" fill="#FEFECE" filter="url(#f9ih3i06d1msp)" rx="44.7193" ry="16.5973" style="stroke: #A80036; stroke-width: 1.5;"/><text fill="#000000" font-family="sans-serif" font-size="14" lengthAdjust="spacingAndGlyphs" textLength="59" x="182.7193" y="1201.2121">HashMap</text><ellipse cx="211.7756" cy="1307.0973" fill="#FEFECE" filter="url(#f9ih3i06d1msp)" rx="60.2756" ry="16.5973" style="stroke: #A80036; stroke-width: 1.5;"/><text fill="#000000" font-family="sans-serif" font-size="14" lengthAdjust="spacingAndGlyphs" textLength="81" x="171.2756" y="1313.2121">StringBuilder</text><ellipse cx="211.7756" cy="1419.0973" fill="#FEFECE" filter="url(#f9ih3i06d1msp)" rx="60.2756" ry="16.5973" style="stroke: #A80036; stroke-width: 1.5;"/><text fill="#000000" font-family="sans-serif" font-size="14" lengthAdjust="spacingAndGlyphs" textLength="81" x="171.2756" y="1425.2121">StringBuilder</text><ellipse cx="212.2487" cy="1487.0973" fill="#FEFECE" filter="url(#f9ih3i06d1msp)" rx="27.7487" ry="16.5973" style="stroke: #A80036; stroke-width: 1.5;"/><text fill="#000000" font-family="sans-serif" font-size="14" lengthAdjust="spacingAndGlyphs" textLength="35" x="194.7487" y="1493.2121">Class</text><ellipse cx="211.7904" cy="1555.0973" fill="#FEFECE" filter="url(#f9ih3i06d1msp)" rx="51.7904" ry="16.5973" style="stroke: #A80036; stroke-width: 1.5;"/><text fill="#000000" font-family="sans-serif" font-size="14" lengthAdjust="spacingAndGlyphs" textLength="69" x="177.2904" y="1561.2121">Data_base</text><ellipse cx="211.7756" cy="1667.0973" fill="#FEFECE" filter="url(#f9ih3i06d1msp)" rx="60.2756" ry="16.5973" style="stroke: #A80036; stroke-width: 1.5;"/><text fill="#000000" font-family="sans-serif" font-size="14" lengthAdjust="spacingAndGlyphs" textLength="81" x="171.2756" y="1673.2121">StringBuilder</text><ellipse cx="212.2487" cy="1735.0973" fill="#FEFECE" filter="url(#f9ih3i06d1msp)" rx="27.7487" ry="16.5973" style="stroke: #A80036; stroke-width: 1.5;"/><text fill="#000000" font-family="sans-serif" font-size="14" lengthAdjust="spacingAndGlyphs" textLength="35" x="194.7487" y="1741.2121">Class</text><ellipse cx="211.9914" cy="1803.0973" fill="#FEFECE" filter="url(#f9ih3i06d1msp)" rx="31.9914" ry="16.5973" style="stroke: #A80036; stroke-width: 1.5;"/><text fill="#000000" font-family="sans-serif" font-size="14" lengthAdjust="spacingAndGlyphs" textLength="41" x="191.4914" y="1809.2121">Object</text><ellipse cx="211.7904" cy="1871.0973" fill="#FEFECE" filter="url(#f9ih3i06d1msp)" rx="51.7904" ry="16.5973" style="stroke: #A80036; stroke-width: 1.5;"/><text fill="#000000" font-family="sans-serif" font-size="14" lengthAdjust="spacingAndGlyphs" textLength="69" x="177.2904" y="1877.2121">Data_base</text><ellipse cx="211.7756" cy="1983.0973" fill="#FEFECE" filter="url(#f9ih3i06d1msp)" rx="60.2756" ry="16.5973" style="stroke: #A80036; stroke-width: 1.5;"/><text fill="#000000" font-family="sans-serif" font-size="14" lengthAdjust="spacingAndGlyphs" textLength="81" x="171.2756" y="1989.2121">StringBuilder</text><ellipse cx="211.7904" cy="2051.0973" fill="#FEFECE" filter="url(#f9ih3i06d1msp)" rx="51.7904" ry="16.5973" style="stroke: #A80036; stroke-width: 1.5;"/><text fill="#000000" font-family="sans-serif" font-size="14" lengthAdjust="spacingAndGlyphs" textLength="69" x="177.2904" y="2057.2121">Data_base</text><ellipse cx="211.7696" cy="2119.0973" fill="#FEFECE" filter="url(#f9ih3i06d1msp)" rx="39.7696" ry="16.5973" style="stroke: #A80036; stroke-width: 1.5;"/><text fill="#000000" font-family="sans-serif" font-size="14" lengthAdjust="spacingAndGlyphs" textLength="52" x="185.7696" y="2125.2121">DataList</text><ellipse cx="212.0624" cy="2187.0973" fill="#FEFECE" filter="url(#f9ih3i06d1msp)" rx="39.0624" ry="16.5973" style="stroke: #A80036; stroke-width: 1.5;"/><text fill="#000000" font-family="sans-serif" font-size="14" lengthAdjust="spacingAndGlyphs" textLength="51" x="186.5624" y="2193.2121">Member</text><ellipse cx="211.8909" cy="2255.0973" fill="#FEFECE" filter="url(#f9ih3i06d1msp)" rx="41.8909" ry="16.5973" style="stroke: #A80036; stroke-width: 1.5;"/><text fill="#000000" font-family="sans-serif" font-size="14" lengthAdjust="spacingAndGlyphs" textLength="55" x="184.3909" y="2261.2121">Function</text><ellipse cx="211.7756" cy="2367.0973" fill="#FEFECE" filter="url(#f9ih3i06d1msp)" rx="60.2756" ry="16.5973" style="stroke: #A80036; stroke-width: 1.5;"/><text fill="#000000" font-family="sans-serif" font-size="14" lengthAdjust="spacingAndGlyphs" textLength="81" x="171.2756" y="2373.2121">StringBuilder</text><ellipse cx="211.8909" cy="2435.0973" fill="#FEFECE" filter="url(#f9ih3i06d1msp)" rx="41.8909" ry="16.5973" style="stroke: #A80036; stroke-width: 1.5;"/><text fill="#000000" font-family="sans-serif" font-size="14" lengthAdjust="spacingAndGlyphs" textLength="55" x="184.3909" y="2441.2121">Function</text><ellipse cx="211.7904" cy="2503.0973" fill="#FEFECE" filter="url(#f9ih3i06d1msp)" rx="51.7904" ry="16.5973" style="stroke: #A80036; stroke-width: 1.5;"/><text fill="#000000" font-family="sans-serif" font-size="14" lengthAdjust="spacingAndGlyphs" textLength="69" x="177.2904" y="2509.2121">Data_base</text><ellipse cx="211.9914" cy="2571.0973" fill="#FEFECE" filter="url(#f9ih3i06d1msp)" rx="31.9914" ry="16.5973" style="stroke: #A80036; stroke-width: 1.5;"/><text fill="#000000" font-family="sans-serif" font-size="14" lengthAdjust="spacingAndGlyphs" textLength="41" x="191.4914" y="2577.2121">Object</text><!--MD5=[0ff7701cad75d1bdb16f22cd3c9d063a]
entity actor1928117427--><ellipse cx="38" cy="1330.5" fill="#FEFECE" filter="url(#f9ih3i06d1msp)" rx="8" ry="8" style="stroke: #A80036; stroke-width: 1.5;"/><path d="M38,1338.5 L38,1365.5 M25,1346.5 L51,1346.5 M38,1365.5 L25,1380.5 M38,1365.5 L51,1380.5 " fill="none" filter="url(#f9ih3i06d1msp)" style="stroke: #A80036; stroke-width: 1.5;"/><text fill="#000000" font-family="sans-serif" font-size="14" lengthAdjust="spacingAndGlyphs" textLength="64" x="6" y="1402.1533">CallGraph</text><!--MD5=[47811ed8e4d9fa4f5b1594a7c21275c2]
link actor1928117427 to UC147--><path d="M39.89,1320.88 C44.61,1106.6 67.85,145.64 106,96 C121.47,75.87 149.05,67.47 172.07,64.05 " fill="none" id="actor1928117427-UC147" style="stroke: #A80036; stroke-width: 1.0;"/><!--MD5=[4c5bc817ef88a2735c48a8f5f7faab84]
link actor1928117427 to UC148--><path d="M38.58,1320.97 C36.92,1119.36 34.12,257.24 106,164 C121.73,143.59 149.92,135.24 173.13,131.91 " fill="none" id="actor1928117427-UC148" style="stroke: #A80036; stroke-width: 1.0;"/><!--MD5=[0f1f656cc272822573f87d6d053c8767]
link actor1928117427 to UC149--><path d="M38.73,1320.79 C37.85,1125.97 38.34,319.47 106,232 C118.54,215.78 138.95,207.18 158.44,202.67 " fill="none" id="actor1928117427-UC149" style="stroke: #A80036; stroke-width: 1.0;"/><!--MD5=[8a9641972a3d32668f95d5d33443fcd6]
link actor1928117427 to UC150--><path d="M38.9,1320.84 C38.83,1133.47 42.52,381.74 106,300 C118.58,283.81 138.98,275.21 158.48,270.69 " fill="none" id="actor1928117427-UC150" style="stroke: #A80036; stroke-width: 1.0;"/><!--MD5=[0d8c57a9122a42865b080f5a378db40c]
link actor1928117427 to UC151--><path d="M39.1,1320.85 C39.87,1141.07 46.7,444.02 106,368 C121.85,347.68 150.03,339.33 173.21,335.97 " fill="none" id="actor1928117427-UC151" style="stroke: #A80036; stroke-width: 1.0;"/><!--MD5=[f5140738432bd9762952790bcf9fff4f]
link actor1928117427 to UC152--><path d="M40.17,1320.82 C45.04,1155.26 65.38,555.22 106,481 C123.31,449.38 159.25,426.7 184.23,413.97 " fill="none" id="actor1928117427-UC152" style="stroke: #A80036; stroke-width: 1.0;"/><!--MD5=[deeca254d439fc861e4eca0d1d0bbf34]
link actor1928117427 to UC153--><path d="M40.67,1320.85 C46.94,1169.18 70.58,656.88 106,593 C122.48,563.27 155.35,541.39 179.94,528.29 " fill="none" id="actor1928117427-UC153" style="stroke: #A80036; stroke-width: 1.0;"/><!--MD5=[1fdebaca5b1814d1106bd3cf2340e8c5]
link actor1928117427 to UC154--><path d="M40.36,1320.66 C45.35,1176.61 64.56,711.63 106,660 C118.05,644.98 136.83,636.52 155.18,631.77 " fill="none" id="actor1928117427-UC154" style="stroke: #A80036; stroke-width: 1.0;"/><!--MD5=[4b7d014b7106d181cd4cb5adf93b060a]
link actor1928117427 to UC155--><path d="M40.82,1320.58 C46.97,1185.88 68.69,774.01 106,728 C119.52,711.33 141.3,702.74 161.54,698.35 " fill="none" id="actor1928117427-UC155" style="stroke: #A80036; stroke-width: 1.0;"/><!--MD5=[ffa03b569e3517f6d1dcd374476d5681]
link actor1928117427 to UC156--><path d="M38.3,1320.78 C37.2,1203.31 40.26,876.04 106,796 C122.3,776.16 150.3,767.77 173.29,764.29 " fill="none" id="actor1928117427-UC156" style="stroke: #A80036; stroke-width: 1.0;"/><!--MD5=[da3327fbf9a7bc3410f601b9a7ecbcfb]
link actor1928117427 to UC157--><path d="M41.16,1320.89 C46.85,1222.06 64.79,978.35 106,909 C125.11,876.84 162.83,853.46 187.47,840.81 " fill="none" id="actor1928117427-UC157" style="stroke: #A80036; stroke-width: 1.0;"/><!--MD5=[bea6605d1da81259868c30ce84e8fb25]
link actor1928117427 to UC158--><path d="M40.91,1320.94 C45.8,1231.64 61.65,1027.12 106,976 C124.96,954.14 158.08,946.24 182.07,943.44 " fill="none" id="actor1928117427-UC158" style="stroke: #A80036; stroke-width: 1.0;"/><!--MD5=[6cc1f187fd830c6d88e4773e24379236]
link actor1928117427 to UC159--><path d="M41,1320.9 C45.45,1264.89 59.79,1164.7 106,1094 C123.89,1066.63 154.24,1044.71 177.72,1030.6 " fill="none" id="actor1928117427-UC159" style="stroke: #A80036; stroke-width: 1.0;"/><!--MD5=[d5a4bc77327c0d8abb6b682bff0d0d76]
link actor1928117427 to UC160--><path d="M41.98,1320.86 C47.41,1275.45 62.74,1203.95 106,1161 C119.8,1147.3 139.16,1139.12 157.51,1134.23 " fill="none" id="actor1928117427-UC160" style="stroke: #A80036; stroke-width: 1.0;"/><!--MD5=[b487578e74ee1e01db0f2f680d512537]
link actor1928117427 to UC161--><path d="M67.09,1320.72 C78.31,1305.24 91.91,1288.08 106,1274 C131.81,1248.19 166.38,1223.79 188.67,1209.11 " fill="none" id="actor1928117427-UC161" style="stroke: #A80036; stroke-width: 1.0;"/><!--MD5=[6a40fbf96b475e8c7c498040f3103539]
link actor1928117427 to UC162--><path d="M70.15,1352.86 C98.9,1343.5 141.69,1329.57 172.56,1319.52 " fill="none" id="actor1928117427-UC162" style="stroke: #A80036; stroke-width: 1.0;"/><!--MD5=[75c5d5fb57fca7d03e9307d0d2268397]
link actor1928117427 to UC163--><path d="M70.15,1373.14 C98.9,1382.5 141.69,1396.43 172.56,1406.48 " fill="none" id="actor1928117427-UC163" style="stroke: #A80036; stroke-width: 1.0;"/><!--MD5=[55cf07a9054fb407ea2154c9c3d6ea9d]
link actor1928117427 to UC164--><path d="M62.53,1405.25 C73.77,1422.14 88.59,1440.52 106,1453 C129.67,1469.97 162.25,1478.77 184.81,1483.13 " fill="none" id="actor1928117427-UC164" style="stroke: #A80036; stroke-width: 1.0;"/><!--MD5=[539d5e3d1c68f42a5565cb4b16060e0b]
link actor1928117427 to UC165--><path d="M46.74,1405.25 C55.36,1440.78 72.71,1490.52 106,1521 C121.9,1535.56 144.1,1543.89 164,1548.65 " fill="none" id="actor1928117427-UC165" style="stroke: #A80036; stroke-width: 1.0;"/><!--MD5=[6fa53950dd0d6ed121758e114ec1ea05]
link actor1928117427 to UC166--><path d="M43.57,1405.41 C50.47,1453.39 67.14,1532.12 106,1588 C125.67,1616.28 158.66,1638.69 182.42,1652.31 " fill="none" id="actor1928117427-UC166" style="stroke: #A80036; stroke-width: 1.0;"/><!--MD5=[1937aacb739cd29dc85ef01fead8d13e]
link actor1928117427 to UC167--><path d="M42.1,1405.24 C48.85,1485.89 67.45,1657.63 106,1701 C125.86,1723.34 160.51,1731.08 184.54,1733.72 " fill="none" id="actor1928117427-UC167" style="stroke: #A80036; stroke-width: 1.0;"/><!--MD5=[ea6e5e6135b51313e0d929f34673b65c]
link actor1928117427 to UC168--><path d="M40.53,1405.01 C44.72,1497.51 59.4,1714.85 106,1769 C124.37,1790.35 156.27,1798.39 180.1,1801.37 " fill="none" id="actor1928117427-UC168" style="stroke: #A80036; stroke-width: 1.0;"/><!--MD5=[4d215d18a1f1b651e3bf61e3883b59bd]
link actor1928117427 to UC169--><path d="M39.41,1405.31 C41.27,1509 51.38,1772.03 106,1837 C119.81,1853.43 141.63,1861.99 161.82,1866.42 " fill="none" id="actor1928117427-UC169" style="stroke: #A80036; stroke-width: 1.0;"/><!--MD5=[1d3409dd4fb4e62b511f9b3c287dbc4b]
link actor1928117427 to UC170--><path d="M40.02,1405.15 C43.38,1517.1 56.89,1819.11 106,1904 C123.14,1933.62 156.24,1955.65 180.72,1968.82 " fill="none" id="actor1928117427-UC170" style="stroke: #A80036; stroke-width: 1.0;"/><!--MD5=[d2fcaafa0c76d7e7c2fb7cb5562733ef]
link actor1928117427 to UC171--><path d="M40.68,1405.24 C46.49,1542.42 67.52,1969.4 106,2017 C119.49,2033.69 141.28,2042.28 161.51,2046.67 " fill="none" id="actor1928117427-UC171" style="stroke: #A80036; stroke-width: 1.0;"/><!--MD5=[c8bb0fe356c988978b6c9a387735571e]
link actor1928117427 to UC172--><path d="M40.24,1405.21 C44.92,1551.65 63.39,2031.78 106,2085 C121.87,2104.82 149.44,2113.23 172.35,2116.73 " fill="none" id="actor1928117427-UC172" style="stroke: #A80036; stroke-width: 1.0;"/><!--MD5=[0d9adc2581150dbac7d074df85552acf]
link actor1928117427 to UC173--><path d="M39.88,1405.1 C43.49,1560.24 59.24,2094.12 106,2153 C121.97,2173.11 149.99,2181.48 173.07,2184.89 " fill="none" id="actor1928117427-UC173" style="stroke: #A80036; stroke-width: 1.0;"/><!--MD5=[60c3ca1b5b3a9cad7b77bc16f64778b1]
link actor1928117427 to UC174--><path d="M39.58,1405.02 C42.19,1568.53 55.08,2156.44 106,2221 C121.31,2240.41 147.85,2248.89 170.42,2252.53 " fill="none" id="actor1928117427-UC174" style="stroke: #A80036; stroke-width: 1.0;"/><!--MD5=[3ae6274a595f7a0aa7c51ff65cf264d9]
link actor1928117427 to UC175--><path d="M40.01,1405.18 C44.38,1575.85 63.38,2209.8 106,2288 C122.27,2317.85 155.17,2339.71 179.83,2352.78 " fill="none" id="actor1928117427-UC175" style="stroke: #A80036; stroke-width: 1.0;"/><!--MD5=[21b7b98e7a500f1f901df1862e7ff69a]
link actor1928117427 to UC176--><path d="M38.97,1405.09 C39.2,1589.6 44.05,2321.35 106,2401 C121.18,2420.51 147.72,2428.99 170.32,2432.6 " fill="none" id="actor1928117427-UC176" style="stroke: #A80036; stroke-width: 1.0;"/><!--MD5=[99d3c8dfad24463352a9c699c0729bd1]
link actor1928117427 to UC177--><path d="M38.79,1405.24 C38.2,1597.43 39.88,2383.65 106,2469 C119.2,2486.04 141.08,2494.67 161.45,2498.99 " fill="none" id="actor1928117427-UC177" style="stroke: #A80036; stroke-width: 1.0;"/><!--MD5=[84a45cb9592e1e5b5df28aecd436e645]
link actor1928117427 to UC178--><path d="M38.63,1405.14 C37.26,1604.37 35.68,2445.89 106,2537 C123.33,2559.45 155.71,2567.31 179.96,2569.94 " fill="none" id="actor1928117427-UC178" style="stroke: #A80036; stroke-width: 1.0;"/><!--MD5=[f6c90b39b53e1c0e863bf1cf9934233c]
@startuml
 left to right direction

actor CallGraph as actor1928117427

	rectangle main{
	 usecase Runtime as UC147
	actor1928117427- -UC147
	 usecase Process as UC148
	actor1928117427- -UC148
	 usecase PrintStream as UC149
	actor1928117427- -UC149
	}
	rectangle main{
	 usecase PrintStream as UC150
	actor1928117427- -UC150
	 usecase Process as UC151
	actor1928117427- -UC151
	 usecase Runtime as UC152
	actor1928117427- -UC152
	}
	rectangle makeMemberScript{
	 usecase StringBuilder as UC153
	actor1928117427- -UC153
	}
	rectangle MemberDef{
	 usecase StringBuilder as UC154
	actor1928117427- -UC154
	 usecase Data_base as UC155
	actor1928117427- -UC155
	 usecase Member as UC156
	actor1928117427- -UC156
	 usecase Object as UC157
	actor1928117427- -UC157
	}
	rectangle makeFile{
	 usecase Writer as UC158
	actor1928117427- -UC158
	 usecase OutputStreamWriter as UC159
	actor1928117427- -UC159
	}
	rectangle makeClassScript{
	 usecase StringBuilder as UC160
	actor1928117427- -UC160
	 usecase HashMap as UC161
	actor1928117427- -UC161
	}
	rectangle makeFunctionScript{
	 usecase StringBuilder as UC162
	actor1928117427- -UC162
	}
	rectangle classExtends{
	 usecase StringBuilder as UC163
	actor1928117427- -UC163
	 usecase Class as UC164
	actor1928117427- -UC164
	 usecase Data_base as UC165
	actor1928117427- -UC165
	}
	rectangle classDef{
	 usecase StringBuilder as UC166
	actor1928117427- -UC166
	 usecase Class as UC167
	actor1928117427- -UC167
	 usecase Object as UC168
	actor1928117427- -UC168
	 usecase Data_base as UC169
	actor1928117427- -UC169
	}
	rectangle addList{
	 usecase StringBuilder as UC170
	actor1928117427- -UC170
	 usecase Data_base as UC171
	actor1928117427- -UC171
	 usecase DataList as UC172
	actor1928117427- -UC172
	 usecase Member as UC173
	actor1928117427- -UC173
	 usecase Function as UC174
	actor1928117427- -UC174
	}
	rectangle functionDef{
	 usecase StringBuilder as UC175
	actor1928117427- -UC175
	 usecase Function as UC176
	actor1928117427- -UC176
	 usecase Data_base as UC177
	actor1928117427- -UC177
	 usecase Object as UC178
	actor1928117427- -UC178
	}

@enduml

PlantUML version 1.2020.19(Tue Oct 13 00:10:01 KST 2020)
(APACHE source distribution)
Java Runtime: Java(TM) SE Runtime Environment
JVM: Java HotSpot(TM) 64-Bit Server VM
Default Encoding: MS949
Language: ko
Country: KR
--></g></svg>