<?xml version="1.0" encoding="UTF-8" standalone="no"?><svg xmlns="http://www.w3.org/2000/svg" xmlns:xlink="http://www.w3.org/1999/xlink" contentScriptType="application/ecmascript" contentStyleType="text/css" height="1104px" preserveAspectRatio="none" style="width:322px;height:1104px;" version="1.1" viewBox="0 0 322 1104" width="322px" zoomAndPan="magnify"><defs><filter height="300%" id="f150yt6dbwpje3" width="300%" x="-1" y="-1"><feGaussianBlur result="blurOut" stdDeviation="2.0"/><feColorMatrix in="blurOut" result="blurOut2" type="matrix" values="0 0 0 0 0 0 0 0 0 0 0 0 0 0 0 0 0 0 .4 0"/><feOffset dx="4.0" dy="4.0" in="blurOut2" result="blurOut3"/><feBlend in="SourceGraphic" in2="blurOut3" mode="normal"/></filter></defs><g><!--MD5=[a70b0d373322012744ecc119c63f921b]
cluster main--><rect fill="#FFFFFF" filter="url(#f150yt6dbwpje3)" height="224" style="stroke: #000000; stroke-width: 1.5;" width="143" x="140.5" y="7"/><text fill="#000000" font-family="sans-serif" font-size="14" font-weight="bold" lengthAdjust="spacingAndGlyphs" textLength="33" x="195.5" y="25.1533">main</text><!--MD5=[34cb1141ed5c8afa1d4c2c83d67642d3]
cluster makeString--><rect fill="#FFFFFF" filter="url(#f150yt6dbwpje3)" height="88" style="stroke: #000000; stroke-width: 1.5;" width="153" x="135.5" y="255"/><text fill="#000000" font-family="sans-serif" font-size="14" font-weight="bold" lengthAdjust="spacingAndGlyphs" textLength="79" x="172.5" y="273.1533">makeString</text><!--MD5=[169ded1774b4ebedaf5b3d453063cde8]
cluster getCallerFunList--><rect fill="#FFFFFF" filter="url(#f150yt6dbwpje3)" height="224" style="stroke: #000000; stroke-width: 1.5;" width="136" x="144" y="367"/><text fill="#000000" font-family="sans-serif" font-size="14" font-weight="bold" lengthAdjust="spacingAndGlyphs" textLength="116" x="154" y="385.1533">getCallerFunList</text><!--MD5=[c6bdd26f9d0c779513684dd3959e914f]
cluster drawConnect--><rect fill="#FFFFFF" filter="url(#f150yt6dbwpje3)" height="292" style="stroke: #000000; stroke-width: 1.5;" width="153" x="135.5" y="615"/><text fill="#000000" font-family="sans-serif" font-size="14" font-weight="bold" lengthAdjust="spacingAndGlyphs" textLength="93" x="165.5" y="633.1533">drawConnect</text><!--MD5=[1e829f21a74d4de467c1b519aceec237]
cluster makeFile--><rect fill="#FFFFFF" filter="url(#f150yt6dbwpje3)" height="161" style="stroke: #000000; stroke-width: 1.5;" width="196" x="114" y="931"/><text fill="#000000" font-family="sans-serif" font-size="14" font-weight="bold" lengthAdjust="spacingAndGlyphs" textLength="63" x="180.5" y="949.1533">makeFile</text><ellipse cx="212.0624" cy="62.0973" fill="#FEFECE" filter="url(#f150yt6dbwpje3)" rx="39.0624" ry="16.5973" style="stroke: #A80036; stroke-width: 1.5;"/><text fill="#000000" font-family="sans-serif" font-size="14" lengthAdjust="spacingAndGlyphs" textLength="51" x="186.5624" y="68.2121">Process</text><ellipse cx="211.8259" cy="130.0973" fill="#FEFECE" filter="url(#f150yt6dbwpje3)" rx="55.3259" ry="16.5973" style="stroke: #A80036; stroke-width: 1.5;"/><text fill="#000000" font-family="sans-serif" font-size="14" lengthAdjust="spacingAndGlyphs" textLength="74" x="174.8259" y="136.2121">PrintStream</text><ellipse cx="211.7696" cy="198.0973" fill="#FEFECE" filter="url(#f150yt6dbwpje3)" rx="39.7696" ry="16.5973" style="stroke: #A80036; stroke-width: 1.5;"/><text fill="#000000" font-family="sans-serif" font-size="14" lengthAdjust="spacingAndGlyphs" textLength="52" x="185.7696" y="204.2121">DataList</text><ellipse cx="211.7756" cy="310.0973" fill="#FEFECE" filter="url(#f150yt6dbwpje3)" rx="60.2756" ry="16.5973" style="stroke: #A80036; stroke-width: 1.5;"/><text fill="#000000" font-family="sans-serif" font-size="14" lengthAdjust="spacingAndGlyphs" textLength="81" x="171.2756" y="316.2121">StringBuilder</text><ellipse cx="212.098" cy="422.0973" fill="#FEFECE" filter="url(#f150yt6dbwpje3)" rx="42.598" ry="16.5973" style="stroke: #A80036; stroke-width: 1.5;"/><text fill="#000000" font-family="sans-serif" font-size="14" lengthAdjust="spacingAndGlyphs" textLength="56" x="184.098" y="428.2121">ArrayList</text><ellipse cx="211.7696" cy="490.0973" fill="#FEFECE" filter="url(#f150yt6dbwpje3)" rx="39.7696" ry="16.5973" style="stroke: #A80036; stroke-width: 1.5;"/><text fill="#000000" font-family="sans-serif" font-size="14" lengthAdjust="spacingAndGlyphs" textLength="52" x="185.7696" y="496.2121">DataList</text><ellipse cx="211.7904" cy="558.0973" fill="#FEFECE" filter="url(#f150yt6dbwpje3)" rx="51.7904" ry="16.5973" style="stroke: #A80036; stroke-width: 1.5;"/><text fill="#000000" font-family="sans-serif" font-size="14" lengthAdjust="spacingAndGlyphs" textLength="69" x="177.2904" y="564.2121">Data_base</text><ellipse cx="211.7756" cy="670.0973" fill="#FEFECE" filter="url(#f150yt6dbwpje3)" rx="60.2756" ry="16.5973" style="stroke: #A80036; stroke-width: 1.5;"/><text fill="#000000" font-family="sans-serif" font-size="14" lengthAdjust="spacingAndGlyphs" textLength="81" x="171.2756" y="676.2121">StringBuilder</text><ellipse cx="211.9914" cy="738.0973" fill="#FEFECE" filter="url(#f150yt6dbwpje3)" rx="31.9914" ry="16.5973" style="stroke: #A80036; stroke-width: 1.5;"/><text fill="#000000" font-family="sans-serif" font-size="14" lengthAdjust="spacingAndGlyphs" textLength="41" x="191.4914" y="744.2121">Vector</text><ellipse cx="211.7696" cy="806.0973" fill="#FEFECE" filter="url(#f150yt6dbwpje3)" rx="39.7696" ry="16.5973" style="stroke: #A80036; stroke-width: 1.5;"/><text fill="#000000" font-family="sans-serif" font-size="14" lengthAdjust="spacingAndGlyphs" textLength="52" x="185.7696" y="812.2121">DataList</text><ellipse cx="211.7904" cy="874.0973" fill="#FEFECE" filter="url(#f150yt6dbwpje3)" rx="51.7904" ry="16.5973" style="stroke: #A80036; stroke-width: 1.5;"/><text fill="#000000" font-family="sans-serif" font-size="14" lengthAdjust="spacingAndGlyphs" textLength="69" x="177.2904" y="880.2121">Data_base</text><ellipse cx="211.8701" cy="986.0973" fill="#FEFECE" filter="url(#f150yt6dbwpje3)" rx="29.8701" ry="16.5973" style="stroke: #A80036; stroke-width: 1.5;"/><text fill="#000000" font-family="sans-serif" font-size="14" lengthAdjust="spacingAndGlyphs" textLength="38" x="192.8701" y="992.2121">Writer</text><ellipse cx="212.247" cy="1056.8494" fill="#FEFECE" filter="url(#f150yt6dbwpje3)" rx="82.247" ry="18.8494" style="stroke: #A80036; stroke-width: 1.5;"/><text fill="#000000" font-family="sans-serif" font-size="14" lengthAdjust="spacingAndGlyphs" textLength="126" x="149.247" y="1062.9641">OutputStreamWriter</text><!--MD5=[3b9a75c8d3572c5083ea72ba9e1d88da]
entity actor1861416877--><ellipse cx="38" cy="525.5" fill="#FEFECE" filter="url(#f150yt6dbwpje3)" rx="8" ry="8" style="stroke: #A80036; stroke-width: 1.5;"/><path d="M38,533.5 L38,560.5 M25,541.5 L51,541.5 M38,560.5 L25,575.5 M38,560.5 L51,575.5 " fill="none" filter="url(#f150yt6dbwpje3)" style="stroke: #A80036; stroke-width: 1.5;"/><text fill="#000000" font-family="sans-serif" font-size="14" lengthAdjust="spacingAndGlyphs" textLength="64" x="6" y="597.1533">Sequence</text><!--MD5=[80b28785f711364650ae8ce515cc6d96]
link actor1861416877 to UC179--><path d="M39.59,515.63 C41.85,413.79 52.82,159.03 106,96 C122.5,76.45 150.34,68.04 173.21,64.47 " fill="none" id="actor1861416877-UC179" style="stroke: #A80036; stroke-width: 1.0;"/><!--MD5=[55867147badc216f7e2388ea5257422b]
link actor1861416877 to UC180--><path d="M40.77,515.87 C45.4,425.33 60.84,216.22 106,164 C119.41,148.49 139.95,140.01 159.33,135.39 " fill="none" id="actor1861416877-UC180" style="stroke: #A80036; stroke-width: 1.0;"/><!--MD5=[4d00668be178c66758cf84ec6e05f1f7]
link actor1861416877 to UC181--><path d="M40.28,515.94 C43.87,457.76 57.22,351.47 106,277 C125.75,246.85 161.12,223.82 185.3,210.61 " fill="none" id="actor1861416877-UC181" style="stroke: #A80036; stroke-width: 1.0;"/><!--MD5=[203cf1307c3f71a464a12c76772bc2f1]
link actor1861416877 to UC182--><path d="M48.78,515.87 C58.74,479.57 76.91,427.14 106,389 C127.03,361.43 160.1,338.75 183.5,324.87 " fill="none" id="actor1861416877-UC182" style="stroke: #A80036; stroke-width: 1.0;"/><!--MD5=[a3932c755e746abdb8ec6adeb7a9f335]
link actor1861416877 to UC183--><path d="M58.24,515.79 C69.53,495.18 85.61,471.54 106,456 C125.28,441.3 151.14,432.83 172.37,428.02 " fill="none" id="actor1861416877-UC183" style="stroke: #A80036; stroke-width: 1.0;"/><!--MD5=[e5780ea91fe4e064fdf67487872dfdd0]
link actor1861416877 to UC184--><path d="M70.22,540.88 C81.34,535.13 94.06,528.93 106,524 C129.73,514.21 157.39,505.35 178.36,499.13 " fill="none" id="actor1861416877-UC184" style="stroke: #A80036; stroke-width: 1.0;"/><!--MD5=[2e2d52adf97ad71862ba19bb455df972]
link actor1861416877 to UC185--><path d="M70.15,558 C95.12,558 130.69,558 159.84,558 " fill="none" id="actor1861416877-UC185" style="stroke: #A80036; stroke-width: 1.0;"/><!--MD5=[2d9f73a2ec6579ac228dbef49ab7c96c]
link actor1861416877 to UC186--><path d="M70.15,578.28 C103.93,600.28 157.1,634.91 187.54,654.72 " fill="none" id="actor1861416877-UC186" style="stroke: #A80036; stroke-width: 1.0;"/><!--MD5=[378bc8151a9b8b9afbc804d45865fe25]
link actor1861416877 to UC187--><path d="M48.43,600.05 C57.82,632.66 75.36,676.76 106,704 C126.76,722.46 157.69,730.92 180.61,734.78 " fill="none" id="actor1861416877-UC187" style="stroke: #A80036; stroke-width: 1.0;"/><!--MD5=[9beed42a86891eb1d6d4b1366148a6b4]
link actor1861416877 to UC188--><path d="M40.99,600 C45.51,647.89 59.98,725.53 106,772 C123.66,789.84 150.74,798.32 172.98,802.35 " fill="none" id="actor1861416877-UC188" style="stroke: #A80036; stroke-width: 1.0;"/><!--MD5=[01bfa6373df85468910e9b4383f2ea8f]
link actor1861416877 to UC189--><path d="M43.91,600.04 C52.88,669.81 73.96,805.29 106,840 C120.56,855.77 142.47,864.25 162.52,868.8 " fill="none" id="actor1861416877-UC189" style="stroke: #A80036; stroke-width: 1.0;"/><!--MD5=[cdf6f2824f0751957731543099c71870]
link actor1861416877 to UC190--><path d="M43.28,600.25 C52.12,681.53 74.29,856.16 106,907 C126.04,939.13 164.24,962.81 188.62,975.49 " fill="none" id="actor1861416877-UC190" style="stroke: #A80036; stroke-width: 1.0;"/><!--MD5=[aa0f188794cf1a221c7722cf52db1fe9]
link actor1861416877 to UC191--><path d="M39.69,600.28 C42.18,701.93 53.63,956.29 106,1020 C116.06,1032.24 130.45,1040.44 145.37,1045.93 " fill="none" id="actor1861416877-UC191" style="stroke: #A80036; stroke-width: 1.0;"/><!--MD5=[ce690606c448108dc8c505bcdbd7663c]
@startuml
 left to right direction

actor Sequence as actor1861416877

	rectangle main{
	 usecase Process as UC179
	actor1861416877- -UC179
	 usecase PrintStream as UC180
	actor1861416877- -UC180
	 usecase DataList as UC181
	actor1861416877- -UC181
	}
	rectangle makeString{
	 usecase StringBuilder as UC182
	actor1861416877- -UC182
	}
	rectangle getCallerFunList{
	 usecase ArrayList as UC183
	actor1861416877- -UC183
	 usecase DataList as UC184
	actor1861416877- -UC184
	 usecase Data_base as UC185
	actor1861416877- -UC185
	}
	rectangle drawConnect{
	 usecase StringBuilder as UC186
	actor1861416877- -UC186
	 usecase Vector as UC187
	actor1861416877- -UC187
	 usecase DataList as UC188
	actor1861416877- -UC188
	 usecase Data_base as UC189
	actor1861416877- -UC189
	}
	rectangle makeFile{
	 usecase Writer as UC190
	actor1861416877- -UC190
	 usecase OutputStreamWriter as UC191
	actor1861416877- -UC191
	}

@enduml

PlantUML version 1.2020.19(Tue Oct 13 00:10:01 KST 2020)
(APACHE source distribution)
Java Runtime: Java(TM) SE Runtime Environment
JVM: Java HotSpot(TM) 64-Bit Server VM
Default Encoding: MS949
Language: ko
Country: KR
--></g></svg>