<?xml version="1.0" encoding="UTF-8" standalone="no"?><svg xmlns="http://www.w3.org/2000/svg" xmlns:xlink="http://www.w3.org/1999/xlink" contentScriptType="application/ecmascript" contentStyleType="text/css" height="500px" preserveAspectRatio="none" style="width:337px;height:500px;" version="1.1" viewBox="0 0 337 500" width="337px" zoomAndPan="magnify"><defs><filter height="300%" id="f165u6o8azb7js" width="300%" x="-1" y="-1"><feGaussianBlur result="blurOut" stdDeviation="2.0"/><feColorMatrix in="blurOut" result="blurOut2" type="matrix" values="0 0 0 0 0 0 0 0 0 0 0 0 0 0 0 0 0 0 .4 0"/><feOffset dx="4.0" dy="4.0" in="blurOut2" result="blurOut3"/><feBlend in="SourceGraphic" in2="blurOut3" mode="normal"/></filter></defs><g><!--MD5=[f6064968006b102cb1b3092be2f53bd9]
class cl1--><rect codeLine="1" fill="#FEFECE" filter="url(#f165u6o8azb7js)" height="479.0488" id="cl1" style="stroke: #A80036; stroke-width: 1.5;" width="316" x="7" y="7"/><ellipse cx="96.75" cy="23" fill="#ADD1B2" rx="11" ry="11" style="stroke: #A80036; stroke-width: 1.0;"/><path d="M96.5781,16.4844 Q94.7031,16.4844 93.5469,18.2344 Q92.3594,20.0156 92.3594,23.0156 Q92.3594,26.3906 93.5625,28.1563 Q94.625,29.7813 96.375,29.7813 Q98.0625,29.7813 99.0156,28.875 Q100.0781,27.8594 100.2188,25.625 Q100.2188,25.2031 99.9844,24.9688 Q99.7969,24.7344 99.4531,24.7031 Q99.125,24.7031 98.8906,24.8906 Q98.625,25.125 98.625,25.5156 Q98.5938,26.9063 98,27.6406 Q97.4688,28.3438 96.5156,28.3438 Q95.3594,28.3438 94.6406,26.9063 Q93.9219,25.4063 93.9219,22.9844 Q93.9219,20.4375 94.8125,19.0469 Q95.5625,17.9219 96.7031,17.9219 Q97.3594,17.9219 97.8594,18.4688 Q98.4219,19.0781 98.5469,20.1406 Q98.5938,20.8438 99.4219,20.7344 Q100.2031,20.625 100.1563,19.9375 Q99.9688,18.4219 99.2031,17.5469 Q98.2656,16.4844 96.5781,16.4844 Z "/><text fill="#000000" font-family="sans-serif" font-size="12" lengthAdjust="spacingAndGlyphs" textLength="128" x="117.25" y="28.6045">shopTest.TestScenario</text><line style="stroke: #A80036; stroke-width: 1.5;" x1="8" x2="322" y1="39" y2="39"/><line style="stroke: #A80036; stroke-width: 1.5;" x1="8" x2="145" y1="54.5544" y2="54.5544"/><text fill="#008000" font-family="sans-serif" font-size="11" font-weight="bold" lengthAdjust="spacingAndGlyphs" textLength="40" x="145" y="59.1919">has list</text><line style="stroke: #A80036; stroke-width: 1.5;" x1="185" x2="322" y1="54.5544" y2="54.5544"/><line style="stroke: #A80036; stroke-width: 1.0; stroke-dasharray: 1.0,2.0;" x1="8" x2="152" y1="77.2178" y2="77.2178"/><text fill="#000000" font-family="sans-serif" font-size="11" lengthAdjust="spacingAndGlyphs" textLength="26" x="152" y="81.8552">class</text><line style="stroke: #A80036; stroke-width: 1.0; stroke-dasharray: 1.0,2.0;" x1="178" x2="322" y1="77.2178" y2="77.2178"/><text fill="#000000" font-family="sans-serif" font-size="11" lengthAdjust="spacingAndGlyphs" textLength="120" x="13" y="120.1274">Shop shop (455785638);</text><line style="stroke: #A80036; stroke-width: 1.0; stroke-dasharray: 1.0,2.0;" x1="8" x2="146" y1="99.8811" y2="99.8811"/><text fill="#000000" font-family="sans-serif" font-size="11" lengthAdjust="spacingAndGlyphs" textLength="38" x="146" y="104.5186">member</text><line style="stroke: #A80036; stroke-width: 1.0; stroke-dasharray: 1.0,2.0;" x1="184" x2="322" y1="99.8811" y2="99.8811"/><text fill="#000000" font-family="sans-serif" font-size="11" lengthAdjust="spacingAndGlyphs" textLength="125" x="13" y="154.3452">void Login() (741730375);</text><text fill="#000000" font-family="sans-serif" font-size="11" lengthAdjust="spacingAndGlyphs" textLength="167" x="13" y="169.4541">void Buy_Product() (2077528955);</text><text fill="#000000" font-family="sans-serif" font-size="11" lengthAdjust="spacingAndGlyphs" textLength="166" x="13" y="184.563">void Charge_Money() (35534346);</text><text fill="#000000" font-family="sans-serif" font-size="11" lengthAdjust="spacingAndGlyphs" textLength="168" x="13" y="199.6719">void Add_Product() (1537471098);</text><text fill="#000000" font-family="sans-serif" font-size="11" lengthAdjust="spacingAndGlyphs" textLength="162" x="13" y="214.7808">void Registration() (1490509465);</text><line style="stroke: #A80036; stroke-width: 1.0; stroke-dasharray: 1.0,2.0;" x1="8" x2="147.5" y1="134.0989" y2="134.0989"/><text fill="#000000" font-family="sans-serif" font-size="11" lengthAdjust="spacingAndGlyphs" textLength="35" x="147.5" y="138.7363">method</text><line style="stroke: #A80036; stroke-width: 1.0; stroke-dasharray: 1.0,2.0;" x1="182.5" x2="322" y1="134.0989" y2="134.0989"/><line style="stroke: #A80036; stroke-width: 1.5;" x1="8" x2="137.5" y1="228.7522" y2="228.7522"/><text fill="#0000FF" font-family="sans-serif" font-size="11" font-weight="bold" lengthAdjust="spacingAndGlyphs" textLength="55" x="137.5" y="233.3896">calling list</text><line style="stroke: #A80036; stroke-width: 1.5;" x1="192.5" x2="322" y1="228.7522" y2="228.7522"/><text fill="#000000" font-family="sans-serif" font-size="11" lengthAdjust="spacingAndGlyphs" textLength="93" x="13" y="271.6619">Shop (236304360);</text><line style="stroke: #A80036; stroke-width: 1.0; stroke-dasharray: 1.0,2.0;" x1="8" x2="152" y1="251.4155" y2="251.4155"/><text fill="#000000" font-family="sans-serif" font-size="11" lengthAdjust="spacingAndGlyphs" textLength="26" x="152" y="256.053">class</text><line style="stroke: #A80036; stroke-width: 1.0; stroke-dasharray: 1.0,2.0;" x1="178" x2="322" y1="251.4155" y2="251.4155"/><line style="stroke: #A80036; stroke-width: 1.0; stroke-dasharray: 1.0,2.0;" x1="8" x2="146" y1="285.6333" y2="285.6333"/><text fill="#000000" font-family="sans-serif" font-size="11" lengthAdjust="spacingAndGlyphs" textLength="38" x="146" y="290.2708">member</text><line style="stroke: #A80036; stroke-width: 1.0; stroke-dasharray: 1.0,2.0;" x1="184" x2="322" y1="285.6333" y2="285.6333"/><text fill="#000000" font-family="sans-serif" font-size="11" lengthAdjust="spacingAndGlyphs" textLength="284" x="13" y="328.543">User login(java.lang.String, java.lang.String) (1483298597);</text><text fill="#000000" font-family="sans-serif" font-size="11" lengthAdjust="spacingAndGlyphs" textLength="250" x="13" y="343.6519">boolean buy(shop.User, shop.Goods) (257608605);</text><text fill="#000000" font-family="sans-serif" font-size="11" lengthAdjust="spacingAndGlyphs" textLength="224" x="13" y="358.7607">boolean charge(shop.User, int) (1337192014);</text><text fill="#000000" font-family="sans-serif" font-size="11" lengthAdjust="spacingAndGlyphs" textLength="294" x="13" y="373.8696">void addGoods(shop.Goods, java.lang.String) (1567705314);</text><text fill="#000000" font-family="sans-serif" font-size="11" lengthAdjust="spacingAndGlyphs" textLength="304" x="13" y="388.9785">boolean regist(java.lang.String, java.lang.String) (1636050357);</text><line style="stroke: #A80036; stroke-width: 1.0; stroke-dasharray: 1.0,2.0;" x1="8" x2="147.5" y1="308.2966" y2="308.2966"/><text fill="#000000" font-family="sans-serif" font-size="11" lengthAdjust="spacingAndGlyphs" textLength="35" x="147.5" y="312.9341">method</text><line style="stroke: #A80036; stroke-width: 1.0; stroke-dasharray: 1.0,2.0;" x1="182.5" x2="322" y1="308.2966" y2="308.2966"/><line style="stroke: #A80036; stroke-width: 1.5;" x1="8" x2="131" y1="402.95" y2="402.95"/><text fill="#FFA500" font-family="sans-serif" font-size="11" font-weight="bold" lengthAdjust="spacingAndGlyphs" textLength="68" x="131" y="407.5874">called by list</text><line style="stroke: #A80036; stroke-width: 1.5;" x1="199" x2="322" y1="402.95" y2="402.95"/><line style="stroke: #A80036; stroke-width: 1.0; stroke-dasharray: 1.0,2.0;" x1="8" x2="152" y1="425.6133" y2="425.6133"/><text fill="#000000" font-family="sans-serif" font-size="11" lengthAdjust="spacingAndGlyphs" textLength="26" x="152" y="430.2507">class</text><line style="stroke: #A80036; stroke-width: 1.0; stroke-dasharray: 1.0,2.0;" x1="178" x2="322" y1="425.6133" y2="425.6133"/><line style="stroke: #A80036; stroke-width: 1.0; stroke-dasharray: 1.0,2.0;" x1="8" x2="146" y1="448.2766" y2="448.2766"/><text fill="#000000" font-family="sans-serif" font-size="11" lengthAdjust="spacingAndGlyphs" textLength="38" x="146" y="452.9141">member</text><line style="stroke: #A80036; stroke-width: 1.0; stroke-dasharray: 1.0,2.0;" x1="184" x2="322" y1="448.2766" y2="448.2766"/><line style="stroke: #A80036; stroke-width: 1.0; stroke-dasharray: 1.0,2.0;" x1="8" x2="147.5" y1="470.9399" y2="470.9399"/><text fill="#000000" font-family="sans-serif" font-size="11" lengthAdjust="spacingAndGlyphs" textLength="35" x="147.5" y="475.5774">method</text><line style="stroke: #A80036; stroke-width: 1.0; stroke-dasharray: 1.0,2.0;" x1="182.5" x2="322" y1="470.9399" y2="470.9399"/><!--MD5=[0b88501f2b49fe0dcb2396f2eefe7d4b]
@startuml
class "shopTest.TestScenario" as cl1{
__**<color:green>has list</color>**__
..class..
..member..
	Shop shop (455785638);
..method..
	void Login() (741730375);
	void Buy_Product() (2077528955);
	void Charge_Money() (35534346);
	void Add_Product() (1537471098);
	void Registration() (1490509465);
__**<color:blue>calling list</color>**__
..class..
	Shop (236304360);
..member..
..method..
	User login(java.lang.String, java.lang.String) (1483298597);
	boolean buy(shop.User, shop.Goods) (257608605);
	boolean charge(shop.User, int) (1337192014);
	void addGoods(shop.Goods, java.lang.String) (1567705314);
	boolean regist(java.lang.String, java.lang.String) (1636050357);
__**<color:orange>called by list</color>**__
..class..
..member..
..method..
}

@enduml

PlantUML version 1.2020.19(Tue Oct 13 00:10:01 KST 2020)
(APACHE source distribution)
Java Runtime: Java(TM) SE Runtime Environment
JVM: Java HotSpot(TM) 64-Bit Server VM
Default Encoding: MS949
Language: ko
Country: KR
--></g></svg>