<?xml version="1.0" encoding="UTF-8" standalone="no"?><svg xmlns="http://www.w3.org/2000/svg" xmlns:xlink="http://www.w3.org/1999/xlink" contentScriptType="application/ecmascript" contentStyleType="text/css" height="511px" preserveAspectRatio="none" style="width:254px;height:511px;" version="1.1" viewBox="0 0 254 511" width="254px" zoomAndPan="magnify"><defs><filter height="300%" id="f1b2q2c4pn6j56" width="300%" x="-1" y="-1"><feGaussianBlur result="blurOut" stdDeviation="2.0"/><feColorMatrix in="blurOut" result="blurOut2" type="matrix" values="0 0 0 0 0 0 0 0 0 0 0 0 0 0 0 0 0 0 .4 0"/><feOffset dx="4.0" dy="4.0" in="blurOut2" result="blurOut3"/><feBlend in="SourceGraphic" in2="blurOut3" mode="normal"/></filter></defs><g><!--MD5=[f6064968006b102cb1b3092be2f53bd9]
class cl1--><rect codeLine="1" fill="#FEFECE" filter="url(#f1b2q2c4pn6j56)" height="490.6033" id="cl1" style="stroke: #A80036; stroke-width: 1.5;" width="233" x="7" y="7"/><ellipse cx="85.25" cy="23" fill="#ADD1B2" rx="11" ry="11" style="stroke: #A80036; stroke-width: 1.0;"/><path d="M85.0781,16.4844 Q83.2031,16.4844 82.0469,18.2344 Q80.8594,20.0156 80.8594,23.0156 Q80.8594,26.3906 82.0625,28.1563 Q83.125,29.7813 84.875,29.7813 Q86.5625,29.7813 87.5156,28.875 Q88.5781,27.8594 88.7188,25.625 Q88.7188,25.2031 88.4844,24.9688 Q88.2969,24.7344 87.9531,24.7031 Q87.625,24.7031 87.3906,24.8906 Q87.125,25.125 87.125,25.5156 Q87.0938,26.9063 86.5,27.6406 Q85.9688,28.3438 85.0156,28.3438 Q83.8594,28.3438 83.1406,26.9063 Q82.4219,25.4063 82.4219,22.9844 Q82.4219,20.4375 83.3125,19.0469 Q84.0625,17.9219 85.2031,17.9219 Q85.8594,17.9219 86.3594,18.4688 Q86.9219,19.0781 87.0469,20.1406 Q87.0938,20.8438 87.9219,20.7344 Q88.7031,20.625 88.6563,19.9375 Q88.4688,18.4219 87.7031,17.5469 Q86.7656,16.4844 85.0781,16.4844 Z "/><text fill="#000000" font-family="sans-serif" font-size="12" lengthAdjust="spacingAndGlyphs" textLength="68" x="105.75" y="28.6045">shop.Goods</text><line style="stroke: #A80036; stroke-width: 1.5;" x1="8" x2="239" y1="39" y2="39"/><line style="stroke: #A80036; stroke-width: 1.5;" x1="8" x2="103.5" y1="54.5544" y2="54.5544"/><text fill="#008000" font-family="sans-serif" font-size="11" font-weight="bold" lengthAdjust="spacingAndGlyphs" textLength="40" x="103.5" y="59.1919">has list</text><line style="stroke: #A80036; stroke-width: 1.5;" x1="143.5" x2="239" y1="54.5544" y2="54.5544"/><line style="stroke: #A80036; stroke-width: 1.0; stroke-dasharray: 1.0,2.0;" x1="8" x2="110.5" y1="77.2178" y2="77.2178"/><text fill="#000000" font-family="sans-serif" font-size="11" lengthAdjust="spacingAndGlyphs" textLength="26" x="110.5" y="81.8552">class</text><line style="stroke: #A80036; stroke-width: 1.0; stroke-dasharray: 1.0,2.0;" x1="136.5" x2="239" y1="77.2178" y2="77.2178"/><text fill="#000000" font-family="sans-serif" font-size="11" lengthAdjust="spacingAndGlyphs" textLength="125" x="13" y="120.1274">String name (710190911);</text><text fill="#000000" font-family="sans-serif" font-size="11" lengthAdjust="spacingAndGlyphs" textLength="114" x="13" y="135.2363">int money (379645464);</text><line style="stroke: #A80036; stroke-width: 1.0; stroke-dasharray: 1.0,2.0;" x1="8" x2="104.5" y1="99.8811" y2="99.8811"/><text fill="#000000" font-family="sans-serif" font-size="11" lengthAdjust="spacingAndGlyphs" textLength="38" x="104.5" y="104.5186">member</text><line style="stroke: #A80036; stroke-width: 1.0; stroke-dasharray: 1.0,2.0;" x1="142.5" x2="239" y1="99.8811" y2="99.8811"/><text fill="#000000" font-family="sans-serif" font-size="11" lengthAdjust="spacingAndGlyphs" textLength="155" x="13" y="169.4541">String getName() (1030684756);</text><text fill="#000000" font-family="sans-serif" font-size="11" lengthAdjust="spacingAndGlyphs" textLength="221" x="13" y="184.563">void setName(java.lang.String) (1348453796);</text><text fill="#000000" font-family="sans-serif" font-size="11" lengthAdjust="spacingAndGlyphs" textLength="143" x="13" y="199.6719">int getMoney() (1606286799);</text><text fill="#000000" font-family="sans-serif" font-size="11" lengthAdjust="spacingAndGlyphs" textLength="163" x="13" y="214.7808">void setMoney(int) (1325144078);</text><line style="stroke: #A80036; stroke-width: 1.0; stroke-dasharray: 1.0,2.0;" x1="8" x2="106" y1="149.2078" y2="149.2078"/><text fill="#000000" font-family="sans-serif" font-size="11" lengthAdjust="spacingAndGlyphs" textLength="35" x="106" y="153.8452">method</text><line style="stroke: #A80036; stroke-width: 1.0; stroke-dasharray: 1.0,2.0;" x1="141" x2="239" y1="149.2078" y2="149.2078"/><line style="stroke: #A80036; stroke-width: 1.5;" x1="8" x2="96" y1="228.7522" y2="228.7522"/><text fill="#0000FF" font-family="sans-serif" font-size="11" font-weight="bold" lengthAdjust="spacingAndGlyphs" textLength="55" x="96" y="233.3896">calling list</text><line style="stroke: #A80036; stroke-width: 1.5;" x1="151" x2="239" y1="228.7522" y2="228.7522"/><line style="stroke: #A80036; stroke-width: 1.0; stroke-dasharray: 1.0,2.0;" x1="8" x2="110.5" y1="251.4155" y2="251.4155"/><text fill="#000000" font-family="sans-serif" font-size="11" lengthAdjust="spacingAndGlyphs" textLength="26" x="110.5" y="256.053">class</text><line style="stroke: #A80036; stroke-width: 1.0; stroke-dasharray: 1.0,2.0;" x1="136.5" x2="239" y1="251.4155" y2="251.4155"/><text fill="#000000" font-family="sans-serif" font-size="11" lengthAdjust="spacingAndGlyphs" textLength="125" x="13" y="294.3252">String name (710190911);</text><text fill="#000000" font-family="sans-serif" font-size="11" lengthAdjust="spacingAndGlyphs" textLength="114" x="13" y="309.4341">int money (379645464);</text><line style="stroke: #A80036; stroke-width: 1.0; stroke-dasharray: 1.0,2.0;" x1="8" x2="104.5" y1="274.0789" y2="274.0789"/><text fill="#000000" font-family="sans-serif" font-size="11" lengthAdjust="spacingAndGlyphs" textLength="38" x="104.5" y="278.7163">member</text><line style="stroke: #A80036; stroke-width: 1.0; stroke-dasharray: 1.0,2.0;" x1="142.5" x2="239" y1="274.0789" y2="274.0789"/><line style="stroke: #A80036; stroke-width: 1.0; stroke-dasharray: 1.0,2.0;" x1="8" x2="106" y1="323.4055" y2="323.4055"/><text fill="#000000" font-family="sans-serif" font-size="11" lengthAdjust="spacingAndGlyphs" textLength="35" x="106" y="328.043">method</text><line style="stroke: #A80036; stroke-width: 1.0; stroke-dasharray: 1.0,2.0;" x1="141" x2="239" y1="323.4055" y2="323.4055"/><line style="stroke: #A80036; stroke-width: 1.5;" x1="8" x2="89.5" y1="346.0688" y2="346.0688"/><text fill="#FFA500" font-family="sans-serif" font-size="11" font-weight="bold" lengthAdjust="spacingAndGlyphs" textLength="68" x="89.5" y="350.7063">called by list</text><line style="stroke: #A80036; stroke-width: 1.5;" x1="157.5" x2="239" y1="346.0688" y2="346.0688"/><text fill="#000000" font-family="sans-serif" font-size="11" lengthAdjust="spacingAndGlyphs" textLength="100" x="13" y="388.9785">Goods (198499365);</text><text fill="#000000" font-family="sans-serif" font-size="11" lengthAdjust="spacingAndGlyphs" textLength="91" x="13" y="404.0874">User (621300254);</text><line style="stroke: #A80036; stroke-width: 1.0; stroke-dasharray: 1.0,2.0;" x1="8" x2="110.5" y1="368.7322" y2="368.7322"/><text fill="#000000" font-family="sans-serif" font-size="11" lengthAdjust="spacingAndGlyphs" textLength="26" x="110.5" y="373.3696">class</text><line style="stroke: #A80036; stroke-width: 1.0; stroke-dasharray: 1.0,2.0;" x1="136.5" x2="239" y1="368.7322" y2="368.7322"/><line style="stroke: #A80036; stroke-width: 1.0; stroke-dasharray: 1.0,2.0;" x1="8" x2="104.5" y1="418.0588" y2="418.0588"/><text fill="#000000" font-family="sans-serif" font-size="11" lengthAdjust="spacingAndGlyphs" textLength="38" x="104.5" y="422.6963">member</text><line style="stroke: #A80036; stroke-width: 1.0; stroke-dasharray: 1.0,2.0;" x1="142.5" x2="239" y1="418.0588" y2="418.0588"/><text fill="#000000" font-family="sans-serif" font-size="11" lengthAdjust="spacingAndGlyphs" textLength="221" x="13" y="460.9685">void setName(java.lang.String) (1348453796);</text><text fill="#000000" font-family="sans-serif" font-size="11" lengthAdjust="spacingAndGlyphs" textLength="163" x="13" y="476.0774">void setMoney(int) (1325144078);</text><text fill="#000000" font-family="sans-serif" font-size="11" lengthAdjust="spacingAndGlyphs" textLength="194" x="13" y="491.1863">boolean buy(shop.Goods) (359368949);</text><line style="stroke: #A80036; stroke-width: 1.0; stroke-dasharray: 1.0,2.0;" x1="8" x2="106" y1="440.7222" y2="440.7222"/><text fill="#000000" font-family="sans-serif" font-size="11" lengthAdjust="spacingAndGlyphs" textLength="35" x="106" y="445.3596">method</text><line style="stroke: #A80036; stroke-width: 1.0; stroke-dasharray: 1.0,2.0;" x1="141" x2="239" y1="440.7222" y2="440.7222"/><!--MD5=[5af5ba051e4cd76f9c05d7c871c1e277]
@startuml
class "shop.Goods" as cl1{
__**<color:green>has list</color>**__
..class..
..member..
	String name (710190911);
	int money (379645464);
..method..
	String getName() (1030684756);
	void setName(java.lang.String) (1348453796);
	int getMoney() (1606286799);
	void setMoney(int) (1325144078);
__**<color:blue>calling list</color>**__
..class..
..member..
	String name (710190911);
	int money (379645464);
..method..
__**<color:orange>called by list</color>**__
..class..
	Goods (198499365);
	User (621300254);
..member..
..method..
	void setName(java.lang.String) (1348453796);
	void setMoney(int) (1325144078);
	boolean buy(shop.Goods) (359368949);
}

@enduml

PlantUML version 1.2020.19(Tue Oct 13 00:10:01 KST 2020)
(APACHE source distribution)
Java Runtime: Java(TM) SE Runtime Environment
JVM: Java HotSpot(TM) 64-Bit Server VM
Default Encoding: MS949
Language: ko
Country: KR
--></g></svg>