<?xml version="1.0" encoding="UTF-8" standalone="no"?><svg xmlns="http://www.w3.org/2000/svg" xmlns:xlink="http://www.w3.org/1999/xlink" contentScriptType="application/ecmascript" contentStyleType="text/css" height="438px" preserveAspectRatio="none" style="width:277px;height:438px;" version="1.1" viewBox="0 0 277 438" width="277px" zoomAndPan="magnify"><defs><filter height="300%" id="f1crxf19qnkomm" width="300%" x="-1" y="-1"><feGaussianBlur result="blurOut" stdDeviation="2.0"/><feColorMatrix in="blurOut" result="blurOut2" type="matrix" values="0 0 0 0 0 0 0 0 0 0 0 0 0 0 0 0 0 0 .4 0"/><feOffset dx="4.0" dy="4.0" in="blurOut2" result="blurOut3"/><feBlend in="SourceGraphic" in2="blurOut3" mode="normal"/></filter></defs><g><!--MD5=[26c5909e3beb0655f44a32ec04b7bf98]
cluster target--><polygon fill="#FFFFFF" filter="url(#f1crxf19qnkomm)" points="16,6,64,6,71,31.2295,260,31.2295,260,431,16,431,16,6" style="stroke: #000000; stroke-width: 1.5;"/><line style="stroke: #000000; stroke-width: 1.5;" x1="16" x2="71" y1="31.2295" y2="31.2295"/><text fill="#000000" font-family="sans-serif" font-size="14" font-weight="bold" lengthAdjust="spacingAndGlyphs" textLength="42" x="20" y="24.1533">target</text><!--MD5=[f7bc7704b372ba6058820eea5f3f7965]
class target.IfTree--><rect codeLine="1" fill="#FEFECE" filter="url(#f1crxf19qnkomm)" height="369.7322" id="target.IfTree" style="stroke: #A80036; stroke-width: 1.5;" width="213" x="32" y="45"/><ellipse cx="118.75" cy="61" fill="#ADD1B2" rx="11" ry="11" style="stroke: #A80036; stroke-width: 1.0;"/><path d="M118.3125,54.5156 Q115.5781,54.5156 114.5,56.1406 Q113.3594,57.8594 113.3594,60.7813 Q113.3594,64.0781 114.5156,65.7813 Q115.5,67.2813 118.1094,67.2813 Q119.6875,67.2813 120.5625,66.4531 Q121.5469,65.5 121.6875,63.375 Q121.6875,63.0781 121.5156,62.9063 Q121.3906,62.75 121.1719,62.7344 Q119.9531,62.7344 119.7969,62.8594 Q119.625,63.0156 119.625,63.2813 Q119.5938,64.7656 118.9375,65.5781 Q118.3281,66.375 118.25,66.375 Q116.9219,66.375 116.1406,64.7813 Q115.3906,63.2344 115.3906,60.75 Q115.3906,58.125 116.3281,56.6719 Q117.1563,55.4219 118.4375,55.4219 Q118.4375,55.4219 118.7813,56.0469 Q119.4063,56.7188 119.5469,57.875 Q119.6563,58.4531 121.125,58.2344 Q121.6563,58.1563 121.625,57.7344 Q121.4531,56.2969 120.7344,55.4844 Q119.875,54.5156 118.3125,54.5156 Z "/><text fill="#000000" font-family="sans-serif" font-size="12" lengthAdjust="spacingAndGlyphs" textLength="31" x="139.25" y="66.6045">IfTree</text><line style="stroke: #A80036; stroke-width: 1.5;" x1="33" x2="244" y1="77" y2="77"/><line style="stroke: #A80036; stroke-width: 1.5;" x1="33" x2="118.5" y1="92.5544" y2="92.5544"/><text fill="#008000" font-family="sans-serif" font-size="11" font-weight="bold" lengthAdjust="spacingAndGlyphs" textLength="40" x="118.5" y="97.1919">has list</text><line style="stroke: #A80036; stroke-width: 1.5;" x1="158.5" x2="244" y1="92.5544" y2="92.5544"/><line style="stroke: #A80036; stroke-width: 1.0; stroke-dasharray: 1.0,2.0;" x1="33" x2="125.5" y1="115.2178" y2="115.2178"/><text fill="#000000" font-family="sans-serif" font-size="11" lengthAdjust="spacingAndGlyphs" textLength="26" x="125.5" y="119.8552">class</text><line style="stroke: #A80036; stroke-width: 1.0; stroke-dasharray: 1.0,2.0;" x1="151.5" x2="244" y1="115.2178" y2="115.2178"/><text fill="#000000" font-family="sans-serif" font-size="11" lengthAdjust="spacingAndGlyphs" textLength="108" x="38" y="158.1274">int sum (1074593562);</text><line style="stroke: #A80036; stroke-width: 1.0; stroke-dasharray: 1.0,2.0;" x1="33" x2="119.5" y1="137.8811" y2="137.8811"/><text fill="#000000" font-family="sans-serif" font-size="11" lengthAdjust="spacingAndGlyphs" textLength="38" x="119.5" y="142.5186">member</text><line style="stroke: #A80036; stroke-width: 1.0; stroke-dasharray: 1.0,2.0;" x1="157.5" x2="244" y1="137.8811" y2="137.8811"/><text fill="#000000" font-family="sans-serif" font-size="11" lengthAdjust="spacingAndGlyphs" textLength="201" x="38" y="192.3452">void main(java.lang.String[]) (660017404);</text><line style="stroke: #A80036; stroke-width: 1.0; stroke-dasharray: 1.0,2.0;" x1="33" x2="121" y1="172.0989" y2="172.0989"/><text fill="#000000" font-family="sans-serif" font-size="11" lengthAdjust="spacingAndGlyphs" textLength="35" x="121" y="176.7363">method</text><line style="stroke: #A80036; stroke-width: 1.0; stroke-dasharray: 1.0,2.0;" x1="156" x2="244" y1="172.0989" y2="172.0989"/><line style="stroke: #A80036; stroke-width: 1.5;" x1="33" x2="111" y1="206.3167" y2="206.3167"/><text fill="#0000FF" font-family="sans-serif" font-size="11" font-weight="bold" lengthAdjust="spacingAndGlyphs" textLength="55" x="111" y="210.9541">calling list</text><line style="stroke: #A80036; stroke-width: 1.5;" x1="166" x2="244" y1="206.3167" y2="206.3167"/><line style="stroke: #A80036; stroke-width: 1.0; stroke-dasharray: 1.0,2.0;" x1="33" x2="125.5" y1="228.98" y2="228.98"/><text fill="#000000" font-family="sans-serif" font-size="11" lengthAdjust="spacingAndGlyphs" textLength="26" x="125.5" y="233.6174">class</text><line style="stroke: #A80036; stroke-width: 1.0; stroke-dasharray: 1.0,2.0;" x1="151.5" x2="244" y1="228.98" y2="228.98"/><text fill="#000000" font-family="sans-serif" font-size="11" lengthAdjust="spacingAndGlyphs" textLength="108" x="38" y="271.8896">int sum (1074593562);</text><line style="stroke: #A80036; stroke-width: 1.0; stroke-dasharray: 1.0,2.0;" x1="33" x2="119.5" y1="251.6433" y2="251.6433"/><text fill="#000000" font-family="sans-serif" font-size="11" lengthAdjust="spacingAndGlyphs" textLength="38" x="119.5" y="256.2808">member</text><line style="stroke: #A80036; stroke-width: 1.0; stroke-dasharray: 1.0,2.0;" x1="157.5" x2="244" y1="251.6433" y2="251.6433"/><line style="stroke: #A80036; stroke-width: 1.0; stroke-dasharray: 1.0,2.0;" x1="33" x2="121" y1="285.8611" y2="285.8611"/><text fill="#000000" font-family="sans-serif" font-size="11" lengthAdjust="spacingAndGlyphs" textLength="35" x="121" y="290.4985">method</text><line style="stroke: #A80036; stroke-width: 1.0; stroke-dasharray: 1.0,2.0;" x1="156" x2="244" y1="285.8611" y2="285.8611"/><line style="stroke: #A80036; stroke-width: 1.5;" x1="33" x2="104.5" y1="308.5244" y2="308.5244"/><text fill="#FFA500" font-family="sans-serif" font-size="11" font-weight="bold" lengthAdjust="spacingAndGlyphs" textLength="68" x="104.5" y="313.1619">called by list</text><line style="stroke: #A80036; stroke-width: 1.5;" x1="172.5" x2="244" y1="308.5244" y2="308.5244"/><text fill="#000000" font-family="sans-serif" font-size="11" lengthAdjust="spacingAndGlyphs" textLength="102" x="38" y="351.4341">IfTree (1381965390);</text><line style="stroke: #A80036; stroke-width: 1.0; stroke-dasharray: 1.0,2.0;" x1="33" x2="125.5" y1="331.1877" y2="331.1877"/><text fill="#000000" font-family="sans-serif" font-size="11" lengthAdjust="spacingAndGlyphs" textLength="26" x="125.5" y="335.8252">class</text><line style="stroke: #A80036; stroke-width: 1.0; stroke-dasharray: 1.0,2.0;" x1="151.5" x2="244" y1="331.1877" y2="331.1877"/><line style="stroke: #A80036; stroke-width: 1.0; stroke-dasharray: 1.0,2.0;" x1="33" x2="119.5" y1="365.4055" y2="365.4055"/><text fill="#000000" font-family="sans-serif" font-size="11" lengthAdjust="spacingAndGlyphs" textLength="38" x="119.5" y="370.043">member</text><line style="stroke: #A80036; stroke-width: 1.0; stroke-dasharray: 1.0,2.0;" x1="157.5" x2="244" y1="365.4055" y2="365.4055"/><text fill="#000000" font-family="sans-serif" font-size="11" lengthAdjust="spacingAndGlyphs" textLength="201" x="38" y="408.3152">void main(java.lang.String[]) (660017404);</text><line style="stroke: #A80036; stroke-width: 1.0; stroke-dasharray: 1.0,2.0;" x1="33" x2="121" y1="388.0688" y2="388.0688"/><text fill="#000000" font-family="sans-serif" font-size="11" lengthAdjust="spacingAndGlyphs" textLength="35" x="121" y="392.7063">method</text><line style="stroke: #A80036; stroke-width: 1.0; stroke-dasharray: 1.0,2.0;" x1="156" x2="244" y1="388.0688" y2="388.0688"/><!--MD5=[5126990f8aef1e134f70b3a864e9044e]
@startuml
class target.IfTree{
__**<color:green>has list</color>**__
..class..
..member..
	int sum (1074593562);
..method..
	void main(java.lang.String[]) (660017404);
__**<color:blue>calling list</color>**__
..class..
..member..
	int sum (1074593562);
..method..
__**<color:orange>called by list</color>**__
..class..
	IfTree (1381965390);
..member..
..method..
	void main(java.lang.String[]) (660017404);
}

@enduml

PlantUML version 1.2020.19(Tue Oct 13 00:10:01 KST 2020)
(APACHE source distribution)
Java Runtime: Java(TM) SE Runtime Environment
JVM: Java HotSpot(TM) 64-Bit Server VM
Default Encoding: MS949
Language: ko
Country: KR
--></g></svg>