<?xml version="1.0" encoding="UTF-8" standalone="no"?><svg xmlns="http://www.w3.org/2000/svg" xmlns:xlink="http://www.w3.org/1999/xlink" contentScriptType="application/ecmascript" contentStyleType="text/css" height="391px" preserveAspectRatio="none" style="width:369px;height:391px;" version="1.1" viewBox="0 0 369 391" width="369px" zoomAndPan="magnify"><defs><filter height="300%" id="fi9vusg7gaome" width="300%" x="-1" y="-1"><feGaussianBlur result="blurOut" stdDeviation="2.0"/><feColorMatrix in="blurOut" result="blurOut2" type="matrix" values="0 0 0 0 0 0 0 0 0 0 0 0 0 0 0 0 0 0 .4 0"/><feOffset dx="4.0" dy="4.0" in="blurOut2" result="blurOut3"/><feBlend in="SourceGraphic" in2="blurOut3" mode="normal"/></filter></defs><g><!--MD5=[a70b0d373322012744ecc119c63f921b]
cluster main--><polygon fill="#FFFFFF" filter="url(#fi9vusg7gaome)" points="16,6,55,6,62,31.2295,352,31.2295,352,384,16,384,16,6" style="stroke: #000000; stroke-width: 1.5;"/><line style="stroke: #000000; stroke-width: 1.5;" x1="16" x2="62" y1="31.2295" y2="31.2295"/><text fill="#000000" font-family="sans-serif" font-size="14" font-weight="bold" lengthAdjust="spacingAndGlyphs" textLength="33" x="20" y="24.1533">main</text><!--MD5=[eef0c53532da0e69af8e4f57be603c92]
class main.MethodVisitor--><rect codeLine="1" fill="#FEFECE" filter="url(#fi9vusg7gaome)" height="323.5144" id="main.MethodVisitor" style="stroke: #A80036; stroke-width: 1.5;" width="304" x="32" y="44"/><ellipse cx="142.75" cy="60" fill="#ADD1B2" rx="11" ry="11" style="stroke: #A80036; stroke-width: 1.0;"/><path d="M142.5781,53.4844 Q140.7031,53.4844 139.5469,55.2344 Q138.3594,57.0156 138.3594,60.0156 Q138.3594,63.3906 139.5625,65.1563 Q140.625,66.7813 142.375,66.7813 Q144.0625,66.7813 145.0156,65.875 Q146.0781,64.8594 146.2188,62.625 Q146.2188,62.2031 145.9844,61.9688 Q145.7969,61.7344 145.4531,61.7031 Q145.125,61.7031 144.8906,61.8906 Q144.625,62.125 144.625,62.5156 Q144.5938,63.9063 144,64.6406 Q143.4688,65.3438 142.5156,65.3438 Q141.3594,65.3438 140.6406,63.9063 Q139.9219,62.4063 139.9219,59.9844 Q139.9219,57.4375 140.8125,56.0469 Q141.5625,54.9219 142.7031,54.9219 Q143.3594,54.9219 143.8594,55.4688 Q144.4219,56.0781 144.5469,57.1406 Q144.5938,57.8438 145.4219,57.7344 Q146.2031,57.625 146.1563,56.9375 Q145.9688,55.4219 145.2031,54.5469 Q144.2656,53.4844 142.5781,53.4844 Z "/><text fill="#000000" font-family="sans-serif" font-size="12" lengthAdjust="spacingAndGlyphs" textLength="74" x="163.25" y="65.6045">MethodVisitor</text><line style="stroke: #A80036; stroke-width: 1.5;" x1="33" x2="335" y1="76" y2="76"/><line style="stroke: #A80036; stroke-width: 1.5;" x1="33" x2="164" y1="91.5544" y2="91.5544"/><text fill="#008000" font-family="sans-serif" font-size="11" font-weight="bold" lengthAdjust="spacingAndGlyphs" textLength="40" x="164" y="96.1919">has list</text><line style="stroke: #A80036; stroke-width: 1.5;" x1="204" x2="335" y1="91.5544" y2="91.5544"/><line style="stroke: #A80036; stroke-width: 1.0; stroke-dasharray: 1.0,2.0;" x1="33" x2="171" y1="114.2178" y2="114.2178"/><text fill="#000000" font-family="sans-serif" font-size="11" lengthAdjust="spacingAndGlyphs" textLength="26" x="171" y="118.8552">class</text><line style="stroke: #A80036; stroke-width: 1.0; stroke-dasharray: 1.0,2.0;" x1="197" x2="335" y1="114.2178" y2="114.2178"/><line style="stroke: #A80036; stroke-width: 1.0; stroke-dasharray: 1.0,2.0;" x1="33" x2="165" y1="136.8811" y2="136.8811"/><text fill="#000000" font-family="sans-serif" font-size="11" lengthAdjust="spacingAndGlyphs" textLength="38" x="165" y="141.5186">member</text><line style="stroke: #A80036; stroke-width: 1.0; stroke-dasharray: 1.0,2.0;" x1="203" x2="335" y1="136.8811" y2="136.8811"/><text fill="#000000" font-family="sans-serif" font-size="11" lengthAdjust="spacingAndGlyphs" textLength="292" x="38" y="179.7908">MethodVisitor MethodVisitor(dataSet.Function) (293786079);</text><line style="stroke: #A80036; stroke-width: 1.0; stroke-dasharray: 1.0,2.0;" x1="33" x2="166.5" y1="159.5444" y2="159.5444"/><text fill="#000000" font-family="sans-serif" font-size="11" lengthAdjust="spacingAndGlyphs" textLength="35" x="166.5" y="164.1819">method</text><line style="stroke: #A80036; stroke-width: 1.0; stroke-dasharray: 1.0,2.0;" x1="201.5" x2="335" y1="159.5444" y2="159.5444"/><line style="stroke: #A80036; stroke-width: 1.5;" x1="33" x2="156.5" y1="193.7622" y2="193.7622"/><text fill="#0000FF" font-family="sans-serif" font-size="11" font-weight="bold" lengthAdjust="spacingAndGlyphs" textLength="55" x="156.5" y="198.3997">calling list</text><line style="stroke: #A80036; stroke-width: 1.5;" x1="211.5" x2="335" y1="193.7622" y2="193.7622"/><line style="stroke: #A80036; stroke-width: 1.0; stroke-dasharray: 1.0,2.0;" x1="33" x2="171" y1="216.4255" y2="216.4255"/><text fill="#000000" font-family="sans-serif" font-size="11" lengthAdjust="spacingAndGlyphs" textLength="26" x="171" y="221.063">class</text><line style="stroke: #A80036; stroke-width: 1.0; stroke-dasharray: 1.0,2.0;" x1="197" x2="335" y1="216.4255" y2="216.4255"/><line style="stroke: #A80036; stroke-width: 1.0; stroke-dasharray: 1.0,2.0;" x1="33" x2="165" y1="239.0889" y2="239.0889"/><text fill="#000000" font-family="sans-serif" font-size="11" lengthAdjust="spacingAndGlyphs" textLength="38" x="165" y="243.7263">member</text><line style="stroke: #A80036; stroke-width: 1.0; stroke-dasharray: 1.0,2.0;" x1="203" x2="335" y1="239.0889" y2="239.0889"/><line style="stroke: #A80036; stroke-width: 1.0; stroke-dasharray: 1.0,2.0;" x1="33" x2="166.5" y1="261.7522" y2="261.7522"/><text fill="#000000" font-family="sans-serif" font-size="11" lengthAdjust="spacingAndGlyphs" textLength="35" x="166.5" y="266.3896">method</text><line style="stroke: #A80036; stroke-width: 1.0; stroke-dasharray: 1.0,2.0;" x1="201.5" x2="335" y1="261.7522" y2="261.7522"/><line style="stroke: #A80036; stroke-width: 1.5;" x1="33" x2="150" y1="284.4155" y2="284.4155"/><text fill="#FFA500" font-family="sans-serif" font-size="11" font-weight="bold" lengthAdjust="spacingAndGlyphs" textLength="68" x="150" y="289.053">called by list</text><line style="stroke: #A80036; stroke-width: 1.5;" x1="218" x2="335" y1="284.4155" y2="284.4155"/><line style="stroke: #A80036; stroke-width: 1.0; stroke-dasharray: 1.0,2.0;" x1="33" x2="171" y1="307.0789" y2="307.0789"/><text fill="#000000" font-family="sans-serif" font-size="11" lengthAdjust="spacingAndGlyphs" textLength="26" x="171" y="311.7163">class</text><line style="stroke: #A80036; stroke-width: 1.0; stroke-dasharray: 1.0,2.0;" x1="197" x2="335" y1="307.0789" y2="307.0789"/><line style="stroke: #A80036; stroke-width: 1.0; stroke-dasharray: 1.0,2.0;" x1="33" x2="165" y1="329.7422" y2="329.7422"/><text fill="#000000" font-family="sans-serif" font-size="11" lengthAdjust="spacingAndGlyphs" textLength="38" x="165" y="334.3796">member</text><line style="stroke: #A80036; stroke-width: 1.0; stroke-dasharray: 1.0,2.0;" x1="203" x2="335" y1="329.7422" y2="329.7422"/><line style="stroke: #A80036; stroke-width: 1.0; stroke-dasharray: 1.0,2.0;" x1="33" x2="166.5" y1="352.4055" y2="352.4055"/><text fill="#000000" font-family="sans-serif" font-size="11" lengthAdjust="spacingAndGlyphs" textLength="35" x="166.5" y="357.043">method</text><line style="stroke: #A80036; stroke-width: 1.0; stroke-dasharray: 1.0,2.0;" x1="201.5" x2="335" y1="352.4055" y2="352.4055"/><!--MD5=[b1ca567fbd8e59f3390945ea714869e2]
@startuml
class main.MethodVisitor{
__**<color:green>has list</color>**__
..class..
..member..
..method..
	MethodVisitor MethodVisitor(dataSet.Function) (293786079);
__**<color:blue>calling list</color>**__
..class..
..member..
..method..
__**<color:orange>called by list</color>**__
..class..
..member..
..method..
}

@enduml

PlantUML version 1.2020.19(Tue Oct 13 00:10:01 KST 2020)
(APACHE source distribution)
Java Runtime: Java(TM) SE Runtime Environment
JVM: Java HotSpot(TM) 64-Bit Server VM
Default Encoding: MS949
Language: ko
Country: KR
--></g></svg>