<?xml version="1.0" encoding="UTF-8" standalone="no"?><svg xmlns="http://www.w3.org/2000/svg" xmlns:xlink="http://www.w3.org/1999/xlink" contentScriptType="application/ecmascript" contentStyleType="text/css" height="414px" preserveAspectRatio="none" style="width:481px;height:414px;" version="1.1" viewBox="0 0 481 414" width="481px" zoomAndPan="magnify"><defs><filter height="300%" id="f18egho6ue7ck" width="300%" x="-1" y="-1"><feGaussianBlur result="blurOut" stdDeviation="2.0"/><feColorMatrix in="blurOut" result="blurOut2" type="matrix" values="0 0 0 0 0 0 0 0 0 0 0 0 0 0 0 0 0 0 .4 0"/><feOffset dx="4.0" dy="4.0" in="blurOut2" result="blurOut3"/><feBlend in="SourceGraphic" in2="blurOut3" mode="normal"/></filter></defs><g><!--MD5=[c66e735c89a839b0f40df60143f9640e]
cluster org.eclipse.jdt.core.dom--><polygon fill="#FFFFFF" filter="url(#f18egho6ue7ck)" points="16,6,193,6,200,31.2295,464,31.2295,464,407,16,407,16,6" style="stroke: #000000; stroke-width: 1.5;"/><line style="stroke: #000000; stroke-width: 1.5;" x1="16" x2="200" y1="31.2295" y2="31.2295"/><text fill="#000000" font-family="sans-serif" font-size="14" font-weight="bold" lengthAdjust="spacingAndGlyphs" textLength="171" x="20" y="24.1533">org.eclipse.jdt.core.dom</text><!--MD5=[05bf0b3cc4111bd5f70b884ccccdbd04]
class org.eclipse.jdt.core.dom.Block--><rect codeLine="1" fill="#FEFECE" filter="url(#f18egho6ue7ck)" height="346.6233" id="org.eclipse.jdt.core.dom.Block" style="stroke: #A80036; stroke-width: 1.5;" width="415" x="32.5" y="44"/><ellipse cx="220.75" cy="60" fill="#ADD1B2" rx="11" ry="11" style="stroke: #A80036; stroke-width: 1.0;"/><path d="M220.5781,53.4844 Q218.7031,53.4844 217.5469,55.2344 Q216.3594,57.0156 216.3594,60.0156 Q216.3594,63.3906 217.5625,65.1563 Q218.625,66.7813 220.375,66.7813 Q222.0625,66.7813 223.0156,65.875 Q224.0781,64.8594 224.2188,62.625 Q224.2188,62.2031 223.9844,61.9688 Q223.7969,61.7344 223.4531,61.7031 Q223.125,61.7031 222.8906,61.8906 Q222.625,62.125 222.625,62.5156 Q222.5938,63.9063 222,64.6406 Q221.4688,65.3438 220.5156,65.3438 Q219.3594,65.3438 218.6406,63.9063 Q217.9219,62.4063 217.9219,59.9844 Q217.9219,57.4375 218.8125,56.0469 Q219.5625,54.9219 220.7031,54.9219 Q221.3594,54.9219 221.8594,55.4688 Q222.4219,56.0781 222.5469,57.1406 Q222.5938,57.8438 223.4219,57.7344 Q224.2031,57.625 224.1563,56.9375 Q223.9688,55.4219 223.2031,54.5469 Q222.2656,53.4844 220.5781,53.4844 Z "/><text fill="#000000" font-family="sans-serif" font-size="12" lengthAdjust="spacingAndGlyphs" textLength="30" x="241.25" y="65.6045">Block</text><line style="stroke: #A80036; stroke-width: 1.5;" x1="33.5" x2="446.5" y1="76" y2="76"/><line style="stroke: #A80036; stroke-width: 1.5;" x1="33.5" x2="220" y1="91.5544" y2="91.5544"/><text fill="#008000" font-family="sans-serif" font-size="11" font-weight="bold" lengthAdjust="spacingAndGlyphs" textLength="40" x="220" y="96.1919">has list</text><line style="stroke: #A80036; stroke-width: 1.5;" x1="260" x2="446.5" y1="91.5544" y2="91.5544"/><line style="stroke: #A80036; stroke-width: 1.0; stroke-dasharray: 1.0,2.0;" x1="33.5" x2="227" y1="114.2178" y2="114.2178"/><text fill="#000000" font-family="sans-serif" font-size="11" lengthAdjust="spacingAndGlyphs" textLength="26" x="227" y="118.8552">class</text><line style="stroke: #A80036; stroke-width: 1.0; stroke-dasharray: 1.0,2.0;" x1="253" x2="446.5" y1="114.2178" y2="114.2178"/><line style="stroke: #A80036; stroke-width: 1.0; stroke-dasharray: 1.0,2.0;" x1="33.5" x2="221" y1="136.8811" y2="136.8811"/><text fill="#000000" font-family="sans-serif" font-size="11" lengthAdjust="spacingAndGlyphs" textLength="38" x="221" y="141.5186">member</text><line style="stroke: #A80036; stroke-width: 1.0; stroke-dasharray: 1.0,2.0;" x1="259" x2="446.5" y1="136.8811" y2="136.8811"/><text fill="#000000" font-family="sans-serif" font-size="11" lengthAdjust="spacingAndGlyphs" textLength="154" x="38.5" y="179.7908">null statements() (1334204880);</text><line style="stroke: #A80036; stroke-width: 1.0; stroke-dasharray: 1.0,2.0;" x1="33.5" x2="222.5" y1="159.5444" y2="159.5444"/><text fill="#000000" font-family="sans-serif" font-size="11" lengthAdjust="spacingAndGlyphs" textLength="35" x="222.5" y="164.1819">method</text><line style="stroke: #A80036; stroke-width: 1.0; stroke-dasharray: 1.0,2.0;" x1="257.5" x2="446.5" y1="159.5444" y2="159.5444"/><line style="stroke: #A80036; stroke-width: 1.5;" x1="33.5" x2="212.5" y1="193.7622" y2="193.7622"/><text fill="#0000FF" font-family="sans-serif" font-size="11" font-weight="bold" lengthAdjust="spacingAndGlyphs" textLength="55" x="212.5" y="198.3997">calling list</text><line style="stroke: #A80036; stroke-width: 1.5;" x1="267.5" x2="446.5" y1="193.7622" y2="193.7622"/><line style="stroke: #A80036; stroke-width: 1.0; stroke-dasharray: 1.0,2.0;" x1="33.5" x2="227" y1="216.4255" y2="216.4255"/><text fill="#000000" font-family="sans-serif" font-size="11" lengthAdjust="spacingAndGlyphs" textLength="26" x="227" y="221.063">class</text><line style="stroke: #A80036; stroke-width: 1.0; stroke-dasharray: 1.0,2.0;" x1="253" x2="446.5" y1="216.4255" y2="216.4255"/><line style="stroke: #A80036; stroke-width: 1.0; stroke-dasharray: 1.0,2.0;" x1="33.5" x2="221" y1="239.0889" y2="239.0889"/><text fill="#000000" font-family="sans-serif" font-size="11" lengthAdjust="spacingAndGlyphs" textLength="38" x="221" y="243.7263">member</text><line style="stroke: #A80036; stroke-width: 1.0; stroke-dasharray: 1.0,2.0;" x1="259" x2="446.5" y1="239.0889" y2="239.0889"/><line style="stroke: #A80036; stroke-width: 1.0; stroke-dasharray: 1.0,2.0;" x1="33.5" x2="222.5" y1="261.7522" y2="261.7522"/><text fill="#000000" font-family="sans-serif" font-size="11" lengthAdjust="spacingAndGlyphs" textLength="35" x="222.5" y="266.3896">method</text><line style="stroke: #A80036; stroke-width: 1.0; stroke-dasharray: 1.0,2.0;" x1="257.5" x2="446.5" y1="261.7522" y2="261.7522"/><line style="stroke: #A80036; stroke-width: 1.5;" x1="33.5" x2="206" y1="284.4155" y2="284.4155"/><text fill="#FFA500" font-family="sans-serif" font-size="11" font-weight="bold" lengthAdjust="spacingAndGlyphs" textLength="68" x="206" y="289.053">called by list</text><line style="stroke: #A80036; stroke-width: 1.5;" x1="274" x2="446.5" y1="284.4155" y2="284.4155"/><text fill="#000000" font-family="sans-serif" font-size="11" lengthAdjust="spacingAndGlyphs" textLength="126" x="38.5" y="327.3252">Test_Visitor (348026124);</text><line style="stroke: #A80036; stroke-width: 1.0; stroke-dasharray: 1.0,2.0;" x1="33.5" x2="227" y1="307.0789" y2="307.0789"/><text fill="#000000" font-family="sans-serif" font-size="11" lengthAdjust="spacingAndGlyphs" textLength="26" x="227" y="311.7163">class</text><line style="stroke: #A80036; stroke-width: 1.0; stroke-dasharray: 1.0,2.0;" x1="253" x2="446.5" y1="307.0789" y2="307.0789"/><line style="stroke: #A80036; stroke-width: 1.0; stroke-dasharray: 1.0,2.0;" x1="33.5" x2="221" y1="341.2966" y2="341.2966"/><text fill="#000000" font-family="sans-serif" font-size="11" lengthAdjust="spacingAndGlyphs" textLength="38" x="221" y="345.9341">member</text><line style="stroke: #A80036; stroke-width: 1.0; stroke-dasharray: 1.0,2.0;" x1="259" x2="446.5" y1="341.2966" y2="341.2966"/><text fill="#000000" font-family="sans-serif" font-size="11" lengthAdjust="spacingAndGlyphs" textLength="403" x="38.5" y="384.2063">ArrayList&lt;Statement&gt; getStmtList(org.eclipse.jdt.core.dom.Statement) (524671817);</text><line style="stroke: #A80036; stroke-width: 1.0; stroke-dasharray: 1.0,2.0;" x1="33.5" x2="222.5" y1="363.96" y2="363.96"/><text fill="#000000" font-family="sans-serif" font-size="11" lengthAdjust="spacingAndGlyphs" textLength="35" x="222.5" y="368.5974">method</text><line style="stroke: #A80036; stroke-width: 1.0; stroke-dasharray: 1.0,2.0;" x1="257.5" x2="446.5" y1="363.96" y2="363.96"/><!--MD5=[127d9edd85df8a733b793e8c639ea527]
@startuml
class org.eclipse.jdt.core.dom.Block{
__**<color:green>has list</color>**__
..class..
..member..
..method..
	null statements() (1334204880);
__**<color:blue>calling list</color>**__
..class..
..member..
..method..
__**<color:orange>called by list</color>**__
..class..
	Test_Visitor (348026124);
..member..
..method..
	ArrayList<Statement> getStmtList(org.eclipse.jdt.core.dom.Statement) (524671817);
}

@enduml

PlantUML version 1.2020.19(Tue Oct 13 00:10:01 KST 2020)
(APACHE source distribution)
Java Runtime: Java(TM) SE Runtime Environment
JVM: Java HotSpot(TM) 64-Bit Server VM
Default Encoding: MS949
Language: ko
Country: KR
--></g></svg>