<?xml version="1.0" encoding="UTF-8" standalone="no"?><svg xmlns="http://www.w3.org/2000/svg" xmlns:xlink="http://www.w3.org/1999/xlink" contentScriptType="application/ecmascript" contentStyleType="text/css" height="1431px" preserveAspectRatio="none" style="width:612px;height:1431px;" version="1.1" viewBox="0 0 612 1431" width="612px" zoomAndPan="magnify"><defs><filter height="300%" id="fmncg9xspf9zg" width="300%" x="-1" y="-1"><feGaussianBlur result="blurOut" stdDeviation="2.0"/><feColorMatrix in="blurOut" result="blurOut2" type="matrix" values="0 0 0 0 0 0 0 0 0 0 0 0 0 0 0 0 0 0 .4 0"/><feOffset dx="4.0" dy="4.0" in="blurOut2" result="blurOut3"/><feBlend in="SourceGraphic" in2="blurOut3" mode="normal"/></filter></defs><g><rect fill="#FFFFFF" filter="url(#fmncg9xspf9zg)" height="111.5679" style="stroke: #000000; stroke-width: 2.0;" width="349.5" x="10" y="60.2295"/><rect fill="#FFFFFF" filter="url(#fmncg9xspf9zg)" height="155.4238" style="stroke: #000000; stroke-width: 2.0;" width="349.5" x="10" y="185.7974"/><rect fill="#FFFFFF" filter="url(#fmncg9xspf9zg)" height="65.7119" style="stroke: #000000; stroke-width: 2.0;" width="405.5" x="10" y="355.2212"/><rect fill="#FFFFFF" filter="url(#fmncg9xspf9zg)" height="249.1357" style="stroke: #000000; stroke-width: 2.0;" width="507.5" x="10" y="434.9331"/><rect fill="#FFFFFF" filter="url(#fmncg9xspf9zg)" height="202.2798" style="stroke: #000000; stroke-width: 2.0;" width="507.5" x="10" y="698.0688"/><rect fill="#FFFFFF" filter="url(#fmncg9xspf9zg)" height="111.5679" style="stroke: #000000; stroke-width: 2.0;" width="588.5" x="10" y="914.3486"/><rect fill="#FFFFFF" filter="url(#fmncg9xspf9zg)" height="249.1357" style="stroke: #000000; stroke-width: 2.0;" width="507.5" x="10" y="1039.9165"/><rect fill="#FFFFFF" filter="url(#fmncg9xspf9zg)" height="65.7119" style="stroke: #000000; stroke-width: 2.0;" width="507.5" x="10" y="1303.0522"/><line style="stroke: #A80036; stroke-width: 1.0; stroke-dasharray: 5.0,5.0;" x1="71" x2="71" y1="43.2295" y2="1385.7642"/><line style="stroke: #A80036; stroke-width: 1.0; stroke-dasharray: 5.0,5.0;" x1="258.5" x2="258.5" y1="43.2295" y2="1385.7642"/><line style="stroke: #A80036; stroke-width: 1.0; stroke-dasharray: 5.0,5.0;" x1="320.5" x2="320.5" y1="43.2295" y2="1385.7642"/><line style="stroke: #A80036; stroke-width: 1.0; stroke-dasharray: 5.0,5.0;" x1="382.5" x2="382.5" y1="43.2295" y2="1385.7642"/><line style="stroke: #A80036; stroke-width: 1.0; stroke-dasharray: 5.0,5.0;" x1="461.5" x2="461.5" y1="43.2295" y2="1385.7642"/><line style="stroke: #A80036; stroke-width: 1.0; stroke-dasharray: 5.0,5.0;" x1="552.5" x2="552.5" y1="43.2295" y2="1385.7642"/><rect fill="#FEFECE" filter="url(#fmncg9xspf9zg)" height="33.2295" style="stroke: #A80036; stroke-width: 1.5;" width="98" x="20" y="5"/><text fill="#000000" font-family="sans-serif" font-size="14" lengthAdjust="spacingAndGlyphs" textLength="84" x="27" y="28.1533">GameSystem</text><rect fill="#FEFECE" filter="url(#fmncg9xspf9zg)" height="33.2295" style="stroke: #A80036; stroke-width: 1.5;" width="98" x="20" y="1384.7642"/><text fill="#000000" font-family="sans-serif" font-size="14" lengthAdjust="spacingAndGlyphs" textLength="84" x="27" y="1407.9175">GameSystem</text><rect fill="#FEFECE" filter="url(#fmncg9xspf9zg)" height="33.2295" style="stroke: #A80036; stroke-width: 1.5;" width="41" x="236.5" y="5"/><text fill="#000000" font-family="sans-serif" font-size="14" lengthAdjust="spacingAndGlyphs" textLength="27" x="243.5" y="28.1533">Map</text><rect fill="#FEFECE" filter="url(#fmncg9xspf9zg)" height="33.2295" style="stroke: #A80036; stroke-width: 1.5;" width="41" x="236.5" y="1384.7642"/><text fill="#000000" font-family="sans-serif" font-size="14" lengthAdjust="spacingAndGlyphs" textLength="27" x="243.5" y="1407.9175">Map</text><rect fill="#FEFECE" filter="url(#fmncg9xspf9zg)" height="33.2295" style="stroke: #A80036; stroke-width: 1.5;" width="54" x="291.5" y="5"/><text fill="#000000" font-family="sans-serif" font-size="14" lengthAdjust="spacingAndGlyphs" textLength="40" x="298.5" y="28.1533">Player</text><rect fill="#FEFECE" filter="url(#fmncg9xspf9zg)" height="33.2295" style="stroke: #A80036; stroke-width: 1.5;" width="54" x="291.5" y="1384.7642"/><text fill="#000000" font-family="sans-serif" font-size="14" lengthAdjust="spacingAndGlyphs" textLength="40" x="298.5" y="1407.9175">Player</text><rect fill="#FEFECE" filter="url(#fmncg9xspf9zg)" height="33.2295" style="stroke: #A80036; stroke-width: 1.5;" width="42" x="359.5" y="5"/><text fill="#000000" font-family="sans-serif" font-size="14" lengthAdjust="spacingAndGlyphs" textLength="28" x="366.5" y="28.1533">Dice</text><rect fill="#FEFECE" filter="url(#fmncg9xspf9zg)" height="33.2295" style="stroke: #A80036; stroke-width: 1.5;" width="42" x="359.5" y="1384.7642"/><text fill="#000000" font-family="sans-serif" font-size="14" lengthAdjust="spacingAndGlyphs" textLength="28" x="366.5" y="1407.9175">Dice</text><rect fill="#FEFECE" filter="url(#fmncg9xspf9zg)" height="33.2295" style="stroke: #A80036; stroke-width: 1.5;" width="88" x="415.5" y="5"/><text fill="#000000" font-family="sans-serif" font-size="14" lengthAdjust="spacingAndGlyphs" textLength="74" x="422.5" y="28.1533">PrintStream</text><rect fill="#FEFECE" filter="url(#fmncg9xspf9zg)" height="33.2295" style="stroke: #A80036; stroke-width: 1.5;" width="88" x="415.5" y="1384.7642"/><text fill="#000000" font-family="sans-serif" font-size="14" lengthAdjust="spacingAndGlyphs" textLength="74" x="422.5" y="1407.9175">PrintStream</text><rect fill="#FEFECE" filter="url(#fmncg9xspf9zg)" height="33.2295" style="stroke: #A80036; stroke-width: 1.5;" width="67" x="517.5" y="5"/><text fill="#000000" font-family="sans-serif" font-size="14" lengthAdjust="spacingAndGlyphs" textLength="53" x="524.5" y="28.1533">Random</text><rect fill="#FEFECE" filter="url(#fmncg9xspf9zg)" height="33.2295" style="stroke: #A80036; stroke-width: 1.5;" width="67" x="517.5" y="1384.7642"/><text fill="#000000" font-family="sans-serif" font-size="14" lengthAdjust="spacingAndGlyphs" textLength="53" x="524.5" y="1407.9175">Random</text><path d="M10,60.2295 L210,60.2295 L210,69.2295 L200,79.2295 L10,79.2295 L10,60.2295 " fill="#EEEEEE" style="stroke: #000000; stroke-width: 1.0;"/><rect fill="none" height="111.5679" style="stroke: #000000; stroke-width: 2.0;" width="349.5" x="10" y="60.2295"/><text fill="#000000" font-family="sans-serif" font-size="13" font-weight="bold" lengthAdjust="spacingAndGlyphs" textLength="155" x="25" y="76.229">new GameSystem(int[][])</text><polygon fill="#A80036" points="247,99.9414,257,103.9414,247,107.9414,251,103.9414" style="stroke: #A80036; stroke-width: 1.0;"/><line style="stroke: #A80036; stroke-width: 1.0;" x1="71" x2="253" y1="103.9414" y2="103.9414"/><text fill="#000000" font-family="sans-serif" font-size="13" lengthAdjust="spacingAndGlyphs" textLength="33" x="78" y="99.085">Map()</text><polygon fill="#A80036" points="82,113.9414,72,117.9414,82,121.9414,78,117.9414" style="stroke: #A80036; stroke-width: 1.0;"/><line style="stroke: #A80036; stroke-width: 1.0; stroke-dasharray: 2.0,2.0;" x1="76" x2="258" y1="117.9414" y2="117.9414"/><polygon fill="#A80036" points="308.5,145.7974,318.5,149.7974,308.5,153.7974,312.5,149.7974" style="stroke: #A80036; stroke-width: 1.0;"/><line style="stroke: #A80036; stroke-width: 1.0;" x1="71" x2="314.5" y1="149.7974" y2="149.7974"/><text fill="#000000" font-family="sans-serif" font-size="13" lengthAdjust="spacingAndGlyphs" textLength="133" x="78" y="144.9409">Player(java.lang.String)</text><polygon fill="#A80036" points="82,159.7974,72,163.7974,82,167.7974,78,163.7974" style="stroke: #A80036; stroke-width: 1.0;"/><line style="stroke: #A80036; stroke-width: 1.0; stroke-dasharray: 2.0,2.0;" x1="76" x2="319.5" y1="163.7974" y2="163.7974"/><path d="M10,185.7974 L260,185.7974 L260,194.7974 L250,204.7974 L10,204.7974 L10,185.7974 " fill="#EEEEEE" style="stroke: #000000; stroke-width: 1.0;"/><rect fill="none" height="155.4238" style="stroke: #000000; stroke-width: 2.0;" width="349.5" x="10" y="185.7974"/><text fill="#000000" font-family="sans-serif" font-size="13" font-weight="bold" lengthAdjust="spacingAndGlyphs" textLength="205" x="25" y="201.7969">void playGame(java.lang.String)</text><polygon fill="#A80036" points="308.5,225.5093,318.5,229.5093,308.5,233.5093,312.5,229.5093" style="stroke: #A80036; stroke-width: 1.0;"/><line style="stroke: #A80036; stroke-width: 1.0;" x1="71" x2="314.5" y1="229.5093" y2="229.5093"/><text fill="#000000" font-family="sans-serif" font-size="13" lengthAdjust="spacingAndGlyphs" textLength="133" x="78" y="224.6528">Player(java.lang.String)</text><polygon fill="#A80036" points="82,239.5093,72,243.5093,82,247.5093,78,243.5093" style="stroke: #A80036; stroke-width: 1.0;"/><line style="stroke: #A80036; stroke-width: 1.0; stroke-dasharray: 2.0,2.0;" x1="76" x2="319.5" y1="243.5093" y2="243.5093"/><line style="stroke: #A80036; stroke-width: 1.0;" x1="71" x2="113" y1="275.3652" y2="275.3652"/><line style="stroke: #A80036; stroke-width: 1.0;" x1="113" x2="113" y1="275.3652" y2="288.3652"/><line style="stroke: #A80036; stroke-width: 1.0;" x1="72" x2="113" y1="288.3652" y2="288.3652"/><polygon fill="#A80036" points="82,284.3652,72,288.3652,82,292.3652,78,288.3652" style="stroke: #A80036; stroke-width: 1.0;"/><text fill="#000000" font-family="sans-serif" font-size="13" lengthAdjust="spacingAndGlyphs" textLength="73" x="78" y="270.5088">diceSetting()</text><line style="stroke: #A80036; stroke-width: 1.0;" x1="71" x2="113" y1="320.2212" y2="320.2212"/><line style="stroke: #A80036; stroke-width: 1.0;" x1="113" x2="113" y1="320.2212" y2="333.2212"/><line style="stroke: #A80036; stroke-width: 1.0;" x1="72" x2="113" y1="333.2212" y2="333.2212"/><polygon fill="#A80036" points="82,329.2212,72,333.2212,82,337.2212,78,333.2212" style="stroke: #A80036; stroke-width: 1.0;"/><text fill="#000000" font-family="sans-serif" font-size="13" lengthAdjust="spacingAndGlyphs" textLength="36" x="78" y="315.3647">main()</text><path d="M10,355.2212 L166,355.2212 L166,364.2212 L156,374.2212 L10,374.2212 L10,355.2212 " fill="#EEEEEE" style="stroke: #000000; stroke-width: 1.0;"/><rect fill="none" height="65.7119" style="stroke: #000000; stroke-width: 2.0;" width="405.5" x="10" y="355.2212"/><text fill="#000000" font-family="sans-serif" font-size="13" font-weight="bold" lengthAdjust="spacingAndGlyphs" textLength="111" x="25" y="371.2207">void diceSetting()</text><polygon fill="#A80036" points="370.5,394.9331,380.5,398.9331,370.5,402.9331,374.5,398.9331" style="stroke: #A80036; stroke-width: 1.0;"/><line style="stroke: #A80036; stroke-width: 1.0;" x1="71" x2="376.5" y1="398.9331" y2="398.9331"/><text fill="#000000" font-family="sans-serif" font-size="13" lengthAdjust="spacingAndGlyphs" textLength="56" x="78" y="394.0767">Dice(int[])</text><polygon fill="#A80036" points="82,408.9331,72,412.9331,82,416.9331,78,412.9331" style="stroke: #A80036; stroke-width: 1.0;"/><line style="stroke: #A80036; stroke-width: 1.0; stroke-dasharray: 2.0,2.0;" x1="76" x2="381.5" y1="412.9331" y2="412.9331"/><path d="M10,434.9331 L273,434.9331 L273,443.9331 L263,453.9331 L10,453.9331 L10,434.9331 " fill="#EEEEEE" style="stroke: #000000; stroke-width: 1.0;"/><rect fill="none" height="249.1357" style="stroke: #000000; stroke-width: 2.0;" width="507.5" x="10" y="434.9331"/><text fill="#000000" font-family="sans-serif" font-size="13" font-weight="bold" lengthAdjust="spacingAndGlyphs" textLength="218" x="25" y="450.9326">void printPos(gameSystem.Player)</text><polygon fill="#A80036" points="308.5,474.645,318.5,478.645,308.5,482.645,312.5,478.645" style="stroke: #A80036; stroke-width: 1.0;"/><line style="stroke: #A80036; stroke-width: 1.0;" x1="71" x2="314.5" y1="478.645" y2="478.645"/><text fill="#000000" font-family="sans-serif" font-size="13" lengthAdjust="spacingAndGlyphs" textLength="49" x="78" y="473.7886">getPos()</text><polygon fill="#A80036" points="82,488.645,72,492.645,82,496.645,78,492.645" style="stroke: #A80036; stroke-width: 1.0;"/><line style="stroke: #A80036; stroke-width: 1.0; stroke-dasharray: 2.0,2.0;" x1="76" x2="319.5" y1="492.645" y2="492.645"/><polygon fill="#A80036" points="247,520.501,257,524.501,247,528.501,251,524.501" style="stroke: #A80036; stroke-width: 1.0;"/><line style="stroke: #A80036; stroke-width: 1.0;" x1="71" x2="253" y1="524.501" y2="524.501"/><text fill="#000000" font-family="sans-serif" font-size="13" lengthAdjust="spacingAndGlyphs" textLength="52" x="78" y="519.6445">getSize()</text><polygon fill="#A80036" points="82,534.501,72,538.501,82,542.501,78,538.501" style="stroke: #A80036; stroke-width: 1.0;"/><line style="stroke: #A80036; stroke-width: 1.0; stroke-dasharray: 2.0,2.0;" x1="76" x2="258" y1="538.501" y2="538.501"/><polygon fill="#A80036" points="449.5,566.3569,459.5,570.3569,449.5,574.3569,453.5,570.3569" style="stroke: #A80036; stroke-width: 1.0;"/><line style="stroke: #A80036; stroke-width: 1.0;" x1="71" x2="455.5" y1="570.3569" y2="570.3569"/><text fill="#000000" font-family="sans-serif" font-size="13" lengthAdjust="spacingAndGlyphs" textLength="131" x="78" y="565.5005">println(java.lang.String)</text><polygon fill="#A80036" points="82,580.3569,72,584.3569,82,588.3569,78,584.3569" style="stroke: #A80036; stroke-width: 1.0;"/><line style="stroke: #A80036; stroke-width: 1.0; stroke-dasharray: 2.0,2.0;" x1="76" x2="460.5" y1="584.3569" y2="584.3569"/><polygon fill="#A80036" points="449.5,612.2129,459.5,616.2129,449.5,620.2129,453.5,616.2129" style="stroke: #A80036; stroke-width: 1.0;"/><line style="stroke: #A80036; stroke-width: 1.0;" x1="71" x2="455.5" y1="616.2129" y2="616.2129"/><text fill="#000000" font-family="sans-serif" font-size="13" lengthAdjust="spacingAndGlyphs" textLength="121" x="78" y="611.3564">print(java.lang.String)</text><polygon fill="#A80036" points="82,626.2129,72,630.2129,82,634.2129,78,630.2129" style="stroke: #A80036; stroke-width: 1.0;"/><line style="stroke: #A80036; stroke-width: 1.0; stroke-dasharray: 2.0,2.0;" x1="76" x2="460.5" y1="630.2129" y2="630.2129"/><polygon fill="#A80036" points="449.5,658.0688,459.5,662.0688,449.5,666.0688,453.5,662.0688" style="stroke: #A80036; stroke-width: 1.0;"/><line style="stroke: #A80036; stroke-width: 1.0;" x1="71" x2="455.5" y1="662.0688" y2="662.0688"/><text fill="#000000" font-family="sans-serif" font-size="13" lengthAdjust="spacingAndGlyphs" textLength="43" x="78" y="657.2124">println()</text><polygon fill="#A80036" points="82,672.0688,72,676.0688,82,680.0688,78,676.0688" style="stroke: #A80036; stroke-width: 1.0;"/><line style="stroke: #A80036; stroke-width: 1.0; stroke-dasharray: 2.0,2.0;" x1="76" x2="460.5" y1="676.0688" y2="676.0688"/><path d="M10,698.0688 L292,698.0688 L292,707.0688 L282,717.0688 L10,717.0688 L10,698.0688 " fill="#EEEEEE" style="stroke: #000000; stroke-width: 1.0;"/><rect fill="none" height="202.2798" style="stroke: #000000; stroke-width: 2.0;" width="507.5" x="10" y="698.0688"/><text fill="#000000" font-family="sans-serif" font-size="13" font-weight="bold" lengthAdjust="spacingAndGlyphs" textLength="237" x="25" y="714.0684">Dice choiceDice(gameSystem.Player)</text><polygon fill="#A80036" points="449.5,737.7808,459.5,741.7808,449.5,745.7808,453.5,741.7808" style="stroke: #A80036; stroke-width: 1.0;"/><line style="stroke: #A80036; stroke-width: 1.0;" x1="71" x2="455.5" y1="741.7808" y2="741.7808"/><text fill="#000000" font-family="sans-serif" font-size="13" lengthAdjust="spacingAndGlyphs" textLength="131" x="78" y="736.9243">println(java.lang.String)</text><polygon fill="#A80036" points="82,751.7808,72,755.7808,82,759.7808,78,755.7808" style="stroke: #A80036; stroke-width: 1.0;"/><line style="stroke: #A80036; stroke-width: 1.0; stroke-dasharray: 2.0,2.0;" x1="76" x2="460.5" y1="755.7808" y2="755.7808"/><line style="stroke: #A80036; stroke-width: 1.0;" x1="71" x2="113" y1="787.6367" y2="787.6367"/><line style="stroke: #A80036; stroke-width: 1.0;" x1="113" x2="113" y1="787.6367" y2="800.6367"/><line style="stroke: #A80036; stroke-width: 1.0;" x1="72" x2="113" y1="800.6367" y2="800.6367"/><polygon fill="#A80036" points="82,796.6367,72,800.6367,82,804.6367,78,800.6367" style="stroke: #A80036; stroke-width: 1.0;"/><text fill="#000000" font-family="sans-serif" font-size="13" lengthAdjust="spacingAndGlyphs" textLength="174" x="78" y="782.7803">printPos(gameSystem.Player)</text><polygon fill="#A80036" points="449.5,828.4927,459.5,832.4927,449.5,836.4927,453.5,832.4927" style="stroke: #A80036; stroke-width: 1.0;"/><line style="stroke: #A80036; stroke-width: 1.0;" x1="71" x2="455.5" y1="832.4927" y2="832.4927"/><text fill="#000000" font-family="sans-serif" font-size="13" lengthAdjust="spacingAndGlyphs" textLength="121" x="78" y="827.6362">print(java.lang.String)</text><polygon fill="#A80036" points="82,842.4927,72,846.4927,82,850.4927,78,846.4927" style="stroke: #A80036; stroke-width: 1.0;"/><line style="stroke: #A80036; stroke-width: 1.0; stroke-dasharray: 2.0,2.0;" x1="76" x2="460.5" y1="846.4927" y2="846.4927"/><polygon fill="#A80036" points="449.5,874.3486,459.5,878.3486,449.5,882.3486,453.5,878.3486" style="stroke: #A80036; stroke-width: 1.0;"/><line style="stroke: #A80036; stroke-width: 1.0;" x1="71" x2="455.5" y1="878.3486" y2="878.3486"/><text fill="#000000" font-family="sans-serif" font-size="13" lengthAdjust="spacingAndGlyphs" textLength="43" x="78" y="873.4922">println()</text><polygon fill="#A80036" points="82,888.3486,72,892.3486,82,896.3486,78,892.3486" style="stroke: #A80036; stroke-width: 1.0;"/><line style="stroke: #A80036; stroke-width: 1.0; stroke-dasharray: 2.0,2.0;" x1="76" x2="460.5" y1="892.3486" y2="892.3486"/><path d="M10,914.3486 L249,914.3486 L249,923.3486 L239,933.3486 L10,933.3486 L10,914.3486 " fill="#EEEEEE" style="stroke: #000000; stroke-width: 1.0;"/><rect fill="none" height="111.5679" style="stroke: #000000; stroke-width: 2.0;" width="588.5" x="10" y="914.3486"/><text fill="#000000" font-family="sans-serif" font-size="13" font-weight="bold" lengthAdjust="spacingAndGlyphs" textLength="194" x="25" y="930.3481">int diceRoll(gameSystem.Dice)</text><polygon fill="#A80036" points="370.5,954.0605,380.5,958.0605,370.5,962.0605,374.5,958.0605" style="stroke: #A80036; stroke-width: 1.0;"/><line style="stroke: #A80036; stroke-width: 1.0;" x1="71" x2="376.5" y1="958.0605" y2="958.0605"/><text fill="#000000" font-family="sans-serif" font-size="13" lengthAdjust="spacingAndGlyphs" textLength="25" x="78" y="953.2041">roll()</text><polygon fill="#A80036" points="541,985.9165,551,989.9165,541,993.9165,545,989.9165" style="stroke: #A80036; stroke-width: 1.0;"/><line style="stroke: #A80036; stroke-width: 1.0;" x1="382.5" x2="547" y1="989.9165" y2="989.9165"/><text fill="#000000" font-family="sans-serif" font-size="13" lengthAdjust="spacingAndGlyphs" textLength="61" x="389.5" y="985.0601">nextInt(int)</text><polygon fill="#A80036" points="393.5,999.9165,383.5,1003.9165,393.5,1007.9165,389.5,1003.9165" style="stroke: #A80036; stroke-width: 1.0;"/><line style="stroke: #A80036; stroke-width: 1.0; stroke-dasharray: 2.0,2.0;" x1="387.5" x2="552" y1="1003.9165" y2="1003.9165"/><polygon fill="#A80036" points="82,1013.9165,72,1017.9165,82,1021.9165,78,1017.9165" style="stroke: #A80036; stroke-width: 1.0;"/><line style="stroke: #A80036; stroke-width: 1.0; stroke-dasharray: 2.0,2.0;" x1="76" x2="381.5" y1="1017.9165" y2="1017.9165"/><path d="M10,1039.9165 L280,1039.9165 L280,1048.9165 L270,1058.9165 L10,1058.9165 L10,1039.9165 " fill="#EEEEEE" style="stroke: #000000; stroke-width: 1.0;"/><rect fill="none" height="249.1357" style="stroke: #000000; stroke-width: 2.0;" width="507.5" x="10" y="1039.9165"/><text fill="#000000" font-family="sans-serif" font-size="13" font-weight="bold" lengthAdjust="spacingAndGlyphs" textLength="225" x="25" y="1055.916">void move(int, gameSystem.Player)</text><polygon fill="#A80036" points="308.5,1079.6284,318.5,1083.6284,308.5,1087.6284,312.5,1083.6284" style="stroke: #A80036; stroke-width: 1.0;"/><line style="stroke: #A80036; stroke-width: 1.0;" x1="71" x2="314.5" y1="1083.6284" y2="1083.6284"/><text fill="#000000" font-family="sans-serif" font-size="13" lengthAdjust="spacingAndGlyphs" textLength="49" x="78" y="1078.772">getPos()</text><polygon fill="#A80036" points="82,1093.6284,72,1097.6284,82,1101.6284,78,1097.6284" style="stroke: #A80036; stroke-width: 1.0;"/><line style="stroke: #A80036; stroke-width: 1.0; stroke-dasharray: 2.0,2.0;" x1="76" x2="319.5" y1="1097.6284" y2="1097.6284"/><polygon fill="#A80036" points="247,1125.4844,257,1129.4844,247,1133.4844,251,1129.4844" style="stroke: #A80036; stroke-width: 1.0;"/><line style="stroke: #A80036; stroke-width: 1.0;" x1="71" x2="253" y1="1129.4844" y2="1129.4844"/><text fill="#000000" font-family="sans-serif" font-size="13" lengthAdjust="spacingAndGlyphs" textLength="52" x="78" y="1124.6279">getSize()</text><polygon fill="#A80036" points="82,1139.4844,72,1143.4844,82,1147.4844,78,1143.4844" style="stroke: #A80036; stroke-width: 1.0;"/><line style="stroke: #A80036; stroke-width: 1.0; stroke-dasharray: 2.0,2.0;" x1="76" x2="258" y1="1143.4844" y2="1143.4844"/><polygon fill="#A80036" points="247,1171.3403,257,1175.3403,247,1179.3403,251,1175.3403" style="stroke: #A80036; stroke-width: 1.0;"/><line style="stroke: #A80036; stroke-width: 1.0;" x1="71" x2="253" y1="1175.3403" y2="1175.3403"/><text fill="#000000" font-family="sans-serif" font-size="13" lengthAdjust="spacingAndGlyphs" textLength="72" x="78" y="1170.4839">getEvent(int)</text><polygon fill="#A80036" points="82,1185.3403,72,1189.3403,82,1193.3403,78,1189.3403" style="stroke: #A80036; stroke-width: 1.0;"/><line style="stroke: #A80036; stroke-width: 1.0; stroke-dasharray: 2.0,2.0;" x1="76" x2="258" y1="1189.3403" y2="1189.3403"/><polygon fill="#A80036" points="449.5,1217.1963,459.5,1221.1963,449.5,1225.1963,453.5,1221.1963" style="stroke: #A80036; stroke-width: 1.0;"/><line style="stroke: #A80036; stroke-width: 1.0;" x1="71" x2="455.5" y1="1221.1963" y2="1221.1963"/><text fill="#000000" font-family="sans-serif" font-size="13" lengthAdjust="spacingAndGlyphs" textLength="131" x="78" y="1216.3398">println(java.lang.String)</text><polygon fill="#A80036" points="82,1231.1963,72,1235.1963,82,1239.1963,78,1235.1963" style="stroke: #A80036; stroke-width: 1.0;"/><line style="stroke: #A80036; stroke-width: 1.0; stroke-dasharray: 2.0,2.0;" x1="76" x2="460.5" y1="1235.1963" y2="1235.1963"/><polygon fill="#A80036" points="308.5,1263.0522,318.5,1267.0522,308.5,1271.0522,312.5,1267.0522" style="stroke: #A80036; stroke-width: 1.0;"/><line style="stroke: #A80036; stroke-width: 1.0;" x1="71" x2="314.5" y1="1267.0522" y2="1267.0522"/><text fill="#000000" font-family="sans-serif" font-size="13" lengthAdjust="spacingAndGlyphs" textLength="63" x="78" y="1262.1958">setPos(int)</text><polygon fill="#A80036" points="82,1277.0522,72,1281.0522,82,1285.0522,78,1281.0522" style="stroke: #A80036; stroke-width: 1.0;"/><line style="stroke: #A80036; stroke-width: 1.0; stroke-dasharray: 2.0,2.0;" x1="76" x2="319.5" y1="1281.0522" y2="1281.0522"/><path d="M10,1303.0522 L162,1303.0522 L162,1312.0522 L152,1322.0522 L10,1322.0522 L10,1303.0522 " fill="#EEEEEE" style="stroke: #000000; stroke-width: 1.0;"/><rect fill="none" height="65.7119" style="stroke: #000000; stroke-width: 2.0;" width="507.5" x="10" y="1303.0522"/><text fill="#000000" font-family="sans-serif" font-size="13" font-weight="bold" lengthAdjust="spacingAndGlyphs" textLength="107" x="25" y="1319.0518">void printResult()</text><polygon fill="#A80036" points="449.5,1342.7642,459.5,1346.7642,449.5,1350.7642,453.5,1346.7642" style="stroke: #A80036; stroke-width: 1.0;"/><line style="stroke: #A80036; stroke-width: 1.0;" x1="71" x2="455.5" y1="1346.7642" y2="1346.7642"/><text fill="#000000" font-family="sans-serif" font-size="13" lengthAdjust="spacingAndGlyphs" textLength="131" x="78" y="1341.9077">println(java.lang.String)</text><polygon fill="#A80036" points="82,1356.7642,72,1360.7642,82,1364.7642,78,1360.7642" style="stroke: #A80036; stroke-width: 1.0;"/><line style="stroke: #A80036; stroke-width: 1.0; stroke-dasharray: 2.0,2.0;" x1="76" x2="460.5" y1="1360.7642" y2="1360.7642"/><!--MD5=[54d9cb921a98c5c1c7ab5645d50ef612]
@startuml
group new GameSystem(int[][])
	GameSystem->Map : Map()
		Map- ->GameSystem
	GameSystem->Player : Player(java.lang.String)
		Player- ->GameSystem
end

group void playGame(java.lang.String)
	GameSystem->Player : Player(java.lang.String)
		Player- ->GameSystem
	GameSystem->GameSystem : diceSetting()
	GameSystem->GameSystem : main()
end

group void diceSetting()
	GameSystem->Dice : Dice(int[])
		Dice- ->GameSystem
end

group void printPos(gameSystem.Player)
	GameSystem->Player : getPos()
		Player- ->GameSystem
	GameSystem->Map : getSize()
		Map- ->GameSystem
	GameSystem->PrintStream : println(java.lang.String)
		PrintStream- ->GameSystem
	GameSystem->PrintStream : print(java.lang.String)
		PrintStream- ->GameSystem
	GameSystem->PrintStream : println()
		PrintStream- ->GameSystem
end

group Dice choiceDice(gameSystem.Player)
	GameSystem->PrintStream : println(java.lang.String)
		PrintStream- ->GameSystem
	GameSystem->GameSystem : printPos(gameSystem.Player)
	GameSystem->PrintStream : print(java.lang.String)
		PrintStream- ->GameSystem
	GameSystem->PrintStream : println()
		PrintStream- ->GameSystem
end

group int diceRoll(gameSystem.Dice)
	GameSystem->Dice : roll()
		Dice->Random : nextInt(int)
			Random- ->Dice
		Dice- ->GameSystem
end

group void move(int, gameSystem.Player)
	GameSystem->Player : getPos()
		Player- ->GameSystem
	GameSystem->Map : getSize()
		Map- ->GameSystem
	GameSystem->Map : getEvent(int)
		Map- ->GameSystem
	GameSystem->PrintStream : println(java.lang.String)
		PrintStream- ->GameSystem
	GameSystem->Player : setPos(int)
		Player- ->GameSystem
end

group void printResult()
	GameSystem->PrintStream : println(java.lang.String)
		PrintStream- ->GameSystem
end

@enduml

PlantUML version 1.2020.19(Tue Oct 13 00:10:01 KST 2020)
(APACHE source distribution)
Java Runtime: Java(TM) SE Runtime Environment
JVM: Java HotSpot(TM) 64-Bit Server VM
Default Encoding: MS949
Language: ko
Country: KR
--></g></svg>