<?xml version="1.0" encoding="UTF-8" standalone="no"?><svg xmlns="http://www.w3.org/2000/svg" xmlns:xlink="http://www.w3.org/1999/xlink" contentScriptType="application/ecmascript" contentStyleType="text/css" height="2422px" preserveAspectRatio="none" style="width:303px;height:2422px;" version="1.1" viewBox="0 0 303 2422" width="303px" zoomAndPan="magnify"><defs><filter height="300%" id="f15ajlp3u1du58" width="300%" x="-1" y="-1"><feGaussianBlur result="blurOut" stdDeviation="2.0"/><feColorMatrix in="blurOut" result="blurOut2" type="matrix" values="0 0 0 0 0 0 0 0 0 0 0 0 0 0 0 0 0 0 .4 0"/><feOffset dx="4.0" dy="4.0" in="blurOut2" result="blurOut3"/><feBlend in="SourceGraphic" in2="blurOut3" mode="normal"/></filter></defs><g><!--MD5=[d1253df6aab9823366b61485574d0392]
cluster fun298430307--><rect fill="#FFFFFF" filter="url(#f15ajlp3u1du58)" height="88" style="stroke: #000000; stroke-width: 1.5;" width="96" x="164.5" y="231"/><text fill="#000000" font-family="sans-serif" font-size="14" font-weight="bold" lengthAdjust="spacingAndGlyphs" textLength="80" x="172.5" y="249.1533">diceSetting</text><!--MD5=[08ffa70f718e0a89770c1cfc50f929f3]
cluster fun1970982267--><rect fill="#FFFFFF" filter="url(#f15ajlp3u1du58)" height="88" style="stroke: #000000; stroke-width: 1.5;" width="157" x="134" y="343"/><text fill="#000000" font-family="sans-serif" font-size="14" font-weight="bold" lengthAdjust="spacingAndGlyphs" textLength="33" x="196" y="361.1533">main</text><!--MD5=[e0b8f51b736f8acf65936289d47aad5b]
cluster fun1464555023--><rect fill="#FFFFFF" filter="url(#f15ajlp3u1du58)" height="224" style="stroke: #000000; stroke-width: 1.5;" width="157" x="134" y="635"/><text fill="#000000" font-family="sans-serif" font-size="14" font-weight="bold" lengthAdjust="spacingAndGlyphs" textLength="78" x="173.5" y="653.1533">choiceDice</text><!--MD5=[aca5d50469556485b2181a5f0cd3a019]
cluster fun195381554--><rect fill="#FFFFFF" filter="url(#f15ajlp3u1du58)" height="88" style="stroke: #000000; stroke-width: 1.5;" width="78" x="173.5" y="119"/><text fill="#000000" font-family="sans-serif" font-size="14" font-weight="bold" lengthAdjust="spacingAndGlyphs" textLength="57" x="184" y="137.1533">diceRoll</text><!--MD5=[1caca3fbeb8c6af35b45ae5089fd0b0c]
cluster fun681008168--><rect fill="#FFFFFF" filter="url(#f15ajlp3u1du58)" height="224" style="stroke: #000000; stroke-width: 1.5;" width="143" x="141" y="883"/><text fill="#000000" font-family="sans-serif" font-size="14" font-weight="bold" lengthAdjust="spacingAndGlyphs" textLength="39" x="193" y="901.1533">move</text><!--MD5=[3f5156a2d01da39da1913127fa97811b]
cluster fun917831210--><rect fill="#FFFFFF" filter="url(#f15ajlp3u1du58)" height="224" style="stroke: #000000; stroke-width: 1.5;" width="143" x="141" y="1131"/><text fill="#000000" font-family="sans-serif" font-size="14" font-weight="bold" lengthAdjust="spacingAndGlyphs" textLength="59" x="183" y="1149.1533">printPos</text><!--MD5=[6efae9be572b647e7688e79d5daa54a9]
cluster fun1810899357--><rect fill="#FFFFFF" filter="url(#f15ajlp3u1du58)" height="88" style="stroke: #000000; stroke-width: 1.5;" width="113" x="156" y="7"/><text fill="#000000" font-family="sans-serif" font-size="14" font-weight="bold" lengthAdjust="spacingAndGlyphs" textLength="23" x="201" y="25.1533">roll</text><!--MD5=[664f1094e0fd611a0612821d924fa812]
cluster fun495702238--><rect fill="#FFFFFF" filter="url(#f15ajlp3u1du58)" height="156" style="stroke: #000000; stroke-width: 1.5;" width="106" x="160" y="1379"/><text fill="#000000" font-family="sans-serif" font-size="14" font-weight="bold" lengthAdjust="spacingAndGlyphs" textLength="90" x="168" y="1397.1533">GameSystem</text><!--MD5=[341fb5d5f56c667fc853bc54385529ac]
cluster fun73181251--><rect fill="#FFFFFF" filter="url(#f15ajlp3u1du58)" height="156" style="stroke: #000000; stroke-width: 1.5;" width="157" x="134" y="455"/><text fill="#000000" font-family="sans-serif" font-size="14" font-weight="bold" lengthAdjust="spacingAndGlyphs" textLength="68" x="178.5" y="473.1533">playGame</text><!--MD5=[ed75e892cd53b7751e43fa6d767b25cf]
entity fun142247393--><rect fill="#FFFFFF" filter="url(#f15ajlp3u1du58)" height="39.2295" style="stroke: #000000; stroke-width: 1.5;" width="61" x="17.5" y="2139.5"/><text fill="#000000" font-family="sans-serif" font-size="14" lengthAdjust="spacingAndGlyphs" textLength="41" x="27.5" y="2165.6533">nextInt</text><!--MD5=[b7e0d1597baa66727867a9c53732030a]
entity fun360207322--><rect fill="#FFFFFF" filter="url(#f15ajlp3u1du58)" height="39.2295" style="stroke: #000000; stroke-width: 1.5;" width="47" x="24.5" y="2065.5"/><text fill="#000000" font-family="sans-serif" font-size="14" lengthAdjust="spacingAndGlyphs" textLength="27" x="34.5" y="2091.6533">Map</text><!--MD5=[644c3d3614868841f7e543cfd63f9588]
entity fun231786897--><rect fill="#FFFFFF" filter="url(#f15ajlp3u1du58)" height="39.2295" style="stroke: #000000; stroke-width: 1.5;" width="60" x="18" y="1991.5"/><text fill="#000000" font-family="sans-serif" font-size="14" lengthAdjust="spacingAndGlyphs" textLength="40" x="28" y="2017.6533">Player</text><ellipse cx="212.299" cy="286.0973" fill="#FEFECE" filter="url(#f15ajlp3u1du58)" rx="22.799" ry="16.5973" style="stroke: #A80036; stroke-width: 1.5;"/><text fill="#000000" font-family="sans-serif" font-size="14" lengthAdjust="spacingAndGlyphs" textLength="28" x="198.299" y="292.2121">Dice</text><ellipse cx="212.397" cy="398.0973" fill="#FEFECE" filter="url(#f15ajlp3u1du58)" rx="62.397" ry="16.5973" style="stroke: #A80036; stroke-width: 1.5;"/><text fill="#000000" font-family="sans-serif" font-size="14" lengthAdjust="spacingAndGlyphs" textLength="84" x="170.397" y="404.2121">GameSystem</text><!--MD5=[2b7c01d04cc4e3862751aa9d0406b26d]
entity fun1019298652--><rect fill="#FFFFFF" filter="url(#f15ajlp3u1du58)" height="39.2295" style="stroke: #000000; stroke-width: 1.5;" width="48" x="24" y="1917.5"/><text fill="#000000" font-family="sans-serif" font-size="14" lengthAdjust="spacingAndGlyphs" textLength="28" x="34" y="1943.6533">Dice</text><ellipse cx="212.2843" cy="826.0973" fill="#FEFECE" filter="url(#f15ajlp3u1du58)" rx="31.2843" ry="16.5973" style="stroke: #A80036; stroke-width: 1.5;"/><text fill="#000000" font-family="sans-serif" font-size="14" lengthAdjust="spacingAndGlyphs" textLength="40" x="192.2843" y="832.2121">Player</text><ellipse cx="212.3259" cy="758.0973" fill="#FEFECE" filter="url(#f15ajlp3u1du58)" rx="55.3259" ry="16.5973" style="stroke: #A80036; stroke-width: 1.5;"/><text fill="#000000" font-family="sans-serif" font-size="14" lengthAdjust="spacingAndGlyphs" textLength="74" x="175.3259" y="764.2121">PrintStream</text><ellipse cx="212.397" cy="690.0973" fill="#FEFECE" filter="url(#f15ajlp3u1du58)" rx="62.397" ry="16.5973" style="stroke: #A80036; stroke-width: 1.5;"/><text fill="#000000" font-family="sans-serif" font-size="14" lengthAdjust="spacingAndGlyphs" textLength="84" x="170.397" y="696.2121">GameSystem</text><ellipse cx="212.299" cy="174.0973" fill="#FEFECE" filter="url(#f15ajlp3u1du58)" rx="22.799" ry="16.5973" style="stroke: #A80036; stroke-width: 1.5;"/><text fill="#000000" font-family="sans-serif" font-size="14" lengthAdjust="spacingAndGlyphs" textLength="28" x="198.299" y="180.2121">Dice</text><ellipse cx="212.2843" cy="1006.0973" fill="#FEFECE" filter="url(#f15ajlp3u1du58)" rx="31.2843" ry="16.5973" style="stroke: #A80036; stroke-width: 1.5;"/><text fill="#000000" font-family="sans-serif" font-size="14" lengthAdjust="spacingAndGlyphs" textLength="40" x="192.2843" y="1012.2121">Player</text><ellipse cx="212.5919" cy="1074.0973" fill="#FEFECE" filter="url(#f15ajlp3u1du58)" rx="22.0919" ry="16.5973" style="stroke: #A80036; stroke-width: 1.5;"/><text fill="#000000" font-family="sans-serif" font-size="14" lengthAdjust="spacingAndGlyphs" textLength="27" x="199.0919" y="1080.2121">Map</text><ellipse cx="212.3259" cy="938.0973" fill="#FEFECE" filter="url(#f15ajlp3u1du58)" rx="55.3259" ry="16.5973" style="stroke: #A80036; stroke-width: 1.5;"/><text fill="#000000" font-family="sans-serif" font-size="14" lengthAdjust="spacingAndGlyphs" textLength="74" x="175.3259" y="944.2121">PrintStream</text><!--MD5=[1b8935fde176045a65b62051ea625d8d]
entity fun1778081847--><rect fill="#FFFFFF" filter="url(#f15ajlp3u1du58)" height="39.2295" style="stroke: #000000; stroke-width: 1.5;" width="64" x="16" y="1843.5"/><text fill="#000000" font-family="sans-serif" font-size="14" lengthAdjust="spacingAndGlyphs" textLength="44" x="26" y="1869.6533">getPos</text><!--MD5=[90208324f4f0a0ea56655f4fdbbca1ea]
entity fun119290689--><rect fill="#FFFFFF" filter="url(#f15ajlp3u1du58)" height="39.2295" style="stroke: #000000; stroke-width: 1.5;" width="66" x="15" y="1769.5"/><text fill="#000000" font-family="sans-serif" font-size="14" lengthAdjust="spacingAndGlyphs" textLength="46" x="25" y="1795.6533">getSize</text><!--MD5=[95180eca2256e766e1532c613d3863bd]
entity fun707161353--><rect fill="#FFFFFF" filter="url(#f15ajlp3u1du58)" height="39.2295" style="stroke: #000000; stroke-width: 1.5;" width="59" x="18.5" y="1695.5"/><text fill="#000000" font-family="sans-serif" font-size="14" lengthAdjust="spacingAndGlyphs" textLength="39" x="28.5" y="1721.6533">println</text><!--MD5=[2968e32f732c040b3acfa1947f514588]
entity fun1522132780--><rect fill="#FFFFFF" filter="url(#f15ajlp3u1du58)" height="39.2295" style="stroke: #000000; stroke-width: 1.5;" width="48" x="24" y="1621.5"/><text fill="#000000" font-family="sans-serif" font-size="14" lengthAdjust="spacingAndGlyphs" textLength="28" x="34" y="1647.6533">print</text><!--MD5=[d4fad432777f9700fdcda575668df306]
entity fun409962262--><rect fill="#FFFFFF" filter="url(#f15ajlp3u1du58)" height="39.2295" style="stroke: #000000; stroke-width: 1.5;" width="59" x="18.5" y="1547.5"/><text fill="#000000" font-family="sans-serif" font-size="14" lengthAdjust="spacingAndGlyphs" textLength="39" x="28.5" y="1573.6533">println</text><ellipse cx="212.2843" cy="1254.0973" fill="#FEFECE" filter="url(#f15ajlp3u1du58)" rx="31.2843" ry="16.5973" style="stroke: #A80036; stroke-width: 1.5;"/><text fill="#000000" font-family="sans-serif" font-size="14" lengthAdjust="spacingAndGlyphs" textLength="40" x="192.2843" y="1260.2121">Player</text><ellipse cx="212.5919" cy="1322.0973" fill="#FEFECE" filter="url(#f15ajlp3u1du58)" rx="22.0919" ry="16.5973" style="stroke: #A80036; stroke-width: 1.5;"/><text fill="#000000" font-family="sans-serif" font-size="14" lengthAdjust="spacingAndGlyphs" textLength="27" x="199.0919" y="1328.2121">Map</text><ellipse cx="212.3259" cy="1186.0973" fill="#FEFECE" filter="url(#f15ajlp3u1du58)" rx="55.3259" ry="16.5973" style="stroke: #A80036; stroke-width: 1.5;"/><text fill="#000000" font-family="sans-serif" font-size="14" lengthAdjust="spacingAndGlyphs" textLength="74" x="175.3259" y="1192.2121">PrintStream</text><ellipse cx="212.4767" cy="62.0973" fill="#FEFECE" filter="url(#f15ajlp3u1du58)" rx="40.4767" ry="16.5973" style="stroke: #A80036; stroke-width: 1.5;"/><text fill="#000000" font-family="sans-serif" font-size="14" lengthAdjust="spacingAndGlyphs" textLength="53" x="185.9767" y="68.2121">Random</text><!--MD5=[45fef7ccf1c224bbb21aff48cf78596c]
entity fun594427726--><rect fill="#FFFFFF" filter="url(#f15ajlp3u1du58)" height="39.2295" style="stroke: #000000; stroke-width: 1.5;" width="76" x="10" y="1473.5"/><text fill="#000000" font-family="sans-serif" font-size="14" lengthAdjust="spacingAndGlyphs" textLength="56" x="20" y="1499.6533">getEvent</text><!--MD5=[e8f223e4a83e6e2572525db580e0d8e7]
entity fun57497692--><rect fill="#FFFFFF" filter="url(#f15ajlp3u1du58)" height="39.2295" style="stroke: #000000; stroke-width: 1.5;" width="63" x="16.5" y="1399.5"/><text fill="#000000" font-family="sans-serif" font-size="14" lengthAdjust="spacingAndGlyphs" textLength="43" x="26.5" y="1425.6533">setPos</text><ellipse cx="212.5919" cy="1502.0973" fill="#FEFECE" filter="url(#f15ajlp3u1du58)" rx="22.0919" ry="16.5973" style="stroke: #A80036; stroke-width: 1.5;"/><text fill="#000000" font-family="sans-serif" font-size="14" lengthAdjust="spacingAndGlyphs" textLength="27" x="199.0919" y="1508.2121">Map</text><ellipse cx="212.2843" cy="1434.0973" fill="#FEFECE" filter="url(#f15ajlp3u1du58)" rx="31.2843" ry="16.5973" style="stroke: #A80036; stroke-width: 1.5;"/><text fill="#000000" font-family="sans-serif" font-size="14" lengthAdjust="spacingAndGlyphs" textLength="40" x="192.2843" y="1440.2121">Player</text><ellipse cx="212.2843" cy="578.0973" fill="#FEFECE" filter="url(#f15ajlp3u1du58)" rx="31.2843" ry="16.5973" style="stroke: #A80036; stroke-width: 1.5;"/><text fill="#000000" font-family="sans-serif" font-size="14" lengthAdjust="spacingAndGlyphs" textLength="40" x="192.2843" y="584.2121">Player</text><ellipse cx="212.397" cy="510.0973" fill="#FEFECE" filter="url(#f15ajlp3u1du58)" rx="62.397" ry="16.5973" style="stroke: #A80036; stroke-width: 1.5;"/><text fill="#000000" font-family="sans-serif" font-size="14" lengthAdjust="spacingAndGlyphs" textLength="84" x="170.397" y="516.2121">GameSystem</text><!--MD5=[4a2d323da9bfea9d20bd746c56e91d7d]
entity actor90767234--><ellipse cx="48" cy="141.5" fill="#FEFECE" filter="url(#f15ajlp3u1du58)" rx="8" ry="8" style="stroke: #A80036; stroke-width: 1.5;"/><path d="M48,149.5 L48,176.5 M35,157.5 L61,157.5 M48,176.5 L35,191.5 M48,176.5 L61,191.5 " fill="none" filter="url(#f15ajlp3u1du58)" style="stroke: #A80036; stroke-width: 1.5;"/><text fill="#000000" font-family="sans-serif" font-size="14" lengthAdjust="spacingAndGlyphs" textLength="28" x="34" y="213.1533">Dice</text><!--MD5=[4c5745422a062a7744bf932a63a19784]
entity actor1016363973--><ellipse cx="48" cy="2223.5" fill="#FEFECE" filter="url(#f15ajlp3u1du58)" rx="8" ry="8" style="stroke: #A80036; stroke-width: 1.5;"/><path d="M48,2231.5 L48,2258.5 M35,2239.5 L61,2239.5 M48,2258.5 L35,2273.5 M48,2258.5 L61,2273.5 " fill="none" filter="url(#f15ajlp3u1du58)" style="stroke: #A80036; stroke-width: 1.5;"/><text fill="#000000" font-family="sans-serif" font-size="14" lengthAdjust="spacingAndGlyphs" textLength="22" x="37" y="2295.1533">null</text><!--MD5=[64693db850a8c15614deae348c47d225]
entity actor1355457888--><ellipse cx="48" cy="823.5" fill="#FEFECE" filter="url(#f15ajlp3u1du58)" rx="8" ry="8" style="stroke: #A80036; stroke-width: 1.5;"/><path d="M48,831.5 L48,858.5 M35,839.5 L61,839.5 M48,858.5 L35,873.5 M48,858.5 L61,873.5 " fill="none" filter="url(#f15ajlp3u1du58)" style="stroke: #A80036; stroke-width: 1.5;"/><text fill="#000000" font-family="sans-serif" font-size="14" lengthAdjust="spacingAndGlyphs" textLength="84" x="6" y="895.1533">GameSystem</text><!--MD5=[24bd082bb37f9ac8163fb97ff8762c2c]
entity actor1620948027--><ellipse cx="48" cy="973.5" fill="#FEFECE" filter="url(#f15ajlp3u1du58)" rx="8" ry="8" style="stroke: #A80036; stroke-width: 1.5;"/><path d="M48,981.5 L48,1008.5 M35,989.5 L61,989.5 M48,1008.5 L35,1023.5 M48,1008.5 L61,1023.5 " fill="none" filter="url(#f15ajlp3u1du58)" style="stroke: #A80036; stroke-width: 1.5;"/><text fill="#000000" font-family="sans-serif" font-size="14" lengthAdjust="spacingAndGlyphs" textLength="40" x="28" y="1045.1533">Player</text><!--MD5=[9a5703e960450841282c86480202433d]
entity actor1442191055--><ellipse cx="48" cy="1289.5" fill="#FEFECE" filter="url(#f15ajlp3u1du58)" rx="8" ry="8" style="stroke: #A80036; stroke-width: 1.5;"/><path d="M48,1297.5 L48,1324.5 M35,1305.5 L61,1305.5 M48,1324.5 L35,1339.5 M48,1324.5 L61,1339.5 " fill="none" filter="url(#f15ajlp3u1du58)" style="stroke: #A80036; stroke-width: 1.5;"/><text fill="#000000" font-family="sans-serif" font-size="14" lengthAdjust="spacingAndGlyphs" textLength="27" x="34.5" y="1361.1533">Map</text><!--MD5=[6244530c5e9aedc6d7eedafc0e731a51]
entity actor324457684--><ellipse cx="48" cy="2342.5" fill="#FEFECE" filter="url(#f15ajlp3u1du58)" rx="8" ry="8" style="stroke: #A80036; stroke-width: 1.5;"/><path d="M48,2350.5 L48,2377.5 M35,2358.5 L61,2358.5 M48,2377.5 L35,2392.5 M48,2377.5 L61,2392.5 " fill="none" filter="url(#f15ajlp3u1du58)" style="stroke: #A80036; stroke-width: 1.5;"/><text fill="#000000" font-family="sans-serif" font-size="14" lengthAdjust="spacingAndGlyphs" textLength="37" x="29.5" y="2414.1533">String</text><!--MD5=[a6442613da88f74e1f54abe7f2a8b4a5]
entity actor1729779847--><ellipse cx="48" cy="477.5" fill="#FEFECE" filter="url(#f15ajlp3u1du58)" rx="8" ry="8" style="stroke: #A80036; stroke-width: 1.5;"/><path d="M48,485.5 L48,512.5 M35,493.5 L61,493.5 M48,512.5 L35,527.5 M48,512.5 L61,527.5 " fill="none" filter="url(#f15ajlp3u1du58)" style="stroke: #A80036; stroke-width: 1.5;"/><text fill="#000000" font-family="sans-serif" font-size="14" lengthAdjust="spacingAndGlyphs" textLength="30" x="33" y="549.1533">Main</text><!--MD5=[1f8489e9636089b18f25476d502bcc53]
entity actor201576232--><ellipse cx="212.5" cy="2223.5" fill="#FEFECE" filter="url(#f15ajlp3u1du58)" rx="8" ry="8" style="stroke: #A80036; stroke-width: 1.5;"/><path d="M212.5,2231.5 L212.5,2258.5 M199.5,2239.5 L225.5,2239.5 M212.5,2258.5 L199.5,2273.5 M212.5,2258.5 L225.5,2273.5 " fill="none" filter="url(#f15ajlp3u1du58)" style="stroke: #A80036; stroke-width: 1.5;"/><text fill="#000000" font-family="sans-serif" font-size="14" lengthAdjust="spacingAndGlyphs" textLength="53" x="186" y="2295.1533">Random</text><!--MD5=[05a46b0b307cb8bb0b44118b99febaf5]
entity actor20094719--><ellipse cx="212.5" cy="2342.5" fill="#FEFECE" filter="url(#f15ajlp3u1du58)" rx="8" ry="8" style="stroke: #A80036; stroke-width: 1.5;"/><path d="M212.5,2350.5 L212.5,2377.5 M199.5,2358.5 L225.5,2358.5 M212.5,2377.5 L199.5,2392.5 M212.5,2377.5 L225.5,2392.5 " fill="none" filter="url(#f15ajlp3u1du58)" style="stroke: #A80036; stroke-width: 1.5;"/><text fill="#000000" font-family="sans-serif" font-size="14" lengthAdjust="spacingAndGlyphs" textLength="74" x="175.5" y="2414.1533">PrintStream</text><!--MD5=[59586d8d9caa7c815fc6c669dfafd92c]
link actor1355457888 to UC0--><path d="M54.88,813.61 C70.99,698.06 115.41,384.84 126,365 C142.18,334.69 174.57,309.8 194.51,296.49 " fill="none" id="actor1355457888-UC0" style="stroke: #A80036; stroke-width: 1.0;"/><!--MD5=[52ea50627ad9836e2c13ec8bdd9486bc]
link actor90767234 to UC0--><path d="M62.58,183.36 C92.32,203.86 163.16,252.68 195.23,274.79 " fill="none" id="actor90767234-UC0" style="stroke: #A80036; stroke-width: 1.0;"/><!--MD5=[b3ee1684fb1b35ab7c6a1636d15afd2d]
link actor1355457888 to UC1--><path d="M54.26,813.74 C65.52,727.51 93.6,534.56 126,477 C141.07,450.23 168.38,427.4 188.09,413.27 " fill="none" id="actor1355457888-UC1" style="stroke: #A80036; stroke-width: 1.0;"/><!--MD5=[96c4614f382769071996f74716239c6a]
link actor1729779847 to UC1--><path d="M63.14,500.26 C91.4,480.78 155.07,436.89 189.08,413.45 " fill="none" id="actor1729779847-UC1" style="stroke: #A80036; stroke-width: 1.0;"/><!--MD5=[70d05470b525818e857c2812e251483a]
link actor1355457888 to UC2--><path d="M90.01,848.43 C118.87,843.1 156.8,836.1 182.55,831.35 " fill="none" id="actor1355457888-UC2" style="stroke: #A80036; stroke-width: 1.0;"/><!--MD5=[80f3a379a85d14529e68c87139eb742d]
link actor1620948027 to UC2--><path d="M68.05,978.41 C82.94,957.51 104.63,928.49 126,905 C148.3,880.48 177.12,854.96 194.95,839.78 " fill="none" id="actor1620948027-UC2" style="stroke: #A80036; stroke-width: 1.0;"/><!--MD5=[0b742e0df71232efde290768bd3b33bd]
link actor1355457888 to UC3--><path d="M90.38,817.58 C101.44,808.46 113.74,799.28 126,792 C140.97,783.11 158.69,775.62 174.11,769.96 " fill="none" id="actor1355457888-UC3" style="stroke: #A80036; stroke-width: 1.0;"/><!--MD5=[1873f4ee9b7cd3d2b0161b399e5a00b5]
link actor1355457888 to UC4--><path d="M64.9,813.87 C77.6,785.17 97.95,748.14 126,724 C137.74,713.89 152.86,706.56 167.12,701.36 " fill="none" id="actor1355457888-UC4" style="stroke: #A80036; stroke-width: 1.0;"/><!--MD5=[fac5d1f25c5bff926670af2cd1d956c0]
link actor1729779847 to UC4--><path d="M63.07,530.55 C77.82,551.56 102.11,584.74 126,611 C147.35,634.47 174.67,658.87 192.61,674.22 " fill="none" id="actor1729779847-UC4" style="stroke: #A80036; stroke-width: 1.0;"/><!--MD5=[b8e8c0376373c8ac97a40369f2ac39f3]
link actor1355457888 to UC5--><path d="M55.42,813.74 C63.83,757.82 78.82,656.12 90,569 C108,428.8 62.09,379.08 126,253 C141.53,222.36 174.14,197.57 194.3,184.38 " fill="none" id="actor1355457888-UC5" style="stroke: #A80036; stroke-width: 1.0;"/><!--MD5=[57ce7c91c72d2f78d453a8b2192d559e]
link actor90767234 to UC5--><path d="M62.58,174 C90.65,174 155.3,174 189.45,174 " fill="none" id="actor90767234-UC5" style="stroke: #A80036; stroke-width: 1.0;"/><!--MD5=[9bb559fe06c440356c47ff7abd7ab6bd]
link actor1355457888 to UC6--><path d="M68.86,898.25 C82.12,922.6 101.6,952.2 126,972 C142.75,985.59 165.61,994.3 183.48,999.5 " fill="none" id="actor1355457888-UC6" style="stroke: #A80036; stroke-width: 1.0;"/><!--MD5=[3b4953ac9b02b4efa52dd5607fe470f1]
link actor1620948027 to UC6--><path d="M68.28,1006 C96.11,1006 147.81,1006 180.89,1006 " fill="none" id="actor1620948027-UC6" style="stroke: #A80036; stroke-width: 1.0;"/><!--MD5=[3e11654c5c90fb43a55a2de99edd1e65]
link actor1355457888 to UC7--><path d="M68.94,898.34 C75.81,913.31 83.43,930.32 90,946 C107.28,987.26 94.57,1008.17 126,1040 C143.62,1057.85 171.79,1066.59 190.94,1070.69 " fill="none" id="actor1355457888-UC7" style="stroke: #A80036; stroke-width: 1.0;"/><!--MD5=[8bc14fca81198e596457d2f10c230ebc]
link actor1442191055 to UC7--><path d="M62.58,1280.65 C75.52,1244.84 97.28,1192.71 126,1153 C146.25,1125 177.6,1099.16 196.18,1085.08 " fill="none" id="actor1442191055-UC7" style="stroke: #A80036; stroke-width: 1.0;"/><!--MD5=[9214ef3713fdf42cff02fc8403025282]
link actor1355457888 to UC8--><path d="M90.01,876.69 C119.25,891.45 157.79,910.9 183.55,923.89 " fill="none" id="actor1355457888-UC8" style="stroke: #A80036; stroke-width: 1.0;"/><!--MD5=[47415be4887b64181c5931718363df72]
link actor1355457888 to UC9--><path d="M71.28,898.05 C78.27,912.84 85.37,929.82 90,946 C123.83,1064.07 50.55,1123.08 126,1220 C139.35,1237.14 162.64,1245.67 181.55,1249.89 " fill="none" id="actor1355457888-UC9" style="stroke: #A80036; stroke-width: 1.0;"/><!--MD5=[857ebf640cf209d05a95f54183b1b8aa]
link actor1620948027 to UC9--><path d="M53.76,1048 C61.24,1095.52 80.01,1172.47 126,1220 C140.99,1235.5 163.95,1244.11 182.3,1248.78 " fill="none" id="actor1620948027-UC9" style="stroke: #A80036; stroke-width: 1.0;"/><!--MD5=[46e354a6731a0290d1ff912e255a4da6]
link actor1355457888 to UC10--><path d="M71.73,898.43 C78.67,913.12 85.62,929.93 90,946 C110.1,1019.73 79.84,1227.1 126,1288 C141.34,1308.24 170.61,1316.46 190.58,1319.77 " fill="none" id="actor1355457888-UC10" style="stroke: #A80036; stroke-width: 1.0;"/><!--MD5=[534b559e4e360dece54b27a4df2be679]
link actor1442191055 to UC10--><path d="M62.58,1322 C90.87,1322 156.36,1322 190.28,1322 " fill="none" id="actor1442191055-UC10" style="stroke: #A80036; stroke-width: 1.0;"/><!--MD5=[7e6857695ffe43b2babe563f63a9204f]
link actor1355457888 to UC11--><path d="M70.46,898.3 C77.38,913.12 84.65,930.05 90,946 C113.32,1015.51 89.41,1043.46 126,1107 C141.43,1133.8 168.96,1156.78 188.61,1170.94 " fill="none" id="actor1355457888-UC11" style="stroke: #A80036; stroke-width: 1.0;"/><!--MD5=[f9e4f4832b1b3f27b4999e15426bb6b4]
link actor90767234 to UC12--><path d="M62.58,164.64 C91.1,144.98 157.42,99.28 191.09,76.07 " fill="none" id="actor90767234-UC12" style="stroke: #A80036; stroke-width: 1.0;"/><!--MD5=[8be3f925d5926aaa4c252efe2a67d125]
link actor1355457888 to UC13--><path d="M72.07,898.34 C79.03,913.02 85.91,929.86 90,946 C118.56,1058.71 57.44,1374.09 126,1468 C140.98,1488.51 170.33,1496.66 190.43,1499.89 " fill="none" id="actor1355457888-UC13" style="stroke: #A80036; stroke-width: 1.0;"/><!--MD5=[9c2bf1b81e091dedeffea03793254aab]
link actor1442191055 to UC13--><path d="M62.56,1339.77 C71.07,1351.4 81.93,1367.15 90,1382 C109.79,1418.4 96.44,1438.96 126,1468 C143.78,1485.46 171.64,1494.27 190.69,1498.48 " fill="none" id="actor1442191055-UC13" style="stroke: #A80036; stroke-width: 1.0;"/><!--MD5=[4f5f6fe53234db0e9cfd1435ee70b561]
link actor1355457888 to UC14--><path d="M71.89,898.39 C78.84,913.07 85.76,929.89 90,946 C136.49,1122.46 45.59,1191.19 126,1355 C140.43,1384.39 170.83,1408.22 191.22,1421.76 " fill="none" id="actor1355457888-UC14" style="stroke: #A80036; stroke-width: 1.0;"/><!--MD5=[9ea6aff9e9da05cf18f99b45c7650008]
link actor1620948027 to UC14--><path d="M55.09,1048.31 C67.27,1129.29 96.04,1302.8 126,1355 C142.3,1383.4 172.21,1407.49 191.97,1421.35 " fill="none" id="actor1620948027-UC14" style="stroke: #A80036; stroke-width: 1.0;"/><!--MD5=[dbd76dd135a525852bb2b95050b77af9]
link actor1355457888 to UC15--><path d="M59.31,813.71 C70.93,771.5 92.68,706.02 126,657 C144.41,629.92 173.76,605.48 192.83,591.18 " fill="none" id="actor1355457888-UC15" style="stroke: #A80036; stroke-width: 1.0;"/><!--MD5=[28f73aca38634c1a553b14d74f95a3da]
link actor1620948027 to UC15--><path d="M68,970.15 C75.95,953.75 84.57,933.81 90,915 C122.1,803.76 72.36,759.6 126,657 C141.17,627.99 171.38,604.06 191.52,590.4 " fill="none" id="actor1620948027-UC15" style="stroke: #A80036; stroke-width: 1.0;"/><!--MD5=[57cb6ba331c3a44ec18b6beccbdbd3ff]
link actor1355457888 to UC16--><path d="M54.56,813.93 C65.29,738.47 90.94,584.21 126,544 C135.66,532.92 149.42,525.42 163.08,520.35 " fill="none" id="actor1355457888-UC16" style="stroke: #A80036; stroke-width: 1.0;"/><!--MD5=[74ec6f0a24ed997f07ba4d9e287d6345]
link actor1729779847 to UC16--><path d="M63.14,510 C82.44,510 118.27,510 149.88,510 " fill="none" id="actor1729779847-UC16" style="stroke: #A80036; stroke-width: 1.0;"/><!--MD5=[a0463b6c4cc13c00cfa296fa85992b8a]
link actor1016363973 to actor324457684--><!--MD5=[c8cc87736d40b74ddf2dc5e690ad7e01]
link actor1016363973 to actor201576232--><!--MD5=[2b788f0359a13abc363ed84c5b72aac6]
link actor201576232 to actor20094719--><!--MD5=[ade6c2ed145e191bd159eabf24b9e6e1]
@startuml
 left to right direction

actor Dice as actor90767234
actor null as actor1016363973
actor GameSystem as actor1355457888
actor Player as actor1620948027
actor Map as actor1442191055
actor String as actor324457684
actor Main as actor1729779847
actor Random as actor201576232
actor PrintStream as actor20094719
	rectangle "nextInt" as fun142247393{
	}
	rectangle "Map" as fun360207322{
	}
	rectangle "Player" as fun231786897{
	}
	rectangle "diceSetting" as fun298430307{
	usecase "Dice" as UC0
		actor1355457888- -UC0
		actor90767234- -UC0
	}
	rectangle "main" as fun1970982267{
	usecase "GameSystem" as UC1
		actor1355457888- -UC1
		actor1729779847- -UC1
	}
	rectangle "Dice" as fun1019298652{
	}
	rectangle "choiceDice" as fun1464555023{
	usecase "Player" as UC2
		actor1355457888- -UC2
		actor1620948027- -UC2
	usecase "PrintStream" as UC3
		actor1355457888- -UC3
	usecase "GameSystem" as UC4
		actor1355457888- -UC4
		actor1729779847- -UC4
	}
	rectangle "diceRoll" as fun195381554{
	usecase "Dice" as UC5
		actor1355457888- -UC5
		actor90767234- -UC5
	}
	rectangle "move" as fun681008168{
	usecase "Player" as UC6
		actor1355457888- -UC6
		actor1620948027- -UC6
	usecase "Map" as UC7
		actor1355457888- -UC7
		actor1442191055- -UC7
	usecase "PrintStream" as UC8
		actor1355457888- -UC8
	}
	rectangle "getPos" as fun1778081847{
	}
	rectangle "getSize" as fun119290689{
	}
	rectangle "println" as fun707161353{
	}
	rectangle "print" as fun1522132780{
	}
	rectangle "println" as fun409962262{
	}
	rectangle "printPos" as fun917831210{
	usecase "Player" as UC9
		actor1355457888- -UC9
		actor1620948027- -UC9
	usecase "Map" as UC10
		actor1355457888- -UC10
		actor1442191055- -UC10
	usecase "PrintStream" as UC11
		actor1355457888- -UC11
	}
	rectangle "roll" as fun1810899357{
	usecase "Random" as UC12
		actor90767234- -UC12
	}
	rectangle "getEvent" as fun594427726{
	}
	rectangle "setPos" as fun57497692{
	}
	rectangle "GameSystem" as fun495702238{
	usecase "Map" as UC13
		actor1355457888- -UC13
		actor1442191055- -UC13
	usecase "Player" as UC14
		actor1355457888- -UC14
		actor1620948027- -UC14
	}
	rectangle "playGame" as fun73181251{
	usecase "Player" as UC15
		actor1355457888- -UC15
		actor1620948027- -UC15
	usecase "GameSystem" as UC16
		actor1355457888- -UC16
		actor1729779847- -UC16
	}

@enduml

PlantUML version 1.2020.19(Tue Oct 13 00:10:01 KST 2020)
(APACHE source distribution)
Java Runtime: Java(TM) SE Runtime Environment
JVM: Java HotSpot(TM) 64-Bit Server VM
Default Encoding: MS949
Language: ko
Country: KR
--></g></svg>