<?xml version="1.0" encoding="UTF-8" standalone="no"?><svg xmlns="http://www.w3.org/2000/svg" xmlns:xlink="http://www.w3.org/1999/xlink" contentScriptType="application/ecmascript" contentStyleType="text/css" height="553px" preserveAspectRatio="none" style="width:478px;height:553px;" version="1.1" viewBox="0 0 478 553" width="478px" zoomAndPan="magnify"><defs><filter height="300%" id="f16m8yu5g16sft" width="300%" x="-1" y="-1"><feGaussianBlur result="blurOut" stdDeviation="2.0"/><feColorMatrix in="blurOut" result="blurOut2" type="matrix" values="0 0 0 0 0 0 0 0 0 0 0 0 0 0 0 0 0 0 .4 0"/><feOffset dx="4.0" dy="4.0" in="blurOut2" result="blurOut3"/><feBlend in="SourceGraphic" in2="blurOut3" mode="normal"/></filter></defs><g><rect fill="#FFFFFF" filter="url(#f16m8yu5g16sft)" height="65.7119" style="stroke: #000000; stroke-width: 2.0;" width="353.5" x="10" y="60.2295"/><rect fill="#FFFFFF" filter="url(#f16m8yu5g16sft)" height="65.7119" style="stroke: #000000; stroke-width: 2.0;" width="353.5" x="10" y="139.9414"/><rect fill="#FFFFFF" filter="url(#f16m8yu5g16sft)" height="111.5679" style="stroke: #000000; stroke-width: 2.0;" width="454.5" x="10" y="219.6533"/><rect fill="#FFFFFF" filter="url(#f16m8yu5g16sft)" height="65.7119" style="stroke: #000000; stroke-width: 2.0;" width="353.5" x="10" y="345.2212"/><rect fill="#FFFFFF" filter="url(#f16m8yu5g16sft)" height="65.7119" style="stroke: #000000; stroke-width: 2.0;" width="353.5" x="10" y="424.9331"/><line style="stroke: #A80036; stroke-width: 1.0; stroke-dasharray: 5.0,5.0;" x1="71" x2="71" y1="43.2295" y2="507.645"/><line style="stroke: #A80036; stroke-width: 1.0; stroke-dasharray: 5.0,5.0;" x1="327.5" x2="327.5" y1="43.2295" y2="507.645"/><line style="stroke: #A80036; stroke-width: 1.0; stroke-dasharray: 5.0,5.0;" x1="430.5" x2="430.5" y1="43.2295" y2="507.645"/><rect fill="#FEFECE" filter="url(#f16m8yu5g16sft)" height="33.2295" style="stroke: #A80036; stroke-width: 1.5;" width="98" x="20" y="5"/><text fill="#000000" font-family="sans-serif" font-size="14" lengthAdjust="spacingAndGlyphs" textLength="84" x="27" y="28.1533">TestScenario</text><rect fill="#FEFECE" filter="url(#f16m8yu5g16sft)" height="33.2295" style="stroke: #A80036; stroke-width: 1.5;" width="98" x="20" y="506.645"/><text fill="#000000" font-family="sans-serif" font-size="14" lengthAdjust="spacingAndGlyphs" textLength="84" x="27" y="529.7983">TestScenario</text><rect fill="#FEFECE" filter="url(#f16m8yu5g16sft)" height="33.2295" style="stroke: #A80036; stroke-width: 1.5;" width="47" x="302.5" y="5"/><text fill="#000000" font-family="sans-serif" font-size="14" lengthAdjust="spacingAndGlyphs" textLength="33" x="309.5" y="28.1533">Shop</text><rect fill="#FEFECE" filter="url(#f16m8yu5g16sft)" height="33.2295" style="stroke: #A80036; stroke-width: 1.5;" width="47" x="302.5" y="506.645"/><text fill="#000000" font-family="sans-serif" font-size="14" lengthAdjust="spacingAndGlyphs" textLength="33" x="309.5" y="529.7983">Shop</text><rect fill="#FEFECE" filter="url(#f16m8yu5g16sft)" height="33.2295" style="stroke: #A80036; stroke-width: 1.5;" width="43" x="407.5" y="5"/><text fill="#000000" font-family="sans-serif" font-size="14" lengthAdjust="spacingAndGlyphs" textLength="29" x="414.5" y="28.1533">User</text><rect fill="#FEFECE" filter="url(#f16m8yu5g16sft)" height="33.2295" style="stroke: #A80036; stroke-width: 1.5;" width="43" x="407.5" y="506.645"/><text fill="#000000" font-family="sans-serif" font-size="14" lengthAdjust="spacingAndGlyphs" textLength="29" x="414.5" y="529.7983">User</text><path d="M10,60.2295 L130,60.2295 L130,69.2295 L120,79.2295 L10,79.2295 L10,60.2295 " fill="#EEEEEE" style="stroke: #000000; stroke-width: 1.0;"/><rect fill="none" height="65.7119" style="stroke: #000000; stroke-width: 2.0;" width="353.5" x="10" y="60.2295"/><text fill="#000000" font-family="sans-serif" font-size="13" font-weight="bold" lengthAdjust="spacingAndGlyphs" textLength="75" x="25" y="76.229">void Login()</text><polygon fill="#A80036" points="316,99.9414,326,103.9414,316,107.9414,320,103.9414" style="stroke: #A80036; stroke-width: 1.0;"/><line style="stroke: #A80036; stroke-width: 1.0;" x1="71" x2="322" y1="103.9414" y2="103.9414"/><text fill="#000000" font-family="sans-serif" font-size="13" lengthAdjust="spacingAndGlyphs" textLength="219" x="78" y="99.085">login(java.lang.String, java.lang.String)</text><polygon fill="#A80036" points="82,113.9414,72,117.9414,82,121.9414,78,117.9414" style="stroke: #A80036; stroke-width: 1.0;"/><line style="stroke: #A80036; stroke-width: 1.0; stroke-dasharray: 2.0,2.0;" x1="76" x2="327" y1="117.9414" y2="117.9414"/><path d="M10,139.9414 L174,139.9414 L174,148.9414 L164,158.9414 L10,158.9414 L10,139.9414 " fill="#EEEEEE" style="stroke: #000000; stroke-width: 1.0;"/><rect fill="none" height="65.7119" style="stroke: #000000; stroke-width: 2.0;" width="353.5" x="10" y="139.9414"/><text fill="#000000" font-family="sans-serif" font-size="13" font-weight="bold" lengthAdjust="spacingAndGlyphs" textLength="119" x="25" y="155.9409">void Buy_Product()</text><polygon fill="#A80036" points="316,179.6533,326,183.6533,316,187.6533,320,183.6533" style="stroke: #A80036; stroke-width: 1.0;"/><line style="stroke: #A80036; stroke-width: 1.0;" x1="71" x2="322" y1="183.6533" y2="183.6533"/><text fill="#000000" font-family="sans-serif" font-size="13" lengthAdjust="spacingAndGlyphs" textLength="166" x="78" y="178.7969">buy(shop.User, shop.Goods)</text><polygon fill="#A80036" points="82,193.6533,72,197.6533,82,201.6533,78,197.6533" style="stroke: #A80036; stroke-width: 1.0;"/><line style="stroke: #A80036; stroke-width: 1.0; stroke-dasharray: 2.0,2.0;" x1="76" x2="327" y1="197.6533" y2="197.6533"/><path d="M10,219.6533 L189,219.6533 L189,228.6533 L179,238.6533 L10,238.6533 L10,219.6533 " fill="#EEEEEE" style="stroke: #000000; stroke-width: 1.0;"/><rect fill="none" height="111.5679" style="stroke: #000000; stroke-width: 2.0;" width="454.5" x="10" y="219.6533"/><text fill="#000000" font-family="sans-serif" font-size="13" font-weight="bold" lengthAdjust="spacingAndGlyphs" textLength="134" x="25" y="235.6528">void Charge_Money()</text><polygon fill="#A80036" points="316,259.3652,326,263.3652,316,267.3652,320,263.3652" style="stroke: #A80036; stroke-width: 1.0;"/><line style="stroke: #A80036; stroke-width: 1.0;" x1="71" x2="322" y1="263.3652" y2="263.3652"/><text fill="#000000" font-family="sans-serif" font-size="13" lengthAdjust="spacingAndGlyphs" textLength="128" x="78" y="258.5088">charge(shop.User, int)</text><polygon fill="#A80036" points="419,291.2212,429,295.2212,419,299.2212,423,295.2212" style="stroke: #A80036; stroke-width: 1.0;"/><line style="stroke: #A80036; stroke-width: 1.0;" x1="328" x2="425" y1="295.2212" y2="295.2212"/><text fill="#000000" font-family="sans-serif" font-size="13" lengthAdjust="spacingAndGlyphs" textLength="79" x="335" y="290.3647">setMoney(int)</text><polygon fill="#A80036" points="339,305.2212,329,309.2212,339,313.2212,335,309.2212" style="stroke: #A80036; stroke-width: 1.0;"/><line style="stroke: #A80036; stroke-width: 1.0; stroke-dasharray: 2.0,2.0;" x1="333" x2="430" y1="309.2212" y2="309.2212"/><polygon fill="#A80036" points="82,319.2212,72,323.2212,82,327.2212,78,323.2212" style="stroke: #A80036; stroke-width: 1.0;"/><line style="stroke: #A80036; stroke-width: 1.0; stroke-dasharray: 2.0,2.0;" x1="76" x2="327" y1="323.2212" y2="323.2212"/><path d="M10,345.2212 L175,345.2212 L175,354.2212 L165,364.2212 L10,364.2212 L10,345.2212 " fill="#EEEEEE" style="stroke: #000000; stroke-width: 1.0;"/><rect fill="none" height="65.7119" style="stroke: #000000; stroke-width: 2.0;" width="353.5" x="10" y="345.2212"/><text fill="#000000" font-family="sans-serif" font-size="13" font-weight="bold" lengthAdjust="spacingAndGlyphs" textLength="120" x="25" y="361.2207">void Add_Product()</text><polygon fill="#A80036" points="316,384.9331,326,388.9331,316,392.9331,320,388.9331" style="stroke: #A80036; stroke-width: 1.0;"/><line style="stroke: #A80036; stroke-width: 1.0;" x1="71" x2="322" y1="388.9331" y2="388.9331"/><text fill="#000000" font-family="sans-serif" font-size="13" lengthAdjust="spacingAndGlyphs" textLength="233" x="78" y="384.0767">addGoods(shop.Goods, java.lang.String)</text><polygon fill="#A80036" points="82,398.9331,72,402.9331,82,406.9331,78,402.9331" style="stroke: #A80036; stroke-width: 1.0;"/><line style="stroke: #A80036; stroke-width: 1.0; stroke-dasharray: 2.0,2.0;" x1="76" x2="327" y1="402.9331" y2="402.9331"/><path d="M10,424.9331 L170,424.9331 L170,433.9331 L160,443.9331 L10,443.9331 L10,424.9331 " fill="#EEEEEE" style="stroke: #000000; stroke-width: 1.0;"/><rect fill="none" height="65.7119" style="stroke: #000000; stroke-width: 2.0;" width="353.5" x="10" y="424.9331"/><text fill="#000000" font-family="sans-serif" font-size="13" font-weight="bold" lengthAdjust="spacingAndGlyphs" textLength="115" x="25" y="440.9326">void Registration()</text><polygon fill="#A80036" points="316,464.645,326,468.645,316,472.645,320,468.645" style="stroke: #A80036; stroke-width: 1.0;"/><line style="stroke: #A80036; stroke-width: 1.0;" x1="71" x2="322" y1="468.645" y2="468.645"/><text fill="#000000" font-family="sans-serif" font-size="13" lengthAdjust="spacingAndGlyphs" textLength="224" x="78" y="463.7886">regist(java.lang.String, java.lang.String)</text><polygon fill="#A80036" points="82,478.645,72,482.645,82,486.645,78,482.645" style="stroke: #A80036; stroke-width: 1.0;"/><line style="stroke: #A80036; stroke-width: 1.0; stroke-dasharray: 2.0,2.0;" x1="76" x2="327" y1="482.645" y2="482.645"/><!--MD5=[fc682f22c82147e61808ff80b225c284]
@startuml
group void Login()
	TestScenario->Shop : login(java.lang.String, java.lang.String)
		Shop- ->TestScenario
end

group void Buy_Product()
	TestScenario->Shop : buy(shop.User, shop.Goods)
		Shop- ->TestScenario
end

group void Charge_Money()
	TestScenario->Shop : charge(shop.User, int)
		Shop->User : setMoney(int)
			User- ->Shop
		Shop- ->TestScenario
end

group void Add_Product()
	TestScenario->Shop : addGoods(shop.Goods, java.lang.String)
		Shop- ->TestScenario
end

group void Registration()
	TestScenario->Shop : regist(java.lang.String, java.lang.String)
		Shop- ->TestScenario
end

@enduml

PlantUML version 1.2020.19(Tue Oct 13 00:10:01 KST 2020)
(APACHE source distribution)
Java Runtime: Java(TM) SE Runtime Environment
JVM: Java HotSpot(TM) 64-Bit Server VM
Default Encoding: MS949
Language: ko
Country: KR
--></g></svg>