<?xml version="1.0" encoding="UTF-8" standalone="no"?><svg xmlns="http://www.w3.org/2000/svg" xmlns:xlink="http://www.w3.org/1999/xlink" contentScriptType="application/ecmascript" contentStyleType="text/css" height="1685px" preserveAspectRatio="none" style="width:465px;height:1685px;" version="1.1" viewBox="0 0 465 1685" width="465px" zoomAndPan="magnify"><defs><filter height="300%" id="f1sqqlra31bb2v" width="300%" x="-1" y="-1"><feGaussianBlur result="blurOut" stdDeviation="2.0"/><feColorMatrix in="blurOut" result="blurOut2" type="matrix" values="0 0 0 0 0 0 0 0 0 0 0 0 0 0 0 0 0 0 .4 0"/><feOffset dx="4.0" dy="4.0" in="blurOut2" result="blurOut3"/><feBlend in="SourceGraphic" in2="blurOut3" mode="normal"/></filter></defs><g><!--MD5=[c7b92c334c391cc0f2442c3db215ccf4]
cluster PrintStream--><rect fill="#FFFFFF" filter="url(#f1sqqlra31bb2v)" height="224" style="stroke: #000000; stroke-width: 1.5;" width="98" x="164" y="119"/><text fill="#000000" font-family="sans-serif" font-size="14" font-weight="bold" lengthAdjust="spacingAndGlyphs" textLength="82" x="172" y="137.1533">PrintStream</text><!--MD5=[0972a9ad5a37b79112fb90609a2a1468]
cluster GameSystem--><rect fill="#FFFFFF" filter="url(#f1sqqlra31bb2v)" height="564" style="stroke: #000000; stroke-width: 1.5;" width="319" x="134" y="367"/><text fill="#000000" font-family="sans-serif" font-size="14" font-weight="bold" lengthAdjust="spacingAndGlyphs" textLength="90" x="248.5" y="385.1533">GameSystem</text><!--MD5=[5161dec144f101a6c8b812f8860d5cb8]
cluster Map--><rect fill="#FFFFFF" filter="url(#f1sqqlra31bb2v)" height="224" style="stroke: #000000; stroke-width: 1.5;" width="117" x="154" y="955"/><text fill="#000000" font-family="sans-serif" font-size="14" font-weight="bold" lengthAdjust="spacingAndGlyphs" textLength="30" x="197.5" y="973.1533">Map</text><!--MD5=[5461524209f6d72410ba6dbd560b5b78]
cluster Dice--><rect fill="#FFFFFF" filter="url(#f1sqqlra31bb2v)" height="154" style="stroke: #000000; stroke-width: 1.5;" width="78" x="173.5" y="1203"/><text fill="#000000" font-family="sans-serif" font-size="14" font-weight="bold" lengthAdjust="spacingAndGlyphs" textLength="31" x="197" y="1221.1533">Dice</text><!--MD5=[0ba1dcf811818f640fc389b59dfbae80]
cluster Player--><rect fill="#FFFFFF" filter="url(#f1sqqlra31bb2v)" height="292" style="stroke: #000000; stroke-width: 1.5;" width="117" x="154" y="1381"/><text fill="#000000" font-family="sans-serif" font-size="14" font-weight="bold" lengthAdjust="spacingAndGlyphs" textLength="43" x="191" y="1399.1533">Player</text><!--MD5=[1171c12df6274354caf388349f81a45f]
cluster Random--><rect fill="#FFFFFF" filter="url(#f1sqqlra31bb2v)" height="88" style="stroke: #000000; stroke-width: 1.5;" width="96" x="164.5" y="7"/><text fill="#000000" font-family="sans-serif" font-size="14" font-weight="bold" lengthAdjust="spacingAndGlyphs" textLength="57" x="184" y="25.1533">Random</text><ellipse cx="212.5772" cy="174.0973" fill="#FEFECE" filter="url(#f1sqqlra31bb2v)" rx="30.5772" ry="16.5973" style="stroke: #A80036; stroke-width: 1.5;"/><text fill="#000000" font-family="sans-serif" font-size="14" lengthAdjust="spacingAndGlyphs" textLength="39" x="193.0772" y="180.2121">println</text><ellipse cx="212.299" cy="242.0973" fill="#FEFECE" filter="url(#f1sqqlra31bb2v)" rx="22.799" ry="16.5973" style="stroke: #A80036; stroke-width: 1.5;"/><text fill="#000000" font-family="sans-serif" font-size="14" lengthAdjust="spacingAndGlyphs" textLength="28" x="198.299" y="248.2121">print</text><ellipse cx="212.5772" cy="310.0973" fill="#FEFECE" filter="url(#f1sqqlra31bb2v)" rx="30.5772" ry="16.5973" style="stroke: #A80036; stroke-width: 1.5;"/><text fill="#000000" font-family="sans-serif" font-size="14" lengthAdjust="spacingAndGlyphs" textLength="39" x="193.0772" y="316.2121">println</text><ellipse cx="212.397" cy="490.0973" fill="#FEFECE" filter="url(#f1sqqlra31bb2v)" rx="62.397" ry="16.5973" style="stroke: #A80036; stroke-width: 1.5;"/><text fill="#000000" font-family="sans-serif" font-size="14" lengthAdjust="spacingAndGlyphs" textLength="84" x="170.397" y="496.2121">GameSystem</text><ellipse cx="212.2548" cy="422.0973" fill="#FEFECE" filter="url(#f1sqqlra31bb2v)" rx="48.2548" ry="16.5973" style="stroke: #A80036; stroke-width: 1.5;"/><text fill="#000000" font-family="sans-serif" font-size="14" lengthAdjust="spacingAndGlyphs" textLength="64" x="180.2548" y="428.2121">playGame</text><ellipse cx="212.4975" cy="558.0973" fill="#FEFECE" filter="url(#f1sqqlra31bb2v)" rx="52.4975" ry="16.5973" style="stroke: #A80036; stroke-width: 1.5;"/><text fill="#000000" font-family="sans-serif" font-size="14" lengthAdjust="spacingAndGlyphs" textLength="70" x="177.4975" y="564.2121">diceSetting</text><ellipse cx="212.7132" cy="626.0973" fill="#FEFECE" filter="url(#f1sqqlra31bb2v)" rx="24.2132" ry="16.5973" style="stroke: #A80036; stroke-width: 1.5;"/><text fill="#000000" font-family="sans-serif" font-size="14" lengthAdjust="spacingAndGlyphs" textLength="30" x="197.7132" y="632.2121">main</text><ellipse cx="212.2696" cy="694.0973" fill="#FEFECE" filter="url(#f1sqqlra31bb2v)" rx="39.7696" ry="16.5973" style="stroke: #A80036; stroke-width: 1.5;"/><text fill="#000000" font-family="sans-serif" font-size="14" lengthAdjust="spacingAndGlyphs" textLength="52" x="186.2696" y="700.2121">printPos</text><ellipse cx="212.2904" cy="762.0973" fill="#FEFECE" filter="url(#f1sqqlra31bb2v)" rx="51.7904" ry="16.5973" style="stroke: #A80036; stroke-width: 1.5;"/><text fill="#000000" font-family="sans-serif" font-size="14" lengthAdjust="spacingAndGlyphs" textLength="69" x="177.7904" y="768.2121">choiceDice</text><ellipse cx="212.3553" cy="830.0973" fill="#FEFECE" filter="url(#f1sqqlra31bb2v)" rx="38.3553" ry="16.5973" style="stroke: #A80036; stroke-width: 1.5;"/><text fill="#000000" font-family="sans-serif" font-size="14" lengthAdjust="spacingAndGlyphs" textLength="50" x="187.3553" y="836.2121">diceRoll</text><ellipse cx="212.5416" cy="898.0973" fill="#FEFECE" filter="url(#f1sqqlra31bb2v)" rx="27.0416" ry="16.5973" style="stroke: #A80036; stroke-width: 1.5;"/><text fill="#000000" font-family="sans-serif" font-size="14" lengthAdjust="spacingAndGlyphs" textLength="34" x="195.5416" y="904.2121">move</text><ellipse cx="386.0833" cy="490.0973" fill="#FEFECE" filter="url(#f1sqqlra31bb2v)" rx="51.0833" ry="16.5973" style="stroke: #A80036; stroke-width: 1.5;"/><text fill="#000000" font-family="sans-serif" font-size="14" lengthAdjust="spacingAndGlyphs" textLength="68" x="352.0833" y="496.2121">printResult</text><ellipse cx="385.9264" cy="422.0973" fill="#FEFECE" filter="url(#f1sqqlra31bb2v)" rx="45.4264" ry="16.5973" style="stroke: #A80036; stroke-width: 1.5;"/><text fill="#000000" font-family="sans-serif" font-size="14" lengthAdjust="spacingAndGlyphs" textLength="60" x="355.9264" y="428.2121">gameEnd</text><ellipse cx="212.5919" cy="1010.0973" fill="#FEFECE" filter="url(#f1sqqlra31bb2v)" rx="22.0919" ry="16.5973" style="stroke: #A80036; stroke-width: 1.5;"/><text fill="#000000" font-family="sans-serif" font-size="14" lengthAdjust="spacingAndGlyphs" textLength="27" x="199.0919" y="1016.2121">Map</text><ellipse cx="212.5269" cy="1078.0973" fill="#FEFECE" filter="url(#f1sqqlra31bb2v)" rx="35.5269" ry="16.5973" style="stroke: #A80036; stroke-width: 1.5;"/><text fill="#000000" font-family="sans-serif" font-size="14" lengthAdjust="spacingAndGlyphs" textLength="46" x="189.5269" y="1084.2121">getSize</text><ellipse cx="212.598" cy="1146.0973" fill="#FEFECE" filter="url(#f1sqqlra31bb2v)" rx="42.598" ry="16.5973" style="stroke: #A80036; stroke-width: 1.5;"/><text fill="#000000" font-family="sans-serif" font-size="14" lengthAdjust="spacingAndGlyphs" textLength="56" x="184.598" y="1152.2121">getEvent</text><ellipse cx="212.299" cy="1258.0973" fill="#FEFECE" filter="url(#f1sqqlra31bb2v)" rx="22.799" ry="16.5973" style="stroke: #A80036; stroke-width: 1.5;"/><text fill="#000000" font-family="sans-serif" font-size="14" lengthAdjust="spacingAndGlyphs" textLength="28" x="198.299" y="1264.2121">Dice</text><ellipse cx="212.3197" cy="1324.7557" fill="#FEFECE" filter="url(#f1sqqlra31bb2v)" rx="18.3197" ry="15.2557" style="stroke: #A80036; stroke-width: 1.5;"/><text fill="#000000" font-family="sans-serif" font-size="14" lengthAdjust="spacingAndGlyphs" textLength="19" x="202.8197" y="1330.8705">roll</text><ellipse cx="212.2843" cy="1436.0973" fill="#FEFECE" filter="url(#f1sqqlra31bb2v)" rx="31.2843" ry="16.5973" style="stroke: #A80036; stroke-width: 1.5;"/><text fill="#000000" font-family="sans-serif" font-size="14" lengthAdjust="spacingAndGlyphs" textLength="40" x="192.2843" y="1442.2121">Player</text><ellipse cx="212.598" cy="1504.0973" fill="#FEFECE" filter="url(#f1sqqlra31bb2v)" rx="42.598" ry="16.5973" style="stroke: #A80036; stroke-width: 1.5;"/><text fill="#000000" font-family="sans-serif" font-size="14" lengthAdjust="spacingAndGlyphs" textLength="56" x="184.598" y="1510.2121">getName</text><ellipse cx="212.6127" cy="1572.0973" fill="#FEFECE" filter="url(#f1sqqlra31bb2v)" rx="34.1127" ry="16.5973" style="stroke: #A80036; stroke-width: 1.5;"/><text fill="#000000" font-family="sans-serif" font-size="14" lengthAdjust="spacingAndGlyphs" textLength="44" x="190.6127" y="1578.2121">getPos</text><ellipse cx="212.4056" cy="1640.0973" fill="#FEFECE" filter="url(#f1sqqlra31bb2v)" rx="33.4056" ry="16.5973" style="stroke: #A80036; stroke-width: 1.5;"/><text fill="#000000" font-family="sans-serif" font-size="14" lengthAdjust="spacingAndGlyphs" textLength="43" x="190.9056" y="1646.2121">setPos</text><ellipse cx="212.4914" cy="62.0973" fill="#FEFECE" filter="url(#f1sqqlra31bb2v)" rx="31.9914" ry="16.5973" style="stroke: #A80036; stroke-width: 1.5;"/><text fill="#000000" font-family="sans-serif" font-size="14" lengthAdjust="spacingAndGlyphs" textLength="41" x="191.9914" y="68.2121">nextInt</text><!--MD5=[4a2d323da9bfea9d20bd746c56e91d7d]
entity actor90767234--><ellipse cx="48" cy="29.5" fill="#FEFECE" filter="url(#f1sqqlra31bb2v)" rx="8" ry="8" style="stroke: #A80036; stroke-width: 1.5;"/><path d="M48,37.5 L48,64.5 M35,45.5 L61,45.5 M48,64.5 L35,79.5 M48,64.5 L61,79.5 " fill="none" filter="url(#f1sqqlra31bb2v)" style="stroke: #A80036; stroke-width: 1.5;"/><text fill="#000000" font-family="sans-serif" font-size="14" lengthAdjust="spacingAndGlyphs" textLength="28" x="34" y="101.1533">Dice</text><!--MD5=[64693db850a8c15614deae348c47d225]
entity actor1355457888--><ellipse cx="48" cy="865.5" fill="#FEFECE" filter="url(#f1sqqlra31bb2v)" rx="8" ry="8" style="stroke: #A80036; stroke-width: 1.5;"/><path d="M48,873.5 L48,900.5 M35,881.5 L61,881.5 M48,900.5 L35,915.5 M48,900.5 L61,915.5 " fill="none" filter="url(#f1sqqlra31bb2v)" style="stroke: #A80036; stroke-width: 1.5;"/><text fill="#000000" font-family="sans-serif" font-size="14" lengthAdjust="spacingAndGlyphs" textLength="84" x="6" y="937.1533">GameSystem</text><!--MD5=[e10ab7ac8c7d9dc9473de690f6d544f0]
link actor1355457888 to UC707161353--><path d="M51.21,855.53 C58.97,713.28 86.61,259.63 126,208 C139.47,190.35 163.52,181.84 182.69,177.75 " fill="none" id="actor1355457888-UC707161353" style="stroke: #A80036; stroke-width: 1.0;"/><!--MD5=[400e5d1d25acb7c9de5ddcb39d4e3ee7]
link actor1355457888 to UC1522132780--><path d="M48.8,855.96 C49,731.35 55.74,366.95 126,276 C141.23,256.28 169.65,247.97 189.53,244.48 " fill="none" id="actor1355457888-UC1522132780" style="stroke: #A80036; stroke-width: 1.0;"/><!--MD5=[06f11058c079d3cc6586c123e6f26324]
link actor1355457888 to UC409962262--><path d="M51.79,855.86 C59.41,749 82.98,470.13 126,389 C141.34,360.07 171.5,336.12 191.59,322.43 " fill="none" id="actor1355457888-UC409962262" style="stroke: #A80036; stroke-width: 1.0;"/><!--MD5=[5b467be7a98c9246bcfbf96ae962a2e2]
link actor1355457888 to UC298430307--><path d="M48.1,855.94 C48.98,791.37 59.94,667.41 126,592 C136.74,579.74 152.49,571.86 167.56,566.8 " fill="none" id="actor1355457888-UC298430307" style="stroke: #A80036; stroke-width: 1.0;"/><!--MD5=[139cf34043a2015d40c5269e2a5a5fd1]
link actor1355457888 to UC1970982267--><path d="M51.94,855.55 C57.73,803.22 74.94,714.52 126,660 C142.6,642.28 169.63,633.61 188.85,629.5 " fill="none" id="actor1355457888-UC1970982267" style="stroke: #A80036; stroke-width: 1.0;"/><!--MD5=[5e01d4d409e885f54056ab76a5d2c933]
link actor1355457888 to UC917831210--><path d="M58.53,855.69 C69.1,817.68 89.67,762.67 126,728 C139.87,714.77 159.52,706.47 176.49,701.39 " fill="none" id="actor1355457888-UC917831210" style="stroke: #A80036; stroke-width: 1.0;"/><!--MD5=[5eaa4490cf7f4272ba44289b58992e0e]
link actor1355457888 to UC1464555023--><path d="M73.18,855.89 C86.58,835.56 104.83,812.14 126,796 C139.59,785.64 156.76,778 172.14,772.62 " fill="none" id="actor1355457888-UC1464555023" style="stroke: #A80036; stroke-width: 1.0;"/><!--MD5=[a20846727e7773bccc4259817872d0ce]
link actor1355457888 to UC195381554--><path d="M90.04,879.54 C101.63,874.42 114.28,868.92 126,864 C145,856.03 166.56,847.46 183.28,840.92 " fill="none" id="actor1355457888-UC195381554" style="stroke: #A80036; stroke-width: 1.0;"/><!--MD5=[aad308db31773f597a5236e3fee6800f]
link actor1355457888 to UC681008168--><path d="M90.01,898 C119.9,898 159.53,898 185.27,898 " fill="none" id="actor1355457888-UC681008168" style="stroke: #A80036; stroke-width: 1.0;"/><!--MD5=[7d4252bbeac2cb171cdcc315b5eb4e13]
link actor1355457888 to UC360207322--><path d="M90.01,926.26 C124.23,949.85 171.2,982.22 195.49,998.97 " fill="none" id="actor1355457888-UC360207322" style="stroke: #A80036; stroke-width: 1.0;"/><!--MD5=[a94b601ca4713cb593c6f2aabe15cd81]
link actor1355457888 to UC119290689--><path d="M62.19,940.21 C74.21,972.48 94.88,1016.04 126,1044 C141.09,1057.56 162.25,1066.03 179.74,1071.13 " fill="none" id="actor1355457888-UC119290689" style="stroke: #A80036; stroke-width: 1.0;"/><!--MD5=[c9ff21a3cb1abe19fe537435d619ca40]
link actor1355457888 to UC594427726--><path d="M53.76,940 C61.24,987.52 80.01,1064.47 126,1112 C138.88,1125.32 157.65,1133.55 174.32,1138.57 " fill="none" id="actor1355457888-UC594427726" style="stroke: #A80036; stroke-width: 1.0;"/><!--MD5=[0d99988511da012208e323496e8697f5]
link actor1355457888 to UC1019298652--><path d="M53.25,940.39 C60.6,998.04 79.63,1102.71 126,1179 C143.85,1208.36 175.69,1233.56 195.08,1247.18 " fill="none" id="actor1355457888-UC1019298652" style="stroke: #A80036; stroke-width: 1.0;"/><!--MD5=[947cdb116955fd6b434e9856eef2d08c]
link actor1355457888 to UC1810899357--><path d="M52.15,940.34 C59.69,1030.78 81.5,1238.92 126,1292 C143.07,1312.36 174.25,1320.2 193.87,1323.19 " fill="none" id="actor1355457888-UC1810899357" style="stroke: #A80036; stroke-width: 1.0;"/><!--MD5=[b133ec0158a7c52d03e83b50164d9815]
link actor1355457888 to UC231786897--><path d="M52.59,940.33 C61.56,1039.72 87.1,1285.03 126,1357 C141.57,1385.8 171.67,1409.79 191.68,1423.52 " fill="none" id="actor1355457888-UC231786897" style="stroke: #A80036; stroke-width: 1.0;"/><!--MD5=[394ef26ba450886ce700623064030301]
link actor1355457888 to UC1778081847--><path d="M48.63,940.34 C48.33,1067.67 53.73,1444.11 126,1538 C138.76,1554.58 160.85,1563.1 179.38,1567.46 " fill="none" id="actor1355457888-UC1778081847" style="stroke: #A80036; stroke-width: 1.0;"/><!--MD5=[9659dfe40511fa90b6bba1a1a24126d7]
link actor1355457888 to UC57497692--><path d="M51.07,940.06 C58.49,1084.28 85.53,1552.8 126,1606 C138.77,1622.78 161.1,1631.3 179.74,1635.61 " fill="none" id="actor1355457888-UC57497692" style="stroke: #A80036; stroke-width: 1.0;"/><!--MD5=[53cf97cd98e1b120c5ca13e634f541c4]
link actor90767234 to UC142247393--><path d="M62.58,62 C88.28,62 144.67,62 180.21,62 " fill="none" id="actor90767234-UC142247393" style="stroke: #A80036; stroke-width: 1.0;"/><!--MD5=[2e07c266b305f7c03e11524e8e83e801]
link UC495702238 to UC73181251--><!--MD5=[5102cdf4fcbc05d088d4e959bd807479]
link UC495702238 to UC960733886--><!--MD5=[9fcf6824349ed8b46cb2a9fe7578b9cd]
link UC960733886 to UC875917495--><!--MD5=[5ac13489bc0de395bd5d1b81f44ab63b]
@startuml
 left to right direction

actor Dice as actor90767234
actor GameSystem as actor1355457888
rectangle PrintStream{
	usecase println as UC707161353
		actor1355457888 - - UC707161353
	usecase print as UC1522132780
		actor1355457888 - - UC1522132780
	usecase println as UC409962262
		actor1355457888 - - UC409962262
}
rectangle GameSystem{
	usecase GameSystem as UC495702238
	usecase playGame as UC73181251
	usecase diceSetting as UC298430307
		actor1355457888 - - UC298430307
	usecase main as UC1970982267
		actor1355457888 - - UC1970982267
	usecase printPos as UC917831210
		actor1355457888 - - UC917831210
	usecase choiceDice as UC1464555023
		actor1355457888 - - UC1464555023
	usecase diceRoll as UC195381554
		actor1355457888 - - UC195381554
	usecase move as UC681008168
		actor1355457888 - - UC681008168
	usecase printResult as UC960733886
	usecase gameEnd as UC875917495
}
rectangle Map{
	usecase Map as UC360207322
		actor1355457888 - - UC360207322
	usecase getSize as UC119290689
		actor1355457888 - - UC119290689
	usecase getEvent as UC594427726
		actor1355457888 - - UC594427726
}
rectangle Dice{
	usecase Dice as UC1019298652
		actor1355457888 - - UC1019298652
	usecase roll as UC1810899357
		actor1355457888 - - UC1810899357
}
rectangle Player{
	usecase Player as UC231786897
		actor1355457888 - - UC231786897
	usecase getName as UC1595282218
	usecase getPos as UC1778081847
		actor1355457888 - - UC1778081847
	usecase setPos as UC57497692
		actor1355457888 - - UC57497692
}
rectangle Random{
	usecase nextInt as UC142247393
		actor90767234 - - UC142247393
}
@enduml

PlantUML version 1.2020.19(Tue Oct 13 00:10:01 KST 2020)
(APACHE source distribution)
Java Runtime: Java(TM) SE Runtime Environment
JVM: Java HotSpot(TM) 64-Bit Server VM
Default Encoding: MS949
Language: ko
Country: KR
--></g></svg>