<?xml version="1.0" encoding="UTF-8" standalone="no"?><svg xmlns="http://www.w3.org/2000/svg" xmlns:xlink="http://www.w3.org/1999/xlink" contentScriptType="application/ecmascript" contentStyleType="text/css" height="550px" preserveAspectRatio="none" style="width:259px;height:550px;" version="1.1" viewBox="0 0 259 550" width="259px" zoomAndPan="magnify"><defs><filter height="300%" id="f246djpndqpc7" width="300%" x="-1" y="-1"><feGaussianBlur result="blurOut" stdDeviation="2.0"/><feColorMatrix in="blurOut" result="blurOut2" type="matrix" values="0 0 0 0 0 0 0 0 0 0 0 0 0 0 0 0 0 0 .4 0"/><feOffset dx="4.0" dy="4.0" in="blurOut2" result="blurOut3"/><feBlend in="SourceGraphic" in2="blurOut3" mode="normal"/></filter></defs><g><!--MD5=[8ac41235dbb6bab03bbb83319d5ef368]
cluster forMidEx--><polygon fill="#FFFFFF" filter="url(#f246djpndqpc7)" points="16,6,85,6,92,31.2295,242,31.2295,242,543,16,543,16,6" style="stroke: #000000; stroke-width: 1.5;"/><line style="stroke: #000000; stroke-width: 1.5;" x1="16" x2="92" y1="31.2295" y2="31.2295"/><text fill="#000000" font-family="sans-serif" font-size="14" font-weight="bold" lengthAdjust="spacingAndGlyphs" textLength="63" x="20" y="24.1533">forMidEx</text><!--MD5=[bbb640be0fed2d16c0f93f7767474891]
class forMidEx.Game--><rect codeLine="1" fill="#FEFECE" filter="url(#f246djpndqpc7)" height="483.4944" id="forMidEx.Game" style="stroke: #A80036; stroke-width: 1.5;" width="193" x="32.5" y="44"/><ellipse cx="107.75" cy="60" fill="#ADD1B2" rx="11" ry="11" style="stroke: #A80036; stroke-width: 1.0;"/><path d="M107.5781,53.4844 Q105.7031,53.4844 104.5469,55.2344 Q103.3594,57.0156 103.3594,60.0156 Q103.3594,63.3906 104.5625,65.1563 Q105.625,66.7813 107.375,66.7813 Q109.0625,66.7813 110.0156,65.875 Q111.0781,64.8594 111.2188,62.625 Q111.2188,62.2031 110.9844,61.9688 Q110.7969,61.7344 110.4531,61.7031 Q110.125,61.7031 109.8906,61.8906 Q109.625,62.125 109.625,62.5156 Q109.5938,63.9063 109,64.6406 Q108.4688,65.3438 107.5156,65.3438 Q106.3594,65.3438 105.6406,63.9063 Q104.9219,62.4063 104.9219,59.9844 Q104.9219,57.4375 105.8125,56.0469 Q106.5625,54.9219 107.7031,54.9219 Q108.3594,54.9219 108.8594,55.4688 Q109.4219,56.0781 109.5469,57.1406 Q109.5938,57.8438 110.4219,57.7344 Q111.2031,57.625 111.1563,56.9375 Q110.9688,55.4219 110.2031,54.5469 Q109.2656,53.4844 107.5781,53.4844 Z "/><text fill="#000000" font-family="sans-serif" font-size="12" lengthAdjust="spacingAndGlyphs" textLength="34" x="128.25" y="65.6045">Game</text><line style="stroke: #A80036; stroke-width: 1.5;" x1="33.5" x2="224.5" y1="76" y2="76"/><line style="stroke: #A80036; stroke-width: 1.5;" x1="33.5" x2="109" y1="91.5544" y2="91.5544"/><text fill="#008000" font-family="sans-serif" font-size="11" font-weight="bold" lengthAdjust="spacingAndGlyphs" textLength="40" x="109" y="96.1919">has list</text><line style="stroke: #A80036; stroke-width: 1.5;" x1="149" x2="224.5" y1="91.5544" y2="91.5544"/><line style="stroke: #A80036; stroke-width: 1.0; stroke-dasharray: 1.0,2.0;" x1="33.5" x2="116" y1="114.2178" y2="114.2178"/><text fill="#000000" font-family="sans-serif" font-size="11" lengthAdjust="spacingAndGlyphs" textLength="26" x="116" y="118.8552">class</text><line style="stroke: #A80036; stroke-width: 1.0; stroke-dasharray: 1.0,2.0;" x1="142" x2="224.5" y1="114.2178" y2="114.2178"/><text fill="#000000" font-family="sans-serif" font-size="11" lengthAdjust="spacingAndGlyphs" textLength="171" x="38.5" y="157.1274">java.util.Random rand (782505238);</text><text fill="#000000" font-family="sans-serif" font-size="11" lengthAdjust="spacingAndGlyphs" textLength="128" x="38.5" y="172.2363">int winCount (977552154);</text><text fill="#000000" font-family="sans-serif" font-size="11" lengthAdjust="spacingAndGlyphs" textLength="181" x="38.5" y="187.3452">java.lang.String player (1014982340);</text><text fill="#000000" font-family="sans-serif" font-size="11" lengthAdjust="spacingAndGlyphs" textLength="136" x="38.5" y="202.4541">int gameCount (424398527);</text><line style="stroke: #A80036; stroke-width: 1.0; stroke-dasharray: 1.0,2.0;" x1="33.5" x2="110" y1="136.8811" y2="136.8811"/><text fill="#000000" font-family="sans-serif" font-size="11" lengthAdjust="spacingAndGlyphs" textLength="38" x="110" y="141.5186">member</text><line style="stroke: #A80036; stroke-width: 1.0; stroke-dasharray: 1.0,2.0;" x1="148" x2="224.5" y1="136.8811" y2="136.8811"/><text fill="#000000" font-family="sans-serif" font-size="11" lengthAdjust="spacingAndGlyphs" textLength="175" x="38.5" y="236.6719">boolean diceBattle(int) (390689829);</text><text fill="#000000" font-family="sans-serif" font-size="11" lengthAdjust="spacingAndGlyphs" textLength="178" x="38.5" y="251.7808">boolean diecLotto(int[]) (252553541);</text><line style="stroke: #A80036; stroke-width: 1.0; stroke-dasharray: 1.0,2.0;" x1="33.5" x2="111.5" y1="216.4255" y2="216.4255"/><text fill="#000000" font-family="sans-serif" font-size="11" lengthAdjust="spacingAndGlyphs" textLength="35" x="111.5" y="221.063">method</text><line style="stroke: #A80036; stroke-width: 1.0; stroke-dasharray: 1.0,2.0;" x1="146.5" x2="224.5" y1="216.4255" y2="216.4255"/><line style="stroke: #A80036; stroke-width: 1.5;" x1="33.5" x2="101.5" y1="265.7522" y2="265.7522"/><text fill="#0000FF" font-family="sans-serif" font-size="11" font-weight="bold" lengthAdjust="spacingAndGlyphs" textLength="55" x="101.5" y="270.3896">calling list</text><line style="stroke: #A80036; stroke-width: 1.5;" x1="156.5" x2="224.5" y1="265.7522" y2="265.7522"/><text fill="#000000" font-family="sans-serif" font-size="11" lengthAdjust="spacingAndGlyphs" textLength="102" x="38.5" y="308.6619">Game (1208203046);</text><line style="stroke: #A80036; stroke-width: 1.0; stroke-dasharray: 1.0,2.0;" x1="33.5" x2="116" y1="288.4155" y2="288.4155"/><text fill="#000000" font-family="sans-serif" font-size="11" lengthAdjust="spacingAndGlyphs" textLength="26" x="116" y="293.053">class</text><line style="stroke: #A80036; stroke-width: 1.0; stroke-dasharray: 1.0,2.0;" x1="142" x2="224.5" y1="288.4155" y2="288.4155"/><text fill="#000000" font-family="sans-serif" font-size="11" lengthAdjust="spacingAndGlyphs" textLength="128" x="38.5" y="342.8796">int winCount (977552154);</text><text fill="#000000" font-family="sans-serif" font-size="11" lengthAdjust="spacingAndGlyphs" textLength="136" x="38.5" y="357.9885">int gameCount (424398527);</text><line style="stroke: #A80036; stroke-width: 1.0; stroke-dasharray: 1.0,2.0;" x1="33.5" x2="110" y1="322.6333" y2="322.6333"/><text fill="#000000" font-family="sans-serif" font-size="11" lengthAdjust="spacingAndGlyphs" textLength="38" x="110" y="327.2708">member</text><line style="stroke: #A80036; stroke-width: 1.0; stroke-dasharray: 1.0,2.0;" x1="148" x2="224.5" y1="322.6333" y2="322.6333"/><text fill="#000000" font-family="sans-serif" font-size="11" lengthAdjust="spacingAndGlyphs" textLength="175" x="38.5" y="392.2063">boolean diceBattle(int) (390689829);</text><line style="stroke: #A80036; stroke-width: 1.0; stroke-dasharray: 1.0,2.0;" x1="33.5" x2="111.5" y1="371.96" y2="371.96"/><text fill="#000000" font-family="sans-serif" font-size="11" lengthAdjust="spacingAndGlyphs" textLength="35" x="111.5" y="376.5974">method</text><line style="stroke: #A80036; stroke-width: 1.0; stroke-dasharray: 1.0,2.0;" x1="146.5" x2="224.5" y1="371.96" y2="371.96"/><line style="stroke: #A80036; stroke-width: 1.5;" x1="33.5" x2="95" y1="406.1777" y2="406.1777"/><text fill="#FFA500" font-family="sans-serif" font-size="11" font-weight="bold" lengthAdjust="spacingAndGlyphs" textLength="68" x="95" y="410.8152">called by list</text><line style="stroke: #A80036; stroke-width: 1.5;" x1="163" x2="224.5" y1="406.1777" y2="406.1777"/><text fill="#000000" font-family="sans-serif" font-size="11" lengthAdjust="spacingAndGlyphs" textLength="102" x="38.5" y="449.0874">Game (1208203046);</text><line style="stroke: #A80036; stroke-width: 1.0; stroke-dasharray: 1.0,2.0;" x1="33.5" x2="116" y1="428.8411" y2="428.8411"/><text fill="#000000" font-family="sans-serif" font-size="11" lengthAdjust="spacingAndGlyphs" textLength="26" x="116" y="433.4785">class</text><line style="stroke: #A80036; stroke-width: 1.0; stroke-dasharray: 1.0,2.0;" x1="142" x2="224.5" y1="428.8411" y2="428.8411"/><line style="stroke: #A80036; stroke-width: 1.0; stroke-dasharray: 1.0,2.0;" x1="33.5" x2="110" y1="463.0588" y2="463.0588"/><text fill="#000000" font-family="sans-serif" font-size="11" lengthAdjust="spacingAndGlyphs" textLength="38" x="110" y="467.6963">member</text><line style="stroke: #A80036; stroke-width: 1.0; stroke-dasharray: 1.0,2.0;" x1="148" x2="224.5" y1="463.0588" y2="463.0588"/><text fill="#000000" font-family="sans-serif" font-size="11" lengthAdjust="spacingAndGlyphs" textLength="175" x="38.5" y="505.9685">boolean diceBattle(int) (390689829);</text><text fill="#000000" font-family="sans-serif" font-size="11" lengthAdjust="spacingAndGlyphs" textLength="178" x="38.5" y="521.0774">boolean diecLotto(int[]) (252553541);</text><line style="stroke: #A80036; stroke-width: 1.0; stroke-dasharray: 1.0,2.0;" x1="33.5" x2="111.5" y1="485.7222" y2="485.7222"/><text fill="#000000" font-family="sans-serif" font-size="11" lengthAdjust="spacingAndGlyphs" textLength="35" x="111.5" y="490.3596">method</text><line style="stroke: #A80036; stroke-width: 1.0; stroke-dasharray: 1.0,2.0;" x1="146.5" x2="224.5" y1="485.7222" y2="485.7222"/><!--MD5=[d07d9f45769a38866faf80a69f09911d]
@startuml
class forMidEx.Game{
__**<color:green>has list</color>**__
..class..
..member..
	java.util.Random rand (782505238);
	int winCount (977552154);
	java.lang.String player (1014982340);
	int gameCount (424398527);
..method..
	boolean diceBattle(int) (390689829);
	boolean diecLotto(int[]) (252553541);
__**<color:blue>calling list</color>**__
..class..
	Game (1208203046);
..member..
	int winCount (977552154);
	int gameCount (424398527);
..method..
	boolean diceBattle(int) (390689829);
__**<color:orange>called by list</color>**__
..class..
	Game (1208203046);
..member..
..method..
	boolean diceBattle(int) (390689829);
	boolean diecLotto(int[]) (252553541);
}

@enduml

PlantUML version 1.2020.19(Tue Oct 13 00:10:01 KST 2020)
(APACHE source distribution)
Java Runtime: Java(TM) SE Runtime Environment
JVM: Java HotSpot(TM) 64-Bit Server VM
Default Encoding: MS949
Language: ko
Country: KR
--></g></svg>