<?xml version="1.0" encoding="UTF-8" standalone="no"?><svg xmlns="http://www.w3.org/2000/svg" xmlns:xlink="http://www.w3.org/1999/xlink" contentScriptType="application/ecmascript" contentStyleType="text/css" height="560px" preserveAspectRatio="none" style="width:1298px;height:560px;" version="1.1" viewBox="0 0 1298 560" width="1298px" zoomAndPan="magnify"><defs><filter height="300%" id="frc35i52nhq56" width="300%" x="-1" y="-1"><feGaussianBlur result="blurOut" stdDeviation="2.0"/><feColorMatrix in="blurOut" result="blurOut2" type="matrix" values="0 0 0 0 0 0 0 0 0 0 0 0 0 0 0 0 0 0 .4 0"/><feOffset dx="4.0" dy="4.0" in="blurOut2" result="blurOut3"/><feBlend in="SourceGraphic" in2="blurOut3" mode="normal"/></filter></defs><g><!--MD5=[7c6608d7cf625e90131334e1ca091b1a]
cluster Functions--><polygon fill="#FFFFFF" filter="url(#frc35i52nhq56)" points="442.5,6,518.5,6,525.5,31.2295,1281.5,31.2295,1281.5,532,442.5,532,442.5,6" style="stroke: #000000; stroke-width: 1.5;"/><line style="stroke: #000000; stroke-width: 1.5;" x1="442.5" x2="525.5" y1="31.2295" y2="31.2295"/><text fill="#000000" font-family="sans-serif" font-size="14" font-weight="bold" lengthAdjust="spacingAndGlyphs" textLength="70" x="446.5" y="24.1533">Functions</text><!--MD5=[5a822018e30863c35a5886141857235f]
class f1364913072--><rect codeLine="35" fill="#FA8072" filter="url(#frc35i52nhq56)" height="467.4944" id="f1364913072" style="stroke: #A80036; stroke-width: 1.5;" width="354" x="911.5" y="46.5"/><ellipse cx="1038.75" cy="62.5" fill="#ADD1B2" rx="11" ry="11" style="stroke: #A80036; stroke-width: 1.0;"/><path d="M1038.5781,55.9844 Q1036.7031,55.9844 1035.5469,57.7344 Q1034.3594,59.5156 1034.3594,62.5156 Q1034.3594,65.8906 1035.5625,67.6563 Q1036.625,69.2813 1038.375,69.2813 Q1040.0625,69.2813 1041.0156,68.375 Q1042.0781,67.3594 1042.2188,65.125 Q1042.2188,64.7031 1041.9844,64.4688 Q1041.7969,64.2344 1041.4531,64.2031 Q1041.125,64.2031 1040.8906,64.3906 Q1040.625,64.625 1040.625,65.0156 Q1040.5938,66.4063 1040,67.1406 Q1039.4688,67.8438 1038.5156,67.8438 Q1037.3594,67.8438 1036.6406,66.4063 Q1035.9219,64.9063 1035.9219,62.4844 Q1035.9219,59.9375 1036.8125,58.5469 Q1037.5625,57.4219 1038.7031,57.4219 Q1039.3594,57.4219 1039.8594,57.9688 Q1040.4219,58.5781 1040.5469,59.6406 Q1040.5938,60.3438 1041.4219,60.2344 Q1042.2031,60.125 1042.1563,59.4375 Q1041.9688,57.9219 1041.2031,57.0469 Q1040.2656,55.9844 1038.5781,55.9844 Z "/><text fill="#000000" font-family="sans-serif" font-size="12" lengthAdjust="spacingAndGlyphs" textLength="91" x="1059.25" y="68.1045">GuitarAcademy()</text><line style="stroke: #A80036; stroke-width: 1.5;" x1="912.5" x2="1264.5" y1="78.5" y2="78.5"/><text fill="#000000" font-family="sans-serif" font-size="11" lengthAdjust="spacingAndGlyphs" textLength="60" x="917.5" y="95.1919">Static : false</text><text fill="#000000" font-family="sans-serif" font-size="11" lengthAdjust="spacingAndGlyphs" textLength="87" x="917.5" y="110.3008">return Type : new</text><text fill="#000000" font-family="sans-serif" font-size="11" lengthAdjust="spacingAndGlyphs" textLength="118" x="917.5" y="125.4097">hashCode : 1364913072</text><text fill="#000000" font-family="sans-serif" font-size="11" lengthAdjust="spacingAndGlyphs" textLength="69" x="917.5" y="140.5186">ABS Score : 9</text><text fill="#000000" font-family="sans-serif" font-size="11" lengthAdjust="spacingAndGlyphs" textLength="85" x="917.5" y="155.6274">Relative Score : 9</text><line style="stroke: #A80036; stroke-width: 1.5;" x1="912.5" x2="1068.5" y1="169.5989" y2="169.5989"/><text fill="#008000" font-family="sans-serif" font-size="11" font-weight="bold" lengthAdjust="spacingAndGlyphs" textLength="40" x="1068.5" y="174.2363">has list</text><line style="stroke: #A80036; stroke-width: 1.5;" x1="1108.5" x2="1264.5" y1="169.5989" y2="169.5989"/><line style="stroke: #A80036; stroke-width: 1.0; stroke-dasharray: 1.0,2.0;" x1="912.5" x2="1075.5" y1="192.2622" y2="192.2622"/><text fill="#000000" font-family="sans-serif" font-size="11" lengthAdjust="spacingAndGlyphs" textLength="26" x="1075.5" y="196.8997">class</text><line style="stroke: #A80036; stroke-width: 1.0; stroke-dasharray: 1.0,2.0;" x1="1101.5" x2="1264.5" y1="192.2622" y2="192.2622"/><line style="stroke: #A80036; stroke-width: 1.0; stroke-dasharray: 1.0,2.0;" x1="912.5" x2="1069.5" y1="214.9255" y2="214.9255"/><text fill="#000000" font-family="sans-serif" font-size="11" lengthAdjust="spacingAndGlyphs" textLength="38" x="1069.5" y="219.563">member</text><line style="stroke: #A80036; stroke-width: 1.0; stroke-dasharray: 1.0,2.0;" x1="1107.5" x2="1264.5" y1="214.9255" y2="214.9255"/><line style="stroke: #A80036; stroke-width: 1.0; stroke-dasharray: 1.0,2.0;" x1="912.5" x2="1071" y1="237.5889" y2="237.5889"/><text fill="#000000" font-family="sans-serif" font-size="11" lengthAdjust="spacingAndGlyphs" textLength="35" x="1071" y="242.2263">method</text><line style="stroke: #A80036; stroke-width: 1.0; stroke-dasharray: 1.0,2.0;" x1="1106" x2="1264.5" y1="237.5889" y2="237.5889"/><line style="stroke: #A80036; stroke-width: 1.5;" x1="912.5" x2="1061" y1="260.2522" y2="260.2522"/><text fill="#0000FF" font-family="sans-serif" font-size="11" font-weight="bold" lengthAdjust="spacingAndGlyphs" textLength="55" x="1061" y="264.8896">calling list</text><line style="stroke: #A80036; stroke-width: 1.5;" x1="1116" x2="1264.5" y1="260.2522" y2="260.2522"/><text fill="#000000" font-family="sans-serif" font-size="11" lengthAdjust="spacingAndGlyphs" textLength="164" x="917.5" y="303.1619">classRelation.Guitar (712609105);</text><text fill="#000000" font-family="sans-serif" font-size="11" lengthAdjust="spacingAndGlyphs" textLength="181" x="917.5" y="318.2708">classRelation.Guitarist (1836463382);</text><line style="stroke: #A80036; stroke-width: 1.0; stroke-dasharray: 1.0,2.0;" x1="912.5" x2="1075.5" y1="282.9155" y2="282.9155"/><text fill="#000000" font-family="sans-serif" font-size="11" lengthAdjust="spacingAndGlyphs" textLength="26" x="1075.5" y="287.553">class</text><line style="stroke: #A80036; stroke-width: 1.0; stroke-dasharray: 1.0,2.0;" x1="1101.5" x2="1264.5" y1="282.9155" y2="282.9155"/><text fill="#000000" font-family="sans-serif" font-size="11" lengthAdjust="spacingAndGlyphs" textLength="286" x="917.5" y="352.4885">classRelation.GuitarAcademy.academyGuitar (461160828);</text><text fill="#000000" font-family="sans-serif" font-size="11" lengthAdjust="spacingAndGlyphs" textLength="256" x="917.5" y="367.5974">classRelation.GuitarAcademy.teacher (1499867659);</text><line style="stroke: #A80036; stroke-width: 1.0; stroke-dasharray: 1.0,2.0;" x1="912.5" x2="1069.5" y1="332.2422" y2="332.2422"/><text fill="#000000" font-family="sans-serif" font-size="11" lengthAdjust="spacingAndGlyphs" textLength="38" x="1069.5" y="336.8796">member</text><line style="stroke: #A80036; stroke-width: 1.0; stroke-dasharray: 1.0,2.0;" x1="1107.5" x2="1264.5" y1="332.2422" y2="332.2422"/><text fill="#000000" font-family="sans-serif" font-size="11" lengthAdjust="spacingAndGlyphs" textLength="204" x="917.5" y="401.8152">classRelation.Guitar.Guitar() (609962972);</text><text fill="#000000" font-family="sans-serif" font-size="11" lengthAdjust="spacingAndGlyphs" textLength="342" x="917.5" y="416.9241">classRelation.Guitarist.classRelation.Guitarist.Guitarist() (1740797075);</text><line style="stroke: #A80036; stroke-width: 1.0; stroke-dasharray: 1.0,2.0;" x1="912.5" x2="1071" y1="381.5688" y2="381.5688"/><text fill="#000000" font-family="sans-serif" font-size="11" lengthAdjust="spacingAndGlyphs" textLength="35" x="1071" y="386.2063">method</text><line style="stroke: #A80036; stroke-width: 1.0; stroke-dasharray: 1.0,2.0;" x1="1106" x2="1264.5" y1="381.5688" y2="381.5688"/><line style="stroke: #A80036; stroke-width: 1.5;" x1="912.5" x2="1054.5" y1="430.8955" y2="430.8955"/><text fill="#FFA500" font-family="sans-serif" font-size="11" font-weight="bold" lengthAdjust="spacingAndGlyphs" textLength="68" x="1054.5" y="435.533">called by list</text><line style="stroke: #A80036; stroke-width: 1.5;" x1="1122.5" x2="1264.5" y1="430.8955" y2="430.8955"/><line style="stroke: #A80036; stroke-width: 1.0; stroke-dasharray: 1.0,2.0;" x1="912.5" x2="1075.5" y1="453.5588" y2="453.5588"/><text fill="#000000" font-family="sans-serif" font-size="11" lengthAdjust="spacingAndGlyphs" textLength="26" x="1075.5" y="458.1963">class</text><line style="stroke: #A80036; stroke-width: 1.0; stroke-dasharray: 1.0,2.0;" x1="1101.5" x2="1264.5" y1="453.5588" y2="453.5588"/><line style="stroke: #A80036; stroke-width: 1.0; stroke-dasharray: 1.0,2.0;" x1="912.5" x2="1069.5" y1="476.2222" y2="476.2222"/><text fill="#000000" font-family="sans-serif" font-size="11" lengthAdjust="spacingAndGlyphs" textLength="38" x="1069.5" y="480.8596">member</text><line style="stroke: #A80036; stroke-width: 1.0; stroke-dasharray: 1.0,2.0;" x1="1107.5" x2="1264.5" y1="476.2222" y2="476.2222"/><line style="stroke: #A80036; stroke-width: 1.0; stroke-dasharray: 1.0,2.0;" x1="912.5" x2="1071" y1="498.8855" y2="498.8855"/><text fill="#000000" font-family="sans-serif" font-size="11" lengthAdjust="spacingAndGlyphs" textLength="35" x="1071" y="503.5229">method</text><line style="stroke: #A80036; stroke-width: 1.0; stroke-dasharray: 1.0,2.0;" x1="1106" x2="1264.5" y1="498.8855" y2="498.8855"/><!--MD5=[1e2feb665cf16cc68f8469c1eb54440f]
class f440938038--><rect codeLine="61" fill="#FA8072" filter="url(#frc35i52nhq56)" height="471.9399" id="f440938038" style="stroke: #A80036; stroke-width: 1.5;" width="417" x="459" y="44"/><ellipse cx="577.75" cy="60" fill="#ADD1B2" rx="11" ry="11" style="stroke: #A80036; stroke-width: 1.0;"/><path d="M577.5781,53.4844 Q575.7031,53.4844 574.5469,55.2344 Q573.3594,57.0156 573.3594,60.0156 Q573.3594,63.3906 574.5625,65.1563 Q575.625,66.7813 577.375,66.7813 Q579.0625,66.7813 580.0156,65.875 Q581.0781,64.8594 581.2188,62.625 Q581.2188,62.2031 580.9844,61.9688 Q580.7969,61.7344 580.4531,61.7031 Q580.125,61.7031 579.8906,61.8906 Q579.625,62.125 579.625,62.5156 Q579.5938,63.9063 579,64.6406 Q578.4688,65.3438 577.5156,65.3438 Q576.3594,65.3438 575.6406,63.9063 Q574.9219,62.4063 574.9219,59.9844 Q574.9219,57.4375 575.8125,56.0469 Q576.5625,54.9219 577.7031,54.9219 Q578.3594,54.9219 578.8594,55.4688 Q579.4219,56.0781 579.5469,57.1406 Q579.5938,57.8438 580.4219,57.7344 Q581.2031,57.625 581.1563,56.9375 Q580.9688,55.4219 580.2031,54.5469 Q579.2656,53.4844 577.5781,53.4844 Z "/><text fill="#000000" font-family="sans-serif" font-size="12" lengthAdjust="spacingAndGlyphs" textLength="171" x="598.25" y="65.6045">lesson(classRelation.Guitarist)</text><line style="stroke: #A80036; stroke-width: 1.5;" x1="460" x2="875" y1="76" y2="76"/><text fill="#000000" font-family="sans-serif" font-size="11" lengthAdjust="spacingAndGlyphs" textLength="60" x="465" y="92.6919">Static : false</text><text fill="#000000" font-family="sans-serif" font-size="11" lengthAdjust="spacingAndGlyphs" textLength="85" x="465" y="107.8008">return Type : void</text><text fill="#000000" font-family="sans-serif" font-size="11" lengthAdjust="spacingAndGlyphs" textLength="112" x="465" y="122.9097">hashCode : 440938038</text><text fill="#000000" font-family="sans-serif" font-size="11" lengthAdjust="spacingAndGlyphs" textLength="75" x="465" y="138.0186">ABS Score : 10</text><text fill="#000000" font-family="sans-serif" font-size="11" lengthAdjust="spacingAndGlyphs" textLength="91" x="465" y="153.1274">Relative Score : 10</text><line style="stroke: #A80036; stroke-width: 1.5;" x1="460" x2="647.5" y1="167.0989" y2="167.0989"/><text fill="#008000" font-family="sans-serif" font-size="11" font-weight="bold" lengthAdjust="spacingAndGlyphs" textLength="40" x="647.5" y="171.7363">has list</text><line style="stroke: #A80036; stroke-width: 1.5;" x1="687.5" x2="875" y1="167.0989" y2="167.0989"/><line style="stroke: #A80036; stroke-width: 1.0; stroke-dasharray: 1.0,2.0;" x1="460" x2="654.5" y1="189.7622" y2="189.7622"/><text fill="#000000" font-family="sans-serif" font-size="11" lengthAdjust="spacingAndGlyphs" textLength="26" x="654.5" y="194.3997">class</text><line style="stroke: #A80036; stroke-width: 1.0; stroke-dasharray: 1.0,2.0;" x1="680.5" x2="875" y1="189.7622" y2="189.7622"/><text fill="#000000" font-family="sans-serif" font-size="11" lengthAdjust="spacingAndGlyphs" textLength="405" x="465" y="232.6719">classRelation.GuitarAcademy.lesson(classRelation.Guitarist).student (2012993836);</text><line style="stroke: #A80036; stroke-width: 1.0; stroke-dasharray: 1.0,2.0;" x1="460" x2="648.5" y1="212.4255" y2="212.4255"/><text fill="#000000" font-family="sans-serif" font-size="11" lengthAdjust="spacingAndGlyphs" textLength="38" x="648.5" y="217.063">member</text><line style="stroke: #A80036; stroke-width: 1.0; stroke-dasharray: 1.0,2.0;" x1="686.5" x2="875" y1="212.4255" y2="212.4255"/><line style="stroke: #A80036; stroke-width: 1.0; stroke-dasharray: 1.0,2.0;" x1="460" x2="650" y1="246.6433" y2="246.6433"/><text fill="#000000" font-family="sans-serif" font-size="11" lengthAdjust="spacingAndGlyphs" textLength="35" x="650" y="251.2808">method</text><line style="stroke: #A80036; stroke-width: 1.0; stroke-dasharray: 1.0,2.0;" x1="685" x2="875" y1="246.6433" y2="246.6433"/><line style="stroke: #A80036; stroke-width: 1.5;" x1="460" x2="640" y1="269.3066" y2="269.3066"/><text fill="#0000FF" font-family="sans-serif" font-size="11" font-weight="bold" lengthAdjust="spacingAndGlyphs" textLength="55" x="640" y="273.9441">calling list</text><line style="stroke: #A80036; stroke-width: 1.5;" x1="695" x2="875" y1="269.3066" y2="269.3066"/><text fill="#000000" font-family="sans-serif" font-size="11" lengthAdjust="spacingAndGlyphs" textLength="181" x="465" y="312.2163">classRelation.Guitarist (1836463382);</text><line style="stroke: #A80036; stroke-width: 1.0; stroke-dasharray: 1.0,2.0;" x1="460" x2="654.5" y1="291.97" y2="291.97"/><text fill="#000000" font-family="sans-serif" font-size="11" lengthAdjust="spacingAndGlyphs" textLength="26" x="654.5" y="296.6074">class</text><line style="stroke: #A80036; stroke-width: 1.0; stroke-dasharray: 1.0,2.0;" x1="680.5" x2="875" y1="291.97" y2="291.97"/><text fill="#000000" font-family="sans-serif" font-size="11" lengthAdjust="spacingAndGlyphs" textLength="256" x="465" y="346.4341">classRelation.GuitarAcademy.teacher (1499867659);</text><text fill="#000000" font-family="sans-serif" font-size="11" lengthAdjust="spacingAndGlyphs" textLength="405" x="465" y="361.543">classRelation.GuitarAcademy.lesson(classRelation.Guitarist).student (2012993836);</text><line style="stroke: #A80036; stroke-width: 1.0; stroke-dasharray: 1.0,2.0;" x1="460" x2="648.5" y1="326.1877" y2="326.1877"/><text fill="#000000" font-family="sans-serif" font-size="11" lengthAdjust="spacingAndGlyphs" textLength="38" x="648.5" y="330.8252">member</text><line style="stroke: #A80036; stroke-width: 1.0; stroke-dasharray: 1.0,2.0;" x1="686.5" x2="875" y1="326.1877" y2="326.1877"/><text fill="#000000" font-family="sans-serif" font-size="11" lengthAdjust="spacingAndGlyphs" textLength="327" x="465" y="395.7607">classRelation.Guitarist.playSong(classRelation.Guitar) (934275857);</text><line style="stroke: #A80036; stroke-width: 1.0; stroke-dasharray: 1.0,2.0;" x1="460" x2="650" y1="375.5144" y2="375.5144"/><text fill="#000000" font-family="sans-serif" font-size="11" lengthAdjust="spacingAndGlyphs" textLength="35" x="650" y="380.1519">method</text><line style="stroke: #A80036; stroke-width: 1.0; stroke-dasharray: 1.0,2.0;" x1="685" x2="875" y1="375.5144" y2="375.5144"/><line style="stroke: #A80036; stroke-width: 1.5;" x1="460" x2="633.5" y1="409.7322" y2="409.7322"/><text fill="#FFA500" font-family="sans-serif" font-size="11" font-weight="bold" lengthAdjust="spacingAndGlyphs" textLength="68" x="633.5" y="414.3696">called by list</text><line style="stroke: #A80036; stroke-width: 1.5;" x1="701.5" x2="875" y1="409.7322" y2="409.7322"/><text fill="#000000" font-family="sans-serif" font-size="11" lengthAdjust="spacingAndGlyphs" textLength="216" x="465" y="452.6418">classRelation.GuitarAcademy (1388278453);</text><line style="stroke: #A80036; stroke-width: 1.0; stroke-dasharray: 1.0,2.0;" x1="460" x2="654.5" y1="432.3955" y2="432.3955"/><text fill="#000000" font-family="sans-serif" font-size="11" lengthAdjust="spacingAndGlyphs" textLength="26" x="654.5" y="437.033">class</text><line style="stroke: #A80036; stroke-width: 1.0; stroke-dasharray: 1.0,2.0;" x1="680.5" x2="875" y1="432.3955" y2="432.3955"/><line style="stroke: #A80036; stroke-width: 1.0; stroke-dasharray: 1.0,2.0;" x1="460" x2="648.5" y1="466.6133" y2="466.6133"/><text fill="#000000" font-family="sans-serif" font-size="11" lengthAdjust="spacingAndGlyphs" textLength="38" x="648.5" y="471.2507">member</text><line style="stroke: #A80036; stroke-width: 1.0; stroke-dasharray: 1.0,2.0;" x1="686.5" x2="875" y1="466.6133" y2="466.6133"/><text fill="#000000" font-family="sans-serif" font-size="11" lengthAdjust="spacingAndGlyphs" textLength="360" x="465" y="509.5229">classRelation.GuitarAcademy.lesson(classRelation.Guitarist) (440938038);</text><line style="stroke: #A80036; stroke-width: 1.0; stroke-dasharray: 1.0,2.0;" x1="460" x2="650" y1="489.2766" y2="489.2766"/><text fill="#000000" font-family="sans-serif" font-size="11" lengthAdjust="spacingAndGlyphs" textLength="35" x="650" y="493.9141">method</text><line style="stroke: #A80036; stroke-width: 1.0; stroke-dasharray: 1.0,2.0;" x1="685" x2="875" y1="489.2766" y2="489.2766"/><!--MD5=[f6064968006b102cb1b3092be2f53bd9]
class cl1--><rect codeLine="1" fill="#FEFECE" filter="url(#frc35i52nhq56)" height="532.821" id="cl1" style="stroke: #A80036; stroke-width: 1.5;" width="417" x="7" y="13.5"/><ellipse cx="169.75" cy="29.5" fill="#ADD1B2" rx="11" ry="11" style="stroke: #A80036; stroke-width: 1.0;"/><path d="M169.5781,22.9844 Q167.7031,22.9844 166.5469,24.7344 Q165.3594,26.5156 165.3594,29.5156 Q165.3594,32.8906 166.5625,34.6563 Q167.625,36.2813 169.375,36.2813 Q171.0625,36.2813 172.0156,35.375 Q173.0781,34.3594 173.2188,32.125 Q173.2188,31.7031 172.9844,31.4688 Q172.7969,31.2344 172.4531,31.2031 Q172.125,31.2031 171.8906,31.3906 Q171.625,31.625 171.625,32.0156 Q171.5938,33.4063 171,34.1406 Q170.4688,34.8438 169.5156,34.8438 Q168.3594,34.8438 167.6406,33.4063 Q166.9219,31.9063 166.9219,29.4844 Q166.9219,26.9375 167.8125,25.5469 Q168.5625,24.4219 169.7031,24.4219 Q170.3594,24.4219 170.8594,24.9688 Q171.4219,25.5781 171.5469,26.6406 Q171.5938,27.3438 172.4219,27.2344 Q173.2031,27.125 173.1563,26.4375 Q172.9688,24.9219 172.2031,24.0469 Q171.2656,22.9844 169.5781,22.9844 Z "/><text fill="#000000" font-family="sans-serif" font-size="12" lengthAdjust="spacingAndGlyphs" textLength="83" x="190.25" y="35.1045">GuitarAcademy</text><line style="stroke: #A80036; stroke-width: 1.5;" x1="8" x2="423" y1="45.5" y2="45.5"/><text fill="#000000" font-family="sans-serif" font-size="11" lengthAdjust="spacingAndGlyphs" textLength="108" x="13" y="62.1919">Package classRelation</text><text fill="#000000" font-family="sans-serif" font-size="11" lengthAdjust="spacingAndGlyphs" textLength="41" x="13" y="77.3008">Lib false</text><text fill="#000000" font-family="sans-serif" font-size="11" lengthAdjust="spacingAndGlyphs" textLength="119" x="13" y="92.4097">HashCode : 1388278453</text><text fill="#000000" font-family="sans-serif" font-size="11" lengthAdjust="spacingAndGlyphs" textLength="75" x="13" y="107.5186">ABS Score : 38</text><text fill="#000000" font-family="sans-serif" font-size="11" lengthAdjust="spacingAndGlyphs" textLength="85" x="13" y="122.6274">Relative Score : 9</text><text fill="#008000" font-family="sans-serif" font-size="11" lengthAdjust="spacingAndGlyphs" textLength="164" x="13" y="156.8452">classRelation.Guitarist teacher (2)</text><text fill="#008000" font-family="sans-serif" font-size="11" lengthAdjust="spacingAndGlyphs" textLength="189" x="13" y="171.9541">classRelation.Guitar academyGuitar (2)</text><line style="stroke: #A80036; stroke-width: 1.5;" x1="8" x2="195.5" y1="136.5989" y2="136.5989"/><text fill="#008000" font-family="sans-serif" font-size="11" font-weight="bold" lengthAdjust="spacingAndGlyphs" textLength="40" x="195.5" y="141.2363">has list</text><line style="stroke: #A80036; stroke-width: 1.5;" x1="235.5" x2="423" y1="136.5989" y2="136.5989"/><line style="stroke: #A80036; stroke-width: 1.0; stroke-dasharray: 1.0,2.0;" x1="8" x2="423" y1="178.3711" y2="178.3711"/><text fill="#FF0000" font-family="sans-serif" font-size="11" lengthAdjust="spacingAndGlyphs" textLength="125" x="13" y="195.063">new GuitarAcademy() (9)</text><text fill="#FF0000" font-family="sans-serif" font-size="11" lengthAdjust="spacingAndGlyphs" textLength="193" x="13" y="210.1719">void lesson(classRelation.Guitarist) (10)</text><line style="stroke: #A80036; stroke-width: 1.5;" x1="8" x2="188" y1="224.1433" y2="224.1433"/><text fill="#0000FF" font-family="sans-serif" font-size="11" font-weight="bold" lengthAdjust="spacingAndGlyphs" textLength="55" x="188" y="228.7808">calling list</text><line style="stroke: #A80036; stroke-width: 1.5;" x1="243" x2="423" y1="224.1433" y2="224.1433"/><text fill="#000000" font-family="sans-serif" font-size="11" lengthAdjust="spacingAndGlyphs" textLength="181" x="13" y="267.053">classRelation.Guitarist (1836463382);</text><text fill="#000000" font-family="sans-serif" font-size="11" lengthAdjust="spacingAndGlyphs" textLength="164" x="13" y="282.1619">classRelation.Guitar (712609105);</text><line style="stroke: #A80036; stroke-width: 1.0; stroke-dasharray: 1.0,2.0;" x1="8" x2="202.5" y1="246.8066" y2="246.8066"/><text fill="#000000" font-family="sans-serif" font-size="11" lengthAdjust="spacingAndGlyphs" textLength="26" x="202.5" y="251.4441">class</text><line style="stroke: #A80036; stroke-width: 1.0; stroke-dasharray: 1.0,2.0;" x1="228.5" x2="423" y1="246.8066" y2="246.8066"/><text fill="#000000" font-family="sans-serif" font-size="11" lengthAdjust="spacingAndGlyphs" textLength="286" x="13" y="316.3796">classRelation.GuitarAcademy.academyGuitar (461160828);</text><text fill="#000000" font-family="sans-serif" font-size="11" lengthAdjust="spacingAndGlyphs" textLength="256" x="13" y="331.4885">classRelation.GuitarAcademy.teacher (1499867659);</text><text fill="#000000" font-family="sans-serif" font-size="11" lengthAdjust="spacingAndGlyphs" textLength="405" x="13" y="346.5974">classRelation.GuitarAcademy.lesson(classRelation.Guitarist).student (2012993836);</text><line style="stroke: #A80036; stroke-width: 1.0; stroke-dasharray: 1.0,2.0;" x1="8" x2="196.5" y1="296.1333" y2="296.1333"/><text fill="#000000" font-family="sans-serif" font-size="11" lengthAdjust="spacingAndGlyphs" textLength="38" x="196.5" y="300.7708">member</text><line style="stroke: #A80036; stroke-width: 1.0; stroke-dasharray: 1.0,2.0;" x1="234.5" x2="423" y1="296.1333" y2="296.1333"/><text fill="#000000" font-family="sans-serif" font-size="11" lengthAdjust="spacingAndGlyphs" textLength="204" x="13" y="380.8152">classRelation.Guitar.Guitar() (609962972);</text><text fill="#000000" font-family="sans-serif" font-size="11" lengthAdjust="spacingAndGlyphs" textLength="342" x="13" y="395.9241">classRelation.Guitarist.classRelation.Guitarist.Guitarist() (1740797075);</text><text fill="#000000" font-family="sans-serif" font-size="11" lengthAdjust="spacingAndGlyphs" textLength="327" x="13" y="411.033">classRelation.Guitarist.playSong(classRelation.Guitar) (934275857);</text><line style="stroke: #A80036; stroke-width: 1.0; stroke-dasharray: 1.0,2.0;" x1="8" x2="198" y1="360.5688" y2="360.5688"/><text fill="#000000" font-family="sans-serif" font-size="11" lengthAdjust="spacingAndGlyphs" textLength="35" x="198" y="365.2063">method</text><line style="stroke: #A80036; stroke-width: 1.0; stroke-dasharray: 1.0,2.0;" x1="233" x2="423" y1="360.5688" y2="360.5688"/><line style="stroke: #A80036; stroke-width: 1.5;" x1="8" x2="181.5" y1="425.0044" y2="425.0044"/><text fill="#FFA500" font-family="sans-serif" font-size="11" font-weight="bold" lengthAdjust="spacingAndGlyphs" textLength="68" x="181.5" y="429.6418">called by list</text><line style="stroke: #A80036; stroke-width: 1.5;" x1="249.5" x2="423" y1="425.0044" y2="425.0044"/><text fill="#000000" font-family="sans-serif" font-size="11" lengthAdjust="spacingAndGlyphs" textLength="216" x="13" y="467.9141">classRelation.GuitarAcademy (1388278453);</text><line style="stroke: #A80036; stroke-width: 1.0; stroke-dasharray: 1.0,2.0;" x1="8" x2="202.5" y1="447.6677" y2="447.6677"/><text fill="#000000" font-family="sans-serif" font-size="11" lengthAdjust="spacingAndGlyphs" textLength="26" x="202.5" y="452.3052">class</text><line style="stroke: #A80036; stroke-width: 1.0; stroke-dasharray: 1.0,2.0;" x1="228.5" x2="423" y1="447.6677" y2="447.6677"/><line style="stroke: #A80036; stroke-width: 1.0; stroke-dasharray: 1.0,2.0;" x1="8" x2="196.5" y1="481.8855" y2="481.8855"/><text fill="#000000" font-family="sans-serif" font-size="11" lengthAdjust="spacingAndGlyphs" textLength="38" x="196.5" y="486.5229">member</text><line style="stroke: #A80036; stroke-width: 1.0; stroke-dasharray: 1.0,2.0;" x1="234.5" x2="423" y1="481.8855" y2="481.8855"/><text fill="#000000" font-family="sans-serif" font-size="11" lengthAdjust="spacingAndGlyphs" textLength="302" x="13" y="524.7952">classRelation.GuitarAcademy.GuitarAcademy() (1364913072);</text><text fill="#000000" font-family="sans-serif" font-size="11" lengthAdjust="spacingAndGlyphs" textLength="360" x="13" y="539.9041">classRelation.GuitarAcademy.lesson(classRelation.Guitarist) (440938038);</text><line style="stroke: #A80036; stroke-width: 1.0; stroke-dasharray: 1.0,2.0;" x1="8" x2="198" y1="504.5488" y2="504.5488"/><text fill="#000000" font-family="sans-serif" font-size="11" lengthAdjust="spacingAndGlyphs" textLength="35" x="198" y="509.1863">method</text><line style="stroke: #A80036; stroke-width: 1.0; stroke-dasharray: 1.0,2.0;" x1="233" x2="423" y1="504.5488" y2="504.5488"/><!--MD5=[2058e175e011d4c27cdb5e78fc5b744f]
@startuml
class "GuitarAcademy" as cl1{
Package classRelation
Lib false
HashCode : 1388278453
ABS Score : 38
Relative Score : 9
__**<color:green>has list</color>**__
	<color:green>classRelation.Guitarist teacher (2)
	<color:green>classRelation.Guitar academyGuitar (2)
....
	<color:red>new GuitarAcademy() (9)
	<color:red>void lesson(classRelation.Guitarist) (10)
__**<color:blue>calling list</color>**__
..class..
	classRelation.Guitarist (1836463382);
	classRelation.Guitar (712609105);
..member..
	classRelation.GuitarAcademy.academyGuitar (461160828);
	classRelation.GuitarAcademy.teacher (1499867659);
	classRelation.GuitarAcademy.lesson(classRelation.Guitarist).student (2012993836);
..method..
	 classRelation.Guitar.Guitar() (609962972);
	 classRelation.Guitarist.classRelation.Guitarist.Guitarist() (1740797075);
	 classRelation.Guitarist.playSong(classRelation.Guitar) (934275857);
__**<color:orange>called by list</color>**__
..class..
	classRelation.GuitarAcademy (1388278453);
..member..
..method..
	 classRelation.GuitarAcademy.GuitarAcademy() (1364913072);
	 classRelation.GuitarAcademy.lesson(classRelation.Guitarist) (440938038);
}

 package Functions{
class "GuitarAcademy()" as f1364913072  #back:salmon
{
Static : false
return Type : new
hashCode : 1364913072
ABS Score : 9
Relative Score : 9
__**<color:green>has list</color>**__
..class..
..member..
..method..
__**<color:blue>calling list</color>**__
..class..
	classRelation.Guitar (712609105);
	classRelation.Guitarist (1836463382);
..member..
	classRelation.GuitarAcademy.academyGuitar (461160828);
	classRelation.GuitarAcademy.teacher (1499867659);
..method..
	 classRelation.Guitar.Guitar() (609962972);
	 classRelation.Guitarist.classRelation.Guitarist.Guitarist() (1740797075);
__**<color:orange>called by list</color>**__
..class..
..member..
..method..
}
class "lesson(classRelation.Guitarist)" as f440938038  #back:salmon
{
Static : false
return Type : void
hashCode : 440938038
ABS Score : 10
Relative Score : 10
__**<color:green>has list</color>**__
..class..
..member..
	classRelation.GuitarAcademy.lesson(classRelation.Guitarist).student (2012993836);
..method..
__**<color:blue>calling list</color>**__
..class..
	classRelation.Guitarist (1836463382);
..member..
	classRelation.GuitarAcademy.teacher (1499867659);
	classRelation.GuitarAcademy.lesson(classRelation.Guitarist).student (2012993836);
..method..
	 classRelation.Guitarist.playSong(classRelation.Guitar) (934275857);
__**<color:orange>called by list</color>**__
..class..
	classRelation.GuitarAcademy (1388278453);
..member..
..method..
	 classRelation.GuitarAcademy.lesson(classRelation.Guitarist) (440938038);
}
}

@enduml

PlantUML version 1.2020.19(Tue Oct 13 00:10:01 KST 2020)
(APACHE source distribution)
Java Runtime: Java(TM) SE Runtime Environment
JVM: Java HotSpot(TM) 64-Bit Server VM
Default Encoding: MS949
Language: ko
Country: KR
--></g></svg>