<?xml version="1.0" encoding="UTF-8" standalone="no"?><svg xmlns="http://www.w3.org/2000/svg" xmlns:xlink="http://www.w3.org/1999/xlink" contentScriptType="application/ecmascript" contentStyleType="text/css" height="501px" preserveAspectRatio="none" style="width:577px;height:501px;" version="1.1" viewBox="0 0 577 501" width="577px" zoomAndPan="magnify"><defs><filter height="300%" id="fmm3zjqyop0ae" width="300%" x="-1" y="-1"><feGaussianBlur result="blurOut" stdDeviation="2.0"/><feColorMatrix in="blurOut" result="blurOut2" type="matrix" values="0 0 0 0 0 0 0 0 0 0 0 0 0 0 0 0 0 0 .4 0"/><feOffset dx="4.0" dy="4.0" in="blurOut2" result="blurOut3"/><feBlend in="SourceGraphic" in2="blurOut3" mode="normal"/></filter></defs><g><!--MD5=[7c6608d7cf625e90131334e1ca091b1a]
cluster Functions--><polygon fill="#FFFFFF" filter="url(#fmm3zjqyop0ae)" points="260,6,336,6,343,31.2295,560,31.2295,560,494,260,494,260,6" style="stroke: #000000; stroke-width: 1.5;"/><line style="stroke: #000000; stroke-width: 1.5;" x1="260" x2="343" y1="31.2295" y2="31.2295"/><text fill="#000000" font-family="sans-serif" font-size="14" font-weight="bold" lengthAdjust="spacingAndGlyphs" textLength="70" x="264" y="24.1533">Functions</text><!--MD5=[21b54410cfa4d7d0260792a0f3a4026c]
class f156856360--><rect codeLine="27" fill="#FEFECE" filter="url(#fmm3zjqyop0ae)" height="433.7222" id="f156856360" style="stroke: #008000; stroke-width: 1.5;" width="268" x="276" y="44"/><ellipse cx="377.25" cy="60" fill="#ADD1B2" rx="11" ry="11" style="stroke: #008000; stroke-width: 1.0;"/><path d="M377.0781,53.4844 Q375.2031,53.4844 374.0469,55.2344 Q372.8594,57.0156 372.8594,60.0156 Q372.8594,63.3906 374.0625,65.1563 Q375.125,66.7813 376.875,66.7813 Q378.5625,66.7813 379.5156,65.875 Q380.5781,64.8594 380.7188,62.625 Q380.7188,62.2031 380.4844,61.9688 Q380.2969,61.7344 379.9531,61.7031 Q379.625,61.7031 379.3906,61.8906 Q379.125,62.125 379.125,62.5156 Q379.0938,63.9063 378.5,64.6406 Q377.9688,65.3438 377.0156,65.3438 Q375.8594,65.3438 375.1406,63.9063 Q374.4219,62.4063 374.4219,59.9844 Q374.4219,57.4375 375.3125,56.0469 Q376.0625,54.9219 377.2031,54.9219 Q377.8594,54.9219 378.3594,55.4688 Q378.9219,56.0781 379.0469,57.1406 Q379.0938,57.8438 379.9219,57.7344 Q380.7031,57.625 380.6563,56.9375 Q380.4688,55.4219 379.7031,54.5469 Q378.7656,53.4844 377.0781,53.4844 Z "/><text fill="#000000" font-family="sans-serif" font-size="12" lengthAdjust="spacingAndGlyphs" textLength="57" x="397.75" y="65.6045">Sound(int)</text><line style="stroke: #008000; stroke-width: 1.5;" x1="277" x2="543" y1="76" y2="76"/><text fill="#000000" font-family="sans-serif" font-size="11" lengthAdjust="spacingAndGlyphs" textLength="60" x="282" y="92.6919">Static : false</text><text fill="#000000" font-family="sans-serif" font-size="11" lengthAdjust="spacingAndGlyphs" textLength="87" x="282" y="107.8008">return Type : new</text><text fill="#000000" font-family="sans-serif" font-size="11" lengthAdjust="spacingAndGlyphs" textLength="112" x="282" y="122.9097">hashCode : 156856360</text><text fill="#000000" font-family="sans-serif" font-size="11" lengthAdjust="spacingAndGlyphs" textLength="69" x="282" y="138.0186">ABS Score : 3</text><text fill="#000000" font-family="sans-serif" font-size="11" lengthAdjust="spacingAndGlyphs" textLength="85" x="282" y="153.1274">Relative Score : 3</text><line style="stroke: #008000; stroke-width: 1.5;" x1="277" x2="390" y1="167.0989" y2="167.0989"/><text fill="#008000" font-family="sans-serif" font-size="11" font-weight="bold" lengthAdjust="spacingAndGlyphs" textLength="40" x="390" y="171.7363">has list</text><line style="stroke: #008000; stroke-width: 1.5;" x1="430" x2="543" y1="167.0989" y2="167.0989"/><line style="stroke: #008000; stroke-width: 1.0; stroke-dasharray: 1.0,2.0;" x1="277" x2="397" y1="189.7622" y2="189.7622"/><text fill="#000000" font-family="sans-serif" font-size="11" lengthAdjust="spacingAndGlyphs" textLength="26" x="397" y="194.3997">class</text><line style="stroke: #008000; stroke-width: 1.0; stroke-dasharray: 1.0,2.0;" x1="423" x2="543" y1="189.7622" y2="189.7622"/><text fill="#000000" font-family="sans-serif" font-size="11" lengthAdjust="spacingAndGlyphs" textLength="256" x="282" y="232.6719">classRelation.Sound.Sound(int).volume (798981583);</text><line style="stroke: #008000; stroke-width: 1.0; stroke-dasharray: 1.0,2.0;" x1="277" x2="391" y1="212.4255" y2="212.4255"/><text fill="#000000" font-family="sans-serif" font-size="11" lengthAdjust="spacingAndGlyphs" textLength="38" x="391" y="217.063">member</text><line style="stroke: #008000; stroke-width: 1.0; stroke-dasharray: 1.0,2.0;" x1="429" x2="543" y1="212.4255" y2="212.4255"/><line style="stroke: #008000; stroke-width: 1.0; stroke-dasharray: 1.0,2.0;" x1="277" x2="392.5" y1="246.6433" y2="246.6433"/><text fill="#000000" font-family="sans-serif" font-size="11" lengthAdjust="spacingAndGlyphs" textLength="35" x="392.5" y="251.2808">method</text><line style="stroke: #008000; stroke-width: 1.0; stroke-dasharray: 1.0,2.0;" x1="427.5" x2="543" y1="246.6433" y2="246.6433"/><line style="stroke: #008000; stroke-width: 1.5;" x1="277" x2="382.5" y1="269.3066" y2="269.3066"/><text fill="#0000FF" font-family="sans-serif" font-size="11" font-weight="bold" lengthAdjust="spacingAndGlyphs" textLength="55" x="382.5" y="273.9441">calling list</text><line style="stroke: #008000; stroke-width: 1.5;" x1="437.5" x2="543" y1="269.3066" y2="269.3066"/><line style="stroke: #008000; stroke-width: 1.0; stroke-dasharray: 1.0,2.0;" x1="277" x2="397" y1="291.97" y2="291.97"/><text fill="#000000" font-family="sans-serif" font-size="11" lengthAdjust="spacingAndGlyphs" textLength="26" x="397" y="296.6074">class</text><line style="stroke: #008000; stroke-width: 1.0; stroke-dasharray: 1.0,2.0;" x1="423" x2="543" y1="291.97" y2="291.97"/><text fill="#000000" font-family="sans-serif" font-size="11" lengthAdjust="spacingAndGlyphs" textLength="209" x="282" y="334.8796">classRelation.Sound.volume (1536031937);</text><line style="stroke: #008000; stroke-width: 1.0; stroke-dasharray: 1.0,2.0;" x1="277" x2="391" y1="314.6333" y2="314.6333"/><text fill="#000000" font-family="sans-serif" font-size="11" lengthAdjust="spacingAndGlyphs" textLength="38" x="391" y="319.2708">member</text><line style="stroke: #008000; stroke-width: 1.0; stroke-dasharray: 1.0,2.0;" x1="429" x2="543" y1="314.6333" y2="314.6333"/><line style="stroke: #008000; stroke-width: 1.0; stroke-dasharray: 1.0,2.0;" x1="277" x2="392.5" y1="348.8511" y2="348.8511"/><text fill="#000000" font-family="sans-serif" font-size="11" lengthAdjust="spacingAndGlyphs" textLength="35" x="392.5" y="353.4885">method</text><line style="stroke: #008000; stroke-width: 1.0; stroke-dasharray: 1.0,2.0;" x1="427.5" x2="543" y1="348.8511" y2="348.8511"/><line style="stroke: #008000; stroke-width: 1.5;" x1="277" x2="376" y1="371.5144" y2="371.5144"/><text fill="#FFA500" font-family="sans-serif" font-size="11" font-weight="bold" lengthAdjust="spacingAndGlyphs" textLength="68" x="376" y="376.1519">called by list</text><line style="stroke: #008000; stroke-width: 1.5;" x1="444" x2="543" y1="371.5144" y2="371.5144"/><text fill="#000000" font-family="sans-serif" font-size="11" lengthAdjust="spacingAndGlyphs" textLength="191" x="282" y="414.4241">classRelation.Instrument (1321530272);</text><line style="stroke: #008000; stroke-width: 1.0; stroke-dasharray: 1.0,2.0;" x1="277" x2="397" y1="394.1777" y2="394.1777"/><text fill="#000000" font-family="sans-serif" font-size="11" lengthAdjust="spacingAndGlyphs" textLength="26" x="397" y="398.8152">class</text><line style="stroke: #008000; stroke-width: 1.0; stroke-dasharray: 1.0,2.0;" x1="423" x2="543" y1="394.1777" y2="394.1777"/><line style="stroke: #008000; stroke-width: 1.0; stroke-dasharray: 1.0,2.0;" x1="277" x2="391" y1="428.3955" y2="428.3955"/><text fill="#000000" font-family="sans-serif" font-size="11" lengthAdjust="spacingAndGlyphs" textLength="38" x="391" y="433.033">member</text><line style="stroke: #008000; stroke-width: 1.0; stroke-dasharray: 1.0,2.0;" x1="429" x2="543" y1="428.3955" y2="428.3955"/><text fill="#000000" font-family="sans-serif" font-size="11" lengthAdjust="spacingAndGlyphs" textLength="222" x="282" y="471.3052">classRelation.Instrument.play() (1325124186);</text><line style="stroke: #008000; stroke-width: 1.0; stroke-dasharray: 1.0,2.0;" x1="277" x2="392.5" y1="451.0588" y2="451.0588"/><text fill="#000000" font-family="sans-serif" font-size="11" lengthAdjust="spacingAndGlyphs" textLength="35" x="392.5" y="455.6963">method</text><line style="stroke: #008000; stroke-width: 1.0; stroke-dasharray: 1.0,2.0;" x1="427.5" x2="543" y1="451.0588" y2="451.0588"/><!--MD5=[f6064968006b102cb1b3092be2f53bd9]
class cl1--><rect codeLine="1" fill="#FEFECE" filter="url(#fmm3zjqyop0ae)" height="419.0588" id="cl1" style="stroke: #A80036; stroke-width: 1.5;" width="234" x="7" y="51.5"/><ellipse cx="101.75" cy="67.5" fill="#ADD1B2" rx="11" ry="11" style="stroke: #A80036; stroke-width: 1.0;"/><path d="M101.5781,60.9844 Q99.7031,60.9844 98.5469,62.7344 Q97.3594,64.5156 97.3594,67.5156 Q97.3594,70.8906 98.5625,72.6563 Q99.625,74.2813 101.375,74.2813 Q103.0625,74.2813 104.0156,73.375 Q105.0781,72.3594 105.2188,70.125 Q105.2188,69.7031 104.9844,69.4688 Q104.7969,69.2344 104.4531,69.2031 Q104.125,69.2031 103.8906,69.3906 Q103.625,69.625 103.625,70.0156 Q103.5938,71.4063 103,72.1406 Q102.4688,72.8438 101.5156,72.8438 Q100.3594,72.8438 99.6406,71.4063 Q98.9219,69.9063 98.9219,67.4844 Q98.9219,64.9375 99.8125,63.5469 Q100.5625,62.4219 101.7031,62.4219 Q102.3594,62.4219 102.8594,62.9688 Q103.4219,63.5781 103.5469,64.6406 Q103.5938,65.3438 104.4219,65.2344 Q105.2031,65.125 105.1563,64.4375 Q104.9688,62.9219 104.2031,62.0469 Q103.2656,60.9844 101.5781,60.9844 Z "/><text fill="#000000" font-family="sans-serif" font-size="12" lengthAdjust="spacingAndGlyphs" textLength="36" x="122.25" y="73.1045">Sound</text><line style="stroke: #A80036; stroke-width: 1.5;" x1="8" x2="240" y1="83.5" y2="83.5"/><text fill="#000000" font-family="sans-serif" font-size="11" lengthAdjust="spacingAndGlyphs" textLength="108" x="13" y="100.1919">Package classRelation</text><text fill="#000000" font-family="sans-serif" font-size="11" lengthAdjust="spacingAndGlyphs" textLength="41" x="13" y="115.3008">Lib false</text><text fill="#000000" font-family="sans-serif" font-size="11" lengthAdjust="spacingAndGlyphs" textLength="113" x="13" y="130.4097">HashCode : 573673894</text><text fill="#000000" font-family="sans-serif" font-size="11" lengthAdjust="spacingAndGlyphs" textLength="69" x="13" y="145.5186">ABS Score : 5</text><text fill="#000000" font-family="sans-serif" font-size="11" lengthAdjust="spacingAndGlyphs" textLength="85" x="13" y="160.6274">Relative Score : 2</text><text fill="#008000" font-family="sans-serif" font-size="11" lengthAdjust="spacingAndGlyphs" textLength="65" x="13" y="194.8452">int volume (1)</text><line style="stroke: #A80036; stroke-width: 1.5;" x1="8" x2="104" y1="174.5989" y2="174.5989"/><text fill="#008000" font-family="sans-serif" font-size="11" font-weight="bold" lengthAdjust="spacingAndGlyphs" textLength="40" x="104" y="179.2363">has list</text><line style="stroke: #A80036; stroke-width: 1.5;" x1="144" x2="240" y1="174.5989" y2="174.5989"/><line style="stroke: #A80036; stroke-width: 1.0; stroke-dasharray: 1.0,2.0;" x1="8" x2="240" y1="201.2622" y2="201.2622"/><text fill="#008000" font-family="sans-serif" font-size="11" lengthAdjust="spacingAndGlyphs" textLength="92" x="13" y="217.9541">new Sound(int) (3)</text><line style="stroke: #A80036; stroke-width: 1.5;" x1="8" x2="96.5" y1="231.9255" y2="231.9255"/><text fill="#0000FF" font-family="sans-serif" font-size="11" font-weight="bold" lengthAdjust="spacingAndGlyphs" textLength="55" x="96.5" y="236.563">calling list</text><line style="stroke: #A80036; stroke-width: 1.5;" x1="151.5" x2="240" y1="231.9255" y2="231.9255"/><line style="stroke: #A80036; stroke-width: 1.0; stroke-dasharray: 1.0,2.0;" x1="8" x2="111" y1="254.5889" y2="254.5889"/><text fill="#000000" font-family="sans-serif" font-size="11" lengthAdjust="spacingAndGlyphs" textLength="26" x="111" y="259.2263">class</text><line style="stroke: #A80036; stroke-width: 1.0; stroke-dasharray: 1.0,2.0;" x1="137" x2="240" y1="254.5889" y2="254.5889"/><text fill="#000000" font-family="sans-serif" font-size="11" lengthAdjust="spacingAndGlyphs" textLength="209" x="13" y="297.4985">classRelation.Sound.volume (1536031937);</text><line style="stroke: #A80036; stroke-width: 1.0; stroke-dasharray: 1.0,2.0;" x1="8" x2="105" y1="277.2522" y2="277.2522"/><text fill="#000000" font-family="sans-serif" font-size="11" lengthAdjust="spacingAndGlyphs" textLength="38" x="105" y="281.8896">member</text><line style="stroke: #A80036; stroke-width: 1.0; stroke-dasharray: 1.0,2.0;" x1="143" x2="240" y1="277.2522" y2="277.2522"/><line style="stroke: #A80036; stroke-width: 1.0; stroke-dasharray: 1.0,2.0;" x1="8" x2="106.5" y1="311.47" y2="311.47"/><text fill="#000000" font-family="sans-serif" font-size="11" lengthAdjust="spacingAndGlyphs" textLength="35" x="106.5" y="316.1074">method</text><line style="stroke: #A80036; stroke-width: 1.0; stroke-dasharray: 1.0,2.0;" x1="141.5" x2="240" y1="311.47" y2="311.47"/><line style="stroke: #A80036; stroke-width: 1.5;" x1="8" x2="90" y1="334.1333" y2="334.1333"/><text fill="#FFA500" font-family="sans-serif" font-size="11" font-weight="bold" lengthAdjust="spacingAndGlyphs" textLength="68" x="90" y="338.7708">called by list</text><line style="stroke: #A80036; stroke-width: 1.5;" x1="158" x2="240" y1="334.1333" y2="334.1333"/><text fill="#000000" font-family="sans-serif" font-size="11" lengthAdjust="spacingAndGlyphs" textLength="191" x="13" y="377.043">classRelation.Instrument (1321530272);</text><text fill="#000000" font-family="sans-serif" font-size="11" lengthAdjust="spacingAndGlyphs" textLength="166" x="13" y="392.1519">classRelation.Sound (573673894);</text><line style="stroke: #A80036; stroke-width: 1.0; stroke-dasharray: 1.0,2.0;" x1="8" x2="111" y1="356.7966" y2="356.7966"/><text fill="#000000" font-family="sans-serif" font-size="11" lengthAdjust="spacingAndGlyphs" textLength="26" x="111" y="361.4341">class</text><line style="stroke: #A80036; stroke-width: 1.0; stroke-dasharray: 1.0,2.0;" x1="137" x2="240" y1="356.7966" y2="356.7966"/><line style="stroke: #A80036; stroke-width: 1.0; stroke-dasharray: 1.0,2.0;" x1="8" x2="105" y1="406.1233" y2="406.1233"/><text fill="#000000" font-family="sans-serif" font-size="11" lengthAdjust="spacingAndGlyphs" textLength="38" x="105" y="410.7607">member</text><line style="stroke: #A80036; stroke-width: 1.0; stroke-dasharray: 1.0,2.0;" x1="143" x2="240" y1="406.1233" y2="406.1233"/><text fill="#000000" font-family="sans-serif" font-size="11" lengthAdjust="spacingAndGlyphs" textLength="222" x="13" y="449.033">classRelation.Instrument.play() (1325124186);</text><text fill="#000000" font-family="sans-serif" font-size="11" lengthAdjust="spacingAndGlyphs" textLength="219" x="13" y="464.1418">classRelation.Sound.Sound(int) (156856360);</text><line style="stroke: #A80036; stroke-width: 1.0; stroke-dasharray: 1.0,2.0;" x1="8" x2="106.5" y1="428.7866" y2="428.7866"/><text fill="#000000" font-family="sans-serif" font-size="11" lengthAdjust="spacingAndGlyphs" textLength="35" x="106.5" y="433.4241">method</text><line style="stroke: #A80036; stroke-width: 1.0; stroke-dasharray: 1.0,2.0;" x1="141.5" x2="240" y1="428.7866" y2="428.7866"/><!--MD5=[d48f9539915fa8fda7c5b15275ac052d]
@startuml
class "Sound" as cl1{
Package classRelation
Lib false
HashCode : 573673894
ABS Score : 5
Relative Score : 2
__**<color:green>has list</color>**__
	<color:green>int volume (1)
....
	<color:green>new Sound(int) (3)
__**<color:blue>calling list</color>**__
..class..
..member..
	classRelation.Sound.volume (1536031937);
..method..
__**<color:orange>called by list</color>**__
..class..
	classRelation.Instrument (1321530272);
	classRelation.Sound (573673894);
..member..
..method..
	 classRelation.Instrument.play() (1325124186);
	 classRelation.Sound.Sound(int) (156856360);
}

 package Functions{
class "Sound(int)" as f156856360  #line:green
{
Static : false
return Type : new
hashCode : 156856360
ABS Score : 3
Relative Score : 3
__**<color:green>has list</color>**__
..class..
..member..
	classRelation.Sound.Sound(int).volume (798981583);
..method..
__**<color:blue>calling list</color>**__
..class..
..member..
	classRelation.Sound.volume (1536031937);
..method..
__**<color:orange>called by list</color>**__
..class..
	classRelation.Instrument (1321530272);
..member..
..method..
	 classRelation.Instrument.play() (1325124186);
}
}

@enduml

PlantUML version 1.2020.19(Tue Oct 13 00:10:01 KST 2020)
(APACHE source distribution)
Java Runtime: Java(TM) SE Runtime Environment
JVM: Java HotSpot(TM) 64-Bit Server VM
Default Encoding: MS949
Language: ko
Country: KR
--></g></svg>