<?xml version="1.0" encoding="UTF-8" standalone="no"?><svg xmlns="http://www.w3.org/2000/svg" xmlns:xlink="http://www.w3.org/1999/xlink" contentScriptType="application/ecmascript" contentStyleType="text/css" height="1610px" preserveAspectRatio="none" style="width:547px;height:1610px;" version="1.1" viewBox="0 0 547 1610" width="547px" zoomAndPan="magnify"><defs><filter height="300%" id="f1uhio22au7xgr" width="300%" x="-1" y="-1"><feGaussianBlur result="blurOut" stdDeviation="2.0"/><feColorMatrix in="blurOut" result="blurOut2" type="matrix" values="0 0 0 0 0 0 0 0 0 0 0 0 0 0 0 0 0 0 .4 0"/><feOffset dx="4.0" dy="4.0" in="blurOut2" result="blurOut3"/><feBlend in="SourceGraphic" in2="blurOut3" mode="normal"/></filter></defs><g><rect fill="#FFFFFF" filter="url(#f1uhio22au7xgr)" height="111.5679" style="stroke: #000000; stroke-width: 2.0;" width="365.5" x="10" y="60.2295"/><rect fill="#FFFFFF" filter="url(#f1uhio22au7xgr)" height="1099.687" style="stroke: #000000; stroke-width: 2.0;" width="523.5" x="10" y="185.7974"/><rect fill="#FFFFFF" filter="url(#f1uhio22au7xgr)" height="19.856" style="stroke: #000000; stroke-width: 2.0;" width="161" x="30" y="1299.4844"/><rect fill="#FFFFFF" filter="url(#f1uhio22au7xgr)" height="19.856" style="stroke: #000000; stroke-width: 2.0;" width="268" x="30" y="1333.3403"/><rect fill="#FFFFFF" filter="url(#f1uhio22au7xgr)" height="19.856" style="stroke: #000000; stroke-width: 2.0;" width="287" x="30" y="1367.1963"/><rect fill="#FFFFFF" filter="url(#f1uhio22au7xgr)" height="19.856" style="stroke: #000000; stroke-width: 2.0;" width="244" x="30" y="1401.0522"/><rect fill="#FFFFFF" filter="url(#f1uhio22au7xgr)" height="19.856" style="stroke: #000000; stroke-width: 2.0;" width="275" x="30" y="1434.9082"/><rect fill="#FFFFFF" filter="url(#f1uhio22au7xgr)" height="78.7119" style="stroke: #000000; stroke-width: 2.0;" width="523.5" x="10" y="1468.7642"/><line style="stroke: #A80036; stroke-width: 1.0; stroke-dasharray: 5.0,5.0;" x1="71" x2="71" y1="43.2295" y2="1564.4761"/><line style="stroke: #A80036; stroke-width: 1.0; stroke-dasharray: 5.0,5.0;" x1="274.5" x2="274.5" y1="43.2295" y2="1564.4761"/><line style="stroke: #A80036; stroke-width: 1.0; stroke-dasharray: 5.0,5.0;" x1="336.5" x2="336.5" y1="43.2295" y2="1564.4761"/><line style="stroke: #A80036; stroke-width: 1.0; stroke-dasharray: 5.0,5.0;" x1="398.5" x2="398.5" y1="43.2295" y2="1564.4761"/><line style="stroke: #A80036; stroke-width: 1.0; stroke-dasharray: 5.0,5.0;" x1="477.5" x2="477.5" y1="43.2295" y2="1564.4761"/><rect fill="#FEFECE" filter="url(#f1uhio22au7xgr)" height="33.2295" style="stroke: #A80036; stroke-width: 1.5;" width="98" x="20" y="5"/><text fill="#000000" font-family="sans-serif" font-size="14" lengthAdjust="spacingAndGlyphs" textLength="84" x="27" y="28.1533">GameSystem</text><rect fill="#FEFECE" filter="url(#f1uhio22au7xgr)" height="33.2295" style="stroke: #A80036; stroke-width: 1.5;" width="98" x="20" y="1563.4761"/><text fill="#000000" font-family="sans-serif" font-size="14" lengthAdjust="spacingAndGlyphs" textLength="84" x="27" y="1586.6294">GameSystem</text><rect fill="#FEFECE" filter="url(#f1uhio22au7xgr)" height="33.2295" style="stroke: #A80036; stroke-width: 1.5;" width="41" x="252.5" y="5"/><text fill="#000000" font-family="sans-serif" font-size="14" lengthAdjust="spacingAndGlyphs" textLength="27" x="259.5" y="28.1533">Map</text><rect fill="#FEFECE" filter="url(#f1uhio22au7xgr)" height="33.2295" style="stroke: #A80036; stroke-width: 1.5;" width="41" x="252.5" y="1563.4761"/><text fill="#000000" font-family="sans-serif" font-size="14" lengthAdjust="spacingAndGlyphs" textLength="27" x="259.5" y="1586.6294">Map</text><rect fill="#FEFECE" filter="url(#f1uhio22au7xgr)" height="33.2295" style="stroke: #A80036; stroke-width: 1.5;" width="54" x="307.5" y="5"/><text fill="#000000" font-family="sans-serif" font-size="14" lengthAdjust="spacingAndGlyphs" textLength="40" x="314.5" y="28.1533">Player</text><rect fill="#FEFECE" filter="url(#f1uhio22au7xgr)" height="33.2295" style="stroke: #A80036; stroke-width: 1.5;" width="54" x="307.5" y="1563.4761"/><text fill="#000000" font-family="sans-serif" font-size="14" lengthAdjust="spacingAndGlyphs" textLength="40" x="314.5" y="1586.6294">Player</text><rect fill="#FEFECE" filter="url(#f1uhio22au7xgr)" height="33.2295" style="stroke: #A80036; stroke-width: 1.5;" width="42" x="375.5" y="5"/><text fill="#000000" font-family="sans-serif" font-size="14" lengthAdjust="spacingAndGlyphs" textLength="28" x="382.5" y="28.1533">Dice</text><rect fill="#FEFECE" filter="url(#f1uhio22au7xgr)" height="33.2295" style="stroke: #A80036; stroke-width: 1.5;" width="42" x="375.5" y="1563.4761"/><text fill="#000000" font-family="sans-serif" font-size="14" lengthAdjust="spacingAndGlyphs" textLength="28" x="382.5" y="1586.6294">Dice</text><rect fill="#FEFECE" filter="url(#f1uhio22au7xgr)" height="33.2295" style="stroke: #A80036; stroke-width: 1.5;" width="88" x="431.5" y="5"/><text fill="#000000" font-family="sans-serif" font-size="14" lengthAdjust="spacingAndGlyphs" textLength="74" x="438.5" y="28.1533">PrintStream</text><rect fill="#FEFECE" filter="url(#f1uhio22au7xgr)" height="33.2295" style="stroke: #A80036; stroke-width: 1.5;" width="88" x="431.5" y="1563.4761"/><text fill="#000000" font-family="sans-serif" font-size="14" lengthAdjust="spacingAndGlyphs" textLength="74" x="438.5" y="1586.6294">PrintStream</text><path d="M10,60.2295 L210,60.2295 L210,69.2295 L200,79.2295 L10,79.2295 L10,60.2295 " fill="#EEEEEE" style="stroke: #000000; stroke-width: 1.0;"/><rect fill="none" height="111.5679" style="stroke: #000000; stroke-width: 2.0;" width="365.5" x="10" y="60.2295"/><text fill="#000000" font-family="sans-serif" font-size="13" font-weight="bold" lengthAdjust="spacingAndGlyphs" textLength="155" x="25" y="76.229">new GameSystem(int[][])</text><polygon fill="#A80036" points="263,99.9414,273,103.9414,263,107.9414,267,103.9414" style="stroke: #A80036; stroke-width: 1.0;"/><line style="stroke: #A80036; stroke-width: 1.0;" x1="71" x2="269" y1="103.9414" y2="103.9414"/><text fill="#000000" font-family="sans-serif" font-size="13" lengthAdjust="spacingAndGlyphs" textLength="33" x="78" y="99.085">Map()</text><polygon fill="#A80036" points="82,113.9414,72,117.9414,82,121.9414,78,117.9414" style="stroke: #A80036; stroke-width: 1.0;"/><line style="stroke: #A80036; stroke-width: 1.0; stroke-dasharray: 2.0,2.0;" x1="76" x2="274" y1="117.9414" y2="117.9414"/><polygon fill="#A80036" points="324.5,145.7974,334.5,149.7974,324.5,153.7974,328.5,149.7974" style="stroke: #A80036; stroke-width: 1.0;"/><line style="stroke: #A80036; stroke-width: 1.0;" x1="71" x2="330.5" y1="149.7974" y2="149.7974"/><text fill="#000000" font-family="sans-serif" font-size="13" lengthAdjust="spacingAndGlyphs" textLength="133" x="78" y="144.9409">Player(java.lang.String)</text><polygon fill="#A80036" points="82,159.7974,72,163.7974,82,167.7974,78,163.7974" style="stroke: #A80036; stroke-width: 1.0;"/><line style="stroke: #A80036; stroke-width: 1.0; stroke-dasharray: 2.0,2.0;" x1="76" x2="335.5" y1="163.7974" y2="163.7974"/><path d="M10,185.7974 L260,185.7974 L260,194.7974 L250,204.7974 L10,204.7974 L10,185.7974 " fill="#EEEEEE" style="stroke: #000000; stroke-width: 1.0;"/><rect fill="none" height="1099.687" style="stroke: #000000; stroke-width: 2.0;" width="523.5" x="10" y="185.7974"/><text fill="#000000" font-family="sans-serif" font-size="13" font-weight="bold" lengthAdjust="spacingAndGlyphs" textLength="205" x="25" y="201.7969">void playGame(java.lang.String)</text><polygon fill="#A80036" points="324.5,225.5093,334.5,229.5093,324.5,233.5093,328.5,229.5093" style="stroke: #A80036; stroke-width: 1.0;"/><line style="stroke: #A80036; stroke-width: 1.0;" x1="71" x2="330.5" y1="229.5093" y2="229.5093"/><text fill="#000000" font-family="sans-serif" font-size="13" lengthAdjust="spacingAndGlyphs" textLength="133" x="78" y="224.6528">Player(java.lang.String)</text><line style="stroke: #A80036; stroke-width: 1.0;" x1="71" x2="113" y1="261.3652" y2="261.3652"/><line style="stroke: #A80036; stroke-width: 1.0;" x1="113" x2="113" y1="261.3652" y2="274.3652"/><line style="stroke: #A80036; stroke-width: 1.0;" x1="72" x2="113" y1="274.3652" y2="274.3652"/><polygon fill="#A80036" points="82,270.3652,72,274.3652,82,278.3652,78,274.3652" style="stroke: #A80036; stroke-width: 1.0;"/><text fill="#000000" font-family="sans-serif" font-size="13" lengthAdjust="spacingAndGlyphs" textLength="73" x="78" y="256.5088">diceSetting()</text><polygon fill="#A80036" points="386.5,302.2212,396.5,306.2212,386.5,310.2212,390.5,306.2212" style="stroke: #A80036; stroke-width: 1.0;"/><line style="stroke: #A80036; stroke-width: 1.0;" x1="71" x2="392.5" y1="306.2212" y2="306.2212"/><text fill="#000000" font-family="sans-serif" font-size="13" lengthAdjust="spacingAndGlyphs" textLength="56" x="78" y="301.3647">Dice(int[])</text><polygon fill="#A80036" points="82,316.2212,72,320.2212,82,324.2212,78,320.2212" style="stroke: #A80036; stroke-width: 1.0;"/><line style="stroke: #A80036; stroke-width: 1.0; stroke-dasharray: 2.0,2.0;" x1="76" x2="397.5" y1="320.2212" y2="320.2212"/><line style="stroke: #A80036; stroke-width: 1.0; stroke-dasharray: 2.0,2.0;" x1="71" x2="113" y1="334.2212" y2="334.2212"/><line style="stroke: #A80036; stroke-width: 1.0; stroke-dasharray: 2.0,2.0;" x1="113" x2="113" y1="334.2212" y2="347.2212"/><line style="stroke: #A80036; stroke-width: 1.0; stroke-dasharray: 2.0,2.0;" x1="72" x2="113" y1="347.2212" y2="347.2212"/><polygon fill="#A80036" points="82,343.2212,72,347.2212,82,351.2212,78,347.2212" style="stroke: #A80036; stroke-width: 1.0;"/><line style="stroke: #A80036; stroke-width: 1.0;" x1="71" x2="113" y1="379.0771" y2="379.0771"/><line style="stroke: #A80036; stroke-width: 1.0;" x1="113" x2="113" y1="379.0771" y2="392.0771"/><line style="stroke: #A80036; stroke-width: 1.0;" x1="72" x2="113" y1="392.0771" y2="392.0771"/><polygon fill="#A80036" points="82,388.0771,72,392.0771,82,396.0771,78,392.0771" style="stroke: #A80036; stroke-width: 1.0;"/><text fill="#000000" font-family="sans-serif" font-size="13" lengthAdjust="spacingAndGlyphs" textLength="36" x="78" y="374.2207">main()</text><line style="stroke: #A80036; stroke-width: 1.0;" x1="71" x2="113" y1="423.9331" y2="423.9331"/><line style="stroke: #A80036; stroke-width: 1.0;" x1="113" x2="113" y1="423.9331" y2="436.9331"/><line style="stroke: #A80036; stroke-width: 1.0;" x1="72" x2="113" y1="436.9331" y2="436.9331"/><polygon fill="#A80036" points="82,432.9331,72,436.9331,82,440.9331,78,436.9331" style="stroke: #A80036; stroke-width: 1.0;"/><text fill="#000000" font-family="sans-serif" font-size="13" lengthAdjust="spacingAndGlyphs" textLength="190" x="78" y="419.0767">choiceDice(gameSystem.Player)</text><polygon fill="#A80036" points="465.5,464.7891,475.5,468.7891,465.5,472.7891,469.5,468.7891" style="stroke: #A80036; stroke-width: 1.0;"/><line style="stroke: #A80036; stroke-width: 1.0;" x1="71" x2="471.5" y1="468.7891" y2="468.7891"/><text fill="#000000" font-family="sans-serif" font-size="13" lengthAdjust="spacingAndGlyphs" textLength="131" x="78" y="463.9326">println(java.lang.String)</text><polygon fill="#A80036" points="82,478.7891,72,482.7891,82,486.7891,78,482.7891" style="stroke: #A80036; stroke-width: 1.0;"/><line style="stroke: #A80036; stroke-width: 1.0; stroke-dasharray: 2.0,2.0;" x1="76" x2="476.5" y1="482.7891" y2="482.7891"/><line style="stroke: #A80036; stroke-width: 1.0;" x1="71" x2="113" y1="514.645" y2="514.645"/><line style="stroke: #A80036; stroke-width: 1.0;" x1="113" x2="113" y1="514.645" y2="527.645"/><line style="stroke: #A80036; stroke-width: 1.0;" x1="72" x2="113" y1="527.645" y2="527.645"/><polygon fill="#A80036" points="82,523.645,72,527.645,82,531.645,78,527.645" style="stroke: #A80036; stroke-width: 1.0;"/><text fill="#000000" font-family="sans-serif" font-size="13" lengthAdjust="spacingAndGlyphs" textLength="174" x="78" y="509.7886">printPos(gameSystem.Player)</text><polygon fill="#A80036" points="324.5,555.501,334.5,559.501,324.5,563.501,328.5,559.501" style="stroke: #A80036; stroke-width: 1.0;"/><line style="stroke: #A80036; stroke-width: 1.0;" x1="71" x2="330.5" y1="559.501" y2="559.501"/><text fill="#000000" font-family="sans-serif" font-size="13" lengthAdjust="spacingAndGlyphs" textLength="49" x="78" y="554.6445">getPos()</text><polygon fill="#A80036" points="82,569.501,72,573.501,82,577.501,78,573.501" style="stroke: #A80036; stroke-width: 1.0;"/><line style="stroke: #A80036; stroke-width: 1.0; stroke-dasharray: 2.0,2.0;" x1="76" x2="335.5" y1="573.501" y2="573.501"/><polygon fill="#A80036" points="263,601.3569,273,605.3569,263,609.3569,267,605.3569" style="stroke: #A80036; stroke-width: 1.0;"/><line style="stroke: #A80036; stroke-width: 1.0;" x1="71" x2="269" y1="605.3569" y2="605.3569"/><text fill="#000000" font-family="sans-serif" font-size="13" lengthAdjust="spacingAndGlyphs" textLength="52" x="78" y="600.5005">getSize()</text><polygon fill="#A80036" points="82,615.3569,72,619.3569,82,623.3569,78,619.3569" style="stroke: #A80036; stroke-width: 1.0;"/><line style="stroke: #A80036; stroke-width: 1.0; stroke-dasharray: 2.0,2.0;" x1="76" x2="274" y1="619.3569" y2="619.3569"/><polygon fill="#A80036" points="465.5,647.2129,475.5,651.2129,465.5,655.2129,469.5,651.2129" style="stroke: #A80036; stroke-width: 1.0;"/><line style="stroke: #A80036; stroke-width: 1.0;" x1="71" x2="471.5" y1="651.2129" y2="651.2129"/><text fill="#000000" font-family="sans-serif" font-size="13" lengthAdjust="spacingAndGlyphs" textLength="131" x="78" y="646.3564">println(java.lang.String)</text><polygon fill="#A80036" points="465.5,679.0688,475.5,683.0688,465.5,687.0688,469.5,683.0688" style="stroke: #A80036; stroke-width: 1.0;"/><line style="stroke: #A80036; stroke-width: 1.0;" x1="71" x2="471.5" y1="683.0688" y2="683.0688"/><text fill="#000000" font-family="sans-serif" font-size="13" lengthAdjust="spacingAndGlyphs" textLength="121" x="78" y="678.2124">print(java.lang.String)</text><polygon fill="#A80036" points="82,693.0688,72,697.0688,82,701.0688,78,697.0688" style="stroke: #A80036; stroke-width: 1.0;"/><line style="stroke: #A80036; stroke-width: 1.0; stroke-dasharray: 2.0,2.0;" x1="76" x2="476.5" y1="697.0688" y2="697.0688"/><polygon fill="#A80036" points="465.5,724.9248,475.5,728.9248,465.5,732.9248,469.5,728.9248" style="stroke: #A80036; stroke-width: 1.0;"/><line style="stroke: #A80036; stroke-width: 1.0;" x1="71" x2="471.5" y1="728.9248" y2="728.9248"/><text fill="#000000" font-family="sans-serif" font-size="13" lengthAdjust="spacingAndGlyphs" textLength="43" x="78" y="724.0684">println()</text><polygon fill="#A80036" points="82,738.9248,72,742.9248,82,746.9248,78,742.9248" style="stroke: #A80036; stroke-width: 1.0;"/><line style="stroke: #A80036; stroke-width: 1.0; stroke-dasharray: 2.0,2.0;" x1="76" x2="476.5" y1="742.9248" y2="742.9248"/><line style="stroke: #A80036; stroke-width: 1.0; stroke-dasharray: 2.0,2.0;" x1="71" x2="113" y1="756.9248" y2="756.9248"/><line style="stroke: #A80036; stroke-width: 1.0; stroke-dasharray: 2.0,2.0;" x1="113" x2="113" y1="756.9248" y2="769.9248"/><line style="stroke: #A80036; stroke-width: 1.0; stroke-dasharray: 2.0,2.0;" x1="72" x2="113" y1="769.9248" y2="769.9248"/><polygon fill="#A80036" points="82,765.9248,72,769.9248,82,773.9248,78,769.9248" style="stroke: #A80036; stroke-width: 1.0;"/><polygon fill="#A80036" points="465.5,797.7808,475.5,801.7808,465.5,805.7808,469.5,801.7808" style="stroke: #A80036; stroke-width: 1.0;"/><line style="stroke: #A80036; stroke-width: 1.0;" x1="71" x2="471.5" y1="801.7808" y2="801.7808"/><text fill="#000000" font-family="sans-serif" font-size="13" lengthAdjust="spacingAndGlyphs" textLength="121" x="78" y="796.9243">print(java.lang.String)</text><polygon fill="#A80036" points="465.5,829.6367,475.5,833.6367,465.5,837.6367,469.5,833.6367" style="stroke: #A80036; stroke-width: 1.0;"/><line style="stroke: #A80036; stroke-width: 1.0;" x1="71" x2="471.5" y1="833.6367" y2="833.6367"/><text fill="#000000" font-family="sans-serif" font-size="13" lengthAdjust="spacingAndGlyphs" textLength="43" x="78" y="828.7803">println()</text><line style="stroke: #A80036; stroke-width: 1.0; stroke-dasharray: 2.0,2.0;" x1="71" x2="113" y1="847.6367" y2="847.6367"/><line style="stroke: #A80036; stroke-width: 1.0; stroke-dasharray: 2.0,2.0;" x1="113" x2="113" y1="847.6367" y2="860.6367"/><line style="stroke: #A80036; stroke-width: 1.0; stroke-dasharray: 2.0,2.0;" x1="72" x2="113" y1="860.6367" y2="860.6367"/><polygon fill="#A80036" points="82,856.6367,72,860.6367,82,864.6367,78,860.6367" style="stroke: #A80036; stroke-width: 1.0;"/><line style="stroke: #A80036; stroke-width: 1.0;" x1="71" x2="113" y1="892.4927" y2="892.4927"/><line style="stroke: #A80036; stroke-width: 1.0;" x1="113" x2="113" y1="892.4927" y2="905.4927"/><line style="stroke: #A80036; stroke-width: 1.0;" x1="72" x2="113" y1="905.4927" y2="905.4927"/><polygon fill="#A80036" points="82,901.4927,72,905.4927,82,909.4927,78,905.4927" style="stroke: #A80036; stroke-width: 1.0;"/><text fill="#000000" font-family="sans-serif" font-size="13" lengthAdjust="spacingAndGlyphs" textLength="161" x="78" y="887.6362">diceRoll(gameSystem.Dice)</text><polygon fill="#A80036" points="386.5,933.3486,396.5,937.3486,386.5,941.3486,390.5,937.3486" style="stroke: #A80036; stroke-width: 1.0;"/><line style="stroke: #A80036; stroke-width: 1.0;" x1="71" x2="392.5" y1="937.3486" y2="937.3486"/><text fill="#000000" font-family="sans-serif" font-size="13" lengthAdjust="spacingAndGlyphs" textLength="25" x="78" y="932.4922">roll()</text><line style="stroke: #A80036; stroke-width: 1.0; stroke-dasharray: 2.0,2.0;" x1="71" x2="113" y1="951.3486" y2="951.3486"/><line style="stroke: #A80036; stroke-width: 1.0; stroke-dasharray: 2.0,2.0;" x1="113" x2="113" y1="951.3486" y2="964.3486"/><line style="stroke: #A80036; stroke-width: 1.0; stroke-dasharray: 2.0,2.0;" x1="72" x2="113" y1="964.3486" y2="964.3486"/><polygon fill="#A80036" points="82,960.3486,72,964.3486,82,968.3486,78,964.3486" style="stroke: #A80036; stroke-width: 1.0;"/><line style="stroke: #A80036; stroke-width: 1.0;" x1="71" x2="113" y1="996.2046" y2="996.2046"/><line style="stroke: #A80036; stroke-width: 1.0;" x1="113" x2="113" y1="996.2046" y2="1009.2046"/><line style="stroke: #A80036; stroke-width: 1.0;" x1="72" x2="113" y1="1009.2046" y2="1009.2046"/><polygon fill="#A80036" points="82,1005.2046,72,1009.2046,82,1013.2046,78,1009.2046" style="stroke: #A80036; stroke-width: 1.0;"/><text fill="#000000" font-family="sans-serif" font-size="13" lengthAdjust="spacingAndGlyphs" textLength="178" x="78" y="991.3481">move(int, gameSystem.Player)</text><polygon fill="#A80036" points="324.5,1037.0605,334.5,1041.0605,324.5,1045.0605,328.5,1041.0605" style="stroke: #A80036; stroke-width: 1.0;"/><line style="stroke: #A80036; stroke-width: 1.0;" x1="71" x2="330.5" y1="1041.0605" y2="1041.0605"/><text fill="#000000" font-family="sans-serif" font-size="13" lengthAdjust="spacingAndGlyphs" textLength="49" x="78" y="1036.2041">getPos()</text><polygon fill="#A80036" points="263,1068.9165,273,1072.9165,263,1076.9165,267,1072.9165" style="stroke: #A80036; stroke-width: 1.0;"/><line style="stroke: #A80036; stroke-width: 1.0;" x1="71" x2="269" y1="1072.9165" y2="1072.9165"/><text fill="#000000" font-family="sans-serif" font-size="13" lengthAdjust="spacingAndGlyphs" textLength="52" x="78" y="1068.0601">getSize()</text><polygon fill="#A80036" points="263,1100.7725,273,1104.7725,263,1108.7725,267,1104.7725" style="stroke: #A80036; stroke-width: 1.0;"/><line style="stroke: #A80036; stroke-width: 1.0;" x1="71" x2="269" y1="1104.7725" y2="1104.7725"/><text fill="#000000" font-family="sans-serif" font-size="13" lengthAdjust="spacingAndGlyphs" textLength="72" x="78" y="1099.916">getEvent(int)</text><polygon fill="#A80036" points="82,1114.7725,72,1118.7725,82,1122.7725,78,1118.7725" style="stroke: #A80036; stroke-width: 1.0;"/><line style="stroke: #A80036; stroke-width: 1.0; stroke-dasharray: 2.0,2.0;" x1="76" x2="274" y1="1118.7725" y2="1118.7725"/><polygon fill="#A80036" points="465.5,1146.6284,475.5,1150.6284,465.5,1154.6284,469.5,1150.6284" style="stroke: #A80036; stroke-width: 1.0;"/><line style="stroke: #A80036; stroke-width: 1.0;" x1="71" x2="471.5" y1="1150.6284" y2="1150.6284"/><text fill="#000000" font-family="sans-serif" font-size="13" lengthAdjust="spacingAndGlyphs" textLength="131" x="78" y="1145.772">println(java.lang.String)</text><polygon fill="#A80036" points="324.5,1178.4844,334.5,1182.4844,324.5,1186.4844,328.5,1182.4844" style="stroke: #A80036; stroke-width: 1.0;"/><line style="stroke: #A80036; stroke-width: 1.0;" x1="71" x2="330.5" y1="1182.4844" y2="1182.4844"/><text fill="#000000" font-family="sans-serif" font-size="13" lengthAdjust="spacingAndGlyphs" textLength="63" x="78" y="1177.6279">setPos(int)</text><polygon fill="#A80036" points="82,1192.4844,72,1196.4844,82,1200.4844,78,1196.4844" style="stroke: #A80036; stroke-width: 1.0;"/><line style="stroke: #A80036; stroke-width: 1.0; stroke-dasharray: 2.0,2.0;" x1="76" x2="335.5" y1="1196.4844" y2="1196.4844"/><line style="stroke: #A80036; stroke-width: 1.0; stroke-dasharray: 2.0,2.0;" x1="71" x2="113" y1="1210.4844" y2="1210.4844"/><line style="stroke: #A80036; stroke-width: 1.0; stroke-dasharray: 2.0,2.0;" x1="113" x2="113" y1="1210.4844" y2="1223.4844"/><line style="stroke: #A80036; stroke-width: 1.0; stroke-dasharray: 2.0,2.0;" x1="72" x2="113" y1="1223.4844" y2="1223.4844"/><polygon fill="#A80036" points="82,1219.4844,72,1223.4844,82,1227.4844,78,1223.4844" style="stroke: #A80036; stroke-width: 1.0;"/><line style="stroke: #A80036; stroke-width: 1.0; stroke-dasharray: 2.0,2.0;" x1="71" x2="113" y1="1237.4844" y2="1237.4844"/><line style="stroke: #A80036; stroke-width: 1.0; stroke-dasharray: 2.0,2.0;" x1="113" x2="113" y1="1237.4844" y2="1250.4844"/><line style="stroke: #A80036; stroke-width: 1.0; stroke-dasharray: 2.0,2.0;" x1="72" x2="113" y1="1250.4844" y2="1250.4844"/><polygon fill="#A80036" points="82,1246.4844,72,1250.4844,82,1254.4844,78,1250.4844" style="stroke: #A80036; stroke-width: 1.0;"/><line style="stroke: #A80036; stroke-width: 1.0; stroke-dasharray: 2.0,2.0;" x1="71" x2="113" y1="1264.4844" y2="1264.4844"/><line style="stroke: #A80036; stroke-width: 1.0; stroke-dasharray: 2.0,2.0;" x1="113" x2="113" y1="1264.4844" y2="1277.4844"/><line style="stroke: #A80036; stroke-width: 1.0; stroke-dasharray: 2.0,2.0;" x1="72" x2="113" y1="1277.4844" y2="1277.4844"/><polygon fill="#A80036" points="82,1273.4844,72,1277.4844,82,1281.4844,78,1277.4844" style="stroke: #A80036; stroke-width: 1.0;"/><path d="M30,1299.4844 L186,1299.4844 L186,1308.4844 L176,1318.4844 L30,1318.4844 L30,1299.4844 " fill="#EEEEEE" style="stroke: #000000; stroke-width: 1.0;"/><rect fill="none" height="19.856" style="stroke: #000000; stroke-width: 2.0;" width="161" x="30" y="1299.4844"/><text fill="#000000" font-family="sans-serif" font-size="13" font-weight="bold" lengthAdjust="spacingAndGlyphs" textLength="111" x="45" y="1315.4839">void diceSetting()</text><path d="M30,1333.3403 L293,1333.3403 L293,1342.3403 L283,1352.3403 L30,1352.3403 L30,1333.3403 " fill="#EEEEEE" style="stroke: #000000; stroke-width: 1.0;"/><rect fill="none" height="19.856" style="stroke: #000000; stroke-width: 2.0;" width="268" x="30" y="1333.3403"/><text fill="#000000" font-family="sans-serif" font-size="13" font-weight="bold" lengthAdjust="spacingAndGlyphs" textLength="218" x="45" y="1349.3398">void printPos(gameSystem.Player)</text><path d="M30,1367.1963 L312,1367.1963 L312,1376.1963 L302,1386.1963 L30,1386.1963 L30,1367.1963 " fill="#EEEEEE" style="stroke: #000000; stroke-width: 1.0;"/><rect fill="none" height="19.856" style="stroke: #000000; stroke-width: 2.0;" width="287" x="30" y="1367.1963"/><text fill="#000000" font-family="sans-serif" font-size="13" font-weight="bold" lengthAdjust="spacingAndGlyphs" textLength="237" x="45" y="1383.1958">Dice choiceDice(gameSystem.Player)</text><path d="M30,1401.0522 L269,1401.0522 L269,1410.0522 L259,1420.0522 L30,1420.0522 L30,1401.0522 " fill="#EEEEEE" style="stroke: #000000; stroke-width: 1.0;"/><rect fill="none" height="19.856" style="stroke: #000000; stroke-width: 2.0;" width="244" x="30" y="1401.0522"/><text fill="#000000" font-family="sans-serif" font-size="13" font-weight="bold" lengthAdjust="spacingAndGlyphs" textLength="194" x="45" y="1417.0518">int diceRoll(gameSystem.Dice)</text><path d="M30,1434.9082 L300,1434.9082 L300,1443.9082 L290,1453.9082 L30,1453.9082 L30,1434.9082 " fill="#EEEEEE" style="stroke: #000000; stroke-width: 1.0;"/><rect fill="none" height="19.856" style="stroke: #000000; stroke-width: 2.0;" width="275" x="30" y="1434.9082"/><text fill="#000000" font-family="sans-serif" font-size="13" font-weight="bold" lengthAdjust="spacingAndGlyphs" textLength="225" x="45" y="1450.9077">void move(int, gameSystem.Player)</text><path d="M10,1468.7642 L162,1468.7642 L162,1477.7642 L152,1487.7642 L10,1487.7642 L10,1468.7642 " fill="#EEEEEE" style="stroke: #000000; stroke-width: 1.0;"/><rect fill="none" height="78.7119" style="stroke: #000000; stroke-width: 2.0;" width="523.5" x="10" y="1468.7642"/><text fill="#000000" font-family="sans-serif" font-size="13" font-weight="bold" lengthAdjust="spacingAndGlyphs" textLength="107" x="25" y="1484.7637">void printResult()</text><polygon fill="#A80036" points="465.5,1508.4761,475.5,1512.4761,465.5,1516.4761,469.5,1512.4761" style="stroke: #A80036; stroke-width: 1.0;"/><line style="stroke: #A80036; stroke-width: 1.0;" x1="71" x2="471.5" y1="1512.4761" y2="1512.4761"/><text fill="#000000" font-family="sans-serif" font-size="13" lengthAdjust="spacingAndGlyphs" textLength="131" x="78" y="1507.6196">println(java.lang.String)</text><line style="stroke: #A80036; stroke-width: 1.0; stroke-dasharray: 2.0,2.0;" x1="71" x2="113" y1="1526.4761" y2="1526.4761"/><line style="stroke: #A80036; stroke-width: 1.0; stroke-dasharray: 2.0,2.0;" x1="113" x2="113" y1="1526.4761" y2="1539.4761"/><line style="stroke: #A80036; stroke-width: 1.0; stroke-dasharray: 2.0,2.0;" x1="72" x2="113" y1="1539.4761" y2="1539.4761"/><polygon fill="#A80036" points="82,1535.4761,72,1539.4761,82,1543.4761,78,1539.4761" style="stroke: #A80036; stroke-width: 1.0;"/><!--MD5=[5845eb6b0122c8338a2c2a2521db2803]
@startuml
group new GameSystem(int[][])
	GameSystem->Map : Map()
		Map- ->GameSystem
	GameSystem->Player : Player(java.lang.String)
		Player- ->GameSystem
end

group void playGame(java.lang.String)
	GameSystem->Player : Player(java.lang.String)
	GameSystem->GameSystem : diceSetting()
		GameSystem->Dice : Dice(int[])
			Dice- ->GameSystem
		GameSystem- ->GameSystem
	GameSystem->GameSystem : main()
		GameSystem->GameSystem : choiceDice(gameSystem.Player)
			GameSystem->PrintStream : println(java.lang.String)
				PrintStream- ->GameSystem
			GameSystem->GameSystem : printPos(gameSystem.Player)
				GameSystem->Player : getPos()
					Player- ->GameSystem
				GameSystem->Map : getSize()
					Map- ->GameSystem
				GameSystem->PrintStream : println(java.lang.String)
				GameSystem->PrintStream : print(java.lang.String)
					PrintStream- ->GameSystem
				GameSystem->PrintStream : println()
					PrintStream- ->GameSystem
				GameSystem- ->GameSystem
			GameSystem->PrintStream : print(java.lang.String)
			GameSystem->PrintStream : println()
			GameSystem- ->GameSystem
		GameSystem->GameSystem : diceRoll(gameSystem.Dice)
			GameSystem->Dice : roll()
			GameSystem- ->GameSystem
		GameSystem->GameSystem : move(int, gameSystem.Player)
			GameSystem->Player : getPos()
			GameSystem->Map : getSize()
			GameSystem->Map : getEvent(int)
				Map- ->GameSystem
			GameSystem->PrintStream : println(java.lang.String)
			GameSystem->Player : setPos(int)
				Player- ->GameSystem
			GameSystem- ->GameSystem
		GameSystem- ->GameSystem
	GameSystem- ->GameSystem
end

group void diceSetting()
end

group void printPos(gameSystem.Player)
end

group Dice choiceDice(gameSystem.Player)
end

group int diceRoll(gameSystem.Dice)
end

group void move(int, gameSystem.Player)
end

group void printResult()
	GameSystem->PrintStream : println(java.lang.String)
	GameSystem- ->GameSystem
end

@enduml

PlantUML version 1.2020.19(Tue Oct 13 00:10:01 KST 2020)
(APACHE source distribution)
Java Runtime: Java(TM) SE Runtime Environment
JVM: Java HotSpot(TM) 64-Bit Server VM
Default Encoding: MS949
Language: ko
Country: KR
--></g></svg>