<?xml version="1.0" encoding="UTF-8" standalone="no"?><svg xmlns="http://www.w3.org/2000/svg" xmlns:xlink="http://www.w3.org/1999/xlink" contentScriptType="application/ecmascript" contentStyleType="text/css" height="392px" preserveAspectRatio="none" style="width:260px;height:392px;" version="1.1" viewBox="0 0 260 392" width="260px" zoomAndPan="magnify"><defs><filter height="300%" id="f1sag8inycp1tb" width="300%" x="-1" y="-1"><feGaussianBlur result="blurOut" stdDeviation="2.0"/><feColorMatrix in="blurOut" result="blurOut2" type="matrix" values="0 0 0 0 0 0 0 0 0 0 0 0 0 0 0 0 0 0 .4 0"/><feOffset dx="4.0" dy="4.0" in="blurOut2" result="blurOut3"/><feBlend in="SourceGraphic" in2="blurOut3" mode="normal"/></filter></defs><g><!--MD5=[f855d74e4b556380056f383f6b1dbac4]
cluster target.Barista.getOrder(target--><polygon fill="#FFFFFF" filter="url(#f1sag8inycp1tb)" points="16,6,232,6,239,31.2295,243,31.2295,243,385,16,385,16,6" style="stroke: #000000; stroke-width: 1.5;"/><line style="stroke: #000000; stroke-width: 1.5;" x1="16" x2="239" y1="31.2295" y2="31.2295"/><text fill="#000000" font-family="sans-serif" font-size="14" font-weight="bold" lengthAdjust="spacingAndGlyphs" textLength="210" x="20" y="24.1533">target.Barista.getOrder(target</text><!--MD5=[58a6a067198b34196d9ca36f34cc152f]
class target.Barista.getOrder(target.Barista)--><rect codeLine="1" fill="#FEFECE" filter="url(#f1sag8inycp1tb)" height="323.5144" id="target.Barista.getOrder(target.Barista)" style="stroke: #A80036; stroke-width: 1.5;" width="146" x="56" y="45"/><ellipse cx="103.25" cy="61" fill="#ADD1B2" rx="11" ry="11" style="stroke: #A80036; stroke-width: 1.0;"/><path d="M102.8125,54.5156 Q100.0781,54.5156 99,56.1406 Q97.8594,57.8594 97.8594,60.7813 Q97.8594,64.0781 99.0156,65.7813 Q100,67.2813 102.6094,67.2813 Q104.1875,67.2813 105.0625,66.4531 Q106.0469,65.5 106.1875,63.375 Q106.1875,63.0781 106.0156,62.9063 Q105.8906,62.75 105.6719,62.7344 Q104.4531,62.7344 104.2969,62.8594 Q104.125,63.0156 104.125,63.2813 Q104.0938,64.7656 103.4375,65.5781 Q102.8281,66.375 102.75,66.375 Q101.4219,66.375 100.6406,64.7813 Q99.8906,63.2344 99.8906,60.75 Q99.8906,58.125 100.8281,56.6719 Q101.6563,55.4219 102.9375,55.4219 Q102.9375,55.4219 103.2813,56.0469 Q103.9063,56.7188 104.0469,57.875 Q104.1563,58.4531 105.625,58.2344 Q106.1563,58.1563 106.125,57.7344 Q105.9531,56.2969 105.2344,55.4844 Q104.375,54.5156 102.8125,54.5156 Z "/><text fill="#000000" font-family="sans-serif" font-size="12" lengthAdjust="spacingAndGlyphs" textLength="43" x="123.75" y="66.6045">Barista)</text><line style="stroke: #A80036; stroke-width: 1.5;" x1="57" x2="201" y1="77" y2="77"/><line style="stroke: #A80036; stroke-width: 1.5;" x1="57" x2="109" y1="92.5544" y2="92.5544"/><text fill="#008000" font-family="sans-serif" font-size="11" font-weight="bold" lengthAdjust="spacingAndGlyphs" textLength="40" x="109" y="97.1919">has list</text><line style="stroke: #A80036; stroke-width: 1.5;" x1="149" x2="201" y1="92.5544" y2="92.5544"/><line style="stroke: #A80036; stroke-width: 1.0; stroke-dasharray: 1.0,2.0;" x1="57" x2="116" y1="115.2178" y2="115.2178"/><text fill="#000000" font-family="sans-serif" font-size="11" lengthAdjust="spacingAndGlyphs" textLength="26" x="116" y="119.8552">class</text><line style="stroke: #A80036; stroke-width: 1.0; stroke-dasharray: 1.0,2.0;" x1="142" x2="201" y1="115.2178" y2="115.2178"/><text fill="#000000" font-family="sans-serif" font-size="11" lengthAdjust="spacingAndGlyphs" textLength="134" x="62" y="158.1274">Barista staff (1308109015);</text><line style="stroke: #A80036; stroke-width: 1.0; stroke-dasharray: 1.0,2.0;" x1="57" x2="110" y1="137.8811" y2="137.8811"/><text fill="#000000" font-family="sans-serif" font-size="11" lengthAdjust="spacingAndGlyphs" textLength="38" x="110" y="142.5186">member</text><line style="stroke: #A80036; stroke-width: 1.0; stroke-dasharray: 1.0,2.0;" x1="148" x2="201" y1="137.8811" y2="137.8811"/><line style="stroke: #A80036; stroke-width: 1.0; stroke-dasharray: 1.0,2.0;" x1="57" x2="111.5" y1="172.0989" y2="172.0989"/><text fill="#000000" font-family="sans-serif" font-size="11" lengthAdjust="spacingAndGlyphs" textLength="35" x="111.5" y="176.7363">method</text><line style="stroke: #A80036; stroke-width: 1.0; stroke-dasharray: 1.0,2.0;" x1="146.5" x2="201" y1="172.0989" y2="172.0989"/><line style="stroke: #A80036; stroke-width: 1.5;" x1="57" x2="101.5" y1="194.7622" y2="194.7622"/><text fill="#0000FF" font-family="sans-serif" font-size="11" font-weight="bold" lengthAdjust="spacingAndGlyphs" textLength="55" x="101.5" y="199.3997">calling list</text><line style="stroke: #A80036; stroke-width: 1.5;" x1="156.5" x2="201" y1="194.7622" y2="194.7622"/><line style="stroke: #A80036; stroke-width: 1.0; stroke-dasharray: 1.0,2.0;" x1="57" x2="116" y1="217.4255" y2="217.4255"/><text fill="#000000" font-family="sans-serif" font-size="11" lengthAdjust="spacingAndGlyphs" textLength="26" x="116" y="222.063">class</text><line style="stroke: #A80036; stroke-width: 1.0; stroke-dasharray: 1.0,2.0;" x1="142" x2="201" y1="217.4255" y2="217.4255"/><line style="stroke: #A80036; stroke-width: 1.0; stroke-dasharray: 1.0,2.0;" x1="57" x2="110" y1="240.0889" y2="240.0889"/><text fill="#000000" font-family="sans-serif" font-size="11" lengthAdjust="spacingAndGlyphs" textLength="38" x="110" y="244.7263">member</text><line style="stroke: #A80036; stroke-width: 1.0; stroke-dasharray: 1.0,2.0;" x1="148" x2="201" y1="240.0889" y2="240.0889"/><line style="stroke: #A80036; stroke-width: 1.0; stroke-dasharray: 1.0,2.0;" x1="57" x2="111.5" y1="262.7522" y2="262.7522"/><text fill="#000000" font-family="sans-serif" font-size="11" lengthAdjust="spacingAndGlyphs" textLength="35" x="111.5" y="267.3896">method</text><line style="stroke: #A80036; stroke-width: 1.0; stroke-dasharray: 1.0,2.0;" x1="146.5" x2="201" y1="262.7522" y2="262.7522"/><line style="stroke: #A80036; stroke-width: 1.5;" x1="57" x2="95" y1="285.4155" y2="285.4155"/><text fill="#FFA500" font-family="sans-serif" font-size="11" font-weight="bold" lengthAdjust="spacingAndGlyphs" textLength="68" x="95" y="290.053">called by list</text><line style="stroke: #A80036; stroke-width: 1.5;" x1="163" x2="201" y1="285.4155" y2="285.4155"/><line style="stroke: #A80036; stroke-width: 1.0; stroke-dasharray: 1.0,2.0;" x1="57" x2="116" y1="308.0789" y2="308.0789"/><text fill="#000000" font-family="sans-serif" font-size="11" lengthAdjust="spacingAndGlyphs" textLength="26" x="116" y="312.7163">class</text><line style="stroke: #A80036; stroke-width: 1.0; stroke-dasharray: 1.0,2.0;" x1="142" x2="201" y1="308.0789" y2="308.0789"/><line style="stroke: #A80036; stroke-width: 1.0; stroke-dasharray: 1.0,2.0;" x1="57" x2="110" y1="330.7422" y2="330.7422"/><text fill="#000000" font-family="sans-serif" font-size="11" lengthAdjust="spacingAndGlyphs" textLength="38" x="110" y="335.3796">member</text><line style="stroke: #A80036; stroke-width: 1.0; stroke-dasharray: 1.0,2.0;" x1="148" x2="201" y1="330.7422" y2="330.7422"/><line style="stroke: #A80036; stroke-width: 1.0; stroke-dasharray: 1.0,2.0;" x1="57" x2="111.5" y1="353.4055" y2="353.4055"/><text fill="#000000" font-family="sans-serif" font-size="11" lengthAdjust="spacingAndGlyphs" textLength="35" x="111.5" y="358.043">method</text><line style="stroke: #A80036; stroke-width: 1.0; stroke-dasharray: 1.0,2.0;" x1="146.5" x2="201" y1="353.4055" y2="353.4055"/><!--MD5=[9d934e2b98c4315fc8bc6454825389b3]
@startuml
class target.Barista.getOrder(target.Barista){
__**<color:green>has list</color>**__
..class..
..member..
	Barista staff (1308109015);
..method..
__**<color:blue>calling list</color>**__
..class..
..member..
..method..
__**<color:orange>called by list</color>**__
..class..
..member..
..method..
}

@enduml

PlantUML version 1.2020.19(Tue Oct 13 00:10:01 KST 2020)
(APACHE source distribution)
Java Runtime: Java(TM) SE Runtime Environment
JVM: Java HotSpot(TM) 64-Bit Server VM
Default Encoding: MS949
Language: ko
Country: KR
--></g></svg>