<?xml version="1.0" encoding="UTF-8" standalone="no"?><svg xmlns="http://www.w3.org/2000/svg" xmlns:xlink="http://www.w3.org/1999/xlink" contentScriptType="application/ecmascript" contentStyleType="text/css" height="443px" preserveAspectRatio="none" style="width:331px;height:443px;" version="1.1" viewBox="0 0 331 443" width="331px" zoomAndPan="magnify"><defs><filter height="300%" id="f1owzy4n3oo9zx" width="300%" x="-1" y="-1"><feGaussianBlur result="blurOut" stdDeviation="2.0"/><feColorMatrix in="blurOut" result="blurOut2" type="matrix" values="0 0 0 0 0 0 0 0 0 0 0 0 0 0 0 0 0 0 .4 0"/><feOffset dx="4.0" dy="4.0" in="blurOut2" result="blurOut3"/><feBlend in="SourceGraphic" in2="blurOut3" mode="normal"/></filter></defs><g><!--MD5=[b8e8f05765f8aabfbcdb4df279087e68]
cluster login--><rect fill="#FFFFFF" filter="url(#f1owzy4n3oo9zx)" height="88" style="stroke: #000000; stroke-width: 1.5;" width="80" x="108.5" y="7"/><text fill="#000000" font-family="sans-serif" font-size="14" font-weight="bold" lengthAdjust="spacingAndGlyphs" textLength="35" x="131" y="25.1533">login</text><!--MD5=[c2e91a5afc248ef1801ed01e98408fb8]
cluster buy--><rect fill="#FFFFFF" filter="url(#f1owzy4n3oo9zx)" height="88" style="stroke: #000000; stroke-width: 1.5;" width="71" x="113" y="119"/><text fill="#000000" font-family="sans-serif" font-size="14" font-weight="bold" lengthAdjust="spacingAndGlyphs" textLength="25" x="136" y="137.1533">buy</text><!--MD5=[5c9f2ff3dce8366365a11f69deb0ca7c]
cluster charge--><rect fill="#FFFFFF" filter="url(#f1owzy4n3oo9zx)" height="88" style="stroke: #000000; stroke-width: 1.5;" width="100" x="98.5" y="231"/><text fill="#000000" font-family="sans-serif" font-size="14" font-weight="bold" lengthAdjust="spacingAndGlyphs" textLength="49" x="124" y="249.1533">charge</text><!--MD5=[859a7a6e259389c8de7b8bdf0e4efb78]
cluster addGoods--><rect fill="#FFFFFF" filter="url(#f1owzy4n3oo9zx)" height="88" style="stroke: #000000; stroke-width: 1.5;" width="131" x="83" y="343"/><text fill="#000000" font-family="sans-serif" font-size="14" font-weight="bold" lengthAdjust="spacingAndGlyphs" textLength="72" x="112.5" y="361.1533">addGoods</text><ellipse cx="148.7132" cy="62.0973" fill="#FEFECE" filter="url(#f1owzy4n3oo9zx)" rx="24.2132" ry="16.5973" style="stroke: #A80036; stroke-width: 1.5;"/><text fill="#000000" font-family="sans-serif" font-size="14" lengthAdjust="spacingAndGlyphs" textLength="30" x="133.7132" y="68.2121">login</text><ellipse cx="148.6341" cy="173.8073" fill="#FEFECE" filter="url(#f1owzy4n3oo9zx)" rx="19.6341" ry="16.3073" style="stroke: #A80036; stroke-width: 1.5;"/><text fill="#000000" font-family="sans-serif" font-size="14" lengthAdjust="spacingAndGlyphs" textLength="23" x="137.1341" y="179.922">buy</text><ellipse cx="148.6127" cy="286.0973" fill="#FEFECE" filter="url(#f1owzy4n3oo9zx)" rx="34.1127" ry="16.5973" style="stroke: #A80036; stroke-width: 1.5;"/><text fill="#000000" font-family="sans-serif" font-size="14" lengthAdjust="spacingAndGlyphs" textLength="44" x="126.6127" y="292.2121">charge</text><ellipse cx="148.669" cy="398.0973" fill="#FEFECE" filter="url(#f1owzy4n3oo9zx)" rx="49.669" ry="16.5973" style="stroke: #A80036; stroke-width: 1.5;"/><text fill="#000000" font-family="sans-serif" font-size="14" lengthAdjust="spacingAndGlyphs" textLength="66" x="115.669" y="404.2121">addGoods</text><!--MD5=[d45a3758a884cda8c639588763c7db07]
entity actor132577100--><ellipse cx="22.5" cy="197.5" fill="#FEFECE" filter="url(#f1owzy4n3oo9zx)" rx="8" ry="8" style="stroke: #A80036; stroke-width: 1.5;"/><path d="M22.5,205.5 L22.5,232.5 M9.5,213.5 L35.5,213.5 M22.5,232.5 L9.5,247.5 M22.5,232.5 L35.5,247.5 " fill="none" filter="url(#f1owzy4n3oo9zx)" style="stroke: #A80036; stroke-width: 1.5;"/><text fill="#000000" font-family="sans-serif" font-size="14" lengthAdjust="spacingAndGlyphs" textLength="33" x="6" y="269.1533">Actor</text><!--MD5=[af6c21cafd0d0259f429f543186c91af]
entity actor1632682988--><ellipse cx="291" cy="197.5" fill="#FEFECE" filter="url(#f1owzy4n3oo9zx)" rx="8" ry="8" style="stroke: #A80036; stroke-width: 1.5;"/><path d="M291,205.5 L291,232.5 M278,213.5 L304,213.5 M291,232.5 L278,247.5 M291,232.5 L304,247.5 " fill="none" filter="url(#f1owzy4n3oo9zx)" style="stroke: #A80036; stroke-width: 1.5;"/><text fill="#000000" font-family="sans-serif" font-size="14" lengthAdjust="spacingAndGlyphs" textLength="66" x="258" y="269.1533">addGoods</text><!--MD5=[4ecbc6fa6f07a01395a36aa0e36cf28a]
link actor132577100 to UC2--><path d="M39.1,199.31 C48.6,181.67 61.47,159.42 75,141 C93.29,116.1 118.35,90.27 133.7,75.19 " fill="none" id="actor132577100-UC2" style="stroke: #A80036; stroke-width: 1.0;"/><!--MD5=[194a2b7de9729b61399fc4026e51adb1]
link UC2 to actor1632682988--><path d="M162.72,75.64 C177.56,91.13 202.15,117.31 222,141 C234.49,155.9 247.6,172.74 258.94,187.73 " fill="none" id="UC2-actor1632682988" style="stroke: #A80036; stroke-width: 1.0;"/><!--MD5=[2bd33bbb9f25cf1b2e5e16478c663912]
link actor132577100 to UC3--><path d="M39.2,222.91 C62.67,212.31 106.67,192.44 130.74,181.57 " fill="none" id="actor132577100-UC3" style="stroke: #A80036; stroke-width: 1.0;"/><!--MD5=[b4d25b86322dccf90b96ea74a0effce1]
link UC3 to actor1632682988--><path d="M166.45,180.75 C189,189.74 229.33,205.82 257.77,217.15 " fill="none" id="UC3-actor1632682988" style="stroke: #A80036; stroke-width: 1.0;"/><!--MD5=[cdbd6246639ace75bf091d3933616efb]
link actor132577100 to UC4--><path d="M39.2,237.09 C60.32,246.63 98.08,263.68 122.96,274.92 " fill="none" id="actor132577100-UC4" style="stroke: #A80036; stroke-width: 1.0;"/><!--MD5=[21db189c1a394eaac8499dc939576e2b]
link UC4 to actor1632682988--><path d="M175.27,275.73 C198.56,266.45 232.93,252.75 257.98,242.76 " fill="none" id="UC4-actor1632682988" style="stroke: #A80036; stroke-width: 1.0;"/><!--MD5=[5eb901dcc4e102eb992dcb976ebba2e8]
link actor132577100 to UC5--><path d="M39.1,260.69 C48.6,278.33 61.47,300.58 75,319 C92.3,342.55 115.65,366.93 131.12,382.26 " fill="none" id="actor132577100-UC5" style="stroke: #A80036; stroke-width: 1.0;"/><!--MD5=[ac3fe1f870d806cc72d9fdba887fd410]
link UC5 to actor1632682988--><path d="M164.65,382.34 C179.63,366.67 202.99,341.69 222,319 C234.49,304.1 247.6,287.26 258.94,272.27 " fill="none" id="UC5-actor1632682988" style="stroke: #A80036; stroke-width: 1.0;"/><!--MD5=[ffbbe25ca9f517d791cee7a5b416ef90]
@startuml
 left to right direction

actor Actor as actor132577100

	rectangle login{
	 usecase login as UC2
	actor132577100- -UC2
	}
actor login as actor1632682988
UC2- -actor1632682988

	rectangle buy{
	 usecase buy as UC3
	actor132577100- -UC3
	}
actor buy as actor1632682988
UC3- -actor1632682988

	rectangle charge{
	 usecase charge as UC4
	actor132577100- -UC4
	}
actor charge as actor1632682988
UC4- -actor1632682988

	rectangle addGoods{
	 usecase addGoods as UC5
	actor132577100- -UC5
	}
actor addGoods as actor1632682988
UC5- -actor1632682988


@enduml

PlantUML version 1.2020.19(Tue Oct 13 00:10:01 KST 2020)
(APACHE source distribution)
Java Runtime: Java(TM) SE Runtime Environment
JVM: Java HotSpot(TM) 64-Bit Server VM
Default Encoding: MS949
Language: ko
Country: KR
--></g></svg>