<?xml version="1.0" encoding="UTF-8" standalone="no"?><svg xmlns="http://www.w3.org/2000/svg" xmlns:xlink="http://www.w3.org/1999/xlink" contentScriptType="application/ecmascript" contentStyleType="text/css" height="726px" preserveAspectRatio="none" style="width:384px;height:726px;" version="1.1" viewBox="0 0 384 726" width="384px" zoomAndPan="magnify"><defs><filter height="300%" id="f1saejvay0qgrk" width="300%" x="-1" y="-1"><feGaussianBlur result="blurOut" stdDeviation="2.0"/><feColorMatrix in="blurOut" result="blurOut2" type="matrix" values="0 0 0 0 0 0 0 0 0 0 0 0 0 0 0 0 0 0 .4 0"/><feOffset dx="4.0" dy="4.0" in="blurOut2" result="blurOut3"/><feBlend in="SourceGraphic" in2="blurOut3" mode="normal"/></filter></defs><g><!--MD5=[0d852700fdad35b7061d461d6907a324]
cluster java.io--><polygon fill="#FFFFFF" filter="url(#f1saejvay0qgrk)" points="227.4104,117,279.4104,117,286.4104,142.2295,321.4104,142.2295,321.4104,271,227.4104,271,227.4104,117" style="stroke: #000000; stroke-width: 1.5;"/><line style="stroke: #000000; stroke-width: 1.5;" x1="227.4104" x2="286.4104" y1="142.2295" y2="142.2295"/><text fill="#000000" font-family="sans-serif" font-size="14" font-weight="bold" lengthAdjust="spacingAndGlyphs" textLength="46" x="231.4104" y="135.1533">java.io</text><!--MD5=[3933140a3572eb533f89b9e66b6e41f8]
cluster dataSet--><polygon fill="#FFFFFF" filter="url(#f1saejvay0qgrk)" points="181.4104,295,240.4104,295,247.4104,320.2295,367.4104,320.2295,367.4104,719,181.4104,719,181.4104,295" style="stroke: #000000; stroke-width: 1.5;"/><line style="stroke: #000000; stroke-width: 1.5;" x1="181.4104" x2="247.4104" y1="320.2295" y2="320.2295"/><text fill="#000000" font-family="sans-serif" font-size="14" font-weight="bold" lengthAdjust="spacingAndGlyphs" textLength="53" x="185.4104" y="313.1533">dataSet</text><!--MD5=[7db3c59d38ae5b37b484eb2df9368145]
cluster java.util--><polygon fill="#FFFFFF" filter="url(#f1saejvay0qgrk)" points="238.4104,6,299.4104,6,306.4104,31.2295,310.4104,31.2295,310.4104,93,238.4104,93,238.4104,6" style="stroke: #000000; stroke-width: 1.5;"/><line style="stroke: #000000; stroke-width: 1.5;" x1="238.4104" x2="306.4104" y1="31.2295" y2="31.2295"/><text fill="#000000" font-family="sans-serif" font-size="14" font-weight="bold" lengthAdjust="spacingAndGlyphs" textLength="55" x="242.4104" y="24.1533">java.util</text><ellipse cx="274.9875" cy="172.0973" fill="#FEFECE" filter="url(#f1saejvay0qgrk)" rx="30.5772" ry="16.5973" style="stroke: #A80036; stroke-width: 1.5;"/><text fill="#000000" font-family="sans-serif" font-size="14" lengthAdjust="spacingAndGlyphs" textLength="39" x="255.4875" y="178.2121">println</text><ellipse cx="274.9875" cy="239.0973" fill="#FEFECE" filter="url(#f1saejvay0qgrk)" rx="30.5772" ry="16.5973" style="stroke: #A80036; stroke-width: 1.5;"/><text fill="#000000" font-family="sans-serif" font-size="14" lengthAdjust="spacingAndGlyphs" textLength="39" x="255.4875" y="245.2121">println</text><ellipse cx="274.5941" cy="484.0973" fill="#FEFECE" filter="url(#f1saejvay0qgrk)" rx="41.1838" ry="16.5973" style="stroke: #A80036; stroke-width: 1.5;"/><text fill="#000000" font-family="sans-serif" font-size="14" lengthAdjust="spacingAndGlyphs" textLength="54" x="247.5941" y="490.2121">addData</text><ellipse cx="274.8576" cy="350.0973" fill="#FEFECE" filter="url(#f1saejvay0qgrk)" rx="57.4472" ry="16.5973" style="stroke: #A80036; stroke-width: 1.5;"/><text fill="#000000" font-family="sans-serif" font-size="14" lengthAdjust="spacingAndGlyphs" textLength="77" x="236.3576" y="356.2121">getSrcName</text><ellipse cx="274.8361" cy="619.1851" fill="#FEFECE" filter="url(#f1saejvay0qgrk)" rx="76.4257" ry="17.6851" style="stroke: #A80036; stroke-width: 1.5;"/><text fill="#000000" font-family="sans-serif" font-size="14" lengthAdjust="spacingAndGlyphs" textLength="111" x="219.3361" y="625.2999">getPackageName</text><ellipse cx="274.6652" cy="687.0973" fill="#FEFECE" filter="url(#f1saejvay0qgrk)" rx="48.2548" ry="16.5973" style="stroke: #A80036; stroke-width: 1.5;"/><text fill="#000000" font-family="sans-serif" font-size="14" lengthAdjust="spacingAndGlyphs" textLength="64" x="242.6652" y="693.2121">addCallBy</text><ellipse cx="274.3515" cy="551.0973" fill="#FEFECE" filter="url(#f1saejvay0qgrk)" rx="36.9411" ry="16.5973" style="stroke: #A80036; stroke-width: 1.5;"/><text fill="#000000" font-family="sans-serif" font-size="14" lengthAdjust="spacingAndGlyphs" textLength="48" x="250.3515" y="557.2121">addCall</text><ellipse cx="274.8576" cy="417.0973" fill="#FEFECE" filter="url(#f1saejvay0qgrk)" rx="57.4472" ry="16.5973" style="stroke: #A80036; stroke-width: 1.5;"/><text fill="#000000" font-family="sans-serif" font-size="14" lengthAdjust="spacingAndGlyphs" textLength="77" x="236.3576" y="423.2121">getSrcName</text><ellipse cx="274.394" cy="61.0869" fill="#FEFECE" filter="url(#f1saejvay0qgrk)" rx="19.9836" ry="16.5869" style="stroke: #A80036; stroke-width: 1.5;"/><text fill="#000000" font-family="sans-serif" font-size="14" lengthAdjust="spacingAndGlyphs" textLength="24" x="262.394" y="67.2016">add</text><!--MD5=[e925a4e7c75f290ba1611e6055820e9c]
entity actor586127428--><ellipse cx="102.9104" cy="280.5" fill="#FEFECE" filter="url(#f1saejvay0qgrk)" rx="8" ry="8" style="stroke: #A80036; stroke-width: 1.5;"/><path d="M102.9104,288.5 L102.9104,315.5 M89.9104,296.5 L115.9104,296.5 M102.9104,315.5 L89.9104,330.5 M102.9104,315.5 L115.9104,330.5 " fill="none" filter="url(#f1saejvay0qgrk)" style="stroke: #A80036; stroke-width: 1.5;"/><text fill="#000000" font-family="sans-serif" font-size="14" lengthAdjust="spacingAndGlyphs" textLength="35" x="85.4104" y="352.1533">Class</text><!--MD5=[6b02f6e5b55a285c44b10af80c832aaf]
entity actor1063980005--><ellipse cx="102.9104" cy="161.5" fill="#FEFECE" filter="url(#f1saejvay0qgrk)" rx="8" ry="8" style="stroke: #A80036; stroke-width: 1.5;"/><path d="M102.9104,169.5 L102.9104,196.5 M89.9104,177.5 L115.9104,177.5 M102.9104,196.5 L89.9104,211.5 M102.9104,196.5 L115.9104,211.5 " fill="none" filter="url(#f1saejvay0qgrk)" style="stroke: #A80036; stroke-width: 1.5;"/><text fill="#000000" font-family="sans-serif" font-size="14" lengthAdjust="spacingAndGlyphs" textLength="69" x="68.4104" y="233.1533">Data_base</text><!--MD5=[b95956d6fbb99d5fbb4dd64fd64dd055]
entity actor1628998132--><ellipse cx="102.4104" cy="35.5" fill="#FEFECE" filter="url(#f1saejvay0qgrk)" rx="8" ry="8" style="stroke: #A80036; stroke-width: 1.5;"/><path d="M102.4104,43.5 L102.4104,70.5 M89.4104,51.5 L115.4104,51.5 M102.4104,70.5 L89.4104,85.5 M102.4104,70.5 L115.4104,85.5 " fill="none" filter="url(#f1saejvay0qgrk)" style="stroke: #A80036; stroke-width: 1.5;"/><text fill="#000000" font-family="sans-serif" font-size="14" lengthAdjust="spacingAndGlyphs" textLength="52" x="76.4104" y="107.1533">DataList</text><!--MD5=[38ea988b5ee9b4fb86fb2c4406750497]
entity actor790722099--><ellipse cx="102.9104" cy="518.5" fill="#FEFECE" filter="url(#f1saejvay0qgrk)" rx="8" ry="8" style="stroke: #A80036; stroke-width: 1.5;"/><path d="M102.9104,526.5 L102.9104,553.5 M89.9104,534.5 L115.9104,534.5 M102.9104,553.5 L89.9104,568.5 M102.9104,553.5 L115.9104,568.5 " fill="none" filter="url(#f1saejvay0qgrk)" style="stroke: #A80036; stroke-width: 1.5;"/><text fill="#000000" font-family="sans-serif" font-size="14" lengthAdjust="spacingAndGlyphs" textLength="55" x="75.4104" y="590.1533">Function</text><!--MD5=[42c378b87d4ca5a85bb4cf3c14ca992b]
entity actor2122049087--><ellipse cx="102.9104" cy="399.5" fill="#FEFECE" filter="url(#f1saejvay0qgrk)" rx="8" ry="8" style="stroke: #A80036; stroke-width: 1.5;"/><path d="M102.9104,407.5 L102.9104,434.5 M89.9104,415.5 L115.9104,415.5 M102.9104,434.5 L89.9104,449.5 M102.9104,434.5 L115.9104,449.5 " fill="none" filter="url(#f1saejvay0qgrk)" style="stroke: #A80036; stroke-width: 1.5;"/><text fill="#000000" font-family="sans-serif" font-size="14" lengthAdjust="spacingAndGlyphs" textLength="51" x="77.4104" y="471.1533">Member</text><!--MD5=[a25d3bc8a625cc8d0aa774192fdfbdea]
link actor586127428 to UC1652807864--><path d="M119.9904,284.165 C138.5214,254.123 166.0334,210.637 173.4104,205 C194.3704,188.983 223.4284,180.563 244.9984,176.251 " fill="none" id="actor586127428-UC1652807864" style="stroke: #A80036; stroke-width: 1.0;"/><!--MD5=[0830c1cc43ddd3de9f9a559de6486cb6]
link actor586127428 to UC997055773--><path d="M120.0684,341.983 C125.8024,351.728 132.0614,362.733 137.4104,373 C155.0494,406.862 144.8854,425.621 173.4104,451 C190.5004,466.205 214.7304,474.422 235.1744,478.854 " fill="none" id="actor586127428-UC997055773" style="stroke: #A80036; stroke-width: 1.0;"/><!--MD5=[c2834af38f5c8b616d997483c555c3e4]
link actor1628998132 to UC497208183--><path d="M128.5334,66.937 C163.0234,65.533 223.0204,63.091 254.2364,61.821 " fill="none" id="actor1628998132-UC497208183" style="stroke: #A80036; stroke-width: 1.0;"/><!--MD5=[71f99cec7499915678efb0e6c3daf222]
link actor1628998132 to UC1223850219--><path d="M126.6664,110.282 C130.5784,118.027 134.3444,126.147 137.4104,134 C160.3104,192.644 138.8044,218.408 173.4104,271 C192.1324,299.453 224.5524,322.114 247.6094,335.743 " fill="none" id="actor1628998132-UC1223850219" style="stroke: #A80036; stroke-width: 1.0;"/><!--MD5=[382a30c3b80158a10df312063ccf841d]
link actor790722099 to UC1523553211--><path d="M130.0454,551 C159.1034,551 204.9944,551 237.2184,551 " fill="none" id="actor790722099-UC1523553211" style="stroke: #A80036; stroke-width: 1.0;"/><!--MD5=[23fcdf0c7c36be02b32c340bdf1dc51c]
link actor790722099 to UC27362884--><path d="M122.9554,593.085 C135.0614,614.008 152.1814,638.1436 173.4104,654 C190.3324,666.6398 212.3224,674.5745 231.4604,679.4843 " fill="none" id="actor790722099-UC27362884" style="stroke: #A80036; stroke-width: 1.0;"/><!--MD5=[1dd9da7cdfe696ffba0f567554d56724]
link actor790722099 to UC997055773--><path d="M130.0884,537.27 C143.0914,531.045 158.8934,523.797 173.4104,518 C195.9194,509.012 221.8394,500.32 241.7854,493.974 " fill="none" id="actor790722099-UC997055773" style="stroke: #A80036; stroke-width: 1.0;"/><!--MD5=[dc0402da733006e37ffbfa230523fbc0]
link actor790722099 to UC173214986--><path d="M130.0474,565.2 C143.0414,571.626 158.8484,579.088 173.4104,585 C191.4954,592.343 211.8284,599.408 229.4844,605.177 " fill="none" id="actor790722099-UC173214986" style="stroke: #A80036; stroke-width: 1.0;"/><!--MD5=[74f6bb3782e33c746d4ed5a6a5ea1f50]
link actor790722099 to UC1223850219--><path d="M128.9404,508.72 C131.9784,503.19 134.8864,497.525 137.4104,492 C158.4374,445.98 137.6864,419.83 173.4104,384 C186.8004,370.57 205.6594,362.444 223.4614,357.528 " fill="none" id="actor790722099-UC1223850219" style="stroke: #A80036; stroke-width: 1.0;"/><!--MD5=[b1f19e80747509d7bbee54b710aca6db]
link actor2122049087 to UC497208183--><path d="M127.9514,393.68 C131.5794,386.995 134.9174,379.951 137.4104,373 C172.7844,274.367 120.4244,230.4 173.4104,140 C193.3354,106.006 233.9904,81.254 257.1844,69.215 " fill="none" id="actor2122049087-UC497208183" style="stroke: #A80036; stroke-width: 1.0;"/><!--MD5=[91a5e06c4fb472428f22d8f439a5f19c]
link actor2122049087 to UC1825738663--><path d="M127.6934,389.835 C145.7334,360.025 167.7614,324.287 173.4104,318 C197.9604,290.678 232.8214,265.758 254.5034,251.493 " fill="none" id="actor2122049087-UC1825738663" style="stroke: #A80036; stroke-width: 1.0;"/><!--MD5=[6edecd28adb46fa1a0f9076f91a30e3e]
link actor2122049087 to UC173214986--><path d="M127.9364,473.829 C131.2764,479.846 134.5334,486.024 137.4104,492 C156.6374,531.935 141.3784,554.366 173.4104,585 C184.7754,595.869 199.7284,603.269 214.6334,608.305 " fill="none" id="actor2122049087-UC173214986" style="stroke: #A80036; stroke-width: 1.0;"/><!--MD5=[5291802346a1b5fdb2b322947f8cc5d0]
link actor2122049087 to UC1223850219--><path d="M128.0144,412.221 C141.0844,402.778 157.5414,391.854 173.4104,384 C192.3134,374.644 214.4094,366.878 233.1064,361.142 " fill="none" id="actor2122049087-UC1223850219" style="stroke: #A80036; stroke-width: 1.0;"/><!--MD5=[39755d120f07d37153ed261c6d59fd88]
link actor2122049087 to UC1523553211--><path d="M128.1764,472.307 C140.2274,488.441 155.8114,506.006 173.4104,518 C193.3794,531.609 219.3584,539.932 239.9684,544.814 " fill="none" id="actor2122049087-UC1523553211" style="stroke: #A80036; stroke-width: 1.0;"/><!--MD5=[2fca176a313111b7693b363abd6f2421]
link actor2122049087 to UC27362884--><path d="M128.0794,472.139 C131.5574,478.617 134.8154,485.375 137.4104,492 C164.3134,560.675 123.8504,599.376 173.4104,654 C187.4174,669.4378 208.7374,677.6767 228.1854,682.064 " fill="none" id="actor2122049087-UC27362884" style="stroke: #A80036; stroke-width: 1.0;"/><!--MD5=[57890fa8f7b7e22ff04c1aa254776929]
link actor2122049087 to UC997055773--><path d="M128.1604,439.785 C158.4304,448.936 208.7134,464.138 241.7114,474.114 " fill="none" id="actor2122049087-UC997055773" style="stroke: #A80036; stroke-width: 1.0;"/><!--MD5=[df116566e86695ea0aa4a26bc237e412]
link actor2122049087 to UC1632413663--><path d="M128.1604,429.754 C152.1514,427.662 188.7144,424.474 219.2784,421.808 " fill="none" id="actor2122049087-UC1632413663" style="stroke: #A80036; stroke-width: 1.0;"/><!--MD5=[4af76d07c37fa4e03532beb0f9d105d5]
link actor586127428 to actor1063980005--><path d="M102.4104,270.699 C102.4104,260.919 102.4104,251.139 102.4104,241.359 " fill="none" id="actor586127428-to-actor1063980005" style="stroke: #A80036; stroke-width: 1.0;"/><polygon fill="#A80036" points="102.4104,236.244,98.4104,245.244,102.4104,241.244,106.4104,245.244,102.4104,236.244" style="stroke: #A80036; stroke-width: 1.0;"/><!--MD5=[12b998ec2d93d05afc09c5b90686522f]
link actor790722099 to actor1063980005--><path d="M74.6744,527.657 C60.6024,513.955 44.9289,495.359 37.4104,475 C6,389.948 6.2745,356.153 37.4104,271 C43.1271,255.365 53.5746,240.715 64.4462,228.478 " fill="none" id="actor790722099-to-actor1063980005" style="stroke: #A80036; stroke-width: 1.0;"/><polygon fill="#A80036" points="67.829,224.759,58.8141,228.7253,64.4646,228.4578,64.7321,234.1083,67.829,224.759" style="stroke: #A80036; stroke-width: 1.0;"/><!--MD5=[12421931a3876f69b6e7db4d15d92002]
link actor2122049087 to actor1063980005--><path d="M76.6886,410.596 C62.1258,396.737 45.2898,377.336 37.4104,356 C24.3227,320.562 24.4371,306.48 37.4104,271 C43.1271,255.365 53.5746,240.715 64.4462,228.478 " fill="none" id="actor2122049087-to-actor1063980005" style="stroke: #A80036; stroke-width: 1.0;"/><polygon fill="#A80036" points="67.829,224.759,58.8141,228.7253,64.4646,228.4578,64.7321,234.1083,67.829,224.759" style="stroke: #A80036; stroke-width: 1.0;"/><!--MD5=[80a1b48b3273e09b74cfce3d4b9c82d9]
@startuml
 left to right direction

actor Class as actor586127428

	package java.io {
		usecase println as UC1652807864
	}
	actor586127428 - - UC1652807864
	package dataSet {
		usecase addData as UC997055773
	}
	actor586127428 - - UC997055773
actor Data_base as actor1063980005

actor DataList as actor1628998132

	package java.util {
		usecase add as UC497208183
	}
	actor1628998132 - - UC497208183
	package dataSet {
		usecase getSrcName as UC1223850219
	}
	actor1628998132 - - UC1223850219
actor Function as actor790722099

	package dataSet {
		usecase getSrcName as UC1223850219
		usecase getPackageName as UC173214986
		usecase addData as UC997055773
		usecase addCallBy as UC27362884
		usecase addCall as UC1523553211
	}
	actor790722099 - - UC1523553211
	actor790722099 - - UC27362884
	actor790722099 - - UC997055773
	actor790722099 - - UC173214986
	actor790722099 - - UC1223850219
actor Member as actor2122049087

	package java.util {
		usecase add as UC497208183
	}
	actor2122049087 - - UC497208183
	package java.io {
		usecase println as UC1825738663
	}
	actor2122049087 - - UC1825738663
	package dataSet {
		usecase getSrcName as UC1632413663
		usecase addData as UC997055773
		usecase addCallBy as UC27362884
		usecase addCall as UC1523553211
		usecase getSrcName as UC1223850219
		usecase getPackageName as UC173214986
	}
	actor2122049087 - - UC173214986
	actor2122049087 - - UC1223850219
	actor2122049087 - - UC1523553211
	actor2122049087 - - UC27362884
	actor2122049087 - - UC997055773
	actor2122049087 - - UC1632413663

actor586127428->actor1063980005
actor790722099->actor1063980005
actor2122049087->actor1063980005
@enduml

PlantUML version 1.2020.19(Tue Oct 13 00:10:01 KST 2020)
(APACHE source distribution)
Java Runtime: Java(TM) SE Runtime Environment
JVM: Java HotSpot(TM) 64-Bit Server VM
Default Encoding: MS949
Language: ko
Country: KR
--></g></svg>