<?xml version="1.0" encoding="UTF-8" standalone="no"?><svg xmlns="http://www.w3.org/2000/svg" xmlns:xlink="http://www.w3.org/1999/xlink" contentScriptType="application/ecmascript" contentStyleType="text/css" height="467px" preserveAspectRatio="none" style="width:575px;height:467px;" version="1.1" viewBox="0 0 575 467" width="575px" zoomAndPan="magnify"><defs><filter height="300%" id="f5646dozdepxb" width="300%" x="-1" y="-1"><feGaussianBlur result="blurOut" stdDeviation="2.0"/><feColorMatrix in="blurOut" result="blurOut2" type="matrix" values="0 0 0 0 0 0 0 0 0 0 0 0 0 0 0 0 0 0 .4 0"/><feOffset dx="4.0" dy="4.0" in="blurOut2" result="blurOut3"/><feBlend in="SourceGraphic" in2="blurOut3" mode="normal"/></filter></defs><g><!--MD5=[4042ab85c49b1e9af0a6db6955a12774]
cluster dataSet.stateNode--><polygon fill="#FFFFFF" filter="url(#f5646dozdepxb)" points="16,6,151,6,158,31.2295,558,31.2295,558,460,16,460,16,6" style="stroke: #000000; stroke-width: 1.5;"/><line style="stroke: #000000; stroke-width: 1.5;" x1="16" x2="158" y1="31.2295" y2="31.2295"/><text fill="#000000" font-family="sans-serif" font-size="14" font-weight="bold" lengthAdjust="spacingAndGlyphs" textLength="129" x="20" y="24.1533">dataSet.stateNode</text><!--MD5=[278bdf463a247545d2a16c0a89315bff]
class dataSet.stateNode.VarDecNode--><rect codeLine="1" fill="#FEFECE" filter="url(#f5646dozdepxb)" height="399.95" id="dataSet.stateNode.VarDecNode" style="stroke: #A80036; stroke-width: 1.5;" width="510" x="32" y="44"/><ellipse cx="247.75" cy="60" fill="#ADD1B2" rx="11" ry="11" style="stroke: #A80036; stroke-width: 1.0;"/><path d="M247.5781,53.4844 Q245.7031,53.4844 244.5469,55.2344 Q243.3594,57.0156 243.3594,60.0156 Q243.3594,63.3906 244.5625,65.1563 Q245.625,66.7813 247.375,66.7813 Q249.0625,66.7813 250.0156,65.875 Q251.0781,64.8594 251.2188,62.625 Q251.2188,62.2031 250.9844,61.9688 Q250.7969,61.7344 250.4531,61.7031 Q250.125,61.7031 249.8906,61.8906 Q249.625,62.125 249.625,62.5156 Q249.5938,63.9063 249,64.6406 Q248.4688,65.3438 247.5156,65.3438 Q246.3594,65.3438 245.6406,63.9063 Q244.9219,62.4063 244.9219,59.9844 Q244.9219,57.4375 245.8125,56.0469 Q246.5625,54.9219 247.7031,54.9219 Q248.3594,54.9219 248.8594,55.4688 Q249.4219,56.0781 249.5469,57.1406 Q249.5938,57.8438 250.4219,57.7344 Q251.2031,57.625 251.1563,56.9375 Q250.9688,55.4219 250.2031,54.5469 Q249.2656,53.4844 247.5781,53.4844 Z "/><text fill="#000000" font-family="sans-serif" font-size="12" lengthAdjust="spacingAndGlyphs" textLength="70" x="268.25" y="65.6045">VarDecNode</text><line style="stroke: #A80036; stroke-width: 1.5;" x1="33" x2="541" y1="76" y2="76"/><line style="stroke: #A80036; stroke-width: 1.5;" x1="33" x2="267" y1="91.5544" y2="91.5544"/><text fill="#008000" font-family="sans-serif" font-size="11" font-weight="bold" lengthAdjust="spacingAndGlyphs" textLength="40" x="267" y="96.1919">has list</text><line style="stroke: #A80036; stroke-width: 1.5;" x1="307" x2="541" y1="91.5544" y2="91.5544"/><line style="stroke: #A80036; stroke-width: 1.0; stroke-dasharray: 1.0,2.0;" x1="33" x2="274" y1="114.2178" y2="114.2178"/><text fill="#000000" font-family="sans-serif" font-size="11" lengthAdjust="spacingAndGlyphs" textLength="26" x="274" y="118.8552">class</text><line style="stroke: #A80036; stroke-width: 1.0; stroke-dasharray: 1.0,2.0;" x1="300" x2="541" y1="114.2178" y2="114.2178"/><text fill="#000000" font-family="sans-serif" font-size="11" lengthAdjust="spacingAndGlyphs" textLength="120" x="38" y="157.1274">String type (347645777);</text><line style="stroke: #A80036; stroke-width: 1.0; stroke-dasharray: 1.0,2.0;" x1="33" x2="268" y1="136.8811" y2="136.8811"/><text fill="#000000" font-family="sans-serif" font-size="11" lengthAdjust="spacingAndGlyphs" textLength="38" x="268" y="141.5186">member</text><line style="stroke: #A80036; stroke-width: 1.0; stroke-dasharray: 1.0,2.0;" x1="306" x2="541" y1="136.8811" y2="136.8811"/><text fill="#000000" font-family="sans-serif" font-size="11" lengthAdjust="spacingAndGlyphs" textLength="218" x="38" y="191.3452">void setType(java.lang.String) (1933965693);</text><line style="stroke: #A80036; stroke-width: 1.0; stroke-dasharray: 1.0,2.0;" x1="33" x2="269.5" y1="171.0989" y2="171.0989"/><text fill="#000000" font-family="sans-serif" font-size="11" lengthAdjust="spacingAndGlyphs" textLength="35" x="269.5" y="175.7363">method</text><line style="stroke: #A80036; stroke-width: 1.0; stroke-dasharray: 1.0,2.0;" x1="304.5" x2="541" y1="171.0989" y2="171.0989"/><line style="stroke: #A80036; stroke-width: 1.5;" x1="33" x2="259.5" y1="205.3167" y2="205.3167"/><text fill="#0000FF" font-family="sans-serif" font-size="11" font-weight="bold" lengthAdjust="spacingAndGlyphs" textLength="55" x="259.5" y="209.9541">calling list</text><line style="stroke: #A80036; stroke-width: 1.5;" x1="314.5" x2="541" y1="205.3167" y2="205.3167"/><line style="stroke: #A80036; stroke-width: 1.0; stroke-dasharray: 1.0,2.0;" x1="33" x2="274" y1="227.98" y2="227.98"/><text fill="#000000" font-family="sans-serif" font-size="11" lengthAdjust="spacingAndGlyphs" textLength="26" x="274" y="232.6174">class</text><line style="stroke: #A80036; stroke-width: 1.0; stroke-dasharray: 1.0,2.0;" x1="300" x2="541" y1="227.98" y2="227.98"/><text fill="#000000" font-family="sans-serif" font-size="11" lengthAdjust="spacingAndGlyphs" textLength="120" x="38" y="270.8896">String type (347645777);</text><line style="stroke: #A80036; stroke-width: 1.0; stroke-dasharray: 1.0,2.0;" x1="33" x2="268" y1="250.6433" y2="250.6433"/><text fill="#000000" font-family="sans-serif" font-size="11" lengthAdjust="spacingAndGlyphs" textLength="38" x="268" y="255.2808">member</text><line style="stroke: #A80036; stroke-width: 1.0; stroke-dasharray: 1.0,2.0;" x1="306" x2="541" y1="250.6433" y2="250.6433"/><line style="stroke: #A80036; stroke-width: 1.0; stroke-dasharray: 1.0,2.0;" x1="33" x2="269.5" y1="284.8611" y2="284.8611"/><text fill="#000000" font-family="sans-serif" font-size="11" lengthAdjust="spacingAndGlyphs" textLength="35" x="269.5" y="289.4985">method</text><line style="stroke: #A80036; stroke-width: 1.0; stroke-dasharray: 1.0,2.0;" x1="304.5" x2="541" y1="284.8611" y2="284.8611"/><line style="stroke: #A80036; stroke-width: 1.5;" x1="33" x2="253" y1="307.5244" y2="307.5244"/><text fill="#FFA500" font-family="sans-serif" font-size="11" font-weight="bold" lengthAdjust="spacingAndGlyphs" textLength="68" x="253" y="312.1619">called by list</text><line style="stroke: #A80036; stroke-width: 1.5;" x1="321" x2="541" y1="307.5244" y2="307.5244"/><text fill="#000000" font-family="sans-serif" font-size="11" lengthAdjust="spacingAndGlyphs" textLength="136" x="38" y="350.4341">VarDecNode (1430611624);</text><text fill="#000000" font-family="sans-serif" font-size="11" lengthAdjust="spacingAndGlyphs" textLength="126" x="38" y="365.543">Test_Visitor (775300103);</text><line style="stroke: #A80036; stroke-width: 1.0; stroke-dasharray: 1.0,2.0;" x1="33" x2="274" y1="330.1877" y2="330.1877"/><text fill="#000000" font-family="sans-serif" font-size="11" lengthAdjust="spacingAndGlyphs" textLength="26" x="274" y="334.8252">class</text><line style="stroke: #A80036; stroke-width: 1.0; stroke-dasharray: 1.0,2.0;" x1="300" x2="541" y1="330.1877" y2="330.1877"/><line style="stroke: #A80036; stroke-width: 1.0; stroke-dasharray: 1.0,2.0;" x1="33" x2="268" y1="379.5144" y2="379.5144"/><text fill="#000000" font-family="sans-serif" font-size="11" lengthAdjust="spacingAndGlyphs" textLength="38" x="268" y="384.1519">member</text><line style="stroke: #A80036; stroke-width: 1.0; stroke-dasharray: 1.0,2.0;" x1="306" x2="541" y1="379.5144" y2="379.5144"/><text fill="#000000" font-family="sans-serif" font-size="11" lengthAdjust="spacingAndGlyphs" textLength="218" x="38" y="422.4241">void setType(java.lang.String) (1933965693);</text><text fill="#000000" font-family="sans-serif" font-size="11" lengthAdjust="spacingAndGlyphs" textLength="498" x="38" y="437.533">void variableDeclarationStatement(org.eclipse.jdt.core.dom.Statement, dataSet.Function) (1570578713);</text><line style="stroke: #A80036; stroke-width: 1.0; stroke-dasharray: 1.0,2.0;" x1="33" x2="269.5" y1="402.1777" y2="402.1777"/><text fill="#000000" font-family="sans-serif" font-size="11" lengthAdjust="spacingAndGlyphs" textLength="35" x="269.5" y="406.8152">method</text><line style="stroke: #A80036; stroke-width: 1.0; stroke-dasharray: 1.0,2.0;" x1="304.5" x2="541" y1="402.1777" y2="402.1777"/><!--MD5=[4dfdf316aefe03f58fa0ea91c2ac8358]
@startuml
class dataSet.stateNode.VarDecNode{
__**<color:green>has list</color>**__
..class..
..member..
	String type (347645777);
..method..
	void setType(java.lang.String) (1933965693);
__**<color:blue>calling list</color>**__
..class..
..member..
	String type (347645777);
..method..
__**<color:orange>called by list</color>**__
..class..
	VarDecNode (1430611624);
	Test_Visitor (775300103);
..member..
..method..
	void setType(java.lang.String) (1933965693);
	void variableDeclarationStatement(org.eclipse.jdt.core.dom.Statement, dataSet.Function) (1570578713);
}

@enduml

PlantUML version 1.2020.19(Tue Oct 13 00:10:01 KST 2020)
(APACHE source distribution)
Java Runtime: Java(TM) SE Runtime Environment
JVM: Java HotSpot(TM) 64-Bit Server VM
Default Encoding: MS949
Language: ko
Country: KR
--></g></svg>