<?xml version="1.0" encoding="UTF-8" standalone="no"?><svg xmlns="http://www.w3.org/2000/svg" xmlns:xlink="http://www.w3.org/1999/xlink" contentScriptType="application/ecmascript" contentStyleType="text/css" height="444px" preserveAspectRatio="none" style="width:515px;height:444px;" version="1.1" viewBox="0 0 515 444" width="515px" zoomAndPan="magnify"><defs><filter height="300%" id="f1b2vf5s9y7cuc" width="300%" x="-1" y="-1"><feGaussianBlur result="blurOut" stdDeviation="2.0"/><feColorMatrix in="blurOut" result="blurOut2" type="matrix" values="0 0 0 0 0 0 0 0 0 0 0 0 0 0 0 0 0 0 .4 0"/><feOffset dx="4.0" dy="4.0" in="blurOut2" result="blurOut3"/><feBlend in="SourceGraphic" in2="blurOut3" mode="normal"/></filter></defs><g><!--MD5=[a70b0d373322012744ecc119c63f921b]
cluster main--><polygon fill="#FFFFFF" filter="url(#f1b2vf5s9y7cuc)" points="16,6,55,6,62,31.2295,498,31.2295,498,437,16,437,16,6" style="stroke: #000000; stroke-width: 1.5;"/><line style="stroke: #000000; stroke-width: 1.5;" x1="16" x2="62" y1="31.2295" y2="31.2295"/><text fill="#000000" font-family="sans-serif" font-size="14" font-weight="bold" lengthAdjust="spacingAndGlyphs" textLength="33" x="20" y="24.1533">main</text><!--MD5=[51b67420a8083e59fe8f0485901bdd34]
class main.Main--><rect codeLine="1" fill="#FEFECE" filter="url(#f1b2vf5s9y7cuc)" height="376.8411" id="main.Main" style="stroke: #A80036; stroke-width: 1.5;" width="449" x="32.5" y="44"/><ellipse cx="239.75" cy="60" fill="#ADD1B2" rx="11" ry="11" style="stroke: #A80036; stroke-width: 1.0;"/><path d="M239.5781,53.4844 Q237.7031,53.4844 236.5469,55.2344 Q235.3594,57.0156 235.3594,60.0156 Q235.3594,63.3906 236.5625,65.1563 Q237.625,66.7813 239.375,66.7813 Q241.0625,66.7813 242.0156,65.875 Q243.0781,64.8594 243.2188,62.625 Q243.2188,62.2031 242.9844,61.9688 Q242.7969,61.7344 242.4531,61.7031 Q242.125,61.7031 241.8906,61.8906 Q241.625,62.125 241.625,62.5156 Q241.5938,63.9063 241,64.6406 Q240.4688,65.3438 239.5156,65.3438 Q238.3594,65.3438 237.6406,63.9063 Q236.9219,62.4063 236.9219,59.9844 Q236.9219,57.4375 237.8125,56.0469 Q238.5625,54.9219 239.7031,54.9219 Q240.3594,54.9219 240.8594,55.4688 Q241.4219,56.0781 241.5469,57.1406 Q241.5938,57.8438 242.4219,57.7344 Q243.2031,57.625 243.1563,56.9375 Q242.9688,55.4219 242.2031,54.5469 Q241.2656,53.4844 239.5781,53.4844 Z "/><text fill="#000000" font-family="sans-serif" font-size="12" lengthAdjust="spacingAndGlyphs" textLength="26" x="260.25" y="65.6045">Main</text><line style="stroke: #A80036; stroke-width: 1.5;" x1="33.5" x2="480.5" y1="76" y2="76"/><line style="stroke: #A80036; stroke-width: 1.5;" x1="33.5" x2="237" y1="91.5544" y2="91.5544"/><text fill="#008000" font-family="sans-serif" font-size="11" font-weight="bold" lengthAdjust="spacingAndGlyphs" textLength="40" x="237" y="96.1919">has list</text><line style="stroke: #A80036; stroke-width: 1.5;" x1="277" x2="480.5" y1="91.5544" y2="91.5544"/><line style="stroke: #A80036; stroke-width: 1.0; stroke-dasharray: 1.0,2.0;" x1="33.5" x2="244" y1="114.2178" y2="114.2178"/><text fill="#000000" font-family="sans-serif" font-size="11" lengthAdjust="spacingAndGlyphs" textLength="26" x="244" y="118.8552">class</text><line style="stroke: #A80036; stroke-width: 1.0; stroke-dasharray: 1.0,2.0;" x1="270" x2="480.5" y1="114.2178" y2="114.2178"/><line style="stroke: #A80036; stroke-width: 1.0; stroke-dasharray: 1.0,2.0;" x1="33.5" x2="238" y1="136.8811" y2="136.8811"/><text fill="#000000" font-family="sans-serif" font-size="11" lengthAdjust="spacingAndGlyphs" textLength="38" x="238" y="141.5186">member</text><line style="stroke: #A80036; stroke-width: 1.0; stroke-dasharray: 1.0,2.0;" x1="276" x2="480.5" y1="136.8811" y2="136.8811"/><text fill="#000000" font-family="sans-serif" font-size="11" lengthAdjust="spacingAndGlyphs" textLength="207" x="38.5" y="179.7908">void main(java.lang.String[]) (1796660881);</text><line style="stroke: #A80036; stroke-width: 1.0; stroke-dasharray: 1.0,2.0;" x1="33.5" x2="239.5" y1="159.5444" y2="159.5444"/><text fill="#000000" font-family="sans-serif" font-size="11" lengthAdjust="spacingAndGlyphs" textLength="35" x="239.5" y="164.1819">method</text><line style="stroke: #A80036; stroke-width: 1.0; stroke-dasharray: 1.0,2.0;" x1="274.5" x2="480.5" y1="159.5444" y2="159.5444"/><line style="stroke: #A80036; stroke-width: 1.5;" x1="33.5" x2="229.5" y1="193.7622" y2="193.7622"/><text fill="#0000FF" font-family="sans-serif" font-size="11" font-weight="bold" lengthAdjust="spacingAndGlyphs" textLength="55" x="229.5" y="198.3997">calling list</text><line style="stroke: #A80036; stroke-width: 1.5;" x1="284.5" x2="480.5" y1="193.7622" y2="193.7622"/><text fill="#000000" font-family="sans-serif" font-size="11" lengthAdjust="spacingAndGlyphs" textLength="126" x="38.5" y="236.6719">Test_Visitor (775300103);</text><text fill="#000000" font-family="sans-serif" font-size="11" lengthAdjust="spacingAndGlyphs" textLength="129" x="38.5" y="251.7808">PrintStream (1409215177);</text><line style="stroke: #A80036; stroke-width: 1.0; stroke-dasharray: 1.0,2.0;" x1="33.5" x2="244" y1="216.4255" y2="216.4255"/><text fill="#000000" font-family="sans-serif" font-size="11" lengthAdjust="spacingAndGlyphs" textLength="26" x="244" y="221.063">class</text><line style="stroke: #A80036; stroke-width: 1.0; stroke-dasharray: 1.0,2.0;" x1="270" x2="480.5" y1="216.4255" y2="216.4255"/><line style="stroke: #A80036; stroke-width: 1.0; stroke-dasharray: 1.0,2.0;" x1="33.5" x2="238" y1="265.7522" y2="265.7522"/><text fill="#000000" font-family="sans-serif" font-size="11" lengthAdjust="spacingAndGlyphs" textLength="38" x="238" y="270.3896">member</text><line style="stroke: #A80036; stroke-width: 1.0; stroke-dasharray: 1.0,2.0;" x1="276" x2="480.5" y1="265.7522" y2="265.7522"/><text fill="#000000" font-family="sans-serif" font-size="11" lengthAdjust="spacingAndGlyphs" textLength="437" x="38.5" y="308.6619">void addDataList(org.eclipse.jdt.core.dom.CompilationUnit, dataSet.DataList) (1908116276);</text><text fill="#000000" font-family="sans-serif" font-size="11" lengthAdjust="spacingAndGlyphs" textLength="204" x="38.5" y="323.7708">null println(java.lang.String) (1414042262);</text><line style="stroke: #A80036; stroke-width: 1.0; stroke-dasharray: 1.0,2.0;" x1="33.5" x2="239.5" y1="288.4155" y2="288.4155"/><text fill="#000000" font-family="sans-serif" font-size="11" lengthAdjust="spacingAndGlyphs" textLength="35" x="239.5" y="293.053">method</text><line style="stroke: #A80036; stroke-width: 1.0; stroke-dasharray: 1.0,2.0;" x1="274.5" x2="480.5" y1="288.4155" y2="288.4155"/><line style="stroke: #A80036; stroke-width: 1.5;" x1="33.5" x2="223" y1="337.7422" y2="337.7422"/><text fill="#FFA500" font-family="sans-serif" font-size="11" font-weight="bold" lengthAdjust="spacingAndGlyphs" textLength="68" x="223" y="342.3796">called by list</text><line style="stroke: #A80036; stroke-width: 1.5;" x1="291" x2="480.5" y1="337.7422" y2="337.7422"/><line style="stroke: #A80036; stroke-width: 1.0; stroke-dasharray: 1.0,2.0;" x1="33.5" x2="244" y1="360.4055" y2="360.4055"/><text fill="#000000" font-family="sans-serif" font-size="11" lengthAdjust="spacingAndGlyphs" textLength="26" x="244" y="365.043">class</text><line style="stroke: #A80036; stroke-width: 1.0; stroke-dasharray: 1.0,2.0;" x1="270" x2="480.5" y1="360.4055" y2="360.4055"/><line style="stroke: #A80036; stroke-width: 1.0; stroke-dasharray: 1.0,2.0;" x1="33.5" x2="238" y1="383.0688" y2="383.0688"/><text fill="#000000" font-family="sans-serif" font-size="11" lengthAdjust="spacingAndGlyphs" textLength="38" x="238" y="387.7063">member</text><line style="stroke: #A80036; stroke-width: 1.0; stroke-dasharray: 1.0,2.0;" x1="276" x2="480.5" y1="383.0688" y2="383.0688"/><line style="stroke: #A80036; stroke-width: 1.0; stroke-dasharray: 1.0,2.0;" x1="33.5" x2="239.5" y1="405.7322" y2="405.7322"/><text fill="#000000" font-family="sans-serif" font-size="11" lengthAdjust="spacingAndGlyphs" textLength="35" x="239.5" y="410.3696">method</text><line style="stroke: #A80036; stroke-width: 1.0; stroke-dasharray: 1.0,2.0;" x1="274.5" x2="480.5" y1="405.7322" y2="405.7322"/><!--MD5=[02204ce20962c8d148f1fe9f3ee4f344]
@startuml
class main.Main{
__**<color:green>has list</color>**__
..class..
..member..
..method..
	void main(java.lang.String[]) (1796660881);
__**<color:blue>calling list</color>**__
..class..
	Test_Visitor (775300103);
	PrintStream (1409215177);
..member..
..method..
	void addDataList(org.eclipse.jdt.core.dom.CompilationUnit, dataSet.DataList) (1908116276);
	null println(java.lang.String) (1414042262);
__**<color:orange>called by list</color>**__
..class..
..member..
..method..
}

@enduml

PlantUML version 1.2020.19(Tue Oct 13 00:10:01 KST 2020)
(APACHE source distribution)
Java Runtime: Java(TM) SE Runtime Environment
JVM: Java HotSpot(TM) 64-Bit Server VM
Default Encoding: MS949
Language: ko
Country: KR
--></g></svg>