<?xml version="1.0" encoding="UTF-8" standalone="no"?><svg xmlns="http://www.w3.org/2000/svg" xmlns:xlink="http://www.w3.org/1999/xlink" contentScriptType="application/ecmascript" contentStyleType="text/css" height="504px" preserveAspectRatio="none" style="width:331px;height:504px;" version="1.1" viewBox="0 0 331 504" width="331px" zoomAndPan="magnify"><defs><filter height="300%" id="f1o2lg2kwsamnd" width="300%" x="-1" y="-1"><feGaussianBlur result="blurOut" stdDeviation="2.0"/><feColorMatrix in="blurOut" result="blurOut2" type="matrix" values="0 0 0 0 0 0 0 0 0 0 0 0 0 0 0 0 0 0 .4 0"/><feOffset dx="4.0" dy="4.0" in="blurOut2" result="blurOut3"/><feBlend in="SourceGraphic" in2="blurOut3" mode="normal"/></filter></defs><g><!--MD5=[c66e735c89a839b0f40df60143f9640e]
cluster org.eclipse.jdt.core.dom--><polygon fill="#FFFFFF" filter="url(#f1o2lg2kwsamnd)" points="16,6,193,6,200,31.2295,314,31.2295,314,497,16,497,16,6" style="stroke: #000000; stroke-width: 1.5;"/><line style="stroke: #000000; stroke-width: 1.5;" x1="16" x2="200" y1="31.2295" y2="31.2295"/><text fill="#000000" font-family="sans-serif" font-size="14" font-weight="bold" lengthAdjust="spacingAndGlyphs" textLength="171" x="20" y="24.1533">org.eclipse.jdt.core.dom</text><!--MD5=[ff23930648dc83153cbfa14f728d52b6]
class org.eclipse.jdt.core.dom.ASTParser--><rect codeLine="1" fill="#FEFECE" filter="url(#f1o2lg2kwsamnd)" height="437.2766" id="org.eclipse.jdt.core.dom.ASTParser" style="stroke: #A80036; stroke-width: 1.5;" width="265" x="32.5" y="44"/><ellipse cx="131.25" cy="60" fill="#ADD1B2" rx="11" ry="11" style="stroke: #A80036; stroke-width: 1.0;"/><path d="M131.0781,53.4844 Q129.2031,53.4844 128.0469,55.2344 Q126.8594,57.0156 126.8594,60.0156 Q126.8594,63.3906 128.0625,65.1563 Q129.125,66.7813 130.875,66.7813 Q132.5625,66.7813 133.5156,65.875 Q134.5781,64.8594 134.7188,62.625 Q134.7188,62.2031 134.4844,61.9688 Q134.2969,61.7344 133.9531,61.7031 Q133.625,61.7031 133.3906,61.8906 Q133.125,62.125 133.125,62.5156 Q133.0938,63.9063 132.5,64.6406 Q131.9688,65.3438 131.0156,65.3438 Q129.8594,65.3438 129.1406,63.9063 Q128.4219,62.4063 128.4219,59.9844 Q128.4219,57.4375 129.3125,56.0469 Q130.0625,54.9219 131.2031,54.9219 Q131.8594,54.9219 132.3594,55.4688 Q132.9219,56.0781 133.0469,57.1406 Q133.0938,57.8438 133.9219,57.7344 Q134.7031,57.625 134.6563,56.9375 Q134.4688,55.4219 133.7031,54.5469 Q132.7656,53.4844 131.0781,53.4844 Z "/><text fill="#000000" font-family="sans-serif" font-size="12" lengthAdjust="spacingAndGlyphs" textLength="59" x="151.75" y="65.6045">ASTParser</text><line style="stroke: #A80036; stroke-width: 1.5;" x1="33.5" x2="296.5" y1="76" y2="76"/><line style="stroke: #A80036; stroke-width: 1.5;" x1="33.5" x2="145" y1="91.5544" y2="91.5544"/><text fill="#008000" font-family="sans-serif" font-size="11" font-weight="bold" lengthAdjust="spacingAndGlyphs" textLength="40" x="145" y="96.1919">has list</text><line style="stroke: #A80036; stroke-width: 1.5;" x1="185" x2="296.5" y1="91.5544" y2="91.5544"/><line style="stroke: #A80036; stroke-width: 1.0; stroke-dasharray: 1.0,2.0;" x1="33.5" x2="152" y1="114.2178" y2="114.2178"/><text fill="#000000" font-family="sans-serif" font-size="11" lengthAdjust="spacingAndGlyphs" textLength="26" x="152" y="118.8552">class</text><line style="stroke: #A80036; stroke-width: 1.0; stroke-dasharray: 1.0,2.0;" x1="178" x2="296.5" y1="114.2178" y2="114.2178"/><line style="stroke: #A80036; stroke-width: 1.0; stroke-dasharray: 1.0,2.0;" x1="33.5" x2="146" y1="136.8811" y2="136.8811"/><text fill="#000000" font-family="sans-serif" font-size="11" lengthAdjust="spacingAndGlyphs" textLength="38" x="146" y="141.5186">member</text><line style="stroke: #A80036; stroke-width: 1.0; stroke-dasharray: 1.0,2.0;" x1="184" x2="296.5" y1="136.8811" y2="136.8811"/><text fill="#000000" font-family="sans-serif" font-size="11" lengthAdjust="spacingAndGlyphs" textLength="166" x="38.5" y="179.7908">null newParser(int) (2055291664);</text><text fill="#000000" font-family="sans-serif" font-size="11" lengthAdjust="spacingAndGlyphs" textLength="148" x="38.5" y="194.8997">null setKind(int) (1270823096);</text><text fill="#000000" font-family="sans-serif" font-size="11" lengthAdjust="spacingAndGlyphs" textLength="179" x="38.5" y="210.0085">null setSource(char[]) (1315426273);</text><text fill="#000000" font-family="sans-serif" font-size="11" lengthAdjust="spacingAndGlyphs" textLength="249" x="38.5" y="225.1174">null setStatementsRecovery(boolean) (626423169);</text><text fill="#000000" font-family="sans-serif" font-size="11" lengthAdjust="spacingAndGlyphs" textLength="236" x="38.5" y="240.2263">null setBindingsRecovery(boolean) (396288875);</text><text fill="#000000" font-family="sans-serif" font-size="11" lengthAdjust="spacingAndGlyphs" textLength="234" x="38.5" y="255.3352">null setResolveBindings(boolean) (1735802558);</text><text fill="#000000" font-family="sans-serif" font-size="11" lengthAdjust="spacingAndGlyphs" textLength="253" x="38.5" y="270.4441">null setCompilerOptions(java.util.Map) (1571205437);</text><line style="stroke: #A80036; stroke-width: 1.0; stroke-dasharray: 1.0,2.0;" x1="33.5" x2="147.5" y1="159.5444" y2="159.5444"/><text fill="#000000" font-family="sans-serif" font-size="11" lengthAdjust="spacingAndGlyphs" textLength="35" x="147.5" y="164.1819">method</text><line style="stroke: #A80036; stroke-width: 1.0; stroke-dasharray: 1.0,2.0;" x1="182.5" x2="296.5" y1="159.5444" y2="159.5444"/><line style="stroke: #A80036; stroke-width: 1.5;" x1="33.5" x2="137.5" y1="284.4155" y2="284.4155"/><text fill="#0000FF" font-family="sans-serif" font-size="11" font-weight="bold" lengthAdjust="spacingAndGlyphs" textLength="55" x="137.5" y="289.053">calling list</text><line style="stroke: #A80036; stroke-width: 1.5;" x1="192.5" x2="296.5" y1="284.4155" y2="284.4155"/><line style="stroke: #A80036; stroke-width: 1.0; stroke-dasharray: 1.0,2.0;" x1="33.5" x2="152" y1="307.0789" y2="307.0789"/><text fill="#000000" font-family="sans-serif" font-size="11" lengthAdjust="spacingAndGlyphs" textLength="26" x="152" y="311.7163">class</text><line style="stroke: #A80036; stroke-width: 1.0; stroke-dasharray: 1.0,2.0;" x1="178" x2="296.5" y1="307.0789" y2="307.0789"/><line style="stroke: #A80036; stroke-width: 1.0; stroke-dasharray: 1.0,2.0;" x1="33.5" x2="146" y1="329.7422" y2="329.7422"/><text fill="#000000" font-family="sans-serif" font-size="11" lengthAdjust="spacingAndGlyphs" textLength="38" x="146" y="334.3796">member</text><line style="stroke: #A80036; stroke-width: 1.0; stroke-dasharray: 1.0,2.0;" x1="184" x2="296.5" y1="329.7422" y2="329.7422"/><line style="stroke: #A80036; stroke-width: 1.0; stroke-dasharray: 1.0,2.0;" x1="33.5" x2="147.5" y1="352.4055" y2="352.4055"/><text fill="#000000" font-family="sans-serif" font-size="11" lengthAdjust="spacingAndGlyphs" textLength="35" x="147.5" y="357.043">method</text><line style="stroke: #A80036; stroke-width: 1.0; stroke-dasharray: 1.0,2.0;" x1="182.5" x2="296.5" y1="352.4055" y2="352.4055"/><line style="stroke: #A80036; stroke-width: 1.5;" x1="33.5" x2="131" y1="375.0688" y2="375.0688"/><text fill="#FFA500" font-family="sans-serif" font-size="11" font-weight="bold" lengthAdjust="spacingAndGlyphs" textLength="68" x="131" y="379.7063">called by list</text><line style="stroke: #A80036; stroke-width: 1.5;" x1="199" x2="296.5" y1="375.0688" y2="375.0688"/><text fill="#000000" font-family="sans-serif" font-size="11" lengthAdjust="spacingAndGlyphs" textLength="123" x="38.5" y="417.9785">JavaParser (775893582);</text><line style="stroke: #A80036; stroke-width: 1.0; stroke-dasharray: 1.0,2.0;" x1="33.5" x2="152" y1="397.7322" y2="397.7322"/><text fill="#000000" font-family="sans-serif" font-size="11" lengthAdjust="spacingAndGlyphs" textLength="26" x="152" y="402.3696">class</text><line style="stroke: #A80036; stroke-width: 1.0; stroke-dasharray: 1.0,2.0;" x1="178" x2="296.5" y1="397.7322" y2="397.7322"/><line style="stroke: #A80036; stroke-width: 1.0; stroke-dasharray: 1.0,2.0;" x1="33.5" x2="146" y1="431.95" y2="431.95"/><text fill="#000000" font-family="sans-serif" font-size="11" lengthAdjust="spacingAndGlyphs" textLength="38" x="146" y="436.5874">member</text><line style="stroke: #A80036; stroke-width: 1.0; stroke-dasharray: 1.0,2.0;" x1="184" x2="296.5" y1="431.95" y2="431.95"/><text fill="#000000" font-family="sans-serif" font-size="11" lengthAdjust="spacingAndGlyphs" textLength="168" x="38.5" y="474.8596">void init(java.io.File) (1120226221);</text><line style="stroke: #A80036; stroke-width: 1.0; stroke-dasharray: 1.0,2.0;" x1="33.5" x2="147.5" y1="454.6133" y2="454.6133"/><text fill="#000000" font-family="sans-serif" font-size="11" lengthAdjust="spacingAndGlyphs" textLength="35" x="147.5" y="459.2507">method</text><line style="stroke: #A80036; stroke-width: 1.0; stroke-dasharray: 1.0,2.0;" x1="182.5" x2="296.5" y1="454.6133" y2="454.6133"/><!--MD5=[95fbbc90bad3f17c27d5ec7eac400e60]
@startuml
class org.eclipse.jdt.core.dom.ASTParser{
__**<color:green>has list</color>**__
..class..
..member..
..method..
	null newParser(int) (2055291664);
	null setKind(int) (1270823096);
	null setSource(char[]) (1315426273);
	null setStatementsRecovery(boolean) (626423169);
	null setBindingsRecovery(boolean) (396288875);
	null setResolveBindings(boolean) (1735802558);
	null setCompilerOptions(java.util.Map) (1571205437);
__**<color:blue>calling list</color>**__
..class..
..member..
..method..
__**<color:orange>called by list</color>**__
..class..
	JavaParser (775893582);
..member..
..method..
	void init(java.io.File) (1120226221);
}

@enduml

PlantUML version 1.2020.19(Tue Oct 13 00:10:01 KST 2020)
(APACHE source distribution)
Java Runtime: Java(TM) SE Runtime Environment
JVM: Java HotSpot(TM) 64-Bit Server VM
Default Encoding: MS949
Language: ko
Country: KR
--></g></svg>