<?xml version="1.0" encoding="UTF-8" standalone="no"?><svg xmlns="http://www.w3.org/2000/svg" xmlns:xlink="http://www.w3.org/1999/xlink" contentScriptType="application/ecmascript" contentStyleType="text/css" height="459px" preserveAspectRatio="none" style="width:511px;height:459px;" version="1.1" viewBox="0 0 511 459" width="511px" zoomAndPan="magnify"><defs><filter height="300%" id="f1eu1j8yxd4ycn" width="300%" x="-1" y="-1"><feGaussianBlur result="blurOut" stdDeviation="2.0"/><feColorMatrix in="blurOut" result="blurOut2" type="matrix" values="0 0 0 0 0 0 0 0 0 0 0 0 0 0 0 0 0 0 .4 0"/><feOffset dx="4.0" dy="4.0" in="blurOut2" result="blurOut3"/><feBlend in="SourceGraphic" in2="blurOut3" mode="normal"/></filter></defs><g><!--MD5=[c66e735c89a839b0f40df60143f9640e]
cluster org.eclipse.jdt.core.dom--><polygon fill="#FFFFFF" filter="url(#f1eu1j8yxd4ycn)" points="16,6,193,6,200,31.2295,494,31.2295,494,452,16,452,16,6" style="stroke: #000000; stroke-width: 1.5;"/><line style="stroke: #000000; stroke-width: 1.5;" x1="16" x2="200" y1="31.2295" y2="31.2295"/><text fill="#000000" font-family="sans-serif" font-size="14" font-weight="bold" lengthAdjust="spacingAndGlyphs" textLength="171" x="20" y="24.1533">org.eclipse.jdt.core.dom</text><!--MD5=[51a288ae2e4ba4d9eb81a35e5f02bd06]
class org.eclipse.jdt.core.dom.SwitchStatement--><rect codeLine="1" fill="#FEFECE" filter="url(#f1eu1j8yxd4ycn)" height="391.95" id="org.eclipse.jdt.core.dom.SwitchStatement" style="stroke: #A80036; stroke-width: 1.5;" width="445" x="32.5" y="44"/><ellipse cx="204.75" cy="60" fill="#ADD1B2" rx="11" ry="11" style="stroke: #A80036; stroke-width: 1.0;"/><path d="M204.5781,53.4844 Q202.7031,53.4844 201.5469,55.2344 Q200.3594,57.0156 200.3594,60.0156 Q200.3594,63.3906 201.5625,65.1563 Q202.625,66.7813 204.375,66.7813 Q206.0625,66.7813 207.0156,65.875 Q208.0781,64.8594 208.2188,62.625 Q208.2188,62.2031 207.9844,61.9688 Q207.7969,61.7344 207.4531,61.7031 Q207.125,61.7031 206.8906,61.8906 Q206.625,62.125 206.625,62.5156 Q206.5938,63.9063 206,64.6406 Q205.4688,65.3438 204.5156,65.3438 Q203.3594,65.3438 202.6406,63.9063 Q201.9219,62.4063 201.9219,59.9844 Q201.9219,57.4375 202.8125,56.0469 Q203.5625,54.9219 204.7031,54.9219 Q205.3594,54.9219 205.8594,55.4688 Q206.4219,56.0781 206.5469,57.1406 Q206.5938,57.8438 207.4219,57.7344 Q208.2031,57.625 208.1563,56.9375 Q207.9688,55.4219 207.2031,54.5469 Q206.2656,53.4844 204.5781,53.4844 Z "/><text fill="#000000" font-family="sans-serif" font-size="12" lengthAdjust="spacingAndGlyphs" textLength="92" x="225.25" y="65.6045">SwitchStatement</text><line style="stroke: #A80036; stroke-width: 1.5;" x1="33.5" x2="476.5" y1="76" y2="76"/><line style="stroke: #A80036; stroke-width: 1.5;" x1="33.5" x2="235" y1="91.5544" y2="91.5544"/><text fill="#008000" font-family="sans-serif" font-size="11" font-weight="bold" lengthAdjust="spacingAndGlyphs" textLength="40" x="235" y="96.1919">has list</text><line style="stroke: #A80036; stroke-width: 1.5;" x1="275" x2="476.5" y1="91.5544" y2="91.5544"/><line style="stroke: #A80036; stroke-width: 1.0; stroke-dasharray: 1.0,2.0;" x1="33.5" x2="242" y1="114.2178" y2="114.2178"/><text fill="#000000" font-family="sans-serif" font-size="11" lengthAdjust="spacingAndGlyphs" textLength="26" x="242" y="118.8552">class</text><line style="stroke: #A80036; stroke-width: 1.0; stroke-dasharray: 1.0,2.0;" x1="268" x2="476.5" y1="114.2178" y2="114.2178"/><line style="stroke: #A80036; stroke-width: 1.0; stroke-dasharray: 1.0,2.0;" x1="33.5" x2="236" y1="136.8811" y2="136.8811"/><text fill="#000000" font-family="sans-serif" font-size="11" lengthAdjust="spacingAndGlyphs" textLength="38" x="236" y="141.5186">member</text><line style="stroke: #A80036; stroke-width: 1.0; stroke-dasharray: 1.0,2.0;" x1="274" x2="476.5" y1="136.8811" y2="136.8811"/><text fill="#000000" font-family="sans-serif" font-size="11" lengthAdjust="spacingAndGlyphs" textLength="164" x="38.5" y="179.7908">null getExpression() (787033725);</text><text fill="#000000" font-family="sans-serif" font-size="11" lengthAdjust="spacingAndGlyphs" textLength="154" x="38.5" y="194.8997">null statements() (1973053322);</text><line style="stroke: #A80036; stroke-width: 1.0; stroke-dasharray: 1.0,2.0;" x1="33.5" x2="237.5" y1="159.5444" y2="159.5444"/><text fill="#000000" font-family="sans-serif" font-size="11" lengthAdjust="spacingAndGlyphs" textLength="35" x="237.5" y="164.1819">method</text><line style="stroke: #A80036; stroke-width: 1.0; stroke-dasharray: 1.0,2.0;" x1="272.5" x2="476.5" y1="159.5444" y2="159.5444"/><line style="stroke: #A80036; stroke-width: 1.5;" x1="33.5" x2="227.5" y1="208.8711" y2="208.8711"/><text fill="#0000FF" font-family="sans-serif" font-size="11" font-weight="bold" lengthAdjust="spacingAndGlyphs" textLength="55" x="227.5" y="213.5085">calling list</text><line style="stroke: #A80036; stroke-width: 1.5;" x1="282.5" x2="476.5" y1="208.8711" y2="208.8711"/><line style="stroke: #A80036; stroke-width: 1.0; stroke-dasharray: 1.0,2.0;" x1="33.5" x2="242" y1="231.5344" y2="231.5344"/><text fill="#000000" font-family="sans-serif" font-size="11" lengthAdjust="spacingAndGlyphs" textLength="26" x="242" y="236.1719">class</text><line style="stroke: #A80036; stroke-width: 1.0; stroke-dasharray: 1.0,2.0;" x1="268" x2="476.5" y1="231.5344" y2="231.5344"/><line style="stroke: #A80036; stroke-width: 1.0; stroke-dasharray: 1.0,2.0;" x1="33.5" x2="236" y1="254.1978" y2="254.1978"/><text fill="#000000" font-family="sans-serif" font-size="11" lengthAdjust="spacingAndGlyphs" textLength="38" x="236" y="258.8352">member</text><line style="stroke: #A80036; stroke-width: 1.0; stroke-dasharray: 1.0,2.0;" x1="274" x2="476.5" y1="254.1978" y2="254.1978"/><line style="stroke: #A80036; stroke-width: 1.0; stroke-dasharray: 1.0,2.0;" x1="33.5" x2="237.5" y1="276.8611" y2="276.8611"/><text fill="#000000" font-family="sans-serif" font-size="11" lengthAdjust="spacingAndGlyphs" textLength="35" x="237.5" y="281.4985">method</text><line style="stroke: #A80036; stroke-width: 1.0; stroke-dasharray: 1.0,2.0;" x1="272.5" x2="476.5" y1="276.8611" y2="276.8611"/><line style="stroke: #A80036; stroke-width: 1.5;" x1="33.5" x2="221" y1="299.5244" y2="299.5244"/><text fill="#FFA500" font-family="sans-serif" font-size="11" font-weight="bold" lengthAdjust="spacingAndGlyphs" textLength="68" x="221" y="304.1619">called by list</text><line style="stroke: #A80036; stroke-width: 1.5;" x1="289" x2="476.5" y1="299.5244" y2="299.5244"/><text fill="#000000" font-family="sans-serif" font-size="11" lengthAdjust="spacingAndGlyphs" textLength="133" x="38.5" y="342.4341">SwitchNode (1826350572);</text><text fill="#000000" font-family="sans-serif" font-size="11" lengthAdjust="spacingAndGlyphs" textLength="126" x="38.5" y="357.543">Test_Visitor (775300103);</text><line style="stroke: #A80036; stroke-width: 1.0; stroke-dasharray: 1.0,2.0;" x1="33.5" x2="242" y1="322.1877" y2="322.1877"/><text fill="#000000" font-family="sans-serif" font-size="11" lengthAdjust="spacingAndGlyphs" textLength="26" x="242" y="326.8252">class</text><line style="stroke: #A80036; stroke-width: 1.0; stroke-dasharray: 1.0,2.0;" x1="268" x2="476.5" y1="322.1877" y2="322.1877"/><line style="stroke: #A80036; stroke-width: 1.0; stroke-dasharray: 1.0,2.0;" x1="33.5" x2="236" y1="371.5144" y2="371.5144"/><text fill="#000000" font-family="sans-serif" font-size="11" lengthAdjust="spacingAndGlyphs" textLength="38" x="236" y="376.1519">member</text><line style="stroke: #A80036; stroke-width: 1.0; stroke-dasharray: 1.0,2.0;" x1="274" x2="476.5" y1="371.5144" y2="371.5144"/><text fill="#000000" font-family="sans-serif" font-size="11" lengthAdjust="spacingAndGlyphs" textLength="403" x="38.5" y="414.4241">SwitchNode SwitchNode(org.eclipse.jdt.core.dom.SwitchStatement) (2004013670);</text><text fill="#000000" font-family="sans-serif" font-size="11" lengthAdjust="spacingAndGlyphs" textLength="433" x="38.5" y="429.533">void switchStatement(org.eclipse.jdt.core.dom.Statement, dataSet.Function) (786116491);</text><line style="stroke: #A80036; stroke-width: 1.0; stroke-dasharray: 1.0,2.0;" x1="33.5" x2="237.5" y1="394.1777" y2="394.1777"/><text fill="#000000" font-family="sans-serif" font-size="11" lengthAdjust="spacingAndGlyphs" textLength="35" x="237.5" y="398.8152">method</text><line style="stroke: #A80036; stroke-width: 1.0; stroke-dasharray: 1.0,2.0;" x1="272.5" x2="476.5" y1="394.1777" y2="394.1777"/><!--MD5=[ae83451d43bdb29356be3ef1e175a74e]
@startuml
class org.eclipse.jdt.core.dom.SwitchStatement{
__**<color:green>has list</color>**__
..class..
..member..
..method..
	null getExpression() (787033725);
	null statements() (1973053322);
__**<color:blue>calling list</color>**__
..class..
..member..
..method..
__**<color:orange>called by list</color>**__
..class..
	SwitchNode (1826350572);
	Test_Visitor (775300103);
..member..
..method..
	SwitchNode SwitchNode(org.eclipse.jdt.core.dom.SwitchStatement) (2004013670);
	void switchStatement(org.eclipse.jdt.core.dom.Statement, dataSet.Function) (786116491);
}

@enduml

PlantUML version 1.2020.19(Tue Oct 13 00:10:01 KST 2020)
(APACHE source distribution)
Java Runtime: Java(TM) SE Runtime Environment
JVM: Java HotSpot(TM) 64-Bit Server VM
Default Encoding: MS949
Language: ko
Country: KR
--></g></svg>