<?xml version="1.0" encoding="UTF-8" standalone="no"?><svg xmlns="http://www.w3.org/2000/svg" xmlns:xlink="http://www.w3.org/1999/xlink" contentScriptType="application/ecmascript" contentStyleType="text/css" height="444px" preserveAspectRatio="none" style="width:477px;height:444px;" version="1.1" viewBox="0 0 477 444" width="477px" zoomAndPan="magnify"><defs><filter height="300%" id="f1nh1p1exval1" width="300%" x="-1" y="-1"><feGaussianBlur result="blurOut" stdDeviation="2.0"/><feColorMatrix in="blurOut" result="blurOut2" type="matrix" values="0 0 0 0 0 0 0 0 0 0 0 0 0 0 0 0 0 0 .4 0"/><feOffset dx="4.0" dy="4.0" in="blurOut2" result="blurOut3"/><feBlend in="SourceGraphic" in2="blurOut3" mode="normal"/></filter></defs><g><!--MD5=[c66e735c89a839b0f40df60143f9640e]
cluster org.eclipse.jdt.core.dom--><polygon fill="#FFFFFF" filter="url(#f1nh1p1exval1)" points="16,6,193,6,200,31.2295,460,31.2295,460,437,16,437,16,6" style="stroke: #000000; stroke-width: 1.5;"/><line style="stroke: #000000; stroke-width: 1.5;" x1="16" x2="200" y1="31.2295" y2="31.2295"/><text fill="#000000" font-family="sans-serif" font-size="14" font-weight="bold" lengthAdjust="spacingAndGlyphs" textLength="171" x="20" y="24.1533">org.eclipse.jdt.core.dom</text><!--MD5=[d4615508ebcd79d8bd7ac4577a8ebe8b]
class org.eclipse.jdt.core.dom.ForStatement--><rect codeLine="1" fill="#FEFECE" filter="url(#f1nh1p1exval1)" height="376.8411" id="org.eclipse.jdt.core.dom.ForStatement" style="stroke: #A80036; stroke-width: 1.5;" width="411" x="32.5" y="44"/><ellipse cx="196.75" cy="60" fill="#ADD1B2" rx="11" ry="11" style="stroke: #A80036; stroke-width: 1.0;"/><path d="M196.5781,53.4844 Q194.7031,53.4844 193.5469,55.2344 Q192.3594,57.0156 192.3594,60.0156 Q192.3594,63.3906 193.5625,65.1563 Q194.625,66.7813 196.375,66.7813 Q198.0625,66.7813 199.0156,65.875 Q200.0781,64.8594 200.2188,62.625 Q200.2188,62.2031 199.9844,61.9688 Q199.7969,61.7344 199.4531,61.7031 Q199.125,61.7031 198.8906,61.8906 Q198.625,62.125 198.625,62.5156 Q198.5938,63.9063 198,64.6406 Q197.4688,65.3438 196.5156,65.3438 Q195.3594,65.3438 194.6406,63.9063 Q193.9219,62.4063 193.9219,59.9844 Q193.9219,57.4375 194.8125,56.0469 Q195.5625,54.9219 196.7031,54.9219 Q197.3594,54.9219 197.8594,55.4688 Q198.4219,56.0781 198.5469,57.1406 Q198.5938,57.8438 199.4219,57.7344 Q200.2031,57.625 200.1563,56.9375 Q199.9688,55.4219 199.2031,54.5469 Q198.2656,53.4844 196.5781,53.4844 Z "/><text fill="#000000" font-family="sans-serif" font-size="12" lengthAdjust="spacingAndGlyphs" textLength="74" x="217.25" y="65.6045">ForStatement</text><line style="stroke: #A80036; stroke-width: 1.5;" x1="33.5" x2="442.5" y1="76" y2="76"/><line style="stroke: #A80036; stroke-width: 1.5;" x1="33.5" x2="218" y1="91.5544" y2="91.5544"/><text fill="#008000" font-family="sans-serif" font-size="11" font-weight="bold" lengthAdjust="spacingAndGlyphs" textLength="40" x="218" y="96.1919">has list</text><line style="stroke: #A80036; stroke-width: 1.5;" x1="258" x2="442.5" y1="91.5544" y2="91.5544"/><line style="stroke: #A80036; stroke-width: 1.0; stroke-dasharray: 1.0,2.0;" x1="33.5" x2="225" y1="114.2178" y2="114.2178"/><text fill="#000000" font-family="sans-serif" font-size="11" lengthAdjust="spacingAndGlyphs" textLength="26" x="225" y="118.8552">class</text><line style="stroke: #A80036; stroke-width: 1.0; stroke-dasharray: 1.0,2.0;" x1="251" x2="442.5" y1="114.2178" y2="114.2178"/><line style="stroke: #A80036; stroke-width: 1.0; stroke-dasharray: 1.0,2.0;" x1="33.5" x2="219" y1="136.8811" y2="136.8811"/><text fill="#000000" font-family="sans-serif" font-size="11" lengthAdjust="spacingAndGlyphs" textLength="38" x="219" y="141.5186">member</text><line style="stroke: #A80036; stroke-width: 1.0; stroke-dasharray: 1.0,2.0;" x1="257" x2="442.5" y1="136.8811" y2="136.8811"/><text fill="#000000" font-family="sans-serif" font-size="11" lengthAdjust="spacingAndGlyphs" textLength="142" x="38.5" y="179.7908">null initializers() (307655033);</text><text fill="#000000" font-family="sans-serif" font-size="11" lengthAdjust="spacingAndGlyphs" textLength="170" x="38.5" y="194.8997">null getExpression() (2135077268);</text><text fill="#000000" font-family="sans-serif" font-size="11" lengthAdjust="spacingAndGlyphs" textLength="135" x="38.5" y="210.0085">null getBody() (689375815);</text><line style="stroke: #A80036; stroke-width: 1.0; stroke-dasharray: 1.0,2.0;" x1="33.5" x2="220.5" y1="159.5444" y2="159.5444"/><text fill="#000000" font-family="sans-serif" font-size="11" lengthAdjust="spacingAndGlyphs" textLength="35" x="220.5" y="164.1819">method</text><line style="stroke: #A80036; stroke-width: 1.0; stroke-dasharray: 1.0,2.0;" x1="255.5" x2="442.5" y1="159.5444" y2="159.5444"/><line style="stroke: #A80036; stroke-width: 1.5;" x1="33.5" x2="210.5" y1="223.98" y2="223.98"/><text fill="#0000FF" font-family="sans-serif" font-size="11" font-weight="bold" lengthAdjust="spacingAndGlyphs" textLength="55" x="210.5" y="228.6174">calling list</text><line style="stroke: #A80036; stroke-width: 1.5;" x1="265.5" x2="442.5" y1="223.98" y2="223.98"/><line style="stroke: #A80036; stroke-width: 1.0; stroke-dasharray: 1.0,2.0;" x1="33.5" x2="225" y1="246.6433" y2="246.6433"/><text fill="#000000" font-family="sans-serif" font-size="11" lengthAdjust="spacingAndGlyphs" textLength="26" x="225" y="251.2808">class</text><line style="stroke: #A80036; stroke-width: 1.0; stroke-dasharray: 1.0,2.0;" x1="251" x2="442.5" y1="246.6433" y2="246.6433"/><line style="stroke: #A80036; stroke-width: 1.0; stroke-dasharray: 1.0,2.0;" x1="33.5" x2="219" y1="269.3066" y2="269.3066"/><text fill="#000000" font-family="sans-serif" font-size="11" lengthAdjust="spacingAndGlyphs" textLength="38" x="219" y="273.9441">member</text><line style="stroke: #A80036; stroke-width: 1.0; stroke-dasharray: 1.0,2.0;" x1="257" x2="442.5" y1="269.3066" y2="269.3066"/><line style="stroke: #A80036; stroke-width: 1.0; stroke-dasharray: 1.0,2.0;" x1="33.5" x2="220.5" y1="291.97" y2="291.97"/><text fill="#000000" font-family="sans-serif" font-size="11" lengthAdjust="spacingAndGlyphs" textLength="35" x="220.5" y="296.6074">method</text><line style="stroke: #A80036; stroke-width: 1.0; stroke-dasharray: 1.0,2.0;" x1="255.5" x2="442.5" y1="291.97" y2="291.97"/><line style="stroke: #A80036; stroke-width: 1.5;" x1="33.5" x2="204" y1="314.6333" y2="314.6333"/><text fill="#FFA500" font-family="sans-serif" font-size="11" font-weight="bold" lengthAdjust="spacingAndGlyphs" textLength="68" x="204" y="319.2708">called by list</text><line style="stroke: #A80036; stroke-width: 1.5;" x1="272" x2="442.5" y1="314.6333" y2="314.6333"/><text fill="#000000" font-family="sans-serif" font-size="11" lengthAdjust="spacingAndGlyphs" textLength="134" x="38.5" y="357.543">ForStateNode (645919967);</text><line style="stroke: #A80036; stroke-width: 1.0; stroke-dasharray: 1.0,2.0;" x1="33.5" x2="225" y1="337.2966" y2="337.2966"/><text fill="#000000" font-family="sans-serif" font-size="11" lengthAdjust="spacingAndGlyphs" textLength="26" x="225" y="341.9341">class</text><line style="stroke: #A80036; stroke-width: 1.0; stroke-dasharray: 1.0,2.0;" x1="251" x2="442.5" y1="337.2966" y2="337.2966"/><line style="stroke: #A80036; stroke-width: 1.0; stroke-dasharray: 1.0,2.0;" x1="33.5" x2="219" y1="371.5144" y2="371.5144"/><text fill="#000000" font-family="sans-serif" font-size="11" lengthAdjust="spacingAndGlyphs" textLength="38" x="219" y="376.1519">member</text><line style="stroke: #A80036; stroke-width: 1.0; stroke-dasharray: 1.0,2.0;" x1="257" x2="442.5" y1="371.5144" y2="371.5144"/><text fill="#000000" font-family="sans-serif" font-size="11" lengthAdjust="spacingAndGlyphs" textLength="399" x="38.5" y="414.4241">ForStateNode ForStateNode(org.eclipse.jdt.core.dom.ForStatement) (1489251468);</text><line style="stroke: #A80036; stroke-width: 1.0; stroke-dasharray: 1.0,2.0;" x1="33.5" x2="220.5" y1="394.1777" y2="394.1777"/><text fill="#000000" font-family="sans-serif" font-size="11" lengthAdjust="spacingAndGlyphs" textLength="35" x="220.5" y="398.8152">method</text><line style="stroke: #A80036; stroke-width: 1.0; stroke-dasharray: 1.0,2.0;" x1="255.5" x2="442.5" y1="394.1777" y2="394.1777"/><!--MD5=[2e29f37e9a8cb3ab8b1cd74a31805a5c]
@startuml
class org.eclipse.jdt.core.dom.ForStatement{
__**<color:green>has list</color>**__
..class..
..member..
..method..
	null initializers() (307655033);
	null getExpression() (2135077268);
	null getBody() (689375815);
__**<color:blue>calling list</color>**__
..class..
..member..
..method..
__**<color:orange>called by list</color>**__
..class..
	ForStateNode (645919967);
..member..
..method..
	ForStateNode ForStateNode(org.eclipse.jdt.core.dom.ForStatement) (1489251468);
}

@enduml

PlantUML version 1.2020.19(Tue Oct 13 00:10:01 KST 2020)
(APACHE source distribution)
Java Runtime: Java(TM) SE Runtime Environment
JVM: Java HotSpot(TM) 64-Bit Server VM
Default Encoding: MS949
Language: ko
Country: KR
--></g></svg>