<?xml version="1.0" encoding="UTF-8" standalone="no"?><svg xmlns="http://www.w3.org/2000/svg" xmlns:xlink="http://www.w3.org/1999/xlink" contentScriptType="application/ecmascript" contentStyleType="text/css" height="489px" preserveAspectRatio="none" style="width:577px;height:489px;" version="1.1" viewBox="0 0 577 489" width="577px" zoomAndPan="magnify"><defs><filter height="300%" id="fqtmq8o0sgvsm" width="300%" x="-1" y="-1"><feGaussianBlur result="blurOut" stdDeviation="2.0"/><feColorMatrix in="blurOut" result="blurOut2" type="matrix" values="0 0 0 0 0 0 0 0 0 0 0 0 0 0 0 0 0 0 .4 0"/><feOffset dx="4.0" dy="4.0" in="blurOut2" result="blurOut3"/><feBlend in="SourceGraphic" in2="blurOut3" mode="normal"/></filter></defs><g><!--MD5=[7c6608d7cf625e90131334e1ca091b1a]
cluster Functions--><polygon fill="#FFFFFF" filter="url(#fqtmq8o0sgvsm)" points="254,6,330,6,337,31.2295,560,31.2295,560,482,254,482,254,6" style="stroke: #000000; stroke-width: 1.5;"/><line style="stroke: #000000; stroke-width: 1.5;" x1="254" x2="337" y1="31.2295" y2="31.2295"/><text fill="#000000" font-family="sans-serif" font-size="14" font-weight="bold" lengthAdjust="spacingAndGlyphs" textLength="70" x="258" y="24.1533">Functions</text><!--MD5=[f9f1a48123b26b3ba0cf6338247331bb]
class f1199673596--><rect codeLine="24" fill="#FEFECE" filter="url(#fqtmq8o0sgvsm)" height="422.1677" id="f1199673596" style="stroke: #008000; stroke-width: 1.5;" width="274" x="270" y="44"/><ellipse cx="374.25" cy="60" fill="#ADD1B2" rx="11" ry="11" style="stroke: #008000; stroke-width: 1.0;"/><path d="M374.0781,53.4844 Q372.2031,53.4844 371.0469,55.2344 Q369.8594,57.0156 369.8594,60.0156 Q369.8594,63.3906 371.0625,65.1563 Q372.125,66.7813 373.875,66.7813 Q375.5625,66.7813 376.5156,65.875 Q377.5781,64.8594 377.7188,62.625 Q377.7188,62.2031 377.4844,61.9688 Q377.2969,61.7344 376.9531,61.7031 Q376.625,61.7031 376.3906,61.8906 Q376.125,62.125 376.125,62.5156 Q376.0938,63.9063 375.5,64.6406 Q374.9688,65.3438 374.0156,65.3438 Q372.8594,65.3438 372.1406,63.9063 Q371.4219,62.4063 371.4219,59.9844 Q371.4219,57.4375 372.3125,56.0469 Q373.0625,54.9219 374.2031,54.9219 Q374.8594,54.9219 375.3594,55.4688 Q375.9219,56.0781 376.0469,57.1406 Q376.0938,57.8438 376.9219,57.7344 Q377.7031,57.625 377.6563,56.9375 Q377.4688,55.4219 376.7031,54.5469 Q375.7656,53.4844 374.0781,53.4844 Z "/><text fill="#000000" font-family="sans-serif" font-size="12" lengthAdjust="spacingAndGlyphs" textLength="57" x="394.75" y="65.6045">Sound(int)</text><line style="stroke: #008000; stroke-width: 1.5;" x1="271" x2="543" y1="76" y2="76"/><text fill="#000000" font-family="sans-serif" font-size="11" lengthAdjust="spacingAndGlyphs" textLength="60" x="276" y="92.6919">Static : false</text><text fill="#000000" font-family="sans-serif" font-size="11" lengthAdjust="spacingAndGlyphs" textLength="87" x="276" y="107.8008">return Type : new</text><text fill="#000000" font-family="sans-serif" font-size="11" lengthAdjust="spacingAndGlyphs" textLength="118" x="276" y="122.9097">hashCode : 1199673596</text><text fill="#000000" font-family="sans-serif" font-size="11" lengthAdjust="spacingAndGlyphs" textLength="69" x="276" y="138.0186">ABS Score : 1</text><text fill="#000000" font-family="sans-serif" font-size="11" lengthAdjust="spacingAndGlyphs" textLength="85" x="276" y="153.1274">Relative Score : 1</text><line style="stroke: #008000; stroke-width: 1.5;" x1="271" x2="387" y1="167.0989" y2="167.0989"/><text fill="#008000" font-family="sans-serif" font-size="11" font-weight="bold" lengthAdjust="spacingAndGlyphs" textLength="40" x="387" y="171.7363">has list</text><line style="stroke: #008000; stroke-width: 1.5;" x1="427" x2="543" y1="167.0989" y2="167.0989"/><line style="stroke: #008000; stroke-width: 1.0; stroke-dasharray: 1.0,2.0;" x1="271" x2="394" y1="189.7622" y2="189.7622"/><text fill="#000000" font-family="sans-serif" font-size="11" lengthAdjust="spacingAndGlyphs" textLength="26" x="394" y="194.3997">class</text><line style="stroke: #008000; stroke-width: 1.0; stroke-dasharray: 1.0,2.0;" x1="420" x2="543" y1="189.7622" y2="189.7622"/><text fill="#000000" font-family="sans-serif" font-size="11" lengthAdjust="spacingAndGlyphs" textLength="262" x="276" y="232.6719">classRelation.Sound.Sound(int).volume (1240232440);</text><line style="stroke: #008000; stroke-width: 1.0; stroke-dasharray: 1.0,2.0;" x1="271" x2="388" y1="212.4255" y2="212.4255"/><text fill="#000000" font-family="sans-serif" font-size="11" lengthAdjust="spacingAndGlyphs" textLength="38" x="388" y="217.063">member</text><line style="stroke: #008000; stroke-width: 1.0; stroke-dasharray: 1.0,2.0;" x1="426" x2="543" y1="212.4255" y2="212.4255"/><line style="stroke: #008000; stroke-width: 1.0; stroke-dasharray: 1.0,2.0;" x1="271" x2="389.5" y1="246.6433" y2="246.6433"/><text fill="#000000" font-family="sans-serif" font-size="11" lengthAdjust="spacingAndGlyphs" textLength="35" x="389.5" y="251.2808">method</text><line style="stroke: #008000; stroke-width: 1.0; stroke-dasharray: 1.0,2.0;" x1="424.5" x2="543" y1="246.6433" y2="246.6433"/><line style="stroke: #008000; stroke-width: 1.5;" x1="271" x2="379.5" y1="269.3066" y2="269.3066"/><text fill="#0000FF" font-family="sans-serif" font-size="11" font-weight="bold" lengthAdjust="spacingAndGlyphs" textLength="55" x="379.5" y="273.9441">calling list</text><line style="stroke: #008000; stroke-width: 1.5;" x1="434.5" x2="543" y1="269.3066" y2="269.3066"/><line style="stroke: #008000; stroke-width: 1.0; stroke-dasharray: 1.0,2.0;" x1="271" x2="394" y1="291.97" y2="291.97"/><text fill="#000000" font-family="sans-serif" font-size="11" lengthAdjust="spacingAndGlyphs" textLength="26" x="394" y="296.6074">class</text><line style="stroke: #008000; stroke-width: 1.0; stroke-dasharray: 1.0,2.0;" x1="420" x2="543" y1="291.97" y2="291.97"/><line style="stroke: #008000; stroke-width: 1.0; stroke-dasharray: 1.0,2.0;" x1="271" x2="388" y1="314.6333" y2="314.6333"/><text fill="#000000" font-family="sans-serif" font-size="11" lengthAdjust="spacingAndGlyphs" textLength="38" x="388" y="319.2708">member</text><line style="stroke: #008000; stroke-width: 1.0; stroke-dasharray: 1.0,2.0;" x1="426" x2="543" y1="314.6333" y2="314.6333"/><line style="stroke: #008000; stroke-width: 1.0; stroke-dasharray: 1.0,2.0;" x1="271" x2="389.5" y1="337.2966" y2="337.2966"/><text fill="#000000" font-family="sans-serif" font-size="11" lengthAdjust="spacingAndGlyphs" textLength="35" x="389.5" y="341.9341">method</text><line style="stroke: #008000; stroke-width: 1.0; stroke-dasharray: 1.0,2.0;" x1="424.5" x2="543" y1="337.2966" y2="337.2966"/><line style="stroke: #008000; stroke-width: 1.5;" x1="271" x2="373" y1="359.96" y2="359.96"/><text fill="#FFA500" font-family="sans-serif" font-size="11" font-weight="bold" lengthAdjust="spacingAndGlyphs" textLength="68" x="373" y="364.5974">called by list</text><line style="stroke: #008000; stroke-width: 1.5;" x1="441" x2="543" y1="359.96" y2="359.96"/><text fill="#000000" font-family="sans-serif" font-size="11" lengthAdjust="spacingAndGlyphs" textLength="185" x="276" y="402.8696">classRelation.Instrument (762476028);</text><line style="stroke: #008000; stroke-width: 1.0; stroke-dasharray: 1.0,2.0;" x1="271" x2="394" y1="382.6233" y2="382.6233"/><text fill="#000000" font-family="sans-serif" font-size="11" lengthAdjust="spacingAndGlyphs" textLength="26" x="394" y="387.2607">class</text><line style="stroke: #008000; stroke-width: 1.0; stroke-dasharray: 1.0,2.0;" x1="420" x2="543" y1="382.6233" y2="382.6233"/><line style="stroke: #008000; stroke-width: 1.0; stroke-dasharray: 1.0,2.0;" x1="271" x2="388" y1="416.8411" y2="416.8411"/><text fill="#000000" font-family="sans-serif" font-size="11" lengthAdjust="spacingAndGlyphs" textLength="38" x="388" y="421.4785">member</text><line style="stroke: #008000; stroke-width: 1.0; stroke-dasharray: 1.0,2.0;" x1="426" x2="543" y1="416.8411" y2="416.8411"/><text fill="#000000" font-family="sans-serif" font-size="11" lengthAdjust="spacingAndGlyphs" textLength="216" x="276" y="459.7507">classRelation.Instrument.play() (982757413);</text><line style="stroke: #008000; stroke-width: 1.0; stroke-dasharray: 1.0,2.0;" x1="271" x2="389.5" y1="439.5044" y2="439.5044"/><text fill="#000000" font-family="sans-serif" font-size="11" lengthAdjust="spacingAndGlyphs" textLength="35" x="389.5" y="444.1418">method</text><line style="stroke: #008000; stroke-width: 1.0; stroke-dasharray: 1.0,2.0;" x1="424.5" x2="543" y1="439.5044" y2="439.5044"/><!--MD5=[f6064968006b102cb1b3092be2f53bd9]
class cl1--><rect codeLine="1" fill="#FEFECE" filter="url(#fqtmq8o0sgvsm)" height="377.2866" id="cl1" style="stroke: #A80036; stroke-width: 1.5;" width="228" x="7" y="66.5"/><ellipse cx="98.75" cy="82.5" fill="#ADD1B2" rx="11" ry="11" style="stroke: #A80036; stroke-width: 1.0;"/><path d="M98.5781,75.9844 Q96.7031,75.9844 95.5469,77.7344 Q94.3594,79.5156 94.3594,82.5156 Q94.3594,85.8906 95.5625,87.6563 Q96.625,89.2813 98.375,89.2813 Q100.0625,89.2813 101.0156,88.375 Q102.0781,87.3594 102.2188,85.125 Q102.2188,84.7031 101.9844,84.4688 Q101.7969,84.2344 101.4531,84.2031 Q101.125,84.2031 100.8906,84.3906 Q100.625,84.625 100.625,85.0156 Q100.5938,86.4063 100,87.1406 Q99.4688,87.8438 98.5156,87.8438 Q97.3594,87.8438 96.6406,86.4063 Q95.9219,84.9063 95.9219,82.4844 Q95.9219,79.9375 96.8125,78.5469 Q97.5625,77.4219 98.7031,77.4219 Q99.3594,77.4219 99.8594,77.9688 Q100.4219,78.5781 100.5469,79.6406 Q100.5938,80.3438 101.4219,80.2344 Q102.2031,80.125 102.1563,79.4375 Q101.9688,77.9219 101.2031,77.0469 Q100.2656,75.9844 98.5781,75.9844 Z "/><text fill="#000000" font-family="sans-serif" font-size="12" lengthAdjust="spacingAndGlyphs" textLength="36" x="119.25" y="88.1045">Sound</text><line style="stroke: #A80036; stroke-width: 1.5;" x1="8" x2="234" y1="98.5" y2="98.5"/><text fill="#000000" font-family="sans-serif" font-size="11" lengthAdjust="spacingAndGlyphs" textLength="108" x="13" y="115.1919">Package classRelation</text><text fill="#000000" font-family="sans-serif" font-size="11" lengthAdjust="spacingAndGlyphs" textLength="41" x="13" y="130.3008">Lib false</text><text fill="#000000" font-family="sans-serif" font-size="11" lengthAdjust="spacingAndGlyphs" textLength="113" x="13" y="145.4097">HashCode : 966739377</text><text fill="#000000" font-family="sans-serif" font-size="11" lengthAdjust="spacingAndGlyphs" textLength="69" x="13" y="160.5186">ABS Score : 2</text><text fill="#000000" font-family="sans-serif" font-size="11" lengthAdjust="spacingAndGlyphs" textLength="85" x="13" y="175.6274">Relative Score : 1</text><text fill="#008000" font-family="sans-serif" font-size="11" lengthAdjust="spacingAndGlyphs" textLength="65" x="13" y="209.8452">int volume (1)</text><line style="stroke: #A80036; stroke-width: 1.5;" x1="8" x2="101" y1="189.5989" y2="189.5989"/><text fill="#008000" font-family="sans-serif" font-size="11" font-weight="bold" lengthAdjust="spacingAndGlyphs" textLength="40" x="101" y="194.2363">has list</text><line style="stroke: #A80036; stroke-width: 1.5;" x1="141" x2="234" y1="189.5989" y2="189.5989"/><line style="stroke: #A80036; stroke-width: 1.0; stroke-dasharray: 1.0,2.0;" x1="8" x2="234" y1="216.2622" y2="216.2622"/><text fill="#008000" font-family="sans-serif" font-size="11" lengthAdjust="spacingAndGlyphs" textLength="92" x="13" y="232.9541">new Sound(int) (1)</text><line style="stroke: #A80036; stroke-width: 1.5;" x1="8" x2="93.5" y1="246.9255" y2="246.9255"/><text fill="#0000FF" font-family="sans-serif" font-size="11" font-weight="bold" lengthAdjust="spacingAndGlyphs" textLength="55" x="93.5" y="251.563">calling list</text><line style="stroke: #A80036; stroke-width: 1.5;" x1="148.5" x2="234" y1="246.9255" y2="246.9255"/><line style="stroke: #A80036; stroke-width: 1.0; stroke-dasharray: 1.0,2.0;" x1="8" x2="108" y1="269.5889" y2="269.5889"/><text fill="#000000" font-family="sans-serif" font-size="11" lengthAdjust="spacingAndGlyphs" textLength="26" x="108" y="274.2263">class</text><line style="stroke: #A80036; stroke-width: 1.0; stroke-dasharray: 1.0,2.0;" x1="134" x2="234" y1="269.5889" y2="269.5889"/><line style="stroke: #A80036; stroke-width: 1.0; stroke-dasharray: 1.0,2.0;" x1="8" x2="102" y1="292.2522" y2="292.2522"/><text fill="#000000" font-family="sans-serif" font-size="11" lengthAdjust="spacingAndGlyphs" textLength="38" x="102" y="296.8896">member</text><line style="stroke: #A80036; stroke-width: 1.0; stroke-dasharray: 1.0,2.0;" x1="140" x2="234" y1="292.2522" y2="292.2522"/><line style="stroke: #A80036; stroke-width: 1.0; stroke-dasharray: 1.0,2.0;" x1="8" x2="103.5" y1="314.9155" y2="314.9155"/><text fill="#000000" font-family="sans-serif" font-size="11" lengthAdjust="spacingAndGlyphs" textLength="35" x="103.5" y="319.553">method</text><line style="stroke: #A80036; stroke-width: 1.0; stroke-dasharray: 1.0,2.0;" x1="138.5" x2="234" y1="314.9155" y2="314.9155"/><line style="stroke: #A80036; stroke-width: 1.5;" x1="8" x2="87" y1="337.5789" y2="337.5789"/><text fill="#FFA500" font-family="sans-serif" font-size="11" font-weight="bold" lengthAdjust="spacingAndGlyphs" textLength="68" x="87" y="342.2163">called by list</text><line style="stroke: #A80036; stroke-width: 1.5;" x1="155" x2="234" y1="337.5789" y2="337.5789"/><text fill="#000000" font-family="sans-serif" font-size="11" lengthAdjust="spacingAndGlyphs" textLength="185" x="13" y="380.4885">classRelation.Instrument (762476028);</text><line style="stroke: #A80036; stroke-width: 1.0; stroke-dasharray: 1.0,2.0;" x1="8" x2="108" y1="360.2422" y2="360.2422"/><text fill="#000000" font-family="sans-serif" font-size="11" lengthAdjust="spacingAndGlyphs" textLength="26" x="108" y="364.8796">class</text><line style="stroke: #A80036; stroke-width: 1.0; stroke-dasharray: 1.0,2.0;" x1="134" x2="234" y1="360.2422" y2="360.2422"/><line style="stroke: #A80036; stroke-width: 1.0; stroke-dasharray: 1.0,2.0;" x1="8" x2="102" y1="394.46" y2="394.46"/><text fill="#000000" font-family="sans-serif" font-size="11" lengthAdjust="spacingAndGlyphs" textLength="38" x="102" y="399.0974">member</text><line style="stroke: #A80036; stroke-width: 1.0; stroke-dasharray: 1.0,2.0;" x1="140" x2="234" y1="394.46" y2="394.46"/><text fill="#000000" font-family="sans-serif" font-size="11" lengthAdjust="spacingAndGlyphs" textLength="216" x="13" y="437.3696">classRelation.Instrument.play() (982757413);</text><line style="stroke: #A80036; stroke-width: 1.0; stroke-dasharray: 1.0,2.0;" x1="8" x2="103.5" y1="417.1233" y2="417.1233"/><text fill="#000000" font-family="sans-serif" font-size="11" lengthAdjust="spacingAndGlyphs" textLength="35" x="103.5" y="421.7607">method</text><line style="stroke: #A80036; stroke-width: 1.0; stroke-dasharray: 1.0,2.0;" x1="138.5" x2="234" y1="417.1233" y2="417.1233"/><!--MD5=[69d6c9a97c48d03285dde5b022e98060]
@startuml
class "Sound" as cl1{
Package classRelation
Lib false
HashCode : 966739377
ABS Score : 2
Relative Score : 1
__**<color:green>has list</color>**__
	<color:green>int volume (1)
....
	<color:green>new Sound(int) (1)
__**<color:blue>calling list</color>**__
..class..
..member..
..method..
__**<color:orange>called by list</color>**__
..class..
	classRelation.Instrument (762476028);
..member..
..method..
	 classRelation.Instrument.play() (982757413);
}

 package Functions{
class "Sound(int)" as f1199673596  #line:green
{
Static : false
return Type : new
hashCode : 1199673596
ABS Score : 1
Relative Score : 1
__**<color:green>has list</color>**__
..class..
..member..
	classRelation.Sound.Sound(int).volume (1240232440);
..method..
__**<color:blue>calling list</color>**__
..class..
..member..
..method..
__**<color:orange>called by list</color>**__
..class..
	classRelation.Instrument (762476028);
..member..
..method..
	 classRelation.Instrument.play() (982757413);
}
}

@enduml

PlantUML version 1.2020.19(Tue Oct 13 00:10:01 KST 2020)
(APACHE source distribution)
Java Runtime: Java(TM) SE Runtime Environment
JVM: Java HotSpot(TM) 64-Bit Server VM
Default Encoding: MS949
Language: ko
Country: KR
--></g></svg>