<?xml version="1.0" encoding="UTF-8" standalone="no"?><svg xmlns="http://www.w3.org/2000/svg" xmlns:xlink="http://www.w3.org/1999/xlink" contentScriptType="application/ecmascript" contentStyleType="text/css" height="478px" preserveAspectRatio="none" style="width:671px;height:478px;" version="1.1" viewBox="0 0 671 478" width="671px" zoomAndPan="magnify"><defs><filter height="300%" id="fedjy0uql7f4" width="300%" x="-1" y="-1"><feGaussianBlur result="blurOut" stdDeviation="2.0"/><feColorMatrix in="blurOut" result="blurOut2" type="matrix" values="0 0 0 0 0 0 0 0 0 0 0 0 0 0 0 0 0 0 .4 0"/><feOffset dx="4.0" dy="4.0" in="blurOut2" result="blurOut3"/><feBlend in="SourceGraphic" in2="blurOut3" mode="normal"/></filter></defs><g><!--MD5=[7c6608d7cf625e90131334e1ca091b1a]
cluster Functions--><polygon fill="#FFFFFF" filter="url(#fedjy0uql7f4)" points="370.5,6,446.5,6,453.5,31.2295,654.5,31.2295,654.5,471,370.5,471,370.5,6" style="stroke: #000000; stroke-width: 1.5;"/><line style="stroke: #000000; stroke-width: 1.5;" x1="370.5" x2="453.5" y1="31.2295" y2="31.2295"/><text fill="#000000" font-family="sans-serif" font-size="14" font-weight="bold" lengthAdjust="spacingAndGlyphs" textLength="70" x="374.5" y="24.1533">Functions</text><!--MD5=[27018abce3f41a66db275bb87dc8fe7b]
class f1666607455--><rect codeLine="24" fill="#FEFECE" filter="url(#fedjy0uql7f4)" height="410.6133" id="f1666607455" style="stroke: #008000; stroke-width: 1.5;" width="251" x="387" y="44"/><ellipse cx="487.75" cy="60" fill="#ADD1B2" rx="11" ry="11" style="stroke: #008000; stroke-width: 1.0;"/><path d="M487.5781,53.4844 Q485.7031,53.4844 484.5469,55.2344 Q483.3594,57.0156 483.3594,60.0156 Q483.3594,63.3906 484.5625,65.1563 Q485.625,66.7813 487.375,66.7813 Q489.0625,66.7813 490.0156,65.875 Q491.0781,64.8594 491.2188,62.625 Q491.2188,62.2031 490.9844,61.9688 Q490.7969,61.7344 490.4531,61.7031 Q490.125,61.7031 489.8906,61.8906 Q489.625,62.125 489.625,62.5156 Q489.5938,63.9063 489,64.6406 Q488.4688,65.3438 487.5156,65.3438 Q486.3594,65.3438 485.6406,63.9063 Q484.9219,62.4063 484.9219,59.9844 Q484.9219,57.4375 485.8125,56.0469 Q486.5625,54.9219 487.7031,54.9219 Q488.3594,54.9219 488.8594,55.4688 Q489.4219,56.0781 489.5469,57.1406 Q489.5938,57.8438 490.4219,57.7344 Q491.2031,57.625 491.1563,56.9375 Q490.9688,55.4219 490.2031,54.5469 Q489.2656,53.4844 487.5781,53.4844 Z "/><text fill="#000000" font-family="sans-serif" font-size="12" lengthAdjust="spacingAndGlyphs" textLength="41" x="508.25" y="65.6045">Guitar()</text><line style="stroke: #008000; stroke-width: 1.5;" x1="388" x2="637" y1="76" y2="76"/><text fill="#000000" font-family="sans-serif" font-size="11" lengthAdjust="spacingAndGlyphs" textLength="60" x="393" y="92.6919">Static : false</text><text fill="#000000" font-family="sans-serif" font-size="11" lengthAdjust="spacingAndGlyphs" textLength="87" x="393" y="107.8008">return Type : new</text><text fill="#000000" font-family="sans-serif" font-size="11" lengthAdjust="spacingAndGlyphs" textLength="118" x="393" y="122.9097">hashCode : 1666607455</text><text fill="#000000" font-family="sans-serif" font-size="11" lengthAdjust="spacingAndGlyphs" textLength="69" x="393" y="138.0186">ABS Score : 0</text><text fill="#000000" font-family="sans-serif" font-size="11" lengthAdjust="spacingAndGlyphs" textLength="85" x="393" y="153.1274">Relative Score : 0</text><line style="stroke: #008000; stroke-width: 1.5;" x1="388" x2="492.5" y1="167.0989" y2="167.0989"/><text fill="#008000" font-family="sans-serif" font-size="11" font-weight="bold" lengthAdjust="spacingAndGlyphs" textLength="40" x="492.5" y="171.7363">has list</text><line style="stroke: #008000; stroke-width: 1.5;" x1="532.5" x2="637" y1="167.0989" y2="167.0989"/><line style="stroke: #008000; stroke-width: 1.0; stroke-dasharray: 1.0,2.0;" x1="388" x2="499.5" y1="189.7622" y2="189.7622"/><text fill="#000000" font-family="sans-serif" font-size="11" lengthAdjust="spacingAndGlyphs" textLength="26" x="499.5" y="194.3997">class</text><line style="stroke: #008000; stroke-width: 1.0; stroke-dasharray: 1.0,2.0;" x1="525.5" x2="637" y1="189.7622" y2="189.7622"/><line style="stroke: #008000; stroke-width: 1.0; stroke-dasharray: 1.0,2.0;" x1="388" x2="493.5" y1="212.4255" y2="212.4255"/><text fill="#000000" font-family="sans-serif" font-size="11" lengthAdjust="spacingAndGlyphs" textLength="38" x="493.5" y="217.063">member</text><line style="stroke: #008000; stroke-width: 1.0; stroke-dasharray: 1.0,2.0;" x1="531.5" x2="637" y1="212.4255" y2="212.4255"/><line style="stroke: #008000; stroke-width: 1.0; stroke-dasharray: 1.0,2.0;" x1="388" x2="495" y1="235.0889" y2="235.0889"/><text fill="#000000" font-family="sans-serif" font-size="11" lengthAdjust="spacingAndGlyphs" textLength="35" x="495" y="239.7263">method</text><line style="stroke: #008000; stroke-width: 1.0; stroke-dasharray: 1.0,2.0;" x1="530" x2="637" y1="235.0889" y2="235.0889"/><line style="stroke: #008000; stroke-width: 1.5;" x1="388" x2="485" y1="257.7522" y2="257.7522"/><text fill="#0000FF" font-family="sans-serif" font-size="11" font-weight="bold" lengthAdjust="spacingAndGlyphs" textLength="55" x="485" y="262.3896">calling list</text><line style="stroke: #008000; stroke-width: 1.5;" x1="540" x2="637" y1="257.7522" y2="257.7522"/><line style="stroke: #008000; stroke-width: 1.0; stroke-dasharray: 1.0,2.0;" x1="388" x2="499.5" y1="280.4155" y2="280.4155"/><text fill="#000000" font-family="sans-serif" font-size="11" lengthAdjust="spacingAndGlyphs" textLength="26" x="499.5" y="285.053">class</text><line style="stroke: #008000; stroke-width: 1.0; stroke-dasharray: 1.0,2.0;" x1="525.5" x2="637" y1="280.4155" y2="280.4155"/><line style="stroke: #008000; stroke-width: 1.0; stroke-dasharray: 1.0,2.0;" x1="388" x2="493.5" y1="303.0789" y2="303.0789"/><text fill="#000000" font-family="sans-serif" font-size="11" lengthAdjust="spacingAndGlyphs" textLength="38" x="493.5" y="307.7163">member</text><line style="stroke: #008000; stroke-width: 1.0; stroke-dasharray: 1.0,2.0;" x1="531.5" x2="637" y1="303.0789" y2="303.0789"/><line style="stroke: #008000; stroke-width: 1.0; stroke-dasharray: 1.0,2.0;" x1="388" x2="495" y1="325.7422" y2="325.7422"/><text fill="#000000" font-family="sans-serif" font-size="11" lengthAdjust="spacingAndGlyphs" textLength="35" x="495" y="330.3796">method</text><line style="stroke: #008000; stroke-width: 1.0; stroke-dasharray: 1.0,2.0;" x1="530" x2="637" y1="325.7422" y2="325.7422"/><line style="stroke: #008000; stroke-width: 1.5;" x1="388" x2="478.5" y1="348.4055" y2="348.4055"/><text fill="#FFA500" font-family="sans-serif" font-size="11" font-weight="bold" lengthAdjust="spacingAndGlyphs" textLength="68" x="478.5" y="353.043">called by list</text><line style="stroke: #008000; stroke-width: 1.5;" x1="546.5" x2="637" y1="348.4055" y2="348.4055"/><text fill="#000000" font-family="sans-serif" font-size="11" lengthAdjust="spacingAndGlyphs" textLength="175" x="393" y="391.3152">classRelation.Guitarist (771775563);</text><line style="stroke: #008000; stroke-width: 1.0; stroke-dasharray: 1.0,2.0;" x1="388" x2="499.5" y1="371.0688" y2="371.0688"/><text fill="#000000" font-family="sans-serif" font-size="11" lengthAdjust="spacingAndGlyphs" textLength="26" x="499.5" y="375.7063">class</text><line style="stroke: #008000; stroke-width: 1.0; stroke-dasharray: 1.0,2.0;" x1="525.5" x2="637" y1="371.0688" y2="371.0688"/><line style="stroke: #008000; stroke-width: 1.0; stroke-dasharray: 1.0,2.0;" x1="388" x2="493.5" y1="405.2866" y2="405.2866"/><text fill="#000000" font-family="sans-serif" font-size="11" lengthAdjust="spacingAndGlyphs" textLength="38" x="493.5" y="409.9241">member</text><line style="stroke: #008000; stroke-width: 1.0; stroke-dasharray: 1.0,2.0;" x1="531.5" x2="637" y1="405.2866" y2="405.2866"/><text fill="#000000" font-family="sans-serif" font-size="11" lengthAdjust="spacingAndGlyphs" textLength="239" x="393" y="448.1963">classRelation.Guitarist.buyGuitar() (1610525991);</text><line style="stroke: #008000; stroke-width: 1.0; stroke-dasharray: 1.0,2.0;" x1="388" x2="495" y1="427.95" y2="427.95"/><text fill="#000000" font-family="sans-serif" font-size="11" lengthAdjust="spacingAndGlyphs" textLength="35" x="495" y="432.5874">method</text><line style="stroke: #008000; stroke-width: 1.0; stroke-dasharray: 1.0,2.0;" x1="530" x2="637" y1="427.95" y2="427.95"/><!--MD5=[f6064968006b102cb1b3092be2f53bd9]
class cl1--><rect codeLine="1" fill="#FEFECE" filter="url(#fedjy0uql7f4)" height="380.8411" id="cl1" style="stroke: #A80036; stroke-width: 1.5;" width="345" x="7" y="59"/><ellipse cx="158.75" cy="75" fill="#ADD1B2" rx="11" ry="11" style="stroke: #A80036; stroke-width: 1.0;"/><path d="M158.5781,68.4844 Q156.7031,68.4844 155.5469,70.2344 Q154.3594,72.0156 154.3594,75.0156 Q154.3594,78.3906 155.5625,80.1563 Q156.625,81.7813 158.375,81.7813 Q160.0625,81.7813 161.0156,80.875 Q162.0781,79.8594 162.2188,77.625 Q162.2188,77.2031 161.9844,76.9688 Q161.7969,76.7344 161.4531,76.7031 Q161.125,76.7031 160.8906,76.8906 Q160.625,77.125 160.625,77.5156 Q160.5938,78.9063 160,79.6406 Q159.4688,80.3438 158.5156,80.3438 Q157.3594,80.3438 156.6406,78.9063 Q155.9219,77.4063 155.9219,74.9844 Q155.9219,72.4375 156.8125,71.0469 Q157.5625,69.9219 158.7031,69.9219 Q159.3594,69.9219 159.8594,70.4688 Q160.4219,71.0781 160.5469,72.1406 Q160.5938,72.8438 161.4219,72.7344 Q162.2031,72.625 162.1563,71.9375 Q161.9688,70.4219 161.2031,69.5469 Q160.2656,68.4844 158.5781,68.4844 Z "/><text fill="#000000" font-family="sans-serif" font-size="12" lengthAdjust="spacingAndGlyphs" textLength="33" x="179.25" y="80.6045">Guitar</text><line style="stroke: #A80036; stroke-width: 1.5;" x1="8" x2="351" y1="91" y2="91"/><text fill="#000000" font-family="sans-serif" font-size="11" lengthAdjust="spacingAndGlyphs" textLength="108" x="13" y="107.6919">Package classRelation</text><text fill="#000000" font-family="sans-serif" font-size="11" lengthAdjust="spacingAndGlyphs" textLength="41" x="13" y="122.8008">Lib false</text><text fill="#000000" font-family="sans-serif" font-size="11" lengthAdjust="spacingAndGlyphs" textLength="119" x="13" y="137.9097">HashCode : 1766505436</text><text fill="#000000" font-family="sans-serif" font-size="11" lengthAdjust="spacingAndGlyphs" textLength="69" x="13" y="153.0186">ABS Score : 1</text><text fill="#000000" font-family="sans-serif" font-size="11" lengthAdjust="spacingAndGlyphs" textLength="85" x="13" y="168.1274">Relative Score : 1</text><line style="stroke: #A80036; stroke-width: 1.5;" x1="8" x2="159.5" y1="182.0989" y2="182.0989"/><text fill="#008000" font-family="sans-serif" font-size="11" font-weight="bold" lengthAdjust="spacingAndGlyphs" textLength="40" x="159.5" y="186.7363">has list</text><line style="stroke: #A80036; stroke-width: 1.5;" x1="199.5" x2="351" y1="182.0989" y2="182.0989"/><line style="stroke: #A80036; stroke-width: 1.0; stroke-dasharray: 1.0,2.0;" x1="8" x2="351" y1="197.2078" y2="197.2078"/><text fill="#008000" font-family="sans-serif" font-size="11" lengthAdjust="spacingAndGlyphs" textLength="79" x="13" y="213.8997">new Guitar() (0)</text><line style="stroke: #A80036; stroke-width: 1.5;" x1="8" x2="152" y1="227.8711" y2="227.8711"/><text fill="#0000FF" font-family="sans-serif" font-size="11" font-weight="bold" lengthAdjust="spacingAndGlyphs" textLength="55" x="152" y="232.5085">calling list</text><line style="stroke: #A80036; stroke-width: 1.5;" x1="207" x2="351" y1="227.8711" y2="227.8711"/><line style="stroke: #A80036; stroke-width: 1.0; stroke-dasharray: 1.0,2.0;" x1="8" x2="166.5" y1="250.5344" y2="250.5344"/><text fill="#000000" font-family="sans-serif" font-size="11" lengthAdjust="spacingAndGlyphs" textLength="26" x="166.5" y="255.1719">class</text><line style="stroke: #A80036; stroke-width: 1.0; stroke-dasharray: 1.0,2.0;" x1="192.5" x2="351" y1="250.5344" y2="250.5344"/><line style="stroke: #A80036; stroke-width: 1.0; stroke-dasharray: 1.0,2.0;" x1="8" x2="160.5" y1="273.1978" y2="273.1978"/><text fill="#000000" font-family="sans-serif" font-size="11" lengthAdjust="spacingAndGlyphs" textLength="38" x="160.5" y="277.8352">member</text><line style="stroke: #A80036; stroke-width: 1.0; stroke-dasharray: 1.0,2.0;" x1="198.5" x2="351" y1="273.1978" y2="273.1978"/><line style="stroke: #A80036; stroke-width: 1.0; stroke-dasharray: 1.0,2.0;" x1="8" x2="162" y1="295.8611" y2="295.8611"/><text fill="#000000" font-family="sans-serif" font-size="11" lengthAdjust="spacingAndGlyphs" textLength="35" x="162" y="300.4985">method</text><line style="stroke: #A80036; stroke-width: 1.0; stroke-dasharray: 1.0,2.0;" x1="197" x2="351" y1="295.8611" y2="295.8611"/><line style="stroke: #A80036; stroke-width: 1.5;" x1="8" x2="145.5" y1="318.5244" y2="318.5244"/><text fill="#FFA500" font-family="sans-serif" font-size="11" font-weight="bold" lengthAdjust="spacingAndGlyphs" textLength="68" x="145.5" y="323.1619">called by list</text><line style="stroke: #A80036; stroke-width: 1.5;" x1="213.5" x2="351" y1="318.5244" y2="318.5244"/><text fill="#000000" font-family="sans-serif" font-size="11" lengthAdjust="spacingAndGlyphs" textLength="175" x="13" y="361.4341">classRelation.Guitarist (771775563);</text><line style="stroke: #A80036; stroke-width: 1.0; stroke-dasharray: 1.0,2.0;" x1="8" x2="166.5" y1="341.1877" y2="341.1877"/><text fill="#000000" font-family="sans-serif" font-size="11" lengthAdjust="spacingAndGlyphs" textLength="26" x="166.5" y="345.8252">class</text><line style="stroke: #A80036; stroke-width: 1.0; stroke-dasharray: 1.0,2.0;" x1="192.5" x2="351" y1="341.1877" y2="341.1877"/><line style="stroke: #A80036; stroke-width: 1.0; stroke-dasharray: 1.0,2.0;" x1="8" x2="160.5" y1="375.4055" y2="375.4055"/><text fill="#000000" font-family="sans-serif" font-size="11" lengthAdjust="spacingAndGlyphs" textLength="38" x="160.5" y="380.043">member</text><line style="stroke: #A80036; stroke-width: 1.0; stroke-dasharray: 1.0,2.0;" x1="198.5" x2="351" y1="375.4055" y2="375.4055"/><text fill="#000000" font-family="sans-serif" font-size="11" lengthAdjust="spacingAndGlyphs" textLength="333" x="13" y="418.3152">classRelation.Guitarist.playSong(classRelation.Guitar) (1164440413);</text><text fill="#000000" font-family="sans-serif" font-size="11" lengthAdjust="spacingAndGlyphs" textLength="239" x="13" y="433.4241">classRelation.Guitarist.buyGuitar() (1610525991);</text><line style="stroke: #A80036; stroke-width: 1.0; stroke-dasharray: 1.0,2.0;" x1="8" x2="162" y1="398.0688" y2="398.0688"/><text fill="#000000" font-family="sans-serif" font-size="11" lengthAdjust="spacingAndGlyphs" textLength="35" x="162" y="402.7063">method</text><line style="stroke: #A80036; stroke-width: 1.0; stroke-dasharray: 1.0,2.0;" x1="197" x2="351" y1="398.0688" y2="398.0688"/><!--MD5=[8106a55650ce06d40f2eb211c7f21ee6]
@startuml
class "Guitar" as cl1{
Package classRelation
Lib false
HashCode : 1766505436
ABS Score : 1
Relative Score : 1
__**<color:green>has list</color>**__
....
	<color:green>new Guitar() (0)
__**<color:blue>calling list</color>**__
..class..
..member..
..method..
__**<color:orange>called by list</color>**__
..class..
	classRelation.Guitarist (771775563);
..member..
..method..
	 classRelation.Guitarist.playSong(classRelation.Guitar) (1164440413);
	 classRelation.Guitarist.buyGuitar() (1610525991);
}

 package Functions{
class "Guitar()" as f1666607455  #line:green
{
Static : false
return Type : new
hashCode : 1666607455
ABS Score : 0
Relative Score : 0
__**<color:green>has list</color>**__
..class..
..member..
..method..
__**<color:blue>calling list</color>**__
..class..
..member..
..method..
__**<color:orange>called by list</color>**__
..class..
	classRelation.Guitarist (771775563);
..member..
..method..
	 classRelation.Guitarist.buyGuitar() (1610525991);
}
}

@enduml

PlantUML version 1.2020.19(Tue Oct 13 00:10:01 KST 2020)
(APACHE source distribution)
Java Runtime: Java(TM) SE Runtime Environment
JVM: Java HotSpot(TM) 64-Bit Server VM
Default Encoding: MS949
Language: ko
Country: KR
--></g></svg>