<?xml version="1.0" encoding="UTF-8" standalone="no"?><svg xmlns="http://www.w3.org/2000/svg" xmlns:xlink="http://www.w3.org/1999/xlink" contentScriptType="application/ecmascript" contentStyleType="text/css" height="1037px" preserveAspectRatio="none" style="width:439px;height:1037px;" version="1.1" viewBox="0 0 439 1037" width="439px" zoomAndPan="magnify"><defs><filter height="300%" id="fyuera8taz9wt" width="300%" x="-1" y="-1"><feGaussianBlur result="blurOut" stdDeviation="2.0"/><feColorMatrix in="blurOut" result="blurOut2" type="matrix" values="0 0 0 0 0 0 0 0 0 0 0 0 0 0 0 0 0 0 .4 0"/><feOffset dx="4.0" dy="4.0" in="blurOut2" result="blurOut3"/><feBlend in="SourceGraphic" in2="blurOut3" mode="normal"/></filter></defs><g><!--MD5=[a613d28d66ac88caaf3df7792fc429ff]
cluster ForStateNode--><rect fill="#FFFFFF" filter="url(#fyuera8taz9wt)" height="360" style="stroke: #000000; stroke-width: 1.5;" width="164" x="138" y="7"/><text fill="#000000" font-family="sans-serif" font-size="14" font-weight="bold" lengthAdjust="spacingAndGlyphs" textLength="97" x="171.5" y="25.1533">ForStateNode</text><!--MD5=[ff834bb304bccc409df8506290c459be]
cluster getForLine--><rect fill="#FFFFFF" filter="url(#fyuera8taz9wt)" height="360" style="stroke: #000000; stroke-width: 1.5;" width="151" x="144.5" y="391"/><text fill="#000000" font-family="sans-serif" font-size="14" font-weight="bold" lengthAdjust="spacingAndGlyphs" textLength="77" x="181.5" y="409.1533">getForLine</text><!--MD5=[80db4ded4fe429148ada482795995850]
cluster getLastFin--><rect fill="#FFFFFF" filter="url(#fyuera8taz9wt)" height="222" style="stroke: #000000; stroke-width: 1.5;" width="113" x="163.5" y="775"/><text fill="#000000" font-family="sans-serif" font-size="14" font-weight="bold" lengthAdjust="spacingAndGlyphs" textLength="74" x="183" y="793.1533">getLastFin</text><ellipse cx="220.1335" cy="198.0973" fill="#FEFECE" filter="url(#fyuera8taz9wt)" rx="46.1335" ry="16.5973" style="stroke: #A80036; stroke-width: 1.5;"/><text fill="#000000" font-family="sans-serif" font-size="14" lengthAdjust="spacingAndGlyphs" textLength="61" x="189.6335" y="204.2121">initializers</text><ellipse cx="220.1482" cy="266.0973" fill="#FEFECE" filter="url(#fyuera8taz9wt)" rx="37.6482" ry="16.5973" style="stroke: #A80036; stroke-width: 1.5;"/><text fill="#000000" font-family="sans-serif" font-size="14" lengthAdjust="spacingAndGlyphs" textLength="49" x="195.6482" y="272.2121">toString</text><ellipse cx="219.9325" cy="62.0973" fill="#FEFECE" filter="url(#fyuera8taz9wt)" rx="65.9325" ry="16.5973" style="stroke: #A80036; stroke-width: 1.5;"/><text fill="#000000" font-family="sans-serif" font-size="14" lengthAdjust="spacingAndGlyphs" textLength="89" x="175.4325" y="68.2121">getExpression</text><ellipse cx="219.9975" cy="334.0973" fill="#FEFECE" filter="url(#fyuera8taz9wt)" rx="52.4975" ry="16.5973" style="stroke: #A80036; stroke-width: 1.5;"/><text fill="#000000" font-family="sans-serif" font-size="14" lengthAdjust="spacingAndGlyphs" textLength="70" x="184.9975" y="340.2121">getStmtList</text><ellipse cx="219.7696" cy="130.0973" fill="#FEFECE" filter="url(#fyuera8taz9wt)" rx="39.7696" ry="16.5973" style="stroke: #A80036; stroke-width: 1.5;"/><text fill="#000000" font-family="sans-serif" font-size="14" lengthAdjust="spacingAndGlyphs" textLength="52" x="193.7696" y="136.2121">getBody</text><ellipse cx="219.9411" cy="514.0973" fill="#FEFECE" filter="url(#fyuera8taz9wt)" rx="36.9411" ry="16.5973" style="stroke: #A80036; stroke-width: 1.5;"/><text fill="#000000" font-family="sans-serif" font-size="14" lengthAdjust="spacingAndGlyphs" textLength="48" x="195.9411" y="520.2121">append</text><ellipse cx="220.1482" cy="582.0973" fill="#FEFECE" filter="url(#fyuera8taz9wt)" rx="37.6482" ry="16.5973" style="stroke: #A80036; stroke-width: 1.5;"/><text fill="#000000" font-family="sans-serif" font-size="14" lengthAdjust="spacingAndGlyphs" textLength="49" x="195.6482" y="588.2121">toString</text><ellipse cx="220.0685" cy="650.0973" fill="#FEFECE" filter="url(#fyuera8taz9wt)" rx="59.5685" ry="16.5973" style="stroke: #A80036; stroke-width: 1.5;"/><text fill="#000000" font-family="sans-serif" font-size="14" lengthAdjust="spacingAndGlyphs" textLength="80" x="180.0685" y="656.2121">getCondition</text><ellipse cx="220.1838" cy="718.0973" fill="#FEFECE" filter="url(#fyuera8taz9wt)" rx="41.1838" ry="16.5973" style="stroke: #A80036; stroke-width: 1.5;"/><text fill="#000000" font-family="sans-serif" font-size="14" lengthAdjust="spacingAndGlyphs" textLength="54" x="193.1838" y="724.2121">getCode</text><ellipse cx="220.1482" cy="446.0973" fill="#FEFECE" filter="url(#fyuera8taz9wt)" rx="37.6482" ry="16.5973" style="stroke: #A80036; stroke-width: 1.5;"/><text fill="#000000" font-family="sans-serif" font-size="14" lengthAdjust="spacingAndGlyphs" textLength="49" x="195.6482" y="452.2121">toString</text><ellipse cx="220.1347" cy="897.0077" fill="#FEFECE" filter="url(#fyuera8taz9wt)" rx="18.6347" ry="15.5077" style="stroke: #A80036; stroke-width: 1.5;"/><text fill="#000000" font-family="sans-serif" font-size="14" lengthAdjust="spacingAndGlyphs" textLength="20" x="210.1347" y="903.1225">get</text><ellipse cx="220.0772" cy="964.0973" fill="#FEFECE" filter="url(#fyuera8taz9wt)" rx="30.5772" ry="16.5973" style="stroke: #A80036; stroke-width: 1.5;"/><text fill="#000000" font-family="sans-serif" font-size="14" lengthAdjust="spacingAndGlyphs" textLength="39" x="200.5772" y="970.2121">println</text><ellipse cx="219.9767" cy="830.0973" fill="#FEFECE" filter="url(#fyuera8taz9wt)" rx="40.4767" ry="16.5973" style="stroke: #A80036; stroke-width: 1.5;"/><text fill="#000000" font-family="sans-serif" font-size="14" lengthAdjust="spacingAndGlyphs" textLength="53" x="193.4767" y="836.2121">getThen</text><!--MD5=[f1a8f611376771cb298eb5e9b0387476]
entity actor1842002393--><ellipse cx="50" cy="481.5" fill="#FEFECE" filter="url(#fyuera8taz9wt)" rx="8" ry="8" style="stroke: #A80036; stroke-width: 1.5;"/><path d="M50,489.5 L50,516.5 M37,497.5 L63,497.5 M50,516.5 L37,531.5 M50,516.5 L63,531.5 " fill="none" filter="url(#fyuera8taz9wt)" style="stroke: #A80036; stroke-width: 1.5;"/><text fill="#000000" font-family="sans-serif" font-size="14" lengthAdjust="spacingAndGlyphs" textLength="88" x="6" y="553.1533">ForStateNode</text><!--MD5=[4e04173ccb8f7d01291311f1d092910b]
entity actor541330540--><ellipse cx="389" cy="82.5" fill="#FEFECE" filter="url(#fyuera8taz9wt)" rx="8" ry="8" style="stroke: #A80036; stroke-width: 1.5;"/><path d="M389,90.5 L389,117.5 M376,98.5 L402,98.5 M389,117.5 L376,132.5 M389,117.5 L402,132.5 " fill="none" filter="url(#fyuera8taz9wt)" style="stroke: #A80036; stroke-width: 1.5;"/><text fill="#000000" font-family="sans-serif" font-size="14" lengthAdjust="spacingAndGlyphs" textLength="86" x="346" y="154.1533">ForStatement</text><!--MD5=[1e0fd7e2dc12f210d3de43f7e62dec28]
entity actor954742840--><ellipse cx="389" cy="320.5" fill="#FEFECE" filter="url(#fyuera8taz9wt)" rx="8" ry="8" style="stroke: #A80036; stroke-width: 1.5;"/><path d="M389,328.5 L389,355.5 M376,336.5 L402,336.5 M389,355.5 L376,370.5 M389,355.5 L402,370.5 " fill="none" filter="url(#fyuera8taz9wt)" style="stroke: #A80036; stroke-width: 1.5;"/><text fill="#000000" font-family="sans-serif" font-size="14" lengthAdjust="spacingAndGlyphs" textLength="75" x="351.5" y="392.1533">Test_Visitor</text><!--MD5=[d662c9801ba3f19d92dfc5fccd2609aa]
entity actor1186127045--><ellipse cx="389" cy="201.5" fill="#FEFECE" filter="url(#fyuera8taz9wt)" rx="8" ry="8" style="stroke: #A80036; stroke-width: 1.5;"/><path d="M389,209.5 L389,236.5 M376,217.5 L402,217.5 M389,236.5 L376,251.5 M389,236.5 L402,251.5 " fill="none" filter="url(#fyuera8taz9wt)" style="stroke: #A80036; stroke-width: 1.5;"/><text fill="#000000" font-family="sans-serif" font-size="14" lengthAdjust="spacingAndGlyphs" textLength="60" x="359" y="273.1533">ASTNode</text><!--MD5=[864f7e280385d8f93481e354d7c7de74]
entity actor230610941--><ellipse cx="389" cy="439.5" fill="#FEFECE" filter="url(#fyuera8taz9wt)" rx="8" ry="8" style="stroke: #A80036; stroke-width: 1.5;"/><path d="M389,447.5 L389,474.5 M376,455.5 L402,455.5 M389,474.5 L376,489.5 M389,474.5 L402,489.5 " fill="none" filter="url(#fyuera8taz9wt)" style="stroke: #A80036; stroke-width: 1.5;"/><text fill="#000000" font-family="sans-serif" font-size="14" lengthAdjust="spacingAndGlyphs" textLength="81" x="348.5" y="511.1533">StringBuilder</text><!--MD5=[64208daa1efe28eb808b4a514c88cab4]
entity actor287056540--><ellipse cx="389" cy="685.5" fill="#FEFECE" filter="url(#fyuera8taz9wt)" rx="8" ry="8" style="stroke: #A80036; stroke-width: 1.5;"/><path d="M389,693.5 L389,720.5 M376,701.5 L402,701.5 M389,720.5 L376,735.5 M389,720.5 L402,735.5 " fill="none" filter="url(#fyuera8taz9wt)" style="stroke: #A80036; stroke-width: 1.5;"/><text fill="#000000" font-family="sans-serif" font-size="14" lengthAdjust="spacingAndGlyphs" textLength="66" x="356" y="757.1533">StateNode</text><!--MD5=[1b0a8d7d6350f093fbe067e58d58d9ee]
entity actor69115782--><ellipse cx="389" cy="558.5" fill="#FEFECE" filter="url(#fyuera8taz9wt)" rx="8" ry="8" style="stroke: #A80036; stroke-width: 1.5;"/><path d="M389,566.5 L389,593.5 M376,574.5 L402,574.5 M389,593.5 L376,608.5 M389,593.5 L402,608.5 " fill="none" filter="url(#fyuera8taz9wt)" style="stroke: #A80036; stroke-width: 1.5;"/><text fill="#000000" font-family="sans-serif" font-size="14" lengthAdjust="spacingAndGlyphs" textLength="41" x="368.5" y="630.1533">Object</text><!--MD5=[2699aedbcd2b1f3b132d3903ac9b60ef]
entity actor652803980--><ellipse cx="389" cy="957.5" fill="#FEFECE" filter="url(#fyuera8taz9wt)" rx="8" ry="8" style="stroke: #A80036; stroke-width: 1.5;"/><path d="M389,965.5 L389,992.5 M376,973.5 L402,973.5 M389,992.5 L376,1007.5 M389,992.5 L402,1007.5 " fill="none" filter="url(#fyuera8taz9wt)" style="stroke: #A80036; stroke-width: 1.5;"/><text fill="#000000" font-family="sans-serif" font-size="14" lengthAdjust="spacingAndGlyphs" textLength="74" x="352" y="1029.1533">PrintStream</text><!--MD5=[355f04e5136e09d547304b951fcecad1]
entity actor170611939--><ellipse cx="389" cy="838.5" fill="#FEFECE" filter="url(#fyuera8taz9wt)" rx="8" ry="8" style="stroke: #A80036; stroke-width: 1.5;"/><path d="M389,846.5 L389,873.5 M376,854.5 L402,854.5 M389,873.5 L376,888.5 M389,873.5 L402,888.5 " fill="none" filter="url(#fyuera8taz9wt)" style="stroke: #A80036; stroke-width: 1.5;"/><text fill="#000000" font-family="sans-serif" font-size="14" lengthAdjust="spacingAndGlyphs" textLength="56" x="361" y="910.1533">ArrayList</text><!--MD5=[b6503dac9414cf3a2abe0eff7a2a83d9]
link actor1842002393 to UC1048928512--><path d="M51.46,471.82 C54.36,411.25 68.41,299.52 130,232 C142.48,218.31 161.08,210.09 178.05,205.18 " fill="none" id="actor1842002393-UC1048928512" style="stroke: #A80036; stroke-width: 1.0;"/><!--MD5=[a654eaba97336984f7c8dc5e62c2f81e]
link actor1842002393 to UC1492276401--><path d="M56.07,471.87 C63.93,424.23 83.36,347.17 130,300 C144.65,285.18 166.44,276.71 184.79,271.93 " fill="none" id="actor1842002393-UC1492276401" style="stroke: #A80036; stroke-width: 1.0;"/><!--MD5=[b392861d875c996aba88ca13f50cf961]
link actor1842002393 to UC1855589354--><path d="M53.81,471.94 C60.9,377.59 82.45,152.87 130,96 C139.55,84.58 153.38,76.99 167.31,71.94 " fill="none" id="actor1842002393-UC1855589354" style="stroke: #A80036; stroke-width: 1.0;"/><!--MD5=[30b5d83afdeca633a28329ec14345687]
link actor1842002393 to UC687608114--><path d="M81.29,471.82 C95.36,453.16 112.77,431.33 130,413 C152.35,389.21 181.02,364.69 199.69,349.41 " fill="none" id="actor1842002393-UC687608114" style="stroke: #A80036; stroke-width: 1.0;"/><!--MD5=[b5389f773685014dfeb2566318e3b9d2]
link actor1842002393 to UC895280806--><path d="M55.51,471.99 C65.15,389.41 90.18,209.96 130,164 C143.21,148.75 164.05,140.31 182.23,135.66 " fill="none" id="actor1842002393-UC895280806" style="stroke: #A80036; stroke-width: 1.0;"/><!--MD5=[2d3b6adb2aed1c2f33318eac86cb09e2]
link UC895280806 to actor541330540--><path d="M259.31,126.56 C285.12,124.24 319.17,121.18 345.76,118.79 " fill="none" id="UC895280806-actor541330540" style="stroke: #A80036; stroke-width: 1.0;"/><!--MD5=[55c8680d72658afafbf2c9483feb74aa]
link UC687608114 to actor954742840--><path d="M269.75,339.55 C295.84,342.52 327.44,346.11 351.41,348.84 " fill="none" id="UC687608114-actor954742840" style="stroke: #A80036; stroke-width: 1.0;"/><!--MD5=[8ba26a4018cb1dccc3bb27509a97ca0d]
link UC1855589354 to actor541330540--><path d="M261.85,74.97 C287.35,83.06 320.09,93.45 345.83,101.62 " fill="none" id="UC1855589354-actor541330540" style="stroke: #A80036; stroke-width: 1.0;"/><!--MD5=[ea74cdb42f32bf4acff74727a512434a]
link UC1492276401 to actor1186127045--><path d="M254.79,259.52 C285.39,253.66 329.98,245.12 358.99,239.56 " fill="none" id="UC1492276401-actor1186127045" style="stroke: #A80036; stroke-width: 1.0;"/><!--MD5=[8318c20205aafdad86918c767f619ea8]
link UC1048928512 to actor541330540--><path d="M254.63,186.91 C271.57,180.89 292.24,172.86 310,164 C322.02,158 334.55,150.66 345.96,143.51 " fill="none" id="UC1048928512-actor541330540" style="stroke: #A80036; stroke-width: 1.0;"/><!--MD5=[893c6d6d2e27e8a60daf80ac97e891c8]
link actor1842002393 to UC1510333744--><path d="M94.26,514 C121.78,514 156.98,514 182.97,514 " fill="none" id="actor1842002393-UC1510333744" style="stroke: #A80036; stroke-width: 1.0;"/><!--MD5=[7c728ce5250bd039d6945b01233e1d35]
link actor1842002393 to UC507479765--><path d="M94.33,533.03 C105.88,538 118.38,543.28 130,548 C150.23,556.21 173.26,565 190.82,571.58 " fill="none" id="actor1842002393-UC507479765" style="stroke: #A80036; stroke-width: 1.0;"/><!--MD5=[1b7c5614123661be11f68a0ebf4cf02f]
link actor1842002393 to UC1443000737--><path d="M75.92,556.21 C89.71,576.57 108.41,599.98 130,616 C143.55,626.05 160.43,633.49 175.84,638.81 " fill="none" id="actor1842002393-UC1443000737" style="stroke: #A80036; stroke-width: 1.0;"/><!--MD5=[6750b2f3da66e90af77130a68affe7ee]
link actor1842002393 to UC79283217--><path d="M60.85,556.07 C71.79,594.18 92.98,649.49 130,684 C144.52,697.53 164.98,705.85 182.63,710.87 " fill="none" id="actor1842002393-UC79283217" style="stroke: #A80036; stroke-width: 1.0;"/><!--MD5=[13d4c5ccc1cb8f843a3fec0ad6cdcc46]
link actor1842002393 to UC458385820--><path d="M94.33,494.97 C105.88,490 118.38,484.72 130,480 C150.23,471.79 173.26,463 190.82,456.42 " fill="none" id="actor1842002393-UC458385820" style="stroke: #A80036; stroke-width: 1.0;"/><!--MD5=[fe24e3c77f07c716b55f92ec959cee7d]
link UC458385820 to actor230610941--><path d="M255.6,451.39 C282.64,455.6 320.24,461.45 348.46,465.84 " fill="none" id="UC458385820-actor230610941" style="stroke: #A80036; stroke-width: 1.0;"/><!--MD5=[903409a954501c92dae701b160443c1f]
link UC79283217 to actor287056540--><path d="M261,718 C290.05,718 328.83,718 355.87,718 " fill="none" id="UC79283217-actor287056540" style="stroke: #A80036; stroke-width: 1.0;"/><!--MD5=[b550cda3a7adec9f69a0b66a4ddfe988]
link UC1443000737 to actor287056540--><path d="M256.66,663.19 C272.99,669.34 292.55,676.87 310,684 C325.18,690.2 341.86,697.42 355.88,703.6 " fill="none" id="UC1443000737-actor287056540" style="stroke: #A80036; stroke-width: 1.0;"/><!--MD5=[8b98df03c71a4130857ebed6a5ebe5e2]
link UC507479765 to actor69115782--><path d="M257.24,583.95 C291.39,585.79 341.27,588.48 368.49,589.95 " fill="none" id="UC507479765-actor69115782" style="stroke: #A80036; stroke-width: 1.0;"/><!--MD5=[3ca10d0588a2cb08aa576378b8daa12c]
link UC1510333744 to actor230610941--><path d="M252.8,506 C279.96,499.17 319.16,489.31 348.36,481.97 " fill="none" id="UC1510333744-actor230610941" style="stroke: #A80036; stroke-width: 1.0;"/><!--MD5=[a1d5accd944f40505a88511643ac5b70]
link actor1842002393 to UC1727379710--><path d="M55.47,556.04 C65.04,638.68 89.95,818.23 130,864 C148.34,884.96 181.25,892.63 201.5,895.42 " fill="none" id="actor1842002393-UC1727379710" style="stroke: #A80036; stroke-width: 1.0;"/><!--MD5=[dd7e0dbfa0eb7f2bea5b9823866d2648]
link actor1842002393 to UC115297013--><path d="M53.86,556.21 C61.03,650.32 82.71,873.48 130,930 C144.86,947.76 170.09,956.26 189.89,960.32 " fill="none" id="actor1842002393-UC115297013" style="stroke: #A80036; stroke-width: 1.0;"/><!--MD5=[a59aae0eda3ac1fb37c3bb92ab95eb0a]
link actor1842002393 to UC591352568--><path d="M58.18,556.31 C68.13,606.13 89.63,689.82 130,751 C147.98,778.25 177.67,801.95 197.76,816.11 " fill="none" id="actor1842002393-UC591352568" style="stroke: #A80036; stroke-width: 1.0;"/><!--MD5=[c58c795e44d5bc3730a2f3ef52747a71]
link UC591352568 to actor287056540--><path d="M241.81,816.04 C270.4,796.87 322.1,762.19 355.73,739.64 " fill="none" id="UC591352568-actor287056540" style="stroke: #A80036; stroke-width: 1.0;"/><!--MD5=[506482d4508c62cd36a898b620d47403]
link UC115297013 to actor652803980--><path d="M249.71,968.47 C277.97,972.87 321.21,979.6 351.81,984.37 " fill="none" id="UC115297013-actor652803980" style="stroke: #A80036; stroke-width: 1.0;"/><!--MD5=[487b03aaf58ea3aafe5bcb58c85a034c]
link UC1727379710 to actor170611939--><path d="M238.24,894.32 C267.33,889.79 326.34,880.6 360.97,875.21 " fill="none" id="UC1727379710-actor170611939" style="stroke: #A80036; stroke-width: 1.0;"/><!--MD5=[86c482c43f86c1e1471667b075005221]
@startuml
 left to right direction

actor ForStateNode as actor1842002393

	rectangle ForStateNode{
	 usecase initializers as UC1048928512
	actor1842002393- -UC1048928512
	 usecase toString as UC1492276401
	actor1842002393- -UC1492276401
	 usecase getExpression as UC1855589354
	actor1842002393- -UC1855589354
	 usecase getStmtList as UC687608114
	actor1842002393- -UC687608114
	 usecase getBody as UC895280806
	actor1842002393- -UC895280806
	}
	actor ForStatement as actor541330540
	 UC895280806 - - actor541330540
	actor Test_Visitor as actor954742840
	 UC687608114 - - actor954742840
	actor ForStatement as actor541330540
	 UC1855589354 - - actor541330540
	actor ASTNode as actor1186127045
	 UC1492276401 - - actor1186127045
	actor ForStatement as actor541330540
	 UC1048928512 - - actor541330540
	rectangle getForLine{
	 usecase append as UC1510333744
	actor1842002393- -UC1510333744
	 usecase toString as UC507479765
	actor1842002393- -UC507479765
	 usecase getCondition as UC1443000737
	actor1842002393- -UC1443000737
	 usecase getCode as UC79283217
	actor1842002393- -UC79283217
	 usecase toString as UC458385820
	actor1842002393- -UC458385820
	}
	actor StringBuilder as actor230610941
	 UC458385820 - - actor230610941
	actor StateNode as actor287056540
	 UC79283217 - - actor287056540
	actor StateNode as actor287056540
	 UC1443000737 - - actor287056540
	actor Object as actor69115782
	 UC507479765 - - actor69115782
	actor StringBuilder as actor230610941
	 UC1510333744 - - actor230610941
	rectangle getLastFin{
	 usecase get as UC1727379710
	actor1842002393- -UC1727379710
	 usecase println as UC115297013
	actor1842002393- -UC115297013
	 usecase getThen as UC591352568
	actor1842002393- -UC591352568
	}
	actor StateNode as actor287056540
	 UC591352568 - - actor287056540
	actor PrintStream as actor652803980
	 UC115297013 - - actor652803980
	actor ArrayList as actor170611939
	 UC1727379710 - - actor170611939

@enduml

PlantUML version 1.2020.19(Tue Oct 13 00:10:01 KST 2020)
(APACHE source distribution)
Java Runtime: Java(TM) SE Runtime Environment
JVM: Java HotSpot(TM) 64-Bit Server VM
Default Encoding: MS949
Language: ko
Country: KR
--></g></svg>