<?xml version="1.0" encoding="UTF-8" standalone="no"?><svg xmlns="http://www.w3.org/2000/svg" xmlns:xlink="http://www.w3.org/1999/xlink" contentScriptType="application/ecmascript" contentStyleType="text/css" height="671px" preserveAspectRatio="none" style="width:410px;height:671px;" version="1.1" viewBox="0 0 410 671" width="410px" zoomAndPan="magnify"><defs><filter height="300%" id="f18wlydcfcfxbc" width="300%" x="-1" y="-1"><feGaussianBlur result="blurOut" stdDeviation="2.0"/><feColorMatrix in="blurOut" result="blurOut2" type="matrix" values="0 0 0 0 0 0 0 0 0 0 0 0 0 0 0 0 0 0 .4 0"/><feOffset dx="4.0" dy="4.0" in="blurOut2" result="blurOut3"/><feBlend in="SourceGraphic" in2="blurOut3" mode="normal"/></filter></defs><g><!--MD5=[3fd23fd997070011d1cb4974b5e1f645]
cluster Function--><rect fill="#FFFFFF" filter="url(#f18wlydcfcfxbc)" height="88" style="stroke: #000000; stroke-width: 1.5;" width="106" x="144.5" y="7"/><text fill="#000000" font-family="sans-serif" font-size="14" font-weight="bold" lengthAdjust="spacingAndGlyphs" textLength="62" x="166.5" y="25.1533">Function</text><!--MD5=[a1eef7bbc55d6e115a3736b1cb383f24]
cluster getSrcName--><rect fill="#FFFFFF" filter="url(#f18wlydcfcfxbc)" height="88" style="stroke: #000000; stroke-width: 1.5;" width="147" x="124" y="119"/><text fill="#000000" font-family="sans-serif" font-size="14" font-weight="bold" lengthAdjust="spacingAndGlyphs" textLength="85" x="155" y="137.1533">getSrcName</text><!--MD5=[c34a5b0034f574704b03ebcea5fc6794]
cluster getPackageName--><rect fill="#FFFFFF" filter="url(#f18wlydcfcfxbc)" height="90" style="stroke: #000000; stroke-width: 1.5;" width="185" x="105" y="231"/><text fill="#000000" font-family="sans-serif" font-size="14" font-weight="bold" lengthAdjust="spacingAndGlyphs" textLength="121" x="137" y="249.1533">getPackageName</text><!--MD5=[3df72e327fda6a9c75e1d3c13478bbff]
cluster addHas--><rect fill="#FFFFFF" filter="url(#f18wlydcfcfxbc)" height="88" style="stroke: #000000; stroke-width: 1.5;" width="114" x="140.5" y="569"/><text fill="#000000" font-family="sans-serif" font-size="14" font-weight="bold" lengthAdjust="spacingAndGlyphs" textLength="52" x="171.5" y="587.1533">addHas</text><!--MD5=[89e6df34a40fd0f881e4a85c208f9fb2]
cluster addCallBy--><rect fill="#FFFFFF" filter="url(#f18wlydcfcfxbc)" height="88" style="stroke: #000000; stroke-width: 1.5;" width="129" x="133" y="345"/><text fill="#000000" font-family="sans-serif" font-size="14" font-weight="bold" lengthAdjust="spacingAndGlyphs" textLength="69" x="163" y="363.1533">addCallBy</text><!--MD5=[e72b28ea75be9a6e9901756f23061282]
cluster addCall--><rect fill="#FFFFFF" filter="url(#f18wlydcfcfxbc)" height="88" style="stroke: #000000; stroke-width: 1.5;" width="106" x="144.5" y="457"/><text fill="#000000" font-family="sans-serif" font-size="14" font-weight="bold" lengthAdjust="spacingAndGlyphs" textLength="52" x="171.5" y="475.1533">addCall</text><ellipse cx="197.4411" cy="62.0973" fill="#FEFECE" filter="url(#f18wlydcfcfxbc)" rx="36.9411" ry="16.5973" style="stroke: #A80036; stroke-width: 1.5;"/><text fill="#000000" font-family="sans-serif" font-size="14" lengthAdjust="spacingAndGlyphs" textLength="48" x="173.4411" y="68.2121">addHas</text><ellipse cx="197.4472" cy="174.0973" fill="#FEFECE" filter="url(#f18wlydcfcfxbc)" rx="57.4472" ry="16.5973" style="stroke: #A80036; stroke-width: 1.5;"/><text fill="#000000" font-family="sans-serif" font-size="14" lengthAdjust="spacingAndGlyphs" textLength="77" x="158.9472" y="180.2121">getSrcName</text><ellipse cx="197.4257" cy="287.1851" fill="#FEFECE" filter="url(#f18wlydcfcfxbc)" rx="76.4257" ry="17.6851" style="stroke: #A80036; stroke-width: 1.5;"/><text fill="#000000" font-family="sans-serif" font-size="14" lengthAdjust="spacingAndGlyphs" textLength="111" x="141.9257" y="293.2999">getPackageName</text><ellipse cx="197.6838" cy="624.0973" fill="#FEFECE" filter="url(#f18wlydcfcfxbc)" rx="41.1838" ry="16.5973" style="stroke: #A80036; stroke-width: 1.5;"/><text fill="#000000" font-family="sans-serif" font-size="14" lengthAdjust="spacingAndGlyphs" textLength="54" x="170.6838" y="630.2121">addData</text><ellipse cx="197.2548" cy="400.0973" fill="#FEFECE" filter="url(#f18wlydcfcfxbc)" rx="48.2548" ry="16.5973" style="stroke: #A80036; stroke-width: 1.5;"/><text fill="#000000" font-family="sans-serif" font-size="14" lengthAdjust="spacingAndGlyphs" textLength="64" x="165.2548" y="406.2121">addCallBy</text><ellipse cx="197.4411" cy="512.0973" fill="#FEFECE" filter="url(#f18wlydcfcfxbc)" rx="36.9411" ry="16.5973" style="stroke: #A80036; stroke-width: 1.5;"/><text fill="#000000" font-family="sans-serif" font-size="14" lengthAdjust="spacingAndGlyphs" textLength="48" x="173.4411" y="518.2121">addCall</text><!--MD5=[c3a79de3dfdf70b4ead88bc26ff6f883]
entity actor927744186--><ellipse cx="33.5" cy="367.5" fill="#FEFECE" filter="url(#f18wlydcfcfxbc)" rx="8" ry="8" style="stroke: #A80036; stroke-width: 1.5;"/><path d="M33.5,375.5 L33.5,402.5 M20.5,383.5 L46.5,383.5 M33.5,402.5 L20.5,417.5 M33.5,402.5 L46.5,417.5 " fill="none" filter="url(#f18wlydcfcfxbc)" style="stroke: #A80036; stroke-width: 1.5;"/><text fill="#000000" font-family="sans-serif" font-size="14" lengthAdjust="spacingAndGlyphs" textLength="55" x="6" y="439.1533">Function</text><!--MD5=[d90094311435cfb86829af3e65eedad8]
entity actor517787604--><ellipse cx="368.5" cy="311.5" fill="#FEFECE" filter="url(#f18wlydcfcfxbc)" rx="8" ry="8" style="stroke: #A80036; stroke-width: 1.5;"/><path d="M368.5,319.5 L368.5,346.5 M355.5,327.5 L381.5,327.5 M368.5,346.5 L355.5,361.5 M368.5,346.5 L381.5,361.5 " fill="none" filter="url(#f18wlydcfcfxbc)" style="stroke: #A80036; stroke-width: 1.5;"/><text fill="#000000" font-family="sans-serif" font-size="14" lengthAdjust="spacingAndGlyphs" textLength="69" x="334" y="383.1533">Data_base</text><!--MD5=[2402d7512d9aa01d473b8fba52e12d98]
entity actor188193734--><ellipse cx="368.5" cy="591.5" fill="#FEFECE" filter="url(#f18wlydcfcfxbc)" rx="8" ry="8" style="stroke: #A80036; stroke-width: 1.5;"/><path d="M368.5,599.5 L368.5,626.5 M355.5,607.5 L381.5,607.5 M368.5,626.5 L355.5,641.5 M368.5,626.5 L381.5,641.5 " fill="none" filter="url(#f18wlydcfcfxbc)" style="stroke: #A80036; stroke-width: 1.5;"/><text fill="#000000" font-family="sans-serif" font-size="14" lengthAdjust="spacingAndGlyphs" textLength="52" x="342.5" y="663.1533">DataList</text><!--MD5=[f52334ec6d1f6f109a9f4d46756e1887]
link actor927744186 to UC1777112002--><path d="M36.33,357.72 C40.45,303.56 53.81,208.64 97,141 C115.99,111.26 150.11,87.83 173.03,74.45 " fill="none" id="actor927744186-UC1777112002" style="stroke: #A80036; stroke-width: 1.0;"/><!--MD5=[230bae2eb23a3937184e6ff05a6fe4a0]
link UC1777112002 to actor517787604--><path d="M221.39,74.83 C243.87,88.52 277.64,112.17 298,141 C332.81,190.3 351.39,258.49 360.35,301.93 " fill="none" id="UC1777112002-actor517787604" style="stroke: #A80036; stroke-width: 1.0;"/><!--MD5=[60eb9abd04a2aaa994af37fa8ceae950]
link actor927744186 to UC1794314439--><path d="M46.24,357.8 C56.29,326.72 72.97,284.55 97,253 C117.58,225.98 149.41,202.88 171.5,188.76 " fill="none" id="actor927744186-UC1794314439" style="stroke: #A80036; stroke-width: 1.0;"/><!--MD5=[a64ebef8d3dc8c47cb420be115844367]
link UC1794314439 to actor517787604--><path d="M220.75,189.22 C241.82,204.17 273.74,228.28 298,253 C312.62,267.9 326.94,285.88 338.74,301.92 " fill="none" id="UC1794314439-actor517787604" style="stroke: #A80036; stroke-width: 1.0;"/><!--MD5=[ab2b79c0cd68196328a63683bbbceb01]
link actor927744186 to UC436126678--><path d="M61.25,381.34 C92.26,359.71 142.89,324.4 172.62,303.66 " fill="none" id="actor927744186-UC436126678" style="stroke: #A80036; stroke-width: 1.0;"/><!--MD5=[87fe61f130c8356751773f0317116ef9]
link UC436126678 to actor517787604--><path d="M241.15,301.38 C269.89,311.08 307.29,323.69 333.92,332.67 " fill="none" id="UC436126678-actor517787604" style="stroke: #A80036; stroke-width: 1.0;"/><!--MD5=[f880d4d308b067494af96cbd08b4bd69]
link actor927744186 to UC569894199--><path d="M39.61,442.18 C47.98,484.12 66.76,540.49 97,580 C116.44,605.4 145.78,627.37 167.57,635.29 " fill="none" id="actor927744186-UC569894199" style="stroke: #A80036; stroke-width: 1.0;"/><!--MD5=[f880d4d308b067494af96cbd08b4bd69]
link actor927744186 to UC569894199--><path d="M46.57,442.26 C56.7,472.86 73.34,514.09 97,545 C118.32,572.85 151.54,596.58 173.65,610.56 " fill="none" id="actor927744186-UC569894199-1" style="stroke: #A80036; stroke-width: 1.0;"/><!--MD5=[f880d4d308b067494af96cbd08b4bd69]
link actor927744186 to UC569894199--><path d="M58.78,442.17 C68.48,464.02 81.17,489.32 97,510 C125.96,547.83 176.89,578.06 192.09,607.61 " fill="none" id="actor927744186-UC569894199-2" style="stroke: #A80036; stroke-width: 1.0;"/><!--MD5=[0c152368496e784117b2f93cab2876d1]
link UC569894199 to actor188193734--><path d="M212.62,639.35 C241.18,652.39 306.15,653.73 342.2,643.37 " fill="none" id="UC569894199-actor188193734" style="stroke: #A80036; stroke-width: 1.0;"/><!--MD5=[0c152368496e784117b2f93cab2876d1]
link UC569894199 to actor188193734--><path d="M238.55,624 C270.76,624 315.02,624 342.41,624 " fill="none" id="UC569894199-actor188193734-1" style="stroke: #A80036; stroke-width: 1.0;"/><!--MD5=[0c152368496e784117b2f93cab2876d1]
link UC569894199 to actor188193734--><path d="M212.62,608.65 C241.18,595.61 306.15,594.27 342.2,604.63 " fill="none" id="UC569894199-actor188193734-2" style="stroke: #A80036; stroke-width: 1.0;"/><!--MD5=[e10d5b181c459dcd733694fe9c65fdae]
link actor927744186 to UC1384626783--><path d="M61.25,409.76 C88.39,413.36 130.57,413.71 160.6,410.8 " fill="none" id="actor927744186-UC1384626783" style="stroke: #A80036; stroke-width: 1.0;"/><!--MD5=[e10d5b181c459dcd733694fe9c65fdae]
link actor927744186 to UC1384626783--><path d="M61.25,389.67 C88.84,385.79 131.97,385.47 162.09,388.72 " fill="none" id="actor927744186-UC1384626783-1" style="stroke: #A80036; stroke-width: 1.0;"/><!--MD5=[e46869920e9c9f039e7f06120ac6768b]
link UC1384626783 to actor517787604--><path d="M245.13,396.09 C273.27,388.69 308.47,376.66 333.88,365.56 " fill="none" id="UC1384626783-actor517787604" style="stroke: #A80036; stroke-width: 1.0;"/><!--MD5=[e46869920e9c9f039e7f06120ac6768b]
link UC1384626783 to actor517787604--><path d="M217.56,384.76 C245.79,370.11 299.12,351.74 333.97,344.09 " fill="none" id="UC1384626783-actor517787604-1" style="stroke: #A80036; stroke-width: 1.0;"/><!--MD5=[dc8b1b88322dacf7f2ce1993c79b7207]
link actor927744186 to UC192318053--><path d="M61.25,418.49 C93.6,440.86 147.33,478 176.37,498.08 " fill="none" id="actor927744186-UC192318053" style="stroke: #A80036; stroke-width: 1.0;"/><!--MD5=[d99607d62d8d2074090fadf20dd6407d]
link UC192318053 to actor517787604--><path d="M218.72,498.13 C239.67,483.27 272.84,458.37 298,433 C312.22,418.66 326.25,401.46 337.94,386.01 " fill="none" id="UC192318053-actor517787604" style="stroke: #A80036; stroke-width: 1.0;"/><!--MD5=[122dc730b2ceada1903242d9966d2896]
@startuml
 left to right direction

actor Function as actor927744186

	rectangle Function{
	 usecase addHas as UC1777112002
	actor927744186- -UC1777112002
	}
	actor Data_base as actor517787604
	 UC1777112002 - - actor517787604
	rectangle getSrcName{
	 usecase getSrcName as UC1794314439
	actor927744186- -UC1794314439
	}
	actor Data_base as actor517787604
	 UC1794314439 - - actor517787604
	rectangle getPackageName{
	 usecase getPackageName as UC436126678
	actor927744186- -UC436126678
	}
	actor Data_base as actor517787604
	 UC436126678 - - actor517787604
	rectangle addHas{
	 usecase addData as UC569894199
	actor927744186- -UC569894199
	}
	actor DataList as actor188193734
	 UC569894199 - - actor188193734
	rectangle addCallBy{
	 usecase addData as UC569894199
	actor927744186- -UC569894199
	 usecase addCallBy as UC1384626783
	actor927744186- -UC1384626783
	}
	actor Data_base as actor517787604
	 UC1384626783 - - actor517787604
	actor DataList as actor188193734
	 UC569894199 - - actor188193734
	rectangle addCall{
	 usecase addData as UC569894199
	actor927744186- -UC569894199
	 usecase addCall as UC192318053
	actor927744186- -UC192318053
	 usecase addCallBy as UC1384626783
	actor927744186- -UC1384626783
	}
	actor Data_base as actor517787604
	 UC1384626783 - - actor517787604
	actor Data_base as actor517787604
	 UC192318053 - - actor517787604
	actor DataList as actor188193734
	 UC569894199 - - actor188193734

@enduml

PlantUML version 1.2020.19(Tue Oct 13 00:10:01 KST 2020)
(APACHE source distribution)
Java Runtime: Java(TM) SE Runtime Environment
JVM: Java HotSpot(TM) 64-Bit Server VM
Default Encoding: MS949
Language: ko
Country: KR
--></g></svg>