<?xml version="1.0" encoding="UTF-8" standalone="no"?><svg xmlns="http://www.w3.org/2000/svg" xmlns:xlink="http://www.w3.org/1999/xlink" contentScriptType="application/ecmascript" contentStyleType="text/css" height="671px" preserveAspectRatio="none" style="width:406px;height:671px;" version="1.1" viewBox="0 0 406 671" width="406px" zoomAndPan="magnify"><defs><filter height="300%" id="f15xv0abb13k5t" width="300%" x="-1" y="-1"><feGaussianBlur result="blurOut" stdDeviation="2.0"/><feColorMatrix in="blurOut" result="blurOut2" type="matrix" values="0 0 0 0 0 0 0 0 0 0 0 0 0 0 0 0 0 0 .4 0"/><feOffset dx="4.0" dy="4.0" in="blurOut2" result="blurOut3"/><feBlend in="SourceGraphic" in2="blurOut3" mode="normal"/></filter></defs><g><!--MD5=[3df72e327fda6a9c75e1d3c13478bbff]
cluster addHas--><rect fill="#FFFFFF" filter="url(#f15xv0abb13k5t)" height="88" style="stroke: #000000; stroke-width: 1.5;" width="114" x="136.5" y="7"/><text fill="#000000" font-family="sans-serif" font-size="14" font-weight="bold" lengthAdjust="spacingAndGlyphs" textLength="52" x="167.5" y="25.1533">addHas</text><!--MD5=[89e6df34a40fd0f881e4a85c208f9fb2]
cluster addCallBy--><rect fill="#FFFFFF" filter="url(#f15xv0abb13k5t)" height="88" style="stroke: #000000; stroke-width: 1.5;" width="129" x="129" y="119"/><text fill="#000000" font-family="sans-serif" font-size="14" font-weight="bold" lengthAdjust="spacingAndGlyphs" textLength="69" x="159" y="137.1533">addCallBy</text><!--MD5=[e72b28ea75be9a6e9901756f23061282]
cluster addCall--><rect fill="#FFFFFF" filter="url(#f15xv0abb13k5t)" height="88" style="stroke: #000000; stroke-width: 1.5;" width="106" x="140.5" y="231"/><text fill="#000000" font-family="sans-serif" font-size="14" font-weight="bold" lengthAdjust="spacingAndGlyphs" textLength="52" x="167.5" y="249.1533">addCall</text><!--MD5=[2ed68a8df47df60ed763f499b5bc43b2]
cluster addImage--><rect fill="#FFFFFF" filter="url(#f15xv0abb13k5t)" height="88" style="stroke: #000000; stroke-width: 1.5;" width="84" x="151.5" y="569"/><text fill="#000000" font-family="sans-serif" font-size="14" font-weight="bold" lengthAdjust="spacingAndGlyphs" textLength="68" x="159.5" y="587.1533">addImage</text><!--MD5=[a1eef7bbc55d6e115a3736b1cb383f24]
cluster getSrcName--><rect fill="#FFFFFF" filter="url(#f15xv0abb13k5t)" height="88" style="stroke: #000000; stroke-width: 1.5;" width="147" x="120" y="343"/><text fill="#000000" font-family="sans-serif" font-size="14" font-weight="bold" lengthAdjust="spacingAndGlyphs" textLength="85" x="151" y="361.1533">getSrcName</text><!--MD5=[c34a5b0034f574704b03ebcea5fc6794]
cluster getPackageName--><rect fill="#FFFFFF" filter="url(#f15xv0abb13k5t)" height="90" style="stroke: #000000; stroke-width: 1.5;" width="185" x="101" y="455"/><text fill="#000000" font-family="sans-serif" font-size="14" font-weight="bold" lengthAdjust="spacingAndGlyphs" textLength="121" x="133" y="473.1533">getPackageName</text><ellipse cx="193.6838" cy="62.0973" fill="#FEFECE" filter="url(#f15xv0abb13k5t)" rx="41.1838" ry="16.5973" style="stroke: #A80036; stroke-width: 1.5;"/><text fill="#000000" font-family="sans-serif" font-size="14" lengthAdjust="spacingAndGlyphs" textLength="54" x="166.6838" y="68.2121">addData</text><ellipse cx="193.2548" cy="174.0973" fill="#FEFECE" filter="url(#f15xv0abb13k5t)" rx="48.2548" ry="16.5973" style="stroke: #A80036; stroke-width: 1.5;"/><text fill="#000000" font-family="sans-serif" font-size="14" lengthAdjust="spacingAndGlyphs" textLength="64" x="161.2548" y="180.2121">addCallBy</text><ellipse cx="193.4411" cy="286.0973" fill="#FEFECE" filter="url(#f15xv0abb13k5t)" rx="36.9411" ry="16.5973" style="stroke: #A80036; stroke-width: 1.5;"/><text fill="#000000" font-family="sans-serif" font-size="14" lengthAdjust="spacingAndGlyphs" textLength="48" x="169.4411" y="292.2121">addCall</text><ellipse cx="193.4836" cy="624.0869" fill="#FEFECE" filter="url(#f15xv0abb13k5t)" rx="19.9836" ry="16.5869" style="stroke: #A80036; stroke-width: 1.5;"/><text fill="#000000" font-family="sans-serif" font-size="14" lengthAdjust="spacingAndGlyphs" textLength="24" x="181.4836" y="630.2016">add</text><ellipse cx="193.4472" cy="398.0973" fill="#FEFECE" filter="url(#f15xv0abb13k5t)" rx="57.4472" ry="16.5973" style="stroke: #A80036; stroke-width: 1.5;"/><text fill="#000000" font-family="sans-serif" font-size="14" lengthAdjust="spacingAndGlyphs" textLength="77" x="154.9472" y="404.2121">getSrcName</text><ellipse cx="193.4257" cy="511.1851" fill="#FEFECE" filter="url(#f15xv0abb13k5t)" rx="76.4257" ry="17.6851" style="stroke: #A80036; stroke-width: 1.5;"/><text fill="#000000" font-family="sans-serif" font-size="14" lengthAdjust="spacingAndGlyphs" textLength="111" x="137.9257" y="517.2999">getPackageName</text><!--MD5=[ff2cfac5f43e701ce7de056768dc8c39]
entity actor417118375--><ellipse cx="31.5" cy="141.5" fill="#FEFECE" filter="url(#f15xv0abb13k5t)" rx="8" ry="8" style="stroke: #A80036; stroke-width: 1.5;"/><path d="M31.5,149.5 L31.5,176.5 M18.5,157.5 L44.5,157.5 M31.5,176.5 L18.5,191.5 M31.5,176.5 L44.5,191.5 " fill="none" filter="url(#f15xv0abb13k5t)" style="stroke: #A80036; stroke-width: 1.5;"/><text fill="#000000" font-family="sans-serif" font-size="14" lengthAdjust="spacingAndGlyphs" textLength="51" x="6" y="213.1533">Member</text><!--MD5=[2402d7512d9aa01d473b8fba52e12d98]
entity actor188193734--><ellipse cx="364.5" cy="29.5" fill="#FEFECE" filter="url(#f15xv0abb13k5t)" rx="8" ry="8" style="stroke: #A80036; stroke-width: 1.5;"/><path d="M364.5,37.5 L364.5,64.5 M351.5,45.5 L377.5,45.5 M364.5,64.5 L351.5,79.5 M364.5,64.5 L377.5,79.5 " fill="none" filter="url(#f15xv0abb13k5t)" style="stroke: #A80036; stroke-width: 1.5;"/><text fill="#000000" font-family="sans-serif" font-size="14" lengthAdjust="spacingAndGlyphs" textLength="52" x="338.5" y="101.1533">DataList</text><!--MD5=[d90094311435cfb86829af3e65eedad8]
entity actor517787604--><ellipse cx="364.5" cy="253.5" fill="#FEFECE" filter="url(#f15xv0abb13k5t)" rx="8" ry="8" style="stroke: #A80036; stroke-width: 1.5;"/><path d="M364.5,261.5 L364.5,288.5 M351.5,269.5 L377.5,269.5 M364.5,288.5 L351.5,303.5 M364.5,288.5 L377.5,303.5 " fill="none" filter="url(#f15xv0abb13k5t)" style="stroke: #A80036; stroke-width: 1.5;"/><text fill="#000000" font-family="sans-serif" font-size="14" lengthAdjust="spacingAndGlyphs" textLength="69" x="330" y="325.1533">Data_base</text><!--MD5=[355f04e5136e09d547304b951fcecad1]
entity actor170611939--><ellipse cx="364.5" cy="591.5" fill="#FEFECE" filter="url(#f15xv0abb13k5t)" rx="8" ry="8" style="stroke: #A80036; stroke-width: 1.5;"/><path d="M364.5,599.5 L364.5,626.5 M351.5,607.5 L377.5,607.5 M364.5,626.5 L351.5,641.5 M364.5,626.5 L377.5,641.5 " fill="none" filter="url(#f15xv0abb13k5t)" style="stroke: #A80036; stroke-width: 1.5;"/><text fill="#000000" font-family="sans-serif" font-size="14" lengthAdjust="spacingAndGlyphs" textLength="56" x="336.5" y="663.1533">ArrayList</text><!--MD5=[5d2f879ba7f45750cbd74fd0c9cf1b3c]
link actor417118375 to UC569894199--><path d="M57.15,176.33 C94.49,161.22 163.39,110.33 185.49,78.5 " fill="none" id="actor417118375-UC569894199" style="stroke: #A80036; stroke-width: 1.0;"/><!--MD5=[5d2f879ba7f45750cbd74fd0c9cf1b3c]
link actor417118375 to UC569894199--><path d="M57.15,156.75 C88.71,134.66 142.8,96.79 172.14,76.25 " fill="none" id="actor417118375-UC569894199-1" style="stroke: #A80036; stroke-width: 1.0;"/><!--MD5=[5d2f879ba7f45750cbd74fd0c9cf1b3c]
link actor417118375 to UC569894199--><path d="M57.15,137.16 C82.92,111.51 123.72,81.85 153.8,66.24 " fill="none" id="actor417118375-UC569894199-2" style="stroke: #A80036; stroke-width: 1.0;"/><!--MD5=[0c152368496e784117b2f93cab2876d1]
link UC569894199 to actor188193734--><path d="M208.62,77.35 C237.18,90.39 302.15,91.73 338.2,81.37 " fill="none" id="UC569894199-actor188193734" style="stroke: #A80036; stroke-width: 1.0;"/><!--MD5=[0c152368496e784117b2f93cab2876d1]
link UC569894199 to actor188193734--><path d="M234.55,62 C266.76,62 311.02,62 338.41,62 " fill="none" id="UC569894199-actor188193734-1" style="stroke: #A80036; stroke-width: 1.0;"/><!--MD5=[0c152368496e784117b2f93cab2876d1]
link UC569894199 to actor188193734--><path d="M208.62,46.65 C237.18,33.61 302.15,32.27 338.2,42.63 " fill="none" id="UC569894199-actor188193734-2" style="stroke: #A80036; stroke-width: 1.0;"/><!--MD5=[fe58feda64fe5898c498850ceb6ab813]
link actor417118375 to UC1384626783--><path d="M57.15,183.51 C83.8,187.34 126.52,187.77 156.83,184.82 " fill="none" id="actor417118375-UC1384626783" style="stroke: #A80036; stroke-width: 1.0;"/><!--MD5=[fe58feda64fe5898c498850ceb6ab813]
link actor417118375 to UC1384626783--><path d="M57.15,163.93 C84.15,159.83 127.64,159.41 158.02,162.67 " fill="none" id="actor417118375-UC1384626783-1" style="stroke: #A80036; stroke-width: 1.0;"/><!--MD5=[e46869920e9c9f039e7f06120ac6768b]
link UC1384626783 to actor517787604--><path d="M207.76,190.05 C233.83,213.37 292.46,253.28 329.88,274.14 " fill="none" id="UC1384626783-actor517787604" style="stroke: #A80036; stroke-width: 1.0;"/><!--MD5=[e46869920e9c9f039e7f06120ac6768b]
link UC1384626783 to actor517787604--><path d="M228.7,185.57 C258.21,201.9 300.6,230.01 329.93,252.72 " fill="none" id="UC1384626783-actor517787604-1" style="stroke: #A80036; stroke-width: 1.0;"/><!--MD5=[f5faf3ed46640a98ca31a635f75d8374]
link actor417118375 to UC192318053--><path d="M57.15,191.25 C88.88,213.47 143.4,251.63 172.63,272.09 " fill="none" id="actor417118375-UC192318053" style="stroke: #A80036; stroke-width: 1.0;"/><!--MD5=[d99607d62d8d2074090fadf20dd6407d]
link UC192318053 to actor517787604--><path d="M230.75,286 C260.14,286 301.24,286 329.89,286 " fill="none" id="UC192318053-actor517787604" style="stroke: #A80036; stroke-width: 1.0;"/><!--MD5=[e8c2b1e5688c5f76e548829b0c8a1a06]
link actor417118375 to UC293618119--><path d="M35.55,216.17 C42.32,301.19 60.59,489.77 93,545 C112.87,578.86 153.21,603.83 175.95,615.9 " fill="none" id="actor417118375-UC293618119" style="stroke: #A80036; stroke-width: 1.0;"/><!--MD5=[e863014e027271d986aca718942ad4bc]
link UC293618119 to actor170611939--><path d="M213.56,624 C243.6,624 302.07,624 336.45,624 " fill="none" id="UC293618119-actor170611939" style="stroke: #A80036; stroke-width: 1.0;"/><!--MD5=[f0b97431fcb42c287cbae109eb6e21c7]
link actor417118375 to UC1794314439--><path d="M43.91,216.27 C53.58,246.87 69.64,288.11 93,319 C113.49,346.09 145.33,369.18 167.46,383.27 " fill="none" id="actor417118375-UC1794314439" style="stroke: #A80036; stroke-width: 1.0;"/><!--MD5=[a64ebef8d3dc8c47cb420be115844367]
link UC1794314439 to actor517787604--><path d="M217.29,382.9 C246.21,363.73 296.34,330.51 329.71,308.39 " fill="none" id="UC1794314439-actor517787604" style="stroke: #A80036; stroke-width: 1.0;"/><!--MD5=[757c3b34253f4422122786f52780ede6]
link actor417118375 to UC436126678--><path d="M34.12,216.37 C37.95,270.13 50.72,363.91 93,431 C110.37,458.56 140.6,480.85 163.19,494.83 " fill="none" id="actor417118375-UC436126678" style="stroke: #A80036; stroke-width: 1.0;"/><!--MD5=[87fe61f130c8356751773f0317116ef9]
link UC436126678 to actor517787604--><path d="M220.93,494.61 C242.74,480.04 273.35,457.05 294,431 C318.63,399.94 337.32,358.72 349.08,328.17 " fill="none" id="UC436126678-actor517787604" style="stroke: #A80036; stroke-width: 1.0;"/><!--MD5=[49f09bbe65c6cd96f9bf7d25d76278f4]
@startuml
 left to right direction

actor Member as actor417118375

	rectangle addHas{
	 usecase addData as UC569894199
	actor417118375- -UC569894199
	}
	actor DataList as actor188193734
	 UC569894199 - - actor188193734
	rectangle addCallBy{
	 usecase addData as UC569894199
	actor417118375- -UC569894199
	 usecase addCallBy as UC1384626783
	actor417118375- -UC1384626783
	}
	actor Data_base as actor517787604
	 UC1384626783 - - actor517787604
	actor DataList as actor188193734
	 UC569894199 - - actor188193734
	rectangle addCall{
	 usecase addData as UC569894199
	actor417118375- -UC569894199
	 usecase addCall as UC192318053
	actor417118375- -UC192318053
	 usecase addCallBy as UC1384626783
	actor417118375- -UC1384626783
	}
	actor Data_base as actor517787604
	 UC1384626783 - - actor517787604
	actor Data_base as actor517787604
	 UC192318053 - - actor517787604
	actor DataList as actor188193734
	 UC569894199 - - actor188193734
	rectangle addImage{
	 usecase add as UC293618119
	actor417118375- -UC293618119
	}
	actor ArrayList as actor170611939
	 UC293618119 - - actor170611939
	rectangle getSrcName{
	 usecase getSrcName as UC1794314439
	actor417118375- -UC1794314439
	}
	actor Data_base as actor517787604
	 UC1794314439 - - actor517787604
	rectangle getPackageName{
	 usecase getPackageName as UC436126678
	actor417118375- -UC436126678
	}
	actor Data_base as actor517787604
	 UC436126678 - - actor517787604

@enduml

PlantUML version 1.2020.19(Tue Oct 13 00:10:01 KST 2020)
(APACHE source distribution)
Java Runtime: Java(TM) SE Runtime Environment
JVM: Java HotSpot(TM) 64-Bit Server VM
Default Encoding: MS949
Language: ko
Country: KR
--></g></svg>