<?xml version="1.0" encoding="UTF-8" standalone="no"?><svg xmlns="http://www.w3.org/2000/svg" xmlns:xlink="http://www.w3.org/1999/xlink" contentScriptType="application/ecmascript" contentStyleType="text/css" height="1091px" preserveAspectRatio="none" style="width:466px;height:1091px;" version="1.1" viewBox="0 0 466 1091" width="466px" zoomAndPan="magnify"><defs><filter height="300%" id="f1ug0gy2piqbhp" width="300%" x="-1" y="-1"><feGaussianBlur result="blurOut" stdDeviation="2.0"/><feColorMatrix in="blurOut" result="blurOut2" type="matrix" values="0 0 0 0 0 0 0 0 0 0 0 0 0 0 0 0 0 0 .4 0"/><feOffset dx="4.0" dy="4.0" in="blurOut2" result="blurOut3"/><feBlend in="SourceGraphic" in2="blurOut3" mode="normal"/></filter></defs><g><!--MD5=[a70b0d373322012744ecc119c63f921b]
cluster main--><rect fill="#FFFFFF" filter="url(#f1ug0gy2piqbhp)" height="224" style="stroke: #000000; stroke-width: 1.5;" width="147" x="128" y="187"/><text fill="#000000" font-family="sans-serif" font-size="14" font-weight="bold" lengthAdjust="spacingAndGlyphs" textLength="33" x="185" y="205.1533">main</text><!--MD5=[34cb1141ed5c8afa1d4c2c83d67642d3]
cluster makeString--><rect fill="#FFFFFF" filter="url(#f1ug0gy2piqbhp)" height="156" style="stroke: #000000; stroke-width: 1.5;" width="107" x="148" y="7"/><text fill="#000000" font-family="sans-serif" font-size="14" font-weight="bold" lengthAdjust="spacingAndGlyphs" textLength="79" x="162" y="25.1533">makeString</text><!--MD5=[169ded1774b4ebedaf5b3d453063cde8]
cluster getCallerFunList--><rect fill="#FFFFFF" filter="url(#f1ug0gy2piqbhp)" height="292" style="stroke: #000000; stroke-width: 1.5;" width="175" x="114" y="435"/><text fill="#000000" font-family="sans-serif" font-size="14" font-weight="bold" lengthAdjust="spacingAndGlyphs" textLength="116" x="143.5" y="453.1533">getCallerFunList</text><!--MD5=[c6bdd26f9d0c779513684dd3959e914f]
cluster drawConnect--><rect fill="#FFFFFF" filter="url(#f1ug0gy2piqbhp)" height="88" style="stroke: #000000; stroke-width: 1.5;" width="109" x="147.5" y="751"/><text fill="#000000" font-family="sans-serif" font-size="14" font-weight="bold" lengthAdjust="spacingAndGlyphs" textLength="93" x="155.5" y="769.1533">drawConnect</text><!--MD5=[1e829f21a74d4de467c1b519aceec237]
cluster makeFile--><rect fill="#FFFFFF" filter="url(#f1ug0gy2piqbhp)" height="156" style="stroke: #000000; stroke-width: 1.5;" width="85" x="159" y="867"/><text fill="#000000" font-family="sans-serif" font-size="14" font-weight="bold" lengthAdjust="spacingAndGlyphs" textLength="63" x="170" y="885.1533">makeFile</text><ellipse cx="201.5269" cy="310.0973" fill="#FEFECE" filter="url(#f1ug0gy2piqbhp)" rx="35.5269" ry="16.5973" style="stroke: #A80036; stroke-width: 1.5;"/><text fill="#000000" font-family="sans-serif" font-size="14" lengthAdjust="spacingAndGlyphs" textLength="46" x="178.5269" y="316.2121">waitFor</text><ellipse cx="201.5772" cy="242.0973" fill="#FEFECE" filter="url(#f1ug0gy2piqbhp)" rx="30.5772" ry="16.5973" style="stroke: #A80036; stroke-width: 1.5;"/><text fill="#000000" font-family="sans-serif" font-size="14" lengthAdjust="spacingAndGlyphs" textLength="39" x="182.0772" y="248.2121">println</text><ellipse cx="201.4472" cy="378.0973" fill="#FEFECE" filter="url(#f1ug0gy2piqbhp)" rx="57.4472" ry="16.5973" style="stroke: #A80036; stroke-width: 1.5;"/><text fill="#000000" font-family="sans-serif" font-size="14" lengthAdjust="spacingAndGlyphs" textLength="77" x="162.9472" y="384.2121">getClassList</text><ellipse cx="201.4411" cy="62.0973" fill="#FEFECE" filter="url(#f1ug0gy2piqbhp)" rx="36.9411" ry="16.5973" style="stroke: #A80036; stroke-width: 1.5;"/><text fill="#000000" font-family="sans-serif" font-size="14" lengthAdjust="spacingAndGlyphs" textLength="48" x="177.4411" y="68.2121">append</text><ellipse cx="201.6482" cy="130.0973" fill="#FEFECE" filter="url(#f1ug0gy2piqbhp)" rx="37.6482" ry="16.5973" style="stroke: #A80036; stroke-width: 1.5;"/><text fill="#000000" font-family="sans-serif" font-size="14" lengthAdjust="spacingAndGlyphs" textLength="49" x="177.1482" y="136.2121">toString</text><ellipse cx="201.4836" cy="694.0869" fill="#FEFECE" filter="url(#f1ug0gy2piqbhp)" rx="19.9836" ry="16.5869" style="stroke: #A80036; stroke-width: 1.5;"/><text fill="#000000" font-family="sans-serif" font-size="14" lengthAdjust="spacingAndGlyphs" textLength="24" x="189.4836" y="700.2016">add</text><ellipse cx="201.669" cy="626.0973" fill="#FEFECE" filter="url(#f1ug0gy2piqbhp)" rx="49.669" ry="16.5973" style="stroke: #A80036; stroke-width: 1.5;"/><text fill="#000000" font-family="sans-serif" font-size="14" lengthAdjust="spacingAndGlyphs" textLength="66" x="168.669" y="632.2121">getCallList</text><ellipse cx="201.2886" cy="490.1577" fill="#FEFECE" filter="url(#f1ug0gy2piqbhp)" rx="71.2886" ry="16.6577" style="stroke: #A80036; stroke-width: 1.5;"/><text fill="#000000" font-family="sans-serif" font-size="14" lengthAdjust="spacingAndGlyphs" textLength="97" x="152.7886" y="496.2725">getFunctionList</text><ellipse cx="201.669" cy="558.0973" fill="#FEFECE" filter="url(#f1ug0gy2piqbhp)" rx="49.669" ry="16.5973" style="stroke: #A80036; stroke-width: 1.5;"/><text fill="#000000" font-family="sans-serif" font-size="14" lengthAdjust="spacingAndGlyphs" textLength="66" x="168.669" y="564.2121">getHasList</text><ellipse cx="201.4836" cy="806.0869" fill="#FEFECE" filter="url(#f1ug0gy2piqbhp)" rx="19.9836" ry="16.5869" style="stroke: #A80036; stroke-width: 1.5;"/><text fill="#000000" font-family="sans-serif" font-size="14" lengthAdjust="spacingAndGlyphs" textLength="24" x="189.4836" y="812.2016">add</text><ellipse cx="201.5061" cy="990.0973" fill="#FEFECE" filter="url(#f1ug0gy2piqbhp)" rx="23.5061" ry="16.5973" style="stroke: #A80036; stroke-width: 1.5;"/><text fill="#000000" font-family="sans-serif" font-size="14" lengthAdjust="spacingAndGlyphs" textLength="29" x="187.0061" y="996.2121">write</text><ellipse cx="201.3345" cy="922.0973" fill="#FEFECE" filter="url(#f1ug0gy2piqbhp)" rx="26.3345" ry="16.5973" style="stroke: #A80036; stroke-width: 1.5;"/><text fill="#000000" font-family="sans-serif" font-size="14" lengthAdjust="spacingAndGlyphs" textLength="33" x="184.8345" y="928.2121">close</text><!--MD5=[3b9a75c8d3572c5083ea72ba9e1d88da]
entity actor1861416877--><ellipse cx="38" cy="457.5" fill="#FEFECE" filter="url(#f1ug0gy2piqbhp)" rx="8" ry="8" style="stroke: #A80036; stroke-width: 1.5;"/><path d="M38,465.5 L38,492.5 M25,473.5 L51,473.5 M38,492.5 L25,507.5 M38,492.5 L51,507.5 " fill="none" filter="url(#f1ug0gy2piqbhp)" style="stroke: #A80036; stroke-width: 1.5;"/><text fill="#000000" font-family="sans-serif" font-size="14" lengthAdjust="spacingAndGlyphs" textLength="64" x="6" y="529.1533">Sequence</text><!--MD5=[2402d7512d9aa01d473b8fba52e12d98]
entity actor188193734--><ellipse cx="396" cy="411.5" fill="#FEFECE" filter="url(#f1ug0gy2piqbhp)" rx="8" ry="8" style="stroke: #A80036; stroke-width: 1.5;"/><path d="M396,419.5 L396,446.5 M383,427.5 L409,427.5 M396,446.5 L383,461.5 M396,446.5 L409,461.5 " fill="none" filter="url(#f1ug0gy2piqbhp)" style="stroke: #A80036; stroke-width: 1.5;"/><text fill="#000000" font-family="sans-serif" font-size="14" lengthAdjust="spacingAndGlyphs" textLength="52" x="370" y="483.1533">DataList</text><!--MD5=[2699aedbcd2b1f3b132d3903ac9b60ef]
entity actor652803980--><ellipse cx="396" cy="168.5" fill="#FEFECE" filter="url(#f1ug0gy2piqbhp)" rx="8" ry="8" style="stroke: #A80036; stroke-width: 1.5;"/><path d="M396,176.5 L396,203.5 M383,184.5 L409,184.5 M396,203.5 L383,218.5 M396,203.5 L409,218.5 " fill="none" filter="url(#f1ug0gy2piqbhp)" style="stroke: #A80036; stroke-width: 1.5;"/><text fill="#000000" font-family="sans-serif" font-size="14" lengthAdjust="spacingAndGlyphs" textLength="74" x="359" y="240.1533">PrintStream</text><!--MD5=[25172bbf95bdbbdb21e6a8bcedfbc865]
entity actor1520921298--><ellipse cx="396" cy="287.5" fill="#FEFECE" filter="url(#f1ug0gy2piqbhp)" rx="8" ry="8" style="stroke: #A80036; stroke-width: 1.5;"/><path d="M396,295.5 L396,322.5 M383,303.5 L409,303.5 M396,322.5 L383,337.5 M396,322.5 L409,337.5 " fill="none" filter="url(#f1ug0gy2piqbhp)" style="stroke: #A80036; stroke-width: 1.5;"/><text fill="#000000" font-family="sans-serif" font-size="14" lengthAdjust="spacingAndGlyphs" textLength="51" x="370.5" y="359.1533">Process</text><!--MD5=[864f7e280385d8f93481e354d7c7de74]
entity actor230610941--><ellipse cx="396" cy="29.5" fill="#FEFECE" filter="url(#f1ug0gy2piqbhp)" rx="8" ry="8" style="stroke: #A80036; stroke-width: 1.5;"/><path d="M396,37.5 L396,64.5 M383,45.5 L409,45.5 M396,64.5 L383,79.5 M396,64.5 L409,79.5 " fill="none" filter="url(#f1ug0gy2piqbhp)" style="stroke: #A80036; stroke-width: 1.5;"/><text fill="#000000" font-family="sans-serif" font-size="14" lengthAdjust="spacingAndGlyphs" textLength="81" x="355.5" y="101.1533">StringBuilder</text><!--MD5=[d90094311435cfb86829af3e65eedad8]
entity actor517787604--><ellipse cx="396" cy="535.5" fill="#FEFECE" filter="url(#f1ug0gy2piqbhp)" rx="8" ry="8" style="stroke: #A80036; stroke-width: 1.5;"/><path d="M396,543.5 L396,570.5 M383,551.5 L409,551.5 M396,570.5 L383,585.5 M396,570.5 L409,585.5 " fill="none" filter="url(#f1ug0gy2piqbhp)" style="stroke: #A80036; stroke-width: 1.5;"/><text fill="#000000" font-family="sans-serif" font-size="14" lengthAdjust="spacingAndGlyphs" textLength="69" x="361.5" y="607.1533">Data_base</text><!--MD5=[355f04e5136e09d547304b951fcecad1]
entity actor170611939--><ellipse cx="396" cy="654.5" fill="#FEFECE" filter="url(#f1ug0gy2piqbhp)" rx="8" ry="8" style="stroke: #A80036; stroke-width: 1.5;"/><path d="M396,662.5 L396,689.5 M383,670.5 L409,670.5 M396,689.5 L383,704.5 M396,689.5 L409,704.5 " fill="none" filter="url(#f1ug0gy2piqbhp)" style="stroke: #A80036; stroke-width: 1.5;"/><text fill="#000000" font-family="sans-serif" font-size="14" lengthAdjust="spacingAndGlyphs" textLength="56" x="368" y="726.1533">ArrayList</text><!--MD5=[d75553106bdf409a3362ab75e7f3f3c5]
entity actor1407009494--><ellipse cx="396" cy="773.5" fill="#FEFECE" filter="url(#f1ug0gy2piqbhp)" rx="8" ry="8" style="stroke: #A80036; stroke-width: 1.5;"/><path d="M396,781.5 L396,808.5 M383,789.5 L409,789.5 M396,808.5 L383,823.5 M396,808.5 L409,823.5 " fill="none" filter="url(#f1ug0gy2piqbhp)" style="stroke: #A80036; stroke-width: 1.5;"/><text fill="#000000" font-family="sans-serif" font-size="14" lengthAdjust="spacingAndGlyphs" textLength="41" x="375.5" y="845.1533">Vector</text><!--MD5=[6e5b8b9080bf40386e983222e37dc0c6]
entity actor2120154283--><ellipse cx="396" cy="892.5" fill="#FEFECE" filter="url(#f1ug0gy2piqbhp)" rx="8" ry="8" style="stroke: #A80036; stroke-width: 1.5;"/><path d="M396,900.5 L396,927.5 M383,908.5 L409,908.5 M396,927.5 L383,942.5 M396,927.5 L409,942.5 " fill="none" filter="url(#f1ug0gy2piqbhp)" style="stroke: #A80036; stroke-width: 1.5;"/><text fill="#000000" font-family="sans-serif" font-size="14" lengthAdjust="spacingAndGlyphs" textLength="126" x="333" y="964.1533">OutputStreamWriter</text><!--MD5=[d11812ca287f6e2b9360f0be547853e2]
entity actor94690722--><ellipse cx="396" cy="1011.5" fill="#FEFECE" filter="url(#f1ug0gy2piqbhp)" rx="8" ry="8" style="stroke: #A80036; stroke-width: 1.5;"/><path d="M396,1019.5 L396,1046.5 M383,1027.5 L409,1027.5 M396,1046.5 L383,1061.5 M396,1046.5 L409,1061.5 " fill="none" filter="url(#f1ug0gy2piqbhp)" style="stroke: #A80036; stroke-width: 1.5;"/><text fill="#000000" font-family="sans-serif" font-size="14" lengthAdjust="spacingAndGlyphs" textLength="38" x="377" y="1083.1533">Writer</text><!--MD5=[5265237316be7c4b407e7925c901e42e]
link actor1861416877 to UC2131723476--><path d="M48.77,447.89 C58.32,415.46 75.91,371.64 106,344 C122.95,328.43 147.54,319.88 167.39,315.24 " fill="none" id="actor1861416877-UC2131723476" style="stroke: #A80036; stroke-width: 1.0;"/><!--MD5=[b34c0d0bdf565723b46c46f2d086c00d]
link actor1861416877 to UC115297013--><path d="M41.3,447.83 C46.11,400.16 60.87,323.07 106,276 C123.26,258 150.72,249.5 171.6,245.51 " fill="none" id="actor1861416877-UC115297013" style="stroke: #A80036; stroke-width: 1.0;"/><!--MD5=[9f7934e4b37c998079170b99c7f32e8e]
link actor1861416877 to UC628694336--><path d="M70.14,478.71 C105.7,458.1 162.23,417.91 187.52,394.33 " fill="none" id="actor1861416877-UC628694336" style="stroke: #A80036; stroke-width: 1.0;"/><!--MD5=[9f7934e4b37c998079170b99c7f32e8e]
link actor1861416877 to UC628694336--><path d="M70.14,457.49 C97.45,435.25 137.13,407.59 165.53,390.9 " fill="none" id="actor1861416877-UC628694336-1" style="stroke: #A80036; stroke-width: 1.0;"/><!--MD5=[ed1f67faa23d0b28af9cfaf9de6f75eb]
link UC628694336 to actor188193734--><path d="M223.1,393.32 C258.6,411.24 331.19,436.36 369.7,444.28 " fill="none" id="UC628694336-actor188193734" style="stroke: #A80036; stroke-width: 1.0;"/><!--MD5=[ed1f67faa23d0b28af9cfaf9de6f75eb]
link UC628694336 to actor188193734--><path d="M255.36,383.92 C292.64,394.31 340.92,411.78 369.84,425.91 " fill="none" id="UC628694336-actor188193734-1" style="stroke: #A80036; stroke-width: 1.0;"/><!--MD5=[506482d4508c62cd36a898b620d47403]
link UC115297013 to actor652803980--><path d="M230.08,236.13 C263.97,228.91 321.56,216.64 358.94,208.68 " fill="none" id="UC115297013-actor652803980" style="stroke: #A80036; stroke-width: 1.0;"/><!--MD5=[01b9c20b3e5a4cf7782b39bdcd5fa690]
link UC2131723476 to actor1520921298--><path d="M236.92,311.79 C275.31,313.78 336.46,316.96 370.35,318.72 " fill="none" id="UC2131723476-actor1520921298" style="stroke: #A80036; stroke-width: 1.0;"/><!--MD5=[73aafb1767a07911988a5590d10bc186]
link actor1861416877 to UC1510333744--><path d="M41.45,447.84 C46.94,360.16 63.25,164.08 106,113 C124.58,90.81 158.8,83.1 180.56,75.79 " fill="none" id="actor1861416877-UC1510333744" style="stroke: #A80036; stroke-width: 1.0;"/><!--MD5=[73aafb1767a07911988a5590d10bc186]
link actor1861416877 to UC1510333744--><path d="M40.45,447.75 C44.77,353.46 60.24,132.67 106,78 C123.23,57.41 153.93,49.29 175.66,50 " fill="none" id="actor1861416877-UC1510333744-1" style="stroke: #A80036; stroke-width: 1.0;"/><!--MD5=[1cb026c273e64d81b18e9a9d407ce97d]
link actor1861416877 to UC458385820--><path d="M40.86,447.8 C45.13,389.91 59.28,284.48 106,209 C123.9,180.09 156.02,156.62 177.79,142.98 " fill="none" id="actor1861416877-UC458385820" style="stroke: #A80036; stroke-width: 1.0;"/><!--MD5=[fe24e3c77f07c716b55f92ec959cee7d]
link UC458385820 to actor230610941--><path d="M231.32,119.82 C264.25,108.19 318.35,89.07 355.27,76.03 " fill="none" id="UC458385820-actor230610941" style="stroke: #A80036; stroke-width: 1.0;"/><!--MD5=[3ca10d0588a2cb08aa576378b8daa12c]
link UC1510333744 to actor230610941--><path d="M232.16,71.51 C265.17,75.45 318.67,75.8 355.28,72.55 " fill="none" id="UC1510333744-actor230610941" style="stroke: #A80036; stroke-width: 1.0;"/><!--MD5=[3ca10d0588a2cb08aa576378b8daa12c]
link UC1510333744 to actor230610941--><path d="M231.32,52.04 C264.25,47.77 318.35,47.36 355.27,50.83 " fill="none" id="UC1510333744-actor230610941-1" style="stroke: #A80036; stroke-width: 1.0;"/><!--MD5=[9a964dcf5e65caef88287de0d01732db]
link actor1861416877 to UC293618119--><path d="M45.5,532.15 C53.48,570.3 70.6,625.65 106,660 C126.77,680.16 160.34,688.47 181.37,691.82 " fill="none" id="actor1861416877-UC293618119" style="stroke: #A80036; stroke-width: 1.0;"/><!--MD5=[550f76d003a3ea52aa4afcd07c052c3b]
link actor1861416877 to UC872699266--><path d="M51.45,532.23 C62.7,558.32 81.29,589.52 106,609 C120.24,620.22 138.51,627.94 155.18,632.01 " fill="none" id="actor1861416877-UC872699266" style="stroke: #A80036; stroke-width: 1.0;"/><!--MD5=[550f76d003a3ea52aa4afcd07c052c3b]
link actor1861416877 to UC872699266--><path d="M68.95,532.2 C79.01,546.98 91.44,562.52 106,574 C129.28,592.35 163.31,601.32 183.55,610.55 " fill="none" id="actor1861416877-UC872699266-1" style="stroke: #A80036; stroke-width: 1.0;"/><!--MD5=[a5f0d929ec2d10a220af6972d2788b13]
link actor1861416877 to UC1150063356--><path d="M70.14,500.31 C93.15,502.93 124.92,503.44 151.35,501.84 " fill="none" id="actor1861416877-UC1150063356" style="stroke: #A80036; stroke-width: 1.0;"/><!--MD5=[a5f0d929ec2d10a220af6972d2788b13]
link actor1861416877 to UC1150063356--><path d="M70.14,479.08 C93.88,476.22 126.96,475.74 153.86,477.63 " fill="none" id="actor1861416877-UC1150063356-1" style="stroke: #A80036; stroke-width: 1.0;"/><!--MD5=[56a06debe3bf742d4e01d1c4f9065042]
link actor1861416877 to UC30604162--><path d="M70.31,506.9 C81.44,512.64 94.14,518.88 106,524 C125.37,532.36 147.54,540.41 165.54,546.58 " fill="none" id="actor1861416877-UC30604162" style="stroke: #A80036; stroke-width: 1.0;"/><!--MD5=[41e84a296fe8a1cb714d25f33c9bb3de]
link UC30604162 to actor517787604--><path d="M250.58,560.5 C285.1,562.29 330.76,564.66 361.42,566.26 " fill="none" id="UC30604162-actor517787604" style="stroke: #A80036; stroke-width: 1.0;"/><!--MD5=[ef52f4984777f65c7c6b16a0f94669c0]
link UC1150063356 to actor188193734--><path d="M270.91,485.92 C305.28,478.94 344.82,468.38 369.86,458.94 " fill="none" id="UC1150063356-actor188193734" style="stroke: #A80036; stroke-width: 1.0;"/><!--MD5=[ef52f4984777f65c7c6b16a0f94669c0]
link UC1150063356 to actor188193734--><path d="M227.67,474.52 C264.56,460.32 332.93,443.99 369.83,440.55 " fill="none" id="UC1150063356-actor188193734-1" style="stroke: #A80036; stroke-width: 1.0;"/><!--MD5=[b56224020e0f50b22901986256b6fa78]
link UC872699266 to actor517787604--><path d="M250.08,622.84 C284.6,614.88 330.44,600.67 361.25,588.14 " fill="none" id="UC872699266-actor517787604" style="stroke: #A80036; stroke-width: 1.0;"/><!--MD5=[b56224020e0f50b22901986256b6fa78]
link UC872699266 to actor517787604--><path d="M223.1,611.05 C256.18,595.41 321.44,575.15 361.35,567.59 " fill="none" id="UC872699266-actor517787604-1" style="stroke: #A80036; stroke-width: 1.0;"/><!--MD5=[e863014e027271d986aca718942ad4bc]
link UC293618119 to actor170611939--><path d="M221.66,693.3 C256.09,692.05 328.48,689.42 367.95,687.98 " fill="none" id="UC293618119-actor170611939" style="stroke: #A80036; stroke-width: 1.0;"/><!--MD5=[f6de24a507ff218285841d29f9a503de]
link actor1861416877 to UC2126545173--><path d="M43.28,532.06 C49.99,582 66.58,666.18 106,727 C126.47,758.58 163.46,784.08 184.58,796.93 " fill="none" id="actor1861416877-UC2126545173" style="stroke: #A80036; stroke-width: 1.0;"/><!--MD5=[40f6886f53a962cbda5bb996d44e4196]
link UC2126545173 to actor1407009494--><path d="M221.66,806 C258.37,806 338.25,806 375.34,806 " fill="none" id="UC2126545173-actor1407009494" style="stroke: #A80036; stroke-width: 1.0;"/><!--MD5=[63551822366462bc1c28ef4adf4e21c4]
link actor1861416877 to UC38851648--><path d="M39.66,532.25 C42.08,634.47 53.38,891.47 106,956 C123.63,977.62 156.14,985.5 178.04,988.36 " fill="none" id="actor1861416877-UC38851648" style="stroke: #A80036; stroke-width: 1.0;"/><!--MD5=[4de0fa389bb8947023a965c5580790c9]
link actor1861416877 to UC1992844647--><path d="M38.51,532.23 C39.51,601.05 49.14,739.67 106,839 C124.33,871.03 159.64,896.94 181.53,910.85 " fill="none" id="actor1861416877-UC1992844647" style="stroke: #A80036; stroke-width: 1.0;"/><!--MD5=[b4aa1ad222d1a6b9bf23ea635d37e0bd]
link UC1992844647 to actor2120154283--><path d="M228.06,922.4 C254.65,922.81 297.29,923.48 332.81,924.03 " fill="none" id="UC1992844647-actor2120154283" style="stroke: #A80036; stroke-width: 1.0;"/><!--MD5=[f8d3abc9378ac09243933b2d4a349a8f]
link UC38851648 to actor94690722--><path d="M223.47,995.88 C261.47,1006.54 341.1,1028.88 376.9,1038.92 " fill="none" id="UC38851648-actor94690722" style="stroke: #A80036; stroke-width: 1.0;"/><!--MD5=[66c326406e8ba56ee501aab687e74d18]
@startuml
 left to right direction

actor Sequence as actor1861416877

	rectangle main{
	 usecase waitFor as UC2131723476
	actor1861416877- -UC2131723476
	 usecase println as UC115297013
	actor1861416877- -UC115297013
	 usecase getClassList as UC628694336
	actor1861416877- -UC628694336
	}
	actor DataList as actor188193734
	 UC628694336 - - actor188193734
	actor PrintStream as actor652803980
	 UC115297013 - - actor652803980
	actor Process as actor1520921298
	 UC2131723476 - - actor1520921298
	rectangle makeString{
	 usecase append as UC1510333744
	actor1861416877- -UC1510333744
	 usecase toString as UC458385820
	actor1861416877- -UC458385820
	}
	actor StringBuilder as actor230610941
	 UC458385820 - - actor230610941
	actor StringBuilder as actor230610941
	 UC1510333744 - - actor230610941
	rectangle getCallerFunList{
	 usecase add as UC293618119
	actor1861416877- -UC293618119
	 usecase getClassList as UC628694336
	actor1861416877- -UC628694336
	 usecase getCallList as UC872699266
	actor1861416877- -UC872699266
	 usecase getFunctionList as UC1150063356
	actor1861416877- -UC1150063356
	 usecase getHasList as UC30604162
	actor1861416877- -UC30604162
	}
	actor Data_base as actor517787604
	 UC30604162 - - actor517787604
	actor DataList as actor188193734
	 UC1150063356 - - actor188193734
	actor Data_base as actor517787604
	 UC872699266 - - actor517787604
	actor DataList as actor188193734
	 UC628694336 - - actor188193734
	actor ArrayList as actor170611939
	 UC293618119 - - actor170611939
	rectangle drawConnect{
	 usecase append as UC1510333744
	actor1861416877- -UC1510333744
	 usecase add as UC2126545173
	actor1861416877- -UC2126545173
	 usecase getFunctionList as UC1150063356
	actor1861416877- -UC1150063356
	 usecase getCallList as UC872699266
	actor1861416877- -UC872699266
	}
	actor Data_base as actor517787604
	 UC872699266 - - actor517787604
	actor DataList as actor188193734
	 UC1150063356 - - actor188193734
	actor Vector as actor1407009494
	 UC2126545173 - - actor1407009494
	actor StringBuilder as actor230610941
	 UC1510333744 - - actor230610941
	rectangle makeFile{
	 usecase write as UC38851648
	actor1861416877- -UC38851648
	 usecase close as UC1992844647
	actor1861416877- -UC1992844647
	}
	actor OutputStreamWriter as actor2120154283
	 UC1992844647 - - actor2120154283
	actor Writer as actor94690722
	 UC38851648 - - actor94690722

@enduml

PlantUML version 1.2020.19(Tue Oct 13 00:10:01 KST 2020)
(APACHE source distribution)
Java Runtime: Java(TM) SE Runtime Environment
JVM: Java HotSpot(TM) 64-Bit Server VM
Default Encoding: MS949
Language: ko
Country: KR
--></g></svg>