<?xml version="1.0" encoding="UTF-8" standalone="no"?><svg xmlns="http://www.w3.org/2000/svg" xmlns:xlink="http://www.w3.org/1999/xlink" contentScriptType="application/ecmascript" contentStyleType="text/css" height="689px" preserveAspectRatio="none" style="width:442px;height:689px;" version="1.1" viewBox="0 0 442 689" width="442px" zoomAndPan="magnify"><defs><filter height="300%" id="f1wvzeoe5fodvs" width="300%" x="-1" y="-1"><feGaussianBlur result="blurOut" stdDeviation="2.0"/><feColorMatrix in="blurOut" result="blurOut2" type="matrix" values="0 0 0 0 0 0 0 0 0 0 0 0 0 0 0 0 0 0 .4 0"/><feOffset dx="4.0" dy="4.0" in="blurOut2" result="blurOut3"/><feBlend in="SourceGraphic" in2="blurOut3" mode="normal"/></filter></defs><g><!--MD5=[19cf646e193b9a40ce20afd4a39c7868]
cluster makeDateFolder--><rect fill="#FFFFFF" filter="url(#f1wvzeoe5fodvs)" height="88" style="stroke: #000000; stroke-width: 1.5;" width="131" x="108.5" y="20.5"/><text fill="#000000" font-family="sans-serif" font-size="14" font-weight="bold" lengthAdjust="spacingAndGlyphs" textLength="115" x="116.5" y="38.6533">makeDateFolder</text><!--MD5=[1e829f21a74d4de467c1b519aceec237]
cluster makeFile--><rect fill="#FFFFFF" filter="url(#f1wvzeoe5fodvs)" height="224" style="stroke: #000000; stroke-width: 1.5;" width="93" x="127" y="155.5"/><text fill="#000000" font-family="sans-serif" font-size="14" font-weight="bold" lengthAdjust="spacingAndGlyphs" textLength="63" x="142" y="173.6533">makeFile</text><!--MD5=[e87643375315858534042310e8422e5d]
cluster printLog--><rect fill="#FFFFFF" filter="url(#f1wvzeoe5fodvs)" height="226" style="stroke: #000000; stroke-width: 1.5;" width="183" x="82" y="403.5"/><text fill="#000000" font-family="sans-serif" font-size="14" font-weight="bold" lengthAdjust="spacingAndGlyphs" textLength="59" x="144" y="421.6533">printLog</text><ellipse cx="173.5416" cy="75.5973" fill="#FEFECE" filter="url(#f1wvzeoe5fodvs)" rx="27.0416" ry="16.5973" style="stroke: #A80036; stroke-width: 1.5;"/><text fill="#000000" font-family="sans-serif" font-size="14" lengthAdjust="spacingAndGlyphs" textLength="34" x="156.5416" y="81.7121">mkdir</text><ellipse cx="173.5772" cy="210.5973" fill="#FEFECE" filter="url(#f1wvzeoe5fodvs)" rx="30.5772" ry="16.5973" style="stroke: #A80036; stroke-width: 1.5;"/><text fill="#000000" font-family="sans-serif" font-size="14" lengthAdjust="spacingAndGlyphs" textLength="39" x="154.0772" y="216.7121">println</text><ellipse cx="173.5061" cy="278.5973" fill="#FEFECE" filter="url(#f1wvzeoe5fodvs)" rx="23.5061" ry="16.5973" style="stroke: #A80036; stroke-width: 1.5;"/><text fill="#000000" font-family="sans-serif" font-size="14" lengthAdjust="spacingAndGlyphs" textLength="29" x="159.0061" y="284.7121">write</text><ellipse cx="173.3345" cy="346.5973" fill="#FEFECE" filter="url(#f1wvzeoe5fodvs)" rx="26.3345" ry="16.5973" style="stroke: #A80036; stroke-width: 1.5;"/><text fill="#000000" font-family="sans-serif" font-size="14" lengthAdjust="spacingAndGlyphs" textLength="33" x="156.8345" y="352.7121">close</text><ellipse cx="173.3823" cy="458.5973" fill="#FEFECE" filter="url(#f1wvzeoe5fodvs)" rx="70.8823" ry="16.5973" style="stroke: #A80036; stroke-width: 1.5;"/><text fill="#000000" font-family="sans-serif" font-size="14" lengthAdjust="spacingAndGlyphs" textLength="96" x="125.3823" y="464.7121">getInputStream</text><ellipse cx="173.2986" cy="527.4597" fill="#FEFECE" filter="url(#f1wvzeoe5fodvs)" rx="75.2986" ry="17.4597" style="stroke: #A80036; stroke-width: 1.5;"/><text fill="#000000" font-family="sans-serif" font-size="14" lengthAdjust="spacingAndGlyphs" textLength="108" x="119.2986" y="533.5745">getOutputStream</text><ellipse cx="173.598" cy="596.5973" fill="#FEFECE" filter="url(#f1wvzeoe5fodvs)" rx="42.598" ry="16.5973" style="stroke: #A80036; stroke-width: 1.5;"/><text fill="#000000" font-family="sans-serif" font-size="14" lengthAdjust="spacingAndGlyphs" textLength="56" x="145.598" y="602.7121">readLine</text><!--MD5=[7cef00015646b70125f20e642565791e]
entity actor260580453--><ellipse cx="22" cy="280" fill="#FEFECE" filter="url(#f1wvzeoe5fodvs)" rx="8" ry="8" style="stroke: #A80036; stroke-width: 1.5;"/><path d="M22,288 L22,315 M9,296 L35,296 M22,315 L9,330 M22,315 L35,330 " fill="none" filter="url(#f1wvzeoe5fodvs)" style="stroke: #A80036; stroke-width: 1.5;"/><text fill="#000000" font-family="sans-serif" font-size="14" lengthAdjust="spacingAndGlyphs" textLength="32" x="6" y="351.6533">Base</text><!--MD5=[347317f6aa291d8bb4f23a8bf0a90493]
entity actor2059316201--><ellipse cx="372" cy="14" fill="#FEFECE" filter="url(#f1wvzeoe5fodvs)" rx="8" ry="8" style="stroke: #A80036; stroke-width: 1.5;"/><path d="M372,22 L372,49 M359,30 L385,30 M372,49 L359,64 M372,49 L385,64 " fill="none" filter="url(#f1wvzeoe5fodvs)" style="stroke: #A80036; stroke-width: 1.5;"/><text fill="#000000" font-family="sans-serif" font-size="14" lengthAdjust="spacingAndGlyphs" textLength="23" x="360.5" y="85.6533">File</text><!--MD5=[6e5b8b9080bf40386e983222e37dc0c6]
entity actor2120154283--><ellipse cx="372" cy="371" fill="#FEFECE" filter="url(#f1wvzeoe5fodvs)" rx="8" ry="8" style="stroke: #A80036; stroke-width: 1.5;"/><path d="M372,379 L372,406 M359,387 L385,387 M372,406 L359,421 M372,406 L385,421 " fill="none" filter="url(#f1wvzeoe5fodvs)" style="stroke: #A80036; stroke-width: 1.5;"/><text fill="#000000" font-family="sans-serif" font-size="14" lengthAdjust="spacingAndGlyphs" textLength="126" x="309" y="442.6533">OutputStreamWriter</text><!--MD5=[d11812ca287f6e2b9360f0be547853e2]
entity actor94690722--><ellipse cx="372" cy="252" fill="#FEFECE" filter="url(#f1wvzeoe5fodvs)" rx="8" ry="8" style="stroke: #A80036; stroke-width: 1.5;"/><path d="M372,260 L372,287 M359,268 L385,268 M372,287 L359,302 M372,287 L385,302 " fill="none" filter="url(#f1wvzeoe5fodvs)" style="stroke: #A80036; stroke-width: 1.5;"/><text fill="#000000" font-family="sans-serif" font-size="14" lengthAdjust="spacingAndGlyphs" textLength="38" x="353" y="323.6533">Writer</text><!--MD5=[2699aedbcd2b1f3b132d3903ac9b60ef]
entity actor652803980--><ellipse cx="372" cy="133" fill="#FEFECE" filter="url(#f1wvzeoe5fodvs)" rx="8" ry="8" style="stroke: #A80036; stroke-width: 1.5;"/><path d="M372,141 L372,168 M359,149 L385,149 M372,168 L359,183 M372,168 L385,183 " fill="none" filter="url(#f1wvzeoe5fodvs)" style="stroke: #A80036; stroke-width: 1.5;"/><text fill="#000000" font-family="sans-serif" font-size="14" lengthAdjust="spacingAndGlyphs" textLength="74" x="335" y="204.6533">PrintStream</text><!--MD5=[9455588c81ef6de97f272a1ad33b208f]
entity actor381516513--><ellipse cx="372" cy="609" fill="#FEFECE" filter="url(#f1wvzeoe5fodvs)" rx="8" ry="8" style="stroke: #A80036; stroke-width: 1.5;"/><path d="M372,617 L372,644 M359,625 L385,625 M372,644 L359,659 M372,644 L385,659 " fill="none" filter="url(#f1wvzeoe5fodvs)" style="stroke: #A80036; stroke-width: 1.5;"/><text fill="#000000" font-family="sans-serif" font-size="14" lengthAdjust="spacingAndGlyphs" textLength="101" x="321.5" y="680.6533">BufferedReader</text><!--MD5=[25172bbf95bdbbdb21e6a8bcedfbc865]
entity actor1520921298--><ellipse cx="372" cy="490" fill="#FEFECE" filter="url(#f1wvzeoe5fodvs)" rx="8" ry="8" style="stroke: #A80036; stroke-width: 1.5;"/><path d="M372,498 L372,525 M359,506 L385,506 M372,525 L359,540 M372,525 L385,540 " fill="none" filter="url(#f1wvzeoe5fodvs)" style="stroke: #A80036; stroke-width: 1.5;"/><text fill="#000000" font-family="sans-serif" font-size="14" lengthAdjust="spacingAndGlyphs" textLength="51" x="346.5" y="561.6533">Process</text><!--MD5=[fac01c30fa9a4748eacf0510886cb8d2]
link actor260580453 to UC398468940--><path d="M34.09,270.3 C42.51,242.59 55.77,206.29 74,177.5 C97.18,140.9 135.05,106.41 156.45,88.43 " fill="none" id="actor260580453-UC398468940" style="stroke: #A80036; stroke-width: 1.0;"/><!--MD5=[9c7d3dcefc0734dfabcf87b1d58bcb61]
link UC398468940 to actor2059316201--><path d="M200.19,71.71 C242.43,65.48 325.08,53.28 357.5,48.49 " fill="none" id="UC398468940-actor2059316201" style="stroke: #A80036; stroke-width: 1.0;"/><!--MD5=[15ff4ae1615b39917f06656d98ff596a]
link actor260580453 to UC115297013--><path d="M38.12,300.28 C46.99,288.31 59.33,272.19 74,261.5 C99.58,242.85 136.22,233.81 156.84,224.53 " fill="none" id="actor260580453-UC115297013" style="stroke: #A80036; stroke-width: 1.0;"/><!--MD5=[15ff4ae1615b39917f06656d98ff596a]
link actor260580453 to UC115297013--><path d="M37.47,270.32 C46.38,254.1 58.97,237.45 74,226.5 C96.66,209.98 127.99,201 149.18,200.48 " fill="none" id="actor260580453-UC115297013-1" style="stroke: #A80036; stroke-width: 1.0;"/><!--MD5=[0f9762fe90496701670fe28fb687debf]
link actor260580453 to UC38851648--><path d="M38.16,309.05 C64.81,302.99 120.13,290.41 150.82,283.43 " fill="none" id="actor260580453-UC38851648" style="stroke: #A80036; stroke-width: 1.0;"/><!--MD5=[0cb27008554d1e83e02a6c4bab5d52f2]
link actor260580453 to UC1992844647--><path d="M38.16,315.95 C64.14,321.86 117.38,333.96 148.47,341.03 " fill="none" id="actor260580453-UC1992844647" style="stroke: #A80036; stroke-width: 1.0;"/><!--MD5=[b4aa1ad222d1a6b9bf23ea635d37e0bd]
link UC1992844647 to actor2120154283--><path d="M197.81,353.26 C224.96,361.14 270.89,374.46 308.63,385.41 " fill="none" id="UC1992844647-actor2120154283" style="stroke: #A80036; stroke-width: 1.0;"/><!--MD5=[f8d3abc9378ac09243933b2d4a349a8f]
link UC38851648 to actor94690722--><path d="M197.04,279.19 C236.36,280.39 316.71,282.84 352.77,283.94 " fill="none" id="UC38851648-actor94690722" style="stroke: #A80036; stroke-width: 1.0;"/><!--MD5=[506482d4508c62cd36a898b620d47403]
link UC115297013 to actor652803980--><path d="M203.92,213.17 C238.82,209.37 297.01,196.29 334.69,183.97 " fill="none" id="UC115297013-actor652803980" style="stroke: #A80036; stroke-width: 1.0;"/><!--MD5=[506482d4508c62cd36a898b620d47403]
link UC115297013 to actor652803980--><path d="M193.34,197.83 C225.81,184.46 292.83,168.31 334.64,163.07 " fill="none" id="UC115297013-actor652803980-1" style="stroke: #A80036; stroke-width: 1.0;"/><!--MD5=[a2de7331c19ce954413c58f4712e0f9b]
link actor260580453 to UC95476731--><path d="M38.04,335.02 C47.59,348.57 60.63,365.79 74,379.5 C97.72,403.83 128.83,427.66 149.68,442.67 " fill="none" id="actor260580453-UC95476731" style="stroke: #A80036; stroke-width: 1.0;"/><!--MD5=[5331aecb808274b56e0f35f66a0eb050]
link actor260580453 to UC1268629255--><path d="M24.24,354.59 C27.64,394.88 38.81,454.93 74,492.5 C84.61,503.82 99.12,511.49 113.74,516.67 " fill="none" id="actor260580453-UC1268629255" style="stroke: #A80036; stroke-width: 1.0;"/><!--MD5=[14fb29bd761b98b2ff128d29484dcf9d]
link actor260580453 to UC127401209--><path d="M26.58,354.72 C32.74,417.68 47.32,532.07 74,562.5 C88.67,579.23 111.98,587.73 132.24,592.05 " fill="none" id="actor260580453-UC127401209" style="stroke: #A80036; stroke-width: 1.0;"/><!--MD5=[e97b28e96051139399671bd88be8f3f8]
link UC127401209 to actor381516513--><path d="M210.54,604.75 C241.67,611.88 286.97,622.26 321.5,630.16 " fill="none" id="UC127401209-actor381516513" style="stroke: #A80036; stroke-width: 1.0;"/><!--MD5=[5e6d2d6c62e51fff28891001ef102c7b]
link UC1268629255 to actor1520921298--><path d="M248.79,525.61 C283.13,524.74 321.64,523.76 346.08,523.13 " fill="none" id="UC1268629255-actor1520921298" style="stroke: #A80036; stroke-width: 1.0;"/><!--MD5=[e549ce0e07057c47dd65e615be108160]
link UC95476731 to actor1520921298--><path d="M215.69,471.92 C255.19,484.78 313.53,503.78 346.31,514.46 " fill="none" id="UC95476731-actor1520921298" style="stroke: #A80036; stroke-width: 1.0;"/><!--MD5=[c0032e8c3345332c0f342e0c168117a8]
@startuml
 left to right direction

actor Base as actor260580453

	rectangle makeDateFolder{
	 usecase mkdir as UC398468940
	actor260580453- -UC398468940
	}
	actor File as actor2059316201
	 UC398468940 - - actor2059316201
	rectangle makeFile{
	 usecase println as UC115297013
	actor260580453- -UC115297013
	 usecase write as UC38851648
	actor260580453- -UC38851648
	 usecase close as UC1992844647
	actor260580453- -UC1992844647
	}
	actor OutputStreamWriter as actor2120154283
	 UC1992844647 - - actor2120154283
	actor Writer as actor94690722
	 UC38851648 - - actor94690722
	actor PrintStream as actor652803980
	 UC115297013 - - actor652803980
	rectangle printLog{
	 usecase getInputStream as UC95476731
	actor260580453- -UC95476731
	 usecase getOutputStream as UC1268629255
	actor260580453- -UC1268629255
	 usecase println as UC115297013
	actor260580453- -UC115297013
	 usecase readLine as UC127401209
	actor260580453- -UC127401209
	}
	actor BufferedReader as actor381516513
	 UC127401209 - - actor381516513
	actor PrintStream as actor652803980
	 UC115297013 - - actor652803980
	actor Process as actor1520921298
	 UC1268629255 - - actor1520921298
	actor Process as actor1520921298
	 UC95476731 - - actor1520921298

@enduml

PlantUML version 1.2020.19(Tue Oct 13 00:10:01 KST 2020)
(APACHE source distribution)
Java Runtime: Java(TM) SE Runtime Environment
JVM: Java HotSpot(TM) 64-Bit Server VM
Default Encoding: MS949
Language: ko
Country: KR
--></g></svg>