<?xml version="1.0" encoding="UTF-8" standalone="no"?><svg xmlns="http://www.w3.org/2000/svg" xmlns:xlink="http://www.w3.org/1999/xlink" contentScriptType="application/ecmascript" contentStyleType="text/css" height="1596px" preserveAspectRatio="none" style="width:550px;height:1596px;" version="1.1" viewBox="0 0 550 1596" width="550px" zoomAndPan="magnify"><defs><filter height="300%" id="f1rf8wiqljhdb8" width="300%" x="-1" y="-1"><feGaussianBlur result="blurOut" stdDeviation="2.0"/><feColorMatrix in="blurOut" result="blurOut2" type="matrix" values="0 0 0 0 0 0 0 0 0 0 0 0 0 0 0 0 0 0 .4 0"/><feOffset dx="4.0" dy="4.0" in="blurOut2" result="blurOut3"/><feBlend in="SourceGraphic" in2="blurOut3" mode="normal"/></filter></defs><g><!--MD5=[a70b0d373322012744ecc119c63f921b]
cluster main--><rect fill="#FFFFFF" filter="url(#f1rf8wiqljhdb8)" height="292" style="stroke: #000000; stroke-width: 1.5;" width="140" x="215.5" y="8.5"/><text fill="#000000" font-family="sans-serif" font-size="14" font-weight="bold" lengthAdjust="spacingAndGlyphs" textLength="33" x="269" y="26.6533">main</text><!--MD5=[b4ad4898268678f15fc8d4512d654a18]
cluster draw--><rect fill="#FFFFFF" filter="url(#f1rf8wiqljhdb8)" height="224" style="stroke: #000000; stroke-width: 1.5;" width="175" x="198" y="324.5"/><text fill="#000000" font-family="sans-serif" font-size="14" font-weight="bold" lengthAdjust="spacingAndGlyphs" textLength="34" x="268.5" y="342.6533">draw</text><!--MD5=[19cf646e193b9a40ce20afd4a39c7868]
cluster makeDateFolder--><rect fill="#FFFFFF" filter="url(#f1rf8wiqljhdb8)" height="88" style="stroke: #000000; stroke-width: 1.5;" width="131" x="220.5" y="572.5"/><text fill="#000000" font-family="sans-serif" font-size="14" font-weight="bold" lengthAdjust="spacingAndGlyphs" textLength="115" x="228.5" y="590.6533">makeDateFolder</text><!--MD5=[6ee3fac338bc1a055eceb2e550633884]
cluster makeData_base--><rect fill="#FFFFFF" filter="url(#f1rf8wiqljhdb8)" height="156" style="stroke: #000000; stroke-width: 1.5;" width="126" x="223" y="684.5"/><text fill="#000000" font-family="sans-serif" font-size="14" font-weight="bold" lengthAdjust="spacingAndGlyphs" textLength="110" x="231" y="702.6533">makeData_base</text><!--MD5=[1e829f21a74d4de467c1b519aceec237]
cluster makeFile--><rect fill="#FFFFFF" filter="url(#f1rf8wiqljhdb8)" height="156" style="stroke: #000000; stroke-width: 1.5;" width="85" x="243" y="864.5"/><text fill="#000000" font-family="sans-serif" font-size="14" font-weight="bold" lengthAdjust="spacingAndGlyphs" textLength="63" x="254" y="882.6533">makeFile</text><!--MD5=[600e115adc72a6cbabecdb59f99145ea]
cluster classDef--><rect fill="#FFFFFF" filter="url(#f1rf8wiqljhdb8)" height="224" style="stroke: #000000; stroke-width: 1.5;" width="154" x="208.5" y="1044.5"/><text fill="#000000" font-family="sans-serif" font-size="14" font-weight="bold" lengthAdjust="spacingAndGlyphs" textLength="60" x="255.5" y="1062.6533">classDef</text><!--MD5=[f187f0e524dea2ebe3ce3bb66eee0c84]
cluster addList--><rect fill="#FFFFFF" filter="url(#f1rf8wiqljhdb8)" height="292" style="stroke: #000000; stroke-width: 1.5;" width="162" x="204.5" y="1292.5"/><text fill="#000000" font-family="sans-serif" font-size="14" font-weight="bold" lengthAdjust="spacingAndGlyphs" textLength="51" x="260" y="1310.6533">addList</text><ellipse cx="285.5061" cy="63.5973" fill="#FEFECE" filter="url(#f1rf8wiqljhdb8)" rx="23.5061" ry="16.5973" style="stroke: #A80036; stroke-width: 1.5;"/><text fill="#000000" font-family="sans-serif" font-size="14" lengthAdjust="spacingAndGlyphs" textLength="29" x="271.0061" y="69.7121">exec</text><ellipse cx="285.4117" cy="131.5973" fill="#FEFECE" filter="url(#f1rf8wiqljhdb8)" rx="53.9117" ry="16.5973" style="stroke: #A80036; stroke-width: 1.5;"/><text fill="#000000" font-family="sans-serif" font-size="14" lengthAdjust="spacingAndGlyphs" textLength="72" x="249.4117" y="137.7121">getRuntime</text><ellipse cx="285.5269" cy="199.5973" fill="#FEFECE" filter="url(#f1rf8wiqljhdb8)" rx="35.5269" ry="16.5973" style="stroke: #A80036; stroke-width: 1.5;"/><text fill="#000000" font-family="sans-serif" font-size="14" lengthAdjust="spacingAndGlyphs" textLength="46" x="262.5269" y="205.7121">waitFor</text><ellipse cx="285.5772" cy="267.5973" fill="#FEFECE" filter="url(#f1rf8wiqljhdb8)" rx="30.5772" ry="16.5973" style="stroke: #A80036; stroke-width: 1.5;"/><text fill="#000000" font-family="sans-serif" font-size="14" lengthAdjust="spacingAndGlyphs" textLength="39" x="266.0772" y="273.7121">println</text><ellipse cx="285.4472" cy="379.5973" fill="#FEFECE" filter="url(#f1rf8wiqljhdb8)" rx="57.4472" ry="16.5973" style="stroke: #A80036; stroke-width: 1.5;"/><text fill="#000000" font-family="sans-serif" font-size="14" lengthAdjust="spacingAndGlyphs" textLength="77" x="246.9472" y="385.7121">getClassList</text><ellipse cx="285.2886" cy="447.6577" fill="#FEFECE" filter="url(#f1rf8wiqljhdb8)" rx="71.2886" ry="16.6577" style="stroke: #A80036; stroke-width: 1.5;"/><text fill="#000000" font-family="sans-serif" font-size="14" lengthAdjust="spacingAndGlyphs" textLength="97" x="236.7886" y="453.7725">getFunctionList</text><ellipse cx="285.2609" cy="515.5973" fill="#FEFECE" filter="url(#f1rf8wiqljhdb8)" rx="68.7609" ry="16.5973" style="stroke: #A80036; stroke-width: 1.5;"/><text fill="#000000" font-family="sans-serif" font-size="14" lengthAdjust="spacingAndGlyphs" textLength="93" x="238.7609" y="521.7121">getMemberList</text><ellipse cx="285.5416" cy="627.5973" fill="#FEFECE" filter="url(#f1rf8wiqljhdb8)" rx="27.0416" ry="16.5973" style="stroke: #A80036; stroke-width: 1.5;"/><text fill="#000000" font-family="sans-serif" font-size="14" lengthAdjust="spacingAndGlyphs" textLength="34" x="268.5416" y="633.7121">mkdir</text><!--MD5=[daf60f13c572e329bb430479c6f3e6fd]
entity makeDataListFolder--><rect fill="#FFFFFF" filter="url(#f1rf8wiqljhdb8)" height="39.2295" style="stroke: #000000; stroke-width: 1.5;" width="147" x="7" y="705"/><text fill="#000000" font-family="sans-serif" font-size="14" lengthAdjust="spacingAndGlyphs" textLength="127" x="17" y="731.1533">makeDataListFolder</text><ellipse cx="285.4411" cy="739.5973" fill="#FEFECE" filter="url(#f1rf8wiqljhdb8)" rx="36.9411" ry="16.5973" style="stroke: #A80036; stroke-width: 1.5;"/><text fill="#000000" font-family="sans-serif" font-size="14" lengthAdjust="spacingAndGlyphs" textLength="48" x="261.4411" y="745.7121">append</text><ellipse cx="285.6482" cy="807.5973" fill="#FEFECE" filter="url(#f1rf8wiqljhdb8)" rx="37.6482" ry="16.5973" style="stroke: #A80036; stroke-width: 1.5;"/><text fill="#000000" font-family="sans-serif" font-size="14" lengthAdjust="spacingAndGlyphs" textLength="49" x="261.1482" y="813.7121">toString</text><ellipse cx="285.5061" cy="919.5973" fill="#FEFECE" filter="url(#f1rf8wiqljhdb8)" rx="23.5061" ry="16.5973" style="stroke: #A80036; stroke-width: 1.5;"/><text fill="#000000" font-family="sans-serif" font-size="14" lengthAdjust="spacingAndGlyphs" textLength="29" x="271.0061" y="925.7121">write</text><ellipse cx="285.3345" cy="987.5973" fill="#FEFECE" filter="url(#f1rf8wiqljhdb8)" rx="26.3345" ry="16.5973" style="stroke: #A80036; stroke-width: 1.5;"/><text fill="#000000" font-family="sans-serif" font-size="14" lengthAdjust="spacingAndGlyphs" textLength="33" x="268.8345" y="993.7121">close</text><ellipse cx="285.669" cy="1099.5973" fill="#FEFECE" filter="url(#f1rf8wiqljhdb8)" rx="49.669" ry="16.5973" style="stroke: #A80036; stroke-width: 1.5;"/><text fill="#000000" font-family="sans-serif" font-size="14" lengthAdjust="spacingAndGlyphs" textLength="66" x="252.669" y="1105.7121">getHasList</text><ellipse cx="285.669" cy="1167.5973" fill="#FEFECE" filter="url(#f1rf8wiqljhdb8)" rx="49.669" ry="16.5973" style="stroke: #A80036; stroke-width: 1.5;"/><text fill="#000000" font-family="sans-serif" font-size="14" lengthAdjust="spacingAndGlyphs" textLength="66" x="252.669" y="1173.7121">getCallList</text><ellipse cx="285.4828" cy="1235.5973" fill="#FEFECE" filter="url(#f1rf8wiqljhdb8)" rx="60.9828" ry="16.5973" style="stroke: #A80036; stroke-width: 1.5;"/><text fill="#000000" font-family="sans-serif" font-size="14" lengthAdjust="spacingAndGlyphs" textLength="82" x="244.4828" y="1241.7121">getCallByList</text><ellipse cx="285.598" cy="1347.5973" fill="#FEFECE" filter="url(#f1rf8wiqljhdb8)" rx="42.598" ry="16.5973" style="stroke: #A80036; stroke-width: 1.5;"/><text fill="#000000" font-family="sans-serif" font-size="14" lengthAdjust="spacingAndGlyphs" textLength="56" x="257.598" y="1353.7121">getName</text><ellipse cx="285.7254" cy="1415.5973" fill="#FEFECE" filter="url(#f1rf8wiqljhdb8)" rx="65.2254" ry="16.5973" style="stroke: #A80036; stroke-width: 1.5;"/><text fill="#000000" font-family="sans-serif" font-size="14" lengthAdjust="spacingAndGlyphs" textLength="88" x="241.7254" y="1421.7121">getTypeName</text><ellipse cx="285.7254" cy="1483.5973" fill="#FEFECE" filter="url(#f1rf8wiqljhdb8)" rx="65.2254" ry="16.5973" style="stroke: #A80036; stroke-width: 1.5;"/><text fill="#000000" font-family="sans-serif" font-size="14" lengthAdjust="spacingAndGlyphs" textLength="88" x="241.7254" y="1489.7121">getTypeName</text><ellipse cx="285.2843" cy="1551.5973" fill="#FEFECE" filter="url(#f1rf8wiqljhdb8)" rx="31.2843" ry="16.5973" style="stroke: #A80036; stroke-width: 1.5;"/><text fill="#000000" font-family="sans-serif" font-size="14" lengthAdjust="spacingAndGlyphs" textLength="40" x="265.2843" y="1557.7121">getSig</text><!--MD5=[96770f595d129f432d7a0d1ae868de57]
entity actor923366543--><ellipse cx="80.5" cy="595" fill="#FEFECE" filter="url(#f1rf8wiqljhdb8)" rx="8" ry="8" style="stroke: #A80036; stroke-width: 1.5;"/><path d="M80.5,603 L80.5,630 M67.5,611 L93.5,611 M80.5,630 L67.5,645 M80.5,630 L93.5,645 " fill="none" filter="url(#f1rf8wiqljhdb8)" style="stroke: #A80036; stroke-width: 1.5;"/><text fill="#000000" font-family="sans-serif" font-size="14" lengthAdjust="spacingAndGlyphs" textLength="105" x="28" y="666.6533">DataListDiagram</text><!--MD5=[2699aedbcd2b1f3b132d3903ac9b60ef]
entity actor652803980--><ellipse cx="480" cy="252" fill="#FEFECE" filter="url(#f1rf8wiqljhdb8)" rx="8" ry="8" style="stroke: #A80036; stroke-width: 1.5;"/><path d="M480,260 L480,287 M467,268 L493,268 M480,287 L467,302 M480,287 L493,302 " fill="none" filter="url(#f1rf8wiqljhdb8)" style="stroke: #A80036; stroke-width: 1.5;"/><text fill="#000000" font-family="sans-serif" font-size="14" lengthAdjust="spacingAndGlyphs" textLength="74" x="443" y="323.6533">PrintStream</text><!--MD5=[25172bbf95bdbbdb21e6a8bcedfbc865]
entity actor1520921298--><ellipse cx="480" cy="133" fill="#FEFECE" filter="url(#f1rf8wiqljhdb8)" rx="8" ry="8" style="stroke: #A80036; stroke-width: 1.5;"/><path d="M480,141 L480,168 M467,149 L493,149 M480,168 L467,183 M480,168 L493,183 " fill="none" filter="url(#f1rf8wiqljhdb8)" style="stroke: #A80036; stroke-width: 1.5;"/><text fill="#000000" font-family="sans-serif" font-size="14" lengthAdjust="spacingAndGlyphs" textLength="51" x="454.5" y="204.6533">Process</text><!--MD5=[6fb069653bc4eca858f58303df485e78]
entity actor1494051958--><ellipse cx="480" cy="14" fill="#FEFECE" filter="url(#f1rf8wiqljhdb8)" rx="8" ry="8" style="stroke: #A80036; stroke-width: 1.5;"/><path d="M480,22 L480,49 M467,30 L493,30 M480,49 L467,64 M480,49 L493,64 " fill="none" filter="url(#f1rf8wiqljhdb8)" style="stroke: #A80036; stroke-width: 1.5;"/><text fill="#000000" font-family="sans-serif" font-size="14" lengthAdjust="spacingAndGlyphs" textLength="52" x="454" y="85.6533">Runtime</text><!--MD5=[2402d7512d9aa01d473b8fba52e12d98]
entity actor188193734--><ellipse cx="480" cy="415" fill="#FEFECE" filter="url(#f1rf8wiqljhdb8)" rx="8" ry="8" style="stroke: #A80036; stroke-width: 1.5;"/><path d="M480,423 L480,450 M467,431 L493,431 M480,450 L467,465 M480,450 L493,465 " fill="none" filter="url(#f1rf8wiqljhdb8)" style="stroke: #A80036; stroke-width: 1.5;"/><text fill="#000000" font-family="sans-serif" font-size="14" lengthAdjust="spacingAndGlyphs" textLength="52" x="454" y="486.6533">DataList</text><!--MD5=[347317f6aa291d8bb4f23a8bf0a90493]
entity actor2059316201--><ellipse cx="480" cy="592" fill="#FEFECE" filter="url(#f1rf8wiqljhdb8)" rx="8" ry="8" style="stroke: #A80036; stroke-width: 1.5;"/><path d="M480,600 L480,627 M467,608 L493,608 M480,627 L467,642 M480,627 L493,642 " fill="none" filter="url(#f1rf8wiqljhdb8)" style="stroke: #A80036; stroke-width: 1.5;"/><text fill="#000000" font-family="sans-serif" font-size="14" lengthAdjust="spacingAndGlyphs" textLength="23" x="468.5" y="663.6533">File</text><!--MD5=[864f7e280385d8f93481e354d7c7de74]
entity actor230610941--><ellipse cx="480" cy="711" fill="#FEFECE" filter="url(#f1rf8wiqljhdb8)" rx="8" ry="8" style="stroke: #A80036; stroke-width: 1.5;"/><path d="M480,719 L480,746 M467,727 L493,727 M480,746 L467,761 M480,746 L493,761 " fill="none" filter="url(#f1rf8wiqljhdb8)" style="stroke: #A80036; stroke-width: 1.5;"/><text fill="#000000" font-family="sans-serif" font-size="14" lengthAdjust="spacingAndGlyphs" textLength="81" x="439.5" y="782.6533">StringBuilder</text><!--MD5=[6e5b8b9080bf40386e983222e37dc0c6]
entity actor2120154283--><ellipse cx="480" cy="981" fill="#FEFECE" filter="url(#f1rf8wiqljhdb8)" rx="8" ry="8" style="stroke: #A80036; stroke-width: 1.5;"/><path d="M480,989 L480,1016 M467,997 L493,997 M480,1016 L467,1031 M480,1016 L493,1031 " fill="none" filter="url(#f1rf8wiqljhdb8)" style="stroke: #A80036; stroke-width: 1.5;"/><text fill="#000000" font-family="sans-serif" font-size="14" lengthAdjust="spacingAndGlyphs" textLength="126" x="417" y="1052.6533">OutputStreamWriter</text><!--MD5=[d11812ca287f6e2b9360f0be547853e2]
entity actor94690722--><ellipse cx="480" cy="862" fill="#FEFECE" filter="url(#f1rf8wiqljhdb8)" rx="8" ry="8" style="stroke: #A80036; stroke-width: 1.5;"/><path d="M480,870 L480,897 M467,878 L493,878 M480,897 L467,912 M480,897 L493,912 " fill="none" filter="url(#f1rf8wiqljhdb8)" style="stroke: #A80036; stroke-width: 1.5;"/><text fill="#000000" font-family="sans-serif" font-size="14" lengthAdjust="spacingAndGlyphs" textLength="38" x="461" y="933.6533">Writer</text><!--MD5=[d90094311435cfb86829af3e65eedad8]
entity actor517787604--><ellipse cx="480" cy="1169" fill="#FEFECE" filter="url(#f1rf8wiqljhdb8)" rx="8" ry="8" style="stroke: #A80036; stroke-width: 1.5;"/><path d="M480,1177 L480,1204 M467,1185 L493,1185 M480,1204 L467,1219 M480,1204 L493,1219 " fill="none" filter="url(#f1rf8wiqljhdb8)" style="stroke: #A80036; stroke-width: 1.5;"/><text fill="#000000" font-family="sans-serif" font-size="14" lengthAdjust="spacingAndGlyphs" textLength="69" x="445.5" y="1240.6533">Data_base</text><!--MD5=[c3a79de3dfdf70b4ead88bc26ff6f883]
entity actor927744186--><ellipse cx="480" cy="1510" fill="#FEFECE" filter="url(#f1rf8wiqljhdb8)" rx="8" ry="8" style="stroke: #A80036; stroke-width: 1.5;"/><path d="M480,1518 L480,1545 M467,1526 L493,1526 M480,1545 L467,1560 M480,1545 L493,1560 " fill="none" filter="url(#f1rf8wiqljhdb8)" style="stroke: #A80036; stroke-width: 1.5;"/><text fill="#000000" font-family="sans-serif" font-size="14" lengthAdjust="spacingAndGlyphs" textLength="55" x="452.5" y="1581.6533">Function</text><!--MD5=[ff2cfac5f43e701ce7de056768dc8c39]
entity actor417118375--><ellipse cx="480" cy="1383" fill="#FEFECE" filter="url(#f1rf8wiqljhdb8)" rx="8" ry="8" style="stroke: #A80036; stroke-width: 1.5;"/><path d="M480,1391 L480,1418 M467,1399 L493,1399 M480,1418 L467,1433 M480,1418 L493,1433 " fill="none" filter="url(#f1rf8wiqljhdb8)" style="stroke: #A80036; stroke-width: 1.5;"/><text fill="#000000" font-family="sans-serif" font-size="14" lengthAdjust="spacingAndGlyphs" textLength="51" x="454.5" y="1454.6533">Member</text><!--MD5=[254918ba7bc80323f74befab2af86442]
link actor923366543 to UC964895360--><path d="M84.87,585.17 C94.62,472.89 126.29,171.08 190,97.5 C208.15,76.54 240.21,68.5 261.9,65.42 " fill="none" id="actor923366543-UC964895360" style="stroke: #A80036; stroke-width: 1.0;"/><!--MD5=[3c60a4530184f6b93e2cbd474a41800d]
link actor923366543 to UC1231469233--><path d="M86.23,585.45 C98.47,483.73 134.15,228.16 190,165.5 C202.07,151.96 219.92,143.81 236.88,138.91 " fill="none" id="actor923366543-UC1231469233" style="stroke: #A80036; stroke-width: 1.0;"/><!--MD5=[d8fbaa2c8365ff4103ad3467973071cd]
link actor923366543 to UC2131723476--><path d="M81.09,585.3 C82.61,505.99 97.2,333.7 190,233.5 C205.76,216.49 230.65,207.97 250.93,203.72 " fill="none" id="actor923366543-UC2131723476" style="stroke: #A80036; stroke-width: 1.0;"/><!--MD5=[2478e264df8a3782aea2ce25e9dabeca]
link actor923366543 to UC115297013--><path d="M97.84,585.46 C114.24,532.79 143.79,446.02 190,381.5 C216.89,343.95 265.68,313.52 280.27,283.91 " fill="none" id="actor923366543-UC115297013" style="stroke: #A80036; stroke-width: 1.0;"/><!--MD5=[2478e264df8a3782aea2ce25e9dabeca]
link actor923366543 to UC115297013--><path d="M90.72,585.24 C104.87,527.28 136.11,421.75 190,346.5 C210.42,317.99 243.46,293.59 264.57,279.73 " fill="none" id="actor923366543-UC115297013-1" style="stroke: #A80036; stroke-width: 1.0;"/><!--MD5=[2478e264df8a3782aea2ce25e9dabeca]
link actor923366543 to UC115297013--><path d="M86.31,585.43 C97.62,518.36 129.56,395.9 190,311.5 C212.41,280.21 250.03,253.86 270.38,253.15 " fill="none" id="actor923366543-UC115297013-2" style="stroke: #A80036; stroke-width: 1.0;"/><!--MD5=[506482d4508c62cd36a898b620d47403]
link UC115297013 to actor652803980--><path d="M299.13,282.46 C327.9,298.64 399.21,307.33 442.91,302.33 " fill="none" id="UC115297013-actor652803980" style="stroke: #A80036; stroke-width: 1.0;"/><!--MD5=[506482d4508c62cd36a898b620d47403]
link UC115297013 to actor652803980--><path d="M315.74,270.08 C349.81,273.09 406.14,278.07 442.91,281.31 " fill="none" id="UC115297013-actor652803980-1" style="stroke: #A80036; stroke-width: 1.0;"/><!--MD5=[506482d4508c62cd36a898b620d47403]
link UC115297013 to actor652803980--><path d="M302.25,253.68 C332.78,243.95 400.71,248.01 442.9,260.29 " fill="none" id="UC115297013-actor652803980-2" style="stroke: #A80036; stroke-width: 1.0;"/><!--MD5=[01b9c20b3e5a4cf7782b39bdcd5fa690]
link UC2131723476 to actor1520921298--><path d="M319.16,193.73 C357.45,186.97 420.05,175.91 454.45,169.84 " fill="none" id="UC2131723476-actor1520921298" style="stroke: #A80036; stroke-width: 1.0;"/><!--MD5=[0a8eac8db88523e21a2fdba2683bc68d]
link UC1231469233 to actor1494051958--><path d="M323.3,119.55 C340.97,113.49 362.31,105.68 381,97.5 C406.3,86.42 434.15,71.67 453.67,60.88 " fill="none" id="UC1231469233-actor1494051958" style="stroke: #A80036; stroke-width: 1.0;"/><!--MD5=[ba3c77a8d1d3565e5b1cd37c72fa4b89]
link UC964895360 to actor1494051958--><path d="M308.96,61.52 C345.16,58.32 416.16,52.05 453.95,48.71 " fill="none" id="UC964895360-actor1494051958" style="stroke: #A80036; stroke-width: 1.0;"/><!--MD5=[dfbf8c52950d6897b58a971d68040eb4]
link actor923366543 to UC628694336--><path d="M96.86,585.31 C112.81,540.89 142.23,472.69 190,430.5 C211.17,411.8 243.39,403.15 264.2,395.01 " fill="none" id="actor923366543-UC628694336" style="stroke: #A80036; stroke-width: 1.0;"/><!--MD5=[dfbf8c52950d6897b58a971d68040eb4]
link actor923366543 to UC628694336--><path d="M89.21,585.24 C102.31,532.68 133.18,445.69 190,395.5 C201.76,385.11 216.93,377.83 231.66,373.53 " fill="none" id="actor923366543-UC628694336-1" style="stroke: #A80036; stroke-width: 1.0;"/><!--MD5=[399030e45df169103f525b9ed511c467]
link actor923366543 to UC1150063356--><path d="M112.76,585.44 C131.69,557.39 158.3,522.03 190,498.5 C212.96,481.46 245.29,472.3 265.55,463.44 " fill="none" id="actor923366543-UC1150063356" style="stroke: #A80036; stroke-width: 1.0;"/><!--MD5=[399030e45df169103f525b9ed511c467]
link actor923366543 to UC1150063356--><path d="M96.37,585.23 C114.38,547.49 147.65,494.93 190,463.5 C197.42,457.99 205.82,453.31 214.47,449.5 " fill="none" id="actor923366543-UC1150063356-1" style="stroke: #A80036; stroke-width: 1.0;"/><!--MD5=[67676078ca5aa3fc7a2de0f68cf5a0fa]
link actor923366543 to UC622625093--><path d="M133.25,610.23 C177.89,588.47 239.58,553.1 268.43,531.66 " fill="none" id="actor923366543-UC622625093" style="stroke: #A80036; stroke-width: 1.0;"/><!--MD5=[67676078ca5aa3fc7a2de0f68cf5a0fa]
link actor923366543 to UC622625093--><path d="M133.25,587.01 C166.61,566.33 209.5,542.88 241.08,528.15 " fill="none" id="actor923366543-UC622625093-1" style="stroke: #A80036; stroke-width: 1.0;"/><!--MD5=[505909958c623d9969035282adeaa485]
link UC622625093 to actor188193734--><path d="M344.52,506.82 C381.05,495.8 426.36,478.83 453.95,465.27 " fill="none" id="UC622625093-actor188193734" style="stroke: #A80036; stroke-width: 1.0;"/><!--MD5=[505909958c623d9969035282adeaa485]
link UC622625093 to actor188193734--><path d="M306.74,499.67 C342.16,481 415.31,454.9 453.9,446.91 " fill="none" id="UC622625093-actor188193734-1" style="stroke: #A80036; stroke-width: 1.0;"/><!--MD5=[ef52f4984777f65c7c6b16a0f94669c0]
link UC1150063356 to actor188193734--><path d="M337.33,458.89 C374.87,461.31 424.37,460.5 453.82,456.44 " fill="none" id="UC1150063356-actor188193734" style="stroke: #A80036; stroke-width: 1.0;"/><!--MD5=[ef52f4984777f65c7c6b16a0f94669c0]
link UC1150063356 to actor188193734--><path d="M335.08,435.6 C372.83,432.84 423.69,433.65 453.74,438.02 " fill="none" id="UC1150063356-actor188193734-1" style="stroke: #A80036; stroke-width: 1.0;"/><!--MD5=[ed1f67faa23d0b28af9cfaf9de6f75eb]
link UC628694336 to actor188193734--><path d="M306.74,394.84 C342.16,413.18 415.31,439.26 453.9,447.56 " fill="none" id="UC628694336-actor188193734" style="stroke: #A80036; stroke-width: 1.0;"/><!--MD5=[ed1f67faa23d0b28af9cfaf9de6f75eb]
link UC628694336 to actor188193734--><path d="M338.85,385.83 C376.26,396.6 424.92,414.7 453.96,429.21 " fill="none" id="UC628694336-actor188193734-1" style="stroke: #A80036; stroke-width: 1.0;"/><!--MD5=[316ee3b0f13b3e65bbcd3ca7d04f69b6]
link actor923366543 to UC398468940--><path d="M133.25,638.78 C174.83,641.45 231.22,640.48 262.06,635.86 " fill="none" id="actor923366543-UC398468940" style="stroke: #A80036; stroke-width: 1.0;"/><!--MD5=[316ee3b0f13b3e65bbcd3ca7d04f69b6]
link actor923366543 to UC398468940--><path d="M133.25,615.56 C175.07,612.71 231.86,613.77 262.58,618.73 " fill="none" id="actor923366543-UC398468940-1" style="stroke: #A80036; stroke-width: 1.0;"/><!--MD5=[9c7d3dcefc0734dfabcf87b1d58bcb61]
link UC398468940 to actor2059316201--><path d="M308.96,635.7 C349.23,641.16 432.55,639.33 465.33,631.67 " fill="none" id="UC398468940-actor2059316201" style="stroke: #A80036; stroke-width: 1.0;"/><!--MD5=[9c7d3dcefc0734dfabcf87b1d58bcb61]
link UC398468940 to actor2059316201--><path d="M308.21,618.23 C348.13,611.04 432.13,610.24 465.2,617.32 " fill="none" id="UC398468940-actor2059316201-1" style="stroke: #A80036; stroke-width: 1.0;"/><!--MD5=[3ed10e038fdd330755a29cba867c606f]
link actor923366543 to UC1510333744--><path d="M119.68,669.61 C156.67,697.1 212.32,727.66 248.53,740.26 " fill="none" id="actor923366543-UC1510333744" style="stroke: #A80036; stroke-width: 1.0;"/><!--MD5=[3ed10e038fdd330755a29cba867c606f]
link actor923366543 to UC1510333744--><path d="M133.25,656.05 C174.6,678.87 230.58,709.75 261.53,726.83 " fill="none" id="actor923366543-UC1510333744-1" style="stroke: #A80036; stroke-width: 1.0;"/><!--MD5=[3ed10e038fdd330755a29cba867c606f]
link actor923366543 to UC1510333744--><path d="M133.25,632.83 C182.35,653.42 252.09,695.86 276.04,723.51 " fill="none" id="actor923366543-UC1510333744-2" style="stroke: #A80036; stroke-width: 1.0;"/><!--MD5=[fd1f15bba339ed1cc09967caf10878db]
link actor923366543 to UC458385820--><path d="M133.28,664.97 C140.84,671.9 148.06,679.49 154,687.5 C178.68,720.79 159.96,744.96 190,773.5 C206.31,788.99 230.17,797.51 249.84,802.14 " fill="none" id="actor923366543-UC458385820" style="stroke: #A80036; stroke-width: 1.0;"/><!--MD5=[fe24e3c77f07c716b55f92ec959cee7d]
link UC458385820 to actor230610941--><path d="M316.16,797.64 C349.17,786.67 402.67,768.88 439.28,756.7 " fill="none" id="UC458385820-actor230610941" style="stroke: #A80036; stroke-width: 1.0;"/><!--MD5=[3ca10d0588a2cb08aa576378b8daa12c]
link UC1510333744 to actor230610941--><path d="M301.29,754.62 C330.51,767.66 396.56,771.33 439.39,764.38 " fill="none" id="UC1510333744-actor230610941" style="stroke: #A80036; stroke-width: 1.0;"/><!--MD5=[3ca10d0588a2cb08aa576378b8daa12c]
link UC1510333744 to actor230610941--><path d="M322.71,740.25 C355.93,740.94 405.03,741.96 439.31,742.68 " fill="none" id="UC1510333744-actor230610941-1" style="stroke: #A80036; stroke-width: 1.0;"/><!--MD5=[3ca10d0588a2cb08aa576378b8daa12c]
link UC1510333744 to actor230610941--><path d="M302.25,724.61 C331.97,713.14 397.14,712.34 439.49,721 " fill="none" id="UC1510333744-actor230610941-2" style="stroke: #A80036; stroke-width: 1.0;"/><!--MD5=[c21ab322ee1f7f70410c1a6f034a101f]
link actor923366543 to UC38851648--><path d="M133,662.79 C140.97,670.17 148.4,678.48 154,687.5 C190.83,746.86 153.32,781.05 190,840.5 C209.2,871.62 244.91,896.41 266.51,909.45 " fill="none" id="actor923366543-UC38851648" style="stroke: #A80036; stroke-width: 1.0;"/><!--MD5=[55af051c44426dd851f4307cde066f1b]
link actor923366543 to UC1992844647--><path d="M133.01,661.67 C141.19,669.26 148.68,677.93 154,687.5 C211.93,791.79 114.99,860.73 190,953.5 C206.77,974.24 237.25,982.34 259.06,985.49 " fill="none" id="actor923366543-UC1992844647" style="stroke: #A80036; stroke-width: 1.0;"/><!--MD5=[b4aa1ad222d1a6b9bf23ea635d37e0bd]
link UC1992844647 to actor2120154283--><path d="M311.67,990.9 C338.27,994.49 381.23,1000.29 416.96,1005.12 " fill="none" id="UC1992844647-actor2120154283" style="stroke: #A80036; stroke-width: 1.0;"/><!--MD5=[f8d3abc9378ac09243933b2d4a349a8f]
link UC38851648 to actor94690722--><path d="M308.96,916.58 C347.54,911.57 425.65,901.43 460.95,896.84 " fill="none" id="UC38851648-actor94690722" style="stroke: #A80036; stroke-width: 1.0;"/><!--MD5=[0fd834f475b66d1d1f96598a42096522]
link actor923366543 to UC30604162--><path d="M133.22,661.56 C141.38,669.16 148.81,677.86 154,687.5 C224.53,818.59 119.8,889.23 190,1020.5 C205.43,1049.35 236.17,1071.93 258.41,1085.44 " fill="none" id="actor923366543-UC30604162" style="stroke: #A80036; stroke-width: 1.0;"/><!--MD5=[1d8cb9e44632c7cda36975ac4d6bfb4e]
link actor923366543 to UC872699266--><path d="M133.07,661.11 C141.35,668.79 148.87,677.65 154,687.5 C199.92,775.7 129.59,1054.52 190,1133.5 C201.65,1148.73 220.74,1157.15 238.72,1161.8 " fill="none" id="actor923366543-UC872699266" style="stroke: #A80036; stroke-width: 1.0;"/><!--MD5=[5bde0c2df2b249ec95de314e39e1b382]
link actor923366543 to UC1035361293--><path d="M133.16,661.06 C141.43,668.75 148.92,677.62 154,687.5 C206.33,789.34 120.92,1110.19 190,1201.5 C199.99,1214.71 215.58,1222.8 231.24,1227.75 " fill="none" id="actor923366543-UC1035361293" style="stroke: #A80036; stroke-width: 1.0;"/><!--MD5=[1530dc3840b2923969bd676a596cd13c]
link UC1035361293 to actor517787604--><path d="M337.08,1226.57 C371.28,1220.53 415.49,1212.72 445.41,1207.43 " fill="none" id="UC1035361293-actor517787604" style="stroke: #A80036; stroke-width: 1.0;"/><!--MD5=[b56224020e0f50b22901986256b6fa78]
link UC872699266 to actor517787604--><path d="M329.7,1175.13 C364.62,1181.3 413.08,1189.86 445.21,1195.53 " fill="none" id="UC872699266-actor517787604" style="stroke: #A80036; stroke-width: 1.0;"/><!--MD5=[41e84a296fe8a1cb714d25f33c9bb3de]
link UC30604162 to actor517787604--><path d="M323.33,1110.27 C341.21,1116.11 362.71,1124.07 381,1133.5 C403.64,1145.17 427.15,1161.33 445.46,1174.96 " fill="none" id="UC30604162-actor517787604" style="stroke: #A80036; stroke-width: 1.0;"/><!--MD5=[1a7a56b5cd5ace03e8c6dfe29dd5f274]
link actor923366543 to UC147077478--><path d="M133.22,661.03 C141.48,668.72 148.96,677.6 154,687.5 C212.66,802.79 131.62,1153.06 190,1268.5 C205.05,1298.27 236.85,1321.09 259.4,1334.38 " fill="none" id="actor923366543-UC147077478" style="stroke: #A80036; stroke-width: 1.0;"/><!--MD5=[8e0a0ea60685a8d7cdefe64ce004300e]
link actor923366543 to UC519751097--><path d="M133.3,660.99 C141.56,668.69 149.01,677.57 154,687.5 C223.34,825.49 97.95,1257.51 190,1381.5 C199.46,1394.24 214.13,1402.22 229.12,1407.21 " fill="none" id="actor923366543-UC519751097" style="stroke: #A80036; stroke-width: 1.0;"/><!--MD5=[5424e020c6e4e3d7df8bb422cb4fb582]
link actor923366543 to UC295937119--><path d="M133.34,660.97 C141.59,668.67 149.03,677.56 154,687.5 C191.88,763.32 139.63,1381.33 190,1449.5 C199.43,1462.26 214.09,1470.25 229.08,1475.24 " fill="none" id="actor923366543-UC295937119" style="stroke: #A80036; stroke-width: 1.0;"/><!--MD5=[b5a405031d57b6f99b2eaca08bcac79d]
link actor923366543 to UC1769565136--><path d="M133,660.61 C141.4,668.39 148.98,677.41 154,687.5 C195.1,770.16 135.29,1443.15 190,1517.5 C204.78,1537.58 232.53,1545.84 254.16,1549.21 " fill="none" id="actor923366543-UC1769565136" style="stroke: #A80036; stroke-width: 1.0;"/><!--MD5=[5f69a19daa2653f3d5ced236d9d1098d]
link UC1769565136 to actor927744186--><path d="M317,1550.07 C354.32,1548.33 416.89,1545.4 452.36,1543.75 " fill="none" id="UC1769565136-actor927744186" style="stroke: #A80036; stroke-width: 1.0;"/><!--MD5=[f7161571808656fee9a4c6b9fa64445c]
link UC295937119 to actor927744186--><path d="M327.8,1496.16 C365.47,1507.7 420.03,1524.43 452.27,1534.31 " fill="none" id="UC295937119-actor927744186" style="stroke: #A80036; stroke-width: 1.0;"/><!--MD5=[95f0b9bd0c4cd34e2519758cd59d5bb3]
link UC519751097 to actor417118375--><path d="M350.6,1415.5 C386.04,1415.5 428.04,1415.5 454.11,1415.5 " fill="none" id="UC519751097-actor417118375" style="stroke: #A80036; stroke-width: 1.0;"/><!--MD5=[b51fd2a7827ba596baba8feb82998b0e]
link UC147077478 to actor517787604--><path d="M305.66,1332.97 C338.28,1308.23 404.99,1257.63 445.47,1226.93 " fill="none" id="UC147077478-actor517787604" style="stroke: #A80036; stroke-width: 1.0;"/><!--MD5=[27c5cdb3361d0c4569f9f8f03af7da8e]
@startuml
 left to right direction

actor DataListDiagram as actor923366543

	rectangle main{
	 usecase exec as UC964895360
	actor923366543- -UC964895360
	 usecase getRuntime as UC1231469233
	actor923366543- -UC1231469233
	 usecase waitFor as UC2131723476
	actor923366543- -UC2131723476
	 usecase println as UC115297013
	actor923366543- -UC115297013
	}
	actor PrintStream as actor652803980
	 UC115297013 - - actor652803980
	actor Process as actor1520921298
	 UC2131723476 - - actor1520921298
	actor Runtime as actor1494051958
	 UC1231469233 - - actor1494051958
	actor Runtime as actor1494051958
	 UC964895360 - - actor1494051958
	rectangle draw{
	 usecase getClassList as UC628694336
	actor923366543- -UC628694336
	 usecase getFunctionList as UC1150063356
	actor923366543- -UC1150063356
	 usecase getMemberList as UC622625093
	actor923366543- -UC622625093
	}
	actor DataList as actor188193734
	 UC622625093 - - actor188193734
	actor DataList as actor188193734
	 UC1150063356 - - actor188193734
	actor DataList as actor188193734
	 UC628694336 - - actor188193734
	rectangle makeDateFolder{
	 usecase mkdir as UC398468940
	actor923366543- -UC398468940
	}
	actor File as actor2059316201
	 UC398468940 - - actor2059316201
	rectangle makeDataListFolder{
	 usecase mkdir as UC398468940
	actor923366543- -UC398468940
	}
	actor File as actor2059316201
	 UC398468940 - - actor2059316201
	rectangle makeData_base{
	 usecase append as UC1510333744
	actor923366543- -UC1510333744
	 usecase toString as UC458385820
	actor923366543- -UC458385820
	 usecase println as UC115297013
	actor923366543- -UC115297013
	}
	actor PrintStream as actor652803980
	 UC115297013 - - actor652803980
	actor StringBuilder as actor230610941
	 UC458385820 - - actor230610941
	actor StringBuilder as actor230610941
	 UC1510333744 - - actor230610941
	rectangle makeFile{
	 usecase println as UC115297013
	actor923366543- -UC115297013
	 usecase write as UC38851648
	actor923366543- -UC38851648
	 usecase close as UC1992844647
	actor923366543- -UC1992844647
	}
	actor OutputStreamWriter as actor2120154283
	 UC1992844647 - - actor2120154283
	actor Writer as actor94690722
	 UC38851648 - - actor94690722
	actor PrintStream as actor652803980
	 UC115297013 - - actor652803980
	rectangle classDef{
	 usecase append as UC1510333744
	actor923366543- -UC1510333744
	 usecase getHasList as UC30604162
	actor923366543- -UC30604162
	 usecase getCallList as UC872699266
	actor923366543- -UC872699266
	 usecase getCallByList as UC1035361293
	actor923366543- -UC1035361293
	}
	actor Data_base as actor517787604
	 UC1035361293 - - actor517787604
	actor Data_base as actor517787604
	 UC872699266 - - actor517787604
	actor Data_base as actor517787604
	 UC30604162 - - actor517787604
	actor StringBuilder as actor230610941
	 UC1510333744 - - actor230610941
	rectangle addList{
	 usecase append as UC1510333744
	actor923366543- -UC1510333744
	 usecase getName as UC147077478
	actor923366543- -UC147077478
	 usecase getClassList as UC628694336
	actor923366543- -UC628694336
	 usecase getTypeName as UC519751097
	actor923366543- -UC519751097
	 usecase getMemberList as UC622625093
	actor923366543- -UC622625093
	 usecase getTypeName as UC295937119
	actor923366543- -UC295937119
	 usecase getSig as UC1769565136
	actor923366543- -UC1769565136
	 usecase getFunctionList as UC1150063356
	actor923366543- -UC1150063356
	}
	actor DataList as actor188193734
	 UC1150063356 - - actor188193734
	actor Function as actor927744186
	 UC1769565136 - - actor927744186
	actor Function as actor927744186
	 UC295937119 - - actor927744186
	actor DataList as actor188193734
	 UC622625093 - - actor188193734
	actor Member as actor417118375
	 UC519751097 - - actor417118375
	actor DataList as actor188193734
	 UC628694336 - - actor188193734
	actor Data_base as actor517787604
	 UC147077478 - - actor517787604
	actor StringBuilder as actor230610941
	 UC1510333744 - - actor230610941

@enduml

PlantUML version 1.2020.19(Tue Oct 13 00:10:01 KST 2020)
(APACHE source distribution)
Java Runtime: Java(TM) SE Runtime Environment
JVM: Java HotSpot(TM) 64-Bit Server VM
Default Encoding: MS949
Language: ko
Country: KR
--></g></svg>