<?xml version="1.0" encoding="UTF-8" standalone="no"?><svg xmlns="http://www.w3.org/2000/svg" xmlns:xlink="http://www.w3.org/1999/xlink" contentScriptType="application/ecmascript" contentStyleType="text/css" height="1365px" preserveAspectRatio="none" style="width:489px;height:1365px;" version="1.1" viewBox="0 0 489 1365" width="489px" zoomAndPan="magnify"><defs><filter height="300%" id="fx6w9fbc2uelf" width="300%" x="-1" y="-1"><feGaussianBlur result="blurOut" stdDeviation="2.0"/><feColorMatrix in="blurOut" result="blurOut2" type="matrix" values="0 0 0 0 0 0 0 0 0 0 0 0 0 0 0 0 0 0 .4 0"/><feOffset dx="4.0" dy="4.0" in="blurOut2" result="blurOut3"/><feBlend in="SourceGraphic" in2="blurOut3" mode="normal"/></filter></defs><g><!--MD5=[f6cc7c11640e1aa40840472fadf01e77]
cluster makeASTList--><rect fill="#FFFFFF" filter="url(#fx6w9fbc2uelf)" height="88" style="stroke: #000000; stroke-width: 1.5;" width="104" x="177" y="7"/><text fill="#000000" font-family="sans-serif" font-size="14" font-weight="bold" lengthAdjust="spacingAndGlyphs" textLength="88" x="185" y="25.1533">makeASTList</text><!--MD5=[e5dd8a5917535f46f5bc2692b2c9a989]
cluster makeFileList--><rect fill="#FFFFFF" filter="url(#fx6w9fbc2uelf)" height="88" style="stroke: #000000; stroke-width: 1.5;" width="104" x="177" y="119"/><text fill="#000000" font-family="sans-serif" font-size="14" font-weight="bold" lengthAdjust="spacingAndGlyphs" textLength="88" x="185" y="137.1533">makeFileList</text><!--MD5=[62e981aedead5d296a0ed090cac6c220]
cluster init--><rect fill="#FFFFFF" filter="url(#fx6w9fbc2uelf)" height="1004" style="stroke: #000000; stroke-width: 1.5;" width="216" x="121" y="231"/><text fill="#000000" font-family="sans-serif" font-size="14" font-weight="bold" lengthAdjust="spacingAndGlyphs" textLength="22" x="218" y="249.1533">init</text><!--MD5=[a70b0d373322012744ecc119c63f921b]
cluster main--><rect fill="#FFFFFF" filter="url(#fx6w9fbc2uelf)" height="88" style="stroke: #000000; stroke-width: 1.5;" width="93" x="182.5" y="1261"/><text fill="#000000" font-family="sans-serif" font-size="14" font-weight="bold" lengthAdjust="spacingAndGlyphs" textLength="33" x="212.5" y="1279.1533">main</text><ellipse cx="228.9836" cy="62.0869" fill="#FEFECE" filter="url(#fx6w9fbc2uelf)" rx="19.9836" ry="16.5869" style="stroke: #A80036; stroke-width: 1.5;"/><text fill="#000000" font-family="sans-serif" font-size="14" lengthAdjust="spacingAndGlyphs" textLength="24" x="216.9836" y="68.2016">size</text><ellipse cx="228.9836" cy="174.0869" fill="#FEFECE" filter="url(#fx6w9fbc2uelf)" rx="19.9836" ry="16.5869" style="stroke: #A80036; stroke-width: 1.5;"/><text fill="#000000" font-family="sans-serif" font-size="14" lengthAdjust="spacingAndGlyphs" textLength="24" x="216.9836" y="180.2016">add</text><ellipse cx="228.862" cy="285.8724" fill="#FEFECE" filter="url(#fx6w9fbc2uelf)" rx="72.362" ry="16.8724" style="stroke: #A80036; stroke-width: 1.5;"/><text fill="#000000" font-family="sans-serif" font-size="14" lengthAdjust="spacingAndGlyphs" textLength="100" x="178.862" y="291.9871">printStackTrace</text><ellipse cx="228.9411" cy="355.0973" fill="#FEFECE" filter="url(#fx6w9fbc2uelf)" rx="36.9411" ry="16.5973" style="stroke: #A80036; stroke-width: 1.5;"/><text fill="#000000" font-family="sans-serif" font-size="14" lengthAdjust="spacingAndGlyphs" textLength="48" x="204.9411" y="361.2121">append</text><ellipse cx="229.0061" cy="491.0973" fill="#FEFECE" filter="url(#fx6w9fbc2uelf)" rx="23.5061" ry="16.5973" style="stroke: #A80036; stroke-width: 1.5;"/><text fill="#000000" font-family="sans-serif" font-size="14" lengthAdjust="spacingAndGlyphs" textLength="29" x="214.5061" y="497.2121">read</text><ellipse cx="228.8345" cy="559.0973" fill="#FEFECE" filter="url(#fx6w9fbc2uelf)" rx="26.3345" ry="16.5973" style="stroke: #A80036; stroke-width: 1.5;"/><text fill="#000000" font-family="sans-serif" font-size="14" lengthAdjust="spacingAndGlyphs" textLength="33" x="212.3345" y="565.2121">close</text><ellipse cx="228.8762" cy="1059.0973" fill="#FEFECE" filter="url(#fx6w9fbc2uelf)" rx="50.3762" ry="16.5973" style="stroke: #A80036; stroke-width: 1.5;"/><text fill="#000000" font-family="sans-serif" font-size="14" lengthAdjust="spacingAndGlyphs" textLength="67" x="195.3762" y="1065.2121">newParser</text><ellipse cx="229.234" cy="627.0973" fill="#FEFECE" filter="url(#fx6w9fbc2uelf)" rx="36.234" ry="16.5973" style="stroke: #A80036; stroke-width: 1.5;"/><text fill="#000000" font-family="sans-serif" font-size="14" lengthAdjust="spacingAndGlyphs" textLength="47" x="205.734" y="633.2121">setKind</text><ellipse cx="228.7548" cy="695.0973" fill="#FEFECE" filter="url(#fx6w9fbc2uelf)" rx="48.2548" ry="16.5973" style="stroke: #A80036; stroke-width: 1.5;"/><text fill="#000000" font-family="sans-serif" font-size="14" lengthAdjust="spacingAndGlyphs" textLength="64" x="196.7548" y="701.2121">setSource</text><ellipse cx="228.9472" cy="1127.0973" fill="#FEFECE" filter="url(#fx6w9fbc2uelf)" rx="57.4472" ry="16.5973" style="stroke: #A80036; stroke-width: 1.5;"/><text fill="#000000" font-family="sans-serif" font-size="14" lengthAdjust="spacingAndGlyphs" textLength="77" x="190.4472" y="1133.2121">toCharArray</text><ellipse cx="229.1482" cy="423.0973" fill="#FEFECE" filter="url(#fx6w9fbc2uelf)" rx="37.6482" ry="16.5973" style="stroke: #A80036; stroke-width: 1.5;"/><text fill="#000000" font-family="sans-serif" font-size="14" lengthAdjust="spacingAndGlyphs" textLength="49" x="204.6482" y="429.2121">toString</text><ellipse cx="229.0847" cy="839.8169" fill="#FEFECE" filter="url(#fx6w9fbc2uelf)" rx="92.0847" ry="20.8169" style="stroke: #A80036; stroke-width: 1.5;"/><text fill="#000000" font-family="sans-serif" font-size="14" lengthAdjust="spacingAndGlyphs" textLength="150" x="154.0847" y="845.9317">setStatementsRecovery</text><ellipse cx="229.0569" cy="915.9114" fill="#FEFECE" filter="url(#fx6w9fbc2uelf)" rx="85.0569" ry="19.4114" style="stroke: #A80036; stroke-width: 1.5;"/><text fill="#000000" font-family="sans-serif" font-size="14" lengthAdjust="spacingAndGlyphs" textLength="133" x="162.5569" y="922.0261">setBindingsRecovery</text><ellipse cx="228.9543" cy="989.1909" fill="#FEFECE" filter="url(#fx6w9fbc2uelf)" rx="81.4543" ry="18.6909" style="stroke: #A80036; stroke-width: 1.5;"/><text fill="#000000" font-family="sans-serif" font-size="14" lengthAdjust="spacingAndGlyphs" textLength="124" x="166.9543" y="995.3056">setResolveBindings</text><ellipse cx="229.2443" cy="1199.1489" fill="#FEFECE" filter="url(#fx6w9fbc2uelf)" rx="88.7443" ry="20.1489" style="stroke: #A80036; stroke-width: 1.5;"/><text fill="#000000" font-family="sans-serif" font-size="14" lengthAdjust="spacingAndGlyphs" textLength="142" x="158.2443" y="1205.2636">setComplianceOptions</text><ellipse cx="228.9543" cy="765.1909" fill="#FEFECE" filter="url(#fx6w9fbc2uelf)" rx="81.4543" ry="18.6909" style="stroke: #A80036; stroke-width: 1.5;"/><text fill="#000000" font-family="sans-serif" font-size="14" lengthAdjust="spacingAndGlyphs" textLength="124" x="166.9543" y="771.3056">setCompilerOptions</text><ellipse cx="229.0772" cy="1316.0973" fill="#FEFECE" filter="url(#fx6w9fbc2uelf)" rx="30.5772" ry="16.5973" style="stroke: #A80036; stroke-width: 1.5;"/><text fill="#000000" font-family="sans-serif" font-size="14" lengthAdjust="spacingAndGlyphs" textLength="39" x="209.5772" y="1322.2121">println</text><!--MD5=[0d013428919e86c9b087b4ef23cd7f7d]
entity actor1585824283--><ellipse cx="41.5" cy="662.5" fill="#FEFECE" filter="url(#fx6w9fbc2uelf)" rx="8" ry="8" style="stroke: #A80036; stroke-width: 1.5;"/><path d="M41.5,670.5 L41.5,697.5 M28.5,678.5 L54.5,678.5 M41.5,697.5 L28.5,712.5 M41.5,697.5 L54.5,712.5 " fill="none" filter="url(#fx6w9fbc2uelf)" style="stroke: #A80036; stroke-width: 1.5;"/><text fill="#000000" font-family="sans-serif" font-size="14" lengthAdjust="spacingAndGlyphs" textLength="71" x="6" y="734.1533">JavaParser</text><!--MD5=[355f04e5136e09d547304b951fcecad1]
entity actor170611939--><ellipse cx="431.5" cy="65.5" fill="#FEFECE" filter="url(#fx6w9fbc2uelf)" rx="8" ry="8" style="stroke: #A80036; stroke-width: 1.5;"/><path d="M431.5,73.5 L431.5,100.5 M418.5,81.5 L444.5,81.5 M431.5,100.5 L418.5,115.5 M431.5,100.5 L444.5,115.5 " fill="none" filter="url(#fx6w9fbc2uelf)" style="stroke: #A80036; stroke-width: 1.5;"/><text fill="#000000" font-family="sans-serif" font-size="14" lengthAdjust="spacingAndGlyphs" textLength="56" x="403.5" y="137.1533">ArrayList</text><!--MD5=[f73b8e65d1168b5e2be166d0d2cdcfab]
entity actor1514723919--><ellipse cx="431.5" cy="807.5" fill="#FEFECE" filter="url(#fx6w9fbc2uelf)" rx="8" ry="8" style="stroke: #A80036; stroke-width: 1.5;"/><path d="M431.5,815.5 L431.5,842.5 M418.5,823.5 L444.5,823.5 M431.5,842.5 L418.5,857.5 M431.5,842.5 L444.5,857.5 " fill="none" filter="url(#fx6w9fbc2uelf)" style="stroke: #A80036; stroke-width: 1.5;"/><text fill="#000000" font-family="sans-serif" font-size="14" lengthAdjust="spacingAndGlyphs" textLength="69" x="397" y="879.1533">ASTParser</text><!--MD5=[895984959104f05961972ed8a9e6fc34]
entity actor10536382--><ellipse cx="431.5" cy="1166.5" fill="#FEFECE" filter="url(#fx6w9fbc2uelf)" rx="8" ry="8" style="stroke: #A80036; stroke-width: 1.5;"/><path d="M431.5,1174.5 L431.5,1201.5 M418.5,1182.5 L444.5,1182.5 M431.5,1201.5 L418.5,1216.5 M431.5,1201.5 L444.5,1216.5 " fill="none" filter="url(#fx6w9fbc2uelf)" style="stroke: #A80036; stroke-width: 1.5;"/><text fill="#000000" font-family="sans-serif" font-size="14" lengthAdjust="spacingAndGlyphs" textLength="60" x="401.5" y="1238.1533">JavaCore</text><!--MD5=[864f7e280385d8f93481e354d7c7de74]
entity actor230610941--><ellipse cx="431.5" cy="339.5" fill="#FEFECE" filter="url(#fx6w9fbc2uelf)" rx="8" ry="8" style="stroke: #A80036; stroke-width: 1.5;"/><path d="M431.5,347.5 L431.5,374.5 M418.5,355.5 L444.5,355.5 M431.5,374.5 L418.5,389.5 M431.5,374.5 L444.5,389.5 " fill="none" filter="url(#fx6w9fbc2uelf)" style="stroke: #A80036; stroke-width: 1.5;"/><text fill="#000000" font-family="sans-serif" font-size="14" lengthAdjust="spacingAndGlyphs" textLength="81" x="391" y="411.1533">StringBuilder</text><!--MD5=[2dffe4fb193802cb71d953a00e87dd6c]
entity actor1680139795--><ellipse cx="431.5" cy="1047.5" fill="#FEFECE" filter="url(#fx6w9fbc2uelf)" rx="8" ry="8" style="stroke: #A80036; stroke-width: 1.5;"/><path d="M431.5,1055.5 L431.5,1082.5 M418.5,1063.5 L444.5,1063.5 M431.5,1082.5 L418.5,1097.5 M431.5,1082.5 L444.5,1097.5 " fill="none" filter="url(#fx6w9fbc2uelf)" style="stroke: #A80036; stroke-width: 1.5;"/><text fill="#000000" font-family="sans-serif" font-size="14" lengthAdjust="spacingAndGlyphs" textLength="37" x="413" y="1119.1533">String</text><!--MD5=[9455588c81ef6de97f272a1ad33b208f]
entity actor381516513--><ellipse cx="431.5" cy="577.5" fill="#FEFECE" filter="url(#fx6w9fbc2uelf)" rx="8" ry="8" style="stroke: #A80036; stroke-width: 1.5;"/><path d="M431.5,585.5 L431.5,612.5 M418.5,593.5 L444.5,593.5 M431.5,612.5 L418.5,627.5 M431.5,612.5 L444.5,627.5 " fill="none" filter="url(#fx6w9fbc2uelf)" style="stroke: #A80036; stroke-width: 1.5;"/><text fill="#000000" font-family="sans-serif" font-size="14" lengthAdjust="spacingAndGlyphs" textLength="101" x="381" y="649.1533">BufferedReader</text><!--MD5=[e90789f07f904c9afdd744e800ce3dee]
entity actor351249017--><ellipse cx="431.5" cy="458.5" fill="#FEFECE" filter="url(#fx6w9fbc2uelf)" rx="8" ry="8" style="stroke: #A80036; stroke-width: 1.5;"/><path d="M431.5,466.5 L431.5,493.5 M418.5,474.5 L444.5,474.5 M431.5,493.5 L418.5,508.5 M431.5,493.5 L444.5,508.5 " fill="none" filter="url(#fx6w9fbc2uelf)" style="stroke: #A80036; stroke-width: 1.5;"/><text fill="#000000" font-family="sans-serif" font-size="14" lengthAdjust="spacingAndGlyphs" textLength="47" x="408" y="530.1533">Reader</text><!--MD5=[5ad4bac0b83da98d500fa6639e42af08]
entity actor149526537--><ellipse cx="431.5" cy="220.5" fill="#FEFECE" filter="url(#fx6w9fbc2uelf)" rx="8" ry="8" style="stroke: #A80036; stroke-width: 1.5;"/><path d="M431.5,228.5 L431.5,255.5 M418.5,236.5 L444.5,236.5 M431.5,255.5 L418.5,270.5 M431.5,255.5 L444.5,270.5 " fill="none" filter="url(#fx6w9fbc2uelf)" style="stroke: #A80036; stroke-width: 1.5;"/><text fill="#000000" font-family="sans-serif" font-size="14" lengthAdjust="spacingAndGlyphs" textLength="66" x="398.5" y="292.1533">Throwable</text><!--MD5=[2699aedbcd2b1f3b132d3903ac9b60ef]
entity actor652803980--><ellipse cx="431.5" cy="1285.5" fill="#FEFECE" filter="url(#fx6w9fbc2uelf)" rx="8" ry="8" style="stroke: #A80036; stroke-width: 1.5;"/><path d="M431.5,1293.5 L431.5,1320.5 M418.5,1301.5 L444.5,1301.5 M431.5,1320.5 L418.5,1335.5 M431.5,1320.5 L444.5,1335.5 " fill="none" filter="url(#fx6w9fbc2uelf)" style="stroke: #A80036; stroke-width: 1.5;"/><text fill="#000000" font-family="sans-serif" font-size="14" lengthAdjust="spacingAndGlyphs" textLength="74" x="394.5" y="1357.1533">PrintStream</text><!--MD5=[a1703e88969b2fa311419627ffa7c6a9]
link actor1585824283 to UC958817283--><path d="M43.47,652.95 C46.77,539.01 60.49,227.08 113,141 C135.96,103.36 184.4,79.31 210.48,68.55 " fill="none" id="actor1585824283-UC958817283" style="stroke: #A80036; stroke-width: 1.0;"/><!--MD5=[37f7e83d209390eceed003126c821c03]
link UC958817283 to actor170611939--><path d="M248.86,65.39 C284.54,71.79 362.03,85.71 403.32,93.12 " fill="none" id="UC958817283-actor170611939" style="stroke: #A80036; stroke-width: 1.0;"/><!--MD5=[e6ef5f31b351fdc932ea39a96c9ababb]
link actor1585824283 to UC293618119--><path d="M45.02,652.79 C51.47,555.6 71.13,319.27 113,253 C136.55,215.73 184.74,191.53 210.63,180.64 " fill="none" id="actor1585824283-UC293618119" style="stroke: #A80036; stroke-width: 1.0;"/><!--MD5=[e863014e027271d986aca718942ad4bc]
link UC293618119 to actor170611939--><path d="M247.44,167.39 C282.41,154.13 361.3,124.23 403.18,108.35 " fill="none" id="UC293618119-actor170611939" style="stroke: #A80036; stroke-width: 1.0;"/><!--MD5=[a56622950ed4e8967ab5ebe5d48cbe9b]
link actor1585824283 to UC1957691975--><path d="M45.04,652.95 C51.13,565.81 69.45,369.58 113,321 C125.82,306.7 144.27,298.16 162.66,293.09 " fill="none" id="actor1585824283-UC1957691975" style="stroke: #A80036; stroke-width: 1.0;"/><!--MD5=[31da62179e11c46b5c477c979d6b1ee5]
link actor1585824283 to UC1510333744--><path d="M46.96,652.88 C55.7,578.2 77.37,426.87 113,389 C133.26,367.47 166.42,359.36 191.95,356.41 " fill="none" id="actor1585824283-UC1510333744" style="stroke: #A80036; stroke-width: 1.0;"/><!--MD5=[eca5789e354822e9c22337badff7a9a2]
link actor1585824283 to UC715213542--><path d="M49.4,652.71 C57.87,614.17 75.94,558.33 113,525 C138.85,501.75 179.91,494.36 205.34,492.04 " fill="none" id="actor1585824283-UC715213542" style="stroke: #A80036; stroke-width: 1.0;"/><!--MD5=[5d7e8c4f3b5eb584c0ea59d890f5633b]
link actor1585824283 to UC1273270490--><path d="M62.89,652.82 C74.86,632.09 91.82,608.34 113,593 C139.81,573.58 177.68,565.17 202.53,561.58 " fill="none" id="actor1585824283-UC1273270490" style="stroke: #A80036; stroke-width: 1.0;"/><!--MD5=[cc8844c0a180ae8529e1aa44feaa29d5]
link actor1585824283 to UC1097397209--><path d="M46.2,737.27 C53.97,816.59 74.54,983.46 113,1025 C129.9,1043.26 156.08,1051.88 179.2,1055.88 " fill="none" id="actor1585824283-UC1097397209" style="stroke: #A80036; stroke-width: 1.0;"/><!--MD5=[9d56240f6d7784caf674989379e28ffc]
link actor1585824283 to UC893281161--><path d="M77.15,676.91 C88.41,671.41 101.08,665.6 113,661 C140.77,650.28 173.4,640.93 196.8,634.76 " fill="none" id="actor1585824283-UC893281161" style="stroke: #A80036; stroke-width: 1.0;"/><!--MD5=[40dff6d0d371f6f4284f6f82be2601b5]
link actor1585824283 to UC367589810--><path d="M77.39,695 C106.46,695 148.16,695 180.31,695 " fill="none" id="actor1585824283-UC367589810" style="stroke: #A80036; stroke-width: 1.0;"/><!--MD5=[a6f2c2a2212214a2959549a763fff1c0]
link actor1585824283 to UC2053491093--><path d="M44.49,737.32 C49.64,828.79 66.41,1040.87 113,1093 C128.19,1110 151.43,1118.68 173.05,1123.04 " fill="none" id="actor1585824283-UC2053491093" style="stroke: #A80036; stroke-width: 1.0;"/><!--MD5=[af1c14f0d10c5087a1a01e389b4f1dfb]
link actor1585824283 to UC458385820--><path d="M43.3,652.79 C46.61,599.86 60.27,509.7 113,457 C133.69,436.32 166.31,428.1 191.53,424.89 " fill="none" id="actor1585824283-UC458385820" style="stroke: #A80036; stroke-width: 1.0;"/><!--MD5=[b62dbe84d8c0d3b1df0db8c62d6a3527]
link actor1585824283 to UC2090142523--><path d="M62.07,737.16 C74.05,758.9 91.27,784.3 113,801 C127.21,811.92 144.66,819.89 161.63,825.66 " fill="none" id="actor1585824283-UC2090142523" style="stroke: #A80036; stroke-width: 1.0;"/><!--MD5=[2dc4fd34fecd8ceeaf2915f3e0abdd3e]
link actor1585824283 to UC988876043--><path d="M48.17,737.05 C55.88,778.34 73.56,840.43 113,878 C126.02,890.4 143.17,898.76 160.24,904.39 " fill="none" id="actor1585824283-UC988876043" style="stroke: #A80036; stroke-width: 1.0;"/><!--MD5=[427f57a0b63bed62e47634bf309df3b9]
link actor1585824283 to UC1745241742--><path d="M42.22,737.12 C44.16,793.71 56.12,894 113,953 C125.34,965.8 142.17,974.07 159.14,979.41 " fill="none" id="actor1585824283-UC1745241742" style="stroke: #A80036; stroke-width: 1.0;"/><!--MD5=[dec8a617368177bb8b0dc41dbe187a20]
link actor1585824283 to UC1014698874--><path d="M43.39,737.35 C46.4,839.8 59.24,1097.29 113,1161 C123.78,1173.78 138.96,1182.28 154.76,1187.94 " fill="none" id="actor1585824283-UC1014698874" style="stroke: #A80036; stroke-width: 1.0;"/><!--MD5=[07a53ebe042ef0fb15c1c37add34af7c]
link actor1585824283 to UC1751325469--><path d="M77.19,712.97 C88.46,718.47 101.12,724.31 113,729 C133.53,737.11 156.67,744.65 176.78,750.71 " fill="none" id="actor1585824283-UC1751325469" style="stroke: #A80036; stroke-width: 1.0;"/><!--MD5=[c7b140cb70c8aa800349f89bb2aae606]
link UC1751325469 to actor1514723919--><path d="M280.56,779.34 C300.79,785.46 324.19,793.03 345,801 C362.37,807.65 381.22,816.11 396.8,823.45 " fill="none" id="UC1751325469-actor1514723919" style="stroke: #A80036; stroke-width: 1.0;"/><!--MD5=[493b204aca9ac19446775b79ed5872b1]
link UC1014698874 to actor10536382--><path d="M317.65,1199 C347.58,1199 379.02,1199 401.1,1199 " fill="none" id="UC1014698874-actor10536382" style="stroke: #A80036; stroke-width: 1.0;"/><!--MD5=[0e6d999a9f017eb38d4b549cc3a955f8]
link UC1745241742 to actor1514723919--><path d="M292.04,977.16 C310.19,971.76 329.35,964.02 345,953 C371.05,934.67 392.63,905.96 407.59,882.08 " fill="none" id="UC1745241742-actor1514723919" style="stroke: #A80036; stroke-width: 1.0;"/><!--MD5=[ef84b7849d57a0bd1453f71dc002982f]
link UC988876043 to actor1514723919--><path d="M280.76,900.42 C300.92,893.93 324.21,886.03 345,878 C362.27,871.33 381.12,863.06 396.71,855.94 " fill="none" id="UC988876043-actor1514723919" style="stroke: #A80036; stroke-width: 1.0;"/><!--MD5=[0c257cc5fd797bd6a21d4e77fda4dae1]
link UC2090142523 to actor1514723919--><path d="M321.16,840 C348.05,840 375.83,840 396.66,840 " fill="none" id="UC2090142523-actor1514723919" style="stroke: #A80036; stroke-width: 1.0;"/><!--MD5=[fe24e3c77f07c716b55f92ec959cee7d]
link UC458385820 to actor230610941--><path d="M261.77,414.92 C296.77,406.02 353.11,391.68 390.95,382.06 " fill="none" id="UC458385820-actor230610941" style="stroke: #A80036; stroke-width: 1.0;"/><!--MD5=[ed986368310770b995340fb313a48055]
link UC2053491093 to actor1680139795--><path d="M274,1116.69 C317.57,1106.47 382.11,1091.34 412.91,1084.12 " fill="none" id="UC2053491093-actor1680139795" style="stroke: #A80036; stroke-width: 1.0;"/><!--MD5=[89a1ff4a8edfb9504f0857db3e044487]
link UC367589810 to actor1514723919--><path d="M274.04,701.33 C296.73,706.17 323.96,714.58 345,729 C370.78,746.67 392.22,774.57 407.19,797.98 " fill="none" id="UC367589810-actor1514723919" style="stroke: #A80036; stroke-width: 1.0;"/><!--MD5=[a0404fb30de2efe7dd63a98acfc17b8e]
link UC893281161 to actor1514723919--><path d="M264.72,629.81 C289.59,633.45 322.51,641.81 345,661 C386.66,696.54 409.55,756.98 420.92,797.69 " fill="none" id="UC893281161-actor1514723919" style="stroke: #A80036; stroke-width: 1.0;"/><!--MD5=[7f6170bd1e96717c9841f79a5408e4f2]
link UC1097397209 to actor1514723919--><path d="M277.45,1054.13 C300.09,1049.69 326.25,1041.2 345,1025 C388.1,987.75 410.81,924.18 421.72,882.13 " fill="none" id="UC1097397209-actor1514723919" style="stroke: #A80036; stroke-width: 1.0;"/><!--MD5=[acf2851022721775b0a4a6d14afd7bd4]
link UC1273270490 to actor381516513--><path d="M253.79,565.05 C284.91,572.97 340.23,587.04 380.7,597.33 " fill="none" id="UC1273270490-actor381516513" style="stroke: #A80036; stroke-width: 1.0;"/><!--MD5=[55f16aac0c7bc8dd65947bc57d2a8363]
link UC715213542 to actor351249017--><path d="M252.61,491 C291.22,491 369.42,491 407.97,491 " fill="none" id="UC715213542-actor351249017" style="stroke: #A80036; stroke-width: 1.0;"/><!--MD5=[3ca10d0588a2cb08aa576378b8daa12c]
link UC1510333744 to actor230610941--><path d="M265.38,358 C300.46,360.97 354.1,365.52 390.66,368.62 " fill="none" id="UC1510333744-actor230610941" style="stroke: #A80036; stroke-width: 1.0;"/><!--MD5=[9061ee7e0c0debe058e4bcd3df58a241]
link UC1957691975 to actor149526537--><path d="M288.8,276.32 C324.62,270.43 369.01,263.12 398.46,258.27 " fill="none" id="UC1957691975-actor149526537" style="stroke: #A80036; stroke-width: 1.0;"/><!--MD5=[6dad050cdd624177ec28d49eb9f740ec]
link actor1585824283 to UC241316255--><path d="M43.68,737.17 C47.5,849.14 62.34,1151.14 113,1235 C134.22,1270.12 177.11,1294.03 204.1,1306.31 " fill="none" id="actor1585824283-UC241316255" style="stroke: #A80036; stroke-width: 1.0;"/><!--MD5=[e1c221c4982d24cd0b9195c2b189fafb]
link UC241316255 to actor652803980--><path d="M259.58,1316.3 C295.42,1316.65 355.78,1317.25 394.34,1317.64 " fill="none" id="UC241316255-actor652803980" style="stroke: #A80036; stroke-width: 1.0;"/><!--MD5=[a3e54d40b2ec42ef5592bfcb57ab44c4]
@startuml
 left to right direction

actor JavaParser as actor1585824283

	rectangle makeASTList{
	 usecase size as UC958817283
	actor1585824283- -UC958817283
	}
	actor ArrayList as actor170611939
	 UC958817283 - - actor170611939
	rectangle makeFileList{
	 usecase add as UC293618119
	actor1585824283- -UC293618119
	}
	actor ArrayList as actor170611939
	 UC293618119 - - actor170611939
	rectangle init{
	 usecase printStackTrace as UC1957691975
	actor1585824283- -UC1957691975
	 usecase append as UC1510333744
	actor1585824283- -UC1510333744
	 usecase read as UC715213542
	actor1585824283- -UC715213542
	 usecase close as UC1273270490
	actor1585824283- -UC1273270490
	 usecase newParser as UC1097397209
	actor1585824283- -UC1097397209
	 usecase setKind as UC893281161
	actor1585824283- -UC893281161
	 usecase setSource as UC367589810
	actor1585824283- -UC367589810
	 usecase toCharArray as UC2053491093
	actor1585824283- -UC2053491093
	 usecase toString as UC458385820
	actor1585824283- -UC458385820
	 usecase setStatementsRecovery as UC2090142523
	actor1585824283- -UC2090142523
	 usecase setBindingsRecovery as UC988876043
	actor1585824283- -UC988876043
	 usecase setResolveBindings as UC1745241742
	actor1585824283- -UC1745241742
	 usecase setComplianceOptions as UC1014698874
	actor1585824283- -UC1014698874
	 usecase setCompilerOptions as UC1751325469
	actor1585824283- -UC1751325469
	}
	actor ASTParser as actor1514723919
	 UC1751325469 - - actor1514723919
	actor JavaCore as actor10536382
	 UC1014698874 - - actor10536382
	actor ASTParser as actor1514723919
	 UC1745241742 - - actor1514723919
	actor ASTParser as actor1514723919
	 UC988876043 - - actor1514723919
	actor ASTParser as actor1514723919
	 UC2090142523 - - actor1514723919
	actor StringBuilder as actor230610941
	 UC458385820 - - actor230610941
	actor String as actor1680139795
	 UC2053491093 - - actor1680139795
	actor ASTParser as actor1514723919
	 UC367589810 - - actor1514723919
	actor ASTParser as actor1514723919
	 UC893281161 - - actor1514723919
	actor ASTParser as actor1514723919
	 UC1097397209 - - actor1514723919
	actor BufferedReader as actor381516513
	 UC1273270490 - - actor381516513
	actor Reader as actor351249017
	 UC715213542 - - actor351249017
	actor StringBuilder as actor230610941
	 UC1510333744 - - actor230610941
	actor Throwable as actor149526537
	 UC1957691975 - - actor149526537
	rectangle main{
	 usecase println as UC241316255
	actor1585824283- -UC241316255
	}
	actor PrintStream as actor652803980
	 UC241316255 - - actor652803980

@enduml

PlantUML version 1.2020.19(Tue Oct 13 00:10:01 KST 2020)
(APACHE source distribution)
Java Runtime: Java(TM) SE Runtime Environment
JVM: Java HotSpot(TM) 64-Bit Server VM
Default Encoding: MS949
Language: ko
Country: KR
--></g></svg>