<?xml version="1.0" encoding="UTF-8" standalone="no"?><svg xmlns="http://www.w3.org/2000/svg" xmlns:xlink="http://www.w3.org/1999/xlink" contentScriptType="application/ecmascript" contentStyleType="text/css" height="213px" preserveAspectRatio="none" style="width:351px;height:213px;" version="1.1" viewBox="0 0 351 213" width="351px" zoomAndPan="magnify"><defs><filter height="300%" id="fdrmp1c2vj939" width="300%" x="-1" y="-1"><feGaussianBlur result="blurOut" stdDeviation="2.0"/><feColorMatrix in="blurOut" result="blurOut2" type="matrix" values="0 0 0 0 0 0 0 0 0 0 0 0 0 0 0 0 0 0 .4 0"/><feOffset dx="4.0" dy="4.0" in="blurOut2" result="blurOut3"/><feBlend in="SourceGraphic" in2="blurOut3" mode="normal"/></filter></defs><g><!--MD5=[a70b0d373322012744ecc119c63f921b]
cluster main--><rect fill="#FFFFFF" filter="url(#fdrmp1c2vj939)" height="156" style="stroke: #000000; stroke-width: 1.5;" width="145" x="80" y="17.5"/><text fill="#000000" font-family="sans-serif" font-size="14" font-weight="bold" lengthAdjust="spacingAndGlyphs" textLength="33" x="136" y="35.6533">main</text><ellipse cx="152.7401" cy="72.5973" fill="#FEFECE" filter="url(#fdrmp1c2vj939)" rx="56.7401" ry="16.5973" style="stroke: #A80036; stroke-width: 1.5;"/><text fill="#000000" font-family="sans-serif" font-size="14" lengthAdjust="spacingAndGlyphs" textLength="76" x="114.7401" y="78.7121">addDataList</text><ellipse cx="152.5772" cy="140.5973" fill="#FEFECE" filter="url(#fdrmp1c2vj939)" rx="30.5772" ry="16.5973" style="stroke: #A80036; stroke-width: 1.5;"/><text fill="#000000" font-family="sans-serif" font-size="14" lengthAdjust="spacingAndGlyphs" textLength="39" x="133.0772" y="146.7121">println</text><!--MD5=[6bf4c339456388a6d0597c17932f6df6]
entity actor1105129521--><ellipse cx="21" cy="74" fill="#FEFECE" filter="url(#fdrmp1c2vj939)" rx="8" ry="8" style="stroke: #A80036; stroke-width: 1.5;"/><path d="M21,82 L21,109 M8,90 L34,90 M21,109 L8,124 M21,109 L34,124 " fill="none" filter="url(#fdrmp1c2vj939)" style="stroke: #A80036; stroke-width: 1.5;"/><text fill="#000000" font-family="sans-serif" font-size="14" lengthAdjust="spacingAndGlyphs" textLength="30" x="6" y="145.6533">Main</text><!--MD5=[2699aedbcd2b1f3b132d3903ac9b60ef]
entity actor652803980--><ellipse cx="306.5" cy="133" fill="#FEFECE" filter="url(#fdrmp1c2vj939)" rx="8" ry="8" style="stroke: #A80036; stroke-width: 1.5;"/><path d="M306.5,141 L306.5,168 M293.5,149 L319.5,149 M306.5,168 L293.5,183 M306.5,168 L319.5,183 " fill="none" filter="url(#fdrmp1c2vj939)" style="stroke: #A80036; stroke-width: 1.5;"/><text fill="#000000" font-family="sans-serif" font-size="14" lengthAdjust="spacingAndGlyphs" textLength="74" x="269.5" y="204.6533">PrintStream</text><!--MD5=[1e0fd7e2dc12f210d3de43f7e62dec28]
entity actor954742840--><ellipse cx="306.5" cy="14" fill="#FEFECE" filter="url(#fdrmp1c2vj939)" rx="8" ry="8" style="stroke: #A80036; stroke-width: 1.5;"/><path d="M306.5,22 L306.5,49 M293.5,30 L319.5,30 M306.5,49 L293.5,64 M306.5,49 L319.5,64 " fill="none" filter="url(#fdrmp1c2vj939)" style="stroke: #A80036; stroke-width: 1.5;"/><text fill="#000000" font-family="sans-serif" font-size="14" lengthAdjust="spacingAndGlyphs" textLength="75" x="269" y="85.6533">Test_Visitor</text><!--MD5=[edac64d136c4c0425214acfaf56bbbbe]
link actor1105129521 to UC366023886--><path d="M36.11,102.8 C53.67,98.18 84.47,90.1 109.83,83.44 " fill="none" id="actor1105129521-UC366023886" style="stroke: #A80036; stroke-width: 1.0;"/><!--MD5=[88565415245e767c55e5a73f54601dc5]
link actor1105129521 to UC115297013--><path d="M36.11,110.2 C57.34,115.78 97.91,126.43 124.84,133.5 " fill="none" id="actor1105129521-UC115297013" style="stroke: #A80036; stroke-width: 1.0;"/><!--MD5=[506482d4508c62cd36a898b620d47403]
link UC115297013 to actor652803980--><path d="M182.09,145.2 C206.77,149.26 242.56,155.15 269.25,159.54 " fill="none" id="UC115297013-actor652803980" style="stroke: #A80036; stroke-width: 1.0;"/><!--MD5=[a9801583604d8f13f355e89150d8fa4e]
link UC366023886 to actor954742840--><path d="M201.59,64.27 C223.34,60.55 248.62,56.23 268.8,52.78 " fill="none" id="UC366023886-actor954742840" style="stroke: #A80036; stroke-width: 1.0;"/><!--MD5=[82dda82a271993c6eeba8dbf3254e76f]
@startuml
 left to right direction

actor Main as actor1105129521

	rectangle main{
	 usecase addDataList as UC366023886
	actor1105129521- -UC366023886
	 usecase println as UC115297013
	actor1105129521- -UC115297013
	}
	actor PrintStream as actor652803980
	 UC115297013 - - actor652803980
	actor Test_Visitor as actor954742840
	 UC366023886 - - actor954742840

@enduml

PlantUML version 1.2020.19(Tue Oct 13 00:10:01 KST 2020)
(APACHE source distribution)
Java Runtime: Java(TM) SE Runtime Environment
JVM: Java HotSpot(TM) 64-Bit Server VM
Default Encoding: MS949
Language: ko
Country: KR
--></g></svg>