<?xml version="1.0" encoding="UTF-8" standalone="no"?><svg xmlns="http://www.w3.org/2000/svg" xmlns:xlink="http://www.w3.org/1999/xlink" contentScriptType="application/ecmascript" contentStyleType="text/css" height="391px" preserveAspectRatio="none" style="width:375px;height:391px;" version="1.1" viewBox="0 0 375 391" width="375px" zoomAndPan="magnify"><defs><filter height="300%" id="fxfrau1fwokvx" width="300%" x="-1" y="-1"><feGaussianBlur result="blurOut" stdDeviation="2.0"/><feColorMatrix in="blurOut" result="blurOut2" type="matrix" values="0 0 0 0 0 0 0 0 0 0 0 0 0 0 0 0 0 0 .4 0"/><feOffset dx="4.0" dy="4.0" in="blurOut2" result="blurOut3"/><feBlend in="SourceGraphic" in2="blurOut3" mode="normal"/></filter></defs><g><!--MD5=[a70b0d373322012744ecc119c63f921b]
cluster main--><polygon fill="#FFFFFF" filter="url(#fxfrau1fwokvx)" points="16,6,55,6,62,31.2295,358,31.2295,358,384,16,384,16,6" style="stroke: #000000; stroke-width: 1.5;"/><line style="stroke: #000000; stroke-width: 1.5;" x1="16" x2="62" y1="31.2295" y2="31.2295"/><text fill="#000000" font-family="sans-serif" font-size="14" font-weight="bold" lengthAdjust="spacingAndGlyphs" textLength="33" x="20" y="24.1533">main</text><!--MD5=[eef0c53532da0e69af8e4f57be603c92]
class main.MethodVisitor--><rect codeLine="1" fill="#FEFECE" filter="url(#fxfrau1fwokvx)" height="323.5144" id="main.MethodVisitor" style="stroke: #A80036; stroke-width: 1.5;" width="310" x="32" y="44"/><ellipse cx="145.75" cy="60" fill="#ADD1B2" rx="11" ry="11" style="stroke: #A80036; stroke-width: 1.0;"/><path d="M145.5781,53.4844 Q143.7031,53.4844 142.5469,55.2344 Q141.3594,57.0156 141.3594,60.0156 Q141.3594,63.3906 142.5625,65.1563 Q143.625,66.7813 145.375,66.7813 Q147.0625,66.7813 148.0156,65.875 Q149.0781,64.8594 149.2188,62.625 Q149.2188,62.2031 148.9844,61.9688 Q148.7969,61.7344 148.4531,61.7031 Q148.125,61.7031 147.8906,61.8906 Q147.625,62.125 147.625,62.5156 Q147.5938,63.9063 147,64.6406 Q146.4688,65.3438 145.5156,65.3438 Q144.3594,65.3438 143.6406,63.9063 Q142.9219,62.4063 142.9219,59.9844 Q142.9219,57.4375 143.8125,56.0469 Q144.5625,54.9219 145.7031,54.9219 Q146.3594,54.9219 146.8594,55.4688 Q147.4219,56.0781 147.5469,57.1406 Q147.5938,57.8438 148.4219,57.7344 Q149.2031,57.625 149.1563,56.9375 Q148.9688,55.4219 148.2031,54.5469 Q147.2656,53.4844 145.5781,53.4844 Z "/><text fill="#000000" font-family="sans-serif" font-size="12" lengthAdjust="spacingAndGlyphs" textLength="74" x="166.25" y="65.6045">MethodVisitor</text><line style="stroke: #A80036; stroke-width: 1.5;" x1="33" x2="341" y1="76" y2="76"/><line style="stroke: #A80036; stroke-width: 1.5;" x1="33" x2="167" y1="91.5544" y2="91.5544"/><text fill="#008000" font-family="sans-serif" font-size="11" font-weight="bold" lengthAdjust="spacingAndGlyphs" textLength="40" x="167" y="96.1919">has list</text><line style="stroke: #A80036; stroke-width: 1.5;" x1="207" x2="341" y1="91.5544" y2="91.5544"/><line style="stroke: #A80036; stroke-width: 1.0; stroke-dasharray: 1.0,2.0;" x1="33" x2="174" y1="114.2178" y2="114.2178"/><text fill="#000000" font-family="sans-serif" font-size="11" lengthAdjust="spacingAndGlyphs" textLength="26" x="174" y="118.8552">class</text><line style="stroke: #A80036; stroke-width: 1.0; stroke-dasharray: 1.0,2.0;" x1="200" x2="341" y1="114.2178" y2="114.2178"/><line style="stroke: #A80036; stroke-width: 1.0; stroke-dasharray: 1.0,2.0;" x1="33" x2="168" y1="136.8811" y2="136.8811"/><text fill="#000000" font-family="sans-serif" font-size="11" lengthAdjust="spacingAndGlyphs" textLength="38" x="168" y="141.5186">member</text><line style="stroke: #A80036; stroke-width: 1.0; stroke-dasharray: 1.0,2.0;" x1="206" x2="341" y1="136.8811" y2="136.8811"/><text fill="#000000" font-family="sans-serif" font-size="11" lengthAdjust="spacingAndGlyphs" textLength="298" x="38" y="179.7908">MethodVisitor MethodVisitor(dataSet.Function) (1542155234);</text><line style="stroke: #A80036; stroke-width: 1.0; stroke-dasharray: 1.0,2.0;" x1="33" x2="169.5" y1="159.5444" y2="159.5444"/><text fill="#000000" font-family="sans-serif" font-size="11" lengthAdjust="spacingAndGlyphs" textLength="35" x="169.5" y="164.1819">method</text><line style="stroke: #A80036; stroke-width: 1.0; stroke-dasharray: 1.0,2.0;" x1="204.5" x2="341" y1="159.5444" y2="159.5444"/><line style="stroke: #A80036; stroke-width: 1.5;" x1="33" x2="159.5" y1="193.7622" y2="193.7622"/><text fill="#0000FF" font-family="sans-serif" font-size="11" font-weight="bold" lengthAdjust="spacingAndGlyphs" textLength="55" x="159.5" y="198.3997">calling list</text><line style="stroke: #A80036; stroke-width: 1.5;" x1="214.5" x2="341" y1="193.7622" y2="193.7622"/><line style="stroke: #A80036; stroke-width: 1.0; stroke-dasharray: 1.0,2.0;" x1="33" x2="174" y1="216.4255" y2="216.4255"/><text fill="#000000" font-family="sans-serif" font-size="11" lengthAdjust="spacingAndGlyphs" textLength="26" x="174" y="221.063">class</text><line style="stroke: #A80036; stroke-width: 1.0; stroke-dasharray: 1.0,2.0;" x1="200" x2="341" y1="216.4255" y2="216.4255"/><line style="stroke: #A80036; stroke-width: 1.0; stroke-dasharray: 1.0,2.0;" x1="33" x2="168" y1="239.0889" y2="239.0889"/><text fill="#000000" font-family="sans-serif" font-size="11" lengthAdjust="spacingAndGlyphs" textLength="38" x="168" y="243.7263">member</text><line style="stroke: #A80036; stroke-width: 1.0; stroke-dasharray: 1.0,2.0;" x1="206" x2="341" y1="239.0889" y2="239.0889"/><line style="stroke: #A80036; stroke-width: 1.0; stroke-dasharray: 1.0,2.0;" x1="33" x2="169.5" y1="261.7522" y2="261.7522"/><text fill="#000000" font-family="sans-serif" font-size="11" lengthAdjust="spacingAndGlyphs" textLength="35" x="169.5" y="266.3896">method</text><line style="stroke: #A80036; stroke-width: 1.0; stroke-dasharray: 1.0,2.0;" x1="204.5" x2="341" y1="261.7522" y2="261.7522"/><line style="stroke: #A80036; stroke-width: 1.5;" x1="33" x2="153" y1="284.4155" y2="284.4155"/><text fill="#FFA500" font-family="sans-serif" font-size="11" font-weight="bold" lengthAdjust="spacingAndGlyphs" textLength="68" x="153" y="289.053">called by list</text><line style="stroke: #A80036; stroke-width: 1.5;" x1="221" x2="341" y1="284.4155" y2="284.4155"/><line style="stroke: #A80036; stroke-width: 1.0; stroke-dasharray: 1.0,2.0;" x1="33" x2="174" y1="307.0789" y2="307.0789"/><text fill="#000000" font-family="sans-serif" font-size="11" lengthAdjust="spacingAndGlyphs" textLength="26" x="174" y="311.7163">class</text><line style="stroke: #A80036; stroke-width: 1.0; stroke-dasharray: 1.0,2.0;" x1="200" x2="341" y1="307.0789" y2="307.0789"/><line style="stroke: #A80036; stroke-width: 1.0; stroke-dasharray: 1.0,2.0;" x1="33" x2="168" y1="329.7422" y2="329.7422"/><text fill="#000000" font-family="sans-serif" font-size="11" lengthAdjust="spacingAndGlyphs" textLength="38" x="168" y="334.3796">member</text><line style="stroke: #A80036; stroke-width: 1.0; stroke-dasharray: 1.0,2.0;" x1="206" x2="341" y1="329.7422" y2="329.7422"/><line style="stroke: #A80036; stroke-width: 1.0; stroke-dasharray: 1.0,2.0;" x1="33" x2="169.5" y1="352.4055" y2="352.4055"/><text fill="#000000" font-family="sans-serif" font-size="11" lengthAdjust="spacingAndGlyphs" textLength="35" x="169.5" y="357.043">method</text><line style="stroke: #A80036; stroke-width: 1.0; stroke-dasharray: 1.0,2.0;" x1="204.5" x2="341" y1="352.4055" y2="352.4055"/><!--MD5=[60418f210728df486a42d31161a85049]
@startuml
class main.MethodVisitor{
__**<color:green>has list</color>**__
..class..
..member..
..method..
	MethodVisitor MethodVisitor(dataSet.Function) (1542155234);
__**<color:blue>calling list</color>**__
..class..
..member..
..method..
__**<color:orange>called by list</color>**__
..class..
..member..
..method..
}

@enduml

PlantUML version 1.2020.19(Tue Oct 13 00:10:01 KST 2020)
(APACHE source distribution)
Java Runtime: Java(TM) SE Runtime Environment
JVM: Java HotSpot(TM) 64-Bit Server VM
Default Encoding: MS949
Language: ko
Country: KR
--></g></svg>