<?xml version="1.0" encoding="UTF-8" standalone="no"?><svg xmlns="http://www.w3.org/2000/svg" xmlns:xlink="http://www.w3.org/1999/xlink" contentScriptType="application/ecmascript" contentStyleType="text/css" height="474px" preserveAspectRatio="none" style="width:509px;height:474px;" version="1.1" viewBox="0 0 509 474" width="509px" zoomAndPan="magnify"><defs><filter height="300%" id="f1m0fpwd0paueg" width="300%" x="-1" y="-1"><feGaussianBlur result="blurOut" stdDeviation="2.0"/><feColorMatrix in="blurOut" result="blurOut2" type="matrix" values="0 0 0 0 0 0 0 0 0 0 0 0 0 0 0 0 0 0 .4 0"/><feOffset dx="4.0" dy="4.0" in="blurOut2" result="blurOut3"/><feBlend in="SourceGraphic" in2="blurOut3" mode="normal"/></filter></defs><g><!--MD5=[a70b0d373322012744ecc119c63f921b]
cluster main--><polygon fill="#FFFFFF" filter="url(#f1m0fpwd0paueg)" points="16,6,55,6,62,31.2295,492,31.2295,492,467,16,467,16,6" style="stroke: #000000; stroke-width: 1.5;"/><line style="stroke: #000000; stroke-width: 1.5;" x1="16" x2="62" y1="31.2295" y2="31.2295"/><text fill="#000000" font-family="sans-serif" font-size="14" font-weight="bold" lengthAdjust="spacingAndGlyphs" textLength="33" x="20" y="24.1533">main</text><!--MD5=[51b67420a8083e59fe8f0485901bdd34]
class main.Main--><rect codeLine="1" fill="#FEFECE" filter="url(#f1m0fpwd0paueg)" height="407.0588" id="main.Main" style="stroke: #A80036; stroke-width: 1.5;" width="443" x="32.5" y="44"/><ellipse cx="236.75" cy="60" fill="#ADD1B2" rx="11" ry="11" style="stroke: #A80036; stroke-width: 1.0;"/><path d="M236.5781,53.4844 Q234.7031,53.4844 233.5469,55.2344 Q232.3594,57.0156 232.3594,60.0156 Q232.3594,63.3906 233.5625,65.1563 Q234.625,66.7813 236.375,66.7813 Q238.0625,66.7813 239.0156,65.875 Q240.0781,64.8594 240.2188,62.625 Q240.2188,62.2031 239.9844,61.9688 Q239.7969,61.7344 239.4531,61.7031 Q239.125,61.7031 238.8906,61.8906 Q238.625,62.125 238.625,62.5156 Q238.5938,63.9063 238,64.6406 Q237.4688,65.3438 236.5156,65.3438 Q235.3594,65.3438 234.6406,63.9063 Q233.9219,62.4063 233.9219,59.9844 Q233.9219,57.4375 234.8125,56.0469 Q235.5625,54.9219 236.7031,54.9219 Q237.3594,54.9219 237.8594,55.4688 Q238.4219,56.0781 238.5469,57.1406 Q238.5938,57.8438 239.4219,57.7344 Q240.2031,57.625 240.1563,56.9375 Q239.9688,55.4219 239.2031,54.5469 Q238.2656,53.4844 236.5781,53.4844 Z "/><text fill="#000000" font-family="sans-serif" font-size="12" lengthAdjust="spacingAndGlyphs" textLength="26" x="257.25" y="65.6045">Main</text><line style="stroke: #A80036; stroke-width: 1.5;" x1="33.5" x2="474.5" y1="76" y2="76"/><line style="stroke: #A80036; stroke-width: 1.5;" x1="33.5" x2="234" y1="91.5544" y2="91.5544"/><text fill="#008000" font-family="sans-serif" font-size="11" font-weight="bold" lengthAdjust="spacingAndGlyphs" textLength="40" x="234" y="96.1919">has list</text><line style="stroke: #A80036; stroke-width: 1.5;" x1="274" x2="474.5" y1="91.5544" y2="91.5544"/><line style="stroke: #A80036; stroke-width: 1.0; stroke-dasharray: 1.0,2.0;" x1="33.5" x2="241" y1="114.2178" y2="114.2178"/><text fill="#000000" font-family="sans-serif" font-size="11" lengthAdjust="spacingAndGlyphs" textLength="26" x="241" y="118.8552">class</text><line style="stroke: #A80036; stroke-width: 1.0; stroke-dasharray: 1.0,2.0;" x1="267" x2="474.5" y1="114.2178" y2="114.2178"/><line style="stroke: #A80036; stroke-width: 1.0; stroke-dasharray: 1.0,2.0;" x1="33.5" x2="235" y1="136.8811" y2="136.8811"/><text fill="#000000" font-family="sans-serif" font-size="11" lengthAdjust="spacingAndGlyphs" textLength="38" x="235" y="141.5186">member</text><line style="stroke: #A80036; stroke-width: 1.0; stroke-dasharray: 1.0,2.0;" x1="273" x2="474.5" y1="136.8811" y2="136.8811"/><text fill="#000000" font-family="sans-serif" font-size="11" lengthAdjust="spacingAndGlyphs" textLength="207" x="38.5" y="179.7908">void main(java.lang.String[]) (2015924099);</text><line style="stroke: #A80036; stroke-width: 1.0; stroke-dasharray: 1.0,2.0;" x1="33.5" x2="236.5" y1="159.5444" y2="159.5444"/><text fill="#000000" font-family="sans-serif" font-size="11" lengthAdjust="spacingAndGlyphs" textLength="35" x="236.5" y="164.1819">method</text><line style="stroke: #A80036; stroke-width: 1.0; stroke-dasharray: 1.0,2.0;" x1="271.5" x2="474.5" y1="159.5444" y2="159.5444"/><line style="stroke: #A80036; stroke-width: 1.5;" x1="33.5" x2="226.5" y1="193.7622" y2="193.7622"/><text fill="#0000FF" font-family="sans-serif" font-size="11" font-weight="bold" lengthAdjust="spacingAndGlyphs" textLength="55" x="226.5" y="198.3997">calling list</text><line style="stroke: #A80036; stroke-width: 1.5;" x1="281.5" x2="474.5" y1="193.7622" y2="193.7622"/><text fill="#000000" font-family="sans-serif" font-size="11" lengthAdjust="spacingAndGlyphs" textLength="132" x="38.5" y="236.6719">Test_Visitor (1089579669);</text><text fill="#000000" font-family="sans-serif" font-size="11" lengthAdjust="spacingAndGlyphs" textLength="152" x="38.5" y="251.7808">DataListDiagram (1451450159);</text><text fill="#000000" font-family="sans-serif" font-size="11" lengthAdjust="spacingAndGlyphs" textLength="129" x="38.5" y="266.8896">PrintStream (1432599360);</text><line style="stroke: #A80036; stroke-width: 1.0; stroke-dasharray: 1.0,2.0;" x1="33.5" x2="241" y1="216.4255" y2="216.4255"/><text fill="#000000" font-family="sans-serif" font-size="11" lengthAdjust="spacingAndGlyphs" textLength="26" x="241" y="221.063">class</text><line style="stroke: #A80036; stroke-width: 1.0; stroke-dasharray: 1.0,2.0;" x1="267" x2="474.5" y1="216.4255" y2="216.4255"/><line style="stroke: #A80036; stroke-width: 1.0; stroke-dasharray: 1.0,2.0;" x1="33.5" x2="235" y1="280.8611" y2="280.8611"/><text fill="#000000" font-family="sans-serif" font-size="11" lengthAdjust="spacingAndGlyphs" textLength="38" x="235" y="285.4985">member</text><line style="stroke: #A80036; stroke-width: 1.0; stroke-dasharray: 1.0,2.0;" x1="273" x2="474.5" y1="280.8611" y2="280.8611"/><text fill="#000000" font-family="sans-serif" font-size="11" lengthAdjust="spacingAndGlyphs" textLength="431" x="38.5" y="323.7708">void addDataList(org.eclipse.jdt.core.dom.CompilationUnit, dataSet.DataList) (700523674);</text><text fill="#000000" font-family="sans-serif" font-size="11" lengthAdjust="spacingAndGlyphs" textLength="206" x="38.5" y="338.8796">void main(dataSet.DataList) (1244536402);</text><text fill="#000000" font-family="sans-serif" font-size="11" lengthAdjust="spacingAndGlyphs" textLength="204" x="38.5" y="353.9885">null println(java.lang.String) (1862946352);</text><line style="stroke: #A80036; stroke-width: 1.0; stroke-dasharray: 1.0,2.0;" x1="33.5" x2="236.5" y1="303.5244" y2="303.5244"/><text fill="#000000" font-family="sans-serif" font-size="11" lengthAdjust="spacingAndGlyphs" textLength="35" x="236.5" y="308.1619">method</text><line style="stroke: #A80036; stroke-width: 1.0; stroke-dasharray: 1.0,2.0;" x1="271.5" x2="474.5" y1="303.5244" y2="303.5244"/><line style="stroke: #A80036; stroke-width: 1.5;" x1="33.5" x2="220" y1="367.96" y2="367.96"/><text fill="#FFA500" font-family="sans-serif" font-size="11" font-weight="bold" lengthAdjust="spacingAndGlyphs" textLength="68" x="220" y="372.5974">called by list</text><line style="stroke: #A80036; stroke-width: 1.5;" x1="288" x2="474.5" y1="367.96" y2="367.96"/><line style="stroke: #A80036; stroke-width: 1.0; stroke-dasharray: 1.0,2.0;" x1="33.5" x2="241" y1="390.6233" y2="390.6233"/><text fill="#000000" font-family="sans-serif" font-size="11" lengthAdjust="spacingAndGlyphs" textLength="26" x="241" y="395.2607">class</text><line style="stroke: #A80036; stroke-width: 1.0; stroke-dasharray: 1.0,2.0;" x1="267" x2="474.5" y1="390.6233" y2="390.6233"/><line style="stroke: #A80036; stroke-width: 1.0; stroke-dasharray: 1.0,2.0;" x1="33.5" x2="235" y1="413.2866" y2="413.2866"/><text fill="#000000" font-family="sans-serif" font-size="11" lengthAdjust="spacingAndGlyphs" textLength="38" x="235" y="417.9241">member</text><line style="stroke: #A80036; stroke-width: 1.0; stroke-dasharray: 1.0,2.0;" x1="273" x2="474.5" y1="413.2866" y2="413.2866"/><line style="stroke: #A80036; stroke-width: 1.0; stroke-dasharray: 1.0,2.0;" x1="33.5" x2="236.5" y1="435.95" y2="435.95"/><text fill="#000000" font-family="sans-serif" font-size="11" lengthAdjust="spacingAndGlyphs" textLength="35" x="236.5" y="440.5874">method</text><line style="stroke: #A80036; stroke-width: 1.0; stroke-dasharray: 1.0,2.0;" x1="271.5" x2="474.5" y1="435.95" y2="435.95"/><!--MD5=[a38d8d1732b22f3a56bf91c5fc617956]
@startuml
class main.Main{
__**<color:green>has list</color>**__
..class..
..member..
..method..
	void main(java.lang.String[]) (2015924099);
__**<color:blue>calling list</color>**__
..class..
	Test_Visitor (1089579669);
	DataListDiagram (1451450159);
	PrintStream (1432599360);
..member..
..method..
	void addDataList(org.eclipse.jdt.core.dom.CompilationUnit, dataSet.DataList) (700523674);
	void main(dataSet.DataList) (1244536402);
	null println(java.lang.String) (1862946352);
__**<color:orange>called by list</color>**__
..class..
..member..
..method..
}

@enduml

PlantUML version 1.2020.19(Tue Oct 13 00:10:01 KST 2020)
(APACHE source distribution)
Java Runtime: Java(TM) SE Runtime Environment
JVM: Java HotSpot(TM) 64-Bit Server VM
Default Encoding: MS949
Language: ko
Country: KR
--></g></svg>