<?xml version="1.0" encoding="UTF-8" standalone="no"?><svg xmlns="http://www.w3.org/2000/svg" xmlns:xlink="http://www.w3.org/1999/xlink" contentScriptType="application/ecmascript" contentStyleType="text/css" height="414px" preserveAspectRatio="none" style="width:419px;height:414px;" version="1.1" viewBox="0 0 419 414" width="419px" zoomAndPan="magnify"><defs><filter height="300%" id="f1wwtpw52vq2su" width="300%" x="-1" y="-1"><feGaussianBlur result="blurOut" stdDeviation="2.0"/><feColorMatrix in="blurOut" result="blurOut2" type="matrix" values="0 0 0 0 0 0 0 0 0 0 0 0 0 0 0 0 0 0 .4 0"/><feOffset dx="4.0" dy="4.0" in="blurOut2" result="blurOut3"/><feBlend in="SourceGraphic" in2="blurOut3" mode="normal"/></filter></defs><g><!--MD5=[6f01f8f0fe67f2ed6c9990d019f1ba0e]
cluster org.eclipse.jdt.core--><polygon fill="#FFFFFF" filter="url(#f1wwtpw52vq2su)" points="16,6,159,6,166,31.2295,402,31.2295,402,407,16,407,16,6" style="stroke: #000000; stroke-width: 1.5;"/><line style="stroke: #000000; stroke-width: 1.5;" x1="16" x2="166" y1="31.2295" y2="31.2295"/><text fill="#000000" font-family="sans-serif" font-size="14" font-weight="bold" lengthAdjust="spacingAndGlyphs" textLength="137" x="20" y="24.1533">org.eclipse.jdt.core</text><!--MD5=[c37fd5aa18893494527b99f1dca972a6]
class org.eclipse.jdt.core.JavaCore--><rect codeLine="1" fill="#FEFECE" filter="url(#f1wwtpw52vq2su)" height="346.6233" id="org.eclipse.jdt.core.JavaCore" style="stroke: #A80036; stroke-width: 1.5;" width="353" x="32.5" y="44"/><ellipse cx="178.75" cy="60" fill="#ADD1B2" rx="11" ry="11" style="stroke: #A80036; stroke-width: 1.0;"/><path d="M178.5781,53.4844 Q176.7031,53.4844 175.5469,55.2344 Q174.3594,57.0156 174.3594,60.0156 Q174.3594,63.3906 175.5625,65.1563 Q176.625,66.7813 178.375,66.7813 Q180.0625,66.7813 181.0156,65.875 Q182.0781,64.8594 182.2188,62.625 Q182.2188,62.2031 181.9844,61.9688 Q181.7969,61.7344 181.4531,61.7031 Q181.125,61.7031 180.8906,61.8906 Q180.625,62.125 180.625,62.5156 Q180.5938,63.9063 180,64.6406 Q179.4688,65.3438 178.5156,65.3438 Q177.3594,65.3438 176.6406,63.9063 Q175.9219,62.4063 175.9219,59.9844 Q175.9219,57.4375 176.8125,56.0469 Q177.5625,54.9219 178.7031,54.9219 Q179.3594,54.9219 179.8594,55.4688 Q180.4219,56.0781 180.5469,57.1406 Q180.5938,57.8438 181.4219,57.7344 Q182.2031,57.625 182.1563,56.9375 Q181.9688,55.4219 181.2031,54.5469 Q180.2656,53.4844 178.5781,53.4844 Z "/><text fill="#000000" font-family="sans-serif" font-size="12" lengthAdjust="spacingAndGlyphs" textLength="52" x="199.25" y="65.6045">JavaCore</text><line style="stroke: #A80036; stroke-width: 1.5;" x1="33.5" x2="384.5" y1="76" y2="76"/><line style="stroke: #A80036; stroke-width: 1.5;" x1="33.5" x2="189" y1="91.5544" y2="91.5544"/><text fill="#008000" font-family="sans-serif" font-size="11" font-weight="bold" lengthAdjust="spacingAndGlyphs" textLength="40" x="189" y="96.1919">has list</text><line style="stroke: #A80036; stroke-width: 1.5;" x1="229" x2="384.5" y1="91.5544" y2="91.5544"/><line style="stroke: #A80036; stroke-width: 1.0; stroke-dasharray: 1.0,2.0;" x1="33.5" x2="196" y1="114.2178" y2="114.2178"/><text fill="#000000" font-family="sans-serif" font-size="11" lengthAdjust="spacingAndGlyphs" textLength="26" x="196" y="118.8552">class</text><line style="stroke: #A80036; stroke-width: 1.0; stroke-dasharray: 1.0,2.0;" x1="222" x2="384.5" y1="114.2178" y2="114.2178"/><line style="stroke: #A80036; stroke-width: 1.0; stroke-dasharray: 1.0,2.0;" x1="33.5" x2="190" y1="136.8811" y2="136.8811"/><text fill="#000000" font-family="sans-serif" font-size="11" lengthAdjust="spacingAndGlyphs" textLength="38" x="190" y="141.5186">member</text><line style="stroke: #A80036; stroke-width: 1.0; stroke-dasharray: 1.0,2.0;" x1="228" x2="384.5" y1="136.8811" y2="136.8811"/><text fill="#000000" font-family="sans-serif" font-size="11" lengthAdjust="spacingAndGlyphs" textLength="341" x="38.5" y="179.7908">null setComplianceOptions(java.lang.String, java.util.Map) (108271693);</text><line style="stroke: #A80036; stroke-width: 1.0; stroke-dasharray: 1.0,2.0;" x1="33.5" x2="191.5" y1="159.5444" y2="159.5444"/><text fill="#000000" font-family="sans-serif" font-size="11" lengthAdjust="spacingAndGlyphs" textLength="35" x="191.5" y="164.1819">method</text><line style="stroke: #A80036; stroke-width: 1.0; stroke-dasharray: 1.0,2.0;" x1="226.5" x2="384.5" y1="159.5444" y2="159.5444"/><line style="stroke: #A80036; stroke-width: 1.5;" x1="33.5" x2="181.5" y1="193.7622" y2="193.7622"/><text fill="#0000FF" font-family="sans-serif" font-size="11" font-weight="bold" lengthAdjust="spacingAndGlyphs" textLength="55" x="181.5" y="198.3997">calling list</text><line style="stroke: #A80036; stroke-width: 1.5;" x1="236.5" x2="384.5" y1="193.7622" y2="193.7622"/><line style="stroke: #A80036; stroke-width: 1.0; stroke-dasharray: 1.0,2.0;" x1="33.5" x2="196" y1="216.4255" y2="216.4255"/><text fill="#000000" font-family="sans-serif" font-size="11" lengthAdjust="spacingAndGlyphs" textLength="26" x="196" y="221.063">class</text><line style="stroke: #A80036; stroke-width: 1.0; stroke-dasharray: 1.0,2.0;" x1="222" x2="384.5" y1="216.4255" y2="216.4255"/><line style="stroke: #A80036; stroke-width: 1.0; stroke-dasharray: 1.0,2.0;" x1="33.5" x2="190" y1="239.0889" y2="239.0889"/><text fill="#000000" font-family="sans-serif" font-size="11" lengthAdjust="spacingAndGlyphs" textLength="38" x="190" y="243.7263">member</text><line style="stroke: #A80036; stroke-width: 1.0; stroke-dasharray: 1.0,2.0;" x1="228" x2="384.5" y1="239.0889" y2="239.0889"/><line style="stroke: #A80036; stroke-width: 1.0; stroke-dasharray: 1.0,2.0;" x1="33.5" x2="191.5" y1="261.7522" y2="261.7522"/><text fill="#000000" font-family="sans-serif" font-size="11" lengthAdjust="spacingAndGlyphs" textLength="35" x="191.5" y="266.3896">method</text><line style="stroke: #A80036; stroke-width: 1.0; stroke-dasharray: 1.0,2.0;" x1="226.5" x2="384.5" y1="261.7522" y2="261.7522"/><line style="stroke: #A80036; stroke-width: 1.5;" x1="33.5" x2="175" y1="284.4155" y2="284.4155"/><text fill="#FFA500" font-family="sans-serif" font-size="11" font-weight="bold" lengthAdjust="spacingAndGlyphs" textLength="68" x="175" y="289.053">called by list</text><line style="stroke: #A80036; stroke-width: 1.5;" x1="243" x2="384.5" y1="284.4155" y2="284.4155"/><text fill="#000000" font-family="sans-serif" font-size="11" lengthAdjust="spacingAndGlyphs" textLength="129" x="38.5" y="327.3252">JavaParser (1020552337);</text><line style="stroke: #A80036; stroke-width: 1.0; stroke-dasharray: 1.0,2.0;" x1="33.5" x2="196" y1="307.0789" y2="307.0789"/><text fill="#000000" font-family="sans-serif" font-size="11" lengthAdjust="spacingAndGlyphs" textLength="26" x="196" y="311.7163">class</text><line style="stroke: #A80036; stroke-width: 1.0; stroke-dasharray: 1.0,2.0;" x1="222" x2="384.5" y1="307.0789" y2="307.0789"/><line style="stroke: #A80036; stroke-width: 1.0; stroke-dasharray: 1.0,2.0;" x1="33.5" x2="190" y1="341.2966" y2="341.2966"/><text fill="#000000" font-family="sans-serif" font-size="11" lengthAdjust="spacingAndGlyphs" textLength="38" x="190" y="345.9341">member</text><line style="stroke: #A80036; stroke-width: 1.0; stroke-dasharray: 1.0,2.0;" x1="228" x2="384.5" y1="341.2966" y2="341.2966"/><text fill="#000000" font-family="sans-serif" font-size="11" lengthAdjust="spacingAndGlyphs" textLength="162" x="38.5" y="384.2063">void init(java.io.File) (249736858);</text><line style="stroke: #A80036; stroke-width: 1.0; stroke-dasharray: 1.0,2.0;" x1="33.5" x2="191.5" y1="363.96" y2="363.96"/><text fill="#000000" font-family="sans-serif" font-size="11" lengthAdjust="spacingAndGlyphs" textLength="35" x="191.5" y="368.5974">method</text><line style="stroke: #A80036; stroke-width: 1.0; stroke-dasharray: 1.0,2.0;" x1="226.5" x2="384.5" y1="363.96" y2="363.96"/><!--MD5=[98590d21f2c33487926772e3efeffb4e]
@startuml
class org.eclipse.jdt.core.JavaCore{
__**<color:green>has list</color>**__
..class..
..member..
..method..
	null setComplianceOptions(java.lang.String, java.util.Map) (108271693);
__**<color:blue>calling list</color>**__
..class..
..member..
..method..
__**<color:orange>called by list</color>**__
..class..
	JavaParser (1020552337);
..member..
..method..
	void init(java.io.File) (249736858);
}

@enduml

PlantUML version 1.2020.19(Tue Oct 13 00:10:01 KST 2020)
(APACHE source distribution)
Java Runtime: Java(TM) SE Runtime Environment
JVM: Java HotSpot(TM) 64-Bit Server VM
Default Encoding: MS949
Language: ko
Country: KR
--></g></svg>