<?xml version="1.0" encoding="UTF-8" standalone="no"?><svg xmlns="http://www.w3.org/2000/svg" xmlns:xlink="http://www.w3.org/1999/xlink" contentScriptType="application/ecmascript" contentStyleType="text/css" height="558px" preserveAspectRatio="none" style="width:299px;height:558px;" version="1.1" viewBox="0 0 299 558" width="299px" zoomAndPan="magnify"><defs><filter height="300%" id="f1vu99ipjm2gi4" width="300%" x="-1" y="-1"><feGaussianBlur result="blurOut" stdDeviation="2.0"/><feColorMatrix in="blurOut" result="blurOut2" type="matrix" values="0 0 0 0 0 0 0 0 0 0 0 0 0 0 0 0 0 0 .4 0"/><feOffset dx="4.0" dy="4.0" in="blurOut2" result="blurOut3"/><feBlend in="SourceGraphic" in2="blurOut3" mode="normal"/></filter></defs><g><!--MD5=[f552da2e968eda1b29b7ebf65b378026]
cluster shop--><polygon fill="#FFFFFF" filter="url(#f1vu99ipjm2gi4)" points="16,6,57,6,64,31.2295,282,31.2295,282,551,16,551,16,6" style="stroke: #000000; stroke-width: 1.5;"/><line style="stroke: #000000; stroke-width: 1.5;" x1="16" x2="64" y1="31.2295" y2="31.2295"/><text fill="#000000" font-family="sans-serif" font-size="14" font-weight="bold" lengthAdjust="spacingAndGlyphs" textLength="35" x="20" y="24.1533">shop</text><!--MD5=[ccb114ca0b4bc7d7b2c996da4140c734]
class shop.Goods--><rect codeLine="1" fill="#FEFECE" filter="url(#f1vu99ipjm2gi4)" height="490.6033" id="shop.Goods" style="stroke: #A80036; stroke-width: 1.5;" width="233" x="32.5" y="44"/><ellipse cx="126.25" cy="60" fill="#ADD1B2" rx="11" ry="11" style="stroke: #A80036; stroke-width: 1.0;"/><path d="M126.0781,53.4844 Q124.2031,53.4844 123.0469,55.2344 Q121.8594,57.0156 121.8594,60.0156 Q121.8594,63.3906 123.0625,65.1563 Q124.125,66.7813 125.875,66.7813 Q127.5625,66.7813 128.5156,65.875 Q129.5781,64.8594 129.7188,62.625 Q129.7188,62.2031 129.4844,61.9688 Q129.2969,61.7344 128.9531,61.7031 Q128.625,61.7031 128.3906,61.8906 Q128.125,62.125 128.125,62.5156 Q128.0938,63.9063 127.5,64.6406 Q126.9688,65.3438 126.0156,65.3438 Q124.8594,65.3438 124.1406,63.9063 Q123.4219,62.4063 123.4219,59.9844 Q123.4219,57.4375 124.3125,56.0469 Q125.0625,54.9219 126.2031,54.9219 Q126.8594,54.9219 127.3594,55.4688 Q127.9219,56.0781 128.0469,57.1406 Q128.0938,57.8438 128.9219,57.7344 Q129.7031,57.625 129.6563,56.9375 Q129.4688,55.4219 128.7031,54.5469 Q127.7656,53.4844 126.0781,53.4844 Z "/><text fill="#000000" font-family="sans-serif" font-size="12" lengthAdjust="spacingAndGlyphs" textLength="37" x="146.75" y="65.6045">Goods</text><line style="stroke: #A80036; stroke-width: 1.5;" x1="33.5" x2="264.5" y1="76" y2="76"/><line style="stroke: #A80036; stroke-width: 1.5;" x1="33.5" x2="129" y1="91.5544" y2="91.5544"/><text fill="#008000" font-family="sans-serif" font-size="11" font-weight="bold" lengthAdjust="spacingAndGlyphs" textLength="40" x="129" y="96.1919">has list</text><line style="stroke: #A80036; stroke-width: 1.5;" x1="169" x2="264.5" y1="91.5544" y2="91.5544"/><line style="stroke: #A80036; stroke-width: 1.0; stroke-dasharray: 1.0,2.0;" x1="33.5" x2="136" y1="114.2178" y2="114.2178"/><text fill="#000000" font-family="sans-serif" font-size="11" lengthAdjust="spacingAndGlyphs" textLength="26" x="136" y="118.8552">class</text><line style="stroke: #A80036; stroke-width: 1.0; stroke-dasharray: 1.0,2.0;" x1="162" x2="264.5" y1="114.2178" y2="114.2178"/><text fill="#000000" font-family="sans-serif" font-size="11" lengthAdjust="spacingAndGlyphs" textLength="125" x="38.5" y="157.1274">String name (710190911);</text><text fill="#000000" font-family="sans-serif" font-size="11" lengthAdjust="spacingAndGlyphs" textLength="114" x="38.5" y="172.2363">int money (379645464);</text><line style="stroke: #A80036; stroke-width: 1.0; stroke-dasharray: 1.0,2.0;" x1="33.5" x2="130" y1="136.8811" y2="136.8811"/><text fill="#000000" font-family="sans-serif" font-size="11" lengthAdjust="spacingAndGlyphs" textLength="38" x="130" y="141.5186">member</text><line style="stroke: #A80036; stroke-width: 1.0; stroke-dasharray: 1.0,2.0;" x1="168" x2="264.5" y1="136.8811" y2="136.8811"/><text fill="#000000" font-family="sans-serif" font-size="11" lengthAdjust="spacingAndGlyphs" textLength="155" x="38.5" y="206.4541">String getName() (1030684756);</text><text fill="#000000" font-family="sans-serif" font-size="11" lengthAdjust="spacingAndGlyphs" textLength="221" x="38.5" y="221.563">void setName(java.lang.String) (1348453796);</text><text fill="#000000" font-family="sans-serif" font-size="11" lengthAdjust="spacingAndGlyphs" textLength="143" x="38.5" y="236.6719">int getMoney() (1606286799);</text><text fill="#000000" font-family="sans-serif" font-size="11" lengthAdjust="spacingAndGlyphs" textLength="163" x="38.5" y="251.7808">void setMoney(int) (1325144078);</text><line style="stroke: #A80036; stroke-width: 1.0; stroke-dasharray: 1.0,2.0;" x1="33.5" x2="131.5" y1="186.2078" y2="186.2078"/><text fill="#000000" font-family="sans-serif" font-size="11" lengthAdjust="spacingAndGlyphs" textLength="35" x="131.5" y="190.8452">method</text><line style="stroke: #A80036; stroke-width: 1.0; stroke-dasharray: 1.0,2.0;" x1="166.5" x2="264.5" y1="186.2078" y2="186.2078"/><line style="stroke: #A80036; stroke-width: 1.5;" x1="33.5" x2="121.5" y1="265.7522" y2="265.7522"/><text fill="#0000FF" font-family="sans-serif" font-size="11" font-weight="bold" lengthAdjust="spacingAndGlyphs" textLength="55" x="121.5" y="270.3896">calling list</text><line style="stroke: #A80036; stroke-width: 1.5;" x1="176.5" x2="264.5" y1="265.7522" y2="265.7522"/><line style="stroke: #A80036; stroke-width: 1.0; stroke-dasharray: 1.0,2.0;" x1="33.5" x2="136" y1="288.4155" y2="288.4155"/><text fill="#000000" font-family="sans-serif" font-size="11" lengthAdjust="spacingAndGlyphs" textLength="26" x="136" y="293.053">class</text><line style="stroke: #A80036; stroke-width: 1.0; stroke-dasharray: 1.0,2.0;" x1="162" x2="264.5" y1="288.4155" y2="288.4155"/><text fill="#000000" font-family="sans-serif" font-size="11" lengthAdjust="spacingAndGlyphs" textLength="125" x="38.5" y="331.3252">String name (710190911);</text><text fill="#000000" font-family="sans-serif" font-size="11" lengthAdjust="spacingAndGlyphs" textLength="114" x="38.5" y="346.4341">int money (379645464);</text><line style="stroke: #A80036; stroke-width: 1.0; stroke-dasharray: 1.0,2.0;" x1="33.5" x2="130" y1="311.0789" y2="311.0789"/><text fill="#000000" font-family="sans-serif" font-size="11" lengthAdjust="spacingAndGlyphs" textLength="38" x="130" y="315.7163">member</text><line style="stroke: #A80036; stroke-width: 1.0; stroke-dasharray: 1.0,2.0;" x1="168" x2="264.5" y1="311.0789" y2="311.0789"/><line style="stroke: #A80036; stroke-width: 1.0; stroke-dasharray: 1.0,2.0;" x1="33.5" x2="131.5" y1="360.4055" y2="360.4055"/><text fill="#000000" font-family="sans-serif" font-size="11" lengthAdjust="spacingAndGlyphs" textLength="35" x="131.5" y="365.043">method</text><line style="stroke: #A80036; stroke-width: 1.0; stroke-dasharray: 1.0,2.0;" x1="166.5" x2="264.5" y1="360.4055" y2="360.4055"/><line style="stroke: #A80036; stroke-width: 1.5;" x1="33.5" x2="115" y1="383.0688" y2="383.0688"/><text fill="#FFA500" font-family="sans-serif" font-size="11" font-weight="bold" lengthAdjust="spacingAndGlyphs" textLength="68" x="115" y="387.7063">called by list</text><line style="stroke: #A80036; stroke-width: 1.5;" x1="183" x2="264.5" y1="383.0688" y2="383.0688"/><text fill="#000000" font-family="sans-serif" font-size="11" lengthAdjust="spacingAndGlyphs" textLength="100" x="38.5" y="425.9785">Goods (198499365);</text><text fill="#000000" font-family="sans-serif" font-size="11" lengthAdjust="spacingAndGlyphs" textLength="91" x="38.5" y="441.0874">User (621300254);</text><line style="stroke: #A80036; stroke-width: 1.0; stroke-dasharray: 1.0,2.0;" x1="33.5" x2="136" y1="405.7322" y2="405.7322"/><text fill="#000000" font-family="sans-serif" font-size="11" lengthAdjust="spacingAndGlyphs" textLength="26" x="136" y="410.3696">class</text><line style="stroke: #A80036; stroke-width: 1.0; stroke-dasharray: 1.0,2.0;" x1="162" x2="264.5" y1="405.7322" y2="405.7322"/><line style="stroke: #A80036; stroke-width: 1.0; stroke-dasharray: 1.0,2.0;" x1="33.5" x2="130" y1="455.0588" y2="455.0588"/><text fill="#000000" font-family="sans-serif" font-size="11" lengthAdjust="spacingAndGlyphs" textLength="38" x="130" y="459.6963">member</text><line style="stroke: #A80036; stroke-width: 1.0; stroke-dasharray: 1.0,2.0;" x1="168" x2="264.5" y1="455.0588" y2="455.0588"/><text fill="#000000" font-family="sans-serif" font-size="11" lengthAdjust="spacingAndGlyphs" textLength="221" x="38.5" y="497.9685">void setName(java.lang.String) (1348453796);</text><text fill="#000000" font-family="sans-serif" font-size="11" lengthAdjust="spacingAndGlyphs" textLength="163" x="38.5" y="513.0774">void setMoney(int) (1325144078);</text><text fill="#000000" font-family="sans-serif" font-size="11" lengthAdjust="spacingAndGlyphs" textLength="194" x="38.5" y="528.1863">boolean buy(shop.Goods) (359368949);</text><line style="stroke: #A80036; stroke-width: 1.0; stroke-dasharray: 1.0,2.0;" x1="33.5" x2="131.5" y1="477.7222" y2="477.7222"/><text fill="#000000" font-family="sans-serif" font-size="11" lengthAdjust="spacingAndGlyphs" textLength="35" x="131.5" y="482.3596">method</text><line style="stroke: #A80036; stroke-width: 1.0; stroke-dasharray: 1.0,2.0;" x1="166.5" x2="264.5" y1="477.7222" y2="477.7222"/><!--MD5=[6676c27d659b53fe90db8f18d20042bc]
@startuml
class shop.Goods{
__**<color:green>has list</color>**__
..class..
..member..
	String name (710190911);
	int money (379645464);
..method..
	String getName() (1030684756);
	void setName(java.lang.String) (1348453796);
	int getMoney() (1606286799);
	void setMoney(int) (1325144078);
__**<color:blue>calling list</color>**__
..class..
..member..
	String name (710190911);
	int money (379645464);
..method..
__**<color:orange>called by list</color>**__
..class..
	Goods (198499365);
	User (621300254);
..member..
..method..
	void setName(java.lang.String) (1348453796);
	void setMoney(int) (1325144078);
	boolean buy(shop.Goods) (359368949);
}

@enduml

PlantUML version 1.2020.19(Tue Oct 13 00:10:01 KST 2020)
(APACHE source distribution)
Java Runtime: Java(TM) SE Runtime Environment
JVM: Java HotSpot(TM) 64-Bit Server VM
Default Encoding: MS949
Language: ko
Country: KR
--></g></svg>