<?xml version="1.0" encoding="UTF-8" standalone="no"?><svg xmlns="http://www.w3.org/2000/svg" xmlns:xlink="http://www.w3.org/1999/xlink" contentScriptType="application/ecmascript" contentStyleType="text/css" height="599px" preserveAspectRatio="none" style="width:381px;height:599px;" version="1.1" viewBox="0 0 381 599" width="381px" zoomAndPan="magnify"><defs><filter height="300%" id="f1ml7z84pewc51" width="300%" x="-1" y="-1"><feGaussianBlur result="blurOut" stdDeviation="2.0"/><feColorMatrix in="blurOut" result="blurOut2" type="matrix" values="0 0 0 0 0 0 0 0 0 0 0 0 0 0 0 0 0 0 .4 0"/><feOffset dx="4.0" dy="4.0" in="blurOut2" result="blurOut3"/><feBlend in="SourceGraphic" in2="blurOut3" mode="normal"/></filter></defs><g><!--MD5=[f552da2e968eda1b29b7ebf65b378026]
cluster shop--><polygon fill="#FFFFFF" filter="url(#f1ml7z84pewc51)" points="16,6,57,6,64,31.2295,364,31.2295,364,592,16,592,16,6" style="stroke: #000000; stroke-width: 1.5;"/><line style="stroke: #000000; stroke-width: 1.5;" x1="16" x2="64" y1="31.2295" y2="31.2295"/><text fill="#000000" font-family="sans-serif" font-size="14" font-weight="bold" lengthAdjust="spacingAndGlyphs" textLength="35" x="20" y="24.1533">shop</text><!--MD5=[2ee62277c396b779d9ffde88a6954944]
class shop.Shop--><rect codeLine="1" fill="#FEFECE" filter="url(#f1ml7z84pewc51)" height="532.3755" id="shop.Shop" style="stroke: #A80036; stroke-width: 1.5;" width="316" x="32" y="44"/><ellipse cx="171.25" cy="60" fill="#ADD1B2" rx="11" ry="11" style="stroke: #A80036; stroke-width: 1.0;"/><path d="M171.0781,53.4844 Q169.2031,53.4844 168.0469,55.2344 Q166.8594,57.0156 166.8594,60.0156 Q166.8594,63.3906 168.0625,65.1563 Q169.125,66.7813 170.875,66.7813 Q172.5625,66.7813 173.5156,65.875 Q174.5781,64.8594 174.7188,62.625 Q174.7188,62.2031 174.4844,61.9688 Q174.2969,61.7344 173.9531,61.7031 Q173.625,61.7031 173.3906,61.8906 Q173.125,62.125 173.125,62.5156 Q173.0938,63.9063 172.5,64.6406 Q171.9688,65.3438 171.0156,65.3438 Q169.8594,65.3438 169.1406,63.9063 Q168.4219,62.4063 168.4219,59.9844 Q168.4219,57.4375 169.3125,56.0469 Q170.0625,54.9219 171.2031,54.9219 Q171.8594,54.9219 172.3594,55.4688 Q172.9219,56.0781 173.0469,57.1406 Q173.0938,57.8438 173.9219,57.7344 Q174.7031,57.625 174.6563,56.9375 Q174.4688,55.4219 173.7031,54.5469 Q172.7656,53.4844 171.0781,53.4844 Z "/><text fill="#000000" font-family="sans-serif" font-size="12" lengthAdjust="spacingAndGlyphs" textLength="29" x="191.75" y="65.6045">Shop</text><line style="stroke: #A80036; stroke-width: 1.5;" x1="33" x2="347" y1="76" y2="76"/><line style="stroke: #A80036; stroke-width: 1.5;" x1="33" x2="170" y1="91.5544" y2="91.5544"/><text fill="#008000" font-family="sans-serif" font-size="11" font-weight="bold" lengthAdjust="spacingAndGlyphs" textLength="40" x="170" y="96.1919">has list</text><line style="stroke: #A80036; stroke-width: 1.5;" x1="210" x2="347" y1="91.5544" y2="91.5544"/><line style="stroke: #A80036; stroke-width: 1.0; stroke-dasharray: 1.0,2.0;" x1="33" x2="177" y1="114.2178" y2="114.2178"/><text fill="#000000" font-family="sans-serif" font-size="11" lengthAdjust="spacingAndGlyphs" textLength="26" x="177" y="118.8552">class</text><line style="stroke: #A80036; stroke-width: 1.0; stroke-dasharray: 1.0,2.0;" x1="203" x2="347" y1="114.2178" y2="114.2178"/><text fill="#000000" font-family="sans-serif" font-size="11" lengthAdjust="spacingAndGlyphs" textLength="212" x="38" y="157.1274">Map&lt;String,Goods&gt; goodsSet (452121674);</text><text fill="#000000" font-family="sans-serif" font-size="11" lengthAdjust="spacingAndGlyphs" textLength="195" x="38" y="172.2363">Map&lt;String,User&gt; userSet (416841088);</text><line style="stroke: #A80036; stroke-width: 1.0; stroke-dasharray: 1.0,2.0;" x1="33" x2="171" y1="136.8811" y2="136.8811"/><text fill="#000000" font-family="sans-serif" font-size="11" lengthAdjust="spacingAndGlyphs" textLength="38" x="171" y="141.5186">member</text><line style="stroke: #A80036; stroke-width: 1.0; stroke-dasharray: 1.0,2.0;" x1="209" x2="347" y1="136.8811" y2="136.8811"/><text fill="#000000" font-family="sans-serif" font-size="11" lengthAdjust="spacingAndGlyphs" textLength="304" x="38" y="206.4541">boolean regist(java.lang.String, java.lang.String) (1636050357);</text><text fill="#000000" font-family="sans-serif" font-size="11" lengthAdjust="spacingAndGlyphs" textLength="284" x="38" y="221.563">User login(java.lang.String, java.lang.String) (1483298597);</text><text fill="#000000" font-family="sans-serif" font-size="11" lengthAdjust="spacingAndGlyphs" textLength="267" x="38" y="236.6719">boolean check(shop.User, shop.Goods) (1412794598);</text><text fill="#000000" font-family="sans-serif" font-size="11" lengthAdjust="spacingAndGlyphs" textLength="250" x="38" y="251.7808">boolean buy(shop.User, shop.Goods) (257608605);</text><text fill="#000000" font-family="sans-serif" font-size="11" lengthAdjust="spacingAndGlyphs" textLength="224" x="38" y="266.8896">boolean charge(shop.User, int) (1337192014);</text><text fill="#000000" font-family="sans-serif" font-size="11" lengthAdjust="spacingAndGlyphs" textLength="294" x="38" y="281.9985">void addGoods(shop.Goods, java.lang.String) (1567705314);</text><line style="stroke: #A80036; stroke-width: 1.0; stroke-dasharray: 1.0,2.0;" x1="33" x2="172.5" y1="186.2078" y2="186.2078"/><text fill="#000000" font-family="sans-serif" font-size="11" lengthAdjust="spacingAndGlyphs" textLength="35" x="172.5" y="190.8452">method</text><line style="stroke: #A80036; stroke-width: 1.0; stroke-dasharray: 1.0,2.0;" x1="207.5" x2="347" y1="186.2078" y2="186.2078"/><line style="stroke: #A80036; stroke-width: 1.5;" x1="33" x2="162.5" y1="295.97" y2="295.97"/><text fill="#0000FF" font-family="sans-serif" font-size="11" font-weight="bold" lengthAdjust="spacingAndGlyphs" textLength="55" x="162.5" y="300.6074">calling list</text><line style="stroke: #A80036; stroke-width: 1.5;" x1="217.5" x2="347" y1="295.97" y2="295.97"/><text fill="#000000" font-family="sans-serif" font-size="11" lengthAdjust="spacingAndGlyphs" textLength="91" x="38" y="338.8796">User (621300254);</text><line style="stroke: #A80036; stroke-width: 1.0; stroke-dasharray: 1.0,2.0;" x1="33" x2="177" y1="318.6333" y2="318.6333"/><text fill="#000000" font-family="sans-serif" font-size="11" lengthAdjust="spacingAndGlyphs" textLength="26" x="177" y="323.2708">class</text><line style="stroke: #A80036; stroke-width: 1.0; stroke-dasharray: 1.0,2.0;" x1="203" x2="347" y1="318.6333" y2="318.6333"/><line style="stroke: #A80036; stroke-width: 1.0; stroke-dasharray: 1.0,2.0;" x1="33" x2="171" y1="352.8511" y2="352.8511"/><text fill="#000000" font-family="sans-serif" font-size="11" lengthAdjust="spacingAndGlyphs" textLength="38" x="171" y="357.4885">member</text><line style="stroke: #A80036; stroke-width: 1.0; stroke-dasharray: 1.0,2.0;" x1="209" x2="347" y1="352.8511" y2="352.8511"/><text fill="#000000" font-family="sans-serif" font-size="11" lengthAdjust="spacingAndGlyphs" textLength="157" x="38" y="395.7607">void setMoney(int) (637241618);</text><line style="stroke: #A80036; stroke-width: 1.0; stroke-dasharray: 1.0,2.0;" x1="33" x2="172.5" y1="375.5144" y2="375.5144"/><text fill="#000000" font-family="sans-serif" font-size="11" lengthAdjust="spacingAndGlyphs" textLength="35" x="172.5" y="380.1519">method</text><line style="stroke: #A80036; stroke-width: 1.0; stroke-dasharray: 1.0,2.0;" x1="207.5" x2="347" y1="375.5144" y2="375.5144"/><line style="stroke: #A80036; stroke-width: 1.5;" x1="33" x2="156" y1="409.7322" y2="409.7322"/><text fill="#FFA500" font-family="sans-serif" font-size="11" font-weight="bold" lengthAdjust="spacingAndGlyphs" textLength="68" x="156" y="414.3696">called by list</text><line style="stroke: #A80036; stroke-width: 1.5;" x1="224" x2="347" y1="409.7322" y2="409.7322"/><text fill="#000000" font-family="sans-serif" font-size="11" lengthAdjust="spacingAndGlyphs" textLength="138" x="38" y="452.6418">TestScenario (2082781203);</text><line style="stroke: #A80036; stroke-width: 1.0; stroke-dasharray: 1.0,2.0;" x1="33" x2="177" y1="432.3955" y2="432.3955"/><text fill="#000000" font-family="sans-serif" font-size="11" lengthAdjust="spacingAndGlyphs" textLength="26" x="177" y="437.033">class</text><line style="stroke: #A80036; stroke-width: 1.0; stroke-dasharray: 1.0,2.0;" x1="203" x2="347" y1="432.3955" y2="432.3955"/><line style="stroke: #A80036; stroke-width: 1.0; stroke-dasharray: 1.0,2.0;" x1="33" x2="171" y1="466.6133" y2="466.6133"/><text fill="#000000" font-family="sans-serif" font-size="11" lengthAdjust="spacingAndGlyphs" textLength="38" x="171" y="471.2507">member</text><line style="stroke: #A80036; stroke-width: 1.0; stroke-dasharray: 1.0,2.0;" x1="209" x2="347" y1="466.6133" y2="466.6133"/><text fill="#000000" font-family="sans-serif" font-size="11" lengthAdjust="spacingAndGlyphs" textLength="125" x="38" y="509.5229">void Login() (741730375);</text><text fill="#000000" font-family="sans-serif" font-size="11" lengthAdjust="spacingAndGlyphs" textLength="167" x="38" y="524.6318">void Buy_Product() (2077528955);</text><text fill="#000000" font-family="sans-serif" font-size="11" lengthAdjust="spacingAndGlyphs" textLength="166" x="38" y="539.7407">void Charge_Money() (35534346);</text><text fill="#000000" font-family="sans-serif" font-size="11" lengthAdjust="spacingAndGlyphs" textLength="168" x="38" y="554.8496">void Add_Product() (1537471098);</text><text fill="#000000" font-family="sans-serif" font-size="11" lengthAdjust="spacingAndGlyphs" textLength="162" x="38" y="569.9585">void Registration() (1490509465);</text><line style="stroke: #A80036; stroke-width: 1.0; stroke-dasharray: 1.0,2.0;" x1="33" x2="172.5" y1="489.2766" y2="489.2766"/><text fill="#000000" font-family="sans-serif" font-size="11" lengthAdjust="spacingAndGlyphs" textLength="35" x="172.5" y="493.9141">method</text><line style="stroke: #A80036; stroke-width: 1.0; stroke-dasharray: 1.0,2.0;" x1="207.5" x2="347" y1="489.2766" y2="489.2766"/><!--MD5=[7f66c14eec4281d16c55bc1765c00d04]
@startuml
class shop.Shop{
__**<color:green>has list</color>**__
..class..
..member..
	Map<String,Goods> goodsSet (452121674);
	Map<String,User> userSet (416841088);
..method..
	boolean regist(java.lang.String, java.lang.String) (1636050357);
	User login(java.lang.String, java.lang.String) (1483298597);
	boolean check(shop.User, shop.Goods) (1412794598);
	boolean buy(shop.User, shop.Goods) (257608605);
	boolean charge(shop.User, int) (1337192014);
	void addGoods(shop.Goods, java.lang.String) (1567705314);
__**<color:blue>calling list</color>**__
..class..
	User (621300254);
..member..
..method..
	void setMoney(int) (637241618);
__**<color:orange>called by list</color>**__
..class..
	TestScenario (2082781203);
..member..
..method..
	void Login() (741730375);
	void Buy_Product() (2077528955);
	void Charge_Money() (35534346);
	void Add_Product() (1537471098);
	void Registration() (1490509465);
}

@enduml

PlantUML version 1.2020.19(Tue Oct 13 00:10:01 KST 2020)
(APACHE source distribution)
Java Runtime: Java(TM) SE Runtime Environment
JVM: Java HotSpot(TM) 64-Bit Server VM
Default Encoding: MS949
Language: ko
Country: KR
--></g></svg>