<?xml version="1.0" encoding="UTF-8" standalone="no"?><svg xmlns="http://www.w3.org/2000/svg" xmlns:xlink="http://www.w3.org/1999/xlink" contentScriptType="application/ecmascript" contentStyleType="text/css" height="500px" preserveAspectRatio="none" style="width:331px;height:500px;" version="1.1" viewBox="0 0 331 500" width="331px" zoomAndPan="magnify"><defs><filter height="300%" id="fu90hd175eu64" width="300%" x="-1" y="-1"><feGaussianBlur result="blurOut" stdDeviation="2.0"/><feColorMatrix in="blurOut" result="blurOut2" type="matrix" values="0 0 0 0 0 0 0 0 0 0 0 0 0 0 0 0 0 0 .4 0"/><feOffset dx="4.0" dy="4.0" in="blurOut2" result="blurOut3"/><feBlend in="SourceGraphic" in2="blurOut3" mode="normal"/></filter></defs><g><!--MD5=[f6064968006b102cb1b3092be2f53bd9]
class cl1--><rect codeLine="1" fill="#FEFECE" filter="url(#fu90hd175eu64)" height="479.0488" id="cl1" style="stroke: #A80036; stroke-width: 1.5;" width="310" x="7" y="7"/><ellipse cx="93.75" cy="23" fill="#ADD1B2" rx="11" ry="11" style="stroke: #A80036; stroke-width: 1.0;"/><path d="M93.5781,16.4844 Q91.7031,16.4844 90.5469,18.2344 Q89.3594,20.0156 89.3594,23.0156 Q89.3594,26.3906 90.5625,28.1563 Q91.625,29.7813 93.375,29.7813 Q95.0625,29.7813 96.0156,28.875 Q97.0781,27.8594 97.2188,25.625 Q97.2188,25.2031 96.9844,24.9688 Q96.7969,24.7344 96.4531,24.7031 Q96.125,24.7031 95.8906,24.8906 Q95.625,25.125 95.625,25.5156 Q95.5938,26.9063 95,27.6406 Q94.4688,28.3438 93.5156,28.3438 Q92.3594,28.3438 91.6406,26.9063 Q90.9219,25.4063 90.9219,22.9844 Q90.9219,20.4375 91.8125,19.0469 Q92.5625,17.9219 93.7031,17.9219 Q94.3594,17.9219 94.8594,18.4688 Q95.4219,19.0781 95.5469,20.1406 Q95.5938,20.8438 96.4219,20.7344 Q97.2031,20.625 97.1563,19.9375 Q96.9688,18.4219 96.2031,17.5469 Q95.2656,16.4844 93.5781,16.4844 Z "/><text fill="#000000" font-family="sans-serif" font-size="12" lengthAdjust="spacingAndGlyphs" textLength="128" x="114.25" y="28.6045">shopTest.TestScenario</text><line style="stroke: #A80036; stroke-width: 1.5;" x1="8" x2="316" y1="39" y2="39"/><line style="stroke: #A80036; stroke-width: 1.5;" x1="8" x2="142" y1="54.5544" y2="54.5544"/><text fill="#008000" font-family="sans-serif" font-size="11" font-weight="bold" lengthAdjust="spacingAndGlyphs" textLength="40" x="142" y="59.1919">has list</text><line style="stroke: #A80036; stroke-width: 1.5;" x1="182" x2="316" y1="54.5544" y2="54.5544"/><line style="stroke: #A80036; stroke-width: 1.0; stroke-dasharray: 1.0,2.0;" x1="8" x2="149" y1="77.2178" y2="77.2178"/><text fill="#000000" font-family="sans-serif" font-size="11" lengthAdjust="spacingAndGlyphs" textLength="26" x="149" y="81.8552">class</text><line style="stroke: #A80036; stroke-width: 1.0; stroke-dasharray: 1.0,2.0;" x1="175" x2="316" y1="77.2178" y2="77.2178"/><text fill="#000000" font-family="sans-serif" font-size="11" lengthAdjust="spacingAndGlyphs" textLength="126" x="13" y="120.1274">Shop shop (1709804316);</text><line style="stroke: #A80036; stroke-width: 1.0; stroke-dasharray: 1.0,2.0;" x1="8" x2="143" y1="99.8811" y2="99.8811"/><text fill="#000000" font-family="sans-serif" font-size="11" lengthAdjust="spacingAndGlyphs" textLength="38" x="143" y="104.5186">member</text><line style="stroke: #A80036; stroke-width: 1.0; stroke-dasharray: 1.0,2.0;" x1="181" x2="316" y1="99.8811" y2="99.8811"/><text fill="#000000" font-family="sans-serif" font-size="11" lengthAdjust="spacingAndGlyphs" textLength="131" x="13" y="154.3452">void Login() (1574598287);</text><text fill="#000000" font-family="sans-serif" font-size="11" lengthAdjust="spacingAndGlyphs" textLength="167" x="13" y="169.4541">void Buy_Product() (2056031695);</text><text fill="#000000" font-family="sans-serif" font-size="11" lengthAdjust="spacingAndGlyphs" textLength="172" x="13" y="184.563">void Charge_Money() (606508809);</text><text fill="#000000" font-family="sans-serif" font-size="11" lengthAdjust="spacingAndGlyphs" textLength="162" x="13" y="199.6719">void Add_Product() (718187988);</text><text fill="#000000" font-family="sans-serif" font-size="11" lengthAdjust="spacingAndGlyphs" textLength="156" x="13" y="214.7808">void Registration() (615438348);</text><line style="stroke: #A80036; stroke-width: 1.0; stroke-dasharray: 1.0,2.0;" x1="8" x2="144.5" y1="134.0989" y2="134.0989"/><text fill="#000000" font-family="sans-serif" font-size="11" lengthAdjust="spacingAndGlyphs" textLength="35" x="144.5" y="138.7363">method</text><line style="stroke: #A80036; stroke-width: 1.0; stroke-dasharray: 1.0,2.0;" x1="179.5" x2="316" y1="134.0989" y2="134.0989"/><line style="stroke: #A80036; stroke-width: 1.5;" x1="8" x2="134.5" y1="228.7522" y2="228.7522"/><text fill="#0000FF" font-family="sans-serif" font-size="11" font-weight="bold" lengthAdjust="spacingAndGlyphs" textLength="55" x="134.5" y="233.3896">calling list</text><line style="stroke: #A80036; stroke-width: 1.5;" x1="189.5" x2="316" y1="228.7522" y2="228.7522"/><text fill="#000000" font-family="sans-serif" font-size="11" lengthAdjust="spacingAndGlyphs" textLength="93" x="13" y="271.6619">Shop (536122141);</text><line style="stroke: #A80036; stroke-width: 1.0; stroke-dasharray: 1.0,2.0;" x1="8" x2="149" y1="251.4155" y2="251.4155"/><text fill="#000000" font-family="sans-serif" font-size="11" lengthAdjust="spacingAndGlyphs" textLength="26" x="149" y="256.053">class</text><line style="stroke: #A80036; stroke-width: 1.0; stroke-dasharray: 1.0,2.0;" x1="175" x2="316" y1="251.4155" y2="251.4155"/><line style="stroke: #A80036; stroke-width: 1.0; stroke-dasharray: 1.0,2.0;" x1="8" x2="143" y1="285.6333" y2="285.6333"/><text fill="#000000" font-family="sans-serif" font-size="11" lengthAdjust="spacingAndGlyphs" textLength="38" x="143" y="290.2708">member</text><line style="stroke: #A80036; stroke-width: 1.0; stroke-dasharray: 1.0,2.0;" x1="181" x2="316" y1="285.6333" y2="285.6333"/><text fill="#000000" font-family="sans-serif" font-size="11" lengthAdjust="spacingAndGlyphs" textLength="278" x="13" y="328.543">User login(java.lang.String, java.lang.String) (914356853);</text><text fill="#000000" font-family="sans-serif" font-size="11" lengthAdjust="spacingAndGlyphs" textLength="250" x="13" y="343.6519">boolean buy(shop.User, shop.Goods) (195228908);</text><text fill="#000000" font-family="sans-serif" font-size="11" lengthAdjust="spacingAndGlyphs" textLength="218" x="13" y="358.7607">boolean charge(shop.User, int) (471579726);</text><text fill="#000000" font-family="sans-serif" font-size="11" lengthAdjust="spacingAndGlyphs" textLength="294" x="13" y="373.8696">void addGoods(shop.Goods, java.lang.String) (1442726378);</text><text fill="#000000" font-family="sans-serif" font-size="11" lengthAdjust="spacingAndGlyphs" textLength="298" x="13" y="388.9785">boolean regist(java.lang.String, java.lang.String) (752316209);</text><line style="stroke: #A80036; stroke-width: 1.0; stroke-dasharray: 1.0,2.0;" x1="8" x2="144.5" y1="308.2966" y2="308.2966"/><text fill="#000000" font-family="sans-serif" font-size="11" lengthAdjust="spacingAndGlyphs" textLength="35" x="144.5" y="312.9341">method</text><line style="stroke: #A80036; stroke-width: 1.0; stroke-dasharray: 1.0,2.0;" x1="179.5" x2="316" y1="308.2966" y2="308.2966"/><line style="stroke: #A80036; stroke-width: 1.5;" x1="8" x2="128" y1="402.95" y2="402.95"/><text fill="#FFA500" font-family="sans-serif" font-size="11" font-weight="bold" lengthAdjust="spacingAndGlyphs" textLength="68" x="128" y="407.5874">called by list</text><line style="stroke: #A80036; stroke-width: 1.5;" x1="196" x2="316" y1="402.95" y2="402.95"/><line style="stroke: #A80036; stroke-width: 1.0; stroke-dasharray: 1.0,2.0;" x1="8" x2="149" y1="425.6133" y2="425.6133"/><text fill="#000000" font-family="sans-serif" font-size="11" lengthAdjust="spacingAndGlyphs" textLength="26" x="149" y="430.2507">class</text><line style="stroke: #A80036; stroke-width: 1.0; stroke-dasharray: 1.0,2.0;" x1="175" x2="316" y1="425.6133" y2="425.6133"/><line style="stroke: #A80036; stroke-width: 1.0; stroke-dasharray: 1.0,2.0;" x1="8" x2="143" y1="448.2766" y2="448.2766"/><text fill="#000000" font-family="sans-serif" font-size="11" lengthAdjust="spacingAndGlyphs" textLength="38" x="143" y="452.9141">member</text><line style="stroke: #A80036; stroke-width: 1.0; stroke-dasharray: 1.0,2.0;" x1="181" x2="316" y1="448.2766" y2="448.2766"/><line style="stroke: #A80036; stroke-width: 1.0; stroke-dasharray: 1.0,2.0;" x1="8" x2="144.5" y1="470.9399" y2="470.9399"/><text fill="#000000" font-family="sans-serif" font-size="11" lengthAdjust="spacingAndGlyphs" textLength="35" x="144.5" y="475.5774">method</text><line style="stroke: #A80036; stroke-width: 1.0; stroke-dasharray: 1.0,2.0;" x1="179.5" x2="316" y1="470.9399" y2="470.9399"/><!--MD5=[b2a034b1a6d9b5697ee1bf44f51e7563]
@startuml
class "shopTest.TestScenario" as cl1{
__**<color:green>has list</color>**__
..class..
..member..
	Shop shop (1709804316);
..method..
	void Login() (1574598287);
	void Buy_Product() (2056031695);
	void Charge_Money() (606508809);
	void Add_Product() (718187988);
	void Registration() (615438348);
__**<color:blue>calling list</color>**__
..class..
	Shop (536122141);
..member..
..method..
	User login(java.lang.String, java.lang.String) (914356853);
	boolean buy(shop.User, shop.Goods) (195228908);
	boolean charge(shop.User, int) (471579726);
	void addGoods(shop.Goods, java.lang.String) (1442726378);
	boolean regist(java.lang.String, java.lang.String) (752316209);
__**<color:orange>called by list</color>**__
..class..
..member..
..method..
}

@enduml

PlantUML version 1.2020.19(Tue Oct 13 00:10:01 KST 2020)
(APACHE source distribution)
Java Runtime: Java(TM) SE Runtime Environment
JVM: Java HotSpot(TM) 64-Bit Server VM
Default Encoding: MS949
Language: ko
Country: KR
--></g></svg>