<?xml version="1.0" encoding="UTF-8" standalone="no"?><svg xmlns="http://www.w3.org/2000/svg" xmlns:xlink="http://www.w3.org/1999/xlink" contentScriptType="application/ecmascript" contentStyleType="text/css" height="500px" preserveAspectRatio="none" style="width:331px;height:500px;" version="1.1" viewBox="0 0 331 500" width="331px" zoomAndPan="magnify"><defs><filter height="300%" id="f1azzodrpqdabg" width="300%" x="-1" y="-1"><feGaussianBlur result="blurOut" stdDeviation="2.0"/><feColorMatrix in="blurOut" result="blurOut2" type="matrix" values="0 0 0 0 0 0 0 0 0 0 0 0 0 0 0 0 0 0 .4 0"/><feOffset dx="4.0" dy="4.0" in="blurOut2" result="blurOut3"/><feBlend in="SourceGraphic" in2="blurOut3" mode="normal"/></filter></defs><g><!--MD5=[f6064968006b102cb1b3092be2f53bd9]
class cl1--><rect codeLine="1" fill="#FEFECE" filter="url(#f1azzodrpqdabg)" height="479.0488" id="cl1" style="stroke: #A80036; stroke-width: 1.5;" width="310" x="7" y="7"/><ellipse cx="103.25" cy="23" fill="#ADD1B2" rx="11" ry="11" style="stroke: #A80036; stroke-width: 1.0;"/><path d="M103.0781,16.4844 Q101.2031,16.4844 100.0469,18.2344 Q98.8594,20.0156 98.8594,23.0156 Q98.8594,26.3906 100.0625,28.1563 Q101.125,29.7813 102.875,29.7813 Q104.5625,29.7813 105.5156,28.875 Q106.5781,27.8594 106.7188,25.625 Q106.7188,25.2031 106.4844,24.9688 Q106.2969,24.7344 105.9531,24.7031 Q105.625,24.7031 105.3906,24.8906 Q105.125,25.125 105.125,25.5156 Q105.0938,26.9063 104.5,27.6406 Q103.9688,28.3438 103.0156,28.3438 Q101.8594,28.3438 101.1406,26.9063 Q100.4219,25.4063 100.4219,22.9844 Q100.4219,20.4375 101.3125,19.0469 Q102.0625,17.9219 103.2031,17.9219 Q103.8594,17.9219 104.3594,18.4688 Q104.9219,19.0781 105.0469,20.1406 Q105.0938,20.8438 105.9219,20.7344 Q106.7031,20.625 106.6563,19.9375 Q106.4688,18.4219 105.7031,17.5469 Q104.7656,16.4844 103.0781,16.4844 Z "/><text fill="#000000" font-family="sans-serif" font-size="12" lengthAdjust="spacingAndGlyphs" textLength="109" x="123.75" y="28.6045">shopTest.TestCase</text><line style="stroke: #A80036; stroke-width: 1.5;" x1="8" x2="316" y1="39" y2="39"/><line style="stroke: #A80036; stroke-width: 1.5;" x1="8" x2="142" y1="54.5544" y2="54.5544"/><text fill="#008000" font-family="sans-serif" font-size="11" font-weight="bold" lengthAdjust="spacingAndGlyphs" textLength="40" x="142" y="59.1919">has list</text><line style="stroke: #A80036; stroke-width: 1.5;" x1="182" x2="316" y1="54.5544" y2="54.5544"/><line style="stroke: #A80036; stroke-width: 1.0; stroke-dasharray: 1.0,2.0;" x1="8" x2="149" y1="77.2178" y2="77.2178"/><text fill="#000000" font-family="sans-serif" font-size="11" lengthAdjust="spacingAndGlyphs" textLength="26" x="149" y="81.8552">class</text><line style="stroke: #A80036; stroke-width: 1.0; stroke-dasharray: 1.0,2.0;" x1="175" x2="316" y1="77.2178" y2="77.2178"/><text fill="#000000" font-family="sans-serif" font-size="11" lengthAdjust="spacingAndGlyphs" textLength="126" x="13" y="120.1274">Shop shop (1789718525);</text><line style="stroke: #A80036; stroke-width: 1.0; stroke-dasharray: 1.0,2.0;" x1="8" x2="143" y1="99.8811" y2="99.8811"/><text fill="#000000" font-family="sans-serif" font-size="11" lengthAdjust="spacingAndGlyphs" textLength="38" x="143" y="104.5186">member</text><line style="stroke: #A80036; stroke-width: 1.0; stroke-dasharray: 1.0,2.0;" x1="181" x2="316" y1="99.8811" y2="99.8811"/><text fill="#000000" font-family="sans-serif" font-size="11" lengthAdjust="spacingAndGlyphs" textLength="131" x="13" y="154.3452">void Login() (1536471117);</text><text fill="#000000" font-family="sans-serif" font-size="11" lengthAdjust="spacingAndGlyphs" textLength="149" x="13" y="169.4541">void Buy_Product() (9190301);</text><text fill="#000000" font-family="sans-serif" font-size="11" lengthAdjust="spacingAndGlyphs" textLength="178" x="13" y="184.563">void Charge_Money() (1278852808);</text><text fill="#000000" font-family="sans-serif" font-size="11" lengthAdjust="spacingAndGlyphs" textLength="138" x="13" y="199.6719">void Add_Product() (63390);</text><text fill="#000000" font-family="sans-serif" font-size="11" lengthAdjust="spacingAndGlyphs" textLength="162" x="13" y="214.7808">void Registration() (2129144075);</text><line style="stroke: #A80036; stroke-width: 1.0; stroke-dasharray: 1.0,2.0;" x1="8" x2="144.5" y1="134.0989" y2="134.0989"/><text fill="#000000" font-family="sans-serif" font-size="11" lengthAdjust="spacingAndGlyphs" textLength="35" x="144.5" y="138.7363">method</text><line style="stroke: #A80036; stroke-width: 1.0; stroke-dasharray: 1.0,2.0;" x1="179.5" x2="316" y1="134.0989" y2="134.0989"/><line style="stroke: #A80036; stroke-width: 1.5;" x1="8" x2="134.5" y1="228.7522" y2="228.7522"/><text fill="#0000FF" font-family="sans-serif" font-size="11" font-weight="bold" lengthAdjust="spacingAndGlyphs" textLength="55" x="134.5" y="233.3896">calling list</text><line style="stroke: #A80036; stroke-width: 1.5;" x1="189.5" x2="316" y1="228.7522" y2="228.7522"/><text fill="#000000" font-family="sans-serif" font-size="11" lengthAdjust="spacingAndGlyphs" textLength="93" x="13" y="271.6619">Shop (239372207);</text><line style="stroke: #A80036; stroke-width: 1.0; stroke-dasharray: 1.0,2.0;" x1="8" x2="149" y1="251.4155" y2="251.4155"/><text fill="#000000" font-family="sans-serif" font-size="11" lengthAdjust="spacingAndGlyphs" textLength="26" x="149" y="256.053">class</text><line style="stroke: #A80036; stroke-width: 1.0; stroke-dasharray: 1.0,2.0;" x1="175" x2="316" y1="251.4155" y2="251.4155"/><line style="stroke: #A80036; stroke-width: 1.0; stroke-dasharray: 1.0,2.0;" x1="8" x2="143" y1="285.6333" y2="285.6333"/><text fill="#000000" font-family="sans-serif" font-size="11" lengthAdjust="spacingAndGlyphs" textLength="38" x="143" y="290.2708">member</text><line style="stroke: #A80036; stroke-width: 1.0; stroke-dasharray: 1.0,2.0;" x1="181" x2="316" y1="285.6333" y2="285.6333"/><text fill="#000000" font-family="sans-serif" font-size="11" lengthAdjust="spacingAndGlyphs" textLength="284" x="13" y="328.543">User login(java.lang.String, java.lang.String) (1977310713);</text><text fill="#000000" font-family="sans-serif" font-size="11" lengthAdjust="spacingAndGlyphs" textLength="250" x="13" y="343.6519">boolean buy(shop.User, shop.Goods) (294658058);</text><text fill="#000000" font-family="sans-serif" font-size="11" lengthAdjust="spacingAndGlyphs" textLength="224" x="13" y="358.7607">boolean charge(shop.User, int) (1781493632);</text><text fill="#000000" font-family="sans-serif" font-size="11" lengthAdjust="spacingAndGlyphs" textLength="294" x="13" y="373.8696">void addGoods(shop.Goods, java.lang.String) (1169474473);</text><text fill="#000000" font-family="sans-serif" font-size="11" lengthAdjust="spacingAndGlyphs" textLength="298" x="13" y="388.9785">boolean regist(java.lang.String, java.lang.String) (868815265);</text><line style="stroke: #A80036; stroke-width: 1.0; stroke-dasharray: 1.0,2.0;" x1="8" x2="144.5" y1="308.2966" y2="308.2966"/><text fill="#000000" font-family="sans-serif" font-size="11" lengthAdjust="spacingAndGlyphs" textLength="35" x="144.5" y="312.9341">method</text><line style="stroke: #A80036; stroke-width: 1.0; stroke-dasharray: 1.0,2.0;" x1="179.5" x2="316" y1="308.2966" y2="308.2966"/><line style="stroke: #A80036; stroke-width: 1.5;" x1="8" x2="128" y1="402.95" y2="402.95"/><text fill="#FFA500" font-family="sans-serif" font-size="11" font-weight="bold" lengthAdjust="spacingAndGlyphs" textLength="68" x="128" y="407.5874">called by list</text><line style="stroke: #A80036; stroke-width: 1.5;" x1="196" x2="316" y1="402.95" y2="402.95"/><line style="stroke: #A80036; stroke-width: 1.0; stroke-dasharray: 1.0,2.0;" x1="8" x2="149" y1="425.6133" y2="425.6133"/><text fill="#000000" font-family="sans-serif" font-size="11" lengthAdjust="spacingAndGlyphs" textLength="26" x="149" y="430.2507">class</text><line style="stroke: #A80036; stroke-width: 1.0; stroke-dasharray: 1.0,2.0;" x1="175" x2="316" y1="425.6133" y2="425.6133"/><line style="stroke: #A80036; stroke-width: 1.0; stroke-dasharray: 1.0,2.0;" x1="8" x2="143" y1="448.2766" y2="448.2766"/><text fill="#000000" font-family="sans-serif" font-size="11" lengthAdjust="spacingAndGlyphs" textLength="38" x="143" y="452.9141">member</text><line style="stroke: #A80036; stroke-width: 1.0; stroke-dasharray: 1.0,2.0;" x1="181" x2="316" y1="448.2766" y2="448.2766"/><line style="stroke: #A80036; stroke-width: 1.0; stroke-dasharray: 1.0,2.0;" x1="8" x2="144.5" y1="470.9399" y2="470.9399"/><text fill="#000000" font-family="sans-serif" font-size="11" lengthAdjust="spacingAndGlyphs" textLength="35" x="144.5" y="475.5774">method</text><line style="stroke: #A80036; stroke-width: 1.0; stroke-dasharray: 1.0,2.0;" x1="179.5" x2="316" y1="470.9399" y2="470.9399"/><!--MD5=[95f6ec3c1ce7d15d7b9bf08e865673af]
@startuml
class "shopTest.TestCase" as cl1{
__**<color:green>has list</color>**__
..class..
..member..
	Shop shop (1789718525);
..method..
	void Login() (1536471117);
	void Buy_Product() (9190301);
	void Charge_Money() (1278852808);
	void Add_Product() (63390);
	void Registration() (2129144075);
__**<color:blue>calling list</color>**__
..class..
	Shop (239372207);
..member..
..method..
	User login(java.lang.String, java.lang.String) (1977310713);
	boolean buy(shop.User, shop.Goods) (294658058);
	boolean charge(shop.User, int) (1781493632);
	void addGoods(shop.Goods, java.lang.String) (1169474473);
	boolean regist(java.lang.String, java.lang.String) (868815265);
__**<color:orange>called by list</color>**__
..class..
..member..
..method..
}

@enduml

PlantUML version 1.2020.19(Tue Oct 13 00:10:01 KST 2020)
(APACHE source distribution)
Java Runtime: Java(TM) SE Runtime Environment
JVM: Java HotSpot(TM) 64-Bit Server VM
Default Encoding: MS949
Language: ko
Country: KR
--></g></svg>