<?xml version="1.0" encoding="UTF-8" standalone="no"?><svg xmlns="http://www.w3.org/2000/svg" xmlns:xlink="http://www.w3.org/1999/xlink" contentScriptType="application/ecmascript" contentStyleType="text/css" height="524px" preserveAspectRatio="none" style="width:825px;height:524px;" version="1.1" viewBox="0 0 825 524" width="825px" zoomAndPan="magnify"><defs><filter height="300%" id="f1szi3adqkz938" width="300%" x="-1" y="-1"><feGaussianBlur result="blurOut" stdDeviation="2.0"/><feColorMatrix in="blurOut" result="blurOut2" type="matrix" values="0 0 0 0 0 0 0 0 0 0 0 0 0 0 0 0 0 0 .4 0"/><feOffset dx="4.0" dy="4.0" in="blurOut2" result="blurOut3"/><feBlend in="SourceGraphic" in2="blurOut3" mode="normal"/></filter></defs><g><!--MD5=[7c6608d7cf625e90131334e1ca091b1a]
cluster Functions--><polygon fill="#FFFFFF" filter="url(#f1szi3adqkz938)" points="400.5,6,476.5,6,483.5,31.2295,808.5,31.2295,808.5,517,400.5,517,400.5,6" style="stroke: #000000; stroke-width: 1.5;"/><line style="stroke: #000000; stroke-width: 1.5;" x1="400.5" x2="483.5" y1="31.2295" y2="31.2295"/><text fill="#000000" font-family="sans-serif" font-size="14" font-weight="bold" lengthAdjust="spacingAndGlyphs" textLength="70" x="404.5" y="24.1533">Functions</text><!--MD5=[b86cbb8d6e6433a10b45ec0f1a74cdc4]
class f982757413--><rect codeLine="30" fill="#FEFECE" filter="url(#f1szi3adqkz938)" height="456.8311" id="f982757413" style="stroke: #A80036; stroke-width: 1.5;" width="375" x="417" y="44"/><ellipse cx="585.25" cy="60" fill="#ADD1B2" rx="11" ry="11" style="stroke: #A80036; stroke-width: 1.0;"/><path d="M585.0781,53.4844 Q583.2031,53.4844 582.0469,55.2344 Q580.8594,57.0156 580.8594,60.0156 Q580.8594,63.3906 582.0625,65.1563 Q583.125,66.7813 584.875,66.7813 Q586.5625,66.7813 587.5156,65.875 Q588.5781,64.8594 588.7188,62.625 Q588.7188,62.2031 588.4844,61.9688 Q588.2969,61.7344 587.9531,61.7031 Q587.625,61.7031 587.3906,61.8906 Q587.125,62.125 587.125,62.5156 Q587.0938,63.9063 586.5,64.6406 Q585.9688,65.3438 585.0156,65.3438 Q583.8594,65.3438 583.1406,63.9063 Q582.4219,62.4063 582.4219,59.9844 Q582.4219,57.4375 583.3125,56.0469 Q584.0625,54.9219 585.2031,54.9219 Q585.8594,54.9219 586.3594,55.4688 Q586.9219,56.0781 587.0469,57.1406 Q587.0938,57.8438 587.9219,57.7344 Q588.7031,57.625 588.6563,56.9375 Q588.4688,55.4219 587.7031,54.5469 Q586.7656,53.4844 585.0781,53.4844 Z "/><text fill="#000000" font-family="sans-serif" font-size="12" lengthAdjust="spacingAndGlyphs" textLength="30" x="605.75" y="65.6045">play()</text><line style="stroke: #A80036; stroke-width: 1.5;" x1="418" x2="791" y1="76" y2="76"/><text fill="#000000" font-family="sans-serif" font-size="11" lengthAdjust="spacingAndGlyphs" textLength="60" x="423" y="92.6919">Static : false</text><text fill="#000000" font-family="sans-serif" font-size="11" lengthAdjust="spacingAndGlyphs" textLength="96" x="423" y="107.8008">return Type : Sound</text><text fill="#000000" font-family="sans-serif" font-size="11" lengthAdjust="spacingAndGlyphs" textLength="112" x="423" y="122.9097">hashCode : 982757413</text><text fill="#000000" font-family="sans-serif" font-size="11" lengthAdjust="spacingAndGlyphs" textLength="69" x="423" y="138.0186">ABS Score : 7</text><text fill="#000000" font-family="sans-serif" font-size="11" lengthAdjust="spacingAndGlyphs" textLength="85" x="423" y="153.1274">Relative Score : 7</text><line style="stroke: #A80036; stroke-width: 1.5;" x1="418" x2="584.5" y1="167.0989" y2="167.0989"/><text fill="#008000" font-family="sans-serif" font-size="11" font-weight="bold" lengthAdjust="spacingAndGlyphs" textLength="40" x="584.5" y="171.7363">has list</text><line style="stroke: #A80036; stroke-width: 1.5;" x1="624.5" x2="791" y1="167.0989" y2="167.0989"/><line style="stroke: #A80036; stroke-width: 1.0; stroke-dasharray: 1.0,2.0;" x1="418" x2="591.5" y1="189.7622" y2="189.7622"/><text fill="#000000" font-family="sans-serif" font-size="11" lengthAdjust="spacingAndGlyphs" textLength="26" x="591.5" y="194.3997">class</text><line style="stroke: #A80036; stroke-width: 1.0; stroke-dasharray: 1.0,2.0;" x1="617.5" x2="791" y1="189.7622" y2="189.7622"/><line style="stroke: #A80036; stroke-width: 1.0; stroke-dasharray: 1.0,2.0;" x1="418" x2="585.5" y1="212.4255" y2="212.4255"/><text fill="#000000" font-family="sans-serif" font-size="11" lengthAdjust="spacingAndGlyphs" textLength="38" x="585.5" y="217.063">member</text><line style="stroke: #A80036; stroke-width: 1.0; stroke-dasharray: 1.0,2.0;" x1="623.5" x2="791" y1="212.4255" y2="212.4255"/><line style="stroke: #A80036; stroke-width: 1.0; stroke-dasharray: 1.0,2.0;" x1="418" x2="587" y1="235.0889" y2="235.0889"/><text fill="#000000" font-family="sans-serif" font-size="11" lengthAdjust="spacingAndGlyphs" textLength="35" x="587" y="239.7263">method</text><line style="stroke: #A80036; stroke-width: 1.0; stroke-dasharray: 1.0,2.0;" x1="622" x2="791" y1="235.0889" y2="235.0889"/><line style="stroke: #A80036; stroke-width: 1.5;" x1="418" x2="577" y1="257.7522" y2="257.7522"/><text fill="#0000FF" font-family="sans-serif" font-size="11" font-weight="bold" lengthAdjust="spacingAndGlyphs" textLength="55" x="577" y="262.3896">calling list</text><line style="stroke: #A80036; stroke-width: 1.5;" x1="632" x2="791" y1="257.7522" y2="257.7522"/><text fill="#000000" font-family="sans-serif" font-size="11" lengthAdjust="spacingAndGlyphs" textLength="166" x="423" y="300.6619">classRelation.Sound (966739377);</text><line style="stroke: #A80036; stroke-width: 1.0; stroke-dasharray: 1.0,2.0;" x1="418" x2="591.5" y1="280.4155" y2="280.4155"/><text fill="#000000" font-family="sans-serif" font-size="11" lengthAdjust="spacingAndGlyphs" textLength="26" x="591.5" y="285.053">class</text><line style="stroke: #A80036; stroke-width: 1.0; stroke-dasharray: 1.0,2.0;" x1="617.5" x2="791" y1="280.4155" y2="280.4155"/><text fill="#000000" font-family="sans-serif" font-size="11" lengthAdjust="spacingAndGlyphs" textLength="218" x="423" y="334.8796">classRelation.Instrument.sound (952562199);</text><line style="stroke: #A80036; stroke-width: 1.0; stroke-dasharray: 1.0,2.0;" x1="418" x2="585.5" y1="314.6333" y2="314.6333"/><text fill="#000000" font-family="sans-serif" font-size="11" lengthAdjust="spacingAndGlyphs" textLength="38" x="585.5" y="319.2708">member</text><line style="stroke: #A80036; stroke-width: 1.0; stroke-dasharray: 1.0,2.0;" x1="623.5" x2="791" y1="314.6333" y2="314.6333"/><text fill="#000000" font-family="sans-serif" font-size="11" lengthAdjust="spacingAndGlyphs" textLength="225" x="423" y="369.0974">classRelation.Sound.Sound(int) (1199673596);</text><line style="stroke: #A80036; stroke-width: 1.0; stroke-dasharray: 1.0,2.0;" x1="418" x2="587" y1="348.8511" y2="348.8511"/><text fill="#000000" font-family="sans-serif" font-size="11" lengthAdjust="spacingAndGlyphs" textLength="35" x="587" y="353.4885">method</text><line style="stroke: #A80036; stroke-width: 1.0; stroke-dasharray: 1.0,2.0;" x1="622" x2="791" y1="348.8511" y2="348.8511"/><line style="stroke: #A80036; stroke-width: 1.5;" x1="418" x2="570.5" y1="383.0688" y2="383.0688"/><text fill="#FFA500" font-family="sans-serif" font-size="11" font-weight="bold" lengthAdjust="spacingAndGlyphs" textLength="68" x="570.5" y="387.7063">called by list</text><line style="stroke: #A80036; stroke-width: 1.5;" x1="638.5" x2="791" y1="383.0688" y2="383.0688"/><text fill="#000000" font-family="sans-serif" font-size="11" lengthAdjust="spacingAndGlyphs" textLength="175" x="423" y="425.9785">classRelation.Guitarist (771775563);</text><line style="stroke: #A80036; stroke-width: 1.0; stroke-dasharray: 1.0,2.0;" x1="418" x2="591.5" y1="405.7322" y2="405.7322"/><text fill="#000000" font-family="sans-serif" font-size="11" lengthAdjust="spacingAndGlyphs" textLength="26" x="591.5" y="410.3696">class</text><line style="stroke: #A80036; stroke-width: 1.0; stroke-dasharray: 1.0,2.0;" x1="617.5" x2="791" y1="405.7322" y2="405.7322"/><text fill="#000000" font-family="sans-serif" font-size="11" lengthAdjust="spacingAndGlyphs" textLength="363" x="423" y="460.1963">classRelation.Guitarist.playSong(classRelation.Guitar).guitar (2044903525);</text><line style="stroke: #A80036; stroke-width: 1.0; stroke-dasharray: 1.0,2.0;" x1="418" x2="585.5" y1="439.95" y2="439.95"/><text fill="#000000" font-family="sans-serif" font-size="11" lengthAdjust="spacingAndGlyphs" textLength="38" x="585.5" y="444.5874">member</text><line style="stroke: #A80036; stroke-width: 1.0; stroke-dasharray: 1.0,2.0;" x1="623.5" x2="791" y1="439.95" y2="439.95"/><text fill="#000000" font-family="sans-serif" font-size="11" lengthAdjust="spacingAndGlyphs" textLength="333" x="423" y="494.4141">classRelation.Guitarist.playSong(classRelation.Guitar) (1164440413);</text><line style="stroke: #A80036; stroke-width: 1.0; stroke-dasharray: 1.0,2.0;" x1="418" x2="587" y1="474.1677" y2="474.1677"/><text fill="#000000" font-family="sans-serif" font-size="11" lengthAdjust="spacingAndGlyphs" textLength="35" x="587" y="478.8052">method</text><line style="stroke: #A80036; stroke-width: 1.0; stroke-dasharray: 1.0,2.0;" x1="622" x2="791" y1="474.1677" y2="474.1677"/><!--MD5=[f6064968006b102cb1b3092be2f53bd9]
class cl1--><rect codeLine="1" fill="#FEFECE" filter="url(#f1szi3adqkz938)" height="453.7222" id="cl1" style="stroke: #A80036; stroke-width: 1.5;" width="375" x="7" y="45.5"/><ellipse cx="160.75" cy="61.5" fill="#ADD1B2" rx="11" ry="11" style="stroke: #A80036; stroke-width: 1.0;"/><path d="M160.5781,54.9844 Q158.7031,54.9844 157.5469,56.7344 Q156.3594,58.5156 156.3594,61.5156 Q156.3594,64.8906 157.5625,66.6563 Q158.625,68.2813 160.375,68.2813 Q162.0625,68.2813 163.0156,67.375 Q164.0781,66.3594 164.2188,64.125 Q164.2188,63.7031 163.9844,63.4688 Q163.7969,63.2344 163.4531,63.2031 Q163.125,63.2031 162.8906,63.3906 Q162.625,63.625 162.625,64.0156 Q162.5938,65.4063 162,66.1406 Q161.4688,66.8438 160.5156,66.8438 Q159.3594,66.8438 158.6406,65.4063 Q157.9219,63.9063 157.9219,61.4844 Q157.9219,58.9375 158.8125,57.5469 Q159.5625,56.4219 160.7031,56.4219 Q161.3594,56.4219 161.8594,56.9688 Q162.4219,57.5781 162.5469,58.6406 Q162.5938,59.3438 163.4219,59.2344 Q164.2031,59.125 164.1563,58.4375 Q163.9688,56.9219 163.2031,56.0469 Q162.2656,54.9844 160.5781,54.9844 Z "/><text fill="#000000" font-family="sans-serif" font-size="12" lengthAdjust="spacingAndGlyphs" textLength="59" x="181.25" y="67.1045">Instrument</text><line style="stroke: #A80036; stroke-width: 1.5;" x1="8" x2="381" y1="77.5" y2="77.5"/><text fill="#000000" font-family="sans-serif" font-size="11" lengthAdjust="spacingAndGlyphs" textLength="108" x="13" y="94.1919">Package classRelation</text><text fill="#000000" font-family="sans-serif" font-size="11" lengthAdjust="spacingAndGlyphs" textLength="41" x="13" y="109.3008">Lib false</text><text fill="#000000" font-family="sans-serif" font-size="11" lengthAdjust="spacingAndGlyphs" textLength="113" x="13" y="124.4097">HashCode : 762476028</text><text fill="#000000" font-family="sans-serif" font-size="11" lengthAdjust="spacingAndGlyphs" textLength="75" x="13" y="139.5186">ABS Score : 15</text><text fill="#000000" font-family="sans-serif" font-size="11" lengthAdjust="spacingAndGlyphs" textLength="85" x="13" y="154.6274">Relative Score : 7</text><text fill="#008000" font-family="sans-serif" font-size="11" lengthAdjust="spacingAndGlyphs" textLength="148" x="13" y="188.8452">classRelation.Sound sound (2)</text><line style="stroke: #A80036; stroke-width: 1.5;" x1="8" x2="174.5" y1="168.5989" y2="168.5989"/><text fill="#008000" font-family="sans-serif" font-size="11" font-weight="bold" lengthAdjust="spacingAndGlyphs" textLength="40" x="174.5" y="173.2363">has list</text><line style="stroke: #A80036; stroke-width: 1.5;" x1="214.5" x2="381" y1="168.5989" y2="168.5989"/><line style="stroke: #A80036; stroke-width: 1.0; stroke-dasharray: 1.0,2.0;" x1="8" x2="381" y1="195.2622" y2="195.2622"/><text fill="#FF0000" font-family="sans-serif" font-size="11" lengthAdjust="spacingAndGlyphs" textLength="79" x="13" y="211.9541">Sound play() (7)</text><line style="stroke: #A80036; stroke-width: 1.5;" x1="8" x2="167" y1="225.9255" y2="225.9255"/><text fill="#0000FF" font-family="sans-serif" font-size="11" font-weight="bold" lengthAdjust="spacingAndGlyphs" textLength="55" x="167" y="230.563">calling list</text><line style="stroke: #A80036; stroke-width: 1.5;" x1="222" x2="381" y1="225.9255" y2="225.9255"/><text fill="#000000" font-family="sans-serif" font-size="11" lengthAdjust="spacingAndGlyphs" textLength="166" x="13" y="268.8352">classRelation.Sound (966739377);</text><line style="stroke: #A80036; stroke-width: 1.0; stroke-dasharray: 1.0,2.0;" x1="8" x2="181.5" y1="248.5889" y2="248.5889"/><text fill="#000000" font-family="sans-serif" font-size="11" lengthAdjust="spacingAndGlyphs" textLength="26" x="181.5" y="253.2263">class</text><line style="stroke: #A80036; stroke-width: 1.0; stroke-dasharray: 1.0,2.0;" x1="207.5" x2="381" y1="248.5889" y2="248.5889"/><text fill="#000000" font-family="sans-serif" font-size="11" lengthAdjust="spacingAndGlyphs" textLength="218" x="13" y="303.053">classRelation.Instrument.sound (952562199);</text><line style="stroke: #A80036; stroke-width: 1.0; stroke-dasharray: 1.0,2.0;" x1="8" x2="175.5" y1="282.8066" y2="282.8066"/><text fill="#000000" font-family="sans-serif" font-size="11" lengthAdjust="spacingAndGlyphs" textLength="38" x="175.5" y="287.4441">member</text><line style="stroke: #A80036; stroke-width: 1.0; stroke-dasharray: 1.0,2.0;" x1="213.5" x2="381" y1="282.8066" y2="282.8066"/><text fill="#000000" font-family="sans-serif" font-size="11" lengthAdjust="spacingAndGlyphs" textLength="225" x="13" y="337.2708">classRelation.Sound.Sound(int) (1199673596);</text><line style="stroke: #A80036; stroke-width: 1.0; stroke-dasharray: 1.0,2.0;" x1="8" x2="177" y1="317.0244" y2="317.0244"/><text fill="#000000" font-family="sans-serif" font-size="11" lengthAdjust="spacingAndGlyphs" textLength="35" x="177" y="321.6619">method</text><line style="stroke: #A80036; stroke-width: 1.0; stroke-dasharray: 1.0,2.0;" x1="212" x2="381" y1="317.0244" y2="317.0244"/><line style="stroke: #A80036; stroke-width: 1.5;" x1="8" x2="160.5" y1="351.2422" y2="351.2422"/><text fill="#FFA500" font-family="sans-serif" font-size="11" font-weight="bold" lengthAdjust="spacingAndGlyphs" textLength="68" x="160.5" y="355.8796">called by list</text><line style="stroke: #A80036; stroke-width: 1.5;" x1="228.5" x2="381" y1="351.2422" y2="351.2422"/><text fill="#000000" font-family="sans-serif" font-size="11" lengthAdjust="spacingAndGlyphs" textLength="175" x="13" y="394.1519">classRelation.Guitarist (771775563);</text><text fill="#000000" font-family="sans-serif" font-size="11" lengthAdjust="spacingAndGlyphs" textLength="185" x="13" y="409.2607">classRelation.Instrument (762476028);</text><line style="stroke: #A80036; stroke-width: 1.0; stroke-dasharray: 1.0,2.0;" x1="8" x2="181.5" y1="373.9055" y2="373.9055"/><text fill="#000000" font-family="sans-serif" font-size="11" lengthAdjust="spacingAndGlyphs" textLength="26" x="181.5" y="378.543">class</text><line style="stroke: #A80036; stroke-width: 1.0; stroke-dasharray: 1.0,2.0;" x1="207.5" x2="381" y1="373.9055" y2="373.9055"/><text fill="#000000" font-family="sans-serif" font-size="11" lengthAdjust="spacingAndGlyphs" textLength="363" x="13" y="443.4785">classRelation.Guitarist.playSong(classRelation.Guitar).guitar (2044903525);</text><line style="stroke: #A80036; stroke-width: 1.0; stroke-dasharray: 1.0,2.0;" x1="8" x2="175.5" y1="423.2322" y2="423.2322"/><text fill="#000000" font-family="sans-serif" font-size="11" lengthAdjust="spacingAndGlyphs" textLength="38" x="175.5" y="427.8696">member</text><line style="stroke: #A80036; stroke-width: 1.0; stroke-dasharray: 1.0,2.0;" x1="213.5" x2="381" y1="423.2322" y2="423.2322"/><text fill="#000000" font-family="sans-serif" font-size="11" lengthAdjust="spacingAndGlyphs" textLength="333" x="13" y="477.6963">classRelation.Guitarist.playSong(classRelation.Guitar) (1164440413);</text><text fill="#000000" font-family="sans-serif" font-size="11" lengthAdjust="spacingAndGlyphs" textLength="216" x="13" y="492.8052">classRelation.Instrument.play() (982757413);</text><line style="stroke: #A80036; stroke-width: 1.0; stroke-dasharray: 1.0,2.0;" x1="8" x2="177" y1="457.45" y2="457.45"/><text fill="#000000" font-family="sans-serif" font-size="11" lengthAdjust="spacingAndGlyphs" textLength="35" x="177" y="462.0874">method</text><line style="stroke: #A80036; stroke-width: 1.0; stroke-dasharray: 1.0,2.0;" x1="212" x2="381" y1="457.45" y2="457.45"/><!--MD5=[88b3249aaec8aec89d0c1b45338db176]
@startuml
class "Instrument" as cl1{
Package classRelation
Lib false
HashCode : 762476028
ABS Score : 15
Relative Score : 7
__**<color:green>has list</color>**__
	<color:green>classRelation.Sound sound (2)
....
	<color:red>Sound play() (7)
__**<color:blue>calling list</color>**__
..class..
	classRelation.Sound (966739377);
..member..
	classRelation.Instrument.sound (952562199);
..method..
	 classRelation.Sound.Sound(int) (1199673596);
__**<color:orange>called by list</color>**__
..class..
	classRelation.Guitarist (771775563);
	classRelation.Instrument (762476028);
..member..
	classRelation.Guitarist.playSong(classRelation.Guitar).guitar (2044903525);
..method..
	 classRelation.Guitarist.playSong(classRelation.Guitar) (1164440413);
	 classRelation.Instrument.play() (982757413);
}

 package Functions{
class "play()" as f982757413  
{
Static : false
return Type : Sound
hashCode : 982757413
ABS Score : 7
Relative Score : 7
__**<color:green>has list</color>**__
..class..
..member..
..method..
__**<color:blue>calling list</color>**__
..class..
	classRelation.Sound (966739377);
..member..
	classRelation.Instrument.sound (952562199);
..method..
	 classRelation.Sound.Sound(int) (1199673596);
__**<color:orange>called by list</color>**__
..class..
	classRelation.Guitarist (771775563);
..member..
	classRelation.Guitarist.playSong(classRelation.Guitar).guitar (2044903525);
..method..
	 classRelation.Guitarist.playSong(classRelation.Guitar) (1164440413);
}
}

@enduml

PlantUML version 1.2020.19(Tue Oct 13 00:10:01 KST 2020)
(APACHE source distribution)
Java Runtime: Java(TM) SE Runtime Environment
JVM: Java HotSpot(TM) 64-Bit Server VM
Default Encoding: MS949
Language: ko
Country: KR
--></g></svg>