<?xml version="1.0" encoding="UTF-8" standalone="no"?><svg xmlns="http://www.w3.org/2000/svg" xmlns:xlink="http://www.w3.org/1999/xlink" contentScriptType="application/ecmascript" contentStyleType="text/css" height="596px" preserveAspectRatio="none" style="width:1154px;height:596px;" version="1.1" viewBox="0 0 1154 596" width="1154px" zoomAndPan="magnify"><defs><filter height="300%" id="f12tv597nxlg28" width="300%" x="-1" y="-1"><feGaussianBlur result="blurOut" stdDeviation="2.0"/><feColorMatrix in="blurOut" result="blurOut2" type="matrix" values="0 0 0 0 0 0 0 0 0 0 0 0 0 0 0 0 0 0 .4 0"/><feOffset dx="4.0" dy="4.0" in="blurOut2" result="blurOut3"/><feBlend in="SourceGraphic" in2="blurOut3" mode="normal"/></filter></defs><g><!--MD5=[7c6608d7cf625e90131334e1ca091b1a]
cluster Functions--><polygon fill="#FFFFFF" filter="url(#f12tv597nxlg28)" points="436.5,6,512.5,6,519.5,31.2295,1137.5,31.2295,1137.5,589,436.5,589,436.5,6" style="stroke: #000000; stroke-width: 1.5;"/><line style="stroke: #000000; stroke-width: 1.5;" x1="436.5" x2="519.5" y1="31.2295" y2="31.2295"/><text fill="#000000" font-family="sans-serif" font-size="14" font-weight="bold" lengthAdjust="spacingAndGlyphs" textLength="70" x="440.5" y="24.1533">Functions</text><!--MD5=[97281a28cf40843477449a0009c88d8e]
class f1610525991--><rect codeLine="36" fill="#FEFECE" filter="url(#f12tv597nxlg28)" height="422.1677" id="f1610525991" style="stroke: #A80036; stroke-width: 1.5;" width="222" x="899.5" y="97.5"/><ellipse cx="976.25" cy="113.5" fill="#ADD1B2" rx="11" ry="11" style="stroke: #A80036; stroke-width: 1.0;"/><path d="M976.0781,106.9844 Q974.2031,106.9844 973.0469,108.7344 Q971.8594,110.5156 971.8594,113.5156 Q971.8594,116.8906 973.0625,118.6563 Q974.125,120.2813 975.875,120.2813 Q977.5625,120.2813 978.5156,119.375 Q979.5781,118.3594 979.7188,116.125 Q979.7188,115.7031 979.4844,115.4688 Q979.2969,115.2344 978.9531,115.2031 Q978.625,115.2031 978.3906,115.3906 Q978.125,115.625 978.125,116.0156 Q978.0938,117.4063 977.5,118.1406 Q976.9688,118.8438 976.0156,118.8438 Q974.8594,118.8438 974.1406,117.4063 Q973.4219,115.9063 973.4219,113.4844 Q973.4219,110.9375 974.3125,109.5469 Q975.0625,108.4219 976.2031,108.4219 Q976.8594,108.4219 977.3594,108.9688 Q977.9219,109.5781 978.0469,110.6406 Q978.0938,111.3438 978.9219,111.2344 Q979.7031,111.125 979.6563,110.4375 Q979.4688,108.9219 978.7031,108.0469 Q977.7656,106.9844 976.0781,106.9844 Z "/><text fill="#000000" font-family="sans-serif" font-size="12" lengthAdjust="spacingAndGlyphs" textLength="60" x="996.75" y="119.1045">buyGuitar()</text><line style="stroke: #A80036; stroke-width: 1.5;" x1="900.5" x2="1120.5" y1="129.5" y2="129.5"/><text fill="#000000" font-family="sans-serif" font-size="11" lengthAdjust="spacingAndGlyphs" textLength="60" x="905.5" y="146.1919">Static : false</text><text fill="#000000" font-family="sans-serif" font-size="11" lengthAdjust="spacingAndGlyphs" textLength="85" x="905.5" y="161.3008">return Type : void</text><text fill="#000000" font-family="sans-serif" font-size="11" lengthAdjust="spacingAndGlyphs" textLength="118" x="905.5" y="176.4097">hashCode : 1610525991</text><text fill="#000000" font-family="sans-serif" font-size="11" lengthAdjust="spacingAndGlyphs" textLength="69" x="905.5" y="191.5186">ABS Score : 7</text><text fill="#000000" font-family="sans-serif" font-size="11" lengthAdjust="spacingAndGlyphs" textLength="85" x="905.5" y="206.6274">Relative Score : 7</text><line style="stroke: #A80036; stroke-width: 1.5;" x1="900.5" x2="990.5" y1="220.5989" y2="220.5989"/><text fill="#008000" font-family="sans-serif" font-size="11" font-weight="bold" lengthAdjust="spacingAndGlyphs" textLength="40" x="990.5" y="225.2363">has list</text><line style="stroke: #A80036; stroke-width: 1.5;" x1="1030.5" x2="1120.5" y1="220.5989" y2="220.5989"/><line style="stroke: #A80036; stroke-width: 1.0; stroke-dasharray: 1.0,2.0;" x1="900.5" x2="997.5" y1="243.2622" y2="243.2622"/><text fill="#000000" font-family="sans-serif" font-size="11" lengthAdjust="spacingAndGlyphs" textLength="26" x="997.5" y="247.8997">class</text><line style="stroke: #A80036; stroke-width: 1.0; stroke-dasharray: 1.0,2.0;" x1="1023.5" x2="1120.5" y1="243.2622" y2="243.2622"/><line style="stroke: #A80036; stroke-width: 1.0; stroke-dasharray: 1.0,2.0;" x1="900.5" x2="991.5" y1="265.9255" y2="265.9255"/><text fill="#000000" font-family="sans-serif" font-size="11" lengthAdjust="spacingAndGlyphs" textLength="38" x="991.5" y="270.563">member</text><line style="stroke: #A80036; stroke-width: 1.0; stroke-dasharray: 1.0,2.0;" x1="1029.5" x2="1120.5" y1="265.9255" y2="265.9255"/><line style="stroke: #A80036; stroke-width: 1.0; stroke-dasharray: 1.0,2.0;" x1="900.5" x2="993" y1="288.5889" y2="288.5889"/><text fill="#000000" font-family="sans-serif" font-size="11" lengthAdjust="spacingAndGlyphs" textLength="35" x="993" y="293.2263">method</text><line style="stroke: #A80036; stroke-width: 1.0; stroke-dasharray: 1.0,2.0;" x1="1028" x2="1120.5" y1="288.5889" y2="288.5889"/><line style="stroke: #A80036; stroke-width: 1.5;" x1="900.5" x2="983" y1="311.2522" y2="311.2522"/><text fill="#0000FF" font-family="sans-serif" font-size="11" font-weight="bold" lengthAdjust="spacingAndGlyphs" textLength="55" x="983" y="315.8896">calling list</text><line style="stroke: #A80036; stroke-width: 1.5;" x1="1038" x2="1120.5" y1="311.2522" y2="311.2522"/><text fill="#000000" font-family="sans-serif" font-size="11" lengthAdjust="spacingAndGlyphs" textLength="170" x="905.5" y="354.1619">classRelation.Guitar (1766505436);</text><line style="stroke: #A80036; stroke-width: 1.0; stroke-dasharray: 1.0,2.0;" x1="900.5" x2="997.5" y1="333.9155" y2="333.9155"/><text fill="#000000" font-family="sans-serif" font-size="11" lengthAdjust="spacingAndGlyphs" textLength="26" x="997.5" y="338.553">class</text><line style="stroke: #A80036; stroke-width: 1.0; stroke-dasharray: 1.0,2.0;" x1="1023.5" x2="1120.5" y1="333.9155" y2="333.9155"/><text fill="#000000" font-family="sans-serif" font-size="11" lengthAdjust="spacingAndGlyphs" textLength="205" x="905.5" y="388.3796">classRelation.Guitarist.guitar (382750013);</text><line style="stroke: #A80036; stroke-width: 1.0; stroke-dasharray: 1.0,2.0;" x1="900.5" x2="991.5" y1="368.1333" y2="368.1333"/><text fill="#000000" font-family="sans-serif" font-size="11" lengthAdjust="spacingAndGlyphs" textLength="38" x="991.5" y="372.7708">member</text><line style="stroke: #A80036; stroke-width: 1.0; stroke-dasharray: 1.0,2.0;" x1="1029.5" x2="1120.5" y1="368.1333" y2="368.1333"/><text fill="#000000" font-family="sans-serif" font-size="11" lengthAdjust="spacingAndGlyphs" textLength="210" x="905.5" y="422.5974">classRelation.Guitar.Guitar() (1666607455);</text><line style="stroke: #A80036; stroke-width: 1.0; stroke-dasharray: 1.0,2.0;" x1="900.5" x2="993" y1="402.3511" y2="402.3511"/><text fill="#000000" font-family="sans-serif" font-size="11" lengthAdjust="spacingAndGlyphs" textLength="35" x="993" y="406.9885">method</text><line style="stroke: #A80036; stroke-width: 1.0; stroke-dasharray: 1.0,2.0;" x1="1028" x2="1120.5" y1="402.3511" y2="402.3511"/><line style="stroke: #A80036; stroke-width: 1.5;" x1="900.5" x2="976.5" y1="436.5688" y2="436.5688"/><text fill="#FFA500" font-family="sans-serif" font-size="11" font-weight="bold" lengthAdjust="spacingAndGlyphs" textLength="68" x="976.5" y="441.2063">called by list</text><line style="stroke: #A80036; stroke-width: 1.5;" x1="1044.5" x2="1120.5" y1="436.5688" y2="436.5688"/><line style="stroke: #A80036; stroke-width: 1.0; stroke-dasharray: 1.0,2.0;" x1="900.5" x2="997.5" y1="459.2322" y2="459.2322"/><text fill="#000000" font-family="sans-serif" font-size="11" lengthAdjust="spacingAndGlyphs" textLength="26" x="997.5" y="463.8696">class</text><line style="stroke: #A80036; stroke-width: 1.0; stroke-dasharray: 1.0,2.0;" x1="1023.5" x2="1120.5" y1="459.2322" y2="459.2322"/><line style="stroke: #A80036; stroke-width: 1.0; stroke-dasharray: 1.0,2.0;" x1="900.5" x2="991.5" y1="481.8955" y2="481.8955"/><text fill="#000000" font-family="sans-serif" font-size="11" lengthAdjust="spacingAndGlyphs" textLength="38" x="991.5" y="486.533">member</text><line style="stroke: #A80036; stroke-width: 1.0; stroke-dasharray: 1.0,2.0;" x1="1029.5" x2="1120.5" y1="481.8955" y2="481.8955"/><line style="stroke: #A80036; stroke-width: 1.0; stroke-dasharray: 1.0,2.0;" x1="900.5" x2="993" y1="504.5588" y2="504.5588"/><text fill="#000000" font-family="sans-serif" font-size="11" lengthAdjust="spacingAndGlyphs" textLength="35" x="993" y="509.1963">method</text><line style="stroke: #A80036; stroke-width: 1.0; stroke-dasharray: 1.0,2.0;" x1="1028" x2="1120.5" y1="504.5588" y2="504.5588"/><!--MD5=[73f337954caf4763861ce86f79991527]
class f1164440413--><rect codeLine="59" fill="#FEFECE" filter="url(#f12tv597nxlg28)" height="528.821" id="f1164440413" style="stroke: #A80036; stroke-width: 1.5;" width="411" x="453" y="44"/><ellipse cx="568.75" cy="60" fill="#ADD1B2" rx="11" ry="11" style="stroke: #A80036; stroke-width: 1.0;"/><path d="M568.5781,53.4844 Q566.7031,53.4844 565.5469,55.2344 Q564.3594,57.0156 564.3594,60.0156 Q564.3594,63.3906 565.5625,65.1563 Q566.625,66.7813 568.375,66.7813 Q570.0625,66.7813 571.0156,65.875 Q572.0781,64.8594 572.2188,62.625 Q572.2188,62.2031 571.9844,61.9688 Q571.7969,61.7344 571.4531,61.7031 Q571.125,61.7031 570.8906,61.8906 Q570.625,62.125 570.625,62.5156 Q570.5938,63.9063 570,64.6406 Q569.4688,65.3438 568.5156,65.3438 Q567.3594,65.3438 566.6406,63.9063 Q565.9219,62.4063 565.9219,59.9844 Q565.9219,57.4375 566.8125,56.0469 Q567.5625,54.9219 568.7031,54.9219 Q569.3594,54.9219 569.8594,55.4688 Q570.4219,56.0781 570.5469,57.1406 Q570.5938,57.8438 571.4219,57.7344 Q572.2031,57.625 572.1563,56.9375 Q571.9688,55.4219 571.2031,54.5469 Q570.2656,53.4844 568.5781,53.4844 Z "/><text fill="#000000" font-family="sans-serif" font-size="12" lengthAdjust="spacingAndGlyphs" textLength="171" x="589.25" y="65.6045">playSong(classRelation.Guitar)</text><line style="stroke: #A80036; stroke-width: 1.5;" x1="454" x2="863" y1="76" y2="76"/><text fill="#000000" font-family="sans-serif" font-size="11" lengthAdjust="spacingAndGlyphs" textLength="60" x="459" y="92.6919">Static : false</text><text fill="#000000" font-family="sans-serif" font-size="11" lengthAdjust="spacingAndGlyphs" textLength="96" x="459" y="107.8008">return Type : Sound</text><text fill="#000000" font-family="sans-serif" font-size="11" lengthAdjust="spacingAndGlyphs" textLength="118" x="459" y="122.9097">hashCode : 1164440413</text><text fill="#000000" font-family="sans-serif" font-size="11" lengthAdjust="spacingAndGlyphs" textLength="69" x="459" y="138.0186">ABS Score : 8</text><text fill="#000000" font-family="sans-serif" font-size="11" lengthAdjust="spacingAndGlyphs" textLength="85" x="459" y="153.1274">Relative Score : 8</text><line style="stroke: #A80036; stroke-width: 1.5;" x1="454" x2="638.5" y1="167.0989" y2="167.0989"/><text fill="#008000" font-family="sans-serif" font-size="11" font-weight="bold" lengthAdjust="spacingAndGlyphs" textLength="40" x="638.5" y="171.7363">has list</text><line style="stroke: #A80036; stroke-width: 1.5;" x1="678.5" x2="863" y1="167.0989" y2="167.0989"/><line style="stroke: #A80036; stroke-width: 1.0; stroke-dasharray: 1.0,2.0;" x1="454" x2="645.5" y1="189.7622" y2="189.7622"/><text fill="#000000" font-family="sans-serif" font-size="11" lengthAdjust="spacingAndGlyphs" textLength="26" x="645.5" y="194.3997">class</text><line style="stroke: #A80036; stroke-width: 1.0; stroke-dasharray: 1.0,2.0;" x1="671.5" x2="863" y1="189.7622" y2="189.7622"/><text fill="#000000" font-family="sans-serif" font-size="11" lengthAdjust="spacingAndGlyphs" textLength="363" x="459" y="232.6719">classRelation.Guitarist.playSong(classRelation.Guitar).guitar (2044903525);</text><line style="stroke: #A80036; stroke-width: 1.0; stroke-dasharray: 1.0,2.0;" x1="454" x2="639.5" y1="212.4255" y2="212.4255"/><text fill="#000000" font-family="sans-serif" font-size="11" lengthAdjust="spacingAndGlyphs" textLength="38" x="639.5" y="217.063">member</text><line style="stroke: #A80036; stroke-width: 1.0; stroke-dasharray: 1.0,2.0;" x1="677.5" x2="863" y1="212.4255" y2="212.4255"/><line style="stroke: #A80036; stroke-width: 1.0; stroke-dasharray: 1.0,2.0;" x1="454" x2="641" y1="246.6433" y2="246.6433"/><text fill="#000000" font-family="sans-serif" font-size="11" lengthAdjust="spacingAndGlyphs" textLength="35" x="641" y="251.2808">method</text><line style="stroke: #A80036; stroke-width: 1.0; stroke-dasharray: 1.0,2.0;" x1="676" x2="863" y1="246.6433" y2="246.6433"/><line style="stroke: #A80036; stroke-width: 1.5;" x1="454" x2="631" y1="269.3066" y2="269.3066"/><text fill="#0000FF" font-family="sans-serif" font-size="11" font-weight="bold" lengthAdjust="spacingAndGlyphs" textLength="55" x="631" y="273.9441">calling list</text><line style="stroke: #A80036; stroke-width: 1.5;" x1="686" x2="863" y1="269.3066" y2="269.3066"/><text fill="#000000" font-family="sans-serif" font-size="11" lengthAdjust="spacingAndGlyphs" textLength="170" x="459" y="312.2163">classRelation.Guitar (1766505436);</text><text fill="#000000" font-family="sans-serif" font-size="11" lengthAdjust="spacingAndGlyphs" textLength="185" x="459" y="327.3252">classRelation.Instrument (762476028);</text><line style="stroke: #A80036; stroke-width: 1.0; stroke-dasharray: 1.0,2.0;" x1="454" x2="645.5" y1="291.97" y2="291.97"/><text fill="#000000" font-family="sans-serif" font-size="11" lengthAdjust="spacingAndGlyphs" textLength="26" x="645.5" y="296.6074">class</text><line style="stroke: #A80036; stroke-width: 1.0; stroke-dasharray: 1.0,2.0;" x1="671.5" x2="863" y1="291.97" y2="291.97"/><text fill="#000000" font-family="sans-serif" font-size="11" lengthAdjust="spacingAndGlyphs" textLength="363" x="459" y="361.543">classRelation.Guitarist.playSong(classRelation.Guitar).guitar (2044903525);</text><line style="stroke: #A80036; stroke-width: 1.0; stroke-dasharray: 1.0,2.0;" x1="454" x2="639.5" y1="341.2966" y2="341.2966"/><text fill="#000000" font-family="sans-serif" font-size="11" lengthAdjust="spacingAndGlyphs" textLength="38" x="639.5" y="345.9341">member</text><line style="stroke: #A80036; stroke-width: 1.0; stroke-dasharray: 1.0,2.0;" x1="677.5" x2="863" y1="341.2966" y2="341.2966"/><text fill="#000000" font-family="sans-serif" font-size="11" lengthAdjust="spacingAndGlyphs" textLength="216" x="459" y="395.7607">classRelation.Instrument.play() (982757413);</text><line style="stroke: #A80036; stroke-width: 1.0; stroke-dasharray: 1.0,2.0;" x1="454" x2="641" y1="375.5144" y2="375.5144"/><text fill="#000000" font-family="sans-serif" font-size="11" lengthAdjust="spacingAndGlyphs" textLength="35" x="641" y="380.1519">method</text><line style="stroke: #A80036; stroke-width: 1.0; stroke-dasharray: 1.0,2.0;" x1="676" x2="863" y1="375.5144" y2="375.5144"/><line style="stroke: #A80036; stroke-width: 1.5;" x1="454" x2="624.5" y1="409.7322" y2="409.7322"/><text fill="#FFA500" font-family="sans-serif" font-size="11" font-weight="bold" lengthAdjust="spacingAndGlyphs" textLength="68" x="624.5" y="414.3696">called by list</text><line style="stroke: #A80036; stroke-width: 1.5;" x1="692.5" x2="863" y1="409.7322" y2="409.7322"/><text fill="#000000" font-family="sans-serif" font-size="11" lengthAdjust="spacingAndGlyphs" textLength="210" x="459" y="452.6418">classRelation.GuitarAcademy (902478634);</text><text fill="#000000" font-family="sans-serif" font-size="11" lengthAdjust="spacingAndGlyphs" textLength="175" x="459" y="467.7507">classRelation.Guitarist (771775563);</text><line style="stroke: #A80036; stroke-width: 1.0; stroke-dasharray: 1.0,2.0;" x1="454" x2="645.5" y1="432.3955" y2="432.3955"/><text fill="#000000" font-family="sans-serif" font-size="11" lengthAdjust="spacingAndGlyphs" textLength="26" x="645.5" y="437.033">class</text><line style="stroke: #A80036; stroke-width: 1.0; stroke-dasharray: 1.0,2.0;" x1="671.5" x2="863" y1="432.3955" y2="432.3955"/><text fill="#000000" font-family="sans-serif" font-size="11" lengthAdjust="spacingAndGlyphs" textLength="256" x="459" y="501.9685">classRelation.GuitarAcademy.teacher (2114444063);</text><text fill="#000000" font-family="sans-serif" font-size="11" lengthAdjust="spacingAndGlyphs" textLength="399" x="459" y="517.0774">classRelation.GuitarAcademy.lesson(classRelation.Guitarist).student (294247762);</text><line style="stroke: #A80036; stroke-width: 1.0; stroke-dasharray: 1.0,2.0;" x1="454" x2="639.5" y1="481.7222" y2="481.7222"/><text fill="#000000" font-family="sans-serif" font-size="11" lengthAdjust="spacingAndGlyphs" textLength="38" x="639.5" y="486.3596">member</text><line style="stroke: #A80036; stroke-width: 1.0; stroke-dasharray: 1.0,2.0;" x1="677.5" x2="863" y1="481.7222" y2="481.7222"/><text fill="#000000" font-family="sans-serif" font-size="11" lengthAdjust="spacingAndGlyphs" textLength="360" x="459" y="551.2952">classRelation.GuitarAcademy.lesson(classRelation.Guitarist) (918312414);</text><text fill="#000000" font-family="sans-serif" font-size="11" lengthAdjust="spacingAndGlyphs" textLength="333" x="459" y="566.4041">classRelation.Guitarist.playSong(classRelation.Guitar) (1164440413);</text><line style="stroke: #A80036; stroke-width: 1.0; stroke-dasharray: 1.0,2.0;" x1="454" x2="641" y1="531.0488" y2="531.0488"/><text fill="#000000" font-family="sans-serif" font-size="11" lengthAdjust="spacingAndGlyphs" textLength="35" x="641" y="535.6863">method</text><line style="stroke: #A80036; stroke-width: 1.0; stroke-dasharray: 1.0,2.0;" x1="676" x2="863" y1="531.0488" y2="531.0488"/><!--MD5=[f6064968006b102cb1b3092be2f53bd9]
class cl1--><rect codeLine="1" fill="#FEFECE" filter="url(#f12tv597nxlg28)" height="544.3755" id="cl1" style="stroke: #A80036; stroke-width: 1.5;" width="411" x="7" y="36.5"/><ellipse cx="185.25" cy="52.5" fill="#ADD1B2" rx="11" ry="11" style="stroke: #A80036; stroke-width: 1.0;"/><path d="M185.0781,45.9844 Q183.2031,45.9844 182.0469,47.7344 Q180.8594,49.5156 180.8594,52.5156 Q180.8594,55.8906 182.0625,57.6563 Q183.125,59.2813 184.875,59.2813 Q186.5625,59.2813 187.5156,58.375 Q188.5781,57.3594 188.7188,55.125 Q188.7188,54.7031 188.4844,54.4688 Q188.2969,54.2344 187.9531,54.2031 Q187.625,54.2031 187.3906,54.3906 Q187.125,54.625 187.125,55.0156 Q187.0938,56.4063 186.5,57.1406 Q185.9688,57.8438 185.0156,57.8438 Q183.8594,57.8438 183.1406,56.4063 Q182.4219,54.9063 182.4219,52.4844 Q182.4219,49.9375 183.3125,48.5469 Q184.0625,47.4219 185.2031,47.4219 Q185.8594,47.4219 186.3594,47.9688 Q186.9219,48.5781 187.0469,49.6406 Q187.0938,50.3438 187.9219,50.2344 Q188.7031,50.125 188.6563,49.4375 Q188.4688,47.9219 187.7031,47.0469 Q186.7656,45.9844 185.0781,45.9844 Z "/><text fill="#000000" font-family="sans-serif" font-size="12" lengthAdjust="spacingAndGlyphs" textLength="46" x="205.75" y="58.1045">Guitarist</text><line style="stroke: #A80036; stroke-width: 1.5;" x1="8" x2="417" y1="68.5" y2="68.5"/><text fill="#000000" font-family="sans-serif" font-size="11" lengthAdjust="spacingAndGlyphs" textLength="108" x="13" y="85.1919">Package classRelation</text><text fill="#000000" font-family="sans-serif" font-size="11" lengthAdjust="spacingAndGlyphs" textLength="41" x="13" y="100.3008">Lib false</text><text fill="#000000" font-family="sans-serif" font-size="11" lengthAdjust="spacingAndGlyphs" textLength="113" x="13" y="115.4097">HashCode : 771775563</text><text fill="#000000" font-family="sans-serif" font-size="11" lengthAdjust="spacingAndGlyphs" textLength="75" x="13" y="130.5186">ABS Score : 29</text><text fill="#000000" font-family="sans-serif" font-size="11" lengthAdjust="spacingAndGlyphs" textLength="85" x="13" y="145.6274">Relative Score : 9</text><text fill="#008000" font-family="sans-serif" font-size="11" lengthAdjust="spacingAndGlyphs" textLength="143" x="13" y="179.8452">classRelation.Guitar guitar (2)</text><line style="stroke: #A80036; stroke-width: 1.5;" x1="8" x2="192.5" y1="159.5989" y2="159.5989"/><text fill="#008000" font-family="sans-serif" font-size="11" font-weight="bold" lengthAdjust="spacingAndGlyphs" textLength="40" x="192.5" y="164.2363">has list</text><line style="stroke: #A80036; stroke-width: 1.5;" x1="232.5" x2="417" y1="159.5989" y2="159.5989"/><line style="stroke: #A80036; stroke-width: 1.0; stroke-dasharray: 1.0,2.0;" x1="8" x2="417" y1="186.2622" y2="186.2622"/><text fill="#FF0000" font-family="sans-serif" font-size="11" lengthAdjust="spacingAndGlyphs" textLength="95" x="13" y="202.9541">void buyGuitar() (7)</text><text fill="#FF0000" font-family="sans-serif" font-size="11" lengthAdjust="spacingAndGlyphs" textLength="200" x="13" y="218.063">Sound playSong(classRelation.Guitar) (8)</text><line style="stroke: #A80036; stroke-width: 1.5;" x1="8" x2="185" y1="232.0344" y2="232.0344"/><text fill="#0000FF" font-family="sans-serif" font-size="11" font-weight="bold" lengthAdjust="spacingAndGlyphs" textLength="55" x="185" y="236.6719">calling list</text><line style="stroke: #A80036; stroke-width: 1.5;" x1="240" x2="417" y1="232.0344" y2="232.0344"/><text fill="#000000" font-family="sans-serif" font-size="11" lengthAdjust="spacingAndGlyphs" textLength="170" x="13" y="274.9441">classRelation.Guitar (1766505436);</text><text fill="#000000" font-family="sans-serif" font-size="11" lengthAdjust="spacingAndGlyphs" textLength="185" x="13" y="290.053">classRelation.Instrument (762476028);</text><line style="stroke: #A80036; stroke-width: 1.0; stroke-dasharray: 1.0,2.0;" x1="8" x2="199.5" y1="254.6978" y2="254.6978"/><text fill="#000000" font-family="sans-serif" font-size="11" lengthAdjust="spacingAndGlyphs" textLength="26" x="199.5" y="259.3352">class</text><line style="stroke: #A80036; stroke-width: 1.0; stroke-dasharray: 1.0,2.0;" x1="225.5" x2="417" y1="254.6978" y2="254.6978"/><text fill="#000000" font-family="sans-serif" font-size="11" lengthAdjust="spacingAndGlyphs" textLength="205" x="13" y="324.2708">classRelation.Guitarist.guitar (382750013);</text><text fill="#000000" font-family="sans-serif" font-size="11" lengthAdjust="spacingAndGlyphs" textLength="363" x="13" y="339.3796">classRelation.Guitarist.playSong(classRelation.Guitar).guitar (2044903525);</text><line style="stroke: #A80036; stroke-width: 1.0; stroke-dasharray: 1.0,2.0;" x1="8" x2="193.5" y1="304.0244" y2="304.0244"/><text fill="#000000" font-family="sans-serif" font-size="11" lengthAdjust="spacingAndGlyphs" textLength="38" x="193.5" y="308.6619">member</text><line style="stroke: #A80036; stroke-width: 1.0; stroke-dasharray: 1.0,2.0;" x1="231.5" x2="417" y1="304.0244" y2="304.0244"/><text fill="#000000" font-family="sans-serif" font-size="11" lengthAdjust="spacingAndGlyphs" textLength="210" x="13" y="373.5974">classRelation.Guitar.Guitar() (1666607455);</text><text fill="#000000" font-family="sans-serif" font-size="11" lengthAdjust="spacingAndGlyphs" textLength="216" x="13" y="388.7063">classRelation.Instrument.play() (982757413);</text><line style="stroke: #A80036; stroke-width: 1.0; stroke-dasharray: 1.0,2.0;" x1="8" x2="195" y1="353.3511" y2="353.3511"/><text fill="#000000" font-family="sans-serif" font-size="11" lengthAdjust="spacingAndGlyphs" textLength="35" x="195" y="357.9885">method</text><line style="stroke: #A80036; stroke-width: 1.0; stroke-dasharray: 1.0,2.0;" x1="230" x2="417" y1="353.3511" y2="353.3511"/><line style="stroke: #A80036; stroke-width: 1.5;" x1="8" x2="178.5" y1="402.6777" y2="402.6777"/><text fill="#FFA500" font-family="sans-serif" font-size="11" font-weight="bold" lengthAdjust="spacingAndGlyphs" textLength="68" x="178.5" y="407.3152">called by list</text><line style="stroke: #A80036; stroke-width: 1.5;" x1="246.5" x2="417" y1="402.6777" y2="402.6777"/><text fill="#000000" font-family="sans-serif" font-size="11" lengthAdjust="spacingAndGlyphs" textLength="210" x="13" y="445.5874">classRelation.GuitarAcademy (902478634);</text><text fill="#000000" font-family="sans-serif" font-size="11" lengthAdjust="spacingAndGlyphs" textLength="175" x="13" y="460.6963">classRelation.Guitarist (771775563);</text><line style="stroke: #A80036; stroke-width: 1.0; stroke-dasharray: 1.0,2.0;" x1="8" x2="199.5" y1="425.3411" y2="425.3411"/><text fill="#000000" font-family="sans-serif" font-size="11" lengthAdjust="spacingAndGlyphs" textLength="26" x="199.5" y="429.9785">class</text><line style="stroke: #A80036; stroke-width: 1.0; stroke-dasharray: 1.0,2.0;" x1="225.5" x2="417" y1="425.3411" y2="425.3411"/><text fill="#000000" font-family="sans-serif" font-size="11" lengthAdjust="spacingAndGlyphs" textLength="256" x="13" y="494.9141">classRelation.GuitarAcademy.teacher (2114444063);</text><text fill="#000000" font-family="sans-serif" font-size="11" lengthAdjust="spacingAndGlyphs" textLength="399" x="13" y="510.0229">classRelation.GuitarAcademy.lesson(classRelation.Guitarist).student (294247762);</text><line style="stroke: #A80036; stroke-width: 1.0; stroke-dasharray: 1.0,2.0;" x1="8" x2="193.5" y1="474.6677" y2="474.6677"/><text fill="#000000" font-family="sans-serif" font-size="11" lengthAdjust="spacingAndGlyphs" textLength="38" x="193.5" y="479.3052">member</text><line style="stroke: #A80036; stroke-width: 1.0; stroke-dasharray: 1.0,2.0;" x1="231.5" x2="417" y1="474.6677" y2="474.6677"/><text fill="#000000" font-family="sans-serif" font-size="11" lengthAdjust="spacingAndGlyphs" textLength="360" x="13" y="544.2407">classRelation.GuitarAcademy.lesson(classRelation.Guitarist) (918312414);</text><text fill="#000000" font-family="sans-serif" font-size="11" lengthAdjust="spacingAndGlyphs" textLength="239" x="13" y="559.3496">classRelation.Guitarist.buyGuitar() (1610525991);</text><text fill="#000000" font-family="sans-serif" font-size="11" lengthAdjust="spacingAndGlyphs" textLength="333" x="13" y="574.4585">classRelation.Guitarist.playSong(classRelation.Guitar) (1164440413);</text><line style="stroke: #A80036; stroke-width: 1.0; stroke-dasharray: 1.0,2.0;" x1="8" x2="195" y1="523.9944" y2="523.9944"/><text fill="#000000" font-family="sans-serif" font-size="11" lengthAdjust="spacingAndGlyphs" textLength="35" x="195" y="528.6318">method</text><line style="stroke: #A80036; stroke-width: 1.0; stroke-dasharray: 1.0,2.0;" x1="230" x2="417" y1="523.9944" y2="523.9944"/><!--MD5=[3f588346f549df05ff2be3f20cd15525]
@startuml
class "Guitarist" as cl1{
Package classRelation
Lib false
HashCode : 771775563
ABS Score : 29
Relative Score : 9
__**<color:green>has list</color>**__
	<color:green>classRelation.Guitar guitar (2)
....
	<color:red>void buyGuitar() (7)
	<color:red>Sound playSong(classRelation.Guitar) (8)
__**<color:blue>calling list</color>**__
..class..
	classRelation.Guitar (1766505436);
	classRelation.Instrument (762476028);
..member..
	classRelation.Guitarist.guitar (382750013);
	classRelation.Guitarist.playSong(classRelation.Guitar).guitar (2044903525);
..method..
	 classRelation.Guitar.Guitar() (1666607455);
	 classRelation.Instrument.play() (982757413);
__**<color:orange>called by list</color>**__
..class..
	classRelation.GuitarAcademy (902478634);
	classRelation.Guitarist (771775563);
..member..
	classRelation.GuitarAcademy.teacher (2114444063);
	classRelation.GuitarAcademy.lesson(classRelation.Guitarist).student (294247762);
..method..
	 classRelation.GuitarAcademy.lesson(classRelation.Guitarist) (918312414);
	 classRelation.Guitarist.buyGuitar() (1610525991);
	 classRelation.Guitarist.playSong(classRelation.Guitar) (1164440413);
}

 package Functions{
class "buyGuitar()" as f1610525991  
{
Static : false
return Type : void
hashCode : 1610525991
ABS Score : 7
Relative Score : 7
__**<color:green>has list</color>**__
..class..
..member..
..method..
__**<color:blue>calling list</color>**__
..class..
	classRelation.Guitar (1766505436);
..member..
	classRelation.Guitarist.guitar (382750013);
..method..
	 classRelation.Guitar.Guitar() (1666607455);
__**<color:orange>called by list</color>**__
..class..
..member..
..method..
}
class "playSong(classRelation.Guitar)" as f1164440413  
{
Static : false
return Type : Sound
hashCode : 1164440413
ABS Score : 8
Relative Score : 8
__**<color:green>has list</color>**__
..class..
..member..
	classRelation.Guitarist.playSong(classRelation.Guitar).guitar (2044903525);
..method..
__**<color:blue>calling list</color>**__
..class..
	classRelation.Guitar (1766505436);
	classRelation.Instrument (762476028);
..member..
	classRelation.Guitarist.playSong(classRelation.Guitar).guitar (2044903525);
..method..
	 classRelation.Instrument.play() (982757413);
__**<color:orange>called by list</color>**__
..class..
	classRelation.GuitarAcademy (902478634);
	classRelation.Guitarist (771775563);
..member..
	classRelation.GuitarAcademy.teacher (2114444063);
	classRelation.GuitarAcademy.lesson(classRelation.Guitarist).student (294247762);
..method..
	 classRelation.GuitarAcademy.lesson(classRelation.Guitarist) (918312414);
	 classRelation.Guitarist.playSong(classRelation.Guitar) (1164440413);
}
}

@enduml

PlantUML version 1.2020.19(Tue Oct 13 00:10:01 KST 2020)
(APACHE source distribution)
Java Runtime: Java(TM) SE Runtime Environment
JVM: Java HotSpot(TM) 64-Bit Server VM
Default Encoding: MS949
Language: ko
Country: KR
--></g></svg>