<?xml version="1.0" encoding="UTF-8" standalone="no"?><svg xmlns="http://www.w3.org/2000/svg" xmlns:xlink="http://www.w3.org/1999/xlink" contentScriptType="application/ecmascript" contentStyleType="text/css" height="539px" preserveAspectRatio="none" style="width:1062px;height:539px;" version="1.1" viewBox="0 0 1062 539" width="1062px" zoomAndPan="magnify"><defs><filter height="300%" id="f5u5bup0xm402" width="300%" x="-1" y="-1"><feGaussianBlur result="blurOut" stdDeviation="2.0"/><feColorMatrix in="blurOut" result="blurOut2" type="matrix" values="0 0 0 0 0 0 0 0 0 0 0 0 0 0 0 0 0 0 .4 0"/><feOffset dx="4.0" dy="4.0" in="blurOut2" result="blurOut3"/><feBlend in="SourceGraphic" in2="blurOut3" mode="normal"/></filter></defs><g><!--MD5=[7c6608d7cf625e90131334e1ca091b1a]
cluster Functions--><polygon fill="#FFFFFF" filter="url(#f5u5bup0xm402)" points="436.5,6,512.5,6,519.5,31.2295,1045.5,31.2295,1045.5,532,436.5,532,436.5,6" style="stroke: #000000; stroke-width: 1.5;"/><line style="stroke: #000000; stroke-width: 1.5;" x1="436.5" x2="519.5" y1="31.2295" y2="31.2295"/><text fill="#000000" font-family="sans-serif" font-size="14" font-weight="bold" lengthAdjust="spacingAndGlyphs" textLength="70" x="440.5" y="24.1533">Functions</text><!--MD5=[7cc9d619b3430eb487bcca6d61c066e4]
class f1448061896--><rect codeLine="30" fill="#FEFECE" filter="url(#f5u5bup0xm402)" height="387.5044" id="f1448061896" style="stroke: #008000; stroke-width: 1.5;" width="130" x="899.5" y="86"/><ellipse cx="917.65" cy="102" fill="#ADD1B2" rx="11" ry="11" style="stroke: #008000; stroke-width: 1.0;"/><path d="M917.4781,95.4844 Q915.6031,95.4844 914.4469,97.2344 Q913.2594,99.0156 913.2594,102.0156 Q913.2594,105.3906 914.4625,107.1563 Q915.525,108.7813 917.275,108.7813 Q918.9625,108.7813 919.9156,107.875 Q920.9781,106.8594 921.1188,104.625 Q921.1188,104.2031 920.8844,103.9688 Q920.6969,103.7344 920.3531,103.7031 Q920.025,103.7031 919.7906,103.8906 Q919.525,104.125 919.525,104.5156 Q919.4938,105.9063 918.9,106.6406 Q918.3688,107.3438 917.4156,107.3438 Q916.2594,107.3438 915.5406,105.9063 Q914.8219,104.4063 914.8219,101.9844 Q914.8219,99.4375 915.7125,98.0469 Q916.4625,96.9219 917.6031,96.9219 Q918.2594,96.9219 918.7594,97.4688 Q919.3219,98.0781 919.4469,99.1406 Q919.4938,99.8438 920.3219,99.7344 Q921.1031,99.625 921.0563,98.9375 Q920.8688,97.4219 920.1031,96.5469 Q919.1656,95.4844 917.4781,95.4844 Z "/><text fill="#000000" font-family="sans-serif" font-size="12" lengthAdjust="spacingAndGlyphs" textLength="91" x="932.35" y="107.6045">GuitarAcademy()</text><line style="stroke: #008000; stroke-width: 1.5;" x1="900.5" x2="1028.5" y1="118" y2="118"/><text fill="#000000" font-family="sans-serif" font-size="11" lengthAdjust="spacingAndGlyphs" textLength="60" x="905.5" y="134.6919">Static : false</text><text fill="#000000" font-family="sans-serif" font-size="11" lengthAdjust="spacingAndGlyphs" textLength="87" x="905.5" y="149.8008">return Type : new</text><text fill="#000000" font-family="sans-serif" font-size="11" lengthAdjust="spacingAndGlyphs" textLength="118" x="905.5" y="164.9097">hashCode : 1448061896</text><text fill="#000000" font-family="sans-serif" font-size="11" lengthAdjust="spacingAndGlyphs" textLength="69" x="905.5" y="180.0186">ABS Score : 0</text><text fill="#000000" font-family="sans-serif" font-size="11" lengthAdjust="spacingAndGlyphs" textLength="85" x="905.5" y="195.1274">Relative Score : 0</text><line style="stroke: #008000; stroke-width: 1.5;" x1="900.5" x2="944.5" y1="209.0989" y2="209.0989"/><text fill="#008000" font-family="sans-serif" font-size="11" font-weight="bold" lengthAdjust="spacingAndGlyphs" textLength="40" x="944.5" y="213.7363">has list</text><line style="stroke: #008000; stroke-width: 1.5;" x1="984.5" x2="1028.5" y1="209.0989" y2="209.0989"/><line style="stroke: #008000; stroke-width: 1.0; stroke-dasharray: 1.0,2.0;" x1="900.5" x2="951.5" y1="231.7622" y2="231.7622"/><text fill="#000000" font-family="sans-serif" font-size="11" lengthAdjust="spacingAndGlyphs" textLength="26" x="951.5" y="236.3997">class</text><line style="stroke: #008000; stroke-width: 1.0; stroke-dasharray: 1.0,2.0;" x1="977.5" x2="1028.5" y1="231.7622" y2="231.7622"/><line style="stroke: #008000; stroke-width: 1.0; stroke-dasharray: 1.0,2.0;" x1="900.5" x2="945.5" y1="254.4255" y2="254.4255"/><text fill="#000000" font-family="sans-serif" font-size="11" lengthAdjust="spacingAndGlyphs" textLength="38" x="945.5" y="259.063">member</text><line style="stroke: #008000; stroke-width: 1.0; stroke-dasharray: 1.0,2.0;" x1="983.5" x2="1028.5" y1="254.4255" y2="254.4255"/><line style="stroke: #008000; stroke-width: 1.0; stroke-dasharray: 1.0,2.0;" x1="900.5" x2="947" y1="277.0889" y2="277.0889"/><text fill="#000000" font-family="sans-serif" font-size="11" lengthAdjust="spacingAndGlyphs" textLength="35" x="947" y="281.7263">method</text><line style="stroke: #008000; stroke-width: 1.0; stroke-dasharray: 1.0,2.0;" x1="982" x2="1028.5" y1="277.0889" y2="277.0889"/><line style="stroke: #008000; stroke-width: 1.5;" x1="900.5" x2="937" y1="299.7522" y2="299.7522"/><text fill="#0000FF" font-family="sans-serif" font-size="11" font-weight="bold" lengthAdjust="spacingAndGlyphs" textLength="55" x="937" y="304.3896">calling list</text><line style="stroke: #008000; stroke-width: 1.5;" x1="992" x2="1028.5" y1="299.7522" y2="299.7522"/><line style="stroke: #008000; stroke-width: 1.0; stroke-dasharray: 1.0,2.0;" x1="900.5" x2="951.5" y1="322.4155" y2="322.4155"/><text fill="#000000" font-family="sans-serif" font-size="11" lengthAdjust="spacingAndGlyphs" textLength="26" x="951.5" y="327.053">class</text><line style="stroke: #008000; stroke-width: 1.0; stroke-dasharray: 1.0,2.0;" x1="977.5" x2="1028.5" y1="322.4155" y2="322.4155"/><line style="stroke: #008000; stroke-width: 1.0; stroke-dasharray: 1.0,2.0;" x1="900.5" x2="945.5" y1="345.0789" y2="345.0789"/><text fill="#000000" font-family="sans-serif" font-size="11" lengthAdjust="spacingAndGlyphs" textLength="38" x="945.5" y="349.7163">member</text><line style="stroke: #008000; stroke-width: 1.0; stroke-dasharray: 1.0,2.0;" x1="983.5" x2="1028.5" y1="345.0789" y2="345.0789"/><line style="stroke: #008000; stroke-width: 1.0; stroke-dasharray: 1.0,2.0;" x1="900.5" x2="947" y1="367.7422" y2="367.7422"/><text fill="#000000" font-family="sans-serif" font-size="11" lengthAdjust="spacingAndGlyphs" textLength="35" x="947" y="372.3796">method</text><line style="stroke: #008000; stroke-width: 1.0; stroke-dasharray: 1.0,2.0;" x1="982" x2="1028.5" y1="367.7422" y2="367.7422"/><line style="stroke: #008000; stroke-width: 1.5;" x1="900.5" x2="930.5" y1="390.4055" y2="390.4055"/><text fill="#FFA500" font-family="sans-serif" font-size="11" font-weight="bold" lengthAdjust="spacingAndGlyphs" textLength="68" x="930.5" y="395.043">called by list</text><line style="stroke: #008000; stroke-width: 1.5;" x1="998.5" x2="1028.5" y1="390.4055" y2="390.4055"/><line style="stroke: #008000; stroke-width: 1.0; stroke-dasharray: 1.0,2.0;" x1="900.5" x2="951.5" y1="413.0688" y2="413.0688"/><text fill="#000000" font-family="sans-serif" font-size="11" lengthAdjust="spacingAndGlyphs" textLength="26" x="951.5" y="417.7063">class</text><line style="stroke: #008000; stroke-width: 1.0; stroke-dasharray: 1.0,2.0;" x1="977.5" x2="1028.5" y1="413.0688" y2="413.0688"/><line style="stroke: #008000; stroke-width: 1.0; stroke-dasharray: 1.0,2.0;" x1="900.5" x2="945.5" y1="435.7322" y2="435.7322"/><text fill="#000000" font-family="sans-serif" font-size="11" lengthAdjust="spacingAndGlyphs" textLength="38" x="945.5" y="440.3696">member</text><line style="stroke: #008000; stroke-width: 1.0; stroke-dasharray: 1.0,2.0;" x1="983.5" x2="1028.5" y1="435.7322" y2="435.7322"/><line style="stroke: #008000; stroke-width: 1.0; stroke-dasharray: 1.0,2.0;" x1="900.5" x2="947" y1="458.3955" y2="458.3955"/><text fill="#000000" font-family="sans-serif" font-size="11" lengthAdjust="spacingAndGlyphs" textLength="35" x="947" y="463.033">method</text><line style="stroke: #008000; stroke-width: 1.0; stroke-dasharray: 1.0,2.0;" x1="982" x2="1028.5" y1="458.3955" y2="458.3955"/><!--MD5=[838ede76f8bc553504e92e3c709baaef]
class f918312414--><rect codeLine="50" fill="#FA8072" filter="url(#f5u5bup0xm402)" height="471.9399" id="f918312414" style="stroke: #A80036; stroke-width: 1.5;" width="411" x="453" y="44"/><ellipse cx="568.75" cy="60" fill="#ADD1B2" rx="11" ry="11" style="stroke: #A80036; stroke-width: 1.0;"/><path d="M568.5781,53.4844 Q566.7031,53.4844 565.5469,55.2344 Q564.3594,57.0156 564.3594,60.0156 Q564.3594,63.3906 565.5625,65.1563 Q566.625,66.7813 568.375,66.7813 Q570.0625,66.7813 571.0156,65.875 Q572.0781,64.8594 572.2188,62.625 Q572.2188,62.2031 571.9844,61.9688 Q571.7969,61.7344 571.4531,61.7031 Q571.125,61.7031 570.8906,61.8906 Q570.625,62.125 570.625,62.5156 Q570.5938,63.9063 570,64.6406 Q569.4688,65.3438 568.5156,65.3438 Q567.3594,65.3438 566.6406,63.9063 Q565.9219,62.4063 565.9219,59.9844 Q565.9219,57.4375 566.8125,56.0469 Q567.5625,54.9219 568.7031,54.9219 Q569.3594,54.9219 569.8594,55.4688 Q570.4219,56.0781 570.5469,57.1406 Q570.5938,57.8438 571.4219,57.7344 Q572.2031,57.625 572.1563,56.9375 Q571.9688,55.4219 571.2031,54.5469 Q570.2656,53.4844 568.5781,53.4844 Z "/><text fill="#000000" font-family="sans-serif" font-size="12" lengthAdjust="spacingAndGlyphs" textLength="171" x="589.25" y="65.6045">lesson(classRelation.Guitarist)</text><line style="stroke: #A80036; stroke-width: 1.5;" x1="454" x2="863" y1="76" y2="76"/><text fill="#000000" font-family="sans-serif" font-size="11" lengthAdjust="spacingAndGlyphs" textLength="60" x="459" y="92.6919">Static : false</text><text fill="#000000" font-family="sans-serif" font-size="11" lengthAdjust="spacingAndGlyphs" textLength="85" x="459" y="107.8008">return Type : void</text><text fill="#000000" font-family="sans-serif" font-size="11" lengthAdjust="spacingAndGlyphs" textLength="112" x="459" y="122.9097">hashCode : 918312414</text><text fill="#000000" font-family="sans-serif" font-size="11" lengthAdjust="spacingAndGlyphs" textLength="75" x="459" y="138.0186">ABS Score : 10</text><text fill="#000000" font-family="sans-serif" font-size="11" lengthAdjust="spacingAndGlyphs" textLength="91" x="459" y="153.1274">Relative Score : 10</text><line style="stroke: #A80036; stroke-width: 1.5;" x1="454" x2="638.5" y1="167.0989" y2="167.0989"/><text fill="#008000" font-family="sans-serif" font-size="11" font-weight="bold" lengthAdjust="spacingAndGlyphs" textLength="40" x="638.5" y="171.7363">has list</text><line style="stroke: #A80036; stroke-width: 1.5;" x1="678.5" x2="863" y1="167.0989" y2="167.0989"/><line style="stroke: #A80036; stroke-width: 1.0; stroke-dasharray: 1.0,2.0;" x1="454" x2="645.5" y1="189.7622" y2="189.7622"/><text fill="#000000" font-family="sans-serif" font-size="11" lengthAdjust="spacingAndGlyphs" textLength="26" x="645.5" y="194.3997">class</text><line style="stroke: #A80036; stroke-width: 1.0; stroke-dasharray: 1.0,2.0;" x1="671.5" x2="863" y1="189.7622" y2="189.7622"/><text fill="#000000" font-family="sans-serif" font-size="11" lengthAdjust="spacingAndGlyphs" textLength="399" x="459" y="232.6719">classRelation.GuitarAcademy.lesson(classRelation.Guitarist).student (294247762);</text><line style="stroke: #A80036; stroke-width: 1.0; stroke-dasharray: 1.0,2.0;" x1="454" x2="639.5" y1="212.4255" y2="212.4255"/><text fill="#000000" font-family="sans-serif" font-size="11" lengthAdjust="spacingAndGlyphs" textLength="38" x="639.5" y="217.063">member</text><line style="stroke: #A80036; stroke-width: 1.0; stroke-dasharray: 1.0,2.0;" x1="677.5" x2="863" y1="212.4255" y2="212.4255"/><line style="stroke: #A80036; stroke-width: 1.0; stroke-dasharray: 1.0,2.0;" x1="454" x2="641" y1="246.6433" y2="246.6433"/><text fill="#000000" font-family="sans-serif" font-size="11" lengthAdjust="spacingAndGlyphs" textLength="35" x="641" y="251.2808">method</text><line style="stroke: #A80036; stroke-width: 1.0; stroke-dasharray: 1.0,2.0;" x1="676" x2="863" y1="246.6433" y2="246.6433"/><line style="stroke: #A80036; stroke-width: 1.5;" x1="454" x2="631" y1="269.3066" y2="269.3066"/><text fill="#0000FF" font-family="sans-serif" font-size="11" font-weight="bold" lengthAdjust="spacingAndGlyphs" textLength="55" x="631" y="273.9441">calling list</text><line style="stroke: #A80036; stroke-width: 1.5;" x1="686" x2="863" y1="269.3066" y2="269.3066"/><text fill="#000000" font-family="sans-serif" font-size="11" lengthAdjust="spacingAndGlyphs" textLength="175" x="459" y="312.2163">classRelation.Guitarist (771775563);</text><line style="stroke: #A80036; stroke-width: 1.0; stroke-dasharray: 1.0,2.0;" x1="454" x2="645.5" y1="291.97" y2="291.97"/><text fill="#000000" font-family="sans-serif" font-size="11" lengthAdjust="spacingAndGlyphs" textLength="26" x="645.5" y="296.6074">class</text><line style="stroke: #A80036; stroke-width: 1.0; stroke-dasharray: 1.0,2.0;" x1="671.5" x2="863" y1="291.97" y2="291.97"/><text fill="#000000" font-family="sans-serif" font-size="11" lengthAdjust="spacingAndGlyphs" textLength="256" x="459" y="346.4341">classRelation.GuitarAcademy.teacher (2114444063);</text><text fill="#000000" font-family="sans-serif" font-size="11" lengthAdjust="spacingAndGlyphs" textLength="399" x="459" y="361.543">classRelation.GuitarAcademy.lesson(classRelation.Guitarist).student (294247762);</text><line style="stroke: #A80036; stroke-width: 1.0; stroke-dasharray: 1.0,2.0;" x1="454" x2="639.5" y1="326.1877" y2="326.1877"/><text fill="#000000" font-family="sans-serif" font-size="11" lengthAdjust="spacingAndGlyphs" textLength="38" x="639.5" y="330.8252">member</text><line style="stroke: #A80036; stroke-width: 1.0; stroke-dasharray: 1.0,2.0;" x1="677.5" x2="863" y1="326.1877" y2="326.1877"/><text fill="#000000" font-family="sans-serif" font-size="11" lengthAdjust="spacingAndGlyphs" textLength="333" x="459" y="395.7607">classRelation.Guitarist.playSong(classRelation.Guitar) (1164440413);</text><line style="stroke: #A80036; stroke-width: 1.0; stroke-dasharray: 1.0,2.0;" x1="454" x2="641" y1="375.5144" y2="375.5144"/><text fill="#000000" font-family="sans-serif" font-size="11" lengthAdjust="spacingAndGlyphs" textLength="35" x="641" y="380.1519">method</text><line style="stroke: #A80036; stroke-width: 1.0; stroke-dasharray: 1.0,2.0;" x1="676" x2="863" y1="375.5144" y2="375.5144"/><line style="stroke: #A80036; stroke-width: 1.5;" x1="454" x2="624.5" y1="409.7322" y2="409.7322"/><text fill="#FFA500" font-family="sans-serif" font-size="11" font-weight="bold" lengthAdjust="spacingAndGlyphs" textLength="68" x="624.5" y="414.3696">called by list</text><line style="stroke: #A80036; stroke-width: 1.5;" x1="692.5" x2="863" y1="409.7322" y2="409.7322"/><text fill="#000000" font-family="sans-serif" font-size="11" lengthAdjust="spacingAndGlyphs" textLength="210" x="459" y="452.6418">classRelation.GuitarAcademy (902478634);</text><line style="stroke: #A80036; stroke-width: 1.0; stroke-dasharray: 1.0,2.0;" x1="454" x2="645.5" y1="432.3955" y2="432.3955"/><text fill="#000000" font-family="sans-serif" font-size="11" lengthAdjust="spacingAndGlyphs" textLength="26" x="645.5" y="437.033">class</text><line style="stroke: #A80036; stroke-width: 1.0; stroke-dasharray: 1.0,2.0;" x1="671.5" x2="863" y1="432.3955" y2="432.3955"/><line style="stroke: #A80036; stroke-width: 1.0; stroke-dasharray: 1.0,2.0;" x1="454" x2="639.5" y1="466.6133" y2="466.6133"/><text fill="#000000" font-family="sans-serif" font-size="11" lengthAdjust="spacingAndGlyphs" textLength="38" x="639.5" y="471.2507">member</text><line style="stroke: #A80036; stroke-width: 1.0; stroke-dasharray: 1.0,2.0;" x1="677.5" x2="863" y1="466.6133" y2="466.6133"/><text fill="#000000" font-family="sans-serif" font-size="11" lengthAdjust="spacingAndGlyphs" textLength="360" x="459" y="509.5229">classRelation.GuitarAcademy.lesson(classRelation.Guitarist) (918312414);</text><line style="stroke: #A80036; stroke-width: 1.0; stroke-dasharray: 1.0,2.0;" x1="454" x2="641" y1="489.2766" y2="489.2766"/><text fill="#000000" font-family="sans-serif" font-size="11" lengthAdjust="spacingAndGlyphs" textLength="35" x="641" y="493.9141">method</text><line style="stroke: #A80036; stroke-width: 1.0; stroke-dasharray: 1.0,2.0;" x1="676" x2="863" y1="489.2766" y2="489.2766"/><!--MD5=[f6064968006b102cb1b3092be2f53bd9]
class cl1--><rect codeLine="1" fill="#FEFECE" filter="url(#f5u5bup0xm402)" height="457.2766" id="cl1" style="stroke: #A80036; stroke-width: 1.5;" width="411" x="7" y="51.5"/><ellipse cx="166.75" cy="67.5" fill="#ADD1B2" rx="11" ry="11" style="stroke: #A80036; stroke-width: 1.0;"/><path d="M166.5781,60.9844 Q164.7031,60.9844 163.5469,62.7344 Q162.3594,64.5156 162.3594,67.5156 Q162.3594,70.8906 163.5625,72.6563 Q164.625,74.2813 166.375,74.2813 Q168.0625,74.2813 169.0156,73.375 Q170.0781,72.3594 170.2188,70.125 Q170.2188,69.7031 169.9844,69.4688 Q169.7969,69.2344 169.4531,69.2031 Q169.125,69.2031 168.8906,69.3906 Q168.625,69.625 168.625,70.0156 Q168.5938,71.4063 168,72.1406 Q167.4688,72.8438 166.5156,72.8438 Q165.3594,72.8438 164.6406,71.4063 Q163.9219,69.9063 163.9219,67.4844 Q163.9219,64.9375 164.8125,63.5469 Q165.5625,62.4219 166.7031,62.4219 Q167.3594,62.4219 167.8594,62.9688 Q168.4219,63.5781 168.5469,64.6406 Q168.5938,65.3438 169.4219,65.2344 Q170.2031,65.125 170.1563,64.4375 Q169.9688,62.9219 169.2031,62.0469 Q168.2656,60.9844 166.5781,60.9844 Z "/><text fill="#000000" font-family="sans-serif" font-size="12" lengthAdjust="spacingAndGlyphs" textLength="83" x="187.25" y="73.1045">GuitarAcademy</text><line style="stroke: #A80036; stroke-width: 1.5;" x1="8" x2="417" y1="83.5" y2="83.5"/><text fill="#000000" font-family="sans-serif" font-size="11" lengthAdjust="spacingAndGlyphs" textLength="108" x="13" y="100.1919">Package classRelation</text><text fill="#000000" font-family="sans-serif" font-size="11" lengthAdjust="spacingAndGlyphs" textLength="41" x="13" y="115.3008">Lib false</text><text fill="#000000" font-family="sans-serif" font-size="11" lengthAdjust="spacingAndGlyphs" textLength="113" x="13" y="130.4097">HashCode : 902478634</text><text fill="#000000" font-family="sans-serif" font-size="11" lengthAdjust="spacingAndGlyphs" textLength="75" x="13" y="145.5186">ABS Score : 21</text><text fill="#000000" font-family="sans-serif" font-size="11" lengthAdjust="spacingAndGlyphs" textLength="85" x="13" y="160.6274">Relative Score : 5</text><text fill="#008000" font-family="sans-serif" font-size="11" lengthAdjust="spacingAndGlyphs" textLength="164" x="13" y="194.8452">classRelation.Guitarist teacher (2)</text><text fill="#008000" font-family="sans-serif" font-size="11" lengthAdjust="spacingAndGlyphs" textLength="189" x="13" y="209.9541">classRelation.Guitar academyGuitar (2)</text><line style="stroke: #A80036; stroke-width: 1.5;" x1="8" x2="192.5" y1="174.5989" y2="174.5989"/><text fill="#008000" font-family="sans-serif" font-size="11" font-weight="bold" lengthAdjust="spacingAndGlyphs" textLength="40" x="192.5" y="179.2363">has list</text><line style="stroke: #A80036; stroke-width: 1.5;" x1="232.5" x2="417" y1="174.5989" y2="174.5989"/><line style="stroke: #A80036; stroke-width: 1.0; stroke-dasharray: 1.0,2.0;" x1="8" x2="417" y1="216.3711" y2="216.3711"/><text fill="#008000" font-family="sans-serif" font-size="11" lengthAdjust="spacingAndGlyphs" textLength="125" x="13" y="233.063">new GuitarAcademy() (0)</text><text fill="#FF0000" font-family="sans-serif" font-size="11" lengthAdjust="spacingAndGlyphs" textLength="193" x="13" y="248.1719">void lesson(classRelation.Guitarist) (10)</text><line style="stroke: #A80036; stroke-width: 1.5;" x1="8" x2="185" y1="262.1433" y2="262.1433"/><text fill="#0000FF" font-family="sans-serif" font-size="11" font-weight="bold" lengthAdjust="spacingAndGlyphs" textLength="55" x="185" y="266.7808">calling list</text><line style="stroke: #A80036; stroke-width: 1.5;" x1="240" x2="417" y1="262.1433" y2="262.1433"/><text fill="#000000" font-family="sans-serif" font-size="11" lengthAdjust="spacingAndGlyphs" textLength="175" x="13" y="305.053">classRelation.Guitarist (771775563);</text><line style="stroke: #A80036; stroke-width: 1.0; stroke-dasharray: 1.0,2.0;" x1="8" x2="199.5" y1="284.8066" y2="284.8066"/><text fill="#000000" font-family="sans-serif" font-size="11" lengthAdjust="spacingAndGlyphs" textLength="26" x="199.5" y="289.4441">class</text><line style="stroke: #A80036; stroke-width: 1.0; stroke-dasharray: 1.0,2.0;" x1="225.5" x2="417" y1="284.8066" y2="284.8066"/><text fill="#000000" font-family="sans-serif" font-size="11" lengthAdjust="spacingAndGlyphs" textLength="256" x="13" y="339.2708">classRelation.GuitarAcademy.teacher (2114444063);</text><text fill="#000000" font-family="sans-serif" font-size="11" lengthAdjust="spacingAndGlyphs" textLength="399" x="13" y="354.3796">classRelation.GuitarAcademy.lesson(classRelation.Guitarist).student (294247762);</text><line style="stroke: #A80036; stroke-width: 1.0; stroke-dasharray: 1.0,2.0;" x1="8" x2="193.5" y1="319.0244" y2="319.0244"/><text fill="#000000" font-family="sans-serif" font-size="11" lengthAdjust="spacingAndGlyphs" textLength="38" x="193.5" y="323.6619">member</text><line style="stroke: #A80036; stroke-width: 1.0; stroke-dasharray: 1.0,2.0;" x1="231.5" x2="417" y1="319.0244" y2="319.0244"/><text fill="#000000" font-family="sans-serif" font-size="11" lengthAdjust="spacingAndGlyphs" textLength="333" x="13" y="388.5974">classRelation.Guitarist.playSong(classRelation.Guitar) (1164440413);</text><line style="stroke: #A80036; stroke-width: 1.0; stroke-dasharray: 1.0,2.0;" x1="8" x2="195" y1="368.3511" y2="368.3511"/><text fill="#000000" font-family="sans-serif" font-size="11" lengthAdjust="spacingAndGlyphs" textLength="35" x="195" y="372.9885">method</text><line style="stroke: #A80036; stroke-width: 1.0; stroke-dasharray: 1.0,2.0;" x1="230" x2="417" y1="368.3511" y2="368.3511"/><line style="stroke: #A80036; stroke-width: 1.5;" x1="8" x2="178.5" y1="402.5688" y2="402.5688"/><text fill="#FFA500" font-family="sans-serif" font-size="11" font-weight="bold" lengthAdjust="spacingAndGlyphs" textLength="68" x="178.5" y="407.2063">called by list</text><line style="stroke: #A80036; stroke-width: 1.5;" x1="246.5" x2="417" y1="402.5688" y2="402.5688"/><text fill="#000000" font-family="sans-serif" font-size="11" lengthAdjust="spacingAndGlyphs" textLength="210" x="13" y="445.4785">classRelation.GuitarAcademy (902478634);</text><line style="stroke: #A80036; stroke-width: 1.0; stroke-dasharray: 1.0,2.0;" x1="8" x2="199.5" y1="425.2322" y2="425.2322"/><text fill="#000000" font-family="sans-serif" font-size="11" lengthAdjust="spacingAndGlyphs" textLength="26" x="199.5" y="429.8696">class</text><line style="stroke: #A80036; stroke-width: 1.0; stroke-dasharray: 1.0,2.0;" x1="225.5" x2="417" y1="425.2322" y2="425.2322"/><line style="stroke: #A80036; stroke-width: 1.0; stroke-dasharray: 1.0,2.0;" x1="8" x2="193.5" y1="459.45" y2="459.45"/><text fill="#000000" font-family="sans-serif" font-size="11" lengthAdjust="spacingAndGlyphs" textLength="38" x="193.5" y="464.0874">member</text><line style="stroke: #A80036; stroke-width: 1.0; stroke-dasharray: 1.0,2.0;" x1="231.5" x2="417" y1="459.45" y2="459.45"/><text fill="#000000" font-family="sans-serif" font-size="11" lengthAdjust="spacingAndGlyphs" textLength="360" x="13" y="502.3596">classRelation.GuitarAcademy.lesson(classRelation.Guitarist) (918312414);</text><line style="stroke: #A80036; stroke-width: 1.0; stroke-dasharray: 1.0,2.0;" x1="8" x2="195" y1="482.1133" y2="482.1133"/><text fill="#000000" font-family="sans-serif" font-size="11" lengthAdjust="spacingAndGlyphs" textLength="35" x="195" y="486.7507">method</text><line style="stroke: #A80036; stroke-width: 1.0; stroke-dasharray: 1.0,2.0;" x1="230" x2="417" y1="482.1133" y2="482.1133"/><!--MD5=[369020ec553cdca889967ff5f2e07f08]
@startuml
class "GuitarAcademy" as cl1{
Package classRelation
Lib false
HashCode : 902478634
ABS Score : 21
Relative Score : 5
__**<color:green>has list</color>**__
	<color:green>classRelation.Guitarist teacher (2)
	<color:green>classRelation.Guitar academyGuitar (2)
....
	<color:green>new GuitarAcademy() (0)
	<color:red>void lesson(classRelation.Guitarist) (10)
__**<color:blue>calling list</color>**__
..class..
	classRelation.Guitarist (771775563);
..member..
	classRelation.GuitarAcademy.teacher (2114444063);
	classRelation.GuitarAcademy.lesson(classRelation.Guitarist).student (294247762);
..method..
	 classRelation.Guitarist.playSong(classRelation.Guitar) (1164440413);
__**<color:orange>called by list</color>**__
..class..
	classRelation.GuitarAcademy (902478634);
..member..
..method..
	 classRelation.GuitarAcademy.lesson(classRelation.Guitarist) (918312414);
}

 package Functions{
class "GuitarAcademy()" as f1448061896  #line:green
{
Static : false
return Type : new
hashCode : 1448061896
ABS Score : 0
Relative Score : 0
__**<color:green>has list</color>**__
..class..
..member..
..method..
__**<color:blue>calling list</color>**__
..class..
..member..
..method..
__**<color:orange>called by list</color>**__
..class..
..member..
..method..
}
class "lesson(classRelation.Guitarist)" as f918312414  #back:salmon
{
Static : false
return Type : void
hashCode : 918312414
ABS Score : 10
Relative Score : 10
__**<color:green>has list</color>**__
..class..
..member..
	classRelation.GuitarAcademy.lesson(classRelation.Guitarist).student (294247762);
..method..
__**<color:blue>calling list</color>**__
..class..
	classRelation.Guitarist (771775563);
..member..
	classRelation.GuitarAcademy.teacher (2114444063);
	classRelation.GuitarAcademy.lesson(classRelation.Guitarist).student (294247762);
..method..
	 classRelation.Guitarist.playSong(classRelation.Guitar) (1164440413);
__**<color:orange>called by list</color>**__
..class..
	classRelation.GuitarAcademy (902478634);
..member..
..method..
	 classRelation.GuitarAcademy.lesson(classRelation.Guitarist) (918312414);
}
}

@enduml

PlantUML version 1.2020.19(Tue Oct 13 00:10:01 KST 2020)
(APACHE source distribution)
Java Runtime: Java(TM) SE Runtime Environment
JVM: Java HotSpot(TM) 64-Bit Server VM
Default Encoding: MS949
Language: ko
Country: KR
--></g></svg>