<?xml version="1.0" encoding="UTF-8" standalone="no"?><svg xmlns="http://www.w3.org/2000/svg" xmlns:xlink="http://www.w3.org/1999/xlink" contentScriptType="application/ecmascript" contentStyleType="text/css" height="382px" preserveAspectRatio="none" style="width:380px;height:382px;background:#FFFFFF;" version="1.1" viewBox="0 0 380 382" width="380px" zoomAndPan="magnify"><defs><filter height="300%" id="f2yc31qwsuhrv" width="300%" x="-1" y="-1"><feGaussianBlur result="blurOut" stdDeviation="2.0"/><feColorMatrix in="blurOut" result="blurOut2" type="matrix" values="0 0 0 0 0 0 0 0 0 0 0 0 0 0 0 0 0 0 .4 0"/><feOffset dx="4.0" dy="4.0" in="blurOut2" result="blurOut3"/><feBlend in="SourceGraphic" in2="blurOut3" mode="normal"/></filter></defs><g><!--MD5=[f6064968006b102cb1b3092be2f53bd9]
class cl1--><rect codeLine="1" fill="#FEFECE" filter="url(#f2yc31qwsuhrv)" height="361.7322" id="cl1" style="stroke:#A80036;stroke-width:1.5;" width="359" x="7" y="7"/><ellipse cx="102.75" cy="23" fill="#ADD1B2" rx="11" ry="11" style="stroke:#A80036;stroke-width:1.0;"/><path d="M102.5781,16.4844 Q100.7031,16.4844 99.5469,18.2344 Q98.3594,20.0156 98.3594,23.0156 Q98.3594,26.3906 99.5625,28.1563 Q100.625,29.7813 102.375,29.7813 Q104.0625,29.7813 105.0156,28.875 Q106.0781,27.8594 106.2188,25.625 Q106.2188,25.2031 105.9844,24.9688 Q105.7969,24.7344 105.4531,24.7031 Q105.125,24.7031 104.8906,24.8906 Q104.625,25.125 104.625,25.5156 Q104.5938,26.9063 104,27.6406 Q103.4688,28.3438 102.5156,28.3438 Q101.3594,28.3438 100.6406,26.9063 Q99.9219,25.4063 99.9219,22.9844 Q99.9219,20.4375 100.8125,19.0469 Q101.5625,17.9219 102.7031,17.9219 Q103.3594,17.9219 103.8594,18.4688 Q104.4219,19.0781 104.5469,20.1406 Q104.5938,20.8438 105.4219,20.7344 Q106.2031,20.625 106.1563,19.9375 Q105.9688,18.4219 105.2031,17.5469 Q104.2656,16.4844 102.5781,16.4844 Z " fill="#000000"/><text fill="#000000" font-family="sans-serif" font-size="12" lengthAdjust="spacing" textLength="159" x="123.25" y="28.6045">org.eclipse.jdt.core.JavaCore</text><line style="stroke:#A80036;stroke-width:1.5;" x1="8" x2="365" y1="39" y2="39"/><line style="stroke:#A80036;stroke-width:1.5;" x1="8" x2="166.5" y1="54.5544" y2="54.5544"/><text fill="#008000" font-family="sans-serif" font-size="11" font-weight="bold" lengthAdjust="spacing" textLength="40" x="166.5" y="59.1919">has list</text><line style="stroke:#A80036;stroke-width:1.5;" x1="206.5" x2="365" y1="54.5544" y2="54.5544"/><line style="stroke:#A80036;stroke-width:1.0;stroke-dasharray:1.0,2.0;" x1="8" x2="173.5" y1="77.2178" y2="77.2178"/><text fill="#000000" font-family="sans-serif" font-size="11" lengthAdjust="spacing" textLength="26" x="173.5" y="81.8552">class</text><line style="stroke:#A80036;stroke-width:1.0;stroke-dasharray:1.0,2.0;" x1="199.5" x2="365" y1="77.2178" y2="77.2178"/><line style="stroke:#A80036;stroke-width:1.0;stroke-dasharray:1.0,2.0;" x1="8" x2="167.5" y1="99.8811" y2="99.8811"/><text fill="#000000" font-family="sans-serif" font-size="11" lengthAdjust="spacing" textLength="38" x="167.5" y="104.5186">member</text><line style="stroke:#A80036;stroke-width:1.0;stroke-dasharray:1.0,2.0;" x1="205.5" x2="365" y1="99.8811" y2="99.8811"/><text fill="#000000" font-family="sans-serif" font-size="11" lengthAdjust="spacing" textLength="153" x="13" y="142.7908">null getOptions() (1402148539);</text><text fill="#000000" font-family="sans-serif" font-size="11" lengthAdjust="spacing" textLength="347" x="13" y="157.8997">null setComplianceOptions(java.lang.String, java.util.Map) (1562019228);</text><line style="stroke:#A80036;stroke-width:1.0;stroke-dasharray:1.0,2.0;" x1="8" x2="169" y1="122.5444" y2="122.5444"/><text fill="#000000" font-family="sans-serif" font-size="11" lengthAdjust="spacing" textLength="35" x="169" y="127.1819">method</text><line style="stroke:#A80036;stroke-width:1.0;stroke-dasharray:1.0,2.0;" x1="204" x2="365" y1="122.5444" y2="122.5444"/><line style="stroke:#A80036;stroke-width:1.5;" x1="8" x2="159" y1="171.8711" y2="171.8711"/><text fill="#0000FF" font-family="sans-serif" font-size="11" font-weight="bold" lengthAdjust="spacing" textLength="55" x="159" y="176.5085">calling list</text><line style="stroke:#A80036;stroke-width:1.5;" x1="214" x2="365" y1="171.8711" y2="171.8711"/><line style="stroke:#A80036;stroke-width:1.0;stroke-dasharray:1.0,2.0;" x1="8" x2="173.5" y1="194.5344" y2="194.5344"/><text fill="#000000" font-family="sans-serif" font-size="11" lengthAdjust="spacing" textLength="26" x="173.5" y="199.1719">class</text><line style="stroke:#A80036;stroke-width:1.0;stroke-dasharray:1.0,2.0;" x1="199.5" x2="365" y1="194.5344" y2="194.5344"/><line style="stroke:#A80036;stroke-width:1.0;stroke-dasharray:1.0,2.0;" x1="8" x2="167.5" y1="217.1978" y2="217.1978"/><text fill="#000000" font-family="sans-serif" font-size="11" lengthAdjust="spacing" textLength="38" x="167.5" y="221.8352">member</text><line style="stroke:#A80036;stroke-width:1.0;stroke-dasharray:1.0,2.0;" x1="205.5" x2="365" y1="217.1978" y2="217.1978"/><line style="stroke:#A80036;stroke-width:1.0;stroke-dasharray:1.0,2.0;" x1="8" x2="169" y1="239.8611" y2="239.8611"/><text fill="#000000" font-family="sans-serif" font-size="11" lengthAdjust="spacing" textLength="35" x="169" y="244.4985">method</text><line style="stroke:#A80036;stroke-width:1.0;stroke-dasharray:1.0,2.0;" x1="204" x2="365" y1="239.8611" y2="239.8611"/><line style="stroke:#A80036;stroke-width:1.5;" x1="8" x2="152.5" y1="262.5244" y2="262.5244"/><text fill="#FFA500" font-family="sans-serif" font-size="11" font-weight="bold" lengthAdjust="spacing" textLength="68" x="152.5" y="267.1619">called by list</text><line style="stroke:#A80036;stroke-width:1.5;" x1="220.5" x2="365" y1="262.5244" y2="262.5244"/><text fill="#000000" font-family="sans-serif" font-size="11" lengthAdjust="spacing" textLength="129" x="13" y="305.4341">JavaParser (1920134737);</text><line style="stroke:#A80036;stroke-width:1.0;stroke-dasharray:1.0,2.0;" x1="8" x2="173.5" y1="285.1877" y2="285.1877"/><text fill="#000000" font-family="sans-serif" font-size="11" lengthAdjust="spacing" textLength="26" x="173.5" y="289.8252">class</text><line style="stroke:#A80036;stroke-width:1.0;stroke-dasharray:1.0,2.0;" x1="199.5" x2="365" y1="285.1877" y2="285.1877"/><line style="stroke:#A80036;stroke-width:1.0;stroke-dasharray:1.0,2.0;" x1="8" x2="167.5" y1="319.4055" y2="319.4055"/><text fill="#000000" font-family="sans-serif" font-size="11" lengthAdjust="spacing" textLength="38" x="167.5" y="324.043">member</text><line style="stroke:#A80036;stroke-width:1.0;stroke-dasharray:1.0,2.0;" x1="205.5" x2="365" y1="319.4055" y2="319.4055"/><text fill="#000000" font-family="sans-serif" font-size="11" lengthAdjust="spacing" textLength="168" x="13" y="362.3152">void init(java.io.File) (1636899143);</text><line style="stroke:#A80036;stroke-width:1.0;stroke-dasharray:1.0,2.0;" x1="8" x2="169" y1="342.0688" y2="342.0688"/><text fill="#000000" font-family="sans-serif" font-size="11" lengthAdjust="spacing" textLength="35" x="169" y="346.7063">method</text><line style="stroke:#A80036;stroke-width:1.0;stroke-dasharray:1.0,2.0;" x1="204" x2="365" y1="342.0688" y2="342.0688"/><!--MD5=[fa64f2bbff8a88d81fad1e68e6655cec]
@startuml
class "org.eclipse.jdt.core.JavaCore" as cl1{
__**<color:green>has list</color>**__
..class..
..member..
..method..
	null getOptions() (1402148539);
	null setComplianceOptions(java.lang.String, java.util.Map) (1562019228);
__**<color:blue>calling list</color>**__
..class..
..member..
..method..
__**<color:orange>called by list</color>**__
..class..
	JavaParser (1920134737);
..member..
..method..
	void init(java.io.File) (1636899143);
}

@enduml

PlantUML version 1.2021.13(Mon Nov 01 20:38:45 KST 2021)
(GPL source distribution)
Java Runtime: Java(TM) SE Runtime Environment
JVM: Java HotSpot(TM) 64-Bit Server VM
Default Encoding: MS949
Language: ko
Country: KR
--></g></svg>