<?xml version="1.0" encoding="UTF-8" standalone="no"?><svg xmlns="http://www.w3.org/2000/svg" xmlns:xlink="http://www.w3.org/1999/xlink" contentScriptType="application/ecmascript" contentStyleType="text/css" height="555px" preserveAspectRatio="none" style="width:351px;height:555px;" version="1.1" viewBox="0 0 351 555" width="351px" zoomAndPan="magnify"><defs><filter height="300%" id="f1onmkklcd6v0l" width="300%" x="-1" y="-1"><feGaussianBlur result="blurOut" stdDeviation="2.0"/><feColorMatrix in="blurOut" result="blurOut2" type="matrix" values="0 0 0 0 0 0 0 0 0 0 0 0 0 0 0 0 0 0 .4 0"/><feOffset dx="4.0" dy="4.0" in="blurOut2" result="blurOut3"/><feBlend in="SourceGraphic" in2="blurOut3" mode="normal"/></filter></defs><g><!--MD5=[d2cd6fee76e454991c3d563487ecf6f3]
cluster Login--><rect fill="#FFFFFF" filter="url(#f1onmkklcd6v0l)" height="88" style="stroke: #000000; stroke-width: 1.5;" width="80" x="159.5" y="7"/><text fill="#000000" font-family="sans-serif" font-size="14" font-weight="bold" lengthAdjust="spacingAndGlyphs" textLength="39" x="180" y="25.1533">Login</text><!--MD5=[ec265cd1f244dcd81d4bc5fe7f56faea]
cluster Buy_Product--><rect fill="#FFFFFF" filter="url(#f1onmkklcd6v0l)" height="88" style="stroke: #000000; stroke-width: 1.5;" width="105" x="147" y="119"/><text fill="#000000" font-family="sans-serif" font-size="14" font-weight="bold" lengthAdjust="spacingAndGlyphs" textLength="89" x="155" y="137.1533">Buy_Product</text><!--MD5=[ec6dd2969a00f0eb3d2c0f5d37b1942f]
cluster Charge_Money--><rect fill="#FFFFFF" filter="url(#f1onmkklcd6v0l)" height="88" style="stroke: #000000; stroke-width: 1.5;" width="122" x="138.5" y="231"/><text fill="#000000" font-family="sans-serif" font-size="14" font-weight="bold" lengthAdjust="spacingAndGlyphs" textLength="106" x="146.5" y="249.1533">Charge_Money</text><!--MD5=[c6e569c8623c3f884bb129b86da154ed]
cluster Add_Product--><rect fill="#FFFFFF" filter="url(#f1onmkklcd6v0l)" height="88" style="stroke: #000000; stroke-width: 1.5;" width="131" x="134" y="343"/><text fill="#000000" font-family="sans-serif" font-size="14" font-weight="bold" lengthAdjust="spacingAndGlyphs" textLength="90" x="154.5" y="361.1533">Add_Product</text><!--MD5=[7f5e0441b00afcd8fa9ae108c086a015]
cluster Registration--><rect fill="#FFFFFF" filter="url(#f1onmkklcd6v0l)" height="88" style="stroke: #000000; stroke-width: 1.5;" width="102" x="149" y="455"/><text fill="#000000" font-family="sans-serif" font-size="14" font-weight="bold" lengthAdjust="spacingAndGlyphs" textLength="86" x="157" y="473.1533">Registration</text><ellipse cx="199.7132" cy="62.0973" fill="#FEFECE" filter="url(#f1onmkklcd6v0l)" rx="24.2132" ry="16.5973" style="stroke: #A80036; stroke-width: 1.5;"/><text fill="#000000" font-family="sans-serif" font-size="14" lengthAdjust="spacingAndGlyphs" textLength="30" x="184.7132" y="68.2121">login</text><ellipse cx="199.6341" cy="173.8073" fill="#FEFECE" filter="url(#f1onmkklcd6v0l)" rx="19.6341" ry="16.3073" style="stroke: #A80036; stroke-width: 1.5;"/><text fill="#000000" font-family="sans-serif" font-size="14" lengthAdjust="spacingAndGlyphs" textLength="23" x="188.1341" y="179.922">buy</text><ellipse cx="199.6127" cy="286.0973" fill="#FEFECE" filter="url(#f1onmkklcd6v0l)" rx="34.1127" ry="16.5973" style="stroke: #A80036; stroke-width: 1.5;"/><text fill="#000000" font-family="sans-serif" font-size="14" lengthAdjust="spacingAndGlyphs" textLength="44" x="177.6127" y="292.2121">charge</text><ellipse cx="199.669" cy="398.0973" fill="#FEFECE" filter="url(#f1onmkklcd6v0l)" rx="49.669" ry="16.5973" style="stroke: #A80036; stroke-width: 1.5;"/><text fill="#000000" font-family="sans-serif" font-size="14" lengthAdjust="spacingAndGlyphs" textLength="66" x="166.669" y="404.2121">addGoods</text><ellipse cx="199.7487" cy="510.0973" fill="#FEFECE" filter="url(#f1onmkklcd6v0l)" rx="27.7487" ry="16.5973" style="stroke: #A80036; stroke-width: 1.5;"/><text fill="#000000" font-family="sans-serif" font-size="14" lengthAdjust="spacingAndGlyphs" textLength="35" x="182.2487" y="516.2121">regist</text><!--MD5=[6f0824a7a10e90f9828df6e0b53afd0b]
entity actor1309176095--><ellipse cx="48" cy="253.5" fill="#FEFECE" filter="url(#f1onmkklcd6v0l)" rx="8" ry="8" style="stroke: #A80036; stroke-width: 1.5;"/><path d="M48,261.5 L48,288.5 M35,269.5 L61,269.5 M48,288.5 L35,303.5 M48,288.5 L61,303.5 " fill="none" filter="url(#f1onmkklcd6v0l)" style="stroke: #A80036; stroke-width: 1.5;"/><text fill="#000000" font-family="sans-serif" font-size="14" lengthAdjust="spacingAndGlyphs" textLength="84" x="6" y="325.1533">TestScenario</text><!--MD5=[7f0d6b0239150a02ff608ae8a19a649b]
entity actor1293680848--><ellipse cx="326.5" cy="253.5" fill="#FEFECE" filter="url(#f1onmkklcd6v0l)" rx="8" ry="8" style="stroke: #A80036; stroke-width: 1.5;"/><path d="M326.5,261.5 L326.5,288.5 M313.5,269.5 L339.5,269.5 M326.5,288.5 L313.5,303.5 M326.5,288.5 L339.5,303.5 " fill="none" filter="url(#f1onmkklcd6v0l)" style="stroke: #A80036; stroke-width: 1.5;"/><text fill="#000000" font-family="sans-serif" font-size="14" lengthAdjust="spacingAndGlyphs" textLength="35" x="309" y="325.1533">regist</text><!--MD5=[f26e3a88abc2f47c85ba2cfc3a4cb074]
link actor1309176095 to UC2--><path d="M67.91,243.74 C82.1,213.9 102.97,173.58 126,141 C143.84,115.77 169.03,90.04 184.53,75.07 " fill="none" id="actor1309176095-UC2" style="stroke: #A80036; stroke-width: 1.0;"/><!--MD5=[6b47a3f25b8b1b42ab0a3702ffadd144]
link UC2 to actor1293680848--><path d="M215.14,74.63 C231.25,89.2 256.98,114.57 273,141 C292.5,173.17 306.41,213.7 314.99,243.73 " fill="none" id="UC2-actor1293680848" style="stroke: #A80036; stroke-width: 1.0;"/><!--MD5=[9c8042626a26ac00f911d3db155cd05f]
link actor1309176095 to UC3--><path d="M90.25,255.1 C121.53,231.66 162.69,200.82 184.13,184.77 " fill="none" id="actor1309176095-UC3" style="stroke: #A80036; stroke-width: 1.0;"/><!--MD5=[d1e97d2d70a47c0575535fa08f480f83]
link UC3 to actor1293680848--><path d="M213.88,185.99 C236.8,206.53 283.55,248.41 308.66,270.91 " fill="none" id="UC3-actor1293680848" style="stroke: #A80036; stroke-width: 1.0;"/><!--MD5=[de76c0ed7c81dda993e55506730316d1]
link actor1309176095 to UC4--><path d="M90.25,286 C113.93,286 143.27,286 165.42,286 " fill="none" id="actor1309176095-UC4" style="stroke: #A80036; stroke-width: 1.0;"/><!--MD5=[38bce56e15fb752a448a23dc0d59f9ed]
link UC4 to actor1293680848--><path d="M233.67,286 C257.83,286 289.55,286 308.68,286 " fill="none" id="UC4-actor1293680848" style="stroke: #A80036; stroke-width: 1.0;"/><!--MD5=[bbb5bc9f99d54567c63623623d250ae4]
link actor1309176095 to UC5--><path d="M90.25,316.9 C118.94,338.4 155.94,366.12 178.41,382.95 " fill="none" id="actor1309176095-UC5" style="stroke: #A80036; stroke-width: 1.0;"/><!--MD5=[aecc39ff23ab11abec250eb2b7b2d701]
link UC5 to actor1293680848--><path d="M217.88,382.43 C241.9,360.91 284.94,322.34 308.67,301.08 " fill="none" id="UC5-actor1293680848" style="stroke: #A80036; stroke-width: 1.0;"/><!--MD5=[3aac9a53e2838359d6be6be096de96af]
link actor1309176095 to UC6--><path d="M67.91,328.26 C82.1,358.1 102.97,398.42 126,431 C143.62,455.93 168.42,481.34 183.97,496.38 " fill="none" id="actor1309176095-UC6" style="stroke: #A80036; stroke-width: 1.0;"/><!--MD5=[fef375cee31ee327d3861ce73f4b5931]
link UC6 to actor1293680848--><path d="M216.02,496.57 C232.18,481.88 257.27,456.95 273,431 C292.5,398.83 306.41,358.3 314.99,328.27 " fill="none" id="UC6-actor1293680848" style="stroke: #A80036; stroke-width: 1.0;"/><!--MD5=[ce5fd32cda2130acd07a6e2ff4caef1e]
@startuml
 left to right direction

actor TestScenario as actor1309176095

	rectangle Login{
	 usecase login as UC2
	actor1309176095- -UC2
	}
actor login as actor1293680848
UC2- -actor1293680848

	rectangle Buy_Product{
	 usecase buy as UC3
	actor1309176095- -UC3
	}
actor buy as actor1293680848
UC3- -actor1293680848

	rectangle Charge_Money{
	 usecase charge as UC4
	actor1309176095- -UC4
	}
actor charge as actor1293680848
UC4- -actor1293680848

	rectangle Add_Product{
	 usecase addGoods as UC5
	actor1309176095- -UC5
	}
actor addGoods as actor1293680848
UC5- -actor1293680848

	rectangle Registration{
	 usecase regist as UC6
	actor1309176095- -UC6
	}
actor regist as actor1293680848
UC6- -actor1293680848


@enduml

PlantUML version 1.2020.19(Tue Oct 13 00:10:01 KST 2020)
(APACHE source distribution)
Java Runtime: Java(TM) SE Runtime Environment
JVM: Java HotSpot(TM) 64-Bit Server VM
Default Encoding: MS949
Language: ko
Country: KR
--></g></svg>