<?xml version="1.0" encoding="UTF-8" standalone="no"?><svg xmlns="http://www.w3.org/2000/svg" xmlns:xlink="http://www.w3.org/1999/xlink" contentScriptType="application/ecmascript" contentStyleType="text/css" height="235px" preserveAspectRatio="none" style="width:248px;height:235px;" version="1.1" viewBox="0 0 248 235" width="248px" zoomAndPan="magnify"><defs><filter height="300%" id="fmwb0bp11uhz4" width="300%" x="-1" y="-1"><feGaussianBlur result="blurOut" stdDeviation="2.0"/><feColorMatrix in="blurOut" result="blurOut2" type="matrix" values="0 0 0 0 0 0 0 0 0 0 0 0 0 0 0 0 0 0 .4 0"/><feOffset dx="4.0" dy="4.0" in="blurOut2" result="blurOut3"/><feBlend in="SourceGraphic" in2="blurOut3" mode="normal"/></filter></defs><g><rect fill="#FFFFFF" filter="url(#fmwb0bp11uhz4)" height="111.5679" style="stroke: #000000; stroke-width: 2.0;" width="224.5" x="10" y="60.2295"/><line style="stroke: #A80036; stroke-width: 1.0; stroke-dasharray: 5.0,5.0;" x1="33" x2="33" y1="43.2295" y2="188.7974"/><line style="stroke: #A80036; stroke-width: 1.0; stroke-dasharray: 5.0,5.0;" x1="178.5" x2="178.5" y1="43.2295" y2="188.7974"/><rect fill="#FEFECE" filter="url(#fmwb0bp11uhz4)" height="33.2295" style="stroke: #A80036; stroke-width: 1.5;" width="23" x="20" y="5"/><text fill="#000000" font-family="sans-serif" font-size="14" lengthAdjust="spacingAndGlyphs" textLength="9" x="27" y="28.1533">A</text><rect fill="#FEFECE" filter="url(#fmwb0bp11uhz4)" height="33.2295" style="stroke: #A80036; stroke-width: 1.5;" width="23" x="20" y="187.7974"/><text fill="#000000" font-family="sans-serif" font-size="14" lengthAdjust="spacingAndGlyphs" textLength="9" x="27" y="210.9507">A</text><rect fill="#FEFECE" filter="url(#fmwb0bp11uhz4)" height="33.2295" style="stroke: #A80036; stroke-width: 1.5;" width="88" x="132.5" y="5"/><text fill="#000000" font-family="sans-serif" font-size="14" lengthAdjust="spacingAndGlyphs" textLength="74" x="139.5" y="28.1533">PrintStream</text><rect fill="#FEFECE" filter="url(#fmwb0bp11uhz4)" height="33.2295" style="stroke: #A80036; stroke-width: 1.5;" width="88" x="132.5" y="187.7974"/><text fill="#000000" font-family="sans-serif" font-size="14" lengthAdjust="spacingAndGlyphs" textLength="74" x="139.5" y="210.9507">PrintStream</text><path d="M10,60.2295 L115,60.2295 L115,69.2295 L105,79.2295 L10,79.2295 L10,60.2295 " fill="#EEEEEE" style="stroke: #000000; stroke-width: 1.0;"/><rect fill="none" height="111.5679" style="stroke: #000000; stroke-width: 2.0;" width="224.5" x="10" y="60.2295"/><text fill="#000000" font-family="sans-serif" font-size="13" font-weight="bold" lengthAdjust="spacingAndGlyphs" textLength="60" x="25" y="76.229">int main()</text><polygon fill="#A80036" points="166.5,99.9414,176.5,103.9414,166.5,107.9414,170.5,103.9414" style="stroke: #A80036; stroke-width: 1.0;"/><line style="stroke: #A80036; stroke-width: 1.0;" x1="33.5" x2="172.5" y1="103.9414" y2="103.9414"/><text fill="#000000" font-family="sans-serif" font-size="13" lengthAdjust="spacingAndGlyphs" textLength="121" x="40.5" y="99.085">print(java.lang.String)</text><polygon fill="#A80036" points="44.5,113.9414,34.5,117.9414,44.5,121.9414,40.5,117.9414" style="stroke: #A80036; stroke-width: 1.0;"/><line style="stroke: #A80036; stroke-width: 1.0; stroke-dasharray: 2.0,2.0;" x1="38.5" x2="177.5" y1="117.9414" y2="117.9414"/><polygon fill="#A80036" points="166.5,145.7974,176.5,149.7974,166.5,153.7974,170.5,149.7974" style="stroke: #A80036; stroke-width: 1.0;"/><line style="stroke: #A80036; stroke-width: 1.0;" x1="33.5" x2="172.5" y1="149.7974" y2="149.7974"/><text fill="#000000" font-family="sans-serif" font-size="13" lengthAdjust="spacingAndGlyphs" textLength="57" x="40.5" y="144.9409">println(int)</text><polygon fill="#A80036" points="44.5,159.7974,34.5,163.7974,44.5,167.7974,40.5,163.7974" style="stroke: #A80036; stroke-width: 1.0;"/><line style="stroke: #A80036; stroke-width: 1.0; stroke-dasharray: 2.0,2.0;" x1="38.5" x2="177.5" y1="163.7974" y2="163.7974"/><!--MD5=[1b3ab8ad8c3711f20aab5189cdd294da]
@startuml
group int main()
	A->PrintStream : print(java.lang.String)
		PrintStream- ->A
	A->PrintStream : println(int)
		PrintStream- ->A
end

@enduml

PlantUML version 1.2020.19(Tue Oct 13 00:10:01 KST 2020)
(APACHE source distribution)
Java Runtime: Java(TM) SE Runtime Environment
JVM: Java HotSpot(TM) 64-Bit Server VM
Default Encoding: MS949
Language: ko
Country: KR
--></g></svg>