<?xml version="1.0" encoding="UTF-8" standalone="no"?><svg xmlns="http://www.w3.org/2000/svg" xmlns:xlink="http://www.w3.org/1999/xlink" contentScriptType="application/ecmascript" contentStyleType="text/css" height="418px" preserveAspectRatio="none" style="width:277px;height:418px;" version="1.1" viewBox="0 0 277 418" width="277px" zoomAndPan="magnify"><defs><filter height="300%" id="f13q1vrog6rsvn" width="300%" x="-1" y="-1"><feGaussianBlur result="blurOut" stdDeviation="2.0"/><feColorMatrix in="blurOut" result="blurOut2" type="matrix" values="0 0 0 0 0 0 0 0 0 0 0 0 0 0 0 0 0 0 .4 0"/><feOffset dx="4.0" dy="4.0" in="blurOut2" result="blurOut3"/><feBlend in="SourceGraphic" in2="blurOut3" mode="normal"/></filter></defs><g><!--MD5=[26c5909e3beb0655f44a32ec04b7bf98]
cluster target--><polygon fill="#FFFFFF" filter="url(#f13q1vrog6rsvn)" points="16,6,64,6,71,31.2295,260,31.2295,260,411,16,411,16,6" style="stroke: #000000; stroke-width: 1.5;"/><line style="stroke: #000000; stroke-width: 1.5;" x1="16" x2="71" y1="31.2295" y2="31.2295"/><text fill="#000000" font-family="sans-serif" font-size="14" font-weight="bold" lengthAdjust="spacingAndGlyphs" textLength="42" x="20" y="24.1533">target</text><!--MD5=[b1763ce95d976a390a6b2595961c411f]
class target.Exp--><rect codeLine="1" fill="#FEFECE" filter="url(#f13q1vrog6rsvn)" height="350.1777" id="target.Exp" style="stroke: #A80036; stroke-width: 1.5;" width="213" x="32" y="45"/><ellipse cx="124.25" cy="61" fill="#ADD1B2" rx="11" ry="11" style="stroke: #A80036; stroke-width: 1.0;"/><path d="M123.8125,54.5156 Q121.0781,54.5156 120,56.1406 Q118.8594,57.8594 118.8594,60.7813 Q118.8594,64.0781 120.0156,65.7813 Q121,67.2813 123.6094,67.2813 Q125.1875,67.2813 126.0625,66.4531 Q127.0469,65.5 127.1875,63.375 Q127.1875,63.0781 127.0156,62.9063 Q126.8906,62.75 126.6719,62.7344 Q125.4531,62.7344 125.2969,62.8594 Q125.125,63.0156 125.125,63.2813 Q125.0938,64.7656 124.4375,65.5781 Q123.8281,66.375 123.75,66.375 Q122.4219,66.375 121.6406,64.7813 Q120.8906,63.2344 120.8906,60.75 Q120.8906,58.125 121.8281,56.6719 Q122.6563,55.4219 123.9375,55.4219 Q123.9375,55.4219 124.2813,56.0469 Q124.9063,56.7188 125.0469,57.875 Q125.1563,58.4531 126.625,58.2344 Q127.1563,58.1563 127.125,57.7344 Q126.9531,56.2969 126.2344,55.4844 Q125.375,54.5156 123.8125,54.5156 Z "/><text fill="#000000" font-family="sans-serif" font-size="12" lengthAdjust="spacingAndGlyphs" textLength="20" x="144.75" y="66.6045">Exp</text><line style="stroke: #A80036; stroke-width: 1.5;" x1="33" x2="244" y1="77" y2="77"/><line style="stroke: #A80036; stroke-width: 1.5;" x1="33" x2="118.5" y1="92.5544" y2="92.5544"/><text fill="#008000" font-family="sans-serif" font-size="11" font-weight="bold" lengthAdjust="spacingAndGlyphs" textLength="40" x="118.5" y="97.1919">has list</text><line style="stroke: #A80036; stroke-width: 1.5;" x1="158.5" x2="244" y1="92.5544" y2="92.5544"/><line style="stroke: #A80036; stroke-width: 1.0; stroke-dasharray: 1.0,2.0;" x1="33" x2="125.5" y1="115.2178" y2="115.2178"/><text fill="#000000" font-family="sans-serif" font-size="11" lengthAdjust="spacingAndGlyphs" textLength="26" x="125.5" y="119.8552">class</text><line style="stroke: #A80036; stroke-width: 1.0; stroke-dasharray: 1.0,2.0;" x1="151.5" x2="244" y1="115.2178" y2="115.2178"/><text fill="#000000" font-family="sans-serif" font-size="11" lengthAdjust="spacingAndGlyphs" textLength="102" x="38" y="158.1274">int field (624271064);</text><line style="stroke: #A80036; stroke-width: 1.0; stroke-dasharray: 1.0,2.0;" x1="33" x2="119.5" y1="137.8811" y2="137.8811"/><text fill="#000000" font-family="sans-serif" font-size="11" lengthAdjust="spacingAndGlyphs" textLength="38" x="119.5" y="142.5186">member</text><line style="stroke: #A80036; stroke-width: 1.0; stroke-dasharray: 1.0,2.0;" x1="157.5" x2="244" y1="137.8811" y2="137.8811"/><text fill="#000000" font-family="sans-serif" font-size="11" lengthAdjust="spacingAndGlyphs" textLength="201" x="38" y="192.3452">void main(java.lang.String[]) (564742142);</text><text fill="#000000" font-family="sans-serif" font-size="11" lengthAdjust="spacingAndGlyphs" textLength="136" x="38" y="207.4541">int methodCall() (90205195);</text><line style="stroke: #A80036; stroke-width: 1.0; stroke-dasharray: 1.0,2.0;" x1="33" x2="121" y1="172.0989" y2="172.0989"/><text fill="#000000" font-family="sans-serif" font-size="11" lengthAdjust="spacingAndGlyphs" textLength="35" x="121" y="176.7363">method</text><line style="stroke: #A80036; stroke-width: 1.0; stroke-dasharray: 1.0,2.0;" x1="156" x2="244" y1="172.0989" y2="172.0989"/><line style="stroke: #A80036; stroke-width: 1.5;" x1="33" x2="111" y1="221.4255" y2="221.4255"/><text fill="#0000FF" font-family="sans-serif" font-size="11" font-weight="bold" lengthAdjust="spacingAndGlyphs" textLength="55" x="111" y="226.063">calling list</text><line style="stroke: #A80036; stroke-width: 1.5;" x1="166" x2="244" y1="221.4255" y2="221.4255"/><line style="stroke: #A80036; stroke-width: 1.0; stroke-dasharray: 1.0,2.0;" x1="33" x2="125.5" y1="244.0889" y2="244.0889"/><text fill="#000000" font-family="sans-serif" font-size="11" lengthAdjust="spacingAndGlyphs" textLength="26" x="125.5" y="248.7263">class</text><line style="stroke: #A80036; stroke-width: 1.0; stroke-dasharray: 1.0,2.0;" x1="151.5" x2="244" y1="244.0889" y2="244.0889"/><line style="stroke: #A80036; stroke-width: 1.0; stroke-dasharray: 1.0,2.0;" x1="33" x2="119.5" y1="266.7522" y2="266.7522"/><text fill="#000000" font-family="sans-serif" font-size="11" lengthAdjust="spacingAndGlyphs" textLength="38" x="119.5" y="271.3896">member</text><line style="stroke: #A80036; stroke-width: 1.0; stroke-dasharray: 1.0,2.0;" x1="157.5" x2="244" y1="266.7522" y2="266.7522"/><line style="stroke: #A80036; stroke-width: 1.0; stroke-dasharray: 1.0,2.0;" x1="33" x2="121" y1="289.4155" y2="289.4155"/><text fill="#000000" font-family="sans-serif" font-size="11" lengthAdjust="spacingAndGlyphs" textLength="35" x="121" y="294.053">method</text><line style="stroke: #A80036; stroke-width: 1.0; stroke-dasharray: 1.0,2.0;" x1="156" x2="244" y1="289.4155" y2="289.4155"/><line style="stroke: #A80036; stroke-width: 1.5;" x1="33" x2="104.5" y1="312.0789" y2="312.0789"/><text fill="#FFA500" font-family="sans-serif" font-size="11" font-weight="bold" lengthAdjust="spacingAndGlyphs" textLength="68" x="104.5" y="316.7163">called by list</text><line style="stroke: #A80036; stroke-width: 1.5;" x1="172.5" x2="244" y1="312.0789" y2="312.0789"/><line style="stroke: #A80036; stroke-width: 1.0; stroke-dasharray: 1.0,2.0;" x1="33" x2="125.5" y1="334.7422" y2="334.7422"/><text fill="#000000" font-family="sans-serif" font-size="11" lengthAdjust="spacingAndGlyphs" textLength="26" x="125.5" y="339.3796">class</text><line style="stroke: #A80036; stroke-width: 1.0; stroke-dasharray: 1.0,2.0;" x1="151.5" x2="244" y1="334.7422" y2="334.7422"/><line style="stroke: #A80036; stroke-width: 1.0; stroke-dasharray: 1.0,2.0;" x1="33" x2="119.5" y1="357.4055" y2="357.4055"/><text fill="#000000" font-family="sans-serif" font-size="11" lengthAdjust="spacingAndGlyphs" textLength="38" x="119.5" y="362.043">member</text><line style="stroke: #A80036; stroke-width: 1.0; stroke-dasharray: 1.0,2.0;" x1="157.5" x2="244" y1="357.4055" y2="357.4055"/><line style="stroke: #A80036; stroke-width: 1.0; stroke-dasharray: 1.0,2.0;" x1="33" x2="121" y1="380.0688" y2="380.0688"/><text fill="#000000" font-family="sans-serif" font-size="11" lengthAdjust="spacingAndGlyphs" textLength="35" x="121" y="384.7063">method</text><line style="stroke: #A80036; stroke-width: 1.0; stroke-dasharray: 1.0,2.0;" x1="156" x2="244" y1="380.0688" y2="380.0688"/><!--MD5=[5caa3448be0c6068227000c21aeb27d0]
@startuml
class target.Exp{
__**<color:green>has list</color>**__
..class..
..member..
	int field (624271064);
..method..
	void main(java.lang.String[]) (564742142);
	int methodCall() (90205195);
__**<color:blue>calling list</color>**__
..class..
..member..
..method..
__**<color:orange>called by list</color>**__
..class..
..member..
..method..
}

@enduml

PlantUML version 1.2020.19(Tue Oct 13 00:10:01 KST 2020)
(APACHE source distribution)
Java Runtime: Java(TM) SE Runtime Environment
JVM: Java HotSpot(TM) 64-Bit Server VM
Default Encoding: MS949
Language: ko
Country: KR
--></g></svg>