<?xml version="1.0" encoding="UTF-8" standalone="no"?><svg xmlns="http://www.w3.org/2000/svg" xmlns:xlink="http://www.w3.org/1999/xlink" contentScriptType="application/ecmascript" contentStyleType="text/css" height="1458px" preserveAspectRatio="none" style="width:291px;height:1458px;" version="1.1" viewBox="0 0 291 1458" width="291px" zoomAndPan="magnify"><defs><filter height="300%" id="f1th7ercsspapo" width="300%" x="-1" y="-1"><feGaussianBlur result="blurOut" stdDeviation="2.0"/><feColorMatrix in="blurOut" result="blurOut2" type="matrix" values="0 0 0 0 0 0 0 0 0 0 0 0 0 0 0 0 0 0 .4 0"/><feOffset dx="4.0" dy="4.0" in="blurOut2" result="blurOut3"/><feBlend in="SourceGraphic" in2="blurOut3" mode="normal"/></filter></defs><g><!--MD5=[537950558e43b2560df457283b5a85a7]
cluster getUndefSize--><rect fill="#FFFFFF" filter="url(#f1th7ercsspapo)" height="88" style="stroke: #000000; stroke-width: 1.5;" width="110" x="137" y="818.5"/><text fill="#000000" font-family="sans-serif" font-size="14" font-weight="bold" lengthAdjust="spacingAndGlyphs" textLength="94" x="145" y="836.6533">getUndefSize</text><!--MD5=[3a76cada14e7aa6ecc7524fc7634f68c]
cluster addFunctionScore--><rect fill="#FFFFFF" filter="url(#f1th7ercsspapo)" height="292" style="stroke: #000000; stroke-width: 1.5;" width="175" x="104" y="930.5"/><text fill="#000000" font-family="sans-serif" font-size="14" font-weight="bold" lengthAdjust="spacingAndGlyphs" textLength="129" x="127" y="948.6533">addFunctionScore</text><!--MD5=[3280d439c7efeca69ab8d3c7e9fc743d]
cluster getMemberScore--><rect fill="#FFFFFF" filter="url(#f1th7ercsspapo)" height="88" style="stroke: #000000; stroke-width: 1.5;" width="162" x="110.5" y="1246.5"/><text fill="#000000" font-family="sans-serif" font-size="14" font-weight="bold" lengthAdjust="spacingAndGlyphs" textLength="122" x="130.5" y="1264.6533">getMemberScore</text><!--MD5=[810ee23bb0ab43f2a38b555eb772dae5]
cluster getLineNum--><rect fill="#FFFFFF" filter="url(#f1th7ercsspapo)" height="88" style="stroke: #000000; stroke-width: 1.5;" width="109" x="137" y="1358.5"/><text fill="#000000" font-family="sans-serif" font-size="14" font-weight="bold" lengthAdjust="spacingAndGlyphs" textLength="84" x="149.5" y="1376.6533">getLineNum</text><ellipse cx="191.6482" cy="873.5973" fill="#FEFECE" filter="url(#f1th7ercsspapo)" rx="37.6482" ry="16.5973" style="stroke: #A80036; stroke-width: 1.5;"/><text fill="#000000" font-family="sans-serif" font-size="14" lengthAdjust="spacingAndGlyphs" textLength="49" x="167.1482" y="879.7121">toString</text><ellipse cx="191.4411" cy="985.5973" fill="#FEFECE" filter="url(#f1th7ercsspapo)" rx="36.9411" ry="16.5973" style="stroke: #A80036; stroke-width: 1.5;"/><text fill="#000000" font-family="sans-serif" font-size="14" lengthAdjust="spacingAndGlyphs" textLength="48" x="167.4411" y="991.7121">append</text><ellipse cx="191.2843" cy="1053.5973" fill="#FEFECE" filter="url(#f1th7ercsspapo)" rx="31.2843" ry="16.5973" style="stroke: #A80036; stroke-width: 1.5;"/><text fill="#000000" font-family="sans-serif" font-size="14" lengthAdjust="spacingAndGlyphs" textLength="40" x="171.2843" y="1059.7121">getSig</text><ellipse cx="191.2886" cy="1121.6577" fill="#FEFECE" filter="url(#f1th7ercsspapo)" rx="71.2886" ry="16.6577" style="stroke: #A80036; stroke-width: 1.5;"/><text fill="#000000" font-family="sans-serif" font-size="14" lengthAdjust="spacingAndGlyphs" textLength="97" x="142.7886" y="1127.7725">getFunctionList</text><ellipse cx="191.669" cy="1189.5973" fill="#FEFECE" filter="url(#f1th7ercsspapo)" rx="49.669" ry="16.5973" style="stroke: #A80036; stroke-width: 1.5;"/><text fill="#000000" font-family="sans-serif" font-size="14" lengthAdjust="spacingAndGlyphs" textLength="66" x="158.669" y="1195.7121">getHasList</text><ellipse cx="191.7254" cy="1301.5973" fill="#FEFECE" filter="url(#f1th7ercsspapo)" rx="65.2254" ry="16.5973" style="stroke: #A80036; stroke-width: 1.5;"/><text fill="#000000" font-family="sans-serif" font-size="14" lengthAdjust="spacingAndGlyphs" textLength="88" x="147.7254" y="1307.7121">getTypeName</text><ellipse cx="191.3553" cy="1413.5973" fill="#FEFECE" filter="url(#f1th7ercsspapo)" rx="38.3553" ry="16.5973" style="stroke: #A80036; stroke-width: 1.5;"/><text fill="#000000" font-family="sans-serif" font-size="14" lengthAdjust="spacingAndGlyphs" textLength="50" x="166.3553" y="1419.7121">hasNext</text><!--MD5=[6b788eeafbeb5841789c7437b3b344f7]
entity actor1014135205--><ellipse cx="33" cy="1055" fill="#FEFECE" filter="url(#f1th7ercsspapo)" rx="8" ry="8" style="stroke: #A80036; stroke-width: 1.5;"/><path d="M33,1063 L33,1090 M20,1071 L46,1071 M33,1090 L20,1105 M33,1090 L46,1105 " fill="none" filter="url(#f1th7ercsspapo)" style="stroke: #A80036; stroke-width: 1.5;"/><text fill="#000000" font-family="sans-serif" font-size="14" lengthAdjust="spacingAndGlyphs" textLength="54" x="6" y="1126.6533">Complex</text><!--MD5=[864f7e280385d8f93481e354d7c7de74]
entity actor230610941--><ellipse cx="191.5" cy="728" fill="#FEFECE" filter="url(#f1th7ercsspapo)" rx="8" ry="8" style="stroke: #A80036; stroke-width: 1.5;"/><path d="M191.5,736 L191.5,763 M178.5,744 L204.5,744 M191.5,763 L178.5,778 M191.5,763 L204.5,778 " fill="none" filter="url(#f1th7ercsspapo)" style="stroke: #A80036; stroke-width: 1.5;"/><text fill="#000000" font-family="sans-serif" font-size="14" lengthAdjust="spacingAndGlyphs" textLength="81" x="151" y="799.6533">StringBuilder</text><!--MD5=[fc8e88cccfe4032d4997183b1dc67fd3]
entity UC149--><ellipse cx="33" cy="609" fill="#FEFECE" filter="url(#f1th7ercsspapo)" rx="8" ry="8" style="stroke: #A80036; stroke-width: 1.5;"/><path d="M33,617 L33,644 M20,625 L46,625 M33,644 L20,659 M33,644 L46,659 " fill="none" filter="url(#f1th7ercsspapo)" style="stroke: #A80036; stroke-width: 1.5;"/><text fill="#000000" font-family="sans-serif" font-size="14" lengthAdjust="spacingAndGlyphs" textLength="43" x="11.5" y="680.6533">UC149</text><!--MD5=[d90094311435cfb86829af3e65eedad8]
entity actor517787604--><ellipse cx="191.5" cy="490" fill="#FEFECE" filter="url(#f1th7ercsspapo)" rx="8" ry="8" style="stroke: #A80036; stroke-width: 1.5;"/><path d="M191.5,498 L191.5,525 M178.5,506 L204.5,506 M191.5,525 L178.5,540 M191.5,525 L204.5,540 " fill="none" filter="url(#f1th7ercsspapo)" style="stroke: #A80036; stroke-width: 1.5;"/><text fill="#000000" font-family="sans-serif" font-size="14" lengthAdjust="spacingAndGlyphs" textLength="69" x="157" y="561.6533">Data_base</text><!--MD5=[68829e629833e33be24acba459e113c0]
entity UC150--><ellipse cx="33" cy="490" fill="#FEFECE" filter="url(#f1th7ercsspapo)" rx="8" ry="8" style="stroke: #A80036; stroke-width: 1.5;"/><path d="M33,498 L33,525 M20,506 L46,506 M33,525 L20,540 M33,525 L46,540 " fill="none" filter="url(#f1th7ercsspapo)" style="stroke: #A80036; stroke-width: 1.5;"/><text fill="#000000" font-family="sans-serif" font-size="14" lengthAdjust="spacingAndGlyphs" textLength="43" x="11.5" y="561.6533">UC150</text><!--MD5=[2402d7512d9aa01d473b8fba52e12d98]
entity actor188193734--><ellipse cx="191.5" cy="371" fill="#FEFECE" filter="url(#f1th7ercsspapo)" rx="8" ry="8" style="stroke: #A80036; stroke-width: 1.5;"/><path d="M191.5,379 L191.5,406 M178.5,387 L204.5,387 M191.5,406 L178.5,421 M191.5,406 L204.5,421 " fill="none" filter="url(#f1th7ercsspapo)" style="stroke: #A80036; stroke-width: 1.5;"/><text fill="#000000" font-family="sans-serif" font-size="14" lengthAdjust="spacingAndGlyphs" textLength="52" x="165.5" y="442.6533">DataList</text><!--MD5=[62a7c03f2287397754a9291bee2e5b38]
entity UC151--><ellipse cx="33" cy="371" fill="#FEFECE" filter="url(#f1th7ercsspapo)" rx="8" ry="8" style="stroke: #A80036; stroke-width: 1.5;"/><path d="M33,379 L33,406 M20,387 L46,387 M33,406 L20,421 M33,406 L46,421 " fill="none" filter="url(#f1th7ercsspapo)" style="stroke: #A80036; stroke-width: 1.5;"/><text fill="#000000" font-family="sans-serif" font-size="14" lengthAdjust="spacingAndGlyphs" textLength="43" x="11.5" y="442.6533">UC151</text><!--MD5=[c3a79de3dfdf70b4ead88bc26ff6f883]
entity actor927744186--><ellipse cx="191.5" cy="252" fill="#FEFECE" filter="url(#f1th7ercsspapo)" rx="8" ry="8" style="stroke: #A80036; stroke-width: 1.5;"/><path d="M191.5,260 L191.5,287 M178.5,268 L204.5,268 M191.5,287 L178.5,302 M191.5,287 L204.5,302 " fill="none" filter="url(#f1th7ercsspapo)" style="stroke: #A80036; stroke-width: 1.5;"/><text fill="#000000" font-family="sans-serif" font-size="14" lengthAdjust="spacingAndGlyphs" textLength="55" x="164" y="323.6533">Function</text><!--MD5=[52ec00a976545131bc8880a4a9d99bc4]
entity UC152--><ellipse cx="33" cy="252" fill="#FEFECE" filter="url(#f1th7ercsspapo)" rx="8" ry="8" style="stroke: #A80036; stroke-width: 1.5;"/><path d="M33,260 L33,287 M20,268 L46,268 M33,287 L20,302 M33,287 L46,302 " fill="none" filter="url(#f1th7ercsspapo)" style="stroke: #A80036; stroke-width: 1.5;"/><text fill="#000000" font-family="sans-serif" font-size="14" lengthAdjust="spacingAndGlyphs" textLength="43" x="11.5" y="323.6533">UC152</text><!--MD5=[12d0bcd683799aa4e9dfe4d426679dfe]
entity UC153--><ellipse cx="33" cy="728" fill="#FEFECE" filter="url(#f1th7ercsspapo)" rx="8" ry="8" style="stroke: #A80036; stroke-width: 1.5;"/><path d="M33,736 L33,763 M20,744 L46,744 M33,763 L20,778 M33,763 L46,778 " fill="none" filter="url(#f1th7ercsspapo)" style="stroke: #A80036; stroke-width: 1.5;"/><text fill="#000000" font-family="sans-serif" font-size="14" lengthAdjust="spacingAndGlyphs" textLength="43" x="11.5" y="799.6533">UC153</text><!--MD5=[3e8010054315e1000820594625284529]
entity UC154--><ellipse cx="33" cy="847" fill="#FEFECE" filter="url(#f1th7ercsspapo)" rx="8" ry="8" style="stroke: #A80036; stroke-width: 1.5;"/><path d="M33,855 L33,882 M20,863 L46,863 M33,882 L20,897 M33,882 L46,897 " fill="none" filter="url(#f1th7ercsspapo)" style="stroke: #A80036; stroke-width: 1.5;"/><text fill="#000000" font-family="sans-serif" font-size="14" lengthAdjust="spacingAndGlyphs" textLength="43" x="11.5" y="918.6533">UC154</text><!--MD5=[ff2cfac5f43e701ce7de056768dc8c39]
entity actor417118375--><ellipse cx="191.5" cy="133" fill="#FEFECE" filter="url(#f1th7ercsspapo)" rx="8" ry="8" style="stroke: #A80036; stroke-width: 1.5;"/><path d="M191.5,141 L191.5,168 M178.5,149 L204.5,149 M191.5,168 L178.5,183 M191.5,168 L204.5,183 " fill="none" filter="url(#f1th7ercsspapo)" style="stroke: #A80036; stroke-width: 1.5;"/><text fill="#000000" font-family="sans-serif" font-size="14" lengthAdjust="spacingAndGlyphs" textLength="51" x="166" y="204.6533">Member</text><!--MD5=[705b2e9354ce15ca5580cf4f92882018]
entity UC155--><ellipse cx="33" cy="133" fill="#FEFECE" filter="url(#f1th7ercsspapo)" rx="8" ry="8" style="stroke: #A80036; stroke-width: 1.5;"/><path d="M33,141 L33,168 M20,149 L46,149 M33,168 L20,183 M33,168 L46,183 " fill="none" filter="url(#f1th7ercsspapo)" style="stroke: #A80036; stroke-width: 1.5;"/><text fill="#000000" font-family="sans-serif" font-size="14" lengthAdjust="spacingAndGlyphs" textLength="43" x="11.5" y="204.6533">UC155</text><!--MD5=[c57b2856006f7831c689678788b65ea6]
entity actor1770453310--><ellipse cx="191.5" cy="14" fill="#FEFECE" filter="url(#f1th7ercsspapo)" rx="8" ry="8" style="stroke: #A80036; stroke-width: 1.5;"/><path d="M191.5,22 L191.5,49 M178.5,30 L204.5,30 M191.5,49 L178.5,64 M191.5,49 L204.5,64 " fill="none" filter="url(#f1th7ercsspapo)" style="stroke: #A80036; stroke-width: 1.5;"/><text fill="#000000" font-family="sans-serif" font-size="14" lengthAdjust="spacingAndGlyphs" textLength="53" x="165" y="85.6533">Scanner</text><!--MD5=[2f1fea1880d9813fa27a73e45fdb5dc0]
entity UC156--><ellipse cx="33" cy="14" fill="#FEFECE" filter="url(#f1th7ercsspapo)" rx="8" ry="8" style="stroke: #A80036; stroke-width: 1.5;"/><path d="M33,22 L33,49 M20,30 L46,30 M33,49 L20,64 M33,49 L46,64 " fill="none" filter="url(#f1th7ercsspapo)" style="stroke: #A80036; stroke-width: 1.5;"/><text fill="#000000" font-family="sans-serif" font-size="14" lengthAdjust="spacingAndGlyphs" textLength="43" x="11.5" y="85.6533">UC156</text><!--MD5=[4e76b31956732e5b2a2b5d10e0d2b1a1]
link actor1014135205 to UC458385820--><path d="M47.83,1045.31 C58.3,1017.26 74.55,980.57 96,952.5 C116.77,925.31 148.49,901.25 169.36,887.03 " fill="none" id="actor1014135205-UC458385820" style="stroke: #A80036; stroke-width: 1.0;"/><!--MD5=[42036e2304a83efcf41a7270e947104c]
link UC149 to actor230610941--><path d="M54.78,657.3 C79.23,675.89 120.35,707.16 150.93,730.41 " fill="none" id="UC149-actor230610941" style="stroke: #A80036; stroke-width: 1.0;"/><!--MD5=[2245ff09659f9a6da7ac43329ab4a1a3]
link actor1014135205 to UC1510333744--><path d="M60.21,1068.39 C70.34,1057.68 82.71,1045.37 96,1036.5 C121.09,1019.76 155.43,1010.12 175.05,1000.38 " fill="none" id="actor1014135205-UC1510333744" style="stroke: #A80036; stroke-width: 1.0;"/><!--MD5=[2245ff09659f9a6da7ac43329ab4a1a3]
link actor1014135205 to UC1510333744--><path d="M52.77,1045.49 C63.97,1029.32 79.26,1012.67 96,1001.5 C115.29,988.63 140.04,979.95 159.38,977.11 " fill="none" id="actor1014135205-UC1510333744-1" style="stroke: #A80036; stroke-width: 1.0;"/><!--MD5=[4473e32f68a3f3273c84868639ea52dc]
link actor1014135205 to UC1769565136--><path d="M60.19,1081.81 C88.39,1075.68 133.08,1065.97 162.1,1059.67 " fill="none" id="actor1014135205-UC1769565136" style="stroke: #A80036; stroke-width: 1.0;"/><!--MD5=[00cc46301df932cac8373388ffd609cb]
link actor1014135205 to UC1150063356--><path d="M60.19,1093.19 C81.6,1097.84 112.52,1104.56 138.86,1110.28 " fill="none" id="actor1014135205-UC1150063356" style="stroke: #A80036; stroke-width: 1.0;"/><!--MD5=[3c5fae4c282f6e7006fec4aa0ef690aa]
link actor1014135205 to UC30604162--><path d="M60.21,1122.6 C70.34,1134.32 82.71,1146.63 96,1155.5 C112.53,1166.53 133.08,1174.48 150.79,1179.91 " fill="none" id="actor1014135205-UC30604162" style="stroke: #A80036; stroke-width: 1.0;"/><!--MD5=[eedf1850f85f41666f4d10eaed64cf95]
link UC150 to actor517787604--><path d="M54.78,522.5 C80.81,522.5 125.73,522.5 156.72,522.5 " fill="none" id="UC150-actor517787604" style="stroke: #A80036; stroke-width: 1.0;"/><!--MD5=[a7347d82b4a748d037954b4060c1e812]
link UC151 to actor188193734--><path d="M54.78,403.5 C83.38,403.5 134.82,403.5 165.49,403.5 " fill="none" id="UC151-actor188193734" style="stroke: #A80036; stroke-width: 1.0;"/><!--MD5=[70987bfee99c64e3711774b689304d9e]
link UC152 to actor927744186--><path d="M54.78,284.5 C82.89,284.5 133.03,284.5 163.87,284.5 " fill="none" id="UC152-actor927744186" style="stroke: #A80036; stroke-width: 1.0;"/><!--MD5=[e6981b14a98586c3d8741bce1b74a96e]
link UC153 to actor230610941--><path d="M54.78,760.5 C79.23,760.5 120.35,760.5 150.93,760.5 " fill="none" id="UC153-actor230610941" style="stroke: #A80036; stroke-width: 1.0;"/><!--MD5=[194117c75b860885ea82b50fcb710705]
link actor1014135205 to UC519751097--><path d="M47.83,1129.69 C58.3,1157.74 74.55,1194.43 96,1222.5 C115.87,1248.5 145.74,1271.64 166.56,1286.05 " fill="none" id="actor1014135205-UC519751097" style="stroke: #A80036; stroke-width: 1.0;"/><!--MD5=[d4317518903b4f4632fa4018e2a6131e]
link UC154 to actor230610941--><path d="M54.78,863.7 C79.23,845.11 120.35,813.84 150.93,790.59 " fill="none" id="UC154-actor230610941" style="stroke: #A80036; stroke-width: 1.0;"/><!--MD5=[4c540acef544322770cf5d0c8755a6e4]
link UC155 to actor417118375--><path d="M54.78,165.5 C83.47,165.5 135.12,165.5 165.76,165.5 " fill="none" id="UC155-actor417118375" style="stroke: #A80036; stroke-width: 1.0;"/><!--MD5=[f086dd02de1dcd6bc0c7356fde668a43]
link actor1014135205 to UC109673034--><path d="M36.68,1129.93 C41.66,1181.76 55.83,1270.45 96,1334.5 C114.07,1363.3 146.15,1386.8 167.86,1400.47 " fill="none" id="actor1014135205-UC109673034" style="stroke: #A80036; stroke-width: 1.0;"/><!--MD5=[5440c33e907492f6158a31646e427c17]
link UC156 to actor1770453310--><path d="M54.78,46.5 C83.22,46.5 134.22,46.5 164.95,46.5 " fill="none" id="UC156-actor1770453310" style="stroke: #A80036; stroke-width: 1.0;"/><!--MD5=[b8be19858327ac77c4fe574dc9f72712]
@startuml
 left to right direction

actor Complex as actor1014135205

	rectangle getUndefSize{
	 usecase toString as UC458385820
	actor1014135205- -UC458385820
	}
	actor StringBuilder as actor230610941
	 UC149 - - actor230610941
	rectangle addFunctionScore{
	 usecase append as UC1510333744
	actor1014135205- -UC1510333744
	 usecase getSig as UC1769565136
	actor1014135205- -UC1769565136
	 usecase getFunctionList as UC1150063356
	actor1014135205- -UC1150063356
	 usecase getHasList as UC30604162
	actor1014135205- -UC30604162
	}
	actor Data_base as actor517787604
	 UC150 - - actor517787604
	actor DataList as actor188193734
	 UC151 - - actor188193734
	actor Function as actor927744186
	 UC152 - - actor927744186
	actor StringBuilder as actor230610941
	 UC153 - - actor230610941
	rectangle getMemberScore{
	 usecase getTypeName as UC519751097
	actor1014135205- -UC519751097
	 usecase append as UC1510333744
	actor1014135205- -UC1510333744
	}
	actor StringBuilder as actor230610941
	 UC154 - - actor230610941
	actor Member as actor417118375
	 UC155 - - actor417118375
	rectangle getLineNum{
	 usecase hasNext as UC109673034
	actor1014135205- -UC109673034
	}
	actor Scanner as actor1770453310
	 UC156 - - actor1770453310

@enduml

PlantUML version 1.2020.19(Tue Oct 13 00:10:01 KST 2020)
(APACHE source distribution)
Java Runtime: Java(TM) SE Runtime Environment
JVM: Java HotSpot(TM) 64-Bit Server VM
Default Encoding: MS949
Language: ko
Country: KR
--></g></svg>