<?xml version="1.0" encoding="UTF-8" standalone="no"?><svg xmlns="http://www.w3.org/2000/svg" xmlns:xlink="http://www.w3.org/1999/xlink" contentScriptType="application/ecmascript" contentStyleType="text/css" height="1612px" preserveAspectRatio="none" style="width:298px;height:1612px;" version="1.1" viewBox="0 0 298 1612" width="298px" zoomAndPan="magnify"><defs><filter height="300%" id="f1tfn3mj6fha0r" width="300%" x="-1" y="-1"><feGaussianBlur result="blurOut" stdDeviation="2.0"/><feColorMatrix in="blurOut" result="blurOut2" type="matrix" values="0 0 0 0 0 0 0 0 0 0 0 0 0 0 0 0 0 0 .4 0"/><feOffset dx="4.0" dy="4.0" in="blurOut2" result="blurOut3"/><feBlend in="SourceGraphic" in2="blurOut3" mode="normal"/></filter></defs><g><!--MD5=[3df72e327fda6a9c75e1d3c13478bbff]
cluster addHas--><rect fill="#FFFFFF" filter="url(#f1tfn3mj6fha0r)" height="88" style="stroke: #000000; stroke-width: 1.5;" width="114" x="136.5" y="950.5"/><text fill="#000000" font-family="sans-serif" font-size="14" font-weight="bold" lengthAdjust="spacingAndGlyphs" textLength="52" x="167.5" y="968.6533">addHas</text><!--MD5=[89e6df34a40fd0f881e4a85c208f9fb2]
cluster addCallBy--><rect fill="#FFFFFF" filter="url(#f1tfn3mj6fha0r)" height="88" style="stroke: #000000; stroke-width: 1.5;" width="129" x="129" y="1062.5"/><text fill="#000000" font-family="sans-serif" font-size="14" font-weight="bold" lengthAdjust="spacingAndGlyphs" textLength="69" x="159" y="1080.6533">addCallBy</text><!--MD5=[e72b28ea75be9a6e9901756f23061282]
cluster addCall--><rect fill="#FFFFFF" filter="url(#f1tfn3mj6fha0r)" height="88" style="stroke: #000000; stroke-width: 1.5;" width="106" x="140.5" y="1174.5"/><text fill="#000000" font-family="sans-serif" font-size="14" font-weight="bold" lengthAdjust="spacingAndGlyphs" textLength="52" x="167.5" y="1192.6533">addCall</text><!--MD5=[2ed68a8df47df60ed763f499b5bc43b2]
cluster addImage--><rect fill="#FFFFFF" filter="url(#f1tfn3mj6fha0r)" height="88" style="stroke: #000000; stroke-width: 1.5;" width="84" x="151.5" y="1286.5"/><text fill="#000000" font-family="sans-serif" font-size="14" font-weight="bold" lengthAdjust="spacingAndGlyphs" textLength="68" x="159.5" y="1304.6533">addImage</text><!--MD5=[a1eef7bbc55d6e115a3736b1cb383f24]
cluster getSrcName--><rect fill="#FFFFFF" filter="url(#f1tfn3mj6fha0r)" height="88" style="stroke: #000000; stroke-width: 1.5;" width="147" x="120" y="1398.5"/><text fill="#000000" font-family="sans-serif" font-size="14" font-weight="bold" lengthAdjust="spacingAndGlyphs" textLength="85" x="151" y="1416.6533">getSrcName</text><!--MD5=[c34a5b0034f574704b03ebcea5fc6794]
cluster getPackageName--><rect fill="#FFFFFF" filter="url(#f1tfn3mj6fha0r)" height="90" style="stroke: #000000; stroke-width: 1.5;" width="185" x="101" y="1510.5"/><text fill="#000000" font-family="sans-serif" font-size="14" font-weight="bold" lengthAdjust="spacingAndGlyphs" textLength="121" x="133" y="1528.6533">getPackageName</text><ellipse cx="193.6838" cy="1005.5973" fill="#FEFECE" filter="url(#f1tfn3mj6fha0r)" rx="41.1838" ry="16.5973" style="stroke: #A80036; stroke-width: 1.5;"/><text fill="#000000" font-family="sans-serif" font-size="14" lengthAdjust="spacingAndGlyphs" textLength="54" x="166.6838" y="1011.7121">addData</text><ellipse cx="193.2548" cy="1117.5973" fill="#FEFECE" filter="url(#f1tfn3mj6fha0r)" rx="48.2548" ry="16.5973" style="stroke: #A80036; stroke-width: 1.5;"/><text fill="#000000" font-family="sans-serif" font-size="14" lengthAdjust="spacingAndGlyphs" textLength="64" x="161.2548" y="1123.7121">addCallBy</text><ellipse cx="193.4411" cy="1229.5973" fill="#FEFECE" filter="url(#f1tfn3mj6fha0r)" rx="36.9411" ry="16.5973" style="stroke: #A80036; stroke-width: 1.5;"/><text fill="#000000" font-family="sans-serif" font-size="14" lengthAdjust="spacingAndGlyphs" textLength="48" x="169.4411" y="1235.7121">addCall</text><ellipse cx="193.4836" cy="1341.5869" fill="#FEFECE" filter="url(#f1tfn3mj6fha0r)" rx="19.9836" ry="16.5869" style="stroke: #A80036; stroke-width: 1.5;"/><text fill="#000000" font-family="sans-serif" font-size="14" lengthAdjust="spacingAndGlyphs" textLength="24" x="181.4836" y="1347.7016">add</text><ellipse cx="193.4472" cy="1453.5973" fill="#FEFECE" filter="url(#f1tfn3mj6fha0r)" rx="57.4472" ry="16.5973" style="stroke: #A80036; stroke-width: 1.5;"/><text fill="#000000" font-family="sans-serif" font-size="14" lengthAdjust="spacingAndGlyphs" textLength="77" x="154.9472" y="1459.7121">getSrcName</text><ellipse cx="193.4257" cy="1566.6851" fill="#FEFECE" filter="url(#f1tfn3mj6fha0r)" rx="76.4257" ry="17.6851" style="stroke: #A80036; stroke-width: 1.5;"/><text fill="#000000" font-family="sans-serif" font-size="14" lengthAdjust="spacingAndGlyphs" textLength="111" x="137.9257" y="1572.7999">getPackageName</text><!--MD5=[ff2cfac5f43e701ce7de056768dc8c39]
entity actor417118375--><ellipse cx="31.5" cy="1085" fill="#FEFECE" filter="url(#f1tfn3mj6fha0r)" rx="8" ry="8" style="stroke: #A80036; stroke-width: 1.5;"/><path d="M31.5,1093 L31.5,1120 M18.5,1101 L44.5,1101 M31.5,1120 L18.5,1135 M31.5,1120 L44.5,1135 " fill="none" filter="url(#f1tfn3mj6fha0r)" style="stroke: #A80036; stroke-width: 1.5;"/><text fill="#000000" font-family="sans-serif" font-size="14" lengthAdjust="spacingAndGlyphs" textLength="51" x="6" y="1156.6533">Member</text><!--MD5=[2402d7512d9aa01d473b8fba52e12d98]
entity actor188193734--><ellipse cx="193.5" cy="847" fill="#FEFECE" filter="url(#f1tfn3mj6fha0r)" rx="8" ry="8" style="stroke: #A80036; stroke-width: 1.5;"/><path d="M193.5,855 L193.5,882 M180.5,863 L206.5,863 M193.5,882 L180.5,897 M193.5,882 L206.5,897 " fill="none" filter="url(#f1tfn3mj6fha0r)" style="stroke: #A80036; stroke-width: 1.5;"/><text fill="#000000" font-family="sans-serif" font-size="14" lengthAdjust="spacingAndGlyphs" textLength="52" x="167.5" y="918.6533">DataList</text><!--MD5=[6b57130e0e82e3fdb3bfe10990b20369]
entity UC163--><ellipse cx="31.5" cy="728" fill="#FEFECE" filter="url(#f1tfn3mj6fha0r)" rx="8" ry="8" style="stroke: #A80036; stroke-width: 1.5;"/><path d="M31.5,736 L31.5,763 M18.5,744 L44.5,744 M31.5,763 L18.5,778 M31.5,763 L44.5,778 " fill="none" filter="url(#f1tfn3mj6fha0r)" style="stroke: #A80036; stroke-width: 1.5;"/><text fill="#000000" font-family="sans-serif" font-size="14" lengthAdjust="spacingAndGlyphs" textLength="43" x="10" y="799.6533">UC163</text><!--MD5=[d90094311435cfb86829af3e65eedad8]
entity actor517787604--><ellipse cx="193.5" cy="371" fill="#FEFECE" filter="url(#f1tfn3mj6fha0r)" rx="8" ry="8" style="stroke: #A80036; stroke-width: 1.5;"/><path d="M193.5,379 L193.5,406 M180.5,387 L206.5,387 M193.5,406 L180.5,421 M193.5,406 L206.5,421 " fill="none" filter="url(#f1tfn3mj6fha0r)" style="stroke: #A80036; stroke-width: 1.5;"/><text fill="#000000" font-family="sans-serif" font-size="14" lengthAdjust="spacingAndGlyphs" textLength="69" x="159" y="442.6533">Data_base</text><!--MD5=[f5a84ea27a39dffe65e2d8c8304abc84]
entity UC164--><ellipse cx="31.5" cy="133" fill="#FEFECE" filter="url(#f1tfn3mj6fha0r)" rx="8" ry="8" style="stroke: #A80036; stroke-width: 1.5;"/><path d="M31.5,141 L31.5,168 M18.5,149 L44.5,149 M31.5,168 L18.5,183 M31.5,168 L44.5,183 " fill="none" filter="url(#f1tfn3mj6fha0r)" style="stroke: #A80036; stroke-width: 1.5;"/><text fill="#000000" font-family="sans-serif" font-size="14" lengthAdjust="spacingAndGlyphs" textLength="43" x="10" y="204.6533">UC164</text><!--MD5=[ff217026b73a5dd26a9b1314edf064e2]
entity UC165--><ellipse cx="31.5" cy="847" fill="#FEFECE" filter="url(#f1tfn3mj6fha0r)" rx="8" ry="8" style="stroke: #A80036; stroke-width: 1.5;"/><path d="M31.5,855 L31.5,882 M18.5,863 L44.5,863 M31.5,882 L18.5,897 M31.5,882 L44.5,897 " fill="none" filter="url(#f1tfn3mj6fha0r)" style="stroke: #A80036; stroke-width: 1.5;"/><text fill="#000000" font-family="sans-serif" font-size="14" lengthAdjust="spacingAndGlyphs" textLength="43" x="10" y="918.6533">UC165</text><!--MD5=[8c8f5dfd4732210561fac31432c59131]
entity UC166--><ellipse cx="31.5" cy="252" fill="#FEFECE" filter="url(#f1tfn3mj6fha0r)" rx="8" ry="8" style="stroke: #A80036; stroke-width: 1.5;"/><path d="M31.5,260 L31.5,287 M18.5,268 L44.5,268 M31.5,287 L18.5,302 M31.5,287 L44.5,302 " fill="none" filter="url(#f1tfn3mj6fha0r)" style="stroke: #A80036; stroke-width: 1.5;"/><text fill="#000000" font-family="sans-serif" font-size="14" lengthAdjust="spacingAndGlyphs" textLength="43" x="10" y="323.6533">UC166</text><!--MD5=[f94cbaf92b1173a16a0796f918505f52]
entity UC167--><ellipse cx="31.5" cy="371" fill="#FEFECE" filter="url(#f1tfn3mj6fha0r)" rx="8" ry="8" style="stroke: #A80036; stroke-width: 1.5;"/><path d="M31.5,379 L31.5,406 M18.5,387 L44.5,387 M31.5,406 L18.5,421 M31.5,406 L44.5,421 " fill="none" filter="url(#f1tfn3mj6fha0r)" style="stroke: #A80036; stroke-width: 1.5;"/><text fill="#000000" font-family="sans-serif" font-size="14" lengthAdjust="spacingAndGlyphs" textLength="43" x="10" y="442.6533">UC167</text><!--MD5=[2f0b14b33245a7b0faadacca9714b2e1]
entity UC168--><ellipse cx="31.5" cy="966" fill="#FEFECE" filter="url(#f1tfn3mj6fha0r)" rx="8" ry="8" style="stroke: #A80036; stroke-width: 1.5;"/><path d="M31.5,974 L31.5,1001 M18.5,982 L44.5,982 M31.5,1001 L18.5,1016 M31.5,1001 L44.5,1016 " fill="none" filter="url(#f1tfn3mj6fha0r)" style="stroke: #A80036; stroke-width: 1.5;"/><text fill="#000000" font-family="sans-serif" font-size="14" lengthAdjust="spacingAndGlyphs" textLength="43" x="10" y="1037.6533">UC168</text><!--MD5=[355f04e5136e09d547304b951fcecad1]
entity actor170611939--><ellipse cx="193.5" cy="14" fill="#FEFECE" filter="url(#f1tfn3mj6fha0r)" rx="8" ry="8" style="stroke: #A80036; stroke-width: 1.5;"/><path d="M193.5,22 L193.5,49 M180.5,30 L206.5,30 M193.5,49 L180.5,64 M193.5,49 L206.5,64 " fill="none" filter="url(#f1tfn3mj6fha0r)" style="stroke: #A80036; stroke-width: 1.5;"/><text fill="#000000" font-family="sans-serif" font-size="14" lengthAdjust="spacingAndGlyphs" textLength="56" x="165.5" y="85.6533">ArrayList</text><!--MD5=[ec1aab33f6146d019a7819f41ab9fb4a]
entity UC169--><ellipse cx="31.5" cy="14" fill="#FEFECE" filter="url(#f1tfn3mj6fha0r)" rx="8" ry="8" style="stroke: #A80036; stroke-width: 1.5;"/><path d="M31.5,22 L31.5,49 M18.5,30 L44.5,30 M31.5,49 L18.5,64 M31.5,49 L44.5,64 " fill="none" filter="url(#f1tfn3mj6fha0r)" style="stroke: #A80036; stroke-width: 1.5;"/><text fill="#000000" font-family="sans-serif" font-size="14" lengthAdjust="spacingAndGlyphs" textLength="43" x="10" y="85.6533">UC169</text><!--MD5=[eedc0d335d0976125c53eda26e5e21e8]
entity UC170--><ellipse cx="31.5" cy="490" fill="#FEFECE" filter="url(#f1tfn3mj6fha0r)" rx="8" ry="8" style="stroke: #A80036; stroke-width: 1.5;"/><path d="M31.5,498 L31.5,525 M18.5,506 L44.5,506 M31.5,525 L18.5,540 M31.5,525 L44.5,540 " fill="none" filter="url(#f1tfn3mj6fha0r)" style="stroke: #A80036; stroke-width: 1.5;"/><text fill="#000000" font-family="sans-serif" font-size="14" lengthAdjust="spacingAndGlyphs" textLength="43" x="10" y="561.6533">UC170</text><!--MD5=[0ebf8ce25284ec3bcefac9a5a683bce5]
entity UC171--><ellipse cx="31.5" cy="609" fill="#FEFECE" filter="url(#f1tfn3mj6fha0r)" rx="8" ry="8" style="stroke: #A80036; stroke-width: 1.5;"/><path d="M31.5,617 L31.5,644 M18.5,625 L44.5,625 M31.5,644 L18.5,659 M31.5,644 L44.5,659 " fill="none" filter="url(#f1tfn3mj6fha0r)" style="stroke: #A80036; stroke-width: 1.5;"/><text fill="#000000" font-family="sans-serif" font-size="14" lengthAdjust="spacingAndGlyphs" textLength="43" x="10" y="680.6533">UC171</text><!--MD5=[5d2f879ba7f45750cbd74fd0c9cf1b3c]
link actor417118375 to UC569894199--><path d="M57.15,1119.83 C94.49,1104.72 163.39,1053.83 185.49,1022 " fill="none" id="actor417118375-UC569894199" style="stroke: #A80036; stroke-width: 1.0;"/><!--MD5=[5d2f879ba7f45750cbd74fd0c9cf1b3c]
link actor417118375 to UC569894199--><path d="M57.15,1100.25 C88.71,1078.16 142.8,1040.29 172.14,1019.75 " fill="none" id="actor417118375-UC569894199-1" style="stroke: #A80036; stroke-width: 1.0;"/><!--MD5=[5d2f879ba7f45750cbd74fd0c9cf1b3c]
link actor417118375 to UC569894199--><path d="M57.15,1080.66 C82.92,1055.01 123.72,1025.35 153.8,1009.74 " fill="none" id="actor417118375-UC569894199-2" style="stroke: #A80036; stroke-width: 1.0;"/><!--MD5=[920b9c1b5f0cd8e26cb06ed21f90d19f]
link UC163 to actor188193734--><path d="M53.09,775.81 C82.29,797.53 135.69,837.25 167.25,860.72 " fill="none" id="UC163-actor188193734" style="stroke: #A80036; stroke-width: 1.0;"/><!--MD5=[fe58feda64fe5898c498850ceb6ab813]
link actor417118375 to UC1384626783--><path d="M57.15,1127.01 C83.8,1130.84 126.52,1131.27 156.83,1128.32 " fill="none" id="actor417118375-UC1384626783" style="stroke: #A80036; stroke-width: 1.0;"/><!--MD5=[fe58feda64fe5898c498850ceb6ab813]
link actor417118375 to UC1384626783--><path d="M57.15,1107.43 C84.15,1103.33 127.64,1102.91 158.02,1106.17 " fill="none" id="actor417118375-UC1384626783-1" style="stroke: #A80036; stroke-width: 1.0;"/><!--MD5=[0b2c02ecaae327e53b6166638f645fe9]
link UC164 to actor517787604--><path d="M53.09,196.13 C81.36,238.19 132.32,313.98 164.17,361.36 " fill="none" id="UC164-actor517787604" style="stroke: #A80036; stroke-width: 1.0;"/><!--MD5=[056e7e937e7611813b06f9ff19b1e662]
link UC165 to actor188193734--><path d="M53.09,879.5 C82.29,879.5 135.69,879.5 167.25,879.5 " fill="none" id="UC165-actor188193734" style="stroke: #A80036; stroke-width: 1.0;"/><!--MD5=[f5faf3ed46640a98ca31a635f75d8374]
link actor417118375 to UC192318053--><path d="M57.15,1134.75 C88.88,1156.97 143.4,1195.13 172.63,1215.59 " fill="none" id="actor417118375-UC192318053" style="stroke: #A80036; stroke-width: 1.0;"/><!--MD5=[285cfec0f52c77ea3dc7e0aa24efa71f]
link UC166 to actor517787604--><path d="M53.09,299.81 C79.84,319.71 126.91,354.72 158.88,378.5 " fill="none" id="UC166-actor517787604" style="stroke: #A80036; stroke-width: 1.0;"/><!--MD5=[b3b97168f18dc307445b88f165ab7eed]
link UC167 to actor517787604--><path d="M53.09,403.5 C79.84,403.5 126.91,403.5 158.88,403.5 " fill="none" id="UC167-actor517787604" style="stroke: #A80036; stroke-width: 1.0;"/><!--MD5=[494c5fdf600f120f511d397478baff29]
link UC168 to actor188193734--><path d="M53.09,983.19 C82.29,961.47 135.69,921.75 167.25,898.28 " fill="none" id="UC168-actor188193734" style="stroke: #A80036; stroke-width: 1.0;"/><!--MD5=[e8c2b1e5688c5f76e548829b0c8a1a06]
link actor417118375 to UC293618119--><path d="M43.91,1159.77 C53.58,1190.37 69.64,1231.61 93,1262.5 C116.55,1293.64 155.1,1319.48 176.65,1332.47 " fill="none" id="actor417118375-UC293618119" style="stroke: #A80036; stroke-width: 1.0;"/><!--MD5=[06a640a92fcac880a8c84459670876db]
link UC169 to actor170611939--><path d="M53.09,46.5 C81.7,46.5 133.54,46.5 165.31,46.5 " fill="none" id="UC169-actor170611939" style="stroke: #A80036; stroke-width: 1.0;"/><!--MD5=[f0b97431fcb42c287cbae109eb6e21c7]
link actor417118375 to UC1794314439--><path d="M34.06,1159.91 C37.82,1213.72 50.51,1307.54 93,1374.5 C110.96,1402.81 142.67,1425.35 165.47,1438.99 " fill="none" id="actor417118375-UC1794314439" style="stroke: #A80036; stroke-width: 1.0;"/><!--MD5=[c09dfb7e7e6be278c4ec36a2951303ef]
link UC170 to actor517787604--><path d="M53.09,507.19 C79.84,487.29 126.91,452.28 158.88,428.5 " fill="none" id="UC170-actor517787604" style="stroke: #A80036; stroke-width: 1.0;"/><!--MD5=[757c3b34253f4422122786f52780ede6]
link actor417118375 to UC436126678--><path d="M35.63,1159.75 C42.51,1244.44 60.94,1431.55 93,1486.5 C109.31,1514.45 139.38,1536.54 162.21,1550.37 " fill="none" id="actor417118375-UC436126678" style="stroke: #A80036; stroke-width: 1.0;"/><!--MD5=[00bb6171f265ca4d07ebd8301e4f1e97]
link UC171 to actor517787604--><path d="M53.09,610.87 C81.36,568.81 132.32,493.02 164.17,445.64 " fill="none" id="UC171-actor517787604" style="stroke: #A80036; stroke-width: 1.0;"/><!--MD5=[02ffa147a15fea0a0bda0cc1f0305141]
@startuml
 left to right direction

actor Member as actor417118375

	rectangle addHas{
	 usecase addData as UC569894199
	actor417118375- -UC569894199
	}
	actor DataList as actor188193734
	 UC163 - - actor188193734
	rectangle addCallBy{
	 usecase addData as UC569894199
	actor417118375- -UC569894199
	 usecase addCallBy as UC1384626783
	actor417118375- -UC1384626783
	}
	actor Data_base as actor517787604
	 UC164 - - actor517787604
	actor DataList as actor188193734
	 UC165 - - actor188193734
	rectangle addCall{
	 usecase addData as UC569894199
	actor417118375- -UC569894199
	 usecase addCall as UC192318053
	actor417118375- -UC192318053
	 usecase addCallBy as UC1384626783
	actor417118375- -UC1384626783
	}
	actor Data_base as actor517787604
	 UC166 - - actor517787604
	actor Data_base as actor517787604
	 UC167 - - actor517787604
	actor DataList as actor188193734
	 UC168 - - actor188193734
	rectangle addImage{
	 usecase add as UC293618119
	actor417118375- -UC293618119
	}
	actor ArrayList as actor170611939
	 UC169 - - actor170611939
	rectangle getSrcName{
	 usecase getSrcName as UC1794314439
	actor417118375- -UC1794314439
	}
	actor Data_base as actor517787604
	 UC170 - - actor517787604
	rectangle getPackageName{
	 usecase getPackageName as UC436126678
	actor417118375- -UC436126678
	}
	actor Data_base as actor517787604
	 UC171 - - actor517787604

@enduml

PlantUML version 1.2020.19(Tue Oct 13 00:10:01 KST 2020)
(APACHE source distribution)
Java Runtime: Java(TM) SE Runtime Environment
JVM: Java HotSpot(TM) 64-Bit Server VM
Default Encoding: MS949
Language: ko
Country: KR
--></g></svg>