<?xml version="1.0" encoding="UTF-8" standalone="no"?><svg xmlns="http://www.w3.org/2000/svg" xmlns:xlink="http://www.w3.org/1999/xlink" contentScriptType="application/ecmascript" contentStyleType="text/css" height="438px" preserveAspectRatio="none" style="width:261px;height:438px;" version="1.1" viewBox="0 0 261 438" width="261px" zoomAndPan="magnify"><defs><filter height="300%" id="f128vsnaaiuhqa" width="300%" x="-1" y="-1"><feGaussianBlur result="blurOut" stdDeviation="2.0"/><feColorMatrix in="blurOut" result="blurOut2" type="matrix" values="0 0 0 0 0 0 0 0 0 0 0 0 0 0 0 0 0 0 .4 0"/><feOffset dx="4.0" dy="4.0" in="blurOut2" result="blurOut3"/><feBlend in="SourceGraphic" in2="blurOut3" mode="normal"/></filter></defs><g><!--MD5=[3c85da630ea6d6506c7d441fb15e9b8e]
cluster addData--><rect fill="#FFFFFF" filter="url(#f128vsnaaiuhqa)" height="88" style="stroke: #000000; stroke-width: 1.5;" width="147" x="102" y="226.5"/><text fill="#000000" font-family="sans-serif" font-size="14" font-weight="bold" lengthAdjust="spacingAndGlyphs" textLength="57" x="147" y="244.6533">addData</text><!--MD5=[49dd47f5e3ec16b4879e14778365b69d]
cluster separatePackage--><rect fill="#FFFFFF" filter="url(#f128vsnaaiuhqa)" height="88" style="stroke: #000000; stroke-width: 1.5;" width="137" x="107.5" y="338.5"/><text fill="#000000" font-family="sans-serif" font-size="14" font-weight="bold" lengthAdjust="spacingAndGlyphs" textLength="121" x="115.5" y="356.6533">separatePackage</text><ellipse cx="175.4472" cy="281.5973" fill="#FEFECE" filter="url(#f128vsnaaiuhqa)" rx="57.4472" ry="16.5973" style="stroke: #A80036; stroke-width: 1.5;"/><text fill="#000000" font-family="sans-serif" font-size="14" lengthAdjust="spacingAndGlyphs" textLength="77" x="136.9472" y="287.7121">getSrcName</text><ellipse cx="175.4836" cy="393.5869" fill="#FEFECE" filter="url(#f128vsnaaiuhqa)" rx="19.9836" ry="16.5869" style="stroke: #A80036; stroke-width: 1.5;"/><text fill="#000000" font-family="sans-serif" font-size="14" lengthAdjust="spacingAndGlyphs" textLength="24" x="163.4836" y="399.7016">add</text><!--MD5=[2402d7512d9aa01d473b8fba52e12d98]
entity actor188193734--><ellipse cx="32" cy="306" fill="#FEFECE" filter="url(#f128vsnaaiuhqa)" rx="8" ry="8" style="stroke: #A80036; stroke-width: 1.5;"/><path d="M32,314 L32,341 M19,322 L45,322 M32,341 L19,356 M32,341 L45,356 " fill="none" filter="url(#f128vsnaaiuhqa)" style="stroke: #A80036; stroke-width: 1.5;"/><text fill="#000000" font-family="sans-serif" font-size="14" lengthAdjust="spacingAndGlyphs" textLength="52" x="6" y="377.6533">DataList</text><!--MD5=[d90094311435cfb86829af3e65eedad8]
entity actor517787604--><ellipse cx="175.5" cy="133" fill="#FEFECE" filter="url(#f128vsnaaiuhqa)" rx="8" ry="8" style="stroke: #A80036; stroke-width: 1.5;"/><path d="M175.5,141 L175.5,168 M162.5,149 L188.5,149 M175.5,168 L162.5,183 M175.5,168 L188.5,183 " fill="none" filter="url(#f128vsnaaiuhqa)" style="stroke: #A80036; stroke-width: 1.5;"/><text fill="#000000" font-family="sans-serif" font-size="14" lengthAdjust="spacingAndGlyphs" textLength="69" x="141" y="204.6533">Data_base</text><!--MD5=[0a9ecc510150f9c6f078baa811a91342]
entity UC115--><ellipse cx="32" cy="133" fill="#FEFECE" filter="url(#f128vsnaaiuhqa)" rx="8" ry="8" style="stroke: #A80036; stroke-width: 1.5;"/><path d="M32,141 L32,168 M19,149 L45,149 M32,168 L19,183 M32,168 L45,183 " fill="none" filter="url(#f128vsnaaiuhqa)" style="stroke: #A80036; stroke-width: 1.5;"/><text fill="#000000" font-family="sans-serif" font-size="14" lengthAdjust="spacingAndGlyphs" textLength="43" x="10.5" y="204.6533">UC115</text><!--MD5=[355f04e5136e09d547304b951fcecad1]
entity actor170611939--><ellipse cx="175.5" cy="14" fill="#FEFECE" filter="url(#f128vsnaaiuhqa)" rx="8" ry="8" style="stroke: #A80036; stroke-width: 1.5;"/><path d="M175.5,22 L175.5,49 M162.5,30 L188.5,30 M175.5,49 L162.5,64 M175.5,49 L188.5,64 " fill="none" filter="url(#f128vsnaaiuhqa)" style="stroke: #A80036; stroke-width: 1.5;"/><text fill="#000000" font-family="sans-serif" font-size="14" lengthAdjust="spacingAndGlyphs" textLength="56" x="147.5" y="85.6533">ArrayList</text><!--MD5=[cd227a22573089e086d7baa2efb908ea]
entity UC116--><ellipse cx="32" cy="14" fill="#FEFECE" filter="url(#f128vsnaaiuhqa)" rx="8" ry="8" style="stroke: #A80036; stroke-width: 1.5;"/><path d="M32,22 L32,49 M19,30 L45,30 M32,49 L19,64 M32,49 L45,64 " fill="none" filter="url(#f128vsnaaiuhqa)" style="stroke: #A80036; stroke-width: 1.5;"/><text fill="#000000" font-family="sans-serif" font-size="14" lengthAdjust="spacingAndGlyphs" textLength="43" x="10.5" y="85.6533">UC116</text><!--MD5=[6a8fb4eafa9c580c754f7a637331b765]
link actor188193734 to UC1794314439--><path d="M58.3,328.31 C81.51,318.96 116.04,305.05 141.43,294.82 " fill="none" id="actor188193734-UC1794314439" style="stroke: #A80036; stroke-width: 1.0;"/><!--MD5=[046a1b05b457a9192b0170850b7eda81]
link UC115 to actor517787604--><path d="M53.58,165.5 C76.42,165.5 113.63,165.5 140.75,165.5 " fill="none" id="UC115-actor517787604" style="stroke: #A80036; stroke-width: 1.0;"/><!--MD5=[444e369b7e2937bc8928297b08b9b2cf]
link actor188193734 to UC293618119--><path d="M58.3,348.33 C86.76,359.39 132.23,377.07 157.01,386.7 " fill="none" id="actor188193734-UC293618119" style="stroke: #A80036; stroke-width: 1.0;"/><!--MD5=[556f24442bd8d4c7bcf1068b0eebbf81]
link UC116 to actor170611939--><path d="M53.58,46.5 C78.33,46.5 119.98,46.5 147.35,46.5 " fill="none" id="UC116-actor170611939" style="stroke: #A80036; stroke-width: 1.0;"/><!--MD5=[2c6afaf8ecadbd5456c6769760b2f785]
@startuml
 left to right direction

actor DataList as actor188193734

	rectangle addData{
	 usecase getSrcName as UC1794314439
	actor188193734- -UC1794314439
	}
	actor Data_base as actor517787604
	 UC115 - - actor517787604
	rectangle separatePackage{
	 usecase add as UC293618119
	actor188193734- -UC293618119
	}
	actor ArrayList as actor170611939
	 UC116 - - actor170611939

@enduml

PlantUML version 1.2020.19(Tue Oct 13 00:10:01 KST 2020)
(APACHE source distribution)
Java Runtime: Java(TM) SE Runtime Environment
JVM: Java HotSpot(TM) 64-Bit Server VM
Default Encoding: MS949
Language: ko
Country: KR
--></g></svg>