<?xml version="1.0" encoding="UTF-8" standalone="no"?><svg xmlns="http://www.w3.org/2000/svg" xmlns:xlink="http://www.w3.org/1999/xlink" contentScriptType="application/ecmascript" contentStyleType="text/css" height="2734px" preserveAspectRatio="none" style="width:301px;height:2734px;" version="1.1" viewBox="0 0 301 2734" width="301px" zoomAndPan="magnify"><defs><filter height="300%" id="f10au8omd0f98w" width="300%" x="-1" y="-1"><feGaussianBlur result="blurOut" stdDeviation="2.0"/><feColorMatrix in="blurOut" result="blurOut2" type="matrix" values="0 0 0 0 0 0 0 0 0 0 0 0 0 0 0 0 0 0 .4 0"/><feOffset dx="4.0" dy="4.0" in="blurOut2" result="blurOut3"/><feBlend in="SourceGraphic" in2="blurOut3" mode="normal"/></filter></defs><g><!--MD5=[a70b0d373322012744ecc119c63f921b]
cluster main--><rect fill="#FFFFFF" filter="url(#f10au8omd0f98w)" height="224" style="stroke: #000000; stroke-width: 1.5;" width="147" x="128" y="1710.5"/><text fill="#000000" font-family="sans-serif" font-size="14" font-weight="bold" lengthAdjust="spacingAndGlyphs" textLength="33" x="185" y="1728.6533">main</text><!--MD5=[34cb1141ed5c8afa1d4c2c83d67642d3]
cluster makeString--><rect fill="#FFFFFF" filter="url(#f10au8omd0f98w)" height="156" style="stroke: #000000; stroke-width: 1.5;" width="107" x="148" y="1958.5"/><text fill="#000000" font-family="sans-serif" font-size="14" font-weight="bold" lengthAdjust="spacingAndGlyphs" textLength="79" x="162" y="1976.6533">makeString</text><!--MD5=[169ded1774b4ebedaf5b3d453063cde8]
cluster getCallerFunList--><rect fill="#FFFFFF" filter="url(#f10au8omd0f98w)" height="292" style="stroke: #000000; stroke-width: 1.5;" width="175" x="114" y="2138.5"/><text fill="#000000" font-family="sans-serif" font-size="14" font-weight="bold" lengthAdjust="spacingAndGlyphs" textLength="116" x="143.5" y="2156.6533">getCallerFunList</text><!--MD5=[c6bdd26f9d0c779513684dd3959e914f]
cluster drawConnect--><rect fill="#FFFFFF" filter="url(#f10au8omd0f98w)" height="88" style="stroke: #000000; stroke-width: 1.5;" width="109" x="147.5" y="2454.5"/><text fill="#000000" font-family="sans-serif" font-size="14" font-weight="bold" lengthAdjust="spacingAndGlyphs" textLength="93" x="155.5" y="2472.6533">drawConnect</text><!--MD5=[1e829f21a74d4de467c1b519aceec237]
cluster makeFile--><rect fill="#FFFFFF" filter="url(#f10au8omd0f98w)" height="156" style="stroke: #000000; stroke-width: 1.5;" width="85" x="159" y="2566.5"/><text fill="#000000" font-family="sans-serif" font-size="14" font-weight="bold" lengthAdjust="spacingAndGlyphs" textLength="63" x="170" y="2584.6533">makeFile</text><ellipse cx="201.5269" cy="1765.5973" fill="#FEFECE" filter="url(#f10au8omd0f98w)" rx="35.5269" ry="16.5973" style="stroke: #A80036; stroke-width: 1.5;"/><text fill="#000000" font-family="sans-serif" font-size="14" lengthAdjust="spacingAndGlyphs" textLength="46" x="178.5269" y="1771.7121">waitFor</text><ellipse cx="201.5772" cy="1833.5973" fill="#FEFECE" filter="url(#f10au8omd0f98w)" rx="30.5772" ry="16.5973" style="stroke: #A80036; stroke-width: 1.5;"/><text fill="#000000" font-family="sans-serif" font-size="14" lengthAdjust="spacingAndGlyphs" textLength="39" x="182.0772" y="1839.7121">println</text><ellipse cx="201.4472" cy="1901.5973" fill="#FEFECE" filter="url(#f10au8omd0f98w)" rx="57.4472" ry="16.5973" style="stroke: #A80036; stroke-width: 1.5;"/><text fill="#000000" font-family="sans-serif" font-size="14" lengthAdjust="spacingAndGlyphs" textLength="77" x="162.9472" y="1907.7121">getClassList</text><ellipse cx="201.4411" cy="2013.5973" fill="#FEFECE" filter="url(#f10au8omd0f98w)" rx="36.9411" ry="16.5973" style="stroke: #A80036; stroke-width: 1.5;"/><text fill="#000000" font-family="sans-serif" font-size="14" lengthAdjust="spacingAndGlyphs" textLength="48" x="177.4411" y="2019.7121">append</text><ellipse cx="201.6482" cy="2081.5973" fill="#FEFECE" filter="url(#f10au8omd0f98w)" rx="37.6482" ry="16.5973" style="stroke: #A80036; stroke-width: 1.5;"/><text fill="#000000" font-family="sans-serif" font-size="14" lengthAdjust="spacingAndGlyphs" textLength="49" x="177.1482" y="2087.7121">toString</text><ellipse cx="201.4836" cy="2193.5869" fill="#FEFECE" filter="url(#f10au8omd0f98w)" rx="19.9836" ry="16.5869" style="stroke: #A80036; stroke-width: 1.5;"/><text fill="#000000" font-family="sans-serif" font-size="14" lengthAdjust="spacingAndGlyphs" textLength="24" x="189.4836" y="2199.7016">add</text><ellipse cx="201.669" cy="2261.5973" fill="#FEFECE" filter="url(#f10au8omd0f98w)" rx="49.669" ry="16.5973" style="stroke: #A80036; stroke-width: 1.5;"/><text fill="#000000" font-family="sans-serif" font-size="14" lengthAdjust="spacingAndGlyphs" textLength="66" x="168.669" y="2267.7121">getCallList</text><ellipse cx="201.2886" cy="2329.6577" fill="#FEFECE" filter="url(#f10au8omd0f98w)" rx="71.2886" ry="16.6577" style="stroke: #A80036; stroke-width: 1.5;"/><text fill="#000000" font-family="sans-serif" font-size="14" lengthAdjust="spacingAndGlyphs" textLength="97" x="152.7886" y="2335.7725">getFunctionList</text><ellipse cx="201.669" cy="2397.5973" fill="#FEFECE" filter="url(#f10au8omd0f98w)" rx="49.669" ry="16.5973" style="stroke: #A80036; stroke-width: 1.5;"/><text fill="#000000" font-family="sans-serif" font-size="14" lengthAdjust="spacingAndGlyphs" textLength="66" x="168.669" y="2403.7121">getHasList</text><ellipse cx="201.4836" cy="2509.5869" fill="#FEFECE" filter="url(#f10au8omd0f98w)" rx="19.9836" ry="16.5869" style="stroke: #A80036; stroke-width: 1.5;"/><text fill="#000000" font-family="sans-serif" font-size="14" lengthAdjust="spacingAndGlyphs" textLength="24" x="189.4836" y="2515.7016">add</text><ellipse cx="201.5061" cy="2621.5973" fill="#FEFECE" filter="url(#f10au8omd0f98w)" rx="23.5061" ry="16.5973" style="stroke: #A80036; stroke-width: 1.5;"/><text fill="#000000" font-family="sans-serif" font-size="14" lengthAdjust="spacingAndGlyphs" textLength="29" x="187.0061" y="2627.7121">write</text><ellipse cx="201.3345" cy="2689.5973" fill="#FEFECE" filter="url(#f10au8omd0f98w)" rx="26.3345" ry="16.5973" style="stroke: #A80036; stroke-width: 1.5;"/><text fill="#000000" font-family="sans-serif" font-size="14" lengthAdjust="spacingAndGlyphs" textLength="33" x="184.8345" y="2695.7121">close</text><!--MD5=[3b9a75c8d3572c5083ea72ba9e1d88da]
entity actor1861416877--><ellipse cx="38" cy="2195" fill="#FEFECE" filter="url(#f10au8omd0f98w)" rx="8" ry="8" style="stroke: #A80036; stroke-width: 1.5;"/><path d="M38,2203 L38,2230 M25,2211 L51,2211 M38,2230 L25,2245 M38,2230 L51,2245 " fill="none" filter="url(#f10au8omd0f98w)" style="stroke: #A80036; stroke-width: 1.5;"/><text fill="#000000" font-family="sans-serif" font-size="14" lengthAdjust="spacingAndGlyphs" textLength="64" x="6" y="2266.6533">Sequence</text><!--MD5=[2402d7512d9aa01d473b8fba52e12d98]
entity actor188193734--><ellipse cx="201.5" cy="1620" fill="#FEFECE" filter="url(#f10au8omd0f98w)" rx="8" ry="8" style="stroke: #A80036; stroke-width: 1.5;"/><path d="M201.5,1628 L201.5,1655 M188.5,1636 L214.5,1636 M201.5,1655 L188.5,1670 M201.5,1655 L214.5,1670 " fill="none" filter="url(#f10au8omd0f98w)" style="stroke: #A80036; stroke-width: 1.5;"/><text fill="#000000" font-family="sans-serif" font-size="14" lengthAdjust="spacingAndGlyphs" textLength="52" x="175.5" y="1691.6533">DataList</text><!--MD5=[8aad91f37790559ddd5afb92587c9a98]
entity UC246--><ellipse cx="38" cy="1442" fill="#FEFECE" filter="url(#f10au8omd0f98w)" rx="8" ry="8" style="stroke: #A80036; stroke-width: 1.5;"/><path d="M38,1450 L38,1477 M25,1458 L51,1458 M38,1477 L25,1492 M38,1477 L51,1492 " fill="none" filter="url(#f10au8omd0f98w)" style="stroke: #A80036; stroke-width: 1.5;"/><text fill="#000000" font-family="sans-serif" font-size="14" lengthAdjust="spacingAndGlyphs" textLength="43" x="16.5" y="1513.6533">UC246</text><!--MD5=[2699aedbcd2b1f3b132d3903ac9b60ef]
entity actor652803980--><ellipse cx="201.5" cy="1323" fill="#FEFECE" filter="url(#f10au8omd0f98w)" rx="8" ry="8" style="stroke: #A80036; stroke-width: 1.5;"/><path d="M201.5,1331 L201.5,1358 M188.5,1339 L214.5,1339 M201.5,1358 L188.5,1373 M201.5,1358 L214.5,1373 " fill="none" filter="url(#f10au8omd0f98w)" style="stroke: #A80036; stroke-width: 1.5;"/><text fill="#000000" font-family="sans-serif" font-size="14" lengthAdjust="spacingAndGlyphs" textLength="74" x="164.5" y="1394.6533">PrintStream</text><!--MD5=[a8eae88a0dded79983a3d1cce6c751fb]
entity UC247--><ellipse cx="38" cy="1323" fill="#FEFECE" filter="url(#f10au8omd0f98w)" rx="8" ry="8" style="stroke: #A80036; stroke-width: 1.5;"/><path d="M38,1331 L38,1358 M25,1339 L51,1339 M38,1358 L25,1373 M38,1358 L51,1373 " fill="none" filter="url(#f10au8omd0f98w)" style="stroke: #A80036; stroke-width: 1.5;"/><text fill="#000000" font-family="sans-serif" font-size="14" lengthAdjust="spacingAndGlyphs" textLength="43" x="16.5" y="1394.6533">UC247</text><!--MD5=[25172bbf95bdbbdb21e6a8bcedfbc865]
entity actor1520921298--><ellipse cx="201.5" cy="1204" fill="#FEFECE" filter="url(#f10au8omd0f98w)" rx="8" ry="8" style="stroke: #A80036; stroke-width: 1.5;"/><path d="M201.5,1212 L201.5,1239 M188.5,1220 L214.5,1220 M201.5,1239 L188.5,1254 M201.5,1239 L214.5,1254 " fill="none" filter="url(#f10au8omd0f98w)" style="stroke: #A80036; stroke-width: 1.5;"/><text fill="#000000" font-family="sans-serif" font-size="14" lengthAdjust="spacingAndGlyphs" textLength="51" x="176" y="1275.6533">Process</text><!--MD5=[86417ff01cb01d728b968f5afe87f58c]
entity UC248--><ellipse cx="38" cy="1204" fill="#FEFECE" filter="url(#f10au8omd0f98w)" rx="8" ry="8" style="stroke: #A80036; stroke-width: 1.5;"/><path d="M38,1212 L38,1239 M25,1220 L51,1220 M38,1239 L25,1254 M38,1239 L51,1254 " fill="none" filter="url(#f10au8omd0f98w)" style="stroke: #A80036; stroke-width: 1.5;"/><text fill="#000000" font-family="sans-serif" font-size="14" lengthAdjust="spacingAndGlyphs" textLength="43" x="16.5" y="1275.6533">UC248</text><!--MD5=[864f7e280385d8f93481e354d7c7de74]
entity actor230610941--><ellipse cx="201.5" cy="966" fill="#FEFECE" filter="url(#f10au8omd0f98w)" rx="8" ry="8" style="stroke: #A80036; stroke-width: 1.5;"/><path d="M201.5,974 L201.5,1001 M188.5,982 L214.5,982 M201.5,1001 L188.5,1016 M201.5,1001 L214.5,1016 " fill="none" filter="url(#f10au8omd0f98w)" style="stroke: #A80036; stroke-width: 1.5;"/><text fill="#000000" font-family="sans-serif" font-size="14" lengthAdjust="spacingAndGlyphs" textLength="81" x="161" y="1037.6533">StringBuilder</text><!--MD5=[3b9c673c60530cec200348641b1db40b]
entity UC249--><ellipse cx="38" cy="847" fill="#FEFECE" filter="url(#f10au8omd0f98w)" rx="8" ry="8" style="stroke: #A80036; stroke-width: 1.5;"/><path d="M38,855 L38,882 M25,863 L51,863 M38,882 L25,897 M38,882 L51,897 " fill="none" filter="url(#f10au8omd0f98w)" style="stroke: #A80036; stroke-width: 1.5;"/><text fill="#000000" font-family="sans-serif" font-size="14" lengthAdjust="spacingAndGlyphs" textLength="43" x="16.5" y="918.6533">UC249</text><!--MD5=[259a1f712e0a68475a10a0202a4d9964]
entity UC250--><ellipse cx="38" cy="966" fill="#FEFECE" filter="url(#f10au8omd0f98w)" rx="8" ry="8" style="stroke: #A80036; stroke-width: 1.5;"/><path d="M38,974 L38,1001 M25,982 L51,982 M38,1001 L25,1016 M38,1001 L51,1016 " fill="none" filter="url(#f10au8omd0f98w)" style="stroke: #A80036; stroke-width: 1.5;"/><text fill="#000000" font-family="sans-serif" font-size="14" lengthAdjust="spacingAndGlyphs" textLength="43" x="16.5" y="1037.6533">UC250</text><!--MD5=[d90094311435cfb86829af3e65eedad8]
entity actor517787604--><ellipse cx="201.5" cy="609" fill="#FEFECE" filter="url(#f10au8omd0f98w)" rx="8" ry="8" style="stroke: #A80036; stroke-width: 1.5;"/><path d="M201.5,617 L201.5,644 M188.5,625 L214.5,625 M201.5,644 L188.5,659 M201.5,644 L214.5,659 " fill="none" filter="url(#f10au8omd0f98w)" style="stroke: #A80036; stroke-width: 1.5;"/><text fill="#000000" font-family="sans-serif" font-size="14" lengthAdjust="spacingAndGlyphs" textLength="69" x="167" y="680.6533">Data_base</text><!--MD5=[05d67ac32eaa415c8af4976588a01c60]
entity UC251--><ellipse cx="38" cy="490" fill="#FEFECE" filter="url(#f10au8omd0f98w)" rx="8" ry="8" style="stroke: #A80036; stroke-width: 1.5;"/><path d="M38,498 L38,525 M25,506 L51,506 M38,525 L25,540 M38,525 L51,540 " fill="none" filter="url(#f10au8omd0f98w)" style="stroke: #A80036; stroke-width: 1.5;"/><text fill="#000000" font-family="sans-serif" font-size="14" lengthAdjust="spacingAndGlyphs" textLength="43" x="16.5" y="561.6533">UC251</text><!--MD5=[de00957c0dbc2049b1c65acce088b629]
entity UC252--><ellipse cx="38" cy="1561" fill="#FEFECE" filter="url(#f10au8omd0f98w)" rx="8" ry="8" style="stroke: #A80036; stroke-width: 1.5;"/><path d="M38,1569 L38,1596 M25,1577 L51,1577 M38,1596 L25,1611 M38,1596 L51,1611 " fill="none" filter="url(#f10au8omd0f98w)" style="stroke: #A80036; stroke-width: 1.5;"/><text fill="#000000" font-family="sans-serif" font-size="14" lengthAdjust="spacingAndGlyphs" textLength="43" x="16.5" y="1632.6533">UC252</text><!--MD5=[5ae1f804a1239a1fd1283a0137706868]
entity UC253--><ellipse cx="38" cy="609" fill="#FEFECE" filter="url(#f10au8omd0f98w)" rx="8" ry="8" style="stroke: #A80036; stroke-width: 1.5;"/><path d="M38,617 L38,644 M25,625 L51,625 M38,644 L25,659 M38,644 L51,659 " fill="none" filter="url(#f10au8omd0f98w)" style="stroke: #A80036; stroke-width: 1.5;"/><text fill="#000000" font-family="sans-serif" font-size="14" lengthAdjust="spacingAndGlyphs" textLength="43" x="16.5" y="680.6533">UC253</text><!--MD5=[493df41ddf9de5094137280f35ff56d1]
entity UC254--><ellipse cx="38" cy="1680" fill="#FEFECE" filter="url(#f10au8omd0f98w)" rx="8" ry="8" style="stroke: #A80036; stroke-width: 1.5;"/><path d="M38,1688 L38,1715 M25,1696 L51,1696 M38,1715 L25,1730 M38,1715 L51,1730 " fill="none" filter="url(#f10au8omd0f98w)" style="stroke: #A80036; stroke-width: 1.5;"/><text fill="#000000" font-family="sans-serif" font-size="14" lengthAdjust="spacingAndGlyphs" textLength="43" x="16.5" y="1751.6533">UC254</text><!--MD5=[355f04e5136e09d547304b951fcecad1]
entity actor170611939--><ellipse cx="201.5" cy="371" fill="#FEFECE" filter="url(#f10au8omd0f98w)" rx="8" ry="8" style="stroke: #A80036; stroke-width: 1.5;"/><path d="M201.5,379 L201.5,406 M188.5,387 L214.5,387 M201.5,406 L188.5,421 M201.5,406 L214.5,421 " fill="none" filter="url(#f10au8omd0f98w)" style="stroke: #A80036; stroke-width: 1.5;"/><text fill="#000000" font-family="sans-serif" font-size="14" lengthAdjust="spacingAndGlyphs" textLength="56" x="173.5" y="442.6533">ArrayList</text><!--MD5=[56a655643da5e4de0c6d07f4f5861c60]
entity UC255--><ellipse cx="38" cy="371" fill="#FEFECE" filter="url(#f10au8omd0f98w)" rx="8" ry="8" style="stroke: #A80036; stroke-width: 1.5;"/><path d="M38,379 L38,406 M25,387 L51,387 M38,406 L25,421 M38,406 L51,421 " fill="none" filter="url(#f10au8omd0f98w)" style="stroke: #A80036; stroke-width: 1.5;"/><text fill="#000000" font-family="sans-serif" font-size="14" lengthAdjust="spacingAndGlyphs" textLength="43" x="16.5" y="442.6533">UC255</text><!--MD5=[af796eb73e6ccfff1e47ac2b5dd3b4e1]
entity UC256--><ellipse cx="38" cy="728" fill="#FEFECE" filter="url(#f10au8omd0f98w)" rx="8" ry="8" style="stroke: #A80036; stroke-width: 1.5;"/><path d="M38,736 L38,763 M25,744 L51,744 M38,763 L25,778 M38,763 L51,778 " fill="none" filter="url(#f10au8omd0f98w)" style="stroke: #A80036; stroke-width: 1.5;"/><text fill="#000000" font-family="sans-serif" font-size="14" lengthAdjust="spacingAndGlyphs" textLength="43" x="16.5" y="799.6533">UC256</text><!--MD5=[da61f7ae752cbab26d214a49aa859a80]
entity UC257--><ellipse cx="38" cy="1799" fill="#FEFECE" filter="url(#f10au8omd0f98w)" rx="8" ry="8" style="stroke: #A80036; stroke-width: 1.5;"/><path d="M38,1807 L38,1834 M25,1815 L51,1815 M38,1834 L25,1849 M38,1834 L51,1849 " fill="none" filter="url(#f10au8omd0f98w)" style="stroke: #A80036; stroke-width: 1.5;"/><text fill="#000000" font-family="sans-serif" font-size="14" lengthAdjust="spacingAndGlyphs" textLength="43" x="16.5" y="1870.6533">UC257</text><!--MD5=[d75553106bdf409a3362ab75e7f3f3c5]
entity actor1407009494--><ellipse cx="201.5" cy="252" fill="#FEFECE" filter="url(#f10au8omd0f98w)" rx="8" ry="8" style="stroke: #A80036; stroke-width: 1.5;"/><path d="M201.5,260 L201.5,287 M188.5,268 L214.5,268 M201.5,287 L188.5,302 M201.5,287 L214.5,302 " fill="none" filter="url(#f10au8omd0f98w)" style="stroke: #A80036; stroke-width: 1.5;"/><text fill="#000000" font-family="sans-serif" font-size="14" lengthAdjust="spacingAndGlyphs" textLength="41" x="181" y="323.6533">Vector</text><!--MD5=[4c4cd1c909fdb6b16a383946c8680dbd]
entity UC258--><ellipse cx="38" cy="252" fill="#FEFECE" filter="url(#f10au8omd0f98w)" rx="8" ry="8" style="stroke: #A80036; stroke-width: 1.5;"/><path d="M38,260 L38,287 M25,268 L51,268 M38,287 L25,302 M38,287 L51,302 " fill="none" filter="url(#f10au8omd0f98w)" style="stroke: #A80036; stroke-width: 1.5;"/><text fill="#000000" font-family="sans-serif" font-size="14" lengthAdjust="spacingAndGlyphs" textLength="43" x="16.5" y="323.6533">UC258</text><!--MD5=[e642b929dc87129955db99c2cc5a8b53]
entity UC259--><ellipse cx="38" cy="1085" fill="#FEFECE" filter="url(#f10au8omd0f98w)" rx="8" ry="8" style="stroke: #A80036; stroke-width: 1.5;"/><path d="M38,1093 L38,1120 M25,1101 L51,1101 M38,1120 L25,1135 M38,1120 L51,1135 " fill="none" filter="url(#f10au8omd0f98w)" style="stroke: #A80036; stroke-width: 1.5;"/><text fill="#000000" font-family="sans-serif" font-size="14" lengthAdjust="spacingAndGlyphs" textLength="43" x="16.5" y="1156.6533">UC259</text><!--MD5=[6e5b8b9080bf40386e983222e37dc0c6]
entity actor2120154283--><ellipse cx="201.5" cy="133" fill="#FEFECE" filter="url(#f10au8omd0f98w)" rx="8" ry="8" style="stroke: #A80036; stroke-width: 1.5;"/><path d="M201.5,141 L201.5,168 M188.5,149 L214.5,149 M201.5,168 L188.5,183 M201.5,168 L214.5,183 " fill="none" filter="url(#f10au8omd0f98w)" style="stroke: #A80036; stroke-width: 1.5;"/><text fill="#000000" font-family="sans-serif" font-size="14" lengthAdjust="spacingAndGlyphs" textLength="126" x="138.5" y="204.6533">OutputStreamWriter</text><!--MD5=[bcb4c921b4facdd897102c977c493b54]
entity UC260--><ellipse cx="38" cy="133" fill="#FEFECE" filter="url(#f10au8omd0f98w)" rx="8" ry="8" style="stroke: #A80036; stroke-width: 1.5;"/><path d="M38,141 L38,168 M25,149 L51,149 M38,168 L25,183 M38,168 L51,183 " fill="none" filter="url(#f10au8omd0f98w)" style="stroke: #A80036; stroke-width: 1.5;"/><text fill="#000000" font-family="sans-serif" font-size="14" lengthAdjust="spacingAndGlyphs" textLength="43" x="16.5" y="204.6533">UC260</text><!--MD5=[d11812ca287f6e2b9360f0be547853e2]
entity actor94690722--><ellipse cx="201.5" cy="14" fill="#FEFECE" filter="url(#f10au8omd0f98w)" rx="8" ry="8" style="stroke: #A80036; stroke-width: 1.5;"/><path d="M201.5,22 L201.5,49 M188.5,30 L214.5,30 M201.5,49 L188.5,64 M201.5,49 L214.5,64 " fill="none" filter="url(#f10au8omd0f98w)" style="stroke: #A80036; stroke-width: 1.5;"/><text fill="#000000" font-family="sans-serif" font-size="14" lengthAdjust="spacingAndGlyphs" textLength="38" x="182.5" y="85.6533">Writer</text><!--MD5=[2662f34ec8be7bb01516b86951b17ca2]
entity UC261--><ellipse cx="38" cy="14" fill="#FEFECE" filter="url(#f10au8omd0f98w)" rx="8" ry="8" style="stroke: #A80036; stroke-width: 1.5;"/><path d="M38,22 L38,49 M25,30 L51,30 M38,49 L25,64 M38,49 L51,64 " fill="none" filter="url(#f10au8omd0f98w)" style="stroke: #A80036; stroke-width: 1.5;"/><text fill="#000000" font-family="sans-serif" font-size="14" lengthAdjust="spacingAndGlyphs" textLength="43" x="16.5" y="85.6533">UC261</text><!--MD5=[5265237316be7c4b407e7925c901e42e]
link actor1861416877 to UC2131723476--><path d="M40.27,2185.15 C43.98,2088.96 57.81,1857.85 106,1799.5 C120.88,1781.49 146.07,1773.01 166.71,1769.03 " fill="none" id="actor1861416877-UC2131723476" style="stroke: #A80036; stroke-width: 1.0;"/><!--MD5=[b34c0d0bdf565723b46c46f2d086c00d]
link actor1861416877 to UC115297013--><path d="M41.66,2185.26 C47.81,2100.77 65.64,1914.96 106,1867.5 C122.27,1848.37 150.13,1840.01 171.4,1836.35 " fill="none" id="actor1861416877-UC115297013" style="stroke: #A80036; stroke-width: 1.0;"/><!--MD5=[9f7934e4b37c998079170b99c7f32e8e]
link actor1861416877 to UC628694336--><path d="M44.36,2185.15 C51.59,2136.34 68.25,2056.43 106,1997.5 C127.91,1963.29 169.35,1936.34 189.27,1917.77 " fill="none" id="actor1861416877-UC628694336" style="stroke: #A80036; stroke-width: 1.0;"/><!--MD5=[9f7934e4b37c998079170b99c7f32e8e]
link actor1861416877 to UC628694336--><path d="M41.41,2185.35 C46.5,2129.35 61.78,2031.53 106,1962.5 C119.03,1942.15 138.97,1924.38 157.18,1912.41 " fill="none" id="actor1861416877-UC628694336-1" style="stroke: #A80036; stroke-width: 1.0;"/><!--MD5=[cb165a62ed31f5f267131d0fcc9283fa]
link UC246 to actor188193734--><path d="M59.78,1497.41 C89.34,1529.99 143.47,1589.64 175.29,1624.71 " fill="none" id="UC246-actor188193734" style="stroke: #A80036; stroke-width: 1.0;"/><!--MD5=[f0d76377a20d3b419934ee6b2c0c5198]
link UC247 to actor652803980--><path d="M59.78,1355.5 C86.19,1355.5 132.21,1355.5 164.41,1355.5 " fill="none" id="UC247-actor652803980" style="stroke: #A80036; stroke-width: 1.0;"/><!--MD5=[fbf7236fdb1de68d3059262e9e6bb7ef]
link UC248 to actor1520921298--><path d="M59.78,1236.5 C89.51,1236.5 144.1,1236.5 175.84,1236.5 " fill="none" id="UC248-actor1520921298" style="stroke: #A80036; stroke-width: 1.0;"/><!--MD5=[73aafb1767a07911988a5590d10bc186]
link actor1861416877 to UC1510333744--><path d="M47.18,2185.34 C55.64,2148.81 72.57,2097.56 106,2064.5 C126.83,2043.9 161.02,2035.7 182.06,2027.68 " fill="none" id="actor1861416877-UC1510333744" style="stroke: #A80036; stroke-width: 1.0;"/><!--MD5=[73aafb1767a07911988a5590d10bc186]
link actor1861416877 to UC1510333744--><path d="M42.37,2185.3 C48.35,2139.98 64.39,2070.65 106,2029.5 C124.35,2011.35 153.06,2002.83 174.03,2002.34 " fill="none" id="actor1861416877-UC1510333744-1" style="stroke: #A80036; stroke-width: 1.0;"/><!--MD5=[1cb026c273e64d81b18e9a9d407ce97d]
link actor1861416877 to UC458385820--><path d="M70.13,2195.21 C81.24,2184 93.98,2171.49 106,2160.5 C131.72,2136.98 163,2111.38 182.33,2095.89 " fill="none" id="actor1861416877-UC458385820" style="stroke: #A80036; stroke-width: 1.0;"/><!--MD5=[ebb7f9e4d6272a866b751349be1bf356]
link UC249 to actor230610941--><path d="M59.78,894.81 C85.26,913.58 128.97,945.79 160.93,969.34 " fill="none" id="UC249-actor230610941" style="stroke: #A80036; stroke-width: 1.0;"/><!--MD5=[fa462a9119b0bf18a2da078f17f4c8bb]
link UC250 to actor230610941--><path d="M59.78,998.5 C85.26,998.5 128.97,998.5 160.93,998.5 " fill="none" id="UC250-actor230610941" style="stroke: #A80036; stroke-width: 1.0;"/><!--MD5=[9a964dcf5e65caef88287de0d01732db]
link actor1861416877 to UC293618119--><path d="M70.14,2220.94 C103.32,2213.96 154.75,2203.13 182.03,2197.39 " fill="none" id="actor1861416877-UC293618119" style="stroke: #A80036; stroke-width: 1.0;"/><!--MD5=[550f76d003a3ea52aa4afcd07c052c3b]
link actor1861416877 to UC872699266--><path d="M70.14,2244.37 C93.33,2251.89 125.43,2259.14 151.98,2263.09 " fill="none" id="actor1861416877-UC872699266" style="stroke: #A80036; stroke-width: 1.0;"/><!--MD5=[550f76d003a3ea52aa4afcd07c052c3b]
link actor1861416877 to UC872699266--><path d="M70.14,2223.14 C101.67,2225.97 149.68,2236.48 177.79,2246.99 " fill="none" id="actor1861416877-UC872699266-1" style="stroke: #A80036; stroke-width: 1.0;"/><!--MD5=[a5f0d929ec2d10a220af6972d2788b13]
link actor1861416877 to UC1150063356--><path d="M60.56,2269.71 C72.69,2285.39 88.83,2301.52 106,2312.5 C113.93,2317.57 122.72,2322.02 131.66,2325.72 " fill="none" id="actor1861416877-UC1150063356" style="stroke: #A80036; stroke-width: 1.0;"/><!--MD5=[a5f0d929ec2d10a220af6972d2788b13]
link actor1861416877 to UC1150063356--><path d="M70.11,2247.86 C80.62,2257.95 93.02,2269.19 106,2277.5 C131.12,2293.57 164.84,2303.34 184.47,2313.42 " fill="none" id="actor1861416877-UC1150063356-1" style="stroke: #A80036; stroke-width: 1.0;"/><!--MD5=[56a06debe3bf742d4e01d1c4f9065042]
link actor1861416877 to UC30604162--><path d="M50.45,2269.57 C60.56,2299.48 78.13,2338.6 106,2363.5 C120.43,2376.4 140.12,2384.5 157.78,2389.54 " fill="none" id="actor1861416877-UC30604162" style="stroke: #A80036; stroke-width: 1.0;"/><!--MD5=[5cbad276b9f3c476bb9189861a87883d]
link UC251 to actor517787604--><path d="M59.78,537.81 C86.87,557.78 134.6,592.94 166.87,616.72 " fill="none" id="UC251-actor517787604" style="stroke: #A80036; stroke-width: 1.0;"/><!--MD5=[1590547679ff25cb6bc27ab264d68826]
link UC252 to actor188193734--><path d="M59.78,1601.09 C89.34,1611.89 143.47,1631.67 175.29,1643.29 " fill="none" id="UC252-actor188193734" style="stroke: #A80036; stroke-width: 1.0;"/><!--MD5=[7349527a54c0e54309a50a7ade0bbf32]
link UC253 to actor517787604--><path d="M59.78,641.5 C86.87,641.5 134.6,641.5 166.87,641.5 " fill="none" id="UC253-actor517787604" style="stroke: #A80036; stroke-width: 1.0;"/><!--MD5=[54be4c72c09b74423fabc6ac662a126c]
link UC254 to actor188193734--><path d="M59.78,1704.78 C89.34,1693.8 143.47,1673.69 175.29,1661.87 " fill="none" id="UC254-actor188193734" style="stroke: #A80036; stroke-width: 1.0;"/><!--MD5=[a7892661efb087e793aafe32da7d470a]
link UC255 to actor170611939--><path d="M59.78,403.5 C88.75,403.5 141.3,403.5 173.33,403.5 " fill="none" id="UC255-actor170611939" style="stroke: #A80036; stroke-width: 1.0;"/><!--MD5=[f6de24a507ff218285841d29f9a503de]
link actor1861416877 to UC2126545173--><path d="M45.88,2269.79 C54.47,2313.1 72.32,2380.92 106,2430.5 C127.15,2461.63 163.88,2487.3 184.78,2500.3 " fill="none" id="actor1861416877-UC2126545173" style="stroke: #A80036; stroke-width: 1.0;"/><!--MD5=[886c177dc71cf71c055252e7efe86d66]
link UC256 to actor517787604--><path d="M59.78,745.19 C86.87,725.22 134.6,690.06 166.87,666.28 " fill="none" id="UC256-actor517787604" style="stroke: #A80036; stroke-width: 1.0;"/><!--MD5=[038172e856d299b2205ea55f08879917]
link UC257 to actor188193734--><path d="M59.77,1795.89 C72.03,1776.24 88.53,1751.96 106,1732.5 C127.11,1708.99 155.14,1686.1 175.17,1670.87 " fill="none" id="UC257-actor188193734" style="stroke: #A80036; stroke-width: 1.0;"/><!--MD5=[42c1bd46ffa3cd7a391b075803c21d7b]
link UC258 to actor1407009494--><path d="M59.78,284.5 C91.13,284.5 150.11,284.5 180.81,284.5 " fill="none" id="UC258-actor1407009494" style="stroke: #A80036; stroke-width: 1.0;"/><!--MD5=[c5b6580ee1a21fdc237c9eeb4579470c]
link UC259 to actor230610941--><path d="M59.78,1102.19 C85.26,1083.42 128.97,1051.21 160.93,1027.66 " fill="none" id="UC259-actor230610941" style="stroke: #A80036; stroke-width: 1.0;"/><!--MD5=[63551822366462bc1c28ef4adf4e21c4]
link actor1861416877 to UC38851648--><path d="M39.41,2269.66 C41.82,2333.23 53.58,2455.45 106,2542.5 C124.86,2573.83 160.69,2598.55 182.4,2611.52 " fill="none" id="actor1861416877-UC38851648" style="stroke: #A80036; stroke-width: 1.0;"/><!--MD5=[4de0fa389bb8947023a965c5580790c9]
link actor1861416877 to UC1992844647--><path d="M40.27,2269.85 C43.98,2366.04 57.81,2597.15 106,2655.5 C122.99,2676.07 153.42,2684.2 175.17,2687.41 " fill="none" id="actor1861416877-UC1992844647" style="stroke: #A80036; stroke-width: 1.0;"/><!--MD5=[d35b7430f8f4a089a68c2e5feb71e88e]
link UC260 to actor2120154283--><path d="M59.78,165.5 C79.63,165.5 110.56,165.5 138.37,165.5 " fill="none" id="UC260-actor2120154283" style="stroke: #A80036; stroke-width: 1.0;"/><!--MD5=[33b0cee559cf9e6f6c95990c291c2042]
link UC261 to actor94690722--><path d="M59.78,46.5 C91.64,46.5 152.04,46.5 182.29,46.5 " fill="none" id="UC261-actor94690722" style="stroke: #A80036; stroke-width: 1.0;"/><!--MD5=[92d4da0745a8fd247fc21a1775c54b1f]
@startuml
 left to right direction

actor Sequence as actor1861416877

	rectangle main{
	 usecase waitFor as UC2131723476
	actor1861416877- -UC2131723476
	 usecase println as UC115297013
	actor1861416877- -UC115297013
	 usecase getClassList as UC628694336
	actor1861416877- -UC628694336
	}
	actor DataList as actor188193734
	 UC246 - - actor188193734
	actor PrintStream as actor652803980
	 UC247 - - actor652803980
	actor Process as actor1520921298
	 UC248 - - actor1520921298
	rectangle makeString{
	 usecase append as UC1510333744
	actor1861416877- -UC1510333744
	 usecase toString as UC458385820
	actor1861416877- -UC458385820
	}
	actor StringBuilder as actor230610941
	 UC249 - - actor230610941
	actor StringBuilder as actor230610941
	 UC250 - - actor230610941
	rectangle getCallerFunList{
	 usecase add as UC293618119
	actor1861416877- -UC293618119
	 usecase getClassList as UC628694336
	actor1861416877- -UC628694336
	 usecase getCallList as UC872699266
	actor1861416877- -UC872699266
	 usecase getFunctionList as UC1150063356
	actor1861416877- -UC1150063356
	 usecase getHasList as UC30604162
	actor1861416877- -UC30604162
	}
	actor Data_base as actor517787604
	 UC251 - - actor517787604
	actor DataList as actor188193734
	 UC252 - - actor188193734
	actor Data_base as actor517787604
	 UC253 - - actor517787604
	actor DataList as actor188193734
	 UC254 - - actor188193734
	actor ArrayList as actor170611939
	 UC255 - - actor170611939
	rectangle drawConnect{
	 usecase append as UC1510333744
	actor1861416877- -UC1510333744
	 usecase add as UC2126545173
	actor1861416877- -UC2126545173
	 usecase getFunctionList as UC1150063356
	actor1861416877- -UC1150063356
	 usecase getCallList as UC872699266
	actor1861416877- -UC872699266
	}
	actor Data_base as actor517787604
	 UC256 - - actor517787604
	actor DataList as actor188193734
	 UC257 - - actor188193734
	actor Vector as actor1407009494
	 UC258 - - actor1407009494
	actor StringBuilder as actor230610941
	 UC259 - - actor230610941
	rectangle makeFile{
	 usecase write as UC38851648
	actor1861416877- -UC38851648
	 usecase close as UC1992844647
	actor1861416877- -UC1992844647
	}
	actor OutputStreamWriter as actor2120154283
	 UC260 - - actor2120154283
	actor Writer as actor94690722
	 UC261 - - actor94690722

@enduml

PlantUML version 1.2020.19(Tue Oct 13 00:10:01 KST 2020)
(APACHE source distribution)
Java Runtime: Java(TM) SE Runtime Environment
JVM: Java HotSpot(TM) 64-Bit Server VM
Default Encoding: MS949
Language: ko
Country: KR
--></g></svg>