<?xml version="1.0" encoding="UTF-8" standalone="no"?><svg xmlns="http://www.w3.org/2000/svg" xmlns:xlink="http://www.w3.org/1999/xlink" contentScriptType="application/ecmascript" contentStyleType="text/css" height="213px" preserveAspectRatio="none" style="width:290px;height:213px;" version="1.1" viewBox="0 0 290 213" width="290px" zoomAndPan="magnify"><defs><filter height="300%" id="fy0pno832h0ww" width="300%" x="-1" y="-1"><feGaussianBlur result="blurOut" stdDeviation="2.0"/><feColorMatrix in="blurOut" result="blurOut2" type="matrix" values="0 0 0 0 0 0 0 0 0 0 0 0 0 0 0 0 0 0 .4 0"/><feOffset dx="4.0" dy="4.0" in="blurOut2" result="blurOut3"/><feBlend in="SourceGraphic" in2="blurOut3" mode="normal"/></filter></defs><g><!--MD5=[a70b0d373322012744ecc119c63f921b]
cluster main--><rect fill="#FFFFFF" filter="url(#fy0pno832h0ww)" height="88" style="stroke: #000000; stroke-width: 1.5;" width="131" x="147" y="110.5"/><text fill="#000000" font-family="sans-serif" font-size="14" font-weight="bold" lengthAdjust="spacingAndGlyphs" textLength="33" x="196" y="128.6533">main</text><ellipse cx="212.669" cy="165.5973" fill="#FEFECE" filter="url(#fy0pno832h0ww)" rx="49.669" ry="16.5973" style="stroke: #A80036; stroke-width: 1.5;"/><text fill="#000000" font-family="sans-serif" font-size="14" lengthAdjust="spacingAndGlyphs" textLength="66" x="179.669" y="171.7121">getHasList</text><!--MD5=[171cc5fad69f7267e64b10637c846f46]
entity actor1246807878--><ellipse cx="54.5" cy="133" fill="#FEFECE" filter="url(#fy0pno832h0ww)" rx="8" ry="8" style="stroke: #A80036; stroke-width: 1.5;"/><path d="M54.5,141 L54.5,168 M41.5,149 L67.5,149 M54.5,168 L41.5,183 M54.5,168 L67.5,183 " fill="none" filter="url(#fy0pno832h0ww)" style="stroke: #A80036; stroke-width: 1.5;"/><text fill="#000000" font-family="sans-serif" font-size="14" lengthAdjust="spacingAndGlyphs" textLength="97" x="6" y="204.6533">ClassUmlMaker</text><!--MD5=[d90094311435cfb86829af3e65eedad8]
entity actor517787604--><ellipse cx="212.5" cy="14" fill="#FEFECE" filter="url(#fy0pno832h0ww)" rx="8" ry="8" style="stroke: #A80036; stroke-width: 1.5;"/><path d="M212.5,22 L212.5,49 M199.5,30 L225.5,30 M212.5,49 L199.5,64 M212.5,49 L225.5,64 " fill="none" filter="url(#fy0pno832h0ww)" style="stroke: #A80036; stroke-width: 1.5;"/><text fill="#000000" font-family="sans-serif" font-size="14" lengthAdjust="spacingAndGlyphs" textLength="69" x="178" y="85.6533">Data_base</text><!--MD5=[d855841addedfbfd824a4cc5cd1d43b0]
entity UC139--><ellipse cx="54.5" cy="14" fill="#FEFECE" filter="url(#fy0pno832h0ww)" rx="8" ry="8" style="stroke: #A80036; stroke-width: 1.5;"/><path d="M54.5,22 L54.5,49 M41.5,30 L67.5,30 M54.5,49 L41.5,64 M54.5,49 L67.5,64 " fill="none" filter="url(#fy0pno832h0ww)" style="stroke: #A80036; stroke-width: 1.5;"/><text fill="#000000" font-family="sans-serif" font-size="14" lengthAdjust="spacingAndGlyphs" textLength="43" x="33" y="85.6533">UC139</text><!--MD5=[61b5c29cdd3c236e2e464d9a040d0aa2]
link actor1246807878 to UC30604162--><path d="M103.15,165.5 C122.06,165.5 143.78,165.5 162.79,165.5 " fill="none" id="actor1246807878-UC30604162" style="stroke: #A80036; stroke-width: 1.0;"/><!--MD5=[b604fc8b5a020a26cacd3f8475b3127d]
link UC139 to actor517787604--><path d="M76.22,46.5 C102.16,46.5 146.94,46.5 177.83,46.5 " fill="none" id="UC139-actor517787604" style="stroke: #A80036; stroke-width: 1.0;"/><!--MD5=[59b48a6baac2e300f064fb1afc651919]
@startuml
 left to right direction

actor ClassUmlMaker as actor1246807878

	rectangle main{
	 usecase getHasList as UC30604162
	actor1246807878- -UC30604162
	}
	actor Data_base as actor517787604
	 UC139 - - actor517787604

@enduml

PlantUML version 1.2020.19(Tue Oct 13 00:10:01 KST 2020)
(APACHE source distribution)
Java Runtime: Java(TM) SE Runtime Environment
JVM: Java HotSpot(TM) 64-Bit Server VM
Default Encoding: MS949
Language: ko
Country: KR
--></g></svg>