<?xml version="1.0" encoding="UTF-8" standalone="no"?><svg xmlns="http://www.w3.org/2000/svg" xmlns:xlink="http://www.w3.org/1999/xlink" contentScriptType="application/ecmascript" contentStyleType="text/css" height="4667px" preserveAspectRatio="none" style="width:385px;height:4667px;" version="1.1" viewBox="0 0 385 4667" width="385px" zoomAndPan="magnify"><defs><filter height="300%" id="ftd5ft5yvoh1p" width="300%" x="-1" y="-1"><feGaussianBlur result="blurOut" stdDeviation="2.0"/><feColorMatrix in="blurOut" result="blurOut2" type="matrix" values="0 0 0 0 0 0 0 0 0 0 0 0 0 0 0 0 0 0 .4 0"/><feOffset dx="4.0" dy="4.0" in="blurOut2" result="blurOut3"/><feBlend in="SourceGraphic" in2="blurOut3" mode="normal"/></filter></defs><g><!--MD5=[a70b0d373322012744ecc119c63f921b]
cluster main--><rect fill="#FFFFFF" filter="url(#ftd5ft5yvoh1p)" height="292" style="stroke: #000000; stroke-width: 1.5;" width="140" x="215.5" y="3079.5"/><text fill="#000000" font-family="sans-serif" font-size="14" font-weight="bold" lengthAdjust="spacingAndGlyphs" textLength="33" x="269" y="3097.6533">main</text><!--MD5=[b4ad4898268678f15fc8d4512d654a18]
cluster draw--><rect fill="#FFFFFF" filter="url(#ftd5ft5yvoh1p)" height="224" style="stroke: #000000; stroke-width: 1.5;" width="175" x="198" y="3395.5"/><text fill="#000000" font-family="sans-serif" font-size="14" font-weight="bold" lengthAdjust="spacingAndGlyphs" textLength="34" x="268.5" y="3413.6533">draw</text><!--MD5=[19cf646e193b9a40ce20afd4a39c7868]
cluster makeDateFolder--><rect fill="#FFFFFF" filter="url(#ftd5ft5yvoh1p)" height="88" style="stroke: #000000; stroke-width: 1.5;" width="131" x="220.5" y="3643.5"/><text fill="#000000" font-family="sans-serif" font-size="14" font-weight="bold" lengthAdjust="spacingAndGlyphs" textLength="115" x="228.5" y="3661.6533">makeDateFolder</text><!--MD5=[6ee3fac338bc1a055eceb2e550633884]
cluster makeData_base--><rect fill="#FFFFFF" filter="url(#ftd5ft5yvoh1p)" height="156" style="stroke: #000000; stroke-width: 1.5;" width="126" x="223" y="3755.5"/><text fill="#000000" font-family="sans-serif" font-size="14" font-weight="bold" lengthAdjust="spacingAndGlyphs" textLength="110" x="231" y="3773.6533">makeData_base</text><!--MD5=[1e829f21a74d4de467c1b519aceec237]
cluster makeFile--><rect fill="#FFFFFF" filter="url(#ftd5ft5yvoh1p)" height="156" style="stroke: #000000; stroke-width: 1.5;" width="85" x="243" y="3935.5"/><text fill="#000000" font-family="sans-serif" font-size="14" font-weight="bold" lengthAdjust="spacingAndGlyphs" textLength="63" x="254" y="3953.6533">makeFile</text><!--MD5=[600e115adc72a6cbabecdb59f99145ea]
cluster classDef--><rect fill="#FFFFFF" filter="url(#ftd5ft5yvoh1p)" height="224" style="stroke: #000000; stroke-width: 1.5;" width="154" x="208.5" y="4115.5"/><text fill="#000000" font-family="sans-serif" font-size="14" font-weight="bold" lengthAdjust="spacingAndGlyphs" textLength="60" x="255.5" y="4133.6533">classDef</text><!--MD5=[f187f0e524dea2ebe3ce3bb66eee0c84]
cluster addList--><rect fill="#FFFFFF" filter="url(#ftd5ft5yvoh1p)" height="292" style="stroke: #000000; stroke-width: 1.5;" width="162" x="204.5" y="4363.5"/><text fill="#000000" font-family="sans-serif" font-size="14" font-weight="bold" lengthAdjust="spacingAndGlyphs" textLength="51" x="260" y="4381.6533">addList</text><ellipse cx="285.5061" cy="3134.5973" fill="#FEFECE" filter="url(#ftd5ft5yvoh1p)" rx="23.5061" ry="16.5973" style="stroke: #A80036; stroke-width: 1.5;"/><text fill="#000000" font-family="sans-serif" font-size="14" lengthAdjust="spacingAndGlyphs" textLength="29" x="271.0061" y="3140.7121">exec</text><ellipse cx="285.4117" cy="3202.5973" fill="#FEFECE" filter="url(#ftd5ft5yvoh1p)" rx="53.9117" ry="16.5973" style="stroke: #A80036; stroke-width: 1.5;"/><text fill="#000000" font-family="sans-serif" font-size="14" lengthAdjust="spacingAndGlyphs" textLength="72" x="249.4117" y="3208.7121">getRuntime</text><ellipse cx="285.5269" cy="3270.5973" fill="#FEFECE" filter="url(#ftd5ft5yvoh1p)" rx="35.5269" ry="16.5973" style="stroke: #A80036; stroke-width: 1.5;"/><text fill="#000000" font-family="sans-serif" font-size="14" lengthAdjust="spacingAndGlyphs" textLength="46" x="262.5269" y="3276.7121">waitFor</text><ellipse cx="285.5772" cy="3338.5973" fill="#FEFECE" filter="url(#ftd5ft5yvoh1p)" rx="30.5772" ry="16.5973" style="stroke: #A80036; stroke-width: 1.5;"/><text fill="#000000" font-family="sans-serif" font-size="14" lengthAdjust="spacingAndGlyphs" textLength="39" x="266.0772" y="3344.7121">println</text><ellipse cx="285.4472" cy="3450.5973" fill="#FEFECE" filter="url(#ftd5ft5yvoh1p)" rx="57.4472" ry="16.5973" style="stroke: #A80036; stroke-width: 1.5;"/><text fill="#000000" font-family="sans-serif" font-size="14" lengthAdjust="spacingAndGlyphs" textLength="77" x="246.9472" y="3456.7121">getClassList</text><ellipse cx="285.2886" cy="3518.6577" fill="#FEFECE" filter="url(#ftd5ft5yvoh1p)" rx="71.2886" ry="16.6577" style="stroke: #A80036; stroke-width: 1.5;"/><text fill="#000000" font-family="sans-serif" font-size="14" lengthAdjust="spacingAndGlyphs" textLength="97" x="236.7886" y="3524.7725">getFunctionList</text><ellipse cx="285.2609" cy="3586.5973" fill="#FEFECE" filter="url(#ftd5ft5yvoh1p)" rx="68.7609" ry="16.5973" style="stroke: #A80036; stroke-width: 1.5;"/><text fill="#000000" font-family="sans-serif" font-size="14" lengthAdjust="spacingAndGlyphs" textLength="93" x="238.7609" y="3592.7121">getMemberList</text><ellipse cx="285.5416" cy="3698.5973" fill="#FEFECE" filter="url(#ftd5ft5yvoh1p)" rx="27.0416" ry="16.5973" style="stroke: #A80036; stroke-width: 1.5;"/><text fill="#000000" font-family="sans-serif" font-size="14" lengthAdjust="spacingAndGlyphs" textLength="34" x="268.5416" y="3704.7121">mkdir</text><!--MD5=[daf60f13c572e329bb430479c6f3e6fd]
entity makeDataListFolder--><rect fill="#FFFFFF" filter="url(#ftd5ft5yvoh1p)" height="39.2295" style="stroke: #000000; stroke-width: 1.5;" width="147" x="7" y="3776"/><text fill="#000000" font-family="sans-serif" font-size="14" lengthAdjust="spacingAndGlyphs" textLength="127" x="17" y="3802.1533">makeDataListFolder</text><ellipse cx="285.4411" cy="3810.5973" fill="#FEFECE" filter="url(#ftd5ft5yvoh1p)" rx="36.9411" ry="16.5973" style="stroke: #A80036; stroke-width: 1.5;"/><text fill="#000000" font-family="sans-serif" font-size="14" lengthAdjust="spacingAndGlyphs" textLength="48" x="261.4411" y="3816.7121">append</text><ellipse cx="285.6482" cy="3878.5973" fill="#FEFECE" filter="url(#ftd5ft5yvoh1p)" rx="37.6482" ry="16.5973" style="stroke: #A80036; stroke-width: 1.5;"/><text fill="#000000" font-family="sans-serif" font-size="14" lengthAdjust="spacingAndGlyphs" textLength="49" x="261.1482" y="3884.7121">toString</text><ellipse cx="285.5061" cy="3990.5973" fill="#FEFECE" filter="url(#ftd5ft5yvoh1p)" rx="23.5061" ry="16.5973" style="stroke: #A80036; stroke-width: 1.5;"/><text fill="#000000" font-family="sans-serif" font-size="14" lengthAdjust="spacingAndGlyphs" textLength="29" x="271.0061" y="3996.7121">write</text><ellipse cx="285.3345" cy="4058.5973" fill="#FEFECE" filter="url(#ftd5ft5yvoh1p)" rx="26.3345" ry="16.5973" style="stroke: #A80036; stroke-width: 1.5;"/><text fill="#000000" font-family="sans-serif" font-size="14" lengthAdjust="spacingAndGlyphs" textLength="33" x="268.8345" y="4064.7121">close</text><ellipse cx="285.669" cy="4170.5973" fill="#FEFECE" filter="url(#ftd5ft5yvoh1p)" rx="49.669" ry="16.5973" style="stroke: #A80036; stroke-width: 1.5;"/><text fill="#000000" font-family="sans-serif" font-size="14" lengthAdjust="spacingAndGlyphs" textLength="66" x="252.669" y="4176.7121">getHasList</text><ellipse cx="285.669" cy="4238.5973" fill="#FEFECE" filter="url(#ftd5ft5yvoh1p)" rx="49.669" ry="16.5973" style="stroke: #A80036; stroke-width: 1.5;"/><text fill="#000000" font-family="sans-serif" font-size="14" lengthAdjust="spacingAndGlyphs" textLength="66" x="252.669" y="4244.7121">getCallList</text><ellipse cx="285.4828" cy="4306.5973" fill="#FEFECE" filter="url(#ftd5ft5yvoh1p)" rx="60.9828" ry="16.5973" style="stroke: #A80036; stroke-width: 1.5;"/><text fill="#000000" font-family="sans-serif" font-size="14" lengthAdjust="spacingAndGlyphs" textLength="82" x="244.4828" y="4312.7121">getCallByList</text><ellipse cx="285.598" cy="4418.5973" fill="#FEFECE" filter="url(#ftd5ft5yvoh1p)" rx="42.598" ry="16.5973" style="stroke: #A80036; stroke-width: 1.5;"/><text fill="#000000" font-family="sans-serif" font-size="14" lengthAdjust="spacingAndGlyphs" textLength="56" x="257.598" y="4424.7121">getName</text><ellipse cx="285.7254" cy="4486.5973" fill="#FEFECE" filter="url(#ftd5ft5yvoh1p)" rx="65.2254" ry="16.5973" style="stroke: #A80036; stroke-width: 1.5;"/><text fill="#000000" font-family="sans-serif" font-size="14" lengthAdjust="spacingAndGlyphs" textLength="88" x="241.7254" y="4492.7121">getTypeName</text><ellipse cx="285.7254" cy="4554.5973" fill="#FEFECE" filter="url(#ftd5ft5yvoh1p)" rx="65.2254" ry="16.5973" style="stroke: #A80036; stroke-width: 1.5;"/><text fill="#000000" font-family="sans-serif" font-size="14" lengthAdjust="spacingAndGlyphs" textLength="88" x="241.7254" y="4560.7121">getTypeName</text><ellipse cx="285.2843" cy="4622.5973" fill="#FEFECE" filter="url(#ftd5ft5yvoh1p)" rx="31.2843" ry="16.5973" style="stroke: #A80036; stroke-width: 1.5;"/><text fill="#000000" font-family="sans-serif" font-size="14" lengthAdjust="spacingAndGlyphs" textLength="40" x="265.2843" y="4628.7121">getSig</text><!--MD5=[96770f595d129f432d7a0d1ae868de57]
entity actor923366543--><ellipse cx="80.5" cy="3666" fill="#FEFECE" filter="url(#ftd5ft5yvoh1p)" rx="8" ry="8" style="stroke: #A80036; stroke-width: 1.5;"/><path d="M80.5,3674 L80.5,3701 M67.5,3682 L93.5,3682 M80.5,3701 L67.5,3716 M80.5,3701 L93.5,3716 " fill="none" filter="url(#ftd5ft5yvoh1p)" style="stroke: #A80036; stroke-width: 1.5;"/><text fill="#000000" font-family="sans-serif" font-size="14" lengthAdjust="spacingAndGlyphs" textLength="105" x="28" y="3737.6533">DataListDiagram</text><!--MD5=[2699aedbcd2b1f3b132d3903ac9b60ef]
entity actor652803980--><ellipse cx="285.5" cy="2989" fill="#FEFECE" filter="url(#ftd5ft5yvoh1p)" rx="8" ry="8" style="stroke: #A80036; stroke-width: 1.5;"/><path d="M285.5,2997 L285.5,3024 M272.5,3005 L298.5,3005 M285.5,3024 L272.5,3039 M285.5,3024 L298.5,3039 " fill="none" filter="url(#ftd5ft5yvoh1p)" style="stroke: #A80036; stroke-width: 1.5;"/><text fill="#000000" font-family="sans-serif" font-size="14" lengthAdjust="spacingAndGlyphs" textLength="74" x="248.5" y="3060.6533">PrintStream</text><!--MD5=[96a518cfd4329ad69c35581ddf4e99a3]
entity UC0--><ellipse cx="80.5" cy="2870" fill="#FEFECE" filter="url(#ftd5ft5yvoh1p)" rx="8" ry="8" style="stroke: #A80036; stroke-width: 1.5;"/><path d="M80.5,2878 L80.5,2905 M67.5,2886 L93.5,2886 M80.5,2905 L67.5,2920 M80.5,2905 L93.5,2920 " fill="none" filter="url(#ftd5ft5yvoh1p)" style="stroke: #A80036; stroke-width: 1.5;"/><text fill="#000000" font-family="sans-serif" font-size="14" lengthAdjust="spacingAndGlyphs" textLength="27" x="67" y="2941.6533">UC0</text><!--MD5=[25172bbf95bdbbdb21e6a8bcedfbc865]
entity actor1520921298--><ellipse cx="285.5" cy="2751" fill="#FEFECE" filter="url(#ftd5ft5yvoh1p)" rx="8" ry="8" style="stroke: #A80036; stroke-width: 1.5;"/><path d="M285.5,2759 L285.5,2786 M272.5,2767 L298.5,2767 M285.5,2786 L272.5,2801 M285.5,2786 L298.5,2801 " fill="none" filter="url(#ftd5ft5yvoh1p)" style="stroke: #A80036; stroke-width: 1.5;"/><text fill="#000000" font-family="sans-serif" font-size="14" lengthAdjust="spacingAndGlyphs" textLength="51" x="260" y="2822.6533">Process</text><!--MD5=[17e3b8bc59238d26785a07056938f79f]
entity UC1--><ellipse cx="80.5" cy="2751" fill="#FEFECE" filter="url(#ftd5ft5yvoh1p)" rx="8" ry="8" style="stroke: #A80036; stroke-width: 1.5;"/><path d="M80.5,2759 L80.5,2786 M67.5,2767 L93.5,2767 M80.5,2786 L67.5,2801 M80.5,2786 L93.5,2801 " fill="none" filter="url(#ftd5ft5yvoh1p)" style="stroke: #A80036; stroke-width: 1.5;"/><text fill="#000000" font-family="sans-serif" font-size="14" lengthAdjust="spacingAndGlyphs" textLength="27" x="67" y="2822.6533">UC1</text><!--MD5=[6fb069653bc4eca858f58303df485e78]
entity actor1494051958--><ellipse cx="285.5" cy="2572" fill="#FEFECE" filter="url(#ftd5ft5yvoh1p)" rx="8" ry="8" style="stroke: #A80036; stroke-width: 1.5;"/><path d="M285.5,2580 L285.5,2607 M272.5,2588 L298.5,2588 M285.5,2607 L272.5,2622 M285.5,2607 L298.5,2622 " fill="none" filter="url(#ftd5ft5yvoh1p)" style="stroke: #A80036; stroke-width: 1.5;"/><text fill="#000000" font-family="sans-serif" font-size="14" lengthAdjust="spacingAndGlyphs" textLength="52" x="259.5" y="2643.6533">Runtime</text><!--MD5=[bdebc2d1d2c350424490cbec0cc4420c]
entity UC2--><ellipse cx="80.5" cy="2513" fill="#FEFECE" filter="url(#ftd5ft5yvoh1p)" rx="8" ry="8" style="stroke: #A80036; stroke-width: 1.5;"/><path d="M80.5,2521 L80.5,2548 M67.5,2529 L93.5,2529 M80.5,2548 L67.5,2563 M80.5,2548 L93.5,2563 " fill="none" filter="url(#ftd5ft5yvoh1p)" style="stroke: #A80036; stroke-width: 1.5;"/><text fill="#000000" font-family="sans-serif" font-size="14" lengthAdjust="spacingAndGlyphs" textLength="27" x="67" y="2584.6533">UC2</text><!--MD5=[5b05328f2cbc6e7828355a402da84d2e]
entity UC3--><ellipse cx="80.5" cy="2632" fill="#FEFECE" filter="url(#ftd5ft5yvoh1p)" rx="8" ry="8" style="stroke: #A80036; stroke-width: 1.5;"/><path d="M80.5,2640 L80.5,2667 M67.5,2648 L93.5,2648 M80.5,2667 L67.5,2682 M80.5,2667 L93.5,2682 " fill="none" filter="url(#ftd5ft5yvoh1p)" style="stroke: #A80036; stroke-width: 1.5;"/><text fill="#000000" font-family="sans-serif" font-size="14" lengthAdjust="spacingAndGlyphs" textLength="27" x="67" y="2703.6533">UC3</text><!--MD5=[2402d7512d9aa01d473b8fba52e12d98]
entity actor188193734--><ellipse cx="285.5" cy="2096" fill="#FEFECE" filter="url(#ftd5ft5yvoh1p)" rx="8" ry="8" style="stroke: #A80036; stroke-width: 1.5;"/><path d="M285.5,2104 L285.5,2131 M272.5,2112 L298.5,2112 M285.5,2131 L272.5,2146 M285.5,2131 L298.5,2146 " fill="none" filter="url(#ftd5ft5yvoh1p)" style="stroke: #A80036; stroke-width: 1.5;"/><text fill="#000000" font-family="sans-serif" font-size="14" lengthAdjust="spacingAndGlyphs" textLength="52" x="259.5" y="2167.6533">DataList</text><!--MD5=[27aa362998f3ffa1c3af64d783066071]
entity UC4--><ellipse cx="80.5" cy="1799" fill="#FEFECE" filter="url(#ftd5ft5yvoh1p)" rx="8" ry="8" style="stroke: #A80036; stroke-width: 1.5;"/><path d="M80.5,1807 L80.5,1834 M67.5,1815 L93.5,1815 M80.5,1834 L67.5,1849 M80.5,1834 L93.5,1849 " fill="none" filter="url(#ftd5ft5yvoh1p)" style="stroke: #A80036; stroke-width: 1.5;"/><text fill="#000000" font-family="sans-serif" font-size="14" lengthAdjust="spacingAndGlyphs" textLength="27" x="67" y="1870.6533">UC4</text><!--MD5=[563d8849f4297f1440f625d981fee8a4]
entity UC5--><ellipse cx="80.5" cy="1918" fill="#FEFECE" filter="url(#ftd5ft5yvoh1p)" rx="8" ry="8" style="stroke: #A80036; stroke-width: 1.5;"/><path d="M80.5,1926 L80.5,1953 M67.5,1934 L93.5,1934 M80.5,1953 L67.5,1968 M80.5,1953 L93.5,1968 " fill="none" filter="url(#ftd5ft5yvoh1p)" style="stroke: #A80036; stroke-width: 1.5;"/><text fill="#000000" font-family="sans-serif" font-size="14" lengthAdjust="spacingAndGlyphs" textLength="27" x="67" y="1989.6533">UC5</text><!--MD5=[6d55d588bc46d8528d13a14553f0510b]
entity UC6--><ellipse cx="80.5" cy="2037" fill="#FEFECE" filter="url(#ftd5ft5yvoh1p)" rx="8" ry="8" style="stroke: #A80036; stroke-width: 1.5;"/><path d="M80.5,2045 L80.5,2072 M67.5,2053 L93.5,2053 M80.5,2072 L67.5,2087 M80.5,2072 L93.5,2087 " fill="none" filter="url(#ftd5ft5yvoh1p)" style="stroke: #A80036; stroke-width: 1.5;"/><text fill="#000000" font-family="sans-serif" font-size="14" lengthAdjust="spacingAndGlyphs" textLength="27" x="67" y="2108.6533">UC6</text><!--MD5=[347317f6aa291d8bb4f23a8bf0a90493]
entity actor2059316201--><ellipse cx="285.5" cy="1620" fill="#FEFECE" filter="url(#ftd5ft5yvoh1p)" rx="8" ry="8" style="stroke: #A80036; stroke-width: 1.5;"/><path d="M285.5,1628 L285.5,1655 M272.5,1636 L298.5,1636 M285.5,1655 L272.5,1670 M285.5,1655 L298.5,1670 " fill="none" filter="url(#ftd5ft5yvoh1p)" style="stroke: #A80036; stroke-width: 1.5;"/><text fill="#000000" font-family="sans-serif" font-size="14" lengthAdjust="spacingAndGlyphs" textLength="23" x="274" y="1691.6533">File</text><!--MD5=[dcd9671139c415c8f6235c0f0c396a1e]
entity UC7--><ellipse cx="80.5" cy="1561" fill="#FEFECE" filter="url(#ftd5ft5yvoh1p)" rx="8" ry="8" style="stroke: #A80036; stroke-width: 1.5;"/><path d="M80.5,1569 L80.5,1596 M67.5,1577 L93.5,1577 M80.5,1596 L67.5,1611 M80.5,1596 L93.5,1611 " fill="none" filter="url(#ftd5ft5yvoh1p)" style="stroke: #A80036; stroke-width: 1.5;"/><text fill="#000000" font-family="sans-serif" font-size="14" lengthAdjust="spacingAndGlyphs" textLength="27" x="67" y="1632.6533">UC7</text><!--MD5=[17013b48e7b47846b1722e9c10f1654a]
entity UC8--><ellipse cx="80.5" cy="1680" fill="#FEFECE" filter="url(#ftd5ft5yvoh1p)" rx="8" ry="8" style="stroke: #A80036; stroke-width: 1.5;"/><path d="M80.5,1688 L80.5,1715 M67.5,1696 L93.5,1696 M80.5,1715 L67.5,1730 M80.5,1715 L93.5,1730 " fill="none" filter="url(#ftd5ft5yvoh1p)" style="stroke: #A80036; stroke-width: 1.5;"/><text fill="#000000" font-family="sans-serif" font-size="14" lengthAdjust="spacingAndGlyphs" textLength="27" x="67" y="1751.6533">UC8</text><!--MD5=[37707c618d989b395830b66c81481e00]
entity UC9--><ellipse cx="80.5" cy="2989" fill="#FEFECE" filter="url(#ftd5ft5yvoh1p)" rx="8" ry="8" style="stroke: #A80036; stroke-width: 1.5;"/><path d="M80.5,2997 L80.5,3024 M67.5,3005 L93.5,3005 M80.5,3024 L67.5,3039 M80.5,3024 L93.5,3039 " fill="none" filter="url(#ftd5ft5yvoh1p)" style="stroke: #A80036; stroke-width: 1.5;"/><text fill="#000000" font-family="sans-serif" font-size="14" lengthAdjust="spacingAndGlyphs" textLength="27" x="67" y="3060.6533">UC9</text><!--MD5=[864f7e280385d8f93481e354d7c7de74]
entity actor230610941--><ellipse cx="285.5" cy="1263" fill="#FEFECE" filter="url(#ftd5ft5yvoh1p)" rx="8" ry="8" style="stroke: #A80036; stroke-width: 1.5;"/><path d="M285.5,1271 L285.5,1298 M272.5,1279 L298.5,1279 M285.5,1298 L272.5,1313 M285.5,1298 L298.5,1313 " fill="none" filter="url(#ftd5ft5yvoh1p)" style="stroke: #A80036; stroke-width: 1.5;"/><text fill="#000000" font-family="sans-serif" font-size="14" lengthAdjust="spacingAndGlyphs" textLength="81" x="245" y="1334.6533">StringBuilder</text><!--MD5=[9fd5e3654152613323d7649e6dbbdece]
entity UC10--><ellipse cx="80.5" cy="1085" fill="#FEFECE" filter="url(#ftd5ft5yvoh1p)" rx="8" ry="8" style="stroke: #A80036; stroke-width: 1.5;"/><path d="M80.5,1093 L80.5,1120 M67.5,1101 L93.5,1101 M80.5,1120 L67.5,1135 M80.5,1120 L93.5,1135 " fill="none" filter="url(#ftd5ft5yvoh1p)" style="stroke: #A80036; stroke-width: 1.5;"/><text fill="#000000" font-family="sans-serif" font-size="14" lengthAdjust="spacingAndGlyphs" textLength="35" x="63" y="1156.6533">UC10</text><!--MD5=[2facb25ed977e16109ac2b40415c158c]
entity UC11--><ellipse cx="80.5" cy="1204" fill="#FEFECE" filter="url(#ftd5ft5yvoh1p)" rx="8" ry="8" style="stroke: #A80036; stroke-width: 1.5;"/><path d="M80.5,1212 L80.5,1239 M67.5,1220 L93.5,1220 M80.5,1239 L67.5,1254 M80.5,1239 L93.5,1254 " fill="none" filter="url(#ftd5ft5yvoh1p)" style="stroke: #A80036; stroke-width: 1.5;"/><text fill="#000000" font-family="sans-serif" font-size="14" lengthAdjust="spacingAndGlyphs" textLength="35" x="63" y="1275.6533">UC11</text><!--MD5=[6e5b8b9080bf40386e983222e37dc0c6]
entity actor2120154283--><ellipse cx="285.5" cy="966" fill="#FEFECE" filter="url(#ftd5ft5yvoh1p)" rx="8" ry="8" style="stroke: #A80036; stroke-width: 1.5;"/><path d="M285.5,974 L285.5,1001 M272.5,982 L298.5,982 M285.5,1001 L272.5,1016 M285.5,1001 L298.5,1016 " fill="none" filter="url(#ftd5ft5yvoh1p)" style="stroke: #A80036; stroke-width: 1.5;"/><text fill="#000000" font-family="sans-serif" font-size="14" lengthAdjust="spacingAndGlyphs" textLength="126" x="222.5" y="1037.6533">OutputStreamWriter</text><!--MD5=[f36a7c7b7319556be58f40aa0673b881]
entity UC12--><ellipse cx="80.5" cy="966" fill="#FEFECE" filter="url(#ftd5ft5yvoh1p)" rx="8" ry="8" style="stroke: #A80036; stroke-width: 1.5;"/><path d="M80.5,974 L80.5,1001 M67.5,982 L93.5,982 M80.5,1001 L67.5,1016 M80.5,1001 L93.5,1016 " fill="none" filter="url(#ftd5ft5yvoh1p)" style="stroke: #A80036; stroke-width: 1.5;"/><text fill="#000000" font-family="sans-serif" font-size="14" lengthAdjust="spacingAndGlyphs" textLength="35" x="63" y="1037.6533">UC12</text><!--MD5=[d11812ca287f6e2b9360f0be547853e2]
entity actor94690722--><ellipse cx="285.5" cy="847" fill="#FEFECE" filter="url(#ftd5ft5yvoh1p)" rx="8" ry="8" style="stroke: #A80036; stroke-width: 1.5;"/><path d="M285.5,855 L285.5,882 M272.5,863 L298.5,863 M285.5,882 L272.5,897 M285.5,882 L298.5,897 " fill="none" filter="url(#ftd5ft5yvoh1p)" style="stroke: #A80036; stroke-width: 1.5;"/><text fill="#000000" font-family="sans-serif" font-size="14" lengthAdjust="spacingAndGlyphs" textLength="38" x="266.5" y="918.6533">Writer</text><!--MD5=[1707212056a8158f902c6f5b42d78a1e]
entity UC13--><ellipse cx="80.5" cy="847" fill="#FEFECE" filter="url(#ftd5ft5yvoh1p)" rx="8" ry="8" style="stroke: #A80036; stroke-width: 1.5;"/><path d="M80.5,855 L80.5,882 M67.5,863 L93.5,863 M80.5,882 L67.5,897 M80.5,882 L93.5,897 " fill="none" filter="url(#ftd5ft5yvoh1p)" style="stroke: #A80036; stroke-width: 1.5;"/><text fill="#000000" font-family="sans-serif" font-size="14" lengthAdjust="spacingAndGlyphs" textLength="35" x="63" y="918.6533">UC13</text><!--MD5=[edb5b699953cface52486a259fa80c76]
entity UC14--><ellipse cx="80.5" cy="3108" fill="#FEFECE" filter="url(#ftd5ft5yvoh1p)" rx="8" ry="8" style="stroke: #A80036; stroke-width: 1.5;"/><path d="M80.5,3116 L80.5,3143 M67.5,3124 L93.5,3124 M80.5,3143 L67.5,3158 M80.5,3143 L93.5,3158 " fill="none" filter="url(#ftd5ft5yvoh1p)" style="stroke: #A80036; stroke-width: 1.5;"/><text fill="#000000" font-family="sans-serif" font-size="14" lengthAdjust="spacingAndGlyphs" textLength="35" x="63" y="3179.6533">UC14</text><!--MD5=[d90094311435cfb86829af3e65eedad8]
entity actor517787604--><ellipse cx="285.5" cy="550" fill="#FEFECE" filter="url(#ftd5ft5yvoh1p)" rx="8" ry="8" style="stroke: #A80036; stroke-width: 1.5;"/><path d="M285.5,558 L285.5,585 M272.5,566 L298.5,566 M285.5,585 L272.5,600 M285.5,585 L298.5,600 " fill="none" filter="url(#ftd5ft5yvoh1p)" style="stroke: #A80036; stroke-width: 1.5;"/><text fill="#000000" font-family="sans-serif" font-size="14" lengthAdjust="spacingAndGlyphs" textLength="69" x="251" y="621.6533">Data_base</text><!--MD5=[0fd000bf8591f4fdf57cb68b3114c50c]
entity UC15--><ellipse cx="80.5" cy="371" fill="#FEFECE" filter="url(#ftd5ft5yvoh1p)" rx="8" ry="8" style="stroke: #A80036; stroke-width: 1.5;"/><path d="M80.5,379 L80.5,406 M67.5,387 L93.5,387 M80.5,406 L67.5,421 M80.5,406 L93.5,421 " fill="none" filter="url(#ftd5ft5yvoh1p)" style="stroke: #A80036; stroke-width: 1.5;"/><text fill="#000000" font-family="sans-serif" font-size="14" lengthAdjust="spacingAndGlyphs" textLength="35" x="63" y="442.6533">UC15</text><!--MD5=[09547f29990b3a249e2f558025d131c0]
entity UC16--><ellipse cx="80.5" cy="490" fill="#FEFECE" filter="url(#ftd5ft5yvoh1p)" rx="8" ry="8" style="stroke: #A80036; stroke-width: 1.5;"/><path d="M80.5,498 L80.5,525 M67.5,506 L93.5,506 M80.5,525 L67.5,540 M80.5,525 L93.5,540 " fill="none" filter="url(#ftd5ft5yvoh1p)" style="stroke: #A80036; stroke-width: 1.5;"/><text fill="#000000" font-family="sans-serif" font-size="14" lengthAdjust="spacingAndGlyphs" textLength="35" x="63" y="561.6533">UC16</text><!--MD5=[5a09e7f42baeb23a042b55268da723d1]
entity UC17--><ellipse cx="80.5" cy="609" fill="#FEFECE" filter="url(#ftd5ft5yvoh1p)" rx="8" ry="8" style="stroke: #A80036; stroke-width: 1.5;"/><path d="M80.5,617 L80.5,644 M67.5,625 L93.5,625 M80.5,644 L67.5,659 M80.5,644 L93.5,659 " fill="none" filter="url(#ftd5ft5yvoh1p)" style="stroke: #A80036; stroke-width: 1.5;"/><text fill="#000000" font-family="sans-serif" font-size="14" lengthAdjust="spacingAndGlyphs" textLength="35" x="63" y="680.6533">UC17</text><!--MD5=[da7af153cdb07551e330f5d3749e0eb4]
entity UC18--><ellipse cx="80.5" cy="1323" fill="#FEFECE" filter="url(#ftd5ft5yvoh1p)" rx="8" ry="8" style="stroke: #A80036; stroke-width: 1.5;"/><path d="M80.5,1331 L80.5,1358 M67.5,1339 L93.5,1339 M80.5,1358 L67.5,1373 M80.5,1358 L93.5,1373 " fill="none" filter="url(#ftd5ft5yvoh1p)" style="stroke: #A80036; stroke-width: 1.5;"/><text fill="#000000" font-family="sans-serif" font-size="14" lengthAdjust="spacingAndGlyphs" textLength="35" x="63" y="1394.6533">UC18</text><!--MD5=[b12eb66147b9547e4b66193ee09c2cc6]
entity UC19--><ellipse cx="80.5" cy="2156" fill="#FEFECE" filter="url(#ftd5ft5yvoh1p)" rx="8" ry="8" style="stroke: #A80036; stroke-width: 1.5;"/><path d="M80.5,2164 L80.5,2191 M67.5,2172 L93.5,2172 M80.5,2191 L67.5,2206 M80.5,2191 L93.5,2206 " fill="none" filter="url(#ftd5ft5yvoh1p)" style="stroke: #A80036; stroke-width: 1.5;"/><text fill="#000000" font-family="sans-serif" font-size="14" lengthAdjust="spacingAndGlyphs" textLength="35" x="63" y="2227.6533">UC19</text><!--MD5=[c3a79de3dfdf70b4ead88bc26ff6f883]
entity actor927744186--><ellipse cx="285.5" cy="193" fill="#FEFECE" filter="url(#ftd5ft5yvoh1p)" rx="8" ry="8" style="stroke: #A80036; stroke-width: 1.5;"/><path d="M285.5,201 L285.5,228 M272.5,209 L298.5,209 M285.5,228 L272.5,243 M285.5,228 L298.5,243 " fill="none" filter="url(#ftd5ft5yvoh1p)" style="stroke: #A80036; stroke-width: 1.5;"/><text fill="#000000" font-family="sans-serif" font-size="14" lengthAdjust="spacingAndGlyphs" textLength="55" x="258" y="264.6533">Function</text><!--MD5=[7d0e261d70101dbd843304bf8df11d6b]
entity UC20--><ellipse cx="80.5" cy="133" fill="#FEFECE" filter="url(#ftd5ft5yvoh1p)" rx="8" ry="8" style="stroke: #A80036; stroke-width: 1.5;"/><path d="M80.5,141 L80.5,168 M67.5,149 L93.5,149 M80.5,168 L67.5,183 M80.5,168 L93.5,183 " fill="none" filter="url(#ftd5ft5yvoh1p)" style="stroke: #A80036; stroke-width: 1.5;"/><text fill="#000000" font-family="sans-serif" font-size="14" lengthAdjust="spacingAndGlyphs" textLength="35" x="63" y="204.6533">UC20</text><!--MD5=[003c025d9bc17cb5a5091751cba81ebc]
entity UC21--><ellipse cx="80.5" cy="252" fill="#FEFECE" filter="url(#ftd5ft5yvoh1p)" rx="8" ry="8" style="stroke: #A80036; stroke-width: 1.5;"/><path d="M80.5,260 L80.5,287 M67.5,268 L93.5,268 M80.5,287 L67.5,302 M80.5,287 L93.5,302 " fill="none" filter="url(#ftd5ft5yvoh1p)" style="stroke: #A80036; stroke-width: 1.5;"/><text fill="#000000" font-family="sans-serif" font-size="14" lengthAdjust="spacingAndGlyphs" textLength="35" x="63" y="323.6533">UC21</text><!--MD5=[42b300d6bb7acc38ebbec290e95a8f1e]
entity UC22--><ellipse cx="80.5" cy="2275" fill="#FEFECE" filter="url(#ftd5ft5yvoh1p)" rx="8" ry="8" style="stroke: #A80036; stroke-width: 1.5;"/><path d="M80.5,2283 L80.5,2310 M67.5,2291 L93.5,2291 M80.5,2310 L67.5,2325 M80.5,2310 L93.5,2325 " fill="none" filter="url(#ftd5ft5yvoh1p)" style="stroke: #A80036; stroke-width: 1.5;"/><text fill="#000000" font-family="sans-serif" font-size="14" lengthAdjust="spacingAndGlyphs" textLength="35" x="63" y="2346.6533">UC22</text><!--MD5=[ff2cfac5f43e701ce7de056768dc8c39]
entity actor417118375--><ellipse cx="285.5" cy="14" fill="#FEFECE" filter="url(#ftd5ft5yvoh1p)" rx="8" ry="8" style="stroke: #A80036; stroke-width: 1.5;"/><path d="M285.5,22 L285.5,49 M272.5,30 L298.5,30 M285.5,49 L272.5,64 M285.5,49 L298.5,64 " fill="none" filter="url(#ftd5ft5yvoh1p)" style="stroke: #A80036; stroke-width: 1.5;"/><text fill="#000000" font-family="sans-serif" font-size="14" lengthAdjust="spacingAndGlyphs" textLength="51" x="260" y="85.6533">Member</text><!--MD5=[3ec9b2f896af742c8ed2b500b4406370]
entity UC23--><ellipse cx="80.5" cy="14" fill="#FEFECE" filter="url(#ftd5ft5yvoh1p)" rx="8" ry="8" style="stroke: #A80036; stroke-width: 1.5;"/><path d="M80.5,22 L80.5,49 M67.5,30 L93.5,30 M80.5,49 L67.5,64 M80.5,49 L93.5,64 " fill="none" filter="url(#ftd5ft5yvoh1p)" style="stroke: #A80036; stroke-width: 1.5;"/><text fill="#000000" font-family="sans-serif" font-size="14" lengthAdjust="spacingAndGlyphs" textLength="35" x="63" y="85.6533">UC23</text><!--MD5=[8a6276c9fd908654b286675aed4fccea]
entity UC24--><ellipse cx="80.5" cy="2394" fill="#FEFECE" filter="url(#ftd5ft5yvoh1p)" rx="8" ry="8" style="stroke: #A80036; stroke-width: 1.5;"/><path d="M80.5,2402 L80.5,2429 M67.5,2410 L93.5,2410 M80.5,2429 L67.5,2444 M80.5,2429 L93.5,2444 " fill="none" filter="url(#ftd5ft5yvoh1p)" style="stroke: #A80036; stroke-width: 1.5;"/><text fill="#000000" font-family="sans-serif" font-size="14" lengthAdjust="spacingAndGlyphs" textLength="35" x="63" y="2465.6533">UC24</text><!--MD5=[6f42ad6680a9b0376b1d0a98b13a6026]
entity UC25--><ellipse cx="80.5" cy="728" fill="#FEFECE" filter="url(#ftd5ft5yvoh1p)" rx="8" ry="8" style="stroke: #A80036; stroke-width: 1.5;"/><path d="M80.5,736 L80.5,763 M67.5,744 L93.5,744 M80.5,763 L67.5,778 M80.5,763 L93.5,778 " fill="none" filter="url(#ftd5ft5yvoh1p)" style="stroke: #A80036; stroke-width: 1.5;"/><text fill="#000000" font-family="sans-serif" font-size="14" lengthAdjust="spacingAndGlyphs" textLength="35" x="63" y="799.6533">UC25</text><!--MD5=[98ff80b42c170707e73502b58e6e539f]
entity UC26--><ellipse cx="80.5" cy="1442" fill="#FEFECE" filter="url(#ftd5ft5yvoh1p)" rx="8" ry="8" style="stroke: #A80036; stroke-width: 1.5;"/><path d="M80.5,1450 L80.5,1477 M67.5,1458 L93.5,1458 M80.5,1477 L67.5,1492 M80.5,1477 L93.5,1492 " fill="none" filter="url(#ftd5ft5yvoh1p)" style="stroke: #A80036; stroke-width: 1.5;"/><text fill="#000000" font-family="sans-serif" font-size="14" lengthAdjust="spacingAndGlyphs" textLength="35" x="63" y="1513.6533">UC26</text><!--MD5=[254918ba7bc80323f74befab2af86442]
link actor923366543 to UC964895360--><path d="M84.87,3656.17 C94.62,3543.89 126.29,3242.08 190,3168.5 C208.15,3147.54 240.21,3139.5 261.9,3136.42 " fill="none" id="actor923366543-UC964895360" style="stroke: #A80036; stroke-width: 1.0;"/><!--MD5=[3c60a4530184f6b93e2cbd474a41800d]
link actor923366543 to UC1231469233--><path d="M86.23,3656.45 C98.47,3554.73 134.15,3299.16 190,3236.5 C202.07,3222.96 219.92,3214.81 236.88,3209.91 " fill="none" id="actor923366543-UC1231469233" style="stroke: #A80036; stroke-width: 1.0;"/><!--MD5=[d8fbaa2c8365ff4103ad3467973071cd]
link actor923366543 to UC2131723476--><path d="M81.09,3656.3 C82.61,3576.99 97.2,3404.7 190,3304.5 C205.76,3287.49 230.65,3278.97 250.93,3274.72 " fill="none" id="actor923366543-UC2131723476" style="stroke: #A80036; stroke-width: 1.0;"/><!--MD5=[2478e264df8a3782aea2ce25e9dabeca]
link actor923366543 to UC115297013--><path d="M97.84,3656.46 C114.24,3603.79 143.79,3517.02 190,3452.5 C216.89,3414.95 265.68,3384.52 280.27,3354.91 " fill="none" id="actor923366543-UC115297013" style="stroke: #A80036; stroke-width: 1.0;"/><!--MD5=[2478e264df8a3782aea2ce25e9dabeca]
link actor923366543 to UC115297013--><path d="M90.72,3656.24 C104.87,3598.28 136.11,3492.75 190,3417.5 C210.42,3388.99 243.46,3364.59 264.57,3350.73 " fill="none" id="actor923366543-UC115297013-1" style="stroke: #A80036; stroke-width: 1.0;"/><!--MD5=[2478e264df8a3782aea2ce25e9dabeca]
link actor923366543 to UC115297013--><path d="M86.31,3656.43 C97.62,3589.36 129.56,3466.9 190,3382.5 C212.41,3351.21 250.03,3324.86 270.38,3324.15 " fill="none" id="actor923366543-UC115297013-2" style="stroke: #A80036; stroke-width: 1.0;"/><!--MD5=[42f07e60a7a876d9bfaee771ed8e29fd]
link UC0 to actor652803980--><path d="M95.13,2910.49 C126.07,2928.63 202.44,2973.39 248.18,3000.21 " fill="none" id="UC0-actor652803980" style="stroke: #A80036; stroke-width: 1.0;"/><!--MD5=[363f8dec5548c5932d74d688d9fba819]
link UC1 to actor1520921298--><path d="M95.13,2783.5 C128.92,2783.5 216.86,2783.5 259.97,2783.5 " fill="none" id="UC1-actor1520921298" style="stroke: #A80036; stroke-width: 1.0;"/><!--MD5=[a3d887a3e016d226354c11e9fb68e83e]
link UC2 to actor1494051958--><path d="M95.13,2549.46 C128.74,2559.23 215.94,2584.57 259.28,2597.17 " fill="none" id="UC2-actor1494051958" style="stroke: #A80036; stroke-width: 1.0;"/><!--MD5=[0cbff6f25d64a375e111c1dc2e724e81]
link UC3 to actor1494051958--><path d="M95.13,2660.47 C128.74,2650.54 215.94,2624.76 259.28,2611.95 " fill="none" id="UC3-actor1494051958" style="stroke: #A80036; stroke-width: 1.0;"/><!--MD5=[dfbf8c52950d6897b58a971d68040eb4]
link actor923366543 to UC628694336--><path d="M96.86,3656.31 C112.81,3611.89 142.23,3543.69 190,3501.5 C211.17,3482.8 243.39,3474.15 264.2,3466.01 " fill="none" id="actor923366543-UC628694336" style="stroke: #A80036; stroke-width: 1.0;"/><!--MD5=[dfbf8c52950d6897b58a971d68040eb4]
link actor923366543 to UC628694336--><path d="M89.21,3656.24 C102.31,3603.68 133.18,3516.69 190,3466.5 C201.76,3456.11 216.93,3448.83 231.66,3444.53 " fill="none" id="actor923366543-UC628694336-1" style="stroke: #A80036; stroke-width: 1.0;"/><!--MD5=[399030e45df169103f525b9ed511c467]
link actor923366543 to UC1150063356--><path d="M112.76,3656.44 C131.69,3628.39 158.3,3593.03 190,3569.5 C212.96,3552.46 245.29,3543.3 265.55,3534.44 " fill="none" id="actor923366543-UC1150063356" style="stroke: #A80036; stroke-width: 1.0;"/><!--MD5=[399030e45df169103f525b9ed511c467]
link actor923366543 to UC1150063356--><path d="M96.37,3656.23 C114.38,3618.49 147.65,3565.93 190,3534.5 C197.42,3528.99 205.82,3524.31 214.47,3520.5 " fill="none" id="actor923366543-UC1150063356-1" style="stroke: #A80036; stroke-width: 1.0;"/><!--MD5=[67676078ca5aa3fc7a2de0f68cf5a0fa]
link actor923366543 to UC622625093--><path d="M133.25,3681.23 C177.89,3659.47 239.58,3624.1 268.43,3602.66 " fill="none" id="actor923366543-UC622625093" style="stroke: #A80036; stroke-width: 1.0;"/><!--MD5=[67676078ca5aa3fc7a2de0f68cf5a0fa]
link actor923366543 to UC622625093--><path d="M133.25,3658.01 C166.61,3637.33 209.5,3613.88 241.08,3599.15 " fill="none" id="actor923366543-UC622625093-1" style="stroke: #A80036; stroke-width: 1.0;"/><!--MD5=[071e075f2e56d02db99d8a330055a133]
link UC4 to actor188193734--><path d="M95.11,1840.4 C110.74,1851.12 136.5,1870.36 154,1891.5 C204.61,1952.65 245.27,2036.35 267.07,2086.18 " fill="none" id="UC4-actor188193734" style="stroke: #A80036; stroke-width: 1.0;"/><!--MD5=[a9e09ac6ff4f2137d3b5a0c6024287a1]
link UC5 to actor188193734--><path d="M95.01,1961.38 C109.68,1973.28 133.74,1992.97 154,2010.5 C191.19,2042.68 233.22,2081.05 259.29,2105.1 " fill="none" id="UC5-actor188193734" style="stroke: #A80036; stroke-width: 1.0;"/><!--MD5=[31d1d8a88037d3c3a87c1d6b9cbfd717]
link UC6 to actor188193734--><path d="M95.13,2073.46 C128.74,2083.23 215.94,2108.57 259.28,2121.17 " fill="none" id="UC6-actor188193734" style="stroke: #A80036; stroke-width: 1.0;"/><!--MD5=[316ee3b0f13b3e65bbcd3ca7d04f69b6]
link actor923366543 to UC398468940--><path d="M133.25,3709.78 C174.83,3712.45 231.22,3711.48 262.06,3706.86 " fill="none" id="actor923366543-UC398468940" style="stroke: #A80036; stroke-width: 1.0;"/><!--MD5=[316ee3b0f13b3e65bbcd3ca7d04f69b6]
link actor923366543 to UC398468940--><path d="M133.25,3686.56 C175.07,3683.71 231.86,3684.77 262.58,3689.73 " fill="none" id="actor923366543-UC398468940-1" style="stroke: #A80036; stroke-width: 1.0;"/><!--MD5=[c0cc15dcb4933921fab03cb83386e9b1]
link UC7 to actor2059316201--><path d="M95.13,1597.46 C132.12,1608.21 234.01,1637.83 270.92,1648.55 " fill="none" id="UC7-actor2059316201" style="stroke: #A80036; stroke-width: 1.0;"/><!--MD5=[d4830a2f587de054d9c99c1d60d4eff7]
link UC8 to actor2059316201--><path d="M95.13,1708.47 C132.12,1697.54 234.01,1667.42 270.92,1656.51 " fill="none" id="UC8-actor2059316201" style="stroke: #A80036; stroke-width: 1.0;"/><!--MD5=[3ed10e038fdd330755a29cba867c606f]
link actor923366543 to UC1510333744--><path d="M119.68,3740.61 C156.67,3768.1 212.32,3798.66 248.53,3811.26 " fill="none" id="actor923366543-UC1510333744" style="stroke: #A80036; stroke-width: 1.0;"/><!--MD5=[3ed10e038fdd330755a29cba867c606f]
link actor923366543 to UC1510333744--><path d="M133.25,3727.05 C174.6,3749.87 230.58,3780.75 261.53,3797.83 " fill="none" id="actor923366543-UC1510333744-1" style="stroke: #A80036; stroke-width: 1.0;"/><!--MD5=[3ed10e038fdd330755a29cba867c606f]
link actor923366543 to UC1510333744--><path d="M133.25,3703.83 C182.35,3724.42 252.09,3766.86 276.04,3794.51 " fill="none" id="actor923366543-UC1510333744-2" style="stroke: #A80036; stroke-width: 1.0;"/><!--MD5=[fd1f15bba339ed1cc09967caf10878db]
link actor923366543 to UC458385820--><path d="M133.28,3735.97 C140.84,3742.9 148.06,3750.49 154,3758.5 C178.68,3791.79 159.96,3815.96 190,3844.5 C206.31,3859.99 230.17,3868.51 249.84,3873.14 " fill="none" id="actor923366543-UC458385820" style="stroke: #A80036; stroke-width: 1.0;"/><!--MD5=[5ccb135a9044175bffb30e24d7b7dd13]
link UC9 to actor652803980--><path d="M95.13,3021.5 C126.07,3021.5 202.44,3021.5 248.18,3021.5 " fill="none" id="UC9-actor652803980" style="stroke: #A80036; stroke-width: 1.0;"/><!--MD5=[321c73f5758d166b9059eae3363be888]
link UC10 to actor230610941--><path d="M98.13,1130.6 C112.97,1142.38 135.19,1160.29 154,1176.5 C185.01,1203.22 219.17,1234.43 244.75,1258.19 " fill="none" id="UC10-actor230610941" style="stroke: #A80036; stroke-width: 1.0;"/><!--MD5=[bfa2398018d68529862bc59cb7758148]
link UC11 to actor230610941--><path d="M98.11,1241.33 C129.93,1250.58 200.26,1271.02 244.85,1283.98 " fill="none" id="UC11-actor230610941" style="stroke: #A80036; stroke-width: 1.0;"/><!--MD5=[c21ab322ee1f7f70410c1a6f034a101f]
link actor923366543 to UC38851648--><path d="M133,3733.79 C140.97,3741.17 148.4,3749.48 154,3758.5 C190.83,3817.86 153.32,3852.05 190,3911.5 C209.2,3942.62 244.91,3967.41 266.51,3980.45 " fill="none" id="actor923366543-UC38851648" style="stroke: #A80036; stroke-width: 1.0;"/><!--MD5=[55af051c44426dd851f4307cde066f1b]
link actor923366543 to UC1992844647--><path d="M133.01,3732.67 C141.19,3740.26 148.68,3748.93 154,3758.5 C211.93,3862.79 114.99,3931.73 190,4024.5 C206.77,4045.24 237.25,4053.34 259.06,4056.49 " fill="none" id="actor923366543-UC1992844647" style="stroke: #A80036; stroke-width: 1.0;"/><!--MD5=[2a0284300e673691b4f1458c234de24d]
link UC12 to actor2120154283--><path d="M98.11,998.5 C124.91,998.5 179.03,998.5 222.08,998.5 " fill="none" id="UC12-actor2120154283" style="stroke: #A80036; stroke-width: 1.0;"/><!--MD5=[3d332332bd17bbd499384cc25b51b22c]
link UC13 to actor94690722--><path d="M98.11,879.5 C135.8,879.5 227.52,879.5 266.5,879.5 " fill="none" id="UC13-actor94690722" style="stroke: #A80036; stroke-width: 1.0;"/><!--MD5=[d17a08c845576cdfb425cdcfa23c52b1]
link UC14 to actor652803980--><path d="M98.11,3130.76 C130.78,3111.61 204.05,3068.66 248.37,3042.68 " fill="none" id="UC14-actor652803980" style="stroke: #A80036; stroke-width: 1.0;"/><!--MD5=[0fd834f475b66d1d1f96598a42096522]
link actor923366543 to UC30604162--><path d="M133.22,3732.56 C141.38,3740.16 148.81,3748.86 154,3758.5 C224.53,3889.59 119.8,3960.23 190,4091.5 C205.43,4120.35 236.17,4142.93 258.41,4156.44 " fill="none" id="actor923366543-UC30604162" style="stroke: #A80036; stroke-width: 1.0;"/><!--MD5=[1d8cb9e44632c7cda36975ac4d6bfb4e]
link actor923366543 to UC872699266--><path d="M133.07,3732.11 C141.35,3739.79 148.87,3748.65 154,3758.5 C199.92,3846.7 129.59,4125.52 190,4204.5 C201.65,4219.73 220.74,4228.15 238.72,4232.8 " fill="none" id="actor923366543-UC872699266" style="stroke: #A80036; stroke-width: 1.0;"/><!--MD5=[5bde0c2df2b249ec95de314e39e1b382]
link actor923366543 to UC1035361293--><path d="M133.16,3732.06 C141.43,3739.75 148.92,3748.62 154,3758.5 C206.33,3860.34 120.92,4181.19 190,4272.5 C199.99,4285.71 215.58,4293.8 231.24,4298.75 " fill="none" id="actor923366543-UC1035361293" style="stroke: #A80036; stroke-width: 1.0;"/><!--MD5=[36d2b90cc26b77709026fa6be20d1d93]
link UC15 to actor517787604--><path d="M98.15,416.58 C112.99,428.35 135.22,446.25 154,462.5 C187.63,491.6 224.88,526.08 250.94,550.6 " fill="none" id="UC15-actor517787604" style="stroke: #A80036; stroke-width: 1.0;"/><!--MD5=[faf65bea4a6736407eb4184dd2bfe8e0]
link UC16 to actor517787604--><path d="M98.11,527.41 C131.35,537.23 206.61,559.48 250.66,572.5 " fill="none" id="UC16-actor517787604" style="stroke: #A80036; stroke-width: 1.0;"/><!--MD5=[6a99519fc09b59aceeba2d424d4476cb]
link UC17 to actor517787604--><path d="M98.11,636.67 C131.35,627.01 206.61,605.14 250.66,592.34 " fill="none" id="UC17-actor517787604" style="stroke: #A80036; stroke-width: 1.0;"/><!--MD5=[8b7701f6e42c0000e20fd0caecf48284]
link UC18 to actor230610941--><path d="M98.11,1350.59 C129.93,1341.19 200.26,1320.4 244.85,1307.22 " fill="none" id="UC18-actor230610941" style="stroke: #A80036; stroke-width: 1.0;"/><!--MD5=[1a7a56b5cd5ace03e8c6dfe29dd5f274]
link actor923366543 to UC147077478--><path d="M133.22,3732.03 C141.48,3739.72 148.96,3748.6 154,3758.5 C212.66,3873.79 131.62,4224.06 190,4339.5 C205.05,4369.27 236.85,4392.09 259.4,4405.38 " fill="none" id="actor923366543-UC147077478" style="stroke: #A80036; stroke-width: 1.0;"/><!--MD5=[8e0a0ea60685a8d7cdefe64ce004300e]
link actor923366543 to UC519751097--><path d="M133.3,3731.99 C141.56,3739.69 149.01,3748.57 154,3758.5 C223.34,3896.49 97.95,4328.51 190,4452.5 C199.46,4465.24 214.13,4473.22 229.12,4478.21 " fill="none" id="actor923366543-UC519751097" style="stroke: #A80036; stroke-width: 1.0;"/><!--MD5=[5424e020c6e4e3d7df8bb422cb4fb582]
link actor923366543 to UC295937119--><path d="M133.34,3731.97 C141.59,3739.67 149.03,3748.56 154,3758.5 C191.88,3834.32 139.63,4452.33 190,4520.5 C199.43,4533.26 214.09,4541.25 229.08,4546.24 " fill="none" id="actor923366543-UC295937119" style="stroke: #A80036; stroke-width: 1.0;"/><!--MD5=[b5a405031d57b6f99b2eaca08bcac79d]
link actor923366543 to UC1769565136--><path d="M133,3731.61 C141.4,3739.39 148.98,3748.41 154,3758.5 C195.1,3841.16 135.29,4514.15 190,4588.5 C204.78,4608.58 232.53,4616.84 254.16,4620.21 " fill="none" id="actor923366543-UC1769565136" style="stroke: #A80036; stroke-width: 1.0;"/><!--MD5=[34accdb9ccd952b32d7ffe0974b4a862]
link UC19 to actor188193734--><path d="M98.11,2183.59 C133.62,2173.09 217.1,2148.42 259.23,2135.97 " fill="none" id="UC19-actor188193734" style="stroke: #A80036; stroke-width: 1.0;"/><!--MD5=[add63d6f8bbc4ae40df767d1d8aa65d9]
link UC20 to actor927744186--><path d="M98.11,170.41 C133.24,180.79 215.33,205.05 257.87,217.63 " fill="none" id="UC20-actor927744186" style="stroke: #A80036; stroke-width: 1.0;"/><!--MD5=[44db8189e909177b24018ce561c08a38]
link UC21 to actor927744186--><path d="M98.11,279.67 C133.24,269.46 215.33,245.6 257.87,233.24 " fill="none" id="UC21-actor927744186" style="stroke: #A80036; stroke-width: 1.0;"/><!--MD5=[09666822117b0859c45e0f52655e6b7e]
link UC22 to actor188193734--><path d="M98.15,2294.42 C112.99,2282.65 135.22,2264.75 154,2248.5 C191.47,2216.08 233.43,2176.97 259.41,2152.42 " fill="none" id="UC22-actor188193734" style="stroke: #A80036; stroke-width: 1.0;"/><!--MD5=[6a99c20fd5b60664113810e46e9041b5]
link UC23 to actor417118375--><path d="M98.11,46.5 C133.81,46.5 217.99,46.5 259.9,46.5 " fill="none" id="UC23-actor417118375" style="stroke: #A80036; stroke-width: 1.0;"/><!--MD5=[a9d0e9433adf396208e3b0fa638f06b8]
link UC24 to actor188193734--><path d="M98.03,2415.85 C113.83,2405.07 137.61,2387.21 154,2367.5 C205.24,2305.89 245.84,2221.09 267.42,2170.82 " fill="none" id="UC24-actor188193734" style="stroke: #A80036; stroke-width: 1.0;"/><!--MD5=[c779d9d4c93160de5cda287da6f85b98]
link UC25 to actor517787604--><path d="M98.08,747.12 C112.89,735.09 135.1,716.86 154,700.5 C187.38,671.62 224.65,637.75 250.79,613.72 " fill="none" id="UC25-actor517787604" style="stroke: #A80036; stroke-width: 1.0;"/><!--MD5=[8f02af7190f3f3faf5dbbd1082925b69]
link UC26 to actor230610941--><path d="M98.1,1461.14 C112.92,1449.12 135.13,1430.9 154,1414.5 C185.02,1387.55 219.32,1356.21 244.97,1332.46 " fill="none" id="UC26-actor230610941" style="stroke: #A80036; stroke-width: 1.0;"/><!--MD5=[0d1d16e4006cdd0de56c6e971f0e3087]
@startuml
 left to right direction

actor DataListDiagram as actor923366543

	rectangle main{
	 usecase exec as UC964895360
	actor923366543- -UC964895360
	 usecase getRuntime as UC1231469233
	actor923366543- -UC1231469233
	 usecase waitFor as UC2131723476
	actor923366543- -UC2131723476
	 usecase println as UC115297013
	actor923366543- -UC115297013
	}
	actor PrintStream as actor652803980
	 UC0 - - actor652803980
	actor Process as actor1520921298
	 UC1 - - actor1520921298
	actor Runtime as actor1494051958
	 UC2 - - actor1494051958
	actor Runtime as actor1494051958
	 UC3 - - actor1494051958
	rectangle draw{
	 usecase getClassList as UC628694336
	actor923366543- -UC628694336
	 usecase getFunctionList as UC1150063356
	actor923366543- -UC1150063356
	 usecase getMemberList as UC622625093
	actor923366543- -UC622625093
	}
	actor DataList as actor188193734
	 UC4 - - actor188193734
	actor DataList as actor188193734
	 UC5 - - actor188193734
	actor DataList as actor188193734
	 UC6 - - actor188193734
	rectangle makeDateFolder{
	 usecase mkdir as UC398468940
	actor923366543- -UC398468940
	}
	actor File as actor2059316201
	 UC7 - - actor2059316201
	rectangle makeDataListFolder{
	 usecase mkdir as UC398468940
	actor923366543- -UC398468940
	}
	actor File as actor2059316201
	 UC8 - - actor2059316201
	rectangle makeData_base{
	 usecase append as UC1510333744
	actor923366543- -UC1510333744
	 usecase toString as UC458385820
	actor923366543- -UC458385820
	 usecase println as UC115297013
	actor923366543- -UC115297013
	}
	actor PrintStream as actor652803980
	 UC9 - - actor652803980
	actor StringBuilder as actor230610941
	 UC10 - - actor230610941
	actor StringBuilder as actor230610941
	 UC11 - - actor230610941
	rectangle makeFile{
	 usecase println as UC115297013
	actor923366543- -UC115297013
	 usecase write as UC38851648
	actor923366543- -UC38851648
	 usecase close as UC1992844647
	actor923366543- -UC1992844647
	}
	actor OutputStreamWriter as actor2120154283
	 UC12 - - actor2120154283
	actor Writer as actor94690722
	 UC13 - - actor94690722
	actor PrintStream as actor652803980
	 UC14 - - actor652803980
	rectangle classDef{
	 usecase append as UC1510333744
	actor923366543- -UC1510333744
	 usecase getHasList as UC30604162
	actor923366543- -UC30604162
	 usecase getCallList as UC872699266
	actor923366543- -UC872699266
	 usecase getCallByList as UC1035361293
	actor923366543- -UC1035361293
	}
	actor Data_base as actor517787604
	 UC15 - - actor517787604
	actor Data_base as actor517787604
	 UC16 - - actor517787604
	actor Data_base as actor517787604
	 UC17 - - actor517787604
	actor StringBuilder as actor230610941
	 UC18 - - actor230610941
	rectangle addList{
	 usecase append as UC1510333744
	actor923366543- -UC1510333744
	 usecase getName as UC147077478
	actor923366543- -UC147077478
	 usecase getClassList as UC628694336
	actor923366543- -UC628694336
	 usecase getTypeName as UC519751097
	actor923366543- -UC519751097
	 usecase getMemberList as UC622625093
	actor923366543- -UC622625093
	 usecase getTypeName as UC295937119
	actor923366543- -UC295937119
	 usecase getSig as UC1769565136
	actor923366543- -UC1769565136
	 usecase getFunctionList as UC1150063356
	actor923366543- -UC1150063356
	}
	actor DataList as actor188193734
	 UC19 - - actor188193734
	actor Function as actor927744186
	 UC20 - - actor927744186
	actor Function as actor927744186
	 UC21 - - actor927744186
	actor DataList as actor188193734
	 UC22 - - actor188193734
	actor Member as actor417118375
	 UC23 - - actor417118375
	actor DataList as actor188193734
	 UC24 - - actor188193734
	actor Data_base as actor517787604
	 UC25 - - actor517787604
	actor StringBuilder as actor230610941
	 UC26 - - actor230610941

@enduml

PlantUML version 1.2020.19(Tue Oct 13 00:10:01 KST 2020)
(APACHE source distribution)
Java Runtime: Java(TM) SE Runtime Environment
JVM: Java HotSpot(TM) 64-Bit Server VM
Default Encoding: MS949
Language: ko
Country: KR
--></g></svg>