<?xml version="1.0" encoding="UTF-8" standalone="no"?><svg xmlns="http://www.w3.org/2000/svg" xmlns:xlink="http://www.w3.org/1999/xlink" contentScriptType="application/ecmascript" contentStyleType="text/css" height="4140px" preserveAspectRatio="none" style="width:335px;height:4140px;" version="1.1" viewBox="0 0 335 4140" width="335px" zoomAndPan="magnify"><defs><filter height="300%" id="f11fslla1bisva" width="300%" x="-1" y="-1"><feGaussianBlur result="blurOut" stdDeviation="2.0"/><feColorMatrix in="blurOut" result="blurOut2" type="matrix" values="0 0 0 0 0 0 0 0 0 0 0 0 0 0 0 0 0 0 .4 0"/><feOffset dx="4.0" dy="4.0" in="blurOut2" result="blurOut3"/><feBlend in="SourceGraphic" in2="blurOut3" mode="normal"/></filter></defs><g><!--MD5=[a70b0d373322012744ecc119c63f921b]
cluster main--><rect fill="#FFFFFF" filter="url(#f11fslla1bisva)" height="292" style="stroke: #000000; stroke-width: 1.5;" width="140" x="165.5" y="3048.5"/><text fill="#000000" font-family="sans-serif" font-size="14" font-weight="bold" lengthAdjust="spacingAndGlyphs" textLength="33" x="219" y="3066.6533">main</text><!--MD5=[1e829f21a74d4de467c1b519aceec237]
cluster makeFile--><rect fill="#FFFFFF" filter="url(#f11fslla1bisva)" height="156" style="stroke: #000000; stroke-width: 1.5;" width="85" x="193" y="3364.5"/><text fill="#000000" font-family="sans-serif" font-size="14" font-weight="bold" lengthAdjust="spacingAndGlyphs" textLength="63" x="204" y="3382.6533">makeFile</text><!--MD5=[f7b8ef1aad535ba0cf171373eed63d39]
cluster makeGraphScript--><rect fill="#FFFFFF" filter="url(#f11fslla1bisva)" height="360" style="stroke: #000000; stroke-width: 1.5;" width="175" x="148" y="3544.5"/><text fill="#000000" font-family="sans-serif" font-size="14" font-weight="bold" lengthAdjust="spacingAndGlyphs" textLength="121" x="175" y="3562.6533">makeGraphScript</text><!--MD5=[2478a7cca4ec048c8dd1e5506b0f7815]
cluster classExtends--><rect fill="#FFFFFF" filter="url(#f11fslla1bisva)" height="88" style="stroke: #000000; stroke-width: 1.5;" width="117" x="177" y="3928.5"/><text fill="#000000" font-family="sans-serif" font-size="14" font-weight="bold" lengthAdjust="spacingAndGlyphs" textLength="93" x="189" y="3946.6533">classExtends</text><!--MD5=[436e124e9ab1774894a62329e4fc6a00]
cluster memberDef--><rect fill="#FFFFFF" filter="url(#f11fslla1bisva)" height="88" style="stroke: #000000; stroke-width: 1.5;" width="151" x="160" y="4040.5"/><text fill="#000000" font-family="sans-serif" font-size="14" font-weight="bold" lengthAdjust="spacingAndGlyphs" textLength="81" x="195" y="4058.6533">memberDef</text><ellipse cx="235.5061" cy="3103.5973" fill="#FEFECE" filter="url(#f11fslla1bisva)" rx="23.5061" ry="16.5973" style="stroke: #A80036; stroke-width: 1.5;"/><text fill="#000000" font-family="sans-serif" font-size="14" lengthAdjust="spacingAndGlyphs" textLength="29" x="221.0061" y="3109.7121">exec</text><ellipse cx="235.4117" cy="3171.5973" fill="#FEFECE" filter="url(#f11fslla1bisva)" rx="53.9117" ry="16.5973" style="stroke: #A80036; stroke-width: 1.5;"/><text fill="#000000" font-family="sans-serif" font-size="14" lengthAdjust="spacingAndGlyphs" textLength="72" x="199.4117" y="3177.7121">getRuntime</text><ellipse cx="235.5269" cy="3239.5973" fill="#FEFECE" filter="url(#f11fslla1bisva)" rx="35.5269" ry="16.5973" style="stroke: #A80036; stroke-width: 1.5;"/><text fill="#000000" font-family="sans-serif" font-size="14" lengthAdjust="spacingAndGlyphs" textLength="46" x="212.5269" y="3245.7121">waitFor</text><ellipse cx="235.5772" cy="3307.5973" fill="#FEFECE" filter="url(#f11fslla1bisva)" rx="30.5772" ry="16.5973" style="stroke: #A80036; stroke-width: 1.5;"/><text fill="#000000" font-family="sans-serif" font-size="14" lengthAdjust="spacingAndGlyphs" textLength="39" x="216.0772" y="3313.7121">println</text><ellipse cx="235.5061" cy="3419.5973" fill="#FEFECE" filter="url(#f11fslla1bisva)" rx="23.5061" ry="16.5973" style="stroke: #A80036; stroke-width: 1.5;"/><text fill="#000000" font-family="sans-serif" font-size="14" lengthAdjust="spacingAndGlyphs" textLength="29" x="221.0061" y="3425.7121">write</text><ellipse cx="235.3345" cy="3487.5973" fill="#FEFECE" filter="url(#f11fslla1bisva)" rx="26.3345" ry="16.5973" style="stroke: #A80036; stroke-width: 1.5;"/><text fill="#000000" font-family="sans-serif" font-size="14" lengthAdjust="spacingAndGlyphs" textLength="33" x="218.8345" y="3493.7121">close</text><ellipse cx="235.4411" cy="3599.5973" fill="#FEFECE" filter="url(#f11fslla1bisva)" rx="36.9411" ry="16.5973" style="stroke: #A80036; stroke-width: 1.5;"/><text fill="#000000" font-family="sans-serif" font-size="14" lengthAdjust="spacingAndGlyphs" textLength="48" x="211.4411" y="3605.7121">append</text><ellipse cx="235.4472" cy="3667.5973" fill="#FEFECE" filter="url(#f11fslla1bisva)" rx="57.4472" ry="16.5973" style="stroke: #A80036; stroke-width: 1.5;"/><text fill="#000000" font-family="sans-serif" font-size="14" lengthAdjust="spacingAndGlyphs" textLength="77" x="196.9472" y="3673.7121">getClassList</text><ellipse cx="235.2886" cy="3735.6577" fill="#FEFECE" filter="url(#f11fslla1bisva)" rx="71.2886" ry="16.6577" style="stroke: #A80036; stroke-width: 1.5;"/><text fill="#000000" font-family="sans-serif" font-size="14" lengthAdjust="spacingAndGlyphs" textLength="97" x="186.7886" y="3741.7725">getFunctionList</text><ellipse cx="235.2609" cy="3803.5973" fill="#FEFECE" filter="url(#f11fslla1bisva)" rx="68.7609" ry="16.5973" style="stroke: #A80036; stroke-width: 1.5;"/><text fill="#000000" font-family="sans-serif" font-size="14" lengthAdjust="spacingAndGlyphs" textLength="93" x="188.7609" y="3809.7121">getMemberList</text><ellipse cx="235.6482" cy="3871.5973" fill="#FEFECE" filter="url(#f11fslla1bisva)" rx="37.6482" ry="16.5973" style="stroke: #A80036; stroke-width: 1.5;"/><text fill="#000000" font-family="sans-serif" font-size="14" lengthAdjust="spacingAndGlyphs" textLength="49" x="211.1482" y="3877.7121">toString</text><ellipse cx="235.598" cy="3983.5973" fill="#FEFECE" filter="url(#f11fslla1bisva)" rx="42.598" ry="16.5973" style="stroke: #A80036; stroke-width: 1.5;"/><text fill="#000000" font-family="sans-serif" font-size="14" lengthAdjust="spacingAndGlyphs" textLength="56" x="207.598" y="3989.7121">getName</text><!--MD5=[4b55d79368b29e534877102621370f0f]
entity addListSize--><rect fill="#FFFFFF" filter="url(#f11fslla1bisva)" height="39.2295" style="stroke: #000000; stroke-width: 1.5;" width="92" x="9" y="3899"/><text fill="#000000" font-family="sans-serif" font-size="14" lengthAdjust="spacingAndGlyphs" textLength="72" x="19" y="3925.1533">addListSize</text><!--MD5=[d2975ebec8ac13cba0097f0673d3c00f]
entity classDef--><rect fill="#FFFFFF" filter="url(#f11fslla1bisva)" height="39.2295" style="stroke: #000000; stroke-width: 1.5;" width="74" x="18" y="3825"/><text fill="#000000" font-family="sans-serif" font-size="14" lengthAdjust="spacingAndGlyphs" textLength="54" x="28" y="3851.1533">classDef</text><!--MD5=[c45cc87795e5120aca731a43370f22dc]
entity addList--><rect fill="#FFFFFF" filter="url(#f11fslla1bisva)" height="39.2295" style="stroke: #000000; stroke-width: 1.5;" width="66" x="22" y="3751"/><text fill="#000000" font-family="sans-serif" font-size="14" lengthAdjust="spacingAndGlyphs" textLength="46" x="32" y="3777.1533">addList</text><!--MD5=[522f8c2c6b071ef2d5128a2b7e7aefac]
entity functionDef--><rect fill="#FFFFFF" filter="url(#f11fslla1bisva)" height="39.2295" style="stroke: #000000; stroke-width: 1.5;" width="92" x="9" y="3677"/><text fill="#000000" font-family="sans-serif" font-size="14" lengthAdjust="spacingAndGlyphs" textLength="72" x="19" y="3703.1533">functionDef</text><ellipse cx="235.5685" cy="4095.5973" fill="#FEFECE" filter="url(#f11fslla1bisva)" rx="59.5685" ry="16.5973" style="stroke: #A80036; stroke-width: 1.5;"/><text fill="#000000" font-family="sans-serif" font-size="14" lengthAdjust="spacingAndGlyphs" textLength="80" x="195.5685" y="4101.7121">getImageList</text><!--MD5=[03b229b308f75a06ea58ea7131e807f7]
entity actor2045560071--><ellipse cx="55" cy="3567" fill="#FEFECE" filter="url(#f11fslla1bisva)" rx="8" ry="8" style="stroke: #A80036; stroke-width: 1.5;"/><path d="M55,3575 L55,3602 M42,3583 L68,3583 M55,3602 L42,3617 M55,3602 L68,3617 " fill="none" filter="url(#f11fslla1bisva)" style="stroke: #A80036; stroke-width: 1.5;"/><text fill="#000000" font-family="sans-serif" font-size="14" lengthAdjust="spacingAndGlyphs" textLength="98" x="6" y="3638.6533">GraphStructure</text><!--MD5=[2699aedbcd2b1f3b132d3903ac9b60ef]
entity actor652803980--><ellipse cx="235.5" cy="2958" fill="#FEFECE" filter="url(#f11fslla1bisva)" rx="8" ry="8" style="stroke: #A80036; stroke-width: 1.5;"/><path d="M235.5,2966 L235.5,2993 M222.5,2974 L248.5,2974 M235.5,2993 L222.5,3008 M235.5,2993 L248.5,3008 " fill="none" filter="url(#f11fslla1bisva)" style="stroke: #A80036; stroke-width: 1.5;"/><text fill="#000000" font-family="sans-serif" font-size="14" lengthAdjust="spacingAndGlyphs" textLength="74" x="198.5" y="3029.6533">PrintStream</text><!--MD5=[748ce71cf194e9cf4ed4ec944a04416c]
entity UC27--><ellipse cx="55" cy="2899" fill="#FEFECE" filter="url(#f11fslla1bisva)" rx="8" ry="8" style="stroke: #A80036; stroke-width: 1.5;"/><path d="M55,2907 L55,2934 M42,2915 L68,2915 M55,2934 L42,2949 M55,2934 L68,2949 " fill="none" filter="url(#f11fslla1bisva)" style="stroke: #A80036; stroke-width: 1.5;"/><text fill="#000000" font-family="sans-serif" font-size="14" lengthAdjust="spacingAndGlyphs" textLength="35" x="37.5" y="2970.6533">UC27</text><!--MD5=[25172bbf95bdbbdb21e6a8bcedfbc865]
entity actor1520921298--><ellipse cx="235.5" cy="2720" fill="#FEFECE" filter="url(#f11fslla1bisva)" rx="8" ry="8" style="stroke: #A80036; stroke-width: 1.5;"/><path d="M235.5,2728 L235.5,2755 M222.5,2736 L248.5,2736 M235.5,2755 L222.5,2770 M235.5,2755 L248.5,2770 " fill="none" filter="url(#f11fslla1bisva)" style="stroke: #A80036; stroke-width: 1.5;"/><text fill="#000000" font-family="sans-serif" font-size="14" lengthAdjust="spacingAndGlyphs" textLength="51" x="210" y="2791.6533">Process</text><!--MD5=[bed7420b8c9bfd98c403c02517d49017]
entity UC28--><ellipse cx="55" cy="2661" fill="#FEFECE" filter="url(#f11fslla1bisva)" rx="8" ry="8" style="stroke: #A80036; stroke-width: 1.5;"/><path d="M55,2669 L55,2696 M42,2677 L68,2677 M55,2696 L42,2711 M55,2696 L68,2711 " fill="none" filter="url(#f11fslla1bisva)" style="stroke: #A80036; stroke-width: 1.5;"/><text fill="#000000" font-family="sans-serif" font-size="14" lengthAdjust="spacingAndGlyphs" textLength="35" x="37.5" y="2732.6533">UC28</text><!--MD5=[6fb069653bc4eca858f58303df485e78]
entity actor1494051958--><ellipse cx="235.5" cy="2453" fill="#FEFECE" filter="url(#f11fslla1bisva)" rx="8" ry="8" style="stroke: #A80036; stroke-width: 1.5;"/><path d="M235.5,2461 L235.5,2488 M222.5,2469 L248.5,2469 M235.5,2488 L222.5,2503 M235.5,2488 L248.5,2503 " fill="none" filter="url(#f11fslla1bisva)" style="stroke: #A80036; stroke-width: 1.5;"/><text fill="#000000" font-family="sans-serif" font-size="14" lengthAdjust="spacingAndGlyphs" textLength="52" x="209.5" y="2524.6533">Runtime</text><!--MD5=[4dabf5994685c50ca16738bb9551d441]
entity UC29--><ellipse cx="55" cy="2423" fill="#FEFECE" filter="url(#f11fslla1bisva)" rx="8" ry="8" style="stroke: #A80036; stroke-width: 1.5;"/><path d="M55,2431 L55,2458 M42,2439 L68,2439 M55,2458 L42,2473 M55,2458 L68,2473 " fill="none" filter="url(#f11fslla1bisva)" style="stroke: #A80036; stroke-width: 1.5;"/><text fill="#000000" font-family="sans-serif" font-size="14" lengthAdjust="spacingAndGlyphs" textLength="35" x="37.5" y="2494.6533">UC29</text><!--MD5=[e46c2e5767834797a2f5652406276b0c]
entity UC30--><ellipse cx="55" cy="2542" fill="#FEFECE" filter="url(#f11fslla1bisva)" rx="8" ry="8" style="stroke: #A80036; stroke-width: 1.5;"/><path d="M55,2550 L55,2577 M42,2558 L68,2558 M55,2577 L42,2592 M55,2577 L68,2592 " fill="none" filter="url(#f11fslla1bisva)" style="stroke: #A80036; stroke-width: 1.5;"/><text fill="#000000" font-family="sans-serif" font-size="14" lengthAdjust="spacingAndGlyphs" textLength="35" x="37.5" y="2613.6533">UC30</text><!--MD5=[69444671d508f690c85900aad9d6b3cd]
entity UC31--><ellipse cx="55" cy="2780" fill="#FEFECE" filter="url(#f11fslla1bisva)" rx="8" ry="8" style="stroke: #A80036; stroke-width: 1.5;"/><path d="M55,2788 L55,2815 M42,2796 L68,2796 M55,2815 L42,2830 M55,2815 L68,2830 " fill="none" filter="url(#f11fslla1bisva)" style="stroke: #A80036; stroke-width: 1.5;"/><text fill="#000000" font-family="sans-serif" font-size="14" lengthAdjust="spacingAndGlyphs" textLength="35" x="37.5" y="2851.6533">UC31</text><!--MD5=[458b1753ff1dc66521c6202fa3add90d]
entity UC32--><ellipse cx="55" cy="3018" fill="#FEFECE" filter="url(#f11fslla1bisva)" rx="8" ry="8" style="stroke: #A80036; stroke-width: 1.5;"/><path d="M55,3026 L55,3053 M42,3034 L68,3034 M55,3053 L42,3068 M55,3053 L68,3068 " fill="none" filter="url(#f11fslla1bisva)" style="stroke: #A80036; stroke-width: 1.5;"/><text fill="#000000" font-family="sans-serif" font-size="14" lengthAdjust="spacingAndGlyphs" textLength="35" x="37.5" y="3089.6533">UC32</text><!--MD5=[6e5b8b9080bf40386e983222e37dc0c6]
entity actor2120154283--><ellipse cx="235.5" cy="2275" fill="#FEFECE" filter="url(#f11fslla1bisva)" rx="8" ry="8" style="stroke: #A80036; stroke-width: 1.5;"/><path d="M235.5,2283 L235.5,2310 M222.5,2291 L248.5,2291 M235.5,2310 L222.5,2325 M235.5,2310 L248.5,2325 " fill="none" filter="url(#f11fslla1bisva)" style="stroke: #A80036; stroke-width: 1.5;"/><text fill="#000000" font-family="sans-serif" font-size="14" lengthAdjust="spacingAndGlyphs" textLength="126" x="172.5" y="2346.6533">OutputStreamWriter</text><!--MD5=[0a48f1874cb27b9d18a1b594451d4382]
entity UC33--><ellipse cx="55" cy="2275" fill="#FEFECE" filter="url(#f11fslla1bisva)" rx="8" ry="8" style="stroke: #A80036; stroke-width: 1.5;"/><path d="M55,2283 L55,2310 M42,2291 L68,2291 M55,2310 L42,2325 M55,2310 L68,2325 " fill="none" filter="url(#f11fslla1bisva)" style="stroke: #A80036; stroke-width: 1.5;"/><text fill="#000000" font-family="sans-serif" font-size="14" lengthAdjust="spacingAndGlyphs" textLength="35" x="37.5" y="2346.6533">UC33</text><!--MD5=[d11812ca287f6e2b9360f0be547853e2]
entity actor94690722--><ellipse cx="235.5" cy="2156" fill="#FEFECE" filter="url(#f11fslla1bisva)" rx="8" ry="8" style="stroke: #A80036; stroke-width: 1.5;"/><path d="M235.5,2164 L235.5,2191 M222.5,2172 L248.5,2172 M235.5,2191 L222.5,2206 M235.5,2191 L248.5,2206 " fill="none" filter="url(#f11fslla1bisva)" style="stroke: #A80036; stroke-width: 1.5;"/><text fill="#000000" font-family="sans-serif" font-size="14" lengthAdjust="spacingAndGlyphs" textLength="38" x="216.5" y="2227.6533">Writer</text><!--MD5=[d73428473aa512245622eb95d54233b9]
entity UC34--><ellipse cx="55" cy="2156" fill="#FEFECE" filter="url(#f11fslla1bisva)" rx="8" ry="8" style="stroke: #A80036; stroke-width: 1.5;"/><path d="M55,2164 L55,2191 M42,2172 L68,2172 M55,2191 L42,2206 M55,2191 L68,2206 " fill="none" filter="url(#f11fslla1bisva)" style="stroke: #A80036; stroke-width: 1.5;"/><text fill="#000000" font-family="sans-serif" font-size="14" lengthAdjust="spacingAndGlyphs" textLength="35" x="37.5" y="2227.6533">UC34</text><!--MD5=[864f7e280385d8f93481e354d7c7de74]
entity actor230610941--><ellipse cx="235.5" cy="1620" fill="#FEFECE" filter="url(#f11fslla1bisva)" rx="8" ry="8" style="stroke: #A80036; stroke-width: 1.5;"/><path d="M235.5,1628 L235.5,1655 M222.5,1636 L248.5,1636 M235.5,1655 L222.5,1670 M235.5,1655 L248.5,1670 " fill="none" filter="url(#f11fslla1bisva)" style="stroke: #A80036; stroke-width: 1.5;"/><text fill="#000000" font-family="sans-serif" font-size="14" lengthAdjust="spacingAndGlyphs" textLength="81" x="195" y="1691.6533">StringBuilder</text><!--MD5=[b2ef225eb765241084692ef2ae92a3c2]
entity UC35--><ellipse cx="55" cy="1204" fill="#FEFECE" filter="url(#f11fslla1bisva)" rx="8" ry="8" style="stroke: #A80036; stroke-width: 1.5;"/><path d="M55,1212 L55,1239 M42,1220 L68,1220 M55,1239 L42,1254 M55,1239 L68,1254 " fill="none" filter="url(#f11fslla1bisva)" style="stroke: #A80036; stroke-width: 1.5;"/><text fill="#000000" font-family="sans-serif" font-size="14" lengthAdjust="spacingAndGlyphs" textLength="35" x="37.5" y="1275.6533">UC35</text><!--MD5=[2402d7512d9aa01d473b8fba52e12d98]
entity actor188193734--><ellipse cx="235.5" cy="788" fill="#FEFECE" filter="url(#f11fslla1bisva)" rx="8" ry="8" style="stroke: #A80036; stroke-width: 1.5;"/><path d="M235.5,796 L235.5,823 M222.5,804 L248.5,804 M235.5,823 L222.5,838 M235.5,823 L248.5,838 " fill="none" filter="url(#f11fslla1bisva)" style="stroke: #A80036; stroke-width: 1.5;"/><text fill="#000000" font-family="sans-serif" font-size="14" lengthAdjust="spacingAndGlyphs" textLength="52" x="209.5" y="859.6533">DataList</text><!--MD5=[48faab64eded09b63ad4f05abad6bb56]
entity UC36--><ellipse cx="55" cy="490" fill="#FEFECE" filter="url(#f11fslla1bisva)" rx="8" ry="8" style="stroke: #A80036; stroke-width: 1.5;"/><path d="M55,498 L55,525 M42,506 L68,506 M55,525 L42,540 M55,525 L68,540 " fill="none" filter="url(#f11fslla1bisva)" style="stroke: #A80036; stroke-width: 1.5;"/><text fill="#000000" font-family="sans-serif" font-size="14" lengthAdjust="spacingAndGlyphs" textLength="35" x="37.5" y="561.6533">UC36</text><!--MD5=[8481e12de87a1312750ac4c8dab83d6c]
entity UC37--><ellipse cx="55" cy="609" fill="#FEFECE" filter="url(#f11fslla1bisva)" rx="8" ry="8" style="stroke: #A80036; stroke-width: 1.5;"/><path d="M55,617 L55,644 M42,625 L68,625 M55,644 L42,659 M55,644 L68,659 " fill="none" filter="url(#f11fslla1bisva)" style="stroke: #A80036; stroke-width: 1.5;"/><text fill="#000000" font-family="sans-serif" font-size="14" lengthAdjust="spacingAndGlyphs" textLength="35" x="37.5" y="680.6533">UC37</text><!--MD5=[a95627839bb55df4928c01e4d2504fb5]
entity UC38--><ellipse cx="55" cy="728" fill="#FEFECE" filter="url(#f11fslla1bisva)" rx="8" ry="8" style="stroke: #A80036; stroke-width: 1.5;"/><path d="M55,736 L55,763 M42,744 L68,744 M55,763 L42,778 M55,763 L68,778 " fill="none" filter="url(#f11fslla1bisva)" style="stroke: #A80036; stroke-width: 1.5;"/><text fill="#000000" font-family="sans-serif" font-size="14" lengthAdjust="spacingAndGlyphs" textLength="35" x="37.5" y="799.6533">UC38</text><!--MD5=[d1d83f54af2323e506dab258bd072650]
entity UC39--><ellipse cx="55" cy="1323" fill="#FEFECE" filter="url(#f11fslla1bisva)" rx="8" ry="8" style="stroke: #A80036; stroke-width: 1.5;"/><path d="M55,1331 L55,1358 M42,1339 L68,1339 M55,1358 L42,1373 M55,1358 L68,1373 " fill="none" filter="url(#f11fslla1bisva)" style="stroke: #A80036; stroke-width: 1.5;"/><text fill="#000000" font-family="sans-serif" font-size="14" lengthAdjust="spacingAndGlyphs" textLength="35" x="37.5" y="1394.6533">UC39</text><!--MD5=[d90094311435cfb86829af3e65eedad8]
entity actor517787604--><ellipse cx="235.5" cy="252" fill="#FEFECE" filter="url(#f11fslla1bisva)" rx="8" ry="8" style="stroke: #A80036; stroke-width: 1.5;"/><path d="M235.5,260 L235.5,287 M222.5,268 L248.5,268 M235.5,287 L222.5,302 M235.5,287 L248.5,302 " fill="none" filter="url(#f11fslla1bisva)" style="stroke: #A80036; stroke-width: 1.5;"/><text fill="#000000" font-family="sans-serif" font-size="14" lengthAdjust="spacingAndGlyphs" textLength="69" x="201" y="323.6533">Data_base</text><!--MD5=[711f26ee2fce26369b065185c8cd83c8]
entity UC40--><ellipse cx="55" cy="133" fill="#FEFECE" filter="url(#f11fslla1bisva)" rx="8" ry="8" style="stroke: #A80036; stroke-width: 1.5;"/><path d="M55,141 L55,168 M42,149 L68,149 M55,168 L42,183 M55,168 L68,183 " fill="none" filter="url(#f11fslla1bisva)" style="stroke: #A80036; stroke-width: 1.5;"/><text fill="#000000" font-family="sans-serif" font-size="14" lengthAdjust="spacingAndGlyphs" textLength="35" x="37.5" y="204.6533">UC40</text><!--MD5=[682f403ea321a47fdaa80434fbdda2d9]
entity UC41--><ellipse cx="55" cy="1442" fill="#FEFECE" filter="url(#f11fslla1bisva)" rx="8" ry="8" style="stroke: #A80036; stroke-width: 1.5;"/><path d="M55,1450 L55,1477 M42,1458 L68,1458 M55,1477 L42,1492 M55,1477 L68,1492 " fill="none" filter="url(#f11fslla1bisva)" style="stroke: #A80036; stroke-width: 1.5;"/><text fill="#000000" font-family="sans-serif" font-size="14" lengthAdjust="spacingAndGlyphs" textLength="35" x="37.5" y="1513.6533">UC41</text><!--MD5=[95b4ed030f292656a32715db6868917b]
entity UC42--><ellipse cx="55" cy="1561" fill="#FEFECE" filter="url(#f11fslla1bisva)" rx="8" ry="8" style="stroke: #A80036; stroke-width: 1.5;"/><path d="M55,1569 L55,1596 M42,1577 L68,1577 M55,1596 L42,1611 M55,1596 L68,1611 " fill="none" filter="url(#f11fslla1bisva)" style="stroke: #A80036; stroke-width: 1.5;"/><text fill="#000000" font-family="sans-serif" font-size="14" lengthAdjust="spacingAndGlyphs" textLength="35" x="37.5" y="1632.6533">UC42</text><!--MD5=[00bd973c648c2139f0586ab98eceaff1]
entity UC43--><ellipse cx="55" cy="1680" fill="#FEFECE" filter="url(#f11fslla1bisva)" rx="8" ry="8" style="stroke: #A80036; stroke-width: 1.5;"/><path d="M55,1688 L55,1715 M42,1696 L68,1696 M55,1715 L42,1730 M55,1715 L68,1730 " fill="none" filter="url(#f11fslla1bisva)" style="stroke: #A80036; stroke-width: 1.5;"/><text fill="#000000" font-family="sans-serif" font-size="14" lengthAdjust="spacingAndGlyphs" textLength="35" x="37.5" y="1751.6533">UC43</text><!--MD5=[c5898a22be1a86da8c199e65cfa2ceeb]
entity UC44--><ellipse cx="55" cy="847" fill="#FEFECE" filter="url(#f11fslla1bisva)" rx="8" ry="8" style="stroke: #A80036; stroke-width: 1.5;"/><path d="M55,855 L55,882 M42,863 L68,863 M55,882 L42,897 M55,882 L68,897 " fill="none" filter="url(#f11fslla1bisva)" style="stroke: #A80036; stroke-width: 1.5;"/><text fill="#000000" font-family="sans-serif" font-size="14" lengthAdjust="spacingAndGlyphs" textLength="35" x="37.5" y="918.6533">UC44</text><!--MD5=[80b0bd68581e9f87d1305c85b40ac56c]
entity UC45--><ellipse cx="55" cy="966" fill="#FEFECE" filter="url(#f11fslla1bisva)" rx="8" ry="8" style="stroke: #A80036; stroke-width: 1.5;"/><path d="M55,974 L55,1001 M42,982 L68,982 M55,1001 L42,1016 M55,1001 L68,1016 " fill="none" filter="url(#f11fslla1bisva)" style="stroke: #A80036; stroke-width: 1.5;"/><text fill="#000000" font-family="sans-serif" font-size="14" lengthAdjust="spacingAndGlyphs" textLength="35" x="37.5" y="1037.6533">UC45</text><!--MD5=[673483302dce69875205b1fc0efbb795]
entity UC46--><ellipse cx="55" cy="1085" fill="#FEFECE" filter="url(#f11fslla1bisva)" rx="8" ry="8" style="stroke: #A80036; stroke-width: 1.5;"/><path d="M55,1093 L55,1120 M42,1101 L68,1101 M55,1120 L42,1135 M55,1120 L68,1135 " fill="none" filter="url(#f11fslla1bisva)" style="stroke: #A80036; stroke-width: 1.5;"/><text fill="#000000" font-family="sans-serif" font-size="14" lengthAdjust="spacingAndGlyphs" textLength="35" x="37.5" y="1156.6533">UC46</text><!--MD5=[843e5885de36eb49faa85c1c254894cc]
entity UC47--><ellipse cx="55" cy="1799" fill="#FEFECE" filter="url(#f11fslla1bisva)" rx="8" ry="8" style="stroke: #A80036; stroke-width: 1.5;"/><path d="M55,1807 L55,1834 M42,1815 L68,1815 M55,1834 L42,1849 M55,1834 L68,1849 " fill="none" filter="url(#f11fslla1bisva)" style="stroke: #A80036; stroke-width: 1.5;"/><text fill="#000000" font-family="sans-serif" font-size="14" lengthAdjust="spacingAndGlyphs" textLength="35" x="37.5" y="1870.6533">UC47</text><!--MD5=[b7413187407acc93f3ea158ebebbe7a7]
entity UC48--><ellipse cx="55" cy="252" fill="#FEFECE" filter="url(#f11fslla1bisva)" rx="8" ry="8" style="stroke: #A80036; stroke-width: 1.5;"/><path d="M55,260 L55,287 M42,268 L68,268 M55,287 L42,302 M55,287 L68,302 " fill="none" filter="url(#f11fslla1bisva)" style="stroke: #A80036; stroke-width: 1.5;"/><text fill="#000000" font-family="sans-serif" font-size="14" lengthAdjust="spacingAndGlyphs" textLength="35" x="37.5" y="323.6533">UC48</text><!--MD5=[8100e5bfb8ace53b137c995805f0970a]
entity UC49--><ellipse cx="55" cy="1918" fill="#FEFECE" filter="url(#f11fslla1bisva)" rx="8" ry="8" style="stroke: #A80036; stroke-width: 1.5;"/><path d="M55,1926 L55,1953 M42,1934 L68,1934 M55,1953 L42,1968 M55,1953 L68,1968 " fill="none" filter="url(#f11fslla1bisva)" style="stroke: #A80036; stroke-width: 1.5;"/><text fill="#000000" font-family="sans-serif" font-size="14" lengthAdjust="spacingAndGlyphs" textLength="35" x="37.5" y="1989.6533">UC49</text><!--MD5=[ff2cfac5f43e701ce7de056768dc8c39]
entity actor417118375--><ellipse cx="235.5" cy="14" fill="#FEFECE" filter="url(#f11fslla1bisva)" rx="8" ry="8" style="stroke: #A80036; stroke-width: 1.5;"/><path d="M235.5,22 L235.5,49 M222.5,30 L248.5,30 M235.5,49 L222.5,64 M235.5,49 L248.5,64 " fill="none" filter="url(#f11fslla1bisva)" style="stroke: #A80036; stroke-width: 1.5;"/><text fill="#000000" font-family="sans-serif" font-size="14" lengthAdjust="spacingAndGlyphs" textLength="51" x="210" y="85.6533">Member</text><!--MD5=[d9e106cf86b11b7cabb5fd8e161911e1]
entity UC50--><ellipse cx="55" cy="14" fill="#FEFECE" filter="url(#f11fslla1bisva)" rx="8" ry="8" style="stroke: #A80036; stroke-width: 1.5;"/><path d="M55,22 L55,49 M42,30 L68,30 M55,49 L42,64 M55,49 L68,64 " fill="none" filter="url(#f11fslla1bisva)" style="stroke: #A80036; stroke-width: 1.5;"/><text fill="#000000" font-family="sans-serif" font-size="14" lengthAdjust="spacingAndGlyphs" textLength="35" x="37.5" y="85.6533">UC50</text><!--MD5=[5164e15ea21cd706935c7baf61533635]
entity UC51--><ellipse cx="55" cy="371" fill="#FEFECE" filter="url(#f11fslla1bisva)" rx="8" ry="8" style="stroke: #A80036; stroke-width: 1.5;"/><path d="M55,379 L55,406 M42,387 L68,387 M55,406 L42,421 M55,406 L68,421 " fill="none" filter="url(#f11fslla1bisva)" style="stroke: #A80036; stroke-width: 1.5;"/><text fill="#000000" font-family="sans-serif" font-size="14" lengthAdjust="spacingAndGlyphs" textLength="35" x="37.5" y="442.6533">UC51</text><!--MD5=[c07b00cd3f0bc4a713fb49d6e77c40f7]
entity UC52--><ellipse cx="55" cy="2037" fill="#FEFECE" filter="url(#f11fslla1bisva)" rx="8" ry="8" style="stroke: #A80036; stroke-width: 1.5;"/><path d="M55,2045 L55,2072 M42,2053 L68,2053 M55,2072 L42,2087 M55,2072 L68,2087 " fill="none" filter="url(#f11fslla1bisva)" style="stroke: #A80036; stroke-width: 1.5;"/><text fill="#000000" font-family="sans-serif" font-size="14" lengthAdjust="spacingAndGlyphs" textLength="35" x="37.5" y="2108.6533">UC52</text><!--MD5=[5c87ff83fe6aaf89407294755c629829]
link actor2045560071 to UC964895360--><path d="M58.39,3557.17 C64.93,3455.4 86.39,3200.8 140,3137.5 C157.92,3116.34 190.03,3108.35 211.8,3105.33 " fill="none" id="actor2045560071-UC964895360" style="stroke: #A80036; stroke-width: 1.0;"/><!--MD5=[f6f8d7a914c33a818783387e4d61d864]
link actor2045560071 to UC1231469233--><path d="M59.83,3557.4 C68.86,3466.92 94.23,3257.92 140,3205.5 C151.93,3191.84 169.76,3183.67 186.73,3178.78 " fill="none" id="actor2045560071-UC1231469233" style="stroke: #A80036; stroke-width: 1.0;"/><!--MD5=[684210ec648806d79fd2a205bea6bb5f]
link actor2045560071 to UC2131723476--><path d="M63.5,3557.38 C76.09,3482.09 103.69,3330.36 140,3290.5 C159.73,3268.85 194.26,3260.97 215.67,3253.31 " fill="none" id="actor2045560071-UC2131723476" style="stroke: #A80036; stroke-width: 1.0;"/><!--MD5=[684210ec648806d79fd2a205bea6bb5f]
link actor2045560071 to UC2131723476--><path d="M60.53,3557.24 C71.29,3474.69 100.49,3298.87 140,3255.5 C158.08,3235.65 188.61,3227.38 210.06,3227.86 " fill="none" id="actor2045560071-UC2131723476-1" style="stroke: #A80036; stroke-width: 1.0;"/><!--MD5=[745471217bf08eab93bd8356b9961857]
link actor2045560071 to UC115297013--><path d="M69.72,3557.37 C82.73,3515.37 105.46,3451.37 140,3403.5 C164.15,3370.03 205.6,3342.13 224.54,3323.13 " fill="none" id="actor2045560071-UC115297013" style="stroke: #A80036; stroke-width: 1.0;"/><!--MD5=[745471217bf08eab93bd8356b9961857]
link actor2045560071 to UC115297013--><path d="M62.93,3557.1 C73.89,3507.35 98.36,3426.2 140,3368.5 C157.77,3343.88 184.9,3322.26 205.54,3310.97 " fill="none" id="actor2045560071-UC115297013-1" style="stroke: #A80036; stroke-width: 1.0;"/><!--MD5=[791f347f8e52950ab25116958ad72138]
link UC27 to actor652803980--><path d="M72.79,2937.05 C101.35,2946.49 159.97,2965.87 198.24,2978.51 " fill="none" id="UC27-actor652803980" style="stroke: #A80036; stroke-width: 1.0;"/><!--MD5=[a565412a7b38550bd6d4505a685aac90]
link UC28 to actor1520921298--><path d="M72.79,2699.05 C104.47,2709.52 173.16,2732.23 210,2744.4 " fill="none" id="UC28-actor1520921298" style="stroke: #A80036; stroke-width: 1.0;"/><!--MD5=[940f7701571fa4283f480f788da326f0]
link UC29 to actor1494051958--><path d="M72.79,2458.32 C104.3,2463.62 172.41,2475.07 209.39,2481.28 " fill="none" id="UC29-actor1494051958" style="stroke: #A80036; stroke-width: 1.0;"/><!--MD5=[2a860edd511e36bbd863eb2c9cc167aa]
link UC30 to actor1494051958--><path d="M72.79,2566.13 C104.3,2550.42 172.41,2516.46 209.39,2498.02 " fill="none" id="UC30-actor1494051958" style="stroke: #A80036; stroke-width: 1.0;"/><!--MD5=[ad36b89f424742468422950e6b86d8fa]
link UC31 to actor1520921298--><path d="M72.79,2806.86 C104.47,2796.21 173.16,2773.12 210,2760.74 " fill="none" id="UC31-actor1520921298" style="stroke: #A80036; stroke-width: 1.0;"/><!--MD5=[f032102129c8f81face1de11ede5ffb8]
link UC32 to actor652803980--><path d="M72.79,3044.86 C101.35,3035.26 159.97,3015.55 198.24,3002.69 " fill="none" id="UC32-actor652803980" style="stroke: #A80036; stroke-width: 1.0;"/><!--MD5=[6ac9de09e4899c2454ea1fd149e36802]
link actor2045560071 to UC38851648--><path d="M70.93,3557.31 C84.39,3524.84 107.15,3481 140,3453.5 C160.99,3435.93 191.78,3427.12 212.45,3422.94 " fill="none" id="actor2045560071-UC38851648" style="stroke: #A80036; stroke-width: 1.0;"/><!--MD5=[cfd48563a3113095ebe363c740d5f794]
link actor2045560071 to UC1992844647--><path d="M104.3,3569.19 C141.27,3546 190.19,3515.3 216.28,3498.93 " fill="none" id="actor2045560071-UC1992844647" style="stroke: #A80036; stroke-width: 1.0;"/><!--MD5=[57ede1c064a2f3d54b2144e9070f14f2]
link UC33 to actor2120154283--><path d="M72.79,2307.5 C95.44,2307.5 137.02,2307.5 172.35,2307.5 " fill="none" id="UC33-actor2120154283" style="stroke: #A80036; stroke-width: 1.0;"/><!--MD5=[1c09d040951b8ec09a603161fb9b6e21]
link UC34 to actor94690722--><path d="M72.79,2188.5 C106.38,2188.5 181.58,2188.5 216.3,2188.5 " fill="none" id="UC34-actor94690722" style="stroke: #A80036; stroke-width: 1.0;"/><!--MD5=[f0b564fa135a96013ae2c5e2544e8a04]
link actor2045560071 to UC1510333744--><path d="M68.27,3641.87 C105.92,3697.83 218.16,3689.23 232.9,3616.09 " fill="none" id="actor2045560071-UC1510333744" style="stroke: #A80036; stroke-width: 1.0;"/><!--MD5=[f0b564fa135a96013ae2c5e2544e8a04]
link actor2045560071 to UC1510333744--><path d="M89.57,3641.59 C135.02,3661.39 212.53,3652.95 230.64,3616.27 " fill="none" id="actor2045560071-UC1510333744-1" style="stroke: #A80036; stroke-width: 1.0;"/><!--MD5=[f0b564fa135a96013ae2c5e2544e8a04]
link actor2045560071 to UC1510333744--><path d="M104.3,3623.12 C143.13,3628.47 195.14,3625.65 220.04,3614.65 " fill="none" id="actor2045560071-UC1510333744-2" style="stroke: #A80036; stroke-width: 1.0;"/><!--MD5=[f0b564fa135a96013ae2c5e2544e8a04]
link actor2045560071 to UC1510333744--><path d="M104.3,3599.5 C133.94,3599.5 171.26,3599.5 198.34,3599.5 " fill="none" id="actor2045560071-UC1510333744-3" style="stroke: #A80036; stroke-width: 1.0;"/><!--MD5=[f0b564fa135a96013ae2c5e2544e8a04]
link actor2045560071 to UC1510333744--><path d="M104.3,3575.88 C143.13,3570.53 195.14,3573.35 220.04,3584.35 " fill="none" id="actor2045560071-UC1510333744-4" style="stroke: #A80036; stroke-width: 1.0;"/><!--MD5=[f0b564fa135a96013ae2c5e2544e8a04]
link actor2045560071 to UC1510333744--><path d="M89.57,3557.41 C135.02,3537.61 212.53,3546.05 230.64,3582.73 " fill="none" id="actor2045560071-UC1510333744-5" style="stroke: #A80036; stroke-width: 1.0;"/><!--MD5=[f0b564fa135a96013ae2c5e2544e8a04]
link actor2045560071 to UC1510333744--><path d="M68.27,3557.13 C105.92,3501.17 218.16,3509.77 232.9,3582.91 " fill="none" id="actor2045560071-UC1510333744-6" style="stroke: #A80036; stroke-width: 1.0;"/><!--MD5=[78ec1e79572ea2d818e18a74c6db394a]
link actor2045560071 to UC628694336--><path d="M104.29,3635.92 C115.95,3641.13 128.39,3646.06 140,3650.5 C152.54,3655.29 166.09,3660.28 178.9,3664.44 " fill="none" id="actor2045560071-UC628694336" style="stroke: #A80036; stroke-width: 1.0;"/><!--MD5=[78ec1e79572ea2d818e18a74c6db394a]
link actor2045560071 to UC628694336--><path d="M104.29,3601.95 C115.95,3606.13 128.39,3611.06 140,3615.5 C169.15,3626.64 203.74,3638.82 221.91,3651.3 " fill="none" id="actor2045560071-UC628694336-1" style="stroke: #A80036; stroke-width: 1.0;"/><!--MD5=[9ce3f313cf10505de8eb1c02e9a88660]
link actor2045560071 to UC1150063356--><path d="M79.69,3641.65 C103.17,3675.19 136.18,3715.81 140,3718.5 C147.7,3723.92 156.35,3728.57 165.22,3732.37 " fill="none" id="actor2045560071-UC1150063356" style="stroke: #A80036; stroke-width: 1.0;"/><!--MD5=[9ce3f313cf10505de8eb1c02e9a88660]
link actor2045560071 to UC1150063356--><path d="M103.34,3641.76 C120.97,3661.9 137.37,3681.65 140,3683.5 C164.09,3700.47 197.56,3709.85 217.52,3719.45 " fill="none" id="actor2045560071-UC1150063356-1" style="stroke: #A80036; stroke-width: 1.0;"/><!--MD5=[8cb7f532f1aa266378171348f78ea9f3]
link actor2045560071 to UC622625093--><path d="M80.44,3641.77 C88.77,3652.81 97.59,3664.65 104,3676.5 C128.46,3721.75 104.16,3749.6 140,3786.5 C147.41,3794.13 156.65,3800.05 166.44,3804.42 " fill="none" id="actor2045560071-UC622625093" style="stroke: #A80036; stroke-width: 1.0;"/><!--MD5=[8cb7f532f1aa266378171348f78ea9f3]
link actor2045560071 to UC622625093--><path d="M104.14,3641.76 C128.36,3686.86 104.23,3714.67 140,3751.5 C159.56,3771.64 191.89,3779.89 213.2,3787.72 " fill="none" id="actor2045560071-UC622625093-1" style="stroke: #A80036; stroke-width: 1.0;"/><!--MD5=[f86f80d870e25cce1c21f14635e1d3bd]
link actor2045560071 to UC458385820--><path d="M93.74,3641.79 C97.62,3647.49 101.18,3653.46 104,3659.5 C138.17,3732.62 87.24,3776.42 140,3837.5 C154.82,3854.65 178.96,3863.15 199.13,3867.36 " fill="none" id="actor2045560071-UC458385820" style="stroke: #A80036; stroke-width: 1.0;"/><!--MD5=[204cf6c4fda4bd315200e2aa0a63fa38]
link UC35 to actor230610941--><path d="M72.59,1253.7 C82.71,1264.9 95.32,1280.23 104,1295.5 C164.47,1401.93 205.83,1541.57 224.02,1610.4 " fill="none" id="UC35-actor230610941" style="stroke: #A80036; stroke-width: 1.0;"/><!--MD5=[b5666593db91929c65d521dad0caf24c]
link UC36 to actor188193734--><path d="M72.71,541.21 C82.39,552.49 94.5,567.36 104,581.5 C148.15,647.24 190.39,729.27 214.32,778.13 " fill="none" id="UC36-actor188193734" style="stroke: #A80036; stroke-width: 1.0;"/><!--MD5=[6d4de7174bda8de6327ae73f8832051b]
link UC37 to actor188193734--><path d="M72.79,658.34 C104.3,689.93 172.41,758.24 209.39,795.32 " fill="none" id="UC37-actor188193734" style="stroke: #A80036; stroke-width: 1.0;"/><!--MD5=[ee9344170e4876e8a938f6e4bfa5986e]
link UC38 to actor188193734--><path d="M72.79,766.14 C104.3,776.73 172.41,799.63 209.39,812.06 " fill="none" id="UC38-actor188193734" style="stroke: #A80036; stroke-width: 1.0;"/><!--MD5=[2f16c4064cf92d4dcbd331f737c42a14]
link UC39 to actor230610941--><path d="M72.7,1374.22 C82.38,1385.5 94.49,1400.37 104,1414.5 C148.06,1479.99 190.33,1561.67 214.29,1610.32 " fill="none" id="UC39-actor230610941" style="stroke: #A80036; stroke-width: 1.0;"/><!--MD5=[32ff25b299727aafdbde2bf6a5791ed1]
link actor2045560071 to UC147077478--><path d="M70.67,3641.83 C81.71,3659.64 96.23,3676.64 104,3694.5 C147.9,3795.42 86.25,3843.46 140,3939.5 C158.07,3971.78 194.87,3996.51 216.84,3998.35 " fill="none" id="actor2045560071-UC147077478" style="stroke: #A80036; stroke-width: 1.0;"/><!--MD5=[32ff25b299727aafdbde2bf6a5791ed1]
link actor2045560071 to UC147077478--><path d="M94.05,3641.65 C97.89,3647.37 101.34,3653.38 104,3659.5 C147.9,3760.42 86.25,3808.46 140,3904.5 C156.29,3933.61 187.82,3956.58 209.96,3970.08 " fill="none" id="actor2045560071-UC147077478-1" style="stroke: #A80036; stroke-width: 1.0;"/><!--MD5=[32ff25b299727aafdbde2bf6a5791ed1]
link actor2045560071 to UC147077478--><path d="M104.13,3624.8 C147.78,3725.52 86.31,3773.55 140,3869.5 C162.45,3909.62 213.85,3938.07 229.73,3966.89 " fill="none" id="actor2045560071-UC147077478-2" style="stroke: #A80036; stroke-width: 1.0;"/><!--MD5=[e0b0348b498984e0ac609b46855da5d1]
link UC40 to actor517787604--><path d="M72.79,176.7 C102.04,196.19 162.84,236.73 200.99,262.16 " fill="none" id="UC40-actor517787604" style="stroke: #A80036; stroke-width: 1.0;"/><!--MD5=[026aa4bbcefa6fd5c3b77cc73a2f5906]
link UC41 to actor230610941--><path d="M72.79,1491.25 C100.48,1518.85 156.44,1574.66 194.69,1612.8 " fill="none" id="UC41-actor230610941" style="stroke: #A80036; stroke-width: 1.0;"/><!--MD5=[737dca215f5f3ff8c079eed01c5cbdc7]
link UC42 to actor230610941--><path d="M72.79,1599.05 C100.48,1608.2 156.44,1626.7 194.69,1639.34 " fill="none" id="UC42-actor230610941" style="stroke: #A80036; stroke-width: 1.0;"/><!--MD5=[0034b7b219f112c7e43e85373ce4203b]
link UC43 to actor230610941--><path d="M72.79,1706.86 C100.48,1697.55 156.44,1678.74 194.69,1665.88 " fill="none" id="UC43-actor230610941" style="stroke: #A80036; stroke-width: 1.0;"/><!--MD5=[92ab240388c3b8fd57e71746ec1f411c]
link UC44 to actor188193734--><path d="M72.79,873.95 C104.3,863.54 172.41,841.02 209.39,828.8 " fill="none" id="UC44-actor188193734" style="stroke: #A80036; stroke-width: 1.0;"/><!--MD5=[984e7105f684bd83340657e7484f2e04]
link UC45 to actor188193734--><path d="M72.79,981.75 C104.3,950.34 172.41,882.41 209.39,845.54 " fill="none" id="UC45-actor188193734" style="stroke: #A80036; stroke-width: 1.0;"/><!--MD5=[f10e77c9b9dddfc7e95067ec004cdccd]
link UC46 to actor188193734--><path d="M72.66,1098.42 C82.33,1086.93 94.44,1071.81 104,1057.5 C147.58,992.28 189.84,911.29 213.95,862.87 " fill="none" id="UC46-actor188193734" style="stroke: #A80036; stroke-width: 1.0;"/><!--MD5=[33bf37b64c582cedaee09ac173cf01b1]
link UC47 to actor230610941--><path d="M72.79,1814.66 C100.48,1786.9 156.44,1730.78 194.69,1692.42 " fill="none" id="UC47-actor230610941" style="stroke: #A80036; stroke-width: 1.0;"/><!--MD5=[b9b2b3a1e3aacfdaef0fafe3ea1807eb]
link UC48 to actor517787604--><path d="M72.79,284.5 C102.04,284.5 162.84,284.5 200.99,284.5 " fill="none" id="UC48-actor517787604" style="stroke: #A80036; stroke-width: 1.0;"/><!--MD5=[a867133403fa39ec68439b5e0b3c316a]
link UC49 to actor230610941--><path d="M72.67,1931.42 C82.34,1919.94 94.45,1904.82 104,1890.5 C147.79,1824.83 190.15,1743.21 214.2,1694.62 " fill="none" id="UC49-actor230610941" style="stroke: #A80036; stroke-width: 1.0;"/><!--MD5=[d61d8af5b51abbb67c9bfa2d3e374fac]
link actor2045560071 to UC957683143--><path d="M94.32,3641.53 C98.11,3647.27 101.48,3653.32 104,3659.5 C164.28,3807.14 65.3,3875.61 140,4016.5 C155.13,4045.03 185.29,4067.39 207.48,4080.93 " fill="none" id="actor2045560071-UC957683143" style="stroke: #A80036; stroke-width: 1.0;"/><!--MD5=[9e893eca70fa41f1a5e1e23063704faa]
link UC50 to actor417118375--><path d="M72.79,46.5 C104.47,46.5 173.16,46.5 210,46.5 " fill="none" id="UC50-actor417118375" style="stroke: #A80036; stroke-width: 1.0;"/><!--MD5=[0179f5eaa02a893b1f9aa6eb83f310bb]
link UC51 to actor517787604--><path d="M72.79,392.3 C102.04,372.81 162.84,332.27 200.99,306.84 " fill="none" id="UC51-actor517787604" style="stroke: #A80036; stroke-width: 1.0;"/><!--MD5=[5747758e515f512593394eb41e089374]
link UC52 to actor230610941--><path d="M72.57,2051.96 C82.68,2040.55 95.3,2024.96 104,2009.5 C164.04,1902.82 205.59,1763.3 223.92,1694.54 " fill="none" id="UC52-actor230610941" style="stroke: #A80036; stroke-width: 1.0;"/><!--MD5=[7f38c6fbbfe03f2a851c9b80566abcd1]
@startuml
 left to right direction

actor GraphStructure as actor2045560071

	rectangle main{
	 usecase exec as UC964895360
	actor2045560071- -UC964895360
	 usecase getRuntime as UC1231469233
	actor2045560071- -UC1231469233
	 usecase waitFor as UC2131723476
	actor2045560071- -UC2131723476
	 usecase println as UC115297013
	actor2045560071- -UC115297013
	}
	actor PrintStream as actor652803980
	 UC27 - - actor652803980
	actor Process as actor1520921298
	 UC28 - - actor1520921298
	actor Runtime as actor1494051958
	 UC29 - - actor1494051958
	actor Runtime as actor1494051958
	 UC30 - - actor1494051958
	rectangle main{
	 usecase println as UC115297013
	actor2045560071- -UC115297013
	 usecase waitFor as UC2131723476
	actor2045560071- -UC2131723476
	}
	actor Process as actor1520921298
	 UC31 - - actor1520921298
	actor PrintStream as actor652803980
	 UC32 - - actor652803980
	rectangle makeFile{
	 usecase write as UC38851648
	actor2045560071- -UC38851648
	 usecase close as UC1992844647
	actor2045560071- -UC1992844647
	}
	actor OutputStreamWriter as actor2120154283
	 UC33 - - actor2120154283
	actor Writer as actor94690722
	 UC34 - - actor94690722
	rectangle makeGraphScript{
	 usecase append as UC1510333744
	actor2045560071- -UC1510333744
	 usecase getClassList as UC628694336
	actor2045560071- -UC628694336
	 usecase getFunctionList as UC1150063356
	actor2045560071- -UC1150063356
	 usecase getMemberList as UC622625093
	actor2045560071- -UC622625093
	 usecase toString as UC458385820
	actor2045560071- -UC458385820
	}
	actor StringBuilder as actor230610941
	 UC35 - - actor230610941
	actor DataList as actor188193734
	 UC36 - - actor188193734
	actor DataList as actor188193734
	 UC37 - - actor188193734
	actor DataList as actor188193734
	 UC38 - - actor188193734
	actor StringBuilder as actor230610941
	 UC39 - - actor230610941
	rectangle classExtends{
	 usecase append as UC1510333744
	actor2045560071- -UC1510333744
	 usecase getName as UC147077478
	actor2045560071- -UC147077478
	}
	actor Data_base as actor517787604
	 UC40 - - actor517787604
	actor StringBuilder as actor230610941
	 UC41 - - actor230610941
	rectangle addListSize{
	 usecase append as UC1510333744
	actor2045560071- -UC1510333744
	}
	actor StringBuilder as actor230610941
	 UC42 - - actor230610941
	rectangle classDef{
	 usecase append as UC1510333744
	actor2045560071- -UC1510333744
	}
	actor StringBuilder as actor230610941
	 UC43 - - actor230610941
	rectangle addList{
	 usecase append as UC1510333744
	actor2045560071- -UC1510333744
	 usecase getClassList as UC628694336
	actor2045560071- -UC628694336
	 usecase getMemberList as UC622625093
	actor2045560071- -UC622625093
	 usecase getFunctionList as UC1150063356
	actor2045560071- -UC1150063356
	}
	actor DataList as actor188193734
	 UC44 - - actor188193734
	actor DataList as actor188193734
	 UC45 - - actor188193734
	actor DataList as actor188193734
	 UC46 - - actor188193734
	actor StringBuilder as actor230610941
	 UC47 - - actor230610941
	rectangle functionDef{
	 usecase append as UC1510333744
	actor2045560071- -UC1510333744
	 usecase getName as UC147077478
	actor2045560071- -UC147077478
	}
	actor Data_base as actor517787604
	 UC48 - - actor517787604
	actor StringBuilder as actor230610941
	 UC49 - - actor230610941
	rectangle memberDef{
	 usecase append as UC1510333744
	actor2045560071- -UC1510333744
	 usecase getName as UC147077478
	actor2045560071- -UC147077478
	 usecase getImageList as UC957683143
	actor2045560071- -UC957683143
	}
	actor Member as actor417118375
	 UC50 - - actor417118375
	actor Data_base as actor517787604
	 UC51 - - actor517787604
	actor StringBuilder as actor230610941
	 UC52 - - actor230610941

@enduml

PlantUML version 1.2020.19(Tue Oct 13 00:10:01 KST 2020)
(APACHE source distribution)
Java Runtime: Java(TM) SE Runtime Environment
JVM: Java HotSpot(TM) 64-Bit Server VM
Default Encoding: MS949
Language: ko
Country: KR
--></g></svg>