<?xml version="1.0" encoding="UTF-8" standalone="no"?><svg xmlns="http://www.w3.org/2000/svg" xmlns:xlink="http://www.w3.org/1999/xlink" contentScriptType="application/ecmascript" contentStyleType="text/css" height="3301px" preserveAspectRatio="none" style="width:349px;height:3301px;" version="1.1" viewBox="0 0 349 3301" width="349px" zoomAndPan="magnify"><defs><filter height="300%" id="f1rl95tadkofuk" width="300%" x="-1" y="-1"><feGaussianBlur result="blurOut" stdDeviation="2.0"/><feColorMatrix in="blurOut" result="blurOut2" type="matrix" values="0 0 0 0 0 0 0 0 0 0 0 0 0 0 0 0 0 0 .4 0"/><feOffset dx="4.0" dy="4.0" in="blurOut2" result="blurOut3"/><feBlend in="SourceGraphic" in2="blurOut3" mode="normal"/></filter></defs><g><!--MD5=[f6cc7c11640e1aa40840472fadf01e77]
cluster makeASTList--><rect fill="#FFFFFF" filter="url(#f1rl95tadkofuk)" height="88" style="stroke: #000000; stroke-width: 1.5;" width="104" x="177" y="1948.5"/><text fill="#000000" font-family="sans-serif" font-size="14" font-weight="bold" lengthAdjust="spacingAndGlyphs" textLength="88" x="185" y="1966.6533">makeASTList</text><!--MD5=[e5dd8a5917535f46f5bc2692b2c9a989]
cluster makeFileList--><rect fill="#FFFFFF" filter="url(#f1rl95tadkofuk)" height="88" style="stroke: #000000; stroke-width: 1.5;" width="104" x="177" y="2060.5"/><text fill="#000000" font-family="sans-serif" font-size="14" font-weight="bold" lengthAdjust="spacingAndGlyphs" textLength="88" x="185" y="2078.6533">makeFileList</text><!--MD5=[62e981aedead5d296a0ed090cac6c220]
cluster init--><rect fill="#FFFFFF" filter="url(#f1rl95tadkofuk)" height="1005" style="stroke: #000000; stroke-width: 1.5;" width="216" x="121" y="2172.5"/><text fill="#000000" font-family="sans-serif" font-size="14" font-weight="bold" lengthAdjust="spacingAndGlyphs" textLength="22" x="218" y="2190.6533">init</text><!--MD5=[a70b0d373322012744ecc119c63f921b]
cluster main--><rect fill="#FFFFFF" filter="url(#f1rl95tadkofuk)" height="88" style="stroke: #000000; stroke-width: 1.5;" width="93" x="182.5" y="3201.5"/><text fill="#000000" font-family="sans-serif" font-size="14" font-weight="bold" lengthAdjust="spacingAndGlyphs" textLength="33" x="212.5" y="3219.6533">main</text><ellipse cx="228.9836" cy="2003.5869" fill="#FEFECE" filter="url(#f1rl95tadkofuk)" rx="19.9836" ry="16.5869" style="stroke: #A80036; stroke-width: 1.5;"/><text fill="#000000" font-family="sans-serif" font-size="14" lengthAdjust="spacingAndGlyphs" textLength="24" x="216.9836" y="2009.7016">size</text><ellipse cx="228.9836" cy="2115.5869" fill="#FEFECE" filter="url(#f1rl95tadkofuk)" rx="19.9836" ry="16.5869" style="stroke: #A80036; stroke-width: 1.5;"/><text fill="#000000" font-family="sans-serif" font-size="14" lengthAdjust="spacingAndGlyphs" textLength="24" x="216.9836" y="2121.7016">add</text><ellipse cx="228.862" cy="2227.3724" fill="#FEFECE" filter="url(#f1rl95tadkofuk)" rx="72.362" ry="16.8724" style="stroke: #A80036; stroke-width: 1.5;"/><text fill="#000000" font-family="sans-serif" font-size="14" lengthAdjust="spacingAndGlyphs" textLength="100" x="178.862" y="2233.4871">printStackTrace</text><ellipse cx="228.9411" cy="2296.5973" fill="#FEFECE" filter="url(#f1rl95tadkofuk)" rx="36.9411" ry="16.5973" style="stroke: #A80036; stroke-width: 1.5;"/><text fill="#000000" font-family="sans-serif" font-size="14" lengthAdjust="spacingAndGlyphs" textLength="48" x="204.9411" y="2302.7121">append</text><ellipse cx="229.0061" cy="2364.5973" fill="#FEFECE" filter="url(#f1rl95tadkofuk)" rx="23.5061" ry="16.5973" style="stroke: #A80036; stroke-width: 1.5;"/><text fill="#000000" font-family="sans-serif" font-size="14" lengthAdjust="spacingAndGlyphs" textLength="29" x="214.5061" y="2370.7121">read</text><ellipse cx="228.8345" cy="2432.5973" fill="#FEFECE" filter="url(#f1rl95tadkofuk)" rx="26.3345" ry="16.5973" style="stroke: #A80036; stroke-width: 1.5;"/><text fill="#000000" font-family="sans-serif" font-size="14" lengthAdjust="spacingAndGlyphs" textLength="33" x="212.3345" y="2438.7121">close</text><ellipse cx="228.8762" cy="2500.5973" fill="#FEFECE" filter="url(#f1rl95tadkofuk)" rx="50.3762" ry="16.5973" style="stroke: #A80036; stroke-width: 1.5;"/><text fill="#000000" font-family="sans-serif" font-size="14" lengthAdjust="spacingAndGlyphs" textLength="67" x="195.3762" y="2506.7121">newParser</text><ellipse cx="229.234" cy="2568.5973" fill="#FEFECE" filter="url(#f1rl95tadkofuk)" rx="36.234" ry="16.5973" style="stroke: #A80036; stroke-width: 1.5;"/><text fill="#000000" font-family="sans-serif" font-size="14" lengthAdjust="spacingAndGlyphs" textLength="47" x="205.734" y="2574.7121">setKind</text><ellipse cx="228.7548" cy="2636.5973" fill="#FEFECE" filter="url(#f1rl95tadkofuk)" rx="48.2548" ry="16.5973" style="stroke: #A80036; stroke-width: 1.5;"/><text fill="#000000" font-family="sans-serif" font-size="14" lengthAdjust="spacingAndGlyphs" textLength="64" x="196.7548" y="2642.7121">setSource</text><ellipse cx="228.9472" cy="2704.5973" fill="#FEFECE" filter="url(#f1rl95tadkofuk)" rx="57.4472" ry="16.5973" style="stroke: #A80036; stroke-width: 1.5;"/><text fill="#000000" font-family="sans-serif" font-size="14" lengthAdjust="spacingAndGlyphs" textLength="77" x="190.4472" y="2710.7121">toCharArray</text><ellipse cx="229.1482" cy="2772.5973" fill="#FEFECE" filter="url(#f1rl95tadkofuk)" rx="37.6482" ry="16.5973" style="stroke: #A80036; stroke-width: 1.5;"/><text fill="#000000" font-family="sans-serif" font-size="14" lengthAdjust="spacingAndGlyphs" textLength="49" x="204.6482" y="2778.7121">toString</text><ellipse cx="229.0847" cy="2845.3169" fill="#FEFECE" filter="url(#f1rl95tadkofuk)" rx="92.0847" ry="20.8169" style="stroke: #A80036; stroke-width: 1.5;"/><text fill="#000000" font-family="sans-serif" font-size="14" lengthAdjust="spacingAndGlyphs" textLength="150" x="154.0847" y="2851.4317">setStatementsRecovery</text><ellipse cx="229.0569" cy="2921.4114" fill="#FEFECE" filter="url(#f1rl95tadkofuk)" rx="85.0569" ry="19.4114" style="stroke: #A80036; stroke-width: 1.5;"/><text fill="#000000" font-family="sans-serif" font-size="14" lengthAdjust="spacingAndGlyphs" textLength="133" x="162.5569" y="2927.5261">setBindingsRecovery</text><ellipse cx="228.9543" cy="2994.6909" fill="#FEFECE" filter="url(#f1rl95tadkofuk)" rx="81.4543" ry="18.6909" style="stroke: #A80036; stroke-width: 1.5;"/><text fill="#000000" font-family="sans-serif" font-size="14" lengthAdjust="spacingAndGlyphs" textLength="124" x="166.9543" y="3000.8056">setResolveBindings</text><ellipse cx="229.2443" cy="3068.6489" fill="#FEFECE" filter="url(#f1rl95tadkofuk)" rx="88.7443" ry="20.1489" style="stroke: #A80036; stroke-width: 1.5;"/><text fill="#000000" font-family="sans-serif" font-size="14" lengthAdjust="spacingAndGlyphs" textLength="142" x="158.2443" y="3074.7636">setComplianceOptions</text><ellipse cx="228.9543" cy="3142.6909" fill="#FEFECE" filter="url(#f1rl95tadkofuk)" rx="81.4543" ry="18.6909" style="stroke: #A80036; stroke-width: 1.5;"/><text fill="#000000" font-family="sans-serif" font-size="14" lengthAdjust="spacingAndGlyphs" textLength="124" x="166.9543" y="3148.8056">setCompilerOptions</text><ellipse cx="229.0772" cy="3256.5973" fill="#FEFECE" filter="url(#f1rl95tadkofuk)" rx="30.5772" ry="16.5973" style="stroke: #A80036; stroke-width: 1.5;"/><text fill="#000000" font-family="sans-serif" font-size="14" lengthAdjust="spacingAndGlyphs" textLength="39" x="209.5772" y="3262.7121">println</text><!--MD5=[0d013428919e86c9b087b4ef23cd7f7d]
entity actor1585824283--><ellipse cx="41.5" cy="2604" fill="#FEFECE" filter="url(#f1rl95tadkofuk)" rx="8" ry="8" style="stroke: #A80036; stroke-width: 1.5;"/><path d="M41.5,2612 L41.5,2639 M28.5,2620 L54.5,2620 M41.5,2639 L28.5,2654 M41.5,2639 L54.5,2654 " fill="none" filter="url(#f1rl95tadkofuk)" style="stroke: #A80036; stroke-width: 1.5;"/><text fill="#000000" font-family="sans-serif" font-size="14" lengthAdjust="spacingAndGlyphs" textLength="71" x="6" y="2675.6533">JavaParser</text><!--MD5=[355f04e5136e09d547304b951fcecad1]
entity actor170611939--><ellipse cx="229" cy="1858" fill="#FEFECE" filter="url(#f1rl95tadkofuk)" rx="8" ry="8" style="stroke: #A80036; stroke-width: 1.5;"/><path d="M229,1866 L229,1893 M216,1874 L242,1874 M229,1893 L216,1908 M229,1893 L242,1908 " fill="none" filter="url(#f1rl95tadkofuk)" style="stroke: #A80036; stroke-width: 1.5;"/><text fill="#000000" font-family="sans-serif" font-size="14" lengthAdjust="spacingAndGlyphs" textLength="56" x="201" y="1929.6533">ArrayList</text><!--MD5=[e59b21c4214f69928236262b19d9576c]
entity UC172--><ellipse cx="41.5" cy="1799" fill="#FEFECE" filter="url(#f1rl95tadkofuk)" rx="8" ry="8" style="stroke: #A80036; stroke-width: 1.5;"/><path d="M41.5,1807 L41.5,1834 M28.5,1815 L54.5,1815 M41.5,1834 L28.5,1849 M41.5,1834 L54.5,1849 " fill="none" filter="url(#f1rl95tadkofuk)" style="stroke: #A80036; stroke-width: 1.5;"/><text fill="#000000" font-family="sans-serif" font-size="14" lengthAdjust="spacingAndGlyphs" textLength="43" x="20" y="1870.6533">UC172</text><!--MD5=[ca262d8fd2a172d79648609d32897936]
entity UC173--><ellipse cx="41.5" cy="1918" fill="#FEFECE" filter="url(#f1rl95tadkofuk)" rx="8" ry="8" style="stroke: #A80036; stroke-width: 1.5;"/><path d="M41.5,1926 L41.5,1953 M28.5,1934 L54.5,1934 M41.5,1953 L28.5,1968 M41.5,1953 L54.5,1968 " fill="none" filter="url(#f1rl95tadkofuk)" style="stroke: #A80036; stroke-width: 1.5;"/><text fill="#000000" font-family="sans-serif" font-size="14" lengthAdjust="spacingAndGlyphs" textLength="43" x="20" y="1989.6533">UC173</text><!--MD5=[f73b8e65d1168b5e2be166d0d2cdcfab]
entity actor1514723919--><ellipse cx="229" cy="1323" fill="#FEFECE" filter="url(#f1rl95tadkofuk)" rx="8" ry="8" style="stroke: #A80036; stroke-width: 1.5;"/><path d="M229,1331 L229,1358 M216,1339 L242,1339 M229,1358 L216,1373 M229,1358 L242,1373 " fill="none" filter="url(#f1rl95tadkofuk)" style="stroke: #A80036; stroke-width: 1.5;"/><text fill="#000000" font-family="sans-serif" font-size="14" lengthAdjust="spacingAndGlyphs" textLength="69" x="194.5" y="1394.6533">ASTParser</text><!--MD5=[3949e0c20e418ba5148adb41c0656db2]
entity UC174--><ellipse cx="41.5" cy="966" fill="#FEFECE" filter="url(#f1rl95tadkofuk)" rx="8" ry="8" style="stroke: #A80036; stroke-width: 1.5;"/><path d="M41.5,974 L41.5,1001 M28.5,982 L54.5,982 M41.5,1001 L28.5,1016 M41.5,1001 L54.5,1016 " fill="none" filter="url(#f1rl95tadkofuk)" style="stroke: #A80036; stroke-width: 1.5;"/><text fill="#000000" font-family="sans-serif" font-size="14" lengthAdjust="spacingAndGlyphs" textLength="43" x="20" y="1037.6533">UC174</text><!--MD5=[895984959104f05961972ed8a9e6fc34]
entity actor10536382--><ellipse cx="229" cy="847" fill="#FEFECE" filter="url(#f1rl95tadkofuk)" rx="8" ry="8" style="stroke: #A80036; stroke-width: 1.5;"/><path d="M229,855 L229,882 M216,863 L242,863 M229,882 L216,897 M229,882 L242,897 " fill="none" filter="url(#f1rl95tadkofuk)" style="stroke: #A80036; stroke-width: 1.5;"/><text fill="#000000" font-family="sans-serif" font-size="14" lengthAdjust="spacingAndGlyphs" textLength="60" x="199" y="918.6533">JavaCore</text><!--MD5=[1e94d3a325b014e5523a3e21e3da3473]
entity UC175--><ellipse cx="41.5" cy="847" fill="#FEFECE" filter="url(#f1rl95tadkofuk)" rx="8" ry="8" style="stroke: #A80036; stroke-width: 1.5;"/><path d="M41.5,855 L41.5,882 M28.5,863 L54.5,863 M41.5,882 L28.5,897 M41.5,882 L54.5,897 " fill="none" filter="url(#f1rl95tadkofuk)" style="stroke: #A80036; stroke-width: 1.5;"/><text fill="#000000" font-family="sans-serif" font-size="14" lengthAdjust="spacingAndGlyphs" textLength="43" x="20" y="918.6533">UC175</text><!--MD5=[98486478afdaceaa85c83e9f8e3d35b6]
entity UC176--><ellipse cx="41.5" cy="1085" fill="#FEFECE" filter="url(#f1rl95tadkofuk)" rx="8" ry="8" style="stroke: #A80036; stroke-width: 1.5;"/><path d="M41.5,1093 L41.5,1120 M28.5,1101 L54.5,1101 M41.5,1120 L28.5,1135 M41.5,1120 L54.5,1135 " fill="none" filter="url(#f1rl95tadkofuk)" style="stroke: #A80036; stroke-width: 1.5;"/><text fill="#000000" font-family="sans-serif" font-size="14" lengthAdjust="spacingAndGlyphs" textLength="43" x="20" y="1156.6533">UC176</text><!--MD5=[ebe5b1bdbd8f17683a682ead3a53e027]
entity UC177--><ellipse cx="41.5" cy="1204" fill="#FEFECE" filter="url(#f1rl95tadkofuk)" rx="8" ry="8" style="stroke: #A80036; stroke-width: 1.5;"/><path d="M41.5,1212 L41.5,1239 M28.5,1220 L54.5,1220 M41.5,1239 L28.5,1254 M41.5,1239 L54.5,1254 " fill="none" filter="url(#f1rl95tadkofuk)" style="stroke: #A80036; stroke-width: 1.5;"/><text fill="#000000" font-family="sans-serif" font-size="14" lengthAdjust="spacingAndGlyphs" textLength="43" x="20" y="1275.6533">UC177</text><!--MD5=[3dd8f84680a58caa173c21c86a56d8e1]
entity UC178--><ellipse cx="41.5" cy="1323" fill="#FEFECE" filter="url(#f1rl95tadkofuk)" rx="8" ry="8" style="stroke: #A80036; stroke-width: 1.5;"/><path d="M41.5,1331 L41.5,1358 M28.5,1339 L54.5,1339 M41.5,1358 L28.5,1373 M41.5,1358 L54.5,1373 " fill="none" filter="url(#f1rl95tadkofuk)" style="stroke: #A80036; stroke-width: 1.5;"/><text fill="#000000" font-family="sans-serif" font-size="14" lengthAdjust="spacingAndGlyphs" textLength="43" x="20" y="1394.6533">UC178</text><!--MD5=[864f7e280385d8f93481e354d7c7de74]
entity actor230610941--><ellipse cx="229" cy="668" fill="#FEFECE" filter="url(#f1rl95tadkofuk)" rx="8" ry="8" style="stroke: #A80036; stroke-width: 1.5;"/><path d="M229,676 L229,703 M216,684 L242,684 M229,703 L216,718 M229,703 L242,718 " fill="none" filter="url(#f1rl95tadkofuk)" style="stroke: #A80036; stroke-width: 1.5;"/><text fill="#000000" font-family="sans-serif" font-size="14" lengthAdjust="spacingAndGlyphs" textLength="81" x="188.5" y="739.6533">StringBuilder</text><!--MD5=[0ae06f9f41a02ffafee34c0123e4ff10]
entity UC179--><ellipse cx="41.5" cy="609" fill="#FEFECE" filter="url(#f1rl95tadkofuk)" rx="8" ry="8" style="stroke: #A80036; stroke-width: 1.5;"/><path d="M41.5,617 L41.5,644 M28.5,625 L54.5,625 M41.5,644 L28.5,659 M41.5,644 L54.5,659 " fill="none" filter="url(#f1rl95tadkofuk)" style="stroke: #A80036; stroke-width: 1.5;"/><text fill="#000000" font-family="sans-serif" font-size="14" lengthAdjust="spacingAndGlyphs" textLength="43" x="20" y="680.6533">UC179</text><!--MD5=[2dffe4fb193802cb71d953a00e87dd6c]
entity actor1680139795--><ellipse cx="229" cy="490" fill="#FEFECE" filter="url(#f1rl95tadkofuk)" rx="8" ry="8" style="stroke: #A80036; stroke-width: 1.5;"/><path d="M229,498 L229,525 M216,506 L242,506 M229,525 L216,540 M229,525 L242,540 " fill="none" filter="url(#f1rl95tadkofuk)" style="stroke: #A80036; stroke-width: 1.5;"/><text fill="#000000" font-family="sans-serif" font-size="14" lengthAdjust="spacingAndGlyphs" textLength="37" x="210.5" y="561.6533">String</text><!--MD5=[1fa4891a99618bc65d9962cacfc3c5c6]
entity UC180--><ellipse cx="41.5" cy="490" fill="#FEFECE" filter="url(#f1rl95tadkofuk)" rx="8" ry="8" style="stroke: #A80036; stroke-width: 1.5;"/><path d="M41.5,498 L41.5,525 M28.5,506 L54.5,506 M41.5,525 L28.5,540 M41.5,525 L54.5,540 " fill="none" filter="url(#f1rl95tadkofuk)" style="stroke: #A80036; stroke-width: 1.5;"/><text fill="#000000" font-family="sans-serif" font-size="14" lengthAdjust="spacingAndGlyphs" textLength="43" x="20" y="561.6533">UC180</text><!--MD5=[44c7775ca541ea0a40054cdcea082ff9]
entity UC181--><ellipse cx="41.5" cy="1442" fill="#FEFECE" filter="url(#f1rl95tadkofuk)" rx="8" ry="8" style="stroke: #A80036; stroke-width: 1.5;"/><path d="M41.5,1450 L41.5,1477 M28.5,1458 L54.5,1458 M41.5,1477 L28.5,1492 M41.5,1477 L54.5,1492 " fill="none" filter="url(#f1rl95tadkofuk)" style="stroke: #A80036; stroke-width: 1.5;"/><text fill="#000000" font-family="sans-serif" font-size="14" lengthAdjust="spacingAndGlyphs" textLength="43" x="20" y="1513.6533">UC181</text><!--MD5=[a109b594f00a06e701a29a784e306887]
entity UC182--><ellipse cx="41.5" cy="1561" fill="#FEFECE" filter="url(#f1rl95tadkofuk)" rx="8" ry="8" style="stroke: #A80036; stroke-width: 1.5;"/><path d="M41.5,1569 L41.5,1596 M28.5,1577 L54.5,1577 M41.5,1596 L28.5,1611 M41.5,1596 L54.5,1611 " fill="none" filter="url(#f1rl95tadkofuk)" style="stroke: #A80036; stroke-width: 1.5;"/><text fill="#000000" font-family="sans-serif" font-size="14" lengthAdjust="spacingAndGlyphs" textLength="43" x="20" y="1632.6533">UC182</text><!--MD5=[35bd4f920a80e3e4761d401ab61e6248]
entity UC183--><ellipse cx="41.5" cy="1680" fill="#FEFECE" filter="url(#f1rl95tadkofuk)" rx="8" ry="8" style="stroke: #A80036; stroke-width: 1.5;"/><path d="M41.5,1688 L41.5,1715 M28.5,1696 L54.5,1696 M41.5,1715 L28.5,1730 M41.5,1715 L54.5,1730 " fill="none" filter="url(#f1rl95tadkofuk)" style="stroke: #A80036; stroke-width: 1.5;"/><text fill="#000000" font-family="sans-serif" font-size="14" lengthAdjust="spacingAndGlyphs" textLength="43" x="20" y="1751.6533">UC183</text><!--MD5=[9455588c81ef6de97f272a1ad33b208f]
entity actor381516513--><ellipse cx="229" cy="371" fill="#FEFECE" filter="url(#f1rl95tadkofuk)" rx="8" ry="8" style="stroke: #A80036; stroke-width: 1.5;"/><path d="M229,379 L229,406 M216,387 L242,387 M229,406 L216,421 M229,406 L242,421 " fill="none" filter="url(#f1rl95tadkofuk)" style="stroke: #A80036; stroke-width: 1.5;"/><text fill="#000000" font-family="sans-serif" font-size="14" lengthAdjust="spacingAndGlyphs" textLength="101" x="178.5" y="442.6533">BufferedReader</text><!--MD5=[743e30272c433537cbfeae0971b3fe59]
entity UC184--><ellipse cx="41.5" cy="371" fill="#FEFECE" filter="url(#f1rl95tadkofuk)" rx="8" ry="8" style="stroke: #A80036; stroke-width: 1.5;"/><path d="M41.5,379 L41.5,406 M28.5,387 L54.5,387 M41.5,406 L28.5,421 M41.5,406 L54.5,421 " fill="none" filter="url(#f1rl95tadkofuk)" style="stroke: #A80036; stroke-width: 1.5;"/><text fill="#000000" font-family="sans-serif" font-size="14" lengthAdjust="spacingAndGlyphs" textLength="43" x="20" y="442.6533">UC184</text><!--MD5=[e90789f07f904c9afdd744e800ce3dee]
entity actor351249017--><ellipse cx="229" cy="252" fill="#FEFECE" filter="url(#f1rl95tadkofuk)" rx="8" ry="8" style="stroke: #A80036; stroke-width: 1.5;"/><path d="M229,260 L229,287 M216,268 L242,268 M229,287 L216,302 M229,287 L242,302 " fill="none" filter="url(#f1rl95tadkofuk)" style="stroke: #A80036; stroke-width: 1.5;"/><text fill="#000000" font-family="sans-serif" font-size="14" lengthAdjust="spacingAndGlyphs" textLength="47" x="205.5" y="323.6533">Reader</text><!--MD5=[52b4740387b8c9cc6afdd6f332084257]
entity UC185--><ellipse cx="41.5" cy="252" fill="#FEFECE" filter="url(#f1rl95tadkofuk)" rx="8" ry="8" style="stroke: #A80036; stroke-width: 1.5;"/><path d="M41.5,260 L41.5,287 M28.5,268 L54.5,268 M41.5,287 L28.5,302 M41.5,287 L54.5,302 " fill="none" filter="url(#f1rl95tadkofuk)" style="stroke: #A80036; stroke-width: 1.5;"/><text fill="#000000" font-family="sans-serif" font-size="14" lengthAdjust="spacingAndGlyphs" textLength="43" x="20" y="323.6533">UC185</text><!--MD5=[0db7869a6ab133d7f7e2e9b763f74eaf]
entity UC186--><ellipse cx="41.5" cy="728" fill="#FEFECE" filter="url(#f1rl95tadkofuk)" rx="8" ry="8" style="stroke: #A80036; stroke-width: 1.5;"/><path d="M41.5,736 L41.5,763 M28.5,744 L54.5,744 M41.5,763 L28.5,778 M41.5,763 L54.5,778 " fill="none" filter="url(#f1rl95tadkofuk)" style="stroke: #A80036; stroke-width: 1.5;"/><text fill="#000000" font-family="sans-serif" font-size="14" lengthAdjust="spacingAndGlyphs" textLength="43" x="20" y="799.6533">UC186</text><!--MD5=[5ad4bac0b83da98d500fa6639e42af08]
entity actor149526537--><ellipse cx="229" cy="133" fill="#FEFECE" filter="url(#f1rl95tadkofuk)" rx="8" ry="8" style="stroke: #A80036; stroke-width: 1.5;"/><path d="M229,141 L229,168 M216,149 L242,149 M229,168 L216,183 M229,168 L242,183 " fill="none" filter="url(#f1rl95tadkofuk)" style="stroke: #A80036; stroke-width: 1.5;"/><text fill="#000000" font-family="sans-serif" font-size="14" lengthAdjust="spacingAndGlyphs" textLength="66" x="196" y="204.6533">Throwable</text><!--MD5=[3358ff65e110928e5f4a05e37afb2b9b]
entity UC187--><ellipse cx="41.5" cy="133" fill="#FEFECE" filter="url(#f1rl95tadkofuk)" rx="8" ry="8" style="stroke: #A80036; stroke-width: 1.5;"/><path d="M41.5,141 L41.5,168 M28.5,149 L54.5,149 M41.5,168 L28.5,183 M41.5,168 L54.5,183 " fill="none" filter="url(#f1rl95tadkofuk)" style="stroke: #A80036; stroke-width: 1.5;"/><text fill="#000000" font-family="sans-serif" font-size="14" lengthAdjust="spacingAndGlyphs" textLength="43" x="20" y="204.6533">UC187</text><!--MD5=[2699aedbcd2b1f3b132d3903ac9b60ef]
entity actor652803980--><ellipse cx="229" cy="14" fill="#FEFECE" filter="url(#f1rl95tadkofuk)" rx="8" ry="8" style="stroke: #A80036; stroke-width: 1.5;"/><path d="M229,22 L229,49 M216,30 L242,30 M229,49 L216,64 M229,49 L242,64 " fill="none" filter="url(#f1rl95tadkofuk)" style="stroke: #A80036; stroke-width: 1.5;"/><text fill="#000000" font-family="sans-serif" font-size="14" lengthAdjust="spacingAndGlyphs" textLength="74" x="192" y="85.6533">PrintStream</text><!--MD5=[d322905f3886b4d59bf72ec01c7ce391]
entity UC188--><ellipse cx="41.5" cy="14" fill="#FEFECE" filter="url(#f1rl95tadkofuk)" rx="8" ry="8" style="stroke: #A80036; stroke-width: 1.5;"/><path d="M41.5,22 L41.5,49 M28.5,30 L54.5,30 M41.5,49 L28.5,64 M41.5,49 L54.5,64 " fill="none" filter="url(#f1rl95tadkofuk)" style="stroke: #A80036; stroke-width: 1.5;"/><text fill="#000000" font-family="sans-serif" font-size="14" lengthAdjust="spacingAndGlyphs" textLength="43" x="20" y="85.6533">UC188</text><!--MD5=[a1703e88969b2fa311419627ffa7c6a9]
link actor1585824283 to UC958817283--><path d="M43.47,2594.45 C46.77,2480.51 60.49,2168.58 113,2082.5 C135.96,2044.86 184.4,2020.81 210.48,2010.05 " fill="none" id="actor1585824283-UC958817283" style="stroke: #A80036; stroke-width: 1.0;"/><!--MD5=[9c65270f1c35cd58828781ffff179878]
link UC172 to actor170611939--><path d="M63.06,1838.04 C96.64,1848.72 163.27,1869.91 200.75,1881.83 " fill="none" id="UC172-actor170611939" style="stroke: #A80036; stroke-width: 1.0;"/><!--MD5=[e6ef5f31b351fdc932ea39a96c9ababb]
link actor1585824283 to UC293618119--><path d="M45.02,2594.29 C51.47,2497.1 71.13,2260.77 113,2194.5 C136.55,2157.23 184.74,2133.03 210.63,2122.14 " fill="none" id="actor1585824283-UC293618119" style="stroke: #A80036; stroke-width: 1.0;"/><!--MD5=[3be934e46a1b581c4f65861cf0943952]
link UC173 to actor170611939--><path d="M63.06,1943.85 C96.64,1932.99 163.27,1911.44 200.75,1899.31 " fill="none" id="UC173-actor170611939" style="stroke: #A80036; stroke-width: 1.0;"/><!--MD5=[a56622950ed4e8967ab5ebe5d48cbe9b]
link actor1585824283 to UC1957691975--><path d="M45.04,2594.45 C51.13,2507.31 69.45,2311.08 113,2262.5 C125.82,2248.2 144.27,2239.66 162.66,2234.59 " fill="none" id="actor1585824283-UC1957691975" style="stroke: #A80036; stroke-width: 1.0;"/><!--MD5=[31da62179e11c46b5c477c979d6b1ee5]
link actor1585824283 to UC1510333744--><path d="M46.96,2594.38 C55.7,2519.7 77.37,2368.37 113,2330.5 C133.26,2308.97 166.42,2300.86 191.95,2297.91 " fill="none" id="actor1585824283-UC1510333744" style="stroke: #A80036; stroke-width: 1.0;"/><!--MD5=[eca5789e354822e9c22337badff7a9a2]
link actor1585824283 to UC715213542--><path d="M43.3,2594.29 C46.61,2541.36 60.27,2451.2 113,2398.5 C137.74,2373.77 179.53,2366.86 205.35,2365.03 " fill="none" id="actor1585824283-UC715213542" style="stroke: #A80036; stroke-width: 1.0;"/><!--MD5=[5d7e8c4f3b5eb584c0ea59d890f5633b]
link actor1585824283 to UC1273270490--><path d="M49.4,2594.21 C57.87,2555.67 75.94,2499.83 113,2466.5 C137.92,2444.08 176.98,2436.41 202.54,2433.81 " fill="none" id="actor1585824283-UC1273270490" style="stroke: #A80036; stroke-width: 1.0;"/><!--MD5=[cc8844c0a180ae8529e1aa44feaa29d5]
link actor1585824283 to UC1097397209--><path d="M62.89,2594.32 C74.86,2573.59 91.82,2549.84 113,2534.5 C133.15,2519.91 159.55,2511.53 181.97,2506.75 " fill="none" id="actor1585824283-UC1097397209" style="stroke: #A80036; stroke-width: 1.0;"/><!--MD5=[9d56240f6d7784caf674989379e28ffc]
link actor1585824283 to UC893281161--><path d="M77.15,2618.41 C88.41,2612.91 101.08,2607.1 113,2602.5 C140.77,2591.78 173.4,2582.43 196.8,2576.26 " fill="none" id="actor1585824283-UC893281161" style="stroke: #A80036; stroke-width: 1.0;"/><!--MD5=[40dff6d0d371f6f4284f6f82be2601b5]
link actor1585824283 to UC367589810--><path d="M77.39,2636.5 C106.46,2636.5 148.16,2636.5 180.31,2636.5 " fill="none" id="actor1585824283-UC367589810" style="stroke: #A80036; stroke-width: 1.0;"/><!--MD5=[a6f2c2a2212214a2959549a763fff1c0]
link actor1585824283 to UC2053491093--><path d="M77.15,2654.59 C88.41,2660.09 101.08,2665.9 113,2670.5 C136.5,2679.57 163.48,2687.66 185.39,2693.68 " fill="none" id="actor1585824283-UC2053491093" style="stroke: #A80036; stroke-width: 1.0;"/><!--MD5=[af1c14f0d10c5087a1a01e389b4f1dfb]
link actor1585824283 to UC458385820--><path d="M62.89,2678.68 C74.86,2699.41 91.82,2723.16 113,2738.5 C136.44,2755.47 168.33,2764.04 192.58,2768.32 " fill="none" id="actor1585824283-UC458385820" style="stroke: #A80036; stroke-width: 1.0;"/><!--MD5=[b62dbe84d8c0d3b1df0db8c62d6a3527]
link actor1585824283 to UC2090142523--><path d="M49.79,2678.83 C58.51,2717.12 76.73,2772.55 113,2806.5 C125.47,2818.17 141.56,2826.36 157.73,2832.1 " fill="none" id="actor1585824283-UC2090142523" style="stroke: #A80036; stroke-width: 1.0;"/><!--MD5=[2dc4fd34fecd8ceeaf2915f3e0abdd3e]
link actor1585824283 to UC988876043--><path d="M42.88,2678.82 C45.69,2733.51 58.72,2828.33 113,2884.5 C125.02,2896.94 141.24,2905.21 157.7,2910.7 " fill="none" id="actor1585824283-UC988876043" style="stroke: #A80036; stroke-width: 1.0;"/><!--MD5=[427f57a0b63bed62e47634bf309df3b9]
link actor1585824283 to UC1745241742--><path d="M46.49,2678.61 C54.68,2756.28 75.8,2917.88 113,2958.5 C124.94,2971.54 141.53,2979.89 158.39,2985.23 " fill="none" id="actor1585824283-UC1745241742" style="stroke: #A80036; stroke-width: 1.0;"/><!--MD5=[dec8a617368177bb8b0dc41dbe187a20]
link actor1585824283 to UC1014698874--><path d="M44.69,2678.63 C50.23,2769.16 67.7,2978.26 113,3030.5 C124.02,3043.21 139.38,3051.69 155.3,3057.33 " fill="none" id="actor1585824283-UC1014698874" style="stroke: #A80036; stroke-width: 1.0;"/><!--MD5=[07a53ebe042ef0fb15c1c37add34af7c]
link actor1585824283 to UC1751325469--><path d="M43.26,2678.51 C45.96,2781.44 58.19,3042.5 113,3106.5 C124.36,3119.77 140.55,3128.21 157.2,3133.57 " fill="none" id="actor1585824283-UC1751325469" style="stroke: #A80036; stroke-width: 1.0;"/><!--MD5=[10a1f7419dc4e5b37de88ec9692e83ff]
link UC174 to actor1514723919--><path d="M63.1,1032.93 C67.76,1040.94 72.63,1049.48 77,1057.5 C125.99,1147.38 179.21,1254.98 207.53,1313.14 " fill="none" id="UC174-actor1514723919" style="stroke: #A80036; stroke-width: 1.0;"/><!--MD5=[e0f2d50ba86a9fa059c397a2e0537e12]
link UC175 to actor10536382--><path d="M63.06,879.5 C96.08,879.5 161.03,879.5 198.83,879.5 " fill="none" id="UC175-actor10536382" style="stroke: #A80036; stroke-width: 1.0;"/><!--MD5=[af09a785617f5efbc514e2f3b9f62eaf]
link UC176 to actor1514723919--><path d="M63.06,1143.88 C95.04,1184.91 156.98,1264.38 195.19,1313.4 " fill="none" id="UC176-actor1514723919" style="stroke: #A80036; stroke-width: 1.0;"/><!--MD5=[ae94ffb84a0c8293b6a78e16f9844e73]
link UC177 to actor1514723919--><path d="M63.06,1249.69 C94.76,1270.02 155.88,1309.24 194.17,1333.79 " fill="none" id="UC177-actor1514723919" style="stroke: #A80036; stroke-width: 1.0;"/><!--MD5=[a2b9fdc1a510b9bdef5799af862697da]
link UC178 to actor1514723919--><path d="M63.06,1355.5 C94.76,1355.5 155.88,1355.5 194.17,1355.5 " fill="none" id="UC178-actor1514723919" style="stroke: #A80036; stroke-width: 1.0;"/><!--MD5=[0bed2ab1eeeffd4262660bbd528bea11]
link UC179 to actor230610941--><path d="M63.06,648.04 C93.15,657.61 149.77,675.62 188.19,687.84 " fill="none" id="UC179-actor230610941" style="stroke: #A80036; stroke-width: 1.0;"/><!--MD5=[d67f7271ce6df093e0a03418c6cac56d]
link UC180 to actor1680139795--><path d="M63.06,522.5 C99.76,522.5 175.9,522.5 210.37,522.5 " fill="none" id="UC180-actor1680139795" style="stroke: #A80036; stroke-width: 1.0;"/><!--MD5=[f4735626a66a3e6637bb40555452c484]
link UC181 to actor1514723919--><path d="M63.06,1461.31 C94.76,1440.98 155.88,1401.76 194.17,1377.21 " fill="none" id="UC181-actor1514723919" style="stroke: #A80036; stroke-width: 1.0;"/><!--MD5=[cebce708aaacb7b80b942d948c2c27e3]
link UC182 to actor1514723919--><path d="M63.06,1567.12 C95.04,1526.09 156.98,1446.62 195.19,1397.6 " fill="none" id="UC182-actor1514723919" style="stroke: #A80036; stroke-width: 1.0;"/><!--MD5=[252fd797bc1612f5789266721b2c85c9]
link UC183 to actor1514723919--><path d="M63.1,1678.07 C67.76,1670.06 72.63,1661.52 77,1653.5 C125.99,1563.62 179.21,1456.02 207.53,1397.86 " fill="none" id="UC183-actor1514723919" style="stroke: #A80036; stroke-width: 1.0;"/><!--MD5=[852c4758913ff6409c7bf0a8871fc148]
link UC184 to actor381516513--><path d="M63.06,403.5 C90.7,403.5 140.72,403.5 178.46,403.5 " fill="none" id="UC184-actor381516513" style="stroke: #A80036; stroke-width: 1.0;"/><!--MD5=[c6ca582f357b238b909f64754469f288]
link UC185 to actor351249017--><path d="M63.06,284.5 C98.06,284.5 168.94,284.5 205.33,284.5 " fill="none" id="UC185-actor351249017" style="stroke: #A80036; stroke-width: 1.0;"/><!--MD5=[3939e65edbfeacc70d7d40d2ac5a23af]
link UC186 to actor230610941--><path d="M63.06,753.85 C93.15,744.12 149.77,725.8 188.19,713.38 " fill="none" id="UC186-actor230610941" style="stroke: #A80036; stroke-width: 1.0;"/><!--MD5=[4c8f5688778b668c951d83b677212f87]
link UC187 to actor149526537--><path d="M63.06,165.5 C95.23,165.5 157.71,165.5 195.86,165.5 " fill="none" id="UC187-actor149526537" style="stroke: #A80036; stroke-width: 1.0;"/><!--MD5=[6dad050cdd624177ec28d49eb9f740ec]
link actor1585824283 to UC241316255--><path d="M43.62,2678.78 C47.28,2791.04 61.76,3093.78 113,3177.5 C134.12,3212 176.62,3235.11 203.62,3247 " fill="none" id="actor1585824283-UC241316255" style="stroke: #A80036; stroke-width: 1.0;"/><!--MD5=[db7b1d11dbb7d40727c93a174424cbb3]
link UC188 to actor652803980--><path d="M63.06,46.5 C94.1,46.5 153.35,46.5 191.74,46.5 " fill="none" id="UC188-actor652803980" style="stroke: #A80036; stroke-width: 1.0;"/><!--MD5=[af58510417176969788022c4b8914e5b]
@startuml
 left to right direction

actor JavaParser as actor1585824283

	rectangle makeASTList{
	 usecase size as UC958817283
	actor1585824283- -UC958817283
	}
	actor ArrayList as actor170611939
	 UC172 - - actor170611939
	rectangle makeFileList{
	 usecase add as UC293618119
	actor1585824283- -UC293618119
	}
	actor ArrayList as actor170611939
	 UC173 - - actor170611939
	rectangle init{
	 usecase printStackTrace as UC1957691975
	actor1585824283- -UC1957691975
	 usecase append as UC1510333744
	actor1585824283- -UC1510333744
	 usecase read as UC715213542
	actor1585824283- -UC715213542
	 usecase close as UC1273270490
	actor1585824283- -UC1273270490
	 usecase newParser as UC1097397209
	actor1585824283- -UC1097397209
	 usecase setKind as UC893281161
	actor1585824283- -UC893281161
	 usecase setSource as UC367589810
	actor1585824283- -UC367589810
	 usecase toCharArray as UC2053491093
	actor1585824283- -UC2053491093
	 usecase toString as UC458385820
	actor1585824283- -UC458385820
	 usecase setStatementsRecovery as UC2090142523
	actor1585824283- -UC2090142523
	 usecase setBindingsRecovery as UC988876043
	actor1585824283- -UC988876043
	 usecase setResolveBindings as UC1745241742
	actor1585824283- -UC1745241742
	 usecase setComplianceOptions as UC1014698874
	actor1585824283- -UC1014698874
	 usecase setCompilerOptions as UC1751325469
	actor1585824283- -UC1751325469
	}
	actor ASTParser as actor1514723919
	 UC174 - - actor1514723919
	actor JavaCore as actor10536382
	 UC175 - - actor10536382
	actor ASTParser as actor1514723919
	 UC176 - - actor1514723919
	actor ASTParser as actor1514723919
	 UC177 - - actor1514723919
	actor ASTParser as actor1514723919
	 UC178 - - actor1514723919
	actor StringBuilder as actor230610941
	 UC179 - - actor230610941
	actor String as actor1680139795
	 UC180 - - actor1680139795
	actor ASTParser as actor1514723919
	 UC181 - - actor1514723919
	actor ASTParser as actor1514723919
	 UC182 - - actor1514723919
	actor ASTParser as actor1514723919
	 UC183 - - actor1514723919
	actor BufferedReader as actor381516513
	 UC184 - - actor381516513
	actor Reader as actor351249017
	 UC185 - - actor351249017
	actor StringBuilder as actor230610941
	 UC186 - - actor230610941
	actor Throwable as actor149526537
	 UC187 - - actor149526537
	rectangle main{
	 usecase println as UC241316255
	actor1585824283- -UC241316255
	}
	actor PrintStream as actor652803980
	 UC188 - - actor652803980

@enduml

PlantUML version 1.2020.19(Tue Oct 13 00:10:01 KST 2020)
(APACHE source distribution)
Java Runtime: Java(TM) SE Runtime Environment
JVM: Java HotSpot(TM) 64-Bit Server VM
Default Encoding: MS949
Language: ko
Country: KR
--></g></svg>