<?xml version="1.0" encoding="UTF-8" standalone="no"?><svg xmlns="http://www.w3.org/2000/svg" xmlns:xlink="http://www.w3.org/1999/xlink" contentScriptType="application/ecmascript" contentStyleType="text/css" height="1474px" preserveAspectRatio="none" style="width:633px;height:1474px;" version="1.1" viewBox="0 0 633 1474" width="633px" zoomAndPan="magnify"><defs><filter height="300%" id="f1sphhetjmb05l" width="300%" x="-1" y="-1"><feGaussianBlur result="blurOut" stdDeviation="2.0"/><feColorMatrix in="blurOut" result="blurOut2" type="matrix" values="0 0 0 0 0 0 0 0 0 0 0 0 0 0 0 0 0 0 .4 0"/><feOffset dx="4.0" dy="4.0" in="blurOut2" result="blurOut3"/><feBlend in="SourceGraphic" in2="blurOut3" mode="normal"/></filter></defs><g><rect fill="#FFFFFF" filter="url(#f1sphhetjmb05l)" height="103.9316" style="stroke: #000000; stroke-width: 2.0;" width="359" x="10" y="57.4883"/><rect fill="#FFFFFF" filter="url(#f1sphhetjmb05l)" height="229.8633" style="stroke: #000000; stroke-width: 2.0;" width="359" x="10" y="175.4199"/><rect fill="#FFFFFF" filter="url(#f1sphhetjmb05l)" height="60.6211" style="stroke: #000000; stroke-width: 2.0;" width="416" x="10" y="419.2832"/><rect fill="#FFFFFF" filter="url(#f1sphhetjmb05l)" height="233.8633" style="stroke: #000000; stroke-width: 2.0;" width="524" x="10" y="493.9043"/><rect fill="#FFFFFF" filter="url(#f1sphhetjmb05l)" height="231.8633" style="stroke: #000000; stroke-width: 2.0;" width="524" x="10" y="741.7676"/><rect fill="#FFFFFF" filter="url(#f1sphhetjmb05l)" height="103.9316" style="stroke: #000000; stroke-width: 2.0;" width="609" x="10" y="987.6309"/><rect fill="#FFFFFF" filter="url(#f1sphhetjmb05l)" height="233.8633" style="stroke: #000000; stroke-width: 2.0;" width="524" x="10" y="1105.5625"/><rect fill="#FFFFFF" filter="url(#f1sphhetjmb05l)" height="60.6211" style="stroke: #000000; stroke-width: 2.0;" width="524" x="10" y="1353.4258"/><line style="stroke: #A80036; stroke-width: 1.0; stroke-dasharray: 5.0,5.0;" x1="72" x2="72" y1="40.4883" y2="1431.0469"/><line style="stroke: #A80036; stroke-width: 1.0; stroke-dasharray: 5.0,5.0;" x1="266" x2="266" y1="40.4883" y2="1431.0469"/><line style="stroke: #A80036; stroke-width: 1.0; stroke-dasharray: 5.0,5.0;" x1="329" x2="329" y1="40.4883" y2="1431.0469"/><line style="stroke: #A80036; stroke-width: 1.0; stroke-dasharray: 5.0,5.0;" x1="392" x2="392" y1="40.4883" y2="1431.0469"/><line style="stroke: #A80036; stroke-width: 1.0; stroke-dasharray: 5.0,5.0;" x1="475" x2="475" y1="40.4883" y2="1431.0469"/><line style="stroke: #A80036; stroke-width: 1.0; stroke-dasharray: 5.0,5.0;" x1="571" x2="571" y1="40.4883" y2="1431.0469"/><rect fill="#FEFECE" filter="url(#f1sphhetjmb05l)" height="30.4883" style="stroke: #A80036; stroke-width: 1.5;" width="101" x="20" y="5"/><text fill="#000000" font-family="sans-serif" font-size="14" lengthAdjust="spacingAndGlyphs" textLength="87" x="27" y="25.5352">GameSystem</text><rect fill="#FEFECE" filter="url(#f1sphhetjmb05l)" height="30.4883" style="stroke: #A80036; stroke-width: 1.5;" width="101" x="20" y="1430.0469"/><text fill="#000000" font-family="sans-serif" font-size="14" lengthAdjust="spacingAndGlyphs" textLength="87" x="27" y="1450.582">GameSystem</text><rect fill="#FEFECE" filter="url(#f1sphhetjmb05l)" height="30.4883" style="stroke: #A80036; stroke-width: 1.5;" width="43" x="243" y="5"/><text fill="#000000" font-family="sans-serif" font-size="14" lengthAdjust="spacingAndGlyphs" textLength="29" x="250" y="25.5352">Map</text><rect fill="#FEFECE" filter="url(#f1sphhetjmb05l)" height="30.4883" style="stroke: #A80036; stroke-width: 1.5;" width="43" x="243" y="1430.0469"/><text fill="#000000" font-family="sans-serif" font-size="14" lengthAdjust="spacingAndGlyphs" textLength="29" x="250" y="1450.582">Map</text><rect fill="#FEFECE" filter="url(#f1sphhetjmb05l)" height="30.4883" style="stroke: #A80036; stroke-width: 1.5;" width="55" x="300" y="5"/><text fill="#000000" font-family="sans-serif" font-size="14" lengthAdjust="spacingAndGlyphs" textLength="41" x="307" y="25.5352">Player</text><rect fill="#FEFECE" filter="url(#f1sphhetjmb05l)" height="30.4883" style="stroke: #A80036; stroke-width: 1.5;" width="55" x="300" y="1430.0469"/><text fill="#000000" font-family="sans-serif" font-size="14" lengthAdjust="spacingAndGlyphs" textLength="41" x="307" y="1450.582">Player</text><rect fill="#FEFECE" filter="url(#f1sphhetjmb05l)" height="30.4883" style="stroke: #A80036; stroke-width: 1.5;" width="43" x="369" y="5"/><text fill="#000000" font-family="sans-serif" font-size="14" lengthAdjust="spacingAndGlyphs" textLength="29" x="376" y="25.5352">Dice</text><rect fill="#FEFECE" filter="url(#f1sphhetjmb05l)" height="30.4883" style="stroke: #A80036; stroke-width: 1.5;" width="43" x="369" y="1430.0469"/><text fill="#000000" font-family="sans-serif" font-size="14" lengthAdjust="spacingAndGlyphs" textLength="29" x="376" y="1450.582">Dice</text><rect fill="#FEFECE" filter="url(#f1sphhetjmb05l)" height="30.4883" style="stroke: #A80036; stroke-width: 1.5;" width="94" x="426" y="5"/><text fill="#000000" font-family="sans-serif" font-size="14" lengthAdjust="spacingAndGlyphs" textLength="80" x="433" y="25.5352">PrintStream</text><rect fill="#FEFECE" filter="url(#f1sphhetjmb05l)" height="30.4883" style="stroke: #A80036; stroke-width: 1.5;" width="94" x="426" y="1430.0469"/><text fill="#000000" font-family="sans-serif" font-size="14" lengthAdjust="spacingAndGlyphs" textLength="80" x="433" y="1450.582">PrintStream</text><rect fill="#FEFECE" filter="url(#f1sphhetjmb05l)" height="30.4883" style="stroke: #A80036; stroke-width: 1.5;" width="71" x="534" y="5"/><text fill="#000000" font-family="sans-serif" font-size="14" lengthAdjust="spacingAndGlyphs" textLength="57" x="541" y="25.5352">Random</text><rect fill="#FEFECE" filter="url(#f1sphhetjmb05l)" height="30.4883" style="stroke: #A80036; stroke-width: 1.5;" width="71" x="534" y="1430.0469"/><text fill="#000000" font-family="sans-serif" font-size="14" lengthAdjust="spacingAndGlyphs" textLength="57" x="541" y="1450.582">Random</text><path d="M10,57.4883 L222,57.4883 L222,64.4883 L212,74.4883 L10,74.4883 L10,57.4883 " fill="#EEEEEE" style="stroke: #000000; stroke-width: 1.0;"/><rect fill="none" height="103.9316" style="stroke: #000000; stroke-width: 2.0;" width="359" x="10" y="57.4883"/><text fill="#000000" font-family="sans-serif" font-size="13" font-weight="bold" lengthAdjust="spacingAndGlyphs" textLength="167" x="25" y="71.0566">new GameSystem(int[][])</text><polygon fill="#A80036" points="254.5,92.1094,264.5,96.1094,254.5,100.1094,258.5,96.1094" style="stroke: #A80036; stroke-width: 1.0;"/><line style="stroke: #A80036; stroke-width: 1.0;" x1="72.5" x2="260.5" y1="96.1094" y2="96.1094"/><text fill="#000000" font-family="sans-serif" font-size="13" lengthAdjust="spacingAndGlyphs" textLength="34" x="79.5" y="91.3672">Map()</text><polygon fill="#A80036" points="83.5,106.1094,73.5,110.1094,83.5,114.1094,79.5,110.1094" style="stroke: #A80036; stroke-width: 1.0;"/><line style="stroke: #A80036; stroke-width: 1.0; stroke-dasharray: 2.0,2.0;" x1="77.5" x2="265.5" y1="110.1094" y2="110.1094"/><polygon fill="#A80036" points="317.5,135.4199,327.5,139.4199,317.5,143.4199,321.5,139.4199" style="stroke: #A80036; stroke-width: 1.0;"/><line style="stroke: #A80036; stroke-width: 1.0;" x1="72.5" x2="323.5" y1="139.4199" y2="139.4199"/><text fill="#000000" font-family="sans-serif" font-size="13" lengthAdjust="spacingAndGlyphs" textLength="142" x="79.5" y="134.6777">Player(java.lang.String)</text><polygon fill="#A80036" points="83.5,149.4199,73.5,153.4199,83.5,157.4199,79.5,153.4199" style="stroke: #A80036; stroke-width: 1.0;"/><line style="stroke: #A80036; stroke-width: 1.0; stroke-dasharray: 2.0,2.0;" x1="77.5" x2="328.5" y1="153.4199" y2="153.4199"/><path d="M10,175.4199 L270,175.4199 L270,182.4199 L260,192.4199 L10,192.4199 L10,175.4199 " fill="#EEEEEE" style="stroke: #000000; stroke-width: 1.0;"/><rect fill="none" height="229.8633" style="stroke: #000000; stroke-width: 2.0;" width="359" x="10" y="175.4199"/><text fill="#000000" font-family="sans-serif" font-size="13" font-weight="bold" lengthAdjust="spacingAndGlyphs" textLength="215" x="25" y="188.9883">void playGame(java.lang.String)</text><polygon fill="#A80036" points="317.5,210.041,327.5,214.041,317.5,218.041,321.5,214.041" style="stroke: #A80036; stroke-width: 1.0;"/><line style="stroke: #A80036; stroke-width: 1.0;" x1="72.5" x2="323.5" y1="214.041" y2="214.041"/><text fill="#000000" font-family="sans-serif" font-size="13" lengthAdjust="spacingAndGlyphs" textLength="142" x="79.5" y="209.2988">Player(java.lang.String)</text><polygon fill="#A80036" points="83.5,224.041,73.5,228.041,83.5,232.041,79.5,228.041" style="stroke: #A80036; stroke-width: 1.0;"/><line style="stroke: #A80036; stroke-width: 1.0; stroke-dasharray: 2.0,2.0;" x1="77.5" x2="328.5" y1="228.041" y2="228.041"/><line style="stroke: #A80036; stroke-width: 1.0;" x1="72.5" x2="114.5" y1="257.3516" y2="257.3516"/><line style="stroke: #A80036; stroke-width: 1.0;" x1="114.5" x2="114.5" y1="257.3516" y2="270.3516"/><line style="stroke: #A80036; stroke-width: 1.0;" x1="73.5" x2="114.5" y1="270.3516" y2="270.3516"/><polygon fill="#A80036" points="83.5,266.3516,73.5,270.3516,83.5,274.3516,79.5,270.3516" style="stroke: #A80036; stroke-width: 1.0;"/><text fill="#000000" font-family="sans-serif" font-size="13" lengthAdjust="spacingAndGlyphs" textLength="78" x="79.5" y="252.6094">diceSetting()</text><line style="stroke: #A80036; stroke-width: 1.0;" x1="72.5" x2="114.5" y1="299.6621" y2="299.6621"/><line style="stroke: #A80036; stroke-width: 1.0;" x1="114.5" x2="114.5" y1="299.6621" y2="312.6621"/><line style="stroke: #A80036; stroke-width: 1.0;" x1="73.5" x2="114.5" y1="312.6621" y2="312.6621"/><polygon fill="#A80036" points="83.5,308.6621,73.5,312.6621,83.5,316.6621,79.5,312.6621" style="stroke: #A80036; stroke-width: 1.0;"/><text fill="#000000" font-family="sans-serif" font-size="13" lengthAdjust="spacingAndGlyphs" textLength="78" x="79.5" y="294.9199">diceSetting()</text><line style="stroke: #A80036; stroke-width: 1.0;" x1="72.5" x2="114.5" y1="341.9727" y2="341.9727"/><line style="stroke: #A80036; stroke-width: 1.0;" x1="114.5" x2="114.5" y1="341.9727" y2="354.9727"/><line style="stroke: #A80036; stroke-width: 1.0;" x1="73.5" x2="114.5" y1="354.9727" y2="354.9727"/><polygon fill="#A80036" points="83.5,350.9727,73.5,354.9727,83.5,358.9727,79.5,354.9727" style="stroke: #A80036; stroke-width: 1.0;"/><text fill="#000000" font-family="sans-serif" font-size="13" lengthAdjust="spacingAndGlyphs" textLength="39" x="79.5" y="337.2305">main()</text><line style="stroke: #A80036; stroke-width: 1.0;" x1="72.5" x2="114.5" y1="384.2832" y2="384.2832"/><line style="stroke: #A80036; stroke-width: 1.0;" x1="114.5" x2="114.5" y1="384.2832" y2="397.2832"/><line style="stroke: #A80036; stroke-width: 1.0;" x1="73.5" x2="114.5" y1="397.2832" y2="397.2832"/><polygon fill="#A80036" points="83.5,393.2832,73.5,397.2832,83.5,401.2832,79.5,397.2832" style="stroke: #A80036; stroke-width: 1.0;"/><text fill="#000000" font-family="sans-serif" font-size="13" lengthAdjust="spacingAndGlyphs" textLength="39" x="79.5" y="379.541">main()</text><path d="M10,419.2832 L173,419.2832 L173,426.2832 L163,436.2832 L10,436.2832 L10,419.2832 " fill="#EEEEEE" style="stroke: #000000; stroke-width: 1.0;"/><rect fill="none" height="60.6211" style="stroke: #000000; stroke-width: 2.0;" width="416" x="10" y="419.2832"/><text fill="#000000" font-family="sans-serif" font-size="13" font-weight="bold" lengthAdjust="spacingAndGlyphs" textLength="118" x="25" y="432.8516">void diceSetting()</text><polygon fill="#A80036" points="380.5,453.9043,390.5,457.9043,380.5,461.9043,384.5,457.9043" style="stroke: #A80036; stroke-width: 1.0;"/><line style="stroke: #A80036; stroke-width: 1.0;" x1="72.5" x2="386.5" y1="457.9043" y2="457.9043"/><text fill="#000000" font-family="sans-serif" font-size="13" lengthAdjust="spacingAndGlyphs" textLength="61" x="79.5" y="453.1621">Dice(int[])</text><polygon fill="#A80036" points="83.5,467.9043,73.5,471.9043,83.5,475.9043,79.5,471.9043" style="stroke: #A80036; stroke-width: 1.0;"/><line style="stroke: #A80036; stroke-width: 1.0; stroke-dasharray: 2.0,2.0;" x1="77.5" x2="391.5" y1="471.9043" y2="471.9043"/><path d="M10,493.9043 L285,493.9043 L285,500.9043 L275,510.9043 L10,510.9043 L10,493.9043 " fill="#EEEEEE" style="stroke: #000000; stroke-width: 1.0;"/><rect fill="none" height="233.8633" style="stroke: #000000; stroke-width: 2.0;" width="524" x="10" y="493.9043"/><text fill="#000000" font-family="sans-serif" font-size="13" font-weight="bold" lengthAdjust="spacingAndGlyphs" textLength="230" x="25" y="507.4727">void printPos(gameSystem.Player)</text><polygon fill="#A80036" points="317.5,528.5254,327.5,532.5254,317.5,536.5254,321.5,532.5254" style="stroke: #A80036; stroke-width: 1.0;"/><line style="stroke: #A80036; stroke-width: 1.0;" x1="72.5" x2="323.5" y1="532.5254" y2="532.5254"/><text fill="#000000" font-family="sans-serif" font-size="13" lengthAdjust="spacingAndGlyphs" textLength="50" x="79.5" y="527.7832">getPos()</text><polygon fill="#A80036" points="83.5,542.5254,73.5,546.5254,83.5,550.5254,79.5,546.5254" style="stroke: #A80036; stroke-width: 1.0;"/><line style="stroke: #A80036; stroke-width: 1.0; stroke-dasharray: 2.0,2.0;" x1="77.5" x2="328.5" y1="546.5254" y2="546.5254"/><polygon fill="#A80036" points="254.5,571.8359,264.5,575.8359,254.5,579.8359,258.5,575.8359" style="stroke: #A80036; stroke-width: 1.0;"/><line style="stroke: #A80036; stroke-width: 1.0;" x1="72.5" x2="260.5" y1="575.8359" y2="575.8359"/><text fill="#000000" font-family="sans-serif" font-size="13" lengthAdjust="spacingAndGlyphs" textLength="53" x="79.5" y="571.0938">getSize()</text><polygon fill="#A80036" points="83.5,585.8359,73.5,589.8359,83.5,593.8359,79.5,589.8359" style="stroke: #A80036; stroke-width: 1.0;"/><line style="stroke: #A80036; stroke-width: 1.0; stroke-dasharray: 2.0,2.0;" x1="77.5" x2="265.5" y1="589.8359" y2="589.8359"/><polygon fill="#A80036" points="463,615.1465,473,619.1465,463,623.1465,467,619.1465" style="stroke: #A80036; stroke-width: 1.0;"/><line style="stroke: #A80036; stroke-width: 1.0;" x1="72.5" x2="469" y1="619.1465" y2="619.1465"/><text fill="#000000" font-family="sans-serif" font-size="13" lengthAdjust="spacingAndGlyphs" textLength="147" x="79.5" y="614.4043">println(java.lang.String)</text><polygon fill="#A80036" points="83.5,629.1465,73.5,633.1465,83.5,637.1465,79.5,633.1465" style="stroke: #A80036; stroke-width: 1.0;"/><line style="stroke: #A80036; stroke-width: 1.0; stroke-dasharray: 2.0,2.0;" x1="77.5" x2="474" y1="633.1465" y2="633.1465"/><polygon fill="#A80036" points="463,658.457,473,662.457,463,666.457,467,662.457" style="stroke: #A80036; stroke-width: 1.0;"/><line style="stroke: #A80036; stroke-width: 1.0;" x1="72.5" x2="469" y1="662.457" y2="662.457"/><text fill="#000000" font-family="sans-serif" font-size="13" lengthAdjust="spacingAndGlyphs" textLength="135" x="79.5" y="657.7148">print(java.lang.String)</text><polygon fill="#A80036" points="83.5,672.457,73.5,676.457,83.5,680.457,79.5,676.457" style="stroke: #A80036; stroke-width: 1.0;"/><line style="stroke: #A80036; stroke-width: 1.0; stroke-dasharray: 2.0,2.0;" x1="77.5" x2="474" y1="676.457" y2="676.457"/><polygon fill="#A80036" points="463,701.7676,473,705.7676,463,709.7676,467,705.7676" style="stroke: #A80036; stroke-width: 1.0;"/><line style="stroke: #A80036; stroke-width: 1.0;" x1="72.5" x2="469" y1="705.7676" y2="705.7676"/><text fill="#000000" font-family="sans-serif" font-size="13" lengthAdjust="spacingAndGlyphs" textLength="50" x="79.5" y="701.0254">println()</text><polygon fill="#A80036" points="83.5,715.7676,73.5,719.7676,83.5,723.7676,79.5,719.7676" style="stroke: #A80036; stroke-width: 1.0;"/><line style="stroke: #A80036; stroke-width: 1.0; stroke-dasharray: 2.0,2.0;" x1="77.5" x2="474" y1="719.7676" y2="719.7676"/><path d="M10,741.7676 L301,741.7676 L301,748.7676 L291,758.7676 L10,758.7676 L10,741.7676 " fill="#EEEEEE" style="stroke: #000000; stroke-width: 1.0;"/><rect fill="none" height="231.8633" style="stroke: #000000; stroke-width: 2.0;" width="524" x="10" y="741.7676"/><text fill="#000000" font-family="sans-serif" font-size="13" font-weight="bold" lengthAdjust="spacingAndGlyphs" textLength="246" x="25" y="755.3359">Dice choiceDice(gameSystem.Player)</text><polygon fill="#A80036" points="463,776.3887,473,780.3887,463,784.3887,467,780.3887" style="stroke: #A80036; stroke-width: 1.0;"/><line style="stroke: #A80036; stroke-width: 1.0;" x1="72.5" x2="469" y1="780.3887" y2="780.3887"/><text fill="#000000" font-family="sans-serif" font-size="13" lengthAdjust="spacingAndGlyphs" textLength="147" x="79.5" y="775.6465">println(java.lang.String)</text><polygon fill="#A80036" points="83.5,790.3887,73.5,794.3887,83.5,798.3887,79.5,794.3887" style="stroke: #A80036; stroke-width: 1.0;"/><line style="stroke: #A80036; stroke-width: 1.0; stroke-dasharray: 2.0,2.0;" x1="77.5" x2="474" y1="794.3887" y2="794.3887"/><line style="stroke: #A80036; stroke-width: 1.0;" x1="72.5" x2="114.5" y1="823.6992" y2="823.6992"/><line style="stroke: #A80036; stroke-width: 1.0;" x1="114.5" x2="114.5" y1="823.6992" y2="836.6992"/><line style="stroke: #A80036; stroke-width: 1.0;" x1="73.5" x2="114.5" y1="836.6992" y2="836.6992"/><polygon fill="#A80036" points="83.5,832.6992,73.5,836.6992,83.5,840.6992,79.5,836.6992" style="stroke: #A80036; stroke-width: 1.0;"/><text fill="#000000" font-family="sans-serif" font-size="13" lengthAdjust="spacingAndGlyphs" textLength="180" x="79.5" y="818.957">printPos(gameSystem.Player)</text><line style="stroke: #A80036; stroke-width: 1.0;" x1="72.5" x2="114.5" y1="866.0098" y2="866.0098"/><line style="stroke: #A80036; stroke-width: 1.0;" x1="114.5" x2="114.5" y1="866.0098" y2="879.0098"/><line style="stroke: #A80036; stroke-width: 1.0;" x1="73.5" x2="114.5" y1="879.0098" y2="879.0098"/><polygon fill="#A80036" points="83.5,875.0098,73.5,879.0098,83.5,883.0098,79.5,879.0098" style="stroke: #A80036; stroke-width: 1.0;"/><text fill="#000000" font-family="sans-serif" font-size="13" lengthAdjust="spacingAndGlyphs" textLength="180" x="79.5" y="861.2676">printPos(gameSystem.Player)</text><polygon fill="#A80036" points="463,904.3203,473,908.3203,463,912.3203,467,908.3203" style="stroke: #A80036; stroke-width: 1.0;"/><line style="stroke: #A80036; stroke-width: 1.0;" x1="72.5" x2="469" y1="908.3203" y2="908.3203"/><text fill="#000000" font-family="sans-serif" font-size="13" lengthAdjust="spacingAndGlyphs" textLength="135" x="79.5" y="903.5781">print(java.lang.String)</text><polygon fill="#A80036" points="83.5,918.3203,73.5,922.3203,83.5,926.3203,79.5,922.3203" style="stroke: #A80036; stroke-width: 1.0;"/><line style="stroke: #A80036; stroke-width: 1.0; stroke-dasharray: 2.0,2.0;" x1="77.5" x2="474" y1="922.3203" y2="922.3203"/><polygon fill="#A80036" points="463,947.6309,473,951.6309,463,955.6309,467,951.6309" style="stroke: #A80036; stroke-width: 1.0;"/><line style="stroke: #A80036; stroke-width: 1.0;" x1="72.5" x2="469" y1="951.6309" y2="951.6309"/><text fill="#000000" font-family="sans-serif" font-size="13" lengthAdjust="spacingAndGlyphs" textLength="50" x="79.5" y="946.8887">println()</text><polygon fill="#A80036" points="83.5,961.6309,73.5,965.6309,83.5,969.6309,79.5,965.6309" style="stroke: #A80036; stroke-width: 1.0;"/><line style="stroke: #A80036; stroke-width: 1.0; stroke-dasharray: 2.0,2.0;" x1="77.5" x2="474" y1="965.6309" y2="965.6309"/><path d="M10,987.6309 L258,987.6309 L258,994.6309 L248,1004.6309 L10,1004.6309 L10,987.6309 " fill="#EEEEEE" style="stroke: #000000; stroke-width: 1.0;"/><rect fill="none" height="103.9316" style="stroke: #000000; stroke-width: 2.0;" width="609" x="10" y="987.6309"/><text fill="#000000" font-family="sans-serif" font-size="13" font-weight="bold" lengthAdjust="spacingAndGlyphs" textLength="203" x="25" y="1001.1992">int diceRoll(gameSystem.Dice)</text><polygon fill="#A80036" points="380.5,1022.252,390.5,1026.252,380.5,1030.252,384.5,1026.252" style="stroke: #A80036; stroke-width: 1.0;"/><line style="stroke: #A80036; stroke-width: 1.0;" x1="72.5" x2="386.5" y1="1026.252" y2="1026.252"/><text fill="#000000" font-family="sans-serif" font-size="13" lengthAdjust="spacingAndGlyphs" textLength="29" x="79.5" y="1021.5098">roll()</text><polygon fill="#A80036" points="559.5,1051.5625,569.5,1055.5625,559.5,1059.5625,563.5,1055.5625" style="stroke: #A80036; stroke-width: 1.0;"/><line style="stroke: #A80036; stroke-width: 1.0;" x1="392.5" x2="565.5" y1="1055.5625" y2="1055.5625"/><text fill="#000000" font-family="sans-serif" font-size="13" lengthAdjust="spacingAndGlyphs" textLength="70" x="399.5" y="1050.8203">nextInt(int)</text><polygon fill="#A80036" points="403.5,1065.5625,393.5,1069.5625,403.5,1073.5625,399.5,1069.5625" style="stroke: #A80036; stroke-width: 1.0;"/><line style="stroke: #A80036; stroke-width: 1.0; stroke-dasharray: 2.0,2.0;" x1="397.5" x2="570.5" y1="1069.5625" y2="1069.5625"/><polygon fill="#A80036" points="83.5,1079.5625,73.5,1083.5625,83.5,1087.5625,79.5,1083.5625" style="stroke: #A80036; stroke-width: 1.0;"/><line style="stroke: #A80036; stroke-width: 1.0; stroke-dasharray: 2.0,2.0;" x1="77.5" x2="391.5" y1="1083.5625" y2="1083.5625"/><path d="M10,1105.5625 L291,1105.5625 L291,1112.5625 L281,1122.5625 L10,1122.5625 L10,1105.5625 " fill="#EEEEEE" style="stroke: #000000; stroke-width: 1.0;"/><rect fill="none" height="233.8633" style="stroke: #000000; stroke-width: 2.0;" width="524" x="10" y="1105.5625"/><text fill="#000000" font-family="sans-serif" font-size="13" font-weight="bold" lengthAdjust="spacingAndGlyphs" textLength="236" x="25" y="1119.1309">void move(int, gameSystem.Player)</text><polygon fill="#A80036" points="317.5,1140.1836,327.5,1144.1836,317.5,1148.1836,321.5,1144.1836" style="stroke: #A80036; stroke-width: 1.0;"/><line style="stroke: #A80036; stroke-width: 1.0;" x1="72.5" x2="323.5" y1="1144.1836" y2="1144.1836"/><text fill="#000000" font-family="sans-serif" font-size="13" lengthAdjust="spacingAndGlyphs" textLength="50" x="79.5" y="1139.4414">getPos()</text><polygon fill="#A80036" points="83.5,1154.1836,73.5,1158.1836,83.5,1162.1836,79.5,1158.1836" style="stroke: #A80036; stroke-width: 1.0;"/><line style="stroke: #A80036; stroke-width: 1.0; stroke-dasharray: 2.0,2.0;" x1="77.5" x2="328.5" y1="1158.1836" y2="1158.1836"/><polygon fill="#A80036" points="254.5,1183.4941,264.5,1187.4941,254.5,1191.4941,258.5,1187.4941" style="stroke: #A80036; stroke-width: 1.0;"/><line style="stroke: #A80036; stroke-width: 1.0;" x1="72.5" x2="260.5" y1="1187.4941" y2="1187.4941"/><text fill="#000000" font-family="sans-serif" font-size="13" lengthAdjust="spacingAndGlyphs" textLength="53" x="79.5" y="1182.752">getSize()</text><polygon fill="#A80036" points="83.5,1197.4941,73.5,1201.4941,83.5,1205.4941,79.5,1201.4941" style="stroke: #A80036; stroke-width: 1.0;"/><line style="stroke: #A80036; stroke-width: 1.0; stroke-dasharray: 2.0,2.0;" x1="77.5" x2="265.5" y1="1201.4941" y2="1201.4941"/><polygon fill="#A80036" points="254.5,1226.8047,264.5,1230.8047,254.5,1234.8047,258.5,1230.8047" style="stroke: #A80036; stroke-width: 1.0;"/><line style="stroke: #A80036; stroke-width: 1.0;" x1="72.5" x2="260.5" y1="1230.8047" y2="1230.8047"/><text fill="#000000" font-family="sans-serif" font-size="13" lengthAdjust="spacingAndGlyphs" textLength="79" x="79.5" y="1226.0625">getEvent(int)</text><polygon fill="#A80036" points="83.5,1240.8047,73.5,1244.8047,83.5,1248.8047,79.5,1244.8047" style="stroke: #A80036; stroke-width: 1.0;"/><line style="stroke: #A80036; stroke-width: 1.0; stroke-dasharray: 2.0,2.0;" x1="77.5" x2="265.5" y1="1244.8047" y2="1244.8047"/><polygon fill="#A80036" points="463,1270.1152,473,1274.1152,463,1278.1152,467,1274.1152" style="stroke: #A80036; stroke-width: 1.0;"/><line style="stroke: #A80036; stroke-width: 1.0;" x1="72.5" x2="469" y1="1274.1152" y2="1274.1152"/><text fill="#000000" font-family="sans-serif" font-size="13" lengthAdjust="spacingAndGlyphs" textLength="147" x="79.5" y="1269.373">println(java.lang.String)</text><polygon fill="#A80036" points="83.5,1284.1152,73.5,1288.1152,83.5,1292.1152,79.5,1288.1152" style="stroke: #A80036; stroke-width: 1.0;"/><line style="stroke: #A80036; stroke-width: 1.0; stroke-dasharray: 2.0,2.0;" x1="77.5" x2="474" y1="1288.1152" y2="1288.1152"/><polygon fill="#A80036" points="317.5,1313.4258,327.5,1317.4258,317.5,1321.4258,321.5,1317.4258" style="stroke: #A80036; stroke-width: 1.0;"/><line style="stroke: #A80036; stroke-width: 1.0;" x1="72.5" x2="323.5" y1="1317.4258" y2="1317.4258"/><text fill="#000000" font-family="sans-serif" font-size="13" lengthAdjust="spacingAndGlyphs" textLength="66" x="79.5" y="1312.6836">setPos(int)</text><polygon fill="#A80036" points="83.5,1327.4258,73.5,1331.4258,83.5,1335.4258,79.5,1331.4258" style="stroke: #A80036; stroke-width: 1.0;"/><line style="stroke: #A80036; stroke-width: 1.0; stroke-dasharray: 2.0,2.0;" x1="77.5" x2="328.5" y1="1331.4258" y2="1331.4258"/><path d="M10,1353.4258 L173,1353.4258 L173,1360.4258 L163,1370.4258 L10,1370.4258 L10,1353.4258 " fill="#EEEEEE" style="stroke: #000000; stroke-width: 1.0;"/><rect fill="none" height="60.6211" style="stroke: #000000; stroke-width: 2.0;" width="524" x="10" y="1353.4258"/><text fill="#000000" font-family="sans-serif" font-size="13" font-weight="bold" lengthAdjust="spacingAndGlyphs" textLength="118" x="25" y="1366.9941">void printResult()</text><polygon fill="#A80036" points="463,1388.0469,473,1392.0469,463,1396.0469,467,1392.0469" style="stroke: #A80036; stroke-width: 1.0;"/><line style="stroke: #A80036; stroke-width: 1.0;" x1="72.5" x2="469" y1="1392.0469" y2="1392.0469"/><text fill="#000000" font-family="sans-serif" font-size="13" lengthAdjust="spacingAndGlyphs" textLength="147" x="79.5" y="1387.3047">println(java.lang.String)</text><polygon fill="#A80036" points="83.5,1402.0469,73.5,1406.0469,83.5,1410.0469,79.5,1406.0469" style="stroke: #A80036; stroke-width: 1.0;"/><line style="stroke: #A80036; stroke-width: 1.0; stroke-dasharray: 2.0,2.0;" x1="77.5" x2="474" y1="1406.0469" y2="1406.0469"/><!--MD5=[158ee65ea999f000e8b01ace916565e7]
@startuml
group new GameSystem(int[][])
	GameSystem->Map : Map()
		Map- ->GameSystem
	GameSystem->Player : Player(java.lang.String)
		Player- ->GameSystem
end

group void playGame(java.lang.String)
	GameSystem->Player : Player(java.lang.String)
		Player- ->GameSystem
	GameSystem->GameSystem : diceSetting()
	GameSystem->GameSystem : diceSetting()
	GameSystem->GameSystem : main()
	GameSystem->GameSystem : main()
end

group void diceSetting()
	GameSystem->Dice : Dice(int[])
		Dice- ->GameSystem
end

group void printPos(gameSystem.Player)
	GameSystem->Player : getPos()
		Player- ->GameSystem
	GameSystem->Map : getSize()
		Map- ->GameSystem
	GameSystem->PrintStream : println(java.lang.String)
		PrintStream- ->GameSystem
	GameSystem->PrintStream : print(java.lang.String)
		PrintStream- ->GameSystem
	GameSystem->PrintStream : println()
		PrintStream- ->GameSystem
end

group Dice choiceDice(gameSystem.Player)
	GameSystem->PrintStream : println(java.lang.String)
		PrintStream- ->GameSystem
	GameSystem->GameSystem : printPos(gameSystem.Player)
	GameSystem->GameSystem : printPos(gameSystem.Player)
	GameSystem->PrintStream : print(java.lang.String)
		PrintStream- ->GameSystem
	GameSystem->PrintStream : println()
		PrintStream- ->GameSystem
end

group int diceRoll(gameSystem.Dice)
	GameSystem->Dice : roll()
		Dice->Random : nextInt(int)
			Random- ->Dice
		Dice- ->GameSystem
end

group void move(int, gameSystem.Player)
	GameSystem->Player : getPos()
		Player- ->GameSystem
	GameSystem->Map : getSize()
		Map- ->GameSystem
	GameSystem->Map : getEvent(int)
		Map- ->GameSystem
	GameSystem->PrintStream : println(java.lang.String)
		PrintStream- ->GameSystem
	GameSystem->Player : setPos(int)
		Player- ->GameSystem
end

group void printResult()
	GameSystem->PrintStream : println(java.lang.String)
		PrintStream- ->GameSystem
end

@enduml

PlantUML version 1.2020.19(Tue Oct 13 00:10:01 KST 2020)
(APACHE source distribution)
Java Runtime: Java(TM) SE Runtime Environment
JVM: Java HotSpot(TM) 64-Bit Server VM
Default Encoding: UTF-8
Language: ko
Country: KR
--></g></svg>