<?xml version="1.0" encoding="UTF-8" standalone="no"?><svg xmlns="http://www.w3.org/2000/svg" xmlns:xlink="http://www.w3.org/1999/xlink" contentScriptType="application/ecmascript" contentStyleType="text/css" height="407px" preserveAspectRatio="none" style="width:235px;height:407px;" version="1.1" viewBox="0 0 235 407" width="235px" zoomAndPan="magnify"><defs><filter height="300%" id="f1wydhaumuginl" width="300%" x="-1" y="-1"><feGaussianBlur result="blurOut" stdDeviation="2.0"/><feColorMatrix in="blurOut" result="blurOut2" type="matrix" values="0 0 0 0 0 0 0 0 0 0 0 0 0 0 0 0 0 0 .4 0"/><feOffset dx="4.0" dy="4.0" in="blurOut2" result="blurOut3"/><feBlend in="SourceGraphic" in2="blurOut3" mode="normal"/></filter></defs><g><!--MD5=[f552da2e968eda1b29b7ebf65b378026]
cluster shop--><polygon fill="#FFFFFF" filter="url(#f1wydhaumuginl)" points="92,6,133,6,140,31.2295,218,31.2295,218,162,92,162,92,6" style="stroke: #000000; stroke-width: 1.5;"/><line style="stroke: #000000; stroke-width: 1.5;" x1="92" x2="140" y1="31.2295" y2="31.2295"/><text fill="#000000" font-family="sans-serif" font-size="14" font-weight="bold" lengthAdjust="spacingAndGlyphs" textLength="35" x="96" y="24.1533">shop</text><!--MD5=[7db3c59d38ae5b37b484eb2df9368145]
cluster java.util--><polygon fill="#FFFFFF" filter="url(#f1wydhaumuginl)" points="119,186,180,186,187,211.2295,191,211.2295,191,274,119,274,119,186" style="stroke: #000000; stroke-width: 1.5;"/><line style="stroke: #000000; stroke-width: 1.5;" x1="119" x2="187" y1="211.2295" y2="211.2295"/><text fill="#000000" font-family="sans-serif" font-size="14" font-weight="bold" lengthAdjust="spacingAndGlyphs" textLength="55" x="123" y="204.1533">java.util</text><!--MD5=[aa8f7b917213fcc1c2766e2d59b49067]
cluster java.lang--><polygon fill="#FFFFFF" filter="url(#f1wydhaumuginl)" points="106.5,298,175.5,298,182.5,323.2295,203.5,323.2295,203.5,386,106.5,386,106.5,298" style="stroke: #000000; stroke-width: 1.5;"/><line style="stroke: #000000; stroke-width: 1.5;" x1="106.5" x2="182.5" y1="323.2295" y2="323.2295"/><text fill="#000000" font-family="sans-serif" font-size="14" font-weight="bold" lengthAdjust="spacingAndGlyphs" textLength="63" x="110.5" y="316.1533">java.lang</text><ellipse cx="155.1335" cy="61.0973" fill="#FEFECE" filter="url(#f1wydhaumuginl)" rx="46.1335" ry="16.5973" style="stroke: #A80036; stroke-width: 1.5;"/><text fill="#000000" font-family="sans-serif" font-size="14" lengthAdjust="spacingAndGlyphs" textLength="61" x="124.6335" y="67.2121">setMoney</text><ellipse cx="154.8406" cy="129.0973" fill="#FEFECE" filter="url(#f1wydhaumuginl)" rx="46.8406" ry="16.5973" style="stroke: #A80036; stroke-width: 1.5;"/><text fill="#000000" font-family="sans-serif" font-size="14" lengthAdjust="spacingAndGlyphs" textLength="62" x="123.8406" y="135.2121">getMoney</text><ellipse cx="154.9836" cy="241.0869" fill="#FEFECE" filter="url(#f1wydhaumuginl)" rx="19.9836" ry="16.5869" style="stroke: #A80036; stroke-width: 1.5;"/><text fill="#000000" font-family="sans-serif" font-size="14" lengthAdjust="spacingAndGlyphs" textLength="24" x="142.9836" y="247.2016">add</text><ellipse cx="155.1985" cy="353.0973" fill="#FEFECE" filter="url(#f1wydhaumuginl)" rx="32.6985" ry="16.5973" style="stroke: #A80036; stroke-width: 1.5;"/><text fill="#000000" font-family="sans-serif" font-size="14" lengthAdjust="spacingAndGlyphs" textLength="42" x="134.1985" y="359.2121">equals</text><!--MD5=[78b95a3a57e9f47e814696f5c09527ef]
entity actor1609124502--><ellipse cx="27" cy="327.5" fill="#FEFECE" filter="url(#f1wydhaumuginl)" rx="8" ry="8" style="stroke: #A80036; stroke-width: 1.5;"/><path d="M27,335.5 L27,362.5 M14,343.5 L40,343.5 M27,362.5 L14,377.5 M27,362.5 L40,377.5 " fill="none" filter="url(#f1wydhaumuginl)" style="stroke: #A80036; stroke-width: 1.5;"/><text fill="#000000" font-family="sans-serif" font-size="14" lengthAdjust="spacingAndGlyphs" textLength="42" x="6" y="399.1533">Goods</text><!--MD5=[2a71c260c09c42fc87c738304d3d05c6]
entity actor1144068272--><ellipse cx="27" cy="28.5" fill="#FEFECE" filter="url(#f1wydhaumuginl)" rx="8" ry="8" style="stroke: #A80036; stroke-width: 1.5;"/><path d="M27,36.5 L27,63.5 M14,44.5 L40,44.5 M27,63.5 L14,78.5 M27,63.5 L40,78.5 " fill="none" filter="url(#f1wydhaumuginl)" style="stroke: #A80036; stroke-width: 1.5;"/><text fill="#000000" font-family="sans-serif" font-size="14" lengthAdjust="spacingAndGlyphs" textLength="33" x="10.5" y="100.1533">Shop</text><!--MD5=[85a19f80cc2a9011db4a813ac288dfb9]
entity actor1948471365--><ellipse cx="27" cy="208.5" fill="#FEFECE" filter="url(#f1wydhaumuginl)" rx="8" ry="8" style="stroke: #A80036; stroke-width: 1.5;"/><path d="M27,216.5 L27,243.5 M14,224.5 L40,224.5 M27,243.5 L14,258.5 M27,243.5 L40,258.5 " fill="none" filter="url(#f1wydhaumuginl)" style="stroke: #A80036; stroke-width: 1.5;"/><text fill="#000000" font-family="sans-serif" font-size="14" lengthAdjust="spacingAndGlyphs" textLength="29" x="12.5" y="280.1533">User</text><!--MD5=[44699b2e3b588cdea96abbafe03697d5]
link actor1144068272 to UC1985836631--><path d="M43.7,61 C59.93,61 86.03,61 108.76,61 " fill="none" id="actor1144068272-UC1985836631" style="stroke: #A80036; stroke-width: 1.0;"/><!--MD5=[61a25941fde76a1bc672ac140f37187c]
link actor1948471365 to UC1636506029--><path d="M41.97,241 C64.52,241 109.02,241 134.62,241 " fill="none" id="actor1948471365-UC1636506029" style="stroke: #A80036; stroke-width: 1.0;"/><!--MD5=[d7a0237e39e80160efd60bb7badf63b2]
link actor1948471365 to UC758348212--><path d="M41.97,253.41 C65.54,274.37 113.11,316.65 137.99,338.77 " fill="none" id="actor1948471365-UC758348212" style="stroke: #A80036; stroke-width: 1.0;"/><!--MD5=[3267486988e3d17213c2d1d481cfee79]
link actor1948471365 to UC817978763--><path d="M41.97,228.59 C65.16,207.97 111.56,166.72 136.76,144.33 " fill="none" id="actor1948471365-UC817978763" style="stroke: #A80036; stroke-width: 1.0;"/><!--MD5=[7f683a4be36cded85c00e7433ce135e1]
@startuml
 left to right direction

actor Goods as actor1609124502

actor Shop as actor1144068272

	package shop {
		usecase setMoney as UC1985836631
	}
	actor1144068272 - - UC1985836631
actor User as actor1948471365

	package java.util {
		usecase add as UC1636506029
	}
	actor1948471365 - - UC1636506029
	package java.lang {
		usecase equals as UC758348212
	}
	actor1948471365 - - UC758348212
	package shop {
		usecase getMoney as UC817978763
	}
	actor1948471365 - - UC817978763

@enduml

PlantUML version 1.2020.19(Tue Oct 13 00:10:01 KST 2020)
(APACHE source distribution)
Java Runtime: Java(TM) SE Runtime Environment
JVM: Java HotSpot(TM) 64-Bit Server VM
Default Encoding: MS949
Language: ko
Country: KR
--></g></svg>