<?xml version="1.0" encoding="UTF-8" standalone="no"?><svg xmlns="http://www.w3.org/2000/svg" xmlns:xlink="http://www.w3.org/1999/xlink" contentScriptType="application/ecmascript" contentStyleType="text/css" height="758px" preserveAspectRatio="none" style="width:427px;height:758px;" version="1.1" viewBox="0 0 427 758" width="427px" zoomAndPan="magnify"><defs><filter height="300%" id="f13vupg6l771c3" width="300%" x="-1" y="-1"><feGaussianBlur result="blurOut" stdDeviation="2.0"/><feColorMatrix in="blurOut" result="blurOut2" type="matrix" values="0 0 0 0 0 0 0 0 0 0 0 0 0 0 0 0 0 0 .4 0"/><feOffset dx="4.0" dy="4.0" in="blurOut2" result="blurOut3"/><feBlend in="SourceGraphic" in2="blurOut3" mode="normal"/></filter></defs><g><!--MD5=[537950558e43b2560df457283b5a85a7]
cluster getUndefSize--><rect fill="#FFFFFF" filter="url(#f13vupg6l771c3)" height="88" style="stroke: #000000; stroke-width: 1.5;" width="110" x="137" y="358.5"/><text fill="#000000" font-family="sans-serif" font-size="14" font-weight="bold" lengthAdjust="spacingAndGlyphs" textLength="94" x="145" y="376.6533">getUndefSize</text><!--MD5=[3a76cada14e7aa6ecc7524fc7634f68c]
cluster addFunctionScore--><rect fill="#FFFFFF" filter="url(#f13vupg6l771c3)" height="292" style="stroke: #000000; stroke-width: 1.5;" width="175" x="104" y="42.5"/><text fill="#000000" font-family="sans-serif" font-size="14" font-weight="bold" lengthAdjust="spacingAndGlyphs" textLength="129" x="127" y="60.6533">addFunctionScore</text><!--MD5=[3280d439c7efeca69ab8d3c7e9fc743d]
cluster getMemberScore--><rect fill="#FFFFFF" filter="url(#f13vupg6l771c3)" height="156" style="stroke: #000000; stroke-width: 1.5;" width="162" x="110.5" y="470.5"/><text fill="#000000" font-family="sans-serif" font-size="14" font-weight="bold" lengthAdjust="spacingAndGlyphs" textLength="122" x="130.5" y="488.6533">getMemberScore</text><!--MD5=[810ee23bb0ab43f2a38b555eb772dae5]
cluster getLineNum--><rect fill="#FFFFFF" filter="url(#f13vupg6l771c3)" height="88" style="stroke: #000000; stroke-width: 1.5;" width="109" x="137" y="653.5"/><text fill="#000000" font-family="sans-serif" font-size="14" font-weight="bold" lengthAdjust="spacingAndGlyphs" textLength="84" x="149.5" y="671.6533">getLineNum</text><ellipse cx="191.6482" cy="413.5973" fill="#FEFECE" filter="url(#f13vupg6l771c3)" rx="37.6482" ry="16.5973" style="stroke: #A80036; stroke-width: 1.5;"/><text fill="#000000" font-family="sans-serif" font-size="14" lengthAdjust="spacingAndGlyphs" textLength="49" x="167.1482" y="419.7121">toString</text><ellipse cx="191.4411" cy="301.5973" fill="#FEFECE" filter="url(#f13vupg6l771c3)" rx="36.9411" ry="16.5973" style="stroke: #A80036; stroke-width: 1.5;"/><text fill="#000000" font-family="sans-serif" font-size="14" lengthAdjust="spacingAndGlyphs" textLength="48" x="167.4411" y="307.7121">append</text><ellipse cx="191.2843" cy="233.5973" fill="#FEFECE" filter="url(#f13vupg6l771c3)" rx="31.2843" ry="16.5973" style="stroke: #A80036; stroke-width: 1.5;"/><text fill="#000000" font-family="sans-serif" font-size="14" lengthAdjust="spacingAndGlyphs" textLength="40" x="171.2843" y="239.7121">getSig</text><ellipse cx="191.2886" cy="97.6577" fill="#FEFECE" filter="url(#f13vupg6l771c3)" rx="71.2886" ry="16.6577" style="stroke: #A80036; stroke-width: 1.5;"/><text fill="#000000" font-family="sans-serif" font-size="14" lengthAdjust="spacingAndGlyphs" textLength="97" x="142.7886" y="103.7725">getFunctionList</text><ellipse cx="191.669" cy="165.5973" fill="#FEFECE" filter="url(#f13vupg6l771c3)" rx="49.669" ry="16.5973" style="stroke: #A80036; stroke-width: 1.5;"/><text fill="#000000" font-family="sans-serif" font-size="14" lengthAdjust="spacingAndGlyphs" textLength="66" x="158.669" y="171.7121">getHasList</text><ellipse cx="191.7254" cy="593.5973" fill="#FEFECE" filter="url(#f13vupg6l771c3)" rx="65.2254" ry="16.5973" style="stroke: #A80036; stroke-width: 1.5;"/><text fill="#000000" font-family="sans-serif" font-size="14" lengthAdjust="spacingAndGlyphs" textLength="88" x="147.7254" y="599.7121">getTypeName</text><ellipse cx="191.4411" cy="525.5973" fill="#FEFECE" filter="url(#f13vupg6l771c3)" rx="36.9411" ry="16.5973" style="stroke: #A80036; stroke-width: 1.5;"/><text fill="#000000" font-family="sans-serif" font-size="14" lengthAdjust="spacingAndGlyphs" textLength="48" x="167.4411" y="531.7121">append</text><ellipse cx="191.3553" cy="708.5973" fill="#FEFECE" filter="url(#f13vupg6l771c3)" rx="38.3553" ry="16.5973" style="stroke: #A80036; stroke-width: 1.5;"/><text fill="#000000" font-family="sans-serif" font-size="14" lengthAdjust="spacingAndGlyphs" textLength="50" x="166.3553" y="714.7121">hasNext</text><!--MD5=[6b788eeafbeb5841789c7437b3b344f7]
entity actor1014135205--><ellipse cx="33" cy="325" fill="#FEFECE" filter="url(#f13vupg6l771c3)" rx="8" ry="8" style="stroke: #A80036; stroke-width: 1.5;"/><path d="M33,333 L33,360 M20,341 L46,341 M33,360 L20,375 M33,360 L46,375 " fill="none" filter="url(#f13vupg6l771c3)" style="stroke: #A80036; stroke-width: 1.5;"/><text fill="#000000" font-family="sans-serif" font-size="14" lengthAdjust="spacingAndGlyphs" textLength="54" x="6" y="396.6533">Complex</text><!--MD5=[2699aedbcd2b1f3b132d3903ac9b60ef]
entity actor652803980--><ellipse cx="371.5" cy="381" fill="#FEFECE" filter="url(#f13vupg6l771c3)" rx="8" ry="8" style="stroke: #A80036; stroke-width: 1.5;"/><path d="M371.5,389 L371.5,416 M358.5,397 L384.5,397 M371.5,416 L358.5,431 M371.5,416 L384.5,431 " fill="none" filter="url(#f13vupg6l771c3)" style="stroke: #A80036; stroke-width: 1.5;"/><text fill="#000000" font-family="sans-serif" font-size="14" lengthAdjust="spacingAndGlyphs" textLength="48" x="347.5" y="452.6533">append</text><!--MD5=[fa54cbfa20fe3014d191ba52c69edd3c]
entity actor628694336--><ellipse cx="371.5" cy="133" fill="#FEFECE" filter="url(#f13vupg6l771c3)" rx="8" ry="8" style="stroke: #A80036; stroke-width: 1.5;"/><path d="M371.5,141 L371.5,168 M358.5,149 L384.5,149 M371.5,168 L358.5,183 M371.5,168 L384.5,183 " fill="none" filter="url(#f13vupg6l771c3)" style="stroke: #A80036; stroke-width: 1.5;"/><text fill="#000000" font-family="sans-serif" font-size="14" lengthAdjust="spacingAndGlyphs" textLength="66" x="338.5" y="204.6533">getHasList</text><!--MD5=[2402d7512d9aa01d473b8fba52e12d98]
entity actor188193734--><ellipse cx="371.5" cy="14" fill="#FEFECE" filter="url(#f13vupg6l771c3)" rx="8" ry="8" style="stroke: #A80036; stroke-width: 1.5;"/><path d="M371.5,22 L371.5,49 M358.5,30 L384.5,30 M371.5,49 L358.5,64 M371.5,49 L384.5,64 " fill="none" filter="url(#f13vupg6l771c3)" style="stroke: #A80036; stroke-width: 1.5;"/><text fill="#000000" font-family="sans-serif" font-size="14" lengthAdjust="spacingAndGlyphs" textLength="97" x="323" y="85.6533">getFunctionList</text><!--MD5=[c3a79de3dfdf70b4ead88bc26ff6f883]
entity actor927744186--><ellipse cx="371.5" cy="252" fill="#FEFECE" filter="url(#f13vupg6l771c3)" rx="8" ry="8" style="stroke: #A80036; stroke-width: 1.5;"/><path d="M371.5,260 L371.5,287 M358.5,268 L384.5,268 M371.5,287 L358.5,302 M371.5,287 L384.5,302 " fill="none" filter="url(#f13vupg6l771c3)" style="stroke: #A80036; stroke-width: 1.5;"/><text fill="#000000" font-family="sans-serif" font-size="14" lengthAdjust="spacingAndGlyphs" textLength="40" x="351.5" y="323.6533">getSig</text><!--MD5=[ff2cfac5f43e701ce7de056768dc8c39]
entity actor417118375--><ellipse cx="371.5" cy="559" fill="#FEFECE" filter="url(#f13vupg6l771c3)" rx="8" ry="8" style="stroke: #A80036; stroke-width: 1.5;"/><path d="M371.5,567 L371.5,594 M358.5,575 L384.5,575 M371.5,594 L358.5,609 M371.5,594 L384.5,609 " fill="none" filter="url(#f13vupg6l771c3)" style="stroke: #A80036; stroke-width: 1.5;"/><text fill="#000000" font-family="sans-serif" font-size="14" lengthAdjust="spacingAndGlyphs" textLength="88" x="327.5" y="630.6533">getTypeName</text><!--MD5=[4ce144993fa298fb7eb76f45884f9212]
entity actor1178160997--><ellipse cx="371.5" cy="678" fill="#FEFECE" filter="url(#f13vupg6l771c3)" rx="8" ry="8" style="stroke: #A80036; stroke-width: 1.5;"/><path d="M371.5,686 L371.5,713 M358.5,694 L384.5,694 M371.5,713 L358.5,728 M371.5,713 L384.5,728 " fill="none" filter="url(#f13vupg6l771c3)" style="stroke: #A80036; stroke-width: 1.5;"/><text fill="#000000" font-family="sans-serif" font-size="14" lengthAdjust="spacingAndGlyphs" textLength="50" x="346.5" y="749.6533">hasNext</text><!--MD5=[8d1075b74c5c7f8488b48b38b1aa550b]
link actor1014135205 to UC149--><path d="M60.19,366.87 C88.3,376.93 132.8,392.85 161.83,403.24 " fill="none" id="actor1014135205-UC149" style="stroke: #A80036; stroke-width: 1.0;"/><!--MD5=[e548f2d3839f45804a9e67a0c777700a]
link UC149 to actor652803980--><path d="M229.38,413.5 C264.82,413.5 317.28,413.5 347.25,413.5 " fill="none" id="UC149-actor652803980" style="stroke: #A80036; stroke-width: 1.0;"/><!--MD5=[3452a54a3cf351d5d5b75a24424b97a9]
link actor1014135205 to UC150--><path d="M60.19,348.13 C88.39,338.04 133.08,322.05 162.1,311.66 " fill="none" id="actor1014135205-UC150" style="stroke: #A80036; stroke-width: 1.0;"/><!--MD5=[1b91ef6ce981815b5ca029b4e48ba8af]
link actor1014135205 to UC151--><path d="M55.36,315.5 C65.69,298.65 79.47,280.24 96,267.5 C115.2,252.71 141.41,243.96 161.36,239.05 " fill="none" id="actor1014135205-UC151" style="stroke: #A80036; stroke-width: 1.0;"/><!--MD5=[aade166009d81d7d6b8e0185efeaf9fd]
link actor1014135205 to UC152--><path d="M34.39,315.31 C37.1,265.27 49.03,182.27 96,131.5 C106.3,120.37 120.52,112.87 134.79,107.83 " fill="none" id="actor1014135205-UC152" style="stroke: #A80036; stroke-width: 1.0;"/><!--MD5=[bf041d63dfdb8edb236c8fe3f471c63d]
link actor1014135205 to UC153--><path d="M40.63,315.21 C48.25,279.91 64.09,230.51 96,199.5 C109.75,186.13 129.14,177.98 146.77,173.02 " fill="none" id="actor1014135205-UC153" style="stroke: #A80036; stroke-width: 1.0;"/><!--MD5=[3428a38e98f566269d65bb96cd3da43b]
link UC153 to actor628694336--><path d="M241.14,165.5 C272.12,165.5 311.39,165.5 338.48,165.5 " fill="none" id="UC153-actor628694336" style="stroke: #A80036; stroke-width: 1.0;"/><!--MD5=[627c74b0b45d51f1d832af8af9c392c5]
link UC152 to actor188193734--><path d="M236.96,84.76 C263.11,77.27 296.18,67.79 322.87,60.15 " fill="none" id="UC152-actor188193734" style="stroke: #A80036; stroke-width: 1.0;"/><!--MD5=[34fc2da2b6e28894c36cbdb7ca15c24b]
link UC151 to actor927744186--><path d="M219.53,241.25 C255.91,251.67 319.69,269.94 351.44,279.04 " fill="none" id="UC151-actor927744186" style="stroke: #A80036; stroke-width: 1.0;"/><!--MD5=[814d328b05dc6dcf2689503addee400c]
link UC150 to actor652803980--><path d="M213.62,314.79 C247.23,335.94 312.65,377.1 347.44,398.99 " fill="none" id="UC150-actor652803980" style="stroke: #A80036; stroke-width: 1.0;"/><!--MD5=[a403c3f824004c11f8cc4e30d9fad541]
link actor1014135205 to UC154--><path d="M36.14,399.73 C40.63,444.87 54.36,515.83 96,559.5 C107.19,571.24 122.72,578.93 137.96,583.97 " fill="none" id="actor1014135205-UC154" style="stroke: #A80036; stroke-width: 1.0;"/><!--MD5=[7f40f69e563236f7e13b81af69eb413d]
link actor1014135205 to UC155--><path d="M59.93,399.54 C70.31,414.99 82.9,432.2 96,446.5 C119.4,472.05 151.02,496.9 171.1,511.7 " fill="none" id="actor1014135205-UC155" style="stroke: #A80036; stroke-width: 1.0;"/><!--MD5=[0d367fe8667e19bb71e996e970fd2bb9]
link UC155 to actor652803980--><path d="M213.62,512.21 C247.23,491.06 312.65,449.9 347.44,428.01 " fill="none" id="UC155-actor652803980" style="stroke: #A80036; stroke-width: 1.0;"/><!--MD5=[b270863175bac09160d6e409bd34b877]
link UC154 to actor417118375--><path d="M256.51,592.78 C280.03,592.52 306.09,592.22 327.35,591.98 " fill="none" id="UC154-actor417118375" style="stroke: #A80036; stroke-width: 1.0;"/><!--MD5=[ee27b2275308f1e87a567648fbaf07d1]
link actor1014135205 to UC156--><path d="M35.71,399.66 C39.68,455.31 52.78,554.62 96,626.5 C113.91,656.29 146.34,680.87 168.15,695.12 " fill="none" id="actor1014135205-UC156" style="stroke: #A80036; stroke-width: 1.0;"/><!--MD5=[943cfbc3eee971d969c2f0f01572d0dc]
link UC156 to actor1178160997--><path d="M230.25,708.92 C265.35,709.32 316.6,709.89 346.45,710.23 " fill="none" id="UC156-actor1178160997" style="stroke: #A80036; stroke-width: 1.0;"/><!--MD5=[e029c67c4e4af099d0bcc839ab0e7efa]
@startuml
 left to right direction

actor Complex as actor1014135205

	rectangle getUndefSize{
	 usecase toString as UC149
	actor1014135205- -UC149
	}
actor toString as actor652803980
UC149- -actor652803980

	rectangle addFunctionScore{
	 usecase append as UC150
	actor1014135205- -UC150
	 usecase getSig as UC151
	actor1014135205- -UC151
	 usecase getFunctionList as UC152
	actor1014135205- -UC152
	 usecase getHasList as UC153
	actor1014135205- -UC153
	}
actor getHasList as actor628694336
UC153- -actor628694336
actor getFunctionList as actor188193734
UC152- -actor188193734
actor getSig as actor927744186
UC151- -actor927744186
actor append as actor652803980
UC150- -actor652803980

	rectangle getMemberScore{
	 usecase getTypeName as UC154
	actor1014135205- -UC154
	 usecase append as UC155
	actor1014135205- -UC155
	}
actor append as actor652803980
UC155- -actor652803980
actor getTypeName as actor417118375
UC154- -actor417118375

	rectangle getLineNum{
	 usecase hasNext as UC156
	actor1014135205- -UC156
	}
actor hasNext as actor1178160997
UC156- -actor1178160997


@enduml

PlantUML version 1.2020.19(Tue Oct 13 00:10:01 KST 2020)
(APACHE source distribution)
Java Runtime: Java(TM) SE Runtime Environment
JVM: Java HotSpot(TM) 64-Bit Server VM
Default Encoding: MS949
Language: ko
Country: KR
--></g></svg>