<?xml version="1.0" encoding="UTF-8" standalone="no"?><svg xmlns="http://www.w3.org/2000/svg" xmlns:xlink="http://www.w3.org/1999/xlink" contentScriptType="application/ecmascript" contentStyleType="text/css" height="873px" preserveAspectRatio="none" style="width:395px;height:873px;" version="1.1" viewBox="0 0 395 873" width="395px" zoomAndPan="magnify"><defs><filter height="300%" id="f10t79ek3l8uud" width="300%" x="-1" y="-1"><feGaussianBlur result="blurOut" stdDeviation="2.0"/><feColorMatrix in="blurOut" result="blurOut2" type="matrix" values="0 0 0 0 0 0 0 0 0 0 0 0 0 0 0 0 0 0 .4 0"/><feOffset dx="4.0" dy="4.0" in="blurOut2" result="blurOut3"/><feBlend in="SourceGraphic" in2="blurOut3" mode="normal"/></filter></defs><g><!--MD5=[3fd23fd997070011d1cb4974b5e1f645]
cluster Function--><rect fill="#FFFFFF" filter="url(#f10t79ek3l8uud)" height="88" style="stroke: #000000; stroke-width: 1.5;" width="106" x="144.5" y="7"/><text fill="#000000" font-family="sans-serif" font-size="14" font-weight="bold" lengthAdjust="spacingAndGlyphs" textLength="62" x="166.5" y="25.1533">Function</text><!--MD5=[a1eef7bbc55d6e115a3736b1cb383f24]
cluster getSrcName--><rect fill="#FFFFFF" filter="url(#f10t79ek3l8uud)" height="88" style="stroke: #000000; stroke-width: 1.5;" width="147" x="124" y="119"/><text fill="#000000" font-family="sans-serif" font-size="14" font-weight="bold" lengthAdjust="spacingAndGlyphs" textLength="85" x="155" y="137.1533">getSrcName</text><!--MD5=[c34a5b0034f574704b03ebcea5fc6794]
cluster getPackageName--><rect fill="#FFFFFF" filter="url(#f10t79ek3l8uud)" height="90" style="stroke: #000000; stroke-width: 1.5;" width="185" x="105" y="231"/><text fill="#000000" font-family="sans-serif" font-size="14" font-weight="bold" lengthAdjust="spacingAndGlyphs" textLength="121" x="137" y="249.1533">getPackageName</text><!--MD5=[3df72e327fda6a9c75e1d3c13478bbff]
cluster addHas--><rect fill="#FFFFFF" filter="url(#f10t79ek3l8uud)" height="88" style="stroke: #000000; stroke-width: 1.5;" width="114" x="140.5" y="773"/><text fill="#000000" font-family="sans-serif" font-size="14" font-weight="bold" lengthAdjust="spacingAndGlyphs" textLength="52" x="171.5" y="791.1533">addHas</text><!--MD5=[89e6df34a40fd0f881e4a85c208f9fb2]
cluster addCallBy--><rect fill="#FFFFFF" filter="url(#f10t79ek3l8uud)" height="156" style="stroke: #000000; stroke-width: 1.5;" width="129" x="133" y="593"/><text fill="#000000" font-family="sans-serif" font-size="14" font-weight="bold" lengthAdjust="spacingAndGlyphs" textLength="69" x="163" y="611.1533">addCallBy</text><!--MD5=[e72b28ea75be9a6e9901756f23061282]
cluster addCall--><rect fill="#FFFFFF" filter="url(#f10t79ek3l8uud)" height="224" style="stroke: #000000; stroke-width: 1.5;" width="129" x="133" y="345"/><text fill="#000000" font-family="sans-serif" font-size="14" font-weight="bold" lengthAdjust="spacingAndGlyphs" textLength="52" x="171.5" y="363.1533">addCall</text><ellipse cx="197.4411" cy="62.0973" fill="#FEFECE" filter="url(#f10t79ek3l8uud)" rx="36.9411" ry="16.5973" style="stroke: #A80036; stroke-width: 1.5;"/><text fill="#000000" font-family="sans-serif" font-size="14" lengthAdjust="spacingAndGlyphs" textLength="48" x="173.4411" y="68.2121">addHas</text><ellipse cx="197.4472" cy="174.0973" fill="#FEFECE" filter="url(#f10t79ek3l8uud)" rx="57.4472" ry="16.5973" style="stroke: #A80036; stroke-width: 1.5;"/><text fill="#000000" font-family="sans-serif" font-size="14" lengthAdjust="spacingAndGlyphs" textLength="77" x="158.9472" y="180.2121">getSrcName</text><ellipse cx="197.4257" cy="287.1851" fill="#FEFECE" filter="url(#f10t79ek3l8uud)" rx="76.4257" ry="17.6851" style="stroke: #A80036; stroke-width: 1.5;"/><text fill="#000000" font-family="sans-serif" font-size="14" lengthAdjust="spacingAndGlyphs" textLength="111" x="141.9257" y="293.2999">getPackageName</text><ellipse cx="197.6838" cy="828.0973" fill="#FEFECE" filter="url(#f10t79ek3l8uud)" rx="41.1838" ry="16.5973" style="stroke: #A80036; stroke-width: 1.5;"/><text fill="#000000" font-family="sans-serif" font-size="14" lengthAdjust="spacingAndGlyphs" textLength="54" x="170.6838" y="834.2121">addData</text><ellipse cx="197.6838" cy="716.0973" fill="#FEFECE" filter="url(#f10t79ek3l8uud)" rx="41.1838" ry="16.5973" style="stroke: #A80036; stroke-width: 1.5;"/><text fill="#000000" font-family="sans-serif" font-size="14" lengthAdjust="spacingAndGlyphs" textLength="54" x="170.6838" y="722.2121">addData</text><ellipse cx="197.2548" cy="648.0973" fill="#FEFECE" filter="url(#f10t79ek3l8uud)" rx="48.2548" ry="16.5973" style="stroke: #A80036; stroke-width: 1.5;"/><text fill="#000000" font-family="sans-serif" font-size="14" lengthAdjust="spacingAndGlyphs" textLength="64" x="165.2548" y="654.2121">addCallBy</text><ellipse cx="197.6838" cy="536.0973" fill="#FEFECE" filter="url(#f10t79ek3l8uud)" rx="41.1838" ry="16.5973" style="stroke: #A80036; stroke-width: 1.5;"/><text fill="#000000" font-family="sans-serif" font-size="14" lengthAdjust="spacingAndGlyphs" textLength="54" x="170.6838" y="542.2121">addData</text><ellipse cx="197.4411" cy="468.0973" fill="#FEFECE" filter="url(#f10t79ek3l8uud)" rx="36.9411" ry="16.5973" style="stroke: #A80036; stroke-width: 1.5;"/><text fill="#000000" font-family="sans-serif" font-size="14" lengthAdjust="spacingAndGlyphs" textLength="48" x="173.4411" y="474.2121">addCall</text><ellipse cx="197.2548" cy="400.0973" fill="#FEFECE" filter="url(#f10t79ek3l8uud)" rx="48.2548" ry="16.5973" style="stroke: #A80036; stroke-width: 1.5;"/><text fill="#000000" font-family="sans-serif" font-size="14" lengthAdjust="spacingAndGlyphs" textLength="64" x="165.2548" y="406.2121">addCallBy</text><!--MD5=[c3a79de3dfdf70b4ead88bc26ff6f883]
entity actor927744186--><ellipse cx="33.5" cy="435.5" fill="#FEFECE" filter="url(#f10t79ek3l8uud)" rx="8" ry="8" style="stroke: #A80036; stroke-width: 1.5;"/><path d="M33.5,443.5 L33.5,470.5 M20.5,451.5 L46.5,451.5 M33.5,470.5 L20.5,485.5 M33.5,470.5 L46.5,485.5 " fill="none" filter="url(#f10t79ek3l8uud)" style="stroke: #A80036; stroke-width: 1.5;"/><text fill="#000000" font-family="sans-serif" font-size="14" lengthAdjust="spacingAndGlyphs" textLength="55" x="6" y="507.1533">Function</text><!--MD5=[fa54cbfa20fe3014d191ba52c69edd3c]
entity actor628694336--><ellipse cx="361" cy="311.5" fill="#FEFECE" filter="url(#f10t79ek3l8uud)" rx="8" ry="8" style="stroke: #A80036; stroke-width: 1.5;"/><path d="M361,319.5 L361,346.5 M348,327.5 L374,327.5 M361,346.5 L348,361.5 M361,346.5 L374,361.5 " fill="none" filter="url(#f10t79ek3l8uud)" style="stroke: #A80036; stroke-width: 1.5;"/><text fill="#000000" font-family="sans-serif" font-size="14" lengthAdjust="spacingAndGlyphs" textLength="48" x="337" y="383.1533">addCall</text><!--MD5=[2402d7512d9aa01d473b8fba52e12d98]
entity actor188193734--><ellipse cx="361" cy="683.5" fill="#FEFECE" filter="url(#f10t79ek3l8uud)" rx="8" ry="8" style="stroke: #A80036; stroke-width: 1.5;"/><path d="M361,691.5 L361,718.5 M348,699.5 L374,699.5 M361,718.5 L348,733.5 M361,718.5 L374,733.5 " fill="none" filter="url(#f10t79ek3l8uud)" style="stroke: #A80036; stroke-width: 1.5;"/><text fill="#000000" font-family="sans-serif" font-size="14" lengthAdjust="spacingAndGlyphs" textLength="54" x="334" y="755.1533">addData</text><!--MD5=[a50d09c41f895af50ae9f41ddd5e5e93]
link actor927744186 to UC130--><path d="M38.88,425.81 C47.48,348.67 68.27,188.47 97,141 C115.27,110.81 149.57,87.5 172.73,74.26 " fill="none" id="actor927744186-UC130" style="stroke: #A80036; stroke-width: 1.0;"/><!--MD5=[1d70f6c8f2d0d6aa62a1edd9f4157c47]
link UC130 to actor628694336--><path d="M221.6,74.69 C244.23,88.27 278.13,111.83 298,141 C331.61,190.33 347.51,258.52 354.66,301.95 " fill="none" id="UC130-actor628694336" style="stroke: #A80036; stroke-width: 1.0;"/><!--MD5=[d6169b65532842b2003ec28cd1a315bd]
link actor927744186 to UC131--><path d="M39.02,426 C45.62,380.17 61.25,306.25 97,253 C115.69,225.17 147.26,202.53 169.83,188.74 " fill="none" id="actor927744186-UC131" style="stroke: #A80036; stroke-width: 1.0;"/><!--MD5=[e286bef8d9c50c848fb7c8f38ff193f4]
link UC131 to actor628694336--><path d="M221.46,189.21 C242.75,203.98 274.57,227.8 298,253 C312.45,268.54 326.02,287.71 336.77,304.45 " fill="none" id="UC131-actor628694336" style="stroke: #A80036; stroke-width: 1.0;"/><!--MD5=[0a8ad01dcdc5c5d22afe0d4eeecb7839]
link actor927744186 to UC132--><path d="M56.49,425.51 C67.33,406.57 81.43,384.61 97,367 C119.17,341.92 149.8,318.6 171.2,303.68 " fill="none" id="actor927744186-UC132" style="stroke: #A80036; stroke-width: 1.0;"/><!--MD5=[18faeefa90a15b2e71b46ea9f1a638ea]
link UC132 to actor628694336--><path d="M240.09,301.68 C270.75,312.5 311.33,326.82 336.55,335.72 " fill="none" id="UC132-actor628694336" style="stroke: #A80036; stroke-width: 1.0;"/><!--MD5=[9daba6fd4bb6080f38088261caef94a1]
link actor927744186 to UC133--><path d="M35.27,510.34 C38.15,568.39 50.06,674.02 97,749 C115.37,778.35 148.63,801.42 171.61,814.86 " fill="none" id="actor927744186-UC133" style="stroke: #A80036; stroke-width: 1.0;"/><!--MD5=[eddc8673b99fe93f403773df2a98934c]
link UC133 to actor188193734--><path d="M218.95,813.82 C248.15,793.57 301.79,756.37 333.84,734.14 " fill="none" id="UC133-actor188193734" style="stroke: #A80036; stroke-width: 1.0;"/><!--MD5=[ab3598893009ccc1ec3a4fc65530dbbb]
link actor927744186 to UC134--><path d="M35.68,510.24 C39.27,557.98 52.2,635.14 97,682 C112.89,698.63 137.25,707.12 157.88,711.46 " fill="none" id="actor927744186-UC134" style="stroke: #A80036; stroke-width: 1.0;"/><!--MD5=[f24bc4472a5c63210b87538f2154aa3d]
link actor927744186 to UC135--><path d="M56.15,510.04 C67.03,529.1 81.24,551.28 97,569 C120.01,594.88 152.22,618.73 173.69,633.3 " fill="none" id="actor927744186-UC135" style="stroke: #A80036; stroke-width: 1.0;"/><!--MD5=[599e1bc7faa700cd44a0d6a9a94368ce]
link UC135 to actor628694336--><path d="M223.94,634.13 C246.64,620.46 279.14,597.52 298,569 C335.33,512.56 350.34,434.01 356.26,386.21 " fill="none" id="UC135-actor628694336" style="stroke: #A80036; stroke-width: 1.0;"/><!--MD5=[196b0c4ae6c2f98b673ef9f5adb5b866]
link UC134 to actor188193734--><path d="M238.84,716 C268.55,716 308.09,716 333.79,716 " fill="none" id="UC134-actor188193734" style="stroke: #A80036; stroke-width: 1.0;"/><!--MD5=[3a987d00421817e7ae485ad62611b2db]
link actor927744186 to UC136--><path d="M61.07,483.75 C71.99,489.87 84.9,496.69 97,502 C118.73,511.54 144.05,520.16 163.71,526.33 " fill="none" id="actor927744186-UC136" style="stroke: #A80036; stroke-width: 1.0;"/><!--MD5=[5e2d0be796080f9606ff74ef24b4abfa]
link actor927744186 to UC137--><path d="M61.25,468 C88.3,468 130.29,468 160.3,468 " fill="none" id="actor927744186-UC137" style="stroke: #A80036; stroke-width: 1.0;"/><!--MD5=[4a04de84a556a8135386552b9f2103e9]
link actor927744186 to UC138--><path d="M61.07,452.25 C71.99,446.13 84.9,439.31 97,434 C117.56,424.97 141.33,416.77 160.48,410.69 " fill="none" id="actor927744186-UC138" style="stroke: #A80036; stroke-width: 1.0;"/><!--MD5=[b8c8b3a606489acf71c6e4fe1dbbf340]
link UC138 to actor628694336--><path d="M232.36,388.26 C263.62,377.42 309.23,361.6 336.63,352.11 " fill="none" id="UC138-actor628694336" style="stroke: #A80036; stroke-width: 1.0;"/><!--MD5=[696e58e21bf096f50efc82558d67102a]
link UC137 to actor628694336--><path d="M232.4,462.04 C252.94,457.14 278.79,448.55 298,434 C314.64,421.4 328.42,403.01 338.74,386.13 " fill="none" id="UC137-actor628694336" style="stroke: #A80036; stroke-width: 1.0;"/><!--MD5=[b7db3c1b509c9b7fed664ae3e2819b0f]
link UC136 to actor188193734--><path d="M220.11,549.85 C241.58,564.33 274.59,588.59 298,615 C313.69,632.71 327.8,654.89 338.58,673.95 " fill="none" id="UC136-actor188193734" style="stroke: #A80036; stroke-width: 1.0;"/><!--MD5=[a8cae00fac72bfcbc5a19639f031c619]
@startuml
 left to right direction

actor Function as actor927744186

	rectangle Function{
	 usecase addHas as UC130
	actor927744186- -UC130
	}
actor addHas as actor628694336
UC130- -actor628694336

	rectangle getSrcName{
	 usecase getSrcName as UC131
	actor927744186- -UC131
	}
actor getSrcName as actor628694336
UC131- -actor628694336

	rectangle getPackageName{
	 usecase getPackageName as UC132
	actor927744186- -UC132
	}
actor getPackageName as actor628694336
UC132- -actor628694336

	rectangle addHas{
	 usecase addData as UC133
	actor927744186- -UC133
	}
actor addData as actor188193734
UC133- -actor188193734

	rectangle addCallBy{
	 usecase addData as UC134
	actor927744186- -UC134
	 usecase addCallBy as UC135
	actor927744186- -UC135
	}
actor addCallBy as actor628694336
UC135- -actor628694336
actor addData as actor188193734
UC134- -actor188193734

	rectangle addCall{
	 usecase addData as UC136
	actor927744186- -UC136
	 usecase addCall as UC137
	actor927744186- -UC137
	 usecase addCallBy as UC138
	actor927744186- -UC138
	}
actor addCallBy as actor628694336
UC138- -actor628694336
actor addCall as actor628694336
UC137- -actor628694336
actor addData as actor188193734
UC136- -actor188193734


@enduml

PlantUML version 1.2020.19(Tue Oct 13 00:10:01 KST 2020)
(APACHE source distribution)
Java Runtime: Java(TM) SE Runtime Environment
JVM: Java HotSpot(TM) 64-Bit Server VM
Default Encoding: MS949
Language: ko
Country: KR
--></g></svg>