<?xml version="1.0" encoding="UTF-8" standalone="no"?><svg xmlns="http://www.w3.org/2000/svg" xmlns:xlink="http://www.w3.org/1999/xlink" contentScriptType="application/ecmascript" contentStyleType="text/css" height="493px" preserveAspectRatio="none" style="width:427px;height:493px;" version="1.1" viewBox="0 0 427 493" width="427px" zoomAndPan="magnify"><defs><filter height="300%" id="f1xjf9mcvfoe2k" width="300%" x="-1" y="-1"><feGaussianBlur result="blurOut" stdDeviation="2.0"/><feColorMatrix in="blurOut" result="blurOut2" type="matrix" values="0 0 0 0 0 0 0 0 0 0 0 0 0 0 0 0 0 0 .4 0"/><feOffset dx="4.0" dy="4.0" in="blurOut2" result="blurOut3"/><feBlend in="SourceGraphic" in2="blurOut3" mode="normal"/></filter></defs><g><!--MD5=[f84b217020bdb875be7d37de79ed20c2]
cluster SwitchNode--><rect fill="#FFFFFF" filter="url(#f1xjf9mcvfoe2k)" height="292" style="stroke: #000000; stroke-width: 1.5;" width="164" x="123" y="7"/><text fill="#000000" font-family="sans-serif" font-size="14" font-weight="bold" lengthAdjust="spacingAndGlyphs" textLength="83" x="163.5" y="25.1533">SwitchNode</text><!--MD5=[d7cb485c184685c60a24d7d833bd66f5]
cluster print--><rect fill="#FFFFFF" filter="url(#f1xjf9mcvfoe2k)" height="156" style="stroke: #000000; stroke-width: 1.5;" width="107" x="151.5" y="323"/><text fill="#000000" font-family="sans-serif" font-size="14" font-weight="bold" lengthAdjust="spacingAndGlyphs" textLength="33" x="188.5" y="341.1533">print</text><ellipse cx="205.1482" cy="266.0973" fill="#FEFECE" filter="url(#f1xjf9mcvfoe2k)" rx="37.6482" ry="16.5973" style="stroke: #A80036; stroke-width: 1.5;"/><text fill="#000000" font-family="sans-serif" font-size="14" lengthAdjust="spacingAndGlyphs" textLength="49" x="180.6482" y="272.2121">toString</text><ellipse cx="204.9325" cy="62.0973" fill="#FEFECE" filter="url(#f1xjf9mcvfoe2k)" rx="65.9325" ry="16.5973" style="stroke: #A80036; stroke-width: 1.5;"/><text fill="#000000" font-family="sans-serif" font-size="14" lengthAdjust="spacingAndGlyphs" textLength="89" x="160.4325" y="68.2121">getExpression</text><ellipse cx="204.9836" cy="198.0869" fill="#FEFECE" filter="url(#f1xjf9mcvfoe2k)" rx="19.9836" ry="16.5869" style="stroke: #A80036; stroke-width: 1.5;"/><text fill="#000000" font-family="sans-serif" font-size="14" lengthAdjust="spacingAndGlyphs" textLength="24" x="192.9836" y="204.2016">add</text><ellipse cx="204.7904" cy="130.0973" fill="#FEFECE" filter="url(#f1xjf9mcvfoe2k)" rx="51.7904" ry="16.5973" style="stroke: #A80036; stroke-width: 1.5;"/><text fill="#000000" font-family="sans-serif" font-size="14" lengthAdjust="spacingAndGlyphs" textLength="69" x="170.2904" y="136.2121">statements</text><ellipse cx="205.0772" cy="446.0973" fill="#FEFECE" filter="url(#f1xjf9mcvfoe2k)" rx="30.5772" ry="16.5973" style="stroke: #A80036; stroke-width: 1.5;"/><text fill="#000000" font-family="sans-serif" font-size="14" lengthAdjust="spacingAndGlyphs" textLength="39" x="185.5772" y="452.2121">println</text><ellipse cx="205.1482" cy="378.0973" fill="#FEFECE" filter="url(#f1xjf9mcvfoe2k)" rx="37.6482" ry="16.5973" style="stroke: #A80036; stroke-width: 1.5;"/><text fill="#000000" font-family="sans-serif" font-size="14" lengthAdjust="spacingAndGlyphs" textLength="49" x="180.6482" y="384.2121">toString</text><!--MD5=[72a9bcd9c8f6b0523487f87d1c5e2444]
entity actor1511319053--><ellipse cx="42.5" cy="199.5" fill="#FEFECE" filter="url(#f1xjf9mcvfoe2k)" rx="8" ry="8" style="stroke: #A80036; stroke-width: 1.5;"/><path d="M42.5,207.5 L42.5,234.5 M29.5,215.5 L55.5,215.5 M42.5,234.5 L29.5,249.5 M42.5,234.5 L55.5,249.5 " fill="none" filter="url(#f1xjf9mcvfoe2k)" style="stroke: #A80036; stroke-width: 1.5;"/><text fill="#000000" font-family="sans-serif" font-size="14" lengthAdjust="spacingAndGlyphs" textLength="73" x="6" y="271.1533">SwitchNode</text><!--MD5=[e2a1f96360dac5693ffd7ecbbd38af7c]
entity actor2037498537--><ellipse cx="375.5" cy="38.5" fill="#FEFECE" filter="url(#f1xjf9mcvfoe2k)" rx="8" ry="8" style="stroke: #A80036; stroke-width: 1.5;"/><path d="M375.5,46.5 L375.5,73.5 M362.5,54.5 L388.5,54.5 M375.5,73.5 L362.5,88.5 M375.5,73.5 L388.5,88.5 " fill="none" filter="url(#f1xjf9mcvfoe2k)" style="stroke: #A80036; stroke-width: 1.5;"/><text fill="#000000" font-family="sans-serif" font-size="14" lengthAdjust="spacingAndGlyphs" textLength="89" x="331" y="110.1533">getExpression</text><!--MD5=[7e058248a66be4368ca89473b9f85b73]
entity actor1479446866--><ellipse cx="375.5" cy="165.5" fill="#FEFECE" filter="url(#f1xjf9mcvfoe2k)" rx="8" ry="8" style="stroke: #A80036; stroke-width: 1.5;"/><path d="M375.5,173.5 L375.5,200.5 M362.5,181.5 L388.5,181.5 M375.5,200.5 L362.5,215.5 M375.5,200.5 L388.5,215.5 " fill="none" filter="url(#f1xjf9mcvfoe2k)" style="stroke: #A80036; stroke-width: 1.5;"/><text fill="#000000" font-family="sans-serif" font-size="14" lengthAdjust="spacingAndGlyphs" textLength="24" x="363.5" y="237.1533">add</text><!--MD5=[e0ade3a4b9a8581710b1ecb2fffa3aba]
entity actor2050083360--><ellipse cx="375.5" cy="289.5" fill="#FEFECE" filter="url(#f1xjf9mcvfoe2k)" rx="8" ry="8" style="stroke: #A80036; stroke-width: 1.5;"/><path d="M375.5,297.5 L375.5,324.5 M362.5,305.5 L388.5,305.5 M375.5,324.5 L362.5,339.5 M375.5,324.5 L388.5,339.5 " fill="none" filter="url(#f1xjf9mcvfoe2k)" style="stroke: #A80036; stroke-width: 1.5;"/><text fill="#000000" font-family="sans-serif" font-size="14" lengthAdjust="spacingAndGlyphs" textLength="49" x="351" y="361.1533">toString</text><!--MD5=[b7e9d3a6f28f121b3b9275e7322962cf]
entity actor2131723476--><ellipse cx="375.5" cy="413.5" fill="#FEFECE" filter="url(#f1xjf9mcvfoe2k)" rx="8" ry="8" style="stroke: #A80036; stroke-width: 1.5;"/><path d="M375.5,421.5 L375.5,448.5 M362.5,429.5 L388.5,429.5 M375.5,448.5 L362.5,463.5 M375.5,448.5 L388.5,463.5 " fill="none" filter="url(#f1xjf9mcvfoe2k)" style="stroke: #A80036; stroke-width: 1.5;"/><text fill="#000000" font-family="sans-serif" font-size="14" lengthAdjust="spacingAndGlyphs" textLength="39" x="356" y="485.1533">println</text><!--MD5=[f71f8e9bafc8b24bbfb1b1897188c663]
link actor1511319053 to UC157--><path d="M79.12,239.55 C106.55,245.36 144.18,253.33 170.94,259 " fill="none" id="actor1511319053-UC157" style="stroke: #A80036; stroke-width: 1.0;"/><!--MD5=[1675e0540d0d0a93fb68647db5092064]
link actor1511319053 to UC158--><path d="M56.67,189.75 C67.9,159.96 86.77,121.05 115,96 C126.63,85.68 141.72,78.35 156.16,73.22 " fill="none" id="actor1511319053-UC158" style="stroke: #A80036; stroke-width: 1.0;"/><!--MD5=[1789d9204389ded20212d12097a18c8e]
link actor1511319053 to UC159--><path d="M79.12,224.45 C112,217.49 159.53,207.42 185.44,201.93 " fill="none" id="actor1511319053-UC159" style="stroke: #A80036; stroke-width: 1.0;"/><!--MD5=[a0268f1a65bdc8fa5e026b3e56cc5993]
link actor1511319053 to UC160--><path d="M79.36,192.62 C90.1,182.35 102.39,171.95 115,164 C130.53,154.21 149.32,146.51 165.63,140.94 " fill="none" id="actor1511319053-UC160" style="stroke: #A80036; stroke-width: 1.0;"/><!--MD5=[a182600af07dfa4fd4bda6d6c0e5dd7a]
link UC160 to actor2037498537--><path d="M240.51,117.92 C266.6,108.78 302.61,96.17 330.73,86.33 " fill="none" id="UC160-actor2037498537" style="stroke: #A80036; stroke-width: 1.0;"/><!--MD5=[44ec5d04fbcc7bfcaba74ca4b32677c7]
link UC159 to actor1479446866--><path d="M225,198 C259.26,198 330.59,198 360.66,198 " fill="none" id="UC159-actor1479446866" style="stroke: #A80036; stroke-width: 1.0;"/><!--MD5=[9054823cc939ce075efc8b45f5c7fbc5]
link UC158 to actor2037498537--><path d="M269.7,65.4 C290.11,66.49 312.24,67.67 330.87,68.67 " fill="none" id="UC158-actor2037498537" style="stroke: #A80036; stroke-width: 1.0;"/><!--MD5=[bcacef618223fbde78b064d8a7cb6443]
link UC157 to actor2050083360--><path d="M235.35,275.75 C268.16,286.66 320.65,304.1 350.92,314.16 " fill="none" id="UC157-actor2050083360" style="stroke: #A80036; stroke-width: 1.0;"/><!--MD5=[16e2160653c4956bec246b041659297d]
link actor1511319053 to UC161--><path d="M50.21,274.15 C58.7,314.48 77.07,374.56 115,412 C131.36,428.15 156.2,436.79 175.48,441.31 " fill="none" id="actor1511319053-UC161" style="stroke: #A80036; stroke-width: 1.0;"/><!--MD5=[8c2673b7e878adedcb4dc5e1067b8133]
link actor1511319053 to UC162--><path d="M79.33,265.93 C90.68,276.58 103.31,288.34 115,299 C139.88,321.69 169.16,347.52 187.15,363.28 " fill="none" id="actor1511319053-UC162" style="stroke: #A80036; stroke-width: 1.0;"/><!--MD5=[3c2b8ea4ddf759e4daa7eb897c149bd6]
link UC162 to actor2050083360--><path d="M235.35,368.25 C268.16,357.34 320.65,339.9 350.92,329.84 " fill="none" id="UC162-actor2050083360" style="stroke: #A80036; stroke-width: 1.0;"/><!--MD5=[d4227c900be0f958516ba102fb9b15fe]
link UC161 to actor2131723476--><path d="M235.74,446 C270.5,446 326.98,446 356,446 " fill="none" id="UC161-actor2131723476" style="stroke: #A80036; stroke-width: 1.0;"/><!--MD5=[92d1a13b89440f3e48055d8b3888841a]
@startuml
 left to right direction

actor SwitchNode as actor1511319053

	rectangle SwitchNode{
	 usecase toString as UC157
	actor1511319053- -UC157
	 usecase getExpression as UC158
	actor1511319053- -UC158
	 usecase add as UC159
	actor1511319053- -UC159
	 usecase statements as UC160
	actor1511319053- -UC160
	}
actor statements as actor2037498537
UC160- -actor2037498537
actor add as actor1479446866
UC159- -actor1479446866
actor getExpression as actor2037498537
UC158- -actor2037498537
actor toString as actor2050083360
UC157- -actor2050083360

	rectangle print{
	 usecase println as UC161
	actor1511319053- -UC161
	 usecase toString as UC162
	actor1511319053- -UC162
	}
actor toString as actor2050083360
UC162- -actor2050083360
actor println as actor2131723476
UC161- -actor2131723476


@enduml

PlantUML version 1.2020.19(Tue Oct 13 00:10:01 KST 2020)
(APACHE source distribution)
Java Runtime: Java(TM) SE Runtime Environment
JVM: Java HotSpot(TM) 64-Bit Server VM
Default Encoding: MS949
Language: ko
Country: KR
--></g></svg>