<?xml version="1.0" encoding="UTF-8" standalone="no"?><svg xmlns="http://www.w3.org/2000/svg" xmlns:xlink="http://www.w3.org/1999/xlink" contentScriptType="application/ecmascript" contentStyleType="text/css" height="1341px" preserveAspectRatio="none" style="width:437px;height:1341px;" version="1.1" viewBox="0 0 437 1341" width="437px" zoomAndPan="magnify"><defs><filter height="300%" id="f1bwosivs69y14" width="300%" x="-1" y="-1"><feGaussianBlur result="blurOut" stdDeviation="2.0"/><feColorMatrix in="blurOut" result="blurOut2" type="matrix" values="0 0 0 0 0 0 0 0 0 0 0 0 0 0 0 0 0 0 .4 0"/><feOffset dx="4.0" dy="4.0" in="blurOut2" result="blurOut3"/><feBlend in="SourceGraphic" in2="blurOut3" mode="normal"/></filter></defs><g><!--MD5=[a70b0d373322012744ecc119c63f921b]
cluster main--><rect fill="#FFFFFF" filter="url(#f1bwosivs69y14)" height="224" style="stroke: #000000; stroke-width: 1.5;" width="147" x="128" y="16.5"/><text fill="#000000" font-family="sans-serif" font-size="14" font-weight="bold" lengthAdjust="spacingAndGlyphs" textLength="33" x="185" y="34.6533">main</text><!--MD5=[34cb1141ed5c8afa1d4c2c83d67642d3]
cluster makeString--><rect fill="#FFFFFF" filter="url(#f1bwosivs69y14)" height="156" style="stroke: #000000; stroke-width: 1.5;" width="107" x="148" y="964.5"/><text fill="#000000" font-family="sans-serif" font-size="14" font-weight="bold" lengthAdjust="spacingAndGlyphs" textLength="79" x="162" y="982.6533">makeString</text><!--MD5=[169ded1774b4ebedaf5b3d453063cde8]
cluster getCallerFunList--><rect fill="#FFFFFF" filter="url(#f1bwosivs69y14)" height="360" style="stroke: #000000; stroke-width: 1.5;" width="175" x="114" y="264.5"/><text fill="#000000" font-family="sans-serif" font-size="14" font-weight="bold" lengthAdjust="spacingAndGlyphs" textLength="116" x="143.5" y="282.6533">getCallerFunList</text><!--MD5=[c6bdd26f9d0c779513684dd3959e914f]
cluster drawConnect--><rect fill="#FFFFFF" filter="url(#f1bwosivs69y14)" height="292" style="stroke: #000000; stroke-width: 1.5;" width="175" x="114" y="648.5"/><text fill="#000000" font-family="sans-serif" font-size="14" font-weight="bold" lengthAdjust="spacingAndGlyphs" textLength="93" x="155" y="666.6533">drawConnect</text><!--MD5=[1e829f21a74d4de467c1b519aceec237]
cluster makeFile--><rect fill="#FFFFFF" filter="url(#f1bwosivs69y14)" height="156" style="stroke: #000000; stroke-width: 1.5;" width="85" x="159" y="1144.5"/><text fill="#000000" font-family="sans-serif" font-size="14" font-weight="bold" lengthAdjust="spacingAndGlyphs" textLength="63" x="170" y="1162.6533">makeFile</text><ellipse cx="201.5269" cy="139.5973" fill="#FEFECE" filter="url(#f1bwosivs69y14)" rx="35.5269" ry="16.5973" style="stroke: #A80036; stroke-width: 1.5;"/><text fill="#000000" font-family="sans-serif" font-size="14" lengthAdjust="spacingAndGlyphs" textLength="46" x="178.5269" y="145.7121">waitFor</text><ellipse cx="201.5772" cy="71.5973" fill="#FEFECE" filter="url(#f1bwosivs69y14)" rx="30.5772" ry="16.5973" style="stroke: #A80036; stroke-width: 1.5;"/><text fill="#000000" font-family="sans-serif" font-size="14" lengthAdjust="spacingAndGlyphs" textLength="39" x="182.0772" y="77.7121">println</text><ellipse cx="201.4472" cy="207.5973" fill="#FEFECE" filter="url(#f1bwosivs69y14)" rx="57.4472" ry="16.5973" style="stroke: #A80036; stroke-width: 1.5;"/><text fill="#000000" font-family="sans-serif" font-size="14" lengthAdjust="spacingAndGlyphs" textLength="77" x="162.9472" y="213.7121">getClassList</text><ellipse cx="201.4411" cy="1019.5973" fill="#FEFECE" filter="url(#f1bwosivs69y14)" rx="36.9411" ry="16.5973" style="stroke: #A80036; stroke-width: 1.5;"/><text fill="#000000" font-family="sans-serif" font-size="14" lengthAdjust="spacingAndGlyphs" textLength="48" x="177.4411" y="1025.7121">append</text><ellipse cx="201.6482" cy="1087.5973" fill="#FEFECE" filter="url(#f1bwosivs69y14)" rx="37.6482" ry="16.5973" style="stroke: #A80036; stroke-width: 1.5;"/><text fill="#000000" font-family="sans-serif" font-size="14" lengthAdjust="spacingAndGlyphs" textLength="49" x="177.1482" y="1093.7121">toString</text><ellipse cx="201.4836" cy="319.5869" fill="#FEFECE" filter="url(#f1bwosivs69y14)" rx="19.9836" ry="16.5869" style="stroke: #A80036; stroke-width: 1.5;"/><text fill="#000000" font-family="sans-serif" font-size="14" lengthAdjust="spacingAndGlyphs" textLength="24" x="189.4836" y="325.7016">add</text><ellipse cx="201.4472" cy="455.5973" fill="#FEFECE" filter="url(#f1bwosivs69y14)" rx="57.4472" ry="16.5973" style="stroke: #A80036; stroke-width: 1.5;"/><text fill="#000000" font-family="sans-serif" font-size="14" lengthAdjust="spacingAndGlyphs" textLength="77" x="162.9472" y="461.7121">getClassList</text><ellipse cx="201.669" cy="523.5973" fill="#FEFECE" filter="url(#f1bwosivs69y14)" rx="49.669" ry="16.5973" style="stroke: #A80036; stroke-width: 1.5;"/><text fill="#000000" font-family="sans-serif" font-size="14" lengthAdjust="spacingAndGlyphs" textLength="66" x="168.669" y="529.7121">getCallList</text><ellipse cx="201.2886" cy="387.6577" fill="#FEFECE" filter="url(#f1bwosivs69y14)" rx="71.2886" ry="16.6577" style="stroke: #A80036; stroke-width: 1.5;"/><text fill="#000000" font-family="sans-serif" font-size="14" lengthAdjust="spacingAndGlyphs" textLength="97" x="152.7886" y="393.7725">getFunctionList</text><ellipse cx="201.669" cy="591.5973" fill="#FEFECE" filter="url(#f1bwosivs69y14)" rx="49.669" ry="16.5973" style="stroke: #A80036; stroke-width: 1.5;"/><text fill="#000000" font-family="sans-serif" font-size="14" lengthAdjust="spacingAndGlyphs" textLength="66" x="168.669" y="597.7121">getHasList</text><ellipse cx="201.4411" cy="907.5973" fill="#FEFECE" filter="url(#f1bwosivs69y14)" rx="36.9411" ry="16.5973" style="stroke: #A80036; stroke-width: 1.5;"/><text fill="#000000" font-family="sans-serif" font-size="14" lengthAdjust="spacingAndGlyphs" textLength="48" x="177.4411" y="913.7121">append</text><ellipse cx="201.4836" cy="839.5869" fill="#FEFECE" filter="url(#f1bwosivs69y14)" rx="19.9836" ry="16.5869" style="stroke: #A80036; stroke-width: 1.5;"/><text fill="#000000" font-family="sans-serif" font-size="14" lengthAdjust="spacingAndGlyphs" textLength="24" x="189.4836" y="845.7016">add</text><ellipse cx="201.2886" cy="703.6577" fill="#FEFECE" filter="url(#f1bwosivs69y14)" rx="71.2886" ry="16.6577" style="stroke: #A80036; stroke-width: 1.5;"/><text fill="#000000" font-family="sans-serif" font-size="14" lengthAdjust="spacingAndGlyphs" textLength="97" x="152.7886" y="709.7725">getFunctionList</text><ellipse cx="201.669" cy="771.5973" fill="#FEFECE" filter="url(#f1bwosivs69y14)" rx="49.669" ry="16.5973" style="stroke: #A80036; stroke-width: 1.5;"/><text fill="#000000" font-family="sans-serif" font-size="14" lengthAdjust="spacingAndGlyphs" textLength="66" x="168.669" y="777.7121">getCallList</text><ellipse cx="201.5061" cy="1267.5973" fill="#FEFECE" filter="url(#f1bwosivs69y14)" rx="23.5061" ry="16.5973" style="stroke: #A80036; stroke-width: 1.5;"/><text fill="#000000" font-family="sans-serif" font-size="14" lengthAdjust="spacingAndGlyphs" textLength="29" x="187.0061" y="1273.7121">write</text><ellipse cx="201.3345" cy="1199.5973" fill="#FEFECE" filter="url(#f1bwosivs69y14)" rx="26.3345" ry="16.5973" style="stroke: #A80036; stroke-width: 1.5;"/><text fill="#000000" font-family="sans-serif" font-size="14" lengthAdjust="spacingAndGlyphs" textLength="33" x="184.8345" y="1205.7121">close</text><!--MD5=[3b9a75c8d3572c5083ea72ba9e1d88da]
entity actor1861416877--><ellipse cx="38" cy="615" fill="#FEFECE" filter="url(#f1bwosivs69y14)" rx="8" ry="8" style="stroke: #A80036; stroke-width: 1.5;"/><path d="M38,623 L38,650 M25,631 L51,631 M38,650 L25,665 M38,650 L51,665 " fill="none" filter="url(#f1bwosivs69y14)" style="stroke: #A80036; stroke-width: 1.5;"/><text fill="#000000" font-family="sans-serif" font-size="14" lengthAdjust="spacingAndGlyphs" textLength="64" x="6" y="686.6533">Sequence</text><!--MD5=[2402d7512d9aa01d473b8fba52e12d98]
entity actor188193734--><ellipse cx="381.5" cy="415" fill="#FEFECE" filter="url(#f1bwosivs69y14)" rx="8" ry="8" style="stroke: #A80036; stroke-width: 1.5;"/><path d="M381.5,423 L381.5,450 M368.5,431 L394.5,431 M381.5,450 L368.5,465 M381.5,450 L394.5,465 " fill="none" filter="url(#f1bwosivs69y14)" style="stroke: #A80036; stroke-width: 1.5;"/><text fill="#000000" font-family="sans-serif" font-size="14" lengthAdjust="spacingAndGlyphs" textLength="97" x="333" y="486.6533">getFunctionList</text><!--MD5=[b7e9d3a6f28f121b3b9275e7322962cf]
entity actor2131723476--><ellipse cx="381.5" cy="14" fill="#FEFECE" filter="url(#f1bwosivs69y14)" rx="8" ry="8" style="stroke: #A80036; stroke-width: 1.5;"/><path d="M381.5,22 L381.5,49 M368.5,30 L394.5,30 M381.5,49 L368.5,64 M381.5,49 L394.5,64 " fill="none" filter="url(#f1bwosivs69y14)" style="stroke: #A80036; stroke-width: 1.5;"/><text fill="#000000" font-family="sans-serif" font-size="14" lengthAdjust="spacingAndGlyphs" textLength="39" x="362" y="85.6533">println</text><!--MD5=[1f3046ff16a19b5bb6f89939e5b0c853]
entity actor1231469233--><ellipse cx="381.5" cy="133" fill="#FEFECE" filter="url(#f1bwosivs69y14)" rx="8" ry="8" style="stroke: #A80036; stroke-width: 1.5;"/><path d="M381.5,141 L381.5,168 M368.5,149 L394.5,149 M381.5,168 L368.5,183 M381.5,168 L394.5,183 " fill="none" filter="url(#f1bwosivs69y14)" style="stroke: #A80036; stroke-width: 1.5;"/><text fill="#000000" font-family="sans-serif" font-size="14" lengthAdjust="spacingAndGlyphs" textLength="46" x="358.5" y="204.6533">waitFor</text><!--MD5=[2699aedbcd2b1f3b132d3903ac9b60ef]
entity actor652803980--><ellipse cx="381.5" cy="987" fill="#FEFECE" filter="url(#f1bwosivs69y14)" rx="8" ry="8" style="stroke: #A80036; stroke-width: 1.5;"/><path d="M381.5,995 L381.5,1022 M368.5,1003 L394.5,1003 M381.5,1022 L368.5,1037 M381.5,1022 L394.5,1037 " fill="none" filter="url(#f1bwosivs69y14)" style="stroke: #A80036; stroke-width: 1.5;"/><text fill="#000000" font-family="sans-serif" font-size="14" lengthAdjust="spacingAndGlyphs" textLength="48" x="357.5" y="1058.6533">append</text><!--MD5=[fa54cbfa20fe3014d191ba52c69edd3c]
entity actor628694336--><ellipse cx="381.5" cy="559" fill="#FEFECE" filter="url(#f1bwosivs69y14)" rx="8" ry="8" style="stroke: #A80036; stroke-width: 1.5;"/><path d="M381.5,567 L381.5,594 M368.5,575 L394.5,575 M381.5,594 L368.5,609 M381.5,594 L394.5,609 " fill="none" filter="url(#f1bwosivs69y14)" style="stroke: #A80036; stroke-width: 1.5;"/><text fill="#000000" font-family="sans-serif" font-size="14" lengthAdjust="spacingAndGlyphs" textLength="66" x="348.5" y="630.6533">getCallList</text><!--MD5=[7e058248a66be4368ca89473b9f85b73]
entity actor1479446866--><ellipse cx="381.5" cy="287" fill="#FEFECE" filter="url(#f1bwosivs69y14)" rx="8" ry="8" style="stroke: #A80036; stroke-width: 1.5;"/><path d="M381.5,295 L381.5,322 M368.5,303 L394.5,303 M381.5,322 L368.5,337 M381.5,322 L394.5,337 " fill="none" filter="url(#f1bwosivs69y14)" style="stroke: #A80036; stroke-width: 1.5;"/><text fill="#000000" font-family="sans-serif" font-size="14" lengthAdjust="spacingAndGlyphs" textLength="24" x="369.5" y="358.6533">add</text><!--MD5=[a9599672098d8f750f4e9583a7fac161]
entity actor957683143--><ellipse cx="381.5" cy="807" fill="#FEFECE" filter="url(#f1bwosivs69y14)" rx="8" ry="8" style="stroke: #A80036; stroke-width: 1.5;"/><path d="M381.5,815 L381.5,842 M368.5,823 L394.5,823 M381.5,842 L368.5,857 M381.5,842 L394.5,857 " fill="none" filter="url(#f1bwosivs69y14)" style="stroke: #A80036; stroke-width: 1.5;"/><text fill="#000000" font-family="sans-serif" font-size="14" lengthAdjust="spacingAndGlyphs" textLength="24" x="369.5" y="878.6533">add</text><!--MD5=[6fb069653bc4eca858f58303df485e78]
entity actor1494051958--><ellipse cx="381.5" cy="1142" fill="#FEFECE" filter="url(#f1bwosivs69y14)" rx="8" ry="8" style="stroke: #A80036; stroke-width: 1.5;"/><path d="M381.5,1150 L381.5,1177 M368.5,1158 L394.5,1158 M381.5,1177 L368.5,1192 M381.5,1177 L394.5,1192 " fill="none" filter="url(#f1bwosivs69y14)" style="stroke: #A80036; stroke-width: 1.5;"/><text fill="#000000" font-family="sans-serif" font-size="14" lengthAdjust="spacingAndGlyphs" textLength="33" x="365" y="1213.6533">close</text><!--MD5=[25172bbf95bdbbdb21e6a8bcedfbc865]
entity actor1520921298--><ellipse cx="381.5" cy="1261" fill="#FEFECE" filter="url(#f1bwosivs69y14)" rx="8" ry="8" style="stroke: #A80036; stroke-width: 1.5;"/><path d="M381.5,1269 L381.5,1296 M368.5,1277 L394.5,1277 M381.5,1296 L368.5,1311 M381.5,1296 L394.5,1311 " fill="none" filter="url(#f1bwosivs69y14)" style="stroke: #A80036; stroke-width: 1.5;"/><text fill="#000000" font-family="sans-serif" font-size="14" lengthAdjust="spacingAndGlyphs" textLength="29" x="367" y="1332.6533">write</text><!--MD5=[bfd2daa7229798c29330518111b3f793]
link actor1861416877 to UC246--><path d="M39.54,605.29 C41.7,501.85 52.44,239.34 106,173.5 C120.74,155.38 145.94,146.91 166.62,142.96 " fill="none" id="actor1861416877-UC246" style="stroke: #A80036; stroke-width: 1.0;"/><!--MD5=[7faddd029fb615c1b88eea306208e635]
link actor1861416877 to UC247--><path d="M38.69,605.2 C38.7,491.45 44.52,182.44 106,105.5 C121.67,85.89 149.62,77.58 171.06,74.07 " fill="none" id="actor1861416877-UC247" style="stroke: #A80036; stroke-width: 1.0;"/><!--MD5=[4016a12dc3ad4d78ee90652436fe8aa9]
link actor1861416877 to UC248--><path d="M43.22,605.24 C52.12,521.99 74.59,340.22 106,286.5 C122.4,258.44 152.64,235.85 174.51,222.13 " fill="none" id="actor1861416877-UC248" style="stroke: #A80036; stroke-width: 1.0;"/><!--MD5=[e3cd5d6a23d8cfff8554194437e8736c]
link UC248 to actor188193734--><path d="M226.39,222.4 C247.48,236.61 277.77,259.77 297,286.5 C322.65,322.14 312.42,339.72 333,378.5 C337.77,387.49 343.49,396.73 349.27,405.4 " fill="none" id="UC248-actor188193734" style="stroke: #A80036; stroke-width: 1.0;"/><!--MD5=[781be71b4f51d25fa15aad3f52f583d4]
link UC247 to actor2131723476--><path d="M231.1,67.48 C267.85,62.32 330.63,53.5 361.8,49.13 " fill="none" id="UC247-actor2131723476" style="stroke: #A80036; stroke-width: 1.0;"/><!--MD5=[bdbb3f37129e55bad75bacd4d7e2d820]
link UC246 to actor1231469233--><path d="M235.56,144.33 C271.36,149.56 327.45,157.75 358.3,162.26 " fill="none" id="UC246-actor1231469233" style="stroke: #A80036; stroke-width: 1.0;"/><!--MD5=[ab32a8103226e4611a147d39b102b702]
link actor1861416877 to UC249--><path d="M40.31,689.71 C43.93,749.65 57.27,860.96 106,940.5 C123.76,969.49 155.91,992.95 177.73,1006.56 " fill="none" id="actor1861416877-UC249" style="stroke: #A80036; stroke-width: 1.0;"/><!--MD5=[06f58b596ae09e0d1ee7dbccc3faf4ab]
link actor1861416877 to UC250--><path d="M40.67,689.75 C45.14,782.22 60.34,998.68 106,1053.5 C120.51,1070.92 144.65,1079.41 164.9,1083.56 " fill="none" id="actor1861416877-UC250" style="stroke: #A80036; stroke-width: 1.0;"/><!--MD5=[9a56b2ad32c6329f78d4c1291e9fe20e]
link UC250 to actor652803980--><path d="M231.57,1077.39 C250.31,1070.79 275.18,1061.86 297,1053.5 C317.46,1045.66 340.52,1036.22 357.21,1029.29 " fill="none" id="UC250-actor652803980" style="stroke: #A80036; stroke-width: 1.0;"/><!--MD5=[2fc9189739b34295f880b38f1220813a]
link UC249 to actor652803980--><path d="M238.52,1019.5 C273.97,1019.5 327.06,1019.5 357.27,1019.5 " fill="none" id="UC249-actor652803980" style="stroke: #A80036; stroke-width: 1.0;"/><!--MD5=[3969620a667a6857ab39cb82f033a1a6]
link actor1861416877 to UC251--><path d="M43.63,605.24 C52.31,533.13 73.2,390.54 106,353.5 C125.42,331.57 160.05,323.78 181.56,321.02 " fill="none" id="actor1861416877-UC251" style="stroke: #A80036; stroke-width: 1.0;"/><!--MD5=[1e99ad7ebe02a22bbc07dbcac6b4f7b6]
link actor1861416877 to UC252--><path d="M47.07,605.17 C55.88,569.83 73.31,520.41 106,489.5 C118.79,477.4 136.2,469.55 152.59,464.49 " fill="none" id="actor1861416877-UC252" style="stroke: #A80036; stroke-width: 1.0;"/><!--MD5=[85223c1d782803e5e2a8b6a452e79a2b]
link actor1861416877 to UC253--><path d="M63.03,605.06 C74.27,588.34 88.95,570.15 106,557.5 C121.83,545.76 142.09,537.76 159.8,532.49 " fill="none" id="actor1861416877-UC253" style="stroke: #A80036; stroke-width: 1.0;"/><!--MD5=[c3ef772de43e871c58346626a97f3828]
link actor1861416877 to UC254--><path d="M40.43,605.25 C44.36,555.14 58.23,472.08 106,421.5 C116.54,410.34 130.99,402.84 145.43,397.8 " fill="none" id="actor1861416877-UC254" style="stroke: #A80036; stroke-width: 1.0;"/><!--MD5=[a8ac719b7e92b96a5e187a708fb6d000]
link actor1861416877 to UC255--><path d="M70.14,636.7 C97.82,627.1 138.2,613.1 166.67,603.23 " fill="none" id="actor1861416877-UC255" style="stroke: #A80036; stroke-width: 1.0;"/><!--MD5=[3eafc04b7c79ddd38d1881fad900e96e]
link UC255 to actor628694336--><path d="M251.14,591.5 C282.12,591.5 321.39,591.5 348.48,591.5 " fill="none" id="UC255-actor628694336" style="stroke: #A80036; stroke-width: 1.0;"/><!--MD5=[54be4c72c09b74423fabc6ac662a126c]
link UC254 to actor188193734--><path d="M242.89,401.11 C269.56,410.1 304.63,421.93 332.69,431.38 " fill="none" id="UC254-actor188193734" style="stroke: #A80036; stroke-width: 1.0;"/><!--MD5=[f8800b74b8dde760a7fa44669aef5f9c]
link UC253 to actor628694336--><path d="M236.3,535.28 C254.38,541.68 276.97,549.82 297,557.5 C313.95,564 332.69,571.59 348.11,577.95 " fill="none" id="UC253-actor628694336" style="stroke: #A80036; stroke-width: 1.0;"/><!--MD5=[1590547679ff25cb6bc27ab264d68826]
link UC252 to actor188193734--><path d="M258.33,452.99 C282.29,451.91 309.99,450.67 332.96,449.64 " fill="none" id="UC252-actor188193734" style="stroke: #A80036; stroke-width: 1.0;"/><!--MD5=[d28351ddd80d2dcd42dd34beeadf254f]
link UC251 to actor1479446866--><path d="M221.55,319.5 C257.6,319.5 335.03,319.5 366.63,319.5 " fill="none" id="UC251-actor1479446866" style="stroke: #A80036; stroke-width: 1.0;"/><!--MD5=[baceee5e7da182945ea66118fac8f6d1]
link actor1861416877 to UC256--><path d="M40.43,689.75 C44.36,739.86 58.23,822.92 106,873.5 C121.56,889.98 145.69,898.49 165.67,902.87 " fill="none" id="actor1861416877-UC256" style="stroke: #A80036; stroke-width: 1.0;"/><!--MD5=[15014c9b0994972a8f1919d514c40e02]
link actor1861416877 to UC257--><path d="M47.07,689.83 C55.88,725.17 73.31,774.59 106,805.5 C127.03,825.39 160.52,833.78 181.47,837.22 " fill="none" id="actor1861416877-UC257" style="stroke: #A80036; stroke-width: 1.0;"/><!--MD5=[d865bcb671086b1c74e94d23a359e954]
link actor1861416877 to UC258--><path d="M70.14,658.3 C96.08,667.29 133.17,680.15 161.16,689.86 " fill="none" id="actor1861416877-UC258" style="stroke: #A80036; stroke-width: 1.0;"/><!--MD5=[b2434001e2d8d26f2b97996a58efb258]
link actor1861416877 to UC259--><path d="M63.03,689.94 C74.27,706.66 88.95,724.85 106,737.5 C121.83,749.24 142.09,757.24 159.8,762.51 " fill="none" id="actor1861416877-UC259" style="stroke: #A80036; stroke-width: 1.0;"/><!--MD5=[7e94862579beff8410334e343de517f2]
link UC259 to actor628694336--><path d="M244.37,763.25 C262.09,758.13 282.04,750.06 297,737.5 C329.76,710 352.37,666.16 365.72,633.69 " fill="none" id="UC259-actor628694336" style="stroke: #A80036; stroke-width: 1.0;"/><!--MD5=[a22ae60a1d7f82ec47b1c2b1af015fdf]
link UC258 to actor188193734--><path d="M227.24,688.06 C248.3,673.82 278.06,650.92 297,624.5 C322.82,588.48 314.04,571.56 333,531.5 C339.59,517.57 347.58,502.8 355.11,489.6 " fill="none" id="UC258-actor188193734" style="stroke: #A80036; stroke-width: 1.0;"/><!--MD5=[0d879c09ca321abaeb0c302d6f02c6db]
link UC257 to actor957683143--><path d="M221.55,839.5 C257.6,839.5 335.03,839.5 366.63,839.5 " fill="none" id="UC257-actor957683143" style="stroke: #A80036; stroke-width: 1.0;"/><!--MD5=[b184c7f25f06a33e30d76c302c197343]
link UC256 to actor652803980--><path d="M223.62,920.79 C257.23,941.94 322.65,983.1 357.44,1004.99 " fill="none" id="UC256-actor652803980" style="stroke: #A80036; stroke-width: 1.0;"/><!--MD5=[35458f3d9136ceae28b9fd35049f9e68]
link actor1861416877 to UC260--><path d="M38.24,689.72 C36.94,809.69 39.34,1149.3 106,1233.5 C123.32,1255.37 155.9,1263.19 177.9,1265.97 " fill="none" id="actor1861416877-UC260" style="stroke: #A80036; stroke-width: 1.0;"/><!--MD5=[48260844a31f052bf37d816b83179c12]
link actor1861416877 to UC261--><path d="M41.12,689.71 C46.84,791.36 64.98,1046.75 106,1120.5 C123.46,1151.9 158.7,1176.11 180.87,1189.04 " fill="none" id="actor1861416877-UC261" style="stroke: #A80036; stroke-width: 1.0;"/><!--MD5=[f06a3413533ec7a3d65579be8d379379]
link UC261 to actor1494051958--><path d="M227.63,1195.97 C265,1190.72 334.14,1181.01 364.96,1176.68 " fill="none" id="UC261-actor1494051958" style="stroke: #A80036; stroke-width: 1.0;"/><!--MD5=[6e3b0303a7f14a52519f69990adad7d1]
link UC260 to actor1520921298--><path d="M224.68,1270.74 C261.96,1276.19 336.1,1287.01 366.75,1291.49 " fill="none" id="UC260-actor1520921298" style="stroke: #A80036; stroke-width: 1.0;"/><!--MD5=[2028319c9d32420a02d108a62e0082ac]
@startuml
 left to right direction

actor Sequence as actor1861416877

	rectangle main{
	 usecase waitFor as UC246
	actor1861416877- -UC246
	 usecase println as UC247
	actor1861416877- -UC247
	 usecase getClassList as UC248
	actor1861416877- -UC248
	}
actor getClassList as actor188193734
UC248- -actor188193734
actor println as actor2131723476
UC247- -actor2131723476
actor waitFor as actor1231469233
UC246- -actor1231469233

	rectangle makeString{
	 usecase append as UC249
	actor1861416877- -UC249
	 usecase toString as UC250
	actor1861416877- -UC250
	}
actor toString as actor652803980
UC250- -actor652803980
actor append as actor652803980
UC249- -actor652803980

	rectangle getCallerFunList{
	 usecase add as UC251
	actor1861416877- -UC251
	 usecase getClassList as UC252
	actor1861416877- -UC252
	 usecase getCallList as UC253
	actor1861416877- -UC253
	 usecase getFunctionList as UC254
	actor1861416877- -UC254
	 usecase getHasList as UC255
	actor1861416877- -UC255
	}
actor getHasList as actor628694336
UC255- -actor628694336
actor getFunctionList as actor188193734
UC254- -actor188193734
actor getCallList as actor628694336
UC253- -actor628694336
actor getClassList as actor188193734
UC252- -actor188193734
actor add as actor1479446866
UC251- -actor1479446866

	rectangle drawConnect{
	 usecase append as UC256
	actor1861416877- -UC256
	 usecase add as UC257
	actor1861416877- -UC257
	 usecase getFunctionList as UC258
	actor1861416877- -UC258
	 usecase getCallList as UC259
	actor1861416877- -UC259
	}
actor getCallList as actor628694336
UC259- -actor628694336
actor getFunctionList as actor188193734
UC258- -actor188193734
actor add as actor957683143
UC257- -actor957683143
actor append as actor652803980
UC256- -actor652803980

	rectangle makeFile{
	 usecase write as UC260
	actor1861416877- -UC260
	 usecase close as UC261
	actor1861416877- -UC261
	}
actor close as actor1494051958
UC261- -actor1494051958
actor write as actor1520921298
UC260- -actor1520921298


@enduml

PlantUML version 1.2020.19(Tue Oct 13 00:10:01 KST 2020)
(APACHE source distribution)
Java Runtime: Java(TM) SE Runtime Environment
JVM: Java HotSpot(TM) 64-Bit Server VM
Default Encoding: MS949
Language: ko
Country: KR
--></g></svg>