<?xml version="1.0" encoding="UTF-8" standalone="no"?><svg xmlns="http://www.w3.org/2000/svg" xmlns:xlink="http://www.w3.org/1999/xlink" contentScriptType="application/ecmascript" contentStyleType="text/css" height="2183px" preserveAspectRatio="none" style="width:469px;height:2183px;" version="1.1" viewBox="0 0 469 2183" width="469px" zoomAndPan="magnify"><defs><filter height="300%" id="f3ubby0avvosq" width="300%" x="-1" y="-1"><feGaussianBlur result="blurOut" stdDeviation="2.0"/><feColorMatrix in="blurOut" result="blurOut2" type="matrix" values="0 0 0 0 0 0 0 0 0 0 0 0 0 0 0 0 0 0 .4 0"/><feOffset dx="4.0" dy="4.0" in="blurOut2" result="blurOut3"/><feBlend in="SourceGraphic" in2="blurOut3" mode="normal"/></filter></defs><g><!--MD5=[a70b0d373322012744ecc119c63f921b]
cluster main--><rect fill="#FFFFFF" filter="url(#f3ubby0avvosq)" height="292" style="stroke: #000000; stroke-width: 1.5;" width="140" x="172.5" y="7"/><text fill="#000000" font-family="sans-serif" font-size="14" font-weight="bold" lengthAdjust="spacingAndGlyphs" textLength="33" x="226" y="25.1533">main</text><!--MD5=[b4ad4898268678f15fc8d4512d654a18]
cluster draw--><rect fill="#FFFFFF" filter="url(#f3ubby0avvosq)" height="224" style="stroke: #000000; stroke-width: 1.5;" width="175" x="155" y="1135"/><text fill="#000000" font-family="sans-serif" font-size="14" font-weight="bold" lengthAdjust="spacingAndGlyphs" textLength="34" x="225.5" y="1153.1533">draw</text><!--MD5=[19cf646e193b9a40ce20afd4a39c7868]
cluster makeDateFolder--><rect fill="#FFFFFF" filter="url(#f3ubby0avvosq)" height="88" style="stroke: #000000; stroke-width: 1.5;" width="131" x="177.5" y="1971"/><text fill="#000000" font-family="sans-serif" font-size="14" font-weight="bold" lengthAdjust="spacingAndGlyphs" textLength="115" x="185.5" y="1989.1533">makeDateFolder</text><!--MD5=[f6c7a32090ac677f0b56c29ec1589d1f]
cluster makeDataListFolder--><rect fill="#FFFFFF" filter="url(#f3ubby0avvosq)" height="88" style="stroke: #000000; stroke-width: 1.5;" width="155" x="165.5" y="2083"/><text fill="#000000" font-family="sans-serif" font-size="14" font-weight="bold" lengthAdjust="spacingAndGlyphs" textLength="139" x="173.5" y="2101.1533">makeDataListFolder</text><!--MD5=[6ee3fac338bc1a055eceb2e550633884]
cluster makeData_base--><rect fill="#FFFFFF" filter="url(#f3ubby0avvosq)" height="224" style="stroke: #000000; stroke-width: 1.5;" width="126" x="180" y="571"/><text fill="#000000" font-family="sans-serif" font-size="14" font-weight="bold" lengthAdjust="spacingAndGlyphs" textLength="110" x="188" y="589.1533">makeData_base</text><!--MD5=[1e829f21a74d4de467c1b519aceec237]
cluster makeFile--><rect fill="#FFFFFF" filter="url(#f3ubby0avvosq)" height="224" style="stroke: #000000; stroke-width: 1.5;" width="93" x="196" y="323"/><text fill="#000000" font-family="sans-serif" font-size="14" font-weight="bold" lengthAdjust="spacingAndGlyphs" textLength="63" x="211" y="341.1533">makeFile</text><!--MD5=[600e115adc72a6cbabecdb59f99145ea]
cluster classDef--><rect fill="#FFFFFF" filter="url(#f3ubby0avvosq)" height="292" style="stroke: #000000; stroke-width: 1.5;" width="154" x="165.5" y="819"/><text fill="#000000" font-family="sans-serif" font-size="14" font-weight="bold" lengthAdjust="spacingAndGlyphs" textLength="60" x="212.5" y="837.1533">classDef</text><!--MD5=[f187f0e524dea2ebe3ce3bb66eee0c84]
cluster addList--><rect fill="#FFFFFF" filter="url(#f3ubby0avvosq)" height="564" style="stroke: #000000; stroke-width: 1.5;" width="175" x="155" y="1383"/><text fill="#000000" font-family="sans-serif" font-size="14" font-weight="bold" lengthAdjust="spacingAndGlyphs" textLength="51" x="217" y="1401.1533">addList</text><ellipse cx="242.5061" cy="130.0973" fill="#FEFECE" filter="url(#f3ubby0avvosq)" rx="23.5061" ry="16.5973" style="stroke: #A80036; stroke-width: 1.5;"/><text fill="#000000" font-family="sans-serif" font-size="14" lengthAdjust="spacingAndGlyphs" textLength="29" x="228.0061" y="136.2121">exec</text><ellipse cx="242.4117" cy="198.0973" fill="#FEFECE" filter="url(#f3ubby0avvosq)" rx="53.9117" ry="16.5973" style="stroke: #A80036; stroke-width: 1.5;"/><text fill="#000000" font-family="sans-serif" font-size="14" lengthAdjust="spacingAndGlyphs" textLength="72" x="206.4117" y="204.2121">getRuntime</text><ellipse cx="242.5269" cy="62.0973" fill="#FEFECE" filter="url(#f3ubby0avvosq)" rx="35.5269" ry="16.5973" style="stroke: #A80036; stroke-width: 1.5;"/><text fill="#000000" font-family="sans-serif" font-size="14" lengthAdjust="spacingAndGlyphs" textLength="46" x="219.5269" y="68.2121">waitFor</text><ellipse cx="242.5772" cy="266.0973" fill="#FEFECE" filter="url(#f3ubby0avvosq)" rx="30.5772" ry="16.5973" style="stroke: #A80036; stroke-width: 1.5;"/><text fill="#000000" font-family="sans-serif" font-size="14" lengthAdjust="spacingAndGlyphs" textLength="39" x="223.0772" y="272.2121">println</text><ellipse cx="242.4472" cy="1190.0973" fill="#FEFECE" filter="url(#f3ubby0avvosq)" rx="57.4472" ry="16.5973" style="stroke: #A80036; stroke-width: 1.5;"/><text fill="#000000" font-family="sans-serif" font-size="14" lengthAdjust="spacingAndGlyphs" textLength="77" x="203.9472" y="1196.2121">getClassList</text><ellipse cx="242.2886" cy="1258.1577" fill="#FEFECE" filter="url(#f3ubby0avvosq)" rx="71.2886" ry="16.6577" style="stroke: #A80036; stroke-width: 1.5;"/><text fill="#000000" font-family="sans-serif" font-size="14" lengthAdjust="spacingAndGlyphs" textLength="97" x="193.7886" y="1264.2725">getFunctionList</text><ellipse cx="242.2609" cy="1326.0973" fill="#FEFECE" filter="url(#f3ubby0avvosq)" rx="68.7609" ry="16.5973" style="stroke: #A80036; stroke-width: 1.5;"/><text fill="#000000" font-family="sans-serif" font-size="14" lengthAdjust="spacingAndGlyphs" textLength="93" x="195.7609" y="1332.2121">getMemberList</text><ellipse cx="242.5416" cy="2026.0973" fill="#FEFECE" filter="url(#f3ubby0avvosq)" rx="27.0416" ry="16.5973" style="stroke: #A80036; stroke-width: 1.5;"/><text fill="#000000" font-family="sans-serif" font-size="14" lengthAdjust="spacingAndGlyphs" textLength="34" x="225.5416" y="2032.2121">mkdir</text><ellipse cx="242.5416" cy="2138.0973" fill="#FEFECE" filter="url(#f3ubby0avvosq)" rx="27.0416" ry="16.5973" style="stroke: #A80036; stroke-width: 1.5;"/><text fill="#000000" font-family="sans-serif" font-size="14" lengthAdjust="spacingAndGlyphs" textLength="34" x="225.5416" y="2144.2121">mkdir</text><ellipse cx="242.4411" cy="694.0973" fill="#FEFECE" filter="url(#f3ubby0avvosq)" rx="36.9411" ry="16.5973" style="stroke: #A80036; stroke-width: 1.5;"/><text fill="#000000" font-family="sans-serif" font-size="14" lengthAdjust="spacingAndGlyphs" textLength="48" x="218.4411" y="700.2121">append</text><ellipse cx="242.6482" cy="762.0973" fill="#FEFECE" filter="url(#f3ubby0avvosq)" rx="37.6482" ry="16.5973" style="stroke: #A80036; stroke-width: 1.5;"/><text fill="#000000" font-family="sans-serif" font-size="14" lengthAdjust="spacingAndGlyphs" textLength="49" x="218.1482" y="768.2121">toString</text><ellipse cx="242.5772" cy="626.0973" fill="#FEFECE" filter="url(#f3ubby0avvosq)" rx="30.5772" ry="16.5973" style="stroke: #A80036; stroke-width: 1.5;"/><text fill="#000000" font-family="sans-serif" font-size="14" lengthAdjust="spacingAndGlyphs" textLength="39" x="223.0772" y="632.2121">println</text><ellipse cx="242.5772" cy="514.0973" fill="#FEFECE" filter="url(#f3ubby0avvosq)" rx="30.5772" ry="16.5973" style="stroke: #A80036; stroke-width: 1.5;"/><text fill="#000000" font-family="sans-serif" font-size="14" lengthAdjust="spacingAndGlyphs" textLength="39" x="223.0772" y="520.2121">println</text><ellipse cx="242.5061" cy="378.0973" fill="#FEFECE" filter="url(#f3ubby0avvosq)" rx="23.5061" ry="16.5973" style="stroke: #A80036; stroke-width: 1.5;"/><text fill="#000000" font-family="sans-serif" font-size="14" lengthAdjust="spacingAndGlyphs" textLength="29" x="228.0061" y="384.2121">write</text><ellipse cx="242.3345" cy="446.0973" fill="#FEFECE" filter="url(#f3ubby0avvosq)" rx="26.3345" ry="16.5973" style="stroke: #A80036; stroke-width: 1.5;"/><text fill="#000000" font-family="sans-serif" font-size="14" lengthAdjust="spacingAndGlyphs" textLength="33" x="225.8345" y="452.2121">close</text><ellipse cx="242.4411" cy="874.0973" fill="#FEFECE" filter="url(#f3ubby0avvosq)" rx="36.9411" ry="16.5973" style="stroke: #A80036; stroke-width: 1.5;"/><text fill="#000000" font-family="sans-serif" font-size="14" lengthAdjust="spacingAndGlyphs" textLength="48" x="218.4411" y="880.2121">append</text><ellipse cx="242.669" cy="1078.0973" fill="#FEFECE" filter="url(#f3ubby0avvosq)" rx="49.669" ry="16.5973" style="stroke: #A80036; stroke-width: 1.5;"/><text fill="#000000" font-family="sans-serif" font-size="14" lengthAdjust="spacingAndGlyphs" textLength="66" x="209.669" y="1084.2121">getHasList</text><ellipse cx="242.669" cy="942.0973" fill="#FEFECE" filter="url(#f3ubby0avvosq)" rx="49.669" ry="16.5973" style="stroke: #A80036; stroke-width: 1.5;"/><text fill="#000000" font-family="sans-serif" font-size="14" lengthAdjust="spacingAndGlyphs" textLength="66" x="209.669" y="948.2121">getCallList</text><ellipse cx="242.4828" cy="1010.0973" fill="#FEFECE" filter="url(#f3ubby0avvosq)" rx="60.9828" ry="16.5973" style="stroke: #A80036; stroke-width: 1.5;"/><text fill="#000000" font-family="sans-serif" font-size="14" lengthAdjust="spacingAndGlyphs" textLength="82" x="201.4828" y="1016.2121">getCallByList</text><ellipse cx="242.4411" cy="1438.0973" fill="#FEFECE" filter="url(#f3ubby0avvosq)" rx="36.9411" ry="16.5973" style="stroke: #A80036; stroke-width: 1.5;"/><text fill="#000000" font-family="sans-serif" font-size="14" lengthAdjust="spacingAndGlyphs" textLength="48" x="218.4411" y="1444.2121">append</text><ellipse cx="242.598" cy="1506.0973" fill="#FEFECE" filter="url(#f3ubby0avvosq)" rx="42.598" ry="16.5973" style="stroke: #A80036; stroke-width: 1.5;"/><text fill="#000000" font-family="sans-serif" font-size="14" lengthAdjust="spacingAndGlyphs" textLength="56" x="214.598" y="1512.2121">getName</text><ellipse cx="242.4472" cy="1574.0973" fill="#FEFECE" filter="url(#f3ubby0avvosq)" rx="57.4472" ry="16.5973" style="stroke: #A80036; stroke-width: 1.5;"/><text fill="#000000" font-family="sans-serif" font-size="14" lengthAdjust="spacingAndGlyphs" textLength="77" x="203.9472" y="1580.2121">getClassList</text><ellipse cx="242.7254" cy="1914.0973" fill="#FEFECE" filter="url(#f3ubby0avvosq)" rx="65.2254" ry="16.5973" style="stroke: #A80036; stroke-width: 1.5;"/><text fill="#000000" font-family="sans-serif" font-size="14" lengthAdjust="spacingAndGlyphs" textLength="88" x="198.7254" y="1920.2121">getTypeName</text><ellipse cx="242.2609" cy="1642.0973" fill="#FEFECE" filter="url(#f3ubby0avvosq)" rx="68.7609" ry="16.5973" style="stroke: #A80036; stroke-width: 1.5;"/><text fill="#000000" font-family="sans-serif" font-size="14" lengthAdjust="spacingAndGlyphs" textLength="93" x="195.7609" y="1648.2121">getMemberList</text><ellipse cx="242.7254" cy="1846.0973" fill="#FEFECE" filter="url(#f3ubby0avvosq)" rx="65.2254" ry="16.5973" style="stroke: #A80036; stroke-width: 1.5;"/><text fill="#000000" font-family="sans-serif" font-size="14" lengthAdjust="spacingAndGlyphs" textLength="88" x="198.7254" y="1852.2121">getTypeName</text><ellipse cx="242.2843" cy="1778.0973" fill="#FEFECE" filter="url(#f3ubby0avvosq)" rx="31.2843" ry="16.5973" style="stroke: #A80036; stroke-width: 1.5;"/><text fill="#000000" font-family="sans-serif" font-size="14" lengthAdjust="spacingAndGlyphs" textLength="40" x="222.2843" y="1784.2121">getSig</text><ellipse cx="242.2886" cy="1710.1577" fill="#FEFECE" filter="url(#f3ubby0avvosq)" rx="71.2886" ry="16.6577" style="stroke: #A80036; stroke-width: 1.5;"/><text fill="#000000" font-family="sans-serif" font-size="14" lengthAdjust="spacingAndGlyphs" textLength="97" x="193.7886" y="1716.2725">getFunctionList</text><!--MD5=[96770f595d129f432d7a0d1ae868de57]
entity actor923366543--><ellipse cx="58.5" cy="1045.5" fill="#FEFECE" filter="url(#f3ubby0avvosq)" rx="8" ry="8" style="stroke: #A80036; stroke-width: 1.5;"/><path d="M58.5,1053.5 L58.5,1080.5 M45.5,1061.5 L71.5,1061.5 M58.5,1080.5 L45.5,1095.5 M58.5,1080.5 L71.5,1095.5 " fill="none" filter="url(#f3ubby0avvosq)" style="stroke: #A80036; stroke-width: 1.5;"/><text fill="#000000" font-family="sans-serif" font-size="14" lengthAdjust="spacingAndGlyphs" textLength="105" x="6" y="1117.1533">DataListDiagram</text><!--MD5=[b7e9d3a6f28f121b3b9275e7322962cf]
entity actor2131723476--><ellipse cx="418" cy="532.5" fill="#FEFECE" filter="url(#f3ubby0avvosq)" rx="8" ry="8" style="stroke: #A80036; stroke-width: 1.5;"/><path d="M418,540.5 L418,567.5 M405,548.5 L431,548.5 M418,567.5 L405,582.5 M418,567.5 L431,582.5 " fill="none" filter="url(#f3ubby0avvosq)" style="stroke: #A80036; stroke-width: 1.5;"/><text fill="#000000" font-family="sans-serif" font-size="14" lengthAdjust="spacingAndGlyphs" textLength="39" x="398.5" y="604.1533">println</text><!--MD5=[1f3046ff16a19b5bb6f89939e5b0c853]
entity actor1231469233--><ellipse cx="418" cy="29.5" fill="#FEFECE" filter="url(#f3ubby0avvosq)" rx="8" ry="8" style="stroke: #A80036; stroke-width: 1.5;"/><path d="M418,37.5 L418,64.5 M405,45.5 L431,45.5 M418,64.5 L405,79.5 M418,64.5 L431,79.5 " fill="none" filter="url(#f3ubby0avvosq)" style="stroke: #A80036; stroke-width: 1.5;"/><text fill="#000000" font-family="sans-serif" font-size="14" lengthAdjust="spacingAndGlyphs" textLength="46" x="395" y="101.1533">waitFor</text><!--MD5=[862e366ef478ca4db066f050362397b0]
entity actor964895360--><ellipse cx="418" cy="157.5" fill="#FEFECE" filter="url(#f3ubby0avvosq)" rx="8" ry="8" style="stroke: #A80036; stroke-width: 1.5;"/><path d="M418,165.5 L418,192.5 M405,173.5 L431,173.5 M418,192.5 L405,207.5 M418,192.5 L431,207.5 " fill="none" filter="url(#f3ubby0avvosq)" style="stroke: #A80036; stroke-width: 1.5;"/><text fill="#000000" font-family="sans-serif" font-size="14" lengthAdjust="spacingAndGlyphs" textLength="29" x="403.5" y="229.1533">exec</text><!--MD5=[2402d7512d9aa01d473b8fba52e12d98]
entity actor188193734--><ellipse cx="418" cy="1417.5" fill="#FEFECE" filter="url(#f3ubby0avvosq)" rx="8" ry="8" style="stroke: #A80036; stroke-width: 1.5;"/><path d="M418,1425.5 L418,1452.5 M405,1433.5 L431,1433.5 M418,1452.5 L405,1467.5 M418,1452.5 L431,1467.5 " fill="none" filter="url(#f3ubby0avvosq)" style="stroke: #A80036; stroke-width: 1.5;"/><text fill="#000000" font-family="sans-serif" font-size="14" lengthAdjust="spacingAndGlyphs" textLength="77" x="379.5" y="1489.1533">getClassList</text><!--MD5=[ab027270860f0a61624271a48340578f]
entity actor115297013--><ellipse cx="418" cy="2052.5" fill="#FEFECE" filter="url(#f3ubby0avvosq)" rx="8" ry="8" style="stroke: #A80036; stroke-width: 1.5;"/><path d="M418,2060.5 L418,2087.5 M405,2068.5 L431,2068.5 M418,2087.5 L405,2102.5 M418,2087.5 L431,2102.5 " fill="none" filter="url(#f3ubby0avvosq)" style="stroke: #A80036; stroke-width: 1.5;"/><text fill="#000000" font-family="sans-serif" font-size="14" lengthAdjust="spacingAndGlyphs" textLength="34" x="401" y="2124.1533">mkdir</text><!--MD5=[2699aedbcd2b1f3b132d3903ac9b60ef]
entity actor652803980--><ellipse cx="418" cy="785.5" fill="#FEFECE" filter="url(#f3ubby0avvosq)" rx="8" ry="8" style="stroke: #A80036; stroke-width: 1.5;"/><path d="M418,793.5 L418,820.5 M405,801.5 L431,801.5 M418,820.5 L405,835.5 M418,820.5 L431,835.5 " fill="none" filter="url(#f3ubby0avvosq)" style="stroke: #A80036; stroke-width: 1.5;"/><text fill="#000000" font-family="sans-serif" font-size="14" lengthAdjust="spacingAndGlyphs" textLength="48" x="394" y="857.1533">append</text><!--MD5=[6fb069653bc4eca858f58303df485e78]
entity actor1494051958--><ellipse cx="418" cy="413.5" fill="#FEFECE" filter="url(#f3ubby0avvosq)" rx="8" ry="8" style="stroke: #A80036; stroke-width: 1.5;"/><path d="M418,421.5 L418,448.5 M405,429.5 L431,429.5 M418,448.5 L405,463.5 M418,448.5 L431,463.5 " fill="none" filter="url(#f3ubby0avvosq)" style="stroke: #A80036; stroke-width: 1.5;"/><text fill="#000000" font-family="sans-serif" font-size="14" lengthAdjust="spacingAndGlyphs" textLength="33" x="401.5" y="485.1533">close</text><!--MD5=[25172bbf95bdbbdb21e6a8bcedfbc865]
entity actor1520921298--><ellipse cx="418" cy="294.5" fill="#FEFECE" filter="url(#f3ubby0avvosq)" rx="8" ry="8" style="stroke: #A80036; stroke-width: 1.5;"/><path d="M418,302.5 L418,329.5 M405,310.5 L431,310.5 M418,329.5 L405,344.5 M418,329.5 L431,344.5 " fill="none" filter="url(#f3ubby0avvosq)" style="stroke: #A80036; stroke-width: 1.5;"/><text fill="#000000" font-family="sans-serif" font-size="14" lengthAdjust="spacingAndGlyphs" textLength="29" x="403.5" y="366.1533">write</text><!--MD5=[fa54cbfa20fe3014d191ba52c69edd3c]
entity actor628694336--><ellipse cx="418" cy="1011.5" fill="#FEFECE" filter="url(#f3ubby0avvosq)" rx="8" ry="8" style="stroke: #A80036; stroke-width: 1.5;"/><path d="M418,1019.5 L418,1046.5 M405,1027.5 L431,1027.5 M418,1046.5 L405,1061.5 M418,1046.5 L431,1061.5 " fill="none" filter="url(#f3ubby0avvosq)" style="stroke: #A80036; stroke-width: 1.5;"/><text fill="#000000" font-family="sans-serif" font-size="14" lengthAdjust="spacingAndGlyphs" textLength="56" x="390" y="1083.1533">getName</text><!--MD5=[c3a79de3dfdf70b4ead88bc26ff6f883]
entity actor927744186--><ellipse cx="418" cy="1753.5" fill="#FEFECE" filter="url(#f3ubby0avvosq)" rx="8" ry="8" style="stroke: #A80036; stroke-width: 1.5;"/><path d="M418,1761.5 L418,1788.5 M405,1769.5 L431,1769.5 M418,1788.5 L405,1803.5 M418,1788.5 L431,1803.5 " fill="none" filter="url(#f3ubby0avvosq)" style="stroke: #A80036; stroke-width: 1.5;"/><text fill="#000000" font-family="sans-serif" font-size="14" lengthAdjust="spacingAndGlyphs" textLength="88" x="374" y="1825.1533">getTypeName</text><!--MD5=[ff2cfac5f43e701ce7de056768dc8c39]
entity actor417118375--><ellipse cx="418" cy="1881.5" fill="#FEFECE" filter="url(#f3ubby0avvosq)" rx="8" ry="8" style="stroke: #A80036; stroke-width: 1.5;"/><path d="M418,1889.5 L418,1916.5 M405,1897.5 L431,1897.5 M418,1916.5 L405,1931.5 M418,1916.5 L431,1931.5 " fill="none" filter="url(#f3ubby0avvosq)" style="stroke: #A80036; stroke-width: 1.5;"/><text fill="#000000" font-family="sans-serif" font-size="14" lengthAdjust="spacingAndGlyphs" textLength="88" x="374" y="1953.1533">getTypeName</text><!--MD5=[2b3d831bcd3c61a98aace435866420bf]
link actor923366543 to UC0--><path d="M60.91,1035.9 C66.96,865.61 92.91,233.63 147,164 C164.11,141.97 196.75,134.2 218.82,131.46 " fill="none" id="actor923366543-UC0" style="stroke: #A80036; stroke-width: 1.0;"/><!--MD5=[d76657318ee80d5ad6a6f787912d651f]
link actor923366543 to UC1--><path d="M61.26,1035.76 C68.36,873.46 96.99,295.87 147,232 C158.18,217.72 175.87,209.43 192.94,204.62 " fill="none" id="actor923366543-UC1" style="stroke: #A80036; stroke-width: 1.0;"/><!--MD5=[f3d8f3c6c3bf7b518d4e584151060eaf]
link actor923366543 to UC2--><path d="M60.62,1035.83 C65.68,857.54 88.84,171.38 147,96 C161.27,77.5 186.49,69.05 207.29,65.2 " fill="none" id="actor923366543-UC2" style="stroke: #A80036; stroke-width: 1.0;"/><!--MD5=[8fba2788801dfa62e7e7a065583bb9f0]
link actor923366543 to UC3--><path d="M60.49,1035.98 C64.34,898.79 81.51,465.85 147,345 C163.71,314.17 197.79,290.42 220.13,277.33 " fill="none" id="actor923366543-UC3" style="stroke: #A80036; stroke-width: 1.0;"/><!--MD5=[802bb66d58ed7dc920906b3ef6741e5f]
link UC3 to actor2131723476--><path d="M264.26,277.68 C286.09,291.06 319.73,315.06 338,345 C375.97,407.22 344.17,438.49 374,505 C380.19,518.8 389.81,532.62 398.38,543.52 " fill="none" id="UC3-actor2131723476" style="stroke: #A80036; stroke-width: 1.0;"/><!--MD5=[58cee31a2860b996d2f2be1f570803f4]
link UC2 to actor1231469233--><path d="M278.19,62 C312.9,62 365.26,62 394.75,62 " fill="none" id="UC2-actor1231469233" style="stroke: #A80036; stroke-width: 1.0;"/><!--MD5=[f2c986846186465a975fa66571f4326a]
link UC1 to actor964895360--><path d="M296.03,195.58 C333.13,193.87 380.18,191.7 403.13,190.64 " fill="none" id="UC1-actor964895360" style="stroke: #A80036; stroke-width: 1.0;"/><!--MD5=[4b3d09bae75725464eebcaf9ce41f449]
link UC0 to actor964895360--><path d="M264.08,137.12 C299.99,149.54 373.12,174.83 403.4,185.3 " fill="none" id="UC0-actor964895360" style="stroke: #A80036; stroke-width: 1.0;"/><!--MD5=[5d5e498c2e44ed70784f3d1cc0d3e258]
link actor923366543 to UC4--><path d="M111.17,1109.8 C145.85,1131.14 189.97,1158.29 216.95,1174.89 " fill="none" id="actor923366543-UC4" style="stroke: #A80036; stroke-width: 1.0;"/><!--MD5=[d45731d88619834516d7c5bedb2b05dc]
link actor923366543 to UC5--><path d="M75.48,1120.19 C89.74,1152.67 113.56,1196.51 147,1224 C159.39,1234.19 175.08,1241.44 190.1,1246.56 " fill="none" id="actor923366543-UC5" style="stroke: #A80036; stroke-width: 1.0;"/><!--MD5=[4099fd7719a28cb2473bda11a2665f63]
link actor923366543 to UC6--><path d="M66.24,1120.37 C75.98,1168.23 98.45,1245.49 147,1292 C158.46,1302.98 173.71,1310.45 188.61,1315.51 " fill="none" id="actor923366543-UC6" style="stroke: #A80036; stroke-width: 1.0;"/><!--MD5=[31d1d8a88037d3c3a87c1d6b9cbfd717]
link UC6 to actor188193734--><path d="M265.47,1341.7 C294.11,1362.17 344.61,1398.26 379.39,1423.12 " fill="none" id="UC6-actor188193734" style="stroke: #A80036; stroke-width: 1.0;"/><!--MD5=[a9e09ac6ff4f2137d3b5a0c6024287a1]
link UC5 to actor188193734--><path d="M295.88,1269.03 C310.77,1274.12 326.14,1281.46 338,1292 C372.74,1322.85 394.03,1372.53 405.62,1407.94 " fill="none" id="UC5-actor188193734" style="stroke: #A80036; stroke-width: 1.0;"/><!--MD5=[071e075f2e56d02db99d8a330055a133]
link UC4 to actor188193734--><path d="M291.85,1198.54 C308.28,1203.56 325.6,1211.49 338,1224 C387.74,1274.19 406.25,1357.38 413.08,1407.61 " fill="none" id="UC4-actor188193734" style="stroke: #A80036; stroke-width: 1.0;"/><!--MD5=[a8eb337af09332d0e7b01a4248c16397]
link actor923366543 to UC7--><path d="M59.59,1120.1 C60.57,1273.48 69.59,1800.97 147,1947 C163.73,1978.55 198.84,2002.56 221.24,2015.43 " fill="none" id="actor923366543-UC7" style="stroke: #A80036; stroke-width: 1.0;"/><!--MD5=[48f325fb2cefc18280bcf9a137ecd5af]
link UC7 to actor115297013--><path d="M266.54,2033.83 C302.12,2045.93 369.57,2068.87 400.61,2079.43 " fill="none" id="UC7-actor115297013" style="stroke: #A80036; stroke-width: 1.0;"/><!--MD5=[6e1547edb19638b059be1f7fecb9b0a3]
link actor923366543 to UC8--><path d="M59.04,1120.01 C57.86,1285.56 59.71,1892.03 147,2059 C163.55,2090.65 198.72,2114.62 221.18,2127.47 " fill="none" id="actor923366543-UC8" style="stroke: #A80036; stroke-width: 1.0;"/><!--MD5=[1e2045724e2d163ad273df82212ac090]
link UC8 to actor115297013--><path d="M266.9,2130.85 C302.6,2119.95 369.79,2099.42 400.69,2089.98 " fill="none" id="UC8-actor115297013" style="stroke: #A80036; stroke-width: 1.0;"/><!--MD5=[fb6e6c722ad6163cf0991635cf046ebc]
link actor923366543 to UC9--><path d="M65.01,1035.89 C76.64,953.12 105.99,773.35 147,728 C162.2,711.19 186.33,702.68 206.41,698.38 " fill="none" id="actor923366543-UC9" style="stroke: #A80036; stroke-width: 1.0;"/><!--MD5=[d8fa2c5a55c580c5652065d782ac1ee0]
link actor923366543 to UC10--><path d="M68.05,1035.92 C79.69,985.96 104.16,901.76 147,841 C166.71,813.04 198.7,789.17 219.92,775.2 " fill="none" id="actor923366543-UC10" style="stroke: #A80036; stroke-width: 1.0;"/><!--MD5=[c4dfa14352e99f80940e97bf9053c867]
link actor923366543 to UC11--><path d="M63.14,1035.84 C72.11,941.28 98.16,716.15 147,660 C163.36,641.19 190.93,632.78 212.08,629.03 " fill="none" id="actor923366543-UC11" style="stroke: #A80036; stroke-width: 1.0;"/><!--MD5=[904f944e7ee1debab301ad8512a05003]
link UC11 to actor2131723476--><path d="M268.73,617.13 C303.97,604.74 367.13,582.53 398.4,571.54 " fill="none" id="UC11-actor2131723476" style="stroke: #A80036; stroke-width: 1.0;"/><!--MD5=[3b358666890306274830290edcd2e95a]
link UC10 to actor652803980--><path d="M273.33,771.63 C307.53,782.67 362.86,800.53 393.93,810.55 " fill="none" id="UC10-actor652803980" style="stroke: #A80036; stroke-width: 1.0;"/><!--MD5=[5ccb135a9044175bffb30e24d7b7dd13]
link UC9 to actor652803980--><path d="M276.03,701.33 C295.19,706.67 319.27,715.24 338,728 C360,742.98 379.75,765.48 394,784.23 " fill="none" id="UC9-actor652803980" style="stroke: #A80036; stroke-width: 1.0;"/><!--MD5=[f6df15b51b304324a42ef7e02563c325]
link actor923366543 to UC12--><path d="M63.4,1035.82 C73.55,932.28 103.09,668.55 147,593 C164.62,562.68 198.45,538.79 220.49,525.53 " fill="none" id="actor923366543-UC12" style="stroke: #A80036; stroke-width: 1.0;"/><!--MD5=[3d1cd4d87f673f5d94a19c8d481ff4c6]
link actor923366543 to UC13--><path d="M59.49,1035.67 C60.28,904.62 69.19,508.61 147,412 C164.5,390.27 197.04,382.42 218.98,379.59 " fill="none" id="actor923366543-UC13" style="stroke: #A80036; stroke-width: 1.0;"/><!--MD5=[08e1bba56f8ea6ec9635c00e4d9cbabe]
link actor923366543 to UC14--><path d="M60.2,1035.71 C63.03,913.88 77.18,565.4 147,480 C163.89,459.35 194.34,451.24 216.12,448.05 " fill="none" id="actor923366543-UC14" style="stroke: #A80036; stroke-width: 1.0;"/><!--MD5=[1289099898be54ef3d491938f4968ebc]
link UC14 to actor1494051958--><path d="M269.1,446 C305.49,446 371.07,446 401.15,446 " fill="none" id="UC14-actor1494051958" style="stroke: #A80036; stroke-width: 1.0;"/><!--MD5=[0aaefe3f36ece9379e1ddf63fe8e58a6]
link UC13 to actor1520921298--><path d="M264.43,371.85 C300.48,361.25 373.32,339.84 403.47,330.98 " fill="none" id="UC13-actor1520921298" style="stroke: #A80036; stroke-width: 1.0;"/><!--MD5=[1bb8224e40f85d4c556684b301582687]
link UC12 to actor2131723476--><path d="M269.85,521.75 C305.31,532.17 367.48,550.44 398.42,559.54 " fill="none" id="UC12-actor2131723476" style="stroke: #A80036; stroke-width: 1.0;"/><!--MD5=[bfe733edff29999981cf75cb214dcde9]
link actor923366543 to UC15--><path d="M71.43,1035.71 C84.26,997.46 108.21,942.05 147,908 C164.03,893.05 188.14,884.51 207.74,879.73 " fill="none" id="actor923366543-UC15" style="stroke: #A80036; stroke-width: 1.0;"/><!--MD5=[4c25d5fd9940eb85b323219c475a24f5]
link actor923366543 to UC16--><path d="M111.17,1078 C136.81,1078 167.61,1078 192.83,1078 " fill="none" id="actor923366543-UC16" style="stroke: #A80036; stroke-width: 1.0;"/><!--MD5=[111c13477ed10192c857e6a2b2a01b82]
link actor923366543 to UC17--><path d="M87.64,1035.93 C103.11,1015.49 123.85,991.96 147,976 C163.36,964.72 183.89,956.74 201.63,951.36 " fill="none" id="actor923366543-UC17" style="stroke: #A80036; stroke-width: 1.0;"/><!--MD5=[2ee52e4ccb28d9918a2fff076bcddcdd]
link actor923366543 to UC18--><path d="M111.24,1057.65 C122.97,1053.1 135.4,1048.34 147,1044 C165.94,1036.91 187.12,1029.27 204.62,1023.03 " fill="none" id="actor923366543-UC18" style="stroke: #A80036; stroke-width: 1.0;"/><!--MD5=[bae6ccddf97966b9d43201980e848c7a]
link UC18 to actor628694336--><path d="M292.29,1019.56 C323.76,1025.73 363.54,1033.52 389.59,1038.63 " fill="none" id="UC18-actor628694336" style="stroke: #A80036; stroke-width: 1.0;"/><!--MD5=[710a3b7951e3b37917abcca36c9833ac]
link UC17 to actor628694336--><path d="M281.7,952.24 C299.49,957.87 320.53,965.81 338,976 C356.76,986.94 375.29,1002.57 389.68,1016.08 " fill="none" id="UC17-actor628694336" style="stroke: #A80036; stroke-width: 1.0;"/><!--MD5=[f0b4913de1b195ef76d527cdc1854058]
link UC16 to actor628694336--><path d="M285.5,1069.77 C317.99,1063.4 362.02,1054.77 389.97,1049.3 " fill="none" id="UC16-actor628694336" style="stroke: #A80036; stroke-width: 1.0;"/><!--MD5=[a95dcf00882199b4896606d3c71ab5bf]
link UC15 to actor652803980--><path d="M272.93,864.5 C307.06,853.48 362.61,835.56 393.82,825.48 " fill="none" id="UC15-actor652803980" style="stroke: #A80036; stroke-width: 1.0;"/><!--MD5=[fa960f66e51dac5155dbf04cfd0be023]
link actor923366543 to UC19--><path d="M65.02,1120.27 C74.2,1178.23 96.82,1283.76 147,1359 C165.98,1387.46 198.15,1411.21 219.61,1425.01 " fill="none" id="actor923366543-UC19" style="stroke: #A80036; stroke-width: 1.0;"/><!--MD5=[89775cb8fbe3970767b65363b27c4d4f]
link actor923366543 to UC20--><path d="M63.73,1120.12 C73.61,1210.62 100.92,1419.68 147,1472 C160.94,1487.83 182.82,1496.3 202.01,1500.82 " fill="none" id="actor923366543-UC20" style="stroke: #A80036; stroke-width: 1.0;"/><!--MD5=[836f4416915e443635f57d0f06944481]
link actor923366543 to UC21--><path d="M62.23,1120.35 C69.6,1222.14 93.09,1476.81 147,1540 C158.32,1553.26 175.21,1561.35 191.6,1566.29 " fill="none" id="actor923366543-UC21" style="stroke: #A80036; stroke-width: 1.0;"/><!--MD5=[e47b5fb48d91386a6843c0adaca6113e]
link actor923366543 to UC22--><path d="M61.51,1120.18 C69.32,1276.9 99.61,1819.82 147,1880 C156.82,1892.47 171.59,1900.37 186.57,1905.37 " fill="none" id="actor923366543-UC22" style="stroke: #A80036; stroke-width: 1.0;"/><!--MD5=[c43adfa1424ae73bcc865b59d1eeeef3]
link actor923366543 to UC23--><path d="M61.08,1120.26 C66.1,1232.36 85.15,1533.75 147,1608 C156.82,1619.79 171.06,1627.49 185.51,1632.52 " fill="none" id="actor923366543-UC23" style="stroke: #A80036; stroke-width: 1.0;"/><!--MD5=[7835b794b1048386f9931a671b8c2e28]
link actor923366543 to UC24--><path d="M58.9,1120.14 C57.77,1259.7 61.11,1704.04 147,1812 C156.88,1824.42 171.67,1832.3 186.64,1837.31 " fill="none" id="actor923366543-UC24" style="stroke: #A80036; stroke-width: 1.0;"/><!--MD5=[4b0b3f93314a04393c4dd887b35e759f]
link actor923366543 to UC25--><path d="M59.49,1120.33 C60.28,1251.38 69.19,1647.39 147,1744 C162.53,1763.28 189.91,1771.63 211.21,1775.25 " fill="none" id="actor923366543-UC25" style="stroke: #A80036; stroke-width: 1.0;"/><!--MD5=[b0e50eccd940263e881229bb45947b43]
link actor923366543 to UC26--><path d="M60.2,1120.29 C63.03,1242.12 77.18,1590.6 147,1676 C156.49,1687.61 170.27,1695.26 184.38,1700.29 " fill="none" id="actor923366543-UC26" style="stroke: #A80036; stroke-width: 1.0;"/><!--MD5=[516d83d172d637cdcf7212e3a6d1a76d]
link UC26 to actor188193734--><path d="M298.22,1699.37 C312.66,1694.32 327.2,1686.9 338,1676 C387.74,1625.81 406.25,1542.62 413.08,1492.39 " fill="none" id="UC26-actor188193734" style="stroke: #A80036; stroke-width: 1.0;"/><!--MD5=[a0320b2575432dacf3e718530688c2c3]
link UC25 to actor927744186--><path d="M274.12,1779.41 C301.84,1780.69 342.98,1782.59 374,1784.02 " fill="none" id="UC25-actor927744186" style="stroke: #A80036; stroke-width: 1.0;"/><!--MD5=[ae4f49393ed104c1013e4a2d9d81cad6]
link UC24 to actor927744186--><path d="M282.01,1832.68 C309.16,1823.29 345.56,1810.7 373.72,1800.97 " fill="none" id="UC24-actor927744186" style="stroke: #A80036; stroke-width: 1.0;"/><!--MD5=[8299cc64dc2a4d90a7e03582466020e6]
link UC23 to actor188193734--><path d="M295.39,1631.13 C310.43,1626.04 326.01,1618.65 338,1608 C372.74,1577.15 394.03,1527.47 405.62,1492.06 " fill="none" id="UC23-actor188193734" style="stroke: #A80036; stroke-width: 1.0;"/><!--MD5=[0641e0ad9686fb3c8ff9adb1f0c7b2a7]
link UC22 to actor417118375--><path d="M307.61,1914 C329.72,1914 353.93,1914 373.95,1914 " fill="none" id="UC22-actor417118375" style="stroke: #A80036; stroke-width: 1.0;"/><!--MD5=[bf8328dd28f27dc2b250a5850b6fec90]
link UC21 to actor188193734--><path d="M287.08,1563.38 C303.9,1558.02 322.72,1550.4 338,1540 C356.73,1527.24 373.83,1509.03 387.3,1492.33 " fill="none" id="UC21-actor188193734" style="stroke: #A80036; stroke-width: 1.0;"/><!--MD5=[7d9ccad9deac802406a9f838cf3ea371]
link UC20 to actor628694336--><path d="M283.23,1501.02 C302.49,1496.56 324.34,1488.08 338,1472 C387.27,1413.97 407.92,1182.13 414.48,1086.04 " fill="none" id="UC20-actor628694336" style="stroke: #A80036; stroke-width: 1.0;"/><!--MD5=[c4b94b35e87f9ffd411fc828bbb04fed]
link UC19 to actor652803980--><path d="M267.09,1425.52 C289.53,1412.27 322.15,1389.08 338,1359 C377.04,1284.94 359.46,1066.44 374,984 C381.52,941.34 394.39,893.55 404.09,860.24 " fill="none" id="UC19-actor652803980" style="stroke: #A80036; stroke-width: 1.0;"/><!--MD5=[a207c45cc93dc0093c7dd9c0dd5d7296]
@startuml
 left to right direction

actor DataListDiagram as actor923366543

	rectangle main{
	 usecase exec as UC0
	actor923366543- -UC0
	 usecase getRuntime as UC1
	actor923366543- -UC1
	 usecase waitFor as UC2
	actor923366543- -UC2
	 usecase println as UC3
	actor923366543- -UC3
	}
actor println as actor2131723476
UC3- -actor2131723476
actor waitFor as actor1231469233
UC2- -actor1231469233
actor getRuntime as actor964895360
UC1- -actor964895360
actor exec as actor964895360
UC0- -actor964895360

	rectangle draw{
	 usecase getClassList as UC4
	actor923366543- -UC4
	 usecase getFunctionList as UC5
	actor923366543- -UC5
	 usecase getMemberList as UC6
	actor923366543- -UC6
	}
actor getMemberList as actor188193734
UC6- -actor188193734
actor getFunctionList as actor188193734
UC5- -actor188193734
actor getClassList as actor188193734
UC4- -actor188193734

	rectangle makeDateFolder{
	 usecase mkdir as UC7
	actor923366543- -UC7
	}
actor mkdir as actor115297013
UC7- -actor115297013

	rectangle makeDataListFolder{
	 usecase mkdir as UC8
	actor923366543- -UC8
	}
actor mkdir as actor115297013
UC8- -actor115297013

	rectangle makeData_base{
	 usecase append as UC9
	actor923366543- -UC9
	 usecase toString as UC10
	actor923366543- -UC10
	 usecase println as UC11
	actor923366543- -UC11
	}
actor println as actor2131723476
UC11- -actor2131723476
actor toString as actor652803980
UC10- -actor652803980
actor append as actor652803980
UC9- -actor652803980

	rectangle makeFile{
	 usecase println as UC12
	actor923366543- -UC12
	 usecase write as UC13
	actor923366543- -UC13
	 usecase close as UC14
	actor923366543- -UC14
	}
actor close as actor1494051958
UC14- -actor1494051958
actor write as actor1520921298
UC13- -actor1520921298
actor println as actor2131723476
UC12- -actor2131723476

	rectangle classDef{
	 usecase append as UC15
	actor923366543- -UC15
	 usecase getHasList as UC16
	actor923366543- -UC16
	 usecase getCallList as UC17
	actor923366543- -UC17
	 usecase getCallByList as UC18
	actor923366543- -UC18
	}
actor getCallByList as actor628694336
UC18- -actor628694336
actor getCallList as actor628694336
UC17- -actor628694336
actor getHasList as actor628694336
UC16- -actor628694336
actor append as actor652803980
UC15- -actor652803980

	rectangle addList{
	 usecase append as UC19
	actor923366543- -UC19
	 usecase getName as UC20
	actor923366543- -UC20
	 usecase getClassList as UC21
	actor923366543- -UC21
	 usecase getTypeName as UC22
	actor923366543- -UC22
	 usecase getMemberList as UC23
	actor923366543- -UC23
	 usecase getTypeName as UC24
	actor923366543- -UC24
	 usecase getSig as UC25
	actor923366543- -UC25
	 usecase getFunctionList as UC26
	actor923366543- -UC26
	}
actor getFunctionList as actor188193734
UC26- -actor188193734
actor getSig as actor927744186
UC25- -actor927744186
actor getTypeName as actor927744186
UC24- -actor927744186
actor getMemberList as actor188193734
UC23- -actor188193734
actor getTypeName as actor417118375
UC22- -actor417118375
actor getClassList as actor188193734
UC21- -actor188193734
actor getName as actor628694336
UC20- -actor628694336
actor append as actor652803980
UC19- -actor652803980


@enduml

PlantUML version 1.2020.19(Tue Oct 13 00:10:01 KST 2020)
(APACHE source distribution)
Java Runtime: Java(TM) SE Runtime Environment
JVM: Java HotSpot(TM) 64-Bit Server VM
Default Encoding: MS949
Language: ko
Country: KR
--></g></svg>