<?xml version="1.0" encoding="UTF-8" standalone="no"?><svg xmlns="http://www.w3.org/2000/svg" xmlns:xlink="http://www.w3.org/1999/xlink" contentScriptType="application/ecmascript" contentStyleType="text/css" height="1365px" preserveAspectRatio="none" style="width:530px;height:1365px;" version="1.1" viewBox="0 0 530 1365" width="530px" zoomAndPan="magnify"><defs><filter height="300%" id="frz688elljy4k" width="300%" x="-1" y="-1"><feGaussianBlur result="blurOut" stdDeviation="2.0"/><feColorMatrix in="blurOut" result="blurOut2" type="matrix" values="0 0 0 0 0 0 0 0 0 0 0 0 0 0 0 0 0 0 .4 0"/><feOffset dx="4.0" dy="4.0" in="blurOut2" result="blurOut3"/><feBlend in="SourceGraphic" in2="blurOut3" mode="normal"/></filter></defs><g><!--MD5=[f6cc7c11640e1aa40840472fadf01e77]
cluster makeASTList--><rect fill="#FFFFFF" filter="url(#frz688elljy4k)" height="88" style="stroke: #000000; stroke-width: 1.5;" width="104" x="177" y="7"/><text fill="#000000" font-family="sans-serif" font-size="14" font-weight="bold" lengthAdjust="spacingAndGlyphs" textLength="88" x="185" y="25.1533">makeASTList</text><!--MD5=[e5dd8a5917535f46f5bc2692b2c9a989]
cluster makeFileList--><rect fill="#FFFFFF" filter="url(#frz688elljy4k)" height="88" style="stroke: #000000; stroke-width: 1.5;" width="104" x="177" y="119"/><text fill="#000000" font-family="sans-serif" font-size="14" font-weight="bold" lengthAdjust="spacingAndGlyphs" textLength="88" x="185" y="137.1533">makeFileList</text><!--MD5=[62e981aedead5d296a0ed090cac6c220]
cluster init--><rect fill="#FFFFFF" filter="url(#frz688elljy4k)" height="1004" style="stroke: #000000; stroke-width: 1.5;" width="216" x="121" y="231"/><text fill="#000000" font-family="sans-serif" font-size="14" font-weight="bold" lengthAdjust="spacingAndGlyphs" textLength="22" x="218" y="249.1533">init</text><!--MD5=[a70b0d373322012744ecc119c63f921b]
cluster main--><rect fill="#FFFFFF" filter="url(#frz688elljy4k)" height="88" style="stroke: #000000; stroke-width: 1.5;" width="93" x="182.5" y="1261"/><text fill="#000000" font-family="sans-serif" font-size="14" font-weight="bold" lengthAdjust="spacingAndGlyphs" textLength="33" x="212.5" y="1279.1533">main</text><ellipse cx="228.9836" cy="62.0869" fill="#FEFECE" filter="url(#frz688elljy4k)" rx="19.9836" ry="16.5869" style="stroke: #A80036; stroke-width: 1.5;"/><text fill="#000000" font-family="sans-serif" font-size="14" lengthAdjust="spacingAndGlyphs" textLength="24" x="216.9836" y="68.2016">size</text><ellipse cx="228.9836" cy="174.0869" fill="#FEFECE" filter="url(#frz688elljy4k)" rx="19.9836" ry="16.5869" style="stroke: #A80036; stroke-width: 1.5;"/><text fill="#000000" font-family="sans-serif" font-size="14" lengthAdjust="spacingAndGlyphs" textLength="24" x="216.9836" y="180.2016">add</text><ellipse cx="228.862" cy="285.8724" fill="#FEFECE" filter="url(#frz688elljy4k)" rx="72.362" ry="16.8724" style="stroke: #A80036; stroke-width: 1.5;"/><text fill="#000000" font-family="sans-serif" font-size="14" lengthAdjust="spacingAndGlyphs" textLength="100" x="178.862" y="291.9871">printStackTrace</text><ellipse cx="228.9411" cy="355.0973" fill="#FEFECE" filter="url(#frz688elljy4k)" rx="36.9411" ry="16.5973" style="stroke: #A80036; stroke-width: 1.5;"/><text fill="#000000" font-family="sans-serif" font-size="14" lengthAdjust="spacingAndGlyphs" textLength="48" x="204.9411" y="361.2121">append</text><ellipse cx="229.0061" cy="491.0973" fill="#FEFECE" filter="url(#frz688elljy4k)" rx="23.5061" ry="16.5973" style="stroke: #A80036; stroke-width: 1.5;"/><text fill="#000000" font-family="sans-serif" font-size="14" lengthAdjust="spacingAndGlyphs" textLength="29" x="214.5061" y="497.2121">read</text><ellipse cx="228.8345" cy="559.0973" fill="#FEFECE" filter="url(#frz688elljy4k)" rx="26.3345" ry="16.5973" style="stroke: #A80036; stroke-width: 1.5;"/><text fill="#000000" font-family="sans-serif" font-size="14" lengthAdjust="spacingAndGlyphs" textLength="33" x="212.3345" y="565.2121">close</text><ellipse cx="228.8762" cy="1059.0973" fill="#FEFECE" filter="url(#frz688elljy4k)" rx="50.3762" ry="16.5973" style="stroke: #A80036; stroke-width: 1.5;"/><text fill="#000000" font-family="sans-serif" font-size="14" lengthAdjust="spacingAndGlyphs" textLength="67" x="195.3762" y="1065.2121">newParser</text><ellipse cx="229.234" cy="627.0973" fill="#FEFECE" filter="url(#frz688elljy4k)" rx="36.234" ry="16.5973" style="stroke: #A80036; stroke-width: 1.5;"/><text fill="#000000" font-family="sans-serif" font-size="14" lengthAdjust="spacingAndGlyphs" textLength="47" x="205.734" y="633.2121">setKind</text><ellipse cx="228.7548" cy="695.0973" fill="#FEFECE" filter="url(#frz688elljy4k)" rx="48.2548" ry="16.5973" style="stroke: #A80036; stroke-width: 1.5;"/><text fill="#000000" font-family="sans-serif" font-size="14" lengthAdjust="spacingAndGlyphs" textLength="64" x="196.7548" y="701.2121">setSource</text><ellipse cx="228.9472" cy="1127.0973" fill="#FEFECE" filter="url(#frz688elljy4k)" rx="57.4472" ry="16.5973" style="stroke: #A80036; stroke-width: 1.5;"/><text fill="#000000" font-family="sans-serif" font-size="14" lengthAdjust="spacingAndGlyphs" textLength="77" x="190.4472" y="1133.2121">toCharArray</text><ellipse cx="229.1482" cy="423.0973" fill="#FEFECE" filter="url(#frz688elljy4k)" rx="37.6482" ry="16.5973" style="stroke: #A80036; stroke-width: 1.5;"/><text fill="#000000" font-family="sans-serif" font-size="14" lengthAdjust="spacingAndGlyphs" textLength="49" x="204.6482" y="429.2121">toString</text><ellipse cx="229.0847" cy="839.8169" fill="#FEFECE" filter="url(#frz688elljy4k)" rx="92.0847" ry="20.8169" style="stroke: #A80036; stroke-width: 1.5;"/><text fill="#000000" font-family="sans-serif" font-size="14" lengthAdjust="spacingAndGlyphs" textLength="150" x="154.0847" y="845.9317">setStatementsRecovery</text><ellipse cx="229.0569" cy="915.9114" fill="#FEFECE" filter="url(#frz688elljy4k)" rx="85.0569" ry="19.4114" style="stroke: #A80036; stroke-width: 1.5;"/><text fill="#000000" font-family="sans-serif" font-size="14" lengthAdjust="spacingAndGlyphs" textLength="133" x="162.5569" y="922.0261">setBindingsRecovery</text><ellipse cx="228.9543" cy="989.1909" fill="#FEFECE" filter="url(#frz688elljy4k)" rx="81.4543" ry="18.6909" style="stroke: #A80036; stroke-width: 1.5;"/><text fill="#000000" font-family="sans-serif" font-size="14" lengthAdjust="spacingAndGlyphs" textLength="124" x="166.9543" y="995.3056">setResolveBindings</text><ellipse cx="229.2443" cy="1199.1489" fill="#FEFECE" filter="url(#frz688elljy4k)" rx="88.7443" ry="20.1489" style="stroke: #A80036; stroke-width: 1.5;"/><text fill="#000000" font-family="sans-serif" font-size="14" lengthAdjust="spacingAndGlyphs" textLength="142" x="158.2443" y="1205.2636">setComplianceOptions</text><ellipse cx="228.9543" cy="765.1909" fill="#FEFECE" filter="url(#frz688elljy4k)" rx="81.4543" ry="18.6909" style="stroke: #A80036; stroke-width: 1.5;"/><text fill="#000000" font-family="sans-serif" font-size="14" lengthAdjust="spacingAndGlyphs" textLength="124" x="166.9543" y="771.3056">setCompilerOptions</text><ellipse cx="229.0772" cy="1316.0973" fill="#FEFECE" filter="url(#frz688elljy4k)" rx="30.5772" ry="16.5973" style="stroke: #A80036; stroke-width: 1.5;"/><text fill="#000000" font-family="sans-serif" font-size="14" lengthAdjust="spacingAndGlyphs" textLength="39" x="209.5772" y="1322.2121">println</text><!--MD5=[0d013428919e86c9b087b4ef23cd7f7d]
entity actor1585824283--><ellipse cx="41.5" cy="662.5" fill="#FEFECE" filter="url(#frz688elljy4k)" rx="8" ry="8" style="stroke: #A80036; stroke-width: 1.5;"/><path d="M41.5,670.5 L41.5,697.5 M28.5,678.5 L54.5,678.5 M41.5,697.5 L28.5,712.5 M41.5,697.5 L54.5,712.5 " fill="none" filter="url(#frz688elljy4k)" style="stroke: #A80036; stroke-width: 1.5;"/><text fill="#000000" font-family="sans-serif" font-size="14" lengthAdjust="spacingAndGlyphs" textLength="71" x="6" y="734.1533">JavaParser</text><!--MD5=[7e058248a66be4368ca89473b9f85b73]
entity actor1479446866--><ellipse cx="452" cy="65.5" fill="#FEFECE" filter="url(#frz688elljy4k)" rx="8" ry="8" style="stroke: #A80036; stroke-width: 1.5;"/><path d="M452,73.5 L452,100.5 M439,81.5 L465,81.5 M452,100.5 L439,115.5 M452,100.5 L465,115.5 " fill="none" filter="url(#frz688elljy4k)" style="stroke: #A80036; stroke-width: 1.5;"/><text fill="#000000" font-family="sans-serif" font-size="14" lengthAdjust="spacingAndGlyphs" textLength="24" x="440" y="137.1533">add</text><!--MD5=[b4ad550f4c8c0479e9f60836c9818e3f]
entity actor1297189990--><ellipse cx="452" cy="807.5" fill="#FEFECE" filter="url(#frz688elljy4k)" rx="8" ry="8" style="stroke: #A80036; stroke-width: 1.5;"/><path d="M452,815.5 L452,842.5 M439,823.5 L465,823.5 M452,842.5 L439,857.5 M452,842.5 L465,857.5 " fill="none" filter="url(#frz688elljy4k)" style="stroke: #A80036; stroke-width: 1.5;"/><text fill="#000000" font-family="sans-serif" font-size="14" lengthAdjust="spacingAndGlyphs" textLength="67" x="418.5" y="879.1533">newParser</text><!--MD5=[38b02524664177492cbb8d190a79bff6]
entity actor622690269--><ellipse cx="452" cy="1166.5" fill="#FEFECE" filter="url(#frz688elljy4k)" rx="8" ry="8" style="stroke: #A80036; stroke-width: 1.5;"/><path d="M452,1174.5 L452,1201.5 M439,1182.5 L465,1182.5 M452,1201.5 L439,1216.5 M452,1201.5 L465,1216.5 " fill="none" filter="url(#frz688elljy4k)" style="stroke: #A80036; stroke-width: 1.5;"/><text fill="#000000" font-family="sans-serif" font-size="14" lengthAdjust="spacingAndGlyphs" textLength="142" x="381" y="1238.1533">setComplianceOptions</text><!--MD5=[2699aedbcd2b1f3b132d3903ac9b60ef]
entity actor652803980--><ellipse cx="452" cy="339.5" fill="#FEFECE" filter="url(#frz688elljy4k)" rx="8" ry="8" style="stroke: #A80036; stroke-width: 1.5;"/><path d="M452,347.5 L452,374.5 M439,355.5 L465,355.5 M452,374.5 L439,389.5 M452,374.5 L465,389.5 " fill="none" filter="url(#frz688elljy4k)" style="stroke: #A80036; stroke-width: 1.5;"/><text fill="#000000" font-family="sans-serif" font-size="14" lengthAdjust="spacingAndGlyphs" textLength="48" x="428" y="411.1533">append</text><!--MD5=[caaf584c69c6036e861bfb8548f3c2fe]
entity actor1092591822--><ellipse cx="452" cy="1047.5" fill="#FEFECE" filter="url(#frz688elljy4k)" rx="8" ry="8" style="stroke: #A80036; stroke-width: 1.5;"/><path d="M452,1055.5 L452,1082.5 M439,1063.5 L465,1063.5 M452,1082.5 L439,1097.5 M452,1082.5 L465,1097.5 " fill="none" filter="url(#frz688elljy4k)" style="stroke: #A80036; stroke-width: 1.5;"/><text fill="#000000" font-family="sans-serif" font-size="14" lengthAdjust="spacingAndGlyphs" textLength="77" x="413.5" y="1119.1533">toCharArray</text><!--MD5=[967148021206860b3625152aa5cdb2fc]
entity actor990994954--><ellipse cx="452" cy="577.5" fill="#FEFECE" filter="url(#frz688elljy4k)" rx="8" ry="8" style="stroke: #A80036; stroke-width: 1.5;"/><path d="M452,585.5 L452,612.5 M439,593.5 L465,593.5 M452,612.5 L439,627.5 M452,612.5 L465,627.5 " fill="none" filter="url(#frz688elljy4k)" style="stroke: #A80036; stroke-width: 1.5;"/><text fill="#000000" font-family="sans-serif" font-size="14" lengthAdjust="spacingAndGlyphs" textLength="33" x="435.5" y="649.1533">close</text><!--MD5=[c2516088b1694ec1c9f5c9d369f35dbe]
entity actor40626598--><ellipse cx="452" cy="458.5" fill="#FEFECE" filter="url(#frz688elljy4k)" rx="8" ry="8" style="stroke: #A80036; stroke-width: 1.5;"/><path d="M452,466.5 L452,493.5 M439,474.5 L465,474.5 M452,493.5 L439,508.5 M452,493.5 L465,508.5 " fill="none" filter="url(#frz688elljy4k)" style="stroke: #A80036; stroke-width: 1.5;"/><text fill="#000000" font-family="sans-serif" font-size="14" lengthAdjust="spacingAndGlyphs" textLength="29" x="437.5" y="530.1533">read</text><!--MD5=[2f40b71905abd468bf4932cffccdb2a8]
entity actor833272193--><ellipse cx="452" cy="220.5" fill="#FEFECE" filter="url(#frz688elljy4k)" rx="8" ry="8" style="stroke: #A80036; stroke-width: 1.5;"/><path d="M452,228.5 L452,255.5 M439,236.5 L465,236.5 M452,255.5 L439,270.5 M452,255.5 L465,270.5 " fill="none" filter="url(#frz688elljy4k)" style="stroke: #A80036; stroke-width: 1.5;"/><text fill="#000000" font-family="sans-serif" font-size="14" lengthAdjust="spacingAndGlyphs" textLength="100" x="402" y="292.1533">printStackTrace</text><!--MD5=[b7e9d3a6f28f121b3b9275e7322962cf]
entity actor2131723476--><ellipse cx="452" cy="1285.5" fill="#FEFECE" filter="url(#frz688elljy4k)" rx="8" ry="8" style="stroke: #A80036; stroke-width: 1.5;"/><path d="M452,1293.5 L452,1320.5 M439,1301.5 L465,1301.5 M452,1320.5 L439,1335.5 M452,1320.5 L465,1335.5 " fill="none" filter="url(#frz688elljy4k)" style="stroke: #A80036; stroke-width: 1.5;"/><text fill="#000000" font-family="sans-serif" font-size="14" lengthAdjust="spacingAndGlyphs" textLength="39" x="432.5" y="1357.1533">println</text><!--MD5=[5c92be23129032ae2d53cb6af233fcf4]
link actor1585824283 to UC172--><path d="M43.47,652.95 C46.77,539.01 60.49,227.08 113,141 C135.96,103.36 184.4,79.31 210.48,68.55 " fill="none" id="actor1585824283-UC172" style="stroke: #A80036; stroke-width: 1.0;"/><!--MD5=[13b8e262687249a023e10bda0562cef5]
link UC172 to actor1479446866--><path d="M248.84,65.07 C292.47,72.18 399.61,89.63 437.47,95.8 " fill="none" id="UC172-actor1479446866" style="stroke: #A80036; stroke-width: 1.0;"/><!--MD5=[baba2e18fad7e4491cc6ad4dda2188e9]
link actor1585824283 to UC173--><path d="M45.02,652.79 C51.47,555.6 71.13,319.27 113,253 C136.55,215.73 184.74,191.53 210.63,180.64 " fill="none" id="actor1585824283-UC173" style="stroke: #A80036; stroke-width: 1.0;"/><!--MD5=[8ad645b71a9a5da5aad559a62cf8425d]
link UC173 to actor1479446866--><path d="M247.71,167.91 C290.53,153.19 398.93,115.91 437.29,102.72 " fill="none" id="UC173-actor1479446866" style="stroke: #A80036; stroke-width: 1.0;"/><!--MD5=[bb6f32cbc029e724320810c4e1652165]
link actor1585824283 to UC174--><path d="M45.04,652.95 C51.13,565.81 69.45,369.58 113,321 C125.82,306.7 144.27,298.16 162.66,293.09 " fill="none" id="actor1585824283-UC174" style="stroke: #A80036; stroke-width: 1.0;"/><!--MD5=[b386951717ea46c732021b18447207cf]
link actor1585824283 to UC175--><path d="M46.96,652.88 C55.7,578.2 77.37,426.87 113,389 C133.26,367.47 166.42,359.36 191.95,356.41 " fill="none" id="actor1585824283-UC175" style="stroke: #A80036; stroke-width: 1.0;"/><!--MD5=[2ef68649893ec122252760830ce7a108]
link actor1585824283 to UC176--><path d="M49.4,652.71 C57.87,614.17 75.94,558.33 113,525 C138.85,501.75 179.91,494.36 205.34,492.04 " fill="none" id="actor1585824283-UC176" style="stroke: #A80036; stroke-width: 1.0;"/><!--MD5=[4eb4dda35d05291317e2e0ad9d0c8971]
link actor1585824283 to UC177--><path d="M62.89,652.82 C74.86,632.09 91.82,608.34 113,593 C139.81,573.58 177.68,565.17 202.53,561.58 " fill="none" id="actor1585824283-UC177" style="stroke: #A80036; stroke-width: 1.0;"/><!--MD5=[4d5fc24e1e012539f206f125f9cde837]
link actor1585824283 to UC178--><path d="M46.2,737.27 C53.97,816.59 74.54,983.46 113,1025 C129.9,1043.26 156.08,1051.88 179.2,1055.88 " fill="none" id="actor1585824283-UC178" style="stroke: #A80036; stroke-width: 1.0;"/><!--MD5=[356a132714ec32b9b79a6bfe1892111f]
link actor1585824283 to UC179--><path d="M77.15,676.91 C88.41,671.41 101.08,665.6 113,661 C140.77,650.28 173.4,640.93 196.8,634.76 " fill="none" id="actor1585824283-UC179" style="stroke: #A80036; stroke-width: 1.0;"/><!--MD5=[5de4cced221f59842151bb8a4dbef362]
link actor1585824283 to UC180--><path d="M77.39,695 C106.46,695 148.16,695 180.31,695 " fill="none" id="actor1585824283-UC180" style="stroke: #A80036; stroke-width: 1.0;"/><!--MD5=[a099a401eed845d3725d828a91105d3c]
link actor1585824283 to UC181--><path d="M44.49,737.32 C49.64,828.79 66.41,1040.87 113,1093 C128.19,1110 151.43,1118.68 173.05,1123.04 " fill="none" id="actor1585824283-UC181" style="stroke: #A80036; stroke-width: 1.0;"/><!--MD5=[745a9d68fab7bede15d4e04e23adbbbb]
link actor1585824283 to UC182--><path d="M43.3,652.79 C46.61,599.86 60.27,509.7 113,457 C133.69,436.32 166.31,428.1 191.53,424.89 " fill="none" id="actor1585824283-UC182" style="stroke: #A80036; stroke-width: 1.0;"/><!--MD5=[8a3b03055185e09cb44383cbd79b52c3]
link actor1585824283 to UC183--><path d="M62.07,737.16 C74.05,758.9 91.27,784.3 113,801 C127.21,811.92 144.66,819.89 161.63,825.66 " fill="none" id="actor1585824283-UC183" style="stroke: #A80036; stroke-width: 1.0;"/><!--MD5=[eb39d37160c8eb8945ec6f2be0ee0bc8]
link actor1585824283 to UC184--><path d="M48.17,737.05 C55.88,778.34 73.56,840.43 113,878 C126.02,890.4 143.17,898.76 160.24,904.39 " fill="none" id="actor1585824283-UC184" style="stroke: #A80036; stroke-width: 1.0;"/><!--MD5=[503c838185be2fc5f008a398562fe14b]
link actor1585824283 to UC185--><path d="M42.22,737.12 C44.16,793.71 56.12,894 113,953 C125.34,965.8 142.17,974.07 159.14,979.41 " fill="none" id="actor1585824283-UC185" style="stroke: #A80036; stroke-width: 1.0;"/><!--MD5=[3017daddaa8efa453e48f215329fc1c7]
link actor1585824283 to UC186--><path d="M43.39,737.35 C46.4,839.8 59.24,1097.29 113,1161 C123.78,1173.78 138.96,1182.28 154.76,1187.94 " fill="none" id="actor1585824283-UC186" style="stroke: #A80036; stroke-width: 1.0;"/><!--MD5=[5e17b802fe5c25b1e3424a6215e624e7]
link actor1585824283 to UC187--><path d="M77.19,712.97 C88.46,718.47 101.12,724.31 113,729 C133.53,737.11 156.67,744.65 176.78,750.71 " fill="none" id="actor1585824283-UC187" style="stroke: #A80036; stroke-width: 1.0;"/><!--MD5=[9ef9ce851c301d4c2defb145e494afe6]
link UC187 to actor1297189990--><path d="M278.85,779.71 C299.36,786.04 323.41,793.65 345,801 C369.69,809.4 397.34,819.6 418.2,827.46 " fill="none" id="UC187-actor1297189990" style="stroke: #A80036; stroke-width: 1.0;"/><!--MD5=[150628ff5b7996bd845121a567bd47ce]
link UC186 to actor622690269--><path d="M317.66,1199 C338.63,1199 360.75,1199 380.81,1199 " fill="none" id="UC186-actor622690269" style="stroke: #A80036; stroke-width: 1.0;"/><!--MD5=[dd6c5c0dfec25861804eeb17c9daf955]
link UC185 to actor1297189990--><path d="M289.86,976.55 C308.41,971.08 328.34,963.45 345,953 C374.39,934.56 401.08,906.01 420.32,882.22 " fill="none" id="UC185-actor1297189990" style="stroke: #A80036; stroke-width: 1.0;"/><!--MD5=[6ccdbf4864a20de323cc82df051c475d]
link UC184 to actor1297189990--><path d="M278.77,900.18 C299.26,893.46 323.33,885.46 345,878 C369.58,869.53 397.23,859.61 418.13,852.02 " fill="none" id="UC184-actor1297189990" style="stroke: #A80036; stroke-width: 1.0;"/><!--MD5=[468492d90095f260e15e11679332353b]
link UC183 to actor1297189990--><path d="M321.17,840 C355.65,840 392.72,840 418.39,840 " fill="none" id="UC183-actor1297189990" style="stroke: #A80036; stroke-width: 1.0;"/><!--MD5=[f57c5f8b49c40c47d2c1959e9b30c9e6]
link UC182 to actor652803980--><path d="M262.61,415.47 C307.75,405.06 388.19,386.49 427.74,377.37 " fill="none" id="UC182-actor652803980" style="stroke: #A80036; stroke-width: 1.0;"/><!--MD5=[2542f7b147d7e4fa78eb6d33598dae90]
link UC181 to actor1092591822--><path d="M275.79,1117.26 C316.5,1108.6 375.31,1096.1 413.34,1088.01 " fill="none" id="UC181-actor1092591822" style="stroke: #A80036; stroke-width: 1.0;"/><!--MD5=[f0de36e69119c2e242d0d13753bafba6]
link UC180 to actor1297189990--><path d="M272.89,702.13 C295.52,707.22 323.05,715.61 345,729 C374.11,746.77 400.61,774.52 419.84,797.83 " fill="none" id="UC180-actor1297189990" style="stroke: #A80036; stroke-width: 1.0;"/><!--MD5=[58c8ef895f7c1143d46913ff16781c7b]
link UC179 to actor1297189990--><path d="M264.23,630.41 C288.85,634.36 321.68,642.83 345,661 C390.44,696.4 420.41,757.17 436.54,797.96 " fill="none" id="UC179-actor1297189990" style="stroke: #A80036; stroke-width: 1.0;"/><!--MD5=[fa285a17321586a673c02b3e9321be80]
link UC178 to actor1297189990--><path d="M276.86,1053.41 C299.35,1048.79 325.56,1040.37 345,1025 C391.75,988.04 421.62,924.4 437.36,882.25 " fill="none" id="UC178-actor1297189990" style="stroke: #A80036; stroke-width: 1.0;"/><!--MD5=[a841bc794c90bbd4ba07da519d0ee601]
link UC177 to actor990994954--><path d="M254.07,564.55 C299.6,575.06 397.19,597.58 435.3,606.38 " fill="none" id="UC177-actor990994954" style="stroke: #A80036; stroke-width: 1.0;"/><!--MD5=[4ec038d31feb27f2e65b4cd5c1cdf46f]
link UC176 to actor40626598--><path d="M252.82,491 C298.59,491 400.36,491 437.28,491 " fill="none" id="UC176-actor40626598" style="stroke: #A80036; stroke-width: 1.0;"/><!--MD5=[c97c1bbed191fe55ad1a63fe94b632c4]
link UC175 to actor652803980--><path d="M265.51,357.73 C311.14,361.24 389.08,367.24 427.78,370.21 " fill="none" id="UC175-actor652803980" style="stroke: #A80036; stroke-width: 1.0;"/><!--MD5=[d5ebabc4007fd678da9fa6681733cad3]
link UC174 to actor833272193--><path d="M290.68,276.94 C325.69,271.71 369.15,265.22 401.98,260.32 " fill="none" id="UC174-actor833272193" style="stroke: #A80036; stroke-width: 1.0;"/><!--MD5=[f988f03ad19ddcbd9dc484b7597c9576]
link actor1585824283 to UC188--><path d="M43.68,737.17 C47.5,849.14 62.34,1151.14 113,1235 C134.22,1270.12 177.11,1294.03 204.1,1306.31 " fill="none" id="actor1585824283-UC188" style="stroke: #A80036; stroke-width: 1.0;"/><!--MD5=[4f0cd3f7b4cc12197572e88da7c13bb9]
link UC188 to actor2131723476--><path d="M259.81,1316.27 C306.11,1316.69 393.98,1317.48 432.32,1317.83 " fill="none" id="UC188-actor2131723476" style="stroke: #A80036; stroke-width: 1.0;"/><!--MD5=[15d28dc37c117e63c8c849b854f4af44]
@startuml
 left to right direction

actor JavaParser as actor1585824283

	rectangle makeASTList{
	 usecase size as UC172
	actor1585824283- -UC172
	}
actor size as actor1479446866
UC172- -actor1479446866

	rectangle makeFileList{
	 usecase add as UC173
	actor1585824283- -UC173
	}
actor add as actor1479446866
UC173- -actor1479446866

	rectangle init{
	 usecase printStackTrace as UC174
	actor1585824283- -UC174
	 usecase append as UC175
	actor1585824283- -UC175
	 usecase read as UC176
	actor1585824283- -UC176
	 usecase close as UC177
	actor1585824283- -UC177
	 usecase newParser as UC178
	actor1585824283- -UC178
	 usecase setKind as UC179
	actor1585824283- -UC179
	 usecase setSource as UC180
	actor1585824283- -UC180
	 usecase toCharArray as UC181
	actor1585824283- -UC181
	 usecase toString as UC182
	actor1585824283- -UC182
	 usecase setStatementsRecovery as UC183
	actor1585824283- -UC183
	 usecase setBindingsRecovery as UC184
	actor1585824283- -UC184
	 usecase setResolveBindings as UC185
	actor1585824283- -UC185
	 usecase setComplianceOptions as UC186
	actor1585824283- -UC186
	 usecase setCompilerOptions as UC187
	actor1585824283- -UC187
	}
actor setCompilerOptions as actor1297189990
UC187- -actor1297189990
actor setComplianceOptions as actor622690269
UC186- -actor622690269
actor setResolveBindings as actor1297189990
UC185- -actor1297189990
actor setBindingsRecovery as actor1297189990
UC184- -actor1297189990
actor setStatementsRecovery as actor1297189990
UC183- -actor1297189990
actor toString as actor652803980
UC182- -actor652803980
actor toCharArray as actor1092591822
UC181- -actor1092591822
actor setSource as actor1297189990
UC180- -actor1297189990
actor setKind as actor1297189990
UC179- -actor1297189990
actor newParser as actor1297189990
UC178- -actor1297189990
actor close as actor990994954
UC177- -actor990994954
actor read as actor40626598
UC176- -actor40626598
actor append as actor652803980
UC175- -actor652803980
actor printStackTrace as actor833272193
UC174- -actor833272193

	rectangle main{
	 usecase println as UC188
	actor1585824283- -UC188
	}
actor println as actor2131723476
UC188- -actor2131723476


@enduml

PlantUML version 1.2020.19(Tue Oct 13 00:10:01 KST 2020)
(APACHE source distribution)
Java Runtime: Java(TM) SE Runtime Environment
JVM: Java HotSpot(TM) 64-Bit Server VM
Default Encoding: MS949
Language: ko
Country: KR
--></g></svg>