<?xml version="1.0" encoding="UTF-8" standalone="no"?><svg xmlns="http://www.w3.org/2000/svg" xmlns:xlink="http://www.w3.org/1999/xlink" contentScriptType="application/ecmascript" contentStyleType="text/css" height="213px" preserveAspectRatio="none" style="width:352px;height:213px;" version="1.1" viewBox="0 0 352 213" width="352px" zoomAndPan="magnify"><defs><filter height="300%" id="fqbcfjapil4qw" width="300%" x="-1" y="-1"><feGaussianBlur result="blurOut" stdDeviation="2.0"/><feColorMatrix in="blurOut" result="blurOut2" type="matrix" values="0 0 0 0 0 0 0 0 0 0 0 0 0 0 0 0 0 0 .4 0"/><feOffset dx="4.0" dy="4.0" in="blurOut2" result="blurOut3"/><feBlend in="SourceGraphic" in2="blurOut3" mode="normal"/></filter></defs><g><!--MD5=[a70b0d373322012744ecc119c63f921b]
cluster main--><rect fill="#FFFFFF" filter="url(#fqbcfjapil4qw)" height="156" style="stroke: #000000; stroke-width: 1.5;" width="145" x="80" y="17.5"/><text fill="#000000" font-family="sans-serif" font-size="14" font-weight="bold" lengthAdjust="spacingAndGlyphs" textLength="33" x="136" y="35.6533">main</text><ellipse cx="152.7401" cy="72.5973" fill="#FEFECE" filter="url(#fqbcfjapil4qw)" rx="56.7401" ry="16.5973" style="stroke: #A80036; stroke-width: 1.5;"/><text fill="#000000" font-family="sans-serif" font-size="14" lengthAdjust="spacingAndGlyphs" textLength="76" x="114.7401" y="78.7121">addDataList</text><ellipse cx="152.5772" cy="140.5973" fill="#FEFECE" filter="url(#fqbcfjapil4qw)" rx="30.5772" ry="16.5973" style="stroke: #A80036; stroke-width: 1.5;"/><text fill="#000000" font-family="sans-serif" font-size="14" lengthAdjust="spacingAndGlyphs" textLength="39" x="133.0772" y="146.7121">println</text><!--MD5=[6bf4c339456388a6d0597c17932f6df6]
entity actor1105129521--><ellipse cx="21" cy="74" fill="#FEFECE" filter="url(#fqbcfjapil4qw)" rx="8" ry="8" style="stroke: #A80036; stroke-width: 1.5;"/><path d="M21,82 L21,109 M8,90 L34,90 M21,109 L8,124 M21,109 L34,124 " fill="none" filter="url(#fqbcfjapil4qw)" style="stroke: #A80036; stroke-width: 1.5;"/><text fill="#000000" font-family="sans-serif" font-size="14" lengthAdjust="spacingAndGlyphs" textLength="30" x="6" y="145.6533">Main</text><!--MD5=[b7e9d3a6f28f121b3b9275e7322962cf]
entity actor2131723476--><ellipse cx="307" cy="133" fill="#FEFECE" filter="url(#fqbcfjapil4qw)" rx="8" ry="8" style="stroke: #A80036; stroke-width: 1.5;"/><path d="M307,141 L307,168 M294,149 L320,149 M307,168 L294,183 M307,168 L320,183 " fill="none" filter="url(#fqbcfjapil4qw)" style="stroke: #A80036; stroke-width: 1.5;"/><text fill="#000000" font-family="sans-serif" font-size="14" lengthAdjust="spacingAndGlyphs" textLength="39" x="287.5" y="204.6533">println</text><!--MD5=[1e0fd7e2dc12f210d3de43f7e62dec28]
entity actor954742840--><ellipse cx="307" cy="14" fill="#FEFECE" filter="url(#fqbcfjapil4qw)" rx="8" ry="8" style="stroke: #A80036; stroke-width: 1.5;"/><path d="M307,22 L307,49 M294,30 L320,30 M307,49 L294,64 M307,49 L320,64 " fill="none" filter="url(#fqbcfjapil4qw)" style="stroke: #A80036; stroke-width: 1.5;"/><text fill="#000000" font-family="sans-serif" font-size="14" lengthAdjust="spacingAndGlyphs" textLength="76" x="269" y="85.6533">addDataList</text><!--MD5=[46e1506b04d92831677bcf4b4d26bee3]
link actor1105129521 to UC61--><path d="M36.11,102.8 C53.67,98.18 84.47,90.1 109.83,83.44 " fill="none" id="actor1105129521-UC61" style="stroke: #A80036; stroke-width: 1.0;"/><!--MD5=[98bc26c82c0d941fba74ba156b789196]
link actor1105129521 to UC62--><path d="M36.11,110.2 C57.34,115.78 97.91,126.43 124.84,133.5 " fill="none" id="actor1105129521-UC62" style="stroke: #A80036; stroke-width: 1.0;"/><!--MD5=[2b3475453a7560b7d6413edaa7f72805]
link UC62 to actor2131723476--><path d="M181.83,145.14 C212.66,150.2 261.09,158.14 287.43,162.46 " fill="none" id="UC62-actor2131723476" style="stroke: #A80036; stroke-width: 1.0;"/><!--MD5=[957755f262b9505f2a5e02ee25588176]
link UC61 to actor954742840--><path d="M201.75,64.27 C223.39,60.58 248.53,56.3 268.69,52.86 " fill="none" id="UC61-actor954742840" style="stroke: #A80036; stroke-width: 1.0;"/><!--MD5=[369c62ac39b72b83504f737d764273a4]
@startuml
 left to right direction

actor Main as actor1105129521

	rectangle main{
	 usecase addDataList as UC61
	actor1105129521- -UC61
	 usecase println as UC62
	actor1105129521- -UC62
	}
actor println as actor2131723476
UC62- -actor2131723476
actor addDataList as actor954742840
UC61- -actor954742840


@enduml

PlantUML version 1.2020.19(Tue Oct 13 00:10:01 KST 2020)
(APACHE source distribution)
Java Runtime: Java(TM) SE Runtime Environment
JVM: Java HotSpot(TM) 64-Bit Server VM
Default Encoding: MS949
Language: ko
Country: KR
--></g></svg>