<?xml version="1.0" encoding="UTF-8" standalone="no"?><svg xmlns="http://www.w3.org/2000/svg" xmlns:xlink="http://www.w3.org/1999/xlink" contentScriptType="application/ecmascript" contentStyleType="text/css" height="434px" preserveAspectRatio="none" style="width:213px;height:434px;" version="1.1" viewBox="0 0 213 434" width="213px" zoomAndPan="magnify"><defs><filter height="300%" id="fsn2q1edffemc" width="300%" x="-1" y="-1"><feGaussianBlur result="blurOut" stdDeviation="2.0"/><feColorMatrix in="blurOut" result="blurOut2" type="matrix" values="0 0 0 0 0 0 0 0 0 0 0 0 0 0 0 0 0 0 .4 0"/><feOffset dx="4.0" dy="4.0" in="blurOut2" result="blurOut3"/><feBlend in="SourceGraphic" in2="blurOut3" mode="normal"/></filter></defs><g><!--MD5=[a191f3fbcfa2575f1905b11423a4aa53]
cluster forMidEx.Game--><polygon fill="#FFFFFF" filter="url(#fsn2q1edffemc)" points="16,6,129,6,136,31.2295,196,31.2295,196,427,16,427,16,6" style="stroke: #000000; stroke-width: 1.5;"/><line style="stroke: #000000; stroke-width: 1.5;" x1="16" x2="136" y1="31.2295" y2="31.2295"/><text fill="#000000" font-family="sans-serif" font-size="14" font-weight="bold" lengthAdjust="spacingAndGlyphs" textLength="107" x="20" y="24.1533">forMidEx.Game</text><!--MD5=[a9ac0d5c9c55e4d606c4656688590d73]
class forMidEx.Game.diecLotto(int[])--><rect codeLine="1" fill="#FEFECE" filter="url(#fsn2q1edffemc)" height="365.2866" id="forMidEx.Game.diecLotto(int[])" style="stroke: #A80036; stroke-width: 1.5;" width="148" x="32" y="45.5"/><ellipse cx="64.55" cy="61.5" fill="#ADD1B2" rx="11" ry="11" style="stroke: #A80036; stroke-width: 1.0;"/><path d="M64.1125,55.0156 Q61.3781,55.0156 60.3,56.6406 Q59.1594,58.3594 59.1594,61.2813 Q59.1594,64.5781 60.3156,66.2813 Q61.3,67.7813 63.9094,67.7813 Q65.4875,67.7813 66.3625,66.9531 Q67.3469,66 67.4875,63.875 Q67.4875,63.5781 67.3156,63.4063 Q67.1906,63.25 66.9719,63.2344 Q65.7531,63.2344 65.5969,63.3594 Q65.425,63.5156 65.425,63.7813 Q65.3938,65.2656 64.7375,66.0781 Q64.1281,66.875 64.05,66.875 Q62.7219,66.875 61.9406,65.2813 Q61.1906,63.7344 61.1906,61.25 Q61.1906,58.625 62.1281,57.1719 Q62.9563,55.9219 64.2375,55.9219 Q64.2375,55.9219 64.5813,56.5469 Q65.2063,57.2188 65.3469,58.375 Q65.4563,58.9531 66.925,58.7344 Q67.4563,58.6563 67.425,58.2344 Q67.2531,56.7969 66.5344,55.9844 Q65.675,55.0156 64.1125,55.0156 Z "/><text fill="#000000" font-family="sans-serif" font-size="12" lengthAdjust="spacingAndGlyphs" textLength="77" x="82.45" y="67.1045">diecLotto(int[])</text><line style="stroke: #A80036; stroke-width: 1.5;" x1="33" x2="179" y1="77.5" y2="77.5"/><line style="stroke: #A80036; stroke-width: 1.5;" x1="33" x2="86" y1="93.0544" y2="93.0544"/><text fill="#008000" font-family="sans-serif" font-size="11" font-weight="bold" lengthAdjust="spacingAndGlyphs" textLength="40" x="86" y="97.6919">has list</text><line style="stroke: #A80036; stroke-width: 1.5;" x1="126" x2="179" y1="93.0544" y2="93.0544"/><line style="stroke: #A80036; stroke-width: 1.0; stroke-dasharray: 1.0,2.0;" x1="33" x2="93" y1="115.7178" y2="115.7178"/><text fill="#000000" font-family="sans-serif" font-size="11" lengthAdjust="spacingAndGlyphs" textLength="26" x="93" y="120.3552">class</text><line style="stroke: #A80036; stroke-width: 1.0; stroke-dasharray: 1.0,2.0;" x1="119" x2="179" y1="115.7178" y2="115.7178"/><text fill="#000000" font-family="sans-serif" font-size="11" lengthAdjust="spacingAndGlyphs" textLength="116" x="38" y="158.6274">int target (1742920067);</text><text fill="#000000" font-family="sans-serif" font-size="11" lengthAdjust="spacingAndGlyphs" textLength="107" x="38" y="173.7363">int[] list (1564984895);</text><text fill="#000000" font-family="sans-serif" font-size="11" lengthAdjust="spacingAndGlyphs" textLength="106" x="38" y="188.8452">int ans (1587819720);</text><line style="stroke: #A80036; stroke-width: 1.0; stroke-dasharray: 1.0,2.0;" x1="33" x2="87" y1="138.3811" y2="138.3811"/><text fill="#000000" font-family="sans-serif" font-size="11" lengthAdjust="spacingAndGlyphs" textLength="38" x="87" y="143.0186">member</text><line style="stroke: #A80036; stroke-width: 1.0; stroke-dasharray: 1.0,2.0;" x1="125" x2="179" y1="138.3811" y2="138.3811"/><line style="stroke: #A80036; stroke-width: 1.0; stroke-dasharray: 1.0,2.0;" x1="33" x2="88.5" y1="202.8167" y2="202.8167"/><text fill="#000000" font-family="sans-serif" font-size="11" lengthAdjust="spacingAndGlyphs" textLength="35" x="88.5" y="207.4541">method</text><line style="stroke: #A80036; stroke-width: 1.0; stroke-dasharray: 1.0,2.0;" x1="123.5" x2="179" y1="202.8167" y2="202.8167"/><line style="stroke: #A80036; stroke-width: 1.5;" x1="33" x2="78.5" y1="225.48" y2="225.48"/><text fill="#0000FF" font-family="sans-serif" font-size="11" font-weight="bold" lengthAdjust="spacingAndGlyphs" textLength="55" x="78.5" y="230.1174">calling list</text><line style="stroke: #A80036; stroke-width: 1.5;" x1="133.5" x2="179" y1="225.48" y2="225.48"/><line style="stroke: #A80036; stroke-width: 1.0; stroke-dasharray: 1.0,2.0;" x1="33" x2="93" y1="248.1433" y2="248.1433"/><text fill="#000000" font-family="sans-serif" font-size="11" lengthAdjust="spacingAndGlyphs" textLength="26" x="93" y="252.7808">class</text><line style="stroke: #A80036; stroke-width: 1.0; stroke-dasharray: 1.0,2.0;" x1="119" x2="179" y1="248.1433" y2="248.1433"/><text fill="#000000" font-family="sans-serif" font-size="11" lengthAdjust="spacingAndGlyphs" textLength="136" x="38" y="291.053">int gameCount (360067785);</text><line style="stroke: #A80036; stroke-width: 1.0; stroke-dasharray: 1.0,2.0;" x1="33" x2="87" y1="270.8066" y2="270.8066"/><text fill="#000000" font-family="sans-serif" font-size="11" lengthAdjust="spacingAndGlyphs" textLength="38" x="87" y="275.4441">member</text><line style="stroke: #A80036; stroke-width: 1.0; stroke-dasharray: 1.0,2.0;" x1="125" x2="179" y1="270.8066" y2="270.8066"/><line style="stroke: #A80036; stroke-width: 1.0; stroke-dasharray: 1.0,2.0;" x1="33" x2="88.5" y1="305.0244" y2="305.0244"/><text fill="#000000" font-family="sans-serif" font-size="11" lengthAdjust="spacingAndGlyphs" textLength="35" x="88.5" y="309.6619">method</text><line style="stroke: #A80036; stroke-width: 1.0; stroke-dasharray: 1.0,2.0;" x1="123.5" x2="179" y1="305.0244" y2="305.0244"/><line style="stroke: #A80036; stroke-width: 1.5;" x1="33" x2="72" y1="327.6877" y2="327.6877"/><text fill="#FFA500" font-family="sans-serif" font-size="11" font-weight="bold" lengthAdjust="spacingAndGlyphs" textLength="68" x="72" y="332.3252">called by list</text><line style="stroke: #A80036; stroke-width: 1.5;" x1="140" x2="179" y1="327.6877" y2="327.6877"/><line style="stroke: #A80036; stroke-width: 1.0; stroke-dasharray: 1.0,2.0;" x1="33" x2="93" y1="350.3511" y2="350.3511"/><text fill="#000000" font-family="sans-serif" font-size="11" lengthAdjust="spacingAndGlyphs" textLength="26" x="93" y="354.9885">class</text><line style="stroke: #A80036; stroke-width: 1.0; stroke-dasharray: 1.0,2.0;" x1="119" x2="179" y1="350.3511" y2="350.3511"/><line style="stroke: #A80036; stroke-width: 1.0; stroke-dasharray: 1.0,2.0;" x1="33" x2="87" y1="373.0144" y2="373.0144"/><text fill="#000000" font-family="sans-serif" font-size="11" lengthAdjust="spacingAndGlyphs" textLength="38" x="87" y="377.6519">member</text><line style="stroke: #A80036; stroke-width: 1.0; stroke-dasharray: 1.0,2.0;" x1="125" x2="179" y1="373.0144" y2="373.0144"/><line style="stroke: #A80036; stroke-width: 1.0; stroke-dasharray: 1.0,2.0;" x1="33" x2="88.5" y1="395.6777" y2="395.6777"/><text fill="#000000" font-family="sans-serif" font-size="11" lengthAdjust="spacingAndGlyphs" textLength="35" x="88.5" y="400.3152">method</text><line style="stroke: #A80036; stroke-width: 1.0; stroke-dasharray: 1.0,2.0;" x1="123.5" x2="179" y1="395.6777" y2="395.6777"/><!--MD5=[6e1751cd4fc3ec13829e941a6bd22df3]
@startuml
class forMidEx.Game.diecLotto(int[]){
__**<color:green>has list</color>**__
..class..
..member..
	int target (1742920067);
	int[] list (1564984895);
	int ans (1587819720);
..method..
__**<color:blue>calling list</color>**__
..class..
..member..
	int gameCount (360067785);
..method..
__**<color:orange>called by list</color>**__
..class..
..member..
..method..
}

@enduml

PlantUML version 1.2020.19(Tue Oct 13 00:10:01 KST 2020)
(APACHE source distribution)
Java Runtime: Java(TM) SE Runtime Environment
JVM: Java HotSpot(TM) 64-Bit Server VM
Default Encoding: MS949
Language: ko
Country: KR
--></g></svg>