<?xml version="1.0" encoding="UTF-8" standalone="no"?><svg xmlns="http://www.w3.org/2000/svg" xmlns:xlink="http://www.w3.org/1999/xlink" contentScriptType="application/ecmascript" contentStyleType="text/css" height="666px" preserveAspectRatio="none" style="width:408px;height:666px;" version="1.1" viewBox="0 0 408 666" width="408px" zoomAndPan="magnify"><defs><filter height="300%" id="f1meghsm24x5lw" width="300%" x="-1" y="-1"><feGaussianBlur result="blurOut" stdDeviation="2.0"/><feColorMatrix in="blurOut" result="blurOut2" type="matrix" values="0 0 0 0 0 0 0 0 0 0 0 0 0 0 0 0 0 0 .4 0"/><feOffset dx="4.0" dy="4.0" in="blurOut2" result="blurOut3"/><feBlend in="SourceGraphic" in2="blurOut3" mode="normal"/></filter></defs><g><!--MD5=[3df72e327fda6a9c75e1d3c13478bbff]
cluster addHas--><rect fill="#FFFFFF" filter="url(#f1meghsm24x5lw)" height="87" style="stroke: #000000; stroke-width: 1.5;" width="114" x="137" y="7"/><text fill="#000000" font-family="sans-serif" font-size="14" font-weight="bold" lengthAdjust="spacingAndGlyphs" textLength="52" x="168" y="25.1533">addHas</text><!--MD5=[89e6df34a40fd0f881e4a85c208f9fb2]
cluster addCallBy--><rect fill="#FFFFFF" filter="url(#f1meghsm24x5lw)" height="87" style="stroke: #000000; stroke-width: 1.5;" width="130" x="129" y="118"/><text fill="#000000" font-family="sans-serif" font-size="14" font-weight="bold" lengthAdjust="spacingAndGlyphs" textLength="69" x="159.5" y="136.1533">addCallBy</text><!--MD5=[e72b28ea75be9a6e9901756f23061282]
cluster addCall--><rect fill="#FFFFFF" filter="url(#f1meghsm24x5lw)" height="87" style="stroke: #000000; stroke-width: 1.5;" width="106" x="141" y="229"/><text fill="#000000" font-family="sans-serif" font-size="14" font-weight="bold" lengthAdjust="spacingAndGlyphs" textLength="52" x="168" y="247.1533">addCall</text><!--MD5=[2ed68a8df47df60ed763f499b5bc43b2]
cluster addImage--><rect fill="#FFFFFF" filter="url(#f1meghsm24x5lw)" height="87" style="stroke: #000000; stroke-width: 1.5;" width="85" x="152" y="564"/><text fill="#000000" font-family="sans-serif" font-size="14" font-weight="bold" lengthAdjust="spacingAndGlyphs" textLength="68" x="160.5" y="582.1533">addImage</text><!--MD5=[a1eef7bbc55d6e115a3736b1cb383f24]
cluster getSrcName--><rect fill="#FFFFFF" filter="url(#f1meghsm24x5lw)" height="87" style="stroke: #000000; stroke-width: 1.5;" width="148" x="120" y="340"/><text fill="#000000" font-family="sans-serif" font-size="14" font-weight="bold" lengthAdjust="spacingAndGlyphs" textLength="85" x="151.5" y="358.1533">getSrcName</text><!--MD5=[c34a5b0034f574704b03ebcea5fc6794]
cluster getPackageName--><rect fill="#FFFFFF" filter="url(#f1meghsm24x5lw)" height="89" style="stroke: #000000; stroke-width: 1.5;" width="186" x="101" y="451"/><text fill="#000000" font-family="sans-serif" font-size="14" font-weight="bold" lengthAdjust="spacingAndGlyphs" textLength="121" x="133.5" y="469.1533">getPackageName</text><ellipse cx="194.1838" cy="62.0973" fill="#FEFECE" filter="url(#f1meghsm24x5lw)" rx="41.1838" ry="16.5973" style="stroke: #A80036; stroke-width: 1.5;"/><text fill="#000000" font-family="sans-serif" font-size="14" lengthAdjust="spacingAndGlyphs" textLength="54" x="167.1838" y="68.2121">addData</text><ellipse cx="194.2548" cy="173.0973" fill="#FEFECE" filter="url(#f1meghsm24x5lw)" rx="48.2548" ry="16.5973" style="stroke: #A80036; stroke-width: 1.5;"/><text fill="#000000" font-family="sans-serif" font-size="14" lengthAdjust="spacingAndGlyphs" textLength="64" x="162.2548" y="179.2121">addCallBy</text><ellipse cx="193.9411" cy="284.0973" fill="#FEFECE" filter="url(#f1meghsm24x5lw)" rx="36.9411" ry="16.5973" style="stroke: #A80036; stroke-width: 1.5;"/><text fill="#000000" font-family="sans-serif" font-size="14" lengthAdjust="spacingAndGlyphs" textLength="48" x="169.9411" y="290.2121">addCall</text><ellipse cx="193.9836" cy="619.0869" fill="#FEFECE" filter="url(#f1meghsm24x5lw)" rx="19.9836" ry="16.5869" style="stroke: #A80036; stroke-width: 1.5;"/><text fill="#000000" font-family="sans-serif" font-size="14" lengthAdjust="spacingAndGlyphs" textLength="24" x="181.9836" y="625.2016">add</text><ellipse cx="194.4472" cy="395.0973" fill="#FEFECE" filter="url(#f1meghsm24x5lw)" rx="57.4472" ry="16.5973" style="stroke: #A80036; stroke-width: 1.5;"/><text fill="#000000" font-family="sans-serif" font-size="14" lengthAdjust="spacingAndGlyphs" textLength="77" x="155.9472" y="401.2121">getSrcName</text><ellipse cx="194.4257" cy="507.1851" fill="#FEFECE" filter="url(#f1meghsm24x5lw)" rx="76.4257" ry="17.6851" style="stroke: #A80036; stroke-width: 1.5;"/><text fill="#000000" font-family="sans-serif" font-size="14" lengthAdjust="spacingAndGlyphs" textLength="111" x="138.9257" y="513.2999">getPackageName</text><!--MD5=[7e98fb6c63a3f8812a1e24aa3667afb9]
entity actor444096469--><ellipse cx="31.5" cy="140.5" fill="#FEFECE" filter="url(#f1meghsm24x5lw)" rx="8" ry="8" style="stroke: #A80036; stroke-width: 1.5;"/><path d="M31.5,148.5 L31.5,175.5 M18.5,156.5 L44.5,156.5 M31.5,175.5 L18.5,190.5 M31.5,175.5 L44.5,190.5 " fill="none" filter="url(#f1meghsm24x5lw)" style="stroke: #A80036; stroke-width: 1.5;"/><text fill="#000000" font-family="sans-serif" font-size="14" lengthAdjust="spacingAndGlyphs" textLength="51" x="6" y="212.1533">Member</text><!--MD5=[2b800408cb2cdbeba4cee5b54d06b786]
entity actor1528099970--><ellipse cx="366" cy="29.5" fill="#FEFECE" filter="url(#f1meghsm24x5lw)" rx="8" ry="8" style="stroke: #A80036; stroke-width: 1.5;"/><path d="M366,37.5 L366,64.5 M353,45.5 L379,45.5 M366,64.5 L353,79.5 M366,64.5 L379,79.5 " fill="none" filter="url(#f1meghsm24x5lw)" style="stroke: #A80036; stroke-width: 1.5;"/><text fill="#000000" font-family="sans-serif" font-size="14" lengthAdjust="spacingAndGlyphs" textLength="52" x="340" y="101.1533">DataList</text><!--MD5=[662fbe8328652735fce5328a5367bfc1]
entity actor1785570426--><ellipse cx="366.5" cy="251.5" fill="#FEFECE" filter="url(#f1meghsm24x5lw)" rx="8" ry="8" style="stroke: #A80036; stroke-width: 1.5;"/><path d="M366.5,259.5 L366.5,286.5 M353.5,267.5 L379.5,267.5 M366.5,286.5 L353.5,301.5 M366.5,286.5 L379.5,301.5 " fill="none" filter="url(#f1meghsm24x5lw)" style="stroke: #A80036; stroke-width: 1.5;"/><text fill="#000000" font-family="sans-serif" font-size="14" lengthAdjust="spacingAndGlyphs" textLength="69" x="332" y="323.1533">Data_base</text><!--MD5=[b8cdde3df73f4298fd171ae207d79fef]
entity actor1538456363--><ellipse cx="366" cy="586.5" fill="#FEFECE" filter="url(#f1meghsm24x5lw)" rx="8" ry="8" style="stroke: #A80036; stroke-width: 1.5;"/><path d="M366,594.5 L366,621.5 M353,602.5 L379,602.5 M366,621.5 L353,636.5 M366,621.5 L379,636.5 " fill="none" filter="url(#f1meghsm24x5lw)" style="stroke: #A80036; stroke-width: 1.5;"/><text fill="#000000" font-family="sans-serif" font-size="14" lengthAdjust="spacingAndGlyphs" textLength="56" x="338" y="658.1533">ArrayList</text><!--MD5=[ba376aef408b821efef03811da7520e4]
link actor444096469 to UC1138992016--><path d="M56.8278,175.201 C95.2488,159.895 165.289,109.37 187.237,77.91 " fill="none" id="actor444096469-UC1138992016" style="stroke: #A80036; stroke-width: 1.0;"/><!--MD5=[ba376aef408b821efef03811da7520e4]
link actor444096469 to UC1138992016--><path d="M56.8278,155.412 C89.1446,133.405 143.832,96.164 173.454,75.991 " fill="none" id="actor444096469-UC1138992016-1" style="stroke: #A80036; stroke-width: 1.0;"/><!--MD5=[ba376aef408b821efef03811da7520e4]
link actor444096469 to UC1138992016--><path d="M56.8278,135.622 C83.0403,110.364 123.97,81.454 154.305,66.13 " fill="none" id="actor444096469-UC1138992016-2" style="stroke: #A80036; stroke-width: 1.0;"/><!--MD5=[b4257903b53b70770290f44bb17b39f4]
link UC1138992016 to actor1528099970--><path d="M207.785,77.079 C236.403,90.306 302.674,91.787 339.726,81.523 " fill="none" id="UC1138992016-actor1528099970" style="stroke: #A80036; stroke-width: 1.0;"/><!--MD5=[b4257903b53b70770290f44bb17b39f4]
link UC1138992016 to actor1528099970--><path d="M235.198,62 C267.697,62 312.038,62 339.838,62 " fill="none" id="UC1138992016-actor1528099970-1" style="stroke: #A80036; stroke-width: 1.0;"/><!--MD5=[b4257903b53b70770290f44bb17b39f4]
link UC1138992016 to actor1528099970--><path d="M207.785,46.921 C236.403,33.694 302.674,32.213 339.726,42.477 " fill="none" id="UC1138992016-actor1528099970-2" style="stroke: #A80036; stroke-width: 1.0;"/><!--MD5=[1aa4e13ed1285667aec27ac78c5ec503]
link actor444096469 to UC1152029154--><path d="M56.8278,182.612 C84.1175,186.358 127.359,186.75 157.989,183.789 " fill="none" id="actor444096469-UC1152029154" style="stroke: #A80036; stroke-width: 1.0;"/><!--MD5=[1aa4e13ed1285667aec27ac78c5ec503]
link actor444096469 to UC1152029154--><path d="M56.8278,162.822 C84.5664,158.791 128.786,158.428 159.49,161.734 " fill="none" id="actor444096469-UC1152029154-1" style="stroke: #A80036; stroke-width: 1.0;"/><!--MD5=[b6018625c6dd7303ca6a0891f5c4693d]
link UC1152029154 to actor1785570426--><path d="M206.928,188.471 C233.1,211.507 293.123,251.35 331.495,272.182 " fill="none" id="UC1152029154-actor1785570426" style="stroke: #A80036; stroke-width: 1.0;"/><!--MD5=[b6018625c6dd7303ca6a0891f5c4693d]
link UC1152029154 to actor1785570426--><path d="M228.807,184.365 C258.648,200.418 301.419,228.022 331.245,250.479 " fill="none" id="UC1152029154-actor1785570426-1" style="stroke: #A80036; stroke-width: 1.0;"/><!--MD5=[bd3e5ea3e5647498b6fd76da74bc8e07]
link actor444096469 to UC1356614113--><path d="M56.8278,190.588 C89.3241,212.718 144.44,250.251 173.945,270.343 " fill="none" id="actor444096469-UC1356614113" style="stroke: #A80036; stroke-width: 1.0;"/><!--MD5=[0c9a6df5cc86a6e7c60a2424f6635803]
link UC1356614113 to actor1785570426--><path d="M231.321,284 C261.061,284 302.38,284 331.386,284 " fill="none" id="UC1356614113-actor1785570426" style="stroke: #A80036; stroke-width: 1.0;"/><!--MD5=[9c619d575ea6726afa09ea1eb6304dc9]
link actor444096469 to UC2030748640--><path d="M34.2806,215.064 C41.4668,299.368 60.5949,485.594 93,540 C113.163,573.8531 153.727,598.659 176.842,610.7452 " fill="none" id="actor444096469-UC2030748640" style="stroke: #A80036; stroke-width: 1.0;"/><!--MD5=[7a3d259757281e358966309a33b62add]
link UC2030748640 to actor1538456363--><path d="M214.067,619 C244.64,619 302.995,619 337.811,619 " fill="none" id="UC2030748640-actor1538456363" style="stroke: #A80036; stroke-width: 1.0;"/><!--MD5=[a9bc7523053bf8a8af04d26ae3b61566]
link actor444096469 to UC150180388--><path d="M43.0604,215.05 C53.1109,245.213 69.583,285.706 93,316 C114.103,343.3 146.677,366.502 169.096,380.561 " fill="none" id="actor444096469-UC150180388" style="stroke: #A80036; stroke-width: 1.0;"/><!--MD5=[94838471981e63312669bbf2b28f240d]
link UC150180388 to actor1785570426--><path d="M216.84,380.26 C246.174,361.33 297.356,328.299 331.461,306.29 " fill="none" id="UC150180388-actor1785570426" style="stroke: #A80036; stroke-width: 1.0;"/><!--MD5=[ce10c4153258f59f332bb91e942ee712]
link actor444096469 to UC133579455--><path d="M37.8688,215.167 C48.6529,277.892 70.6429,392.132 93,427 C110.869,454.869 141.834,477.253 164.781,491.179 " fill="none" id="actor444096469-UC133579455" style="stroke: #A80036; stroke-width: 1.0;"/><!--MD5=[a221f3ec7606c404f56897fe5e36c7d8]
link UC133579455 to actor1785570426--><path d="M220.305,490.911 C242.419,476.363 273.738,453.246 295,427 C319.601,396.632 338.641,356.336 350.783,326.26 " fill="none" id="UC133579455-actor1785570426" style="stroke: #A80036; stroke-width: 1.0;"/><!--MD5=[20dbb76ab959b0dce4d3d9ff66109a51]
@startuml
 left to right direction

actor Member as actor444096469

	rectangle addHas{
	 usecase addData as UC1138992016
	actor444096469- -UC1138992016
	}
	actor DataList as actor1528099970
	 UC1138992016 - - actor1528099970
	rectangle addCallBy{
	 usecase addData as UC1138992016
	actor444096469- -UC1138992016
	 usecase addCallBy as UC1152029154
	actor444096469- -UC1152029154
	}
	actor Data_base as actor1785570426
	 UC1152029154 - - actor1785570426
	actor DataList as actor1528099970
	 UC1138992016 - - actor1528099970
	rectangle addCall{
	 usecase addData as UC1138992016
	actor444096469- -UC1138992016
	 usecase addCall as UC1356614113
	actor444096469- -UC1356614113
	 usecase addCallBy as UC1152029154
	actor444096469- -UC1152029154
	}
	actor Data_base as actor1785570426
	 UC1152029154 - - actor1785570426
	actor Data_base as actor1785570426
	 UC1356614113 - - actor1785570426
	actor DataList as actor1528099970
	 UC1138992016 - - actor1528099970
	rectangle addImage{
	 usecase add as UC2030748640
	actor444096469- -UC2030748640
	}
	actor ArrayList as actor1538456363
	 UC2030748640 - - actor1538456363
	rectangle getSrcName{
	 usecase getSrcName as UC150180388
	actor444096469- -UC150180388
	}
	actor Data_base as actor1785570426
	 UC150180388 - - actor1785570426
	rectangle getPackageName{
	 usecase getPackageName as UC133579455
	actor444096469- -UC133579455
	}
	actor Data_base as actor1785570426
	 UC133579455 - - actor1785570426

@enduml

PlantUML version 1.2020.19(Tue Oct 13 00:10:01 KST 2020)
(APACHE source distribution)
Java Runtime: Java(TM) SE Runtime Environment
JVM: Java HotSpot(TM) 64-Bit Server VM
Default Encoding: MS949
Language: ko
Country: KR
--></g></svg>