<?xml version="1.0" encoding="UTF-8" standalone="no"?><svg xmlns="http://www.w3.org/2000/svg" xmlns:xlink="http://www.w3.org/1999/xlink" contentScriptType="application/ecmascript" contentStyleType="text/css" height="332px" preserveAspectRatio="none" style="width:312px;height:332px;" version="1.1" viewBox="0 0 312 332" width="312px" zoomAndPan="magnify"><defs><filter height="300%" id="fd2j0fvoj4gly" width="300%" x="-1" y="-1"><feGaussianBlur result="blurOut" stdDeviation="2.0"/><feColorMatrix in="blurOut" result="blurOut2" type="matrix" values="0 0 0 0 0 0 0 0 0 0 0 0 0 0 0 0 0 0 .4 0"/><feOffset dx="4.0" dy="4.0" in="blurOut2" result="blurOut3"/><feBlend in="SourceGraphic" in2="blurOut3" mode="normal"/></filter></defs><g><!--MD5=[c2e91a5afc248ef1801ed01e98408fb8]
cluster buy--><rect fill="#FFFFFF" filter="url(#fd2j0fvoj4gly)" height="156" style="stroke: #000000; stroke-width: 1.5;" width="126" x="79" y="42.5"/><text fill="#000000" font-family="sans-serif" font-size="14" font-weight="bold" lengthAdjust="spacingAndGlyphs" textLength="25" x="129.5" y="60.6533">buy</text><!--MD5=[5f180a29fb049b84e12435f0625f51c9]
cluster chckPwd--><rect fill="#FFFFFF" filter="url(#fd2j0fvoj4gly)" height="88" style="stroke: #000000; stroke-width: 1.5;" width="97" x="93.5" y="225.5"/><text fill="#000000" font-family="sans-serif" font-size="14" font-weight="bold" lengthAdjust="spacingAndGlyphs" textLength="62" x="111" y="243.6533">chckPwd</text><ellipse cx="141.9836" cy="97.5869" fill="#FEFECE" filter="url(#fd2j0fvoj4gly)" rx="19.9836" ry="16.5869" style="stroke: #A80036; stroke-width: 1.5;"/><text fill="#000000" font-family="sans-serif" font-size="14" lengthAdjust="spacingAndGlyphs" textLength="24" x="129.9836" y="103.7016">add</text><ellipse cx="141.8406" cy="165.5973" fill="#FEFECE" filter="url(#fd2j0fvoj4gly)" rx="46.8406" ry="16.5973" style="stroke: #A80036; stroke-width: 1.5;"/><text fill="#000000" font-family="sans-serif" font-size="14" lengthAdjust="spacingAndGlyphs" textLength="62" x="110.8406" y="171.7121">getMoney</text><ellipse cx="142.1985" cy="280.5973" fill="#FEFECE" filter="url(#fd2j0fvoj4gly)" rx="32.6985" ry="16.5973" style="stroke: #A80036; stroke-width: 1.5;"/><text fill="#000000" font-family="sans-serif" font-size="14" lengthAdjust="spacingAndGlyphs" textLength="42" x="121.1985" y="286.7121">equals</text><!--MD5=[885db6052bea71ac53296842b51fcc2f]
entity actor1714078840--><ellipse cx="20.5" cy="133" fill="#FEFECE" filter="url(#fd2j0fvoj4gly)" rx="8" ry="8" style="stroke: #A80036; stroke-width: 1.5;"/><path d="M20.5,141 L20.5,168 M7.5,149 L33.5,149 M20.5,168 L7.5,183 M20.5,168 L33.5,183 " fill="none" filter="url(#fd2j0fvoj4gly)" style="stroke: #A80036; stroke-width: 1.5;"/><text fill="#000000" font-family="sans-serif" font-size="14" lengthAdjust="spacingAndGlyphs" textLength="29" x="6" y="204.6533">User</text><!--MD5=[807d5755b27bb55790ae86067c47a3f2]
entity actor1199262943--><ellipse cx="277" cy="133" fill="#FEFECE" filter="url(#fd2j0fvoj4gly)" rx="8" ry="8" style="stroke: #A80036; stroke-width: 1.5;"/><path d="M277,141 L277,168 M264,149 L290,149 M277,168 L264,183 M277,168 L290,183 " fill="none" filter="url(#fd2j0fvoj4gly)" style="stroke: #A80036; stroke-width: 1.5;"/><text fill="#000000" font-family="sans-serif" font-size="14" lengthAdjust="spacingAndGlyphs" textLength="42" x="256" y="204.6533">Goods</text><!--MD5=[82b2166e688fc2c075dea2153eae74c0]
entity actor1051876890--><ellipse cx="277" cy="14" fill="#FEFECE" filter="url(#fd2j0fvoj4gly)" rx="8" ry="8" style="stroke: #A80036; stroke-width: 1.5;"/><path d="M277,22 L277,49 M264,30 L290,30 M277,49 L264,64 M277,49 L290,64 " fill="none" filter="url(#fd2j0fvoj4gly)" style="stroke: #A80036; stroke-width: 1.5;"/><text fill="#000000" font-family="sans-serif" font-size="14" lengthAdjust="spacingAndGlyphs" textLength="56" x="249" y="85.6533">ArrayList</text><!--MD5=[410cff2c644adc8639adbd665b7210bf]
entity actor2009221452--><ellipse cx="277" cy="252" fill="#FEFECE" filter="url(#fd2j0fvoj4gly)" rx="8" ry="8" style="stroke: #A80036; stroke-width: 1.5;"/><path d="M277,260 L277,287 M264,268 L290,268 M277,287 L264,302 M277,287 L290,302 " fill="none" filter="url(#fd2j0fvoj4gly)" style="stroke: #A80036; stroke-width: 1.5;"/><text fill="#000000" font-family="sans-serif" font-size="14" lengthAdjust="spacingAndGlyphs" textLength="37" x="258.5" y="323.6533">String</text><!--MD5=[77fc8630494d7916e8ba86a2f00d2511]
link actor1714078840 to UC1052195003--><path d="M35.01,155.41 C44.76,148.32 58.38,138.84 71,131.5 C88.52,121.31 109.54,111.39 123.94,104.92 " fill="none" id="actor1714078840-UC1052195003" style="stroke: #A80036; stroke-width: 1.0;"/><!--MD5=[48be1901392cfbeb5b1b1eafa237c09c]
link actor1714078840 to UC1541049864--><path d="M35.21,165.5 C49.74,165.5 73.48,165.5 94.8,165.5 " fill="none" id="actor1714078840-UC1541049864" style="stroke: #A80036; stroke-width: 1.0;"/><!--MD5=[39e34191a09cfa05b309e6f85ba72129]
link UC1541049864 to actor1199262943--><path d="M189.14,165.5 C211.95,165.5 238.3,165.5 255.94,165.5 " fill="none" id="UC1541049864-actor1199262943" style="stroke: #A80036; stroke-width: 1.0;"/><!--MD5=[68c2978fd460f59d4febb8edf4a72100]
link UC1052195003 to actor1051876890--><path d="M160.39,90.83 C182.92,82.19 222.45,67.04 248.93,56.88 " fill="none" id="UC1052195003-actor1051876890" style="stroke: #A80036; stroke-width: 1.0;"/><!--MD5=[e7b91bdae0233b20d987950130a570ee]
link actor1714078840 to UC511707818--><path d="M35.21,178.69 C57.77,200.4 102.55,243.5 125.96,266.02 " fill="none" id="actor1714078840-UC511707818" style="stroke: #A80036; stroke-width: 1.0;"/><!--MD5=[56edf2fc5d1301a056334872f1c0108a]
link UC511707818 to actor2009221452--><path d="M174.52,281.45 C200.64,282.23 236.82,283.32 258.18,283.96 " fill="none" id="UC511707818-actor2009221452" style="stroke: #A80036; stroke-width: 1.0;"/><!--MD5=[e1269f3b6f91a3424229f60054ddde54]
@startuml
 left to right direction

actor User as actor1714078840

	rectangle buy{
	 usecase add as UC1052195003
	actor1714078840- -UC1052195003
	 usecase getMoney as UC1541049864
	actor1714078840- -UC1541049864
	}
	actor Goods as actor1199262943
	 UC1541049864 - - actor1199262943
	actor ArrayList as actor1051876890
	 UC1052195003 - - actor1051876890
	rectangle chckPwd{
	 usecase equals as UC511707818
	actor1714078840- -UC511707818
	}
	actor String as actor2009221452
	 UC511707818 - - actor2009221452

@enduml

PlantUML version 1.2020.19(Tue Oct 13 00:10:01 KST 2020)
(APACHE source distribution)
Java Runtime: Java(TM) SE Runtime Environment
JVM: Java HotSpot(TM) 64-Bit Server VM
Default Encoding: MS949
Language: ko
Country: KR
--></g></svg>