<?xml version="1.0" encoding="UTF-8" standalone="no"?><svg xmlns="http://www.w3.org/2000/svg" xmlns:xlink="http://www.w3.org/1999/xlink" contentScriptType="application/ecmascript" contentStyleType="text/css" height="508px" preserveAspectRatio="none" style="width:728px;height:508px;" version="1.1" viewBox="0 0 728 508" width="728px" zoomAndPan="magnify"><defs><filter height="300%" id="fp3zpyf7uu1vi" width="300%" x="-1" y="-1"><feGaussianBlur result="blurOut" stdDeviation="2.0"/><feColorMatrix in="blurOut" result="blurOut2" type="matrix" values="0 0 0 0 0 0 0 0 0 0 0 0 0 0 0 0 0 0 .4 0"/><feOffset dx="4.0" dy="4.0" in="blurOut2" result="blurOut3"/><feBlend in="SourceGraphic" in2="blurOut3" mode="normal"/></filter></defs><g><!--MD5=[7c6608d7cf625e90131334e1ca091b1a]
cluster Functions--><polygon fill="#FFFFFF" filter="url(#fp3zpyf7uu1vi)" points="371.5,6,447.5,6,454.5,31.2295,711.5,31.2295,711.5,501,371.5,501,371.5,6" style="stroke: #000000; stroke-width: 1.5;"/><line style="stroke: #000000; stroke-width: 1.5;" x1="371.5" x2="454.5" y1="31.2295" y2="31.2295"/><text fill="#000000" font-family="sans-serif" font-size="14" font-weight="bold" lengthAdjust="spacingAndGlyphs" textLength="70" x="375.5" y="24.1533">Functions</text><!--MD5=[7466e751054d8e22d8964b117c2b9985]
class f1293241549--><rect codeLine="26" fill="#FEFECE" filter="url(#fp3zpyf7uu1vi)" height="440.8311" id="f1293241549" style="stroke: #008000; stroke-width: 1.5;" width="308" x="387.5" y="44"/><ellipse cx="516.75" cy="60" fill="#ADD1B2" rx="11" ry="11" style="stroke: #008000; stroke-width: 1.0;"/><path d="M516.5781,53.4844 Q514.7031,53.4844 513.5469,55.2344 Q512.3594,57.0156 512.3594,60.0156 Q512.3594,63.3906 513.5625,65.1563 Q514.625,66.7813 516.375,66.7813 Q518.0625,66.7813 519.0156,65.875 Q520.0781,64.8594 520.2188,62.625 Q520.2188,62.2031 519.9844,61.9688 Q519.7969,61.7344 519.4531,61.7031 Q519.125,61.7031 518.8906,61.8906 Q518.625,62.125 518.625,62.5156 Q518.5938,63.9063 518,64.6406 Q517.4688,65.3438 516.5156,65.3438 Q515.3594,65.3438 514.6406,63.9063 Q513.9219,62.4063 513.9219,59.9844 Q513.9219,57.4375 514.8125,56.0469 Q515.5625,54.9219 516.7031,54.9219 Q517.3594,54.9219 517.8594,55.4688 Q518.4219,56.0781 518.5469,57.1406 Q518.5938,57.8438 519.4219,57.7344 Q520.2031,57.625 520.1563,56.9375 Q519.9688,55.4219 519.2031,54.5469 Q518.2656,53.4844 516.5781,53.4844 Z "/><text fill="#000000" font-family="sans-serif" font-size="12" lengthAdjust="spacingAndGlyphs" textLength="41" x="537.25" y="65.6045">Guitar()</text><line style="stroke: #008000; stroke-width: 1.5;" x1="388.5" x2="694.5" y1="76" y2="76"/><text fill="#000000" font-family="sans-serif" font-size="11" lengthAdjust="spacingAndGlyphs" textLength="60" x="393.5" y="92.6919">Static : false</text><text fill="#000000" font-family="sans-serif" font-size="11" lengthAdjust="spacingAndGlyphs" textLength="87" x="393.5" y="107.8008">return Type : new</text><text fill="#000000" font-family="sans-serif" font-size="11" lengthAdjust="spacingAndGlyphs" textLength="118" x="393.5" y="122.9097">hashCode : 1293241549</text><text fill="#000000" font-family="sans-serif" font-size="11" lengthAdjust="spacingAndGlyphs" textLength="69" x="393.5" y="138.0186">ABS Score : 0</text><text fill="#000000" font-family="sans-serif" font-size="11" lengthAdjust="spacingAndGlyphs" textLength="85" x="393.5" y="153.1274">Relative Score : 0</text><line style="stroke: #008000; stroke-width: 1.5;" x1="388.5" x2="521.5" y1="167.0989" y2="167.0989"/><text fill="#008000" font-family="sans-serif" font-size="11" font-weight="bold" lengthAdjust="spacingAndGlyphs" textLength="40" x="521.5" y="171.7363">has list</text><line style="stroke: #008000; stroke-width: 1.5;" x1="561.5" x2="694.5" y1="167.0989" y2="167.0989"/><line style="stroke: #008000; stroke-width: 1.0; stroke-dasharray: 1.0,2.0;" x1="388.5" x2="528.5" y1="189.7622" y2="189.7622"/><text fill="#000000" font-family="sans-serif" font-size="11" lengthAdjust="spacingAndGlyphs" textLength="26" x="528.5" y="194.3997">class</text><line style="stroke: #008000; stroke-width: 1.0; stroke-dasharray: 1.0,2.0;" x1="554.5" x2="694.5" y1="189.7622" y2="189.7622"/><line style="stroke: #008000; stroke-width: 1.0; stroke-dasharray: 1.0,2.0;" x1="388.5" x2="522.5" y1="212.4255" y2="212.4255"/><text fill="#000000" font-family="sans-serif" font-size="11" lengthAdjust="spacingAndGlyphs" textLength="38" x="522.5" y="217.063">member</text><line style="stroke: #008000; stroke-width: 1.0; stroke-dasharray: 1.0,2.0;" x1="560.5" x2="694.5" y1="212.4255" y2="212.4255"/><line style="stroke: #008000; stroke-width: 1.0; stroke-dasharray: 1.0,2.0;" x1="388.5" x2="524" y1="235.0889" y2="235.0889"/><text fill="#000000" font-family="sans-serif" font-size="11" lengthAdjust="spacingAndGlyphs" textLength="35" x="524" y="239.7263">method</text><line style="stroke: #008000; stroke-width: 1.0; stroke-dasharray: 1.0,2.0;" x1="559" x2="694.5" y1="235.0889" y2="235.0889"/><line style="stroke: #008000; stroke-width: 1.5;" x1="388.5" x2="514" y1="257.7522" y2="257.7522"/><text fill="#0000FF" font-family="sans-serif" font-size="11" font-weight="bold" lengthAdjust="spacingAndGlyphs" textLength="55" x="514" y="262.3896">calling list</text><line style="stroke: #008000; stroke-width: 1.5;" x1="569" x2="694.5" y1="257.7522" y2="257.7522"/><line style="stroke: #008000; stroke-width: 1.0; stroke-dasharray: 1.0,2.0;" x1="388.5" x2="528.5" y1="280.4155" y2="280.4155"/><text fill="#000000" font-family="sans-serif" font-size="11" lengthAdjust="spacingAndGlyphs" textLength="26" x="528.5" y="285.053">class</text><line style="stroke: #008000; stroke-width: 1.0; stroke-dasharray: 1.0,2.0;" x1="554.5" x2="694.5" y1="280.4155" y2="280.4155"/><line style="stroke: #008000; stroke-width: 1.0; stroke-dasharray: 1.0,2.0;" x1="388.5" x2="522.5" y1="303.0789" y2="303.0789"/><text fill="#000000" font-family="sans-serif" font-size="11" lengthAdjust="spacingAndGlyphs" textLength="38" x="522.5" y="307.7163">member</text><line style="stroke: #008000; stroke-width: 1.0; stroke-dasharray: 1.0,2.0;" x1="560.5" x2="694.5" y1="303.0789" y2="303.0789"/><line style="stroke: #008000; stroke-width: 1.0; stroke-dasharray: 1.0,2.0;" x1="388.5" x2="524" y1="325.7422" y2="325.7422"/><text fill="#000000" font-family="sans-serif" font-size="11" lengthAdjust="spacingAndGlyphs" textLength="35" x="524" y="330.3796">method</text><line style="stroke: #008000; stroke-width: 1.0; stroke-dasharray: 1.0,2.0;" x1="559" x2="694.5" y1="325.7422" y2="325.7422"/><line style="stroke: #008000; stroke-width: 1.5;" x1="388.5" x2="507.5" y1="348.4055" y2="348.4055"/><text fill="#FFA500" font-family="sans-serif" font-size="11" font-weight="bold" lengthAdjust="spacingAndGlyphs" textLength="68" x="507.5" y="353.043">called by list</text><line style="stroke: #008000; stroke-width: 1.5;" x1="575.5" x2="694.5" y1="348.4055" y2="348.4055"/><text fill="#000000" font-family="sans-serif" font-size="11" lengthAdjust="spacingAndGlyphs" textLength="216" x="393.5" y="391.3152">classRelation.GuitarAcademy (1400856767);</text><text fill="#000000" font-family="sans-serif" font-size="11" lengthAdjust="spacingAndGlyphs" textLength="181" x="393.5" y="406.4241">classRelation.Guitarist (1478797373);</text><line style="stroke: #008000; stroke-width: 1.0; stroke-dasharray: 1.0,2.0;" x1="388.5" x2="528.5" y1="371.0688" y2="371.0688"/><text fill="#000000" font-family="sans-serif" font-size="11" lengthAdjust="spacingAndGlyphs" textLength="26" x="528.5" y="375.7063">class</text><line style="stroke: #008000; stroke-width: 1.0; stroke-dasharray: 1.0,2.0;" x1="554.5" x2="694.5" y1="371.0688" y2="371.0688"/><line style="stroke: #008000; stroke-width: 1.0; stroke-dasharray: 1.0,2.0;" x1="388.5" x2="522.5" y1="420.3955" y2="420.3955"/><text fill="#000000" font-family="sans-serif" font-size="11" lengthAdjust="spacingAndGlyphs" textLength="38" x="522.5" y="425.033">member</text><line style="stroke: #008000; stroke-width: 1.0; stroke-dasharray: 1.0,2.0;" x1="560.5" x2="694.5" y1="420.3955" y2="420.3955"/><text fill="#000000" font-family="sans-serif" font-size="11" lengthAdjust="spacingAndGlyphs" textLength="296" x="393.5" y="463.3052">classRelation.GuitarAcademy.GuitarAcademy() (417301556);</text><text fill="#000000" font-family="sans-serif" font-size="11" lengthAdjust="spacingAndGlyphs" textLength="239" x="393.5" y="478.4141">classRelation.Guitarist.buyGuitar() (1707582034);</text><line style="stroke: #008000; stroke-width: 1.0; stroke-dasharray: 1.0,2.0;" x1="388.5" x2="524" y1="443.0588" y2="443.0588"/><text fill="#000000" font-family="sans-serif" font-size="11" lengthAdjust="spacingAndGlyphs" textLength="35" x="524" y="447.6963">method</text><line style="stroke: #008000; stroke-width: 1.0; stroke-dasharray: 1.0,2.0;" x1="559" x2="694.5" y1="443.0588" y2="443.0588"/><!--MD5=[f6064968006b102cb1b3092be2f53bd9]
class cl1--><rect codeLine="1" fill="#FEFECE" filter="url(#fp3zpyf7uu1vi)" height="411.0588" id="cl1" style="stroke: #A80036; stroke-width: 1.5;" width="345" x="7" y="59"/><ellipse cx="158.75" cy="75" fill="#ADD1B2" rx="11" ry="11" style="stroke: #A80036; stroke-width: 1.0;"/><path d="M158.5781,68.4844 Q156.7031,68.4844 155.5469,70.2344 Q154.3594,72.0156 154.3594,75.0156 Q154.3594,78.3906 155.5625,80.1563 Q156.625,81.7813 158.375,81.7813 Q160.0625,81.7813 161.0156,80.875 Q162.0781,79.8594 162.2188,77.625 Q162.2188,77.2031 161.9844,76.9688 Q161.7969,76.7344 161.4531,76.7031 Q161.125,76.7031 160.8906,76.8906 Q160.625,77.125 160.625,77.5156 Q160.5938,78.9063 160,79.6406 Q159.4688,80.3438 158.5156,80.3438 Q157.3594,80.3438 156.6406,78.9063 Q155.9219,77.4063 155.9219,74.9844 Q155.9219,72.4375 156.8125,71.0469 Q157.5625,69.9219 158.7031,69.9219 Q159.3594,69.9219 159.8594,70.4688 Q160.4219,71.0781 160.5469,72.1406 Q160.5938,72.8438 161.4219,72.7344 Q162.2031,72.625 162.1563,71.9375 Q161.9688,70.4219 161.2031,69.5469 Q160.2656,68.4844 158.5781,68.4844 Z "/><text fill="#000000" font-family="sans-serif" font-size="12" lengthAdjust="spacingAndGlyphs" textLength="33" x="179.25" y="80.6045">Guitar</text><line style="stroke: #A80036; stroke-width: 1.5;" x1="8" x2="351" y1="91" y2="91"/><text fill="#000000" font-family="sans-serif" font-size="11" lengthAdjust="spacingAndGlyphs" textLength="108" x="13" y="107.6919">Package classRelation</text><text fill="#000000" font-family="sans-serif" font-size="11" lengthAdjust="spacingAndGlyphs" textLength="41" x="13" y="122.8008">Lib false</text><text fill="#000000" font-family="sans-serif" font-size="11" lengthAdjust="spacingAndGlyphs" textLength="119" x="13" y="137.9097">HashCode : 2067180044</text><text fill="#000000" font-family="sans-serif" font-size="11" lengthAdjust="spacingAndGlyphs" textLength="69" x="13" y="153.0186">ABS Score : 1</text><text fill="#000000" font-family="sans-serif" font-size="11" lengthAdjust="spacingAndGlyphs" textLength="85" x="13" y="168.1274">Relative Score : 1</text><line style="stroke: #A80036; stroke-width: 1.5;" x1="8" x2="159.5" y1="182.0989" y2="182.0989"/><text fill="#008000" font-family="sans-serif" font-size="11" font-weight="bold" lengthAdjust="spacingAndGlyphs" textLength="40" x="159.5" y="186.7363">has list</text><line style="stroke: #A80036; stroke-width: 1.5;" x1="199.5" x2="351" y1="182.0989" y2="182.0989"/><line style="stroke: #A80036; stroke-width: 1.0; stroke-dasharray: 1.0,2.0;" x1="8" x2="351" y1="197.2078" y2="197.2078"/><text fill="#008000" font-family="sans-serif" font-size="11" lengthAdjust="spacingAndGlyphs" textLength="79" x="13" y="213.8997">new Guitar() (0)</text><line style="stroke: #A80036; stroke-width: 1.5;" x1="8" x2="152" y1="227.8711" y2="227.8711"/><text fill="#0000FF" font-family="sans-serif" font-size="11" font-weight="bold" lengthAdjust="spacingAndGlyphs" textLength="55" x="152" y="232.5085">calling list</text><line style="stroke: #A80036; stroke-width: 1.5;" x1="207" x2="351" y1="227.8711" y2="227.8711"/><line style="stroke: #A80036; stroke-width: 1.0; stroke-dasharray: 1.0,2.0;" x1="8" x2="166.5" y1="250.5344" y2="250.5344"/><text fill="#000000" font-family="sans-serif" font-size="11" lengthAdjust="spacingAndGlyphs" textLength="26" x="166.5" y="255.1719">class</text><line style="stroke: #A80036; stroke-width: 1.0; stroke-dasharray: 1.0,2.0;" x1="192.5" x2="351" y1="250.5344" y2="250.5344"/><line style="stroke: #A80036; stroke-width: 1.0; stroke-dasharray: 1.0,2.0;" x1="8" x2="160.5" y1="273.1978" y2="273.1978"/><text fill="#000000" font-family="sans-serif" font-size="11" lengthAdjust="spacingAndGlyphs" textLength="38" x="160.5" y="277.8352">member</text><line style="stroke: #A80036; stroke-width: 1.0; stroke-dasharray: 1.0,2.0;" x1="198.5" x2="351" y1="273.1978" y2="273.1978"/><line style="stroke: #A80036; stroke-width: 1.0; stroke-dasharray: 1.0,2.0;" x1="8" x2="162" y1="295.8611" y2="295.8611"/><text fill="#000000" font-family="sans-serif" font-size="11" lengthAdjust="spacingAndGlyphs" textLength="35" x="162" y="300.4985">method</text><line style="stroke: #A80036; stroke-width: 1.0; stroke-dasharray: 1.0,2.0;" x1="197" x2="351" y1="295.8611" y2="295.8611"/><line style="stroke: #A80036; stroke-width: 1.5;" x1="8" x2="145.5" y1="318.5244" y2="318.5244"/><text fill="#FFA500" font-family="sans-serif" font-size="11" font-weight="bold" lengthAdjust="spacingAndGlyphs" textLength="68" x="145.5" y="323.1619">called by list</text><line style="stroke: #A80036; stroke-width: 1.5;" x1="213.5" x2="351" y1="318.5244" y2="318.5244"/><text fill="#000000" font-family="sans-serif" font-size="11" lengthAdjust="spacingAndGlyphs" textLength="181" x="13" y="361.4341">classRelation.Guitarist (1478797373);</text><text fill="#000000" font-family="sans-serif" font-size="11" lengthAdjust="spacingAndGlyphs" textLength="216" x="13" y="376.543">classRelation.GuitarAcademy (1400856767);</text><line style="stroke: #A80036; stroke-width: 1.0; stroke-dasharray: 1.0,2.0;" x1="8" x2="166.5" y1="341.1877" y2="341.1877"/><text fill="#000000" font-family="sans-serif" font-size="11" lengthAdjust="spacingAndGlyphs" textLength="26" x="166.5" y="345.8252">class</text><line style="stroke: #A80036; stroke-width: 1.0; stroke-dasharray: 1.0,2.0;" x1="192.5" x2="351" y1="341.1877" y2="341.1877"/><line style="stroke: #A80036; stroke-width: 1.0; stroke-dasharray: 1.0,2.0;" x1="8" x2="160.5" y1="390.5144" y2="390.5144"/><text fill="#000000" font-family="sans-serif" font-size="11" lengthAdjust="spacingAndGlyphs" textLength="38" x="160.5" y="395.1519">member</text><line style="stroke: #A80036; stroke-width: 1.0; stroke-dasharray: 1.0,2.0;" x1="198.5" x2="351" y1="390.5144" y2="390.5144"/><text fill="#000000" font-family="sans-serif" font-size="11" lengthAdjust="spacingAndGlyphs" textLength="333" x="13" y="433.4241">classRelation.Guitarist.playSong(classRelation.Guitar) (1450652220);</text><text fill="#000000" font-family="sans-serif" font-size="11" lengthAdjust="spacingAndGlyphs" textLength="296" x="13" y="448.533">classRelation.GuitarAcademy.GuitarAcademy() (417301556);</text><text fill="#000000" font-family="sans-serif" font-size="11" lengthAdjust="spacingAndGlyphs" textLength="239" x="13" y="463.6418">classRelation.Guitarist.buyGuitar() (1707582034);</text><line style="stroke: #A80036; stroke-width: 1.0; stroke-dasharray: 1.0,2.0;" x1="8" x2="162" y1="413.1777" y2="413.1777"/><text fill="#000000" font-family="sans-serif" font-size="11" lengthAdjust="spacingAndGlyphs" textLength="35" x="162" y="417.8152">method</text><line style="stroke: #A80036; stroke-width: 1.0; stroke-dasharray: 1.0,2.0;" x1="197" x2="351" y1="413.1777" y2="413.1777"/><!--MD5=[d62bfc19b3a96f5868e4040c75fc6ca2]
@startuml
class "Guitar" as cl1{
Package classRelation
Lib false
HashCode : 2067180044
ABS Score : 1
Relative Score : 1
__**<color:green>has list</color>**__
....
	<color:green>new Guitar() (0)
__**<color:blue>calling list</color>**__
..class..
..member..
..method..
__**<color:orange>called by list</color>**__
..class..
	classRelation.Guitarist (1478797373);
	classRelation.GuitarAcademy (1400856767);
..member..
..method..
	 classRelation.Guitarist.playSong(classRelation.Guitar) (1450652220);
	 classRelation.GuitarAcademy.GuitarAcademy() (417301556);
	 classRelation.Guitarist.buyGuitar() (1707582034);
}

 package Functions{
class "Guitar()" as f1293241549  #line:green
{
Static : false
return Type : new
hashCode : 1293241549
ABS Score : 0
Relative Score : 0
__**<color:green>has list</color>**__
..class..
..member..
..method..
__**<color:blue>calling list</color>**__
..class..
..member..
..method..
__**<color:orange>called by list</color>**__
..class..
	classRelation.GuitarAcademy (1400856767);
	classRelation.Guitarist (1478797373);
..member..
..method..
	 classRelation.GuitarAcademy.GuitarAcademy() (417301556);
	 classRelation.Guitarist.buyGuitar() (1707582034);
}
}

@enduml

PlantUML version 1.2020.19(Tue Oct 13 00:10:01 KST 2020)
(APACHE source distribution)
Java Runtime: OpenJDK Runtime Environment
JVM: OpenJDK 64-Bit Server VM
Default Encoding: MS949
Language: ko
Country: KR
--></g></svg>