<?xml version="1.0" encoding="UTF-8" standalone="no"?><svg xmlns="http://www.w3.org/2000/svg" xmlns:xlink="http://www.w3.org/1999/xlink" contentScriptType="application/ecmascript" contentStyleType="text/css" height="1090px" preserveAspectRatio="none" style="width:1173px;height:1090px;" version="1.1" viewBox="0 0 1173 1090" width="1173px" zoomAndPan="magnify"><defs><filter height="300%" id="f195rubg4xwsx4" width="300%" x="-1" y="-1"><feGaussianBlur result="blurOut" stdDeviation="2.0"/><feColorMatrix in="blurOut" result="blurOut2" type="matrix" values="0 0 0 0 0 0 0 0 0 0 0 0 0 0 0 0 0 0 .4 0"/><feOffset dx="4.0" dy="4.0" in="blurOut2" result="blurOut3"/><feBlend in="SourceGraphic" in2="blurOut3" mode="normal"/></filter></defs><g><!--MD5=[7c6608d7cf625e90131334e1ca091b1a]
cluster Functions--><polygon fill="#FFFFFF" filter="url(#f195rubg4xwsx4)" points="16,6,92,6,99,31.2295,724,31.2295,724,1083,16,1083,16,6" style="stroke: #000000; stroke-width: 1.5;"/><line style="stroke: #000000; stroke-width: 1.5;" x1="16" x2="99" y1="31.2295" y2="31.2295"/><text fill="#000000" font-family="sans-serif" font-size="14" font-weight="bold" lengthAdjust="spacingAndGlyphs" textLength="70" x="20" y="24.1533">Functions</text><!--MD5=[6610e787fb981e4c1c138eb840d801f3]
class f1707582034--><rect codeLine="38" fill="#FEFECE" filter="url(#f195rubg4xwsx4)" height="422.1677" id="f1707582034" style="stroke: #A80036; stroke-width: 1.5;" width="223" x="32.5" y="97.5"/><ellipse cx="109.75" cy="113.5" fill="#ADD1B2" rx="11" ry="11" style="stroke: #A80036; stroke-width: 1.0;"/><path d="M109.5781,106.9844 Q107.7031,106.9844 106.5469,108.7344 Q105.3594,110.5156 105.3594,113.5156 Q105.3594,116.8906 106.5625,118.6563 Q107.625,120.2813 109.375,120.2813 Q111.0625,120.2813 112.0156,119.375 Q113.0781,118.3594 113.2188,116.125 Q113.2188,115.7031 112.9844,115.4688 Q112.7969,115.2344 112.4531,115.2031 Q112.125,115.2031 111.8906,115.3906 Q111.625,115.625 111.625,116.0156 Q111.5938,117.4063 111,118.1406 Q110.4688,118.8438 109.5156,118.8438 Q108.3594,118.8438 107.6406,117.4063 Q106.9219,115.9063 106.9219,113.4844 Q106.9219,110.9375 107.8125,109.5469 Q108.5625,108.4219 109.7031,108.4219 Q110.3594,108.4219 110.8594,108.9688 Q111.4219,109.5781 111.5469,110.6406 Q111.5938,111.3438 112.4219,111.2344 Q113.2031,111.125 113.1563,110.4375 Q112.9688,108.9219 112.2031,108.0469 Q111.2656,106.9844 109.5781,106.9844 Z "/><text fill="#000000" font-family="sans-serif" font-size="12" lengthAdjust="spacingAndGlyphs" textLength="60" x="130.25" y="119.1045">buyGuitar()</text><line style="stroke: #A80036; stroke-width: 1.5;" x1="33.5" x2="254.5" y1="129.5" y2="129.5"/><text fill="#000000" font-family="sans-serif" font-size="11" lengthAdjust="spacingAndGlyphs" textLength="60" x="38.5" y="146.1919">Static : false</text><text fill="#000000" font-family="sans-serif" font-size="11" lengthAdjust="spacingAndGlyphs" textLength="85" x="38.5" y="161.3008">return Type : void</text><text fill="#000000" font-family="sans-serif" font-size="11" lengthAdjust="spacingAndGlyphs" textLength="118" x="38.5" y="176.4097">hashCode : 1707582034</text><text fill="#000000" font-family="sans-serif" font-size="11" lengthAdjust="spacingAndGlyphs" textLength="69" x="38.5" y="191.5186">ABS Score : 7</text><text fill="#000000" font-family="sans-serif" font-size="11" lengthAdjust="spacingAndGlyphs" textLength="85" x="38.5" y="206.6274">Relative Score : 7</text><line style="stroke: #A80036; stroke-width: 1.5;" x1="33.5" x2="124" y1="220.5989" y2="220.5989"/><text fill="#008000" font-family="sans-serif" font-size="11" font-weight="bold" lengthAdjust="spacingAndGlyphs" textLength="40" x="124" y="225.2363">has list</text><line style="stroke: #A80036; stroke-width: 1.5;" x1="164" x2="254.5" y1="220.5989" y2="220.5989"/><line style="stroke: #A80036; stroke-width: 1.0; stroke-dasharray: 1.0,2.0;" x1="33.5" x2="131" y1="243.2622" y2="243.2622"/><text fill="#000000" font-family="sans-serif" font-size="11" lengthAdjust="spacingAndGlyphs" textLength="26" x="131" y="247.8997">class</text><line style="stroke: #A80036; stroke-width: 1.0; stroke-dasharray: 1.0,2.0;" x1="157" x2="254.5" y1="243.2622" y2="243.2622"/><line style="stroke: #A80036; stroke-width: 1.0; stroke-dasharray: 1.0,2.0;" x1="33.5" x2="125" y1="265.9255" y2="265.9255"/><text fill="#000000" font-family="sans-serif" font-size="11" lengthAdjust="spacingAndGlyphs" textLength="38" x="125" y="270.563">member</text><line style="stroke: #A80036; stroke-width: 1.0; stroke-dasharray: 1.0,2.0;" x1="163" x2="254.5" y1="265.9255" y2="265.9255"/><line style="stroke: #A80036; stroke-width: 1.0; stroke-dasharray: 1.0,2.0;" x1="33.5" x2="126.5" y1="288.5889" y2="288.5889"/><text fill="#000000" font-family="sans-serif" font-size="11" lengthAdjust="spacingAndGlyphs" textLength="35" x="126.5" y="293.2263">method</text><line style="stroke: #A80036; stroke-width: 1.0; stroke-dasharray: 1.0,2.0;" x1="161.5" x2="254.5" y1="288.5889" y2="288.5889"/><line style="stroke: #A80036; stroke-width: 1.5;" x1="33.5" x2="116.5" y1="311.2522" y2="311.2522"/><text fill="#0000FF" font-family="sans-serif" font-size="11" font-weight="bold" lengthAdjust="spacingAndGlyphs" textLength="55" x="116.5" y="315.8896">calling list</text><line style="stroke: #A80036; stroke-width: 1.5;" x1="171.5" x2="254.5" y1="311.2522" y2="311.2522"/><text fill="#000000" font-family="sans-serif" font-size="11" lengthAdjust="spacingAndGlyphs" textLength="170" x="38.5" y="354.1619">classRelation.Guitar (2067180044);</text><line style="stroke: #A80036; stroke-width: 1.0; stroke-dasharray: 1.0,2.0;" x1="33.5" x2="131" y1="333.9155" y2="333.9155"/><text fill="#000000" font-family="sans-serif" font-size="11" lengthAdjust="spacingAndGlyphs" textLength="26" x="131" y="338.553">class</text><line style="stroke: #A80036; stroke-width: 1.0; stroke-dasharray: 1.0,2.0;" x1="157" x2="254.5" y1="333.9155" y2="333.9155"/><text fill="#000000" font-family="sans-serif" font-size="11" lengthAdjust="spacingAndGlyphs" textLength="211" x="38.5" y="388.3796">classRelation.Guitarist.guitar (1409160703);</text><line style="stroke: #A80036; stroke-width: 1.0; stroke-dasharray: 1.0,2.0;" x1="33.5" x2="125" y1="368.1333" y2="368.1333"/><text fill="#000000" font-family="sans-serif" font-size="11" lengthAdjust="spacingAndGlyphs" textLength="38" x="125" y="372.7708">member</text><line style="stroke: #A80036; stroke-width: 1.0; stroke-dasharray: 1.0,2.0;" x1="163" x2="254.5" y1="368.1333" y2="368.1333"/><text fill="#000000" font-family="sans-serif" font-size="11" lengthAdjust="spacingAndGlyphs" textLength="210" x="38.5" y="422.5974">classRelation.Guitar.Guitar() (1293241549);</text><line style="stroke: #A80036; stroke-width: 1.0; stroke-dasharray: 1.0,2.0;" x1="33.5" x2="126.5" y1="402.3511" y2="402.3511"/><text fill="#000000" font-family="sans-serif" font-size="11" lengthAdjust="spacingAndGlyphs" textLength="35" x="126.5" y="406.9885">method</text><line style="stroke: #A80036; stroke-width: 1.0; stroke-dasharray: 1.0,2.0;" x1="161.5" x2="254.5" y1="402.3511" y2="402.3511"/><line style="stroke: #A80036; stroke-width: 1.5;" x1="33.5" x2="110" y1="436.5688" y2="436.5688"/><text fill="#FFA500" font-family="sans-serif" font-size="11" font-weight="bold" lengthAdjust="spacingAndGlyphs" textLength="68" x="110" y="441.2063">called by list</text><line style="stroke: #A80036; stroke-width: 1.5;" x1="178" x2="254.5" y1="436.5688" y2="436.5688"/><line style="stroke: #A80036; stroke-width: 1.0; stroke-dasharray: 1.0,2.0;" x1="33.5" x2="131" y1="459.2322" y2="459.2322"/><text fill="#000000" font-family="sans-serif" font-size="11" lengthAdjust="spacingAndGlyphs" textLength="26" x="131" y="463.8696">class</text><line style="stroke: #A80036; stroke-width: 1.0; stroke-dasharray: 1.0,2.0;" x1="157" x2="254.5" y1="459.2322" y2="459.2322"/><line style="stroke: #A80036; stroke-width: 1.0; stroke-dasharray: 1.0,2.0;" x1="33.5" x2="125" y1="481.8955" y2="481.8955"/><text fill="#000000" font-family="sans-serif" font-size="11" lengthAdjust="spacingAndGlyphs" textLength="38" x="125" y="486.533">member</text><line style="stroke: #A80036; stroke-width: 1.0; stroke-dasharray: 1.0,2.0;" x1="163" x2="254.5" y1="481.8955" y2="481.8955"/><line style="stroke: #A80036; stroke-width: 1.0; stroke-dasharray: 1.0,2.0;" x1="33.5" x2="126.5" y1="504.5588" y2="504.5588"/><text fill="#000000" font-family="sans-serif" font-size="11" lengthAdjust="spacingAndGlyphs" textLength="35" x="126.5" y="509.1963">method</text><line style="stroke: #A80036; stroke-width: 1.0; stroke-dasharray: 1.0,2.0;" x1="161.5" x2="254.5" y1="504.5588" y2="504.5588"/><!--MD5=[fd34df170d5e4b679628eff52a84b7f0]
class f1450652220--><rect codeLine="61" fill="#FEFECE" filter="url(#f195rubg4xwsx4)" height="528.821" id="f1450652220" style="stroke: #A80036; stroke-width: 1.5;" width="417" x="290.5" y="44"/><ellipse cx="409.25" cy="60" fill="#ADD1B2" rx="11" ry="11" style="stroke: #A80036; stroke-width: 1.0;"/><path d="M409.0781,53.4844 Q407.2031,53.4844 406.0469,55.2344 Q404.8594,57.0156 404.8594,60.0156 Q404.8594,63.3906 406.0625,65.1563 Q407.125,66.7813 408.875,66.7813 Q410.5625,66.7813 411.5156,65.875 Q412.5781,64.8594 412.7188,62.625 Q412.7188,62.2031 412.4844,61.9688 Q412.2969,61.7344 411.9531,61.7031 Q411.625,61.7031 411.3906,61.8906 Q411.125,62.125 411.125,62.5156 Q411.0938,63.9063 410.5,64.6406 Q409.9688,65.3438 409.0156,65.3438 Q407.8594,65.3438 407.1406,63.9063 Q406.4219,62.4063 406.4219,59.9844 Q406.4219,57.4375 407.3125,56.0469 Q408.0625,54.9219 409.2031,54.9219 Q409.8594,54.9219 410.3594,55.4688 Q410.9219,56.0781 411.0469,57.1406 Q411.0938,57.8438 411.9219,57.7344 Q412.7031,57.625 412.6563,56.9375 Q412.4688,55.4219 411.7031,54.5469 Q410.7656,53.4844 409.0781,53.4844 Z "/><text fill="#000000" font-family="sans-serif" font-size="12" lengthAdjust="spacingAndGlyphs" textLength="171" x="429.75" y="65.6045">playSong(classRelation.Guitar)</text><line style="stroke: #A80036; stroke-width: 1.5;" x1="291.5" x2="706.5" y1="76" y2="76"/><text fill="#000000" font-family="sans-serif" font-size="11" lengthAdjust="spacingAndGlyphs" textLength="60" x="296.5" y="92.6919">Static : false</text><text fill="#000000" font-family="sans-serif" font-size="11" lengthAdjust="spacingAndGlyphs" textLength="96" x="296.5" y="107.8008">return Type : Sound</text><text fill="#000000" font-family="sans-serif" font-size="11" lengthAdjust="spacingAndGlyphs" textLength="118" x="296.5" y="122.9097">hashCode : 1450652220</text><text fill="#000000" font-family="sans-serif" font-size="11" lengthAdjust="spacingAndGlyphs" textLength="69" x="296.5" y="138.0186">ABS Score : 8</text><text fill="#000000" font-family="sans-serif" font-size="11" lengthAdjust="spacingAndGlyphs" textLength="85" x="296.5" y="153.1274">Relative Score : 8</text><line style="stroke: #A80036; stroke-width: 1.5;" x1="291.5" x2="479" y1="167.0989" y2="167.0989"/><text fill="#008000" font-family="sans-serif" font-size="11" font-weight="bold" lengthAdjust="spacingAndGlyphs" textLength="40" x="479" y="171.7363">has list</text><line style="stroke: #A80036; stroke-width: 1.5;" x1="519" x2="706.5" y1="167.0989" y2="167.0989"/><line style="stroke: #A80036; stroke-width: 1.0; stroke-dasharray: 1.0,2.0;" x1="291.5" x2="486" y1="189.7622" y2="189.7622"/><text fill="#000000" font-family="sans-serif" font-size="11" lengthAdjust="spacingAndGlyphs" textLength="26" x="486" y="194.3997">class</text><line style="stroke: #A80036; stroke-width: 1.0; stroke-dasharray: 1.0,2.0;" x1="512" x2="706.5" y1="189.7622" y2="189.7622"/><text fill="#000000" font-family="sans-serif" font-size="11" lengthAdjust="spacingAndGlyphs" textLength="363" x="296.5" y="232.6719">classRelation.Guitarist.playSong(classRelation.Guitar).guitar (1833789138);</text><line style="stroke: #A80036; stroke-width: 1.0; stroke-dasharray: 1.0,2.0;" x1="291.5" x2="480" y1="212.4255" y2="212.4255"/><text fill="#000000" font-family="sans-serif" font-size="11" lengthAdjust="spacingAndGlyphs" textLength="38" x="480" y="217.063">member</text><line style="stroke: #A80036; stroke-width: 1.0; stroke-dasharray: 1.0,2.0;" x1="518" x2="706.5" y1="212.4255" y2="212.4255"/><line style="stroke: #A80036; stroke-width: 1.0; stroke-dasharray: 1.0,2.0;" x1="291.5" x2="481.5" y1="246.6433" y2="246.6433"/><text fill="#000000" font-family="sans-serif" font-size="11" lengthAdjust="spacingAndGlyphs" textLength="35" x="481.5" y="251.2808">method</text><line style="stroke: #A80036; stroke-width: 1.0; stroke-dasharray: 1.0,2.0;" x1="516.5" x2="706.5" y1="246.6433" y2="246.6433"/><line style="stroke: #A80036; stroke-width: 1.5;" x1="291.5" x2="471.5" y1="269.3066" y2="269.3066"/><text fill="#0000FF" font-family="sans-serif" font-size="11" font-weight="bold" lengthAdjust="spacingAndGlyphs" textLength="55" x="471.5" y="273.9441">calling list</text><line style="stroke: #A80036; stroke-width: 1.5;" x1="526.5" x2="706.5" y1="269.3066" y2="269.3066"/><text fill="#000000" font-family="sans-serif" font-size="11" lengthAdjust="spacingAndGlyphs" textLength="170" x="296.5" y="312.2163">classRelation.Guitar (2067180044);</text><text fill="#000000" font-family="sans-serif" font-size="11" lengthAdjust="spacingAndGlyphs" textLength="191" x="296.5" y="327.3252">classRelation.Instrument (1682681674);</text><line style="stroke: #A80036; stroke-width: 1.0; stroke-dasharray: 1.0,2.0;" x1="291.5" x2="486" y1="291.97" y2="291.97"/><text fill="#000000" font-family="sans-serif" font-size="11" lengthAdjust="spacingAndGlyphs" textLength="26" x="486" y="296.6074">class</text><line style="stroke: #A80036; stroke-width: 1.0; stroke-dasharray: 1.0,2.0;" x1="512" x2="706.5" y1="291.97" y2="291.97"/><text fill="#000000" font-family="sans-serif" font-size="11" lengthAdjust="spacingAndGlyphs" textLength="363" x="296.5" y="361.543">classRelation.Guitarist.playSong(classRelation.Guitar).guitar (1833789138);</text><line style="stroke: #A80036; stroke-width: 1.0; stroke-dasharray: 1.0,2.0;" x1="291.5" x2="480" y1="341.2966" y2="341.2966"/><text fill="#000000" font-family="sans-serif" font-size="11" lengthAdjust="spacingAndGlyphs" textLength="38" x="480" y="345.9341">member</text><line style="stroke: #A80036; stroke-width: 1.0; stroke-dasharray: 1.0,2.0;" x1="518" x2="706.5" y1="341.2966" y2="341.2966"/><text fill="#000000" font-family="sans-serif" font-size="11" lengthAdjust="spacingAndGlyphs" textLength="216" x="296.5" y="395.7607">classRelation.Instrument.play() (707157673);</text><line style="stroke: #A80036; stroke-width: 1.0; stroke-dasharray: 1.0,2.0;" x1="291.5" x2="481.5" y1="375.5144" y2="375.5144"/><text fill="#000000" font-family="sans-serif" font-size="11" lengthAdjust="spacingAndGlyphs" textLength="35" x="481.5" y="380.1519">method</text><line style="stroke: #A80036; stroke-width: 1.0; stroke-dasharray: 1.0,2.0;" x1="516.5" x2="706.5" y1="375.5144" y2="375.5144"/><line style="stroke: #A80036; stroke-width: 1.5;" x1="291.5" x2="465" y1="409.7322" y2="409.7322"/><text fill="#FFA500" font-family="sans-serif" font-size="11" font-weight="bold" lengthAdjust="spacingAndGlyphs" textLength="68" x="465" y="414.3696">called by list</text><line style="stroke: #A80036; stroke-width: 1.5;" x1="533" x2="706.5" y1="409.7322" y2="409.7322"/><text fill="#000000" font-family="sans-serif" font-size="11" lengthAdjust="spacingAndGlyphs" textLength="216" x="296.5" y="452.6418">classRelation.GuitarAcademy (1400856767);</text><text fill="#000000" font-family="sans-serif" font-size="11" lengthAdjust="spacingAndGlyphs" textLength="181" x="296.5" y="467.7507">classRelation.Guitarist (1478797373);</text><line style="stroke: #A80036; stroke-width: 1.0; stroke-dasharray: 1.0,2.0;" x1="291.5" x2="486" y1="432.3955" y2="432.3955"/><text fill="#000000" font-family="sans-serif" font-size="11" lengthAdjust="spacingAndGlyphs" textLength="26" x="486" y="437.033">class</text><line style="stroke: #A80036; stroke-width: 1.0; stroke-dasharray: 1.0,2.0;" x1="512" x2="706.5" y1="432.3955" y2="432.3955"/><text fill="#000000" font-family="sans-serif" font-size="11" lengthAdjust="spacingAndGlyphs" textLength="256" x="296.5" y="501.9685">classRelation.GuitarAcademy.teacher (1754444726);</text><text fill="#000000" font-family="sans-serif" font-size="11" lengthAdjust="spacingAndGlyphs" textLength="405" x="296.5" y="517.0774">classRelation.GuitarAcademy.lesson(classRelation.Guitarist).student (1852777344);</text><line style="stroke: #A80036; stroke-width: 1.0; stroke-dasharray: 1.0,2.0;" x1="291.5" x2="480" y1="481.7222" y2="481.7222"/><text fill="#000000" font-family="sans-serif" font-size="11" lengthAdjust="spacingAndGlyphs" textLength="38" x="480" y="486.3596">member</text><line style="stroke: #A80036; stroke-width: 1.0; stroke-dasharray: 1.0,2.0;" x1="518" x2="706.5" y1="481.7222" y2="481.7222"/><text fill="#000000" font-family="sans-serif" font-size="11" lengthAdjust="spacingAndGlyphs" textLength="360" x="296.5" y="551.2952">classRelation.GuitarAcademy.lesson(classRelation.Guitarist) (780934299);</text><text fill="#000000" font-family="sans-serif" font-size="11" lengthAdjust="spacingAndGlyphs" textLength="333" x="296.5" y="566.4041">classRelation.Guitarist.playSong(classRelation.Guitar) (1450652220);</text><line style="stroke: #A80036; stroke-width: 1.0; stroke-dasharray: 1.0,2.0;" x1="291.5" x2="481.5" y1="531.0488" y2="531.0488"/><text fill="#000000" font-family="sans-serif" font-size="11" lengthAdjust="spacingAndGlyphs" textLength="35" x="481.5" y="535.6863">method</text><line style="stroke: #A80036; stroke-width: 1.0; stroke-dasharray: 1.0,2.0;" x1="516.5" x2="706.5" y1="531.0488" y2="531.0488"/><!--MD5=[e7ab6769b1b9056ce2bf7989f9d82841]
class f1990519794--><rect codeLine="92" fill="#FEFECE" filter="url(#f195rubg4xwsx4)" height="410.6133" id="f1990519794" style="stroke: #008000; stroke-width: 1.5;" width="308" x="32" y="656"/><ellipse cx="154.75" cy="672" fill="#ADD1B2" rx="11" ry="11" style="stroke: #008000; stroke-width: 1.0;"/><path d="M154.5781,665.4844 Q152.7031,665.4844 151.5469,667.2344 Q150.3594,669.0156 150.3594,672.0156 Q150.3594,675.3906 151.5625,677.1563 Q152.625,678.7813 154.375,678.7813 Q156.0625,678.7813 157.0156,677.875 Q158.0781,676.8594 158.2188,674.625 Q158.2188,674.2031 157.9844,673.9688 Q157.7969,673.7344 157.4531,673.7031 Q157.125,673.7031 156.8906,673.8906 Q156.625,674.125 156.625,674.5156 Q156.5938,675.9063 156,676.6406 Q155.4688,677.3438 154.5156,677.3438 Q153.3594,677.3438 152.6406,675.9063 Q151.9219,674.4063 151.9219,671.9844 Q151.9219,669.4375 152.8125,668.0469 Q153.5625,666.9219 154.7031,666.9219 Q155.3594,666.9219 155.8594,667.4688 Q156.4219,668.0781 156.5469,669.1406 Q156.5938,669.8438 157.4219,669.7344 Q158.2031,669.625 158.1563,668.9375 Q157.9688,667.4219 157.2031,666.5469 Q156.2656,665.4844 154.5781,665.4844 Z "/><text fill="#000000" font-family="sans-serif" font-size="12" lengthAdjust="spacingAndGlyphs" textLength="54" x="175.25" y="677.6045">Guitarist()</text><line style="stroke: #008000; stroke-width: 1.5;" x1="33" x2="339" y1="688" y2="688"/><text fill="#000000" font-family="sans-serif" font-size="11" lengthAdjust="spacingAndGlyphs" textLength="60" x="38" y="704.6919">Static : false</text><text fill="#000000" font-family="sans-serif" font-size="11" lengthAdjust="spacingAndGlyphs" textLength="87" x="38" y="719.8008">return Type : new</text><text fill="#000000" font-family="sans-serif" font-size="11" lengthAdjust="spacingAndGlyphs" textLength="118" x="38" y="734.9097">hashCode : 1990519794</text><text fill="#000000" font-family="sans-serif" font-size="11" lengthAdjust="spacingAndGlyphs" textLength="69" x="38" y="750.0186">ABS Score : 0</text><text fill="#000000" font-family="sans-serif" font-size="11" lengthAdjust="spacingAndGlyphs" textLength="85" x="38" y="765.1274">Relative Score : 0</text><line style="stroke: #008000; stroke-width: 1.5;" x1="33" x2="166" y1="779.0989" y2="779.0989"/><text fill="#008000" font-family="sans-serif" font-size="11" font-weight="bold" lengthAdjust="spacingAndGlyphs" textLength="40" x="166" y="783.7363">has list</text><line style="stroke: #008000; stroke-width: 1.5;" x1="206" x2="339" y1="779.0989" y2="779.0989"/><line style="stroke: #008000; stroke-width: 1.0; stroke-dasharray: 1.0,2.0;" x1="33" x2="173" y1="801.7622" y2="801.7622"/><text fill="#000000" font-family="sans-serif" font-size="11" lengthAdjust="spacingAndGlyphs" textLength="26" x="173" y="806.3997">class</text><line style="stroke: #008000; stroke-width: 1.0; stroke-dasharray: 1.0,2.0;" x1="199" x2="339" y1="801.7622" y2="801.7622"/><line style="stroke: #008000; stroke-width: 1.0; stroke-dasharray: 1.0,2.0;" x1="33" x2="167" y1="824.4255" y2="824.4255"/><text fill="#000000" font-family="sans-serif" font-size="11" lengthAdjust="spacingAndGlyphs" textLength="38" x="167" y="829.063">member</text><line style="stroke: #008000; stroke-width: 1.0; stroke-dasharray: 1.0,2.0;" x1="205" x2="339" y1="824.4255" y2="824.4255"/><line style="stroke: #008000; stroke-width: 1.0; stroke-dasharray: 1.0,2.0;" x1="33" x2="168.5" y1="847.0889" y2="847.0889"/><text fill="#000000" font-family="sans-serif" font-size="11" lengthAdjust="spacingAndGlyphs" textLength="35" x="168.5" y="851.7263">method</text><line style="stroke: #008000; stroke-width: 1.0; stroke-dasharray: 1.0,2.0;" x1="203.5" x2="339" y1="847.0889" y2="847.0889"/><line style="stroke: #008000; stroke-width: 1.5;" x1="33" x2="158.5" y1="869.7522" y2="869.7522"/><text fill="#0000FF" font-family="sans-serif" font-size="11" font-weight="bold" lengthAdjust="spacingAndGlyphs" textLength="55" x="158.5" y="874.3896">calling list</text><line style="stroke: #008000; stroke-width: 1.5;" x1="213.5" x2="339" y1="869.7522" y2="869.7522"/><line style="stroke: #008000; stroke-width: 1.0; stroke-dasharray: 1.0,2.0;" x1="33" x2="173" y1="892.4155" y2="892.4155"/><text fill="#000000" font-family="sans-serif" font-size="11" lengthAdjust="spacingAndGlyphs" textLength="26" x="173" y="897.053">class</text><line style="stroke: #008000; stroke-width: 1.0; stroke-dasharray: 1.0,2.0;" x1="199" x2="339" y1="892.4155" y2="892.4155"/><line style="stroke: #008000; stroke-width: 1.0; stroke-dasharray: 1.0,2.0;" x1="33" x2="167" y1="915.0789" y2="915.0789"/><text fill="#000000" font-family="sans-serif" font-size="11" lengthAdjust="spacingAndGlyphs" textLength="38" x="167" y="919.7163">member</text><line style="stroke: #008000; stroke-width: 1.0; stroke-dasharray: 1.0,2.0;" x1="205" x2="339" y1="915.0789" y2="915.0789"/><line style="stroke: #008000; stroke-width: 1.0; stroke-dasharray: 1.0,2.0;" x1="33" x2="168.5" y1="937.7422" y2="937.7422"/><text fill="#000000" font-family="sans-serif" font-size="11" lengthAdjust="spacingAndGlyphs" textLength="35" x="168.5" y="942.3796">method</text><line style="stroke: #008000; stroke-width: 1.0; stroke-dasharray: 1.0,2.0;" x1="203.5" x2="339" y1="937.7422" y2="937.7422"/><line style="stroke: #008000; stroke-width: 1.5;" x1="33" x2="152" y1="960.4055" y2="960.4055"/><text fill="#FFA500" font-family="sans-serif" font-size="11" font-weight="bold" lengthAdjust="spacingAndGlyphs" textLength="68" x="152" y="965.043">called by list</text><line style="stroke: #008000; stroke-width: 1.5;" x1="220" x2="339" y1="960.4055" y2="960.4055"/><text fill="#000000" font-family="sans-serif" font-size="11" lengthAdjust="spacingAndGlyphs" textLength="216" x="38" y="1003.3152">classRelation.GuitarAcademy (1400856767);</text><line style="stroke: #008000; stroke-width: 1.0; stroke-dasharray: 1.0,2.0;" x1="33" x2="173" y1="983.0688" y2="983.0688"/><text fill="#000000" font-family="sans-serif" font-size="11" lengthAdjust="spacingAndGlyphs" textLength="26" x="173" y="987.7063">class</text><line style="stroke: #008000; stroke-width: 1.0; stroke-dasharray: 1.0,2.0;" x1="199" x2="339" y1="983.0688" y2="983.0688"/><line style="stroke: #008000; stroke-width: 1.0; stroke-dasharray: 1.0,2.0;" x1="33" x2="167" y1="1017.2866" y2="1017.2866"/><text fill="#000000" font-family="sans-serif" font-size="11" lengthAdjust="spacingAndGlyphs" textLength="38" x="167" y="1021.9241">member</text><line style="stroke: #008000; stroke-width: 1.0; stroke-dasharray: 1.0,2.0;" x1="205" x2="339" y1="1017.2866" y2="1017.2866"/><text fill="#000000" font-family="sans-serif" font-size="11" lengthAdjust="spacingAndGlyphs" textLength="296" x="38" y="1060.1963">classRelation.GuitarAcademy.GuitarAcademy() (417301556);</text><line style="stroke: #008000; stroke-width: 1.0; stroke-dasharray: 1.0,2.0;" x1="33" x2="168.5" y1="1039.95" y2="1039.95"/><text fill="#000000" font-family="sans-serif" font-size="11" lengthAdjust="spacingAndGlyphs" textLength="35" x="168.5" y="1044.5874">method</text><line style="stroke: #008000; stroke-width: 1.0; stroke-dasharray: 1.0,2.0;" x1="203.5" x2="339" y1="1039.95" y2="1039.95"/><!--MD5=[f6064968006b102cb1b3092be2f53bd9]
class cl1--><rect codeLine="1" fill="#FEFECE" filter="url(#f195rubg4xwsx4)" height="574.5933" id="cl1" style="stroke: #A80036; stroke-width: 1.5;" width="417" x="742.5" y="21"/><ellipse cx="923.75" cy="37" fill="#ADD1B2" rx="11" ry="11" style="stroke: #A80036; stroke-width: 1.0;"/><path d="M923.5781,30.4844 Q921.7031,30.4844 920.5469,32.2344 Q919.3594,34.0156 919.3594,37.0156 Q919.3594,40.3906 920.5625,42.1563 Q921.625,43.7813 923.375,43.7813 Q925.0625,43.7813 926.0156,42.875 Q927.0781,41.8594 927.2188,39.625 Q927.2188,39.2031 926.9844,38.9688 Q926.7969,38.7344 926.4531,38.7031 Q926.125,38.7031 925.8906,38.8906 Q925.625,39.125 925.625,39.5156 Q925.5938,40.9063 925,41.6406 Q924.4688,42.3438 923.5156,42.3438 Q922.3594,42.3438 921.6406,40.9063 Q920.9219,39.4063 920.9219,36.9844 Q920.9219,34.4375 921.8125,33.0469 Q922.5625,31.9219 923.7031,31.9219 Q924.3594,31.9219 924.8594,32.4688 Q925.4219,33.0781 925.5469,34.1406 Q925.5938,34.8438 926.4219,34.7344 Q927.2031,34.625 927.1563,33.9375 Q926.9688,32.4219 926.2031,31.5469 Q925.2656,30.4844 923.5781,30.4844 Z "/><text fill="#000000" font-family="sans-serif" font-size="12" lengthAdjust="spacingAndGlyphs" textLength="46" x="944.25" y="42.6045">Guitarist</text><line style="stroke: #A80036; stroke-width: 1.5;" x1="743.5" x2="1158.5" y1="53" y2="53"/><text fill="#000000" font-family="sans-serif" font-size="11" lengthAdjust="spacingAndGlyphs" textLength="108" x="748.5" y="69.6919">Package classRelation</text><text fill="#000000" font-family="sans-serif" font-size="11" lengthAdjust="spacingAndGlyphs" textLength="41" x="748.5" y="84.8008">Lib false</text><text fill="#000000" font-family="sans-serif" font-size="11" lengthAdjust="spacingAndGlyphs" textLength="119" x="748.5" y="99.9097">HashCode : 1478797373</text><text fill="#000000" font-family="sans-serif" font-size="11" lengthAdjust="spacingAndGlyphs" textLength="75" x="748.5" y="115.0186">ABS Score : 29</text><text fill="#000000" font-family="sans-serif" font-size="11" lengthAdjust="spacingAndGlyphs" textLength="85" x="748.5" y="130.1274">Relative Score : 7</text><text fill="#008000" font-family="sans-serif" font-size="11" lengthAdjust="spacingAndGlyphs" textLength="143" x="748.5" y="164.3452">classRelation.Guitar guitar (2)</text><line style="stroke: #A80036; stroke-width: 1.5;" x1="743.5" x2="931" y1="144.0989" y2="144.0989"/><text fill="#008000" font-family="sans-serif" font-size="11" font-weight="bold" lengthAdjust="spacingAndGlyphs" textLength="40" x="931" y="148.7363">has list</text><line style="stroke: #A80036; stroke-width: 1.5;" x1="971" x2="1158.5" y1="144.0989" y2="144.0989"/><line style="stroke: #A80036; stroke-width: 1.0; stroke-dasharray: 1.0,2.0;" x1="743.5" x2="1158.5" y1="170.7622" y2="170.7622"/><text fill="#FA8072" font-family="sans-serif" font-size="11" lengthAdjust="spacingAndGlyphs" textLength="95" x="748.5" y="187.4541">void buyGuitar() (7)</text><text fill="#FA8072" font-family="sans-serif" font-size="11" lengthAdjust="spacingAndGlyphs" textLength="200" x="748.5" y="202.563">Sound playSong(classRelation.Guitar) (8)</text><text fill="#008000" font-family="sans-serif" font-size="11" lengthAdjust="spacingAndGlyphs" textLength="90" x="748.5" y="217.6719">new Guitarist() (0)</text><line style="stroke: #A80036; stroke-width: 1.5;" x1="743.5" x2="923.5" y1="231.6433" y2="231.6433"/><text fill="#0000FF" font-family="sans-serif" font-size="11" font-weight="bold" lengthAdjust="spacingAndGlyphs" textLength="55" x="923.5" y="236.2808">calling list</text><line style="stroke: #A80036; stroke-width: 1.5;" x1="978.5" x2="1158.5" y1="231.6433" y2="231.6433"/><text fill="#000000" font-family="sans-serif" font-size="11" lengthAdjust="spacingAndGlyphs" textLength="170" x="748.5" y="274.553">classRelation.Guitar (2067180044);</text><text fill="#000000" font-family="sans-serif" font-size="11" lengthAdjust="spacingAndGlyphs" textLength="191" x="748.5" y="289.6619">classRelation.Instrument (1682681674);</text><line style="stroke: #A80036; stroke-width: 1.0; stroke-dasharray: 1.0,2.0;" x1="743.5" x2="938" y1="254.3066" y2="254.3066"/><text fill="#000000" font-family="sans-serif" font-size="11" lengthAdjust="spacingAndGlyphs" textLength="26" x="938" y="258.9441">class</text><line style="stroke: #A80036; stroke-width: 1.0; stroke-dasharray: 1.0,2.0;" x1="964" x2="1158.5" y1="254.3066" y2="254.3066"/><text fill="#000000" font-family="sans-serif" font-size="11" lengthAdjust="spacingAndGlyphs" textLength="211" x="748.5" y="323.8796">classRelation.Guitarist.guitar (1409160703);</text><text fill="#000000" font-family="sans-serif" font-size="11" lengthAdjust="spacingAndGlyphs" textLength="363" x="748.5" y="338.9885">classRelation.Guitarist.playSong(classRelation.Guitar).guitar (1833789138);</text><line style="stroke: #A80036; stroke-width: 1.0; stroke-dasharray: 1.0,2.0;" x1="743.5" x2="932" y1="303.6333" y2="303.6333"/><text fill="#000000" font-family="sans-serif" font-size="11" lengthAdjust="spacingAndGlyphs" textLength="38" x="932" y="308.2708">member</text><line style="stroke: #A80036; stroke-width: 1.0; stroke-dasharray: 1.0,2.0;" x1="970" x2="1158.5" y1="303.6333" y2="303.6333"/><text fill="#000000" font-family="sans-serif" font-size="11" lengthAdjust="spacingAndGlyphs" textLength="210" x="748.5" y="373.2063">classRelation.Guitar.Guitar() (1293241549);</text><text fill="#000000" font-family="sans-serif" font-size="11" lengthAdjust="spacingAndGlyphs" textLength="216" x="748.5" y="388.3152">classRelation.Instrument.play() (707157673);</text><line style="stroke: #A80036; stroke-width: 1.0; stroke-dasharray: 1.0,2.0;" x1="743.5" x2="933.5" y1="352.96" y2="352.96"/><text fill="#000000" font-family="sans-serif" font-size="11" lengthAdjust="spacingAndGlyphs" textLength="35" x="933.5" y="357.5974">method</text><line style="stroke: #A80036; stroke-width: 1.0; stroke-dasharray: 1.0,2.0;" x1="968.5" x2="1158.5" y1="352.96" y2="352.96"/><line style="stroke: #A80036; stroke-width: 1.5;" x1="743.5" x2="917" y1="402.2866" y2="402.2866"/><text fill="#FFA500" font-family="sans-serif" font-size="11" font-weight="bold" lengthAdjust="spacingAndGlyphs" textLength="68" x="917" y="406.9241">called by list</text><line style="stroke: #A80036; stroke-width: 1.5;" x1="985" x2="1158.5" y1="402.2866" y2="402.2866"/><text fill="#000000" font-family="sans-serif" font-size="11" lengthAdjust="spacingAndGlyphs" textLength="216" x="748.5" y="445.1963">classRelation.GuitarAcademy (1400856767);</text><text fill="#000000" font-family="sans-serif" font-size="11" lengthAdjust="spacingAndGlyphs" textLength="181" x="748.5" y="460.3052">classRelation.Guitarist (1478797373);</text><line style="stroke: #A80036; stroke-width: 1.0; stroke-dasharray: 1.0,2.0;" x1="743.5" x2="938" y1="424.95" y2="424.95"/><text fill="#000000" font-family="sans-serif" font-size="11" lengthAdjust="spacingAndGlyphs" textLength="26" x="938" y="429.5874">class</text><line style="stroke: #A80036; stroke-width: 1.0; stroke-dasharray: 1.0,2.0;" x1="964" x2="1158.5" y1="424.95" y2="424.95"/><text fill="#000000" font-family="sans-serif" font-size="11" lengthAdjust="spacingAndGlyphs" textLength="256" x="748.5" y="494.5229">classRelation.GuitarAcademy.teacher (1754444726);</text><text fill="#000000" font-family="sans-serif" font-size="11" lengthAdjust="spacingAndGlyphs" textLength="405" x="748.5" y="509.6318">classRelation.GuitarAcademy.lesson(classRelation.Guitarist).student (1852777344);</text><line style="stroke: #A80036; stroke-width: 1.0; stroke-dasharray: 1.0,2.0;" x1="743.5" x2="932" y1="474.2766" y2="474.2766"/><text fill="#000000" font-family="sans-serif" font-size="11" lengthAdjust="spacingAndGlyphs" textLength="38" x="932" y="478.9141">member</text><line style="stroke: #A80036; stroke-width: 1.0; stroke-dasharray: 1.0,2.0;" x1="970" x2="1158.5" y1="474.2766" y2="474.2766"/><text fill="#000000" font-family="sans-serif" font-size="11" lengthAdjust="spacingAndGlyphs" textLength="360" x="748.5" y="543.8496">classRelation.GuitarAcademy.lesson(classRelation.Guitarist) (780934299);</text><text fill="#000000" font-family="sans-serif" font-size="11" lengthAdjust="spacingAndGlyphs" textLength="296" x="748.5" y="558.9585">classRelation.GuitarAcademy.GuitarAcademy() (417301556);</text><text fill="#000000" font-family="sans-serif" font-size="11" lengthAdjust="spacingAndGlyphs" textLength="239" x="748.5" y="574.0674">classRelation.Guitarist.buyGuitar() (1707582034);</text><text fill="#000000" font-family="sans-serif" font-size="11" lengthAdjust="spacingAndGlyphs" textLength="333" x="748.5" y="589.1763">classRelation.Guitarist.playSong(classRelation.Guitar) (1450652220);</text><line style="stroke: #A80036; stroke-width: 1.0; stroke-dasharray: 1.0,2.0;" x1="743.5" x2="933.5" y1="523.6033" y2="523.6033"/><text fill="#000000" font-family="sans-serif" font-size="11" lengthAdjust="spacingAndGlyphs" textLength="35" x="933.5" y="528.2407">method</text><line style="stroke: #A80036; stroke-width: 1.0; stroke-dasharray: 1.0,2.0;" x1="968.5" x2="1158.5" y1="523.6033" y2="523.6033"/><!--MD5=[684dca357f8c59b31886c2255bf700a8]
link f1707582034 to f1450652220--><!--MD5=[0758f70842d7bddafa53cea1df5b1921]
link f1707582034 to f1990519794--><!--MD5=[45771c5811b918ba7f2a2e7d2077b322]
@startuml
class "Guitarist" as cl1{
Package classRelation
Lib false
HashCode : 1478797373
ABS Score : 29
Relative Score : 7
__**<color:green>has list</color>**__
	<color:green>classRelation.Guitar guitar (2)
....
	<color:salmon>void buyGuitar() (7)
	<color:salmon>Sound playSong(classRelation.Guitar) (8)
	<color:green>new Guitarist() (0)
__**<color:blue>calling list</color>**__
..class..
	classRelation.Guitar (2067180044);
	classRelation.Instrument (1682681674);
..member..
	classRelation.Guitarist.guitar (1409160703);
	classRelation.Guitarist.playSong(classRelation.Guitar).guitar (1833789138);
..method..
	 classRelation.Guitar.Guitar() (1293241549);
	 classRelation.Instrument.play() (707157673);
__**<color:orange>called by list</color>**__
..class..
	classRelation.GuitarAcademy (1400856767);
	classRelation.Guitarist (1478797373);
..member..
	classRelation.GuitarAcademy.teacher (1754444726);
	classRelation.GuitarAcademy.lesson(classRelation.Guitarist).student (1852777344);
..method..
	 classRelation.GuitarAcademy.lesson(classRelation.Guitarist) (780934299);
	 classRelation.GuitarAcademy.GuitarAcademy() (417301556);
	 classRelation.Guitarist.buyGuitar() (1707582034);
	 classRelation.Guitarist.playSong(classRelation.Guitar) (1450652220);
}

 package Functions{
class "buyGuitar()" as f1707582034  
{
Static : false
return Type : void
hashCode : 1707582034
ABS Score : 7
Relative Score : 7
__**<color:green>has list</color>**__
..class..
..member..
..method..
__**<color:blue>calling list</color>**__
..class..
	classRelation.Guitar (2067180044);
..member..
	classRelation.Guitarist.guitar (1409160703);
..method..
	 classRelation.Guitar.Guitar() (1293241549);
__**<color:orange>called by list</color>**__
..class..
..member..
..method..
}
class "playSong(classRelation.Guitar)" as f1450652220  
{
Static : false
return Type : Sound
hashCode : 1450652220
ABS Score : 8
Relative Score : 8
__**<color:green>has list</color>**__
..class..
..member..
	classRelation.Guitarist.playSong(classRelation.Guitar).guitar (1833789138);
..method..
__**<color:blue>calling list</color>**__
..class..
	classRelation.Guitar (2067180044);
	classRelation.Instrument (1682681674);
..member..
	classRelation.Guitarist.playSong(classRelation.Guitar).guitar (1833789138);
..method..
	 classRelation.Instrument.play() (707157673);
__**<color:orange>called by list</color>**__
..class..
	classRelation.GuitarAcademy (1400856767);
	classRelation.Guitarist (1478797373);
..member..
	classRelation.GuitarAcademy.teacher (1754444726);
	classRelation.GuitarAcademy.lesson(classRelation.Guitarist).student (1852777344);
..method..
	 classRelation.GuitarAcademy.lesson(classRelation.Guitarist) (780934299);
	 classRelation.Guitarist.playSong(classRelation.Guitar) (1450652220);
}
class "Guitarist()" as f1990519794  #line:green
{
Static : false
return Type : new
hashCode : 1990519794
ABS Score : 0
Relative Score : 0
__**<color:green>has list</color>**__
..class..
..member..
..method..
__**<color:blue>calling list</color>**__
..class..
..member..
..method..
__**<color:orange>called by list</color>**__
..class..
	classRelation.GuitarAcademy (1400856767);
..member..
..method..
	 classRelation.GuitarAcademy.GuitarAcademy() (417301556);
}
}

@enduml

PlantUML version 1.2020.19(Tue Oct 13 00:10:01 KST 2020)
(APACHE source distribution)
Java Runtime: OpenJDK Runtime Environment
JVM: OpenJDK 64-Bit Server VM
Default Encoding: MS949
Language: ko
Country: KR
--></g></svg>