<?xml version="1.0" encoding="UTF-8" standalone="no"?><svg xmlns="http://www.w3.org/2000/svg" xmlns:xlink="http://www.w3.org/1999/xlink" contentScriptType="application/ecmascript" contentStyleType="text/css" height="379px" preserveAspectRatio="none" style="width:277px;height:379px;" version="1.1" viewBox="0 0 277 379" width="277px" zoomAndPan="magnify"><defs><filter height="300%" id="f1sp8is4c68t8c" width="300%" x="-1" y="-1"><feGaussianBlur result="blurOut" stdDeviation="2.0"/><feColorMatrix in="blurOut" result="blurOut2" type="matrix" values="0 0 0 0 0 0 0 0 0 0 0 0 0 0 0 0 0 0 .4 0"/><feOffset dx="4.0" dy="4.0" in="blurOut2" result="blurOut3"/><feBlend in="SourceGraphic" in2="blurOut3" mode="normal"/></filter></defs><g><!--MD5=[5acaab5cabdad998d54697815ee6a98e]
cluster Shop--><rect fill="#FFFFFF" filter="url(#f1sp8is4c68t8c)" height="360" style="stroke: #000000; stroke-width: 1.5;" width="131" x="134" y="7"/><text fill="#000000" font-family="sans-serif" font-size="14" font-weight="bold" lengthAdjust="spacingAndGlyphs" textLength="36" x="181.5" y="25.1533">Shop</text><ellipse cx="199.7487" cy="266.0973" fill="#FEFECE" filter="url(#f1sp8is4c68t8c)" rx="27.7487" ry="16.5973" style="stroke: #A80036; stroke-width: 1.5;"/><text fill="#000000" font-family="sans-serif" font-size="14" lengthAdjust="spacingAndGlyphs" textLength="35" x="182.2487" y="272.2121">regist</text><ellipse cx="199.7132" cy="334.0973" fill="#FEFECE" filter="url(#f1sp8is4c68t8c)" rx="24.2132" ry="16.5973" style="stroke: #A80036; stroke-width: 1.5;"/><text fill="#000000" font-family="sans-serif" font-size="14" lengthAdjust="spacingAndGlyphs" textLength="30" x="184.7132" y="340.2121">login</text><ellipse cx="199.6341" cy="61.8073" fill="#FEFECE" filter="url(#f1sp8is4c68t8c)" rx="19.6341" ry="16.3073" style="stroke: #A80036; stroke-width: 1.5;"/><text fill="#000000" font-family="sans-serif" font-size="14" lengthAdjust="spacingAndGlyphs" textLength="23" x="188.1341" y="67.922">buy</text><ellipse cx="199.6127" cy="130.0973" fill="#FEFECE" filter="url(#f1sp8is4c68t8c)" rx="34.1127" ry="16.5973" style="stroke: #A80036; stroke-width: 1.5;"/><text fill="#000000" font-family="sans-serif" font-size="14" lengthAdjust="spacingAndGlyphs" textLength="44" x="177.6127" y="136.2121">charge</text><ellipse cx="199.669" cy="198.0973" fill="#FEFECE" filter="url(#f1sp8is4c68t8c)" rx="49.669" ry="16.5973" style="stroke: #A80036; stroke-width: 1.5;"/><text fill="#000000" font-family="sans-serif" font-size="14" lengthAdjust="spacingAndGlyphs" textLength="66" x="166.669" y="204.2121">addGoods</text><!--MD5=[9eb572b3e6a7320a307f9235971a615c]
entity actor689745064--><ellipse cx="48" cy="106.5" fill="#FEFECE" filter="url(#f1sp8is4c68t8c)" rx="8" ry="8" style="stroke: #A80036; stroke-width: 1.5;"/><path d="M48,114.5 L48,141.5 M35,122.5 L61,122.5 M48,141.5 L35,156.5 M48,141.5 L61,156.5 " fill="none" filter="url(#f1sp8is4c68t8c)" style="stroke: #A80036; stroke-width: 1.5;"/><text fill="#000000" font-family="sans-serif" font-size="14" lengthAdjust="spacingAndGlyphs" textLength="61" x="17.5" y="178.1533">TestCase</text><!--MD5=[20d94156559fff7094ac250015787626]
entity actor945722724--><ellipse cx="48" cy="225.5" fill="#FEFECE" filter="url(#f1sp8is4c68t8c)" rx="8" ry="8" style="stroke: #A80036; stroke-width: 1.5;"/><path d="M48,233.5 L48,260.5 M35,241.5 L61,241.5 M48,260.5 L35,275.5 M48,260.5 L61,275.5 " fill="none" filter="url(#f1sp8is4c68t8c)" style="stroke: #A80036; stroke-width: 1.5;"/><text fill="#000000" font-family="sans-serif" font-size="14" lengthAdjust="spacingAndGlyphs" textLength="84" x="6" y="297.1533">TestScenario</text><!--MD5=[a418ccef2ec3aa2ba1f03220ac3202fd]
link actor945722724 to UC868815265--><path d="M90.25,260.21 C116.35,261.6 149.32,263.37 171.98,264.58 " fill="none" id="actor945722724-UC868815265" style="stroke: #A80036; stroke-width: 1.0;"/><!--MD5=[4ac0a56115d08384652bf35552988849]
link actor689745064 to UC868815265--><path d="M77.78,181.47 C90.99,198.73 107.77,217.88 126,232 C140.84,243.49 160.19,252.32 175.17,258.09 " fill="none" id="actor689745064-UC868815265" style="stroke: #A80036; stroke-width: 1.0;"/><!--MD5=[4999fe7174001ca2c6f1e7a5711537a6]
link actor945722724 to UC1977310713--><path d="M90.31,281.14 C101.8,287.4 114.32,294.08 126,300 C143.73,308.98 164.28,318.54 178.96,325.23 " fill="none" id="actor945722724-UC1977310713" style="stroke: #A80036; stroke-width: 1.0;"/><!--MD5=[3dde1af980bd463bfbe3c5c731c33a29]
link actor689745064 to UC1977310713--><path d="M78.51,178.41 C82.66,184.78 86.65,191.45 90,198 C111.91,240.79 93.73,264.36 126,300 C139.44,314.84 160.7,323.74 176.73,328.69 " fill="none" id="actor689745064-UC1977310713" style="stroke: #A80036; stroke-width: 1.0;"/><!--MD5=[52f3f81a77d7379a55d44d2ddc1f31dc]
link actor945722724 to UC294658058--><path d="M79.75,215.9 C83.45,210.03 86.98,203.96 90,198 C111.75,155.13 93.73,131.64 126,96 C140.56,79.92 164.29,70.81 180.62,66.15 " fill="none" id="actor945722724-UC294658058" style="stroke: #A80036; stroke-width: 1.0;"/><!--MD5=[d62e2becf4a0cc9f5d2ac8463d707926]
link actor689745064 to UC294658058--><path d="M78.72,121.76 C92.9,113.69 110.2,104.11 126,96 C144.93,86.29 167.13,76.04 181.93,69.37 " fill="none" id="actor689745064-UC294658058" style="stroke: #A80036; stroke-width: 1.0;"/><!--MD5=[2a68f3ad0b778cb0b429c53ddecd34a3]
link actor945722724 to UC1781493632--><path d="M77.34,215.54 C90.59,197.97 107.52,178.38 126,164 C139.6,153.41 157.04,145.1 171.4,139.35 " fill="none" id="actor945722724-UC1781493632" style="stroke: #A80036; stroke-width: 1.0;"/><!--MD5=[9899283461027d7adc5b0369ef982011]
link actor689745064 to UC1781493632--><path d="M78.54,137.22 C103.64,135.71 139.64,133.54 165.65,131.98 " fill="none" id="actor689745064-UC1781493632" style="stroke: #A80036; stroke-width: 1.0;"/><!--MD5=[20de866913029f02dac569cac1ce1386]
link actor945722724 to UC1169474473--><path d="M90.25,241.45 C114.45,231.73 144.55,219.65 166.87,210.69 " fill="none" id="actor945722724-UC1169474473" style="stroke: #A80036; stroke-width: 1.0;"/><!--MD5=[0e16b571bff852cfc13e33b7f6c49778]
link actor689745064 to UC1169474473--><path d="M78.54,150.66 C104.07,160.73 140.86,175.25 166.96,185.55 " fill="none" id="actor689745064-UC1169474473" style="stroke: #A80036; stroke-width: 1.0;"/><!--MD5=[e2e29ad391a0a4b361a0f839ded8cfcf]
@startuml
 left to right direction

actor TestCase as actor689745064
actor TestScenario as actor945722724
rectangle Shop{
	usecase regist as UC868815265
		actor945722724 - - UC868815265
		actor689745064 - - UC868815265
	usecase login as UC1977310713
		actor945722724 - - UC1977310713
		actor689745064 - - UC1977310713
	usecase buy as UC294658058
		actor945722724 - - UC294658058
		actor689745064 - - UC294658058
	usecase charge as UC1781493632
		actor945722724 - - UC1781493632
		actor689745064 - - UC1781493632
	usecase addGoods as UC1169474473
		actor945722724 - - UC1169474473
		actor689745064 - - UC1169474473
}
@enduml

PlantUML version 1.2020.19(Tue Oct 13 00:10:01 KST 2020)
(APACHE source distribution)
Java Runtime: Java(TM) SE Runtime Environment
JVM: Java HotSpot(TM) 64-Bit Server VM
Default Encoding: MS949
Language: ko
Country: KR
--></g></svg>