<?xml version="1.0" encoding="UTF-8" standalone="no"?><svg xmlns="http://www.w3.org/2000/svg" xmlns:xlink="http://www.w3.org/1999/xlink" contentScriptType="application/ecmascript" contentStyleType="text/css" height="570px" preserveAspectRatio="none" style="width:237px;height:570px;" version="1.1" viewBox="0 0 237 570" width="237px" zoomAndPan="magnify"><defs><filter height="300%" id="fa8qeuafyilfe" width="300%" x="-1" y="-1"><feGaussianBlur result="blurOut" stdDeviation="2.0"/><feColorMatrix in="blurOut" result="blurOut2" type="matrix" values="0 0 0 0 0 0 0 0 0 0 0 0 0 0 0 0 0 0 .4 0"/><feOffset dx="4.0" dy="4.0" in="blurOut2" result="blurOut3"/><feBlend in="SourceGraphic" in2="blurOut3" mode="normal"/></filter></defs><g><!--MD5=[ab42c4a44c4751ef8c003ff5028724fe]
cluster fun464676531--><rect fill="#FFFFFF" filter="url(#fa8qeuafyilfe)" height="88" style="stroke: #000000; stroke-width: 1.5;" width="100" x="125" y="289.5"/><text fill="#000000" font-family="sans-serif" font-size="14" font-weight="bold" lengthAdjust="spacingAndGlyphs" textLength="84" x="133" y="307.6533">makeCoffee</text><ellipse cx="174.6985" cy="344.5973" fill="#FEFECE" filter="url(#fa8qeuafyilfe)" rx="32.6985" ry="16.5973" style="stroke: #A80036; stroke-width: 1.5;"/><text fill="#000000" font-family="sans-serif" font-size="14" lengthAdjust="spacingAndGlyphs" textLength="42" x="153.6985" y="350.7121">Coffee</text><!--MD5=[7b8c13b2486169fe6b2433a66826ac2d]
entity actor1804379080--><ellipse cx="43.5" cy="133" fill="#FEFECE" filter="url(#fa8qeuafyilfe)" rx="8" ry="8" style="stroke: #A80036; stroke-width: 1.5;"/><path d="M43.5,141 L43.5,168 M30.5,149 L56.5,149 M43.5,168 L30.5,183 M43.5,168 L56.5,183 " fill="none" filter="url(#fa8qeuafyilfe)" style="stroke: #A80036; stroke-width: 1.5;"/><text fill="#000000" font-family="sans-serif" font-size="14" lengthAdjust="spacingAndGlyphs" textLength="67" x="10" y="204.6533">Americano</text><!--MD5=[5527d9a15a8a5d2efd148514dd86339a]
entity actor1757880885--><ellipse cx="43.5" cy="252" fill="#FEFECE" filter="url(#fa8qeuafyilfe)" rx="8" ry="8" style="stroke: #A80036; stroke-width: 1.5;"/><path d="M43.5,260 L43.5,287 M30.5,268 L56.5,268 M43.5,287 L30.5,302 M43.5,287 L56.5,302 " fill="none" filter="url(#fa8qeuafyilfe)" style="stroke: #A80036; stroke-width: 1.5;"/><text fill="#000000" font-family="sans-serif" font-size="14" lengthAdjust="spacingAndGlyphs" textLength="42" x="22.5" y="323.6533">Coffee</text><!--MD5=[d2e72f580055ee728da42cb00090ef47]
entity actor931496835--><ellipse cx="43.5" cy="371" fill="#FEFECE" filter="url(#fa8qeuafyilfe)" rx="8" ry="8" style="stroke: #A80036; stroke-width: 1.5;"/><path d="M43.5,379 L43.5,406 M30.5,387 L56.5,387 M43.5,406 L30.5,421 M43.5,406 L56.5,421 " fill="none" filter="url(#fa8qeuafyilfe)" style="stroke: #A80036; stroke-width: 1.5;"/><text fill="#000000" font-family="sans-serif" font-size="14" lengthAdjust="spacingAndGlyphs" textLength="44" x="21.5" y="442.6533">Barista</text><!--MD5=[fec588ee3cb4d7228a2596c67bdebb7d]
entity actor278240974--><ellipse cx="43.5" cy="490" fill="#FEFECE" filter="url(#fa8qeuafyilfe)" rx="8" ry="8" style="stroke: #A80036; stroke-width: 1.5;"/><path d="M43.5,498 L43.5,525 M30.5,506 L56.5,506 M43.5,525 L30.5,540 M43.5,525 L56.5,540 " fill="none" filter="url(#fa8qeuafyilfe)" style="stroke: #A80036; stroke-width: 1.5;"/><text fill="#000000" font-family="sans-serif" font-size="14" lengthAdjust="spacingAndGlyphs" textLength="62" x="12.5" y="561.6533">CafeLatte</text><!--MD5=[66227ad4b4d33655ad9bcd183906bba0]
entity actor1311146128--><ellipse cx="43.5" cy="14" fill="#FEFECE" filter="url(#fa8qeuafyilfe)" rx="8" ry="8" style="stroke: #A80036; stroke-width: 1.5;"/><path d="M43.5,22 L43.5,49 M30.5,30 L56.5,30 M43.5,49 L30.5,64 M43.5,49 L56.5,64 " fill="none" filter="url(#fa8qeuafyilfe)" style="stroke: #A80036; stroke-width: 1.5;"/><text fill="#000000" font-family="sans-serif" font-size="14" lengthAdjust="spacingAndGlyphs" textLength="75" x="6" y="85.6533">CoffeeShop</text><!--MD5=[9f689132ce849f2db7dc325a5b8e8a01]
link actor1804379080 to UC0--><path d="M75.07,207.92 C103.09,246.79 143.04,302.23 162.28,328.94 " fill="none" id="actor1804379080-UC0" style="stroke: #A80036; stroke-width: 1.0;"/><!--MD5=[c6ae30f66349d095963ddc60f4b1941d]
link actor931496835 to UC0--><path d="M65.51,393.89 C88.64,383.31 125.74,366.34 149.87,355.31 " fill="none" id="actor931496835-UC0" style="stroke: #A80036; stroke-width: 1.0;"/><!--MD5=[d2bf18fef35bc7cd19f24f8f9cd3751f]
link actor278240974 to UC0--><path d="M74.74,480.77 C102.75,442.13 142.88,386.75 162.23,360.06 " fill="none" id="actor278240974-UC0" style="stroke: #A80036; stroke-width: 1.0;"/><!--MD5=[0302a91b67d4c26bd7b06648bbbf6cbc]
link actor1757880885 to UC0--><path d="M64.66,293.88 C87.76,304.62 125.57,322.21 149.99,333.56 " fill="none" id="actor1757880885-UC0" style="stroke: #A80036; stroke-width: 1.0;"/><!--MD5=[e81934c02b3397193176a9d173f8c418]
@startuml
 left to right direction

actor Americano as actor1804379080
actor Coffee as actor1757880885
actor Barista as actor931496835
actor CafeLatte as actor278240974
actor CoffeeShop as actor1311146128
	rectangle "makeCoffee" as fun464676531{
	usecase "Coffee" as UC0
		actor1804379080- -UC0
		actor931496835- -UC0
		actor278240974- -UC0
		actor1757880885- -UC0
	}

@enduml

PlantUML version 1.2020.19(Tue Oct 13 00:10:01 KST 2020)
(APACHE source distribution)
Java Runtime: Java(TM) SE Runtime Environment
JVM: Java HotSpot(TM) 64-Bit Server VM
Default Encoding: MS949
Language: ko
Country: KR
--></g></svg>