<?xml version="1.0" encoding="UTF-8" standalone="no"?><svg xmlns="http://www.w3.org/2000/svg" xmlns:xlink="http://www.w3.org/1999/xlink" contentScriptType="application/ecmascript" contentStyleType="text/css" height="379px" preserveAspectRatio="none" style="width:251px;height:379px;" version="1.1" viewBox="0 0 251 379" width="251px" zoomAndPan="magnify"><defs><filter height="300%" id="f1eedczjosw6q3" width="300%" x="-1" y="-1"><feGaussianBlur result="blurOut" stdDeviation="2.0"/><feColorMatrix in="blurOut" result="blurOut2" type="matrix" values="0 0 0 0 0 0 0 0 0 0 0 0 0 0 0 0 0 0 .4 0"/><feOffset dx="4.0" dy="4.0" in="blurOut2" result="blurOut3"/><feBlend in="SourceGraphic" in2="blurOut3" mode="normal"/></filter></defs><g><!--MD5=[f6064968006b102cb1b3092be2f53bd9]
class cl1--><rect codeLine="1" fill="#FEFECE" filter="url(#f1eedczjosw6q3)" height="358.1777" id="cl1" style="stroke: #A80036; stroke-width: 1.5;" width="230" x="7" y="7"/><ellipse cx="50.8" cy="23" fill="#ADD1B2" rx="11" ry="11" style="stroke: #A80036; stroke-width: 1.0;"/><path d="M50.6281,16.4844 Q48.7531,16.4844 47.5969,18.2344 Q46.4094,20.0156 46.4094,23.0156 Q46.4094,26.3906 47.6125,28.1563 Q48.675,29.7813 50.425,29.7813 Q52.1125,29.7813 53.0656,28.875 Q54.1281,27.8594 54.2688,25.625 Q54.2688,25.2031 54.0344,24.9688 Q53.8469,24.7344 53.5031,24.7031 Q53.175,24.7031 52.9406,24.8906 Q52.675,25.125 52.675,25.5156 Q52.6438,26.9063 52.05,27.6406 Q51.5188,28.3438 50.5656,28.3438 Q49.4094,28.3438 48.6906,26.9063 Q47.9719,25.4063 47.9719,22.9844 Q47.9719,20.4375 48.8625,19.0469 Q49.6125,17.9219 50.7531,17.9219 Q51.4094,17.9219 51.9094,18.4688 Q52.4719,19.0781 52.5969,20.1406 Q52.6438,20.8438 53.4719,20.7344 Q54.2531,20.625 54.2063,19.9375 Q54.0188,18.4219 53.2531,17.5469 Q52.3156,16.4844 50.6281,16.4844 Z "/><text fill="#000000" font-family="sans-serif" font-size="12" lengthAdjust="spacingAndGlyphs" textLength="134" x="71.2" y="28.6045">shop.User.setMoney(int)</text><line style="stroke: #A80036; stroke-width: 1.5;" x1="8" x2="236" y1="39" y2="39"/><line style="stroke: #A80036; stroke-width: 1.5;" x1="8" x2="102" y1="54.5544" y2="54.5544"/><text fill="#008000" font-family="sans-serif" font-size="11" font-weight="bold" lengthAdjust="spacingAndGlyphs" textLength="40" x="102" y="59.1919">has list</text><line style="stroke: #A80036; stroke-width: 1.5;" x1="142" x2="236" y1="54.5544" y2="54.5544"/><line style="stroke: #A80036; stroke-width: 1.0; stroke-dasharray: 1.0,2.0;" x1="8" x2="109" y1="77.2178" y2="77.2178"/><text fill="#000000" font-family="sans-serif" font-size="11" lengthAdjust="spacingAndGlyphs" textLength="26" x="109" y="81.8552">class</text><line style="stroke: #A80036; stroke-width: 1.0; stroke-dasharray: 1.0,2.0;" x1="135" x2="236" y1="77.2178" y2="77.2178"/><text fill="#000000" font-family="sans-serif" font-size="11" lengthAdjust="spacingAndGlyphs" textLength="108" x="13" y="120.1274">int money (20049680);</text><line style="stroke: #A80036; stroke-width: 1.0; stroke-dasharray: 1.0,2.0;" x1="8" x2="103" y1="99.8811" y2="99.8811"/><text fill="#000000" font-family="sans-serif" font-size="11" lengthAdjust="spacingAndGlyphs" textLength="38" x="103" y="104.5186">member</text><line style="stroke: #A80036; stroke-width: 1.0; stroke-dasharray: 1.0,2.0;" x1="141" x2="236" y1="99.8811" y2="99.8811"/><line style="stroke: #A80036; stroke-width: 1.0; stroke-dasharray: 1.0,2.0;" x1="8" x2="104.5" y1="134.0989" y2="134.0989"/><text fill="#000000" font-family="sans-serif" font-size="11" lengthAdjust="spacingAndGlyphs" textLength="35" x="104.5" y="138.7363">method</text><line style="stroke: #A80036; stroke-width: 1.0; stroke-dasharray: 1.0,2.0;" x1="139.5" x2="236" y1="134.0989" y2="134.0989"/><line style="stroke: #A80036; stroke-width: 1.5;" x1="8" x2="94.5" y1="156.7622" y2="156.7622"/><text fill="#0000FF" font-family="sans-serif" font-size="11" font-weight="bold" lengthAdjust="spacingAndGlyphs" textLength="55" x="94.5" y="161.3997">calling list</text><line style="stroke: #A80036; stroke-width: 1.5;" x1="149.5" x2="236" y1="156.7622" y2="156.7622"/><line style="stroke: #A80036; stroke-width: 1.0; stroke-dasharray: 1.0,2.0;" x1="8" x2="109" y1="179.4255" y2="179.4255"/><text fill="#000000" font-family="sans-serif" font-size="11" lengthAdjust="spacingAndGlyphs" textLength="26" x="109" y="184.063">class</text><line style="stroke: #A80036; stroke-width: 1.0; stroke-dasharray: 1.0,2.0;" x1="135" x2="236" y1="179.4255" y2="179.4255"/><text fill="#000000" font-family="sans-serif" font-size="11" lengthAdjust="spacingAndGlyphs" textLength="120" x="13" y="222.3352">int money (1965237677);</text><line style="stroke: #A80036; stroke-width: 1.0; stroke-dasharray: 1.0,2.0;" x1="8" x2="103" y1="202.0889" y2="202.0889"/><text fill="#000000" font-family="sans-serif" font-size="11" lengthAdjust="spacingAndGlyphs" textLength="38" x="103" y="206.7263">member</text><line style="stroke: #A80036; stroke-width: 1.0; stroke-dasharray: 1.0,2.0;" x1="141" x2="236" y1="202.0889" y2="202.0889"/><line style="stroke: #A80036; stroke-width: 1.0; stroke-dasharray: 1.0,2.0;" x1="8" x2="104.5" y1="236.3066" y2="236.3066"/><text fill="#000000" font-family="sans-serif" font-size="11" lengthAdjust="spacingAndGlyphs" textLength="35" x="104.5" y="240.9441">method</text><line style="stroke: #A80036; stroke-width: 1.0; stroke-dasharray: 1.0,2.0;" x1="139.5" x2="236" y1="236.3066" y2="236.3066"/><line style="stroke: #A80036; stroke-width: 1.5;" x1="8" x2="88" y1="258.97" y2="258.97"/><text fill="#FFA500" font-family="sans-serif" font-size="11" font-weight="bold" lengthAdjust="spacingAndGlyphs" textLength="68" x="88" y="263.6074">called by list</text><line style="stroke: #A80036; stroke-width: 1.5;" x1="156" x2="236" y1="258.97" y2="258.97"/><text fill="#000000" font-family="sans-serif" font-size="11" lengthAdjust="spacingAndGlyphs" textLength="93" x="13" y="301.8796">Shop (536122141);</text><line style="stroke: #A80036; stroke-width: 1.0; stroke-dasharray: 1.0,2.0;" x1="8" x2="109" y1="281.6333" y2="281.6333"/><text fill="#000000" font-family="sans-serif" font-size="11" lengthAdjust="spacingAndGlyphs" textLength="26" x="109" y="286.2708">class</text><line style="stroke: #A80036; stroke-width: 1.0; stroke-dasharray: 1.0,2.0;" x1="135" x2="236" y1="281.6333" y2="281.6333"/><line style="stroke: #A80036; stroke-width: 1.0; stroke-dasharray: 1.0,2.0;" x1="8" x2="103" y1="315.8511" y2="315.8511"/><text fill="#000000" font-family="sans-serif" font-size="11" lengthAdjust="spacingAndGlyphs" textLength="38" x="103" y="320.4885">member</text><line style="stroke: #A80036; stroke-width: 1.0; stroke-dasharray: 1.0,2.0;" x1="141" x2="236" y1="315.8511" y2="315.8511"/><text fill="#000000" font-family="sans-serif" font-size="11" lengthAdjust="spacingAndGlyphs" textLength="218" x="13" y="358.7607">boolean charge(shop.User, int) (471579726);</text><line style="stroke: #A80036; stroke-width: 1.0; stroke-dasharray: 1.0,2.0;" x1="8" x2="104.5" y1="338.5144" y2="338.5144"/><text fill="#000000" font-family="sans-serif" font-size="11" lengthAdjust="spacingAndGlyphs" textLength="35" x="104.5" y="343.1519">method</text><line style="stroke: #A80036; stroke-width: 1.0; stroke-dasharray: 1.0,2.0;" x1="139.5" x2="236" y1="338.5144" y2="338.5144"/><!--MD5=[c0e9f47fd9f8e5f46e9415b72e29f0ef]
@startuml
class "shop.User.setMoney(int)" as cl1{
__**<color:green>has list</color>**__
..class..
..member..
	int money (20049680);
..method..
__**<color:blue>calling list</color>**__
..class..
..member..
	int money (1965237677);
..method..
__**<color:orange>called by list</color>**__
..class..
	Shop (536122141);
..member..
..method..
	boolean charge(shop.User, int) (471579726);
}

@enduml

PlantUML version 1.2020.19(Tue Oct 13 00:10:01 KST 2020)
(APACHE source distribution)
Java Runtime: Java(TM) SE Runtime Environment
JVM: Java HotSpot(TM) 64-Bit Server VM
Default Encoding: MS949
Language: ko
Country: KR
--></g></svg>