<?xml version="1.0" encoding="UTF-8" standalone="no"?><svg xmlns="http://www.w3.org/2000/svg" xmlns:xlink="http://www.w3.org/1999/xlink" contentScriptType="application/ecmascript" contentStyleType="text/css" height="372px" preserveAspectRatio="none" style="width:463px;height:372px;" version="1.1" viewBox="0 0 463 372" width="463px" zoomAndPan="magnify"><defs><filter height="300%" id="f19wsxgh0vm17d" width="300%" x="-1" y="-1"><feGaussianBlur result="blurOut" stdDeviation="2.0"/><feColorMatrix in="blurOut" result="blurOut2" type="matrix" values="0 0 0 0 0 0 0 0 0 0 0 0 0 0 0 0 0 0 .4 0"/><feOffset dx="4.0" dy="4.0" in="blurOut2" result="blurOut3"/><feBlend in="SourceGraphic" in2="blurOut3" mode="normal"/></filter></defs><g><rect fill="#FFFFFF" filter="url(#f19wsxgh0vm17d)" height="249.1357" style="stroke: #000000; stroke-width: 2.0;" width="439.5" x="10" y="60.2295"/><line style="stroke: #A80036; stroke-width: 1.0; stroke-dasharray: 5.0,5.0;" x1="37" x2="37" y1="43.2295" y2="326.3652"/><line style="stroke: #A80036; stroke-width: 1.0; stroke-dasharray: 5.0,5.0;" x1="87" x2="87" y1="43.2295" y2="326.3652"/><line style="stroke: #A80036; stroke-width: 1.0; stroke-dasharray: 5.0,5.0;" x1="143.5" x2="143.5" y1="43.2295" y2="326.3652"/><line style="stroke: #A80036; stroke-width: 1.0; stroke-dasharray: 5.0,5.0;" x1="195.5" x2="195.5" y1="43.2295" y2="326.3652"/><line style="stroke: #A80036; stroke-width: 1.0; stroke-dasharray: 5.0,5.0;" x1="251.5" x2="251.5" y1="43.2295" y2="326.3652"/><line style="stroke: #A80036; stroke-width: 1.0; stroke-dasharray: 5.0,5.0;" x1="297.5" x2="297.5" y1="43.2295" y2="326.3652"/><line style="stroke: #A80036; stroke-width: 1.0; stroke-dasharray: 5.0,5.0;" x1="338.5" x2="338.5" y1="43.2295" y2="326.3652"/><line style="stroke: #A80036; stroke-width: 1.0; stroke-dasharray: 5.0,5.0;" x1="379.5" x2="379.5" y1="43.2295" y2="326.3652"/><line style="stroke: #A80036; stroke-width: 1.0; stroke-dasharray: 5.0,5.0;" x1="421.5" x2="421.5" y1="43.2295" y2="326.3652"/><rect fill="#FEFECE" filter="url(#f19wsxgh0vm17d)" height="33.2295" style="stroke: #A80036; stroke-width: 1.5;" width="30" x="20" y="5"/><text fill="#000000" font-family="sans-serif" font-size="14" lengthAdjust="spacingAndGlyphs" textLength="16" x="27" y="28.1533">Bc</text><rect fill="#FEFECE" filter="url(#f19wsxgh0vm17d)" height="33.2295" style="stroke: #A80036; stroke-width: 1.5;" width="30" x="20" y="325.3652"/><text fill="#000000" font-family="sans-serif" font-size="14" lengthAdjust="spacingAndGlyphs" textLength="16" x="27" y="348.5186">Bc</text><rect fill="#FEFECE" filter="url(#f19wsxgh0vm17d)" height="33.2295" style="stroke: #A80036; stroke-width: 1.5;" width="24" x="73" y="5"/><text fill="#000000" font-family="sans-serif" font-size="14" lengthAdjust="spacingAndGlyphs" textLength="10" x="80" y="28.1533">C</text><rect fill="#FEFECE" filter="url(#f19wsxgh0vm17d)" height="33.2295" style="stroke: #A80036; stroke-width: 1.5;" width="24" x="73" y="325.3652"/><text fill="#000000" font-family="sans-serif" font-size="14" lengthAdjust="spacingAndGlyphs" textLength="10" x="80" y="348.5186">C</text><rect fill="#FEFECE" filter="url(#f19wsxgh0vm17d)" height="33.2295" style="stroke: #A80036; stroke-width: 1.5;" width="33" x="125.5" y="5"/><text fill="#000000" font-family="sans-serif" font-size="14" lengthAdjust="spacingAndGlyphs" textLength="19" x="132.5" y="28.1533">AC</text><rect fill="#FEFECE" filter="url(#f19wsxgh0vm17d)" height="33.2295" style="stroke: #A80036; stroke-width: 1.5;" width="33" x="125.5" y="325.3652"/><text fill="#000000" font-family="sans-serif" font-size="14" lengthAdjust="spacingAndGlyphs" textLength="19" x="132.5" y="348.5186">AC</text><rect fill="#FEFECE" filter="url(#f19wsxgh0vm17d)" height="33.2295" style="stroke: #A80036; stroke-width: 1.5;" width="42" x="172.5" y="5"/><text fill="#000000" font-family="sans-serif" font-size="14" lengthAdjust="spacingAndGlyphs" textLength="28" x="179.5" y="28.1533">CC1</text><rect fill="#FEFECE" filter="url(#f19wsxgh0vm17d)" height="33.2295" style="stroke: #A80036; stroke-width: 1.5;" width="42" x="172.5" y="325.3652"/><text fill="#000000" font-family="sans-serif" font-size="14" lengthAdjust="spacingAndGlyphs" textLength="28" x="179.5" y="348.5186">CC1</text><rect fill="#FEFECE" filter="url(#f19wsxgh0vm17d)" height="33.2295" style="stroke: #A80036; stroke-width: 1.5;" width="42" x="228.5" y="5"/><text fill="#000000" font-family="sans-serif" font-size="14" lengthAdjust="spacingAndGlyphs" textLength="28" x="235.5" y="28.1533">CC2</text><rect fill="#FEFECE" filter="url(#f19wsxgh0vm17d)" height="33.2295" style="stroke: #A80036; stroke-width: 1.5;" width="42" x="228.5" y="325.3652"/><text fill="#000000" font-family="sans-serif" font-size="14" lengthAdjust="spacingAndGlyphs" textLength="28" x="235.5" y="348.5186">CC2</text><rect fill="#FEFECE" filter="url(#f19wsxgh0vm17d)" height="33.2295" style="stroke: #A80036; stroke-width: 1.5;" width="23" x="284.5" y="5"/><text fill="#000000" font-family="sans-serif" font-size="14" lengthAdjust="spacingAndGlyphs" textLength="9" x="291.5" y="28.1533">A</text><rect fill="#FEFECE" filter="url(#f19wsxgh0vm17d)" height="33.2295" style="stroke: #A80036; stroke-width: 1.5;" width="23" x="284.5" y="325.3652"/><text fill="#000000" font-family="sans-serif" font-size="14" lengthAdjust="spacingAndGlyphs" textLength="9" x="291.5" y="348.5186">A</text><rect fill="#FEFECE" filter="url(#f19wsxgh0vm17d)" height="33.2295" style="stroke: #A80036; stroke-width: 1.5;" width="31" x="321.5" y="5"/><text fill="#000000" font-family="sans-serif" font-size="14" lengthAdjust="spacingAndGlyphs" textLength="17" x="328.5" y="28.1533">Ba</text><rect fill="#FEFECE" filter="url(#f19wsxgh0vm17d)" height="33.2295" style="stroke: #A80036; stroke-width: 1.5;" width="31" x="321.5" y="325.3652"/><text fill="#000000" font-family="sans-serif" font-size="14" lengthAdjust="spacingAndGlyphs" textLength="17" x="328.5" y="348.5186">Ba</text><rect fill="#FEFECE" filter="url(#f19wsxgh0vm17d)" height="33.2295" style="stroke: #A80036; stroke-width: 1.5;" width="23" x="366.5" y="5"/><text fill="#000000" font-family="sans-serif" font-size="14" lengthAdjust="spacingAndGlyphs" textLength="9" x="373.5" y="28.1533">B</text><rect fill="#FEFECE" filter="url(#f19wsxgh0vm17d)" height="33.2295" style="stroke: #A80036; stroke-width: 1.5;" width="23" x="366.5" y="325.3652"/><text fill="#000000" font-family="sans-serif" font-size="14" lengthAdjust="spacingAndGlyphs" textLength="9" x="373.5" y="348.5186">B</text><rect fill="#FEFECE" filter="url(#f19wsxgh0vm17d)" height="33.2295" style="stroke: #A80036; stroke-width: 1.5;" width="32" x="403.5" y="5"/><text fill="#000000" font-family="sans-serif" font-size="14" lengthAdjust="spacingAndGlyphs" textLength="18" x="410.5" y="28.1533">BB</text><rect fill="#FEFECE" filter="url(#f19wsxgh0vm17d)" height="33.2295" style="stroke: #A80036; stroke-width: 1.5;" width="32" x="403.5" y="325.3652"/><text fill="#000000" font-family="sans-serif" font-size="14" lengthAdjust="spacingAndGlyphs" textLength="18" x="410.5" y="348.5186">BB</text><path d="M10,60.2295 L434,60.2295 L434,69.2295 L424,79.2295 L10,79.2295 L10,60.2295 " fill="#EEEEEE" style="stroke: #000000; stroke-width: 1.0;"/><rect fill="none" height="249.1357" style="stroke: #000000; stroke-width: 2.0;" width="439.5" x="10" y="60.2295"/><text fill="#000000" font-family="sans-serif" font-size="13" font-weight="bold" lengthAdjust="spacingAndGlyphs" textLength="379" x="25" y="76.229">void connectTarget.B.Bc(connectTarget.C, connectTarget.A)</text><polygon fill="#A80036" points="75,99.9414,85,103.9414,75,107.9414,79,103.9414" style="stroke: #A80036; stroke-width: 1.0;"/><line style="stroke: #A80036; stroke-width: 1.0;" x1="37" x2="81" y1="103.9414" y2="103.9414"/><text fill="#000000" font-family="sans-serif" font-size="13" lengthAdjust="spacingAndGlyphs" textLength="26" x="44" y="99.085">AC()</text><polygon fill="#A80036" points="98,131.7974,88,135.7974,98,139.7974,94,135.7974" style="stroke: #A80036; stroke-width: 1.0;"/><line style="stroke: #A80036; stroke-width: 1.0;" x1="92" x2="143" y1="135.7974" y2="135.7974"/><text fill="#000000" font-family="sans-serif" font-size="13" lengthAdjust="spacingAndGlyphs" textLength="33" x="104" y="130.9409">CC1()</text><polygon fill="#A80036" points="183.5,145.7974,193.5,149.7974,183.5,153.7974,187.5,149.7974" style="stroke: #A80036; stroke-width: 1.0;"/><line style="stroke: #A80036; stroke-width: 1.0; stroke-dasharray: 2.0,2.0;" x1="144" x2="189.5" y1="149.7974" y2="149.7974"/><polygon fill="#A80036" points="98,177.6533,88,181.6533,98,185.6533,94,181.6533" style="stroke: #A80036; stroke-width: 1.0;"/><line style="stroke: #A80036; stroke-width: 1.0;" x1="92" x2="143" y1="181.6533" y2="181.6533"/><text fill="#000000" font-family="sans-serif" font-size="13" lengthAdjust="spacingAndGlyphs" textLength="33" x="104" y="176.7969">CC2()</text><polygon fill="#A80036" points="239.5,191.6533,249.5,195.6533,239.5,199.6533,243.5,195.6533" style="stroke: #A80036; stroke-width: 1.0;"/><line style="stroke: #A80036; stroke-width: 1.0; stroke-dasharray: 2.0,2.0;" x1="144" x2="245.5" y1="195.6533" y2="195.6533"/><polygon fill="#A80036" points="132,205.6533,142,209.6533,132,213.6533,136,209.6533" style="stroke: #A80036; stroke-width: 1.0;"/><line style="stroke: #A80036; stroke-width: 1.0; stroke-dasharray: 2.0,2.0;" x1="37" x2="138" y1="209.6533" y2="209.6533"/><polygon fill="#A80036" points="286,237.5093,296,241.5093,286,245.5093,290,241.5093" style="stroke: #A80036; stroke-width: 1.0;"/><line style="stroke: #A80036; stroke-width: 1.0;" x1="37" x2="292" y1="241.5093" y2="241.5093"/><text fill="#000000" font-family="sans-serif" font-size="13" lengthAdjust="spacingAndGlyphs" textLength="24" x="44" y="236.6528">Ba()</text><polygon fill="#A80036" points="327,251.5093,337,255.5093,327,259.5093,331,255.5093" style="stroke: #A80036; stroke-width: 1.0;"/><line style="stroke: #A80036; stroke-width: 1.0; stroke-dasharray: 2.0,2.0;" x1="37" x2="333" y1="255.5093" y2="255.5093"/><polygon fill="#A80036" points="368,283.3652,378,287.3652,368,291.3652,372,287.3652" style="stroke: #A80036; stroke-width: 1.0;"/><line style="stroke: #A80036; stroke-width: 1.0;" x1="37" x2="374" y1="287.3652" y2="287.3652"/><text fill="#000000" font-family="sans-serif" font-size="13" lengthAdjust="spacingAndGlyphs" textLength="26" x="44" y="282.5088">BB()</text><polygon fill="#A80036" points="409.5,297.3652,419.5,301.3652,409.5,305.3652,413.5,301.3652" style="stroke: #A80036; stroke-width: 1.0;"/><line style="stroke: #A80036; stroke-width: 1.0; stroke-dasharray: 2.0,2.0;" x1="37" x2="415.5" y1="301.3652" y2="301.3652"/><!--MD5=[4b73167d819638d4ae0312ca5d52d114]
@startuml
group void connectTarget.B.Bc(connectTarget.C, connectTarget.A)
	Bc->C : AC()
		AC->C : CC1()
			CC1<- -AC
		AC->C : CC2()
			CC2<- -AC
		AC<- -Bc
	Bc->A : Ba()
		Ba<- -Bc
	Bc->B : BB()
		BB<- -Bc
end

@enduml

PlantUML version 1.2020.19(Tue Oct 13 00:10:01 KST 2020)
(APACHE source distribution)
Java Runtime: Java(TM) SE Runtime Environment
JVM: Java HotSpot(TM) 64-Bit Server VM
Default Encoding: MS949
Language: ko
Country: KR
--></g></svg>