<?xml version="1.0" encoding="UTF-8" standalone="no"?><svg xmlns="http://www.w3.org/2000/svg" xmlns:xlink="http://www.w3.org/1999/xlink" contentScriptType="application/ecmascript" contentStyleType="text/css" height="496px" preserveAspectRatio="none" style="width:257px;height:496px;" version="1.1" viewBox="0 0 257 496" width="257px" zoomAndPan="magnify"><defs><filter height="300%" id="fg0xidozvxh1" width="300%" x="-1" y="-1"><feGaussianBlur result="blurOut" stdDeviation="2.0"/><feColorMatrix in="blurOut" result="blurOut2" type="matrix" values="0 0 0 0 0 0 0 0 0 0 0 0 0 0 0 0 0 0 .4 0"/><feOffset dx="4.0" dy="4.0" in="blurOut2" result="blurOut3"/><feBlend in="SourceGraphic" in2="blurOut3" mode="normal"/></filter></defs><g><!--MD5=[a191f3fbcfa2575f1905b11423a4aa53]
cluster forMidEx.Game--><polygon fill="#FFFFFF" filter="url(#fg0xidozvxh1)" points="16,6,129,6,136,31.2295,240,31.2295,240,489,16,489,16,6" style="stroke: #000000; stroke-width: 1.5;"/><line style="stroke: #000000; stroke-width: 1.5;" x1="16" x2="136" y1="31.2295" y2="31.2295"/><text fill="#000000" font-family="sans-serif" font-size="14" font-weight="bold" lengthAdjust="spacingAndGlyphs" textLength="107" x="20" y="24.1533">forMidEx.Game</text><!--MD5=[ad5ef0cefd8331859bcc3dca89d730de]
class forMidEx.Game.diceBattle(int)--><rect codeLine="1" fill="#FEFECE" filter="url(#fg0xidozvxh1)" height="426.6133" id="forMidEx.Game.diceBattle(int)" style="stroke: #A80036; stroke-width: 1.5;" width="193" x="32" y="45.5"/><ellipse cx="86.75" cy="61.5" fill="#ADD1B2" rx="11" ry="11" style="stroke: #A80036; stroke-width: 1.0;"/><path d="M86.3125,55.0156 Q83.5781,55.0156 82.5,56.6406 Q81.3594,58.3594 81.3594,61.2813 Q81.3594,64.5781 82.5156,66.2813 Q83.5,67.7813 86.1094,67.7813 Q87.6875,67.7813 88.5625,66.9531 Q89.5469,66 89.6875,63.875 Q89.6875,63.5781 89.5156,63.4063 Q89.3906,63.25 89.1719,63.2344 Q87.9531,63.2344 87.7969,63.3594 Q87.625,63.5156 87.625,63.7813 Q87.5938,65.2656 86.9375,66.0781 Q86.3281,66.875 86.25,66.875 Q84.9219,66.875 84.1406,65.2813 Q83.3906,63.7344 83.3906,61.25 Q83.3906,58.625 84.3281,57.1719 Q85.1563,55.9219 86.4375,55.9219 Q86.4375,55.9219 86.7813,56.5469 Q87.4063,57.2188 87.5469,58.375 Q87.6563,58.9531 89.125,58.7344 Q89.6563,58.6563 89.625,58.2344 Q89.4531,56.7969 88.7344,55.9844 Q87.875,55.0156 86.3125,55.0156 Z "/><text fill="#000000" font-family="sans-serif" font-size="12" lengthAdjust="spacingAndGlyphs" textLength="75" x="107.25" y="67.1045">diceBattle(int)</text><line style="stroke: #A80036; stroke-width: 1.5;" x1="33" x2="224" y1="77.5" y2="77.5"/><line style="stroke: #A80036; stroke-width: 1.5;" x1="33" x2="108.5" y1="93.0544" y2="93.0544"/><text fill="#008000" font-family="sans-serif" font-size="11" font-weight="bold" lengthAdjust="spacingAndGlyphs" textLength="40" x="108.5" y="97.6919">has list</text><line style="stroke: #A80036; stroke-width: 1.5;" x1="148.5" x2="224" y1="93.0544" y2="93.0544"/><line style="stroke: #A80036; stroke-width: 1.0; stroke-dasharray: 1.0,2.0;" x1="33" x2="115.5" y1="115.7178" y2="115.7178"/><text fill="#000000" font-family="sans-serif" font-size="11" lengthAdjust="spacingAndGlyphs" textLength="26" x="115.5" y="120.3552">class</text><line style="stroke: #A80036; stroke-width: 1.0; stroke-dasharray: 1.0,2.0;" x1="141.5" x2="224" y1="115.7178" y2="115.7178"/><text fill="#000000" font-family="sans-serif" font-size="11" lengthAdjust="spacingAndGlyphs" textLength="129" x="38" y="158.6274">int diceNum (1979313356);</text><text fill="#000000" font-family="sans-serif" font-size="11" lengthAdjust="spacingAndGlyphs" textLength="138" x="38" y="173.7363">int newValue (1386883398);</text><text fill="#000000" font-family="sans-serif" font-size="11" lengthAdjust="spacingAndGlyphs" textLength="138" x="38" y="188.8452">int diceshape (1306854175);</text><line style="stroke: #A80036; stroke-width: 1.0; stroke-dasharray: 1.0,2.0;" x1="33" x2="109.5" y1="138.3811" y2="138.3811"/><text fill="#000000" font-family="sans-serif" font-size="11" lengthAdjust="spacingAndGlyphs" textLength="38" x="109.5" y="143.0186">member</text><line style="stroke: #A80036; stroke-width: 1.0; stroke-dasharray: 1.0,2.0;" x1="147.5" x2="224" y1="138.3811" y2="138.3811"/><line style="stroke: #A80036; stroke-width: 1.0; stroke-dasharray: 1.0,2.0;" x1="33" x2="111" y1="202.8167" y2="202.8167"/><text fill="#000000" font-family="sans-serif" font-size="11" lengthAdjust="spacingAndGlyphs" textLength="35" x="111" y="207.4541">method</text><line style="stroke: #A80036; stroke-width: 1.0; stroke-dasharray: 1.0,2.0;" x1="146" x2="224" y1="202.8167" y2="202.8167"/><line style="stroke: #A80036; stroke-width: 1.5;" x1="33" x2="101" y1="225.48" y2="225.48"/><text fill="#0000FF" font-family="sans-serif" font-size="11" font-weight="bold" lengthAdjust="spacingAndGlyphs" textLength="55" x="101" y="230.1174">calling list</text><line style="stroke: #A80036; stroke-width: 1.5;" x1="156" x2="224" y1="225.48" y2="225.48"/><text fill="#000000" font-family="sans-serif" font-size="11" lengthAdjust="spacingAndGlyphs" textLength="102" x="38" y="268.3896">Game (1690859824);</text><line style="stroke: #A80036; stroke-width: 1.0; stroke-dasharray: 1.0,2.0;" x1="33" x2="115.5" y1="248.1433" y2="248.1433"/><text fill="#000000" font-family="sans-serif" font-size="11" lengthAdjust="spacingAndGlyphs" textLength="26" x="115.5" y="252.7808">class</text><line style="stroke: #A80036; stroke-width: 1.0; stroke-dasharray: 1.0,2.0;" x1="141.5" x2="224" y1="248.1433" y2="248.1433"/><text fill="#000000" font-family="sans-serif" font-size="11" lengthAdjust="spacingAndGlyphs" textLength="128" x="38" y="302.6074">int winCount (107456312);</text><text fill="#000000" font-family="sans-serif" font-size="11" lengthAdjust="spacingAndGlyphs" textLength="136" x="38" y="317.7163">int gameCount (360067785);</text><line style="stroke: #A80036; stroke-width: 1.0; stroke-dasharray: 1.0,2.0;" x1="33" x2="109.5" y1="282.3611" y2="282.3611"/><text fill="#000000" font-family="sans-serif" font-size="11" lengthAdjust="spacingAndGlyphs" textLength="38" x="109.5" y="286.9985">member</text><line style="stroke: #A80036; stroke-width: 1.0; stroke-dasharray: 1.0,2.0;" x1="147.5" x2="224" y1="282.3611" y2="282.3611"/><text fill="#000000" font-family="sans-serif" font-size="11" lengthAdjust="spacingAndGlyphs" textLength="181" x="38" y="351.9341">boolean diceBattle(int) (1860250540);</text><line style="stroke: #A80036; stroke-width: 1.0; stroke-dasharray: 1.0,2.0;" x1="33" x2="111" y1="331.6877" y2="331.6877"/><text fill="#000000" font-family="sans-serif" font-size="11" lengthAdjust="spacingAndGlyphs" textLength="35" x="111" y="336.3252">method</text><line style="stroke: #A80036; stroke-width: 1.0; stroke-dasharray: 1.0,2.0;" x1="146" x2="224" y1="331.6877" y2="331.6877"/><line style="stroke: #A80036; stroke-width: 1.5;" x1="33" x2="94.5" y1="365.9055" y2="365.9055"/><text fill="#FFA500" font-family="sans-serif" font-size="11" font-weight="bold" lengthAdjust="spacingAndGlyphs" textLength="68" x="94.5" y="370.543">called by list</text><line style="stroke: #A80036; stroke-width: 1.5;" x1="162.5" x2="224" y1="365.9055" y2="365.9055"/><text fill="#000000" font-family="sans-serif" font-size="11" lengthAdjust="spacingAndGlyphs" textLength="102" x="38" y="408.8152">Game (1690859824);</text><line style="stroke: #A80036; stroke-width: 1.0; stroke-dasharray: 1.0,2.0;" x1="33" x2="115.5" y1="388.5688" y2="388.5688"/><text fill="#000000" font-family="sans-serif" font-size="11" lengthAdjust="spacingAndGlyphs" textLength="26" x="115.5" y="393.2063">class</text><line style="stroke: #A80036; stroke-width: 1.0; stroke-dasharray: 1.0,2.0;" x1="141.5" x2="224" y1="388.5688" y2="388.5688"/><line style="stroke: #A80036; stroke-width: 1.0; stroke-dasharray: 1.0,2.0;" x1="33" x2="109.5" y1="422.7866" y2="422.7866"/><text fill="#000000" font-family="sans-serif" font-size="11" lengthAdjust="spacingAndGlyphs" textLength="38" x="109.5" y="427.4241">member</text><line style="stroke: #A80036; stroke-width: 1.0; stroke-dasharray: 1.0,2.0;" x1="147.5" x2="224" y1="422.7866" y2="422.7866"/><text fill="#000000" font-family="sans-serif" font-size="11" lengthAdjust="spacingAndGlyphs" textLength="181" x="38" y="465.6963">boolean diceBattle(int) (1860250540);</text><line style="stroke: #A80036; stroke-width: 1.0; stroke-dasharray: 1.0,2.0;" x1="33" x2="111" y1="445.45" y2="445.45"/><text fill="#000000" font-family="sans-serif" font-size="11" lengthAdjust="spacingAndGlyphs" textLength="35" x="111" y="450.0874">method</text><line style="stroke: #A80036; stroke-width: 1.0; stroke-dasharray: 1.0,2.0;" x1="146" x2="224" y1="445.45" y2="445.45"/><!--MD5=[a88af2b49a495445d0862c3f7211ce64]
@startuml
class forMidEx.Game.diceBattle(int){
__**<color:green>has list</color>**__
..class..
..member..
	int diceNum (1979313356);
	int newValue (1386883398);
	int diceshape (1306854175);
..method..
__**<color:blue>calling list</color>**__
..class..
	Game (1690859824);
..member..
	int winCount (107456312);
	int gameCount (360067785);
..method..
	boolean diceBattle(int) (1860250540);
__**<color:orange>called by list</color>**__
..class..
	Game (1690859824);
..member..
..method..
	boolean diceBattle(int) (1860250540);
}

@enduml

PlantUML version 1.2020.19(Tue Oct 13 00:10:01 KST 2020)
(APACHE source distribution)
Java Runtime: Java(TM) SE Runtime Environment
JVM: Java HotSpot(TM) 64-Bit Server VM
Default Encoding: MS949
Language: ko
Country: KR
--></g></svg>