<?xml version="1.0" encoding="UTF-8" standalone="no"?><svg xmlns="http://www.w3.org/2000/svg" xmlns:xlink="http://www.w3.org/1999/xlink" contentScriptType="application/ecmascript" contentStyleType="text/css" height="480px" preserveAspectRatio="none" style="width:242px;height:480px;" version="1.1" viewBox="0 0 242 480" width="242px" zoomAndPan="magnify"><defs><filter height="300%" id="fbogx5fudv55o" width="300%" x="-1" y="-1"><feGaussianBlur result="blurOut" stdDeviation="2.0"/><feColorMatrix in="blurOut" result="blurOut2" type="matrix" values="0 0 0 0 0 0 0 0 0 0 0 0 0 0 0 0 0 0 .4 0"/><feOffset dx="4.0" dy="4.0" in="blurOut2" result="blurOut3"/><feBlend in="SourceGraphic" in2="blurOut3" mode="normal"/></filter></defs><g><!--MD5=[823eaf983916908ce6d352485a7750e8]
cluster target.IfTree.main(java.lang--><polygon fill="#FFFFFF" filter="url(#fbogx5fudv55o)" points="16,6,214,6,221,31.2295,225,31.2295,225,473,16,473,16,6" style="stroke: #000000; stroke-width: 1.5;"/><line style="stroke: #000000; stroke-width: 1.5;" x1="16" x2="221" y1="31.2295" y2="31.2295"/><text fill="#000000" font-family="sans-serif" font-size="14" font-weight="bold" lengthAdjust="spacingAndGlyphs" textLength="192" x="20" y="24.1533">target.IfTree.main(java.lang</text><!--MD5=[d19940d4b851adbe97801f15cbf12844]
class target.IfTree.main(java.lang.String[])--><rect codeLine="1" fill="#FEFECE" filter="url(#fbogx5fudv55o)" height="410.6133" id="target.IfTree.main(java.lang.String[])" style="stroke: #A80036; stroke-width: 1.5;" width="145" x="48" y="45.5"/><ellipse cx="95.25" cy="61.5" fill="#ADD1B2" rx="11" ry="11" style="stroke: #A80036; stroke-width: 1.0;"/><path d="M94.8125,55.0156 Q92.0781,55.0156 91,56.6406 Q89.8594,58.3594 89.8594,61.2813 Q89.8594,64.5781 91.0156,66.2813 Q92,67.7813 94.6094,67.7813 Q96.1875,67.7813 97.0625,66.9531 Q98.0469,66 98.1875,63.875 Q98.1875,63.5781 98.0156,63.4063 Q97.8906,63.25 97.6719,63.2344 Q96.4531,63.2344 96.2969,63.3594 Q96.125,63.5156 96.125,63.7813 Q96.0938,65.2656 95.4375,66.0781 Q94.8281,66.875 94.75,66.875 Q93.4219,66.875 92.6406,65.2813 Q91.8906,63.7344 91.8906,61.25 Q91.8906,58.625 92.8281,57.1719 Q93.6563,55.9219 94.9375,55.9219 Q94.9375,55.9219 95.2813,56.5469 Q95.9063,57.2188 96.0469,58.375 Q96.1563,58.9531 97.625,58.7344 Q98.1563,58.6563 98.125,58.2344 Q97.9531,56.7969 97.2344,55.9844 Q96.375,55.0156 94.8125,55.0156 Z "/><text fill="#000000" font-family="sans-serif" font-size="12" lengthAdjust="spacingAndGlyphs" textLength="42" x="115.75" y="67.1045">String[])</text><line style="stroke: #A80036; stroke-width: 1.5;" x1="49" x2="192" y1="77.5" y2="77.5"/><line style="stroke: #A80036; stroke-width: 1.5;" x1="49" x2="100.5" y1="93.0544" y2="93.0544"/><text fill="#008000" font-family="sans-serif" font-size="11" font-weight="bold" lengthAdjust="spacingAndGlyphs" textLength="40" x="100.5" y="97.6919">has list</text><line style="stroke: #A80036; stroke-width: 1.5;" x1="140.5" x2="192" y1="93.0544" y2="93.0544"/><line style="stroke: #A80036; stroke-width: 1.0; stroke-dasharray: 1.0,2.0;" x1="49" x2="107.5" y1="115.7178" y2="115.7178"/><text fill="#000000" font-family="sans-serif" font-size="11" lengthAdjust="spacingAndGlyphs" textLength="26" x="107.5" y="120.3552">class</text><line style="stroke: #A80036; stroke-width: 1.0; stroke-dasharray: 1.0,2.0;" x1="133.5" x2="192" y1="115.7178" y2="115.7178"/><text fill="#000000" font-family="sans-serif" font-size="11" lengthAdjust="spacingAndGlyphs" textLength="90" x="54" y="158.6274">int l (1002191352);</text><text fill="#000000" font-family="sans-serif" font-size="11" lengthAdjust="spacingAndGlyphs" textLength="92" x="54" y="173.7363">int ll (1256440269);</text><text fill="#000000" font-family="sans-serif" font-size="11" lengthAdjust="spacingAndGlyphs" textLength="92" x="54" y="188.8452">int lrr (704024720);</text><text fill="#000000" font-family="sans-serif" font-size="11" lengthAdjust="spacingAndGlyphs" textLength="133" x="54" y="203.9541">String[] args (1452012306);</text><text fill="#000000" font-family="sans-serif" font-size="11" lengthAdjust="spacingAndGlyphs" textLength="88" x="54" y="219.063">int lr (211968962);</text><text fill="#000000" font-family="sans-serif" font-size="11" lengthAdjust="spacingAndGlyphs" textLength="92" x="54" y="234.1719">int r (1486566962);</text><line style="stroke: #A80036; stroke-width: 1.0; stroke-dasharray: 1.0,2.0;" x1="49" x2="101.5" y1="138.3811" y2="138.3811"/><text fill="#000000" font-family="sans-serif" font-size="11" lengthAdjust="spacingAndGlyphs" textLength="38" x="101.5" y="143.0186">member</text><line style="stroke: #A80036; stroke-width: 1.0; stroke-dasharray: 1.0,2.0;" x1="139.5" x2="192" y1="138.3811" y2="138.3811"/><line style="stroke: #A80036; stroke-width: 1.0; stroke-dasharray: 1.0,2.0;" x1="49" x2="103" y1="248.1433" y2="248.1433"/><text fill="#000000" font-family="sans-serif" font-size="11" lengthAdjust="spacingAndGlyphs" textLength="35" x="103" y="252.7808">method</text><line style="stroke: #A80036; stroke-width: 1.0; stroke-dasharray: 1.0,2.0;" x1="138" x2="192" y1="248.1433" y2="248.1433"/><line style="stroke: #A80036; stroke-width: 1.5;" x1="49" x2="93" y1="270.8066" y2="270.8066"/><text fill="#0000FF" font-family="sans-serif" font-size="11" font-weight="bold" lengthAdjust="spacingAndGlyphs" textLength="55" x="93" y="275.4441">calling list</text><line style="stroke: #A80036; stroke-width: 1.5;" x1="148" x2="192" y1="270.8066" y2="270.8066"/><line style="stroke: #A80036; stroke-width: 1.0; stroke-dasharray: 1.0,2.0;" x1="49" x2="107.5" y1="293.47" y2="293.47"/><text fill="#000000" font-family="sans-serif" font-size="11" lengthAdjust="spacingAndGlyphs" textLength="26" x="107.5" y="298.1074">class</text><line style="stroke: #A80036; stroke-width: 1.0; stroke-dasharray: 1.0,2.0;" x1="133.5" x2="192" y1="293.47" y2="293.47"/><text fill="#000000" font-family="sans-serif" font-size="11" lengthAdjust="spacingAndGlyphs" textLength="108" x="54" y="336.3796">int sum (1074593562);</text><line style="stroke: #A80036; stroke-width: 1.0; stroke-dasharray: 1.0,2.0;" x1="49" x2="101.5" y1="316.1333" y2="316.1333"/><text fill="#000000" font-family="sans-serif" font-size="11" lengthAdjust="spacingAndGlyphs" textLength="38" x="101.5" y="320.7708">member</text><line style="stroke: #A80036; stroke-width: 1.0; stroke-dasharray: 1.0,2.0;" x1="139.5" x2="192" y1="316.1333" y2="316.1333"/><line style="stroke: #A80036; stroke-width: 1.0; stroke-dasharray: 1.0,2.0;" x1="49" x2="103" y1="350.3511" y2="350.3511"/><text fill="#000000" font-family="sans-serif" font-size="11" lengthAdjust="spacingAndGlyphs" textLength="35" x="103" y="354.9885">method</text><line style="stroke: #A80036; stroke-width: 1.0; stroke-dasharray: 1.0,2.0;" x1="138" x2="192" y1="350.3511" y2="350.3511"/><line style="stroke: #A80036; stroke-width: 1.5;" x1="49" x2="86.5" y1="373.0144" y2="373.0144"/><text fill="#FFA500" font-family="sans-serif" font-size="11" font-weight="bold" lengthAdjust="spacingAndGlyphs" textLength="68" x="86.5" y="377.6519">called by list</text><line style="stroke: #A80036; stroke-width: 1.5;" x1="154.5" x2="192" y1="373.0144" y2="373.0144"/><line style="stroke: #A80036; stroke-width: 1.0; stroke-dasharray: 1.0,2.0;" x1="49" x2="107.5" y1="395.6777" y2="395.6777"/><text fill="#000000" font-family="sans-serif" font-size="11" lengthAdjust="spacingAndGlyphs" textLength="26" x="107.5" y="400.3152">class</text><line style="stroke: #A80036; stroke-width: 1.0; stroke-dasharray: 1.0,2.0;" x1="133.5" x2="192" y1="395.6777" y2="395.6777"/><line style="stroke: #A80036; stroke-width: 1.0; stroke-dasharray: 1.0,2.0;" x1="49" x2="101.5" y1="418.3411" y2="418.3411"/><text fill="#000000" font-family="sans-serif" font-size="11" lengthAdjust="spacingAndGlyphs" textLength="38" x="101.5" y="422.9785">member</text><line style="stroke: #A80036; stroke-width: 1.0; stroke-dasharray: 1.0,2.0;" x1="139.5" x2="192" y1="418.3411" y2="418.3411"/><line style="stroke: #A80036; stroke-width: 1.0; stroke-dasharray: 1.0,2.0;" x1="49" x2="103" y1="441.0044" y2="441.0044"/><text fill="#000000" font-family="sans-serif" font-size="11" lengthAdjust="spacingAndGlyphs" textLength="35" x="103" y="445.6418">method</text><line style="stroke: #A80036; stroke-width: 1.0; stroke-dasharray: 1.0,2.0;" x1="138" x2="192" y1="441.0044" y2="441.0044"/><!--MD5=[23a831d31dfe60396b200642a005ea84]
@startuml
class target.IfTree.main(java.lang.String[]){
__**<color:green>has list</color>**__
..class..
..member..
	int l (1002191352);
	int ll (1256440269);
	int lrr (704024720);
	String[] args (1452012306);
	int lr (211968962);
	int r (1486566962);
..method..
__**<color:blue>calling list</color>**__
..class..
..member..
	int sum (1074593562);
..method..
__**<color:orange>called by list</color>**__
..class..
..member..
..method..
}

@enduml

PlantUML version 1.2020.19(Tue Oct 13 00:10:01 KST 2020)
(APACHE source distribution)
Java Runtime: Java(TM) SE Runtime Environment
JVM: Java HotSpot(TM) 64-Bit Server VM
Default Encoding: MS949
Language: ko
Country: KR
--></g></svg>