<?xml version="1.0" encoding="UTF-8" standalone="no"?><svg xmlns="http://www.w3.org/2000/svg" xmlns:xlink="http://www.w3.org/1999/xlink" contentScriptType="application/ecmascript" contentStyleType="text/css" height="478px" preserveAspectRatio="none" style="width:1100px;height:478px;background:#FFFFFF;" version="1.1" viewBox="0 0 1100 478" width="1100px" zoomAndPan="magnify"><defs><filter height="300%" id="f1kvj4lfwnrs88" width="300%" x="-1" y="-1"><feGaussianBlur result="blurOut" stdDeviation="2.0"/><feColorMatrix in="blurOut" result="blurOut2" type="matrix" values="0 0 0 0 0 0 0 0 0 0 0 0 0 0 0 0 0 0 .4 0"/><feOffset dx="4.0" dy="4.0" in="blurOut2" result="blurOut3"/><feBlend in="SourceGraphic" in2="blurOut3" mode="normal"/></filter></defs><g><!--MD5=[7c6608d7cf625e90131334e1ca091b1a]
cluster Functions--><polygon fill="#FFFFFF" filter="url(#f1kvj4lfwnrs88)" points="356,6,432,6,439,31.2295,1083,31.2295,1083,471,356,471,356,6" style="stroke:#000000;stroke-width:1.5;"/><line style="stroke:#000000;stroke-width:1.5;" x1="356" x2="439" y1="31.2295" y2="31.2295"/><text fill="#000000" font-family="sans-serif" font-size="14" font-weight="bold" lengthAdjust="spacing" textLength="70" x="360" y="24.1533">Functions</text><!--MD5=[e41bc1a5e3c91e05361b3e2e2cb5d270]
class f8312750--><rect codeLine="24" fill="#FEFECE" filter="url(#f1kvj4lfwnrs88)" height="410.6133" id="f8312750" style="stroke:#008000;stroke-width:1.5;" width="330" x="737" y="44"/><ellipse cx="863.75" cy="60" fill="#ADD1B2" rx="11" ry="11" style="stroke:#008000;stroke-width:1.0;"/><path d="M863.5781,53.4844 Q861.7031,53.4844 860.5469,55.2344 Q859.3594,57.0156 859.3594,60.0156 Q859.3594,63.3906 860.5625,65.1563 Q861.625,66.7813 863.375,66.7813 Q865.0625,66.7813 866.0156,65.875 Q867.0781,64.8594 867.2188,62.625 Q867.2188,62.2031 866.9844,61.9688 Q866.7969,61.7344 866.4531,61.7031 Q866.125,61.7031 865.8906,61.8906 Q865.625,62.125 865.625,62.5156 Q865.5938,63.9063 865,64.6406 Q864.4688,65.3438 863.5156,65.3438 Q862.3594,65.3438 861.6406,63.9063 Q860.9219,62.4063 860.9219,59.9844 Q860.9219,57.4375 861.8125,56.0469 Q862.5625,54.9219 863.7031,54.9219 Q864.3594,54.9219 864.8594,55.4688 Q865.4219,56.0781 865.5469,57.1406 Q865.5938,57.8438 866.4219,57.7344 Q867.2031,57.625 867.1563,56.9375 Q866.9688,55.4219 866.2031,54.5469 Q865.2656,53.4844 863.5781,53.4844 Z " fill="#000000"/><text fill="#000000" font-family="sans-serif" font-size="12" lengthAdjust="spacing" textLength="68" x="884.25" y="65.6045">getOptions()</text><line style="stroke:#008000;stroke-width:1.5;" x1="738" x2="1066" y1="76" y2="76"/><text fill="#000000" font-family="sans-serif" font-size="11" lengthAdjust="spacing" textLength="60" x="743" y="92.6919">Static : false</text><text fill="#000000" font-family="sans-serif" font-size="11" lengthAdjust="spacing" textLength="81" x="743" y="107.8008">return Type : null</text><text fill="#000000" font-family="sans-serif" font-size="11" lengthAdjust="spacing" textLength="100" x="743" y="122.9097">hashCode : 8312750</text><text fill="#000000" font-family="sans-serif" font-size="11" lengthAdjust="spacing" textLength="69" x="743" y="138.0186">ABS Score : 0</text><text fill="#000000" font-family="sans-serif" font-size="11" lengthAdjust="spacing" textLength="85" x="743" y="153.1274">Relative Score : 0</text><line style="stroke:#008000;stroke-width:1.5;" x1="738" x2="882" y1="167.0989" y2="167.0989"/><text fill="#008000" font-family="sans-serif" font-size="11" font-weight="bold" lengthAdjust="spacing" textLength="40" x="882" y="171.7363">has list</text><line style="stroke:#008000;stroke-width:1.5;" x1="922" x2="1066" y1="167.0989" y2="167.0989"/><line style="stroke:#008000;stroke-width:1.0;stroke-dasharray:1.0,2.0;" x1="738" x2="889" y1="189.7622" y2="189.7622"/><text fill="#000000" font-family="sans-serif" font-size="11" lengthAdjust="spacing" textLength="26" x="889" y="194.3997">class</text><line style="stroke:#008000;stroke-width:1.0;stroke-dasharray:1.0,2.0;" x1="915" x2="1066" y1="189.7622" y2="189.7622"/><line style="stroke:#008000;stroke-width:1.0;stroke-dasharray:1.0,2.0;" x1="738" x2="883" y1="212.4255" y2="212.4255"/><text fill="#000000" font-family="sans-serif" font-size="11" lengthAdjust="spacing" textLength="38" x="883" y="217.063">member</text><line style="stroke:#008000;stroke-width:1.0;stroke-dasharray:1.0,2.0;" x1="921" x2="1066" y1="212.4255" y2="212.4255"/><line style="stroke:#008000;stroke-width:1.0;stroke-dasharray:1.0,2.0;" x1="738" x2="884.5" y1="235.0889" y2="235.0889"/><text fill="#000000" font-family="sans-serif" font-size="11" lengthAdjust="spacing" textLength="35" x="884.5" y="239.7263">method</text><line style="stroke:#008000;stroke-width:1.0;stroke-dasharray:1.0,2.0;" x1="919.5" x2="1066" y1="235.0889" y2="235.0889"/><line style="stroke:#008000;stroke-width:1.5;" x1="738" x2="874.5" y1="257.7522" y2="257.7522"/><text fill="#0000FF" font-family="sans-serif" font-size="11" font-weight="bold" lengthAdjust="spacing" textLength="55" x="874.5" y="262.3896">calling list</text><line style="stroke:#008000;stroke-width:1.5;" x1="929.5" x2="1066" y1="257.7522" y2="257.7522"/><line style="stroke:#008000;stroke-width:1.0;stroke-dasharray:1.0,2.0;" x1="738" x2="889" y1="280.4155" y2="280.4155"/><text fill="#000000" font-family="sans-serif" font-size="11" lengthAdjust="spacing" textLength="26" x="889" y="285.053">class</text><line style="stroke:#008000;stroke-width:1.0;stroke-dasharray:1.0,2.0;" x1="915" x2="1066" y1="280.4155" y2="280.4155"/><line style="stroke:#008000;stroke-width:1.0;stroke-dasharray:1.0,2.0;" x1="738" x2="883" y1="303.0789" y2="303.0789"/><text fill="#000000" font-family="sans-serif" font-size="11" lengthAdjust="spacing" textLength="38" x="883" y="307.7163">member</text><line style="stroke:#008000;stroke-width:1.0;stroke-dasharray:1.0,2.0;" x1="921" x2="1066" y1="303.0789" y2="303.0789"/><line style="stroke:#008000;stroke-width:1.0;stroke-dasharray:1.0,2.0;" x1="738" x2="884.5" y1="325.7422" y2="325.7422"/><text fill="#000000" font-family="sans-serif" font-size="11" lengthAdjust="spacing" textLength="35" x="884.5" y="330.3796">method</text><line style="stroke:#008000;stroke-width:1.0;stroke-dasharray:1.0,2.0;" x1="919.5" x2="1066" y1="325.7422" y2="325.7422"/><line style="stroke:#008000;stroke-width:1.5;" x1="738" x2="868" y1="348.4055" y2="348.4055"/><text fill="#FFA500" font-family="sans-serif" font-size="11" font-weight="bold" lengthAdjust="spacing" textLength="68" x="868" y="353.043">called by list</text><line style="stroke:#008000;stroke-width:1.5;" x1="936" x2="1066" y1="348.4055" y2="348.4055"/><text fill="#000000" font-family="sans-serif" font-size="11" lengthAdjust="spacing" textLength="244" x="743" y="391.3152">hongik.selab.parser.java.JavaParser (261849385);</text><line style="stroke:#008000;stroke-width:1.0;stroke-dasharray:1.0,2.0;" x1="738" x2="889" y1="371.0688" y2="371.0688"/><text fill="#000000" font-family="sans-serif" font-size="11" lengthAdjust="spacing" textLength="26" x="889" y="375.7063">class</text><line style="stroke:#008000;stroke-width:1.0;stroke-dasharray:1.0,2.0;" x1="915" x2="1066" y1="371.0688" y2="371.0688"/><line style="stroke:#008000;stroke-width:1.0;stroke-dasharray:1.0,2.0;" x1="738" x2="883" y1="405.2866" y2="405.2866"/><text fill="#000000" font-family="sans-serif" font-size="11" lengthAdjust="spacing" textLength="38" x="883" y="409.9241">member</text><line style="stroke:#008000;stroke-width:1.0;stroke-dasharray:1.0,2.0;" x1="921" x2="1066" y1="405.2866" y2="405.2866"/><text fill="#000000" font-family="sans-serif" font-size="11" lengthAdjust="spacing" textLength="318" x="743" y="448.1963">hongik.selab.parser.java.JavaParser.init(java.io.File) (137902612);</text><line style="stroke:#008000;stroke-width:1.0;stroke-dasharray:1.0,2.0;" x1="738" x2="884.5" y1="427.95" y2="427.95"/><text fill="#000000" font-family="sans-serif" font-size="11" lengthAdjust="spacing" textLength="35" x="884.5" y="432.5874">method</text><line style="stroke:#008000;stroke-width:1.0;stroke-dasharray:1.0,2.0;" x1="919.5" x2="1066" y1="427.95" y2="427.95"/><!--MD5=[ee9b4fe529c277a10951d45948be7b04]
class f1404703093--><rect codeLine="46" fill="#FEFECE" filter="url(#f1kvj4lfwnrs88)" height="410.6133" id="f1404703093" style="stroke:#008000;stroke-width:1.5;" width="330" x="372" y="44"/><ellipse cx="389.7" cy="60" fill="#ADD1B2" rx="11" ry="11" style="stroke:#008000;stroke-width:1.0;"/><path d="M389.5281,53.4844 Q387.6531,53.4844 386.4969,55.2344 Q385.3094,57.0156 385.3094,60.0156 Q385.3094,63.3906 386.5125,65.1563 Q387.575,66.7813 389.325,66.7813 Q391.0125,66.7813 391.9656,65.875 Q393.0281,64.8594 393.1688,62.625 Q393.1688,62.2031 392.9344,61.9688 Q392.7469,61.7344 392.4031,61.7031 Q392.075,61.7031 391.8406,61.8906 Q391.575,62.125 391.575,62.5156 Q391.5438,63.9063 390.95,64.6406 Q390.4188,65.3438 389.4656,65.3438 Q388.3094,65.3438 387.5906,63.9063 Q386.8719,62.4063 386.8719,59.9844 Q386.8719,57.4375 387.7625,56.0469 Q388.5125,54.9219 389.6531,54.9219 Q390.3094,54.9219 390.8094,55.4688 Q391.3719,56.0781 391.4969,57.1406 Q391.5438,57.8438 392.3719,57.7344 Q393.1531,57.625 393.1063,56.9375 Q392.9188,55.4219 392.1531,54.5469 Q391.2156,53.4844 389.5281,53.4844 Z " fill="#000000"/><text fill="#000000" font-family="sans-serif" font-size="12" lengthAdjust="spacing" textLength="292" x="404.3" y="65.6045">setComplianceOptions(java.lang.String, java.util.Map)</text><line style="stroke:#008000;stroke-width:1.5;" x1="373" x2="701" y1="76" y2="76"/><text fill="#000000" font-family="sans-serif" font-size="11" lengthAdjust="spacing" textLength="60" x="378" y="92.6919">Static : false</text><text fill="#000000" font-family="sans-serif" font-size="11" lengthAdjust="spacing" textLength="81" x="378" y="107.8008">return Type : null</text><text fill="#000000" font-family="sans-serif" font-size="11" lengthAdjust="spacing" textLength="118" x="378" y="122.9097">hashCode : 1404703093</text><text fill="#000000" font-family="sans-serif" font-size="11" lengthAdjust="spacing" textLength="69" x="378" y="138.0186">ABS Score : 0</text><text fill="#000000" font-family="sans-serif" font-size="11" lengthAdjust="spacing" textLength="85" x="378" y="153.1274">Relative Score : 0</text><line style="stroke:#008000;stroke-width:1.5;" x1="373" x2="517" y1="167.0989" y2="167.0989"/><text fill="#008000" font-family="sans-serif" font-size="11" font-weight="bold" lengthAdjust="spacing" textLength="40" x="517" y="171.7363">has list</text><line style="stroke:#008000;stroke-width:1.5;" x1="557" x2="701" y1="167.0989" y2="167.0989"/><line style="stroke:#008000;stroke-width:1.0;stroke-dasharray:1.0,2.0;" x1="373" x2="524" y1="189.7622" y2="189.7622"/><text fill="#000000" font-family="sans-serif" font-size="11" lengthAdjust="spacing" textLength="26" x="524" y="194.3997">class</text><line style="stroke:#008000;stroke-width:1.0;stroke-dasharray:1.0,2.0;" x1="550" x2="701" y1="189.7622" y2="189.7622"/><line style="stroke:#008000;stroke-width:1.0;stroke-dasharray:1.0,2.0;" x1="373" x2="518" y1="212.4255" y2="212.4255"/><text fill="#000000" font-family="sans-serif" font-size="11" lengthAdjust="spacing" textLength="38" x="518" y="217.063">member</text><line style="stroke:#008000;stroke-width:1.0;stroke-dasharray:1.0,2.0;" x1="556" x2="701" y1="212.4255" y2="212.4255"/><line style="stroke:#008000;stroke-width:1.0;stroke-dasharray:1.0,2.0;" x1="373" x2="519.5" y1="235.0889" y2="235.0889"/><text fill="#000000" font-family="sans-serif" font-size="11" lengthAdjust="spacing" textLength="35" x="519.5" y="239.7263">method</text><line style="stroke:#008000;stroke-width:1.0;stroke-dasharray:1.0,2.0;" x1="554.5" x2="701" y1="235.0889" y2="235.0889"/><line style="stroke:#008000;stroke-width:1.5;" x1="373" x2="509.5" y1="257.7522" y2="257.7522"/><text fill="#0000FF" font-family="sans-serif" font-size="11" font-weight="bold" lengthAdjust="spacing" textLength="55" x="509.5" y="262.3896">calling list</text><line style="stroke:#008000;stroke-width:1.5;" x1="564.5" x2="701" y1="257.7522" y2="257.7522"/><line style="stroke:#008000;stroke-width:1.0;stroke-dasharray:1.0,2.0;" x1="373" x2="524" y1="280.4155" y2="280.4155"/><text fill="#000000" font-family="sans-serif" font-size="11" lengthAdjust="spacing" textLength="26" x="524" y="285.053">class</text><line style="stroke:#008000;stroke-width:1.0;stroke-dasharray:1.0,2.0;" x1="550" x2="701" y1="280.4155" y2="280.4155"/><line style="stroke:#008000;stroke-width:1.0;stroke-dasharray:1.0,2.0;" x1="373" x2="518" y1="303.0789" y2="303.0789"/><text fill="#000000" font-family="sans-serif" font-size="11" lengthAdjust="spacing" textLength="38" x="518" y="307.7163">member</text><line style="stroke:#008000;stroke-width:1.0;stroke-dasharray:1.0,2.0;" x1="556" x2="701" y1="303.0789" y2="303.0789"/><line style="stroke:#008000;stroke-width:1.0;stroke-dasharray:1.0,2.0;" x1="373" x2="519.5" y1="325.7422" y2="325.7422"/><text fill="#000000" font-family="sans-serif" font-size="11" lengthAdjust="spacing" textLength="35" x="519.5" y="330.3796">method</text><line style="stroke:#008000;stroke-width:1.0;stroke-dasharray:1.0,2.0;" x1="554.5" x2="701" y1="325.7422" y2="325.7422"/><line style="stroke:#008000;stroke-width:1.5;" x1="373" x2="503" y1="348.4055" y2="348.4055"/><text fill="#FFA500" font-family="sans-serif" font-size="11" font-weight="bold" lengthAdjust="spacing" textLength="68" x="503" y="353.043">called by list</text><line style="stroke:#008000;stroke-width:1.5;" x1="571" x2="701" y1="348.4055" y2="348.4055"/><text fill="#000000" font-family="sans-serif" font-size="11" lengthAdjust="spacing" textLength="244" x="378" y="391.3152">hongik.selab.parser.java.JavaParser (261849385);</text><line style="stroke:#008000;stroke-width:1.0;stroke-dasharray:1.0,2.0;" x1="373" x2="524" y1="371.0688" y2="371.0688"/><text fill="#000000" font-family="sans-serif" font-size="11" lengthAdjust="spacing" textLength="26" x="524" y="375.7063">class</text><line style="stroke:#008000;stroke-width:1.0;stroke-dasharray:1.0,2.0;" x1="550" x2="701" y1="371.0688" y2="371.0688"/><line style="stroke:#008000;stroke-width:1.0;stroke-dasharray:1.0,2.0;" x1="373" x2="518" y1="405.2866" y2="405.2866"/><text fill="#000000" font-family="sans-serif" font-size="11" lengthAdjust="spacing" textLength="38" x="518" y="409.9241">member</text><line style="stroke:#008000;stroke-width:1.0;stroke-dasharray:1.0,2.0;" x1="556" x2="701" y1="405.2866" y2="405.2866"/><text fill="#000000" font-family="sans-serif" font-size="11" lengthAdjust="spacing" textLength="318" x="378" y="448.1963">hongik.selab.parser.java.JavaParser.init(java.io.File) (137902612);</text><line style="stroke:#008000;stroke-width:1.0;stroke-dasharray:1.0,2.0;" x1="373" x2="519.5" y1="427.95" y2="427.95"/><text fill="#000000" font-family="sans-serif" font-size="11" lengthAdjust="spacing" textLength="35" x="519.5" y="432.5874">method</text><line style="stroke:#008000;stroke-width:1.0;stroke-dasharray:1.0,2.0;" x1="554.5" x2="701" y1="427.95" y2="427.95"/><!--MD5=[f6064968006b102cb1b3092be2f53bd9]
class cl1--><rect codeLine="1" fill="#FEFECE" filter="url(#f1kvj4lfwnrs88)" height="380.8411" id="cl1" style="stroke:#A80036;stroke-width:1.5;" width="330" x="7" y="59"/><ellipse cx="141.75" cy="75" fill="#ADD1B2" rx="11" ry="11" style="stroke:#A80036;stroke-width:1.0;"/><path d="M141.5781,68.4844 Q139.7031,68.4844 138.5469,70.2344 Q137.3594,72.0156 137.3594,75.0156 Q137.3594,78.3906 138.5625,80.1563 Q139.625,81.7813 141.375,81.7813 Q143.0625,81.7813 144.0156,80.875 Q145.0781,79.8594 145.2188,77.625 Q145.2188,77.2031 144.9844,76.9688 Q144.7969,76.7344 144.4531,76.7031 Q144.125,76.7031 143.8906,76.8906 Q143.625,77.125 143.625,77.5156 Q143.5938,78.9063 143,79.6406 Q142.4688,80.3438 141.5156,80.3438 Q140.3594,80.3438 139.6406,78.9063 Q138.9219,77.4063 138.9219,74.9844 Q138.9219,72.4375 139.8125,71.0469 Q140.5625,69.9219 141.7031,69.9219 Q142.3594,69.9219 142.8594,70.4688 Q143.4219,71.0781 143.5469,72.1406 Q143.5938,72.8438 144.4219,72.7344 Q145.2031,72.625 145.1563,71.9375 Q144.9688,70.4219 144.2031,69.5469 Q143.2656,68.4844 141.5781,68.4844 Z " fill="#000000"/><text fill="#000000" font-family="sans-serif" font-size="12" lengthAdjust="spacing" textLength="52" x="162.25" y="80.6045">JavaCore</text><line style="stroke:#A80036;stroke-width:1.5;" x1="8" x2="336" y1="91" y2="91"/><text fill="#000000" font-family="sans-serif" font-size="11" lengthAdjust="spacing" textLength="136" x="13" y="107.6919">Package org.eclipse.jdt.core</text><text fill="#000000" font-family="sans-serif" font-size="11" lengthAdjust="spacing" textLength="36" x="13" y="122.8008">Lib true</text><text fill="#000000" font-family="sans-serif" font-size="11" lengthAdjust="spacing" textLength="113" x="13" y="137.9097">HashCode : 104494977</text><text fill="#000000" font-family="sans-serif" font-size="11" lengthAdjust="spacing" textLength="69" x="13" y="153.0186">ABS Score : 0</text><text fill="#000000" font-family="sans-serif" font-size="11" lengthAdjust="spacing" textLength="85" x="13" y="168.1274">Relative Score : 0</text><line style="stroke:#A80036;stroke-width:1.5;" x1="8" x2="152" y1="182.0989" y2="182.0989"/><text fill="#008000" font-family="sans-serif" font-size="11" font-weight="bold" lengthAdjust="spacing" textLength="40" x="152" y="186.7363">has list</text><line style="stroke:#A80036;stroke-width:1.5;" x1="192" x2="336" y1="182.0989" y2="182.0989"/><line style="stroke:#A80036;stroke-width:1.0;stroke-dasharray:1.0,2.0;" x1="8" x2="336" y1="197.2078" y2="197.2078"/><text fill="#008000" font-family="sans-serif" font-size="11" lengthAdjust="spacing" textLength="96" x="13" y="213.8997">null getOptions() (0)</text><text fill="#008000" font-family="sans-serif" font-size="11" lengthAdjust="spacing" textLength="290" x="13" y="229.0085">null setComplianceOptions(java.lang.String, java.util.Map) (0)</text><line style="stroke:#A80036;stroke-width:1.5;" x1="8" x2="144.5" y1="242.98" y2="242.98"/><text fill="#0000FF" font-family="sans-serif" font-size="11" font-weight="bold" lengthAdjust="spacing" textLength="55" x="144.5" y="247.6174">calling list</text><line style="stroke:#A80036;stroke-width:1.5;" x1="199.5" x2="336" y1="242.98" y2="242.98"/><line style="stroke:#A80036;stroke-width:1.0;stroke-dasharray:1.0,2.0;" x1="8" x2="159" y1="265.6433" y2="265.6433"/><text fill="#000000" font-family="sans-serif" font-size="11" lengthAdjust="spacing" textLength="26" x="159" y="270.2808">class</text><line style="stroke:#A80036;stroke-width:1.0;stroke-dasharray:1.0,2.0;" x1="185" x2="336" y1="265.6433" y2="265.6433"/><line style="stroke:#A80036;stroke-width:1.0;stroke-dasharray:1.0,2.0;" x1="8" x2="153" y1="288.3066" y2="288.3066"/><text fill="#000000" font-family="sans-serif" font-size="11" lengthAdjust="spacing" textLength="38" x="153" y="292.9441">member</text><line style="stroke:#A80036;stroke-width:1.0;stroke-dasharray:1.0,2.0;" x1="191" x2="336" y1="288.3066" y2="288.3066"/><line style="stroke:#A80036;stroke-width:1.0;stroke-dasharray:1.0,2.0;" x1="8" x2="154.5" y1="310.97" y2="310.97"/><text fill="#000000" font-family="sans-serif" font-size="11" lengthAdjust="spacing" textLength="35" x="154.5" y="315.6074">method</text><line style="stroke:#A80036;stroke-width:1.0;stroke-dasharray:1.0,2.0;" x1="189.5" x2="336" y1="310.97" y2="310.97"/><line style="stroke:#A80036;stroke-width:1.5;" x1="8" x2="138" y1="333.6333" y2="333.6333"/><text fill="#FFA500" font-family="sans-serif" font-size="11" font-weight="bold" lengthAdjust="spacing" textLength="68" x="138" y="338.2708">called by list</text><line style="stroke:#A80036;stroke-width:1.5;" x1="206" x2="336" y1="333.6333" y2="333.6333"/><text fill="#000000" font-family="sans-serif" font-size="11" lengthAdjust="spacing" textLength="244" x="13" y="376.543">hongik.selab.parser.java.JavaParser (261849385);</text><line style="stroke:#A80036;stroke-width:1.0;stroke-dasharray:1.0,2.0;" x1="8" x2="159" y1="356.2966" y2="356.2966"/><text fill="#000000" font-family="sans-serif" font-size="11" lengthAdjust="spacing" textLength="26" x="159" y="360.9341">class</text><line style="stroke:#A80036;stroke-width:1.0;stroke-dasharray:1.0,2.0;" x1="185" x2="336" y1="356.2966" y2="356.2966"/><line style="stroke:#A80036;stroke-width:1.0;stroke-dasharray:1.0,2.0;" x1="8" x2="153" y1="390.5144" y2="390.5144"/><text fill="#000000" font-family="sans-serif" font-size="11" lengthAdjust="spacing" textLength="38" x="153" y="395.1519">member</text><line style="stroke:#A80036;stroke-width:1.0;stroke-dasharray:1.0,2.0;" x1="191" x2="336" y1="390.5144" y2="390.5144"/><text fill="#000000" font-family="sans-serif" font-size="11" lengthAdjust="spacing" textLength="318" x="13" y="433.4241">hongik.selab.parser.java.JavaParser.init(java.io.File) (137902612);</text><line style="stroke:#A80036;stroke-width:1.0;stroke-dasharray:1.0,2.0;" x1="8" x2="154.5" y1="413.1777" y2="413.1777"/><text fill="#000000" font-family="sans-serif" font-size="11" lengthAdjust="spacing" textLength="35" x="154.5" y="417.8152">method</text><line style="stroke:#A80036;stroke-width:1.0;stroke-dasharray:1.0,2.0;" x1="189.5" x2="336" y1="413.1777" y2="413.1777"/><!--MD5=[2902ee398a88b9bf2f7a79bec3cdaf91]
@startuml
class "JavaCore" as cl1{
Package org.eclipse.jdt.core
Lib true
HashCode : 104494977
ABS Score : 0
Relative Score : 0
__**<color:green>has list</color>**__
....
	<color:green>null getOptions() (0)
	<color:green>null setComplianceOptions(java.lang.String, java.util.Map) (0)
__**<color:blue>calling list</color>**__
..class..
..member..
..method..
__**<color:orange>called by list</color>**__
..class..
	hongik.selab.parser.java.JavaParser (261849385);
..member..
..method..
	 hongik.selab.parser.java.JavaParser.init(java.io.File) (137902612);
}

 package Functions{
class "getOptions()" as f8312750  #line:green
{
Static : false
return Type : null
hashCode : 8312750
ABS Score : 0
Relative Score : 0
__**<color:green>has list</color>**__
..class..
..member..
..method..
__**<color:blue>calling list</color>**__
..class..
..member..
..method..
__**<color:orange>called by list</color>**__
..class..
	hongik.selab.parser.java.JavaParser (261849385);
..member..
..method..
	 hongik.selab.parser.java.JavaParser.init(java.io.File) (137902612);
}
class "setComplianceOptions(java.lang.String, java.util.Map)" as f1404703093  #line:green
{
Static : false
return Type : null
hashCode : 1404703093
ABS Score : 0
Relative Score : 0
__**<color:green>has list</color>**__
..class..
..member..
..method..
__**<color:blue>calling list</color>**__
..class..
..member..
..method..
__**<color:orange>called by list</color>**__
..class..
	hongik.selab.parser.java.JavaParser (261849385);
..member..
..method..
	 hongik.selab.parser.java.JavaParser.init(java.io.File) (137902612);
}
}

@enduml

PlantUML version 1.2021.13(Mon Nov 01 20:38:45 KST 2021)
(GPL source distribution)
Java Runtime: Java(TM) SE Runtime Environment
JVM: Java HotSpot(TM) 64-Bit Server VM
Default Encoding: MS949
Language: ko
Country: KR
--></g></svg>