<?xml version="1.0" encoding="UTF-8" standalone="no"?><svg xmlns="http://www.w3.org/2000/svg" xmlns:xlink="http://www.w3.org/1999/xlink" contentScriptType="application/ecmascript" contentStyleType="text/css" height="1125px" preserveAspectRatio="none" style="width:915px;height:1125px;" version="1.1" viewBox="0 0 915 1125" width="915px" zoomAndPan="magnify"><defs><filter height="300%" id="f9w4prwm8i9zc" width="300%" x="-1" y="-1"><feGaussianBlur result="blurOut" stdDeviation="2.0"/><feColorMatrix in="blurOut" result="blurOut2" type="matrix" values="0 0 0 0 0 0 0 0 0 0 0 0 0 0 0 0 0 0 .4 0"/><feOffset dx="4.0" dy="4.0" in="blurOut2" result="blurOut3"/><feBlend in="SourceGraphic" in2="blurOut3" mode="normal"/></filter></defs><g><!--MD5=[7c6608d7cf625e90131334e1ca091b1a]
cluster Functions--><polygon fill="#FFFFFF" filter="url(#f9w4prwm8i9zc)" points="295,6,371,6,378,31.2295,898,31.2295,898,1118.5,295,1118.5,295,6" style="stroke: #000000; stroke-width: 1.5;"/><line style="stroke: #000000; stroke-width: 1.5;" x1="295" x2="378" y1="31.2295" y2="31.2295"/><text fill="#000000" font-family="sans-serif" font-size="14" font-weight="bold" lengthAdjust="spacingAndGlyphs" textLength="70" x="299" y="24.1533">Functions</text><!--MD5=[912353806137a255785df291f776f577]
class f120478350--><rect codeLine="36" fill="#FEFECE" filter="url(#f9w4prwm8i9zc)" height="448.8311" id="f120478350" style="stroke: #008000; stroke-width: 1.5;" width="263" x="311.5" y="653.5"/><ellipse cx="408.75" cy="669.5" fill="#ADD1B2" rx="11" ry="11" style="stroke: #008000; stroke-width: 1.0;"/><path d="M408.5781,662.9844 Q406.7031,662.9844 405.5469,664.7344 Q404.3594,666.5156 404.3594,669.5156 Q404.3594,672.8906 405.5625,674.6563 Q406.625,676.2813 408.375,676.2813 Q410.0625,676.2813 411.0156,675.375 Q412.0781,674.3594 412.2188,672.125 Q412.2188,671.7031 411.9844,671.4688 Q411.7969,671.2344 411.4531,671.2031 Q411.125,671.2031 410.8906,671.3906 Q410.625,671.625 410.625,672.0156 Q410.5938,673.4063 410,674.1406 Q409.4688,674.8438 408.5156,674.8438 Q407.3594,674.8438 406.6406,673.4063 Q405.9219,671.9063 405.9219,669.4844 Q405.9219,666.9375 406.8125,665.5469 Q407.5625,664.4219 408.7031,664.4219 Q409.3594,664.4219 409.8594,664.9688 Q410.4219,665.5781 410.5469,666.6406 Q410.5938,667.3438 411.4219,667.2344 Q412.2031,667.125 412.1563,666.4375 Q411.9688,664.9219 411.2031,664.0469 Q410.2656,662.9844 408.5781,662.9844 Z "/><text fill="#000000" font-family="sans-serif" font-size="12" lengthAdjust="spacingAndGlyphs" textLength="60" x="429.25" y="675.1045">Simple(int)</text><line style="stroke: #008000; stroke-width: 1.5;" x1="312.5" x2="573.5" y1="685.5" y2="685.5"/><text fill="#000000" font-family="sans-serif" font-size="11" lengthAdjust="spacingAndGlyphs" textLength="60" x="317.5" y="702.1919">Static : false</text><text fill="#000000" font-family="sans-serif" font-size="11" lengthAdjust="spacingAndGlyphs" textLength="87" x="317.5" y="717.3008">return Type : new</text><text fill="#000000" font-family="sans-serif" font-size="11" lengthAdjust="spacingAndGlyphs" textLength="112" x="317.5" y="732.4097">hashCode : 120478350</text><text fill="#000000" font-family="sans-serif" font-size="11" lengthAdjust="spacingAndGlyphs" textLength="37" x="317.5" y="747.5186">ABS : 3</text><text fill="#000000" font-family="sans-serif" font-size="11" lengthAdjust="spacingAndGlyphs" textLength="35" x="317.5" y="762.6274">RES : 3</text><line style="stroke: #008000; stroke-width: 1.5;" x1="312.5" x2="423" y1="776.5989" y2="776.5989"/><text fill="#008000" font-family="sans-serif" font-size="11" font-weight="bold" lengthAdjust="spacingAndGlyphs" textLength="40" x="423" y="781.2363">has list</text><line style="stroke: #008000; stroke-width: 1.5;" x1="463" x2="573.5" y1="776.5989" y2="776.5989"/><line style="stroke: #008000; stroke-width: 1.0; stroke-dasharray: 1.0,2.0;" x1="312.5" x2="430" y1="799.2622" y2="799.2622"/><text fill="#000000" font-family="sans-serif" font-size="11" lengthAdjust="spacingAndGlyphs" textLength="26" x="430" y="803.8997">class</text><line style="stroke: #008000; stroke-width: 1.0; stroke-dasharray: 1.0,2.0;" x1="456" x2="573.5" y1="799.2622" y2="799.2622"/><text fill="#000000" font-family="sans-serif" font-size="11" lengthAdjust="spacingAndGlyphs" textLength="200" x="317.5" y="842.1719">simple.Simple.Simple(int).x (1387380406);</text><text fill="#000000" font-family="sans-serif" font-size="11" lengthAdjust="spacingAndGlyphs" textLength="192" x="317.5" y="857.2808">simple.Simple.Simple(int).r (658404420);</text><line style="stroke: #008000; stroke-width: 1.0; stroke-dasharray: 1.0,2.0;" x1="312.5" x2="424" y1="821.9255" y2="821.9255"/><text fill="#000000" font-family="sans-serif" font-size="11" lengthAdjust="spacingAndGlyphs" textLength="38" x="424" y="826.563">member</text><line style="stroke: #008000; stroke-width: 1.0; stroke-dasharray: 1.0,2.0;" x1="462" x2="573.5" y1="821.9255" y2="821.9255"/><line style="stroke: #008000; stroke-width: 1.0; stroke-dasharray: 1.0,2.0;" x1="312.5" x2="425.5" y1="871.2522" y2="871.2522"/><text fill="#000000" font-family="sans-serif" font-size="11" lengthAdjust="spacingAndGlyphs" textLength="35" x="425.5" y="875.8896">method</text><line style="stroke: #008000; stroke-width: 1.0; stroke-dasharray: 1.0,2.0;" x1="460.5" x2="573.5" y1="871.2522" y2="871.2522"/><line style="stroke: #008000; stroke-width: 1.5;" x1="312.5" x2="415.5" y1="893.9155" y2="893.9155"/><text fill="#0000FF" font-family="sans-serif" font-size="11" font-weight="bold" lengthAdjust="spacingAndGlyphs" textLength="55" x="415.5" y="898.553">calling list</text><line style="stroke: #008000; stroke-width: 1.5;" x1="470.5" x2="573.5" y1="893.9155" y2="893.9155"/><line style="stroke: #008000; stroke-width: 1.0; stroke-dasharray: 1.0,2.0;" x1="312.5" x2="430" y1="916.5789" y2="916.5789"/><text fill="#000000" font-family="sans-serif" font-size="11" lengthAdjust="spacingAndGlyphs" textLength="26" x="430" y="921.2163">class</text><line style="stroke: #008000; stroke-width: 1.0; stroke-dasharray: 1.0,2.0;" x1="456" x2="573.5" y1="916.5789" y2="916.5789"/><text fill="#000000" font-family="sans-serif" font-size="11" lengthAdjust="spacingAndGlyphs" textLength="137" x="317.5" y="959.4885">simple.Simple.i (194707680);</text><line style="stroke: #008000; stroke-width: 1.0; stroke-dasharray: 1.0,2.0;" x1="312.5" x2="424" y1="939.2422" y2="939.2422"/><text fill="#000000" font-family="sans-serif" font-size="11" lengthAdjust="spacingAndGlyphs" textLength="38" x="424" y="943.8796">member</text><line style="stroke: #008000; stroke-width: 1.0; stroke-dasharray: 1.0,2.0;" x1="462" x2="573.5" y1="939.2422" y2="939.2422"/><line style="stroke: #008000; stroke-width: 1.0; stroke-dasharray: 1.0,2.0;" x1="312.5" x2="425.5" y1="973.46" y2="973.46"/><text fill="#000000" font-family="sans-serif" font-size="11" lengthAdjust="spacingAndGlyphs" textLength="35" x="425.5" y="978.0974">method</text><line style="stroke: #008000; stroke-width: 1.0; stroke-dasharray: 1.0,2.0;" x1="460.5" x2="573.5" y1="973.46" y2="973.46"/><line style="stroke: #008000; stroke-width: 1.5;" x1="312.5" x2="409" y1="996.1233" y2="996.1233"/><text fill="#FFA500" font-family="sans-serif" font-size="11" font-weight="bold" lengthAdjust="spacingAndGlyphs" textLength="68" x="409" y="1000.7607">called by list</text><line style="stroke: #008000; stroke-width: 1.5;" x1="477" x2="573.5" y1="996.1233" y2="996.1233"/><text fill="#000000" font-family="sans-serif" font-size="11" lengthAdjust="spacingAndGlyphs" textLength="138" x="317.5" y="1039.033">simple.Simple (1219273867);</text><line style="stroke: #008000; stroke-width: 1.0; stroke-dasharray: 1.0,2.0;" x1="312.5" x2="430" y1="1018.7866" y2="1018.7866"/><text fill="#000000" font-family="sans-serif" font-size="11" lengthAdjust="spacingAndGlyphs" textLength="26" x="430" y="1023.4241">class</text><line style="stroke: #008000; stroke-width: 1.0; stroke-dasharray: 1.0,2.0;" x1="456" x2="573.5" y1="1018.7866" y2="1018.7866"/><line style="stroke: #008000; stroke-width: 1.0; stroke-dasharray: 1.0,2.0;" x1="312.5" x2="424" y1="1053.0044" y2="1053.0044"/><text fill="#000000" font-family="sans-serif" font-size="11" lengthAdjust="spacingAndGlyphs" textLength="38" x="424" y="1057.6418">member</text><line style="stroke: #008000; stroke-width: 1.0; stroke-dasharray: 1.0,2.0;" x1="462" x2="573.5" y1="1053.0044" y2="1053.0044"/><text fill="#000000" font-family="sans-serif" font-size="11" lengthAdjust="spacingAndGlyphs" textLength="251" x="317.5" y="1095.9141">simple.Simple.main(java.lang.String[]) (1403700359);</text><line style="stroke: #008000; stroke-width: 1.0; stroke-dasharray: 1.0,2.0;" x1="312.5" x2="425.5" y1="1075.6677" y2="1075.6677"/><text fill="#000000" font-family="sans-serif" font-size="11" lengthAdjust="spacingAndGlyphs" textLength="35" x="425.5" y="1080.3052">method</text><line style="stroke: #008000; stroke-width: 1.0; stroke-dasharray: 1.0,2.0;" x1="460.5" x2="573.5" y1="1075.6677" y2="1075.6677"/><!--MD5=[9a4daa1f0a74309ec9b4715724261e1e]
class f2102368942--><rect codeLine="61" fill="#FEFECE" filter="url(#f9w4prwm8i9zc)" height="448.8311" id="f2102368942" style="stroke: #008000; stroke-width: 1.5;" width="272" x="610" y="653.5"/><ellipse cx="722.75" cy="669.5" fill="#ADD1B2" rx="11" ry="11" style="stroke: #008000; stroke-width: 1.0;"/><path d="M722.5781,662.9844 Q720.7031,662.9844 719.5469,664.7344 Q718.3594,666.5156 718.3594,669.5156 Q718.3594,672.8906 719.5625,674.6563 Q720.625,676.2813 722.375,676.2813 Q724.0625,676.2813 725.0156,675.375 Q726.0781,674.3594 726.2188,672.125 Q726.2188,671.7031 725.9844,671.4688 Q725.7969,671.2344 725.4531,671.2031 Q725.125,671.2031 724.8906,671.3906 Q724.625,671.625 724.625,672.0156 Q724.5938,673.4063 724,674.1406 Q723.4688,674.8438 722.5156,674.8438 Q721.3594,674.8438 720.6406,673.4063 Q719.9219,671.9063 719.9219,669.4844 Q719.9219,666.9375 720.8125,665.5469 Q721.5625,664.4219 722.7031,664.4219 Q723.3594,664.4219 723.8594,664.9688 Q724.4219,665.5781 724.5469,666.6406 Q724.5938,667.3438 725.4219,667.2344 Q726.2031,667.125 726.1563,666.4375 Q725.9688,664.9219 725.2031,664.0469 Q724.2656,662.9844 722.5781,662.9844 Z "/><text fill="#000000" font-family="sans-serif" font-size="12" lengthAdjust="spacingAndGlyphs" textLength="38" x="743.25" y="675.1045">get(int)</text><line style="stroke: #008000; stroke-width: 1.5;" x1="611" x2="881" y1="685.5" y2="685.5"/><text fill="#000000" font-family="sans-serif" font-size="11" lengthAdjust="spacingAndGlyphs" textLength="60" x="616" y="702.1919">Static : false</text><text fill="#000000" font-family="sans-serif" font-size="11" lengthAdjust="spacingAndGlyphs" textLength="76" x="616" y="717.3008">return Type : int</text><text fill="#000000" font-family="sans-serif" font-size="11" lengthAdjust="spacingAndGlyphs" textLength="118" x="616" y="732.4097">hashCode : 2102368942</text><text fill="#000000" font-family="sans-serif" font-size="11" lengthAdjust="spacingAndGlyphs" textLength="37" x="616" y="747.5186">ABS : 1</text><text fill="#000000" font-family="sans-serif" font-size="11" lengthAdjust="spacingAndGlyphs" textLength="35" x="616" y="762.6274">RES : 1</text><line style="stroke: #008000; stroke-width: 1.5;" x1="611" x2="726" y1="776.5989" y2="776.5989"/><text fill="#008000" font-family="sans-serif" font-size="11" font-weight="bold" lengthAdjust="spacingAndGlyphs" textLength="40" x="726" y="781.2363">has list</text><line style="stroke: #008000; stroke-width: 1.5;" x1="766" x2="881" y1="776.5989" y2="776.5989"/><line style="stroke: #008000; stroke-width: 1.0; stroke-dasharray: 1.0,2.0;" x1="611" x2="733" y1="799.2622" y2="799.2622"/><text fill="#000000" font-family="sans-serif" font-size="11" lengthAdjust="spacingAndGlyphs" textLength="26" x="733" y="803.8997">class</text><line style="stroke: #008000; stroke-width: 1.0; stroke-dasharray: 1.0,2.0;" x1="759" x2="881" y1="799.2622" y2="799.2622"/><text fill="#000000" font-family="sans-serif" font-size="11" lengthAdjust="spacingAndGlyphs" textLength="184" x="616" y="842.1719">simple.Simple.get(int).b (2108763062);</text><line style="stroke: #008000; stroke-width: 1.0; stroke-dasharray: 1.0,2.0;" x1="611" x2="727" y1="821.9255" y2="821.9255"/><text fill="#000000" font-family="sans-serif" font-size="11" lengthAdjust="spacingAndGlyphs" textLength="38" x="727" y="826.563">member</text><line style="stroke: #008000; stroke-width: 1.0; stroke-dasharray: 1.0,2.0;" x1="765" x2="881" y1="821.9255" y2="821.9255"/><line style="stroke: #008000; stroke-width: 1.0; stroke-dasharray: 1.0,2.0;" x1="611" x2="728.5" y1="856.1433" y2="856.1433"/><text fill="#000000" font-family="sans-serif" font-size="11" lengthAdjust="spacingAndGlyphs" textLength="35" x="728.5" y="860.7808">method</text><line style="stroke: #008000; stroke-width: 1.0; stroke-dasharray: 1.0,2.0;" x1="763.5" x2="881" y1="856.1433" y2="856.1433"/><line style="stroke: #008000; stroke-width: 1.5;" x1="611" x2="718.5" y1="878.8066" y2="878.8066"/><text fill="#0000FF" font-family="sans-serif" font-size="11" font-weight="bold" lengthAdjust="spacingAndGlyphs" textLength="55" x="718.5" y="883.4441">calling list</text><line style="stroke: #008000; stroke-width: 1.5;" x1="773.5" x2="881" y1="878.8066" y2="878.8066"/><line style="stroke: #008000; stroke-width: 1.0; stroke-dasharray: 1.0,2.0;" x1="611" x2="733" y1="901.47" y2="901.47"/><text fill="#000000" font-family="sans-serif" font-size="11" lengthAdjust="spacingAndGlyphs" textLength="26" x="733" y="906.1074">class</text><line style="stroke: #008000; stroke-width: 1.0; stroke-dasharray: 1.0,2.0;" x1="759" x2="881" y1="901.47" y2="901.47"/><line style="stroke: #008000; stroke-width: 1.0; stroke-dasharray: 1.0,2.0;" x1="611" x2="727" y1="924.1333" y2="924.1333"/><text fill="#000000" font-family="sans-serif" font-size="11" lengthAdjust="spacingAndGlyphs" textLength="38" x="727" y="928.7708">member</text><line style="stroke: #008000; stroke-width: 1.0; stroke-dasharray: 1.0,2.0;" x1="765" x2="881" y1="924.1333" y2="924.1333"/><line style="stroke: #008000; stroke-width: 1.0; stroke-dasharray: 1.0,2.0;" x1="611" x2="728.5" y1="946.7966" y2="946.7966"/><text fill="#000000" font-family="sans-serif" font-size="11" lengthAdjust="spacingAndGlyphs" textLength="35" x="728.5" y="951.4341">method</text><line style="stroke: #008000; stroke-width: 1.0; stroke-dasharray: 1.0,2.0;" x1="763.5" x2="881" y1="946.7966" y2="946.7966"/><line style="stroke: #008000; stroke-width: 1.5;" x1="611" x2="712" y1="969.46" y2="969.46"/><text fill="#FFA500" font-family="sans-serif" font-size="11" font-weight="bold" lengthAdjust="spacingAndGlyphs" textLength="68" x="712" y="974.0974">called by list</text><line style="stroke: #008000; stroke-width: 1.5;" x1="780" x2="881" y1="969.46" y2="969.46"/><text fill="#000000" font-family="sans-serif" font-size="11" lengthAdjust="spacingAndGlyphs" textLength="138" x="616" y="1012.3696">simple.Simple (1219273867);</text><line style="stroke: #008000; stroke-width: 1.0; stroke-dasharray: 1.0,2.0;" x1="611" x2="733" y1="992.1233" y2="992.1233"/><text fill="#000000" font-family="sans-serif" font-size="11" lengthAdjust="spacingAndGlyphs" textLength="26" x="733" y="996.7607">class</text><line style="stroke: #008000; stroke-width: 1.0; stroke-dasharray: 1.0,2.0;" x1="759" x2="881" y1="992.1233" y2="992.1233"/><text fill="#000000" font-family="sans-serif" font-size="11" lengthAdjust="spacingAndGlyphs" textLength="260" x="616" y="1046.5874">simple.Simple.main(java.lang.String[]).s (1349182676);</text><line style="stroke: #008000; stroke-width: 1.0; stroke-dasharray: 1.0,2.0;" x1="611" x2="727" y1="1026.3411" y2="1026.3411"/><text fill="#000000" font-family="sans-serif" font-size="11" lengthAdjust="spacingAndGlyphs" textLength="38" x="727" y="1030.9785">member</text><line style="stroke: #008000; stroke-width: 1.0; stroke-dasharray: 1.0,2.0;" x1="765" x2="881" y1="1026.3411" y2="1026.3411"/><text fill="#000000" font-family="sans-serif" font-size="11" lengthAdjust="spacingAndGlyphs" textLength="167" x="616" y="1080.8052">simple.Simple.test() (1424082571);</text><text fill="#000000" font-family="sans-serif" font-size="11" lengthAdjust="spacingAndGlyphs" textLength="251" x="616" y="1095.9141">simple.Simple.main(java.lang.String[]) (1403700359);</text><line style="stroke: #008000; stroke-width: 1.0; stroke-dasharray: 1.0,2.0;" x1="611" x2="728.5" y1="1060.5588" y2="1060.5588"/><text fill="#000000" font-family="sans-serif" font-size="11" lengthAdjust="spacingAndGlyphs" textLength="35" x="728.5" y="1065.1963">method</text><line style="stroke: #008000; stroke-width: 1.0; stroke-dasharray: 1.0,2.0;" x1="763.5" x2="881" y1="1060.5588" y2="1060.5588"/><!--MD5=[ea8ea0cca08f1eefe3bc02b446b74f61]
class f1424082571--><rect codeLine="86" fill="#FEFECE" filter="url(#f9w4prwm8i9zc)" height="422.1677" id="f1424082571" style="stroke: #008000; stroke-width: 1.5;" width="188" x="652" y="91.5"/><ellipse cx="727.75" cy="107.5" fill="#ADD1B2" rx="11" ry="11" style="stroke: #008000; stroke-width: 1.0;"/><path d="M727.5781,100.9844 Q725.7031,100.9844 724.5469,102.7344 Q723.3594,104.5156 723.3594,107.5156 Q723.3594,110.8906 724.5625,112.6563 Q725.625,114.2813 727.375,114.2813 Q729.0625,114.2813 730.0156,113.375 Q731.0781,112.3594 731.2188,110.125 Q731.2188,109.7031 730.9844,109.4688 Q730.7969,109.2344 730.4531,109.2031 Q730.125,109.2031 729.8906,109.3906 Q729.625,109.625 729.625,110.0156 Q729.5938,111.4063 729,112.1406 Q728.4688,112.8438 727.5156,112.8438 Q726.3594,112.8438 725.6406,111.4063 Q724.9219,109.9063 724.9219,107.4844 Q724.9219,104.9375 725.8125,103.5469 Q726.5625,102.4219 727.7031,102.4219 Q728.3594,102.4219 728.8594,102.9688 Q729.4219,103.5781 729.5469,104.6406 Q729.5938,105.3438 730.4219,105.2344 Q731.2031,105.125 731.1563,104.4375 Q730.9688,102.9219 730.2031,102.0469 Q729.2656,100.9844 727.5781,100.9844 Z "/><text fill="#000000" font-family="sans-serif" font-size="12" lengthAdjust="spacingAndGlyphs" textLength="28" x="748.25" y="113.1045">test()</text><line style="stroke: #008000; stroke-width: 1.5;" x1="653" x2="839" y1="123.5" y2="123.5"/><text fill="#000000" font-family="sans-serif" font-size="11" lengthAdjust="spacingAndGlyphs" textLength="60" x="658" y="140.1919">Static : false</text><text fill="#000000" font-family="sans-serif" font-size="11" lengthAdjust="spacingAndGlyphs" textLength="85" x="658" y="155.3008">return Type : void</text><text fill="#000000" font-family="sans-serif" font-size="11" lengthAdjust="spacingAndGlyphs" textLength="118" x="658" y="170.4097">hashCode : 1424082571</text><text fill="#000000" font-family="sans-serif" font-size="11" lengthAdjust="spacingAndGlyphs" textLength="37" x="658" y="185.5186">ABS : 4</text><text fill="#000000" font-family="sans-serif" font-size="11" lengthAdjust="spacingAndGlyphs" textLength="35" x="658" y="200.6274">RES : 4</text><line style="stroke: #008000; stroke-width: 1.5;" x1="653" x2="726" y1="214.5989" y2="214.5989"/><text fill="#008000" font-family="sans-serif" font-size="11" font-weight="bold" lengthAdjust="spacingAndGlyphs" textLength="40" x="726" y="219.2363">has list</text><line style="stroke: #008000; stroke-width: 1.5;" x1="766" x2="839" y1="214.5989" y2="214.5989"/><line style="stroke: #008000; stroke-width: 1.0; stroke-dasharray: 1.0,2.0;" x1="653" x2="733" y1="237.2622" y2="237.2622"/><text fill="#000000" font-family="sans-serif" font-size="11" lengthAdjust="spacingAndGlyphs" textLength="26" x="733" y="241.8997">class</text><line style="stroke: #008000; stroke-width: 1.0; stroke-dasharray: 1.0,2.0;" x1="759" x2="839" y1="237.2622" y2="237.2622"/><text fill="#000000" font-family="sans-serif" font-size="11" lengthAdjust="spacingAndGlyphs" textLength="176" x="658" y="280.1719">simple.Simple.test().d (2017085051);</text><line style="stroke: #008000; stroke-width: 1.0; stroke-dasharray: 1.0,2.0;" x1="653" x2="727" y1="259.9255" y2="259.9255"/><text fill="#000000" font-family="sans-serif" font-size="11" lengthAdjust="spacingAndGlyphs" textLength="38" x="727" y="264.563">member</text><line style="stroke: #008000; stroke-width: 1.0; stroke-dasharray: 1.0,2.0;" x1="765" x2="839" y1="259.9255" y2="259.9255"/><line style="stroke: #008000; stroke-width: 1.0; stroke-dasharray: 1.0,2.0;" x1="653" x2="728.5" y1="294.1433" y2="294.1433"/><text fill="#000000" font-family="sans-serif" font-size="11" lengthAdjust="spacingAndGlyphs" textLength="35" x="728.5" y="298.7808">method</text><line style="stroke: #008000; stroke-width: 1.0; stroke-dasharray: 1.0,2.0;" x1="763.5" x2="839" y1="294.1433" y2="294.1433"/><line style="stroke: #008000; stroke-width: 1.5;" x1="653" x2="718.5" y1="316.8066" y2="316.8066"/><text fill="#0000FF" font-family="sans-serif" font-size="11" font-weight="bold" lengthAdjust="spacingAndGlyphs" textLength="55" x="718.5" y="321.4441">calling list</text><line style="stroke: #008000; stroke-width: 1.5;" x1="773.5" x2="839" y1="316.8066" y2="316.8066"/><text fill="#000000" font-family="sans-serif" font-size="11" lengthAdjust="spacingAndGlyphs" textLength="138" x="658" y="359.7163">simple.Simple (1219273867);</text><line style="stroke: #008000; stroke-width: 1.0; stroke-dasharray: 1.0,2.0;" x1="653" x2="733" y1="339.47" y2="339.47"/><text fill="#000000" font-family="sans-serif" font-size="11" lengthAdjust="spacingAndGlyphs" textLength="26" x="733" y="344.1074">class</text><line style="stroke: #008000; stroke-width: 1.0; stroke-dasharray: 1.0,2.0;" x1="759" x2="839" y1="339.47" y2="339.47"/><line style="stroke: #008000; stroke-width: 1.0; stroke-dasharray: 1.0,2.0;" x1="653" x2="727" y1="373.6877" y2="373.6877"/><text fill="#000000" font-family="sans-serif" font-size="11" lengthAdjust="spacingAndGlyphs" textLength="38" x="727" y="378.3252">member</text><line style="stroke: #008000; stroke-width: 1.0; stroke-dasharray: 1.0,2.0;" x1="765" x2="839" y1="373.6877" y2="373.6877"/><text fill="#000000" font-family="sans-serif" font-size="11" lengthAdjust="spacingAndGlyphs" textLength="175" x="658" y="416.5974">simple.Simple.get(int) (2102368942);</text><line style="stroke: #008000; stroke-width: 1.0; stroke-dasharray: 1.0,2.0;" x1="653" x2="728.5" y1="396.3511" y2="396.3511"/><text fill="#000000" font-family="sans-serif" font-size="11" lengthAdjust="spacingAndGlyphs" textLength="35" x="728.5" y="400.9885">method</text><line style="stroke: #008000; stroke-width: 1.0; stroke-dasharray: 1.0,2.0;" x1="763.5" x2="839" y1="396.3511" y2="396.3511"/><line style="stroke: #008000; stroke-width: 1.5;" x1="653" x2="712" y1="430.5688" y2="430.5688"/><text fill="#FFA500" font-family="sans-serif" font-size="11" font-weight="bold" lengthAdjust="spacingAndGlyphs" textLength="68" x="712" y="435.2063">called by list</text><line style="stroke: #008000; stroke-width: 1.5;" x1="780" x2="839" y1="430.5688" y2="430.5688"/><line style="stroke: #008000; stroke-width: 1.0; stroke-dasharray: 1.0,2.0;" x1="653" x2="733" y1="453.2322" y2="453.2322"/><text fill="#000000" font-family="sans-serif" font-size="11" lengthAdjust="spacingAndGlyphs" textLength="26" x="733" y="457.8696">class</text><line style="stroke: #008000; stroke-width: 1.0; stroke-dasharray: 1.0,2.0;" x1="759" x2="839" y1="453.2322" y2="453.2322"/><line style="stroke: #008000; stroke-width: 1.0; stroke-dasharray: 1.0,2.0;" x1="653" x2="727" y1="475.8955" y2="475.8955"/><text fill="#000000" font-family="sans-serif" font-size="11" lengthAdjust="spacingAndGlyphs" textLength="38" x="727" y="480.533">member</text><line style="stroke: #008000; stroke-width: 1.0; stroke-dasharray: 1.0,2.0;" x1="765" x2="839" y1="475.8955" y2="475.8955"/><line style="stroke: #008000; stroke-width: 1.0; stroke-dasharray: 1.0,2.0;" x1="653" x2="728.5" y1="498.5588" y2="498.5588"/><text fill="#000000" font-family="sans-serif" font-size="11" lengthAdjust="spacingAndGlyphs" textLength="35" x="728.5" y="503.1963">method</text><line style="stroke: #008000; stroke-width: 1.0; stroke-dasharray: 1.0,2.0;" x1="763.5" x2="839" y1="498.5588" y2="498.5588"/><!--MD5=[b1f8aac2d54de775261f053d39af3d2c]
class f1403700359--><rect codeLine="109" fill="#FA8072" filter="url(#f9w4prwm8i9zc)" height="517.2666" id="f1403700359" style="stroke: #A80036; stroke-width: 1.5;" width="282" x="325" y="44"/><ellipse cx="398.75" cy="60" fill="#ADD1B2" rx="11" ry="11" style="stroke: #A80036; stroke-width: 1.0;"/><path d="M398.5781,53.4844 Q396.7031,53.4844 395.5469,55.2344 Q394.3594,57.0156 394.3594,60.0156 Q394.3594,63.3906 395.5625,65.1563 Q396.625,66.7813 398.375,66.7813 Q400.0625,66.7813 401.0156,65.875 Q402.0781,64.8594 402.2188,62.625 Q402.2188,62.2031 401.9844,61.9688 Q401.7969,61.7344 401.4531,61.7031 Q401.125,61.7031 400.8906,61.8906 Q400.625,62.125 400.625,62.5156 Q400.5938,63.9063 400,64.6406 Q399.4688,65.3438 398.5156,65.3438 Q397.3594,65.3438 396.6406,63.9063 Q395.9219,62.4063 395.9219,59.9844 Q395.9219,57.4375 396.8125,56.0469 Q397.5625,54.9219 398.7031,54.9219 Q399.3594,54.9219 399.8594,55.4688 Q400.4219,56.0781 400.5469,57.1406 Q400.5938,57.8438 401.4219,57.7344 Q402.2031,57.625 402.1563,56.9375 Q401.9688,55.4219 401.2031,54.5469 Q400.2656,53.4844 398.5781,53.4844 Z "/><text fill="#000000" font-family="sans-serif" font-size="12" lengthAdjust="spacingAndGlyphs" textLength="126" x="419.25" y="65.6045">main(java.lang.String[])</text><line style="stroke: #A80036; stroke-width: 1.5;" x1="326" x2="606" y1="76" y2="76"/><text fill="#000000" font-family="sans-serif" font-size="11" lengthAdjust="spacingAndGlyphs" textLength="55" x="331" y="92.6919">Static : true</text><text fill="#000000" font-family="sans-serif" font-size="11" lengthAdjust="spacingAndGlyphs" textLength="85" x="331" y="107.8008">return Type : void</text><text fill="#000000" font-family="sans-serif" font-size="11" lengthAdjust="spacingAndGlyphs" textLength="118" x="331" y="122.9097">hashCode : 1403700359</text><text fill="#000000" font-family="sans-serif" font-size="11" lengthAdjust="spacingAndGlyphs" textLength="43" x="331" y="138.0186">ABS : 10</text><text fill="#000000" font-family="sans-serif" font-size="11" lengthAdjust="spacingAndGlyphs" textLength="35" x="331" y="153.1274">RES : 5</text><line style="stroke: #A80036; stroke-width: 1.5;" x1="326" x2="446" y1="167.0989" y2="167.0989"/><text fill="#008000" font-family="sans-serif" font-size="11" font-weight="bold" lengthAdjust="spacingAndGlyphs" textLength="40" x="446" y="171.7363">has list</text><line style="stroke: #A80036; stroke-width: 1.5;" x1="486" x2="606" y1="167.0989" y2="167.0989"/><line style="stroke: #A80036; stroke-width: 1.0; stroke-dasharray: 1.0,2.0;" x1="326" x2="453" y1="189.7622" y2="189.7622"/><text fill="#000000" font-family="sans-serif" font-size="11" lengthAdjust="spacingAndGlyphs" textLength="26" x="453" y="194.3997">class</text><line style="stroke: #A80036; stroke-width: 1.0; stroke-dasharray: 1.0,2.0;" x1="479" x2="606" y1="189.7622" y2="189.7622"/><text fill="#000000" font-family="sans-serif" font-size="11" lengthAdjust="spacingAndGlyphs" textLength="270" x="331" y="232.6719">simple.Simple.main(java.lang.String[]).args (656479172);</text><text fill="#000000" font-family="sans-serif" font-size="11" lengthAdjust="spacingAndGlyphs" textLength="260" x="331" y="247.7808">simple.Simple.main(java.lang.String[]).s (1349182676);</text><text fill="#000000" font-family="sans-serif" font-size="11" lengthAdjust="spacingAndGlyphs" textLength="260" x="331" y="262.8896">simple.Simple.main(java.lang.String[]).d (1944702768);</text><line style="stroke: #A80036; stroke-width: 1.0; stroke-dasharray: 1.0,2.0;" x1="326" x2="447" y1="212.4255" y2="212.4255"/><text fill="#000000" font-family="sans-serif" font-size="11" lengthAdjust="spacingAndGlyphs" textLength="38" x="447" y="217.063">member</text><line style="stroke: #A80036; stroke-width: 1.0; stroke-dasharray: 1.0,2.0;" x1="485" x2="606" y1="212.4255" y2="212.4255"/><line style="stroke: #A80036; stroke-width: 1.0; stroke-dasharray: 1.0,2.0;" x1="326" x2="448.5" y1="276.8611" y2="276.8611"/><text fill="#000000" font-family="sans-serif" font-size="11" lengthAdjust="spacingAndGlyphs" textLength="35" x="448.5" y="281.4985">method</text><line style="stroke: #A80036; stroke-width: 1.0; stroke-dasharray: 1.0,2.0;" x1="483.5" x2="606" y1="276.8611" y2="276.8611"/><line style="stroke: #A80036; stroke-width: 1.5;" x1="326" x2="438.5" y1="299.5244" y2="299.5244"/><text fill="#0000FF" font-family="sans-serif" font-size="11" font-weight="bold" lengthAdjust="spacingAndGlyphs" textLength="55" x="438.5" y="304.1619">calling list</text><line style="stroke: #A80036; stroke-width: 1.5;" x1="493.5" x2="606" y1="299.5244" y2="299.5244"/><text fill="#000000" font-family="sans-serif" font-size="11" lengthAdjust="spacingAndGlyphs" textLength="148" x="331" y="342.4341">java.lang.String[] (335359181);</text><text fill="#000000" font-family="sans-serif" font-size="11" lengthAdjust="spacingAndGlyphs" textLength="138" x="331" y="357.543">simple.Simple (1219273867);</text><line style="stroke: #A80036; stroke-width: 1.0; stroke-dasharray: 1.0,2.0;" x1="326" x2="453" y1="322.1877" y2="322.1877"/><text fill="#000000" font-family="sans-serif" font-size="11" lengthAdjust="spacingAndGlyphs" textLength="26" x="453" y="326.8252">class</text><line style="stroke: #A80036; stroke-width: 1.0; stroke-dasharray: 1.0,2.0;" x1="479" x2="606" y1="322.1877" y2="322.1877"/><text fill="#000000" font-family="sans-serif" font-size="11" lengthAdjust="spacingAndGlyphs" textLength="260" x="331" y="391.7607">simple.Simple.main(java.lang.String[]).s (1349182676);</text><line style="stroke: #A80036; stroke-width: 1.0; stroke-dasharray: 1.0,2.0;" x1="326" x2="447" y1="371.5144" y2="371.5144"/><text fill="#000000" font-family="sans-serif" font-size="11" lengthAdjust="spacingAndGlyphs" textLength="38" x="447" y="376.1519">member</text><line style="stroke: #A80036; stroke-width: 1.0; stroke-dasharray: 1.0,2.0;" x1="485" x2="606" y1="371.5144" y2="371.5144"/><text fill="#000000" font-family="sans-serif" font-size="11" lengthAdjust="spacingAndGlyphs" textLength="185" x="331" y="425.9785">simple.Simple.Simple(int) (120478350);</text><text fill="#000000" font-family="sans-serif" font-size="11" lengthAdjust="spacingAndGlyphs" textLength="175" x="331" y="441.0874">simple.Simple.get(int) (2102368942);</text><line style="stroke: #A80036; stroke-width: 1.0; stroke-dasharray: 1.0,2.0;" x1="326" x2="448.5" y1="405.7322" y2="405.7322"/><text fill="#000000" font-family="sans-serif" font-size="11" lengthAdjust="spacingAndGlyphs" textLength="35" x="448.5" y="410.3696">method</text><line style="stroke: #A80036; stroke-width: 1.0; stroke-dasharray: 1.0,2.0;" x1="483.5" x2="606" y1="405.7322" y2="405.7322"/><line style="stroke: #A80036; stroke-width: 1.5;" x1="326" x2="432" y1="455.0588" y2="455.0588"/><text fill="#FFA500" font-family="sans-serif" font-size="11" font-weight="bold" lengthAdjust="spacingAndGlyphs" textLength="68" x="432" y="459.6963">called by list</text><line style="stroke: #A80036; stroke-width: 1.5;" x1="500" x2="606" y1="455.0588" y2="455.0588"/><text fill="#000000" font-family="sans-serif" font-size="11" lengthAdjust="spacingAndGlyphs" textLength="138" x="331" y="497.9685">simple.Simple (1219273867);</text><line style="stroke: #A80036; stroke-width: 1.0; stroke-dasharray: 1.0,2.0;" x1="326" x2="453" y1="477.7222" y2="477.7222"/><text fill="#000000" font-family="sans-serif" font-size="11" lengthAdjust="spacingAndGlyphs" textLength="26" x="453" y="482.3596">class</text><line style="stroke: #A80036; stroke-width: 1.0; stroke-dasharray: 1.0,2.0;" x1="479" x2="606" y1="477.7222" y2="477.7222"/><line style="stroke: #A80036; stroke-width: 1.0; stroke-dasharray: 1.0,2.0;" x1="326" x2="447" y1="511.9399" y2="511.9399"/><text fill="#000000" font-family="sans-serif" font-size="11" lengthAdjust="spacingAndGlyphs" textLength="38" x="447" y="516.5774">member</text><line style="stroke: #A80036; stroke-width: 1.0; stroke-dasharray: 1.0,2.0;" x1="485" x2="606" y1="511.9399" y2="511.9399"/><text fill="#000000" font-family="sans-serif" font-size="11" lengthAdjust="spacingAndGlyphs" textLength="251" x="331" y="554.8496">simple.Simple.main(java.lang.String[]) (1403700359);</text><line style="stroke: #A80036; stroke-width: 1.0; stroke-dasharray: 1.0,2.0;" x1="326" x2="448.5" y1="534.6033" y2="534.6033"/><text fill="#000000" font-family="sans-serif" font-size="11" lengthAdjust="spacingAndGlyphs" textLength="35" x="448.5" y="539.2407">method</text><line style="stroke: #A80036; stroke-width: 1.0; stroke-dasharray: 1.0,2.0;" x1="483.5" x2="606" y1="534.6033" y2="534.6033"/><!--MD5=[f6064968006b102cb1b3092be2f53bd9]
class cl1--><rect codeLine="1" fill="#FEFECE" filter="url(#f9w4prwm8i9zc)" height="544.3755" id="cl1" style="stroke: #A80036; stroke-width: 1.5;" width="272" x="7" y="30.5"/><ellipse cx="119.25" cy="46.5" fill="#ADD1B2" rx="11" ry="11" style="stroke: #A80036; stroke-width: 1.0;"/><path d="M119.0781,39.9844 Q117.2031,39.9844 116.0469,41.7344 Q114.8594,43.5156 114.8594,46.5156 Q114.8594,49.8906 116.0625,51.6563 Q117.125,53.2813 118.875,53.2813 Q120.5625,53.2813 121.5156,52.375 Q122.5781,51.3594 122.7188,49.125 Q122.7188,48.7031 122.4844,48.4688 Q122.2969,48.2344 121.9531,48.2031 Q121.625,48.2031 121.3906,48.3906 Q121.125,48.625 121.125,49.0156 Q121.0938,50.4063 120.5,51.1406 Q119.9688,51.8438 119.0156,51.8438 Q117.8594,51.8438 117.1406,50.4063 Q116.4219,48.9063 116.4219,46.4844 Q116.4219,43.9375 117.3125,42.5469 Q118.0625,41.4219 119.2031,41.4219 Q119.8594,41.4219 120.3594,41.9688 Q120.9219,42.5781 121.0469,43.6406 Q121.0938,44.3438 121.9219,44.2344 Q122.7031,44.125 122.6563,43.4375 Q122.4688,41.9219 121.7031,41.0469 Q120.7656,39.9844 119.0781,39.9844 Z "/><text fill="#000000" font-family="sans-serif" font-size="12" lengthAdjust="spacingAndGlyphs" textLength="39" x="139.75" y="52.1045">Simple</text><line style="stroke: #A80036; stroke-width: 1.5;" x1="8" x2="278" y1="62.5" y2="62.5"/><text fill="#000000" font-family="sans-serif" font-size="11" lengthAdjust="spacingAndGlyphs" textLength="74" x="13" y="79.1919">Package simple</text><text fill="#000000" font-family="sans-serif" font-size="11" lengthAdjust="spacingAndGlyphs" textLength="41" x="13" y="94.3008">Lib false</text><text fill="#000000" font-family="sans-serif" font-size="11" lengthAdjust="spacingAndGlyphs" textLength="119" x="13" y="109.4097">HashCode : 1219273867</text><text fill="#000000" font-family="sans-serif" font-size="11" lengthAdjust="spacingAndGlyphs" textLength="43" x="13" y="124.5186">ABS : 31</text><text fill="#000000" font-family="sans-serif" font-size="11" lengthAdjust="spacingAndGlyphs" textLength="35" x="13" y="139.6274">RES : 6</text><text fill="#008000" font-family="sans-serif" font-size="11" lengthAdjust="spacingAndGlyphs" textLength="33" x="13" y="173.8452">int i (1)</text><line style="stroke: #A80036; stroke-width: 1.5;" x1="8" x2="123" y1="153.5989" y2="153.5989"/><text fill="#008000" font-family="sans-serif" font-size="11" font-weight="bold" lengthAdjust="spacingAndGlyphs" textLength="40" x="123" y="158.2363">has list</text><line style="stroke: #A80036; stroke-width: 1.5;" x1="163" x2="278" y1="153.5989" y2="153.5989"/><line style="stroke: #A80036; stroke-width: 1.0; stroke-dasharray: 1.0,2.0;" x1="8" x2="278" y1="180.2622" y2="180.2622"/><text fill="#008000" font-family="sans-serif" font-size="11" lengthAdjust="spacingAndGlyphs" textLength="92" x="13" y="196.9541">new Simple(int) (3)</text><text fill="#008000" font-family="sans-serif" font-size="11" lengthAdjust="spacingAndGlyphs" textLength="65" x="13" y="212.063">int get(int) (1)</text><text fill="#008000" font-family="sans-serif" font-size="11" lengthAdjust="spacingAndGlyphs" textLength="66" x="13" y="227.1719">void test() (4)</text><text fill="#FF0000" font-family="sans-serif" font-size="11" lengthAdjust="spacingAndGlyphs" textLength="156" x="13" y="242.2808">void main(java.lang.String[]) (10)</text><line style="stroke: #A80036; stroke-width: 1.5;" x1="8" x2="115.5" y1="256.2522" y2="256.2522"/><text fill="#0000FF" font-family="sans-serif" font-size="11" font-weight="bold" lengthAdjust="spacingAndGlyphs" textLength="55" x="115.5" y="260.8896">calling list</text><line style="stroke: #A80036; stroke-width: 1.5;" x1="170.5" x2="278" y1="256.2522" y2="256.2522"/><text fill="#000000" font-family="sans-serif" font-size="11" lengthAdjust="spacingAndGlyphs" textLength="148" x="13" y="299.1619">java.lang.String[] (335359181);</text><text fill="#000000" font-family="sans-serif" font-size="11" lengthAdjust="spacingAndGlyphs" textLength="138" x="13" y="314.2708">simple.Simple (1219273867);</text><line style="stroke: #A80036; stroke-width: 1.0; stroke-dasharray: 1.0,2.0;" x1="8" x2="130" y1="278.9155" y2="278.9155"/><text fill="#000000" font-family="sans-serif" font-size="11" lengthAdjust="spacingAndGlyphs" textLength="26" x="130" y="283.553">class</text><line style="stroke: #A80036; stroke-width: 1.0; stroke-dasharray: 1.0,2.0;" x1="156" x2="278" y1="278.9155" y2="278.9155"/><text fill="#000000" font-family="sans-serif" font-size="11" lengthAdjust="spacingAndGlyphs" textLength="137" x="13" y="348.4885">simple.Simple.i (194707680);</text><text fill="#000000" font-family="sans-serif" font-size="11" lengthAdjust="spacingAndGlyphs" textLength="260" x="13" y="363.5974">simple.Simple.main(java.lang.String[]).s (1349182676);</text><line style="stroke: #A80036; stroke-width: 1.0; stroke-dasharray: 1.0,2.0;" x1="8" x2="124" y1="328.2422" y2="328.2422"/><text fill="#000000" font-family="sans-serif" font-size="11" lengthAdjust="spacingAndGlyphs" textLength="38" x="124" y="332.8796">member</text><line style="stroke: #A80036; stroke-width: 1.0; stroke-dasharray: 1.0,2.0;" x1="162" x2="278" y1="328.2422" y2="328.2422"/><text fill="#000000" font-family="sans-serif" font-size="11" lengthAdjust="spacingAndGlyphs" textLength="175" x="13" y="397.8152">simple.Simple.get(int) (2102368942);</text><text fill="#000000" font-family="sans-serif" font-size="11" lengthAdjust="spacingAndGlyphs" textLength="185" x="13" y="412.9241">simple.Simple.Simple(int) (120478350);</text><line style="stroke: #A80036; stroke-width: 1.0; stroke-dasharray: 1.0,2.0;" x1="8" x2="125.5" y1="377.5688" y2="377.5688"/><text fill="#000000" font-family="sans-serif" font-size="11" lengthAdjust="spacingAndGlyphs" textLength="35" x="125.5" y="382.2063">method</text><line style="stroke: #A80036; stroke-width: 1.0; stroke-dasharray: 1.0,2.0;" x1="160.5" x2="278" y1="377.5688" y2="377.5688"/><line style="stroke: #A80036; stroke-width: 1.5;" x1="8" x2="109" y1="426.8955" y2="426.8955"/><text fill="#FFA500" font-family="sans-serif" font-size="11" font-weight="bold" lengthAdjust="spacingAndGlyphs" textLength="68" x="109" y="431.533">called by list</text><line style="stroke: #A80036; stroke-width: 1.5;" x1="177" x2="278" y1="426.8955" y2="426.8955"/><text fill="#000000" font-family="sans-serif" font-size="11" lengthAdjust="spacingAndGlyphs" textLength="138" x="13" y="469.8052">simple.Simple (1219273867);</text><line style="stroke: #A80036; stroke-width: 1.0; stroke-dasharray: 1.0,2.0;" x1="8" x2="130" y1="449.5588" y2="449.5588"/><text fill="#000000" font-family="sans-serif" font-size="11" lengthAdjust="spacingAndGlyphs" textLength="26" x="130" y="454.1963">class</text><line style="stroke: #A80036; stroke-width: 1.0; stroke-dasharray: 1.0,2.0;" x1="156" x2="278" y1="449.5588" y2="449.5588"/><text fill="#000000" font-family="sans-serif" font-size="11" lengthAdjust="spacingAndGlyphs" textLength="260" x="13" y="504.0229">simple.Simple.main(java.lang.String[]).s (1349182676);</text><line style="stroke: #A80036; stroke-width: 1.0; stroke-dasharray: 1.0,2.0;" x1="8" x2="124" y1="483.7766" y2="483.7766"/><text fill="#000000" font-family="sans-serif" font-size="11" lengthAdjust="spacingAndGlyphs" textLength="38" x="124" y="488.4141">member</text><line style="stroke: #A80036; stroke-width: 1.0; stroke-dasharray: 1.0,2.0;" x1="162" x2="278" y1="483.7766" y2="483.7766"/><text fill="#000000" font-family="sans-serif" font-size="11" lengthAdjust="spacingAndGlyphs" textLength="185" x="13" y="538.2407">simple.Simple.Simple(int) (120478350);</text><text fill="#000000" font-family="sans-serif" font-size="11" lengthAdjust="spacingAndGlyphs" textLength="167" x="13" y="553.3496">simple.Simple.test() (1424082571);</text><text fill="#000000" font-family="sans-serif" font-size="11" lengthAdjust="spacingAndGlyphs" textLength="251" x="13" y="568.4585">simple.Simple.main(java.lang.String[]) (1403700359);</text><line style="stroke: #A80036; stroke-width: 1.0; stroke-dasharray: 1.0,2.0;" x1="8" x2="125.5" y1="517.9944" y2="517.9944"/><text fill="#000000" font-family="sans-serif" font-size="11" lengthAdjust="spacingAndGlyphs" textLength="35" x="125.5" y="522.6318">method</text><line style="stroke: #A80036; stroke-width: 1.0; stroke-dasharray: 1.0,2.0;" x1="160.5" x2="278" y1="517.9944" y2="517.9944"/><!--MD5=[9dfd5d489b9c8466f9f8f8b6acff5226]
link f1424082571 to f2102368942--><path codeLine="140" d="M746,513.79 C746,557.5 746,603.77 746,648.11 " fill="none" id="f1424082571-to-f2102368942" style="stroke: #A80036; stroke-width: 1.0;"/><polygon fill="#A80036" points="746,653.23,750,644.23,746,648.23,742,644.23,746,653.23" style="stroke: #A80036; stroke-width: 1.0;"/><text fill="#000000" font-family="sans-serif" font-size="13" lengthAdjust="spacingAndGlyphs" textLength="20" x="747" y="620.4995">call</text><!--MD5=[3a94d688cd78f27c49b43d5c1af97f74]
link f1403700359 to f120478350--><path codeLine="141" d="M455.66,561.31 C454.5,590.16 453.33,619.41 452.19,647.86 " fill="none" id="f1403700359-to-f120478350" style="stroke: #A80036; stroke-width: 1.0;"/><polygon fill="#A80036" points="451.98,653.17,456.3365,644.3371,452.1798,648.174,448.3429,644.0173,451.98,653.17" style="stroke: #A80036; stroke-width: 1.0;"/><text fill="#000000" font-family="sans-serif" font-size="13" lengthAdjust="spacingAndGlyphs" textLength="20" x="454" y="620.4995">call</text><!--MD5=[5f38e805960a47fca6e20f4a9a1bdd85]
link f1403700359 to f2102368942--><path codeLine="142" d="M591.87,561.31 C606.07,590.4 620.47,619.89 634.47,648.57 " fill="none" id="f1403700359-to-f2102368942" style="stroke: #A80036; stroke-width: 1.0;"/><polygon fill="#A80036" points="636.72,653.17,636.3859,643.3268,634.5355,648.6725,629.1898,646.822,636.72,653.17" style="stroke: #A80036; stroke-width: 1.0;"/><text fill="#000000" font-family="sans-serif" font-size="13" lengthAdjust="spacingAndGlyphs" textLength="20" x="615" y="620.4995">call</text><!--MD5=[f64109ab48153d6c5531288aa74e9c51]
@startuml
class "Simple" as cl1{
Package simple
Lib false
HashCode : 1219273867
ABS : 31
RES : 6
__**<color:green>has list</color>**__
	<color:green>int i (1)
....
	<color:green>new Simple(int) (3)
	<color:green>int get(int) (1)
	<color:green>void test() (4)
	<color:red>void main(java.lang.String[]) (10)
__**<color:blue>calling list</color>**__
..class..
	java.lang.String[] (335359181);
	simple.Simple (1219273867);
..member..
	simple.Simple.i (194707680);
	simple.Simple.main(java.lang.String[]).s (1349182676);
..method..
	 simple.Simple.get(int) (2102368942);
	 simple.Simple.Simple(int) (120478350);
__**<color:orange>called by list</color>**__
..class..
	simple.Simple (1219273867);
..member..
	simple.Simple.main(java.lang.String[]).s (1349182676);
..method..
	 simple.Simple.Simple(int) (120478350);
	 simple.Simple.test() (1424082571);
	 simple.Simple.main(java.lang.String[]) (1403700359);
}

 package Functions{
class "Simple(int)" as f120478350  #line:green
{
Static : false
return Type : new
hashCode : 120478350
ABS : 3
RES : 3
__**<color:green>has list</color>**__
..class..
..member..
	simple.Simple.Simple(int).x (1387380406);
	simple.Simple.Simple(int).r (658404420);
..method..
__**<color:blue>calling list</color>**__
..class..
..member..
	simple.Simple.i (194707680);
..method..
__**<color:orange>called by list</color>**__
..class..
	simple.Simple (1219273867);
..member..
..method..
	 simple.Simple.main(java.lang.String[]) (1403700359);
}
class "get(int)" as f2102368942  #line:green
{
Static : false
return Type : int
hashCode : 2102368942
ABS : 1
RES : 1
__**<color:green>has list</color>**__
..class..
..member..
	simple.Simple.get(int).b (2108763062);
..method..
__**<color:blue>calling list</color>**__
..class..
..member..
..method..
__**<color:orange>called by list</color>**__
..class..
	simple.Simple (1219273867);
..member..
	simple.Simple.main(java.lang.String[]).s (1349182676);
..method..
	 simple.Simple.test() (1424082571);
	 simple.Simple.main(java.lang.String[]) (1403700359);
}
class "test()" as f1424082571  #line:green
{
Static : false
return Type : void
hashCode : 1424082571
ABS : 4
RES : 4
__**<color:green>has list</color>**__
..class..
..member..
	simple.Simple.test().d (2017085051);
..method..
__**<color:blue>calling list</color>**__
..class..
	simple.Simple (1219273867);
..member..
..method..
	 simple.Simple.get(int) (2102368942);
__**<color:orange>called by list</color>**__
..class..
..member..
..method..
}
class "main(java.lang.String[])" as f1403700359  #back:salmon
{
Static : true
return Type : void
hashCode : 1403700359
ABS : 10
RES : 5
__**<color:green>has list</color>**__
..class..
..member..
	simple.Simple.main(java.lang.String[]).args (656479172);
	simple.Simple.main(java.lang.String[]).s (1349182676);
	simple.Simple.main(java.lang.String[]).d (1944702768);
..method..
__**<color:blue>calling list</color>**__
..class..
	java.lang.String[] (335359181);
	simple.Simple (1219273867);
..member..
	simple.Simple.main(java.lang.String[]).s (1349182676);
..method..
	 simple.Simple.Simple(int) (120478350);
	 simple.Simple.get(int) (2102368942);
__**<color:orange>called by list</color>**__
..class..
	simple.Simple (1219273867);
..member..
..method..
	 simple.Simple.main(java.lang.String[]) (1403700359);
}
}
f1424082571- ->f2102368942 : call 
f1403700359- ->f120478350 : call 
f1403700359- ->f2102368942 : call 

@enduml

PlantUML version 1.2020.19(Tue Oct 13 00:10:01 KST 2020)
(APACHE source distribution)
Java Runtime: OpenJDK Runtime Environment
JVM: OpenJDK 64-Bit Server VM
Default Encoding: MS949
Language: ko
Country: KR
--></g></svg>