<?xml version="1.0" encoding="UTF-8" standalone="no"?><svg xmlns="http://www.w3.org/2000/svg" xmlns:xlink="http://www.w3.org/1999/xlink" contentScriptType="application/ecmascript" contentStyleType="text/css" height="410px" preserveAspectRatio="none" style="width:340px;height:410px;" version="1.1" viewBox="0 0 340 410" width="340px" zoomAndPan="magnify"><defs><filter height="300%" id="f19fs8rjri7n1t" width="300%" x="-1" y="-1"><feGaussianBlur result="blurOut" stdDeviation="2.0"/><feColorMatrix in="blurOut" result="blurOut2" type="matrix" values="0 0 0 0 0 0 0 0 0 0 0 0 0 0 0 0 0 0 .4 0"/><feOffset dx="4.0" dy="4.0" in="blurOut2" result="blurOut3"/><feBlend in="SourceGraphic" in2="blurOut3" mode="normal"/></filter></defs><g><rect fill="#FFFFFF" filter="url(#f19fs8rjri7n1t)" height="17.3105" style="stroke: #000000; stroke-width: 2.0;" width="217" x="30" y="57.4883"/><rect fill="#FFFFFF" filter="url(#f19fs8rjri7n1t)" height="17.3105" style="stroke: #000000; stroke-width: 2.0;" width="265" x="30" y="88.7988"/><rect fill="#FFFFFF" filter="url(#f19fs8rjri7n1t)" height="17.3105" style="stroke: #000000; stroke-width: 2.0;" width="168" x="30" y="120.1094"/><rect fill="#FFFFFF" filter="url(#f19fs8rjri7n1t)" height="17.3105" style="stroke: #000000; stroke-width: 2.0;" width="280" x="30" y="151.4199"/><rect fill="#FFFFFF" filter="url(#f19fs8rjri7n1t)" height="17.3105" style="stroke: #000000; stroke-width: 2.0;" width="296" x="30" y="182.7305"/><rect fill="#FFFFFF" filter="url(#f19fs8rjri7n1t)" height="17.3105" style="stroke: #000000; stroke-width: 2.0;" width="253" x="30" y="214.041"/><rect fill="#FFFFFF" filter="url(#f19fs8rjri7n1t)" height="17.3105" style="stroke: #000000; stroke-width: 2.0;" width="286" x="30" y="245.3516"/><rect fill="#FFFFFF" filter="url(#f19fs8rjri7n1t)" height="73.6211" style="stroke: #000000; stroke-width: 2.0;" width="292.5" x="10" y="276.6621"/><line style="stroke: #A80036; stroke-width: 1.0; stroke-dasharray: 5.0,5.0;" x1="72" x2="72" y1="40.4883" y2="367.2832"/><line style="stroke: #A80036; stroke-width: 1.0; stroke-dasharray: 5.0,5.0;" x1="243.5" x2="243.5" y1="40.4883" y2="367.2832"/><rect fill="#FEFECE" filter="url(#f19fs8rjri7n1t)" height="30.4883" style="stroke: #A80036; stroke-width: 1.5;" width="101" x="20" y="5"/><text fill="#000000" font-family="sans-serif" font-size="14" lengthAdjust="spacingAndGlyphs" textLength="87" x="27" y="25.5352">GameSystem</text><rect fill="#FEFECE" filter="url(#f19fs8rjri7n1t)" height="30.4883" style="stroke: #A80036; stroke-width: 1.5;" width="101" x="20" y="366.2832"/><text fill="#000000" font-family="sans-serif" font-size="14" lengthAdjust="spacingAndGlyphs" textLength="87" x="27" y="386.8184">GameSystem</text><rect fill="#FEFECE" filter="url(#f19fs8rjri7n1t)" height="30.4883" style="stroke: #A80036; stroke-width: 1.5;" width="94" x="194.5" y="5"/><text fill="#000000" font-family="sans-serif" font-size="14" lengthAdjust="spacingAndGlyphs" textLength="80" x="201.5" y="25.5352">PrintStream</text><rect fill="#FEFECE" filter="url(#f19fs8rjri7n1t)" height="30.4883" style="stroke: #A80036; stroke-width: 1.5;" width="94" x="194.5" y="366.2832"/><text fill="#000000" font-family="sans-serif" font-size="14" lengthAdjust="spacingAndGlyphs" textLength="80" x="201.5" y="386.8184">PrintStream</text><path d="M30,57.4883 L242,57.4883 L242,64.4883 L232,74.4883 L30,74.4883 L30,57.4883 " fill="#EEEEEE" style="stroke: #000000; stroke-width: 1.0;"/><rect fill="none" height="17.3105" style="stroke: #000000; stroke-width: 2.0;" width="217" x="30" y="57.4883"/><text fill="#000000" font-family="sans-serif" font-size="13" font-weight="bold" lengthAdjust="spacingAndGlyphs" textLength="167" x="45" y="71.0566">new GameSystem(int[][])</text><path d="M30,88.7988 L290,88.7988 L290,95.7988 L280,105.7988 L30,105.7988 L30,88.7988 " fill="#EEEEEE" style="stroke: #000000; stroke-width: 1.0;"/><rect fill="none" height="17.3105" style="stroke: #000000; stroke-width: 2.0;" width="265" x="30" y="88.7988"/><text fill="#000000" font-family="sans-serif" font-size="13" font-weight="bold" lengthAdjust="spacingAndGlyphs" textLength="215" x="45" y="102.3672">void playGame(java.lang.String)</text><path d="M30,120.1094 L193,120.1094 L193,127.1094 L183,137.1094 L30,137.1094 L30,120.1094 " fill="#EEEEEE" style="stroke: #000000; stroke-width: 1.0;"/><rect fill="none" height="17.3105" style="stroke: #000000; stroke-width: 2.0;" width="168" x="30" y="120.1094"/><text fill="#000000" font-family="sans-serif" font-size="13" font-weight="bold" lengthAdjust="spacingAndGlyphs" textLength="118" x="45" y="133.6777">void diceSetting()</text><path d="M30,151.4199 L305,151.4199 L305,158.4199 L295,168.4199 L30,168.4199 L30,151.4199 " fill="#EEEEEE" style="stroke: #000000; stroke-width: 1.0;"/><rect fill="none" height="17.3105" style="stroke: #000000; stroke-width: 2.0;" width="280" x="30" y="151.4199"/><text fill="#000000" font-family="sans-serif" font-size="13" font-weight="bold" lengthAdjust="spacingAndGlyphs" textLength="230" x="45" y="164.9883">void printPos(gameSystem.Player)</text><path d="M30,182.7305 L321,182.7305 L321,189.7305 L311,199.7305 L30,199.7305 L30,182.7305 " fill="#EEEEEE" style="stroke: #000000; stroke-width: 1.0;"/><rect fill="none" height="17.3105" style="stroke: #000000; stroke-width: 2.0;" width="296" x="30" y="182.7305"/><text fill="#000000" font-family="sans-serif" font-size="13" font-weight="bold" lengthAdjust="spacingAndGlyphs" textLength="246" x="45" y="196.2988">Dice choiceDice(gameSystem.Player)</text><path d="M30,214.041 L278,214.041 L278,221.041 L268,231.041 L30,231.041 L30,214.041 " fill="#EEEEEE" style="stroke: #000000; stroke-width: 1.0;"/><rect fill="none" height="17.3105" style="stroke: #000000; stroke-width: 2.0;" width="253" x="30" y="214.041"/><text fill="#000000" font-family="sans-serif" font-size="13" font-weight="bold" lengthAdjust="spacingAndGlyphs" textLength="203" x="45" y="227.6094">int diceRoll(gameSystem.Dice)</text><path d="M30,245.3516 L311,245.3516 L311,252.3516 L301,262.3516 L30,262.3516 L30,245.3516 " fill="#EEEEEE" style="stroke: #000000; stroke-width: 1.0;"/><rect fill="none" height="17.3105" style="stroke: #000000; stroke-width: 2.0;" width="286" x="30" y="245.3516"/><text fill="#000000" font-family="sans-serif" font-size="13" font-weight="bold" lengthAdjust="spacingAndGlyphs" textLength="236" x="45" y="258.9199">void move(int, gameSystem.Player)</text><path d="M10,276.6621 L173,276.6621 L173,283.6621 L163,293.6621 L10,293.6621 L10,276.6621 " fill="#EEEEEE" style="stroke: #000000; stroke-width: 1.0;"/><rect fill="none" height="73.6211" style="stroke: #000000; stroke-width: 2.0;" width="292.5" x="10" y="276.6621"/><text fill="#000000" font-family="sans-serif" font-size="13" font-weight="bold" lengthAdjust="spacingAndGlyphs" textLength="118" x="25" y="290.2305">void printResult()</text><polygon fill="#A80036" points="231.5,311.2832,241.5,315.2832,231.5,319.2832,235.5,315.2832" style="stroke: #A80036; stroke-width: 1.0;"/><line style="stroke: #A80036; stroke-width: 1.0;" x1="72.5" x2="237.5" y1="315.2832" y2="315.2832"/><text fill="#000000" font-family="sans-serif" font-size="13" lengthAdjust="spacingAndGlyphs" textLength="147" x="79.5" y="310.541">println(java.lang.String)</text><line style="stroke: #A80036; stroke-width: 1.0; stroke-dasharray: 2.0,2.0;" x1="72.5" x2="114.5" y1="329.2832" y2="329.2832"/><line style="stroke: #A80036; stroke-width: 1.0; stroke-dasharray: 2.0,2.0;" x1="114.5" x2="114.5" y1="329.2832" y2="342.2832"/><line style="stroke: #A80036; stroke-width: 1.0; stroke-dasharray: 2.0,2.0;" x1="73.5" x2="114.5" y1="342.2832" y2="342.2832"/><polygon fill="#A80036" points="83.5,338.2832,73.5,342.2832,83.5,346.2832,79.5,342.2832" style="stroke: #A80036; stroke-width: 1.0;"/><!--MD5=[5a8619ebca9b3d5697a027cc6e7b7664]
@startuml
group new GameSystem(int[][])
end

group void playGame(java.lang.String)
end

group void diceSetting()
end

group void printPos(gameSystem.Player)
end

group Dice choiceDice(gameSystem.Player)
end

group int diceRoll(gameSystem.Dice)
end

group void move(int, gameSystem.Player)
end

group void printResult()
	GameSystem->PrintStream : println(java.lang.String)
	GameSystem- ->GameSystem
end

@enduml

PlantUML version 1.2020.19(Tue Oct 13 00:10:01 KST 2020)
(APACHE source distribution)
Java Runtime: Java(TM) SE Runtime Environment
JVM: Java HotSpot(TM) 64-Bit Server VM
Default Encoding: UTF-8
Language: ko
Country: KR
--></g></svg>