<?xml version="1.0" encoding="UTF-8" standalone="no"?><svg xmlns="http://www.w3.org/2000/svg" xmlns:xlink="http://www.w3.org/1999/xlink" contentScriptType="application/ecmascript" contentStyleType="text/css" height="590px" preserveAspectRatio="none" style="width:297px;height:590px;" version="1.1" viewBox="0 0 297 590" width="297px" zoomAndPan="magnify"><defs><filter height="300%" id="fodw0l8252s86" width="300%" x="-1" y="-1"><feGaussianBlur result="blurOut" stdDeviation="2.0"/><feColorMatrix in="blurOut" result="blurOut2" type="matrix" values="0 0 0 0 0 0 0 0 0 0 0 0 0 0 0 0 0 0 .4 0"/><feOffset dx="4.0" dy="4.0" in="blurOut2" result="blurOut3"/><feBlend in="SourceGraphic" in2="blurOut3" mode="normal"/></filter></defs><g><!--MD5=[aa8f7b917213fcc1c2766e2d59b49067]
cluster java.lang--><polygon fill="#FFFFFF" filter="url(#fodw0l8252s86)" points="138,6,207,6,214,31.2295,246,31.2295,246,160,138,160,138,6" style="stroke: #000000; stroke-width: 1.5;"/><line style="stroke: #000000; stroke-width: 1.5;" x1="138" x2="214" y1="31.2295" y2="31.2295"/><text fill="#000000" font-family="sans-serif" font-size="14" font-weight="bold" lengthAdjust="spacingAndGlyphs" textLength="63" x="142" y="24.1533">java.lang</text><!--MD5=[7db3c59d38ae5b37b484eb2df9368145]
cluster java.util--><polygon fill="#FFFFFF" filter="url(#fodw0l8252s86)" points="137,184,198,184,205,209.2295,247,209.2295,247,271,137,271,137,184" style="stroke: #000000; stroke-width: 1.5;"/><line style="stroke: #000000; stroke-width: 1.5;" x1="137" x2="205" y1="209.2295" y2="209.2295"/><text fill="#000000" font-family="sans-serif" font-size="14" font-weight="bold" lengthAdjust="spacingAndGlyphs" textLength="55" x="141" y="202.1533">java.util</text><!--MD5=[3933140a3572eb533f89b9e66b6e41f8]
cluster dataSet--><polygon fill="#FFFFFF" filter="url(#fodw0l8252s86)" points="104,295,163,295,170,320.2295,280,320.2295,280,583,104,583,104,295" style="stroke: #000000; stroke-width: 1.5;"/><line style="stroke: #000000; stroke-width: 1.5;" x1="104" x2="170" y1="320.2295" y2="320.2295"/><text fill="#000000" font-family="sans-serif" font-size="14" font-weight="bold" lengthAdjust="spacingAndGlyphs" textLength="53" x="108" y="313.1533">dataSet</text><ellipse cx="192.6482" cy="61.0973" fill="#FEFECE" filter="url(#fodw0l8252s86)" rx="37.6482" ry="16.5973" style="stroke: #A80036; stroke-width: 1.5;"/><text fill="#000000" font-family="sans-serif" font-size="14" lengthAdjust="spacingAndGlyphs" textLength="49" x="168.1482" y="67.2121">toString</text><ellipse cx="191.9411" cy="128.0973" fill="#FEFECE" filter="url(#fodw0l8252s86)" rx="36.9411" ry="16.5973" style="stroke: #A80036; stroke-width: 1.5;"/><text fill="#000000" font-family="sans-serif" font-size="14" lengthAdjust="spacingAndGlyphs" textLength="48" x="167.9411" y="134.2121">append</text><ellipse cx="192.3553" cy="239.0973" fill="#FEFECE" filter="url(#fodw0l8252s86)" rx="38.3553" ry="16.5973" style="stroke: #A80036; stroke-width: 1.5;"/><text fill="#000000" font-family="sans-serif" font-size="14" lengthAdjust="spacingAndGlyphs" textLength="50" x="167.3553" y="245.2121">hasNext</text><ellipse cx="192.2843" cy="350.0973" fill="#FEFECE" filter="url(#fodw0l8252s86)" rx="31.2843" ry="16.5973" style="stroke: #A80036; stroke-width: 1.5;"/><text fill="#000000" font-family="sans-serif" font-size="14" lengthAdjust="spacingAndGlyphs" textLength="40" x="172.2843" y="356.2121">getSig</text><ellipse cx="192.2886" cy="417.1577" fill="#FEFECE" filter="url(#fodw0l8252s86)" rx="71.2886" ry="16.6577" style="stroke: #A80036; stroke-width: 1.5;"/><text fill="#000000" font-family="sans-serif" font-size="14" lengthAdjust="spacingAndGlyphs" textLength="97" x="143.7886" y="423.2725">getFunctionList</text><ellipse cx="192.669" cy="484.0973" fill="#FEFECE" filter="url(#fodw0l8252s86)" rx="49.669" ry="16.5973" style="stroke: #A80036; stroke-width: 1.5;"/><text fill="#000000" font-family="sans-serif" font-size="14" lengthAdjust="spacingAndGlyphs" textLength="66" x="159.669" y="490.2121">getHasList</text><ellipse cx="192.2254" cy="551.0973" fill="#FEFECE" filter="url(#fodw0l8252s86)" rx="65.2254" ry="16.5973" style="stroke: #A80036; stroke-width: 1.5;"/><text fill="#000000" font-family="sans-serif" font-size="14" lengthAdjust="spacingAndGlyphs" textLength="88" x="148.2254" y="557.2121">getTypeName</text><!--MD5=[e492fce7f8f9d20d2108b96f306ae1ec]
entity actor2030748640--><ellipse cx="33" cy="317.5" fill="#FEFECE" filter="url(#fodw0l8252s86)" rx="8" ry="8" style="stroke: #A80036; stroke-width: 1.5;"/><path d="M33,325.5 L33,352.5 M20,333.5 L46,333.5 M33,352.5 L20,367.5 M33,352.5 L46,367.5 " fill="none" filter="url(#fodw0l8252s86)" style="stroke: #A80036; stroke-width: 1.5;"/><text fill="#000000" font-family="sans-serif" font-size="14" lengthAdjust="spacingAndGlyphs" textLength="54" x="6" y="389.1533">Complex</text><!--MD5=[b26774f8593182faa1bfc9f56f375510]
link actor2030748640 to UC1296277943--><path d="M45.7289,307.81 C56.1281,277.768 72.893,237.484 96,207 C116.992,179.306 149.55,155.2 170.824,141.122 " fill="none" id="actor2030748640-UC1296277943" style="stroke: #A80036; stroke-width: 1.0;"/><!--MD5=[02444d44d42a05254a12f05d59e0afa5]
link actor2030748640 to UC1528099970--><path d="M38.4425,307.754 C47.5287,243.411 67.6296,125.04 96,94 C111.219,77.349 135.219,69.099 155.414,65.012 " fill="none" id="actor2030748640-UC1528099970" style="stroke: #A80036; stroke-width: 1.0;"/><!--MD5=[849208cae1016ead47816228a9c9e61a]
link actor2030748640 to UC1538456363--><path d="M60.3331,330.918 C92.1199,308.728 143.828,272.63 172.057,252.922 " fill="none" id="actor2030748640-UC1538456363" style="stroke: #A80036; stroke-width: 1.0;"/><!--MD5=[ad0690192b37d880fbb3e3d2c540da10]
link actor2030748640 to UC1430710100--><path d="M38.7307,392.138 C45.937,429.603 61.804,483.493 96,517 C107.871,528.632 123.968,536.3059 139.586,541.3601 " fill="none" id="actor2030748640-UC1430710100" style="stroke: #A80036; stroke-width: 1.0;"/><!--MD5=[b2607e3023b0019afa6c96772a648f89]
link actor2030748640 to UC150180388--><path d="M51.4315,392.163 C61.9752,412.071 76.9291,434.751 96,450 C111.466,462.367 131.775,470.421 149.728,475.568 " fill="none" id="actor2030748640-UC150180388" style="stroke: #A80036; stroke-width: 1.0;"/><!--MD5=[59a2537b113425f82c0e547ed04240a4]
link actor2030748640 to UC133579455--><path d="M60.1859,365.321 C71.1413,371.208 84.0043,377.766 96,383 C113.664,390.708 133.69,398.016 150.864,403.867 " fill="none" id="actor2030748640-UC133579455" style="stroke: #A80036; stroke-width: 1.0;"/><!--MD5=[532e97795425f9635a95f2af0bce4841]
link actor2030748640 to UC1785570426--><path d="M60.3331,350 C88.1243,350 131.143,350 160.385,350 " fill="none" id="actor2030748640-UC1785570426" style="stroke: #A80036; stroke-width: 1.0;"/><!--MD5=[09f3d40287f8f85f3748b2a2406b3d70]
@startuml
 left to right direction

actor Complex as actor2030748640

	package java.lang {
		usecase toString as UC1528099970
		usecase append as UC1296277943
	}
	actor2030748640 - - UC1296277943
	actor2030748640 - - UC1528099970
	package java.util {
		usecase hasNext as UC1538456363
	}
	actor2030748640 - - UC1538456363
	package dataSet {
		usecase getSig as UC1785570426
		usecase getFunctionList as UC133579455
		usecase getHasList as UC150180388
		usecase getTypeName as UC1430710100
	}
	actor2030748640 - - UC1430710100
	actor2030748640 - - UC150180388
	actor2030748640 - - UC133579455
	actor2030748640 - - UC1785570426

@enduml

PlantUML version 1.2020.19(Tue Oct 13 00:10:01 KST 2020)
(APACHE source distribution)
Java Runtime: Java(TM) SE Runtime Environment
JVM: Java HotSpot(TM) 64-Bit Server VM
Default Encoding: MS949
Language: ko
Country: KR
--></g></svg>