<?xml version="1.0" encoding="UTF-8" standalone="no"?><svg xmlns="http://www.w3.org/2000/svg" xmlns:xlink="http://www.w3.org/1999/xlink" contentScriptType="application/ecmascript" contentStyleType="text/css" height="1323px" preserveAspectRatio="none" style="width:402px;height:1323px;" version="1.1" viewBox="0 0 402 1323" width="402px" zoomAndPan="magnify"><defs><filter height="300%" id="fxib8hujmjcl" width="300%" x="-1" y="-1"><feGaussianBlur result="blurOut" stdDeviation="2.0"/><feColorMatrix in="blurOut" result="blurOut2" type="matrix" values="0 0 0 0 0 0 0 0 0 0 0 0 0 0 0 0 0 0 .4 0"/><feOffset dx="4.0" dy="4.0" in="blurOut2" result="blurOut3"/><feBlend in="SourceGraphic" in2="blurOut3" mode="normal"/></filter></defs><g><!--MD5=[aa8f7b917213fcc1c2766e2d59b49067]
cluster java.lang--><polygon fill="#FFFFFF" filter="url(#fxib8hujmjcl)" points="237.0428,739,306.0428,739,313.0428,764.2295,345.0428,764.2295,345.0428,960,237.0428,960,237.0428,739" style="stroke: #000000; stroke-width: 1.5;"/><line style="stroke: #000000; stroke-width: 1.5;" x1="237.0428" x2="313.0428" y1="764.2295" y2="764.2295"/><text fill="#000000" font-family="sans-serif" font-size="14" font-weight="bold" lengthAdjust="spacingAndGlyphs" textLength="63" x="241.0428" y="757.1533">java.lang</text><!--MD5=[7db3c59d38ae5b37b484eb2df9368145]
cluster java.util--><polygon fill="#FFFFFF" filter="url(#fxib8hujmjcl)" points="255.0428,6,316.0428,6,323.0428,31.2295,327.0428,31.2295,327.0428,158,255.0428,158,255.0428,6" style="stroke: #000000; stroke-width: 1.5;"/><line style="stroke: #000000; stroke-width: 1.5;" x1="255.0428" x2="323.0428" y1="31.2295" y2="31.2295"/><text fill="#000000" font-family="sans-serif" font-size="14" font-weight="bold" lengthAdjust="spacingAndGlyphs" textLength="55" x="259.0428" y="24.1533">java.util</text><!--MD5=[0d852700fdad35b7061d461d6907a324]
cluster java.io--><polygon fill="#FFFFFF" filter="url(#fxib8hujmjcl)" points="244.0428,182,296.0428,182,303.0428,207.2295,338.0428,207.2295,338.0428,269,244.0428,269,244.0428,182" style="stroke: #000000; stroke-width: 1.5;"/><line style="stroke: #000000; stroke-width: 1.5;" x1="244.0428" x2="303.0428" y1="207.2295" y2="207.2295"/><text fill="#000000" font-family="sans-serif" font-size="14" font-weight="bold" lengthAdjust="spacingAndGlyphs" textLength="46" x="248.0428" y="200.1533">java.io</text><!--MD5=[c66e735c89a839b0f40df60143f9640e]
cluster org.eclipse.jdt.core.dom--><polygon fill="#FFFFFF" filter="url(#fxib8hujmjcl)" points="197.0428,293,374.0428,293,381.0428,318.2295,385.0428,318.2295,385.0428,715,197.0428,715,197.0428,293" style="stroke: #000000; stroke-width: 1.5;"/><line style="stroke: #000000; stroke-width: 1.5;" x1="197.0428" x2="381.0428" y1="318.2295" y2="318.2295"/><text fill="#000000" font-family="sans-serif" font-size="14" font-weight="bold" lengthAdjust="spacingAndGlyphs" textLength="171" x="201.0428" y="311.1533">org.eclipse.jdt.core.dom</text><!--MD5=[a70b0d373322012744ecc119c63f921b]
cluster main--><polygon fill="#FFFFFF" filter="url(#fxib8hujmjcl)" points="222.0428,984,261.0428,984,268.0428,1009.2295,360.0428,1009.2295,360.0428,1071,222.0428,1071,222.0428,984" style="stroke: #000000; stroke-width: 1.5;"/><line style="stroke: #000000; stroke-width: 1.5;" x1="222.0428" x2="268.0428" y1="1009.2295" y2="1009.2295"/><text fill="#000000" font-family="sans-serif" font-size="14" font-weight="bold" lengthAdjust="spacingAndGlyphs" textLength="33" x="226.0428" y="1002.1533">main</text><!--MD5=[4042ab85c49b1e9af0a6db6955a12774]
cluster dataSet.stateNode--><polygon fill="#FFFFFF" filter="url(#fxib8hujmjcl)" points="215.0428,1095,350.0428,1095,357.0428,1120.2295,367.0428,1120.2295,367.0428,1316,215.0428,1316,215.0428,1095" style="stroke: #000000; stroke-width: 1.5;"/><line style="stroke: #000000; stroke-width: 1.5;" x1="215.0428" x2="357.0428" y1="1120.2295" y2="1120.2295"/><text fill="#000000" font-family="sans-serif" font-size="14" font-weight="bold" lengthAdjust="spacingAndGlyphs" textLength="129" x="219.0428" y="1113.1533">dataSet.stateNode</text><ellipse cx="290.9839" cy="928.0973" fill="#FEFECE" filter="url(#fxib8hujmjcl)" rx="36.9411" ry="16.5973" style="stroke: #A80036; stroke-width: 1.5;"/><text fill="#000000" font-family="sans-serif" font-size="14" lengthAdjust="spacingAndGlyphs" textLength="48" x="266.9839" y="934.2121">append</text><ellipse cx="291.691" cy="794.0973" fill="#FEFECE" filter="url(#fxib8hujmjcl)" rx="37.6482" ry="16.5973" style="stroke: #A80036; stroke-width: 1.5;"/><text fill="#000000" font-family="sans-serif" font-size="14" lengthAdjust="spacingAndGlyphs" textLength="49" x="267.191" y="800.2121">toString</text><ellipse cx="291.691" cy="861.0973" fill="#FEFECE" filter="url(#fxib8hujmjcl)" rx="37.6482" ry="16.5973" style="stroke: #A80036; stroke-width: 1.5;"/><text fill="#000000" font-family="sans-serif" font-size="14" lengthAdjust="spacingAndGlyphs" textLength="49" x="267.191" y="867.2121">toString</text><ellipse cx="291.6775" cy="127.0077" fill="#FEFECE" filter="url(#fxib8hujmjcl)" rx="18.6347" ry="15.5077" style="stroke: #A80036; stroke-width: 1.5;"/><text fill="#000000" font-family="sans-serif" font-size="14" lengthAdjust="spacingAndGlyphs" textLength="20" x="281.6775" y="133.1225">get</text><ellipse cx="291.0264" cy="61.0869" fill="#FEFECE" filter="url(#fxib8hujmjcl)" rx="19.9836" ry="16.5869" style="stroke: #A80036; stroke-width: 1.5;"/><text fill="#000000" font-family="sans-serif" font-size="14" lengthAdjust="spacingAndGlyphs" textLength="24" x="279.0264" y="67.2016">add</text><ellipse cx="291.62" cy="237.0973" fill="#FEFECE" filter="url(#fxib8hujmjcl)" rx="30.5772" ry="16.5973" style="stroke: #A80036; stroke-width: 1.5;"/><text fill="#000000" font-family="sans-serif" font-size="14" lengthAdjust="spacingAndGlyphs" textLength="39" x="272.12" y="243.2121">println</text><ellipse cx="291.1763" cy="683.0973" fill="#FEFECE" filter="url(#fxib8hujmjcl)" rx="46.1335" ry="16.5973" style="stroke: #A80036; stroke-width: 1.5;"/><text fill="#000000" font-family="sans-serif" font-size="14" lengthAdjust="spacingAndGlyphs" textLength="61" x="260.6763" y="689.2121">initializers</text><ellipse cx="291.691" cy="482.0973" fill="#FEFECE" filter="url(#fxib8hujmjcl)" rx="37.6482" ry="16.5973" style="stroke: #A80036; stroke-width: 1.5;"/><text fill="#000000" font-family="sans-serif" font-size="14" lengthAdjust="spacingAndGlyphs" textLength="49" x="267.191" y="488.2121">toString</text><ellipse cx="290.9753" cy="616.0973" fill="#FEFECE" filter="url(#fxib8hujmjcl)" rx="65.9325" ry="16.5973" style="stroke: #A80036; stroke-width: 1.5;"/><text fill="#000000" font-family="sans-serif" font-size="14" lengthAdjust="spacingAndGlyphs" textLength="89" x="246.4753" y="622.2121">getExpression</text><ellipse cx="290.8124" cy="549.0973" fill="#FEFECE" filter="url(#fxib8hujmjcl)" rx="39.7696" ry="16.5973" style="stroke: #A80036; stroke-width: 1.5;"/><text fill="#000000" font-family="sans-serif" font-size="14" lengthAdjust="spacingAndGlyphs" textLength="52" x="264.8124" y="555.2121">getBody</text><ellipse cx="290.9753" cy="348.0973" fill="#FEFECE" filter="url(#fxib8hujmjcl)" rx="65.9325" ry="16.5973" style="stroke: #A80036; stroke-width: 1.5;"/><text fill="#000000" font-family="sans-serif" font-size="14" lengthAdjust="spacingAndGlyphs" textLength="89" x="246.4753" y="354.2121">getExpression</text><ellipse cx="290.8332" cy="415.0973" fill="#FEFECE" filter="url(#fxib8hujmjcl)" rx="51.7904" ry="16.5973" style="stroke: #A80036; stroke-width: 1.5;"/><text fill="#000000" font-family="sans-serif" font-size="14" lengthAdjust="spacingAndGlyphs" textLength="69" x="256.3332" y="421.2121">statements</text><ellipse cx="291.5403" cy="1039.0973" fill="#FEFECE" filter="url(#fxib8hujmjcl)" rx="52.4975" ry="16.5973" style="stroke: #A80036; stroke-width: 1.5;"/><text fill="#000000" font-family="sans-serif" font-size="14" lengthAdjust="spacingAndGlyphs" textLength="70" x="256.5403" y="1045.2121">getStmtList</text><ellipse cx="291.6113" cy="1284.0973" fill="#FEFECE" filter="url(#fxib8hujmjcl)" rx="59.5685" ry="16.5973" style="stroke: #A80036; stroke-width: 1.5;"/><text fill="#000000" font-family="sans-serif" font-size="14" lengthAdjust="spacingAndGlyphs" textLength="80" x="251.6113" y="1290.2121">getCondition</text><ellipse cx="291.2266" cy="1150.0973" fill="#FEFECE" filter="url(#fxib8hujmjcl)" rx="41.1838" ry="16.5973" style="stroke: #A80036; stroke-width: 1.5;"/><text fill="#000000" font-family="sans-serif" font-size="14" lengthAdjust="spacingAndGlyphs" textLength="54" x="264.2266" y="1156.2121">getCode</text><ellipse cx="291.5195" cy="1217.0973" fill="#FEFECE" filter="url(#fxib8hujmjcl)" rx="40.4767" ry="16.5973" style="stroke: #A80036; stroke-width: 1.5;"/><text fill="#000000" font-family="sans-serif" font-size="14" lengthAdjust="spacingAndGlyphs" textLength="53" x="265.0195" y="1223.2121">getThen</text><!--MD5=[b5222b2fefdd7da1d53c43ec5b8b8f6a]
entity actor1558397083--><ellipse cx="117.0433" cy="650.5" fill="#FEFECE" filter="url(#fxib8hujmjcl)" rx="8" ry="8" style="stroke: #A80036; stroke-width: 1.5;"/><path d="M117.0433,658.5 L117.0433,685.5 M104.0433,666.5 L130.0433,666.5 M117.0433,685.5 L104.0433,700.5 M117.0433,685.5 L130.0433,700.5 " fill="none" filter="url(#fxib8hujmjcl)" style="stroke: #A80036; stroke-width: 1.5;"/><text fill="#000000" font-family="sans-serif" font-size="14" lengthAdjust="spacingAndGlyphs" textLength="88" x="73.0433" y="722.1533">ForStateNode</text><!--MD5=[dabe8b84aec47477cccd2bed1bb3673a]
entity actor2121560119--><ellipse cx="117.0433" cy="263.5" fill="#FEFECE" filter="url(#fxib8hujmjcl)" rx="8" ry="8" style="stroke: #A80036; stroke-width: 1.5;"/><path d="M117.0433,271.5 L117.0433,298.5 M104.0433,279.5 L130.0433,279.5 M117.0433,298.5 L104.0433,313.5 M117.0433,298.5 L130.0433,313.5 " fill="none" filter="url(#fxib8hujmjcl)" style="stroke: #A80036; stroke-width: 1.5;"/><text fill="#000000" font-family="sans-serif" font-size="14" lengthAdjust="spacingAndGlyphs" textLength="66" x="84.0433" y="335.1533">StateNode</text><!--MD5=[62000c5a4c9352e328e951dfabe43946]
entity actor1292769946--><ellipse cx="117.5433" cy="382.5" fill="#FEFECE" filter="url(#fxib8hujmjcl)" rx="8" ry="8" style="stroke: #A80036; stroke-width: 1.5;"/><path d="M117.5433,390.5 L117.5433,417.5 M104.5433,398.5 L130.5433,398.5 M117.5433,417.5 L104.5433,432.5 M117.5433,417.5 L130.5433,432.5 " fill="none" filter="url(#fxib8hujmjcl)" style="stroke: #A80036; stroke-width: 1.5;"/><text fill="#000000" font-family="sans-serif" font-size="14" lengthAdjust="spacingAndGlyphs" textLength="73" x="81.0433" y="454.1533">SwitchNode</text><!--MD5=[d8bad45e438bdcd0434529e857989e9e]
entity actor200452658--><ellipse cx="117.0433" cy="769.5" fill="#FEFECE" filter="url(#fxib8hujmjcl)" rx="8" ry="8" style="stroke: #A80036; stroke-width: 1.5;"/><path d="M117.0433,777.5 L117.0433,804.5 M104.0433,785.5 L130.0433,785.5 M117.0433,804.5 L104.0433,819.5 M117.0433,804.5 L130.0433,819.5 " fill="none" filter="url(#fxib8hujmjcl)" style="stroke: #A80036; stroke-width: 1.5;"/><text fill="#000000" font-family="sans-serif" font-size="14" lengthAdjust="spacingAndGlyphs" textLength="80" x="77.0433" y="841.1533">VarDecNode</text><!--MD5=[82ee352b1ccfa3641f9e5ce1d95be30a]
link actor1558397083 to UC1528099970--><path d="M150.4768,725.202 C154.3278,731.007 157.9688,737.028 161.0428,743 C179.2508,778.363 160.8438,799.95 189.0428,828 C206.3298,845.195 232.6338,853.433 254.1998,857.379 " fill="none" id="actor1558397083-UC1528099970" style="stroke: #A80036; stroke-width: 1.0;"/><!--MD5=[d044e7f8cfe0c68a403c76961772201e]
link actor1558397083 to UC30573521--><path d="M161.4008,711.297 C196.2388,733.521 243.1958,763.477 269.9828,780.565 " fill="none" id="actor1558397083-UC30573521" style="stroke: #A80036; stroke-width: 1.0;"/><!--MD5=[63594274caccb16afceb27c0eae1fa48]
link actor1558397083 to UC1296277943--><path d="M151.4778,725.169 C155.1158,730.932 158.4328,736.951 161.0428,743 C188.2648,806.068 143.7468,843.358 189.0428,895 C205.3658,913.61 232.2598,921.79 254.3348,925.354 " fill="none" id="actor1558397083-UC1296277943" style="stroke: #A80036; stroke-width: 1.0;"/><!--MD5=[89c37f3796dca219e845ef2fa8063c90]
link actor1558397083 to UC1713589007--><path d="M127.3758,640.618 C137.2578,598.756 151.9598,532.793 161.0428,475 C170.4098,415.41 159.5618,257.63 189.0428,205 C208.6548,169.99 251.1148,145.65 274.5968,134.29 " fill="none" id="actor1558397083-UC1713589007" style="stroke: #A80036; stroke-width: 1.0;"/><!--MD5=[6c666d5d8121fd68154793ad78fd1f76]
link actor1558397083 to UC908744222--><path d="M126.3988,640.858 C135.6098,598.899 149.8798,532.616 161.0428,475 C174.6928,404.556 151.9638,377.431 189.0428,316 C208.0258,284.55 244.5478,260.97 268.3458,248.09 " fill="none" id="actor1558397083-UC908744222" style="stroke: #A80036; stroke-width: 1.0;"/><!--MD5=[24b1dbdb9b51476e37d4f5e61f816ddc]
link actor1558397083 to UC2092080808--><path d="M139.0598,640.948 C151.3948,620.945 168.4508,598.149 189.0428,583 C208.1388,568.952 233.3908,560.475 253.9918,555.498 " fill="none" id="actor1558397083-UC2092080808" style="stroke: #A80036; stroke-width: 1.0;"/><!--MD5=[b47c8fd78cabecc040c9a90e0f31792d]
link actor1558397083 to UC1777030223--><path d="M161.2728,661.82 C170.3788,657.716 179.9618,653.583 189.0428,650 C208.8378,642.191 231.2298,634.595 249.9808,628.57 " fill="none" id="actor1558397083-UC1777030223" style="stroke: #A80036; stroke-width: 1.0;"/><!--MD5=[b8c4de0ebb4a3a84c4e18a481ed400e4]
link actor1558397083 to UC1559258941--><path d="M124.9878,640.983 C134.2038,603.337 152.9948,549.097 189.0428,516 C207.0558,499.462 233.3428,490.947 254.7188,486.574 " fill="none" id="actor1558397083-UC1559258941" style="stroke: #A80036; stroke-width: 1.0;"/><!--MD5=[dff27d565c6d8e7687a982289cf340da]
link actor1558397083 to UC801783477--><path d="M161.4008,683 C186.9758,683 219.0818,683 244.9448,683 " fill="none" id="actor1558397083-UC801783477" style="stroke: #A80036; stroke-width: 1.0;"/><!--MD5=[35f37ef9af3d5e7a3521002d2b996d66]
link actor1558397083 to UC11913474--><path d="M151.7928,725.038 C155.3778,730.823 158.5968,736.883 161.0428,743 C197.1618,833.288 140.7198,875.613 189.0428,960 C206.0728,989.739 239.1808,1012.149 263.0648,1025.368 " fill="none" id="actor1558397083-UC11913474" style="stroke: #A80036; stroke-width: 1.0;"/><!--MD5=[0b53a694d11af92ce8fd476e0f7ce8ba]
link actor1558397083 to UC1001114349--><path d="M152.3838,725.234 C155.8198,730.94 158.8398,736.929 161.0428,743 C194.5378,835.308 128.7868,1106.464 189.0428,1184 C203.6048,1202.737 228.9628,1210.996 250.7508,1214.566 " fill="none" id="actor1558397083-UC1001114349" style="stroke: #A80036; stroke-width: 1.0;"/><!--MD5=[a8eb9e713b8cee818b5e20664ac0ce47]
link actor1558397083 to UC1695161087--><path d="M152.2558,725.281 C155.7128,730.979 158.7748,736.953 161.0428,743 C212.4408,879.983 119.0953,942.496 189.0428,1071 C205.8558,1101.886 240.4098,1124.602 264.6218,1137.551 " fill="none" id="actor1558397083-UC1695161087" style="stroke: #A80036; stroke-width: 1.0;"/><!--MD5=[269ca756e3025323fa0565de48ad95af]
link actor1558397083 to UC731802107--><path d="M152.4328,725.216 C155.8598,730.925 158.8658,736.919 161.0428,743 C180.1038,796.22 154.5408,1206.22 189.0428,1251 C200.1758,1265.4486 217.7328,1273.671 235.1638,1278.3167 " fill="none" id="actor1558397083-UC731802107" style="stroke: #A80036; stroke-width: 1.0;"/><!--MD5=[cab060119dde56d2e903117d76227eca]
link actor1292769946 to UC1248201524--><path d="M152.5488,372.754 C155.8588,367.353 158.8048,361.71 161.0428,356 C182.4148,301.49 152.1258,139.45 189.0428,94 C208.9918,69.44 247.4268,62.95 270.9978,61.36 " fill="none" id="actor1292769946-UC1248201524" style="stroke: #A80036; stroke-width: 1.0;"/><!--MD5=[c49d17b93a3dc6ccbb6147abe0b9ac64]
link actor1292769946 to UC908744222--><path d="M148.6838,372.894 C152.8668,367.234 157.0768,361.489 161.0428,356 C173.7538,338.411 174.0738,331.71 189.0428,316 C214.6928,289.08 249.9658,263.86 271.5978,249.45 " fill="none" id="actor1292769946-UC908744222" style="stroke: #A80036; stroke-width: 1.0;"/><!--MD5=[e2557338c71890293d0dcaad2b412d31]
link actor1292769946 to UC622955085--><path d="M153.9438,415 C178.6838,415 211.6238,415 239.0148,415 " fill="none" id="actor1292769946-UC622955085" style="stroke: #A80036; stroke-width: 1.0;"/><!--MD5=[55361664802337320cf06e5365613448]
link actor1292769946 to UC1923590735--><path d="M153.7118,397.268 C164.9408,392.089 177.4038,386.592 189.0428,382 C208.8378,374.191 231.2298,366.595 249.9808,360.57 " fill="none" id="actor1292769946-UC1923590735" style="stroke: #A80036; stroke-width: 1.0;"/><!--MD5=[7508d0544af77d2c17e5d94a7a40c0cc]
link actor1292769946 to UC1559258941--><path d="M153.6418,433.394 C164.8688,438.734 177.3478,444.369 189.0428,449 C212.4048,458.251 239.4928,466.922 259.8798,473.052 " fill="none" id="actor1292769946-UC1559258941" style="stroke: #A80036; stroke-width: 1.0;"/><!--MD5=[a78da9099382deda7a54f82920898a37]
link actor1558397083 to actor2121560119--><path d="M91.0888,640.925 C57.112,580.152 6,465.005 43.0433,373 C50.7021,353.978 65.5557,337.02 79.9577,323.89 " fill="none" id="actor1558397083-to-actor2121560119" style="stroke: #A80036; stroke-width: 1.0;"/><polygon fill="#A80036" points="84.0015,320.29,74.6219,323.2939,80.2695,323.6175,79.9459,329.2651,84.0015,320.29" style="stroke: #A80036; stroke-width: 1.0;"/><!--MD5=[b7e6a83e602ea1668b394d5517728d62]
link actor1292769946 to actor2121560119--><path d="M117.0433,372.699 C117.0433,362.919 117.0433,353.139 117.0433,343.359 " fill="none" id="actor1292769946-to-actor2121560119" style="stroke: #A80036; stroke-width: 1.0;"/><polygon fill="#A80036" points="117.0433,338.244,113.0433,347.244,117.0433,343.244,121.0433,347.244,117.0433,338.244" style="stroke: #A80036; stroke-width: 1.0;"/><!--MD5=[d626137d9044cb7b21adb40cb5a089cc]
link actor200452658 to actor2121560119--><path d="M76.9944,771.839 C63.5592,759.308 50.1852,743.572 43.0433,726 C13.5077,653.328 13.7452,445.768 43.0433,373 C50.7021,353.978 65.5557,337.02 79.9577,323.89 " fill="none" id="actor200452658-to-actor2121560119" style="stroke: #A80036; stroke-width: 1.0;"/><polygon fill="#A80036" points="84.0015,320.29,74.6219,323.2939,80.2695,323.6175,79.9459,329.2651,84.0015,320.29" style="stroke: #A80036; stroke-width: 1.0;"/><!--MD5=[57a505a70947bc8c4cabab60f716c2fe]
@startuml
 left to right direction

actor ForStateNode as actor1558397083

	package java.lang {
		usecase append as UC1296277943
		usecase toString as UC30573521
		usecase toString as UC1528099970
	}
	actor1558397083 - - UC1528099970
	actor1558397083 - - UC30573521
	actor1558397083 - - UC1296277943
	package java.util {
		usecase get as UC1713589007
	}
	actor1558397083 - - UC1713589007
	package java.io {
		usecase println as UC908744222
	}
	actor1558397083 - - UC908744222
	package org.eclipse.jdt.core.dom {
		usecase initializers as UC801783477
		usecase toString as UC1559258941
		usecase getExpression as UC1777030223
		usecase getBody as UC2092080808
	}
	actor1558397083 - - UC2092080808
	actor1558397083 - - UC1777030223
	actor1558397083 - - UC1559258941
	actor1558397083 - - UC801783477
	package main {
		usecase getStmtList as UC11913474
	}
	actor1558397083 - - UC11913474
	package dataSet.stateNode {
		usecase getCondition as UC731802107
		usecase getCode as UC1695161087
		usecase getThen as UC1001114349
	}
	actor1558397083 - - UC1001114349
	actor1558397083 - - UC1695161087
	actor1558397083 - - UC731802107
actor StateNode as actor2121560119

actor SwitchNode as actor1292769946

	package java.util {
		usecase add as UC1248201524
	}
	actor1292769946 - - UC1248201524
	package java.io {
		usecase println as UC908744222
	}
	actor1292769946 - - UC908744222
	package org.eclipse.jdt.core.dom {
		usecase toString as UC1559258941
		usecase getExpression as UC1923590735
		usecase statements as UC622955085
	}
	actor1292769946 - - UC622955085
	actor1292769946 - - UC1923590735
	actor1292769946 - - UC1559258941
actor VarDecNode as actor200452658


actor1558397083->actor2121560119
actor1292769946->actor2121560119
actor200452658->actor2121560119
@enduml

PlantUML version 1.2020.19(Tue Oct 13 00:10:01 KST 2020)
(APACHE source distribution)
Java Runtime: Java(TM) SE Runtime Environment
JVM: Java HotSpot(TM) 64-Bit Server VM
Default Encoding: MS949
Language: ko
Country: KR
--></g></svg>