<?xml version="1.0" encoding="UTF-8" standalone="no"?><svg xmlns="http://www.w3.org/2000/svg" xmlns:xlink="http://www.w3.org/1999/xlink" contentScriptType="application/ecmascript" contentStyleType="text/css" height="2602px" preserveAspectRatio="none" style="width:340px;height:2602px;" version="1.1" viewBox="0 0 340 2602" width="340px" zoomAndPan="magnify"><defs><filter height="300%" id="fcchccp695fg4" width="300%" x="-1" y="-1"><feGaussianBlur result="blurOut" stdDeviation="2.0"/><feColorMatrix in="blurOut" result="blurOut2" type="matrix" values="0 0 0 0 0 0 0 0 0 0 0 0 0 0 0 0 0 0 .4 0"/><feOffset dx="4.0" dy="4.0" in="blurOut2" result="blurOut3"/><feBlend in="SourceGraphic" in2="blurOut3" mode="normal"/></filter></defs><g><!--MD5=[aa8f7b917213fcc1c2766e2d59b49067]
cluster java.lang--><polygon fill="#FFFFFF" filter="url(#fcchccp695fg4)" points="164,251,233,251,240,276.2295,294,276.2295,294,539,164,539,164,251" style="stroke: #000000; stroke-width: 1.5;"/><line style="stroke: #000000; stroke-width: 1.5;" x1="164" x2="240" y1="276.2295" y2="276.2295"/><text fill="#000000" font-family="sans-serif" font-size="14" font-weight="bold" lengthAdjust="spacingAndGlyphs" textLength="63" x="168" y="269.1533">java.lang</text><!--MD5=[7db3c59d38ae5b37b484eb2df9368145]
cluster java.util--><polygon fill="#FFFFFF" filter="url(#fcchccp695fg4)" points="164,6,225,6,232,31.2295,294,31.2295,294,227,164,227,164,6" style="stroke: #000000; stroke-width: 1.5;"/><line style="stroke: #000000; stroke-width: 1.5;" x1="164" x2="232" y1="31.2295" y2="31.2295"/><text fill="#000000" font-family="sans-serif" font-size="14" font-weight="bold" lengthAdjust="spacingAndGlyphs" textLength="55" x="168" y="24.1533">java.util</text><!--MD5=[0d852700fdad35b7061d461d6907a324]
cluster java.io--><polygon fill="#FFFFFF" filter="url(#fcchccp695fg4)" points="182,563,234,563,241,588.2295,276,588.2295,276,918,182,918,182,563" style="stroke: #000000; stroke-width: 1.5;"/><line style="stroke: #000000; stroke-width: 1.5;" x1="182" x2="241" y1="588.2295" y2="588.2295"/><text fill="#000000" font-family="sans-serif" font-size="14" font-weight="bold" lengthAdjust="spacingAndGlyphs" textLength="46" x="186" y="581.1533">java.io</text><!--MD5=[c66e735c89a839b0f40df60143f9640e]
cluster org.eclipse.jdt.core.dom--><polygon fill="#FFFFFF" filter="url(#fcchccp695fg4)" points="135,2508,312,2508,319,2533.2295,323,2533.2295,323,2595,135,2595,135,2508" style="stroke: #000000; stroke-width: 1.5;"/><line style="stroke: #000000; stroke-width: 1.5;" x1="135" x2="319" y1="2533.2295" y2="2533.2295"/><text fill="#000000" font-family="sans-serif" font-size="14" font-weight="bold" lengthAdjust="spacingAndGlyphs" textLength="171" x="139" y="2526.1533">org.eclipse.jdt.core.dom</text><!--MD5=[3933140a3572eb533f89b9e66b6e41f8]
cluster dataSet--><polygon fill="#FFFFFF" filter="url(#fcchccp695fg4)" points="136,942,195,942,202,967.2295,322,967.2295,322,1770,136,1770,136,942" style="stroke: #000000; stroke-width: 1.5;"/><line style="stroke: #000000; stroke-width: 1.5;" x1="136" x2="202" y1="967.2295" y2="967.2295"/><text fill="#000000" font-family="sans-serif" font-size="14" font-weight="bold" lengthAdjust="spacingAndGlyphs" textLength="53" x="140" y="960.1533">dataSet</text><!--MD5=[4042ab85c49b1e9af0a6db6955a12774]
cluster dataSet.stateNode--><polygon fill="#FFFFFF" filter="url(#fcchccp695fg4)" points="148,1794,283,1794,290,1819.2295,310,1819.2295,310,2484,148,2484,148,1794" style="stroke: #000000; stroke-width: 1.5;"/><line style="stroke: #000000; stroke-width: 1.5;" x1="148" x2="290" y1="1819.2295" y2="1819.2295"/><text fill="#000000" font-family="sans-serif" font-size="14" font-weight="bold" lengthAdjust="spacingAndGlyphs" textLength="129" x="152" y="1812.1533">dataSet.stateNode</text><ellipse cx="228.9411" cy="306.0973" fill="#FEFECE" filter="url(#fcchccp695fg4)" rx="36.9411" ry="16.5973" style="stroke: #A80036; stroke-width: 1.5;"/><text fill="#000000" font-family="sans-serif" font-size="14" lengthAdjust="spacingAndGlyphs" textLength="48" x="204.9411" y="312.2121">append</text><ellipse cx="229.6482" cy="373.0973" fill="#FEFECE" filter="url(#fcchccp695fg4)" rx="37.6482" ry="16.5973" style="stroke: #A80036; stroke-width: 1.5;"/><text fill="#000000" font-family="sans-serif" font-size="14" lengthAdjust="spacingAndGlyphs" textLength="49" x="205.1482" y="379.2121">toString</text><ellipse cx="229.5269" cy="507.0973" fill="#FEFECE" filter="url(#fcchccp695fg4)" rx="35.5269" ry="16.5973" style="stroke: #A80036; stroke-width: 1.5;"/><text fill="#000000" font-family="sans-serif" font-size="14" lengthAdjust="spacingAndGlyphs" textLength="46" x="206.5269" y="513.2121">waitFor</text><ellipse cx="228.9619" cy="440.0973" fill="#FEFECE" filter="url(#fcchccp695fg4)" rx="48.9619" ry="16.5973" style="stroke: #A80036; stroke-width: 1.5;"/><text fill="#000000" font-family="sans-serif" font-size="14" lengthAdjust="spacingAndGlyphs" textLength="65" x="196.4619" y="446.2121">hashCode</text><ellipse cx="228.9836" cy="195.0869" fill="#FEFECE" filter="url(#fcchccp695fg4)" rx="19.9836" ry="16.5869" style="stroke: #A80036; stroke-width: 1.5;"/><text fill="#000000" font-family="sans-serif" font-size="14" lengthAdjust="spacingAndGlyphs" textLength="24" x="216.9836" y="201.2016">add</text><ellipse cx="228.9619" cy="61.0973" fill="#FEFECE" filter="url(#fcchccp695fg4)" rx="48.9619" ry="16.5973" style="stroke: #A80036; stroke-width: 1.5;"/><text fill="#000000" font-family="sans-serif" font-size="14" lengthAdjust="spacingAndGlyphs" textLength="65" x="196.4619" y="67.2121">hashCode</text><ellipse cx="229.6482" cy="128.0973" fill="#FEFECE" filter="url(#fcchccp695fg4)" rx="37.6482" ry="16.5973" style="stroke: #A80036; stroke-width: 1.5;"/><text fill="#000000" font-family="sans-serif" font-size="14" lengthAdjust="spacingAndGlyphs" textLength="49" x="205.1482" y="134.2121">toString</text><ellipse cx="229.5772" cy="752.0973" fill="#FEFECE" filter="url(#fcchccp695fg4)" rx="30.5772" ry="16.5973" style="stroke: #A80036; stroke-width: 1.5;"/><text fill="#000000" font-family="sans-serif" font-size="14" lengthAdjust="spacingAndGlyphs" textLength="39" x="210.0772" y="758.2121">println</text><ellipse cx="228.799" cy="886.0973" fill="#FEFECE" filter="url(#fcchccp695fg4)" rx="22.799" ry="16.5973" style="stroke: #A80036; stroke-width: 1.5;"/><text fill="#000000" font-family="sans-serif" font-size="14" lengthAdjust="spacingAndGlyphs" textLength="28" x="214.799" y="892.2121">print</text><ellipse cx="229.5772" cy="819.0973" fill="#FEFECE" filter="url(#fcchccp695fg4)" rx="30.5772" ry="16.5973" style="stroke: #A80036; stroke-width: 1.5;"/><text fill="#000000" font-family="sans-serif" font-size="14" lengthAdjust="spacingAndGlyphs" textLength="39" x="210.0772" y="825.2121">println</text><ellipse cx="229.5061" cy="618.0973" fill="#FEFECE" filter="url(#fcchccp695fg4)" rx="23.5061" ry="16.5973" style="stroke: #A80036; stroke-width: 1.5;"/><text fill="#000000" font-family="sans-serif" font-size="14" lengthAdjust="spacingAndGlyphs" textLength="29" x="215.0061" y="624.2121">write</text><ellipse cx="229.3345" cy="685.0973" fill="#FEFECE" filter="url(#fcchccp695fg4)" rx="26.3345" ry="16.5973" style="stroke: #A80036; stroke-width: 1.5;"/><text fill="#000000" font-family="sans-serif" font-size="14" lengthAdjust="spacingAndGlyphs" textLength="33" x="212.8345" y="691.2121">close</text><ellipse cx="229.6482" cy="2563.0973" fill="#FEFECE" filter="url(#fcchccp695fg4)" rx="37.6482" ry="16.5973" style="stroke: #A80036; stroke-width: 1.5;"/><text fill="#000000" font-family="sans-serif" font-size="14" lengthAdjust="spacingAndGlyphs" textLength="49" x="205.1482" y="2569.2121">toString</text><ellipse cx="229.4257" cy="1402.1851" fill="#FEFECE" filter="url(#fcchccp695fg4)" rx="76.4257" ry="17.6851" style="stroke: #A80036; stroke-width: 1.5;"/><text fill="#000000" font-family="sans-serif" font-size="14" lengthAdjust="spacingAndGlyphs" textLength="111" x="173.9257" y="1408.2999">getPackageName</text><ellipse cx="229.598" cy="1470.0973" fill="#FEFECE" filter="url(#fcchccp695fg4)" rx="42.598" ry="16.5973" style="stroke: #A80036; stroke-width: 1.5;"/><text fill="#000000" font-family="sans-serif" font-size="14" lengthAdjust="spacingAndGlyphs" textLength="56" x="201.598" y="1476.2121">getName</text><ellipse cx="229.2254" cy="1537.0973" fill="#FEFECE" filter="url(#fcchccp695fg4)" rx="65.2254" ry="16.5973" style="stroke: #A80036; stroke-width: 1.5;"/><text fill="#000000" font-family="sans-serif" font-size="14" lengthAdjust="spacingAndGlyphs" textLength="88" x="185.2254" y="1543.2121">getTypeName</text><ellipse cx="228.7609" cy="1604.0973" fill="#FEFECE" filter="url(#fcchccp695fg4)" rx="68.7609" ry="16.5973" style="stroke: #A80036; stroke-width: 1.5;"/><text fill="#000000" font-family="sans-serif" font-size="14" lengthAdjust="spacingAndGlyphs" textLength="93" x="182.2609" y="1610.2121">getMemberList</text><ellipse cx="229.2254" cy="1671.0973" fill="#FEFECE" filter="url(#fcchccp695fg4)" rx="65.2254" ry="16.5973" style="stroke: #A80036; stroke-width: 1.5;"/><text fill="#000000" font-family="sans-serif" font-size="14" lengthAdjust="spacingAndGlyphs" textLength="88" x="185.2254" y="1677.2121">getTypeName</text><ellipse cx="229.2843" cy="1738.0973" fill="#FEFECE" filter="url(#fcchccp695fg4)" rx="31.2843" ry="16.5973" style="stroke: #A80036; stroke-width: 1.5;"/><text fill="#000000" font-family="sans-serif" font-size="14" lengthAdjust="spacingAndGlyphs" textLength="40" x="209.2843" y="1744.2121">getSig</text><ellipse cx="229.669" cy="1131.0973" fill="#FEFECE" filter="url(#fcchccp695fg4)" rx="49.669" ry="16.5973" style="stroke: #A80036; stroke-width: 1.5;"/><text fill="#000000" font-family="sans-serif" font-size="14" lengthAdjust="spacingAndGlyphs" textLength="66" x="196.669" y="1137.2121">getHasList</text><ellipse cx="229.2886" cy="1198.1577" fill="#FEFECE" filter="url(#fcchccp695fg4)" rx="71.2886" ry="16.6577" style="stroke: #A80036; stroke-width: 1.5;"/><text fill="#000000" font-family="sans-serif" font-size="14" lengthAdjust="spacingAndGlyphs" textLength="97" x="180.7886" y="1204.2725">getFunctionList</text><ellipse cx="229.4472" cy="1265.0973" fill="#FEFECE" filter="url(#fcchccp695fg4)" rx="57.4472" ry="16.5973" style="stroke: #A80036; stroke-width: 1.5;"/><text fill="#000000" font-family="sans-serif" font-size="14" lengthAdjust="spacingAndGlyphs" textLength="77" x="190.9472" y="1271.2121">getClassList</text><ellipse cx="229.4257" cy="1333.1851" fill="#FEFECE" filter="url(#fcchccp695fg4)" rx="76.4257" ry="17.6851" style="stroke: #A80036; stroke-width: 1.5;"/><text fill="#000000" font-family="sans-serif" font-size="14" lengthAdjust="spacingAndGlyphs" textLength="111" x="173.9257" y="1339.2999">separatePackage</text><ellipse cx="228.8112" cy="1064.0973" fill="#FEFECE" filter="url(#fcchccp695fg4)" rx="63.8112" ry="16.5973" style="stroke: #A80036; stroke-width: 1.5;"/><text fill="#000000" font-family="sans-serif" font-size="14" lengthAdjust="spacingAndGlyphs" textLength="86" x="185.8112" y="1070.2121">getHeadNode</text><ellipse cx="229.5685" cy="997.0973" fill="#FEFECE" filter="url(#fcchccp695fg4)" rx="59.5685" ry="16.5973" style="stroke: #A80036; stroke-width: 1.5;"/><text fill="#000000" font-family="sans-serif" font-size="14" lengthAdjust="spacingAndGlyphs" textLength="80" x="189.5685" y="1003.2121">getImageList</text><ellipse cx="229.1838" cy="2117.0973" fill="#FEFECE" filter="url(#fcchccp695fg4)" rx="41.1838" ry="16.5973" style="stroke: #A80036; stroke-width: 1.5;"/><text fill="#000000" font-family="sans-serif" font-size="14" lengthAdjust="spacingAndGlyphs" textLength="54" x="202.1838" y="2123.2121">getCode</text><ellipse cx="229.4767" cy="1983.0973" fill="#FEFECE" filter="url(#fcchccp695fg4)" rx="40.4767" ry="16.5973" style="stroke: #A80036; stroke-width: 1.5;"/><text fill="#000000" font-family="sans-serif" font-size="14" lengthAdjust="spacingAndGlyphs" textLength="53" x="202.9767" y="1989.2121">getThen</text><ellipse cx="229.5685" cy="1849.0973" fill="#FEFECE" filter="url(#fcchccp695fg4)" rx="59.5685" ry="16.5973" style="stroke: #A80036; stroke-width: 1.5;"/><text fill="#000000" font-family="sans-serif" font-size="14" lengthAdjust="spacingAndGlyphs" textLength="80" x="189.5685" y="1855.2121">getCondition</text><ellipse cx="229.234" cy="2050.0973" fill="#FEFECE" filter="url(#fcchccp695fg4)" rx="36.234" ry="16.5973" style="stroke: #A80036; stroke-width: 1.5;"/><text fill="#000000" font-family="sans-serif" font-size="14" lengthAdjust="spacingAndGlyphs" textLength="47" x="205.734" y="2056.2121">getElse</text><ellipse cx="228.8406" cy="2385.0973" fill="#FEFECE" filter="url(#fcchccp695fg4)" rx="46.8406" ry="16.5973" style="stroke: #A80036; stroke-width: 1.5;"/><text fill="#000000" font-family="sans-serif" font-size="14" lengthAdjust="spacingAndGlyphs" textLength="62" x="197.8406" y="2391.2121">getTarget</text><ellipse cx="228.7904" cy="2452.0973" fill="#FEFECE" filter="url(#fcchccp695fg4)" rx="51.7904" ry="16.5973" style="stroke: #A80036; stroke-width: 1.5;"/><text fill="#000000" font-family="sans-serif" font-size="14" lengthAdjust="spacingAndGlyphs" textLength="69" x="194.2904" y="2458.2121">getForLine</text><ellipse cx="229.5183" cy="2184.0973" fill="#FEFECE" filter="url(#fcchccp695fg4)" rx="64.5183" ry="16.5973" style="stroke: #A80036; stroke-width: 1.5;"/><text fill="#000000" font-family="sans-serif" font-size="14" lengthAdjust="spacingAndGlyphs" textLength="87" x="186.0183" y="2190.2121">getCondNode</text><ellipse cx="229.3762" cy="2251.0973" fill="#FEFECE" filter="url(#fcchccp695fg4)" rx="50.3762" ry="16.5973" style="stroke: #A80036; stroke-width: 1.5;"/><text fill="#000000" font-family="sans-serif" font-size="14" lengthAdjust="spacingAndGlyphs" textLength="67" x="195.8762" y="2257.2121">getLastFin</text><ellipse cx="229.1838" cy="2318.0973" fill="#FEFECE" filter="url(#fcchccp695fg4)" rx="41.1838" ry="16.5973" style="stroke: #A80036; stroke-width: 1.5;"/><text fill="#000000" font-family="sans-serif" font-size="14" lengthAdjust="spacingAndGlyphs" textLength="54" x="202.1838" y="2324.2121">getCond</text><ellipse cx="229.1127" cy="1916.0973" fill="#FEFECE" filter="url(#fcchccp695fg4)" rx="34.1127" ry="16.5973" style="stroke: #A80036; stroke-width: 1.5;"/><text fill="#000000" font-family="sans-serif" font-size="14" lengthAdjust="spacingAndGlyphs" textLength="44" x="207.1127" y="1922.2121">getKey</text><!--MD5=[08bb009ca546a11a56caf690d9b73368]
entity actor293749050--><ellipse cx="49.5" cy="1369.5" fill="#FEFECE" filter="url(#fcchccp695fg4)" rx="8" ry="8" style="stroke: #A80036; stroke-width: 1.5;"/><path d="M49.5,1377.5 L49.5,1404.5 M36.5,1385.5 L62.5,1385.5 M49.5,1404.5 L36.5,1419.5 M49.5,1404.5 L62.5,1419.5 " fill="none" filter="url(#fcchccp695fg4)" style="stroke: #A80036; stroke-width: 1.5;"/><text fill="#000000" font-family="sans-serif" font-size="14" lengthAdjust="spacingAndGlyphs" textLength="59" x="20" y="1441.1533">ForMidEx</text><!--MD5=[5dfb352754b98e0e7f4bc0d703babf71]
entity actor1518712038--><ellipse cx="49" cy="347.5" fill="#FEFECE" filter="url(#fcchccp695fg4)" rx="8" ry="8" style="stroke: #A80036; stroke-width: 1.5;"/><path d="M49,355.5 L49,382.5 M36,363.5 L62,363.5 M49,382.5 L36,397.5 M49,382.5 L62,397.5 " fill="none" filter="url(#fcchccp695fg4)" style="stroke: #A80036; stroke-width: 1.5;"/><text fill="#000000" font-family="sans-serif" font-size="14" lengthAdjust="spacingAndGlyphs" textLength="58" x="20" y="419.1533">ForQuiz2</text><!--MD5=[4d0e2e579c38777c169e14d0813f3905]
entity actor731573979--><ellipse cx="49" cy="466.5" fill="#FEFECE" filter="url(#fcchccp695fg4)" rx="8" ry="8" style="stroke: #A80036; stroke-width: 1.5;"/><path d="M49,474.5 L49,501.5 M36,482.5 L62,482.5 M49,501.5 L36,516.5 M49,501.5 L62,516.5 " fill="none" filter="url(#fcchccp695fg4)" style="stroke: #A80036; stroke-width: 1.5;"/><text fill="#000000" font-family="sans-serif" font-size="14" lengthAdjust="spacingAndGlyphs" textLength="58" x="20" y="538.1533">ForQuiz3</text><!--MD5=[866cd96222768cf7ec48d8d4b5da0ae9]
entity actor104105431--><ellipse cx="49" cy="704.5" fill="#FEFECE" filter="url(#fcchccp695fg4)" rx="8" ry="8" style="stroke: #A80036; stroke-width: 1.5;"/><path d="M49,712.5 L49,739.5 M36,720.5 L62,720.5 M49,739.5 L36,754.5 M49,739.5 L62,754.5 " fill="none" filter="url(#fcchccp695fg4)" style="stroke: #A80036; stroke-width: 1.5;"/><text fill="#000000" font-family="sans-serif" font-size="14" lengthAdjust="spacingAndGlyphs" textLength="58" x="20" y="776.1533">ForQuiz4</text><!--MD5=[340c9ac5a2865eef8fdf5b9b2fd83d0a]
entity actor93981118--><ellipse cx="49" cy="585.5" fill="#FEFECE" filter="url(#fcchccp695fg4)" rx="8" ry="8" style="stroke: #A80036; stroke-width: 1.5;"/><path d="M49,593.5 L49,620.5 M36,601.5 L62,601.5 M49,620.5 L36,635.5 M49,620.5 L62,635.5 " fill="none" filter="url(#fcchccp695fg4)" style="stroke: #A80036; stroke-width: 1.5;"/><text fill="#000000" font-family="sans-serif" font-size="14" lengthAdjust="spacingAndGlyphs" textLength="86" x="6" y="657.1533">NodeClassDg</text><!--MD5=[b4e3939b04e29df6b96724ba609dfc26]
link actor293749050 to UC444096469--><path d="M51.8968,1359.95 C64.3073,1180.93 112.993,490.65 127,473 C140.074,456.53 161.48,448.17 181.315,443.97 " fill="none" id="actor293749050-UC444096469" style="stroke: #A80036; stroke-width: 1.0;"/><!--MD5=[b661d854dcef78cba70610776dbc409f]
link actor293749050 to UC426792528--><path d="M52.0938,1359.89 C64.1338,1197.62 108.126,620.26 127,586 C144.293,554.61 179.813,531.6 204.022,518.75 " fill="none" id="actor293749050-UC426792528" style="stroke: #A80036; stroke-width: 1.0;"/><!--MD5=[0e4bd982d592d96b784647e694eb6fff]
link actor293749050 to UC1528099970--><path d="M51.9766,1359.97 C65.3407,1171.79 119.475,415.54 127,406 C142.334,386.57 169.266,378.42 191.606,375.08 " fill="none" id="actor293749050-UC1528099970" style="stroke: #A80036; stroke-width: 1.0;"/><!--MD5=[cc6e7ea0b77e362e6b0589806070d7d0]
link actor293749050 to UC1296277943--><path d="M52.0188,1359.78 C66.1298,1162.58 124.989,341.56 127,339 C142.401,319.38 169.625,311.26 192.076,307.97 " fill="none" id="actor293749050-UC1296277943" style="stroke: #A80036; stroke-width: 1.0;"/><!--MD5=[e337ab505b63d57c7f899371d64b2402]
link actor293749050 to UC1248201524--><path d="M52.054,1359.76 C59.1757,1261.09 77.3878,1007.76 92,796 C96.0017,738.01 99.6747,325.31 127,274 C145.636,239.01 187.262,214.64 211.179,202.93 " fill="none" id="actor293749050-UC1248201524" style="stroke: #A80036; stroke-width: 1.0;"/><!--MD5=[c2711703e4bd71663eb7c0233c6b0a19]
link actor293749050 to UC1805031342--><path d="M51.1774,1359.8 C58.8262,1218.47 86.2255,767.84 127,718 C145.268,695.67 178.807,688.28 202.428,685.93 " fill="none" id="actor293749050-UC1805031342" style="stroke: #A80036; stroke-width: 1.0;"/><!--MD5=[74f3732055504ac4ffe47c0a5779df8e]
link actor293749050 to UC266906347--><path d="M50.7182,1359.91 C57.2048,1209.76 82.1434,706.39 127,651 C145.858,627.71 181.34,620.66 205.077,618.64 " fill="none" id="actor293749050-UC266906347" style="stroke: #A80036; stroke-width: 1.0;"/><!--MD5=[58a787ba5993ad77b0c06e2804d3ed45]
link actor293749050 to UC1974284481--><path d="M52.4198,1359.73 C62.6488,1237.67 94.3282,890.84 127,852 C144.493,831.21 175.209,823.4 198.376,820.52 " fill="none" id="actor293749050-UC1974284481" style="stroke: #A80036; stroke-width: 1.0;"/><!--MD5=[63cc25e4bf607a91ddb096bbe2202213]
link actor293749050 to UC770921565--><path d="M52.6676,1359.69 C61.6219,1263.45 86.8496,1031.35 127,965 C146.946,932.04 186.134,907.71 209.704,895.29 " fill="none" id="actor293749050-UC770921565" style="stroke: #A80036; stroke-width: 1.0;"/><!--MD5=[5073e7aea3499396654aa115aef7c4d1]
link actor293749050 to UC908744222--><path d="M51.7269,1359.84 C60.6114,1227.94 90.2789,829.33 127,785 C144.335,764.07 175.074,756.28 198.289,753.45 " fill="none" id="actor293749050-UC908744222" style="stroke: #A80036; stroke-width: 1.0;"/><!--MD5=[4137f9922834df6f9e8ede4cd697753a]
link actor293749050 to UC1559258941--><path d="M50.0167,1444.13 C54.8286,1632.353 77.1896,2391.036 127,2484 C143.82,2515.3916 179.093,2538.2638 203.41,2551.0897 " fill="none" id="actor293749050-UC1559258941" style="stroke: #A80036; stroke-width: 1.0;"/><!--MD5=[7146a36c3699fbe5d8a0542ce8d09021]
link actor293749050 to UC1356614113--><path d="M54.7057,1359.77 C65.5688,1285.31 91.3572,1134.94 127,1097 C138.978,1084.25 155.912,1076.41 172.548,1071.6 " fill="none" id="actor293749050-UC1356614113" style="stroke: #A80036; stroke-width: 1.0;"/><!--MD5=[723e17358be6ba176b23af02d057a274]
link actor293749050 to UC1152029154--><path d="M78.7052,1387.83 C93.1377,1381.16 110.821,1373.31 127,1367 C145.521,1359.78 166.286,1352.68 184.221,1346.85 " fill="none" id="actor293749050-UC1152029154" style="stroke: #A80036; stroke-width: 1.0;"/><!--MD5=[c8084c6ede7d646db311f1723cbf5f5c]
link actor293749050 to UC1138992016--><path d="M72.1556,1359.76 C85.6728,1338.57 104.4998,1314.07 127,1298 C142.98,1286.59 163.112,1278.98 181.26,1273.97 " fill="none" id="actor293749050-UC1138992016" style="stroke: #A80036; stroke-width: 1.0;"/><!--MD5=[49839baeb677bc4340e6fc70ec2f055e]
link actor293749050 to UC133579455--><path d="M57.9115,1359.98 C68.2131,1321.32 88.8745,1264.97 127,1231 C139.437,1219.92 155.644,1212.55 171.466,1207.66 " fill="none" id="actor293749050-UC133579455" style="stroke: #A80036; stroke-width: 1.0;"/><!--MD5=[ee655a78712af14ff899020456e9fc94]
link actor293749050 to UC150180388--><path d="M57.9832,1359.84 C71.6734,1299.25 99.1218,1191.77 127,1164 C141.768,1149.29 163.137,1141.13 182.505,1136.61 " fill="none" id="actor293749050-UC150180388" style="stroke: #A80036; stroke-width: 1.0;"/><!--MD5=[2ffadc767f7144362bb0ee30f83c72c2]
link actor293749050 to UC1785570426--><path d="M54.8376,1444.08 C65.8677,1517.86 91.854,1666.341 127,1704 C145.212,1723.514 174.905,1731.836 197.569,1735.381 " fill="none" id="actor293749050-UC1785570426" style="stroke: #A80036; stroke-width: 1.0;"/><!--MD5=[526f75d91236cc05905f62c9998cd8c2]
link actor293749050 to UC1905699057--><path d="M51.8065,1444.4 C57.5013,1496.59 74.7513,1584.68 127,1637 C139.531,1649.547 156.808,1657.464 173.583,1662.459 " fill="none" id="actor293749050-UC1905699057" style="stroke: #A80036; stroke-width: 1.0;"/><!--MD5=[6e358a5c983eb80fb37f937bfaafdde6]
link actor293749050 to UC181451598--><path d="M58.4827,1444.31 C69.0706,1482.22 89.8228,1536.8 127,1570 C140.018,1581.63 157.133,1589.29 173.616,1594.35 " fill="none" id="actor293749050-UC181451598" style="stroke: #A80036; stroke-width: 1.0;"/><!--MD5=[73cbee210b11fb36060dccf4bb08edfc]
link actor293749050 to UC1430710100--><path d="M73.2982,1444.2 C86.8298,1464.45 105.3232,1487.61 127,1503 C142.372,1513.92 161.491,1521.51 179.008,1526.71 " fill="none" id="actor293749050-UC1430710100" style="stroke: #A80036; stroke-width: 1.0;"/><!--MD5=[feb45e0fdbd53b9c03b03c4cab480835]
link actor293749050 to UC171063899--><path d="M78.7433,1415.71 C93.1846,1422.17 110.864,1429.81 127,1436 C149.655,1444.69 175.604,1453.33 195.66,1459.72 " fill="none" id="actor293749050-UC171063899" style="stroke: #A80036; stroke-width: 1.0;"/><!--MD5=[f42e055f1b929f16ae1245ad0a7d802e]
link actor293749050 to UC1086811994--><path d="M78.7233,1402 C98.7939,1402 126.266,1402 152.236,1402 " fill="none" id="actor293749050-UC1086811994" style="stroke: #A80036; stroke-width: 1.0;"/><!--MD5=[24aa517c975b4efae0f7f26d05e00529]
link actor293749050 to UC1698322791--><path d="M50.0256,1444.12 C54.4445,1610.83 74.0894,2218.625 127,2285 C141.676,2303.411 166.754,2311.684 188.37,2315.343 " fill="none" id="actor293749050-UC1698322791" style="stroke: #A80036; stroke-width: 1.0;"/><!--MD5=[1adaa4ff1adaf39f865b70946fbdc075]
link actor293749050 to UC1978471002--><path d="M50.3504,1444.13 C55.7896,1602.64 78.1856,2157.214 127,2218 C139.877,2234.036 160.642,2242.376 180.086,2246.677 " fill="none" id="actor293749050-UC1978471002" style="stroke: #A80036; stroke-width: 1.0;"/><!--MD5=[74adb8bd012ae0e25b78b11b957a632f]
link actor293749050 to UC298295476--><path d="M50.737,1444.24 C57.2668,1594.31 82.2797,2095.792 127,2151 C137.836,2164.378 154.159,2172.396 170.588,2177.182 " fill="none" id="actor293749050-UC298295476" style="stroke: #A80036; stroke-width: 1.0;"/><!--MD5=[5138e2b9575a145b10e519bf862221b3]
link actor293749050 to UC1238292935--><path d="M49.5045,1444.17 C52.048,1626.502 65.8757,2341.405 127,2419 C139.496,2434.863 159.722,2443.208 178.881,2447.557 " fill="none" id="actor293749050-UC1238292935" style="stroke: #A80036; stroke-width: 1.0;"/><!--MD5=[8419d1730b3ebeb42de9c43780ec416a]
link actor293749050 to UC743936514--><path d="M49.7443,1444.01 C53.195,1618.463 69.9725,2280.005 127,2352 C140.463,2368.997 162.797,2377.358 183.139,2381.423 " fill="none" id="actor293749050-UC743936514" style="stroke: #A80036; stroke-width: 1.0;"/><!--MD5=[fb32e38cd69d98c3bc39ca3ca83bcf0c]
link actor293749050 to UC431996456--><path d="M51.7885,1444.41 C60.801,1576.09 90.6793,1971.786 127,2016 C143.114,2035.616 170.894,2043.986 193.397,2047.522 " fill="none" id="actor293749050-UC431996456" style="stroke: #A80036; stroke-width: 1.0;"/><!--MD5=[af3c75f84b92077e143cc16d1690c6f4]
link actor293749050 to UC731802107--><path d="M54.2401,1444.23 C65.3334,1528.87 92.9851,1715.785 127,1770 C145.094,1798.839 177.66,1821.283 201.134,1834.758 " fill="none" id="actor293749050-UC731802107" style="stroke: #A80036; stroke-width: 1.0;"/><!--MD5=[61823dda62a0d8babf9600d09b75b24f]
link actor293749050 to UC1001114349--><path d="M52.4512,1444.02 C62.7665,1565.38 94.6594,1910.239 127,1949 C142.247,1967.274 167.608,1975.779 189.226,1979.713 " fill="none" id="actor293749050-UC1001114349" style="stroke: #A80036; stroke-width: 1.0;"/><!--MD5=[1b4e36237ea1c8dcf1d007e764d2bcb7]
link actor293749050 to UC1695161087--><path d="M51.2062,1444 C58.9477,1584.67 86.6097,2033.21 127,2083 C141.935,2101.41 167.154,2109.922 188.779,2113.825 " fill="none" id="actor293749050-UC1695161087" style="stroke: #A80036; stroke-width: 1.0;"/><!--MD5=[4e9a98da3f1651d90ea22806865cdcf1]
link actor1518712038 to UC1528099970--><path d="M78.3207,378.86 C109.203,377.66 157.926,375.76 191.566,374.46 " fill="none" id="actor1518712038-UC1528099970" style="stroke: #A80036; stroke-width: 1.0;"/><!--MD5=[844835990fa80712a8907b0bfb761386]
link actor1518712038 to UC444096469--><path d="M78.3207,389.77 C110.099,400.37 160.771,417.26 194.456,428.49 " fill="none" id="actor1518712038-UC444096469" style="stroke: #A80036; stroke-width: 1.0;"/><!--MD5=[77899e610d359d4baa0dbd2e9b3bb159]
link actor1518712038 to UC1296277943--><path d="M78.0564,363.21 C92.4898,355.26 110.362,346 127,339 C150.158,329.25 177.257,320.61 197.7,314.61 " fill="none" id="actor1518712038-UC1296277943" style="stroke: #A80036; stroke-width: 1.0;"/><!--MD5=[cedac53d9000b759be3a0f7b2b4e2b74]
link actor1518712038 to UC426792528--><path d="M78.0782,418.82 C95.1218,440.7 115.5,465.18 127,473 C147.836,487.17 175.062,495.85 196.144,500.89 " fill="none" id="actor1518712038-UC426792528" style="stroke: #A80036; stroke-width: 1.0;"/><!--MD5=[d483dabfb4099197f1a3da39a879d05d]
link actor1518712038 to UC1248201524--><path d="M75.9698,337.88 C89.976,317.53 108.092,293.38 127,274 C154.53,245.78 192.417,219.03 213.408,205.06 " fill="none" id="actor1518712038-UC1248201524" style="stroke: #A80036; stroke-width: 1.0;"/><!--MD5=[88781b944af15b2c494c38413823bda2]
link actor1518712038 to UC1795804759--><path d="M52.9488,337.78 C59.7491,288.74 78.0686,208.52 127,161 C144.491,144.01 170.79,135.77 192.303,131.77 " fill="none" id="actor1518712038-UC1795804759" style="stroke: #A80036; stroke-width: 1.0;"/><!--MD5=[972e8c796b6b1b73eb7dc902875825d6]
link actor1518712038 to UC1986751746--><path d="M55.47,337.87 C67.1193,267.2 93.5541,129.04 127,94 C141.456,78.85 162.905,70.65 182.409,66.2 " fill="none" id="actor1518712038-UC1986751746" style="stroke: #A80036; stroke-width: 1.0;"/><!--MD5=[bb68a377e596874ba8ed1934e80ebcdc]
link actor1518712038 to UC1805031342--><path d="M78.024,414.26 C83.3922,422 88.4249,430.47 92,439 C128.899,527.08 65.0175,578.35 127,651 C145.658,672.87 178.779,680.73 202.211,683.52 " fill="none" id="actor1518712038-UC1805031342" style="stroke: #A80036; stroke-width: 1.0;"/><!--MD5=[eccca44778aaeedbe548916cfb270718]
link actor1518712038 to UC266906347--><path d="M78.0306,416.38 C83.0841,423.63 87.9952,431.37 92,439 C113.879,480.7 99.4782,500.79 127,539 C149.386,570.08 187.376,594.89 210.136,607.93 " fill="none" id="actor1518712038-UC266906347" style="stroke: #A80036; stroke-width: 1.0;"/><!--MD5=[d5cb4a02d93e75a49a0ff1e0c143fe54]
link actor1518712038 to UC908744222--><path d="M78.0588,413.84 C83.4938,421.67 88.5445,430.28 92,439 C138.041,555.18 47.7479,621.37 127,718 C144.283,739.07 175.028,747.17 198.26,750.23 " fill="none" id="actor1518712038-UC908744222" style="stroke: #A80036; stroke-width: 1.0;"/><!--MD5=[3043053822f2549263ecc7b5ad4480e2]
link actor1518712038 to UC1356614113--><path d="M78.056,413.04 C83.6356,421.05 88.7469,429.93 92,439 C136.43,562.83 46.9509,925.59 127,1030 C137.676,1043.92 154.264,1052.21 170.983,1057.11 " fill="none" id="actor1518712038-UC1356614113" style="stroke: #A80036; stroke-width: 1.0;"/><!--MD5=[78111bff46a558ddafeb855773fca630]
link actor1518712038 to UC1548698416--><path d="M78.1836,413.39 C83.6827,421.32 88.7281,430.07 92,439 C128.734,539.21 76.5483,823.95 127,918 C142.988,947.8 175.603,969.93 199.667,983.07 " fill="none" id="actor1518712038-UC1548698416" style="stroke: #A80036; stroke-width: 1.0;"/><!--MD5=[dbadb6786df0e5c949b09ebf7d479439]
link actor731573979 to UC1528099970--><path d="M78.054,460.15 C95.0883,438.25 115.466,413.77 127,406 C147.22,392.38 173.456,384.05 194.255,379.18 " fill="none" id="actor731573979-UC1528099970" style="stroke: #A80036; stroke-width: 1.0;"/><!--MD5=[4ac1d03d3644312f370c310e2ff78de3]
link actor731573979 to UC444096469--><path d="M78.2409,489.18 C92.8729,484.29 110.862,478.3 127,473 C149.28,465.68 174.338,457.57 194.041,451.23 " fill="none" id="actor731573979-UC444096469" style="stroke: #A80036; stroke-width: 1.0;"/><!--MD5=[33f7935dcd8a8b601c8e6ce5c2ac8c68]
link actor731573979 to UC1296277943--><path d="M78.0085,461.96 C83.064,454.59 87.9816,446.73 92,439 C113.713,397.22 93.3103,371.9 127,339 C144.577,321.84 171.147,313.6 192.762,309.65 " fill="none" id="actor731573979-UC1296277943" style="stroke: #A80036; stroke-width: 1.0;"/><!--MD5=[221842de1e6d21f27994893b98b6eeb6]
link actor731573979 to UC426792528--><path d="M78.3207,500.3 C109.8,501.7 159.819,503.93 193.502,505.42 " fill="none" id="actor731573979-UC426792528" style="stroke: #A80036; stroke-width: 1.0;"/><!--MD5=[3c71b311bdcef433d1b9cbdfbe235435]
link actor731573979 to UC1248201524--><path d="M78.1589,463.33 C83.385,455.65 88.3278,447.33 92,439 C122.254,370.41 87.1537,337.5 127,274 C148.073,240.42 188.766,215.51 211.875,203.33 " fill="none" id="actor731573979-UC1248201524" style="stroke: #A80036; stroke-width: 1.0;"/><!--MD5=[8c0de6d2531271d18ac9c5310634a206]
link actor731573979 to UC1795804759--><path d="M78.051,464.53 C83.4865,456.57 88.5394,447.83 92,439 C137.442,323.06 47.581,256.92 127,161 C142.727,142 169.499,133.83 191.669,130.37 " fill="none" id="actor731573979-UC1795804759" style="stroke: #A80036; stroke-width: 1.0;"/><!--MD5=[5c9104622043b378f0f9b256a40204b5]
link actor731573979 to UC1805031342--><path d="M78.1108,535.77 C83.0995,542.92 87.9669,550.53 92,558 C112.974,596.87 95.181,620.37 127,651 C147.576,670.81 179.991,679.08 202.744,682.54 " fill="none" id="actor731573979-UC1805031342" style="stroke: #A80036; stroke-width: 1.0;"/><!--MD5=[47cc7cb690cb96ca35499d8b4af382bb]
link actor731573979 to UC266906347--><path d="M78.3207,518.38 C116.176,543.41 180.84,586.16 211.667,606.54 " fill="none" id="actor731573979-UC266906347" style="stroke: #A80036; stroke-width: 1.0;"/><!--MD5=[ee15333682d862b083133f47dbfaeb33]
link actor731573979 to UC908744222--><path d="M78.1299,534.04 C83.3583,541.6 88.3093,549.79 92,558 C121.853,624.39 78.3375,663.86 127,718 C145.219,738.27 175.833,746.48 198.778,749.79 " fill="none" id="actor731573979-UC908744222" style="stroke: #A80036; stroke-width: 1.0;"/><!--MD5=[a860e4c4ffd5c8aa4128743cda831a94]
link actor731573979 to UC1356614113--><path d="M78.1764,532.39 C83.6759,540.32 88.7233,549.08 92,558 C128.254,656.73 62.3871,947.01 127,1030 C137.779,1043.84 154.395,1052.11 171.107,1057.02 " fill="none" id="actor731573979-UC1356614113" style="stroke: #A80036; stroke-width: 1.0;"/><!--MD5=[0d546d7683462d37d6c5b9ac2d42e69a]
link actor731573979 to UC1548698416--><path d="M78.0235,532.45 C83.5317,540.37 88.6214,549.11 92,558 C149.135,708.26 49.3166,777.26 127,918 C143.344,947.61 175.895,969.78 199.847,982.98 " fill="none" id="actor731573979-UC1548698416" style="stroke: #A80036; stroke-width: 1.0;"/><!--MD5=[c12856beb609fdf931d64747b1a74d1b]
link actor104105431 to UC1528099970--><path d="M78.0296,702.52 C83.4664,694.56 88.5253,685.82 92,677 C136.497,564 49.3996,499.42 127,406 C142.758,387.03 169.528,378.86 191.69,375.39 " fill="none" id="actor104105431-UC1528099970" style="stroke: #A80036; stroke-width: 1.0;"/><!--MD5=[2c8402cdc7269a3a6ca66615e9136c7d]
link actor104105431 to UC444096469--><path d="M78.1948,701.76 C83.4839,693.98 88.4419,685.51 92,677 C127.473,592.12 66.7649,542.53 127,473 C140.771,457.1 162.259,448.81 181.967,444.51 " fill="none" id="actor104105431-UC444096469" style="stroke: #A80036; stroke-width: 1.0;"/><!--MD5=[1dade27df1735e0f031d5009439f2474]
link actor104105431 to UC1296277943--><path d="M78.199,702.59 C83.6253,694.62 88.637,685.87 92,677 C118.778,606.39 79.4865,397.69 127,339 C142.693,319.62 169.904,311.48 192.275,308.13 " fill="none" id="actor104105431-UC1296277943" style="stroke: #A80036; stroke-width: 1.0;"/><!--MD5=[26560606e1b1a28253f8d4c5a68293ef]
link actor104105431 to UC426792528--><path d="M78.0423,699.54 C83.0376,692.27 87.925,684.56 92,677 C112.565,638.86 101.1398,620.77 127,586 C148.521,557.06 183.316,533.28 206.177,519.61 " fill="none" id="actor104105431-UC426792528" style="stroke: #A80036; stroke-width: 1.0;"/><!--MD5=[94fa7cea26fdda33545223a2713f94a5]
link actor104105431 to UC1248201524--><path d="M78.0905,702.95 C83.5949,694.9 88.666,686.01 92,677 C154.361,508.38 40.9307,431.84 127,274 C145.98,239.19 187.474,214.75 211.277,202.98 " fill="none" id="actor104105431-UC1248201524" style="stroke: #A80036; stroke-width: 1.0;"/><!--MD5=[5c4b2e7ce5b19c19698660b5fc80c3f7]
link actor104105431 to UC1795804759--><path d="M78.2185,703 C83.7156,694.94 88.7514,686.05 92,677 C130.845,568.83 56.2795,251.6 127,161 C142.289,141.41 169.371,133.28 191.788,129.98 " fill="none" id="actor104105431-UC1795804759" style="stroke: #A80036; stroke-width: 1.0;"/><!--MD5=[ff2ca7afcc7fd247a50ead6effbdbf0e]
link actor104105431 to UC1805031342--><path d="M78.3207,728.53 C113.586,718.34 172.117,701.43 204.883,691.97 " fill="none" id="actor104105431-UC1805031342" style="stroke: #A80036; stroke-width: 1.0;"/><!--MD5=[f2deb21c040621fccbd2f4880f9e9d7a]
link actor104105431 to UC266906347--><path d="M78.364,696.29 C91.6644,680.28 108.544,662.92 127,651 C151.545,635.14 184.348,626.33 206.048,621.88 " fill="none" id="actor104105431-UC266906347" style="stroke: #A80036; stroke-width: 1.0;"/><!--MD5=[4a8d1dfbf89c28b005c39313401162fa]
link actor104105431 to UC908744222--><path d="M78.3207,739.44 C111.494,742.21 165.255,746.69 198.79,749.48 " fill="none" id="actor104105431-UC908744222" style="stroke: #A80036; stroke-width: 1.0;"/><!--MD5=[bff6e24f9a8f767395366f9d11a842ff]
link actor104105431 to UC1356614113--><path d="M55.2295,779.26 C66.6491,851.33 92.9247,993.76 127,1030 C139.211,1042.99 156.506,1051.02 173.393,1055.98 " fill="none" id="actor104105431-UC1356614113" style="stroke: #A80036; stroke-width: 1.0;"/><!--MD5=[fc3eccea2190c859acf95c681dfdf7d9]
link actor104105431 to UC1548698416--><path d="M60.5547,779.34 C72.6289,818.2 94.4051,875.94 127,918 C148.131,945.26 180.75,968.31 203.389,982.35 " fill="none" id="actor104105431-UC1548698416" style="stroke: #A80036; stroke-width: 1.0;"/><!--MD5=[5b91e177446be4362783c47ce96ddd96]
link actor104105431 to UC431996456--><path d="M52.2743,779.16 C59.8621,877.63 78.9926,1130.48 92,1342 C96.6029,1416.85 81.5895,1956.323 127,2016 C142.373,2036.202 170.199,2044.535 192.908,2047.909 " fill="none" id="actor104105431-UC431996456" style="stroke: #A80036; stroke-width: 1.0;"/><!--MD5=[27f3f850264cfc5871660e2f3bc41cc3]
link actor104105431 to UC602572848--><path d="M52.0879,779.17 C59.2813,877.67 77.6347,1130.57 92,1342 C96.0758,1401.99 90.2839,1834.386 127,1882 C142.958,1902.694 171.967,1910.923 194.98,1914.131 " fill="none" id="actor104105431-UC602572848" style="stroke: #A80036; stroke-width: 1.0;"/><!--MD5=[a1fb9e185f3dbc9bf6e850d96b680c47]
link actor104105431 to UC1001114349--><path d="M52.1913,779.16 C59.6036,877.65 78.3883,1130.52 92,1342 C96.3393,1409.42 85.9373,1895.355 127,1949 C141.523,1967.973 167.023,1976.473 188.892,1980.229 " fill="none" id="actor104105431-UC1001114349" style="stroke: #A80036; stroke-width: 1.0;"/><!--MD5=[113a89eac4dc8dcc208e4ff2a02c3e29]
link actor93981118 to UC1528099970--><path d="M82.1745,575.99 C85.8556,570.16 89.2579,564.07 92,558 C120.525,494.82 80.1484,457.09 127,406 C143.604,387.89 170.204,379.68 192.077,375.98 " fill="none" id="actor93981118-UC1528099970" style="stroke: #A80036; stroke-width: 1.0;"/><!--MD5=[d371d3c6d22c4cb0d35fe87b671857a4]
link actor93981118 to UC1296277943--><path d="M82.7782,575.82 C86.3123,570.06 89.5142,564.04 92,558 C129.488,466.84 62.8854,413.87 127,339 C143.101,320.2 170.004,312.03 192.138,308.51 " fill="none" id="actor93981118-UC1296277943" style="stroke: #A80036; stroke-width: 1.0;"/><!--MD5=[da96a8bf430a95b869499cc5014de49c]
link actor93981118 to UC426792528--><path d="M92.1145,591.41 C128.725,568.84 179.696,537.4 207.977,519.96 " fill="none" id="actor93981118-UC426792528" style="stroke: #A80036; stroke-width: 1.0;"/><!--MD5=[402856063405cefc4470a4c32d5232ce]
link actor93981118 to UC1248201524--><path d="M82.9874,575.91 C86.4865,570.13 89.623,564.09 92,558 C138.253,439.53 64.1167,384.54 127,274 C146.603,239.54 187.859,214.97 211.455,203.08 " fill="none" id="actor93981118-UC1248201524" style="stroke: #A80036; stroke-width: 1.0;"/><!--MD5=[fd93edf0a93c305f1b253d0b871f1d5b]
link actor93981118 to UC1805031342--><path d="M92.0767,636.94 C103.3693,641.71 115.583,646.69 127,651 C153.544,661.02 184.526,671.13 205.318,677.69 " fill="none" id="actor93981118-UC1805031342" style="stroke: #A80036; stroke-width: 1.0;"/><!--MD5=[182f8392d728b655ef2b95b3d47b6b90]
link actor93981118 to UC266906347--><path d="M92.1145,618 C127.581,618 176.524,618 205.261,618 " fill="none" id="actor93981118-UC266906347" style="stroke: #A80036; stroke-width: 1.0;"/><!--MD5=[0430e8b689a77b706eda25d347de4437]
link actor93981118 to UC908744222--><path d="M80.1094,660.19 C99.095,685.52 120.863,713.66 127,718 C148.801,733.4 178.073,742.21 199.667,746.98 " fill="none" id="actor93981118-UC908744222" style="stroke: #A80036; stroke-width: 1.0;"/><!--MD5=[842cc7640c36ba4abbd1d84ad0937af5]
link actor93981118 to UC731802107--><path d="M84.117,660.16 C87.2762,665.58 90.0233,671.25 92,677 C131.478,791.91 71.7654,1661.773 127,1770 C142.273,1799.926 174.667,1821.905 198.874,1834.975 " fill="none" id="actor93981118-UC731802107" style="stroke: #A80036; stroke-width: 1.0;"/><!--MD5=[ca0c1f6e6cb6e27e5fe3cd77daf16c38]
@startuml
 left to right direction

actor ForMidEx as actor293749050

	package java.lang {
		usecase append as UC1296277943
		usecase toString as UC1528099970
		usecase waitFor as UC426792528
		usecase hashCode as UC444096469
	}
	actor293749050 - - UC444096469
	actor293749050 - - UC426792528
	actor293749050 - - UC1528099970
	actor293749050 - - UC1296277943
	package java.util {
		usecase add as UC1248201524
	}
	actor293749050 - - UC1248201524
	package java.io {
		usecase println as UC908744222
		usecase print as UC770921565
		usecase println as UC1974284481
		usecase write as UC266906347
		usecase close as UC1805031342
	}
	actor293749050 - - UC1805031342
	actor293749050 - - UC266906347
	actor293749050 - - UC1974284481
	actor293749050 - - UC770921565
	actor293749050 - - UC908744222
	package org.eclipse.jdt.core.dom {
		usecase toString as UC1559258941
	}
	actor293749050 - - UC1559258941
	package dataSet {
		usecase getPackageName as UC1086811994
		usecase getName as UC171063899
		usecase getTypeName as UC1430710100
		usecase getMemberList as UC181451598
		usecase getTypeName as UC1905699057
		usecase getSig as UC1785570426
		usecase getHasList as UC150180388
		usecase getFunctionList as UC133579455
		usecase getClassList as UC1138992016
		usecase separatePackage as UC1152029154
		usecase getHeadNode as UC1356614113
	}
	actor293749050 - - UC1356614113
	actor293749050 - - UC1152029154
	actor293749050 - - UC1138992016
	actor293749050 - - UC133579455
	actor293749050 - - UC150180388
	actor293749050 - - UC1785570426
	actor293749050 - - UC1905699057
	actor293749050 - - UC181451598
	actor293749050 - - UC1430710100
	actor293749050 - - UC171063899
	actor293749050 - - UC1086811994
	package dataSet.stateNode {
		usecase getCode as UC1695161087
		usecase getThen as UC1001114349
		usecase getCondition as UC731802107
		usecase getElse as UC431996456
		usecase getTarget as UC743936514
		usecase getForLine as UC1238292935
		usecase getCondNode as UC298295476
		usecase getLastFin as UC1978471002
		usecase getCond as UC1698322791
	}
	actor293749050 - - UC1698322791
	actor293749050 - - UC1978471002
	actor293749050 - - UC298295476
	actor293749050 - - UC1238292935
	actor293749050 - - UC743936514
	actor293749050 - - UC431996456
	actor293749050 - - UC731802107
	actor293749050 - - UC1001114349
	actor293749050 - - UC1695161087
actor ForQuiz2 as actor1518712038

	package java.lang {
		usecase waitFor as UC426792528
		usecase append as UC1296277943
		usecase hashCode as UC444096469
		usecase toString as UC1528099970
	}
	actor1518712038 - - UC1528099970
	actor1518712038 - - UC444096469
	actor1518712038 - - UC1296277943
	actor1518712038 - - UC426792528
	package java.util {
		usecase hashCode as UC1986751746
		usecase toString as UC1795804759
		usecase add as UC1248201524
	}
	actor1518712038 - - UC1248201524
	actor1518712038 - - UC1795804759
	actor1518712038 - - UC1986751746
	package java.io {
		usecase println as UC908744222
		usecase write as UC266906347
		usecase close as UC1805031342
	}
	actor1518712038 - - UC1805031342
	actor1518712038 - - UC266906347
	actor1518712038 - - UC908744222
	package dataSet {
		usecase getImageList as UC1548698416
		usecase getHeadNode as UC1356614113
	}
	actor1518712038 - - UC1356614113
	actor1518712038 - - UC1548698416
actor ForQuiz3 as actor731573979

	package java.lang {
		usecase waitFor as UC426792528
		usecase append as UC1296277943
		usecase hashCode as UC444096469
		usecase toString as UC1528099970
	}
	actor731573979 - - UC1528099970
	actor731573979 - - UC444096469
	actor731573979 - - UC1296277943
	actor731573979 - - UC426792528
	package java.util {
		usecase toString as UC1795804759
		usecase add as UC1248201524
	}
	actor731573979 - - UC1248201524
	actor731573979 - - UC1795804759
	package java.io {
		usecase println as UC908744222
		usecase write as UC266906347
		usecase close as UC1805031342
	}
	actor731573979 - - UC1805031342
	actor731573979 - - UC266906347
	actor731573979 - - UC908744222
	package dataSet {
		usecase getImageList as UC1548698416
		usecase getHeadNode as UC1356614113
	}
	actor731573979 - - UC1356614113
	actor731573979 - - UC1548698416
actor ForQuiz4 as actor104105431

	package java.lang {
		usecase waitFor as UC426792528
		usecase append as UC1296277943
		usecase hashCode as UC444096469
		usecase toString as UC1528099970
	}
	actor104105431 - - UC1528099970
	actor104105431 - - UC444096469
	actor104105431 - - UC1296277943
	actor104105431 - - UC426792528
	package java.util {
		usecase toString as UC1795804759
		usecase add as UC1248201524
	}
	actor104105431 - - UC1248201524
	actor104105431 - - UC1795804759
	package java.io {
		usecase println as UC908744222
		usecase write as UC266906347
		usecase close as UC1805031342
	}
	actor104105431 - - UC1805031342
	actor104105431 - - UC266906347
	actor104105431 - - UC908744222
	package dataSet {
		usecase getImageList as UC1548698416
		usecase getHeadNode as UC1356614113
	}
	actor104105431 - - UC1356614113
	actor104105431 - - UC1548698416
	package dataSet.stateNode {
		usecase getThen as UC1001114349
		usecase getKey as UC602572848
		usecase getElse as UC431996456
	}
	actor104105431 - - UC431996456
	actor104105431 - - UC602572848
	actor104105431 - - UC1001114349
actor NodeClassDg as actor93981118

	package java.lang {
		usecase waitFor as UC426792528
		usecase append as UC1296277943
		usecase toString as UC1528099970
	}
	actor93981118 - - UC1528099970
	actor93981118 - - UC1296277943
	actor93981118 - - UC426792528
	package java.util {
		usecase add as UC1248201524
	}
	actor93981118 - - UC1248201524
	package java.io {
		usecase println as UC908744222
		usecase write as UC266906347
		usecase close as UC1805031342
	}
	actor93981118 - - UC1805031342
	actor93981118 - - UC266906347
	actor93981118 - - UC908744222
	package dataSet.stateNode {
		usecase getCondition as UC731802107
	}
	actor93981118 - - UC731802107

@enduml

PlantUML version 1.2020.19(Tue Oct 13 00:10:01 KST 2020)
(APACHE source distribution)
Java Runtime: Java(TM) SE Runtime Environment
JVM: Java HotSpot(TM) 64-Bit Server VM
Default Encoding: MS949
Language: ko
Country: KR
--></g></svg>