<?xml version="1.0" encoding="UTF-8" standalone="no"?><svg xmlns="http://www.w3.org/2000/svg" xmlns:xlink="http://www.w3.org/1999/xlink" contentScriptType="application/ecmascript" contentStyleType="text/css" height="332px" preserveAspectRatio="none" style="width:301px;height:332px;" version="1.1" viewBox="0 0 301 332" width="301px" zoomAndPan="magnify"><defs><filter height="300%" id="f17yqpwzbuz73o" width="300%" x="-1" y="-1"><feGaussianBlur result="blurOut" stdDeviation="2.0"/><feColorMatrix in="blurOut" result="blurOut2" type="matrix" values="0 0 0 0 0 0 0 0 0 0 0 0 0 0 0 0 0 0 .4 0"/><feOffset dx="4.0" dy="4.0" in="blurOut2" result="blurOut3"/><feBlend in="SourceGraphic" in2="blurOut3" mode="normal"/></filter></defs><g><!--MD5=[4a0bb378934c6f8f38bad9d68c8a819d]
entity actor8000369--><ellipse cx="69" cy="14" fill="#FEFECE" filter="url(#f17yqpwzbuz73o)" rx="8" ry="8" style="stroke: #A80036; stroke-width: 1.5;"/><path d="M69,22 L69,49 M56,30 L82,30 M69,49 L56,64 M69,49 L82,64 " fill="none" filter="url(#f17yqpwzbuz73o)" style="stroke: #A80036; stroke-width: 1.5;"/><text fill="#000000" font-family="sans-serif" font-size="14" lengthAdjust="spacingAndGlyphs" textLength="74" x="32" y="85.6533">PrintStream</text><!--MD5=[365f5124d665300da1f613077fb57e8a]
entity actor113676940--><ellipse cx="69" cy="133" fill="#FEFECE" filter="url(#f17yqpwzbuz73o)" rx="8" ry="8" style="stroke: #A80036; stroke-width: 1.5;"/><path d="M69,141 L69,168 M56,149 L82,149 M69,168 L56,183 M69,168 L82,183 " fill="none" filter="url(#f17yqpwzbuz73o)" style="stroke: #A80036; stroke-width: 1.5;"/><text fill="#000000" font-family="sans-serif" font-size="14" lengthAdjust="spacingAndGlyphs" textLength="38" x="50" y="204.6533">Writer</text><!--MD5=[e42a216166084626e513f095a941ca5a]
entity actor1009260571--><ellipse cx="69" cy="252" fill="#FEFECE" filter="url(#f17yqpwzbuz73o)" rx="8" ry="8" style="stroke: #A80036; stroke-width: 1.5;"/><path d="M69,260 L69,287 M56,268 L82,268 M69,287 L56,302 M69,287 L82,302 " fill="none" filter="url(#f17yqpwzbuz73o)" style="stroke: #A80036; stroke-width: 1.5;"/><text fill="#000000" font-family="sans-serif" font-size="14" lengthAdjust="spacingAndGlyphs" textLength="126" x="6" y="323.6533">OutputStreamWriter</text><!--MD5=[f0b00d7ff3c31d587f4433d8f0dc192a]
entity actor1940581460--><ellipse cx="243.5" cy="14" fill="#FEFECE" filter="url(#f17yqpwzbuz73o)" rx="8" ry="8" style="stroke: #A80036; stroke-width: 1.5;"/><path d="M243.5,22 L243.5,49 M230.5,30 L256.5,30 M243.5,49 L230.5,64 M243.5,49 L256.5,64 " fill="none" filter="url(#f17yqpwzbuz73o)" style="stroke: #A80036; stroke-width: 1.5;"/><text fill="#000000" font-family="sans-serif" font-size="14" lengthAdjust="spacingAndGlyphs" textLength="47" x="220" y="85.6533">Reader</text><!--MD5=[d3812270a962fc442f7b6242f6e29fb1]
entity actor597399755--><ellipse cx="243.5" cy="133" fill="#FEFECE" filter="url(#f17yqpwzbuz73o)" rx="8" ry="8" style="stroke: #A80036; stroke-width: 1.5;"/><path d="M243.5,141 L243.5,168 M230.5,149 L256.5,149 M243.5,168 L230.5,183 M243.5,168 L256.5,183 " fill="none" filter="url(#f17yqpwzbuz73o)" style="stroke: #A80036; stroke-width: 1.5;"/><text fill="#000000" font-family="sans-serif" font-size="14" lengthAdjust="spacingAndGlyphs" textLength="101" x="193" y="204.6533">BufferedReader</text><!--MD5=[30243eae61e6fc2ddd20fa3c3ead1695]
link actor8000369 to actor113676940--><!--MD5=[8eccf8d7b8b5a73d94232d7fe576385a]
link actor113676940 to actor1009260571--><!--MD5=[93de854b86cc9d5c83c2199ef3779253]
link actor8000369 to actor1940581460--><!--MD5=[2e9a74a517a23100f570b61c90795ced]
link actor1940581460 to actor597399755--><!--MD5=[a6d2be59b8704071381a3f62e84d0094]
@startuml
 left to right direction

actor PrintStream as actor8000369

actor Writer as actor113676940

actor OutputStreamWriter as actor1009260571

actor Reader as actor1940581460

actor BufferedReader as actor597399755


@enduml

PlantUML version 1.2020.19(Tue Oct 13 00:10:01 KST 2020)
(APACHE source distribution)
Java Runtime: Java(TM) SE Runtime Environment
JVM: Java HotSpot(TM) 64-Bit Server VM
Default Encoding: MS949
Language: ko
Country: KR
--></g></svg>