<?xml version="1.0" encoding="UTF-8" standalone="no"?><svg xmlns="http://www.w3.org/2000/svg" xmlns:xlink="http://www.w3.org/1999/xlink" contentScriptType="application/ecmascript" contentStyleType="text/css" height="3770px" preserveAspectRatio="none" style="width:382px;height:3770px;" version="1.1" viewBox="0 0 382 3770" width="382px" zoomAndPan="magnify"><defs><filter height="300%" id="f12ejnn7ydhqcy" width="300%" x="-1" y="-1"><feGaussianBlur result="blurOut" stdDeviation="2.0"/><feColorMatrix in="blurOut" result="blurOut2" type="matrix" values="0 0 0 0 0 0 0 0 0 0 0 0 0 0 0 0 0 0 .4 0"/><feOffset dx="4.0" dy="4.0" in="blurOut2" result="blurOut3"/><feBlend in="SourceGraphic" in2="blurOut3" mode="normal"/></filter></defs><g><!--MD5=[aa8f7b917213fcc1c2766e2d59b49067]
cluster java.lang--><polygon fill="#FFFFFF" filter="url(#f12ejnn7ydhqcy)" points="190,228,259,228,266,253.2295,330,253.2295,330,650,190,650,190,228" style="stroke: #000000; stroke-width: 1.5;"/><line style="stroke: #000000; stroke-width: 1.5;" x1="190" x2="266" y1="253.2295" y2="253.2295"/><text fill="#000000" font-family="sans-serif" font-size="14" font-weight="bold" lengthAdjust="spacingAndGlyphs" textLength="63" x="194" y="246.1533">java.lang</text><!--MD5=[7db3c59d38ae5b37b484eb2df9368145]
cluster java.util--><polygon fill="#FFFFFF" filter="url(#f12ejnn7ydhqcy)" points="210,2575,271,2575,278,2600.2295,310,2600.2295,310,2729,210,2729,210,2575" style="stroke: #000000; stroke-width: 1.5;"/><line style="stroke: #000000; stroke-width: 1.5;" x1="210" x2="278" y1="2600.2295" y2="2600.2295"/><text fill="#000000" font-family="sans-serif" font-size="14" font-weight="bold" lengthAdjust="spacingAndGlyphs" textLength="55" x="214" y="2593.1533">java.util</text><!--MD5=[0d852700fdad35b7061d461d6907a324]
cluster java.io--><polygon fill="#FFFFFF" filter="url(#f12ejnn7ydhqcy)" points="213,674,265,674,272,699.2295,307,699.2295,307,895,213,895,213,674" style="stroke: #000000; stroke-width: 1.5;"/><line style="stroke: #000000; stroke-width: 1.5;" x1="213" x2="272" y1="699.2295" y2="699.2295"/><text fill="#000000" font-family="sans-serif" font-size="14" font-weight="bold" lengthAdjust="spacingAndGlyphs" textLength="46" x="217" y="692.1533">java.io</text><!--MD5=[3933140a3572eb533f89b9e66b6e41f8]
cluster dataSet--><polygon fill="#FFFFFF" filter="url(#f12ejnn7ydhqcy)" points="163,919,222,919,229,944.2295,357,944.2295,357,2551,163,2551,163,919" style="stroke: #000000; stroke-width: 1.5;"/><line style="stroke: #000000; stroke-width: 1.5;" x1="163" x2="229" y1="944.2295" y2="944.2295"/><text fill="#000000" font-family="sans-serif" font-size="14" font-weight="bold" lengthAdjust="spacingAndGlyphs" textLength="53" x="167" y="937.1533">dataSet</text><!--MD5=[b0eda8fb2db3d19476563745998b4367]
cluster diagram--><polygon fill="#FFFFFF" filter="url(#f12ejnn7ydhqcy)" points="220,6,282,6,289,31.2295,300,31.2295,300,93,220,93,220,6" style="stroke: #000000; stroke-width: 1.5;"/><line style="stroke: #000000; stroke-width: 1.5;" x1="220" x2="289" y1="31.2295" y2="31.2295"/><text fill="#000000" font-family="sans-serif" font-size="14" font-weight="bold" lengthAdjust="spacingAndGlyphs" textLength="56" x="224" y="24.1533">diagram</text><!--MD5=[a70b0d373322012744ecc119c63f921b]
cluster main--><polygon fill="#FFFFFF" filter="url(#f12ejnn7ydhqcy)" points="187,117,226,117,233,142.2295,333,142.2295,333,204,187,204,187,117" style="stroke: #000000; stroke-width: 1.5;"/><line style="stroke: #000000; stroke-width: 1.5;" x1="187" x2="233" y1="142.2295" y2="142.2295"/><text fill="#000000" font-family="sans-serif" font-size="14" font-weight="bold" lengthAdjust="spacingAndGlyphs" textLength="33" x="191" y="135.1533">main</text><!--MD5=[c66e735c89a839b0f40df60143f9640e]
cluster org.eclipse.jdt.core.dom--><polygon fill="#FFFFFF" filter="url(#f12ejnn7ydhqcy)" points="155,2753,332,2753,339,2778.2295,365,2778.2295,365,3183,155,3183,155,2753" style="stroke: #000000; stroke-width: 1.5;"/><line style="stroke: #000000; stroke-width: 1.5;" x1="155" x2="339" y1="2778.2295" y2="2778.2295"/><text fill="#000000" font-family="sans-serif" font-size="14" font-weight="bold" lengthAdjust="spacingAndGlyphs" textLength="171" x="159" y="2771.1533">org.eclipse.jdt.core.dom</text><!--MD5=[4042ab85c49b1e9af0a6db6955a12774]
cluster dataSet.stateNode--><polygon fill="#FFFFFF" filter="url(#f12ejnn7ydhqcy)" points="167,3207,302,3207,309,3232.2295,353,3232.2295,353,3763,167,3763,167,3207" style="stroke: #000000; stroke-width: 1.5;"/><line style="stroke: #000000; stroke-width: 1.5;" x1="167" x2="309" y1="3232.2295" y2="3232.2295"/><text fill="#000000" font-family="sans-serif" font-size="14" font-weight="bold" lengthAdjust="spacingAndGlyphs" textLength="129" x="171" y="3225.1533">dataSet.stateNode</text><ellipse cx="260.5061" cy="283.0973" fill="#FEFECE" filter="url(#f12ejnn7ydhqcy)" rx="23.5061" ry="16.5973" style="stroke: #A80036; stroke-width: 1.5;"/><text fill="#000000" font-family="sans-serif" font-size="14" lengthAdjust="spacingAndGlyphs" textLength="29" x="246.0061" y="289.2121">exec</text><ellipse cx="259.9117" cy="350.0973" fill="#FEFECE" filter="url(#f12ejnn7ydhqcy)" rx="53.9117" ry="16.5973" style="stroke: #A80036; stroke-width: 1.5;"/><text fill="#000000" font-family="sans-serif" font-size="14" lengthAdjust="spacingAndGlyphs" textLength="72" x="223.9117" y="356.2121">getRuntime</text><ellipse cx="260.5269" cy="417.0973" fill="#FEFECE" filter="url(#f12ejnn7ydhqcy)" rx="35.5269" ry="16.5973" style="stroke: #A80036; stroke-width: 1.5;"/><text fill="#000000" font-family="sans-serif" font-size="14" lengthAdjust="spacingAndGlyphs" textLength="46" x="237.5269" y="423.2121">waitFor</text><ellipse cx="259.9411" cy="484.0973" fill="#FEFECE" filter="url(#f12ejnn7ydhqcy)" rx="36.9411" ry="16.5973" style="stroke: #A80036; stroke-width: 1.5;"/><text fill="#000000" font-family="sans-serif" font-size="14" lengthAdjust="spacingAndGlyphs" textLength="48" x="235.9411" y="490.2121">append</text><ellipse cx="260.6482" cy="551.0973" fill="#FEFECE" filter="url(#f12ejnn7ydhqcy)" rx="37.6482" ry="16.5973" style="stroke: #A80036; stroke-width: 1.5;"/><text fill="#000000" font-family="sans-serif" font-size="14" lengthAdjust="spacingAndGlyphs" textLength="49" x="236.1482" y="557.2121">toString</text><ellipse cx="259.9619" cy="618.0973" fill="#FEFECE" filter="url(#f12ejnn7ydhqcy)" rx="48.9619" ry="16.5973" style="stroke: #A80036; stroke-width: 1.5;"/><text fill="#000000" font-family="sans-serif" font-size="14" lengthAdjust="spacingAndGlyphs" textLength="65" x="227.4619" y="624.2121">hashCode</text><ellipse cx="260.4056" cy="2630.0973" fill="#FEFECE" filter="url(#f12ejnn7ydhqcy)" rx="33.4056" ry="16.5973" style="stroke: #A80036; stroke-width: 1.5;"/><text fill="#000000" font-family="sans-serif" font-size="14" lengthAdjust="spacingAndGlyphs" textLength="43" x="238.9056" y="2636.2121">keySet</text><ellipse cx="259.9836" cy="2697.0869" fill="#FEFECE" filter="url(#f12ejnn7ydhqcy)" rx="19.9836" ry="16.5869" style="stroke: #A80036; stroke-width: 1.5;"/><text fill="#000000" font-family="sans-serif" font-size="14" lengthAdjust="spacingAndGlyphs" textLength="24" x="247.9836" y="2703.2016">add</text><ellipse cx="260.5772" cy="863.0973" fill="#FEFECE" filter="url(#f12ejnn7ydhqcy)" rx="30.5772" ry="16.5973" style="stroke: #A80036; stroke-width: 1.5;"/><text fill="#000000" font-family="sans-serif" font-size="14" lengthAdjust="spacingAndGlyphs" textLength="39" x="241.0772" y="869.2121">println</text><ellipse cx="260.5061" cy="729.0973" fill="#FEFECE" filter="url(#f12ejnn7ydhqcy)" rx="23.5061" ry="16.5973" style="stroke: #A80036; stroke-width: 1.5;"/><text fill="#000000" font-family="sans-serif" font-size="14" lengthAdjust="spacingAndGlyphs" textLength="29" x="246.0061" y="735.2121">write</text><ellipse cx="260.3345" cy="796.0973" fill="#FEFECE" filter="url(#f12ejnn7ydhqcy)" rx="26.3345" ry="16.5973" style="stroke: #A80036; stroke-width: 1.5;"/><text fill="#000000" font-family="sans-serif" font-size="14" lengthAdjust="spacingAndGlyphs" textLength="33" x="243.8345" y="802.2121">close</text><ellipse cx="260.4472" cy="1380.0973" fill="#FEFECE" filter="url(#f12ejnn7ydhqcy)" rx="57.4472" ry="16.5973" style="stroke: #A80036; stroke-width: 1.5;"/><text fill="#000000" font-family="sans-serif" font-size="14" lengthAdjust="spacingAndGlyphs" textLength="77" x="221.9472" y="1386.2121">getSrcName</text><ellipse cx="260.598" cy="1447.0973" fill="#FEFECE" filter="url(#f12ejnn7ydhqcy)" rx="42.598" ry="16.5973" style="stroke: #A80036; stroke-width: 1.5;"/><text fill="#000000" font-family="sans-serif" font-size="14" lengthAdjust="spacingAndGlyphs" textLength="56" x="232.598" y="1453.2121">getName</text><ellipse cx="260.669" cy="1849.0973" fill="#FEFECE" filter="url(#f12ejnn7ydhqcy)" rx="49.669" ry="16.5973" style="stroke: #A80036; stroke-width: 1.5;"/><text fill="#000000" font-family="sans-serif" font-size="14" lengthAdjust="spacingAndGlyphs" textLength="66" x="227.669" y="1855.2121">getHasList</text><ellipse cx="260.669" cy="1514.0973" fill="#FEFECE" filter="url(#f12ejnn7ydhqcy)" rx="49.669" ry="16.5973" style="stroke: #A80036; stroke-width: 1.5;"/><text fill="#000000" font-family="sans-serif" font-size="14" lengthAdjust="spacingAndGlyphs" textLength="66" x="227.669" y="1520.2121">getCallList</text><ellipse cx="259.9828" cy="1581.0973" fill="#FEFECE" filter="url(#f12ejnn7ydhqcy)" rx="60.9828" ry="16.5973" style="stroke: #A80036; stroke-width: 1.5;"/><text fill="#000000" font-family="sans-serif" font-size="14" lengthAdjust="spacingAndGlyphs" textLength="82" x="218.9828" y="1587.2121">getCallByList</text><ellipse cx="260.4472" cy="1648.0973" fill="#FEFECE" filter="url(#f12ejnn7ydhqcy)" rx="57.4472" ry="16.5973" style="stroke: #A80036; stroke-width: 1.5;"/><text fill="#000000" font-family="sans-serif" font-size="14" lengthAdjust="spacingAndGlyphs" textLength="77" x="221.9472" y="1654.2121">getClassList</text><ellipse cx="260.2254" cy="1715.0973" fill="#FEFECE" filter="url(#f12ejnn7ydhqcy)" rx="65.2254" ry="16.5973" style="stroke: #A80036; stroke-width: 1.5;"/><text fill="#000000" font-family="sans-serif" font-size="14" lengthAdjust="spacingAndGlyphs" textLength="88" x="216.2254" y="1721.2121">getTypeName</text><ellipse cx="259.7609" cy="974.0973" fill="#FEFECE" filter="url(#f12ejnn7ydhqcy)" rx="68.7609" ry="16.5973" style="stroke: #A80036; stroke-width: 1.5;"/><text fill="#000000" font-family="sans-serif" font-size="14" lengthAdjust="spacingAndGlyphs" textLength="93" x="213.2609" y="980.2121">getMemberList</text><ellipse cx="260.2254" cy="1041.0973" fill="#FEFECE" filter="url(#f12ejnn7ydhqcy)" rx="65.2254" ry="16.5973" style="stroke: #A80036; stroke-width: 1.5;"/><text fill="#000000" font-family="sans-serif" font-size="14" lengthAdjust="spacingAndGlyphs" textLength="88" x="216.2254" y="1047.2121">getTypeName</text><ellipse cx="260.2843" cy="1108.0973" fill="#FEFECE" filter="url(#f12ejnn7ydhqcy)" rx="31.2843" ry="16.5973" style="stroke: #A80036; stroke-width: 1.5;"/><text fill="#000000" font-family="sans-serif" font-size="14" lengthAdjust="spacingAndGlyphs" textLength="40" x="240.2843" y="1114.2121">getSig</text><ellipse cx="260.2886" cy="1175.1577" fill="#FEFECE" filter="url(#f12ejnn7ydhqcy)" rx="71.2886" ry="16.6577" style="stroke: #A80036; stroke-width: 1.5;"/><text fill="#000000" font-family="sans-serif" font-size="14" lengthAdjust="spacingAndGlyphs" textLength="97" x="211.7886" y="1181.2725">getFunctionList</text><ellipse cx="260.6665" cy="1244.0333" fill="#FEFECE" filter="url(#f12ejnn7ydhqcy)" rx="80.6665" ry="18.5333" style="stroke: #A80036; stroke-width: 1.5;"/><text fill="#000000" font-family="sans-serif" font-size="14" lengthAdjust="spacingAndGlyphs" textLength="122" x="199.6665" y="1250.148">getParameterName</text><ellipse cx="260.4472" cy="1782.0973" fill="#FEFECE" filter="url(#f12ejnn7ydhqcy)" rx="57.4472" ry="16.5973" style="stroke: #A80036; stroke-width: 1.5;"/><text fill="#000000" font-family="sans-serif" font-size="14" lengthAdjust="spacingAndGlyphs" textLength="77" x="221.9472" y="1788.2121">getSrcName</text><ellipse cx="260.1335" cy="1916.0973" fill="#FEFECE" filter="url(#f12ejnn7ydhqcy)" rx="46.1335" ry="16.5973" style="stroke: #A80036; stroke-width: 1.5;"/><text fill="#000000" font-family="sans-serif" font-size="14" lengthAdjust="spacingAndGlyphs" textLength="61" x="229.6335" y="1922.2121">getOwner</text><ellipse cx="260.4472" cy="1313.0973" fill="#FEFECE" filter="url(#f12ejnn7ydhqcy)" rx="57.4472" ry="16.5973" style="stroke: #A80036; stroke-width: 1.5;"/><text fill="#000000" font-family="sans-serif" font-size="14" lengthAdjust="spacingAndGlyphs" textLength="77" x="221.9472" y="1319.2121">getSrcName</text><ellipse cx="260.1838" cy="2184.0973" fill="#FEFECE" filter="url(#f12ejnn7ydhqcy)" rx="41.1838" ry="16.5973" style="stroke: #A80036; stroke-width: 1.5;"/><text fill="#000000" font-family="sans-serif" font-size="14" lengthAdjust="spacingAndGlyphs" textLength="54" x="233.1838" y="2190.2121">addData</text><ellipse cx="260.6188" cy="2251.0973" fill="#FEFECE" filter="url(#f12ejnn7ydhqcy)" rx="54.6188" ry="16.5973" style="stroke: #A80036; stroke-width: 1.5;"/><text fill="#000000" font-family="sans-serif" font-size="14" lengthAdjust="spacingAndGlyphs" textLength="73" x="224.1188" y="2257.2121">setComplex</text><ellipse cx="259.8406" cy="2318.0973" fill="#FEFECE" filter="url(#f12ejnn7ydhqcy)" rx="46.8406" ry="16.5973" style="stroke: #A80036; stroke-width: 1.5;"/><text fill="#000000" font-family="sans-serif" font-size="14" lengthAdjust="spacingAndGlyphs" textLength="62" x="228.8406" y="2324.2121">addImage</text><ellipse cx="259.9411" cy="2385.0973" fill="#FEFECE" filter="url(#f12ejnn7ydhqcy)" rx="36.9411" ry="16.5973" style="stroke: #A80036; stroke-width: 1.5;"/><text fill="#000000" font-family="sans-serif" font-size="14" lengthAdjust="spacingAndGlyphs" textLength="48" x="235.9411" y="2391.2121">addHas</text><ellipse cx="260.1041" cy="2452.0973" fill="#FEFECE" filter="url(#f12ejnn7ydhqcy)" rx="63.1041" ry="16.5973" style="stroke: #A80036; stroke-width: 1.5;"/><text fill="#000000" font-family="sans-serif" font-size="14" lengthAdjust="spacingAndGlyphs" textLength="85" x="217.6041" y="2458.2121">setHeadNode</text><ellipse cx="260.4767" cy="2519.0973" fill="#FEFECE" filter="url(#f12ejnn7ydhqcy)" rx="40.4767" ry="16.5973" style="stroke: #A80036; stroke-width: 1.5;"/><text fill="#000000" font-family="sans-serif" font-size="14" lengthAdjust="spacingAndGlyphs" textLength="53" x="233.9767" y="2525.2121">setCode</text><ellipse cx="259.8909" cy="1983.0973" fill="#FEFECE" filter="url(#f12ejnn7ydhqcy)" rx="41.8909" ry="16.5973" style="stroke: #A80036; stroke-width: 1.5;"/><text fill="#000000" font-family="sans-serif" font-size="14" lengthAdjust="spacingAndGlyphs" textLength="55" x="232.3909" y="1989.2121">setName</text><ellipse cx="260.6188" cy="2050.0973" fill="#FEFECE" filter="url(#f12ejnn7ydhqcy)" rx="54.6188" ry="16.5973" style="stroke: #A80036; stroke-width: 1.5;"/><text fill="#000000" font-family="sans-serif" font-size="14" lengthAdjust="spacingAndGlyphs" textLength="73" x="224.1188" y="2056.2121">setComplex</text><ellipse cx="260.3259" cy="2117.0973" fill="#FEFECE" filter="url(#f12ejnn7ydhqcy)" rx="55.3259" ry="16.5973" style="stroke: #A80036; stroke-width: 1.5;"/><text fill="#000000" font-family="sans-serif" font-size="14" lengthAdjust="spacingAndGlyphs" textLength="74" x="223.3259" y="2123.2121">findMember</text><ellipse cx="260.2132" cy="61.0973" fill="#FEFECE" filter="url(#f12ejnn7ydhqcy)" rx="24.2132" ry="16.5973" style="stroke: #A80036; stroke-width: 1.5;"/><text fill="#000000" font-family="sans-serif" font-size="14" lengthAdjust="spacingAndGlyphs" textLength="30" x="245.2132" y="67.2121">main</text><ellipse cx="260.7401" cy="172.0973" fill="#FEFECE" filter="url(#f12ejnn7ydhqcy)" rx="56.7401" ry="16.5973" style="stroke: #A80036; stroke-width: 1.5;"/><text fill="#000000" font-family="sans-serif" font-size="14" lengthAdjust="spacingAndGlyphs" textLength="76" x="222.7401" y="178.2121">addDataList</text><ellipse cx="260.7443" cy="2812.1489" fill="#FEFECE" filter="url(#f12ejnn7ydhqcy)" rx="88.7443" ry="20.1489" style="stroke: #A80036; stroke-width: 1.5;"/><text fill="#000000" font-family="sans-serif" font-size="14" lengthAdjust="spacingAndGlyphs" textLength="142" x="189.7443" y="2818.2636">getFullyQualifiedName</text><ellipse cx="260.598" cy="2883.0973" fill="#FEFECE" filter="url(#f12ejnn7ydhqcy)" rx="42.598" ry="16.5973" style="stroke: #A80036; stroke-width: 1.5;"/><text fill="#000000" font-family="sans-serif" font-size="14" lengthAdjust="spacingAndGlyphs" textLength="56" x="232.598" y="2889.2121">getName</text><ellipse cx="259.7904" cy="2950.0973" fill="#FEFECE" filter="url(#f12ejnn7ydhqcy)" rx="51.7904" ry="16.5973" style="stroke: #A80036; stroke-width: 1.5;"/><text fill="#000000" font-family="sans-serif" font-size="14" lengthAdjust="spacingAndGlyphs" textLength="69" x="225.2904" y="2956.2121">statements</text><ellipse cx="260.6482" cy="3017.0973" fill="#FEFECE" filter="url(#f12ejnn7ydhqcy)" rx="37.6482" ry="16.5973" style="stroke: #A80036; stroke-width: 1.5;"/><text fill="#000000" font-family="sans-serif" font-size="14" lengthAdjust="spacingAndGlyphs" textLength="49" x="236.1482" y="3023.2121">toString</text><ellipse cx="260.598" cy="3084.0973" fill="#FEFECE" filter="url(#f12ejnn7ydhqcy)" rx="42.598" ry="16.5973" style="stroke: #A80036; stroke-width: 1.5;"/><text fill="#000000" font-family="sans-serif" font-size="14" lengthAdjust="spacingAndGlyphs" textLength="56" x="232.598" y="3090.2121">getName</text><ellipse cx="259.9325" cy="3151.0973" fill="#FEFECE" filter="url(#f12ejnn7ydhqcy)" rx="65.9325" ry="16.5973" style="stroke: #A80036; stroke-width: 1.5;"/><text fill="#000000" font-family="sans-serif" font-size="14" lengthAdjust="spacingAndGlyphs" textLength="89" x="215.4325" y="3157.2121">getExpression</text><ellipse cx="259.7696" cy="3666.0973" fill="#FEFECE" filter="url(#f12ejnn7ydhqcy)" rx="39.7696" ry="16.5973" style="stroke: #A80036; stroke-width: 1.5;"/><text fill="#000000" font-family="sans-serif" font-size="14" lengthAdjust="spacingAndGlyphs" textLength="52" x="233.7696" y="3672.2121">setThen</text><ellipse cx="260.0148" cy="3732.0118" fill="#FEFECE" filter="url(#f12ejnn7ydhqcy)" rx="18.0148" ry="15.0118" style="stroke: #A80036; stroke-width: 1.5;"/><text fill="#000000" font-family="sans-serif" font-size="14" lengthAdjust="spacingAndGlyphs" textLength="18" x="251.0148" y="3738.1265">init</text><ellipse cx="260.0148" cy="3261.0118" fill="#FEFECE" filter="url(#f12ejnn7ydhqcy)" rx="18.0148" ry="15.0118" style="stroke: #A80036; stroke-width: 1.5;"/><text fill="#000000" font-family="sans-serif" font-size="14" lengthAdjust="spacingAndGlyphs" textLength="18" x="251.0148" y="3267.1265">init</text><ellipse cx="260.4767" cy="3327.0973" fill="#FEFECE" filter="url(#f12ejnn7ydhqcy)" rx="40.4767" ry="16.5973" style="stroke: #A80036; stroke-width: 1.5;"/><text fill="#000000" font-family="sans-serif" font-size="14" lengthAdjust="spacingAndGlyphs" textLength="53" x="233.9767" y="3333.2121">setCond</text><ellipse cx="259.8406" cy="3394.0973" fill="#FEFECE" filter="url(#f12ejnn7ydhqcy)" rx="46.8406" ry="16.5973" style="stroke: #A80036; stroke-width: 1.5;"/><text fill="#000000" font-family="sans-serif" font-size="14" lengthAdjust="spacingAndGlyphs" textLength="62" x="228.8406" y="3400.2121">getBefore</text><ellipse cx="260.1845" cy="3462.8369" fill="#FEFECE" filter="url(#f12ejnn7ydhqcy)" rx="77.1845" ry="17.8369" style="stroke: #A80036; stroke-width: 1.5;"/><text fill="#000000" font-family="sans-serif" font-size="14" lengthAdjust="spacingAndGlyphs" textLength="113" x="203.6845" y="3468.9516">setCondElseNode</text><ellipse cx="260.1335" cy="3532.0973" fill="#FEFECE" filter="url(#f12ejnn7ydhqcy)" rx="46.1335" ry="16.5973" style="stroke: #A80036; stroke-width: 1.5;"/><text fill="#000000" font-family="sans-serif" font-size="14" lengthAdjust="spacingAndGlyphs" textLength="61" x="229.6335" y="3538.2121">setForFin</text><ellipse cx="260.0624" cy="3599.0973" fill="#FEFECE" filter="url(#f12ejnn7ydhqcy)" rx="39.0624" ry="16.5973" style="stroke: #A80036; stroke-width: 1.5;"/><text fill="#000000" font-family="sans-serif" font-size="14" lengthAdjust="spacingAndGlyphs" textLength="51" x="234.5624" y="3605.2121">setType</text><!--MD5=[0518a1d156242897650c4b53b79ce141]
entity actor1587020590--><ellipse cx="58.5" cy="20.5" fill="#FEFECE" filter="url(#f12ejnn7ydhqcy)" rx="8" ry="8" style="stroke: #A80036; stroke-width: 1.5;"/><path d="M58.5,28.5 L58.5,55.5 M45.5,36.5 L71.5,36.5 M58.5,55.5 L45.5,70.5 M58.5,55.5 L71.5,70.5 " fill="none" filter="url(#f12ejnn7ydhqcy)" style="stroke: #A80036; stroke-width: 1.5;"/><text fill="#000000" font-family="sans-serif" font-size="14" lengthAdjust="spacingAndGlyphs" textLength="79" x="19" y="92.1533">Base_Visitor</text><!--MD5=[00913d8fe6880253b410d5d9bed75261]
entity actor1340666542--><ellipse cx="58.5" cy="1142.5" fill="#FEFECE" filter="url(#f12ejnn7ydhqcy)" rx="8" ry="8" style="stroke: #A80036; stroke-width: 1.5;"/><path d="M58.5,1150.5 L58.5,1177.5 M45.5,1158.5 L71.5,1158.5 M58.5,1177.5 L45.5,1192.5 M58.5,1177.5 L71.5,1192.5 " fill="none" filter="url(#f12ejnn7ydhqcy)" style="stroke: #A80036; stroke-width: 1.5;"/><text fill="#000000" font-family="sans-serif" font-size="14" lengthAdjust="spacingAndGlyphs" textLength="105" x="6" y="1214.1533">DataListDiagram</text><!--MD5=[2ed2204b7f9ba786d98b2c064861675d]
entity actor650777250--><ellipse cx="58" cy="139.5" fill="#FEFECE" filter="url(#f12ejnn7ydhqcy)" rx="8" ry="8" style="stroke: #A80036; stroke-width: 1.5;"/><path d="M58,147.5 L58,174.5 M45,155.5 L71,155.5 M58,174.5 L45,189.5 M58,174.5 L71,189.5 " fill="none" filter="url(#f12ejnn7ydhqcy)" style="stroke: #A80036; stroke-width: 1.5;"/><text fill="#000000" font-family="sans-serif" font-size="14" lengthAdjust="spacingAndGlyphs" textLength="30" x="43" y="211.1533">Main</text><!--MD5=[ab1d55b78ada0ad2e0260ba7ddbe28b5]
entity actor1980153091--><ellipse cx="58" cy="2840.5" fill="#FEFECE" filter="url(#f12ejnn7ydhqcy)" rx="8" ry="8" style="stroke: #A80036; stroke-width: 1.5;"/><path d="M58,2848.5 L58,2875.5 M45,2856.5 L71,2856.5 M58,2875.5 L45,2890.5 M58,2875.5 L71,2890.5 " fill="none" filter="url(#f12ejnn7ydhqcy)" style="stroke: #A80036; stroke-width: 1.5;"/><text fill="#000000" font-family="sans-serif" font-size="14" lengthAdjust="spacingAndGlyphs" textLength="86" x="15" y="2912.1533">MethodVisitor</text><!--MD5=[27bc66eedc5ad3e0315ccca130d1b87f]
entity actor11529827--><ellipse cx="58.5" cy="2721.5" fill="#FEFECE" filter="url(#f12ejnn7ydhqcy)" rx="8" ry="8" style="stroke: #A80036; stroke-width: 1.5;"/><path d="M58.5,2729.5 L58.5,2756.5 M45.5,2737.5 L71.5,2737.5 M58.5,2756.5 L45.5,2771.5 M58.5,2756.5 L71.5,2771.5 " fill="none" filter="url(#f12ejnn7ydhqcy)" style="stroke: #A80036; stroke-width: 1.5;"/><text fill="#000000" font-family="sans-serif" font-size="14" lengthAdjust="spacingAndGlyphs" textLength="75" x="21" y="2793.1533">Test_Visitor</text><!--MD5=[b5aaeb64c2cb7234cb8c1295568ef310]
link actor1340666542 to UC444096469--><path d="M61.7522,1132.8 C71.5388,1029.94 100.3654,769.38 147,697 C167.031,665.91 204.042,643.57 230.242,630.75 " fill="none" id="actor1340666542-UC444096469" style="stroke: #A80036; stroke-width: 1.0;"/><!--MD5=[051b37e5bd6c9ab2d3f4d10a95514192]
link actor1340666542 to UC1528099970--><path d="M58.6877,1132.66 C61.5094,1011.56 75.7613,667.19 147,585 C165.651,563.48 197.362,555.31 222.453,552.33 " fill="none" id="actor1340666542-UC1528099970" style="stroke: #A80036; stroke-width: 1.0;"/><!--MD5=[2424a0f45de65fe15888b4ec333df471]
link actor1340666542 to UC1296277943--><path d="M61.0626,1132.98 C71.4413,995.48 106.879,565 147,518 C165.621,496.19 197.671,488.06 222.892,485.18 " fill="none" id="actor1340666542-UC1296277943" style="stroke: #A80036; stroke-width: 1.0;"/><!--MD5=[8aef1087fb73c3fbc3dbcf441d7b931d]
link actor1340666542 to UC426792528--><path d="M60.5157,1132.86 C69.636,986.1 102.7695,503.47 147,451 C165.883,428.6 198.929,420.62 224.423,417.93 " fill="none" id="actor1340666542-UC426792528" style="stroke: #A80036; stroke-width: 1.0;"/><!--MD5=[fdbc0d25b541bcad513ccf75caaee4c9]
link actor1340666542 to UC1635815117--><path d="M60.0245,1132.99 C67.8768,977.52 98.3223,440.88 147,383 C161.668,365.56 184.995,357.05 206.656,353 " fill="none" id="actor1340666542-UC1635815117" style="stroke: #A80036; stroke-width: 1.0;"/><!--MD5=[b7b49f8192a2ccd494628c3e190845c9]
link actor1340666542 to UC1495001258--><path d="M59.6408,1132.85 C66.3885,968.88 94.1658,379.37 147,316 C168.855,289.78 210.284,283.73 236.448,282.69 " fill="none" id="actor1340666542-UC1495001258" style="stroke: #A80036; stroke-width: 1.0;"/><!--MD5=[fbcbd0868d7a326cd138c4832f319b60]
link actor1340666542 to UC2132762784--><path d="M58.5699,1217.23 C61.8044,1435.72 80.1484,2432.22 147,2551 C166.137,2585 206.715,2607.73 233.673,2619.76 " fill="none" id="actor1340666542-UC2132762784" style="stroke: #A80036; stroke-width: 1.0;"/><!--MD5=[b8b473f5b04211e07ddaca48c5967515]
link actor1340666542 to UC1805031342--><path d="M63.6335,1132.98 C75.4459,1050.9 105.211,873.49 147,830 C169.57,806.51 207.695,799.09 233.345,796.83 " fill="none" id="actor1340666542-UC1805031342" style="stroke: #A80036; stroke-width: 1.0;"/><!--MD5=[26e707612b190f01002e62f6e9c75228]
link actor1340666542 to UC266906347--><path d="M61.7177,1132.9 C70.8264,1039.09 97.2291,816.89 147,763 C170.073,738.02 210.736,731.14 236.476,729.39 " fill="none" id="actor1340666542-UC266906347" style="stroke: #A80036; stroke-width: 1.0;"/><!--MD5=[b4c78c86374fbde92f0c3735aefb9b17]
link actor1340666542 to UC908744222--><path d="M66.1485,1132.99 C77.4643,1083.24 101.8389,999.86 147,942 C171.449,910.68 211.704,886.76 236.986,873.81 " fill="none" id="actor1340666542-UC908744222" style="stroke: #A80036; stroke-width: 1.0;"/><!--MD5=[3b53737cb9658b77ff395a5083513588]
link actor1340666542 to UC1324029152--><path d="M84.763,1217.09 C100.4902,1238.72 122.148,1263.86 147,1280 C165.855,1292.24 189.37,1300.06 210.059,1304.99 " fill="none" id="actor1340666542-UC1324029152" style="stroke: #A80036; stroke-width: 1.0;"/><!--MD5=[eaaec182ba8abad254cbba31432a93ab]
link actor1340666542 to UC1365349839--><path d="M60.6286,1217.22 C70.001,1361.97 103.5544,1832.03 147,1883 C163.506,1902.36 190.683,1910.7 214.249,1914.15 " fill="none" id="actor1340666542-UC1365349839" style="stroke: #A80036; stroke-width: 1.0;"/><!--MD5=[b520bca6a5a4f855ed11169c55c0a9cd]
link actor1340666542 to UC863313225--><path d="M58.8463,1217.08 C62.0849,1335.74 77.3274,1669.6 147,1749 C161.356,1765.36 183.324,1773.82 204.086,1778.12 " fill="none" id="actor1340666542-UC863313225" style="stroke: #A80036; stroke-width: 1.0;"/><!--MD5=[21a6d80a13c3f8e621cf4952f4c8f45d]
link actor1340666542 to UC280960713--><path d="M110.503,1195.7 C122.447,1200.23 135.118,1204.9 147,1209 C167.868,1216.21 191.136,1223.54 211.108,1229.61 " fill="none" id="actor1340666542-UC280960713" style="stroke: #A80036; stroke-width: 1.0;"/><!--MD5=[c035e6189f87604b1506fdcf2341a6e5]
link actor1340666542 to UC133579455--><path d="M110.546,1175 C134.276,1175 162.683,1175 188.328,1175 " fill="none" id="actor1340666542-UC133579455" style="stroke: #A80036; stroke-width: 1.0;"/><!--MD5=[e1c08658d3eac57ecd45b4845537d2d7]
link actor1340666542 to UC1785570426--><path d="M110.514,1154.91 C122.458,1150.51 135.126,1145.98 147,1142 C175.94,1132.29 209.472,1122.37 232.447,1115.77 " fill="none" id="actor1340666542-UC1785570426" style="stroke: #A80036; stroke-width: 1.0;"/><!--MD5=[9de72173861ca66c00141cf3803c8672]
link actor1340666542 to UC1905699057--><path d="M86.9561,1132.77 C102.6384,1112.72 123.586,1089.94 147,1075 C165.135,1063.43 187.403,1055.63 207.363,1050.46 " fill="none" id="actor1340666542-UC1905699057" style="stroke: #A80036; stroke-width: 1.0;"/><!--MD5=[00a520d475587e895f02b3ffa6c8634b]
link actor1340666542 to UC181451598--><path d="M70.1135,1132.97 C83.1429,1095.05 107.493,1040.39 147,1008 C162.368,995.4 182.313,987.47 201.161,982.47 " fill="none" id="actor1340666542-UC181451598" style="stroke: #A80036; stroke-width: 1.0;"/><!--MD5=[0cd0af6260b2b5a93de5172856a371fc]
link actor1340666542 to UC1430710100--><path d="M59.8124,1217.22 C65.3377,1326.22 85.5268,1613.34 147,1682 C160.155,1696.69 179.449,1705 198.385,1709.64 " fill="none" id="actor1340666542-UC1430710100" style="stroke: #A80036; stroke-width: 1.0;"/><!--MD5=[8fa35b3808605a13c3aa135226a397e5]
link actor1340666542 to UC1138992016--><path d="M61.0411,1217.01 C68.9969,1315.4 93.6102,1556.89 147,1615 C161.727,1631.03 183.757,1639.43 204.466,1643.78 " fill="none" id="actor1340666542-UC1138992016" style="stroke: #A80036; stroke-width: 1.0;"/><!--MD5=[a26dd7419b47e0ec7c66d1c36ed0169b]
link actor1340666542 to UC346125981--><path d="M62.7199,1217.07 C73.3189,1304.23 101.6873,1500.37 147,1548 C161.368,1563.1 182.226,1571.41 202.12,1575.94 " fill="none" id="actor1340666542-UC346125981" style="stroke: #A80036; stroke-width: 1.0;"/><!--MD5=[6cbe81bcac9c515bd385da9bb5f1c6ca]
link actor1340666542 to UC1907517568--><path d="M65.1303,1217.23 C78.5771,1292.08 109.708,1443.67 147,1481 C163.971,1497.99 189.169,1506.34 211.466,1510.39 " fill="none" id="actor1340666542-UC1907517568" style="stroke: #A80036; stroke-width: 1.0;"/><!--MD5=[1cd922dc192c11dac0ee698c0de52d33]
link actor1340666542 to UC150180388--><path d="M61.2283,1217.43 C71.9168,1353.15 107.714,1770.51 147,1816 C162.829,1834.33 188.216,1842.76 210.921,1846.53 " fill="none" id="actor1340666542-UC150180388" style="stroke: #A80036; stroke-width: 1.0;"/><!--MD5=[c790c66dc5714d399556ba3edb18d46e]
link actor1340666542 to UC171063899--><path d="M62.2467,1217.16 C69.8661,1270.5 90.7513,1361.68 147,1414 C166.23,1431.89 194.626,1440.13 218.141,1443.91 " fill="none" id="actor1340666542-UC171063899" style="stroke: #A80036; stroke-width: 1.0;"/><!--MD5=[4e900c27828e33b04cd15d3357abcc63]
link actor1340666542 to UC2011857007--><path d="M69.351,1217.22 C82.0048,1256.36 106.246,1313.45 147,1347 C163.962,1360.96 186.605,1369.02 207.166,1373.67 " fill="none" id="actor1340666542-UC2011857007" style="stroke: #A80036; stroke-width: 1.0;"/><!--MD5=[c43abf1cce3ad89f9d457312e7e7eef8]
link actor650777250 to UC1028574311--><path d="M73.1828,163.66 C109.609,143.64 201.866,92.94 241.472,71.18 " fill="none" id="actor650777250-UC1028574311" style="stroke: #A80036; stroke-width: 1.0;"/><!--MD5=[53668edab26250e40aa13c9a6d06f985]
link actor650777250 to UC908744222--><path d="M61.0434,214.09 C71.3619,351.85 106.633,783.09 147,830 C167.329,853.62 203.537,860.81 229.492,862.76 " fill="none" id="actor650777250-UC908744222" style="stroke: #A80036; stroke-width: 1.0;"/><!--MD5=[c23c5eb0a8f030e0c9720c1dcb57caea]
link actor650777250 to UC1625094636--><path d="M73.1828,172 C100.4334,172 158.931,172 203.255,172 " fill="none" id="actor650777250-UC1625094636" style="stroke: #A80036; stroke-width: 1.0;"/><!--MD5=[c96e9718f0af86817e4d6a2cdd60cb7c]
link actor11529827 to UC1248201524--><path d="M95.5212,2743.41 C138.649,2731.24 207.747,2711.74 240.961,2702.37 " fill="none" id="actor11529827-UC1248201524" style="stroke: #A80036; stroke-width: 1.0;"/><!--MD5=[bb51280e4d1678f88f22ae6a4110c788]
link actor11529827 to UC908744222--><path d="M59.0245,2711.75 C65.5814,2446.7 102.7959,1021.99 147,942 C166.22,907.22 208.027,884.33 235.047,872.53 " fill="none" id="actor11529827-UC908744222" style="stroke: #A80036; stroke-width: 1.0;"/><!--MD5=[83aa1e8261e283d588b5790c2315c99d]
link actor11529827 to UC1923590735--><path d="M95.5232,2789.591 C101.5914,2797.096 107.14,2805.373 111,2814 C138.783,2876.096 103.0576,3066.069 147,3118 C159.608,3132.9 178.534,3141.275 197.311,3145.921 " fill="none" id="actor11529827-UC1923590735" style="stroke: #A80036; stroke-width: 1.0;"/><!--MD5=[39ac06b7676a5a15b61bb9f6d6262b71]
link actor11529827 to UC1892928959--><path d="M95.563,2790.027 C101.5487,2797.433 107.058,2805.564 111,2814 C156.104,2910.523 76.8519,2970.81 147,3051 C164.493,3070.997 193.36,3079.195 217.537,3082.42 " fill="none" id="actor11529827-UC1892928959" style="stroke: #A80036; stroke-width: 1.0;"/><!--MD5=[5e4d166d429d6a293882064c170b97a2]
link actor11529827 to UC1559258941--><path d="M95.7045,2790.883 C101.5248,2798.089 106.94,2805.93 111,2814 C145.709,2882.992 94.488,2927.368 147,2984 C166.246,3004.756 197.742,3012.712 222.6,3015.644 " fill="none" id="actor11529827-UC1559258941" style="stroke: #A80036; stroke-width: 1.0;"/><!--MD5=[30bccad6500e2cb4a0aa041f0be8c31d]
link actor11529827 to UC267445972--><path d="M95.676,2792.337 C101.2901,2799.211 106.645,2806.565 111,2814 C135.51,2855.843 111.828,2883.615 147,2917 C163.898,2933.04 188.155,2941.338 209.865,2945.609 " fill="none" id="actor11529827-UC267445972" style="stroke: #A80036; stroke-width: 1.0;"/><!--MD5=[1104e2f31d74e7f1f4be9d3b1fc3990c]
link actor11529827 to UC1281205497--><path d="M95.2016,2796.168 C116.622,2820.076 140.548,2846.012 147,2850 C169.339,2863.809 197.722,2872.07 220.454,2876.873 " fill="none" id="actor11529827-UC1281205497" style="stroke: #A80036; stroke-width: 1.0;"/><!--MD5=[31c18f64922d2ef889bde0df69819731]
link actor11529827 to UC1263085541--><path d="M95.5212,2764.77 C126.327,2773.62 170.382,2786.268 205.146,2796.25 " fill="none" id="actor11529827-UC1263085541" style="stroke: #A80036; stroke-width: 1.0;"/><!--MD5=[618f59d7866c501329fa0832c6b2afe3]
link actor11529827 to UC863313225--><path d="M59.2661,2711.89 C64.8402,2538.57 89.517,1886.14 147,1816 C160.96,1798.97 183.122,1790.24 204.135,1785.85 " fill="none" id="actor11529827-UC863313225" style="stroke: #A80036; stroke-width: 1.0;"/><!--MD5=[9e08c22eaf85a25a46191bb723038a98]
link actor11529827 to UC1703837357--><path d="M58.5346,2711.61 C60.9425,2588.66 74.1869,2235.28 147,2151 C161.733,2133.95 184.668,2125.27 206.036,2120.92 " fill="none" id="actor11529827-UC1703837357" style="stroke: #A80036; stroke-width: 1.0;"/><!--MD5=[3922d16765c6cfe5856d74599393ab45]
link actor11529827 to UC1365349839--><path d="M59.9698,2711.9 C67.6793,2554.84 97.8259,2009.05 147,1950 C163.387,1930.32 190.713,1921.75 214.387,1918.14 " fill="none" id="actor11529827-UC1365349839" style="stroke: #A80036; stroke-width: 1.0;"/><!--MD5=[94a228411a1053807da0373f04c2c4bf]
link actor11529827 to UC412121842--><path d="M60.9711,2711.64 C71.1286,2571.96 106.114,2132.02 147,2084 C161.808,2066.61 185.153,2057.92 206.79,2053.64 " fill="none" id="actor11529827-UC412121842" style="stroke: #A80036; stroke-width: 1.0;"/><!--MD5=[aea9a807e6e1960ebf522dddbf601e72]
link actor11529827 to UC649827042--><path d="M60.4183,2711.88 C69.3007,2563.42 101.9663,2070.54 147,2017 C164.342,1996.38 193.684,1987.98 218.122,1984.67 " fill="none" id="actor11529827-UC649827042" style="stroke: #A80036; stroke-width: 1.0;"/><!--MD5=[add0604d8aa00cfbda816aef0b3addae]
link actor11529827 to UC104719610--><path d="M75.7058,2712 C91.1796,2678.59 116.003,2631.98 147,2598 C172.973,2569.53 210.971,2545.62 235.596,2531.8 " fill="none" id="actor11529827-UC104719610" style="stroke: #A80036; stroke-width: 1.0;"/><!--MD5=[cb7f8f11b18f17b66ab0b751525a44e7]
link actor11529827 to UC1275477177--><path d="M66.9905,2711.97 C82.1379,2644.85 114.306,2517.78 147,2486 C161.837,2471.58 182.556,2463.24 202.206,2458.44 " fill="none" id="actor11529827-UC1275477177" style="stroke: #A80036; stroke-width: 1.0;"/><!--MD5=[a18d075f79f952d5c9a3c9d73835ab91]
link actor11529827 to UC2061011390--><path d="M63.9886,2711.95 C76.2249,2631.7 106.403,2460.94 147,2419 C166.805,2398.54 198.417,2390.27 223.176,2386.99 " fill="none" id="actor11529827-UC2061011390" style="stroke: #A80036; stroke-width: 1.0;"/><!--MD5=[1b52bdef7c2466975bb9d1c28afffe5a]
link actor11529827 to UC904050847--><path d="M61.9676,2711.88 C71.4703,2619.74 98.4302,2404.32 147,2352 C164.074,2333.61 190.682,2325.03 213.79,2321.09 " fill="none" id="actor11529827-UC904050847" style="stroke: #A80036; stroke-width: 1.0;"/><!--MD5=[1047d12662faf45c63546fb514698352]
link actor11529827 to UC150180388--><path d="M59.5933,2711.84 C66.2076,2546.42 93.6824,1947.58 147,1883 C162.522,1864.2 188.03,1855.53 210.887,1851.64 " fill="none" id="actor11529827-UC150180388" style="stroke: #A80036; stroke-width: 1.0;"/><!--MD5=[ef737327f52b3c9a3da2b60797699a08]
link actor11529827 to UC1530013811--><path d="M60.4975,2711.96 C67.4488,2608.98 90.3666,2347.9 147,2285 C162.285,2268.02 185.691,2259.39 207.245,2255.04 " fill="none" id="actor11529827-UC1530013811" style="stroke: #A80036; stroke-width: 1.0;"/><!--MD5=[73d7ab80996708b0b01e7ca22788d947]
link actor11529827 to UC1400677006--><path d="M59.3955,2711.9 C63.9898,2598.72 82.2772,2291.57 147,2218 C164.93,2197.62 194.571,2189.23 218.997,2185.87 " fill="none" id="actor11529827-UC1400677006" style="stroke: #A80036; stroke-width: 1.0;"/><!--MD5=[f4a9bdb95705a2e14c695ef9f1f40519]
link actor11529827 to UC1231875515--><path d="M95.7496,2789.05 C101.8791,2796.66 107.392,2805.114 111,2814 C142.469,2891.506 95.2343,3500.29 147,3566 C164.39,3588.075 195.698,3595.956 220.957,3598.523 " fill="none" id="actor11529827-UC1231875515" style="stroke: #A80036; stroke-width: 1.0;"/><!--MD5=[b7e6a3a7ced152dcb0dcb0a109dc8fbd]
link actor11529827 to UC1675326525--><path d="M95.7164,2789.063 C101.8488,2796.672 107.372,2805.123 111,2814 C139.837,2884.55 99.6957,3439.24 147,3499 C162.856,3519.031 190.169,3527.368 213.97,3530.656 " fill="none" id="actor11529827-UC1675326525" style="stroke: #A80036; stroke-width: 1.0;"/><!--MD5=[2ebec788e8e205c38812df6a920eb6e6]
link actor11529827 to UC888984210--><path d="M95.6734,2789.081 C101.8095,2796.688 107.345,2805.134 111,2814 C163.096,2940.361 62.715,3320.403 147,3428 C157.702,3441.662 173.65,3450.118 190.216,3455.316 " fill="none" id="actor11529827-UC888984210" style="stroke: #A80036; stroke-width: 1.0;"/><!--MD5=[209fe04c16a8801bfada6d2ad9fc9ce0]
link actor11529827 to UC501741720--><path d="M95.6227,2789.102 C101.7632,2796.708 107.313,2805.147 111,2814 C157.835,2926.456 70.7628,3265.986 147,3361 C162.796,3380.686 189.65,3389.059 213.216,3392.452 " fill="none" id="actor11529827-UC501741720" style="stroke: #A80036; stroke-width: 1.0;"/><!--MD5=[91af344f12a9cdb72d5074f8a6338860]
link actor11529827 to UC2065314021--><path d="M95.558,2789.129 C101.7042,2796.732 107.273,2805.164 111,2814 C152.575,2912.556 79.6771,3210.877 147,3294 C164.301,3315.361 194.614,3323.386 219.491,3326.191 " fill="none" id="actor11529827-UC2065314021" style="stroke: #A80036; stroke-width: 1.0;"/><!--MD5=[7f4277aabed8a25f0e3891e8c9b99e70]
link actor11529827 to UC1836531952--><path d="M95.6674,2789.527 C101.7223,2797.038 107.229,2805.334 111,2814 C176.742,2965.096 63.4228,3040.99 147,3183 C169.247,3220.801 217.89,3244.558 243.492,3254.931 " fill="none" id="actor11529827-UC1836531952" style="stroke: #A80036; stroke-width: 1.0;"/><!--MD5=[f501d9f70c75c3dd0961c3ca37b5c28d]
link actor11529827 to UC1982591789--><path d="M95.5343,2788.698 C101.7662,2796.396 107.373,2804.972 111,2814 C147.735,2905.421 85.993,3622.634 147,3700 C169.599,3728.6589 215.841,3732.8851 241.614,3732.8347 " fill="none" id="actor11529827-UC1982591789" style="stroke: #A80036; stroke-width: 1.0;"/><!--MD5=[ba572431f2af5e30d1e6f39a3b47f916]
link actor11529827 to UC217930962--><path d="M95.5106,2788.708 C101.7445,2796.405 107.358,2804.978 111,2814 C145.102,2898.464 90.7722,3561.338 147,3633 C164.095,3654.787 194.75,3662.755 219.823,3665.43 " fill="none" id="actor11529827-UC217930962" style="stroke: #A80036; stroke-width: 1.0;"/><!--MD5=[7a2ecdc3ef83bcefe826fda9eee52fa6]
link actor1980153091 to actor11529827--><path d="M58,2830.699 C58,2820.919 58,2811.139 58,2801.359 " fill="none" id="actor1980153091-to-actor11529827" style="stroke: #A80036; stroke-width: 1.0;"/><polygon fill="#A80036" points="58,2796.244,54,2805.244,58,2801.244,62,2805.244,58,2796.244" style="stroke: #A80036; stroke-width: 1.0;"/><!--MD5=[596ff6d9942d1bd416508e03bb77febb]
@startuml
 left to right direction

actor Base_Visitor as actor1587020590

actor DataListDiagram as actor1340666542

	package java.lang {
		usecase exec as UC1495001258
		usecase getRuntime as UC1635815117
		usecase waitFor as UC426792528
		usecase append as UC1296277943
		usecase toString as UC1528099970
		usecase hashCode as UC444096469
	}
	actor1340666542 - - UC444096469
	actor1340666542 - - UC1528099970
	actor1340666542 - - UC1296277943
	actor1340666542 - - UC426792528
	actor1340666542 - - UC1635815117
	actor1340666542 - - UC1495001258
	package java.util {
		usecase keySet as UC2132762784
	}
	actor1340666542 - - UC2132762784
	package java.io {
		usecase println as UC908744222
		usecase write as UC266906347
		usecase close as UC1805031342
	}
	actor1340666542 - - UC1805031342
	actor1340666542 - - UC266906347
	actor1340666542 - - UC908744222
	package dataSet {
		usecase getSrcName as UC2011857007
		usecase getName as UC171063899
		usecase getHasList as UC150180388
		usecase getCallList as UC1907517568
		usecase getCallByList as UC346125981
		usecase getClassList as UC1138992016
		usecase getTypeName as UC1430710100
		usecase getMemberList as UC181451598
		usecase getTypeName as UC1905699057
		usecase getSig as UC1785570426
		usecase getFunctionList as UC133579455
		usecase getParameterName as UC280960713
		usecase getSrcName as UC863313225
		usecase getOwner as UC1365349839
		usecase getSrcName as UC1324029152
	}
	actor1340666542 - - UC1324029152
	actor1340666542 - - UC1365349839
	actor1340666542 - - UC863313225
	actor1340666542 - - UC280960713
	actor1340666542 - - UC133579455
	actor1340666542 - - UC1785570426
	actor1340666542 - - UC1905699057
	actor1340666542 - - UC181451598
	actor1340666542 - - UC1430710100
	actor1340666542 - - UC1138992016
	actor1340666542 - - UC346125981
	actor1340666542 - - UC1907517568
	actor1340666542 - - UC150180388
	actor1340666542 - - UC171063899
	actor1340666542 - - UC2011857007
actor Main as actor650777250

	package diagram {
		usecase main as UC1028574311
	}
	actor650777250 - - UC1028574311
	package java.io {
		usecase println as UC908744222
	}
	actor650777250 - - UC908744222
	package main {
		usecase addDataList as UC1625094636
	}
	actor650777250 - - UC1625094636
actor MethodVisitor as actor1980153091

actor Test_Visitor as actor11529827

	package java.util {
		usecase add as UC1248201524
	}
	actor11529827 - - UC1248201524
	package java.io {
		usecase println as UC908744222
	}
	actor11529827 - - UC908744222
	package org.eclipse.jdt.core.dom {
		usecase getFullyQualifiedName as UC1263085541
		usecase getName as UC1281205497
		usecase statements as UC267445972
		usecase toString as UC1559258941
		usecase getName as UC1892928959
		usecase getExpression as UC1923590735
	}
	actor11529827 - - UC1923590735
	actor11529827 - - UC1892928959
	actor11529827 - - UC1559258941
	actor11529827 - - UC267445972
	actor11529827 - - UC1281205497
	actor11529827 - - UC1263085541
	package dataSet {
		usecase addData as UC1400677006
		usecase setComplex as UC1530013811
		usecase getHasList as UC150180388
		usecase addImage as UC904050847
		usecase addHas as UC2061011390
		usecase setHeadNode as UC1275477177
		usecase setCode as UC104719610
		usecase setName as UC649827042
		usecase setComplex as UC412121842
		usecase getOwner as UC1365349839
		usecase findMember as UC1703837357
		usecase getSrcName as UC863313225
	}
	actor11529827 - - UC863313225
	actor11529827 - - UC1703837357
	actor11529827 - - UC1365349839
	actor11529827 - - UC412121842
	actor11529827 - - UC649827042
	actor11529827 - - UC104719610
	actor11529827 - - UC1275477177
	actor11529827 - - UC2061011390
	actor11529827 - - UC904050847
	actor11529827 - - UC150180388
	actor11529827 - - UC1530013811
	actor11529827 - - UC1400677006
	package dataSet.stateNode {
		usecase setThen as UC217930962
		usecase init as UC1982591789
		usecase init as UC1836531952
		usecase setCond as UC2065314021
		usecase getBefore as UC501741720
		usecase setCondElseNode as UC888984210
		usecase setForFin as UC1675326525
		usecase setType as UC1231875515
	}
	actor11529827 - - UC1231875515
	actor11529827 - - UC1675326525
	actor11529827 - - UC888984210
	actor11529827 - - UC501741720
	actor11529827 - - UC2065314021
	actor11529827 - - UC1836531952
	actor11529827 - - UC1982591789
	actor11529827 - - UC217930962

actor1980153091->actor11529827
@enduml

PlantUML version 1.2020.19(Tue Oct 13 00:10:01 KST 2020)
(APACHE source distribution)
Java Runtime: Java(TM) SE Runtime Environment
JVM: Java HotSpot(TM) 64-Bit Server VM
Default Encoding: MS949
Language: ko
Country: KR
--></g></svg>