<?xml version="1.0" encoding="UTF-8" standalone="no"?><svg xmlns="http://www.w3.org/2000/svg" xmlns:xlink="http://www.w3.org/1999/xlink" contentScriptType="application/ecmascript" contentStyleType="text/css" height="332px" preserveAspectRatio="none" style="width:312px;height:332px;" version="1.1" viewBox="0 0 312 332" width="312px" zoomAndPan="magnify"><defs><filter height="300%" id="fgadmt5lha9e8" width="300%" x="-1" y="-1"><feGaussianBlur result="blurOut" stdDeviation="2.0"/><feColorMatrix in="blurOut" result="blurOut2" type="matrix" values="0 0 0 0 0 0 0 0 0 0 0 0 0 0 0 0 0 0 .4 0"/><feOffset dx="4.0" dy="4.0" in="blurOut2" result="blurOut3"/><feBlend in="SourceGraphic" in2="blurOut3" mode="normal"/></filter></defs><g><!--MD5=[c2e91a5afc248ef1801ed01e98408fb8]
cluster buy--><rect fill="#FFFFFF" filter="url(#fgadmt5lha9e8)" height="156" style="stroke: #000000; stroke-width: 1.5;" width="126" x="79" y="42.5"/><text fill="#000000" font-family="sans-serif" font-size="14" font-weight="bold" lengthAdjust="spacingAndGlyphs" textLength="25" x="129.5" y="60.6533">buy</text><!--MD5=[5f180a29fb049b84e12435f0625f51c9]
cluster chckPwd--><rect fill="#FFFFFF" filter="url(#fgadmt5lha9e8)" height="88" style="stroke: #000000; stroke-width: 1.5;" width="97" x="93.5" y="225.5"/><text fill="#000000" font-family="sans-serif" font-size="14" font-weight="bold" lengthAdjust="spacingAndGlyphs" textLength="62" x="111" y="243.6533">chckPwd</text><ellipse cx="141.9836" cy="97.5869" fill="#FEFECE" filter="url(#fgadmt5lha9e8)" rx="19.9836" ry="16.5869" style="stroke: #A80036; stroke-width: 1.5;"/><text fill="#000000" font-family="sans-serif" font-size="14" lengthAdjust="spacingAndGlyphs" textLength="24" x="129.9836" y="103.7016">add</text><ellipse cx="141.8406" cy="165.5973" fill="#FEFECE" filter="url(#fgadmt5lha9e8)" rx="46.8406" ry="16.5973" style="stroke: #A80036; stroke-width: 1.5;"/><text fill="#000000" font-family="sans-serif" font-size="14" lengthAdjust="spacingAndGlyphs" textLength="62" x="110.8406" y="171.7121">getMoney</text><ellipse cx="142.1985" cy="280.5973" fill="#FEFECE" filter="url(#fgadmt5lha9e8)" rx="32.6985" ry="16.5973" style="stroke: #A80036; stroke-width: 1.5;"/><text fill="#000000" font-family="sans-serif" font-size="14" lengthAdjust="spacingAndGlyphs" textLength="42" x="121.1985" y="286.7121">equals</text><!--MD5=[86eb3c2b45ef626813003d4d940f7492]
entity actor1671179293--><ellipse cx="20.5" cy="133" fill="#FEFECE" filter="url(#fgadmt5lha9e8)" rx="8" ry="8" style="stroke: #A80036; stroke-width: 1.5;"/><path d="M20.5,141 L20.5,168 M7.5,149 L33.5,149 M20.5,168 L7.5,183 M20.5,168 L33.5,183 " fill="none" filter="url(#fgadmt5lha9e8)" style="stroke: #A80036; stroke-width: 1.5;"/><text fill="#000000" font-family="sans-serif" font-size="14" lengthAdjust="spacingAndGlyphs" textLength="29" x="6" y="204.6533">User</text><!--MD5=[2a71c260c09c42fc87c738304d3d05c6]
entity actor1144068272--><ellipse cx="277" cy="133" fill="#FEFECE" filter="url(#fgadmt5lha9e8)" rx="8" ry="8" style="stroke: #A80036; stroke-width: 1.5;"/><path d="M277,141 L277,168 M264,149 L290,149 M277,168 L264,183 M277,168 L290,183 " fill="none" filter="url(#fgadmt5lha9e8)" style="stroke: #A80036; stroke-width: 1.5;"/><text fill="#000000" font-family="sans-serif" font-size="14" lengthAdjust="spacingAndGlyphs" textLength="42" x="256" y="204.6533">Goods</text><!--MD5=[78b95a3a57e9f47e814696f5c09527ef]
entity actor1609124502--><ellipse cx="277" cy="14" fill="#FEFECE" filter="url(#fgadmt5lha9e8)" rx="8" ry="8" style="stroke: #A80036; stroke-width: 1.5;"/><path d="M277,22 L277,49 M264,30 L290,30 M277,49 L264,64 M277,49 L290,64 " fill="none" filter="url(#fgadmt5lha9e8)" style="stroke: #A80036; stroke-width: 1.5;"/><text fill="#000000" font-family="sans-serif" font-size="14" lengthAdjust="spacingAndGlyphs" textLength="56" x="249" y="85.6533">ArrayList</text><!--MD5=[c2083c89cbc9172a4881dd259195b45b]
entity actor1985836631--><ellipse cx="277" cy="252" fill="#FEFECE" filter="url(#fgadmt5lha9e8)" rx="8" ry="8" style="stroke: #A80036; stroke-width: 1.5;"/><path d="M277,260 L277,287 M264,268 L290,268 M277,287 L264,302 M277,287 L290,302 " fill="none" filter="url(#fgadmt5lha9e8)" style="stroke: #A80036; stroke-width: 1.5;"/><text fill="#000000" font-family="sans-serif" font-size="14" lengthAdjust="spacingAndGlyphs" textLength="37" x="258.5" y="323.6533">String</text><!--MD5=[f377e298bed86e2d12ba7ff5759bbd65]
link actor1671179293 to UC758348212--><path d="M35.01,155.41 C44.76,148.32 58.38,138.84 71,131.5 C88.52,121.31 109.54,111.39 123.94,104.92 " fill="none" id="actor1671179293-UC758348212" style="stroke: #A80036; stroke-width: 1.0;"/><!--MD5=[4d8b3ce1caa6d28ae37ca636d8445823]
link actor1671179293 to UC817978763--><path d="M35.21,165.5 C49.74,165.5 73.48,165.5 94.8,165.5 " fill="none" id="actor1671179293-UC817978763" style="stroke: #A80036; stroke-width: 1.0;"/><!--MD5=[d4c4be9fd1d6800cc1955318fd2f2c9f]
link UC817978763 to actor1144068272--><path d="M189.14,165.5 C211.95,165.5 238.3,165.5 255.94,165.5 " fill="none" id="UC817978763-actor1144068272" style="stroke: #A80036; stroke-width: 1.0;"/><!--MD5=[e4a378ca6293a4e57cc46d4cb670c938]
link UC758348212 to actor1609124502--><path d="M160.39,90.83 C182.92,82.19 222.45,67.04 248.93,56.88 " fill="none" id="UC758348212-actor1609124502" style="stroke: #A80036; stroke-width: 1.0;"/><!--MD5=[ec43cf934014b22255dc6b19f3e3c93c]
link actor1671179293 to UC1578009262--><path d="M35.21,178.69 C57.77,200.4 102.55,243.5 125.96,266.02 " fill="none" id="actor1671179293-UC1578009262" style="stroke: #A80036; stroke-width: 1.0;"/><!--MD5=[094ada96c0e0f7738257ac2de195bb22]
link UC1578009262 to actor1985836631--><path d="M174.52,281.45 C200.64,282.23 236.82,283.32 258.18,283.96 " fill="none" id="UC1578009262-actor1985836631" style="stroke: #A80036; stroke-width: 1.0;"/><!--MD5=[8facb599fe993ef28c4ec71fc5aa8f76]
@startuml
 left to right direction

actor User as actor1671179293

	rectangle buy{
	 usecase add as UC758348212
	actor1671179293- -UC758348212
	 usecase getMoney as UC817978763
	actor1671179293- -UC817978763
	}
	actor Goods as actor1144068272
	 UC817978763 - - actor1144068272
	actor ArrayList as actor1609124502
	 UC758348212 - - actor1609124502
	rectangle chckPwd{
	 usecase equals as UC1578009262
	actor1671179293- -UC1578009262
	}
	actor String as actor1985836631
	 UC1578009262 - - actor1985836631

@enduml

PlantUML version 1.2020.19(Tue Oct 13 00:10:01 KST 2020)
(APACHE source distribution)
Java Runtime: Java(TM) SE Runtime Environment
JVM: Java HotSpot(TM) 64-Bit Server VM
Default Encoding: MS949
Language: ko
Country: KR
--></g></svg>