<?xml version="1.0" encoding="UTF-8" standalone="no"?><svg xmlns="http://www.w3.org/2000/svg" xmlns:xlink="http://www.w3.org/1999/xlink" contentScriptType="application/ecmascript" contentStyleType="text/css" height="534px" preserveAspectRatio="none" style="width:1181px;height:534px;" version="1.1" viewBox="0 0 1181 534" width="1181px" zoomAndPan="magnify"><defs><filter height="300%" id="f1h0dn5s4a70cj" width="300%" x="-1" y="-1"><feGaussianBlur result="blurOut" stdDeviation="2.0"/><feColorMatrix in="blurOut" result="blurOut2" type="matrix" values="0 0 0 0 0 0 0 0 0 0 0 0 0 0 0 0 0 0 .4 0"/><feOffset dx="4.0" dy="4.0" in="blurOut2" result="blurOut3"/><feBlend in="SourceGraphic" in2="blurOut3" mode="normal"/></filter></defs><g><!--MD5=[9fe873172f0e1ea17007c188037e2f3a]
cluster dataSet.stateNode.VarDecNode--><polygon fill="#FFFFFF" filter="url(#f1h0dn5s4a70cj)" points="306.5,6,532.5,6,539.5,31.2295,670.5,31.2295,670.5,527,306.5,527,306.5,6" style="stroke: #000000; stroke-width: 1.5;"/><line style="stroke: #000000; stroke-width: 1.5;" x1="306.5" x2="539.5" y1="31.2295" y2="31.2295"/><text fill="#000000" font-family="sans-serif" font-size="14" font-weight="bold" lengthAdjust="spacingAndGlyphs" textLength="220" x="310.5" y="24.1533">dataSet.stateNode.VarDecNode</text><!--MD5=[ed05d0c4ca206712fca6a7e801d99917]
cluster dataSet.stateNode.VarDecNode.dataSet.stateNode.VarDecNode--><polygon fill="#FFFFFF" filter="url(#f1h0dn5s4a70cj)" points="694.5,6,1144.5,6,1151.5,31.2295,1164.5,31.2295,1164.5,527,694.5,527,694.5,6" style="stroke: #000000; stroke-width: 1.5;"/><line style="stroke: #000000; stroke-width: 1.5;" x1="694.5" x2="1151.5" y1="31.2295" y2="31.2295"/><text fill="#000000" font-family="sans-serif" font-size="14" font-weight="bold" lengthAdjust="spacingAndGlyphs" textLength="444" x="698.5" y="24.1533">dataSet.stateNode.VarDecNode.dataSet.stateNode.VarDecNode</text><!--MD5=[91bd8df46ae27ba033c3b4acbcb4f2c8]
class dataSet.stateNode.VarDecNode.setType1225554563--><rect codeLine="21" fill="#FEFECE" filter="url(#f1h0dn5s4a70cj)" height="467.0488" id="dataSet.stateNode.VarDecNode.setType1225554563" style="stroke: #008000; stroke-width: 1.5;" width="331" x="323" y="44"/><ellipse cx="416.75" cy="60" fill="#ADD1B2" rx="11" ry="11" style="stroke: #008000; stroke-width: 1.0;"/><path d="M416.5781,53.4844 Q414.7031,53.4844 413.5469,55.2344 Q412.3594,57.0156 412.3594,60.0156 Q412.3594,63.3906 413.5625,65.1563 Q414.625,66.7813 416.375,66.7813 Q418.0625,66.7813 419.0156,65.875 Q420.0781,64.8594 420.2188,62.625 Q420.2188,62.2031 419.9844,61.9688 Q419.7969,61.7344 419.4531,61.7031 Q419.125,61.7031 418.8906,61.8906 Q418.625,62.125 418.625,62.5156 Q418.5938,63.9063 418,64.6406 Q417.4688,65.3438 416.5156,65.3438 Q415.3594,65.3438 414.6406,63.9063 Q413.9219,62.4063 413.9219,59.9844 Q413.9219,57.4375 414.8125,56.0469 Q415.5625,54.9219 416.7031,54.9219 Q417.3594,54.9219 417.8594,55.4688 Q418.4219,56.0781 418.5469,57.1406 Q418.5938,57.8438 419.4219,57.7344 Q420.2031,57.625 420.1563,56.9375 Q419.9688,55.4219 419.2031,54.5469 Q418.2656,53.4844 416.5781,53.4844 Z "/><text fill="#000000" font-family="sans-serif" font-size="12" lengthAdjust="spacingAndGlyphs" textLength="135" x="437.25" y="65.6045">setType(java.lang.String)</text><line style="stroke: #008000; stroke-width: 1.5;" x1="324" x2="653" y1="76" y2="76"/><text fill="#000000" font-family="sans-serif" font-size="11" lengthAdjust="spacingAndGlyphs" textLength="118" x="329" y="92.6919">pram : (java.lang.String )</text><text fill="#000000" font-family="sans-serif" font-size="11" lengthAdjust="spacingAndGlyphs" textLength="258" x="329" y="107.8008">SrcOwnClassName : dataSet.stateNode.VarDecNode</text><text fill="#000000" font-family="sans-serif" font-size="11" lengthAdjust="spacingAndGlyphs" textLength="319" x="329" y="122.9097">SrcSig : dataSet.stateNode.VarDecNode.setType(java.lang.String)</text><text fill="#000000" font-family="sans-serif" font-size="11" lengthAdjust="spacingAndGlyphs" textLength="145" x="329" y="138.0186">Sig : setType(java.lang.String)</text><text fill="#000000" font-family="sans-serif" font-size="11" lengthAdjust="spacingAndGlyphs" textLength="96" x="329" y="172.2363">parameter Score : 1</text><text fill="#000000" font-family="sans-serif" font-size="11" lengthAdjust="spacingAndGlyphs" textLength="90" x="329" y="187.3452">classCall Score : 0</text><text fill="#000000" font-family="sans-serif" font-size="11" lengthAdjust="spacingAndGlyphs" textLength="64" x="329" y="202.4541">Call Score : 2</text><text fill="#000000" font-family="sans-serif" font-size="11" lengthAdjust="spacingAndGlyphs" textLength="77" x="329" y="217.563">CallBy Score : 0</text><text fill="#000000" font-family="sans-serif" font-size="11" lengthAdjust="spacingAndGlyphs" textLength="104" x="329" y="232.6719">memberUse Score : 2</text><text fill="#000000" font-family="sans-serif" font-size="11" lengthAdjust="spacingAndGlyphs" textLength="97" x="329" y="247.7808">localValue Score : 1</text><text fill="#000000" font-family="sans-serif" font-size="11" lengthAdjust="spacingAndGlyphs" textLength="65" x="329" y="262.8896">exp Score : 0</text><text fill="#000000" font-family="sans-serif" font-size="11" lengthAdjust="spacingAndGlyphs" textLength="78" x="329" y="277.9985">repeat Score : 0</text><text fill="#000000" font-family="sans-serif" font-size="11" lengthAdjust="spacingAndGlyphs" textLength="81" x="329" y="293.1074">brench Score : 0</text><text fill="#000000" font-family="sans-serif" font-size="11" lengthAdjust="spacingAndGlyphs" textLength="80" x="329" y="308.2163">callCountNum : 1</text><text fill="#000000" font-family="sans-serif" font-size="11" lengthAdjust="spacingAndGlyphs" textLength="66" x="329" y="323.3252">cyclomatic : 1</text><text fill="#000000" font-family="sans-serif" font-size="11" lengthAdjust="spacingAndGlyphs" textLength="105" x="329" y="338.4341">State Node lineNum: 1</text><text fill="#000000" font-family="sans-serif" font-size="11" lengthAdjust="spacingAndGlyphs" textLength="92" x="329" y="353.543">State Node Num : 0</text><text fill="#000000" font-family="sans-serif" font-size="11" lengthAdjust="spacingAndGlyphs" textLength="122" x="329" y="368.6519">State Node callListSize: 0</text><text fill="#000000" font-family="sans-serif" font-size="11" lengthAdjust="spacingAndGlyphs" textLength="123" x="329" y="383.7607">State Node repeatSize : 0</text><text fill="#000000" font-family="sans-serif" font-size="11" lengthAdjust="spacingAndGlyphs" textLength="117" x="329" y="398.8696">State Node writeSize : 1</text><text fill="#000000" font-family="sans-serif" font-size="11" lengthAdjust="spacingAndGlyphs" textLength="114" x="329" y="413.9785">State Node bifurSize : 0</text><text fill="#000000" font-family="sans-serif" font-size="11" lengthAdjust="spacingAndGlyphs" textLength="198" x="329" y="429.0874">Calculated Estunated Program Length: 10</text><text fill="#000000" font-family="sans-serif" font-size="11" lengthAdjust="spacingAndGlyphs" textLength="84" x="329" y="444.1963">Volume : 20.6797</text><text fill="#000000" font-family="sans-serif" font-size="11" lengthAdjust="spacingAndGlyphs" textLength="58" x="329" y="459.3052">Diffifculty: 4</text><text fill="#000000" font-family="sans-serif" font-size="11" lengthAdjust="spacingAndGlyphs" textLength="75" x="329" y="474.4141">Effort : 82.7188</text><text fill="#000000" font-family="sans-serif" font-size="11" lengthAdjust="spacingAndGlyphs" textLength="69" x="329" y="489.5229">ABS Score : 3</text><text fill="#000000" font-family="sans-serif" font-size="11" lengthAdjust="spacingAndGlyphs" textLength="85" x="329" y="504.6318">Relative Score : 3</text><line style="stroke: #008000; stroke-width: 1.5;" x1="324" x2="452" y1="151.99" y2="151.99"/><text fill="#FFA500" font-family="sans-serif" font-size="11" font-weight="bold" lengthAdjust="spacingAndGlyphs" textLength="73" x="452" y="156.6274">Complex Info</text><line style="stroke: #008000; stroke-width: 1.5;" x1="525" x2="653" y1="151.99" y2="151.99"/><!--MD5=[b57226e0c6074798395183be5c5d9f85]
class dataSet.stateNode.VarDecNode.dataSet.stateNode.VarDecNode.VarDecNode2121443020--><rect codeLine="52" fill="#FEFECE" filter="url(#f1h0dn5s4a70cj)" height="467.0488" id="dataSet.stateNode.VarDecNode.dataSet.stateNode.VarDecNode.VarDecNode2121443020" style="stroke: #008000; stroke-width: 1.5;" width="437" x="711" y="44"/><ellipse cx="797.25" cy="60" fill="#ADD1B2" rx="11" ry="11" style="stroke: #008000; stroke-width: 1.0;"/><path d="M797.0781,53.4844 Q795.2031,53.4844 794.0469,55.2344 Q792.8594,57.0156 792.8594,60.0156 Q792.8594,63.3906 794.0625,65.1563 Q795.125,66.7813 796.875,66.7813 Q798.5625,66.7813 799.5156,65.875 Q800.5781,64.8594 800.7188,62.625 Q800.7188,62.2031 800.4844,61.9688 Q800.2969,61.7344 799.9531,61.7031 Q799.625,61.7031 799.3906,61.8906 Q799.125,62.125 799.125,62.5156 Q799.0938,63.9063 798.5,64.6406 Q797.9688,65.3438 797.0156,65.3438 Q795.8594,65.3438 795.1406,63.9063 Q794.4219,62.4063 794.4219,59.9844 Q794.4219,57.4375 795.3125,56.0469 Q796.0625,54.9219 797.2031,54.9219 Q797.8594,54.9219 798.3594,55.4688 Q798.9219,56.0781 799.0469,57.1406 Q799.0938,57.8438 799.9219,57.7344 Q800.7031,57.625 800.6563,56.9375 Q800.4688,55.4219 799.7031,54.5469 Q798.7656,53.4844 797.0781,53.4844 Z "/><text fill="#000000" font-family="sans-serif" font-size="12" lengthAdjust="spacingAndGlyphs" textLength="256" x="817.75" y="65.6045">dataSet.stateNode.VarDecNode.VarDecNode()</text><line style="stroke: #008000; stroke-width: 1.5;" x1="712" x2="1147" y1="76" y2="76"/><text fill="#000000" font-family="sans-serif" font-size="11" lengthAdjust="spacingAndGlyphs" textLength="44" x="717" y="92.6919">pram : ( )</text><text fill="#000000" font-family="sans-serif" font-size="11" lengthAdjust="spacingAndGlyphs" textLength="258" x="717" y="107.8008">SrcOwnClassName : dataSet.stateNode.VarDecNode</text><text fill="#000000" font-family="sans-serif" font-size="11" lengthAdjust="spacingAndGlyphs" textLength="425" x="717" y="122.9097">SrcSig : dataSet.stateNode.VarDecNode.dataSet.stateNode.VarDecNode.VarDecNode()</text><text fill="#000000" font-family="sans-serif" font-size="11" lengthAdjust="spacingAndGlyphs" textLength="251" x="717" y="138.0186">Sig : dataSet.stateNode.VarDecNode.VarDecNode()</text><text fill="#000000" font-family="sans-serif" font-size="11" lengthAdjust="spacingAndGlyphs" textLength="96" x="717" y="172.2363">parameter Score : 0</text><text fill="#000000" font-family="sans-serif" font-size="11" lengthAdjust="spacingAndGlyphs" textLength="90" x="717" y="187.3452">classCall Score : 0</text><text fill="#000000" font-family="sans-serif" font-size="11" lengthAdjust="spacingAndGlyphs" textLength="64" x="717" y="202.4541">Call Score : 0</text><text fill="#000000" font-family="sans-serif" font-size="11" lengthAdjust="spacingAndGlyphs" textLength="77" x="717" y="217.563">CallBy Score : 2</text><text fill="#000000" font-family="sans-serif" font-size="11" lengthAdjust="spacingAndGlyphs" textLength="104" x="717" y="232.6719">memberUse Score : 0</text><text fill="#000000" font-family="sans-serif" font-size="11" lengthAdjust="spacingAndGlyphs" textLength="97" x="717" y="247.7808">localValue Score : 0</text><text fill="#000000" font-family="sans-serif" font-size="11" lengthAdjust="spacingAndGlyphs" textLength="65" x="717" y="262.8896">exp Score : 0</text><text fill="#000000" font-family="sans-serif" font-size="11" lengthAdjust="spacingAndGlyphs" textLength="78" x="717" y="277.9985">repeat Score : 0</text><text fill="#000000" font-family="sans-serif" font-size="11" lengthAdjust="spacingAndGlyphs" textLength="81" x="717" y="293.1074">brench Score : 0</text><text fill="#000000" font-family="sans-serif" font-size="11" lengthAdjust="spacingAndGlyphs" textLength="80" x="717" y="308.2163">callCountNum : 0</text><text fill="#000000" font-family="sans-serif" font-size="11" lengthAdjust="spacingAndGlyphs" textLength="66" x="717" y="323.3252">cyclomatic : 1</text><text fill="#000000" font-family="sans-serif" font-size="11" lengthAdjust="spacingAndGlyphs" textLength="105" x="717" y="338.4341">State Node lineNum: 0</text><text fill="#000000" font-family="sans-serif" font-size="11" lengthAdjust="spacingAndGlyphs" textLength="92" x="717" y="353.543">State Node Num : 0</text><text fill="#000000" font-family="sans-serif" font-size="11" lengthAdjust="spacingAndGlyphs" textLength="122" x="717" y="368.6519">State Node callListSize: 0</text><text fill="#000000" font-family="sans-serif" font-size="11" lengthAdjust="spacingAndGlyphs" textLength="123" x="717" y="383.7607">State Node repeatSize : 0</text><text fill="#000000" font-family="sans-serif" font-size="11" lengthAdjust="spacingAndGlyphs" textLength="117" x="717" y="398.8696">State Node writeSize : 0</text><text fill="#000000" font-family="sans-serif" font-size="11" lengthAdjust="spacingAndGlyphs" textLength="114" x="717" y="413.9785">State Node bifurSize : 0</text><text fill="#000000" font-family="sans-serif" font-size="11" lengthAdjust="spacingAndGlyphs" textLength="206" x="717" y="429.0874">Calculated Estunated Program Length: NaN</text><text fill="#000000" font-family="sans-serif" font-size="11" lengthAdjust="spacingAndGlyphs" textLength="65" x="717" y="444.1963">Volume : NaN</text><text fill="#000000" font-family="sans-serif" font-size="11" lengthAdjust="spacingAndGlyphs" textLength="72" x="717" y="459.3052">Diffifculty: NaN</text><text fill="#000000" font-family="sans-serif" font-size="11" lengthAdjust="spacingAndGlyphs" textLength="56" x="717" y="474.4141">Effort : NaN</text><text fill="#000000" font-family="sans-serif" font-size="11" lengthAdjust="spacingAndGlyphs" textLength="69" x="717" y="489.5229">ABS Score : 0</text><text fill="#000000" font-family="sans-serif" font-size="11" lengthAdjust="spacingAndGlyphs" textLength="85" x="717" y="504.6318">Relative Score : 0</text><line style="stroke: #008000; stroke-width: 1.5;" x1="712" x2="893" y1="151.99" y2="151.99"/><text fill="#FFA500" font-family="sans-serif" font-size="11" font-weight="bold" lengthAdjust="spacingAndGlyphs" textLength="73" x="893" y="156.6274">Complex Info</text><line style="stroke: #008000; stroke-width: 1.5;" x1="966" x2="1147" y1="151.99" y2="151.99"/><!--MD5=[f04bc90bf33944b7fab332a83ab18852]
class ClassComplex--><rect codeLine="1" fill="#FEFECE" filter="url(#f1h0dn5s4a70cj)" height="304.8511" id="ClassComplex" style="stroke: #A80036; stroke-width: 1.5;" width="281" x="7" y="125"/><ellipse cx="102.25" cy="141" fill="#ADD1B2" rx="11" ry="11" style="stroke: #A80036; stroke-width: 1.0;"/><path d="M102.0781,134.4844 Q100.2031,134.4844 99.0469,136.2344 Q97.8594,138.0156 97.8594,141.0156 Q97.8594,144.3906 99.0625,146.1563 Q100.125,147.7813 101.875,147.7813 Q103.5625,147.7813 104.5156,146.875 Q105.5781,145.8594 105.7188,143.625 Q105.7188,143.2031 105.4844,142.9688 Q105.2969,142.7344 104.9531,142.7031 Q104.625,142.7031 104.3906,142.8906 Q104.125,143.125 104.125,143.5156 Q104.0938,144.9063 103.5,145.6406 Q102.9688,146.3438 102.0156,146.3438 Q100.8594,146.3438 100.1406,144.9063 Q99.4219,143.4063 99.4219,140.9844 Q99.4219,138.4375 100.3125,137.0469 Q101.0625,135.9219 102.2031,135.9219 Q102.8594,135.9219 103.3594,136.4688 Q103.9219,137.0781 104.0469,138.1406 Q104.0938,138.8438 104.9219,138.7344 Q105.7031,138.625 105.6563,137.9375 Q105.4688,136.4219 104.7031,135.5469 Q103.7656,134.4844 102.0781,134.4844 Z "/><text fill="#000000" font-family="sans-serif" font-size="12" lengthAdjust="spacingAndGlyphs" textLength="82" x="122.75" y="146.6045">ClassComplex</text><line style="stroke: #A80036; stroke-width: 1.5;" x1="8" x2="287" y1="157" y2="157"/><text fill="#000000" font-family="sans-serif" font-size="11" lengthAdjust="spacingAndGlyphs" textLength="79" x="13" y="192.8008">memberScor = 1</text><text fill="#000000" font-family="sans-serif" font-size="11" lengthAdjust="spacingAndGlyphs" textLength="113" x="13" y="207.9097">extendsClassScore = 1</text><text fill="#000000" font-family="sans-serif" font-size="11" lengthAdjust="spacingAndGlyphs" textLength="63" x="13" y="223.0186">callScore = 1</text><text fill="#000000" font-family="sans-serif" font-size="11" lengthAdjust="spacingAndGlyphs" textLength="76" x="13" y="238.1274">callByScore = 1</text><text fill="#000000" font-family="sans-serif" font-size="11" lengthAdjust="spacingAndGlyphs" textLength="74" x="13" y="253.2363">methodNum = 2</text><text fill="#000000" font-family="sans-serif" font-size="11" lengthAdjust="spacingAndGlyphs" textLength="77" x="13" y="268.3452">memberNum = 1</text><text fill="#000000" font-family="sans-serif" font-size="11" lengthAdjust="spacingAndGlyphs" textLength="95" x="13" y="283.4541">constructorNum = 1</text><text fill="#000000" font-family="sans-serif" font-size="11" lengthAdjust="spacingAndGlyphs" textLength="83" x="13" y="298.563">selfCoverage = 1</text><text fill="#000000" font-family="sans-serif" font-size="11" lengthAdjust="spacingAndGlyphs" textLength="72" x="13" y="313.6719">needCallBy = 2</text><text fill="#000000" font-family="sans-serif" font-size="11" lengthAdjust="spacingAndGlyphs" textLength="40" x="13" y="328.7808">ABS = 6</text><text fill="#000000" font-family="sans-serif" font-size="11" lengthAdjust="spacingAndGlyphs" textLength="37" x="13" y="343.8896">REL = 2</text><text fill="#000000" font-family="sans-serif" font-size="11" lengthAdjust="spacingAndGlyphs" textLength="89" x="13" y="358.9985">coverage = 33.0%</text><line style="stroke: #A80036; stroke-width: 1.5;" x1="8" x2="111" y1="172.5544" y2="172.5544"/><text fill="#FFA500" font-family="sans-serif" font-size="11" font-weight="bold" lengthAdjust="spacingAndGlyphs" textLength="73" x="111" y="177.1919">Complex Info</text><line style="stroke: #A80036; stroke-width: 1.5;" x1="184" x2="287" y1="172.5544" y2="172.5544"/><text fill="#008000" font-family="sans-serif" font-size="11" lengthAdjust="spacingAndGlyphs" textLength="115" x="13" y="393.2163">java.lang.String type (1)</text><text fill="#008000" font-family="sans-serif" font-size="11" lengthAdjust="spacingAndGlyphs" textLength="161" x="13" y="408.3252">void setType(java.lang.String) (3)</text><text fill="#008000" font-family="sans-serif" font-size="11" lengthAdjust="spacingAndGlyphs" textLength="269" x="13" y="423.4341">new dataSet.stateNode.VarDecNode.VarDecNode() (0)</text><line style="stroke: #A80036; stroke-width: 1.5;" x1="8" x2="127.5" y1="372.97" y2="372.97"/><text fill="#008000" font-family="sans-serif" font-size="11" font-weight="bold" lengthAdjust="spacingAndGlyphs" textLength="40" x="127.5" y="377.6074">has list</text><line style="stroke: #A80036; stroke-width: 1.5;" x1="167.5" x2="287" y1="372.97" y2="372.97"/><!--MD5=[d8d17875f29ddeb57e1fbddad184568b]
@startuml
class ClassComplex{
__**<color:orange>Complex Info</color>**__
	memberScor = 1
	extendsClassScore = 1
	callScore = 1
	callByScore = 1
	methodNum = 2
	memberNum = 1
	constructorNum = 1
	selfCoverage = 1
	needCallBy = 2
	ABS = 6
	REL = 2
	coverage = 33.0%
__**<color:green>has list</color>**__
	<color:green>java.lang.String type (1)
	<color:green>void setType(java.lang.String) (3)
	<color:green>new dataSet.stateNode.VarDecNode.VarDecNode() (0)
}

class dataSet.stateNode.VarDecNode.setType1225554563 as "setType(java.lang.String)"#line:green 
{
	pram : (java.lang.String )
	SrcOwnClassName : dataSet.stateNode.VarDecNode
	SrcSig : dataSet.stateNode.VarDecNode.setType(java.lang.String)
	Sig : setType(java.lang.String)
	__**<color:orange>Complex Info</color>**__
	parameter Score : 1
	classCall Score : 0
	Call Score : 2
	CallBy Score : 0
	memberUse Score : 2
	localValue Score : 1
	exp Score : 0
	repeat Score : 0
	brench Score : 0
	callCountNum : 1
	cyclomatic : 1
	State Node lineNum: 1
	State Node Num : 0
	State Node callListSize: 0
	State Node repeatSize : 0
	State Node writeSize : 1
	State Node bifurSize : 0
	Calculated Estunated Program Length: 10
	Volume : 20.6797
	Diffifculty: 4
	Effort : 82.7188
	ABS Score : 3
	Relative Score : 3
}
class dataSet.stateNode.VarDecNode.dataSet.stateNode.VarDecNode.VarDecNode2121443020 as "dataSet.stateNode.VarDecNode.VarDecNode()"#line:green 
{
	pram : ( )
	SrcOwnClassName : dataSet.stateNode.VarDecNode
	SrcSig : dataSet.stateNode.VarDecNode.dataSet.stateNode.VarDecNode.VarDecNode()
	Sig : dataSet.stateNode.VarDecNode.VarDecNode()
	__**<color:orange>Complex Info</color>**__
	parameter Score : 0
	classCall Score : 0
	Call Score : 0
	CallBy Score : 2
	memberUse Score : 0
	localValue Score : 0
	exp Score : 0
	repeat Score : 0
	brench Score : 0
	callCountNum : 0
	cyclomatic : 1
	State Node lineNum: 0
	State Node Num : 0
	State Node callListSize: 0
	State Node repeatSize : 0
	State Node writeSize : 0
	State Node bifurSize : 0
	Calculated Estunated Program Length: NaN
	Volume : NaN
	Diffifculty: NaN
	Effort : NaN
	ABS Score : 0
	Relative Score : 0
}

@enduml

PlantUML version 1.2020.19(Tue Oct 13 00:10:01 KST 2020)
(APACHE source distribution)
Java Runtime: Java(TM) SE Runtime Environment
JVM: Java HotSpot(TM) 64-Bit Server VM
Default Encoding: MS949
Language: ko
Country: KR
--></g></svg>