<?xml version="1.0" encoding="UTF-8" standalone="no"?><svg xmlns="http://www.w3.org/2000/svg" xmlns:xlink="http://www.w3.org/1999/xlink" contentScriptType="application/ecmascript" contentStyleType="text/css" height="534px" preserveAspectRatio="none" style="width:586px;height:534px;" version="1.1" viewBox="0 0 586 534" width="586px" zoomAndPan="magnify"><defs><filter height="300%" id="f1kyxto9205j47" width="300%" x="-1" y="-1"><feGaussianBlur result="blurOut" stdDeviation="2.0"/><feColorMatrix in="blurOut" result="blurOut2" type="matrix" values="0 0 0 0 0 0 0 0 0 0 0 0 0 0 0 0 0 0 .4 0"/><feOffset dx="4.0" dy="4.0" in="blurOut2" result="blurOut3"/><feBlend in="SourceGraphic" in2="blurOut3" mode="normal"/></filter></defs><g><!--MD5=[8db0a13f75f45c10852c628a38df8d16]
cluster main.MethodVisitor--><polygon fill="#FFFFFF" filter="url(#f1kyxto9205j47)" points="235.5,6,377.5,6,384.5,31.2295,569.5,31.2295,569.5,527,235.5,527,235.5,6" style="stroke: #000000; stroke-width: 1.5;"/><line style="stroke: #000000; stroke-width: 1.5;" x1="235.5" x2="384.5" y1="31.2295" y2="31.2295"/><text fill="#000000" font-family="sans-serif" font-size="14" font-weight="bold" lengthAdjust="spacingAndGlyphs" textLength="136" x="239.5" y="24.1533">main.MethodVisitor</text><!--MD5=[85b106e33f0f4595e27817e229d8e19c]
class main.MethodVisitor.MethodVisitor798639105--><rect codeLine="19" fill="#FEFECE" filter="url(#f1kyxto9205j47)" height="467.0488" id="main.MethodVisitor.MethodVisitor798639105" style="stroke: #A80036; stroke-width: 1.5;" width="302" x="251.5" y="44"/><ellipse cx="311.25" cy="60" fill="#ADD1B2" rx="11" ry="11" style="stroke: #A80036; stroke-width: 1.0;"/><path d="M311.0781,53.4844 Q309.2031,53.4844 308.0469,55.2344 Q306.8594,57.0156 306.8594,60.0156 Q306.8594,63.3906 308.0625,65.1563 Q309.125,66.7813 310.875,66.7813 Q312.5625,66.7813 313.5156,65.875 Q314.5781,64.8594 314.7188,62.625 Q314.7188,62.2031 314.4844,61.9688 Q314.2969,61.7344 313.9531,61.7031 Q313.625,61.7031 313.3906,61.8906 Q313.125,62.125 313.125,62.5156 Q313.0938,63.9063 312.5,64.6406 Q311.9688,65.3438 311.0156,65.3438 Q309.8594,65.3438 309.1406,63.9063 Q308.4219,62.4063 308.4219,59.9844 Q308.4219,57.4375 309.3125,56.0469 Q310.0625,54.9219 311.2031,54.9219 Q311.8594,54.9219 312.3594,55.4688 Q312.9219,56.0781 313.0469,57.1406 Q313.0938,57.8438 313.9219,57.7344 Q314.7031,57.625 314.6563,56.9375 Q314.4688,55.4219 313.7031,54.5469 Q312.7656,53.4844 311.0781,53.4844 Z "/><text fill="#000000" font-family="sans-serif" font-size="12" lengthAdjust="spacingAndGlyphs" textLength="174" x="331.75" y="65.6045">MethodVisitor(dataSet.Function)</text><line style="stroke: #A80036; stroke-width: 1.5;" x1="252.5" x2="552.5" y1="76" y2="76"/><text fill="#000000" font-family="sans-serif" font-size="11" lengthAdjust="spacingAndGlyphs" textLength="125" x="257.5" y="92.6919">pram : (dataSet.Function )</text><text fill="#000000" font-family="sans-serif" font-size="11" lengthAdjust="spacingAndGlyphs" textLength="195" x="257.5" y="107.8008">SrcOwnClassName : main.MethodVisitor</text><text fill="#000000" font-family="sans-serif" font-size="11" lengthAdjust="spacingAndGlyphs" textLength="290" x="257.5" y="122.9097">SrcSig : main.MethodVisitor.MethodVisitor(dataSet.Function)</text><text fill="#000000" font-family="sans-serif" font-size="11" lengthAdjust="spacingAndGlyphs" textLength="179" x="257.5" y="138.0186">Sig : MethodVisitor(dataSet.Function)</text><text fill="#000000" font-family="sans-serif" font-size="11" lengthAdjust="spacingAndGlyphs" textLength="96" x="257.5" y="172.2363">parameter Score : 2</text><text fill="#000000" font-family="sans-serif" font-size="11" lengthAdjust="spacingAndGlyphs" textLength="90" x="257.5" y="187.3452">classCall Score : 3</text><text fill="#000000" font-family="sans-serif" font-size="11" lengthAdjust="spacingAndGlyphs" textLength="64" x="257.5" y="202.4541">Call Score : 3</text><text fill="#000000" font-family="sans-serif" font-size="11" lengthAdjust="spacingAndGlyphs" textLength="77" x="257.5" y="217.563">CallBy Score : 0</text><text fill="#000000" font-family="sans-serif" font-size="11" lengthAdjust="spacingAndGlyphs" textLength="104" x="257.5" y="232.6719">memberUse Score : 0</text><text fill="#000000" font-family="sans-serif" font-size="11" lengthAdjust="spacingAndGlyphs" textLength="97" x="257.5" y="247.7808">localValue Score : 1</text><text fill="#000000" font-family="sans-serif" font-size="11" lengthAdjust="spacingAndGlyphs" textLength="65" x="257.5" y="262.8896">exp Score : 0</text><text fill="#000000" font-family="sans-serif" font-size="11" lengthAdjust="spacingAndGlyphs" textLength="78" x="257.5" y="277.9985">repeat Score : 0</text><text fill="#000000" font-family="sans-serif" font-size="11" lengthAdjust="spacingAndGlyphs" textLength="81" x="257.5" y="293.1074">brench Score : 0</text><text fill="#000000" font-family="sans-serif" font-size="11" lengthAdjust="spacingAndGlyphs" textLength="80" x="257.5" y="308.2163">callCountNum : 1</text><text fill="#000000" font-family="sans-serif" font-size="11" lengthAdjust="spacingAndGlyphs" textLength="66" x="257.5" y="323.3252">cyclomatic : 1</text><text fill="#000000" font-family="sans-serif" font-size="11" lengthAdjust="spacingAndGlyphs" textLength="105" x="257.5" y="338.4341">State Node lineNum: 1</text><text fill="#000000" font-family="sans-serif" font-size="11" lengthAdjust="spacingAndGlyphs" textLength="92" x="257.5" y="353.543">State Node Num : 0</text><text fill="#000000" font-family="sans-serif" font-size="11" lengthAdjust="spacingAndGlyphs" textLength="122" x="257.5" y="368.6519">State Node callListSize: 0</text><text fill="#000000" font-family="sans-serif" font-size="11" lengthAdjust="spacingAndGlyphs" textLength="123" x="257.5" y="383.7607">State Node repeatSize : 0</text><text fill="#000000" font-family="sans-serif" font-size="11" lengthAdjust="spacingAndGlyphs" textLength="117" x="257.5" y="398.8696">State Node writeSize : 0</text><text fill="#000000" font-family="sans-serif" font-size="11" lengthAdjust="spacingAndGlyphs" textLength="114" x="257.5" y="413.9785">State Node bifurSize : 0</text><text fill="#000000" font-family="sans-serif" font-size="11" lengthAdjust="spacingAndGlyphs" textLength="206" x="257.5" y="429.0874">Calculated Estunated Program Length: NaN</text><text fill="#000000" font-family="sans-serif" font-size="11" lengthAdjust="spacingAndGlyphs" textLength="51" x="257.5" y="444.1963">Volume : 0</text><text fill="#000000" font-family="sans-serif" font-size="11" lengthAdjust="spacingAndGlyphs" textLength="72" x="257.5" y="459.3052">Diffifculty: NaN</text><text fill="#000000" font-family="sans-serif" font-size="11" lengthAdjust="spacingAndGlyphs" textLength="56" x="257.5" y="474.4141">Effort : NaN</text><text fill="#000000" font-family="sans-serif" font-size="11" lengthAdjust="spacingAndGlyphs" textLength="69" x="257.5" y="489.5229">ABS Score : 5</text><text fill="#000000" font-family="sans-serif" font-size="11" lengthAdjust="spacingAndGlyphs" textLength="85" x="257.5" y="504.6318">Relative Score : 5</text><line style="stroke: #A80036; stroke-width: 1.5;" x1="252.5" x2="366" y1="151.99" y2="151.99"/><text fill="#FFA500" font-family="sans-serif" font-size="11" font-weight="bold" lengthAdjust="spacingAndGlyphs" textLength="73" x="366" y="156.6274">Complex Info</text><line style="stroke: #A80036; stroke-width: 1.5;" x1="439" x2="552.5" y1="151.99" y2="151.99"/><!--MD5=[f04bc90bf33944b7fab332a83ab18852]
class ClassComplex--><rect codeLine="1" fill="#FEFECE" filter="url(#f1kyxto9205j47)" height="274.6333" id="ClassComplex" style="stroke: #A80036; stroke-width: 1.5;" width="209" x="7" y="140"/><ellipse cx="66.25" cy="156" fill="#ADD1B2" rx="11" ry="11" style="stroke: #A80036; stroke-width: 1.0;"/><path d="M66.0781,149.4844 Q64.2031,149.4844 63.0469,151.2344 Q61.8594,153.0156 61.8594,156.0156 Q61.8594,159.3906 63.0625,161.1563 Q64.125,162.7813 65.875,162.7813 Q67.5625,162.7813 68.5156,161.875 Q69.5781,160.8594 69.7188,158.625 Q69.7188,158.2031 69.4844,157.9688 Q69.2969,157.7344 68.9531,157.7031 Q68.625,157.7031 68.3906,157.8906 Q68.125,158.125 68.125,158.5156 Q68.0938,159.9063 67.5,160.6406 Q66.9688,161.3438 66.0156,161.3438 Q64.8594,161.3438 64.1406,159.9063 Q63.4219,158.4063 63.4219,155.9844 Q63.4219,153.4375 64.3125,152.0469 Q65.0625,150.9219 66.2031,150.9219 Q66.8594,150.9219 67.3594,151.4688 Q67.9219,152.0781 68.0469,153.1406 Q68.0938,153.8438 68.9219,153.7344 Q69.7031,153.625 69.6563,152.9375 Q69.4688,151.4219 68.7031,150.5469 Q67.7656,149.4844 66.0781,149.4844 Z "/><text fill="#000000" font-family="sans-serif" font-size="12" lengthAdjust="spacingAndGlyphs" textLength="82" x="86.75" y="161.6045">ClassComplex</text><line style="stroke: #A80036; stroke-width: 1.5;" x1="8" x2="215" y1="172" y2="172"/><text fill="#000000" font-family="sans-serif" font-size="11" lengthAdjust="spacingAndGlyphs" textLength="79" x="13" y="207.8008">memberScor = 0</text><text fill="#000000" font-family="sans-serif" font-size="11" lengthAdjust="spacingAndGlyphs" textLength="113" x="13" y="222.9097">extendsClassScore = 1</text><text fill="#000000" font-family="sans-serif" font-size="11" lengthAdjust="spacingAndGlyphs" textLength="63" x="13" y="238.0186">callScore = 3</text><text fill="#000000" font-family="sans-serif" font-size="11" lengthAdjust="spacingAndGlyphs" textLength="76" x="13" y="253.1274">callByScore = 3</text><text fill="#000000" font-family="sans-serif" font-size="11" lengthAdjust="spacingAndGlyphs" textLength="74" x="13" y="268.2363">methodNum = 1</text><text fill="#000000" font-family="sans-serif" font-size="11" lengthAdjust="spacingAndGlyphs" textLength="77" x="13" y="283.3452">memberNum = 0</text><text fill="#000000" font-family="sans-serif" font-size="11" lengthAdjust="spacingAndGlyphs" textLength="95" x="13" y="298.4541">constructorNum = 1</text><text fill="#000000" font-family="sans-serif" font-size="11" lengthAdjust="spacingAndGlyphs" textLength="83" x="13" y="313.563">selfCoverage = 0</text><text fill="#000000" font-family="sans-serif" font-size="11" lengthAdjust="spacingAndGlyphs" textLength="72" x="13" y="328.6719">needCallBy = 1</text><text fill="#000000" font-family="sans-serif" font-size="11" lengthAdjust="spacingAndGlyphs" textLength="40" x="13" y="343.7808">ABS = 9</text><text fill="#000000" font-family="sans-serif" font-size="11" lengthAdjust="spacingAndGlyphs" textLength="37" x="13" y="358.8896">REL = 9</text><text fill="#000000" font-family="sans-serif" font-size="11" lengthAdjust="spacingAndGlyphs" textLength="83" x="13" y="373.9985">coverage = 0.0%</text><line style="stroke: #A80036; stroke-width: 1.5;" x1="8" x2="75" y1="187.5544" y2="187.5544"/><text fill="#FFA500" font-family="sans-serif" font-size="11" font-weight="bold" lengthAdjust="spacingAndGlyphs" textLength="73" x="75" y="192.1919">Complex Info</text><line style="stroke: #A80036; stroke-width: 1.5;" x1="148" x2="215" y1="187.5544" y2="187.5544"/><text fill="#FFA500" font-family="sans-serif" font-size="11" lengthAdjust="spacingAndGlyphs" textLength="197" x="13" y="408.2163">new MethodVisitor(dataSet.Function) (5)</text><line style="stroke: #A80036; stroke-width: 1.5;" x1="8" x2="91.5" y1="387.97" y2="387.97"/><text fill="#008000" font-family="sans-serif" font-size="11" font-weight="bold" lengthAdjust="spacingAndGlyphs" textLength="40" x="91.5" y="392.6074">has list</text><line style="stroke: #A80036; stroke-width: 1.5;" x1="131.5" x2="215" y1="387.97" y2="387.97"/><!--MD5=[7391f2aa717bdf7103600ffd17289f98]
@startuml
class ClassComplex{
__**<color:orange>Complex Info</color>**__
	memberScor = 0
	extendsClassScore = 1
	callScore = 3
	callByScore = 3
	methodNum = 1
	memberNum = 0
	constructorNum = 1
	selfCoverage = 0
	needCallBy = 1
	ABS = 9
	REL = 9
	coverage = 0.0%
__**<color:green>has list</color>**__
	<color:orange>new MethodVisitor(dataSet.Function) (5)
}

class main.MethodVisitor.MethodVisitor798639105 as "MethodVisitor(dataSet.Function)" 
{
	pram : (dataSet.Function )
	SrcOwnClassName : main.MethodVisitor
	SrcSig : main.MethodVisitor.MethodVisitor(dataSet.Function)
	Sig : MethodVisitor(dataSet.Function)
	__**<color:orange>Complex Info</color>**__
	parameter Score : 2
	classCall Score : 3
	Call Score : 3
	CallBy Score : 0
	memberUse Score : 0
	localValue Score : 1
	exp Score : 0
	repeat Score : 0
	brench Score : 0
	callCountNum : 1
	cyclomatic : 1
	State Node lineNum: 1
	State Node Num : 0
	State Node callListSize: 0
	State Node repeatSize : 0
	State Node writeSize : 0
	State Node bifurSize : 0
	Calculated Estunated Program Length: NaN
	Volume : 0
	Diffifculty: NaN
	Effort : NaN
	ABS Score : 5
	Relative Score : 5
}

@enduml

PlantUML version 1.2020.19(Tue Oct 13 00:10:01 KST 2020)
(APACHE source distribution)
Java Runtime: Java(TM) SE Runtime Environment
JVM: Java HotSpot(TM) 64-Bit Server VM
Default Encoding: MS949
Language: ko
Country: KR
--></g></svg>