<?xml version="1.0" encoding="UTF-8" standalone="no"?><svg xmlns="http://www.w3.org/2000/svg" xmlns:xlink="http://www.w3.org/1999/xlink" contentScriptType="application/ecmascript" contentStyleType="text/css" height="534px" preserveAspectRatio="none" style="width:863px;height:534px;" version="1.1" viewBox="0 0 863 534" width="863px" zoomAndPan="magnify"><defs><filter height="300%" id="fafgltxcy5vfi" width="300%" x="-1" y="-1"><feGaussianBlur result="blurOut" stdDeviation="2.0"/><feColorMatrix in="blurOut" result="blurOut2" type="matrix" values="0 0 0 0 0 0 0 0 0 0 0 0 0 0 0 0 0 0 .4 0"/><feOffset dx="4.0" dy="4.0" in="blurOut2" result="blurOut3"/><feBlend in="SourceGraphic" in2="blurOut3" mode="normal"/></filter></defs><g><!--MD5=[46f72c33cc25a3481e3d6c95062c4aec]
cluster org.eclipse.jdt.core.dom.TypeDeclaration--><polygon fill="#FFFFFF" filter="url(#fafgltxcy5vfi)" points="151.5,6,445.5,6,452.5,31.2295,846.5,31.2295,846.5,527,151.5,527,151.5,6" style="stroke: #000000; stroke-width: 1.5;"/><line style="stroke: #000000; stroke-width: 1.5;" x1="151.5" x2="452.5" y1="31.2295" y2="31.2295"/><text fill="#000000" font-family="sans-serif" font-size="14" font-weight="bold" lengthAdjust="spacingAndGlyphs" textLength="288" x="155.5" y="24.1533">org.eclipse.jdt.core.dom.TypeDeclaration</text><!--MD5=[d0946ebcde5801d3aa1a218e7ca3ca87]
class org.eclipse.jdt.core.dom.TypeDeclaration.getMethods719727542--><rect codeLine="20" fill="#FEFECE" filter="url(#fafgltxcy5vfi)" height="467.0488" id="org.eclipse.jdt.core.dom.TypeDeclaration.getMethods719727542" style="stroke: #008000; stroke-width: 1.5;" width="316" x="514.5" y="44"/><ellipse cx="632.25" cy="60" fill="#ADD1B2" rx="11" ry="11" style="stroke: #008000; stroke-width: 1.0;"/><path d="M632.0781,53.4844 Q630.2031,53.4844 629.0469,55.2344 Q627.8594,57.0156 627.8594,60.0156 Q627.8594,63.3906 629.0625,65.1563 Q630.125,66.7813 631.875,66.7813 Q633.5625,66.7813 634.5156,65.875 Q635.5781,64.8594 635.7188,62.625 Q635.7188,62.2031 635.4844,61.9688 Q635.2969,61.7344 634.9531,61.7031 Q634.625,61.7031 634.3906,61.8906 Q634.125,62.125 634.125,62.5156 Q634.0938,63.9063 633.5,64.6406 Q632.9688,65.3438 632.0156,65.3438 Q630.8594,65.3438 630.1406,63.9063 Q629.4219,62.4063 629.4219,59.9844 Q629.4219,57.4375 630.3125,56.0469 Q631.0625,54.9219 632.2031,54.9219 Q632.8594,54.9219 633.3594,55.4688 Q633.9219,56.0781 634.0469,57.1406 Q634.0938,57.8438 634.9219,57.7344 Q635.7031,57.625 635.6563,56.9375 Q635.4688,55.4219 634.7031,54.5469 Q633.7656,53.4844 632.0781,53.4844 Z "/><text fill="#000000" font-family="sans-serif" font-size="12" lengthAdjust="spacingAndGlyphs" textLength="72" x="652.75" y="65.6045">getMethods()</text><line style="stroke: #008000; stroke-width: 1.5;" x1="515.5" x2="829.5" y1="76" y2="76"/><text fill="#000000" font-family="sans-serif" font-size="11" lengthAdjust="spacingAndGlyphs" textLength="44" x="520.5" y="92.6919">pram : ( )</text><text fill="#000000" font-family="sans-serif" font-size="11" lengthAdjust="spacingAndGlyphs" textLength="300" x="520.5" y="107.8008">SrcOwnClassName : org.eclipse.jdt.core.dom.TypeDeclaration</text><text fill="#000000" font-family="sans-serif" font-size="11" lengthAdjust="spacingAndGlyphs" textLength="304" x="520.5" y="122.9097">SrcSig : org.eclipse.jdt.core.dom.TypeDeclaration.getMethods()</text><text fill="#000000" font-family="sans-serif" font-size="11" lengthAdjust="spacingAndGlyphs" textLength="88" x="520.5" y="138.0186">Sig : getMethods()</text><text fill="#000000" font-family="sans-serif" font-size="11" lengthAdjust="spacingAndGlyphs" textLength="96" x="520.5" y="172.2363">parameter Score : 0</text><text fill="#000000" font-family="sans-serif" font-size="11" lengthAdjust="spacingAndGlyphs" textLength="90" x="520.5" y="187.3452">classCall Score : 0</text><text fill="#000000" font-family="sans-serif" font-size="11" lengthAdjust="spacingAndGlyphs" textLength="64" x="520.5" y="202.4541">Call Score : 0</text><text fill="#000000" font-family="sans-serif" font-size="11" lengthAdjust="spacingAndGlyphs" textLength="77" x="520.5" y="217.563">CallBy Score : 2</text><text fill="#000000" font-family="sans-serif" font-size="11" lengthAdjust="spacingAndGlyphs" textLength="104" x="520.5" y="232.6719">memberUse Score : 0</text><text fill="#000000" font-family="sans-serif" font-size="11" lengthAdjust="spacingAndGlyphs" textLength="97" x="520.5" y="247.7808">localValue Score : 0</text><text fill="#000000" font-family="sans-serif" font-size="11" lengthAdjust="spacingAndGlyphs" textLength="65" x="520.5" y="262.8896">exp Score : 0</text><text fill="#000000" font-family="sans-serif" font-size="11" lengthAdjust="spacingAndGlyphs" textLength="78" x="520.5" y="277.9985">repeat Score : 0</text><text fill="#000000" font-family="sans-serif" font-size="11" lengthAdjust="spacingAndGlyphs" textLength="81" x="520.5" y="293.1074">brench Score : 0</text><text fill="#000000" font-family="sans-serif" font-size="11" lengthAdjust="spacingAndGlyphs" textLength="80" x="520.5" y="308.2163">callCountNum : 0</text><text fill="#000000" font-family="sans-serif" font-size="11" lengthAdjust="spacingAndGlyphs" textLength="66" x="520.5" y="323.3252">cyclomatic : 1</text><text fill="#000000" font-family="sans-serif" font-size="11" lengthAdjust="spacingAndGlyphs" textLength="105" x="520.5" y="338.4341">State Node lineNum: 0</text><text fill="#000000" font-family="sans-serif" font-size="11" lengthAdjust="spacingAndGlyphs" textLength="92" x="520.5" y="353.543">State Node Num : 0</text><text fill="#000000" font-family="sans-serif" font-size="11" lengthAdjust="spacingAndGlyphs" textLength="122" x="520.5" y="368.6519">State Node callListSize: 0</text><text fill="#000000" font-family="sans-serif" font-size="11" lengthAdjust="spacingAndGlyphs" textLength="123" x="520.5" y="383.7607">State Node repeatSize : 0</text><text fill="#000000" font-family="sans-serif" font-size="11" lengthAdjust="spacingAndGlyphs" textLength="117" x="520.5" y="398.8696">State Node writeSize : 0</text><text fill="#000000" font-family="sans-serif" font-size="11" lengthAdjust="spacingAndGlyphs" textLength="114" x="520.5" y="413.9785">State Node bifurSize : 0</text><text fill="#000000" font-family="sans-serif" font-size="11" lengthAdjust="spacingAndGlyphs" textLength="206" x="520.5" y="429.0874">Calculated Estunated Program Length: NaN</text><text fill="#000000" font-family="sans-serif" font-size="11" lengthAdjust="spacingAndGlyphs" textLength="65" x="520.5" y="444.1963">Volume : NaN</text><text fill="#000000" font-family="sans-serif" font-size="11" lengthAdjust="spacingAndGlyphs" textLength="72" x="520.5" y="459.3052">Diffifculty: NaN</text><text fill="#000000" font-family="sans-serif" font-size="11" lengthAdjust="spacingAndGlyphs" textLength="56" x="520.5" y="474.4141">Effort : NaN</text><text fill="#000000" font-family="sans-serif" font-size="11" lengthAdjust="spacingAndGlyphs" textLength="69" x="520.5" y="489.5229">ABS Score : 0</text><text fill="#000000" font-family="sans-serif" font-size="11" lengthAdjust="spacingAndGlyphs" textLength="85" x="520.5" y="504.6318">Relative Score : 0</text><line style="stroke: #008000; stroke-width: 1.5;" x1="515.5" x2="636" y1="151.99" y2="151.99"/><text fill="#FFA500" font-family="sans-serif" font-size="11" font-weight="bold" lengthAdjust="spacingAndGlyphs" textLength="73" x="636" y="156.6274">Complex Info</text><line style="stroke: #008000; stroke-width: 1.5;" x1="709" x2="829.5" y1="151.99" y2="151.99"/><!--MD5=[7237a9f35186317f224a0eaa0a80d0cf]
class org.eclipse.jdt.core.dom.TypeDeclaration.getFields1760378672--><rect codeLine="51" fill="#FEFECE" filter="url(#fafgltxcy5vfi)" height="467.0488" id="org.eclipse.jdt.core.dom.TypeDeclaration.getFields1760378672" style="stroke: #008000; stroke-width: 1.5;" width="312" x="167.5" y="44"/><ellipse cx="289.75" cy="60" fill="#ADD1B2" rx="11" ry="11" style="stroke: #008000; stroke-width: 1.0;"/><path d="M289.5781,53.4844 Q287.7031,53.4844 286.5469,55.2344 Q285.3594,57.0156 285.3594,60.0156 Q285.3594,63.3906 286.5625,65.1563 Q287.625,66.7813 289.375,66.7813 Q291.0625,66.7813 292.0156,65.875 Q293.0781,64.8594 293.2188,62.625 Q293.2188,62.2031 292.9844,61.9688 Q292.7969,61.7344 292.4531,61.7031 Q292.125,61.7031 291.8906,61.8906 Q291.625,62.125 291.625,62.5156 Q291.5938,63.9063 291,64.6406 Q290.4688,65.3438 289.5156,65.3438 Q288.3594,65.3438 287.6406,63.9063 Q286.9219,62.4063 286.9219,59.9844 Q286.9219,57.4375 287.8125,56.0469 Q288.5625,54.9219 289.7031,54.9219 Q290.3594,54.9219 290.8594,55.4688 Q291.4219,56.0781 291.5469,57.1406 Q291.5938,57.8438 292.4219,57.7344 Q293.2031,57.625 293.1563,56.9375 Q292.9688,55.4219 292.2031,54.5469 Q291.2656,53.4844 289.5781,53.4844 Z "/><text fill="#000000" font-family="sans-serif" font-size="12" lengthAdjust="spacingAndGlyphs" textLength="59" x="310.25" y="65.6045">getFields()</text><line style="stroke: #008000; stroke-width: 1.5;" x1="168.5" x2="478.5" y1="76" y2="76"/><text fill="#000000" font-family="sans-serif" font-size="11" lengthAdjust="spacingAndGlyphs" textLength="44" x="173.5" y="92.6919">pram : ( )</text><text fill="#000000" font-family="sans-serif" font-size="11" lengthAdjust="spacingAndGlyphs" textLength="300" x="173.5" y="107.8008">SrcOwnClassName : org.eclipse.jdt.core.dom.TypeDeclaration</text><text fill="#000000" font-family="sans-serif" font-size="11" lengthAdjust="spacingAndGlyphs" textLength="291" x="173.5" y="122.9097">SrcSig : org.eclipse.jdt.core.dom.TypeDeclaration.getFields()</text><text fill="#000000" font-family="sans-serif" font-size="11" lengthAdjust="spacingAndGlyphs" textLength="75" x="173.5" y="138.0186">Sig : getFields()</text><text fill="#000000" font-family="sans-serif" font-size="11" lengthAdjust="spacingAndGlyphs" textLength="96" x="173.5" y="172.2363">parameter Score : 0</text><text fill="#000000" font-family="sans-serif" font-size="11" lengthAdjust="spacingAndGlyphs" textLength="90" x="173.5" y="187.3452">classCall Score : 0</text><text fill="#000000" font-family="sans-serif" font-size="11" lengthAdjust="spacingAndGlyphs" textLength="64" x="173.5" y="202.4541">Call Score : 0</text><text fill="#000000" font-family="sans-serif" font-size="11" lengthAdjust="spacingAndGlyphs" textLength="77" x="173.5" y="217.563">CallBy Score : 2</text><text fill="#000000" font-family="sans-serif" font-size="11" lengthAdjust="spacingAndGlyphs" textLength="104" x="173.5" y="232.6719">memberUse Score : 0</text><text fill="#000000" font-family="sans-serif" font-size="11" lengthAdjust="spacingAndGlyphs" textLength="97" x="173.5" y="247.7808">localValue Score : 0</text><text fill="#000000" font-family="sans-serif" font-size="11" lengthAdjust="spacingAndGlyphs" textLength="65" x="173.5" y="262.8896">exp Score : 0</text><text fill="#000000" font-family="sans-serif" font-size="11" lengthAdjust="spacingAndGlyphs" textLength="78" x="173.5" y="277.9985">repeat Score : 0</text><text fill="#000000" font-family="sans-serif" font-size="11" lengthAdjust="spacingAndGlyphs" textLength="81" x="173.5" y="293.1074">brench Score : 0</text><text fill="#000000" font-family="sans-serif" font-size="11" lengthAdjust="spacingAndGlyphs" textLength="80" x="173.5" y="308.2163">callCountNum : 0</text><text fill="#000000" font-family="sans-serif" font-size="11" lengthAdjust="spacingAndGlyphs" textLength="66" x="173.5" y="323.3252">cyclomatic : 1</text><text fill="#000000" font-family="sans-serif" font-size="11" lengthAdjust="spacingAndGlyphs" textLength="105" x="173.5" y="338.4341">State Node lineNum: 0</text><text fill="#000000" font-family="sans-serif" font-size="11" lengthAdjust="spacingAndGlyphs" textLength="92" x="173.5" y="353.543">State Node Num : 0</text><text fill="#000000" font-family="sans-serif" font-size="11" lengthAdjust="spacingAndGlyphs" textLength="122" x="173.5" y="368.6519">State Node callListSize: 0</text><text fill="#000000" font-family="sans-serif" font-size="11" lengthAdjust="spacingAndGlyphs" textLength="123" x="173.5" y="383.7607">State Node repeatSize : 0</text><text fill="#000000" font-family="sans-serif" font-size="11" lengthAdjust="spacingAndGlyphs" textLength="117" x="173.5" y="398.8696">State Node writeSize : 0</text><text fill="#000000" font-family="sans-serif" font-size="11" lengthAdjust="spacingAndGlyphs" textLength="114" x="173.5" y="413.9785">State Node bifurSize : 0</text><text fill="#000000" font-family="sans-serif" font-size="11" lengthAdjust="spacingAndGlyphs" textLength="206" x="173.5" y="429.0874">Calculated Estunated Program Length: NaN</text><text fill="#000000" font-family="sans-serif" font-size="11" lengthAdjust="spacingAndGlyphs" textLength="65" x="173.5" y="444.1963">Volume : NaN</text><text fill="#000000" font-family="sans-serif" font-size="11" lengthAdjust="spacingAndGlyphs" textLength="72" x="173.5" y="459.3052">Diffifculty: NaN</text><text fill="#000000" font-family="sans-serif" font-size="11" lengthAdjust="spacingAndGlyphs" textLength="56" x="173.5" y="474.4141">Effort : NaN</text><text fill="#000000" font-family="sans-serif" font-size="11" lengthAdjust="spacingAndGlyphs" textLength="69" x="173.5" y="489.5229">ABS Score : 0</text><text fill="#000000" font-family="sans-serif" font-size="11" lengthAdjust="spacingAndGlyphs" textLength="85" x="173.5" y="504.6318">Relative Score : 0</text><line style="stroke: #008000; stroke-width: 1.5;" x1="168.5" x2="287" y1="151.99" y2="151.99"/><text fill="#FFA500" font-family="sans-serif" font-size="11" font-weight="bold" lengthAdjust="spacingAndGlyphs" textLength="73" x="287" y="156.6274">Complex Info</text><line style="stroke: #008000; stroke-width: 1.5;" x1="360" x2="478.5" y1="151.99" y2="151.99"/><!--MD5=[f04bc90bf33944b7fab332a83ab18852]
class ClassComplex--><rect codeLine="1" fill="#FEFECE" filter="url(#fafgltxcy5vfi)" height="289.7422" id="ClassComplex" style="stroke: #A80036; stroke-width: 1.5;" width="125" x="7" y="132.5"/><ellipse cx="26.95" cy="148.5" fill="#ADD1B2" rx="11" ry="11" style="stroke: #A80036; stroke-width: 1.0;"/><path d="M26.7781,141.9844 Q24.9031,141.9844 23.7469,143.7344 Q22.5594,145.5156 22.5594,148.5156 Q22.5594,151.8906 23.7625,153.6563 Q24.825,155.2813 26.575,155.2813 Q28.2625,155.2813 29.2156,154.375 Q30.2781,153.3594 30.4188,151.125 Q30.4188,150.7031 30.1844,150.4688 Q29.9969,150.2344 29.6531,150.2031 Q29.325,150.2031 29.0906,150.3906 Q28.825,150.625 28.825,151.0156 Q28.7938,152.4063 28.2,153.1406 Q27.6688,153.8438 26.7156,153.8438 Q25.5594,153.8438 24.8406,152.4063 Q24.1219,150.9063 24.1219,148.4844 Q24.1219,145.9375 25.0125,144.5469 Q25.7625,143.4219 26.9031,143.4219 Q27.5594,143.4219 28.0594,143.9688 Q28.6219,144.5781 28.7469,145.6406 Q28.7938,146.3438 29.6219,146.2344 Q30.4031,146.125 30.3563,145.4375 Q30.1688,143.9219 29.4031,143.0469 Q28.4656,141.9844 26.7781,141.9844 Z "/><text fill="#000000" font-family="sans-serif" font-size="12" lengthAdjust="spacingAndGlyphs" textLength="82" x="42.05" y="154.1045">ClassComplex</text><line style="stroke: #A80036; stroke-width: 1.5;" x1="8" x2="131" y1="164.5" y2="164.5"/><text fill="#000000" font-family="sans-serif" font-size="11" lengthAdjust="spacingAndGlyphs" textLength="79" x="13" y="200.3008">memberScor = 0</text><text fill="#000000" font-family="sans-serif" font-size="11" lengthAdjust="spacingAndGlyphs" textLength="113" x="13" y="215.4097">extendsClassScore = 0</text><text fill="#000000" font-family="sans-serif" font-size="11" lengthAdjust="spacingAndGlyphs" textLength="63" x="13" y="230.5186">callScore = 0</text><text fill="#000000" font-family="sans-serif" font-size="11" lengthAdjust="spacingAndGlyphs" textLength="76" x="13" y="245.6274">callByScore = 0</text><text fill="#000000" font-family="sans-serif" font-size="11" lengthAdjust="spacingAndGlyphs" textLength="74" x="13" y="260.7363">methodNum = 0</text><text fill="#000000" font-family="sans-serif" font-size="11" lengthAdjust="spacingAndGlyphs" textLength="77" x="13" y="275.8452">memberNum = 0</text><text fill="#000000" font-family="sans-serif" font-size="11" lengthAdjust="spacingAndGlyphs" textLength="95" x="13" y="290.9541">constructorNum = 0</text><text fill="#000000" font-family="sans-serif" font-size="11" lengthAdjust="spacingAndGlyphs" textLength="83" x="13" y="306.063">selfCoverage = 0</text><text fill="#000000" font-family="sans-serif" font-size="11" lengthAdjust="spacingAndGlyphs" textLength="72" x="13" y="321.1719">needCallBy = 0</text><text fill="#000000" font-family="sans-serif" font-size="11" lengthAdjust="spacingAndGlyphs" textLength="40" x="13" y="336.2808">ABS = 0</text><text fill="#000000" font-family="sans-serif" font-size="11" lengthAdjust="spacingAndGlyphs" textLength="37" x="13" y="351.3896">REL = 0</text><text fill="#000000" font-family="sans-serif" font-size="11" lengthAdjust="spacingAndGlyphs" textLength="83" x="13" y="366.4985">coverage = 0.0%</text><line style="stroke: #A80036; stroke-width: 1.5;" x1="8" x2="33" y1="180.0544" y2="180.0544"/><text fill="#FFA500" font-family="sans-serif" font-size="11" font-weight="bold" lengthAdjust="spacingAndGlyphs" textLength="73" x="33" y="184.6919">Complex Info</text><line style="stroke: #A80036; stroke-width: 1.5;" x1="106" x2="131" y1="180.0544" y2="180.0544"/><text fill="#008000" font-family="sans-serif" font-size="11" lengthAdjust="spacingAndGlyphs" textLength="100" x="13" y="400.7163">null getMethods() (0)</text><text fill="#008000" font-family="sans-serif" font-size="11" lengthAdjust="spacingAndGlyphs" textLength="87" x="13" y="415.8252">null getFields() (0)</text><line style="stroke: #A80036; stroke-width: 1.5;" x1="8" x2="49.5" y1="380.47" y2="380.47"/><text fill="#008000" font-family="sans-serif" font-size="11" font-weight="bold" lengthAdjust="spacingAndGlyphs" textLength="40" x="49.5" y="385.1074">has list</text><line style="stroke: #A80036; stroke-width: 1.5;" x1="89.5" x2="131" y1="380.47" y2="380.47"/><!--MD5=[c1043708ea39435617d957772a0ca7cd]
@startuml
class ClassComplex{
__**<color:orange>Complex Info</color>**__
	memberScor = 0
	extendsClassScore = 0
	callScore = 0
	callByScore = 0
	methodNum = 0
	memberNum = 0
	constructorNum = 0
	selfCoverage = 0
	needCallBy = 0
	ABS = 0
	REL = 0
	coverage = 0.0%
__**<color:green>has list</color>**__
	<color:green>null getMethods() (0)
	<color:green>null getFields() (0)
}

class org.eclipse.jdt.core.dom.TypeDeclaration.getMethods719727542 as "getMethods()"#line:green 
{
	pram : ( )
	SrcOwnClassName : org.eclipse.jdt.core.dom.TypeDeclaration
	SrcSig : org.eclipse.jdt.core.dom.TypeDeclaration.getMethods()
	Sig : getMethods()
	__**<color:orange>Complex Info</color>**__
	parameter Score : 0
	classCall Score : 0
	Call Score : 0
	CallBy Score : 2
	memberUse Score : 0
	localValue Score : 0
	exp Score : 0
	repeat Score : 0
	brench Score : 0
	callCountNum : 0
	cyclomatic : 1
	State Node lineNum: 0
	State Node Num : 0
	State Node callListSize: 0
	State Node repeatSize : 0
	State Node writeSize : 0
	State Node bifurSize : 0
	Calculated Estunated Program Length: NaN
	Volume : NaN
	Diffifculty: NaN
	Effort : NaN
	ABS Score : 0
	Relative Score : 0
}
class org.eclipse.jdt.core.dom.TypeDeclaration.getFields1760378672 as "getFields()"#line:green 
{
	pram : ( )
	SrcOwnClassName : org.eclipse.jdt.core.dom.TypeDeclaration
	SrcSig : org.eclipse.jdt.core.dom.TypeDeclaration.getFields()
	Sig : getFields()
	__**<color:orange>Complex Info</color>**__
	parameter Score : 0
	classCall Score : 0
	Call Score : 0
	CallBy Score : 2
	memberUse Score : 0
	localValue Score : 0
	exp Score : 0
	repeat Score : 0
	brench Score : 0
	callCountNum : 0
	cyclomatic : 1
	State Node lineNum: 0
	State Node Num : 0
	State Node callListSize: 0
	State Node repeatSize : 0
	State Node writeSize : 0
	State Node bifurSize : 0
	Calculated Estunated Program Length: NaN
	Volume : NaN
	Diffifculty: NaN
	Effort : NaN
	ABS Score : 0
	Relative Score : 0
}

@enduml

PlantUML version 1.2020.19(Tue Oct 13 00:10:01 KST 2020)
(APACHE source distribution)
Java Runtime: Java(TM) SE Runtime Environment
JVM: Java HotSpot(TM) 64-Bit Server VM
Default Encoding: MS949
Language: ko
Country: KR
--></g></svg>