<?xml version="1.0" encoding="UTF-8" standalone="no"?><svg xmlns="http://www.w3.org/2000/svg" xmlns:xlink="http://www.w3.org/1999/xlink" contentScriptType="application/ecmascript" contentStyleType="text/css" height="534px" preserveAspectRatio="none" style="width:1121px;height:534px;" version="1.1" viewBox="0 0 1121 534" width="1121px" zoomAndPan="magnify"><defs><filter height="300%" id="fmk4i6sniham6" width="300%" x="-1" y="-1"><feGaussianBlur result="blurOut" stdDeviation="2.0"/><feColorMatrix in="blurOut" result="blurOut2" type="matrix" values="0 0 0 0 0 0 0 0 0 0 0 0 0 0 0 0 0 0 .4 0"/><feOffset dx="4.0" dy="4.0" in="blurOut2" result="blurOut3"/><feBlend in="SourceGraphic" in2="blurOut3" mode="normal"/></filter></defs><g><!--MD5=[592e56f0f6c8f474b81e609a51c52efb]
cluster org.eclipse.jdt.core.JavaCore--><polygon fill="#FFFFFF" filter="url(#fmk4i6sniham6)" points="328,6,542,6,549,31.2295,1104,31.2295,1104,527,328,527,328,6" style="stroke: #000000; stroke-width: 1.5;"/><line style="stroke: #000000; stroke-width: 1.5;" x1="328" x2="549" y1="31.2295" y2="31.2295"/><text fill="#000000" font-family="sans-serif" font-size="14" font-weight="bold" lengthAdjust="spacingAndGlyphs" textLength="208" x="332" y="24.1533">org.eclipse.jdt.core.JavaCore</text><!--MD5=[2e9f45ae1dbb8976bf66623740a09987]
class org.eclipse.jdt.core.JavaCore.getOptions1679160862--><rect codeLine="20" fill="#FEFECE" filter="url(#fmk4i6sniham6)" height="467.0488" id="org.eclipse.jdt.core.JavaCore.getOptions1679160862" style="stroke: #008000; stroke-width: 1.5;" width="257" x="830.5" y="44"/><ellipse cx="920.75" cy="60" fill="#ADD1B2" rx="11" ry="11" style="stroke: #008000; stroke-width: 1.0;"/><path d="M920.5781,53.4844 Q918.7031,53.4844 917.5469,55.2344 Q916.3594,57.0156 916.3594,60.0156 Q916.3594,63.3906 917.5625,65.1563 Q918.625,66.7813 920.375,66.7813 Q922.0625,66.7813 923.0156,65.875 Q924.0781,64.8594 924.2188,62.625 Q924.2188,62.2031 923.9844,61.9688 Q923.7969,61.7344 923.4531,61.7031 Q923.125,61.7031 922.8906,61.8906 Q922.625,62.125 922.625,62.5156 Q922.5938,63.9063 922,64.6406 Q921.4688,65.3438 920.5156,65.3438 Q919.3594,65.3438 918.6406,63.9063 Q917.9219,62.4063 917.9219,59.9844 Q917.9219,57.4375 918.8125,56.0469 Q919.5625,54.9219 920.7031,54.9219 Q921.3594,54.9219 921.8594,55.4688 Q922.4219,56.0781 922.5469,57.1406 Q922.5938,57.8438 923.4219,57.7344 Q924.2031,57.625 924.1563,56.9375 Q923.9688,55.4219 923.2031,54.5469 Q922.2656,53.4844 920.5781,53.4844 Z "/><text fill="#000000" font-family="sans-serif" font-size="12" lengthAdjust="spacingAndGlyphs" textLength="68" x="941.25" y="65.6045">getOptions()</text><line style="stroke: #008000; stroke-width: 1.5;" x1="831.5" x2="1086.5" y1="76" y2="76"/><text fill="#000000" font-family="sans-serif" font-size="11" lengthAdjust="spacingAndGlyphs" textLength="44" x="836.5" y="92.6919">pram : ( )</text><text fill="#000000" font-family="sans-serif" font-size="11" lengthAdjust="spacingAndGlyphs" textLength="245" x="836.5" y="107.8008">SrcOwnClassName : org.eclipse.jdt.core.JavaCore</text><text fill="#000000" font-family="sans-serif" font-size="11" lengthAdjust="spacingAndGlyphs" textLength="245" x="836.5" y="122.9097">SrcSig : org.eclipse.jdt.core.JavaCore.getOptions()</text><text fill="#000000" font-family="sans-serif" font-size="11" lengthAdjust="spacingAndGlyphs" textLength="84" x="836.5" y="138.0186">Sig : getOptions()</text><text fill="#000000" font-family="sans-serif" font-size="11" lengthAdjust="spacingAndGlyphs" textLength="96" x="836.5" y="172.2363">parameter Score : 0</text><text fill="#000000" font-family="sans-serif" font-size="11" lengthAdjust="spacingAndGlyphs" textLength="90" x="836.5" y="187.3452">classCall Score : 0</text><text fill="#000000" font-family="sans-serif" font-size="11" lengthAdjust="spacingAndGlyphs" textLength="64" x="836.5" y="202.4541">Call Score : 0</text><text fill="#000000" font-family="sans-serif" font-size="11" lengthAdjust="spacingAndGlyphs" textLength="77" x="836.5" y="217.563">CallBy Score : 2</text><text fill="#000000" font-family="sans-serif" font-size="11" lengthAdjust="spacingAndGlyphs" textLength="104" x="836.5" y="232.6719">memberUse Score : 0</text><text fill="#000000" font-family="sans-serif" font-size="11" lengthAdjust="spacingAndGlyphs" textLength="97" x="836.5" y="247.7808">localValue Score : 0</text><text fill="#000000" font-family="sans-serif" font-size="11" lengthAdjust="spacingAndGlyphs" textLength="65" x="836.5" y="262.8896">exp Score : 0</text><text fill="#000000" font-family="sans-serif" font-size="11" lengthAdjust="spacingAndGlyphs" textLength="78" x="836.5" y="277.9985">repeat Score : 0</text><text fill="#000000" font-family="sans-serif" font-size="11" lengthAdjust="spacingAndGlyphs" textLength="81" x="836.5" y="293.1074">brench Score : 0</text><text fill="#000000" font-family="sans-serif" font-size="11" lengthAdjust="spacingAndGlyphs" textLength="80" x="836.5" y="308.2163">callCountNum : 0</text><text fill="#000000" font-family="sans-serif" font-size="11" lengthAdjust="spacingAndGlyphs" textLength="66" x="836.5" y="323.3252">cyclomatic : 1</text><text fill="#000000" font-family="sans-serif" font-size="11" lengthAdjust="spacingAndGlyphs" textLength="105" x="836.5" y="338.4341">State Node lineNum: 0</text><text fill="#000000" font-family="sans-serif" font-size="11" lengthAdjust="spacingAndGlyphs" textLength="92" x="836.5" y="353.543">State Node Num : 0</text><text fill="#000000" font-family="sans-serif" font-size="11" lengthAdjust="spacingAndGlyphs" textLength="122" x="836.5" y="368.6519">State Node callListSize: 0</text><text fill="#000000" font-family="sans-serif" font-size="11" lengthAdjust="spacingAndGlyphs" textLength="123" x="836.5" y="383.7607">State Node repeatSize : 0</text><text fill="#000000" font-family="sans-serif" font-size="11" lengthAdjust="spacingAndGlyphs" textLength="117" x="836.5" y="398.8696">State Node writeSize : 0</text><text fill="#000000" font-family="sans-serif" font-size="11" lengthAdjust="spacingAndGlyphs" textLength="114" x="836.5" y="413.9785">State Node bifurSize : 0</text><text fill="#000000" font-family="sans-serif" font-size="11" lengthAdjust="spacingAndGlyphs" textLength="206" x="836.5" y="429.0874">Calculated Estunated Program Length: NaN</text><text fill="#000000" font-family="sans-serif" font-size="11" lengthAdjust="spacingAndGlyphs" textLength="65" x="836.5" y="444.1963">Volume : NaN</text><text fill="#000000" font-family="sans-serif" font-size="11" lengthAdjust="spacingAndGlyphs" textLength="72" x="836.5" y="459.3052">Diffifculty: NaN</text><text fill="#000000" font-family="sans-serif" font-size="11" lengthAdjust="spacingAndGlyphs" textLength="56" x="836.5" y="474.4141">Effort : NaN</text><text fill="#000000" font-family="sans-serif" font-size="11" lengthAdjust="spacingAndGlyphs" textLength="69" x="836.5" y="489.5229">ABS Score : 0</text><text fill="#000000" font-family="sans-serif" font-size="11" lengthAdjust="spacingAndGlyphs" textLength="85" x="836.5" y="504.6318">Relative Score : 0</text><line style="stroke: #008000; stroke-width: 1.5;" x1="831.5" x2="922.5" y1="151.99" y2="151.99"/><text fill="#FFA500" font-family="sans-serif" font-size="11" font-weight="bold" lengthAdjust="spacingAndGlyphs" textLength="73" x="922.5" y="156.6274">Complex Info</text><line style="stroke: #008000; stroke-width: 1.5;" x1="995.5" x2="1086.5" y1="151.99" y2="151.99"/><!--MD5=[b2e3b5b716b9145349381d019ae57db0]
class org.eclipse.jdt.core.JavaCore.setComplianceOptions860798122--><rect codeLine="51" fill="#FEFECE" filter="url(#fmk4i6sniham6)" height="467.0488" id="org.eclipse.jdt.core.JavaCore.setComplianceOptions860798122" style="stroke: #008000; stroke-width: 1.5;" width="451" x="344.5" y="44"/><ellipse cx="419.75" cy="60" fill="#ADD1B2" rx="11" ry="11" style="stroke: #008000; stroke-width: 1.0;"/><path d="M419.5781,53.4844 Q417.7031,53.4844 416.5469,55.2344 Q415.3594,57.0156 415.3594,60.0156 Q415.3594,63.3906 416.5625,65.1563 Q417.625,66.7813 419.375,66.7813 Q421.0625,66.7813 422.0156,65.875 Q423.0781,64.8594 423.2188,62.625 Q423.2188,62.2031 422.9844,61.9688 Q422.7969,61.7344 422.4531,61.7031 Q422.125,61.7031 421.8906,61.8906 Q421.625,62.125 421.625,62.5156 Q421.5938,63.9063 421,64.6406 Q420.4688,65.3438 419.5156,65.3438 Q418.3594,65.3438 417.6406,63.9063 Q416.9219,62.4063 416.9219,59.9844 Q416.9219,57.4375 417.8125,56.0469 Q418.5625,54.9219 419.7031,54.9219 Q420.3594,54.9219 420.8594,55.4688 Q421.4219,56.0781 421.5469,57.1406 Q421.5938,57.8438 422.4219,57.7344 Q423.2031,57.625 423.1563,56.9375 Q422.9688,55.4219 422.2031,54.5469 Q421.2656,53.4844 419.5781,53.4844 Z "/><text fill="#000000" font-family="sans-serif" font-size="12" lengthAdjust="spacingAndGlyphs" textLength="292" x="440.25" y="65.6045">setComplianceOptions(java.lang.String, java.util.Map)</text><line style="stroke: #008000; stroke-width: 1.5;" x1="345.5" x2="794.5" y1="76" y2="76"/><text fill="#000000" font-family="sans-serif" font-size="11" lengthAdjust="spacingAndGlyphs" textLength="44" x="350.5" y="92.6919">pram : ( )</text><text fill="#000000" font-family="sans-serif" font-size="11" lengthAdjust="spacingAndGlyphs" textLength="245" x="350.5" y="107.8008">SrcOwnClassName : org.eclipse.jdt.core.JavaCore</text><text fill="#000000" font-family="sans-serif" font-size="11" lengthAdjust="spacingAndGlyphs" textLength="439" x="350.5" y="122.9097">SrcSig : org.eclipse.jdt.core.JavaCore.setComplianceOptions(java.lang.String, java.util.Map)</text><text fill="#000000" font-family="sans-serif" font-size="11" lengthAdjust="spacingAndGlyphs" textLength="278" x="350.5" y="138.0186">Sig : setComplianceOptions(java.lang.String, java.util.Map)</text><text fill="#000000" font-family="sans-serif" font-size="11" lengthAdjust="spacingAndGlyphs" textLength="96" x="350.5" y="172.2363">parameter Score : 0</text><text fill="#000000" font-family="sans-serif" font-size="11" lengthAdjust="spacingAndGlyphs" textLength="90" x="350.5" y="187.3452">classCall Score : 0</text><text fill="#000000" font-family="sans-serif" font-size="11" lengthAdjust="spacingAndGlyphs" textLength="64" x="350.5" y="202.4541">Call Score : 0</text><text fill="#000000" font-family="sans-serif" font-size="11" lengthAdjust="spacingAndGlyphs" textLength="77" x="350.5" y="217.563">CallBy Score : 2</text><text fill="#000000" font-family="sans-serif" font-size="11" lengthAdjust="spacingAndGlyphs" textLength="104" x="350.5" y="232.6719">memberUse Score : 0</text><text fill="#000000" font-family="sans-serif" font-size="11" lengthAdjust="spacingAndGlyphs" textLength="97" x="350.5" y="247.7808">localValue Score : 0</text><text fill="#000000" font-family="sans-serif" font-size="11" lengthAdjust="spacingAndGlyphs" textLength="65" x="350.5" y="262.8896">exp Score : 0</text><text fill="#000000" font-family="sans-serif" font-size="11" lengthAdjust="spacingAndGlyphs" textLength="78" x="350.5" y="277.9985">repeat Score : 0</text><text fill="#000000" font-family="sans-serif" font-size="11" lengthAdjust="spacingAndGlyphs" textLength="81" x="350.5" y="293.1074">brench Score : 0</text><text fill="#000000" font-family="sans-serif" font-size="11" lengthAdjust="spacingAndGlyphs" textLength="80" x="350.5" y="308.2163">callCountNum : 0</text><text fill="#000000" font-family="sans-serif" font-size="11" lengthAdjust="spacingAndGlyphs" textLength="66" x="350.5" y="323.3252">cyclomatic : 1</text><text fill="#000000" font-family="sans-serif" font-size="11" lengthAdjust="spacingAndGlyphs" textLength="105" x="350.5" y="338.4341">State Node lineNum: 0</text><text fill="#000000" font-family="sans-serif" font-size="11" lengthAdjust="spacingAndGlyphs" textLength="92" x="350.5" y="353.543">State Node Num : 0</text><text fill="#000000" font-family="sans-serif" font-size="11" lengthAdjust="spacingAndGlyphs" textLength="122" x="350.5" y="368.6519">State Node callListSize: 0</text><text fill="#000000" font-family="sans-serif" font-size="11" lengthAdjust="spacingAndGlyphs" textLength="123" x="350.5" y="383.7607">State Node repeatSize : 0</text><text fill="#000000" font-family="sans-serif" font-size="11" lengthAdjust="spacingAndGlyphs" textLength="117" x="350.5" y="398.8696">State Node writeSize : 0</text><text fill="#000000" font-family="sans-serif" font-size="11" lengthAdjust="spacingAndGlyphs" textLength="114" x="350.5" y="413.9785">State Node bifurSize : 0</text><text fill="#000000" font-family="sans-serif" font-size="11" lengthAdjust="spacingAndGlyphs" textLength="206" x="350.5" y="429.0874">Calculated Estunated Program Length: NaN</text><text fill="#000000" font-family="sans-serif" font-size="11" lengthAdjust="spacingAndGlyphs" textLength="65" x="350.5" y="444.1963">Volume : NaN</text><text fill="#000000" font-family="sans-serif" font-size="11" lengthAdjust="spacingAndGlyphs" textLength="72" x="350.5" y="459.3052">Diffifculty: NaN</text><text fill="#000000" font-family="sans-serif" font-size="11" lengthAdjust="spacingAndGlyphs" textLength="56" x="350.5" y="474.4141">Effort : NaN</text><text fill="#000000" font-family="sans-serif" font-size="11" lengthAdjust="spacingAndGlyphs" textLength="69" x="350.5" y="489.5229">ABS Score : 0</text><text fill="#000000" font-family="sans-serif" font-size="11" lengthAdjust="spacingAndGlyphs" textLength="85" x="350.5" y="504.6318">Relative Score : 0</text><line style="stroke: #008000; stroke-width: 1.5;" x1="345.5" x2="533.5" y1="151.99" y2="151.99"/><text fill="#FFA500" font-family="sans-serif" font-size="11" font-weight="bold" lengthAdjust="spacingAndGlyphs" textLength="73" x="533.5" y="156.6274">Complex Info</text><line style="stroke: #008000; stroke-width: 1.5;" x1="606.5" x2="794.5" y1="151.99" y2="151.99"/><!--MD5=[f04bc90bf33944b7fab332a83ab18852]
class ClassComplex--><rect codeLine="1" fill="#FEFECE" filter="url(#fmk4i6sniham6)" height="289.7422" id="ClassComplex" style="stroke: #A80036; stroke-width: 1.5;" width="302" x="7" y="132.5"/><ellipse cx="112.75" cy="148.5" fill="#ADD1B2" rx="11" ry="11" style="stroke: #A80036; stroke-width: 1.0;"/><path d="M112.5781,141.9844 Q110.7031,141.9844 109.5469,143.7344 Q108.3594,145.5156 108.3594,148.5156 Q108.3594,151.8906 109.5625,153.6563 Q110.625,155.2813 112.375,155.2813 Q114.0625,155.2813 115.0156,154.375 Q116.0781,153.3594 116.2188,151.125 Q116.2188,150.7031 115.9844,150.4688 Q115.7969,150.2344 115.4531,150.2031 Q115.125,150.2031 114.8906,150.3906 Q114.625,150.625 114.625,151.0156 Q114.5938,152.4063 114,153.1406 Q113.4688,153.8438 112.5156,153.8438 Q111.3594,153.8438 110.6406,152.4063 Q109.9219,150.9063 109.9219,148.4844 Q109.9219,145.9375 110.8125,144.5469 Q111.5625,143.4219 112.7031,143.4219 Q113.3594,143.4219 113.8594,143.9688 Q114.4219,144.5781 114.5469,145.6406 Q114.5938,146.3438 115.4219,146.2344 Q116.2031,146.125 116.1563,145.4375 Q115.9688,143.9219 115.2031,143.0469 Q114.2656,141.9844 112.5781,141.9844 Z "/><text fill="#000000" font-family="sans-serif" font-size="12" lengthAdjust="spacingAndGlyphs" textLength="82" x="133.25" y="154.1045">ClassComplex</text><line style="stroke: #A80036; stroke-width: 1.5;" x1="8" x2="308" y1="164.5" y2="164.5"/><text fill="#000000" font-family="sans-serif" font-size="11" lengthAdjust="spacingAndGlyphs" textLength="79" x="13" y="200.3008">memberScor = 0</text><text fill="#000000" font-family="sans-serif" font-size="11" lengthAdjust="spacingAndGlyphs" textLength="113" x="13" y="215.4097">extendsClassScore = 0</text><text fill="#000000" font-family="sans-serif" font-size="11" lengthAdjust="spacingAndGlyphs" textLength="63" x="13" y="230.5186">callScore = 0</text><text fill="#000000" font-family="sans-serif" font-size="11" lengthAdjust="spacingAndGlyphs" textLength="76" x="13" y="245.6274">callByScore = 0</text><text fill="#000000" font-family="sans-serif" font-size="11" lengthAdjust="spacingAndGlyphs" textLength="74" x="13" y="260.7363">methodNum = 0</text><text fill="#000000" font-family="sans-serif" font-size="11" lengthAdjust="spacingAndGlyphs" textLength="77" x="13" y="275.8452">memberNum = 0</text><text fill="#000000" font-family="sans-serif" font-size="11" lengthAdjust="spacingAndGlyphs" textLength="95" x="13" y="290.9541">constructorNum = 0</text><text fill="#000000" font-family="sans-serif" font-size="11" lengthAdjust="spacingAndGlyphs" textLength="83" x="13" y="306.063">selfCoverage = 0</text><text fill="#000000" font-family="sans-serif" font-size="11" lengthAdjust="spacingAndGlyphs" textLength="72" x="13" y="321.1719">needCallBy = 0</text><text fill="#000000" font-family="sans-serif" font-size="11" lengthAdjust="spacingAndGlyphs" textLength="40" x="13" y="336.2808">ABS = 0</text><text fill="#000000" font-family="sans-serif" font-size="11" lengthAdjust="spacingAndGlyphs" textLength="37" x="13" y="351.3896">REL = 0</text><text fill="#000000" font-family="sans-serif" font-size="11" lengthAdjust="spacingAndGlyphs" textLength="83" x="13" y="366.4985">coverage = 0.0%</text><line style="stroke: #A80036; stroke-width: 1.5;" x1="8" x2="121.5" y1="180.0544" y2="180.0544"/><text fill="#FFA500" font-family="sans-serif" font-size="11" font-weight="bold" lengthAdjust="spacingAndGlyphs" textLength="73" x="121.5" y="184.6919">Complex Info</text><line style="stroke: #A80036; stroke-width: 1.5;" x1="194.5" x2="308" y1="180.0544" y2="180.0544"/><text fill="#008000" font-family="sans-serif" font-size="11" lengthAdjust="spacingAndGlyphs" textLength="96" x="13" y="400.7163">null getOptions() (0)</text><text fill="#008000" font-family="sans-serif" font-size="11" lengthAdjust="spacingAndGlyphs" textLength="290" x="13" y="415.8252">null setComplianceOptions(java.lang.String, java.util.Map) (0)</text><line style="stroke: #A80036; stroke-width: 1.5;" x1="8" x2="138" y1="380.47" y2="380.47"/><text fill="#008000" font-family="sans-serif" font-size="11" font-weight="bold" lengthAdjust="spacingAndGlyphs" textLength="40" x="138" y="385.1074">has list</text><line style="stroke: #A80036; stroke-width: 1.5;" x1="178" x2="308" y1="380.47" y2="380.47"/><!--MD5=[2735724e9718af18554ed127ae7ad8d3]
@startuml
class ClassComplex{
__**<color:orange>Complex Info</color>**__
	memberScor = 0
	extendsClassScore = 0
	callScore = 0
	callByScore = 0
	methodNum = 0
	memberNum = 0
	constructorNum = 0
	selfCoverage = 0
	needCallBy = 0
	ABS = 0
	REL = 0
	coverage = 0.0%
__**<color:green>has list</color>**__
	<color:green>null getOptions() (0)
	<color:green>null setComplianceOptions(java.lang.String, java.util.Map) (0)
}

class org.eclipse.jdt.core.JavaCore.getOptions1679160862 as "getOptions()"#line:green 
{
	pram : ( )
	SrcOwnClassName : org.eclipse.jdt.core.JavaCore
	SrcSig : org.eclipse.jdt.core.JavaCore.getOptions()
	Sig : getOptions()
	__**<color:orange>Complex Info</color>**__
	parameter Score : 0
	classCall Score : 0
	Call Score : 0
	CallBy Score : 2
	memberUse Score : 0
	localValue Score : 0
	exp Score : 0
	repeat Score : 0
	brench Score : 0
	callCountNum : 0
	cyclomatic : 1
	State Node lineNum: 0
	State Node Num : 0
	State Node callListSize: 0
	State Node repeatSize : 0
	State Node writeSize : 0
	State Node bifurSize : 0
	Calculated Estunated Program Length: NaN
	Volume : NaN
	Diffifculty: NaN
	Effort : NaN
	ABS Score : 0
	Relative Score : 0
}
class org.eclipse.jdt.core.JavaCore.setComplianceOptions860798122 as "setComplianceOptions(java.lang.String, java.util.Map)"#line:green 
{
	pram : ( )
	SrcOwnClassName : org.eclipse.jdt.core.JavaCore
	SrcSig : org.eclipse.jdt.core.JavaCore.setComplianceOptions(java.lang.String, java.util.Map)
	Sig : setComplianceOptions(java.lang.String, java.util.Map)
	__**<color:orange>Complex Info</color>**__
	parameter Score : 0
	classCall Score : 0
	Call Score : 0
	CallBy Score : 2
	memberUse Score : 0
	localValue Score : 0
	exp Score : 0
	repeat Score : 0
	brench Score : 0
	callCountNum : 0
	cyclomatic : 1
	State Node lineNum: 0
	State Node Num : 0
	State Node callListSize: 0
	State Node repeatSize : 0
	State Node writeSize : 0
	State Node bifurSize : 0
	Calculated Estunated Program Length: NaN
	Volume : NaN
	Diffifculty: NaN
	Effort : NaN
	ABS Score : 0
	Relative Score : 0
}

@enduml

PlantUML version 1.2020.19(Tue Oct 13 00:10:01 KST 2020)
(APACHE source distribution)
Java Runtime: Java(TM) SE Runtime Environment
JVM: Java HotSpot(TM) 64-Bit Server VM
Default Encoding: MS949
Language: ko
Country: KR
--></g></svg>