<?xml version="1.0" encoding="UTF-8" standalone="no"?><svg xmlns="http://www.w3.org/2000/svg" xmlns:xlink="http://www.w3.org/1999/xlink" contentScriptType="application/ecmascript" contentStyleType="text/css" height="534px" preserveAspectRatio="none" style="width:553px;height:534px;" version="1.1" viewBox="0 0 553 534" width="553px" zoomAndPan="magnify"><defs><filter height="300%" id="fiq94597fctil" width="300%" x="-1" y="-1"><feGaussianBlur result="blurOut" stdDeviation="2.0"/><feColorMatrix in="blurOut" result="blurOut2" type="matrix" values="0 0 0 0 0 0 0 0 0 0 0 0 0 0 0 0 0 0 .4 0"/><feOffset dx="4.0" dy="4.0" in="blurOut2" result="blurOut3"/><feBlend in="SourceGraphic" in2="blurOut3" mode="normal"/></filter></defs><g><!--MD5=[213bf91a44aaacda6a1f76fb3916d65d]
cluster org.eclipse.jdt.core.dom.ExpressionStatement--><polygon fill="#FFFFFF" filter="url(#fiq94597fctil)" points="150.5,6,481.5,6,488.5,31.2295,536.5,31.2295,536.5,527,150.5,527,150.5,6" style="stroke: #000000; stroke-width: 1.5;"/><line style="stroke: #000000; stroke-width: 1.5;" x1="150.5" x2="488.5" y1="31.2295" y2="31.2295"/><text fill="#000000" font-family="sans-serif" font-size="14" font-weight="bold" lengthAdjust="spacingAndGlyphs" textLength="325" x="154.5" y="24.1533">org.eclipse.jdt.core.dom.ExpressionStatement</text><!--MD5=[a409c07400260084dc15c5215c1fdb83]
class org.eclipse.jdt.core.dom.ExpressionStatement.getExpression54879576--><rect codeLine="19" fill="#FEFECE" filter="url(#fiq94597fctil)" height="467.0488" id="org.eclipse.jdt.core.dom.ExpressionStatement.getExpression54879576" style="stroke: #008000; stroke-width: 1.5;" width="353" x="167" y="44"/><ellipse cx="295.75" cy="60" fill="#ADD1B2" rx="11" ry="11" style="stroke: #008000; stroke-width: 1.0;"/><path d="M295.5781,53.4844 Q293.7031,53.4844 292.5469,55.2344 Q291.3594,57.0156 291.3594,60.0156 Q291.3594,63.3906 292.5625,65.1563 Q293.625,66.7813 295.375,66.7813 Q297.0625,66.7813 298.0156,65.875 Q299.0781,64.8594 299.2188,62.625 Q299.2188,62.2031 298.9844,61.9688 Q298.7969,61.7344 298.4531,61.7031 Q298.125,61.7031 297.8906,61.8906 Q297.625,62.125 297.625,62.5156 Q297.5938,63.9063 297,64.6406 Q296.4688,65.3438 295.5156,65.3438 Q294.3594,65.3438 293.6406,63.9063 Q292.9219,62.4063 292.9219,59.9844 Q292.9219,57.4375 293.8125,56.0469 Q294.5625,54.9219 295.7031,54.9219 Q296.3594,54.9219 296.8594,55.4688 Q297.4219,56.0781 297.5469,57.1406 Q297.5938,57.8438 298.4219,57.7344 Q299.2031,57.625 299.1563,56.9375 Q298.9688,55.4219 298.2031,54.5469 Q297.2656,53.4844 295.5781,53.4844 Z "/><text fill="#000000" font-family="sans-serif" font-size="12" lengthAdjust="spacingAndGlyphs" textLength="87" x="316.25" y="65.6045">getExpression()</text><line style="stroke: #008000; stroke-width: 1.5;" x1="168" x2="519" y1="76" y2="76"/><text fill="#000000" font-family="sans-serif" font-size="11" lengthAdjust="spacingAndGlyphs" textLength="44" x="173" y="92.6919">pram : ( )</text><text fill="#000000" font-family="sans-serif" font-size="11" lengthAdjust="spacingAndGlyphs" textLength="324" x="173" y="107.8008">SrcOwnClassName : org.eclipse.jdt.core.dom.ExpressionStatement</text><text fill="#000000" font-family="sans-serif" font-size="11" lengthAdjust="spacingAndGlyphs" textLength="341" x="173" y="122.9097">SrcSig : org.eclipse.jdt.core.dom.ExpressionStatement.getExpression()</text><text fill="#000000" font-family="sans-serif" font-size="11" lengthAdjust="spacingAndGlyphs" textLength="101" x="173" y="138.0186">Sig : getExpression()</text><text fill="#000000" font-family="sans-serif" font-size="11" lengthAdjust="spacingAndGlyphs" textLength="96" x="173" y="172.2363">parameter Score : 0</text><text fill="#000000" font-family="sans-serif" font-size="11" lengthAdjust="spacingAndGlyphs" textLength="90" x="173" y="187.3452">classCall Score : 0</text><text fill="#000000" font-family="sans-serif" font-size="11" lengthAdjust="spacingAndGlyphs" textLength="64" x="173" y="202.4541">Call Score : 0</text><text fill="#000000" font-family="sans-serif" font-size="11" lengthAdjust="spacingAndGlyphs" textLength="77" x="173" y="217.563">CallBy Score : 2</text><text fill="#000000" font-family="sans-serif" font-size="11" lengthAdjust="spacingAndGlyphs" textLength="104" x="173" y="232.6719">memberUse Score : 0</text><text fill="#000000" font-family="sans-serif" font-size="11" lengthAdjust="spacingAndGlyphs" textLength="97" x="173" y="247.7808">localValue Score : 0</text><text fill="#000000" font-family="sans-serif" font-size="11" lengthAdjust="spacingAndGlyphs" textLength="65" x="173" y="262.8896">exp Score : 0</text><text fill="#000000" font-family="sans-serif" font-size="11" lengthAdjust="spacingAndGlyphs" textLength="78" x="173" y="277.9985">repeat Score : 0</text><text fill="#000000" font-family="sans-serif" font-size="11" lengthAdjust="spacingAndGlyphs" textLength="81" x="173" y="293.1074">brench Score : 0</text><text fill="#000000" font-family="sans-serif" font-size="11" lengthAdjust="spacingAndGlyphs" textLength="80" x="173" y="308.2163">callCountNum : 0</text><text fill="#000000" font-family="sans-serif" font-size="11" lengthAdjust="spacingAndGlyphs" textLength="66" x="173" y="323.3252">cyclomatic : 1</text><text fill="#000000" font-family="sans-serif" font-size="11" lengthAdjust="spacingAndGlyphs" textLength="105" x="173" y="338.4341">State Node lineNum: 0</text><text fill="#000000" font-family="sans-serif" font-size="11" lengthAdjust="spacingAndGlyphs" textLength="92" x="173" y="353.543">State Node Num : 0</text><text fill="#000000" font-family="sans-serif" font-size="11" lengthAdjust="spacingAndGlyphs" textLength="122" x="173" y="368.6519">State Node callListSize: 0</text><text fill="#000000" font-family="sans-serif" font-size="11" lengthAdjust="spacingAndGlyphs" textLength="123" x="173" y="383.7607">State Node repeatSize : 0</text><text fill="#000000" font-family="sans-serif" font-size="11" lengthAdjust="spacingAndGlyphs" textLength="117" x="173" y="398.8696">State Node writeSize : 0</text><text fill="#000000" font-family="sans-serif" font-size="11" lengthAdjust="spacingAndGlyphs" textLength="114" x="173" y="413.9785">State Node bifurSize : 0</text><text fill="#000000" font-family="sans-serif" font-size="11" lengthAdjust="spacingAndGlyphs" textLength="206" x="173" y="429.0874">Calculated Estunated Program Length: NaN</text><text fill="#000000" font-family="sans-serif" font-size="11" lengthAdjust="spacingAndGlyphs" textLength="65" x="173" y="444.1963">Volume : NaN</text><text fill="#000000" font-family="sans-serif" font-size="11" lengthAdjust="spacingAndGlyphs" textLength="72" x="173" y="459.3052">Diffifculty: NaN</text><text fill="#000000" font-family="sans-serif" font-size="11" lengthAdjust="spacingAndGlyphs" textLength="56" x="173" y="474.4141">Effort : NaN</text><text fill="#000000" font-family="sans-serif" font-size="11" lengthAdjust="spacingAndGlyphs" textLength="69" x="173" y="489.5229">ABS Score : 0</text><text fill="#000000" font-family="sans-serif" font-size="11" lengthAdjust="spacingAndGlyphs" textLength="85" x="173" y="504.6318">Relative Score : 0</text><line style="stroke: #008000; stroke-width: 1.5;" x1="168" x2="307" y1="151.99" y2="151.99"/><text fill="#FFA500" font-family="sans-serif" font-size="11" font-weight="bold" lengthAdjust="spacingAndGlyphs" textLength="73" x="307" y="156.6274">Complex Info</text><line style="stroke: #008000; stroke-width: 1.5;" x1="380" x2="519" y1="151.99" y2="151.99"/><!--MD5=[f04bc90bf33944b7fab332a83ab18852]
class ClassComplex--><rect codeLine="1" fill="#FEFECE" filter="url(#fiq94597fctil)" height="274.6333" id="ClassComplex" style="stroke: #A80036; stroke-width: 1.5;" width="125" x="7" y="140"/><ellipse cx="26.95" cy="156" fill="#ADD1B2" rx="11" ry="11" style="stroke: #A80036; stroke-width: 1.0;"/><path d="M26.7781,149.4844 Q24.9031,149.4844 23.7469,151.2344 Q22.5594,153.0156 22.5594,156.0156 Q22.5594,159.3906 23.7625,161.1563 Q24.825,162.7813 26.575,162.7813 Q28.2625,162.7813 29.2156,161.875 Q30.2781,160.8594 30.4188,158.625 Q30.4188,158.2031 30.1844,157.9688 Q29.9969,157.7344 29.6531,157.7031 Q29.325,157.7031 29.0906,157.8906 Q28.825,158.125 28.825,158.5156 Q28.7938,159.9063 28.2,160.6406 Q27.6688,161.3438 26.7156,161.3438 Q25.5594,161.3438 24.8406,159.9063 Q24.1219,158.4063 24.1219,155.9844 Q24.1219,153.4375 25.0125,152.0469 Q25.7625,150.9219 26.9031,150.9219 Q27.5594,150.9219 28.0594,151.4688 Q28.6219,152.0781 28.7469,153.1406 Q28.7938,153.8438 29.6219,153.7344 Q30.4031,153.625 30.3563,152.9375 Q30.1688,151.4219 29.4031,150.5469 Q28.4656,149.4844 26.7781,149.4844 Z "/><text fill="#000000" font-family="sans-serif" font-size="12" lengthAdjust="spacingAndGlyphs" textLength="82" x="42.05" y="161.6045">ClassComplex</text><line style="stroke: #A80036; stroke-width: 1.5;" x1="8" x2="131" y1="172" y2="172"/><text fill="#000000" font-family="sans-serif" font-size="11" lengthAdjust="spacingAndGlyphs" textLength="79" x="13" y="207.8008">memberScor = 0</text><text fill="#000000" font-family="sans-serif" font-size="11" lengthAdjust="spacingAndGlyphs" textLength="113" x="13" y="222.9097">extendsClassScore = 0</text><text fill="#000000" font-family="sans-serif" font-size="11" lengthAdjust="spacingAndGlyphs" textLength="63" x="13" y="238.0186">callScore = 0</text><text fill="#000000" font-family="sans-serif" font-size="11" lengthAdjust="spacingAndGlyphs" textLength="76" x="13" y="253.1274">callByScore = 0</text><text fill="#000000" font-family="sans-serif" font-size="11" lengthAdjust="spacingAndGlyphs" textLength="74" x="13" y="268.2363">methodNum = 0</text><text fill="#000000" font-family="sans-serif" font-size="11" lengthAdjust="spacingAndGlyphs" textLength="77" x="13" y="283.3452">memberNum = 0</text><text fill="#000000" font-family="sans-serif" font-size="11" lengthAdjust="spacingAndGlyphs" textLength="95" x="13" y="298.4541">constructorNum = 0</text><text fill="#000000" font-family="sans-serif" font-size="11" lengthAdjust="spacingAndGlyphs" textLength="83" x="13" y="313.563">selfCoverage = 0</text><text fill="#000000" font-family="sans-serif" font-size="11" lengthAdjust="spacingAndGlyphs" textLength="72" x="13" y="328.6719">needCallBy = 0</text><text fill="#000000" font-family="sans-serif" font-size="11" lengthAdjust="spacingAndGlyphs" textLength="40" x="13" y="343.7808">ABS = 0</text><text fill="#000000" font-family="sans-serif" font-size="11" lengthAdjust="spacingAndGlyphs" textLength="37" x="13" y="358.8896">REL = 0</text><text fill="#000000" font-family="sans-serif" font-size="11" lengthAdjust="spacingAndGlyphs" textLength="83" x="13" y="373.9985">coverage = 0.0%</text><line style="stroke: #A80036; stroke-width: 1.5;" x1="8" x2="33" y1="187.5544" y2="187.5544"/><text fill="#FFA500" font-family="sans-serif" font-size="11" font-weight="bold" lengthAdjust="spacingAndGlyphs" textLength="73" x="33" y="192.1919">Complex Info</text><line style="stroke: #A80036; stroke-width: 1.5;" x1="106" x2="131" y1="187.5544" y2="187.5544"/><text fill="#008000" font-family="sans-serif" font-size="11" lengthAdjust="spacingAndGlyphs" textLength="113" x="13" y="408.2163">null getExpression() (0)</text><line style="stroke: #A80036; stroke-width: 1.5;" x1="8" x2="49.5" y1="387.97" y2="387.97"/><text fill="#008000" font-family="sans-serif" font-size="11" font-weight="bold" lengthAdjust="spacingAndGlyphs" textLength="40" x="49.5" y="392.6074">has list</text><line style="stroke: #A80036; stroke-width: 1.5;" x1="89.5" x2="131" y1="387.97" y2="387.97"/><!--MD5=[88df314ca6d3c5ab015b1b788156f3df]
@startuml
class ClassComplex{
__**<color:orange>Complex Info</color>**__
	memberScor = 0
	extendsClassScore = 0
	callScore = 0
	callByScore = 0
	methodNum = 0
	memberNum = 0
	constructorNum = 0
	selfCoverage = 0
	needCallBy = 0
	ABS = 0
	REL = 0
	coverage = 0.0%
__**<color:green>has list</color>**__
	<color:green>null getExpression() (0)
}

class org.eclipse.jdt.core.dom.ExpressionStatement.getExpression54879576 as "getExpression()"#line:green 
{
	pram : ( )
	SrcOwnClassName : org.eclipse.jdt.core.dom.ExpressionStatement
	SrcSig : org.eclipse.jdt.core.dom.ExpressionStatement.getExpression()
	Sig : getExpression()
	__**<color:orange>Complex Info</color>**__
	parameter Score : 0
	classCall Score : 0
	Call Score : 0
	CallBy Score : 2
	memberUse Score : 0
	localValue Score : 0
	exp Score : 0
	repeat Score : 0
	brench Score : 0
	callCountNum : 0
	cyclomatic : 1
	State Node lineNum: 0
	State Node Num : 0
	State Node callListSize: 0
	State Node repeatSize : 0
	State Node writeSize : 0
	State Node bifurSize : 0
	Calculated Estunated Program Length: NaN
	Volume : NaN
	Diffifculty: NaN
	Effort : NaN
	ABS Score : 0
	Relative Score : 0
}

@enduml

PlantUML version 1.2020.19(Tue Oct 13 00:10:01 KST 2020)
(APACHE source distribution)
Java Runtime: Java(TM) SE Runtime Environment
JVM: Java HotSpot(TM) 64-Bit Server VM
Default Encoding: MS949
Language: ko
Country: KR
--></g></svg>