<?xml version="1.0" encoding="UTF-8" standalone="no"?><svg xmlns="http://www.w3.org/2000/svg" xmlns:xlink="http://www.w3.org/1999/xlink" contentScriptType="application/ecmascript" contentStyleType="text/css" height="552px" preserveAspectRatio="none" style="width:261px;height:552px;" version="1.1" viewBox="0 0 261 552" width="261px" zoomAndPan="magnify"><defs><filter height="300%" id="fhu3msd1qp6tp" width="300%" x="-1" y="-1"><feGaussianBlur result="blurOut" stdDeviation="2.0"/><feColorMatrix in="blurOut" result="blurOut2" type="matrix" values="0 0 0 0 0 0 0 0 0 0 0 0 0 0 0 0 0 0 .4 0"/><feOffset dx="4.0" dy="4.0" in="blurOut2" result="blurOut3"/><feBlend in="SourceGraphic" in2="blurOut3" mode="normal"/></filter></defs><g><!--MD5=[8ac41235dbb6bab03bbb83319d5ef368]
cluster forMidEx--><polygon fill="#FFFFFF" filter="url(#fhu3msd1qp6tp)" points="16,6,85,6,92,31.2295,244,31.2295,244,545,16,545,16,6" style="stroke: #000000; stroke-width: 1.5;"/><line style="stroke: #000000; stroke-width: 1.5;" x1="16" x2="92" y1="31.2295" y2="31.2295"/><text fill="#000000" font-family="sans-serif" font-size="14" font-weight="bold" lengthAdjust="spacingAndGlyphs" textLength="63" x="20" y="24.1533">forMidEx</text><!--MD5=[bbb640be0fed2d16c0f93f7767474891]
class forMidEx.Game--><rect codeLine="1" fill="#FEFECE" filter="url(#fhu3msd1qp6tp)" height="483.4944" id="forMidEx.Game" style="stroke: #A80036; stroke-width: 1.5;" width="196" x="32" y="45.5"/><ellipse cx="108.75" cy="61.5" fill="#ADD1B2" rx="11" ry="11" style="stroke: #A80036; stroke-width: 1.0;"/><path d="M108.3125,55.0156 Q105.5781,55.0156 104.5,56.6406 Q103.3594,58.3594 103.3594,61.2813 Q103.3594,64.5781 104.5156,66.2813 Q105.5,67.7813 108.1094,67.7813 Q109.6875,67.7813 110.5625,66.9531 Q111.5469,66 111.6875,63.875 Q111.6875,63.5781 111.5156,63.4063 Q111.3906,63.25 111.1719,63.2344 Q109.9531,63.2344 109.7969,63.3594 Q109.625,63.5156 109.625,63.7813 Q109.5938,65.2656 108.9375,66.0781 Q108.3281,66.875 108.25,66.875 Q106.9219,66.875 106.1406,65.2813 Q105.3906,63.7344 105.3906,61.25 Q105.3906,58.625 106.3281,57.1719 Q107.1563,55.9219 108.4375,55.9219 Q108.4375,55.9219 108.7813,56.5469 Q109.4063,57.2188 109.5469,58.375 Q109.6563,58.9531 111.125,58.7344 Q111.6563,58.6563 111.625,58.2344 Q111.4531,56.7969 110.7344,55.9844 Q109.875,55.0156 108.3125,55.0156 Z "/><text fill="#000000" font-family="sans-serif" font-size="12" lengthAdjust="spacingAndGlyphs" textLength="34" x="129.25" y="67.1045">Game</text><line style="stroke: #A80036; stroke-width: 1.5;" x1="33" x2="227" y1="77.5" y2="77.5"/><line style="stroke: #A80036; stroke-width: 1.5;" x1="33" x2="110" y1="93.0544" y2="93.0544"/><text fill="#008000" font-family="sans-serif" font-size="11" font-weight="bold" lengthAdjust="spacingAndGlyphs" textLength="40" x="110" y="97.6919">has list</text><line style="stroke: #A80036; stroke-width: 1.5;" x1="150" x2="227" y1="93.0544" y2="93.0544"/><line style="stroke: #A80036; stroke-width: 1.0; stroke-dasharray: 1.0,2.0;" x1="33" x2="117" y1="115.7178" y2="115.7178"/><text fill="#000000" font-family="sans-serif" font-size="11" lengthAdjust="spacingAndGlyphs" textLength="26" x="117" y="120.3552">class</text><line style="stroke: #A80036; stroke-width: 1.0; stroke-dasharray: 1.0,2.0;" x1="143" x2="227" y1="115.7178" y2="115.7178"/><text fill="#000000" font-family="sans-serif" font-size="11" lengthAdjust="spacingAndGlyphs" textLength="177" x="38" y="158.6274">java.util.Random rand (1423983012);</text><text fill="#000000" font-family="sans-serif" font-size="11" lengthAdjust="spacingAndGlyphs" textLength="128" x="38" y="173.7363">int winCount (746074699);</text><text fill="#000000" font-family="sans-serif" font-size="11" lengthAdjust="spacingAndGlyphs" textLength="175" x="38" y="188.8452">java.lang.String player (127791068);</text><text fill="#000000" font-family="sans-serif" font-size="11" lengthAdjust="spacingAndGlyphs" textLength="136" x="38" y="203.9541">int gameCount (405896924);</text><line style="stroke: #A80036; stroke-width: 1.0; stroke-dasharray: 1.0,2.0;" x1="33" x2="111" y1="138.3811" y2="138.3811"/><text fill="#000000" font-family="sans-serif" font-size="11" lengthAdjust="spacingAndGlyphs" textLength="38" x="111" y="143.0186">member</text><line style="stroke: #A80036; stroke-width: 1.0; stroke-dasharray: 1.0,2.0;" x1="149" x2="227" y1="138.3811" y2="138.3811"/><text fill="#000000" font-family="sans-serif" font-size="11" lengthAdjust="spacingAndGlyphs" textLength="181" x="38" y="238.1719">boolean diceBattle(int) (1471948789);</text><text fill="#000000" font-family="sans-serif" font-size="11" lengthAdjust="spacingAndGlyphs" textLength="184" x="38" y="253.2808">boolean diecLotto(int[]) (1309335839);</text><line style="stroke: #A80036; stroke-width: 1.0; stroke-dasharray: 1.0,2.0;" x1="33" x2="112.5" y1="217.9255" y2="217.9255"/><text fill="#000000" font-family="sans-serif" font-size="11" lengthAdjust="spacingAndGlyphs" textLength="35" x="112.5" y="222.563">method</text><line style="stroke: #A80036; stroke-width: 1.0; stroke-dasharray: 1.0,2.0;" x1="147.5" x2="227" y1="217.9255" y2="217.9255"/><line style="stroke: #A80036; stroke-width: 1.5;" x1="33" x2="102.5" y1="267.2522" y2="267.2522"/><text fill="#0000FF" font-family="sans-serif" font-size="11" font-weight="bold" lengthAdjust="spacingAndGlyphs" textLength="55" x="102.5" y="271.8896">calling list</text><line style="stroke: #A80036; stroke-width: 1.5;" x1="157.5" x2="227" y1="267.2522" y2="267.2522"/><text fill="#000000" font-family="sans-serif" font-size="11" lengthAdjust="spacingAndGlyphs" textLength="102" x="38" y="310.1619">Game (1605851606);</text><line style="stroke: #A80036; stroke-width: 1.0; stroke-dasharray: 1.0,2.0;" x1="33" x2="117" y1="289.9155" y2="289.9155"/><text fill="#000000" font-family="sans-serif" font-size="11" lengthAdjust="spacingAndGlyphs" textLength="26" x="117" y="294.553">class</text><line style="stroke: #A80036; stroke-width: 1.0; stroke-dasharray: 1.0,2.0;" x1="143" x2="227" y1="289.9155" y2="289.9155"/><text fill="#000000" font-family="sans-serif" font-size="11" lengthAdjust="spacingAndGlyphs" textLength="128" x="38" y="344.3796">int winCount (746074699);</text><text fill="#000000" font-family="sans-serif" font-size="11" lengthAdjust="spacingAndGlyphs" textLength="136" x="38" y="359.4885">int gameCount (405896924);</text><line style="stroke: #A80036; stroke-width: 1.0; stroke-dasharray: 1.0,2.0;" x1="33" x2="111" y1="324.1333" y2="324.1333"/><text fill="#000000" font-family="sans-serif" font-size="11" lengthAdjust="spacingAndGlyphs" textLength="38" x="111" y="328.7708">member</text><line style="stroke: #A80036; stroke-width: 1.0; stroke-dasharray: 1.0,2.0;" x1="149" x2="227" y1="324.1333" y2="324.1333"/><text fill="#000000" font-family="sans-serif" font-size="11" lengthAdjust="spacingAndGlyphs" textLength="181" x="38" y="393.7063">boolean diceBattle(int) (1471948789);</text><line style="stroke: #A80036; stroke-width: 1.0; stroke-dasharray: 1.0,2.0;" x1="33" x2="112.5" y1="373.46" y2="373.46"/><text fill="#000000" font-family="sans-serif" font-size="11" lengthAdjust="spacingAndGlyphs" textLength="35" x="112.5" y="378.0974">method</text><line style="stroke: #A80036; stroke-width: 1.0; stroke-dasharray: 1.0,2.0;" x1="147.5" x2="227" y1="373.46" y2="373.46"/><line style="stroke: #A80036; stroke-width: 1.5;" x1="33" x2="96" y1="407.6777" y2="407.6777"/><text fill="#FFA500" font-family="sans-serif" font-size="11" font-weight="bold" lengthAdjust="spacingAndGlyphs" textLength="68" x="96" y="412.3152">called by list</text><line style="stroke: #A80036; stroke-width: 1.5;" x1="164" x2="227" y1="407.6777" y2="407.6777"/><text fill="#000000" font-family="sans-serif" font-size="11" lengthAdjust="spacingAndGlyphs" textLength="102" x="38" y="450.5874">Game (1605851606);</text><line style="stroke: #A80036; stroke-width: 1.0; stroke-dasharray: 1.0,2.0;" x1="33" x2="117" y1="430.3411" y2="430.3411"/><text fill="#000000" font-family="sans-serif" font-size="11" lengthAdjust="spacingAndGlyphs" textLength="26" x="117" y="434.9785">class</text><line style="stroke: #A80036; stroke-width: 1.0; stroke-dasharray: 1.0,2.0;" x1="143" x2="227" y1="430.3411" y2="430.3411"/><line style="stroke: #A80036; stroke-width: 1.0; stroke-dasharray: 1.0,2.0;" x1="33" x2="111" y1="464.5588" y2="464.5588"/><text fill="#000000" font-family="sans-serif" font-size="11" lengthAdjust="spacingAndGlyphs" textLength="38" x="111" y="469.1963">member</text><line style="stroke: #A80036; stroke-width: 1.0; stroke-dasharray: 1.0,2.0;" x1="149" x2="227" y1="464.5588" y2="464.5588"/><text fill="#000000" font-family="sans-serif" font-size="11" lengthAdjust="spacingAndGlyphs" textLength="181" x="38" y="507.4685">boolean diceBattle(int) (1471948789);</text><text fill="#000000" font-family="sans-serif" font-size="11" lengthAdjust="spacingAndGlyphs" textLength="184" x="38" y="522.5774">boolean diecLotto(int[]) (1309335839);</text><line style="stroke: #A80036; stroke-width: 1.0; stroke-dasharray: 1.0,2.0;" x1="33" x2="112.5" y1="487.2222" y2="487.2222"/><text fill="#000000" font-family="sans-serif" font-size="11" lengthAdjust="spacingAndGlyphs" textLength="35" x="112.5" y="491.8596">method</text><line style="stroke: #A80036; stroke-width: 1.0; stroke-dasharray: 1.0,2.0;" x1="147.5" x2="227" y1="487.2222" y2="487.2222"/><!--MD5=[ddf3025e537e555e310bf32d6396ff5b]
@startuml
class forMidEx.Game{
__**<color:green>has list</color>**__
..class..
..member..
	java.util.Random rand (1423983012);
	int winCount (746074699);
	java.lang.String player (127791068);
	int gameCount (405896924);
..method..
	boolean diceBattle(int) (1471948789);
	boolean diecLotto(int[]) (1309335839);
__**<color:blue>calling list</color>**__
..class..
	Game (1605851606);
..member..
	int winCount (746074699);
	int gameCount (405896924);
..method..
	boolean diceBattle(int) (1471948789);
__**<color:orange>called by list</color>**__
..class..
	Game (1605851606);
..member..
..method..
	boolean diceBattle(int) (1471948789);
	boolean diecLotto(int[]) (1309335839);
}

@enduml

PlantUML version 1.2020.19(Tue Oct 13 00:10:01 KST 2020)
(APACHE source distribution)
Java Runtime: Java(TM) SE Runtime Environment
JVM: Java HotSpot(TM) 64-Bit Server VM
Default Encoding: MS949
Language: ko
Country: KR
--></g></svg>