<?xml version="1.0" encoding="UTF-8" standalone="no"?><svg xmlns="http://www.w3.org/2000/svg" xmlns:xlink="http://www.w3.org/1999/xlink" contentScriptType="application/ecmascript" contentStyleType="text/css" height="456px" preserveAspectRatio="none" style="width:315px;height:456px;" version="1.1" viewBox="0 0 315 456" width="315px" zoomAndPan="magnify"><defs><filter height="300%" id="f1j0k49ijlw72p" width="300%" x="-1" y="-1"><feGaussianBlur result="blurOut" stdDeviation="2.0"/><feColorMatrix in="blurOut" result="blurOut2" type="matrix" values="0 0 0 0 0 0 0 0 0 0 0 0 0 0 0 0 0 0 .4 0"/><feOffset dx="4.0" dy="4.0" in="blurOut2" result="blurOut3"/><feBlend in="SourceGraphic" in2="blurOut3" mode="normal"/></filter></defs><g><!--MD5=[e105f759719fe8f26919c29203755413]
cluster dataSet.Function--><polygon fill="#FFFFFF" filter="url(#f1j0k49ijlw72p)" points="16,6,141,6,148,31.2295,298,31.2295,298,449,16,449,16,6" style="stroke: #000000; stroke-width: 1.5;"/><line style="stroke: #000000; stroke-width: 1.5;" x1="16" x2="148" y1="31.2295" y2="31.2295"/><text fill="#000000" font-family="sans-serif" font-size="14" font-weight="bold" lengthAdjust="spacingAndGlyphs" textLength="119" x="20" y="24.1533">dataSet.Function</text><!--MD5=[a3beeec94bd50e22b48394bccc1108a3]
class dataSet.Function.getSrcName()--><rect codeLine="1" fill="#FEFECE" filter="url(#f1j0k49ijlw72p)" height="388.3955" id="dataSet.Function.getSrcName()" style="stroke: #A80036; stroke-width: 1.5;" width="251" x="32" y="45"/><ellipse cx="114.75" cy="61" fill="#ADD1B2" rx="11" ry="11" style="stroke: #A80036; stroke-width: 1.0;"/><path d="M114.3125,54.5156 Q111.5781,54.5156 110.5,56.1406 Q109.3594,57.8594 109.3594,60.7813 Q109.3594,64.0781 110.5156,65.7813 Q111.5,67.2813 114.1094,67.2813 Q115.6875,67.2813 116.5625,66.4531 Q117.5469,65.5 117.6875,63.375 Q117.6875,63.0781 117.5156,62.9063 Q117.3906,62.75 117.1719,62.7344 Q115.9531,62.7344 115.7969,62.8594 Q115.625,63.0156 115.625,63.2813 Q115.5938,64.7656 114.9375,65.5781 Q114.3281,66.375 114.25,66.375 Q112.9219,66.375 112.1406,64.7813 Q111.3906,63.2344 111.3906,60.75 Q111.3906,58.125 112.3281,56.6719 Q113.1563,55.4219 114.4375,55.4219 Q114.4375,55.4219 114.7813,56.0469 Q115.4063,56.7188 115.5469,57.875 Q115.6563,58.4531 117.125,58.2344 Q117.6563,58.1563 117.625,57.7344 Q117.4531,56.2969 116.7344,55.4844 Q115.875,54.5156 114.3125,54.5156 Z "/><text fill="#000000" font-family="sans-serif" font-size="12" lengthAdjust="spacingAndGlyphs" textLength="77" x="135.25" y="66.6045">getSrcName()</text><line style="stroke: #A80036; stroke-width: 1.5;" x1="33" x2="282" y1="77" y2="77"/><line style="stroke: #A80036; stroke-width: 1.5;" x1="33" x2="137.5" y1="92.5544" y2="92.5544"/><text fill="#008000" font-family="sans-serif" font-size="11" font-weight="bold" lengthAdjust="spacingAndGlyphs" textLength="40" x="137.5" y="97.1919">has list</text><line style="stroke: #A80036; stroke-width: 1.5;" x1="177.5" x2="282" y1="92.5544" y2="92.5544"/><line style="stroke: #A80036; stroke-width: 1.0; stroke-dasharray: 1.0,2.0;" x1="33" x2="144.5" y1="115.2178" y2="115.2178"/><text fill="#000000" font-family="sans-serif" font-size="11" lengthAdjust="spacingAndGlyphs" textLength="26" x="144.5" y="119.8552">class</text><line style="stroke: #A80036; stroke-width: 1.0; stroke-dasharray: 1.0,2.0;" x1="170.5" x2="282" y1="115.2178" y2="115.2178"/><line style="stroke: #A80036; stroke-width: 1.0; stroke-dasharray: 1.0,2.0;" x1="33" x2="138.5" y1="137.8811" y2="137.8811"/><text fill="#000000" font-family="sans-serif" font-size="11" lengthAdjust="spacingAndGlyphs" textLength="38" x="138.5" y="142.5186">member</text><line style="stroke: #A80036; stroke-width: 1.0; stroke-dasharray: 1.0,2.0;" x1="176.5" x2="282" y1="137.8811" y2="137.8811"/><line style="stroke: #A80036; stroke-width: 1.0; stroke-dasharray: 1.0,2.0;" x1="33" x2="140" y1="160.5444" y2="160.5444"/><text fill="#000000" font-family="sans-serif" font-size="11" lengthAdjust="spacingAndGlyphs" textLength="35" x="140" y="165.1819">method</text><line style="stroke: #A80036; stroke-width: 1.0; stroke-dasharray: 1.0,2.0;" x1="175" x2="282" y1="160.5444" y2="160.5444"/><line style="stroke: #A80036; stroke-width: 1.5;" x1="33" x2="130" y1="183.2078" y2="183.2078"/><text fill="#0000FF" font-family="sans-serif" font-size="11" font-weight="bold" lengthAdjust="spacingAndGlyphs" textLength="55" x="130" y="187.8452">calling list</text><line style="stroke: #A80036; stroke-width: 1.5;" x1="185" x2="282" y1="183.2078" y2="183.2078"/><text fill="#000000" font-family="sans-serif" font-size="11" lengthAdjust="spacingAndGlyphs" textLength="126" x="38" y="226.1174">Data_base (1111613684);</text><text fill="#000000" font-family="sans-serif" font-size="11" lengthAdjust="spacingAndGlyphs" textLength="115" x="38" y="241.2263">Function (1321203216);</text><line style="stroke: #A80036; stroke-width: 1.0; stroke-dasharray: 1.0,2.0;" x1="33" x2="144.5" y1="205.8711" y2="205.8711"/><text fill="#000000" font-family="sans-serif" font-size="11" lengthAdjust="spacingAndGlyphs" textLength="26" x="144.5" y="210.5085">class</text><line style="stroke: #A80036; stroke-width: 1.0; stroke-dasharray: 1.0,2.0;" x1="170.5" x2="282" y1="205.8711" y2="205.8711"/><line style="stroke: #A80036; stroke-width: 1.0; stroke-dasharray: 1.0,2.0;" x1="33" x2="138.5" y1="255.1978" y2="255.1978"/><text fill="#000000" font-family="sans-serif" font-size="11" lengthAdjust="spacingAndGlyphs" textLength="38" x="138.5" y="259.8352">member</text><line style="stroke: #A80036; stroke-width: 1.0; stroke-dasharray: 1.0,2.0;" x1="176.5" x2="282" y1="255.1978" y2="255.1978"/><text fill="#000000" font-family="sans-serif" font-size="11" lengthAdjust="spacingAndGlyphs" textLength="204" x="38" y="298.1074">String getParameterName() (1414549197);</text><text fill="#000000" font-family="sans-serif" font-size="11" lengthAdjust="spacingAndGlyphs" textLength="172" x="38" y="313.2163">String getSrcName() (1957099969);</text><line style="stroke: #A80036; stroke-width: 1.0; stroke-dasharray: 1.0,2.0;" x1="33" x2="140" y1="277.8611" y2="277.8611"/><text fill="#000000" font-family="sans-serif" font-size="11" lengthAdjust="spacingAndGlyphs" textLength="35" x="140" y="282.4985">method</text><line style="stroke: #A80036; stroke-width: 1.0; stroke-dasharray: 1.0,2.0;" x1="175" x2="282" y1="277.8611" y2="277.8611"/><line style="stroke: #A80036; stroke-width: 1.5;" x1="33" x2="123.5" y1="327.1877" y2="327.1877"/><text fill="#FFA500" font-family="sans-serif" font-size="11" font-weight="bold" lengthAdjust="spacingAndGlyphs" textLength="68" x="123.5" y="331.8252">called by list</text><line style="stroke: #A80036; stroke-width: 1.5;" x1="191.5" x2="282" y1="327.1877" y2="327.1877"/><text fill="#000000" font-family="sans-serif" font-size="11" lengthAdjust="spacingAndGlyphs" textLength="107" x="38" y="370.0974">DataList (225909961);</text><line style="stroke: #A80036; stroke-width: 1.0; stroke-dasharray: 1.0,2.0;" x1="33" x2="144.5" y1="349.8511" y2="349.8511"/><text fill="#000000" font-family="sans-serif" font-size="11" lengthAdjust="spacingAndGlyphs" textLength="26" x="144.5" y="354.4885">class</text><line style="stroke: #A80036; stroke-width: 1.0; stroke-dasharray: 1.0,2.0;" x1="170.5" x2="282" y1="349.8511" y2="349.8511"/><line style="stroke: #A80036; stroke-width: 1.0; stroke-dasharray: 1.0,2.0;" x1="33" x2="138.5" y1="384.0688" y2="384.0688"/><text fill="#000000" font-family="sans-serif" font-size="11" lengthAdjust="spacingAndGlyphs" textLength="38" x="138.5" y="388.7063">member</text><line style="stroke: #A80036; stroke-width: 1.0; stroke-dasharray: 1.0,2.0;" x1="176.5" x2="282" y1="384.0688" y2="384.0688"/><text fill="#000000" font-family="sans-serif" font-size="11" lengthAdjust="spacingAndGlyphs" textLength="239" x="38" y="426.9785">void addFunction(dataSet.Function) (519979933);</text><line style="stroke: #A80036; stroke-width: 1.0; stroke-dasharray: 1.0,2.0;" x1="33" x2="140" y1="406.7322" y2="406.7322"/><text fill="#000000" font-family="sans-serif" font-size="11" lengthAdjust="spacingAndGlyphs" textLength="35" x="140" y="411.3696">method</text><line style="stroke: #A80036; stroke-width: 1.0; stroke-dasharray: 1.0,2.0;" x1="175" x2="282" y1="406.7322" y2="406.7322"/><!--MD5=[a8274d4a49824f52981ddcd756385778]
@startuml
class dataSet.Function.getSrcName(){
__**<color:green>has list</color>**__
..class..
..member..
..method..
__**<color:blue>calling list</color>**__
..class..
	Data_base (1111613684);
	Function (1321203216);
..member..
..method..
	String getParameterName() (1414549197);
	String getSrcName() (1957099969);
__**<color:orange>called by list</color>**__
..class..
	DataList (225909961);
..member..
..method..
	void addFunction(dataSet.Function) (519979933);
}

@enduml

PlantUML version 1.2020.19(Tue Oct 13 00:10:01 KST 2020)
(APACHE source distribution)
Java Runtime: Java(TM) SE Runtime Environment
JVM: Java HotSpot(TM) 64-Bit Server VM
Default Encoding: MS949
Language: ko
Country: KR
--></g></svg>