<?xml version="1.0" encoding="UTF-8" standalone="no"?><svg xmlns="http://www.w3.org/2000/svg" xmlns:xlink="http://www.w3.org/1999/xlink" contentScriptType="application/ecmascript" contentStyleType="text/css" height="430px" preserveAspectRatio="none" style="width:243px;height:430px;" version="1.1" viewBox="0 0 243 430" width="243px" zoomAndPan="magnify"><defs><filter height="300%" id="f1h0f4b6vj380g" width="300%" x="-1" y="-1"><feGaussianBlur result="blurOut" stdDeviation="2.0"/><feColorMatrix in="blurOut" result="blurOut2" type="matrix" values="0 0 0 0 0 0 0 0 0 0 0 0 0 0 0 0 0 0 .4 0"/><feOffset dx="4.0" dy="4.0" in="blurOut2" result="blurOut3"/><feBlend in="SourceGraphic" in2="blurOut3" mode="normal"/></filter></defs><g><!--MD5=[e105f759719fe8f26919c29203755413]
cluster dataSet.Function--><polygon fill="#FFFFFF" filter="url(#f1h0f4b6vj380g)" points="16,6,141,6,148,31.2295,226,31.2295,226,423,16,423,16,6" style="stroke: #000000; stroke-width: 1.5;"/><line style="stroke: #000000; stroke-width: 1.5;" x1="16" x2="148" y1="31.2295" y2="31.2295"/><text fill="#000000" font-family="sans-serif" font-size="14" font-weight="bold" lengthAdjust="spacingAndGlyphs" textLength="119" x="20" y="24.1533">dataSet.Function</text><!--MD5=[fc47d4bfa1348cc286824f0b892eed05]
class dataSet.Function.getParameterName()--><rect codeLine="1" fill="#FEFECE" filter="url(#f1h0f4b6vj380g)" height="361.7322" id="dataSet.Function.getParameterName()" style="stroke: #A80036; stroke-width: 1.5;" width="178" x="32" y="45"/><ellipse cx="60.05" cy="61" fill="#ADD1B2" rx="11" ry="11" style="stroke: #A80036; stroke-width: 1.0;"/><path d="M59.6125,54.5156 Q56.8781,54.5156 55.8,56.1406 Q54.6594,57.8594 54.6594,60.7813 Q54.6594,64.0781 55.8156,65.7813 Q56.8,67.2813 59.4094,67.2813 Q60.9875,67.2813 61.8625,66.4531 Q62.8469,65.5 62.9875,63.375 Q62.9875,63.0781 62.8156,62.9063 Q62.6906,62.75 62.4719,62.7344 Q61.2531,62.7344 61.0969,62.8594 Q60.925,63.0156 60.925,63.2813 Q60.8938,64.7656 60.2375,65.5781 Q59.6281,66.375 59.55,66.375 Q58.2219,66.375 57.4406,64.7813 Q56.6906,63.2344 56.6906,60.75 Q56.6906,58.125 57.6281,56.6719 Q58.4563,55.4219 59.7375,55.4219 Q59.7375,55.4219 60.0813,56.0469 Q60.7063,56.7188 60.8469,57.875 Q60.9563,58.4531 62.425,58.2344 Q62.9563,58.1563 62.925,57.7344 Q62.7531,56.2969 62.0344,55.4844 Q61.175,54.5156 59.6125,54.5156 Z "/><text fill="#000000" font-family="sans-serif" font-size="12" lengthAdjust="spacingAndGlyphs" textLength="117" x="76.95" y="66.6045">getParameterName()</text><line style="stroke: #A80036; stroke-width: 1.5;" x1="33" x2="209" y1="77" y2="77"/><line style="stroke: #A80036; stroke-width: 1.5;" x1="33" x2="101" y1="92.5544" y2="92.5544"/><text fill="#008000" font-family="sans-serif" font-size="11" font-weight="bold" lengthAdjust="spacingAndGlyphs" textLength="40" x="101" y="97.1919">has list</text><line style="stroke: #A80036; stroke-width: 1.5;" x1="141" x2="209" y1="92.5544" y2="92.5544"/><line style="stroke: #A80036; stroke-width: 1.0; stroke-dasharray: 1.0,2.0;" x1="33" x2="108" y1="115.2178" y2="115.2178"/><text fill="#000000" font-family="sans-serif" font-size="11" lengthAdjust="spacingAndGlyphs" textLength="26" x="108" y="119.8552">class</text><line style="stroke: #A80036; stroke-width: 1.0; stroke-dasharray: 1.0,2.0;" x1="134" x2="209" y1="115.2178" y2="115.2178"/><text fill="#000000" font-family="sans-serif" font-size="11" lengthAdjust="spacingAndGlyphs" textLength="90" x="38" y="158.1274">int i (1741786839);</text><text fill="#000000" font-family="sans-serif" font-size="11" lengthAdjust="spacingAndGlyphs" textLength="112" x="38" y="173.2363">String str (746115872);</text><line style="stroke: #A80036; stroke-width: 1.0; stroke-dasharray: 1.0,2.0;" x1="33" x2="102" y1="137.8811" y2="137.8811"/><text fill="#000000" font-family="sans-serif" font-size="11" lengthAdjust="spacingAndGlyphs" textLength="38" x="102" y="142.5186">member</text><line style="stroke: #A80036; stroke-width: 1.0; stroke-dasharray: 1.0,2.0;" x1="140" x2="209" y1="137.8811" y2="137.8811"/><line style="stroke: #A80036; stroke-width: 1.0; stroke-dasharray: 1.0,2.0;" x1="33" x2="103.5" y1="187.2078" y2="187.2078"/><text fill="#000000" font-family="sans-serif" font-size="11" lengthAdjust="spacingAndGlyphs" textLength="35" x="103.5" y="191.8452">method</text><line style="stroke: #A80036; stroke-width: 1.0; stroke-dasharray: 1.0,2.0;" x1="138.5" x2="209" y1="187.2078" y2="187.2078"/><line style="stroke: #A80036; stroke-width: 1.5;" x1="33" x2="93.5" y1="209.8711" y2="209.8711"/><text fill="#0000FF" font-family="sans-serif" font-size="11" font-weight="bold" lengthAdjust="spacingAndGlyphs" textLength="55" x="93.5" y="214.5085">calling list</text><line style="stroke: #A80036; stroke-width: 1.5;" x1="148.5" x2="209" y1="209.8711" y2="209.8711"/><line style="stroke: #A80036; stroke-width: 1.0; stroke-dasharray: 1.0,2.0;" x1="33" x2="108" y1="232.5344" y2="232.5344"/><text fill="#000000" font-family="sans-serif" font-size="11" lengthAdjust="spacingAndGlyphs" textLength="26" x="108" y="237.1719">class</text><line style="stroke: #A80036; stroke-width: 1.0; stroke-dasharray: 1.0,2.0;" x1="134" x2="209" y1="232.5344" y2="232.5344"/><line style="stroke: #A80036; stroke-width: 1.0; stroke-dasharray: 1.0,2.0;" x1="33" x2="102" y1="255.1978" y2="255.1978"/><text fill="#000000" font-family="sans-serif" font-size="11" lengthAdjust="spacingAndGlyphs" textLength="38" x="102" y="259.8352">member</text><line style="stroke: #A80036; stroke-width: 1.0; stroke-dasharray: 1.0,2.0;" x1="140" x2="209" y1="255.1978" y2="255.1978"/><line style="stroke: #A80036; stroke-width: 1.0; stroke-dasharray: 1.0,2.0;" x1="33" x2="103.5" y1="277.8611" y2="277.8611"/><text fill="#000000" font-family="sans-serif" font-size="11" lengthAdjust="spacingAndGlyphs" textLength="35" x="103.5" y="282.4985">method</text><line style="stroke: #A80036; stroke-width: 1.0; stroke-dasharray: 1.0,2.0;" x1="138.5" x2="209" y1="277.8611" y2="277.8611"/><line style="stroke: #A80036; stroke-width: 1.5;" x1="33" x2="87" y1="300.5244" y2="300.5244"/><text fill="#FFA500" font-family="sans-serif" font-size="11" font-weight="bold" lengthAdjust="spacingAndGlyphs" textLength="68" x="87" y="305.1619">called by list</text><line style="stroke: #A80036; stroke-width: 1.5;" x1="155" x2="209" y1="300.5244" y2="300.5244"/><text fill="#000000" font-family="sans-serif" font-size="11" lengthAdjust="spacingAndGlyphs" textLength="115" x="38" y="343.4341">Function (1321203216);</text><line style="stroke: #A80036; stroke-width: 1.0; stroke-dasharray: 1.0,2.0;" x1="33" x2="108" y1="323.1877" y2="323.1877"/><text fill="#000000" font-family="sans-serif" font-size="11" lengthAdjust="spacingAndGlyphs" textLength="26" x="108" y="327.8252">class</text><line style="stroke: #A80036; stroke-width: 1.0; stroke-dasharray: 1.0,2.0;" x1="134" x2="209" y1="323.1877" y2="323.1877"/><line style="stroke: #A80036; stroke-width: 1.0; stroke-dasharray: 1.0,2.0;" x1="33" x2="102" y1="357.4055" y2="357.4055"/><text fill="#000000" font-family="sans-serif" font-size="11" lengthAdjust="spacingAndGlyphs" textLength="38" x="102" y="362.043">member</text><line style="stroke: #A80036; stroke-width: 1.0; stroke-dasharray: 1.0,2.0;" x1="140" x2="209" y1="357.4055" y2="357.4055"/><text fill="#000000" font-family="sans-serif" font-size="11" lengthAdjust="spacingAndGlyphs" textLength="166" x="38" y="400.3152">String getSrcName() (195801026);</text><line style="stroke: #A80036; stroke-width: 1.0; stroke-dasharray: 1.0,2.0;" x1="33" x2="103.5" y1="380.0688" y2="380.0688"/><text fill="#000000" font-family="sans-serif" font-size="11" lengthAdjust="spacingAndGlyphs" textLength="35" x="103.5" y="384.7063">method</text><line style="stroke: #A80036; stroke-width: 1.0; stroke-dasharray: 1.0,2.0;" x1="138.5" x2="209" y1="380.0688" y2="380.0688"/><!--MD5=[cee1a82485c529ae6b03c44ca0aead97]
@startuml
class dataSet.Function.getParameterName(){
__**<color:green>has list</color>**__
..class..
..member..
	int i (1741786839);
	String str (746115872);
..method..
__**<color:blue>calling list</color>**__
..class..
..member..
..method..
__**<color:orange>called by list</color>**__
..class..
	Function (1321203216);
..member..
..method..
	String getSrcName() (195801026);
}

@enduml

PlantUML version 1.2020.19(Tue Oct 13 00:10:01 KST 2020)
(APACHE source distribution)
Java Runtime: Java(TM) SE Runtime Environment
JVM: Java HotSpot(TM) 64-Bit Server VM
Default Encoding: MS949
Language: ko
Country: KR
--></g></svg>