<?xml version="1.0" encoding="UTF-8" standalone="no"?><svg xmlns="http://www.w3.org/2000/svg" xmlns:xlink="http://www.w3.org/1999/xlink" contentScriptType="application/ecmascript" contentStyleType="text/css" height="404px" preserveAspectRatio="none" style="width:237px;height:404px;" version="1.1" viewBox="0 0 237 404" width="237px" zoomAndPan="magnify"><defs><filter height="300%" id="f1m8dcm1l0rr27" width="300%" x="-1" y="-1"><feGaussianBlur result="blurOut" stdDeviation="2.0"/><feColorMatrix in="blurOut" result="blurOut2" type="matrix" values="0 0 0 0 0 0 0 0 0 0 0 0 0 0 0 0 0 0 .4 0"/><feOffset dx="4.0" dy="4.0" in="blurOut2" result="blurOut3"/><feBlend in="SourceGraphic" in2="blurOut3" mode="normal"/></filter></defs><g><!--MD5=[ae1c114076ab3c7d0d16779bc5369945]
cluster dataSet.Class--><polygon fill="#FFFFFF" filter="url(#f1m8dcm1l0rr27)" points="16,6,117,6,124,31.2295,220,31.2295,220,397,16,397,16,6" style="stroke: #000000; stroke-width: 1.5;"/><line style="stroke: #000000; stroke-width: 1.5;" x1="16" x2="124" y1="31.2295" y2="31.2295"/><text fill="#000000" font-family="sans-serif" font-size="14" font-weight="bold" lengthAdjust="spacingAndGlyphs" textLength="95" x="20" y="24.1533">dataSet.Class</text><!--MD5=[0a90a1791a137a0bf38ae675ba86a6dc]
class dataSet.Class.setIsInterface(boolean)--><rect codeLine="1" fill="#FEFECE" filter="url(#f1m8dcm1l0rr27)" height="335.0688" id="dataSet.Class.setIsInterface(boolean)" style="stroke: #A80036; stroke-width: 1.5;" width="172" x="32" y="45.5"/><ellipse cx="52.85" cy="61.5" fill="#ADD1B2" rx="11" ry="11" style="stroke: #A80036; stroke-width: 1.0;"/><path d="M52.4125,55.0156 Q49.6781,55.0156 48.6,56.6406 Q47.4594,58.3594 47.4594,61.2813 Q47.4594,64.5781 48.6156,66.2813 Q49.6,67.7813 52.2094,67.7813 Q53.7875,67.7813 54.6625,66.9531 Q55.6469,66 55.7875,63.875 Q55.7875,63.5781 55.6156,63.4063 Q55.4906,63.25 55.2719,63.2344 Q54.0531,63.2344 53.8969,63.3594 Q53.725,63.5156 53.725,63.7813 Q53.6938,65.2656 53.0375,66.0781 Q52.4281,66.875 52.35,66.875 Q51.0219,66.875 50.2406,65.2813 Q49.4906,63.7344 49.4906,61.25 Q49.4906,58.625 50.4281,57.1719 Q51.2563,55.9219 52.5375,55.9219 Q52.5375,55.9219 52.8813,56.5469 Q53.5063,57.2188 53.6469,58.375 Q53.7563,58.9531 55.225,58.7344 Q55.7563,58.6563 55.725,58.2344 Q55.5531,56.7969 54.8344,55.9844 Q53.975,55.0156 52.4125,55.0156 Z "/><text fill="#000000" font-family="sans-serif" font-size="12" lengthAdjust="spacingAndGlyphs" textLength="127" x="68.15" y="67.1045">setIsInterface(boolean)</text><line style="stroke: #A80036; stroke-width: 1.5;" x1="33" x2="203" y1="77.5" y2="77.5"/><line style="stroke: #A80036; stroke-width: 1.5;" x1="33" x2="98" y1="93.0544" y2="93.0544"/><text fill="#008000" font-family="sans-serif" font-size="11" font-weight="bold" lengthAdjust="spacingAndGlyphs" textLength="40" x="98" y="97.6919">has list</text><line style="stroke: #A80036; stroke-width: 1.5;" x1="138" x2="203" y1="93.0544" y2="93.0544"/><line style="stroke: #A80036; stroke-width: 1.0; stroke-dasharray: 1.0,2.0;" x1="33" x2="105" y1="115.7178" y2="115.7178"/><text fill="#000000" font-family="sans-serif" font-size="11" lengthAdjust="spacingAndGlyphs" textLength="26" x="105" y="120.3552">class</text><line style="stroke: #A80036; stroke-width: 1.0; stroke-dasharray: 1.0,2.0;" x1="131" x2="203" y1="115.7178" y2="115.7178"/><text fill="#000000" font-family="sans-serif" font-size="11" lengthAdjust="spacingAndGlyphs" textLength="160" x="38" y="158.6274">boolean isInterface (273077527);</text><line style="stroke: #A80036; stroke-width: 1.0; stroke-dasharray: 1.0,2.0;" x1="33" x2="99" y1="138.3811" y2="138.3811"/><text fill="#000000" font-family="sans-serif" font-size="11" lengthAdjust="spacingAndGlyphs" textLength="38" x="99" y="143.0186">member</text><line style="stroke: #A80036; stroke-width: 1.0; stroke-dasharray: 1.0,2.0;" x1="137" x2="203" y1="138.3811" y2="138.3811"/><line style="stroke: #A80036; stroke-width: 1.0; stroke-dasharray: 1.0,2.0;" x1="33" x2="100.5" y1="172.5989" y2="172.5989"/><text fill="#000000" font-family="sans-serif" font-size="11" lengthAdjust="spacingAndGlyphs" textLength="35" x="100.5" y="177.2363">method</text><line style="stroke: #A80036; stroke-width: 1.0; stroke-dasharray: 1.0,2.0;" x1="135.5" x2="203" y1="172.5989" y2="172.5989"/><line style="stroke: #A80036; stroke-width: 1.5;" x1="33" x2="90.5" y1="195.2622" y2="195.2622"/><text fill="#0000FF" font-family="sans-serif" font-size="11" font-weight="bold" lengthAdjust="spacingAndGlyphs" textLength="55" x="90.5" y="199.8997">calling list</text><line style="stroke: #A80036; stroke-width: 1.5;" x1="145.5" x2="203" y1="195.2622" y2="195.2622"/><line style="stroke: #A80036; stroke-width: 1.0; stroke-dasharray: 1.0,2.0;" x1="33" x2="105" y1="217.9255" y2="217.9255"/><text fill="#000000" font-family="sans-serif" font-size="11" lengthAdjust="spacingAndGlyphs" textLength="26" x="105" y="222.563">class</text><line style="stroke: #A80036; stroke-width: 1.0; stroke-dasharray: 1.0,2.0;" x1="131" x2="203" y1="217.9255" y2="217.9255"/><text fill="#000000" font-family="sans-serif" font-size="11" lengthAdjust="spacingAndGlyphs" textLength="160" x="38" y="260.8352">boolean isInterface (512456259);</text><line style="stroke: #A80036; stroke-width: 1.0; stroke-dasharray: 1.0,2.0;" x1="33" x2="99" y1="240.5889" y2="240.5889"/><text fill="#000000" font-family="sans-serif" font-size="11" lengthAdjust="spacingAndGlyphs" textLength="38" x="99" y="245.2263">member</text><line style="stroke: #A80036; stroke-width: 1.0; stroke-dasharray: 1.0,2.0;" x1="137" x2="203" y1="240.5889" y2="240.5889"/><line style="stroke: #A80036; stroke-width: 1.0; stroke-dasharray: 1.0,2.0;" x1="33" x2="100.5" y1="274.8066" y2="274.8066"/><text fill="#000000" font-family="sans-serif" font-size="11" lengthAdjust="spacingAndGlyphs" textLength="35" x="100.5" y="279.4441">method</text><line style="stroke: #A80036; stroke-width: 1.0; stroke-dasharray: 1.0,2.0;" x1="135.5" x2="203" y1="274.8066" y2="274.8066"/><line style="stroke: #A80036; stroke-width: 1.5;" x1="33" x2="84" y1="297.47" y2="297.47"/><text fill="#FFA500" font-family="sans-serif" font-size="11" font-weight="bold" lengthAdjust="spacingAndGlyphs" textLength="68" x="84" y="302.1074">called by list</text><line style="stroke: #A80036; stroke-width: 1.5;" x1="152" x2="203" y1="297.47" y2="297.47"/><line style="stroke: #A80036; stroke-width: 1.0; stroke-dasharray: 1.0,2.0;" x1="33" x2="105" y1="320.1333" y2="320.1333"/><text fill="#000000" font-family="sans-serif" font-size="11" lengthAdjust="spacingAndGlyphs" textLength="26" x="105" y="324.7708">class</text><line style="stroke: #A80036; stroke-width: 1.0; stroke-dasharray: 1.0,2.0;" x1="131" x2="203" y1="320.1333" y2="320.1333"/><line style="stroke: #A80036; stroke-width: 1.0; stroke-dasharray: 1.0,2.0;" x1="33" x2="99" y1="342.7966" y2="342.7966"/><text fill="#000000" font-family="sans-serif" font-size="11" lengthAdjust="spacingAndGlyphs" textLength="38" x="99" y="347.4341">member</text><line style="stroke: #A80036; stroke-width: 1.0; stroke-dasharray: 1.0,2.0;" x1="137" x2="203" y1="342.7966" y2="342.7966"/><line style="stroke: #A80036; stroke-width: 1.0; stroke-dasharray: 1.0,2.0;" x1="33" x2="100.5" y1="365.46" y2="365.46"/><text fill="#000000" font-family="sans-serif" font-size="11" lengthAdjust="spacingAndGlyphs" textLength="35" x="100.5" y="370.0974">method</text><line style="stroke: #A80036; stroke-width: 1.0; stroke-dasharray: 1.0,2.0;" x1="135.5" x2="203" y1="365.46" y2="365.46"/><!--MD5=[508167d254277bba20e2fe995ace2803]
@startuml
class dataSet.Class.setIsInterface(boolean){
__**<color:green>has list</color>**__
..class..
..member..
	boolean isInterface (273077527);
..method..
__**<color:blue>calling list</color>**__
..class..
..member..
	boolean isInterface (512456259);
..method..
__**<color:orange>called by list</color>**__
..class..
..member..
..method..
}

@enduml

PlantUML version 1.2020.19(Tue Oct 13 00:10:01 KST 2020)
(APACHE source distribution)
Java Runtime: Java(TM) SE Runtime Environment
JVM: Java HotSpot(TM) 64-Bit Server VM
Default Encoding: MS949
Language: ko
Country: KR
--></g></svg>