<?xml version="1.0" encoding="UTF-8" standalone="no"?><svg xmlns="http://www.w3.org/2000/svg" xmlns:xlink="http://www.w3.org/1999/xlink" contentScriptType="application/ecmascript" contentStyleType="text/css" height="422px" preserveAspectRatio="none" style="width:231px;height:422px;" version="1.1" viewBox="0 0 231 422" width="231px" zoomAndPan="magnify"><defs><filter height="300%" id="f1e4gzhd1ng1yd" width="300%" x="-1" y="-1"><feGaussianBlur result="blurOut" stdDeviation="2.0"/><feColorMatrix in="blurOut" result="blurOut2" type="matrix" values="0 0 0 0 0 0 0 0 0 0 0 0 0 0 0 0 0 0 .4 0"/><feOffset dx="4.0" dy="4.0" in="blurOut2" result="blurOut3"/><feBlend in="SourceGraphic" in2="blurOut3" mode="normal"/></filter></defs><g><!--MD5=[ae1c114076ab3c7d0d16779bc5369945]
cluster dataSet.Class--><polygon fill="#FFFFFF" filter="url(#f1e4gzhd1ng1yd)" points="16,6,117,6,124,31.2295,214,31.2295,214,415,16,415,16,6" style="stroke: #000000; stroke-width: 1.5;"/><line style="stroke: #000000; stroke-width: 1.5;" x1="16" x2="124" y1="31.2295" y2="31.2295"/><text fill="#000000" font-family="sans-serif" font-size="14" font-weight="bold" lengthAdjust="spacingAndGlyphs" textLength="95" x="20" y="24.1533">dataSet.Class</text><!--MD5=[db2e6e7c21a810328c3dad8c37c3152d]
class dataSet.Class.getSuperClass()--><rect codeLine="1" fill="#FEFECE" filter="url(#f1e4gzhd1ng1yd)" height="353.7322" id="dataSet.Class.getSuperClass()" style="stroke: #A80036; stroke-width: 1.5;" width="167" x="32" y="45"/><ellipse cx="66.8" cy="61" fill="#ADD1B2" rx="11" ry="11" style="stroke: #A80036; stroke-width: 1.0;"/><path d="M66.3625,54.5156 Q63.6281,54.5156 62.55,56.1406 Q61.4094,57.8594 61.4094,60.7813 Q61.4094,64.0781 62.5656,65.7813 Q63.55,67.2813 66.1594,67.2813 Q67.7375,67.2813 68.6125,66.4531 Q69.5969,65.5 69.7375,63.375 Q69.7375,63.0781 69.5656,62.9063 Q69.4406,62.75 69.2219,62.7344 Q68.0031,62.7344 67.8469,62.8594 Q67.675,63.0156 67.675,63.2813 Q67.6438,64.7656 66.9875,65.5781 Q66.3781,66.375 66.3,66.375 Q64.9719,66.375 64.1906,64.7813 Q63.4406,63.2344 63.4406,60.75 Q63.4406,58.125 64.3781,56.6719 Q65.2063,55.4219 66.4875,55.4219 Q66.4875,55.4219 66.8313,56.0469 Q67.4563,56.7188 67.5969,57.875 Q67.7063,58.4531 69.175,58.2344 Q69.7063,58.1563 69.675,57.7344 Q69.5031,56.2969 68.7844,55.4844 Q67.925,54.5156 66.3625,54.5156 Z "/><text fill="#000000" font-family="sans-serif" font-size="12" lengthAdjust="spacingAndGlyphs" textLength="91" x="85.2" y="66.6045">getSuperClass()</text><line style="stroke: #A80036; stroke-width: 1.5;" x1="33" x2="198" y1="77" y2="77"/><line style="stroke: #A80036; stroke-width: 1.5;" x1="33" x2="95.5" y1="92.5544" y2="92.5544"/><text fill="#008000" font-family="sans-serif" font-size="11" font-weight="bold" lengthAdjust="spacingAndGlyphs" textLength="40" x="95.5" y="97.1919">has list</text><line style="stroke: #A80036; stroke-width: 1.5;" x1="135.5" x2="198" y1="92.5544" y2="92.5544"/><line style="stroke: #A80036; stroke-width: 1.0; stroke-dasharray: 1.0,2.0;" x1="33" x2="102.5" y1="115.2178" y2="115.2178"/><text fill="#000000" font-family="sans-serif" font-size="11" lengthAdjust="spacingAndGlyphs" textLength="26" x="102.5" y="119.8552">class</text><line style="stroke: #A80036; stroke-width: 1.0; stroke-dasharray: 1.0,2.0;" x1="128.5" x2="198" y1="115.2178" y2="115.2178"/><text fill="#000000" font-family="sans-serif" font-size="11" lengthAdjust="spacingAndGlyphs" textLength="155" x="38" y="158.1274">Class[] superList (1814827909);</text><text fill="#000000" font-family="sans-serif" font-size="11" lengthAdjust="spacingAndGlyphs" textLength="142" x="38" y="173.2363">int extendSize (1597328335);</text><text fill="#000000" font-family="sans-serif" font-size="11" lengthAdjust="spacingAndGlyphs" textLength="90" x="38" y="188.3452">int i (1034909474);</text><line style="stroke: #A80036; stroke-width: 1.0; stroke-dasharray: 1.0,2.0;" x1="33" x2="96.5" y1="137.8811" y2="137.8811"/><text fill="#000000" font-family="sans-serif" font-size="11" lengthAdjust="spacingAndGlyphs" textLength="38" x="96.5" y="142.5186">member</text><line style="stroke: #A80036; stroke-width: 1.0; stroke-dasharray: 1.0,2.0;" x1="134.5" x2="198" y1="137.8811" y2="137.8811"/><line style="stroke: #A80036; stroke-width: 1.0; stroke-dasharray: 1.0,2.0;" x1="33" x2="98" y1="202.3167" y2="202.3167"/><text fill="#000000" font-family="sans-serif" font-size="11" lengthAdjust="spacingAndGlyphs" textLength="35" x="98" y="206.9541">method</text><line style="stroke: #A80036; stroke-width: 1.0; stroke-dasharray: 1.0,2.0;" x1="133" x2="198" y1="202.3167" y2="202.3167"/><line style="stroke: #A80036; stroke-width: 1.5;" x1="33" x2="88" y1="224.98" y2="224.98"/><text fill="#0000FF" font-family="sans-serif" font-size="11" font-weight="bold" lengthAdjust="spacingAndGlyphs" textLength="55" x="88" y="229.6174">calling list</text><line style="stroke: #A80036; stroke-width: 1.5;" x1="143" x2="198" y1="224.98" y2="224.98"/><line style="stroke: #A80036; stroke-width: 1.0; stroke-dasharray: 1.0,2.0;" x1="33" x2="102.5" y1="247.6433" y2="247.6433"/><text fill="#000000" font-family="sans-serif" font-size="11" lengthAdjust="spacingAndGlyphs" textLength="26" x="102.5" y="252.2808">class</text><line style="stroke: #A80036; stroke-width: 1.0; stroke-dasharray: 1.0,2.0;" x1="128.5" x2="198" y1="247.6433" y2="247.6433"/><line style="stroke: #A80036; stroke-width: 1.0; stroke-dasharray: 1.0,2.0;" x1="33" x2="96.5" y1="270.3066" y2="270.3066"/><text fill="#000000" font-family="sans-serif" font-size="11" lengthAdjust="spacingAndGlyphs" textLength="38" x="96.5" y="274.9441">member</text><line style="stroke: #A80036; stroke-width: 1.0; stroke-dasharray: 1.0,2.0;" x1="134.5" x2="198" y1="270.3066" y2="270.3066"/><line style="stroke: #A80036; stroke-width: 1.0; stroke-dasharray: 1.0,2.0;" x1="33" x2="98" y1="292.97" y2="292.97"/><text fill="#000000" font-family="sans-serif" font-size="11" lengthAdjust="spacingAndGlyphs" textLength="35" x="98" y="297.6074">method</text><line style="stroke: #A80036; stroke-width: 1.0; stroke-dasharray: 1.0,2.0;" x1="133" x2="198" y1="292.97" y2="292.97"/><line style="stroke: #A80036; stroke-width: 1.5;" x1="33" x2="81.5" y1="315.6333" y2="315.6333"/><text fill="#FFA500" font-family="sans-serif" font-size="11" font-weight="bold" lengthAdjust="spacingAndGlyphs" textLength="68" x="81.5" y="320.2708">called by list</text><line style="stroke: #A80036; stroke-width: 1.5;" x1="149.5" x2="198" y1="315.6333" y2="315.6333"/><line style="stroke: #A80036; stroke-width: 1.0; stroke-dasharray: 1.0,2.0;" x1="33" x2="102.5" y1="338.2966" y2="338.2966"/><text fill="#000000" font-family="sans-serif" font-size="11" lengthAdjust="spacingAndGlyphs" textLength="26" x="102.5" y="342.9341">class</text><line style="stroke: #A80036; stroke-width: 1.0; stroke-dasharray: 1.0,2.0;" x1="128.5" x2="198" y1="338.2966" y2="338.2966"/><line style="stroke: #A80036; stroke-width: 1.0; stroke-dasharray: 1.0,2.0;" x1="33" x2="96.5" y1="360.96" y2="360.96"/><text fill="#000000" font-family="sans-serif" font-size="11" lengthAdjust="spacingAndGlyphs" textLength="38" x="96.5" y="365.5974">member</text><line style="stroke: #A80036; stroke-width: 1.0; stroke-dasharray: 1.0,2.0;" x1="134.5" x2="198" y1="360.96" y2="360.96"/><line style="stroke: #A80036; stroke-width: 1.0; stroke-dasharray: 1.0,2.0;" x1="33" x2="98" y1="383.6233" y2="383.6233"/><text fill="#000000" font-family="sans-serif" font-size="11" lengthAdjust="spacingAndGlyphs" textLength="35" x="98" y="388.2607">method</text><line style="stroke: #A80036; stroke-width: 1.0; stroke-dasharray: 1.0,2.0;" x1="133" x2="198" y1="383.6233" y2="383.6233"/><!--MD5=[759355883d7b4cb2ed1a5c8324c8f124]
@startuml
class dataSet.Class.getSuperClass(){
__**<color:green>has list</color>**__
..class..
..member..
	Class[] superList (1814827909);
	int extendSize (1597328335);
	int i (1034909474);
..method..
__**<color:blue>calling list</color>**__
..class..
..member..
..method..
__**<color:orange>called by list</color>**__
..class..
..member..
..method..
}

@enduml

PlantUML version 1.2020.19(Tue Oct 13 00:10:01 KST 2020)
(APACHE source distribution)
Java Runtime: Java(TM) SE Runtime Environment
JVM: Java HotSpot(TM) 64-Bit Server VM
Default Encoding: MS949
Language: ko
Country: KR
--></g></svg>