<?xml version="1.0" encoding="UTF-8" standalone="no"?><svg xmlns="http://www.w3.org/2000/svg" xmlns:xlink="http://www.w3.org/1999/xlink" contentScriptType="application/ecmascript" contentStyleType="text/css" height="404px" preserveAspectRatio="none" style="width:314px;height:404px;" version="1.1" viewBox="0 0 314 404" width="314px" zoomAndPan="magnify"><defs><filter height="300%" id="f1gm4cftsc07y6" width="300%" x="-1" y="-1"><feGaussianBlur result="blurOut" stdDeviation="2.0"/><feColorMatrix in="blurOut" result="blurOut2" type="matrix" values="0 0 0 0 0 0 0 0 0 0 0 0 0 0 0 0 0 0 .4 0"/><feOffset dx="4.0" dy="4.0" in="blurOut2" result="blurOut3"/><feBlend in="SourceGraphic" in2="blurOut3" mode="normal"/></filter></defs><g><!--MD5=[31b1b65889f9337049eaecb179775c0d]
cluster dataSet.Data_base.setModfi(java.lang--><polygon fill="#FFFFFF" filter="url(#f1gm4cftsc07y6)" points="16,6,286,6,293,31.2295,297,31.2295,297,397,16,397,16,6" style="stroke: #000000; stroke-width: 1.5;"/><line style="stroke: #000000; stroke-width: 1.5;" x1="16" x2="293" y1="31.2295" y2="31.2295"/><text fill="#000000" font-family="sans-serif" font-size="14" font-weight="bold" lengthAdjust="spacingAndGlyphs" textLength="264" x="20" y="24.1533">dataSet.Data_base.setModfi(java.lang</text><!--MD5=[1bfed9ee2d85658b3aaeb796f9fbe99d]
class dataSet.Data_base.setModfi(java.lang.String)--><rect codeLine="1" fill="#FEFECE" filter="url(#f1gm4cftsc07y6)" height="335.0688" id="dataSet.Data_base.setModfi(java.lang.String)" style="stroke: #A80036; stroke-width: 1.5;" width="195" x="59" y="45.5"/><ellipse cx="134.25" cy="61.5" fill="#ADD1B2" rx="11" ry="11" style="stroke: #A80036; stroke-width: 1.0;"/><path d="M133.8125,55.0156 Q131.0781,55.0156 130,56.6406 Q128.8594,58.3594 128.8594,61.2813 Q128.8594,64.5781 130.0156,66.2813 Q131,67.7813 133.6094,67.7813 Q135.1875,67.7813 136.0625,66.9531 Q137.0469,66 137.1875,63.875 Q137.1875,63.5781 137.0156,63.4063 Q136.8906,63.25 136.6719,63.2344 Q135.4531,63.2344 135.2969,63.3594 Q135.125,63.5156 135.125,63.7813 Q135.0938,65.2656 134.4375,66.0781 Q133.8281,66.875 133.75,66.875 Q132.4219,66.875 131.6406,65.2813 Q130.8906,63.7344 130.8906,61.25 Q130.8906,58.625 131.8281,57.1719 Q132.6563,55.9219 133.9375,55.9219 Q133.9375,55.9219 134.2813,56.5469 Q134.9063,57.2188 135.0469,58.375 Q135.1563,58.9531 136.625,58.7344 Q137.1563,58.6563 137.125,58.2344 Q136.9531,56.7969 136.2344,55.9844 Q135.375,55.0156 133.8125,55.0156 Z "/><text fill="#000000" font-family="sans-serif" font-size="12" lengthAdjust="spacingAndGlyphs" textLength="36" x="154.75" y="67.1045">String)</text><line style="stroke: #A80036; stroke-width: 1.5;" x1="60" x2="253" y1="77.5" y2="77.5"/><line style="stroke: #A80036; stroke-width: 1.5;" x1="60" x2="136.5" y1="93.0544" y2="93.0544"/><text fill="#008000" font-family="sans-serif" font-size="11" font-weight="bold" lengthAdjust="spacingAndGlyphs" textLength="40" x="136.5" y="97.6919">has list</text><line style="stroke: #A80036; stroke-width: 1.5;" x1="176.5" x2="253" y1="93.0544" y2="93.0544"/><line style="stroke: #A80036; stroke-width: 1.0; stroke-dasharray: 1.0,2.0;" x1="60" x2="143.5" y1="115.7178" y2="115.7178"/><text fill="#000000" font-family="sans-serif" font-size="11" lengthAdjust="spacingAndGlyphs" textLength="26" x="143.5" y="120.3552">class</text><line style="stroke: #A80036; stroke-width: 1.0; stroke-dasharray: 1.0,2.0;" x1="169.5" x2="253" y1="115.7178" y2="115.7178"/><text fill="#000000" font-family="sans-serif" font-size="11" lengthAdjust="spacingAndGlyphs" textLength="125" x="65" y="158.6274">String mod (2089589253);</text><line style="stroke: #A80036; stroke-width: 1.0; stroke-dasharray: 1.0,2.0;" x1="60" x2="137.5" y1="138.3811" y2="138.3811"/><text fill="#000000" font-family="sans-serif" font-size="11" lengthAdjust="spacingAndGlyphs" textLength="38" x="137.5" y="143.0186">member</text><line style="stroke: #A80036; stroke-width: 1.0; stroke-dasharray: 1.0,2.0;" x1="175.5" x2="253" y1="138.3811" y2="138.3811"/><line style="stroke: #A80036; stroke-width: 1.0; stroke-dasharray: 1.0,2.0;" x1="60" x2="139" y1="172.5989" y2="172.5989"/><text fill="#000000" font-family="sans-serif" font-size="11" lengthAdjust="spacingAndGlyphs" textLength="35" x="139" y="177.2363">method</text><line style="stroke: #A80036; stroke-width: 1.0; stroke-dasharray: 1.0,2.0;" x1="174" x2="253" y1="172.5989" y2="172.5989"/><line style="stroke: #A80036; stroke-width: 1.5;" x1="60" x2="129" y1="195.2622" y2="195.2622"/><text fill="#0000FF" font-family="sans-serif" font-size="11" font-weight="bold" lengthAdjust="spacingAndGlyphs" textLength="55" x="129" y="199.8997">calling list</text><line style="stroke: #A80036; stroke-width: 1.5;" x1="184" x2="253" y1="195.2622" y2="195.2622"/><line style="stroke: #A80036; stroke-width: 1.0; stroke-dasharray: 1.0,2.0;" x1="60" x2="143.5" y1="217.9255" y2="217.9255"/><text fill="#000000" font-family="sans-serif" font-size="11" lengthAdjust="spacingAndGlyphs" textLength="26" x="143.5" y="222.563">class</text><line style="stroke: #A80036; stroke-width: 1.0; stroke-dasharray: 1.0,2.0;" x1="169.5" x2="253" y1="217.9255" y2="217.9255"/><text fill="#000000" font-family="sans-serif" font-size="11" lengthAdjust="spacingAndGlyphs" textLength="183" x="65" y="260.8352">java.lang.String modifier (286649365);</text><line style="stroke: #A80036; stroke-width: 1.0; stroke-dasharray: 1.0,2.0;" x1="60" x2="137.5" y1="240.5889" y2="240.5889"/><text fill="#000000" font-family="sans-serif" font-size="11" lengthAdjust="spacingAndGlyphs" textLength="38" x="137.5" y="245.2263">member</text><line style="stroke: #A80036; stroke-width: 1.0; stroke-dasharray: 1.0,2.0;" x1="175.5" x2="253" y1="240.5889" y2="240.5889"/><line style="stroke: #A80036; stroke-width: 1.0; stroke-dasharray: 1.0,2.0;" x1="60" x2="139" y1="274.8066" y2="274.8066"/><text fill="#000000" font-family="sans-serif" font-size="11" lengthAdjust="spacingAndGlyphs" textLength="35" x="139" y="279.4441">method</text><line style="stroke: #A80036; stroke-width: 1.0; stroke-dasharray: 1.0,2.0;" x1="174" x2="253" y1="274.8066" y2="274.8066"/><line style="stroke: #A80036; stroke-width: 1.5;" x1="60" x2="122.5" y1="297.47" y2="297.47"/><text fill="#FFA500" font-family="sans-serif" font-size="11" font-weight="bold" lengthAdjust="spacingAndGlyphs" textLength="68" x="122.5" y="302.1074">called by list</text><line style="stroke: #A80036; stroke-width: 1.5;" x1="190.5" x2="253" y1="297.47" y2="297.47"/><line style="stroke: #A80036; stroke-width: 1.0; stroke-dasharray: 1.0,2.0;" x1="60" x2="143.5" y1="320.1333" y2="320.1333"/><text fill="#000000" font-family="sans-serif" font-size="11" lengthAdjust="spacingAndGlyphs" textLength="26" x="143.5" y="324.7708">class</text><line style="stroke: #A80036; stroke-width: 1.0; stroke-dasharray: 1.0,2.0;" x1="169.5" x2="253" y1="320.1333" y2="320.1333"/><line style="stroke: #A80036; stroke-width: 1.0; stroke-dasharray: 1.0,2.0;" x1="60" x2="137.5" y1="342.7966" y2="342.7966"/><text fill="#000000" font-family="sans-serif" font-size="11" lengthAdjust="spacingAndGlyphs" textLength="38" x="137.5" y="347.4341">member</text><line style="stroke: #A80036; stroke-width: 1.0; stroke-dasharray: 1.0,2.0;" x1="175.5" x2="253" y1="342.7966" y2="342.7966"/><line style="stroke: #A80036; stroke-width: 1.0; stroke-dasharray: 1.0,2.0;" x1="60" x2="139" y1="365.46" y2="365.46"/><text fill="#000000" font-family="sans-serif" font-size="11" lengthAdjust="spacingAndGlyphs" textLength="35" x="139" y="370.0974">method</text><line style="stroke: #A80036; stroke-width: 1.0; stroke-dasharray: 1.0,2.0;" x1="174" x2="253" y1="365.46" y2="365.46"/><!--MD5=[f7667c306af82b951c8267a7cd172108]
@startuml
class dataSet.Data_base.setModfi(java.lang.String){
__**<color:green>has list</color>**__
..class..
..member..
	String mod (2089589253);
..method..
__**<color:blue>calling list</color>**__
..class..
..member..
	java.lang.String modifier (286649365);
..method..
__**<color:orange>called by list</color>**__
..class..
..member..
..method..
}

@enduml

PlantUML version 1.2020.19(Tue Oct 13 00:10:01 KST 2020)
(APACHE source distribution)
Java Runtime: Java(TM) SE Runtime Environment
JVM: Java HotSpot(TM) 64-Bit Server VM
Default Encoding: MS949
Language: ko
Country: KR
--></g></svg>