<?xml version="1.0" encoding="UTF-8" standalone="no"?><svg xmlns="http://www.w3.org/2000/svg" xmlns:xlink="http://www.w3.org/1999/xlink" contentScriptType="application/ecmascript" contentStyleType="text/css" height="416px" preserveAspectRatio="none" style="width:349px;height:416px;" version="1.1" viewBox="0 0 349 416" width="349px" zoomAndPan="magnify"><defs><filter height="300%" id="f1jtsbzutl56g" width="300%" x="-1" y="-1"><feGaussianBlur result="blurOut" stdDeviation="2.0"/><feColorMatrix in="blurOut" result="blurOut2" type="matrix" values="0 0 0 0 0 0 0 0 0 0 0 0 0 0 0 0 0 0 .4 0"/><feOffset dx="4.0" dy="4.0" in="blurOut2" result="blurOut3"/><feBlend in="SourceGraphic" in2="blurOut3" mode="normal"/></filter></defs><g><!--MD5=[07340c3e8550307b400e148fa83c600f]
cluster dataSet.Data_base.addCallByClass(dataSet--><polygon fill="#FFFFFF" filter="url(#f1jtsbzutl56g)" points="16,6,321,6,328,31.2295,332,31.2295,332,409,16,409,16,6" style="stroke: #000000; stroke-width: 1.5;"/><line style="stroke: #000000; stroke-width: 1.5;" x1="16" x2="328" y1="31.2295" y2="31.2295"/><text fill="#000000" font-family="sans-serif" font-size="14" font-weight="bold" lengthAdjust="spacingAndGlyphs" textLength="299" x="20" y="24.1533">dataSet.Data_base.addCallByClass(dataSet</text><!--MD5=[ef58f66167a5d867c7dcc2717ed6fe1c]
class dataSet.Data_base.addCallByClass(dataSet.Class)--><rect codeLine="1" fill="#FEFECE" filter="url(#f1jtsbzutl56g)" height="346.6233" id="dataSet.Data_base.addCallByClass(dataSet.Class)" style="stroke: #A80036; stroke-width: 1.5;" width="155" x="97" y="45.5"/><ellipse cx="151.75" cy="61.5" fill="#ADD1B2" rx="11" ry="11" style="stroke: #A80036; stroke-width: 1.0;"/><path d="M151.3125,55.0156 Q148.5781,55.0156 147.5,56.6406 Q146.3594,58.3594 146.3594,61.2813 Q146.3594,64.5781 147.5156,66.2813 Q148.5,67.7813 151.1094,67.7813 Q152.6875,67.7813 153.5625,66.9531 Q154.5469,66 154.6875,63.875 Q154.6875,63.5781 154.5156,63.4063 Q154.3906,63.25 154.1719,63.2344 Q152.9531,63.2344 152.7969,63.3594 Q152.625,63.5156 152.625,63.7813 Q152.5938,65.2656 151.9375,66.0781 Q151.3281,66.875 151.25,66.875 Q149.9219,66.875 149.1406,65.2813 Q148.3906,63.7344 148.3906,61.25 Q148.3906,58.625 149.3281,57.1719 Q150.1563,55.9219 151.4375,55.9219 Q151.4375,55.9219 151.7813,56.5469 Q152.4063,57.2188 152.5469,58.375 Q152.6563,58.9531 154.125,58.7344 Q154.6563,58.6563 154.625,58.2344 Q154.4531,56.7969 153.7344,55.9844 Q152.875,55.0156 151.3125,55.0156 Z "/><text fill="#000000" font-family="sans-serif" font-size="12" lengthAdjust="spacingAndGlyphs" textLength="37" x="172.25" y="67.1045">Class)</text><line style="stroke: #A80036; stroke-width: 1.5;" x1="98" x2="251" y1="77.5" y2="77.5"/><line style="stroke: #A80036; stroke-width: 1.5;" x1="98" x2="154.5" y1="93.0544" y2="93.0544"/><text fill="#008000" font-family="sans-serif" font-size="11" font-weight="bold" lengthAdjust="spacingAndGlyphs" textLength="40" x="154.5" y="97.6919">has list</text><line style="stroke: #A80036; stroke-width: 1.5;" x1="194.5" x2="251" y1="93.0544" y2="93.0544"/><line style="stroke: #A80036; stroke-width: 1.0; stroke-dasharray: 1.0,2.0;" x1="98" x2="161.5" y1="115.7178" y2="115.7178"/><text fill="#000000" font-family="sans-serif" font-size="11" lengthAdjust="spacingAndGlyphs" textLength="26" x="161.5" y="120.3552">class</text><line style="stroke: #A80036; stroke-width: 1.0; stroke-dasharray: 1.0,2.0;" x1="187.5" x2="251" y1="115.7178" y2="115.7178"/><text fill="#000000" font-family="sans-serif" font-size="11" lengthAdjust="spacingAndGlyphs" textLength="118" x="103" y="158.6274">Class cls (1733581655);</text><line style="stroke: #A80036; stroke-width: 1.0; stroke-dasharray: 1.0,2.0;" x1="98" x2="155.5" y1="138.3811" y2="138.3811"/><text fill="#000000" font-family="sans-serif" font-size="11" lengthAdjust="spacingAndGlyphs" textLength="38" x="155.5" y="143.0186">member</text><line style="stroke: #A80036; stroke-width: 1.0; stroke-dasharray: 1.0,2.0;" x1="193.5" x2="251" y1="138.3811" y2="138.3811"/><line style="stroke: #A80036; stroke-width: 1.0; stroke-dasharray: 1.0,2.0;" x1="98" x2="157" y1="172.5989" y2="172.5989"/><text fill="#000000" font-family="sans-serif" font-size="11" lengthAdjust="spacingAndGlyphs" textLength="35" x="157" y="177.2363">method</text><line style="stroke: #A80036; stroke-width: 1.0; stroke-dasharray: 1.0,2.0;" x1="192" x2="251" y1="172.5989" y2="172.5989"/><line style="stroke: #A80036; stroke-width: 1.5;" x1="98" x2="147" y1="195.2622" y2="195.2622"/><text fill="#0000FF" font-family="sans-serif" font-size="11" font-weight="bold" lengthAdjust="spacingAndGlyphs" textLength="55" x="147" y="199.8997">calling list</text><line style="stroke: #A80036; stroke-width: 1.5;" x1="202" x2="251" y1="195.2622" y2="195.2622"/><text fill="#000000" font-family="sans-serif" font-size="11" lengthAdjust="spacingAndGlyphs" textLength="126" x="103" y="238.1719">Data_base (1111613684);</text><line style="stroke: #A80036; stroke-width: 1.0; stroke-dasharray: 1.0,2.0;" x1="98" x2="161.5" y1="217.9255" y2="217.9255"/><text fill="#000000" font-family="sans-serif" font-size="11" lengthAdjust="spacingAndGlyphs" textLength="26" x="161.5" y="222.563">class</text><line style="stroke: #A80036; stroke-width: 1.0; stroke-dasharray: 1.0,2.0;" x1="187.5" x2="251" y1="217.9255" y2="217.9255"/><line style="stroke: #A80036; stroke-width: 1.0; stroke-dasharray: 1.0,2.0;" x1="98" x2="155.5" y1="252.1433" y2="252.1433"/><text fill="#000000" font-family="sans-serif" font-size="11" lengthAdjust="spacingAndGlyphs" textLength="38" x="155.5" y="256.7808">member</text><line style="stroke: #A80036; stroke-width: 1.0; stroke-dasharray: 1.0,2.0;" x1="193.5" x2="251" y1="252.1433" y2="252.1433"/><text fill="#000000" font-family="sans-serif" font-size="11" lengthAdjust="spacingAndGlyphs" textLength="143" x="103" y="295.053">String getName() (71016405);</text><line style="stroke: #A80036; stroke-width: 1.0; stroke-dasharray: 1.0,2.0;" x1="98" x2="157" y1="274.8066" y2="274.8066"/><text fill="#000000" font-family="sans-serif" font-size="11" lengthAdjust="spacingAndGlyphs" textLength="35" x="157" y="279.4441">method</text><line style="stroke: #A80036; stroke-width: 1.0; stroke-dasharray: 1.0,2.0;" x1="192" x2="251" y1="274.8066" y2="274.8066"/><line style="stroke: #A80036; stroke-width: 1.5;" x1="98" x2="140.5" y1="309.0244" y2="309.0244"/><text fill="#FFA500" font-family="sans-serif" font-size="11" font-weight="bold" lengthAdjust="spacingAndGlyphs" textLength="68" x="140.5" y="313.6619">called by list</text><line style="stroke: #A80036; stroke-width: 1.5;" x1="208.5" x2="251" y1="309.0244" y2="309.0244"/><line style="stroke: #A80036; stroke-width: 1.0; stroke-dasharray: 1.0,2.0;" x1="98" x2="161.5" y1="331.6877" y2="331.6877"/><text fill="#000000" font-family="sans-serif" font-size="11" lengthAdjust="spacingAndGlyphs" textLength="26" x="161.5" y="336.3252">class</text><line style="stroke: #A80036; stroke-width: 1.0; stroke-dasharray: 1.0,2.0;" x1="187.5" x2="251" y1="331.6877" y2="331.6877"/><line style="stroke: #A80036; stroke-width: 1.0; stroke-dasharray: 1.0,2.0;" x1="98" x2="155.5" y1="354.3511" y2="354.3511"/><text fill="#000000" font-family="sans-serif" font-size="11" lengthAdjust="spacingAndGlyphs" textLength="38" x="155.5" y="358.9885">member</text><line style="stroke: #A80036; stroke-width: 1.0; stroke-dasharray: 1.0,2.0;" x1="193.5" x2="251" y1="354.3511" y2="354.3511"/><line style="stroke: #A80036; stroke-width: 1.0; stroke-dasharray: 1.0,2.0;" x1="98" x2="157" y1="377.0144" y2="377.0144"/><text fill="#000000" font-family="sans-serif" font-size="11" lengthAdjust="spacingAndGlyphs" textLength="35" x="157" y="381.6519">method</text><line style="stroke: #A80036; stroke-width: 1.0; stroke-dasharray: 1.0,2.0;" x1="192" x2="251" y1="377.0144" y2="377.0144"/><!--MD5=[8f12066e031fa2a324ea9c22977b2697]
@startuml
class dataSet.Data_base.addCallByClass(dataSet.Class){
__**<color:green>has list</color>**__
..class..
..member..
	Class cls (1733581655);
..method..
__**<color:blue>calling list</color>**__
..class..
	Data_base (1111613684);
..member..
..method..
	String getName() (71016405);
__**<color:orange>called by list</color>**__
..class..
..member..
..method..
}

@enduml

PlantUML version 1.2020.19(Tue Oct 13 00:10:01 KST 2020)
(APACHE source distribution)
Java Runtime: Java(TM) SE Runtime Environment
JVM: Java HotSpot(TM) 64-Bit Server VM
Default Encoding: MS949
Language: ko
Country: KR
--></g></svg>