<?xml version="1.0" encoding="UTF-8" standalone="no"?><svg xmlns="http://www.w3.org/2000/svg" xmlns:xlink="http://www.w3.org/1999/xlink" contentScriptType="application/ecmascript" contentStyleType="text/css" height="416px" preserveAspectRatio="none" style="width:309px;height:416px;" version="1.1" viewBox="0 0 309 416" width="309px" zoomAndPan="magnify"><defs><filter height="300%" id="f4ugqupq9vbz5" width="300%" x="-1" y="-1"><feGaussianBlur result="blurOut" stdDeviation="2.0"/><feColorMatrix in="blurOut" result="blurOut2" type="matrix" values="0 0 0 0 0 0 0 0 0 0 0 0 0 0 0 0 0 0 .4 0"/><feOffset dx="4.0" dy="4.0" in="blurOut2" result="blurOut3"/><feBlend in="SourceGraphic" in2="blurOut3" mode="normal"/></filter></defs><g><!--MD5=[1de04b8a898bb8326a89837f30c383ca]
cluster dataSet.DataList.addMember(dataSet--><polygon fill="#FFFFFF" filter="url(#f4ugqupq9vbz5)" points="16,6,281,6,288,31.2295,292,31.2295,292,409,16,409,16,6" style="stroke: #000000; stroke-width: 1.5;"/><line style="stroke: #000000; stroke-width: 1.5;" x1="16" x2="288" y1="31.2295" y2="31.2295"/><text fill="#000000" font-family="sans-serif" font-size="14" font-weight="bold" lengthAdjust="spacingAndGlyphs" textLength="259" x="20" y="24.1533">dataSet.DataList.addMember(dataSet</text><!--MD5=[ef86e439e9b865fd14045426d4bd8996]
class dataSet.DataList.addMember(dataSet.Member)--><rect codeLine="1" fill="#FEFECE" filter="url(#f4ugqupq9vbz5)" height="346.6233" id="dataSet.DataList.addMember(dataSet.Member)" style="stroke: #A80036; stroke-width: 1.5;" width="184" x="62" y="45.5"/><ellipse cx="125.25" cy="61.5" fill="#ADD1B2" rx="11" ry="11" style="stroke: #A80036; stroke-width: 1.0;"/><path d="M124.8125,55.0156 Q122.0781,55.0156 121,56.6406 Q119.8594,58.3594 119.8594,61.2813 Q119.8594,64.5781 121.0156,66.2813 Q122,67.7813 124.6094,67.7813 Q126.1875,67.7813 127.0625,66.9531 Q128.0469,66 128.1875,63.875 Q128.1875,63.5781 128.0156,63.4063 Q127.8906,63.25 127.6719,63.2344 Q126.4531,63.2344 126.2969,63.3594 Q126.125,63.5156 126.125,63.7813 Q126.0938,65.2656 125.4375,66.0781 Q124.8281,66.875 124.75,66.875 Q123.4219,66.875 122.6406,65.2813 Q121.8906,63.7344 121.8906,61.25 Q121.8906,58.625 122.8281,57.1719 Q123.6563,55.9219 124.9375,55.9219 Q124.9375,55.9219 125.2813,56.5469 Q125.9063,57.2188 126.0469,58.375 Q126.1563,58.9531 127.625,58.7344 Q128.1563,58.6563 128.125,58.2344 Q127.9531,56.7969 127.2344,55.9844 Q126.375,55.0156 124.8125,55.0156 Z "/><text fill="#000000" font-family="sans-serif" font-size="12" lengthAdjust="spacingAndGlyphs" textLength="49" x="145.75" y="67.1045">Member)</text><line style="stroke: #A80036; stroke-width: 1.5;" x1="63" x2="245" y1="77.5" y2="77.5"/><line style="stroke: #A80036; stroke-width: 1.5;" x1="63" x2="134" y1="93.0544" y2="93.0544"/><text fill="#008000" font-family="sans-serif" font-size="11" font-weight="bold" lengthAdjust="spacingAndGlyphs" textLength="40" x="134" y="97.6919">has list</text><line style="stroke: #A80036; stroke-width: 1.5;" x1="174" x2="245" y1="93.0544" y2="93.0544"/><line style="stroke: #A80036; stroke-width: 1.0; stroke-dasharray: 1.0,2.0;" x1="63" x2="141" y1="115.7178" y2="115.7178"/><text fill="#000000" font-family="sans-serif" font-size="11" lengthAdjust="spacingAndGlyphs" textLength="26" x="141" y="120.3552">class</text><line style="stroke: #A80036; stroke-width: 1.0; stroke-dasharray: 1.0,2.0;" x1="167" x2="245" y1="115.7178" y2="115.7178"/><text fill="#000000" font-family="sans-serif" font-size="11" lengthAdjust="spacingAndGlyphs" textLength="141" x="68" y="158.6274">Member Member (24293395);</text><line style="stroke: #A80036; stroke-width: 1.0; stroke-dasharray: 1.0,2.0;" x1="63" x2="135" y1="138.3811" y2="138.3811"/><text fill="#000000" font-family="sans-serif" font-size="11" lengthAdjust="spacingAndGlyphs" textLength="38" x="135" y="143.0186">member</text><line style="stroke: #A80036; stroke-width: 1.0; stroke-dasharray: 1.0,2.0;" x1="173" x2="245" y1="138.3811" y2="138.3811"/><line style="stroke: #A80036; stroke-width: 1.0; stroke-dasharray: 1.0,2.0;" x1="63" x2="136.5" y1="172.5989" y2="172.5989"/><text fill="#000000" font-family="sans-serif" font-size="11" lengthAdjust="spacingAndGlyphs" textLength="35" x="136.5" y="177.2363">method</text><line style="stroke: #A80036; stroke-width: 1.0; stroke-dasharray: 1.0,2.0;" x1="171.5" x2="245" y1="172.5989" y2="172.5989"/><line style="stroke: #A80036; stroke-width: 1.5;" x1="63" x2="126.5" y1="195.2622" y2="195.2622"/><text fill="#0000FF" font-family="sans-serif" font-size="11" font-weight="bold" lengthAdjust="spacingAndGlyphs" textLength="55" x="126.5" y="199.8997">calling list</text><line style="stroke: #A80036; stroke-width: 1.5;" x1="181.5" x2="245" y1="195.2622" y2="195.2622"/><text fill="#000000" font-family="sans-serif" font-size="11" lengthAdjust="spacingAndGlyphs" textLength="112" x="68" y="238.1719">Member (1154821602);</text><line style="stroke: #A80036; stroke-width: 1.0; stroke-dasharray: 1.0,2.0;" x1="63" x2="141" y1="217.9255" y2="217.9255"/><text fill="#000000" font-family="sans-serif" font-size="11" lengthAdjust="spacingAndGlyphs" textLength="26" x="141" y="222.563">class</text><line style="stroke: #A80036; stroke-width: 1.0; stroke-dasharray: 1.0,2.0;" x1="167" x2="245" y1="217.9255" y2="217.9255"/><line style="stroke: #A80036; stroke-width: 1.0; stroke-dasharray: 1.0,2.0;" x1="63" x2="135" y1="252.1433" y2="252.1433"/><text fill="#000000" font-family="sans-serif" font-size="11" lengthAdjust="spacingAndGlyphs" textLength="38" x="135" y="256.7808">member</text><line style="stroke: #A80036; stroke-width: 1.0; stroke-dasharray: 1.0,2.0;" x1="173" x2="245" y1="252.1433" y2="252.1433"/><text fill="#000000" font-family="sans-serif" font-size="11" lengthAdjust="spacingAndGlyphs" textLength="172" x="68" y="295.053">String getSrcName() (1611373863);</text><line style="stroke: #A80036; stroke-width: 1.0; stroke-dasharray: 1.0,2.0;" x1="63" x2="136.5" y1="274.8066" y2="274.8066"/><text fill="#000000" font-family="sans-serif" font-size="11" lengthAdjust="spacingAndGlyphs" textLength="35" x="136.5" y="279.4441">method</text><line style="stroke: #A80036; stroke-width: 1.0; stroke-dasharray: 1.0,2.0;" x1="171.5" x2="245" y1="274.8066" y2="274.8066"/><line style="stroke: #A80036; stroke-width: 1.5;" x1="63" x2="120" y1="309.0244" y2="309.0244"/><text fill="#FFA500" font-family="sans-serif" font-size="11" font-weight="bold" lengthAdjust="spacingAndGlyphs" textLength="68" x="120" y="313.6619">called by list</text><line style="stroke: #A80036; stroke-width: 1.5;" x1="188" x2="245" y1="309.0244" y2="309.0244"/><line style="stroke: #A80036; stroke-width: 1.0; stroke-dasharray: 1.0,2.0;" x1="63" x2="141" y1="331.6877" y2="331.6877"/><text fill="#000000" font-family="sans-serif" font-size="11" lengthAdjust="spacingAndGlyphs" textLength="26" x="141" y="336.3252">class</text><line style="stroke: #A80036; stroke-width: 1.0; stroke-dasharray: 1.0,2.0;" x1="167" x2="245" y1="331.6877" y2="331.6877"/><line style="stroke: #A80036; stroke-width: 1.0; stroke-dasharray: 1.0,2.0;" x1="63" x2="135" y1="354.3511" y2="354.3511"/><text fill="#000000" font-family="sans-serif" font-size="11" lengthAdjust="spacingAndGlyphs" textLength="38" x="135" y="358.9885">member</text><line style="stroke: #A80036; stroke-width: 1.0; stroke-dasharray: 1.0,2.0;" x1="173" x2="245" y1="354.3511" y2="354.3511"/><line style="stroke: #A80036; stroke-width: 1.0; stroke-dasharray: 1.0,2.0;" x1="63" x2="136.5" y1="377.0144" y2="377.0144"/><text fill="#000000" font-family="sans-serif" font-size="11" lengthAdjust="spacingAndGlyphs" textLength="35" x="136.5" y="381.6519">method</text><line style="stroke: #A80036; stroke-width: 1.0; stroke-dasharray: 1.0,2.0;" x1="171.5" x2="245" y1="377.0144" y2="377.0144"/><!--MD5=[9367c3a509541cc7a391532be28105d3]
@startuml
class dataSet.DataList.addMember(dataSet.Member){
__**<color:green>has list</color>**__
..class..
..member..
	Member Member (24293395);
..method..
__**<color:blue>calling list</color>**__
..class..
	Member (1154821602);
..member..
..method..
	String getSrcName() (1611373863);
__**<color:orange>called by list</color>**__
..class..
..member..
..method..
}

@enduml

PlantUML version 1.2020.19(Tue Oct 13 00:10:01 KST 2020)
(APACHE source distribution)
Java Runtime: Java(TM) SE Runtime Environment
JVM: Java HotSpot(TM) 64-Bit Server VM
Default Encoding: MS949
Language: ko
Country: KR
--></g></svg>