<?xml version="1.0" encoding="UTF-8" standalone="no"?><svg xmlns="http://www.w3.org/2000/svg" xmlns:xlink="http://www.w3.org/1999/xlink" contentScriptType="application/ecmascript" contentStyleType="text/css" height="442px" preserveAspectRatio="none" style="width:335px;height:442px;" version="1.1" viewBox="0 0 335 442" width="335px" zoomAndPan="magnify"><defs><filter height="300%" id="f1a5wpu4d0o2dn" width="300%" x="-1" y="-1"><feGaussianBlur result="blurOut" stdDeviation="2.0"/><feColorMatrix in="blurOut" result="blurOut2" type="matrix" values="0 0 0 0 0 0 0 0 0 0 0 0 0 0 0 0 0 0 .4 0"/><feOffset dx="4.0" dy="4.0" in="blurOut2" result="blurOut3"/><feBlend in="SourceGraphic" in2="blurOut3" mode="normal"/></filter></defs><g><!--MD5=[19b712458f930df10fa92fd58538f70c]
cluster dataSet.StateNode.setBefore(dataSet--><polygon fill="#FFFFFF" filter="url(#f1a5wpu4d0o2dn)" points="16,6,284,6,291,31.2295,318,31.2295,318,435,16,435,16,6" style="stroke: #000000; stroke-width: 1.5;"/><line style="stroke: #000000; stroke-width: 1.5;" x1="16" x2="291" y1="31.2295" y2="31.2295"/><text fill="#000000" font-family="sans-serif" font-size="14" font-weight="bold" lengthAdjust="spacingAndGlyphs" textLength="262" x="20" y="24.1533">dataSet.StateNode.setBefore(dataSet</text><!--MD5=[8226fc7bba8072d8c0eaaadd40ffcd45]
class dataSet.StateNode.setBefore(dataSet.StateNode)--><rect codeLine="1" fill="#FEFECE" filter="url(#f1a5wpu4d0o2dn)" height="373.2866" id="dataSet.StateNode.setBefore(dataSet.StateNode)" style="stroke: #A80036; stroke-width: 1.5;" width="270" x="32" y="45.5"/><ellipse cx="131.75" cy="61.5" fill="#ADD1B2" rx="11" ry="11" style="stroke: #A80036; stroke-width: 1.0;"/><path d="M131.3125,55.0156 Q128.5781,55.0156 127.5,56.6406 Q126.3594,58.3594 126.3594,61.2813 Q126.3594,64.5781 127.5156,66.2813 Q128.5,67.7813 131.1094,67.7813 Q132.6875,67.7813 133.5625,66.9531 Q134.5469,66 134.6875,63.875 Q134.6875,63.5781 134.5156,63.4063 Q134.3906,63.25 134.1719,63.2344 Q132.9531,63.2344 132.7969,63.3594 Q132.625,63.5156 132.625,63.7813 Q132.5938,65.2656 131.9375,66.0781 Q131.3281,66.875 131.25,66.875 Q129.9219,66.875 129.1406,65.2813 Q128.3906,63.7344 128.3906,61.25 Q128.3906,58.625 129.3281,57.1719 Q130.1563,55.9219 131.4375,55.9219 Q131.4375,55.9219 131.7813,56.5469 Q132.4063,57.2188 132.5469,58.375 Q132.6563,58.9531 134.125,58.7344 Q134.6563,58.6563 134.625,58.2344 Q134.4531,56.7969 133.7344,55.9844 Q132.875,55.0156 131.3125,55.0156 Z "/><text fill="#000000" font-family="sans-serif" font-size="12" lengthAdjust="spacingAndGlyphs" textLength="62" x="152.25" y="67.1045">StateNode)</text><line style="stroke: #A80036; stroke-width: 1.5;" x1="33" x2="301" y1="77.5" y2="77.5"/><line style="stroke: #A80036; stroke-width: 1.5;" x1="33" x2="147" y1="93.0544" y2="93.0544"/><text fill="#008000" font-family="sans-serif" font-size="11" font-weight="bold" lengthAdjust="spacingAndGlyphs" textLength="40" x="147" y="97.6919">has list</text><line style="stroke: #A80036; stroke-width: 1.5;" x1="187" x2="301" y1="93.0544" y2="93.0544"/><line style="stroke: #A80036; stroke-width: 1.0; stroke-dasharray: 1.0,2.0;" x1="33" x2="154" y1="115.7178" y2="115.7178"/><text fill="#000000" font-family="sans-serif" font-size="11" lengthAdjust="spacingAndGlyphs" textLength="26" x="154" y="120.3552">class</text><line style="stroke: #A80036; stroke-width: 1.0; stroke-dasharray: 1.0,2.0;" x1="180" x2="301" y1="115.7178" y2="115.7178"/><text fill="#000000" font-family="sans-serif" font-size="11" lengthAdjust="spacingAndGlyphs" textLength="147" x="38" y="158.6274">StateNode before (20111564);</text><line style="stroke: #A80036; stroke-width: 1.0; stroke-dasharray: 1.0,2.0;" x1="33" x2="148" y1="138.3811" y2="138.3811"/><text fill="#000000" font-family="sans-serif" font-size="11" lengthAdjust="spacingAndGlyphs" textLength="38" x="148" y="143.0186">member</text><line style="stroke: #A80036; stroke-width: 1.0; stroke-dasharray: 1.0,2.0;" x1="186" x2="301" y1="138.3811" y2="138.3811"/><line style="stroke: #A80036; stroke-width: 1.0; stroke-dasharray: 1.0,2.0;" x1="33" x2="149.5" y1="172.5989" y2="172.5989"/><text fill="#000000" font-family="sans-serif" font-size="11" lengthAdjust="spacingAndGlyphs" textLength="35" x="149.5" y="177.2363">method</text><line style="stroke: #A80036; stroke-width: 1.0; stroke-dasharray: 1.0,2.0;" x1="184.5" x2="301" y1="172.5989" y2="172.5989"/><line style="stroke: #A80036; stroke-width: 1.5;" x1="33" x2="139.5" y1="195.2622" y2="195.2622"/><text fill="#0000FF" font-family="sans-serif" font-size="11" font-weight="bold" lengthAdjust="spacingAndGlyphs" textLength="55" x="139.5" y="199.8997">calling list</text><line style="stroke: #A80036; stroke-width: 1.5;" x1="194.5" x2="301" y1="195.2622" y2="195.2622"/><line style="stroke: #A80036; stroke-width: 1.0; stroke-dasharray: 1.0,2.0;" x1="33" x2="154" y1="217.9255" y2="217.9255"/><text fill="#000000" font-family="sans-serif" font-size="11" lengthAdjust="spacingAndGlyphs" textLength="26" x="154" y="222.563">class</text><line style="stroke: #A80036; stroke-width: 1.0; stroke-dasharray: 1.0,2.0;" x1="180" x2="301" y1="217.9255" y2="217.9255"/><text fill="#000000" font-family="sans-serif" font-size="11" lengthAdjust="spacingAndGlyphs" textLength="199" x="38" y="260.8352">dataSet.StateNode before (1533524862);</text><line style="stroke: #A80036; stroke-width: 1.0; stroke-dasharray: 1.0,2.0;" x1="33" x2="148" y1="240.5889" y2="240.5889"/><text fill="#000000" font-family="sans-serif" font-size="11" lengthAdjust="spacingAndGlyphs" textLength="38" x="148" y="245.2263">member</text><line style="stroke: #A80036; stroke-width: 1.0; stroke-dasharray: 1.0,2.0;" x1="186" x2="301" y1="240.5889" y2="240.5889"/><line style="stroke: #A80036; stroke-width: 1.0; stroke-dasharray: 1.0,2.0;" x1="33" x2="149.5" y1="274.8066" y2="274.8066"/><text fill="#000000" font-family="sans-serif" font-size="11" lengthAdjust="spacingAndGlyphs" textLength="35" x="149.5" y="279.4441">method</text><line style="stroke: #A80036; stroke-width: 1.0; stroke-dasharray: 1.0,2.0;" x1="184.5" x2="301" y1="274.8066" y2="274.8066"/><line style="stroke: #A80036; stroke-width: 1.5;" x1="33" x2="133" y1="297.47" y2="297.47"/><text fill="#FFA500" font-family="sans-serif" font-size="11" font-weight="bold" lengthAdjust="spacingAndGlyphs" textLength="68" x="133" y="302.1074">called by list</text><line style="stroke: #A80036; stroke-width: 1.5;" x1="201" x2="301" y1="297.47" y2="297.47"/><text fill="#000000" font-family="sans-serif" font-size="11" lengthAdjust="spacingAndGlyphs" textLength="124" x="38" y="340.3796">StateNode (1163619825);</text><line style="stroke: #A80036; stroke-width: 1.0; stroke-dasharray: 1.0,2.0;" x1="33" x2="154" y1="320.1333" y2="320.1333"/><text fill="#000000" font-family="sans-serif" font-size="11" lengthAdjust="spacingAndGlyphs" textLength="26" x="154" y="324.7708">class</text><line style="stroke: #A80036; stroke-width: 1.0; stroke-dasharray: 1.0,2.0;" x1="180" x2="301" y1="320.1333" y2="320.1333"/><line style="stroke: #A80036; stroke-width: 1.0; stroke-dasharray: 1.0,2.0;" x1="33" x2="148" y1="354.3511" y2="354.3511"/><text fill="#000000" font-family="sans-serif" font-size="11" lengthAdjust="spacingAndGlyphs" textLength="38" x="148" y="358.9885">member</text><line style="stroke: #A80036; stroke-width: 1.0; stroke-dasharray: 1.0,2.0;" x1="186" x2="301" y1="354.3511" y2="354.3511"/><text fill="#000000" font-family="sans-serif" font-size="11" lengthAdjust="spacingAndGlyphs" textLength="258" x="38" y="397.2607">StateNode setThen(dataSet.StateNode) (552937500);</text><text fill="#000000" font-family="sans-serif" font-size="11" lengthAdjust="spacingAndGlyphs" textLength="254" x="38" y="412.3696">StateNode setElse(dataSet.StateNode) (807328355);</text><line style="stroke: #A80036; stroke-width: 1.0; stroke-dasharray: 1.0,2.0;" x1="33" x2="149.5" y1="377.0144" y2="377.0144"/><text fill="#000000" font-family="sans-serif" font-size="11" lengthAdjust="spacingAndGlyphs" textLength="35" x="149.5" y="381.6519">method</text><line style="stroke: #A80036; stroke-width: 1.0; stroke-dasharray: 1.0,2.0;" x1="184.5" x2="301" y1="377.0144" y2="377.0144"/><!--MD5=[70a43bb5f20b16aff65bdaaf0d5b0a29]
@startuml
class dataSet.StateNode.setBefore(dataSet.StateNode){
__**<color:green>has list</color>**__
..class..
..member..
	StateNode before (20111564);
..method..
__**<color:blue>calling list</color>**__
..class..
..member..
	dataSet.StateNode before (1533524862);
..method..
__**<color:orange>called by list</color>**__
..class..
	StateNode (1163619825);
..member..
..method..
	StateNode setThen(dataSet.StateNode) (552937500);
	StateNode setElse(dataSet.StateNode) (807328355);
}

@enduml

PlantUML version 1.2020.19(Tue Oct 13 00:10:01 KST 2020)
(APACHE source distribution)
Java Runtime: Java(TM) SE Runtime Environment
JVM: Java HotSpot(TM) 64-Bit Server VM
Default Encoding: MS949
Language: ko
Country: KR
--></g></svg>