<?xml version="1.0" encoding="UTF-8" standalone="no"?><svg xmlns="http://www.w3.org/2000/svg" xmlns:xlink="http://www.w3.org/1999/xlink" contentScriptType="application/ecmascript" contentStyleType="text/css" height="404px" preserveAspectRatio="none" style="width:326px;height:404px;" version="1.1" viewBox="0 0 326 404" width="326px" zoomAndPan="magnify"><defs><filter height="300%" id="fz7dfmmjt94a6" width="300%" x="-1" y="-1"><feGaussianBlur result="blurOut" stdDeviation="2.0"/><feColorMatrix in="blurOut" result="blurOut2" type="matrix" values="0 0 0 0 0 0 0 0 0 0 0 0 0 0 0 0 0 0 .4 0"/><feOffset dx="4.0" dy="4.0" in="blurOut2" result="blurOut3"/><feBlend in="SourceGraphic" in2="blurOut3" mode="normal"/></filter></defs><g><!--MD5=[ff5911bd80ca739835dd42c4fc24a883]
cluster dataSet.Function.setHeadNode(dataSet--><polygon fill="#FFFFFF" filter="url(#fz7dfmmjt94a6)" points="16,6,298,6,305,31.2295,309,31.2295,309,397,16,397,16,6" style="stroke: #000000; stroke-width: 1.5;"/><line style="stroke: #000000; stroke-width: 1.5;" x1="16" x2="305" y1="31.2295" y2="31.2295"/><text fill="#000000" font-family="sans-serif" font-size="14" font-weight="bold" lengthAdjust="spacingAndGlyphs" textLength="276" x="20" y="24.1533">dataSet.Function.setHeadNode(dataSet</text><!--MD5=[b99c48bee33ff7fd817149887e5b8a1f]
class dataSet.Function.setHeadNode(dataSet.StateNode)--><rect codeLine="1" fill="#FEFECE" filter="url(#fz7dfmmjt94a6)" height="335.0688" id="dataSet.Function.setHeadNode(dataSet.StateNode)" style="stroke: #A80036; stroke-width: 1.5;" width="222" x="51" y="45.5"/><ellipse cx="126.75" cy="61.5" fill="#ADD1B2" rx="11" ry="11" style="stroke: #A80036; stroke-width: 1.0;"/><path d="M126.3125,55.0156 Q123.5781,55.0156 122.5,56.6406 Q121.3594,58.3594 121.3594,61.2813 Q121.3594,64.5781 122.5156,66.2813 Q123.5,67.7813 126.1094,67.7813 Q127.6875,67.7813 128.5625,66.9531 Q129.5469,66 129.6875,63.875 Q129.6875,63.5781 129.5156,63.4063 Q129.3906,63.25 129.1719,63.2344 Q127.9531,63.2344 127.7969,63.3594 Q127.625,63.5156 127.625,63.7813 Q127.5938,65.2656 126.9375,66.0781 Q126.3281,66.875 126.25,66.875 Q124.9219,66.875 124.1406,65.2813 Q123.3906,63.7344 123.3906,61.25 Q123.3906,58.625 124.3281,57.1719 Q125.1563,55.9219 126.4375,55.9219 Q126.4375,55.9219 126.7813,56.5469 Q127.4063,57.2188 127.5469,58.375 Q127.6563,58.9531 129.125,58.7344 Q129.6563,58.6563 129.625,58.2344 Q129.4531,56.7969 128.7344,55.9844 Q127.875,55.0156 126.3125,55.0156 Z "/><text fill="#000000" font-family="sans-serif" font-size="12" lengthAdjust="spacingAndGlyphs" textLength="62" x="147.25" y="67.1045">StateNode)</text><line style="stroke: #A80036; stroke-width: 1.5;" x1="52" x2="272" y1="77.5" y2="77.5"/><line style="stroke: #A80036; stroke-width: 1.5;" x1="52" x2="142" y1="93.0544" y2="93.0544"/><text fill="#008000" font-family="sans-serif" font-size="11" font-weight="bold" lengthAdjust="spacingAndGlyphs" textLength="40" x="142" y="97.6919">has list</text><line style="stroke: #A80036; stroke-width: 1.5;" x1="182" x2="272" y1="93.0544" y2="93.0544"/><line style="stroke: #A80036; stroke-width: 1.0; stroke-dasharray: 1.0,2.0;" x1="52" x2="149" y1="115.7178" y2="115.7178"/><text fill="#000000" font-family="sans-serif" font-size="11" lengthAdjust="spacingAndGlyphs" textLength="26" x="149" y="120.3552">class</text><line style="stroke: #A80036; stroke-width: 1.0; stroke-dasharray: 1.0,2.0;" x1="175" x2="272" y1="115.7178" y2="115.7178"/><text fill="#000000" font-family="sans-serif" font-size="11" lengthAdjust="spacingAndGlyphs" textLength="170" x="57" y="158.6274">StateNode headNode (838812606);</text><line style="stroke: #A80036; stroke-width: 1.0; stroke-dasharray: 1.0,2.0;" x1="52" x2="143" y1="138.3811" y2="138.3811"/><text fill="#000000" font-family="sans-serif" font-size="11" lengthAdjust="spacingAndGlyphs" textLength="38" x="143" y="143.0186">member</text><line style="stroke: #A80036; stroke-width: 1.0; stroke-dasharray: 1.0,2.0;" x1="181" x2="272" y1="138.3811" y2="138.3811"/><line style="stroke: #A80036; stroke-width: 1.0; stroke-dasharray: 1.0,2.0;" x1="52" x2="144.5" y1="172.5989" y2="172.5989"/><text fill="#000000" font-family="sans-serif" font-size="11" lengthAdjust="spacingAndGlyphs" textLength="35" x="144.5" y="177.2363">method</text><line style="stroke: #A80036; stroke-width: 1.0; stroke-dasharray: 1.0,2.0;" x1="179.5" x2="272" y1="172.5989" y2="172.5989"/><line style="stroke: #A80036; stroke-width: 1.5;" x1="52" x2="134.5" y1="195.2622" y2="195.2622"/><text fill="#0000FF" font-family="sans-serif" font-size="11" font-weight="bold" lengthAdjust="spacingAndGlyphs" textLength="55" x="134.5" y="199.8997">calling list</text><line style="stroke: #A80036; stroke-width: 1.5;" x1="189.5" x2="272" y1="195.2622" y2="195.2622"/><line style="stroke: #A80036; stroke-width: 1.0; stroke-dasharray: 1.0,2.0;" x1="52" x2="149" y1="217.9255" y2="217.9255"/><text fill="#000000" font-family="sans-serif" font-size="11" lengthAdjust="spacingAndGlyphs" textLength="26" x="149" y="222.563">class</text><line style="stroke: #A80036; stroke-width: 1.0; stroke-dasharray: 1.0,2.0;" x1="175" x2="272" y1="217.9255" y2="217.9255"/><text fill="#000000" font-family="sans-serif" font-size="11" lengthAdjust="spacingAndGlyphs" textLength="210" x="57" y="260.8352">dataSet.StateNode headNode (872669868);</text><line style="stroke: #A80036; stroke-width: 1.0; stroke-dasharray: 1.0,2.0;" x1="52" x2="143" y1="240.5889" y2="240.5889"/><text fill="#000000" font-family="sans-serif" font-size="11" lengthAdjust="spacingAndGlyphs" textLength="38" x="143" y="245.2263">member</text><line style="stroke: #A80036; stroke-width: 1.0; stroke-dasharray: 1.0,2.0;" x1="181" x2="272" y1="240.5889" y2="240.5889"/><line style="stroke: #A80036; stroke-width: 1.0; stroke-dasharray: 1.0,2.0;" x1="52" x2="144.5" y1="274.8066" y2="274.8066"/><text fill="#000000" font-family="sans-serif" font-size="11" lengthAdjust="spacingAndGlyphs" textLength="35" x="144.5" y="279.4441">method</text><line style="stroke: #A80036; stroke-width: 1.0; stroke-dasharray: 1.0,2.0;" x1="179.5" x2="272" y1="274.8066" y2="274.8066"/><line style="stroke: #A80036; stroke-width: 1.5;" x1="52" x2="128" y1="297.47" y2="297.47"/><text fill="#FFA500" font-family="sans-serif" font-size="11" font-weight="bold" lengthAdjust="spacingAndGlyphs" textLength="68" x="128" y="302.1074">called by list</text><line style="stroke: #A80036; stroke-width: 1.5;" x1="196" x2="272" y1="297.47" y2="297.47"/><line style="stroke: #A80036; stroke-width: 1.0; stroke-dasharray: 1.0,2.0;" x1="52" x2="149" y1="320.1333" y2="320.1333"/><text fill="#000000" font-family="sans-serif" font-size="11" lengthAdjust="spacingAndGlyphs" textLength="26" x="149" y="324.7708">class</text><line style="stroke: #A80036; stroke-width: 1.0; stroke-dasharray: 1.0,2.0;" x1="175" x2="272" y1="320.1333" y2="320.1333"/><line style="stroke: #A80036; stroke-width: 1.0; stroke-dasharray: 1.0,2.0;" x1="52" x2="143" y1="342.7966" y2="342.7966"/><text fill="#000000" font-family="sans-serif" font-size="11" lengthAdjust="spacingAndGlyphs" textLength="38" x="143" y="347.4341">member</text><line style="stroke: #A80036; stroke-width: 1.0; stroke-dasharray: 1.0,2.0;" x1="181" x2="272" y1="342.7966" y2="342.7966"/><line style="stroke: #A80036; stroke-width: 1.0; stroke-dasharray: 1.0,2.0;" x1="52" x2="144.5" y1="365.46" y2="365.46"/><text fill="#000000" font-family="sans-serif" font-size="11" lengthAdjust="spacingAndGlyphs" textLength="35" x="144.5" y="370.0974">method</text><line style="stroke: #A80036; stroke-width: 1.0; stroke-dasharray: 1.0,2.0;" x1="179.5" x2="272" y1="365.46" y2="365.46"/><!--MD5=[1e78a83c1eb88e2fb595ebc7663c34fa]
@startuml
class dataSet.Function.setHeadNode(dataSet.StateNode){
__**<color:green>has list</color>**__
..class..
..member..
	StateNode headNode (838812606);
..method..
__**<color:blue>calling list</color>**__
..class..
..member..
	dataSet.StateNode headNode (872669868);
..method..
__**<color:orange>called by list</color>**__
..class..
..member..
..method..
}

@enduml

PlantUML version 1.2020.19(Tue Oct 13 00:10:01 KST 2020)
(APACHE source distribution)
Java Runtime: Java(TM) SE Runtime Environment
JVM: Java HotSpot(TM) 64-Bit Server VM
Default Encoding: MS949
Language: ko
Country: KR
--></g></svg>