<?xml version="1.0" encoding="UTF-8" standalone="no"?><svg xmlns="http://www.w3.org/2000/svg" xmlns:xlink="http://www.w3.org/1999/xlink" contentScriptType="application/ecmascript" contentStyleType="text/css" height="380px" preserveAspectRatio="none" style="width:180px;height:380px;" version="1.1" viewBox="0 0 180 380" width="180px" zoomAndPan="magnify"><defs><filter height="300%" id="fft8ucpv0zx90" width="300%" x="-1" y="-1"><feGaussianBlur result="blurOut" stdDeviation="2.0"/><feColorMatrix in="blurOut" result="blurOut2" type="matrix" values="0 0 0 0 0 0 0 0 0 0 0 0 0 0 0 0 0 0 .4 0"/><feOffset dx="4.0" dy="4.0" in="blurOut2" result="blurOut3"/><feBlend in="SourceGraphic" in2="blurOut3" mode="normal"/></filter></defs><g><!--MD5=[c4fd2dc20ceb3d4779ff614001bcf0b4]
cluster dataSet.Data_base--><polygon fill="#FFFFFF" filter="url(#fft8ucpv0zx90)" points="16,6,152,6,159,31.2295,163,31.2295,163,373,16,373,16,6" style="stroke: #000000; stroke-width: 1.5;"/><line style="stroke: #000000; stroke-width: 1.5;" x1="16" x2="159" y1="31.2295" y2="31.2295"/><text fill="#000000" font-family="sans-serif" font-size="14" font-weight="bold" lengthAdjust="spacingAndGlyphs" textLength="130" x="20" y="24.1533">dataSet.Data_base</text><!--MD5=[dc610065fe2a84f0f9f5267d497a25bb]
class dataSet.Data_base.getCallByList()--><rect codeLine="1" fill="#FEFECE" filter="url(#fft8ucpv0zx90)" height="311.96" id="dataSet.Data_base.getCallByList()" style="stroke: #A80036; stroke-width: 1.5;" width="112" x="33" y="45"/><ellipse cx="48" cy="61" fill="#ADD1B2" rx="11" ry="11" style="stroke: #A80036; stroke-width: 1.0;"/><path d="M47.5625,54.5156 Q44.8281,54.5156 43.75,56.1406 Q42.6094,57.8594 42.6094,60.7813 Q42.6094,64.0781 43.7656,65.7813 Q44.75,67.2813 47.3594,67.2813 Q48.9375,67.2813 49.8125,66.4531 Q50.7969,65.5 50.9375,63.375 Q50.9375,63.0781 50.7656,62.9063 Q50.6406,62.75 50.4219,62.7344 Q49.2031,62.7344 49.0469,62.8594 Q48.875,63.0156 48.875,63.2813 Q48.8438,64.7656 48.1875,65.5781 Q47.5781,66.375 47.5,66.375 Q46.1719,66.375 45.3906,64.7813 Q44.6406,63.2344 44.6406,60.75 Q44.6406,58.125 45.5781,56.6719 Q46.4063,55.4219 47.6875,55.4219 Q47.6875,55.4219 48.0313,56.0469 Q48.6563,56.7188 48.7969,57.875 Q48.9063,58.4531 50.375,58.2344 Q50.9063,58.1563 50.875,57.7344 Q50.7031,56.2969 49.9844,55.4844 Q49.125,54.5156 47.5625,54.5156 Z "/><text fill="#000000" font-family="sans-serif" font-size="12" lengthAdjust="spacingAndGlyphs" textLength="80" x="62" y="66.6045">getCallByList()</text><line style="stroke: #A80036; stroke-width: 1.5;" x1="34" x2="144" y1="77" y2="77"/><line style="stroke: #A80036; stroke-width: 1.5;" x1="34" x2="69" y1="92.5544" y2="92.5544"/><text fill="#008000" font-family="sans-serif" font-size="11" font-weight="bold" lengthAdjust="spacingAndGlyphs" textLength="40" x="69" y="97.1919">has list</text><line style="stroke: #A80036; stroke-width: 1.5;" x1="109" x2="144" y1="92.5544" y2="92.5544"/><line style="stroke: #A80036; stroke-width: 1.0; stroke-dasharray: 1.0,2.0;" x1="34" x2="76" y1="115.2178" y2="115.2178"/><text fill="#000000" font-family="sans-serif" font-size="11" lengthAdjust="spacingAndGlyphs" textLength="26" x="76" y="119.8552">class</text><line style="stroke: #A80036; stroke-width: 1.0; stroke-dasharray: 1.0,2.0;" x1="102" x2="144" y1="115.2178" y2="115.2178"/><line style="stroke: #A80036; stroke-width: 1.0; stroke-dasharray: 1.0,2.0;" x1="34" x2="70" y1="137.8811" y2="137.8811"/><text fill="#000000" font-family="sans-serif" font-size="11" lengthAdjust="spacingAndGlyphs" textLength="38" x="70" y="142.5186">member</text><line style="stroke: #A80036; stroke-width: 1.0; stroke-dasharray: 1.0,2.0;" x1="108" x2="144" y1="137.8811" y2="137.8811"/><line style="stroke: #A80036; stroke-width: 1.0; stroke-dasharray: 1.0,2.0;" x1="34" x2="71.5" y1="160.5444" y2="160.5444"/><text fill="#000000" font-family="sans-serif" font-size="11" lengthAdjust="spacingAndGlyphs" textLength="35" x="71.5" y="165.1819">method</text><line style="stroke: #A80036; stroke-width: 1.0; stroke-dasharray: 1.0,2.0;" x1="106.5" x2="144" y1="160.5444" y2="160.5444"/><line style="stroke: #A80036; stroke-width: 1.5;" x1="34" x2="61.5" y1="183.2078" y2="183.2078"/><text fill="#0000FF" font-family="sans-serif" font-size="11" font-weight="bold" lengthAdjust="spacingAndGlyphs" textLength="55" x="61.5" y="187.8452">calling list</text><line style="stroke: #A80036; stroke-width: 1.5;" x1="116.5" x2="144" y1="183.2078" y2="183.2078"/><line style="stroke: #A80036; stroke-width: 1.0; stroke-dasharray: 1.0,2.0;" x1="34" x2="76" y1="205.8711" y2="205.8711"/><text fill="#000000" font-family="sans-serif" font-size="11" lengthAdjust="spacingAndGlyphs" textLength="26" x="76" y="210.5085">class</text><line style="stroke: #A80036; stroke-width: 1.0; stroke-dasharray: 1.0,2.0;" x1="102" x2="144" y1="205.8711" y2="205.8711"/><line style="stroke: #A80036; stroke-width: 1.0; stroke-dasharray: 1.0,2.0;" x1="34" x2="70" y1="228.5344" y2="228.5344"/><text fill="#000000" font-family="sans-serif" font-size="11" lengthAdjust="spacingAndGlyphs" textLength="38" x="70" y="233.1719">member</text><line style="stroke: #A80036; stroke-width: 1.0; stroke-dasharray: 1.0,2.0;" x1="108" x2="144" y1="228.5344" y2="228.5344"/><line style="stroke: #A80036; stroke-width: 1.0; stroke-dasharray: 1.0,2.0;" x1="34" x2="71.5" y1="251.1978" y2="251.1978"/><text fill="#000000" font-family="sans-serif" font-size="11" lengthAdjust="spacingAndGlyphs" textLength="35" x="71.5" y="255.8352">method</text><line style="stroke: #A80036; stroke-width: 1.0; stroke-dasharray: 1.0,2.0;" x1="106.5" x2="144" y1="251.1978" y2="251.1978"/><line style="stroke: #A80036; stroke-width: 1.5;" x1="34" x2="55" y1="273.8611" y2="273.8611"/><text fill="#FFA500" font-family="sans-serif" font-size="11" font-weight="bold" lengthAdjust="spacingAndGlyphs" textLength="68" x="55" y="278.4985">called by list</text><line style="stroke: #A80036; stroke-width: 1.5;" x1="123" x2="144" y1="273.8611" y2="273.8611"/><line style="stroke: #A80036; stroke-width: 1.0; stroke-dasharray: 1.0,2.0;" x1="34" x2="76" y1="296.5244" y2="296.5244"/><text fill="#000000" font-family="sans-serif" font-size="11" lengthAdjust="spacingAndGlyphs" textLength="26" x="76" y="301.1619">class</text><line style="stroke: #A80036; stroke-width: 1.0; stroke-dasharray: 1.0,2.0;" x1="102" x2="144" y1="296.5244" y2="296.5244"/><line style="stroke: #A80036; stroke-width: 1.0; stroke-dasharray: 1.0,2.0;" x1="34" x2="70" y1="319.1877" y2="319.1877"/><text fill="#000000" font-family="sans-serif" font-size="11" lengthAdjust="spacingAndGlyphs" textLength="38" x="70" y="323.8252">member</text><line style="stroke: #A80036; stroke-width: 1.0; stroke-dasharray: 1.0,2.0;" x1="108" x2="144" y1="319.1877" y2="319.1877"/><line style="stroke: #A80036; stroke-width: 1.0; stroke-dasharray: 1.0,2.0;" x1="34" x2="71.5" y1="341.8511" y2="341.8511"/><text fill="#000000" font-family="sans-serif" font-size="11" lengthAdjust="spacingAndGlyphs" textLength="35" x="71.5" y="346.4885">method</text><line style="stroke: #A80036; stroke-width: 1.0; stroke-dasharray: 1.0,2.0;" x1="106.5" x2="144" y1="341.8511" y2="341.8511"/><!--MD5=[7eb0bd5a8029ea900daf33b58410b280]
@startuml
class dataSet.Data_base.getCallByList(){
__**<color:green>has list</color>**__
..class..
..member..
..method..
__**<color:blue>calling list</color>**__
..class..
..member..
..method..
__**<color:orange>called by list</color>**__
..class..
..member..
..method..
}

@enduml

PlantUML version 1.2020.19(Tue Oct 13 00:10:01 KST 2020)
(APACHE source distribution)
Java Runtime: Java(TM) SE Runtime Environment
JVM: Java HotSpot(TM) 64-Bit Server VM
Default Encoding: MS949
Language: ko
Country: KR
--></g></svg>