<?xml version="1.0" encoding="UTF-8" standalone="no"?><svg xmlns="http://www.w3.org/2000/svg" xmlns:xlink="http://www.w3.org/1999/xlink" contentScriptType="application/ecmascript" contentStyleType="text/css" height="416px" preserveAspectRatio="none" style="width:289px;height:416px;" version="1.1" viewBox="0 0 289 416" width="289px" zoomAndPan="magnify"><defs><filter height="300%" id="fm5uaeysjqxxu" width="300%" x="-1" y="-1"><feGaussianBlur result="blurOut" stdDeviation="2.0"/><feColorMatrix in="blurOut" result="blurOut2" type="matrix" values="0 0 0 0 0 0 0 0 0 0 0 0 0 0 0 0 0 0 .4 0"/><feOffset dx="4.0" dy="4.0" in="blurOut2" result="blurOut3"/><feBlend in="SourceGraphic" in2="blurOut3" mode="normal"/></filter></defs><g><!--MD5=[0b657e3af8759e02a3a9211e8b8759de]
cluster dataSet.DataList.addClass(dataSet--><polygon fill="#FFFFFF" filter="url(#fm5uaeysjqxxu)" points="16,6,261,6,268,31.2295,272,31.2295,272,409,16,409,16,6" style="stroke: #000000; stroke-width: 1.5;"/><line style="stroke: #000000; stroke-width: 1.5;" x1="16" x2="268" y1="31.2295" y2="31.2295"/><text fill="#000000" font-family="sans-serif" font-size="14" font-weight="bold" lengthAdjust="spacingAndGlyphs" textLength="239" x="20" y="24.1533">dataSet.DataList.addClass(dataSet</text><!--MD5=[72e4e64de5982f59fe4ceacce85d7fd4]
class dataSet.DataList.addClass(dataSet.Class)--><rect codeLine="1" fill="#FEFECE" filter="url(#fm5uaeysjqxxu)" height="346.6233" id="dataSet.DataList.addClass(dataSet.Class)" style="stroke: #A80036; stroke-width: 1.5;" width="166" x="61" y="45.5"/><ellipse cx="121.25" cy="61.5" fill="#ADD1B2" rx="11" ry="11" style="stroke: #A80036; stroke-width: 1.0;"/><path d="M120.8125,55.0156 Q118.0781,55.0156 117,56.6406 Q115.8594,58.3594 115.8594,61.2813 Q115.8594,64.5781 117.0156,66.2813 Q118,67.7813 120.6094,67.7813 Q122.1875,67.7813 123.0625,66.9531 Q124.0469,66 124.1875,63.875 Q124.1875,63.5781 124.0156,63.4063 Q123.8906,63.25 123.6719,63.2344 Q122.4531,63.2344 122.2969,63.3594 Q122.125,63.5156 122.125,63.7813 Q122.0938,65.2656 121.4375,66.0781 Q120.8281,66.875 120.75,66.875 Q119.4219,66.875 118.6406,65.2813 Q117.8906,63.7344 117.8906,61.25 Q117.8906,58.625 118.8281,57.1719 Q119.6563,55.9219 120.9375,55.9219 Q120.9375,55.9219 121.2813,56.5469 Q121.9063,57.2188 122.0469,58.375 Q122.1563,58.9531 123.625,58.7344 Q124.1563,58.6563 124.125,58.2344 Q123.9531,56.7969 123.2344,55.9844 Q122.375,55.0156 120.8125,55.0156 Z "/><text fill="#000000" font-family="sans-serif" font-size="12" lengthAdjust="spacingAndGlyphs" textLength="37" x="141.75" y="67.1045">Class)</text><line style="stroke: #A80036; stroke-width: 1.5;" x1="62" x2="226" y1="77.5" y2="77.5"/><line style="stroke: #A80036; stroke-width: 1.5;" x1="62" x2="124" y1="93.0544" y2="93.0544"/><text fill="#008000" font-family="sans-serif" font-size="11" font-weight="bold" lengthAdjust="spacingAndGlyphs" textLength="40" x="124" y="97.6919">has list</text><line style="stroke: #A80036; stroke-width: 1.5;" x1="164" x2="226" y1="93.0544" y2="93.0544"/><line style="stroke: #A80036; stroke-width: 1.0; stroke-dasharray: 1.0,2.0;" x1="62" x2="131" y1="115.7178" y2="115.7178"/><text fill="#000000" font-family="sans-serif" font-size="11" lengthAdjust="spacingAndGlyphs" textLength="26" x="131" y="120.3552">class</text><line style="stroke: #A80036; stroke-width: 1.0; stroke-dasharray: 1.0,2.0;" x1="157" x2="226" y1="115.7178" y2="115.7178"/><text fill="#000000" font-family="sans-serif" font-size="11" lengthAdjust="spacingAndGlyphs" textLength="118" x="67" y="158.6274">Class cls (1512903453);</text><line style="stroke: #A80036; stroke-width: 1.0; stroke-dasharray: 1.0,2.0;" x1="62" x2="125" y1="138.3811" y2="138.3811"/><text fill="#000000" font-family="sans-serif" font-size="11" lengthAdjust="spacingAndGlyphs" textLength="38" x="125" y="143.0186">member</text><line style="stroke: #A80036; stroke-width: 1.0; stroke-dasharray: 1.0,2.0;" x1="163" x2="226" y1="138.3811" y2="138.3811"/><line style="stroke: #A80036; stroke-width: 1.0; stroke-dasharray: 1.0,2.0;" x1="62" x2="126.5" y1="172.5989" y2="172.5989"/><text fill="#000000" font-family="sans-serif" font-size="11" lengthAdjust="spacingAndGlyphs" textLength="35" x="126.5" y="177.2363">method</text><line style="stroke: #A80036; stroke-width: 1.0; stroke-dasharray: 1.0,2.0;" x1="161.5" x2="226" y1="172.5989" y2="172.5989"/><line style="stroke: #A80036; stroke-width: 1.5;" x1="62" x2="116.5" y1="195.2622" y2="195.2622"/><text fill="#0000FF" font-family="sans-serif" font-size="11" font-weight="bold" lengthAdjust="spacingAndGlyphs" textLength="55" x="116.5" y="199.8997">calling list</text><line style="stroke: #A80036; stroke-width: 1.5;" x1="171.5" x2="226" y1="195.2622" y2="195.2622"/><text fill="#000000" font-family="sans-serif" font-size="11" lengthAdjust="spacingAndGlyphs" textLength="95" x="67" y="238.1719">Class (157168588);</text><line style="stroke: #A80036; stroke-width: 1.0; stroke-dasharray: 1.0,2.0;" x1="62" x2="131" y1="217.9255" y2="217.9255"/><text fill="#000000" font-family="sans-serif" font-size="11" lengthAdjust="spacingAndGlyphs" textLength="26" x="131" y="222.563">class</text><line style="stroke: #A80036; stroke-width: 1.0; stroke-dasharray: 1.0,2.0;" x1="157" x2="226" y1="217.9255" y2="217.9255"/><line style="stroke: #A80036; stroke-width: 1.0; stroke-dasharray: 1.0,2.0;" x1="62" x2="125" y1="252.1433" y2="252.1433"/><text fill="#000000" font-family="sans-serif" font-size="11" lengthAdjust="spacingAndGlyphs" textLength="38" x="125" y="256.7808">member</text><line style="stroke: #A80036; stroke-width: 1.0; stroke-dasharray: 1.0,2.0;" x1="163" x2="226" y1="252.1433" y2="252.1433"/><text fill="#000000" font-family="sans-serif" font-size="11" lengthAdjust="spacingAndGlyphs" textLength="154" x="67" y="295.053">String getSrcName() (2694936);</text><line style="stroke: #A80036; stroke-width: 1.0; stroke-dasharray: 1.0,2.0;" x1="62" x2="126.5" y1="274.8066" y2="274.8066"/><text fill="#000000" font-family="sans-serif" font-size="11" lengthAdjust="spacingAndGlyphs" textLength="35" x="126.5" y="279.4441">method</text><line style="stroke: #A80036; stroke-width: 1.0; stroke-dasharray: 1.0,2.0;" x1="161.5" x2="226" y1="274.8066" y2="274.8066"/><line style="stroke: #A80036; stroke-width: 1.5;" x1="62" x2="110" y1="309.0244" y2="309.0244"/><text fill="#FFA500" font-family="sans-serif" font-size="11" font-weight="bold" lengthAdjust="spacingAndGlyphs" textLength="68" x="110" y="313.6619">called by list</text><line style="stroke: #A80036; stroke-width: 1.5;" x1="178" x2="226" y1="309.0244" y2="309.0244"/><line style="stroke: #A80036; stroke-width: 1.0; stroke-dasharray: 1.0,2.0;" x1="62" x2="131" y1="331.6877" y2="331.6877"/><text fill="#000000" font-family="sans-serif" font-size="11" lengthAdjust="spacingAndGlyphs" textLength="26" x="131" y="336.3252">class</text><line style="stroke: #A80036; stroke-width: 1.0; stroke-dasharray: 1.0,2.0;" x1="157" x2="226" y1="331.6877" y2="331.6877"/><line style="stroke: #A80036; stroke-width: 1.0; stroke-dasharray: 1.0,2.0;" x1="62" x2="125" y1="354.3511" y2="354.3511"/><text fill="#000000" font-family="sans-serif" font-size="11" lengthAdjust="spacingAndGlyphs" textLength="38" x="125" y="358.9885">member</text><line style="stroke: #A80036; stroke-width: 1.0; stroke-dasharray: 1.0,2.0;" x1="163" x2="226" y1="354.3511" y2="354.3511"/><line style="stroke: #A80036; stroke-width: 1.0; stroke-dasharray: 1.0,2.0;" x1="62" x2="126.5" y1="377.0144" y2="377.0144"/><text fill="#000000" font-family="sans-serif" font-size="11" lengthAdjust="spacingAndGlyphs" textLength="35" x="126.5" y="381.6519">method</text><line style="stroke: #A80036; stroke-width: 1.0; stroke-dasharray: 1.0,2.0;" x1="161.5" x2="226" y1="377.0144" y2="377.0144"/><!--MD5=[fa4aafc4f6a0202f89021f7af7343024]
@startuml
class dataSet.DataList.addClass(dataSet.Class){
__**<color:green>has list</color>**__
..class..
..member..
	Class cls (1512903453);
..method..
__**<color:blue>calling list</color>**__
..class..
	Class (157168588);
..member..
..method..
	String getSrcName() (2694936);
__**<color:orange>called by list</color>**__
..class..
..member..
..method..
}

@enduml

PlantUML version 1.2020.19(Tue Oct 13 00:10:01 KST 2020)
(APACHE source distribution)
Java Runtime: Java(TM) SE Runtime Environment
JVM: Java HotSpot(TM) 64-Bit Server VM
Default Encoding: MS949
Language: ko
Country: KR
--></g></svg>