<?xml version="1.0" encoding="UTF-8" standalone="no"?><svg xmlns="http://www.w3.org/2000/svg" xmlns:xlink="http://www.w3.org/1999/xlink" contentScriptType="application/ecmascript" contentStyleType="text/css" height="416px" preserveAspectRatio="none" style="width:305px;height:416px;" version="1.1" viewBox="0 0 305 416" width="305px" zoomAndPan="magnify"><defs><filter height="300%" id="foz0jhktcn7pb" width="300%" x="-1" y="-1"><feGaussianBlur result="blurOut" stdDeviation="2.0"/><feColorMatrix in="blurOut" result="blurOut2" type="matrix" values="0 0 0 0 0 0 0 0 0 0 0 0 0 0 0 0 0 0 .4 0"/><feOffset dx="4.0" dy="4.0" in="blurOut2" result="blurOut3"/><feBlend in="SourceGraphic" in2="blurOut3" mode="normal"/></filter></defs><g><!--MD5=[4fc8987d3b672c1bda0bf47762113d63]
cluster dataSet.Member.addImage(java.lang--><polygon fill="#FFFFFF" filter="url(#foz0jhktcn7pb)" points="16,6,277,6,284,31.2295,288,31.2295,288,409,16,409,16,6" style="stroke: #000000; stroke-width: 1.5;"/><line style="stroke: #000000; stroke-width: 1.5;" x1="16" x2="284" y1="31.2295" y2="31.2295"/><text fill="#000000" font-family="sans-serif" font-size="14" font-weight="bold" lengthAdjust="spacingAndGlyphs" textLength="255" x="20" y="24.1533">dataSet.Member.addImage(java.lang</text><!--MD5=[ef46df8cd5ee2e89a783cc2492dfab0e]
class dataSet.Member.addImage(java.lang.String)--><rect codeLine="1" fill="#FEFECE" filter="url(#foz0jhktcn7pb)" height="346.6233" id="dataSet.Member.addImage(java.lang.String)" style="stroke: #A80036; stroke-width: 1.5;" width="131" x="87" y="45.5"/><ellipse cx="130.35" cy="61.5" fill="#ADD1B2" rx="11" ry="11" style="stroke: #A80036; stroke-width: 1.0;"/><path d="M129.9125,55.0156 Q127.1781,55.0156 126.1,56.6406 Q124.9594,58.3594 124.9594,61.2813 Q124.9594,64.5781 126.1156,66.2813 Q127.1,67.7813 129.7094,67.7813 Q131.2875,67.7813 132.1625,66.9531 Q133.1469,66 133.2875,63.875 Q133.2875,63.5781 133.1156,63.4063 Q132.9906,63.25 132.7719,63.2344 Q131.5531,63.2344 131.3969,63.3594 Q131.225,63.5156 131.225,63.7813 Q131.1938,65.2656 130.5375,66.0781 Q129.9281,66.875 129.85,66.875 Q128.5219,66.875 127.7406,65.2813 Q126.9906,63.7344 126.9906,61.25 Q126.9906,58.625 127.9281,57.1719 Q128.7563,55.9219 130.0375,55.9219 Q130.0375,55.9219 130.3813,56.5469 Q131.0063,57.2188 131.1469,58.375 Q131.2563,58.9531 132.725,58.7344 Q133.2563,58.6563 133.225,58.2344 Q133.0531,56.7969 132.3344,55.9844 Q131.475,55.0156 129.9125,55.0156 Z "/><text fill="#000000" font-family="sans-serif" font-size="12" lengthAdjust="spacingAndGlyphs" textLength="36" x="150.65" y="67.1045">String)</text><line style="stroke: #A80036; stroke-width: 1.5;" x1="88" x2="217" y1="77.5" y2="77.5"/><line style="stroke: #A80036; stroke-width: 1.5;" x1="88" x2="132.5" y1="93.0544" y2="93.0544"/><text fill="#008000" font-family="sans-serif" font-size="11" font-weight="bold" lengthAdjust="spacingAndGlyphs" textLength="40" x="132.5" y="97.6919">has list</text><line style="stroke: #A80036; stroke-width: 1.5;" x1="172.5" x2="217" y1="93.0544" y2="93.0544"/><line style="stroke: #A80036; stroke-width: 1.0; stroke-dasharray: 1.0,2.0;" x1="88" x2="139.5" y1="115.7178" y2="115.7178"/><text fill="#000000" font-family="sans-serif" font-size="11" lengthAdjust="spacingAndGlyphs" textLength="26" x="139.5" y="120.3552">class</text><line style="stroke: #A80036; stroke-width: 1.0; stroke-dasharray: 1.0,2.0;" x1="165.5" x2="217" y1="115.7178" y2="115.7178"/><text fill="#000000" font-family="sans-serif" font-size="11" lengthAdjust="spacingAndGlyphs" textLength="115" x="93" y="158.6274">String img (689602108);</text><line style="stroke: #A80036; stroke-width: 1.0; stroke-dasharray: 1.0,2.0;" x1="88" x2="133.5" y1="138.3811" y2="138.3811"/><text fill="#000000" font-family="sans-serif" font-size="11" lengthAdjust="spacingAndGlyphs" textLength="38" x="133.5" y="143.0186">member</text><line style="stroke: #A80036; stroke-width: 1.0; stroke-dasharray: 1.0,2.0;" x1="171.5" x2="217" y1="138.3811" y2="138.3811"/><line style="stroke: #A80036; stroke-width: 1.0; stroke-dasharray: 1.0,2.0;" x1="88" x2="135" y1="172.5989" y2="172.5989"/><text fill="#000000" font-family="sans-serif" font-size="11" lengthAdjust="spacingAndGlyphs" textLength="35" x="135" y="177.2363">method</text><line style="stroke: #A80036; stroke-width: 1.0; stroke-dasharray: 1.0,2.0;" x1="170" x2="217" y1="172.5989" y2="172.5989"/><line style="stroke: #A80036; stroke-width: 1.5;" x1="88" x2="125" y1="195.2622" y2="195.2622"/><text fill="#0000FF" font-family="sans-serif" font-size="11" font-weight="bold" lengthAdjust="spacingAndGlyphs" textLength="55" x="125" y="199.8997">calling list</text><line style="stroke: #A80036; stroke-width: 1.5;" x1="180" x2="217" y1="195.2622" y2="195.2622"/><text fill="#000000" font-family="sans-serif" font-size="11" lengthAdjust="spacingAndGlyphs" textLength="107" x="93" y="238.1719">ArrayList (37887172);</text><line style="stroke: #A80036; stroke-width: 1.0; stroke-dasharray: 1.0,2.0;" x1="88" x2="139.5" y1="217.9255" y2="217.9255"/><text fill="#000000" font-family="sans-serif" font-size="11" lengthAdjust="spacingAndGlyphs" textLength="26" x="139.5" y="222.563">class</text><line style="stroke: #A80036; stroke-width: 1.0; stroke-dasharray: 1.0,2.0;" x1="165.5" x2="217" y1="217.9255" y2="217.9255"/><line style="stroke: #A80036; stroke-width: 1.0; stroke-dasharray: 1.0,2.0;" x1="88" x2="133.5" y1="252.1433" y2="252.1433"/><text fill="#000000" font-family="sans-serif" font-size="11" lengthAdjust="spacingAndGlyphs" textLength="38" x="133.5" y="256.7808">member</text><line style="stroke: #A80036; stroke-width: 1.0; stroke-dasharray: 1.0,2.0;" x1="171.5" x2="217" y1="252.1433" y2="252.1433"/><text fill="#000000" font-family="sans-serif" font-size="11" lengthAdjust="spacingAndGlyphs" textLength="119" x="93" y="295.053">null add(E) (818493590);</text><line style="stroke: #A80036; stroke-width: 1.0; stroke-dasharray: 1.0,2.0;" x1="88" x2="135" y1="274.8066" y2="274.8066"/><text fill="#000000" font-family="sans-serif" font-size="11" lengthAdjust="spacingAndGlyphs" textLength="35" x="135" y="279.4441">method</text><line style="stroke: #A80036; stroke-width: 1.0; stroke-dasharray: 1.0,2.0;" x1="170" x2="217" y1="274.8066" y2="274.8066"/><line style="stroke: #A80036; stroke-width: 1.5;" x1="88" x2="118.5" y1="309.0244" y2="309.0244"/><text fill="#FFA500" font-family="sans-serif" font-size="11" font-weight="bold" lengthAdjust="spacingAndGlyphs" textLength="68" x="118.5" y="313.6619">called by list</text><line style="stroke: #A80036; stroke-width: 1.5;" x1="186.5" x2="217" y1="309.0244" y2="309.0244"/><line style="stroke: #A80036; stroke-width: 1.0; stroke-dasharray: 1.0,2.0;" x1="88" x2="139.5" y1="331.6877" y2="331.6877"/><text fill="#000000" font-family="sans-serif" font-size="11" lengthAdjust="spacingAndGlyphs" textLength="26" x="139.5" y="336.3252">class</text><line style="stroke: #A80036; stroke-width: 1.0; stroke-dasharray: 1.0,2.0;" x1="165.5" x2="217" y1="331.6877" y2="331.6877"/><line style="stroke: #A80036; stroke-width: 1.0; stroke-dasharray: 1.0,2.0;" x1="88" x2="133.5" y1="354.3511" y2="354.3511"/><text fill="#000000" font-family="sans-serif" font-size="11" lengthAdjust="spacingAndGlyphs" textLength="38" x="133.5" y="358.9885">member</text><line style="stroke: #A80036; stroke-width: 1.0; stroke-dasharray: 1.0,2.0;" x1="171.5" x2="217" y1="354.3511" y2="354.3511"/><line style="stroke: #A80036; stroke-width: 1.0; stroke-dasharray: 1.0,2.0;" x1="88" x2="135" y1="377.0144" y2="377.0144"/><text fill="#000000" font-family="sans-serif" font-size="11" lengthAdjust="spacingAndGlyphs" textLength="35" x="135" y="381.6519">method</text><line style="stroke: #A80036; stroke-width: 1.0; stroke-dasharray: 1.0,2.0;" x1="170" x2="217" y1="377.0144" y2="377.0144"/><!--MD5=[13b2bd102a81f7542ecc1f23e1339477]
@startuml
class dataSet.Member.addImage(java.lang.String){
__**<color:green>has list</color>**__
..class..
..member..
	String img (689602108);
..method..
__**<color:blue>calling list</color>**__
..class..
	ArrayList (37887172);
..member..
..method..
	null add(E) (818493590);
__**<color:orange>called by list</color>**__
..class..
..member..
..method..
}

@enduml

PlantUML version 1.2020.19(Tue Oct 13 00:10:01 KST 2020)
(APACHE source distribution)
Java Runtime: Java(TM) SE Runtime Environment
JVM: Java HotSpot(TM) 64-Bit Server VM
Default Encoding: MS949
Language: ko
Country: KR
--></g></svg>