<?xml version="1.0" encoding="UTF-8" standalone="no"?><svg xmlns="http://www.w3.org/2000/svg" xmlns:xlink="http://www.w3.org/1999/xlink" contentScriptType="application/ecmascript" contentStyleType="text/css" height="404px" preserveAspectRatio="none" style="width:243px;height:404px;" version="1.1" viewBox="0 0 243 404" width="243px" zoomAndPan="magnify"><defs><filter height="300%" id="fsyvv2s7cmo0i" width="300%" x="-1" y="-1"><feGaussianBlur result="blurOut" stdDeviation="2.0"/><feColorMatrix in="blurOut" result="blurOut2" type="matrix" values="0 0 0 0 0 0 0 0 0 0 0 0 0 0 0 0 0 0 .4 0"/><feOffset dx="4.0" dy="4.0" in="blurOut2" result="blurOut3"/><feBlend in="SourceGraphic" in2="blurOut3" mode="normal"/></filter></defs><g><!--MD5=[c4fd2dc20ceb3d4779ff614001bcf0b4]
cluster dataSet.Data_base--><polygon fill="#FFFFFF" filter="url(#fsyvv2s7cmo0i)" points="16,6,152,6,159,31.2295,226,31.2295,226,397,16,397,16,6" style="stroke: #000000; stroke-width: 1.5;"/><line style="stroke: #000000; stroke-width: 1.5;" x1="16" x2="159" y1="31.2295" y2="31.2295"/><text fill="#000000" font-family="sans-serif" font-size="14" font-weight="bold" lengthAdjust="spacingAndGlyphs" textLength="130" x="20" y="24.1533">dataSet.Data_base</text><!--MD5=[600e1874696f897b1e1a675e8cde013b]
class dataSet.Data_base.getSrcName()--><rect codeLine="1" fill="#FEFECE" filter="url(#fsyvv2s7cmo0i)" height="335.0688" id="dataSet.Data_base.getSrcName()" style="stroke: #A80036; stroke-width: 1.5;" width="178" x="32" y="45.5"/><ellipse cx="78.25" cy="61.5" fill="#ADD1B2" rx="11" ry="11" style="stroke: #A80036; stroke-width: 1.0;"/><path d="M77.8125,55.0156 Q75.0781,55.0156 74,56.6406 Q72.8594,58.3594 72.8594,61.2813 Q72.8594,64.5781 74.0156,66.2813 Q75,67.7813 77.6094,67.7813 Q79.1875,67.7813 80.0625,66.9531 Q81.0469,66 81.1875,63.875 Q81.1875,63.5781 81.0156,63.4063 Q80.8906,63.25 80.6719,63.2344 Q79.4531,63.2344 79.2969,63.3594 Q79.125,63.5156 79.125,63.7813 Q79.0938,65.2656 78.4375,66.0781 Q77.8281,66.875 77.75,66.875 Q76.4219,66.875 75.6406,65.2813 Q74.8906,63.7344 74.8906,61.25 Q74.8906,58.625 75.8281,57.1719 Q76.6563,55.9219 77.9375,55.9219 Q77.9375,55.9219 78.2813,56.5469 Q78.9063,57.2188 79.0469,58.375 Q79.1563,58.9531 80.625,58.7344 Q81.1563,58.6563 81.125,58.2344 Q80.9531,56.7969 80.2344,55.9844 Q79.375,55.0156 77.8125,55.0156 Z "/><text fill="#000000" font-family="sans-serif" font-size="12" lengthAdjust="spacingAndGlyphs" textLength="77" x="98.75" y="67.1045">getSrcName()</text><line style="stroke: #A80036; stroke-width: 1.5;" x1="33" x2="209" y1="77.5" y2="77.5"/><line style="stroke: #A80036; stroke-width: 1.5;" x1="33" x2="101" y1="93.0544" y2="93.0544"/><text fill="#008000" font-family="sans-serif" font-size="11" font-weight="bold" lengthAdjust="spacingAndGlyphs" textLength="40" x="101" y="97.6919">has list</text><line style="stroke: #A80036; stroke-width: 1.5;" x1="141" x2="209" y1="93.0544" y2="93.0544"/><line style="stroke: #A80036; stroke-width: 1.0; stroke-dasharray: 1.0,2.0;" x1="33" x2="108" y1="115.7178" y2="115.7178"/><text fill="#000000" font-family="sans-serif" font-size="11" lengthAdjust="spacingAndGlyphs" textLength="26" x="108" y="120.3552">class</text><line style="stroke: #A80036; stroke-width: 1.0; stroke-dasharray: 1.0,2.0;" x1="134" x2="209" y1="115.7178" y2="115.7178"/><line style="stroke: #A80036; stroke-width: 1.0; stroke-dasharray: 1.0,2.0;" x1="33" x2="102" y1="138.3811" y2="138.3811"/><text fill="#000000" font-family="sans-serif" font-size="11" lengthAdjust="spacingAndGlyphs" textLength="38" x="102" y="143.0186">member</text><line style="stroke: #A80036; stroke-width: 1.0; stroke-dasharray: 1.0,2.0;" x1="140" x2="209" y1="138.3811" y2="138.3811"/><line style="stroke: #A80036; stroke-width: 1.0; stroke-dasharray: 1.0,2.0;" x1="33" x2="103.5" y1="161.0444" y2="161.0444"/><text fill="#000000" font-family="sans-serif" font-size="11" lengthAdjust="spacingAndGlyphs" textLength="35" x="103.5" y="165.6819">method</text><line style="stroke: #A80036; stroke-width: 1.0; stroke-dasharray: 1.0,2.0;" x1="138.5" x2="209" y1="161.0444" y2="161.0444"/><line style="stroke: #A80036; stroke-width: 1.5;" x1="33" x2="93.5" y1="183.7078" y2="183.7078"/><text fill="#0000FF" font-family="sans-serif" font-size="11" font-weight="bold" lengthAdjust="spacingAndGlyphs" textLength="55" x="93.5" y="188.3452">calling list</text><line style="stroke: #A80036; stroke-width: 1.5;" x1="148.5" x2="209" y1="183.7078" y2="183.7078"/><line style="stroke: #A80036; stroke-width: 1.0; stroke-dasharray: 1.0,2.0;" x1="33" x2="108" y1="206.3711" y2="206.3711"/><text fill="#000000" font-family="sans-serif" font-size="11" lengthAdjust="spacingAndGlyphs" textLength="26" x="108" y="211.0085">class</text><line style="stroke: #A80036; stroke-width: 1.0; stroke-dasharray: 1.0,2.0;" x1="134" x2="209" y1="206.3711" y2="206.3711"/><line style="stroke: #A80036; stroke-width: 1.0; stroke-dasharray: 1.0,2.0;" x1="33" x2="102" y1="229.0344" y2="229.0344"/><text fill="#000000" font-family="sans-serif" font-size="11" lengthAdjust="spacingAndGlyphs" textLength="38" x="102" y="233.6719">member</text><line style="stroke: #A80036; stroke-width: 1.0; stroke-dasharray: 1.0,2.0;" x1="140" x2="209" y1="229.0344" y2="229.0344"/><line style="stroke: #A80036; stroke-width: 1.0; stroke-dasharray: 1.0,2.0;" x1="33" x2="103.5" y1="251.6978" y2="251.6978"/><text fill="#000000" font-family="sans-serif" font-size="11" lengthAdjust="spacingAndGlyphs" textLength="35" x="103.5" y="256.3352">method</text><line style="stroke: #A80036; stroke-width: 1.0; stroke-dasharray: 1.0,2.0;" x1="138.5" x2="209" y1="251.6978" y2="251.6978"/><line style="stroke: #A80036; stroke-width: 1.5;" x1="33" x2="87" y1="274.3611" y2="274.3611"/><text fill="#FFA500" font-family="sans-serif" font-size="11" font-weight="bold" lengthAdjust="spacingAndGlyphs" textLength="68" x="87" y="278.9985">called by list</text><line style="stroke: #A80036; stroke-width: 1.5;" x1="155" x2="209" y1="274.3611" y2="274.3611"/><text fill="#000000" font-family="sans-serif" font-size="11" lengthAdjust="spacingAndGlyphs" textLength="115" x="38" y="317.2708">Function (1321203216);</text><line style="stroke: #A80036; stroke-width: 1.0; stroke-dasharray: 1.0,2.0;" x1="33" x2="108" y1="297.0244" y2="297.0244"/><text fill="#000000" font-family="sans-serif" font-size="11" lengthAdjust="spacingAndGlyphs" textLength="26" x="108" y="301.6619">class</text><line style="stroke: #A80036; stroke-width: 1.0; stroke-dasharray: 1.0,2.0;" x1="134" x2="209" y1="297.0244" y2="297.0244"/><line style="stroke: #A80036; stroke-width: 1.0; stroke-dasharray: 1.0,2.0;" x1="33" x2="102" y1="331.2422" y2="331.2422"/><text fill="#000000" font-family="sans-serif" font-size="11" lengthAdjust="spacingAndGlyphs" textLength="38" x="102" y="335.8796">member</text><line style="stroke: #A80036; stroke-width: 1.0; stroke-dasharray: 1.0,2.0;" x1="140" x2="209" y1="331.2422" y2="331.2422"/><text fill="#000000" font-family="sans-serif" font-size="11" lengthAdjust="spacingAndGlyphs" textLength="166" x="38" y="374.1519">String getSrcName() (195801026);</text><line style="stroke: #A80036; stroke-width: 1.0; stroke-dasharray: 1.0,2.0;" x1="33" x2="103.5" y1="353.9055" y2="353.9055"/><text fill="#000000" font-family="sans-serif" font-size="11" lengthAdjust="spacingAndGlyphs" textLength="35" x="103.5" y="358.543">method</text><line style="stroke: #A80036; stroke-width: 1.0; stroke-dasharray: 1.0,2.0;" x1="138.5" x2="209" y1="353.9055" y2="353.9055"/><!--MD5=[4fe19d7fe1aec16bcd1376e6b3218b9c]
@startuml
class dataSet.Data_base.getSrcName(){
__**<color:green>has list</color>**__
..class..
..member..
..method..
__**<color:blue>calling list</color>**__
..class..
..member..
..method..
__**<color:orange>called by list</color>**__
..class..
	Function (1321203216);
..member..
..method..
	String getSrcName() (195801026);
}

@enduml

PlantUML version 1.2020.19(Tue Oct 13 00:10:01 KST 2020)
(APACHE source distribution)
Java Runtime: Java(TM) SE Runtime Environment
JVM: Java HotSpot(TM) 64-Bit Server VM
Default Encoding: MS949
Language: ko
Country: KR
--></g></svg>