<?xml version="1.0" encoding="UTF-8" standalone="no"?><svg xmlns="http://www.w3.org/2000/svg" xmlns:xlink="http://www.w3.org/1999/xlink" contentScriptType="application/ecmascript" contentStyleType="text/css" height="404px" preserveAspectRatio="none" style="width:335px;height:404px;" version="1.1" viewBox="0 0 335 404" width="335px" zoomAndPan="magnify"><defs><filter height="300%" id="fogkemmo01u4d" width="300%" x="-1" y="-1"><feGaussianBlur result="blurOut" stdDeviation="2.0"/><feColorMatrix in="blurOut" result="blurOut2" type="matrix" values="0 0 0 0 0 0 0 0 0 0 0 0 0 0 0 0 0 0 .4 0"/><feOffset dx="4.0" dy="4.0" in="blurOut2" result="blurOut3"/><feBlend in="SourceGraphic" in2="blurOut3" mode="normal"/></filter></defs><g><!--MD5=[e105f759719fe8f26919c29203755413]
cluster dataSet.Function--><polygon fill="#FFFFFF" filter="url(#fogkemmo01u4d)" points="16,6,141,6,148,31.2295,318,31.2295,318,397,16,397,16,6" style="stroke: #000000; stroke-width: 1.5;"/><line style="stroke: #000000; stroke-width: 1.5;" x1="16" x2="148" y1="31.2295" y2="31.2295"/><text fill="#000000" font-family="sans-serif" font-size="14" font-weight="bold" lengthAdjust="spacingAndGlyphs" textLength="119" x="20" y="24.1533">dataSet.Function</text><!--MD5=[ef08ad40cce5a8c2ff60343bd31e5199]
class dataSet.Function.getSig()--><rect codeLine="1" fill="#FEFECE" filter="url(#fogkemmo01u4d)" height="335.0688" id="dataSet.Function.getSig()" style="stroke: #A80036; stroke-width: 1.5;" width="270" x="32" y="45.5"/><ellipse cx="141.25" cy="61.5" fill="#ADD1B2" rx="11" ry="11" style="stroke: #A80036; stroke-width: 1.0;"/><path d="M140.8125,55.0156 Q138.0781,55.0156 137,56.6406 Q135.8594,58.3594 135.8594,61.2813 Q135.8594,64.5781 137.0156,66.2813 Q138,67.7813 140.6094,67.7813 Q142.1875,67.7813 143.0625,66.9531 Q144.0469,66 144.1875,63.875 Q144.1875,63.5781 144.0156,63.4063 Q143.8906,63.25 143.6719,63.2344 Q142.4531,63.2344 142.2969,63.3594 Q142.125,63.5156 142.125,63.7813 Q142.0938,65.2656 141.4375,66.0781 Q140.8281,66.875 140.75,66.875 Q139.4219,66.875 138.6406,65.2813 Q137.8906,63.7344 137.8906,61.25 Q137.8906,58.625 138.8281,57.1719 Q139.6563,55.9219 140.9375,55.9219 Q140.9375,55.9219 141.2813,56.5469 Q141.9063,57.2188 142.0469,58.375 Q142.1563,58.9531 143.625,58.7344 Q144.1563,58.6563 144.125,58.2344 Q143.9531,56.7969 143.2344,55.9844 Q142.375,55.0156 140.8125,55.0156 Z "/><text fill="#000000" font-family="sans-serif" font-size="12" lengthAdjust="spacingAndGlyphs" textLength="43" x="161.75" y="67.1045">getSig()</text><line style="stroke: #A80036; stroke-width: 1.5;" x1="33" x2="301" y1="77.5" y2="77.5"/><line style="stroke: #A80036; stroke-width: 1.5;" x1="33" x2="147" y1="93.0544" y2="93.0544"/><text fill="#008000" font-family="sans-serif" font-size="11" font-weight="bold" lengthAdjust="spacingAndGlyphs" textLength="40" x="147" y="97.6919">has list</text><line style="stroke: #A80036; stroke-width: 1.5;" x1="187" x2="301" y1="93.0544" y2="93.0544"/><line style="stroke: #A80036; stroke-width: 1.0; stroke-dasharray: 1.0,2.0;" x1="33" x2="154" y1="115.7178" y2="115.7178"/><text fill="#000000" font-family="sans-serif" font-size="11" lengthAdjust="spacingAndGlyphs" textLength="26" x="154" y="120.3552">class</text><line style="stroke: #A80036; stroke-width: 1.0; stroke-dasharray: 1.0,2.0;" x1="180" x2="301" y1="115.7178" y2="115.7178"/><line style="stroke: #A80036; stroke-width: 1.0; stroke-dasharray: 1.0,2.0;" x1="33" x2="148" y1="138.3811" y2="138.3811"/><text fill="#000000" font-family="sans-serif" font-size="11" lengthAdjust="spacingAndGlyphs" textLength="38" x="148" y="143.0186">member</text><line style="stroke: #A80036; stroke-width: 1.0; stroke-dasharray: 1.0,2.0;" x1="186" x2="301" y1="138.3811" y2="138.3811"/><line style="stroke: #A80036; stroke-width: 1.0; stroke-dasharray: 1.0,2.0;" x1="33" x2="149.5" y1="161.0444" y2="161.0444"/><text fill="#000000" font-family="sans-serif" font-size="11" lengthAdjust="spacingAndGlyphs" textLength="35" x="149.5" y="165.6819">method</text><line style="stroke: #A80036; stroke-width: 1.0; stroke-dasharray: 1.0,2.0;" x1="184.5" x2="301" y1="161.0444" y2="161.0444"/><line style="stroke: #A80036; stroke-width: 1.5;" x1="33" x2="139.5" y1="183.7078" y2="183.7078"/><text fill="#0000FF" font-family="sans-serif" font-size="11" font-weight="bold" lengthAdjust="spacingAndGlyphs" textLength="55" x="139.5" y="188.3452">calling list</text><line style="stroke: #A80036; stroke-width: 1.5;" x1="194.5" x2="301" y1="183.7078" y2="183.7078"/><line style="stroke: #A80036; stroke-width: 1.0; stroke-dasharray: 1.0,2.0;" x1="33" x2="154" y1="206.3711" y2="206.3711"/><text fill="#000000" font-family="sans-serif" font-size="11" lengthAdjust="spacingAndGlyphs" textLength="26" x="154" y="211.0085">class</text><line style="stroke: #A80036; stroke-width: 1.0; stroke-dasharray: 1.0,2.0;" x1="180" x2="301" y1="206.3711" y2="206.3711"/><line style="stroke: #A80036; stroke-width: 1.0; stroke-dasharray: 1.0,2.0;" x1="33" x2="148" y1="229.0344" y2="229.0344"/><text fill="#000000" font-family="sans-serif" font-size="11" lengthAdjust="spacingAndGlyphs" textLength="38" x="148" y="233.6719">member</text><line style="stroke: #A80036; stroke-width: 1.0; stroke-dasharray: 1.0,2.0;" x1="186" x2="301" y1="229.0344" y2="229.0344"/><line style="stroke: #A80036; stroke-width: 1.0; stroke-dasharray: 1.0,2.0;" x1="33" x2="149.5" y1="251.6978" y2="251.6978"/><text fill="#000000" font-family="sans-serif" font-size="11" lengthAdjust="spacingAndGlyphs" textLength="35" x="149.5" y="256.3352">method</text><line style="stroke: #A80036; stroke-width: 1.0; stroke-dasharray: 1.0,2.0;" x1="184.5" x2="301" y1="251.6978" y2="251.6978"/><line style="stroke: #A80036; stroke-width: 1.5;" x1="33" x2="133" y1="274.3611" y2="274.3611"/><text fill="#FFA500" font-family="sans-serif" font-size="11" font-weight="bold" lengthAdjust="spacingAndGlyphs" textLength="68" x="133" y="278.9985">called by list</text><line style="stroke: #A80036; stroke-width: 1.5;" x1="201" x2="301" y1="274.3611" y2="274.3611"/><text fill="#000000" font-family="sans-serif" font-size="11" lengthAdjust="spacingAndGlyphs" textLength="126" x="38" y="317.2708">Data_base (1111613684);</text><line style="stroke: #A80036; stroke-width: 1.0; stroke-dasharray: 1.0,2.0;" x1="33" x2="154" y1="297.0244" y2="297.0244"/><text fill="#000000" font-family="sans-serif" font-size="11" lengthAdjust="spacingAndGlyphs" textLength="26" x="154" y="301.6619">class</text><line style="stroke: #A80036; stroke-width: 1.0; stroke-dasharray: 1.0,2.0;" x1="180" x2="301" y1="297.0244" y2="297.0244"/><line style="stroke: #A80036; stroke-width: 1.0; stroke-dasharray: 1.0,2.0;" x1="33" x2="148" y1="331.2422" y2="331.2422"/><text fill="#000000" font-family="sans-serif" font-size="11" lengthAdjust="spacingAndGlyphs" textLength="38" x="148" y="335.8796">member</text><line style="stroke: #A80036; stroke-width: 1.0; stroke-dasharray: 1.0,2.0;" x1="186" x2="301" y1="331.2422" y2="331.2422"/><text fill="#000000" font-family="sans-serif" font-size="11" lengthAdjust="spacingAndGlyphs" textLength="258" x="38" y="374.1519">void addHasFunction(dataSet.Function) (149225732);</text><line style="stroke: #A80036; stroke-width: 1.0; stroke-dasharray: 1.0,2.0;" x1="33" x2="149.5" y1="353.9055" y2="353.9055"/><text fill="#000000" font-family="sans-serif" font-size="11" lengthAdjust="spacingAndGlyphs" textLength="35" x="149.5" y="358.543">method</text><line style="stroke: #A80036; stroke-width: 1.0; stroke-dasharray: 1.0,2.0;" x1="184.5" x2="301" y1="353.9055" y2="353.9055"/><!--MD5=[4dc25466ccc18c4594c8e1572d505e70]
@startuml
class dataSet.Function.getSig(){
__**<color:green>has list</color>**__
..class..
..member..
..method..
__**<color:blue>calling list</color>**__
..class..
..member..
..method..
__**<color:orange>called by list</color>**__
..class..
	Data_base (1111613684);
..member..
..method..
	void addHasFunction(dataSet.Function) (149225732);
}

@enduml

PlantUML version 1.2020.19(Tue Oct 13 00:10:01 KST 2020)
(APACHE source distribution)
Java Runtime: Java(TM) SE Runtime Environment
JVM: Java HotSpot(TM) 64-Bit Server VM
Default Encoding: MS949
Language: ko
Country: KR
--></g></svg>