<?xml version="1.0" encoding="UTF-8" standalone="no"?><svg xmlns="http://www.w3.org/2000/svg" xmlns:xlink="http://www.w3.org/1999/xlink" contentScriptType="application/ecmascript" contentStyleType="text/css" height="434px" preserveAspectRatio="none" style="width:379px;height:434px;" version="1.1" viewBox="0 0 379 434" width="379px" zoomAndPan="magnify"><defs><filter height="300%" id="f7nhboxfdmtza" width="300%" x="-1" y="-1"><feGaussianBlur result="blurOut" stdDeviation="2.0"/><feColorMatrix in="blurOut" result="blurOut2" type="matrix" values="0 0 0 0 0 0 0 0 0 0 0 0 0 0 0 0 0 0 .4 0"/><feOffset dx="4.0" dy="4.0" in="blurOut2" result="blurOut3"/><feBlend in="SourceGraphic" in2="blurOut3" mode="normal"/></filter></defs><g><!--MD5=[ae1c114076ab3c7d0d16779bc5369945]
cluster dataSet.Class--><polygon fill="#FFFFFF" filter="url(#f7nhboxfdmtza)" points="16,6,117,6,124,31.2295,362,31.2295,362,427,16,427,16,6" style="stroke: #000000; stroke-width: 1.5;"/><line style="stroke: #000000; stroke-width: 1.5;" x1="16" x2="124" y1="31.2295" y2="31.2295"/><text fill="#000000" font-family="sans-serif" font-size="14" font-weight="bold" lengthAdjust="spacingAndGlyphs" textLength="95" x="20" y="24.1533">dataSet.Class</text><!--MD5=[bcdfdb2e4326dd9a5fca957daa804b03]
class dataSet.Class.getSrcName()--><rect codeLine="1" fill="#FEFECE" filter="url(#f7nhboxfdmtza)" height="365.2866" id="dataSet.Class.getSrcName()" style="stroke: #A80036; stroke-width: 1.5;" width="314" x="32" y="45.5"/><ellipse cx="146.25" cy="61.5" fill="#ADD1B2" rx="11" ry="11" style="stroke: #A80036; stroke-width: 1.0;"/><path d="M145.8125,55.0156 Q143.0781,55.0156 142,56.6406 Q140.8594,58.3594 140.8594,61.2813 Q140.8594,64.5781 142.0156,66.2813 Q143,67.7813 145.6094,67.7813 Q147.1875,67.7813 148.0625,66.9531 Q149.0469,66 149.1875,63.875 Q149.1875,63.5781 149.0156,63.4063 Q148.8906,63.25 148.6719,63.2344 Q147.4531,63.2344 147.2969,63.3594 Q147.125,63.5156 147.125,63.7813 Q147.0938,65.2656 146.4375,66.0781 Q145.8281,66.875 145.75,66.875 Q144.4219,66.875 143.6406,65.2813 Q142.8906,63.7344 142.8906,61.25 Q142.8906,58.625 143.8281,57.1719 Q144.6563,55.9219 145.9375,55.9219 Q145.9375,55.9219 146.2813,56.5469 Q146.9063,57.2188 147.0469,58.375 Q147.1563,58.9531 148.625,58.7344 Q149.1563,58.6563 149.125,58.2344 Q148.9531,56.7969 148.2344,55.9844 Q147.375,55.0156 145.8125,55.0156 Z "/><text fill="#000000" font-family="sans-serif" font-size="12" lengthAdjust="spacingAndGlyphs" textLength="77" x="166.75" y="67.1045">getSrcName()</text><line style="stroke: #A80036; stroke-width: 1.5;" x1="33" x2="345" y1="77.5" y2="77.5"/><line style="stroke: #A80036; stroke-width: 1.5;" x1="33" x2="169" y1="93.0544" y2="93.0544"/><text fill="#008000" font-family="sans-serif" font-size="11" font-weight="bold" lengthAdjust="spacingAndGlyphs" textLength="40" x="169" y="97.6919">has list</text><line style="stroke: #A80036; stroke-width: 1.5;" x1="209" x2="345" y1="93.0544" y2="93.0544"/><line style="stroke: #A80036; stroke-width: 1.0; stroke-dasharray: 1.0,2.0;" x1="33" x2="176" y1="115.7178" y2="115.7178"/><text fill="#000000" font-family="sans-serif" font-size="11" lengthAdjust="spacingAndGlyphs" textLength="26" x="176" y="120.3552">class</text><line style="stroke: #A80036; stroke-width: 1.0; stroke-dasharray: 1.0,2.0;" x1="202" x2="345" y1="115.7178" y2="115.7178"/><line style="stroke: #A80036; stroke-width: 1.0; stroke-dasharray: 1.0,2.0;" x1="33" x2="170" y1="138.3811" y2="138.3811"/><text fill="#000000" font-family="sans-serif" font-size="11" lengthAdjust="spacingAndGlyphs" textLength="38" x="170" y="143.0186">member</text><line style="stroke: #A80036; stroke-width: 1.0; stroke-dasharray: 1.0,2.0;" x1="208" x2="345" y1="138.3811" y2="138.3811"/><line style="stroke: #A80036; stroke-width: 1.0; stroke-dasharray: 1.0,2.0;" x1="33" x2="171.5" y1="161.0444" y2="161.0444"/><text fill="#000000" font-family="sans-serif" font-size="11" lengthAdjust="spacingAndGlyphs" textLength="35" x="171.5" y="165.6819">method</text><line style="stroke: #A80036; stroke-width: 1.0; stroke-dasharray: 1.0,2.0;" x1="206.5" x2="345" y1="161.0444" y2="161.0444"/><line style="stroke: #A80036; stroke-width: 1.5;" x1="33" x2="161.5" y1="183.7078" y2="183.7078"/><text fill="#0000FF" font-family="sans-serif" font-size="11" font-weight="bold" lengthAdjust="spacingAndGlyphs" textLength="55" x="161.5" y="188.3452">calling list</text><line style="stroke: #A80036; stroke-width: 1.5;" x1="216.5" x2="345" y1="183.7078" y2="183.7078"/><line style="stroke: #A80036; stroke-width: 1.0; stroke-dasharray: 1.0,2.0;" x1="33" x2="176" y1="206.3711" y2="206.3711"/><text fill="#000000" font-family="sans-serif" font-size="11" lengthAdjust="spacingAndGlyphs" textLength="26" x="176" y="211.0085">class</text><line style="stroke: #A80036; stroke-width: 1.0; stroke-dasharray: 1.0,2.0;" x1="202" x2="345" y1="206.3711" y2="206.3711"/><line style="stroke: #A80036; stroke-width: 1.0; stroke-dasharray: 1.0,2.0;" x1="33" x2="170" y1="229.0344" y2="229.0344"/><text fill="#000000" font-family="sans-serif" font-size="11" lengthAdjust="spacingAndGlyphs" textLength="38" x="170" y="233.6719">member</text><line style="stroke: #A80036; stroke-width: 1.0; stroke-dasharray: 1.0,2.0;" x1="208" x2="345" y1="229.0344" y2="229.0344"/><line style="stroke: #A80036; stroke-width: 1.0; stroke-dasharray: 1.0,2.0;" x1="33" x2="171.5" y1="251.6978" y2="251.6978"/><text fill="#000000" font-family="sans-serif" font-size="11" lengthAdjust="spacingAndGlyphs" textLength="35" x="171.5" y="256.3352">method</text><line style="stroke: #A80036; stroke-width: 1.0; stroke-dasharray: 1.0,2.0;" x1="206.5" x2="345" y1="251.6978" y2="251.6978"/><line style="stroke: #A80036; stroke-width: 1.5;" x1="33" x2="155" y1="274.3611" y2="274.3611"/><text fill="#FFA500" font-family="sans-serif" font-size="11" font-weight="bold" lengthAdjust="spacingAndGlyphs" textLength="68" x="155" y="278.9985">called by list</text><line style="stroke: #A80036; stroke-width: 1.5;" x1="223" x2="345" y1="274.3611" y2="274.3611"/><text fill="#000000" font-family="sans-serif" font-size="11" lengthAdjust="spacingAndGlyphs" textLength="112" x="38" y="317.2708">Member (1154821602);</text><text fill="#000000" font-family="sans-serif" font-size="11" lengthAdjust="spacingAndGlyphs" textLength="107" x="38" y="332.3796">DataList (225909961);</text><line style="stroke: #A80036; stroke-width: 1.0; stroke-dasharray: 1.0,2.0;" x1="33" x2="176" y1="297.0244" y2="297.0244"/><text fill="#000000" font-family="sans-serif" font-size="11" lengthAdjust="spacingAndGlyphs" textLength="26" x="176" y="301.6619">class</text><line style="stroke: #A80036; stroke-width: 1.0; stroke-dasharray: 1.0,2.0;" x1="202" x2="345" y1="297.0244" y2="297.0244"/><line style="stroke: #A80036; stroke-width: 1.0; stroke-dasharray: 1.0,2.0;" x1="33" x2="170" y1="346.3511" y2="346.3511"/><text fill="#000000" font-family="sans-serif" font-size="11" lengthAdjust="spacingAndGlyphs" textLength="38" x="170" y="350.9885">member</text><line style="stroke: #A80036; stroke-width: 1.0; stroke-dasharray: 1.0,2.0;" x1="208" x2="345" y1="346.3511" y2="346.3511"/><text fill="#000000" font-family="sans-serif" font-size="11" lengthAdjust="spacingAndGlyphs" textLength="302" x="38" y="389.2607">Member Member(java.lang.String, dataSet.Class) (507819576);</text><text fill="#000000" font-family="sans-serif" font-size="11" lengthAdjust="spacingAndGlyphs" textLength="211" x="38" y="404.3696">void addClass(dataSet.Class) (917768476);</text><line style="stroke: #A80036; stroke-width: 1.0; stroke-dasharray: 1.0,2.0;" x1="33" x2="171.5" y1="369.0144" y2="369.0144"/><text fill="#000000" font-family="sans-serif" font-size="11" lengthAdjust="spacingAndGlyphs" textLength="35" x="171.5" y="373.6519">method</text><line style="stroke: #A80036; stroke-width: 1.0; stroke-dasharray: 1.0,2.0;" x1="206.5" x2="345" y1="369.0144" y2="369.0144"/><!--MD5=[f154549ee50eda0444826a4291525757]
@startuml
class dataSet.Class.getSrcName(){
__**<color:green>has list</color>**__
..class..
..member..
..method..
__**<color:blue>calling list</color>**__
..class..
..member..
..method..
__**<color:orange>called by list</color>**__
..class..
	Member (1154821602);
	DataList (225909961);
..member..
..method..
	Member Member(java.lang.String, dataSet.Class) (507819576);
	void addClass(dataSet.Class) (917768476);
}

@enduml

PlantUML version 1.2020.19(Tue Oct 13 00:10:01 KST 2020)
(APACHE source distribution)
Java Runtime: Java(TM) SE Runtime Environment
JVM: Java HotSpot(TM) 64-Bit Server VM
Default Encoding: MS949
Language: ko
Country: KR
--></g></svg>