<?xml version="1.0" encoding="UTF-8" standalone="no"?><svg xmlns="http://www.w3.org/2000/svg" xmlns:xlink="http://www.w3.org/1999/xlink" contentScriptType="application/ecmascript" contentStyleType="text/css" height="404px" preserveAspectRatio="none" style="width:227px;height:404px;" version="1.1" viewBox="0 0 227 404" width="227px" zoomAndPan="magnify"><defs><filter height="300%" id="fdsqg83adoss4" width="300%" x="-1" y="-1"><feGaussianBlur result="blurOut" stdDeviation="2.0"/><feColorMatrix in="blurOut" result="blurOut2" type="matrix" values="0 0 0 0 0 0 0 0 0 0 0 0 0 0 0 0 0 0 .4 0"/><feOffset dx="4.0" dy="4.0" in="blurOut2" result="blurOut3"/><feBlend in="SourceGraphic" in2="blurOut3" mode="normal"/></filter></defs><g><!--MD5=[c4fd2dc20ceb3d4779ff614001bcf0b4]
cluster dataSet.Data_base--><polygon fill="#FFFFFF" filter="url(#fdsqg83adoss4)" points="16,6,152,6,159,31.2295,210,31.2295,210,397,16,397,16,6" style="stroke: #000000; stroke-width: 1.5;"/><line style="stroke: #000000; stroke-width: 1.5;" x1="16" x2="159" y1="31.2295" y2="31.2295"/><text fill="#000000" font-family="sans-serif" font-size="14" font-weight="bold" lengthAdjust="spacingAndGlyphs" textLength="130" x="20" y="24.1533">dataSet.Data_base</text><!--MD5=[f97c62a9b9372ef3c65b57207cd05b6f]
class dataSet.Data_base.setStatic(boolean)--><rect codeLine="1" fill="#FEFECE" filter="url(#fdsqg83adoss4)" height="335.0688" id="dataSet.Data_base.setStatic(boolean)" style="stroke: #A80036; stroke-width: 1.5;" width="162" x="32" y="45.5"/><ellipse cx="60.5" cy="61.5" fill="#ADD1B2" rx="11" ry="11" style="stroke: #A80036; stroke-width: 1.0;"/><path d="M60.0625,55.0156 Q57.3281,55.0156 56.25,56.6406 Q55.1094,58.3594 55.1094,61.2813 Q55.1094,64.5781 56.2656,66.2813 Q57.25,67.7813 59.8594,67.7813 Q61.4375,67.7813 62.3125,66.9531 Q63.2969,66 63.4375,63.875 Q63.4375,63.5781 63.2656,63.4063 Q63.1406,63.25 62.9219,63.2344 Q61.7031,63.2344 61.5469,63.3594 Q61.375,63.5156 61.375,63.7813 Q61.3438,65.2656 60.6875,66.0781 Q60.0781,66.875 60,66.875 Q58.6719,66.875 57.8906,65.2813 Q57.1406,63.7344 57.1406,61.25 Q57.1406,58.625 58.0781,57.1719 Q58.9063,55.9219 60.1875,55.9219 Q60.1875,55.9219 60.5313,56.5469 Q61.1563,57.2188 61.2969,58.375 Q61.4063,58.9531 62.875,58.7344 Q63.4063,58.6563 63.375,58.2344 Q63.2031,56.7969 62.4844,55.9844 Q61.625,55.0156 60.0625,55.0156 Z "/><text fill="#000000" font-family="sans-serif" font-size="12" lengthAdjust="spacingAndGlyphs" textLength="100" x="77.5" y="67.1045">setStatic(boolean)</text><line style="stroke: #A80036; stroke-width: 1.5;" x1="33" x2="193" y1="77.5" y2="77.5"/><line style="stroke: #A80036; stroke-width: 1.5;" x1="33" x2="93" y1="93.0544" y2="93.0544"/><text fill="#008000" font-family="sans-serif" font-size="11" font-weight="bold" lengthAdjust="spacingAndGlyphs" textLength="40" x="93" y="97.6919">has list</text><line style="stroke: #A80036; stroke-width: 1.5;" x1="133" x2="193" y1="93.0544" y2="93.0544"/><line style="stroke: #A80036; stroke-width: 1.0; stroke-dasharray: 1.0,2.0;" x1="33" x2="100" y1="115.7178" y2="115.7178"/><text fill="#000000" font-family="sans-serif" font-size="11" lengthAdjust="spacingAndGlyphs" textLength="26" x="100" y="120.3552">class</text><line style="stroke: #A80036; stroke-width: 1.0; stroke-dasharray: 1.0,2.0;" x1="126" x2="193" y1="115.7178" y2="115.7178"/><text fill="#000000" font-family="sans-serif" font-size="11" lengthAdjust="spacingAndGlyphs" textLength="150" x="38" y="158.6274">boolean isStatic (1075803699);</text><line style="stroke: #A80036; stroke-width: 1.0; stroke-dasharray: 1.0,2.0;" x1="33" x2="94" y1="138.3811" y2="138.3811"/><text fill="#000000" font-family="sans-serif" font-size="11" lengthAdjust="spacingAndGlyphs" textLength="38" x="94" y="143.0186">member</text><line style="stroke: #A80036; stroke-width: 1.0; stroke-dasharray: 1.0,2.0;" x1="132" x2="193" y1="138.3811" y2="138.3811"/><line style="stroke: #A80036; stroke-width: 1.0; stroke-dasharray: 1.0,2.0;" x1="33" x2="95.5" y1="172.5989" y2="172.5989"/><text fill="#000000" font-family="sans-serif" font-size="11" lengthAdjust="spacingAndGlyphs" textLength="35" x="95.5" y="177.2363">method</text><line style="stroke: #A80036; stroke-width: 1.0; stroke-dasharray: 1.0,2.0;" x1="130.5" x2="193" y1="172.5989" y2="172.5989"/><line style="stroke: #A80036; stroke-width: 1.5;" x1="33" x2="85.5" y1="195.2622" y2="195.2622"/><text fill="#0000FF" font-family="sans-serif" font-size="11" font-weight="bold" lengthAdjust="spacingAndGlyphs" textLength="55" x="85.5" y="199.8997">calling list</text><line style="stroke: #A80036; stroke-width: 1.5;" x1="140.5" x2="193" y1="195.2622" y2="195.2622"/><line style="stroke: #A80036; stroke-width: 1.0; stroke-dasharray: 1.0,2.0;" x1="33" x2="100" y1="217.9255" y2="217.9255"/><text fill="#000000" font-family="sans-serif" font-size="11" lengthAdjust="spacingAndGlyphs" textLength="26" x="100" y="222.563">class</text><line style="stroke: #A80036; stroke-width: 1.0; stroke-dasharray: 1.0,2.0;" x1="126" x2="193" y1="217.9255" y2="217.9255"/><text fill="#000000" font-family="sans-serif" font-size="11" lengthAdjust="spacingAndGlyphs" textLength="144" x="38" y="260.8352">boolean isStatic (447767121);</text><line style="stroke: #A80036; stroke-width: 1.0; stroke-dasharray: 1.0,2.0;" x1="33" x2="94" y1="240.5889" y2="240.5889"/><text fill="#000000" font-family="sans-serif" font-size="11" lengthAdjust="spacingAndGlyphs" textLength="38" x="94" y="245.2263">member</text><line style="stroke: #A80036; stroke-width: 1.0; stroke-dasharray: 1.0,2.0;" x1="132" x2="193" y1="240.5889" y2="240.5889"/><line style="stroke: #A80036; stroke-width: 1.0; stroke-dasharray: 1.0,2.0;" x1="33" x2="95.5" y1="274.8066" y2="274.8066"/><text fill="#000000" font-family="sans-serif" font-size="11" lengthAdjust="spacingAndGlyphs" textLength="35" x="95.5" y="279.4441">method</text><line style="stroke: #A80036; stroke-width: 1.0; stroke-dasharray: 1.0,2.0;" x1="130.5" x2="193" y1="274.8066" y2="274.8066"/><line style="stroke: #A80036; stroke-width: 1.5;" x1="33" x2="79" y1="297.47" y2="297.47"/><text fill="#FFA500" font-family="sans-serif" font-size="11" font-weight="bold" lengthAdjust="spacingAndGlyphs" textLength="68" x="79" y="302.1074">called by list</text><line style="stroke: #A80036; stroke-width: 1.5;" x1="147" x2="193" y1="297.47" y2="297.47"/><line style="stroke: #A80036; stroke-width: 1.0; stroke-dasharray: 1.0,2.0;" x1="33" x2="100" y1="320.1333" y2="320.1333"/><text fill="#000000" font-family="sans-serif" font-size="11" lengthAdjust="spacingAndGlyphs" textLength="26" x="100" y="324.7708">class</text><line style="stroke: #A80036; stroke-width: 1.0; stroke-dasharray: 1.0,2.0;" x1="126" x2="193" y1="320.1333" y2="320.1333"/><line style="stroke: #A80036; stroke-width: 1.0; stroke-dasharray: 1.0,2.0;" x1="33" x2="94" y1="342.7966" y2="342.7966"/><text fill="#000000" font-family="sans-serif" font-size="11" lengthAdjust="spacingAndGlyphs" textLength="38" x="94" y="347.4341">member</text><line style="stroke: #A80036; stroke-width: 1.0; stroke-dasharray: 1.0,2.0;" x1="132" x2="193" y1="342.7966" y2="342.7966"/><line style="stroke: #A80036; stroke-width: 1.0; stroke-dasharray: 1.0,2.0;" x1="33" x2="95.5" y1="365.46" y2="365.46"/><text fill="#000000" font-family="sans-serif" font-size="11" lengthAdjust="spacingAndGlyphs" textLength="35" x="95.5" y="370.0974">method</text><line style="stroke: #A80036; stroke-width: 1.0; stroke-dasharray: 1.0,2.0;" x1="130.5" x2="193" y1="365.46" y2="365.46"/><!--MD5=[cf5a48d57b6983501a1b41798b9f3f3e]
@startuml
class dataSet.Data_base.setStatic(boolean){
__**<color:green>has list</color>**__
..class..
..member..
	boolean isStatic (1075803699);
..method..
__**<color:blue>calling list</color>**__
..class..
..member..
	boolean isStatic (447767121);
..method..
__**<color:orange>called by list</color>**__
..class..
..member..
..method..
}

@enduml

PlantUML version 1.2020.19(Tue Oct 13 00:10:01 KST 2020)
(APACHE source distribution)
Java Runtime: Java(TM) SE Runtime Environment
JVM: Java HotSpot(TM) 64-Bit Server VM
Default Encoding: MS949
Language: ko
Country: KR
--></g></svg>