<?xml version="1.0" encoding="UTF-8" standalone="no"?><svg xmlns="http://www.w3.org/2000/svg" xmlns:xlink="http://www.w3.org/1999/xlink" contentScriptType="application/ecmascript" contentStyleType="text/css" height="404px" preserveAspectRatio="none" style="width:340px;height:404px;" version="1.1" viewBox="0 0 340 404" width="340px" zoomAndPan="magnify"><defs><filter height="300%" id="f1ekxkg7qr7phs" width="300%" x="-1" y="-1"><feGaussianBlur result="blurOut" stdDeviation="2.0"/><feColorMatrix in="blurOut" result="blurOut2" type="matrix" values="0 0 0 0 0 0 0 0 0 0 0 0 0 0 0 0 0 0 .4 0"/><feOffset dx="4.0" dy="4.0" in="blurOut2" result="blurOut3"/><feBlend in="SourceGraphic" in2="blurOut3" mode="normal"/></filter></defs><g><!--MD5=[cbe0e9d118ab763fc4fd63f7de6a14e8]
cluster dataSet.Class.setImplementClass(dataSet--><polygon fill="#FFFFFF" filter="url(#f1ekxkg7qr7phs)" points="16,6,312,6,319,31.2295,323,31.2295,323,397,16,397,16,6" style="stroke: #000000; stroke-width: 1.5;"/><line style="stroke: #000000; stroke-width: 1.5;" x1="16" x2="319" y1="31.2295" y2="31.2295"/><text fill="#000000" font-family="sans-serif" font-size="14" font-weight="bold" lengthAdjust="spacingAndGlyphs" textLength="290" x="20" y="24.1533">dataSet.Class.setImplementClass(dataSet</text><!--MD5=[779b2aed3be5a8038a26a093dc35dea7]
class dataSet.Class.setImplementClass(dataSet.Class[])--><rect codeLine="1" fill="#FEFECE" filter="url(#f1ekxkg7qr7phs)" height="335.0688" id="dataSet.Class.setImplementClass(dataSet.Class[])" style="stroke: #A80036; stroke-width: 1.5;" width="230" x="54" y="45.5"/><ellipse cx="143.25" cy="61.5" fill="#ADD1B2" rx="11" ry="11" style="stroke: #A80036; stroke-width: 1.0;"/><path d="M142.8125,55.0156 Q140.0781,55.0156 139,56.6406 Q137.8594,58.3594 137.8594,61.2813 Q137.8594,64.5781 139.0156,66.2813 Q140,67.7813 142.6094,67.7813 Q144.1875,67.7813 145.0625,66.9531 Q146.0469,66 146.1875,63.875 Q146.1875,63.5781 146.0156,63.4063 Q145.8906,63.25 145.6719,63.2344 Q144.4531,63.2344 144.2969,63.3594 Q144.125,63.5156 144.125,63.7813 Q144.0938,65.2656 143.4375,66.0781 Q142.8281,66.875 142.75,66.875 Q141.4219,66.875 140.6406,65.2813 Q139.8906,63.7344 139.8906,61.25 Q139.8906,58.625 140.8281,57.1719 Q141.6563,55.9219 142.9375,55.9219 Q142.9375,55.9219 143.2813,56.5469 Q143.9063,57.2188 144.0469,58.375 Q144.1563,58.9531 145.625,58.7344 Q146.1563,58.6563 146.125,58.2344 Q145.9531,56.7969 145.2344,55.9844 Q144.375,55.0156 142.8125,55.0156 Z "/><text fill="#000000" font-family="sans-serif" font-size="12" lengthAdjust="spacingAndGlyphs" textLength="43" x="163.75" y="67.1045">Class[])</text><line style="stroke: #A80036; stroke-width: 1.5;" x1="55" x2="283" y1="77.5" y2="77.5"/><line style="stroke: #A80036; stroke-width: 1.5;" x1="55" x2="149" y1="93.0544" y2="93.0544"/><text fill="#008000" font-family="sans-serif" font-size="11" font-weight="bold" lengthAdjust="spacingAndGlyphs" textLength="40" x="149" y="97.6919">has list</text><line style="stroke: #A80036; stroke-width: 1.5;" x1="189" x2="283" y1="93.0544" y2="93.0544"/><line style="stroke: #A80036; stroke-width: 1.0; stroke-dasharray: 1.0,2.0;" x1="55" x2="156" y1="115.7178" y2="115.7178"/><text fill="#000000" font-family="sans-serif" font-size="11" lengthAdjust="spacingAndGlyphs" textLength="26" x="156" y="120.3552">class</text><line style="stroke: #A80036; stroke-width: 1.0; stroke-dasharray: 1.0,2.0;" x1="182" x2="283" y1="115.7178" y2="115.7178"/><text fill="#000000" font-family="sans-serif" font-size="11" lengthAdjust="spacingAndGlyphs" textLength="178" x="60" y="158.6274">Class[] implementClass (664186542);</text><line style="stroke: #A80036; stroke-width: 1.0; stroke-dasharray: 1.0,2.0;" x1="55" x2="150" y1="138.3811" y2="138.3811"/><text fill="#000000" font-family="sans-serif" font-size="11" lengthAdjust="spacingAndGlyphs" textLength="38" x="150" y="143.0186">member</text><line style="stroke: #A80036; stroke-width: 1.0; stroke-dasharray: 1.0,2.0;" x1="188" x2="283" y1="138.3811" y2="138.3811"/><line style="stroke: #A80036; stroke-width: 1.0; stroke-dasharray: 1.0,2.0;" x1="55" x2="151.5" y1="172.5989" y2="172.5989"/><text fill="#000000" font-family="sans-serif" font-size="11" lengthAdjust="spacingAndGlyphs" textLength="35" x="151.5" y="177.2363">method</text><line style="stroke: #A80036; stroke-width: 1.0; stroke-dasharray: 1.0,2.0;" x1="186.5" x2="283" y1="172.5989" y2="172.5989"/><line style="stroke: #A80036; stroke-width: 1.5;" x1="55" x2="141.5" y1="195.2622" y2="195.2622"/><text fill="#0000FF" font-family="sans-serif" font-size="11" font-weight="bold" lengthAdjust="spacingAndGlyphs" textLength="55" x="141.5" y="199.8997">calling list</text><line style="stroke: #A80036; stroke-width: 1.5;" x1="196.5" x2="283" y1="195.2622" y2="195.2622"/><line style="stroke: #A80036; stroke-width: 1.0; stroke-dasharray: 1.0,2.0;" x1="55" x2="156" y1="217.9255" y2="217.9255"/><text fill="#000000" font-family="sans-serif" font-size="11" lengthAdjust="spacingAndGlyphs" textLength="26" x="156" y="222.563">class</text><line style="stroke: #A80036; stroke-width: 1.0; stroke-dasharray: 1.0,2.0;" x1="182" x2="283" y1="217.9255" y2="217.9255"/><text fill="#000000" font-family="sans-serif" font-size="11" lengthAdjust="spacingAndGlyphs" textLength="218" x="60" y="260.8352">dataSet.Class[] implementClass (916835004);</text><line style="stroke: #A80036; stroke-width: 1.0; stroke-dasharray: 1.0,2.0;" x1="55" x2="150" y1="240.5889" y2="240.5889"/><text fill="#000000" font-family="sans-serif" font-size="11" lengthAdjust="spacingAndGlyphs" textLength="38" x="150" y="245.2263">member</text><line style="stroke: #A80036; stroke-width: 1.0; stroke-dasharray: 1.0,2.0;" x1="188" x2="283" y1="240.5889" y2="240.5889"/><line style="stroke: #A80036; stroke-width: 1.0; stroke-dasharray: 1.0,2.0;" x1="55" x2="151.5" y1="274.8066" y2="274.8066"/><text fill="#000000" font-family="sans-serif" font-size="11" lengthAdjust="spacingAndGlyphs" textLength="35" x="151.5" y="279.4441">method</text><line style="stroke: #A80036; stroke-width: 1.0; stroke-dasharray: 1.0,2.0;" x1="186.5" x2="283" y1="274.8066" y2="274.8066"/><line style="stroke: #A80036; stroke-width: 1.5;" x1="55" x2="135" y1="297.47" y2="297.47"/><text fill="#FFA500" font-family="sans-serif" font-size="11" font-weight="bold" lengthAdjust="spacingAndGlyphs" textLength="68" x="135" y="302.1074">called by list</text><line style="stroke: #A80036; stroke-width: 1.5;" x1="203" x2="283" y1="297.47" y2="297.47"/><line style="stroke: #A80036; stroke-width: 1.0; stroke-dasharray: 1.0,2.0;" x1="55" x2="156" y1="320.1333" y2="320.1333"/><text fill="#000000" font-family="sans-serif" font-size="11" lengthAdjust="spacingAndGlyphs" textLength="26" x="156" y="324.7708">class</text><line style="stroke: #A80036; stroke-width: 1.0; stroke-dasharray: 1.0,2.0;" x1="182" x2="283" y1="320.1333" y2="320.1333"/><line style="stroke: #A80036; stroke-width: 1.0; stroke-dasharray: 1.0,2.0;" x1="55" x2="150" y1="342.7966" y2="342.7966"/><text fill="#000000" font-family="sans-serif" font-size="11" lengthAdjust="spacingAndGlyphs" textLength="38" x="150" y="347.4341">member</text><line style="stroke: #A80036; stroke-width: 1.0; stroke-dasharray: 1.0,2.0;" x1="188" x2="283" y1="342.7966" y2="342.7966"/><line style="stroke: #A80036; stroke-width: 1.0; stroke-dasharray: 1.0,2.0;" x1="55" x2="151.5" y1="365.46" y2="365.46"/><text fill="#000000" font-family="sans-serif" font-size="11" lengthAdjust="spacingAndGlyphs" textLength="35" x="151.5" y="370.0974">method</text><line style="stroke: #A80036; stroke-width: 1.0; stroke-dasharray: 1.0,2.0;" x1="186.5" x2="283" y1="365.46" y2="365.46"/><!--MD5=[2e480e042ac85f32cc26d1cd0d9760b4]
@startuml
class dataSet.Class.setImplementClass(dataSet.Class[]){
__**<color:green>has list</color>**__
..class..
..member..
	Class[] implementClass (664186542);
..method..
__**<color:blue>calling list</color>**__
..class..
..member..
	dataSet.Class[] implementClass (916835004);
..method..
__**<color:orange>called by list</color>**__
..class..
..member..
..method..
}

@enduml

PlantUML version 1.2020.19(Tue Oct 13 00:10:01 KST 2020)
(APACHE source distribution)
Java Runtime: Java(TM) SE Runtime Environment
JVM: Java HotSpot(TM) 64-Bit Server VM
Default Encoding: MS949
Language: ko
Country: KR
--></g></svg>