<?xml version="1.0" encoding="UTF-8" standalone="no"?><svg xmlns="http://www.w3.org/2000/svg" xmlns:xlink="http://www.w3.org/1999/xlink" contentScriptType="application/ecmascript" contentStyleType="text/css" height="404px" preserveAspectRatio="none" style="width:295px;height:404px;" version="1.1" viewBox="0 0 295 404" width="295px" zoomAndPan="magnify"><defs><filter height="300%" id="f3xgqd1253m9o" width="300%" x="-1" y="-1"><feGaussianBlur result="blurOut" stdDeviation="2.0"/><feColorMatrix in="blurOut" result="blurOut2" type="matrix" values="0 0 0 0 0 0 0 0 0 0 0 0 0 0 0 0 0 0 .4 0"/><feOffset dx="4.0" dy="4.0" in="blurOut2" result="blurOut3"/><feBlend in="SourceGraphic" in2="blurOut3" mode="normal"/></filter></defs><g><!--MD5=[5d83cee93014569f3438003bedc2cd05]
cluster dataSet.Member.setOwner(dataSet--><polygon fill="#FFFFFF" filter="url(#f3xgqd1253m9o)" points="16,6,267,6,274,31.2295,278,31.2295,278,397,16,397,16,6" style="stroke: #000000; stroke-width: 1.5;"/><line style="stroke: #000000; stroke-width: 1.5;" x1="16" x2="274" y1="31.2295" y2="31.2295"/><text fill="#000000" font-family="sans-serif" font-size="14" font-weight="bold" lengthAdjust="spacingAndGlyphs" textLength="245" x="20" y="24.1533">dataSet.Member.setOwner(dataSet</text><!--MD5=[acc4a6539fd4f1d10ae609290f30196e]
class dataSet.Member.setOwner(dataSet.Data_base)--><rect codeLine="1" fill="#FEFECE" filter="url(#f3xgqd1253m9o)" height="335.0688" id="dataSet.Member.setOwner(dataSet.Data_base)" style="stroke: #A80036; stroke-width: 1.5;" width="213" x="41" y="45.5"/><ellipse cx="110.75" cy="61.5" fill="#ADD1B2" rx="11" ry="11" style="stroke: #A80036; stroke-width: 1.0;"/><path d="M110.3125,55.0156 Q107.5781,55.0156 106.5,56.6406 Q105.3594,58.3594 105.3594,61.2813 Q105.3594,64.5781 106.5156,66.2813 Q107.5,67.7813 110.1094,67.7813 Q111.6875,67.7813 112.5625,66.9531 Q113.5469,66 113.6875,63.875 Q113.6875,63.5781 113.5156,63.4063 Q113.3906,63.25 113.1719,63.2344 Q111.9531,63.2344 111.7969,63.3594 Q111.625,63.5156 111.625,63.7813 Q111.5938,65.2656 110.9375,66.0781 Q110.3281,66.875 110.25,66.875 Q108.9219,66.875 108.1406,65.2813 Q107.3906,63.7344 107.3906,61.25 Q107.3906,58.625 108.3281,57.1719 Q109.1563,55.9219 110.4375,55.9219 Q110.4375,55.9219 110.7813,56.5469 Q111.4063,57.2188 111.5469,58.375 Q111.6563,58.9531 113.125,58.7344 Q113.6563,58.6563 113.625,58.2344 Q113.4531,56.7969 112.7344,55.9844 Q111.875,55.0156 110.3125,55.0156 Z "/><text fill="#000000" font-family="sans-serif" font-size="12" lengthAdjust="spacingAndGlyphs" textLength="65" x="131.25" y="67.1045">Data_base)</text><line style="stroke: #A80036; stroke-width: 1.5;" x1="42" x2="253" y1="77.5" y2="77.5"/><line style="stroke: #A80036; stroke-width: 1.5;" x1="42" x2="127.5" y1="93.0544" y2="93.0544"/><text fill="#008000" font-family="sans-serif" font-size="11" font-weight="bold" lengthAdjust="spacingAndGlyphs" textLength="40" x="127.5" y="97.6919">has list</text><line style="stroke: #A80036; stroke-width: 1.5;" x1="167.5" x2="253" y1="93.0544" y2="93.0544"/><line style="stroke: #A80036; stroke-width: 1.0; stroke-dasharray: 1.0,2.0;" x1="42" x2="134.5" y1="115.7178" y2="115.7178"/><text fill="#000000" font-family="sans-serif" font-size="11" lengthAdjust="spacingAndGlyphs" textLength="26" x="134.5" y="120.3552">class</text><line style="stroke: #A80036; stroke-width: 1.0; stroke-dasharray: 1.0,2.0;" x1="160.5" x2="253" y1="115.7178" y2="115.7178"/><text fill="#000000" font-family="sans-serif" font-size="11" lengthAdjust="spacingAndGlyphs" textLength="161" x="47" y="158.6274">Data_base owner (1951963537);</text><line style="stroke: #A80036; stroke-width: 1.0; stroke-dasharray: 1.0,2.0;" x1="42" x2="128.5" y1="138.3811" y2="138.3811"/><text fill="#000000" font-family="sans-serif" font-size="11" lengthAdjust="spacingAndGlyphs" textLength="38" x="128.5" y="143.0186">member</text><line style="stroke: #A80036; stroke-width: 1.0; stroke-dasharray: 1.0,2.0;" x1="166.5" x2="253" y1="138.3811" y2="138.3811"/><line style="stroke: #A80036; stroke-width: 1.0; stroke-dasharray: 1.0,2.0;" x1="42" x2="130" y1="172.5989" y2="172.5989"/><text fill="#000000" font-family="sans-serif" font-size="11" lengthAdjust="spacingAndGlyphs" textLength="35" x="130" y="177.2363">method</text><line style="stroke: #A80036; stroke-width: 1.0; stroke-dasharray: 1.0,2.0;" x1="165" x2="253" y1="172.5989" y2="172.5989"/><line style="stroke: #A80036; stroke-width: 1.5;" x1="42" x2="120" y1="195.2622" y2="195.2622"/><text fill="#0000FF" font-family="sans-serif" font-size="11" font-weight="bold" lengthAdjust="spacingAndGlyphs" textLength="55" x="120" y="199.8997">calling list</text><line style="stroke: #A80036; stroke-width: 1.5;" x1="175" x2="253" y1="195.2622" y2="195.2622"/><line style="stroke: #A80036; stroke-width: 1.0; stroke-dasharray: 1.0,2.0;" x1="42" x2="134.5" y1="217.9255" y2="217.9255"/><text fill="#000000" font-family="sans-serif" font-size="11" lengthAdjust="spacingAndGlyphs" textLength="26" x="134.5" y="222.563">class</text><line style="stroke: #A80036; stroke-width: 1.0; stroke-dasharray: 1.0,2.0;" x1="160.5" x2="253" y1="217.9255" y2="217.9255"/><text fill="#000000" font-family="sans-serif" font-size="11" lengthAdjust="spacingAndGlyphs" textLength="201" x="47" y="260.8352">dataSet.Data_base owner (1237740254);</text><line style="stroke: #A80036; stroke-width: 1.0; stroke-dasharray: 1.0,2.0;" x1="42" x2="128.5" y1="240.5889" y2="240.5889"/><text fill="#000000" font-family="sans-serif" font-size="11" lengthAdjust="spacingAndGlyphs" textLength="38" x="128.5" y="245.2263">member</text><line style="stroke: #A80036; stroke-width: 1.0; stroke-dasharray: 1.0,2.0;" x1="166.5" x2="253" y1="240.5889" y2="240.5889"/><line style="stroke: #A80036; stroke-width: 1.0; stroke-dasharray: 1.0,2.0;" x1="42" x2="130" y1="274.8066" y2="274.8066"/><text fill="#000000" font-family="sans-serif" font-size="11" lengthAdjust="spacingAndGlyphs" textLength="35" x="130" y="279.4441">method</text><line style="stroke: #A80036; stroke-width: 1.0; stroke-dasharray: 1.0,2.0;" x1="165" x2="253" y1="274.8066" y2="274.8066"/><line style="stroke: #A80036; stroke-width: 1.5;" x1="42" x2="113.5" y1="297.47" y2="297.47"/><text fill="#FFA500" font-family="sans-serif" font-size="11" font-weight="bold" lengthAdjust="spacingAndGlyphs" textLength="68" x="113.5" y="302.1074">called by list</text><line style="stroke: #A80036; stroke-width: 1.5;" x1="181.5" x2="253" y1="297.47" y2="297.47"/><line style="stroke: #A80036; stroke-width: 1.0; stroke-dasharray: 1.0,2.0;" x1="42" x2="134.5" y1="320.1333" y2="320.1333"/><text fill="#000000" font-family="sans-serif" font-size="11" lengthAdjust="spacingAndGlyphs" textLength="26" x="134.5" y="324.7708">class</text><line style="stroke: #A80036; stroke-width: 1.0; stroke-dasharray: 1.0,2.0;" x1="160.5" x2="253" y1="320.1333" y2="320.1333"/><line style="stroke: #A80036; stroke-width: 1.0; stroke-dasharray: 1.0,2.0;" x1="42" x2="128.5" y1="342.7966" y2="342.7966"/><text fill="#000000" font-family="sans-serif" font-size="11" lengthAdjust="spacingAndGlyphs" textLength="38" x="128.5" y="347.4341">member</text><line style="stroke: #A80036; stroke-width: 1.0; stroke-dasharray: 1.0,2.0;" x1="166.5" x2="253" y1="342.7966" y2="342.7966"/><line style="stroke: #A80036; stroke-width: 1.0; stroke-dasharray: 1.0,2.0;" x1="42" x2="130" y1="365.46" y2="365.46"/><text fill="#000000" font-family="sans-serif" font-size="11" lengthAdjust="spacingAndGlyphs" textLength="35" x="130" y="370.0974">method</text><line style="stroke: #A80036; stroke-width: 1.0; stroke-dasharray: 1.0,2.0;" x1="165" x2="253" y1="365.46" y2="365.46"/><!--MD5=[337a3642aaf65859b73d4b718e3ec4ad]
@startuml
class dataSet.Member.setOwner(dataSet.Data_base){
__**<color:green>has list</color>**__
..class..
..member..
	Data_base owner (1951963537);
..method..
__**<color:blue>calling list</color>**__
..class..
..member..
	dataSet.Data_base owner (1237740254);
..method..
__**<color:orange>called by list</color>**__
..class..
..member..
..method..
}

@enduml

PlantUML version 1.2020.19(Tue Oct 13 00:10:01 KST 2020)
(APACHE source distribution)
Java Runtime: Java(TM) SE Runtime Environment
JVM: Java HotSpot(TM) 64-Bit Server VM
Default Encoding: MS949
Language: ko
Country: KR
--></g></svg>