<?xml version="1.0" encoding="UTF-8" standalone="no"?><svg xmlns="http://www.w3.org/2000/svg" xmlns:xlink="http://www.w3.org/1999/xlink" contentScriptType="application/ecmascript" contentStyleType="text/css" height="392px" preserveAspectRatio="none" style="width:285px;height:392px;" version="1.1" viewBox="0 0 285 392" width="285px" zoomAndPan="magnify"><defs><filter height="300%" id="f128cg7nsilv76" width="300%" x="-1" y="-1"><feGaussianBlur result="blurOut" stdDeviation="2.0"/><feColorMatrix in="blurOut" result="blurOut2" type="matrix" values="0 0 0 0 0 0 0 0 0 0 0 0 0 0 0 0 0 0 .4 0"/><feOffset dx="4.0" dy="4.0" in="blurOut2" result="blurOut3"/><feBlend in="SourceGraphic" in2="blurOut3" mode="normal"/></filter></defs><g><!--MD5=[8cacd980a1a8ceb7cc6334dccd4638f8]
cluster dataSet.Data_base.main(java.lang--><polygon fill="#FFFFFF" filter="url(#f128cg7nsilv76)" points="16,6,257,6,264,31.2295,268,31.2295,268,385,16,385,16,6" style="stroke: #000000; stroke-width: 1.5;"/><line style="stroke: #000000; stroke-width: 1.5;" x1="16" x2="264" y1="31.2295" y2="31.2295"/><text fill="#000000" font-family="sans-serif" font-size="14" font-weight="bold" lengthAdjust="spacingAndGlyphs" textLength="235" x="20" y="24.1533">dataSet.Data_base.main(java.lang</text><!--MD5=[a46796b4a54b24d0372ac5189e4a1fcb]
class dataSet.Data_base.main(java.lang.String[])--><rect codeLine="1" fill="#FEFECE" filter="url(#f128cg7nsilv76)" height="323.5144" id="dataSet.Data_base.main(java.lang.String[])" style="stroke: #A80036; stroke-width: 1.5;" width="145" x="70" y="45"/><ellipse cx="117.25" cy="61" fill="#ADD1B2" rx="11" ry="11" style="stroke: #A80036; stroke-width: 1.0;"/><path d="M116.8125,54.5156 Q114.0781,54.5156 113,56.1406 Q111.8594,57.8594 111.8594,60.7813 Q111.8594,64.0781 113.0156,65.7813 Q114,67.2813 116.6094,67.2813 Q118.1875,67.2813 119.0625,66.4531 Q120.0469,65.5 120.1875,63.375 Q120.1875,63.0781 120.0156,62.9063 Q119.8906,62.75 119.6719,62.7344 Q118.4531,62.7344 118.2969,62.8594 Q118.125,63.0156 118.125,63.2813 Q118.0938,64.7656 117.4375,65.5781 Q116.8281,66.375 116.75,66.375 Q115.4219,66.375 114.6406,64.7813 Q113.8906,63.2344 113.8906,60.75 Q113.8906,58.125 114.8281,56.6719 Q115.6563,55.4219 116.9375,55.4219 Q116.9375,55.4219 117.2813,56.0469 Q117.9063,56.7188 118.0469,57.875 Q118.1563,58.4531 119.625,58.2344 Q120.1563,58.1563 120.125,57.7344 Q119.9531,56.2969 119.2344,55.4844 Q118.375,54.5156 116.8125,54.5156 Z "/><text fill="#000000" font-family="sans-serif" font-size="12" lengthAdjust="spacingAndGlyphs" textLength="42" x="137.75" y="66.6045">String[])</text><line style="stroke: #A80036; stroke-width: 1.5;" x1="71" x2="214" y1="77" y2="77"/><line style="stroke: #A80036; stroke-width: 1.5;" x1="71" x2="122.5" y1="92.5544" y2="92.5544"/><text fill="#008000" font-family="sans-serif" font-size="11" font-weight="bold" lengthAdjust="spacingAndGlyphs" textLength="40" x="122.5" y="97.1919">has list</text><line style="stroke: #A80036; stroke-width: 1.5;" x1="162.5" x2="214" y1="92.5544" y2="92.5544"/><line style="stroke: #A80036; stroke-width: 1.0; stroke-dasharray: 1.0,2.0;" x1="71" x2="129.5" y1="115.2178" y2="115.2178"/><text fill="#000000" font-family="sans-serif" font-size="11" lengthAdjust="spacingAndGlyphs" textLength="26" x="129.5" y="119.8552">class</text><line style="stroke: #A80036; stroke-width: 1.0; stroke-dasharray: 1.0,2.0;" x1="155.5" x2="214" y1="115.2178" y2="115.2178"/><text fill="#000000" font-family="sans-serif" font-size="11" lengthAdjust="spacingAndGlyphs" textLength="133" x="76" y="158.1274">String[] args (1361817590);</text><line style="stroke: #A80036; stroke-width: 1.0; stroke-dasharray: 1.0,2.0;" x1="71" x2="123.5" y1="137.8811" y2="137.8811"/><text fill="#000000" font-family="sans-serif" font-size="11" lengthAdjust="spacingAndGlyphs" textLength="38" x="123.5" y="142.5186">member</text><line style="stroke: #A80036; stroke-width: 1.0; stroke-dasharray: 1.0,2.0;" x1="161.5" x2="214" y1="137.8811" y2="137.8811"/><line style="stroke: #A80036; stroke-width: 1.0; stroke-dasharray: 1.0,2.0;" x1="71" x2="125" y1="172.0989" y2="172.0989"/><text fill="#000000" font-family="sans-serif" font-size="11" lengthAdjust="spacingAndGlyphs" textLength="35" x="125" y="176.7363">method</text><line style="stroke: #A80036; stroke-width: 1.0; stroke-dasharray: 1.0,2.0;" x1="160" x2="214" y1="172.0989" y2="172.0989"/><line style="stroke: #A80036; stroke-width: 1.5;" x1="71" x2="115" y1="194.7622" y2="194.7622"/><text fill="#0000FF" font-family="sans-serif" font-size="11" font-weight="bold" lengthAdjust="spacingAndGlyphs" textLength="55" x="115" y="199.3997">calling list</text><line style="stroke: #A80036; stroke-width: 1.5;" x1="170" x2="214" y1="194.7622" y2="194.7622"/><line style="stroke: #A80036; stroke-width: 1.0; stroke-dasharray: 1.0,2.0;" x1="71" x2="129.5" y1="217.4255" y2="217.4255"/><text fill="#000000" font-family="sans-serif" font-size="11" lengthAdjust="spacingAndGlyphs" textLength="26" x="129.5" y="222.063">class</text><line style="stroke: #A80036; stroke-width: 1.0; stroke-dasharray: 1.0,2.0;" x1="155.5" x2="214" y1="217.4255" y2="217.4255"/><line style="stroke: #A80036; stroke-width: 1.0; stroke-dasharray: 1.0,2.0;" x1="71" x2="123.5" y1="240.0889" y2="240.0889"/><text fill="#000000" font-family="sans-serif" font-size="11" lengthAdjust="spacingAndGlyphs" textLength="38" x="123.5" y="244.7263">member</text><line style="stroke: #A80036; stroke-width: 1.0; stroke-dasharray: 1.0,2.0;" x1="161.5" x2="214" y1="240.0889" y2="240.0889"/><line style="stroke: #A80036; stroke-width: 1.0; stroke-dasharray: 1.0,2.0;" x1="71" x2="125" y1="262.7522" y2="262.7522"/><text fill="#000000" font-family="sans-serif" font-size="11" lengthAdjust="spacingAndGlyphs" textLength="35" x="125" y="267.3896">method</text><line style="stroke: #A80036; stroke-width: 1.0; stroke-dasharray: 1.0,2.0;" x1="160" x2="214" y1="262.7522" y2="262.7522"/><line style="stroke: #A80036; stroke-width: 1.5;" x1="71" x2="108.5" y1="285.4155" y2="285.4155"/><text fill="#FFA500" font-family="sans-serif" font-size="11" font-weight="bold" lengthAdjust="spacingAndGlyphs" textLength="68" x="108.5" y="290.053">called by list</text><line style="stroke: #A80036; stroke-width: 1.5;" x1="176.5" x2="214" y1="285.4155" y2="285.4155"/><line style="stroke: #A80036; stroke-width: 1.0; stroke-dasharray: 1.0,2.0;" x1="71" x2="129.5" y1="308.0789" y2="308.0789"/><text fill="#000000" font-family="sans-serif" font-size="11" lengthAdjust="spacingAndGlyphs" textLength="26" x="129.5" y="312.7163">class</text><line style="stroke: #A80036; stroke-width: 1.0; stroke-dasharray: 1.0,2.0;" x1="155.5" x2="214" y1="308.0789" y2="308.0789"/><line style="stroke: #A80036; stroke-width: 1.0; stroke-dasharray: 1.0,2.0;" x1="71" x2="123.5" y1="330.7422" y2="330.7422"/><text fill="#000000" font-family="sans-serif" font-size="11" lengthAdjust="spacingAndGlyphs" textLength="38" x="123.5" y="335.3796">member</text><line style="stroke: #A80036; stroke-width: 1.0; stroke-dasharray: 1.0,2.0;" x1="161.5" x2="214" y1="330.7422" y2="330.7422"/><line style="stroke: #A80036; stroke-width: 1.0; stroke-dasharray: 1.0,2.0;" x1="71" x2="125" y1="353.4055" y2="353.4055"/><text fill="#000000" font-family="sans-serif" font-size="11" lengthAdjust="spacingAndGlyphs" textLength="35" x="125" y="358.043">method</text><line style="stroke: #A80036; stroke-width: 1.0; stroke-dasharray: 1.0,2.0;" x1="160" x2="214" y1="353.4055" y2="353.4055"/><!--MD5=[ccc74432bdb5592ff96c46599d442610]
@startuml
class dataSet.Data_base.main(java.lang.String[]){
__**<color:green>has list</color>**__
..class..
..member..
	String[] args (1361817590);
..method..
__**<color:blue>calling list</color>**__
..class..
..member..
..method..
__**<color:orange>called by list</color>**__
..class..
..member..
..method..
}

@enduml

PlantUML version 1.2020.19(Tue Oct 13 00:10:01 KST 2020)
(APACHE source distribution)
Java Runtime: Java(TM) SE Runtime Environment
JVM: Java HotSpot(TM) 64-Bit Server VM
Default Encoding: MS949
Language: ko
Country: KR
--></g></svg>