<?xml version="1.0" encoding="UTF-8" standalone="no"?><svg xmlns="http://www.w3.org/2000/svg" xmlns:xlink="http://www.w3.org/1999/xlink" contentScriptType="application/ecmascript" contentStyleType="text/css" height="464px" preserveAspectRatio="none" style="width:285px;height:464px;" version="1.1" viewBox="0 0 285 464" width="285px" zoomAndPan="magnify"><defs><filter height="300%" id="f102masss7txh9" width="300%" x="-1" y="-1"><feGaussianBlur result="blurOut" stdDeviation="2.0"/><feColorMatrix in="blurOut" result="blurOut2" type="matrix" values="0 0 0 0 0 0 0 0 0 0 0 0 0 0 0 0 0 0 .4 0"/><feOffset dx="4.0" dy="4.0" in="blurOut2" result="blurOut3"/><feBlend in="SourceGraphic" in2="blurOut3" mode="normal"/></filter></defs><g><!--MD5=[8dd7eb22f44f9816064f5099d2d76479]
cluster dataSet.Class.Class(java.lang--><polygon fill="#FFFFFF" filter="url(#f102masss7txh9)" points="16,6,227,6,234,31.2295,268,31.2295,268,457,16,457,16,6" style="stroke: #000000; stroke-width: 1.5;"/><line style="stroke: #000000; stroke-width: 1.5;" x1="16" x2="234" y1="31.2295" y2="31.2295"/><text fill="#000000" font-family="sans-serif" font-size="14" font-weight="bold" lengthAdjust="spacingAndGlyphs" textLength="205" x="20" y="24.1533">dataSet.Class.Class(java.lang</text><!--MD5=[ee5189a673e6764cba5f2c44b78d239b]
class dataSet.Class.Class(java.lang.String)--><rect codeLine="1" fill="#FEFECE" filter="url(#f102masss7txh9)" height="395.5044" id="dataSet.Class.Class(java.lang.String)" style="stroke: #A80036; stroke-width: 1.5;" width="221" x="32" y="45"/><ellipse cx="120.25" cy="61" fill="#ADD1B2" rx="11" ry="11" style="stroke: #A80036; stroke-width: 1.0;"/><path d="M119.8125,54.5156 Q117.0781,54.5156 116,56.1406 Q114.8594,57.8594 114.8594,60.7813 Q114.8594,64.0781 116.0156,65.7813 Q117,67.2813 119.6094,67.2813 Q121.1875,67.2813 122.0625,66.4531 Q123.0469,65.5 123.1875,63.375 Q123.1875,63.0781 123.0156,62.9063 Q122.8906,62.75 122.6719,62.7344 Q121.4531,62.7344 121.2969,62.8594 Q121.125,63.0156 121.125,63.2813 Q121.0938,64.7656 120.4375,65.5781 Q119.8281,66.375 119.75,66.375 Q118.4219,66.375 117.6406,64.7813 Q116.8906,63.2344 116.8906,60.75 Q116.8906,58.125 117.8281,56.6719 Q118.6563,55.4219 119.9375,55.4219 Q119.9375,55.4219 120.2813,56.0469 Q120.9063,56.7188 121.0469,57.875 Q121.1563,58.4531 122.625,58.2344 Q123.1563,58.1563 123.125,57.7344 Q122.9531,56.2969 122.2344,55.4844 Q121.375,54.5156 119.8125,54.5156 Z "/><text fill="#000000" font-family="sans-serif" font-size="12" lengthAdjust="spacingAndGlyphs" textLength="36" x="140.75" y="66.6045">String)</text><line style="stroke: #A80036; stroke-width: 1.5;" x1="33" x2="252" y1="77" y2="77"/><line style="stroke: #A80036; stroke-width: 1.5;" x1="33" x2="122.5" y1="92.5544" y2="92.5544"/><text fill="#008000" font-family="sans-serif" font-size="11" font-weight="bold" lengthAdjust="spacingAndGlyphs" textLength="40" x="122.5" y="97.1919">has list</text><line style="stroke: #A80036; stroke-width: 1.5;" x1="162.5" x2="252" y1="92.5544" y2="92.5544"/><line style="stroke: #A80036; stroke-width: 1.0; stroke-dasharray: 1.0,2.0;" x1="33" x2="129.5" y1="115.2178" y2="115.2178"/><text fill="#000000" font-family="sans-serif" font-size="11" lengthAdjust="spacingAndGlyphs" textLength="26" x="129.5" y="119.8552">class</text><line style="stroke: #A80036; stroke-width: 1.0; stroke-dasharray: 1.0,2.0;" x1="155.5" x2="252" y1="115.2178" y2="115.2178"/><text fill="#000000" font-family="sans-serif" font-size="11" lengthAdjust="spacingAndGlyphs" textLength="142" x="38" y="158.1274">String srcName (238564722);</text><text fill="#000000" font-family="sans-serif" font-size="11" lengthAdjust="spacingAndGlyphs" textLength="124" x="38" y="173.2363">String[] list (1574898980);</text><text fill="#000000" font-family="sans-serif" font-size="11" lengthAdjust="spacingAndGlyphs" textLength="78" x="38" y="188.3452">int i (56861999);</text><line style="stroke: #A80036; stroke-width: 1.0; stroke-dasharray: 1.0,2.0;" x1="33" x2="123.5" y1="137.8811" y2="137.8811"/><text fill="#000000" font-family="sans-serif" font-size="11" lengthAdjust="spacingAndGlyphs" textLength="38" x="123.5" y="142.5186">member</text><line style="stroke: #A80036; stroke-width: 1.0; stroke-dasharray: 1.0,2.0;" x1="161.5" x2="252" y1="137.8811" y2="137.8811"/><line style="stroke: #A80036; stroke-width: 1.0; stroke-dasharray: 1.0,2.0;" x1="33" x2="125" y1="202.3167" y2="202.3167"/><text fill="#000000" font-family="sans-serif" font-size="11" lengthAdjust="spacingAndGlyphs" textLength="35" x="125" y="206.9541">method</text><line style="stroke: #A80036; stroke-width: 1.0; stroke-dasharray: 1.0,2.0;" x1="160" x2="252" y1="202.3167" y2="202.3167"/><line style="stroke: #A80036; stroke-width: 1.5;" x1="33" x2="115" y1="224.98" y2="224.98"/><text fill="#0000FF" font-family="sans-serif" font-size="11" font-weight="bold" lengthAdjust="spacingAndGlyphs" textLength="55" x="115" y="229.6174">calling list</text><line style="stroke: #A80036; stroke-width: 1.5;" x1="170" x2="252" y1="224.98" y2="224.98"/><line style="stroke: #A80036; stroke-width: 1.0; stroke-dasharray: 1.0,2.0;" x1="33" x2="129.5" y1="247.6433" y2="247.6433"/><text fill="#000000" font-family="sans-serif" font-size="11" lengthAdjust="spacingAndGlyphs" textLength="26" x="129.5" y="252.2808">class</text><line style="stroke: #A80036; stroke-width: 1.0; stroke-dasharray: 1.0,2.0;" x1="155.5" x2="252" y1="247.6433" y2="247.6433"/><text fill="#000000" font-family="sans-serif" font-size="11" lengthAdjust="spacingAndGlyphs" textLength="177" x="38" y="290.553">java.lang.String name (1306246648);</text><text fill="#000000" font-family="sans-serif" font-size="11" lengthAdjust="spacingAndGlyphs" textLength="209" x="38" y="305.6619">java.lang.String packageSrc (1062714541);</text><text fill="#000000" font-family="sans-serif" font-size="11" lengthAdjust="spacingAndGlyphs" textLength="183" x="38" y="320.7708">java.lang.String modifier (286649365);</text><line style="stroke: #A80036; stroke-width: 1.0; stroke-dasharray: 1.0,2.0;" x1="33" x2="123.5" y1="270.3066" y2="270.3066"/><text fill="#000000" font-family="sans-serif" font-size="11" lengthAdjust="spacingAndGlyphs" textLength="38" x="123.5" y="274.9441">member</text><line style="stroke: #A80036; stroke-width: 1.0; stroke-dasharray: 1.0,2.0;" x1="161.5" x2="252" y1="270.3066" y2="270.3066"/><line style="stroke: #A80036; stroke-width: 1.0; stroke-dasharray: 1.0,2.0;" x1="33" x2="125" y1="334.7422" y2="334.7422"/><text fill="#000000" font-family="sans-serif" font-size="11" lengthAdjust="spacingAndGlyphs" textLength="35" x="125" y="339.3796">method</text><line style="stroke: #A80036; stroke-width: 1.0; stroke-dasharray: 1.0,2.0;" x1="160" x2="252" y1="334.7422" y2="334.7422"/><line style="stroke: #A80036; stroke-width: 1.5;" x1="33" x2="108.5" y1="357.4055" y2="357.4055"/><text fill="#FFA500" font-family="sans-serif" font-size="11" font-weight="bold" lengthAdjust="spacingAndGlyphs" textLength="68" x="108.5" y="362.043">called by list</text><line style="stroke: #A80036; stroke-width: 1.5;" x1="176.5" x2="252" y1="357.4055" y2="357.4055"/><line style="stroke: #A80036; stroke-width: 1.0; stroke-dasharray: 1.0,2.0;" x1="33" x2="129.5" y1="380.0688" y2="380.0688"/><text fill="#000000" font-family="sans-serif" font-size="11" lengthAdjust="spacingAndGlyphs" textLength="26" x="129.5" y="384.7063">class</text><line style="stroke: #A80036; stroke-width: 1.0; stroke-dasharray: 1.0,2.0;" x1="155.5" x2="252" y1="380.0688" y2="380.0688"/><line style="stroke: #A80036; stroke-width: 1.0; stroke-dasharray: 1.0,2.0;" x1="33" x2="123.5" y1="402.7322" y2="402.7322"/><text fill="#000000" font-family="sans-serif" font-size="11" lengthAdjust="spacingAndGlyphs" textLength="38" x="123.5" y="407.3696">member</text><line style="stroke: #A80036; stroke-width: 1.0; stroke-dasharray: 1.0,2.0;" x1="161.5" x2="252" y1="402.7322" y2="402.7322"/><line style="stroke: #A80036; stroke-width: 1.0; stroke-dasharray: 1.0,2.0;" x1="33" x2="125" y1="425.3955" y2="425.3955"/><text fill="#000000" font-family="sans-serif" font-size="11" lengthAdjust="spacingAndGlyphs" textLength="35" x="125" y="430.033">method</text><line style="stroke: #A80036; stroke-width: 1.0; stroke-dasharray: 1.0,2.0;" x1="160" x2="252" y1="425.3955" y2="425.3955"/><!--MD5=[3d504b0d2eddaa2d102d46c8a0452c96]
@startuml
class dataSet.Class.Class(java.lang.String){
__**<color:green>has list</color>**__
..class..
..member..
	String srcName (238564722);
	String[] list (1574898980);
	int i (56861999);
..method..
__**<color:blue>calling list</color>**__
..class..
..member..
	java.lang.String name (1306246648);
	java.lang.String packageSrc (1062714541);
	java.lang.String modifier (286649365);
..method..
__**<color:orange>called by list</color>**__
..class..
..member..
..method..
}

@enduml

PlantUML version 1.2020.19(Tue Oct 13 00:10:01 KST 2020)
(APACHE source distribution)
Java Runtime: Java(TM) SE Runtime Environment
JVM: Java HotSpot(TM) 64-Bit Server VM
Default Encoding: MS949
Language: ko
Country: KR
--></g></svg>