<?xml version="1.0" encoding="UTF-8" standalone="no"?><svg xmlns="http://www.w3.org/2000/svg" xmlns:xlink="http://www.w3.org/1999/xlink" contentScriptType="application/ecmascript" contentStyleType="text/css" height="342px" preserveAspectRatio="none" style="width:235px;height:342px;" version="1.1" viewBox="0 0 235 342" width="235px" zoomAndPan="magnify"><defs><filter height="300%" id="f1m3sysbv1wo4y" width="300%" x="-1" y="-1"><feGaussianBlur result="blurOut" stdDeviation="2.0"/><feColorMatrix in="blurOut" result="blurOut2" type="matrix" values="0 0 0 0 0 0 0 0 0 0 0 0 0 0 0 0 0 0 .4 0"/><feOffset dx="4.0" dy="4.0" in="blurOut2" result="blurOut3"/><feBlend in="SourceGraphic" in2="blurOut3" mode="normal"/></filter></defs><g><!--MD5=[b1841f53b2bb6978fd6f5fd6c702696b]
cluster main.A--><polygon fill="#FFFFFF" filter="url(#f1m3sysbv1wo4y)" points="16,6,71,6,78,28.4883,218,28.4883,218,335,16,335,16,6" style="stroke: #000000; stroke-width: 1.5;"/><line style="stroke: #000000; stroke-width: 1.5;" x1="16" x2="78" y1="28.4883" y2="28.4883"/><text fill="#000000" font-family="sans-serif" font-size="14" font-weight="bold" lengthAdjust="spacingAndGlyphs" textLength="49" x="20" y="21.5352">main.A</text><!--MD5=[c8bef4b195f2b28b9f897be3736784cd]
class main.A.getx()--><rect codeLine="1" fill="#FEFECE" filter="url(#f1m3sysbv1wo4y)" height="294.1465" id="main.A.getx()" style="stroke: #A80036; stroke-width: 1.5;" width="185" x="24.5" y="33"/><ellipse cx="96.25" cy="49" fill="#ADD1B2" rx="11" ry="11" style="stroke: #A80036; stroke-width: 1.0;"/><path d="M98.7231,55.1431 Q98.1421,55.4419 97.5029,55.5913 Q96.8638,55.7407 96.1582,55.7407 Q93.6514,55.7407 92.3315,54.0889 Q91.0117,52.437 91.0117,49.3159 Q91.0117,46.1865 92.3315,44.5347 Q93.6514,42.8828 96.1582,42.8828 Q96.8638,42.8828 97.5112,43.0322 Q98.1587,43.1816 98.7231,43.4805 L98.7231,46.2031 Q98.0923,45.6221 97.4988,45.3523 Q96.9053,45.0825 96.2744,45.0825 Q94.9297,45.0825 94.2449,46.1492 Q93.5601,47.2158 93.5601,49.3159 Q93.5601,51.4077 94.2449,52.4744 Q94.9297,53.541 96.2744,53.541 Q96.9053,53.541 97.4988,53.2712 Q98.0923,53.0015 98.7231,52.4204 Z "/><text fill="#000000" font-family="sans-serif" font-size="12" lengthAdjust="spacingAndGlyphs" textLength="33" x="116.75" y="53.5352">getx()</text><line style="stroke: #A80036; stroke-width: 1.5;" x1="25.5" x2="208.5" y1="65" y2="65"/><line style="stroke: #A80036; stroke-width: 1.5;" x1="25.5" x2="96.5" y1="79.4775" y2="79.4775"/><text fill="#008000" font-family="sans-serif" font-size="11" font-weight="bold" lengthAdjust="spacingAndGlyphs" textLength="41" x="96.5" y="83.1348">has list</text><line style="stroke: #A80036; stroke-width: 1.5;" x1="137.5" x2="208.5" y1="79.4775" y2="79.4775"/><line style="stroke: #A80036; stroke-width: 1.0; stroke-dasharray: 1.0,2.0;" x1="25.5" x2="103.5" y1="98.9102" y2="98.9102"/><text fill="#000000" font-family="sans-serif" font-size="11" lengthAdjust="spacingAndGlyphs" textLength="27" x="103.5" y="102.5674">class</text><line style="stroke: #A80036; stroke-width: 1.0; stroke-dasharray: 1.0,2.0;" x1="130.5" x2="208.5" y1="98.9102" y2="98.9102"/><line style="stroke: #A80036; stroke-width: 1.0; stroke-dasharray: 1.0,2.0;" x1="25.5" x2="95" y1="118.3428" y2="118.3428"/><text fill="#000000" font-family="sans-serif" font-size="11" lengthAdjust="spacingAndGlyphs" textLength="44" x="95" y="122">member</text><line style="stroke: #A80036; stroke-width: 1.0; stroke-dasharray: 1.0,2.0;" x1="139" x2="208.5" y1="118.3428" y2="118.3428"/><line style="stroke: #A80036; stroke-width: 1.0; stroke-dasharray: 1.0,2.0;" x1="25.5" x2="96.5" y1="137.7754" y2="137.7754"/><text fill="#000000" font-family="sans-serif" font-size="11" lengthAdjust="spacingAndGlyphs" textLength="41" x="96.5" y="141.4326">method</text><line style="stroke: #A80036; stroke-width: 1.0; stroke-dasharray: 1.0,2.0;" x1="137.5" x2="208.5" y1="137.7754" y2="137.7754"/><line style="stroke: #A80036; stroke-width: 1.5;" x1="25.5" x2="87" y1="157.208" y2="157.208"/><text fill="#0000FF" font-family="sans-serif" font-size="11" font-weight="bold" lengthAdjust="spacingAndGlyphs" textLength="60" x="87" y="160.8652">calling list</text><line style="stroke: #A80036; stroke-width: 1.5;" x1="147" x2="208.5" y1="157.208" y2="157.208"/><line style="stroke: #A80036; stroke-width: 1.0; stroke-dasharray: 1.0,2.0;" x1="25.5" x2="103.5" y1="176.6406" y2="176.6406"/><text fill="#000000" font-family="sans-serif" font-size="11" lengthAdjust="spacingAndGlyphs" textLength="27" x="103.5" y="180.2979">class</text><line style="stroke: #A80036; stroke-width: 1.0; stroke-dasharray: 1.0,2.0;" x1="130.5" x2="208.5" y1="176.6406" y2="176.6406"/><line style="stroke: #A80036; stroke-width: 1.0; stroke-dasharray: 1.0,2.0;" x1="25.5" x2="95" y1="196.0732" y2="196.0732"/><text fill="#000000" font-family="sans-serif" font-size="11" lengthAdjust="spacingAndGlyphs" textLength="44" x="95" y="199.7305">member</text><line style="stroke: #A80036; stroke-width: 1.0; stroke-dasharray: 1.0,2.0;" x1="139" x2="208.5" y1="196.0732" y2="196.0732"/><line style="stroke: #A80036; stroke-width: 1.0; stroke-dasharray: 1.0,2.0;" x1="25.5" x2="96.5" y1="215.5059" y2="215.5059"/><text fill="#000000" font-family="sans-serif" font-size="11" lengthAdjust="spacingAndGlyphs" textLength="41" x="96.5" y="219.1631">method</text><line style="stroke: #A80036; stroke-width: 1.0; stroke-dasharray: 1.0,2.0;" x1="137.5" x2="208.5" y1="215.5059" y2="215.5059"/><line style="stroke: #A80036; stroke-width: 1.5;" x1="25.5" x2="81" y1="234.9385" y2="234.9385"/><text fill="#FFA500" font-family="sans-serif" font-size="11" font-weight="bold" lengthAdjust="spacingAndGlyphs" textLength="72" x="81" y="238.5957">called by list</text><line style="stroke: #A80036; stroke-width: 1.5;" x1="153" x2="208.5" y1="234.9385" y2="234.9385"/><text fill="#000000" font-family="sans-serif" font-size="11" lengthAdjust="spacingAndGlyphs" textLength="92" x="30.5" y="271.4834">C (1825738663);</text><line style="stroke: #A80036; stroke-width: 1.0; stroke-dasharray: 1.0,2.0;" x1="25.5" x2="103.5" y1="254.3711" y2="254.3711"/><text fill="#000000" font-family="sans-serif" font-size="11" lengthAdjust="spacingAndGlyphs" textLength="27" x="103.5" y="258.0283">class</text><line style="stroke: #A80036; stroke-width: 1.0; stroke-dasharray: 1.0,2.0;" x1="130.5" x2="208.5" y1="254.3711" y2="254.3711"/><line style="stroke: #A80036; stroke-width: 1.0; stroke-dasharray: 1.0,2.0;" x1="25.5" x2="95" y1="284.2813" y2="284.2813"/><text fill="#000000" font-family="sans-serif" font-size="11" lengthAdjust="spacingAndGlyphs" textLength="44" x="95" y="287.9385">member</text><line style="stroke: #A80036; stroke-width: 1.0; stroke-dasharray: 1.0,2.0;" x1="139" x2="208.5" y1="284.2813" y2="284.2813"/><text fill="#000000" font-family="sans-serif" font-size="11" lengthAdjust="spacingAndGlyphs" textLength="173" x="30.5" y="320.8262">void test(main.B) (1632413663);</text><line style="stroke: #A80036; stroke-width: 1.0; stroke-dasharray: 1.0,2.0;" x1="25.5" x2="96.5" y1="303.7139" y2="303.7139"/><text fill="#000000" font-family="sans-serif" font-size="11" lengthAdjust="spacingAndGlyphs" textLength="41" x="96.5" y="307.3711">method</text><line style="stroke: #A80036; stroke-width: 1.0; stroke-dasharray: 1.0,2.0;" x1="137.5" x2="208.5" y1="303.7139" y2="303.7139"/><!--MD5=[e3a9511c1c41510fa63108c971461858]
@startuml
class main.A.getx(){
__**<color:green>has list</color>**__
..class..
..member..
..method..
__**<color:blue>calling list</color>**__
..class..
..member..
..method..
__**<color:orange>called by list</color>**__
..class..
	C (1825738663);
..member..
..method..
	void test(main.B) (1632413663);
}

@enduml

PlantUML version 1.2020.19(Tue Oct 13 00:10:01 KST 2020)
(APACHE source distribution)
Java Runtime: Java(TM) SE Runtime Environment
JVM: Java HotSpot(TM) 64-Bit Server VM
Default Encoding: UTF-8
Language: ko
Country: KR
--></g></svg>