<?xml version="1.0" encoding="UTF-8" standalone="no"?><svg xmlns="http://www.w3.org/2000/svg" xmlns:xlink="http://www.w3.org/1999/xlink" contentScriptType="application/ecmascript" contentStyleType="text/css" height="355px" preserveAspectRatio="none" style="width:183px;height:355px;" version="1.1" viewBox="0 0 183 355" width="183px" zoomAndPan="magnify"><defs><filter height="300%" id="f14sa792xb2kn7" width="300%" x="-1" y="-1"><feGaussianBlur result="blurOut" stdDeviation="2.0"/><feColorMatrix in="blurOut" result="blurOut2" type="matrix" values="0 0 0 0 0 0 0 0 0 0 0 0 0 0 0 0 0 0 .4 0"/><feOffset dx="4.0" dy="4.0" in="blurOut2" result="blurOut3"/><feBlend in="SourceGraphic" in2="blurOut3" mode="normal"/></filter></defs><g><!--MD5=[b1841f53b2bb6978fd6f5fd6c702696b]
cluster main.A--><polygon fill="#FFFFFF" filter="url(#f14sa792xb2kn7)" points="16,6,71,6,78,28.4883,166,28.4883,166,348,16,348,16,6" style="stroke: #000000; stroke-width: 1.5;"/><line style="stroke: #000000; stroke-width: 1.5;" x1="16" x2="78" y1="28.4883" y2="28.4883"/><text fill="#000000" font-family="sans-serif" font-size="14" font-weight="bold" lengthAdjust="spacingAndGlyphs" textLength="49" x="20" y="21.5352">main.A</text><!--MD5=[5cb957e9ecd4c5b5910e9a2730f870c4]
class main.A.check(int)--><rect codeLine="1" fill="#FEFECE" filter="url(#f14sa792xb2kn7)" height="307.1016" id="main.A.check(int)" style="stroke: #A80036; stroke-width: 1.5;" width="134" x="24" y="33"/><ellipse cx="60.15" cy="49" fill="#ADD1B2" rx="11" ry="11" style="stroke: #A80036; stroke-width: 1.0;"/><path d="M62.6231,55.1431 Q62.0421,55.4419 61.4029,55.5913 Q60.7638,55.7407 60.0582,55.7407 Q57.5514,55.7407 56.2315,54.0889 Q54.9117,52.437 54.9117,49.3159 Q54.9117,46.1865 56.2315,44.5347 Q57.5514,42.8828 60.0582,42.8828 Q60.7638,42.8828 61.4112,43.0322 Q62.0587,43.1816 62.6231,43.4805 L62.6231,46.2031 Q61.9923,45.6221 61.3988,45.3523 Q60.8053,45.0825 60.1744,45.0825 Q58.8297,45.0825 58.1449,46.1492 Q57.4601,47.2158 57.4601,49.3159 Q57.4601,51.4077 58.1449,52.4744 Q58.8297,53.541 60.1744,53.541 Q60.8053,53.541 61.3988,53.2712 Q61.9923,53.0015 62.6231,52.4204 Z "/><text fill="#000000" font-family="sans-serif" font-size="12" lengthAdjust="spacingAndGlyphs" textLength="55" x="78.85" y="53.5352">check(int)</text><line style="stroke: #A80036; stroke-width: 1.5;" x1="25" x2="157" y1="65" y2="65"/><line style="stroke: #A80036; stroke-width: 1.5;" x1="25" x2="70.5" y1="79.4775" y2="79.4775"/><text fill="#008000" font-family="sans-serif" font-size="11" font-weight="bold" lengthAdjust="spacingAndGlyphs" textLength="41" x="70.5" y="83.1348">has list</text><line style="stroke: #A80036; stroke-width: 1.5;" x1="111.5" x2="157" y1="79.4775" y2="79.4775"/><line style="stroke: #A80036; stroke-width: 1.0; stroke-dasharray: 1.0,2.0;" x1="25" x2="77.5" y1="98.9102" y2="98.9102"/><text fill="#000000" font-family="sans-serif" font-size="11" lengthAdjust="spacingAndGlyphs" textLength="27" x="77.5" y="102.5674">class</text><line style="stroke: #A80036; stroke-width: 1.0; stroke-dasharray: 1.0,2.0;" x1="104.5" x2="157" y1="98.9102" y2="98.9102"/><text fill="#000000" font-family="sans-serif" font-size="11" lengthAdjust="spacingAndGlyphs" textLength="107" x="30" y="135.4551">int y (1132307065);</text><text fill="#000000" font-family="sans-serif" font-size="11" lengthAdjust="spacingAndGlyphs" textLength="122" x="30" y="148.4102">int value (599984672);</text><line style="stroke: #A80036; stroke-width: 1.0; stroke-dasharray: 1.0,2.0;" x1="25" x2="69" y1="118.3428" y2="118.3428"/><text fill="#000000" font-family="sans-serif" font-size="11" lengthAdjust="spacingAndGlyphs" textLength="44" x="69" y="122">member</text><line style="stroke: #A80036; stroke-width: 1.0; stroke-dasharray: 1.0,2.0;" x1="113" x2="157" y1="118.3428" y2="118.3428"/><line style="stroke: #A80036; stroke-width: 1.0; stroke-dasharray: 1.0,2.0;" x1="25" x2="70.5" y1="161.208" y2="161.208"/><text fill="#000000" font-family="sans-serif" font-size="11" lengthAdjust="spacingAndGlyphs" textLength="41" x="70.5" y="164.8652">method</text><line style="stroke: #A80036; stroke-width: 1.0; stroke-dasharray: 1.0,2.0;" x1="111.5" x2="157" y1="161.208" y2="161.208"/><line style="stroke: #A80036; stroke-width: 1.5;" x1="25" x2="61" y1="180.6406" y2="180.6406"/><text fill="#0000FF" font-family="sans-serif" font-size="11" font-weight="bold" lengthAdjust="spacingAndGlyphs" textLength="60" x="61" y="184.2979">calling list</text><line style="stroke: #A80036; stroke-width: 1.5;" x1="121" x2="157" y1="180.6406" y2="180.6406"/><line style="stroke: #A80036; stroke-width: 1.0; stroke-dasharray: 1.0,2.0;" x1="25" x2="77.5" y1="200.0732" y2="200.0732"/><text fill="#000000" font-family="sans-serif" font-size="11" lengthAdjust="spacingAndGlyphs" textLength="27" x="77.5" y="203.7305">class</text><line style="stroke: #A80036; stroke-width: 1.0; stroke-dasharray: 1.0,2.0;" x1="104.5" x2="157" y1="200.0732" y2="200.0732"/><text fill="#000000" font-family="sans-serif" font-size="11" lengthAdjust="spacingAndGlyphs" textLength="108" x="30" y="236.6182">int x (1223850219);</text><line style="stroke: #A80036; stroke-width: 1.0; stroke-dasharray: 1.0,2.0;" x1="25" x2="69" y1="219.5059" y2="219.5059"/><text fill="#000000" font-family="sans-serif" font-size="11" lengthAdjust="spacingAndGlyphs" textLength="44" x="69" y="223.1631">member</text><line style="stroke: #A80036; stroke-width: 1.0; stroke-dasharray: 1.0,2.0;" x1="113" x2="157" y1="219.5059" y2="219.5059"/><line style="stroke: #A80036; stroke-width: 1.0; stroke-dasharray: 1.0,2.0;" x1="25" x2="70.5" y1="249.416" y2="249.416"/><text fill="#000000" font-family="sans-serif" font-size="11" lengthAdjust="spacingAndGlyphs" textLength="41" x="70.5" y="253.0732">method</text><line style="stroke: #A80036; stroke-width: 1.0; stroke-dasharray: 1.0,2.0;" x1="111.5" x2="157" y1="249.416" y2="249.416"/><line style="stroke: #A80036; stroke-width: 1.5;" x1="25" x2="55" y1="268.8486" y2="268.8486"/><text fill="#FFA500" font-family="sans-serif" font-size="11" font-weight="bold" lengthAdjust="spacingAndGlyphs" textLength="72" x="55" y="272.5059">called by list</text><line style="stroke: #A80036; stroke-width: 1.5;" x1="127" x2="157" y1="268.8486" y2="268.8486"/><line style="stroke: #A80036; stroke-width: 1.0; stroke-dasharray: 1.0,2.0;" x1="25" x2="77.5" y1="288.2813" y2="288.2813"/><text fill="#000000" font-family="sans-serif" font-size="11" lengthAdjust="spacingAndGlyphs" textLength="27" x="77.5" y="291.9385">class</text><line style="stroke: #A80036; stroke-width: 1.0; stroke-dasharray: 1.0,2.0;" x1="104.5" x2="157" y1="288.2813" y2="288.2813"/><line style="stroke: #A80036; stroke-width: 1.0; stroke-dasharray: 1.0,2.0;" x1="25" x2="69" y1="307.7139" y2="307.7139"/><text fill="#000000" font-family="sans-serif" font-size="11" lengthAdjust="spacingAndGlyphs" textLength="44" x="69" y="311.3711">member</text><line style="stroke: #A80036; stroke-width: 1.0; stroke-dasharray: 1.0,2.0;" x1="113" x2="157" y1="307.7139" y2="307.7139"/><line style="stroke: #A80036; stroke-width: 1.0; stroke-dasharray: 1.0,2.0;" x1="25" x2="70.5" y1="327.1465" y2="327.1465"/><text fill="#000000" font-family="sans-serif" font-size="11" lengthAdjust="spacingAndGlyphs" textLength="41" x="70.5" y="330.8037">method</text><line style="stroke: #A80036; stroke-width: 1.0; stroke-dasharray: 1.0,2.0;" x1="111.5" x2="157" y1="327.1465" y2="327.1465"/><!--MD5=[00143dd879fde8df7378fc0e913ddae5]
@startuml
class main.A.check(int){
__**<color:green>has list</color>**__
..class..
..member..
	int y (1132307065);
	int value (599984672);
..method..
__**<color:blue>calling list</color>**__
..class..
..member..
	int x (1223850219);
..method..
__**<color:orange>called by list</color>**__
..class..
..member..
..method..
}

@enduml

PlantUML version 1.2020.19(Tue Oct 13 00:10:01 KST 2020)
(APACHE source distribution)
Java Runtime: Java(TM) SE Runtime Environment
JVM: Java HotSpot(TM) 64-Bit Server VM
Default Encoding: UTF-8
Language: ko
Country: KR
--></g></svg>