<?xml version="1.0" encoding="UTF-8" standalone="no"?><svg xmlns="http://www.w3.org/2000/svg" xmlns:xlink="http://www.w3.org/1999/xlink" contentScriptType="application/ecmascript" contentStyleType="text/css" height="534px" preserveAspectRatio="none" style="width:941px;height:534px;" version="1.1" viewBox="0 0 941 534" width="941px" zoomAndPan="magnify"><defs><filter height="300%" id="f11zrxj4se8j6u" width="300%" x="-1" y="-1"><feGaussianBlur result="blurOut" stdDeviation="2.0"/><feColorMatrix in="blurOut" result="blurOut2" type="matrix" values="0 0 0 0 0 0 0 0 0 0 0 0 0 0 0 0 0 0 .4 0"/><feOffset dx="4.0" dy="4.0" in="blurOut2" result="blurOut3"/><feBlend in="SourceGraphic" in2="blurOut3" mode="normal"/></filter></defs><g><!--MD5=[7851eb1e2dffefb38c91b4712a649be9]
cluster classRelation.GuitarAcademy--><polygon fill="#FFFFFF" filter="url(#f11zrxj4se8j6u)" points="230.5,6,439.5,6,446.5,31.2295,924.5,31.2295,924.5,527,230.5,527,230.5,6" style="stroke: #000000; stroke-width: 1.5;"/><line style="stroke: #000000; stroke-width: 1.5;" x1="230.5" x2="446.5" y1="31.2295" y2="31.2295"/><text fill="#000000" font-family="sans-serif" font-size="14" font-weight="bold" lengthAdjust="spacingAndGlyphs" textLength="203" x="234.5" y="24.1533">classRelation.GuitarAcademy</text><!--MD5=[19970cddbdaaf061b8ede494d1fc4f01]
class classRelation.GuitarAcademy.GuitarAcademy417301556--><rect codeLine="22" fill="#FA8072" filter="url(#f11zrxj4se8j6u)" height="467.0488" id="classRelation.GuitarAcademy.GuitarAcademy417301556" style="stroke: #A80036; stroke-width: 1.5;" width="281" x="627" y="44"/><ellipse cx="717.75" cy="60" fill="#ADD1B2" rx="11" ry="11" style="stroke: #A80036; stroke-width: 1.0;"/><path d="M717.5781,53.4844 Q715.7031,53.4844 714.5469,55.2344 Q713.3594,57.0156 713.3594,60.0156 Q713.3594,63.3906 714.5625,65.1563 Q715.625,66.7813 717.375,66.7813 Q719.0625,66.7813 720.0156,65.875 Q721.0781,64.8594 721.2188,62.625 Q721.2188,62.2031 720.9844,61.9688 Q720.7969,61.7344 720.4531,61.7031 Q720.125,61.7031 719.8906,61.8906 Q719.625,62.125 719.625,62.5156 Q719.5938,63.9063 719,64.6406 Q718.4688,65.3438 717.5156,65.3438 Q716.3594,65.3438 715.6406,63.9063 Q714.9219,62.4063 714.9219,59.9844 Q714.9219,57.4375 715.8125,56.0469 Q716.5625,54.9219 717.7031,54.9219 Q718.3594,54.9219 718.8594,55.4688 Q719.4219,56.0781 719.5469,57.1406 Q719.5938,57.8438 720.4219,57.7344 Q721.2031,57.625 721.1563,56.9375 Q720.9688,55.4219 720.2031,54.5469 Q719.2656,53.4844 717.5781,53.4844 Z "/><text fill="#000000" font-family="sans-serif" font-size="12" lengthAdjust="spacingAndGlyphs" textLength="91" x="738.25" y="65.6045">GuitarAcademy()</text><line style="stroke: #A80036; stroke-width: 1.5;" x1="628" x2="907" y1="76" y2="76"/><text fill="#000000" font-family="sans-serif" font-size="11" lengthAdjust="spacingAndGlyphs" textLength="44" x="633" y="92.6919">pram : ( )</text><text fill="#000000" font-family="sans-serif" font-size="11" lengthAdjust="spacingAndGlyphs" textLength="246" x="633" y="107.8008">SrcOwnClassName : classRelation.GuitarAcademy</text><text fill="#000000" font-family="sans-serif" font-size="11" lengthAdjust="spacingAndGlyphs" textLength="269" x="633" y="122.9097">SrcSig : classRelation.GuitarAcademy.GuitarAcademy()</text><text fill="#000000" font-family="sans-serif" font-size="11" lengthAdjust="spacingAndGlyphs" textLength="107" x="633" y="138.0186">Sig : GuitarAcademy()</text><text fill="#000000" font-family="sans-serif" font-size="11" lengthAdjust="spacingAndGlyphs" textLength="96" x="633" y="172.2363">parameter Score : 0</text><text fill="#000000" font-family="sans-serif" font-size="11" lengthAdjust="spacingAndGlyphs" textLength="90" x="633" y="187.3452">classCall Score : 3</text><text fill="#000000" font-family="sans-serif" font-size="11" lengthAdjust="spacingAndGlyphs" textLength="64" x="633" y="202.4541">Call Score : 9</text><text fill="#000000" font-family="sans-serif" font-size="11" lengthAdjust="spacingAndGlyphs" textLength="77" x="633" y="217.563">CallBy Score : 0</text><text fill="#000000" font-family="sans-serif" font-size="11" lengthAdjust="spacingAndGlyphs" textLength="104" x="633" y="232.6719">memberUse Score : 4</text><text fill="#000000" font-family="sans-serif" font-size="11" lengthAdjust="spacingAndGlyphs" textLength="97" x="633" y="247.7808">localValue Score : 0</text><text fill="#000000" font-family="sans-serif" font-size="11" lengthAdjust="spacingAndGlyphs" textLength="65" x="633" y="262.8896">exp Score : 0</text><text fill="#000000" font-family="sans-serif" font-size="11" lengthAdjust="spacingAndGlyphs" textLength="78" x="633" y="277.9985">repeat Score : 0</text><text fill="#000000" font-family="sans-serif" font-size="11" lengthAdjust="spacingAndGlyphs" textLength="81" x="633" y="293.1074">brench Score : 0</text><text fill="#000000" font-family="sans-serif" font-size="11" lengthAdjust="spacingAndGlyphs" textLength="80" x="633" y="308.2163">callCountNum : 6</text><text fill="#000000" font-family="sans-serif" font-size="11" lengthAdjust="spacingAndGlyphs" textLength="66" x="633" y="323.3252">cyclomatic : 1</text><text fill="#000000" font-family="sans-serif" font-size="11" lengthAdjust="spacingAndGlyphs" textLength="105" x="633" y="338.4341">State Node lineNum: 2</text><text fill="#000000" font-family="sans-serif" font-size="11" lengthAdjust="spacingAndGlyphs" textLength="92" x="633" y="353.543">State Node Num : 0</text><text fill="#000000" font-family="sans-serif" font-size="11" lengthAdjust="spacingAndGlyphs" textLength="122" x="633" y="368.6519">State Node callListSize: 0</text><text fill="#000000" font-family="sans-serif" font-size="11" lengthAdjust="spacingAndGlyphs" textLength="123" x="633" y="383.7607">State Node repeatSize : 0</text><text fill="#000000" font-family="sans-serif" font-size="11" lengthAdjust="spacingAndGlyphs" textLength="117" x="633" y="398.8696">State Node writeSize : 2</text><text fill="#000000" font-family="sans-serif" font-size="11" lengthAdjust="spacingAndGlyphs" textLength="114" x="633" y="413.9785">State Node bifurSize : 0</text><text fill="#000000" font-family="sans-serif" font-size="11" lengthAdjust="spacingAndGlyphs" textLength="198" x="633" y="429.0874">Calculated Estunated Program Length: 16</text><text fill="#000000" font-family="sans-serif" font-size="11" lengthAdjust="spacingAndGlyphs" textLength="57" x="633" y="444.1963">Volume : 33</text><text fill="#000000" font-family="sans-serif" font-size="11" lengthAdjust="spacingAndGlyphs" textLength="58" x="633" y="459.3052">Diffifculty: 2</text><text fill="#000000" font-family="sans-serif" font-size="11" lengthAdjust="spacingAndGlyphs" textLength="48" x="633" y="474.4141">Effort : 66</text><text fill="#000000" font-family="sans-serif" font-size="11" lengthAdjust="spacingAndGlyphs" textLength="69" x="633" y="489.5229">ABS Score : 9</text><text fill="#000000" font-family="sans-serif" font-size="11" lengthAdjust="spacingAndGlyphs" textLength="85" x="633" y="504.6318">Relative Score : 9</text><line style="stroke: #A80036; stroke-width: 1.5;" x1="628" x2="731" y1="151.99" y2="151.99"/><text fill="#FFA500" font-family="sans-serif" font-size="11" font-weight="bold" lengthAdjust="spacingAndGlyphs" textLength="73" x="731" y="156.6274">Complex Info</text><line style="stroke: #A80036; stroke-width: 1.5;" x1="804" x2="907" y1="151.99" y2="151.99"/><!--MD5=[c2a3e70db92b1f65480fd14cb0e8c846]
class classRelation.GuitarAcademy.lesson780934299--><rect codeLine="53" fill="#FA8072" filter="url(#f11zrxj4se8j6u)" height="467.0488" id="classRelation.GuitarAcademy.lesson780934299" style="stroke: #A80036; stroke-width: 1.5;" width="345" x="247" y="44"/><ellipse cx="329.75" cy="60" fill="#ADD1B2" rx="11" ry="11" style="stroke: #A80036; stroke-width: 1.0;"/><path d="M329.5781,53.4844 Q327.7031,53.4844 326.5469,55.2344 Q325.3594,57.0156 325.3594,60.0156 Q325.3594,63.3906 326.5625,65.1563 Q327.625,66.7813 329.375,66.7813 Q331.0625,66.7813 332.0156,65.875 Q333.0781,64.8594 333.2188,62.625 Q333.2188,62.2031 332.9844,61.9688 Q332.7969,61.7344 332.4531,61.7031 Q332.125,61.7031 331.8906,61.8906 Q331.625,62.125 331.625,62.5156 Q331.5938,63.9063 331,64.6406 Q330.4688,65.3438 329.5156,65.3438 Q328.3594,65.3438 327.6406,63.9063 Q326.9219,62.4063 326.9219,59.9844 Q326.9219,57.4375 327.8125,56.0469 Q328.5625,54.9219 329.7031,54.9219 Q330.3594,54.9219 330.8594,55.4688 Q331.4219,56.0781 331.5469,57.1406 Q331.5938,57.8438 332.4219,57.7344 Q333.2031,57.625 333.1563,56.9375 Q332.9688,55.4219 332.2031,54.5469 Q331.2656,53.4844 329.5781,53.4844 Z "/><text fill="#000000" font-family="sans-serif" font-size="12" lengthAdjust="spacingAndGlyphs" textLength="171" x="350.25" y="65.6045">lesson(classRelation.Guitarist)</text><line style="stroke: #A80036; stroke-width: 1.5;" x1="248" x2="591" y1="76" y2="76"/><text fill="#000000" font-family="sans-serif" font-size="11" lengthAdjust="spacingAndGlyphs" textLength="151" x="253" y="92.6919">pram : (classRelation.Guitarist )</text><text fill="#000000" font-family="sans-serif" font-size="11" lengthAdjust="spacingAndGlyphs" textLength="246" x="253" y="107.8008">SrcOwnClassName : classRelation.GuitarAcademy</text><text fill="#000000" font-family="sans-serif" font-size="11" lengthAdjust="spacingAndGlyphs" textLength="333" x="253" y="122.9097">SrcSig : classRelation.GuitarAcademy.lesson(classRelation.Guitarist)</text><text fill="#000000" font-family="sans-serif" font-size="11" lengthAdjust="spacingAndGlyphs" textLength="171" x="253" y="138.0186">Sig : lesson(classRelation.Guitarist)</text><text fill="#000000" font-family="sans-serif" font-size="11" lengthAdjust="spacingAndGlyphs" textLength="96" x="253" y="172.2363">parameter Score : 2</text><text fill="#000000" font-family="sans-serif" font-size="11" lengthAdjust="spacingAndGlyphs" textLength="90" x="253" y="187.3452">classCall Score : 3</text><text fill="#000000" font-family="sans-serif" font-size="11" lengthAdjust="spacingAndGlyphs" textLength="64" x="253" y="202.4541">Call Score : 8</text><text fill="#000000" font-family="sans-serif" font-size="11" lengthAdjust="spacingAndGlyphs" textLength="77" x="253" y="217.563">CallBy Score : 3</text><text fill="#000000" font-family="sans-serif" font-size="11" lengthAdjust="spacingAndGlyphs" textLength="104" x="253" y="232.6719">memberUse Score : 3</text><text fill="#000000" font-family="sans-serif" font-size="11" lengthAdjust="spacingAndGlyphs" textLength="97" x="253" y="247.7808">localValue Score : 1</text><text fill="#000000" font-family="sans-serif" font-size="11" lengthAdjust="spacingAndGlyphs" textLength="65" x="253" y="262.8896">exp Score : 0</text><text fill="#000000" font-family="sans-serif" font-size="11" lengthAdjust="spacingAndGlyphs" textLength="78" x="253" y="277.9985">repeat Score : 0</text><text fill="#000000" font-family="sans-serif" font-size="11" lengthAdjust="spacingAndGlyphs" textLength="81" x="253" y="293.1074">brench Score : 0</text><text fill="#000000" font-family="sans-serif" font-size="11" lengthAdjust="spacingAndGlyphs" textLength="80" x="253" y="308.2163">callCountNum : 4</text><text fill="#000000" font-family="sans-serif" font-size="11" lengthAdjust="spacingAndGlyphs" textLength="66" x="253" y="323.3252">cyclomatic : 1</text><text fill="#000000" font-family="sans-serif" font-size="11" lengthAdjust="spacingAndGlyphs" textLength="105" x="253" y="338.4341">State Node lineNum: 2</text><text fill="#000000" font-family="sans-serif" font-size="11" lengthAdjust="spacingAndGlyphs" textLength="92" x="253" y="353.543">State Node Num : 0</text><text fill="#000000" font-family="sans-serif" font-size="11" lengthAdjust="spacingAndGlyphs" textLength="122" x="253" y="368.6519">State Node callListSize: 2</text><text fill="#000000" font-family="sans-serif" font-size="11" lengthAdjust="spacingAndGlyphs" textLength="123" x="253" y="383.7607">State Node repeatSize : 0</text><text fill="#000000" font-family="sans-serif" font-size="11" lengthAdjust="spacingAndGlyphs" textLength="117" x="253" y="398.8696">State Node writeSize : 0</text><text fill="#000000" font-family="sans-serif" font-size="11" lengthAdjust="spacingAndGlyphs" textLength="114" x="253" y="413.9785">State Node bifurSize : 0</text><text fill="#000000" font-family="sans-serif" font-size="11" lengthAdjust="spacingAndGlyphs" textLength="225" x="253" y="429.0874">Calculated Estunated Program Length: 16.3645</text><text fill="#000000" font-family="sans-serif" font-size="11" lengthAdjust="spacingAndGlyphs" textLength="57" x="253" y="444.1963">Volume : 36</text><text fill="#000000" font-family="sans-serif" font-size="11" lengthAdjust="spacingAndGlyphs" textLength="85" x="253" y="459.3052">Diffifculty: 3.3333</text><text fill="#000000" font-family="sans-serif" font-size="11" lengthAdjust="spacingAndGlyphs" textLength="54" x="253" y="474.4141">Effort : 120</text><text fill="#000000" font-family="sans-serif" font-size="11" lengthAdjust="spacingAndGlyphs" textLength="75" x="253" y="489.5229">ABS Score : 10</text><text fill="#000000" font-family="sans-serif" font-size="11" lengthAdjust="spacingAndGlyphs" textLength="91" x="253" y="504.6318">Relative Score : 10</text><line style="stroke: #A80036; stroke-width: 1.5;" x1="248" x2="383" y1="151.99" y2="151.99"/><text fill="#FFA500" font-family="sans-serif" font-size="11" font-weight="bold" lengthAdjust="spacingAndGlyphs" textLength="73" x="383" y="156.6274">Complex Info</text><line style="stroke: #A80036; stroke-width: 1.5;" x1="456" x2="591" y1="151.99" y2="151.99"/><!--MD5=[f04bc90bf33944b7fab332a83ab18852]
class ClassComplex--><rect codeLine="1" fill="#FEFECE" filter="url(#f11zrxj4se8j6u)" height="319.96" id="ClassComplex" style="stroke: #A80036; stroke-width: 1.5;" width="205" x="7" y="117.5"/><ellipse cx="64.25" cy="133.5" fill="#ADD1B2" rx="11" ry="11" style="stroke: #A80036; stroke-width: 1.0;"/><path d="M64.0781,126.9844 Q62.2031,126.9844 61.0469,128.7344 Q59.8594,130.5156 59.8594,133.5156 Q59.8594,136.8906 61.0625,138.6563 Q62.125,140.2813 63.875,140.2813 Q65.5625,140.2813 66.5156,139.375 Q67.5781,138.3594 67.7188,136.125 Q67.7188,135.7031 67.4844,135.4688 Q67.2969,135.2344 66.9531,135.2031 Q66.625,135.2031 66.3906,135.3906 Q66.125,135.625 66.125,136.0156 Q66.0938,137.4063 65.5,138.1406 Q64.9688,138.8438 64.0156,138.8438 Q62.8594,138.8438 62.1406,137.4063 Q61.4219,135.9063 61.4219,133.4844 Q61.4219,130.9375 62.3125,129.5469 Q63.0625,128.4219 64.2031,128.4219 Q64.8594,128.4219 65.3594,128.9688 Q65.9219,129.5781 66.0469,130.6406 Q66.0938,131.3438 66.9219,131.2344 Q67.7031,131.125 67.6563,130.4375 Q67.4688,128.9219 66.7031,128.0469 Q65.7656,126.9844 64.0781,126.9844 Z "/><text fill="#000000" font-family="sans-serif" font-size="12" lengthAdjust="spacingAndGlyphs" textLength="82" x="84.75" y="139.1045">ClassComplex</text><line style="stroke: #A80036; stroke-width: 1.5;" x1="8" x2="211" y1="149.5" y2="149.5"/><text fill="#000000" font-family="sans-serif" font-size="11" lengthAdjust="spacingAndGlyphs" textLength="79" x="13" y="185.3008">memberScor = 4</text><text fill="#000000" font-family="sans-serif" font-size="11" lengthAdjust="spacingAndGlyphs" textLength="113" x="13" y="200.4097">extendsClassScore = 0</text><text fill="#000000" font-family="sans-serif" font-size="11" lengthAdjust="spacingAndGlyphs" textLength="69" x="13" y="215.5186">callScore = 15</text><text fill="#000000" font-family="sans-serif" font-size="11" lengthAdjust="spacingAndGlyphs" textLength="82" x="13" y="230.6274">callByScore = 15</text><text fill="#000000" font-family="sans-serif" font-size="11" lengthAdjust="spacingAndGlyphs" textLength="74" x="13" y="245.7363">methodNum = 2</text><text fill="#000000" font-family="sans-serif" font-size="11" lengthAdjust="spacingAndGlyphs" textLength="77" x="13" y="260.8452">memberNum = 2</text><text fill="#000000" font-family="sans-serif" font-size="11" lengthAdjust="spacingAndGlyphs" textLength="95" x="13" y="275.9541">constructorNum = 1</text><text fill="#000000" font-family="sans-serif" font-size="11" lengthAdjust="spacingAndGlyphs" textLength="83" x="13" y="291.063">selfCoverage = 2</text><text fill="#000000" font-family="sans-serif" font-size="11" lengthAdjust="spacingAndGlyphs" textLength="72" x="13" y="306.1719">needCallBy = 2</text><text fill="#000000" font-family="sans-serif" font-size="11" lengthAdjust="spacingAndGlyphs" textLength="46" x="13" y="321.2808">ABS = 38</text><text fill="#000000" font-family="sans-serif" font-size="11" lengthAdjust="spacingAndGlyphs" textLength="37" x="13" y="336.3896">REL = 9</text><text fill="#000000" font-family="sans-serif" font-size="11" lengthAdjust="spacingAndGlyphs" textLength="89" x="13" y="351.4985">coverage = 50.0%</text><line style="stroke: #A80036; stroke-width: 1.5;" x1="8" x2="73" y1="165.0544" y2="165.0544"/><text fill="#FFA500" font-family="sans-serif" font-size="11" font-weight="bold" lengthAdjust="spacingAndGlyphs" textLength="73" x="73" y="169.6919">Complex Info</text><line style="stroke: #A80036; stroke-width: 1.5;" x1="146" x2="211" y1="165.0544" y2="165.0544"/><text fill="#008000" font-family="sans-serif" font-size="11" lengthAdjust="spacingAndGlyphs" textLength="164" x="13" y="385.7163">classRelation.Guitarist teacher (2)</text><text fill="#008000" font-family="sans-serif" font-size="11" lengthAdjust="spacingAndGlyphs" textLength="189" x="13" y="400.8252">classRelation.Guitar academyGuitar (2)</text><text fill="#FF0000" font-family="sans-serif" font-size="11" lengthAdjust="spacingAndGlyphs" textLength="125" x="13" y="415.9341">new GuitarAcademy() (9)</text><text fill="#FF0000" font-family="sans-serif" font-size="11" lengthAdjust="spacingAndGlyphs" textLength="193" x="13" y="431.043">void lesson(classRelation.Guitarist) (10)</text><line style="stroke: #A80036; stroke-width: 1.5;" x1="8" x2="89.5" y1="365.47" y2="365.47"/><text fill="#008000" font-family="sans-serif" font-size="11" font-weight="bold" lengthAdjust="spacingAndGlyphs" textLength="40" x="89.5" y="370.1074">has list</text><line style="stroke: #A80036; stroke-width: 1.5;" x1="129.5" x2="211" y1="365.47" y2="365.47"/><!--MD5=[f79a5690bcb87305ff1700be54f94e28]
@startuml
class ClassComplex{
__**<color:orange>Complex Info</color>**__
	memberScor = 4
	extendsClassScore = 0
	callScore = 15
	callByScore = 15
	methodNum = 2
	memberNum = 2
	constructorNum = 1
	selfCoverage = 2
	needCallBy = 2
	ABS = 38
	REL = 9
	coverage = 50.0%
__**<color:green>has list</color>**__
	<color:green>classRelation.Guitarist teacher (2)
	<color:green>classRelation.Guitar academyGuitar (2)
	<color:red>new GuitarAcademy() (9)
	<color:red>void lesson(classRelation.Guitarist) (10)
}

class classRelation.GuitarAcademy.GuitarAcademy417301556 as "GuitarAcademy()"#back:salmon 
{
	pram : ( )
	SrcOwnClassName : classRelation.GuitarAcademy
	SrcSig : classRelation.GuitarAcademy.GuitarAcademy()
	Sig : GuitarAcademy()
	__**<color:orange>Complex Info</color>**__
	parameter Score : 0
	classCall Score : 3
	Call Score : 9
	CallBy Score : 0
	memberUse Score : 4
	localValue Score : 0
	exp Score : 0
	repeat Score : 0
	brench Score : 0
	callCountNum : 6
	cyclomatic : 1
	State Node lineNum: 2
	State Node Num : 0
	State Node callListSize: 0
	State Node repeatSize : 0
	State Node writeSize : 2
	State Node bifurSize : 0
	Calculated Estunated Program Length: 16
	Volume : 33
	Diffifculty: 2
	Effort : 66
	ABS Score : 9
	Relative Score : 9
}
class classRelation.GuitarAcademy.lesson780934299 as "lesson(classRelation.Guitarist)"#back:salmon 
{
	pram : (classRelation.Guitarist )
	SrcOwnClassName : classRelation.GuitarAcademy
	SrcSig : classRelation.GuitarAcademy.lesson(classRelation.Guitarist)
	Sig : lesson(classRelation.Guitarist)
	__**<color:orange>Complex Info</color>**__
	parameter Score : 2
	classCall Score : 3
	Call Score : 8
	CallBy Score : 3
	memberUse Score : 3
	localValue Score : 1
	exp Score : 0
	repeat Score : 0
	brench Score : 0
	callCountNum : 4
	cyclomatic : 1
	State Node lineNum: 2
	State Node Num : 0
	State Node callListSize: 2
	State Node repeatSize : 0
	State Node writeSize : 0
	State Node bifurSize : 0
	Calculated Estunated Program Length: 16.3645
	Volume : 36
	Diffifculty: 3.3333
	Effort : 120
	ABS Score : 10
	Relative Score : 10
}

@enduml

PlantUML version 1.2020.19(Tue Oct 13 00:10:01 KST 2020)
(APACHE source distribution)
Java Runtime: OpenJDK Runtime Environment
JVM: OpenJDK 64-Bit Server VM
Default Encoding: MS949
Language: ko
Country: KR
--></g></svg>