<?xml version="1.0" encoding="UTF-8" standalone="no"?><svg xmlns="http://www.w3.org/2000/svg" xmlns:xlink="http://www.w3.org/1999/xlink" contentScriptType="application/ecmascript" contentStyleType="text/css" height="546px" preserveAspectRatio="none" style="width:381px;height:546px;" version="1.1" viewBox="0 0 381 546" width="381px" zoomAndPan="magnify"><defs><filter height="300%" id="f39obyj9y23pe" width="300%" x="-1" y="-1"><feGaussianBlur result="blurOut" stdDeviation="2.0"/><feColorMatrix in="blurOut" result="blurOut2" type="matrix" values="0 0 0 0 0 0 0 0 0 0 0 0 0 0 0 0 0 0 .4 0"/><feOffset dx="4.0" dy="4.0" in="blurOut2" result="blurOut3"/><feBlend in="SourceGraphic" in2="blurOut3" mode="normal"/></filter></defs><g><!--MD5=[48b37dae6ed0f8d3be6af180e0e91702]
cluster shopTest--><polygon fill="#FFFFFF" filter="url(#f39obyj9y23pe)" points="16,6,87,6,94,31.2295,364,31.2295,364,539,16,539,16,6" style="stroke: #000000; stroke-width: 1.5;"/><line style="stroke: #000000; stroke-width: 1.5;" x1="16" x2="94" y1="31.2295" y2="31.2295"/><text fill="#000000" font-family="sans-serif" font-size="14" font-weight="bold" lengthAdjust="spacingAndGlyphs" textLength="65" x="20" y="24.1533">shopTest</text><!--MD5=[a5b7717d4afb9345a65d0089c10553f6]
class shopTest.TestScenario--><rect codeLine="1" fill="#FEFECE" filter="url(#f39obyj9y23pe)" height="479.0488" id="shopTest.TestScenario" style="stroke: #A80036; stroke-width: 1.5;" width="316" x="32" y="44"/><ellipse cx="149.25" cy="60" fill="#ADD1B2" rx="11" ry="11" style="stroke: #A80036; stroke-width: 1.0;"/><path d="M149.0781,53.4844 Q147.2031,53.4844 146.0469,55.2344 Q144.8594,57.0156 144.8594,60.0156 Q144.8594,63.3906 146.0625,65.1563 Q147.125,66.7813 148.875,66.7813 Q150.5625,66.7813 151.5156,65.875 Q152.5781,64.8594 152.7188,62.625 Q152.7188,62.2031 152.4844,61.9688 Q152.2969,61.7344 151.9531,61.7031 Q151.625,61.7031 151.3906,61.8906 Q151.125,62.125 151.125,62.5156 Q151.0938,63.9063 150.5,64.6406 Q149.9688,65.3438 149.0156,65.3438 Q147.8594,65.3438 147.1406,63.9063 Q146.4219,62.4063 146.4219,59.9844 Q146.4219,57.4375 147.3125,56.0469 Q148.0625,54.9219 149.2031,54.9219 Q149.8594,54.9219 150.3594,55.4688 Q150.9219,56.0781 151.0469,57.1406 Q151.0938,57.8438 151.9219,57.7344 Q152.7031,57.625 152.6563,56.9375 Q152.4688,55.4219 151.7031,54.5469 Q150.7656,53.4844 149.0781,53.4844 Z "/><text fill="#000000" font-family="sans-serif" font-size="12" lengthAdjust="spacingAndGlyphs" textLength="73" x="169.75" y="65.6045">TestScenario</text><line style="stroke: #A80036; stroke-width: 1.5;" x1="33" x2="347" y1="76" y2="76"/><line style="stroke: #A80036; stroke-width: 1.5;" x1="33" x2="170" y1="91.5544" y2="91.5544"/><text fill="#008000" font-family="sans-serif" font-size="11" font-weight="bold" lengthAdjust="spacingAndGlyphs" textLength="40" x="170" y="96.1919">has list</text><line style="stroke: #A80036; stroke-width: 1.5;" x1="210" x2="347" y1="91.5544" y2="91.5544"/><line style="stroke: #A80036; stroke-width: 1.0; stroke-dasharray: 1.0,2.0;" x1="33" x2="177" y1="114.2178" y2="114.2178"/><text fill="#000000" font-family="sans-serif" font-size="11" lengthAdjust="spacingAndGlyphs" textLength="26" x="177" y="118.8552">class</text><line style="stroke: #A80036; stroke-width: 1.0; stroke-dasharray: 1.0,2.0;" x1="203" x2="347" y1="114.2178" y2="114.2178"/><text fill="#000000" font-family="sans-serif" font-size="11" lengthAdjust="spacingAndGlyphs" textLength="120" x="38" y="157.1274">Shop shop (455785638);</text><line style="stroke: #A80036; stroke-width: 1.0; stroke-dasharray: 1.0,2.0;" x1="33" x2="171" y1="136.8811" y2="136.8811"/><text fill="#000000" font-family="sans-serif" font-size="11" lengthAdjust="spacingAndGlyphs" textLength="38" x="171" y="141.5186">member</text><line style="stroke: #A80036; stroke-width: 1.0; stroke-dasharray: 1.0,2.0;" x1="209" x2="347" y1="136.8811" y2="136.8811"/><text fill="#000000" font-family="sans-serif" font-size="11" lengthAdjust="spacingAndGlyphs" textLength="125" x="38" y="191.3452">void Login() (741730375);</text><text fill="#000000" font-family="sans-serif" font-size="11" lengthAdjust="spacingAndGlyphs" textLength="167" x="38" y="206.4541">void Buy_Product() (2077528955);</text><text fill="#000000" font-family="sans-serif" font-size="11" lengthAdjust="spacingAndGlyphs" textLength="166" x="38" y="221.563">void Charge_Money() (35534346);</text><text fill="#000000" font-family="sans-serif" font-size="11" lengthAdjust="spacingAndGlyphs" textLength="168" x="38" y="236.6719">void Add_Product() (1537471098);</text><text fill="#000000" font-family="sans-serif" font-size="11" lengthAdjust="spacingAndGlyphs" textLength="162" x="38" y="251.7808">void Registration() (1490509465);</text><line style="stroke: #A80036; stroke-width: 1.0; stroke-dasharray: 1.0,2.0;" x1="33" x2="172.5" y1="171.0989" y2="171.0989"/><text fill="#000000" font-family="sans-serif" font-size="11" lengthAdjust="spacingAndGlyphs" textLength="35" x="172.5" y="175.7363">method</text><line style="stroke: #A80036; stroke-width: 1.0; stroke-dasharray: 1.0,2.0;" x1="207.5" x2="347" y1="171.0989" y2="171.0989"/><line style="stroke: #A80036; stroke-width: 1.5;" x1="33" x2="162.5" y1="265.7522" y2="265.7522"/><text fill="#0000FF" font-family="sans-serif" font-size="11" font-weight="bold" lengthAdjust="spacingAndGlyphs" textLength="55" x="162.5" y="270.3896">calling list</text><line style="stroke: #A80036; stroke-width: 1.5;" x1="217.5" x2="347" y1="265.7522" y2="265.7522"/><text fill="#000000" font-family="sans-serif" font-size="11" lengthAdjust="spacingAndGlyphs" textLength="93" x="38" y="308.6619">Shop (236304360);</text><line style="stroke: #A80036; stroke-width: 1.0; stroke-dasharray: 1.0,2.0;" x1="33" x2="177" y1="288.4155" y2="288.4155"/><text fill="#000000" font-family="sans-serif" font-size="11" lengthAdjust="spacingAndGlyphs" textLength="26" x="177" y="293.053">class</text><line style="stroke: #A80036; stroke-width: 1.0; stroke-dasharray: 1.0,2.0;" x1="203" x2="347" y1="288.4155" y2="288.4155"/><line style="stroke: #A80036; stroke-width: 1.0; stroke-dasharray: 1.0,2.0;" x1="33" x2="171" y1="322.6333" y2="322.6333"/><text fill="#000000" font-family="sans-serif" font-size="11" lengthAdjust="spacingAndGlyphs" textLength="38" x="171" y="327.2708">member</text><line style="stroke: #A80036; stroke-width: 1.0; stroke-dasharray: 1.0,2.0;" x1="209" x2="347" y1="322.6333" y2="322.6333"/><text fill="#000000" font-family="sans-serif" font-size="11" lengthAdjust="spacingAndGlyphs" textLength="284" x="38" y="365.543">User login(java.lang.String, java.lang.String) (1483298597);</text><text fill="#000000" font-family="sans-serif" font-size="11" lengthAdjust="spacingAndGlyphs" textLength="250" x="38" y="380.6519">boolean buy(shop.User, shop.Goods) (257608605);</text><text fill="#000000" font-family="sans-serif" font-size="11" lengthAdjust="spacingAndGlyphs" textLength="224" x="38" y="395.7607">boolean charge(shop.User, int) (1337192014);</text><text fill="#000000" font-family="sans-serif" font-size="11" lengthAdjust="spacingAndGlyphs" textLength="294" x="38" y="410.8696">void addGoods(shop.Goods, java.lang.String) (1567705314);</text><text fill="#000000" font-family="sans-serif" font-size="11" lengthAdjust="spacingAndGlyphs" textLength="304" x="38" y="425.9785">boolean regist(java.lang.String, java.lang.String) (1636050357);</text><line style="stroke: #A80036; stroke-width: 1.0; stroke-dasharray: 1.0,2.0;" x1="33" x2="172.5" y1="345.2966" y2="345.2966"/><text fill="#000000" font-family="sans-serif" font-size="11" lengthAdjust="spacingAndGlyphs" textLength="35" x="172.5" y="349.9341">method</text><line style="stroke: #A80036; stroke-width: 1.0; stroke-dasharray: 1.0,2.0;" x1="207.5" x2="347" y1="345.2966" y2="345.2966"/><line style="stroke: #A80036; stroke-width: 1.5;" x1="33" x2="156" y1="439.95" y2="439.95"/><text fill="#FFA500" font-family="sans-serif" font-size="11" font-weight="bold" lengthAdjust="spacingAndGlyphs" textLength="68" x="156" y="444.5874">called by list</text><line style="stroke: #A80036; stroke-width: 1.5;" x1="224" x2="347" y1="439.95" y2="439.95"/><line style="stroke: #A80036; stroke-width: 1.0; stroke-dasharray: 1.0,2.0;" x1="33" x2="177" y1="462.6133" y2="462.6133"/><text fill="#000000" font-family="sans-serif" font-size="11" lengthAdjust="spacingAndGlyphs" textLength="26" x="177" y="467.2507">class</text><line style="stroke: #A80036; stroke-width: 1.0; stroke-dasharray: 1.0,2.0;" x1="203" x2="347" y1="462.6133" y2="462.6133"/><line style="stroke: #A80036; stroke-width: 1.0; stroke-dasharray: 1.0,2.0;" x1="33" x2="171" y1="485.2766" y2="485.2766"/><text fill="#000000" font-family="sans-serif" font-size="11" lengthAdjust="spacingAndGlyphs" textLength="38" x="171" y="489.9141">member</text><line style="stroke: #A80036; stroke-width: 1.0; stroke-dasharray: 1.0,2.0;" x1="209" x2="347" y1="485.2766" y2="485.2766"/><line style="stroke: #A80036; stroke-width: 1.0; stroke-dasharray: 1.0,2.0;" x1="33" x2="172.5" y1="507.9399" y2="507.9399"/><text fill="#000000" font-family="sans-serif" font-size="11" lengthAdjust="spacingAndGlyphs" textLength="35" x="172.5" y="512.5774">method</text><line style="stroke: #A80036; stroke-width: 1.0; stroke-dasharray: 1.0,2.0;" x1="207.5" x2="347" y1="507.9399" y2="507.9399"/><!--MD5=[9a745b2252b61903eaf1dcaf770c07f4]
@startuml
class shopTest.TestScenario{
__**<color:green>has list</color>**__
..class..
..member..
	Shop shop (455785638);
..method..
	void Login() (741730375);
	void Buy_Product() (2077528955);
	void Charge_Money() (35534346);
	void Add_Product() (1537471098);
	void Registration() (1490509465);
__**<color:blue>calling list</color>**__
..class..
	Shop (236304360);
..member..
..method..
	User login(java.lang.String, java.lang.String) (1483298597);
	boolean buy(shop.User, shop.Goods) (257608605);
	boolean charge(shop.User, int) (1337192014);
	void addGoods(shop.Goods, java.lang.String) (1567705314);
	boolean regist(java.lang.String, java.lang.String) (1636050357);
__**<color:orange>called by list</color>**__
..class..
..member..
..method..
}

@enduml

PlantUML version 1.2020.19(Tue Oct 13 00:10:01 KST 2020)
(APACHE source distribution)
Java Runtime: Java(TM) SE Runtime Environment
JVM: Java HotSpot(TM) 64-Bit Server VM
Default Encoding: MS949
Language: ko
Country: KR
--></g></svg>