<?xml version="1.0" encoding="UTF-8" standalone="no"?><svg xmlns="http://www.w3.org/2000/svg" xmlns:xlink="http://www.w3.org/1999/xlink" contentScriptType="application/ecmascript" contentStyleType="text/css" height="1061px" preserveAspectRatio="none" style="width:756px;height:1061px;" version="1.1" viewBox="0 0 756 1061" width="756px" zoomAndPan="magnify"><defs><filter height="300%" id="fk2sx6iri70dl" width="300%" x="-1" y="-1"><feGaussianBlur result="blurOut" stdDeviation="2.0"/><feColorMatrix in="blurOut" result="blurOut2" type="matrix" values="0 0 0 0 0 0 0 0 0 0 0 0 0 0 0 0 0 0 .4 0"/><feOffset dx="4.0" dy="4.0" in="blurOut2" result="blurOut3"/><feBlend in="SourceGraphic" in2="blurOut3" mode="normal"/></filter></defs><g><!--MD5=[8c7841056de7e2bd87c68c51eef2a672]
cluster simple.Simple--><polygon fill="#FFFFFF" filter="url(#fk2sx6iri70dl)" points="16,6,119,6,126,31.2295,558,31.2295,558,1054,16,1054,16,6" style="stroke: #000000; stroke-width: 1.5;"/><line style="stroke: #000000; stroke-width: 1.5;" x1="16" x2="126" y1="31.2295" y2="31.2295"/><text fill="#000000" font-family="sans-serif" font-size="14" font-weight="bold" lengthAdjust="spacingAndGlyphs" textLength="97" x="20" y="24.1533">simple.Simple</text><!--MD5=[209788860d34f3159c1e51d2b70782fb]
class simple.Simple.Simple22600334--><rect codeLine="23" fill="#FEFECE" filter="url(#fk2sx6iri70dl)" height="467.0488" id="simple.Simple.Simple22600334" style="stroke: #008000; stroke-width: 1.5;" width="237" x="32.5" y="44"/><ellipse cx="116.75" cy="60" fill="#ADD1B2" rx="11" ry="11" style="stroke: #008000; stroke-width: 1.0;"/><path d="M116.5781,53.4844 Q114.7031,53.4844 113.5469,55.2344 Q112.3594,57.0156 112.3594,60.0156 Q112.3594,63.3906 113.5625,65.1563 Q114.625,66.7813 116.375,66.7813 Q118.0625,66.7813 119.0156,65.875 Q120.0781,64.8594 120.2188,62.625 Q120.2188,62.2031 119.9844,61.9688 Q119.7969,61.7344 119.4531,61.7031 Q119.125,61.7031 118.8906,61.8906 Q118.625,62.125 118.625,62.5156 Q118.5938,63.9063 118,64.6406 Q117.4688,65.3438 116.5156,65.3438 Q115.3594,65.3438 114.6406,63.9063 Q113.9219,62.4063 113.9219,59.9844 Q113.9219,57.4375 114.8125,56.0469 Q115.5625,54.9219 116.7031,54.9219 Q117.3594,54.9219 117.8594,55.4688 Q118.4219,56.0781 118.5469,57.1406 Q118.5938,57.8438 119.4219,57.7344 Q120.2031,57.625 120.1563,56.9375 Q119.9688,55.4219 119.2031,54.5469 Q118.2656,53.4844 116.5781,53.4844 Z "/><text fill="#000000" font-family="sans-serif" font-size="12" lengthAdjust="spacingAndGlyphs" textLength="60" x="137.25" y="65.6045">Simple(int)</text><line style="stroke: #008000; stroke-width: 1.5;" x1="33.5" x2="268.5" y1="76" y2="76"/><text fill="#000000" font-family="sans-serif" font-size="11" lengthAdjust="spacingAndGlyphs" textLength="55" x="38.5" y="92.6919">pram : (int )</text><text fill="#000000" font-family="sans-serif" font-size="11" lengthAdjust="spacingAndGlyphs" textLength="168" x="38.5" y="107.8008">SrcOwnClassName : simple.Simple</text><text fill="#000000" font-family="sans-serif" font-size="11" lengthAdjust="spacingAndGlyphs" textLength="158" x="38.5" y="122.9097">SrcSig : simple.Simple.Simple(int)</text><text fill="#000000" font-family="sans-serif" font-size="11" lengthAdjust="spacingAndGlyphs" textLength="74" x="38.5" y="138.0186">Sig : Simple(int)</text><text fill="#000000" font-family="sans-serif" font-size="11" lengthAdjust="spacingAndGlyphs" textLength="96" x="38.5" y="172.2363">parameter Score : 1</text><text fill="#000000" font-family="sans-serif" font-size="11" lengthAdjust="spacingAndGlyphs" textLength="90" x="38.5" y="187.3452">classCall Score : 0</text><text fill="#000000" font-family="sans-serif" font-size="11" lengthAdjust="spacingAndGlyphs" textLength="64" x="38.5" y="202.4541">Call Score : 0</text><text fill="#000000" font-family="sans-serif" font-size="11" lengthAdjust="spacingAndGlyphs" textLength="77" x="38.5" y="217.563">CallBy Score : 2</text><text fill="#000000" font-family="sans-serif" font-size="11" lengthAdjust="spacingAndGlyphs" textLength="104" x="38.5" y="232.6719">memberUse Score : 0</text><text fill="#000000" font-family="sans-serif" font-size="11" lengthAdjust="spacingAndGlyphs" textLength="97" x="38.5" y="247.7808">localValue Score : 1</text><text fill="#000000" font-family="sans-serif" font-size="11" lengthAdjust="spacingAndGlyphs" textLength="65" x="38.5" y="262.8896">exp Score : 0</text><text fill="#000000" font-family="sans-serif" font-size="11" lengthAdjust="spacingAndGlyphs" textLength="78" x="38.5" y="277.9985">repeat Score : 0</text><text fill="#000000" font-family="sans-serif" font-size="11" lengthAdjust="spacingAndGlyphs" textLength="81" x="38.5" y="293.1074">brench Score : 0</text><text fill="#000000" font-family="sans-serif" font-size="11" lengthAdjust="spacingAndGlyphs" textLength="80" x="38.5" y="308.2163">callCountNum : 0</text><text fill="#000000" font-family="sans-serif" font-size="11" lengthAdjust="spacingAndGlyphs" textLength="66" x="38.5" y="323.3252">cyclomatic : 1</text><text fill="#000000" font-family="sans-serif" font-size="11" lengthAdjust="spacingAndGlyphs" textLength="105" x="38.5" y="338.4341">State Node lineNum: 5</text><text fill="#000000" font-family="sans-serif" font-size="11" lengthAdjust="spacingAndGlyphs" textLength="92" x="38.5" y="353.543">State Node Num : 0</text><text fill="#000000" font-family="sans-serif" font-size="11" lengthAdjust="spacingAndGlyphs" textLength="122" x="38.5" y="368.6519">State Node callListSize: 0</text><text fill="#000000" font-family="sans-serif" font-size="11" lengthAdjust="spacingAndGlyphs" textLength="123" x="38.5" y="383.7607">State Node repeatSize : 0</text><text fill="#000000" font-family="sans-serif" font-size="11" lengthAdjust="spacingAndGlyphs" textLength="117" x="38.5" y="398.8696">State Node writeSize : 0</text><text fill="#000000" font-family="sans-serif" font-size="11" lengthAdjust="spacingAndGlyphs" textLength="114" x="38.5" y="413.9785">State Node bifurSize : 0</text><text fill="#000000" font-family="sans-serif" font-size="11" lengthAdjust="spacingAndGlyphs" textLength="225" x="38.5" y="429.0874">Calculated Estunated Program Length: 23.5098</text><text fill="#000000" font-family="sans-serif" font-size="11" lengthAdjust="spacingAndGlyphs" textLength="84" x="38.5" y="444.1963">Volume : 59.7947</text><text fill="#000000" font-family="sans-serif" font-size="11" lengthAdjust="spacingAndGlyphs" textLength="58" x="38.5" y="459.3052">Diffifculty: 6</text><text fill="#000000" font-family="sans-serif" font-size="11" lengthAdjust="spacingAndGlyphs" textLength="81" x="38.5" y="474.4141">Effort : 358.7682</text><text fill="#000000" font-family="sans-serif" font-size="11" lengthAdjust="spacingAndGlyphs" textLength="69" x="38.5" y="489.5229">ABS Score : 1</text><text fill="#000000" font-family="sans-serif" font-size="11" lengthAdjust="spacingAndGlyphs" textLength="85" x="38.5" y="504.6318">Relative Score : 1</text><line style="stroke: #008000; stroke-width: 1.5;" x1="33.5" x2="114.5" y1="151.99" y2="151.99"/><text fill="#FFA500" font-family="sans-serif" font-size="11" font-weight="bold" lengthAdjust="spacingAndGlyphs" textLength="73" x="114.5" y="156.6274">Complex Info</text><line style="stroke: #008000; stroke-width: 1.5;" x1="187.5" x2="268.5" y1="151.99" y2="151.99"/><!--MD5=[c81498393c310852061847ed317aae02]
class simple.Simple.get1202683709--><rect codeLine="54" fill="#FEFECE" filter="url(#fk2sx6iri70dl)" height="467.0488" id="simple.Simple.get1202683709" style="stroke: #008000; stroke-width: 1.5;" width="204" x="305" y="44"/><ellipse cx="383.75" cy="60" fill="#ADD1B2" rx="11" ry="11" style="stroke: #008000; stroke-width: 1.0;"/><path d="M383.5781,53.4844 Q381.7031,53.4844 380.5469,55.2344 Q379.3594,57.0156 379.3594,60.0156 Q379.3594,63.3906 380.5625,65.1563 Q381.625,66.7813 383.375,66.7813 Q385.0625,66.7813 386.0156,65.875 Q387.0781,64.8594 387.2188,62.625 Q387.2188,62.2031 386.9844,61.9688 Q386.7969,61.7344 386.4531,61.7031 Q386.125,61.7031 385.8906,61.8906 Q385.625,62.125 385.625,62.5156 Q385.5938,63.9063 385,64.6406 Q384.4688,65.3438 383.5156,65.3438 Q382.3594,65.3438 381.6406,63.9063 Q380.9219,62.4063 380.9219,59.9844 Q380.9219,57.4375 381.8125,56.0469 Q382.5625,54.9219 383.7031,54.9219 Q384.3594,54.9219 384.8594,55.4688 Q385.4219,56.0781 385.5469,57.1406 Q385.5938,57.8438 386.4219,57.7344 Q387.2031,57.625 387.1563,56.9375 Q386.9688,55.4219 386.2031,54.5469 Q385.2656,53.4844 383.5781,53.4844 Z "/><text fill="#000000" font-family="sans-serif" font-size="12" lengthAdjust="spacingAndGlyphs" textLength="38" x="404.25" y="65.6045">get(int)</text><line style="stroke: #008000; stroke-width: 1.5;" x1="306" x2="508" y1="76" y2="76"/><text fill="#000000" font-family="sans-serif" font-size="11" lengthAdjust="spacingAndGlyphs" textLength="55" x="311" y="92.6919">pram : (int )</text><text fill="#000000" font-family="sans-serif" font-size="11" lengthAdjust="spacingAndGlyphs" textLength="168" x="311" y="107.8008">SrcOwnClassName : simple.Simple</text><text fill="#000000" font-family="sans-serif" font-size="11" lengthAdjust="spacingAndGlyphs" textLength="142" x="311" y="122.9097">SrcSig : simple.Simple.get(int)</text><text fill="#000000" font-family="sans-serif" font-size="11" lengthAdjust="spacingAndGlyphs" textLength="58" x="311" y="138.0186">Sig : get(int)</text><text fill="#000000" font-family="sans-serif" font-size="11" lengthAdjust="spacingAndGlyphs" textLength="96" x="311" y="172.2363">parameter Score : 1</text><text fill="#000000" font-family="sans-serif" font-size="11" lengthAdjust="spacingAndGlyphs" textLength="90" x="311" y="187.3452">classCall Score : 0</text><text fill="#000000" font-family="sans-serif" font-size="11" lengthAdjust="spacingAndGlyphs" textLength="64" x="311" y="202.4541">Call Score : 0</text><text fill="#000000" font-family="sans-serif" font-size="11" lengthAdjust="spacingAndGlyphs" textLength="77" x="311" y="217.563">CallBy Score : 2</text><text fill="#000000" font-family="sans-serif" font-size="11" lengthAdjust="spacingAndGlyphs" textLength="104" x="311" y="232.6719">memberUse Score : 0</text><text fill="#000000" font-family="sans-serif" font-size="11" lengthAdjust="spacingAndGlyphs" textLength="97" x="311" y="247.7808">localValue Score : 1</text><text fill="#000000" font-family="sans-serif" font-size="11" lengthAdjust="spacingAndGlyphs" textLength="65" x="311" y="262.8896">exp Score : 0</text><text fill="#000000" font-family="sans-serif" font-size="11" lengthAdjust="spacingAndGlyphs" textLength="78" x="311" y="277.9985">repeat Score : 0</text><text fill="#000000" font-family="sans-serif" font-size="11" lengthAdjust="spacingAndGlyphs" textLength="81" x="311" y="293.1074">brench Score : 0</text><text fill="#000000" font-family="sans-serif" font-size="11" lengthAdjust="spacingAndGlyphs" textLength="80" x="311" y="308.2163">callCountNum : 0</text><text fill="#000000" font-family="sans-serif" font-size="11" lengthAdjust="spacingAndGlyphs" textLength="66" x="311" y="323.3252">cyclomatic : 1</text><text fill="#000000" font-family="sans-serif" font-size="11" lengthAdjust="spacingAndGlyphs" textLength="105" x="311" y="338.4341">State Node lineNum: 1</text><text fill="#000000" font-family="sans-serif" font-size="11" lengthAdjust="spacingAndGlyphs" textLength="92" x="311" y="353.543">State Node Num : 0</text><text fill="#000000" font-family="sans-serif" font-size="11" lengthAdjust="spacingAndGlyphs" textLength="122" x="311" y="368.6519">State Node callListSize: 0</text><text fill="#000000" font-family="sans-serif" font-size="11" lengthAdjust="spacingAndGlyphs" textLength="123" x="311" y="383.7607">State Node repeatSize : 0</text><text fill="#000000" font-family="sans-serif" font-size="11" lengthAdjust="spacingAndGlyphs" textLength="117" x="311" y="398.8696">State Node writeSize : 0</text><text fill="#000000" font-family="sans-serif" font-size="11" lengthAdjust="spacingAndGlyphs" textLength="114" x="311" y="413.9785">State Node bifurSize : 0</text><text fill="#000000" font-family="sans-serif" font-size="11" lengthAdjust="spacingAndGlyphs" textLength="192" x="311" y="429.0874">Calculated Estunated Program Length: 8</text><text fill="#000000" font-family="sans-serif" font-size="11" lengthAdjust="spacingAndGlyphs" textLength="84" x="311" y="444.1963">Volume : 16.2535</text><text fill="#000000" font-family="sans-serif" font-size="11" lengthAdjust="spacingAndGlyphs" textLength="58" x="311" y="459.3052">Diffifculty: 6</text><text fill="#000000" font-family="sans-serif" font-size="11" lengthAdjust="spacingAndGlyphs" textLength="69" x="311" y="474.4141">Effort : 97.521</text><text fill="#000000" font-family="sans-serif" font-size="11" lengthAdjust="spacingAndGlyphs" textLength="69" x="311" y="489.5229">ABS Score : 1</text><text fill="#000000" font-family="sans-serif" font-size="11" lengthAdjust="spacingAndGlyphs" textLength="85" x="311" y="504.6318">Relative Score : 1</text><line style="stroke: #008000; stroke-width: 1.5;" x1="306" x2="370.5" y1="151.99" y2="151.99"/><text fill="#FFA500" font-family="sans-serif" font-size="11" font-weight="bold" lengthAdjust="spacingAndGlyphs" textLength="73" x="370.5" y="156.6274">Complex Info</text><line style="stroke: #008000; stroke-width: 1.5;" x1="443.5" x2="508" y1="151.99" y2="151.99"/><!--MD5=[146ccdb6e66f9cc845cb2dadbbdecff4]
class simple.Simple.test2087885397--><rect codeLine="85" fill="#FEFECE" filter="url(#fk2sx6iri70dl)" height="467.0488" id="simple.Simple.test2087885397" style="stroke: #008000; stroke-width: 1.5;" width="237" x="32.5" y="571"/><ellipse cx="132.75" cy="587" fill="#ADD1B2" rx="11" ry="11" style="stroke: #008000; stroke-width: 1.0;"/><path d="M132.5781,580.4844 Q130.7031,580.4844 129.5469,582.2344 Q128.3594,584.0156 128.3594,587.0156 Q128.3594,590.3906 129.5625,592.1563 Q130.625,593.7813 132.375,593.7813 Q134.0625,593.7813 135.0156,592.875 Q136.0781,591.8594 136.2188,589.625 Q136.2188,589.2031 135.9844,588.9688 Q135.7969,588.7344 135.4531,588.7031 Q135.125,588.7031 134.8906,588.8906 Q134.625,589.125 134.625,589.5156 Q134.5938,590.9063 134,591.6406 Q133.4688,592.3438 132.5156,592.3438 Q131.3594,592.3438 130.6406,590.9063 Q129.9219,589.4063 129.9219,586.9844 Q129.9219,584.4375 130.8125,583.0469 Q131.5625,581.9219 132.7031,581.9219 Q133.3594,581.9219 133.8594,582.4688 Q134.4219,583.0781 134.5469,584.1406 Q134.5938,584.8438 135.4219,584.7344 Q136.2031,584.625 136.1563,583.9375 Q135.9688,582.4219 135.2031,581.5469 Q134.2656,580.4844 132.5781,580.4844 Z "/><text fill="#000000" font-family="sans-serif" font-size="12" lengthAdjust="spacingAndGlyphs" textLength="28" x="153.25" y="592.6045">test()</text><line style="stroke: #008000; stroke-width: 1.5;" x1="33.5" x2="268.5" y1="603" y2="603"/><text fill="#000000" font-family="sans-serif" font-size="11" lengthAdjust="spacingAndGlyphs" textLength="44" x="38.5" y="619.6919">pram : ( )</text><text fill="#000000" font-family="sans-serif" font-size="11" lengthAdjust="spacingAndGlyphs" textLength="168" x="38.5" y="634.8008">SrcOwnClassName : simple.Simple</text><text fill="#000000" font-family="sans-serif" font-size="11" lengthAdjust="spacingAndGlyphs" textLength="134" x="38.5" y="649.9097">SrcSig : simple.Simple.test()</text><text fill="#000000" font-family="sans-serif" font-size="11" lengthAdjust="spacingAndGlyphs" textLength="50" x="38.5" y="665.0186">Sig : test()</text><text fill="#000000" font-family="sans-serif" font-size="11" lengthAdjust="spacingAndGlyphs" textLength="96" x="38.5" y="699.2363">parameter Score : 0</text><text fill="#000000" font-family="sans-serif" font-size="11" lengthAdjust="spacingAndGlyphs" textLength="90" x="38.5" y="714.3452">classCall Score : 2</text><text fill="#000000" font-family="sans-serif" font-size="11" lengthAdjust="spacingAndGlyphs" textLength="64" x="38.5" y="729.4541">Call Score : 4</text><text fill="#000000" font-family="sans-serif" font-size="11" lengthAdjust="spacingAndGlyphs" textLength="77" x="38.5" y="744.563">CallBy Score : 0</text><text fill="#000000" font-family="sans-serif" font-size="11" lengthAdjust="spacingAndGlyphs" textLength="104" x="38.5" y="759.6719">memberUse Score : 0</text><text fill="#000000" font-family="sans-serif" font-size="11" lengthAdjust="spacingAndGlyphs" textLength="97" x="38.5" y="774.7808">localValue Score : 1</text><text fill="#000000" font-family="sans-serif" font-size="11" lengthAdjust="spacingAndGlyphs" textLength="65" x="38.5" y="789.8896">exp Score : 0</text><text fill="#000000" font-family="sans-serif" font-size="11" lengthAdjust="spacingAndGlyphs" textLength="78" x="38.5" y="804.9985">repeat Score : 0</text><text fill="#000000" font-family="sans-serif" font-size="11" lengthAdjust="spacingAndGlyphs" textLength="81" x="38.5" y="820.1074">brench Score : 0</text><text fill="#000000" font-family="sans-serif" font-size="11" lengthAdjust="spacingAndGlyphs" textLength="80" x="38.5" y="835.2163">callCountNum : 2</text><text fill="#000000" font-family="sans-serif" font-size="11" lengthAdjust="spacingAndGlyphs" textLength="66" x="38.5" y="850.3252">cyclomatic : 1</text><text fill="#000000" font-family="sans-serif" font-size="11" lengthAdjust="spacingAndGlyphs" textLength="105" x="38.5" y="865.4341">State Node lineNum: 1</text><text fill="#000000" font-family="sans-serif" font-size="11" lengthAdjust="spacingAndGlyphs" textLength="92" x="38.5" y="880.543">State Node Num : 0</text><text fill="#000000" font-family="sans-serif" font-size="11" lengthAdjust="spacingAndGlyphs" textLength="122" x="38.5" y="895.6519">State Node callListSize: 1</text><text fill="#000000" font-family="sans-serif" font-size="11" lengthAdjust="spacingAndGlyphs" textLength="123" x="38.5" y="910.7607">State Node repeatSize : 0</text><text fill="#000000" font-family="sans-serif" font-size="11" lengthAdjust="spacingAndGlyphs" textLength="117" x="38.5" y="925.8696">State Node writeSize : 0</text><text fill="#000000" font-family="sans-serif" font-size="11" lengthAdjust="spacingAndGlyphs" textLength="114" x="38.5" y="940.9785">State Node bifurSize : 0</text><text fill="#000000" font-family="sans-serif" font-size="11" lengthAdjust="spacingAndGlyphs" textLength="225" x="38.5" y="956.0874">Calculated Estunated Program Length: 17.5098</text><text fill="#000000" font-family="sans-serif" font-size="11" lengthAdjust="spacingAndGlyphs" textLength="57" x="38.5" y="971.1963">Volume : 24</text><text fill="#000000" font-family="sans-serif" font-size="11" lengthAdjust="spacingAndGlyphs" textLength="58" x="38.5" y="986.3052">Diffifculty: 3</text><text fill="#000000" font-family="sans-serif" font-size="11" lengthAdjust="spacingAndGlyphs" textLength="48" x="38.5" y="1001.4141">Effort : 72</text><text fill="#000000" font-family="sans-serif" font-size="11" lengthAdjust="spacingAndGlyphs" textLength="69" x="38.5" y="1016.5229">ABS Score : 4</text><text fill="#000000" font-family="sans-serif" font-size="11" lengthAdjust="spacingAndGlyphs" textLength="85" x="38.5" y="1031.6318">Relative Score : 4</text><line style="stroke: #008000; stroke-width: 1.5;" x1="33.5" x2="114.5" y1="678.99" y2="678.99"/><text fill="#FFA500" font-family="sans-serif" font-size="11" font-weight="bold" lengthAdjust="spacingAndGlyphs" textLength="73" x="114.5" y="683.6274">Complex Info</text><line style="stroke: #008000; stroke-width: 1.5;" x1="187.5" x2="268.5" y1="678.99" y2="678.99"/><!--MD5=[c977a53e8cc830af951a34769c9939d5]
class simple.Simple.main1002021887--><rect codeLine="116" fill="#FA8072" filter="url(#fk2sx6iri70dl)" height="467.0488" id="simple.Simple.main1002021887" style="stroke: #A80036; stroke-width: 1.5;" width="237" x="304.5" y="571"/><ellipse cx="355.75" cy="587" fill="#ADD1B2" rx="11" ry="11" style="stroke: #A80036; stroke-width: 1.0;"/><path d="M355.5781,580.4844 Q353.7031,580.4844 352.5469,582.2344 Q351.3594,584.0156 351.3594,587.0156 Q351.3594,590.3906 352.5625,592.1563 Q353.625,593.7813 355.375,593.7813 Q357.0625,593.7813 358.0156,592.875 Q359.0781,591.8594 359.2188,589.625 Q359.2188,589.2031 358.9844,588.9688 Q358.7969,588.7344 358.4531,588.7031 Q358.125,588.7031 357.8906,588.8906 Q357.625,589.125 357.625,589.5156 Q357.5938,590.9063 357,591.6406 Q356.4688,592.3438 355.5156,592.3438 Q354.3594,592.3438 353.6406,590.9063 Q352.9219,589.4063 352.9219,586.9844 Q352.9219,584.4375 353.8125,583.0469 Q354.5625,581.9219 355.7031,581.9219 Q356.3594,581.9219 356.8594,582.4688 Q357.4219,583.0781 357.5469,584.1406 Q357.5938,584.8438 358.4219,584.7344 Q359.2031,584.625 359.1563,583.9375 Q358.9688,582.4219 358.2031,581.5469 Q357.2656,580.4844 355.5781,580.4844 Z "/><text fill="#000000" font-family="sans-serif" font-size="12" lengthAdjust="spacingAndGlyphs" textLength="126" x="376.25" y="592.6045">main(java.lang.String[])</text><line style="stroke: #A80036; stroke-width: 1.5;" x1="305.5" x2="540.5" y1="603" y2="603"/><text fill="#000000" font-family="sans-serif" font-size="11" lengthAdjust="spacingAndGlyphs" textLength="124" x="310.5" y="619.6919">pram : (java.lang.String[] )</text><text fill="#000000" font-family="sans-serif" font-size="11" lengthAdjust="spacingAndGlyphs" textLength="168" x="310.5" y="634.8008">SrcOwnClassName : simple.Simple</text><text fill="#000000" font-family="sans-serif" font-size="11" lengthAdjust="spacingAndGlyphs" textLength="218" x="310.5" y="649.9097">SrcSig : simple.Simple.main(java.lang.String[])</text><text fill="#000000" font-family="sans-serif" font-size="11" lengthAdjust="spacingAndGlyphs" textLength="134" x="310.5" y="665.0186">Sig : main(java.lang.String[])</text><text fill="#000000" font-family="sans-serif" font-size="11" lengthAdjust="spacingAndGlyphs" textLength="96" x="310.5" y="699.2363">parameter Score : 2</text><text fill="#000000" font-family="sans-serif" font-size="11" lengthAdjust="spacingAndGlyphs" textLength="90" x="310.5" y="714.3452">classCall Score : 5</text><text fill="#000000" font-family="sans-serif" font-size="11" lengthAdjust="spacingAndGlyphs" textLength="64" x="310.5" y="729.4541">Call Score : 8</text><text fill="#000000" font-family="sans-serif" font-size="11" lengthAdjust="spacingAndGlyphs" textLength="77" x="310.5" y="744.563">CallBy Score : 3</text><text fill="#000000" font-family="sans-serif" font-size="11" lengthAdjust="spacingAndGlyphs" textLength="104" x="310.5" y="759.6719">memberUse Score : 1</text><text fill="#000000" font-family="sans-serif" font-size="11" lengthAdjust="spacingAndGlyphs" textLength="97" x="310.5" y="774.7808">localValue Score : 3</text><text fill="#000000" font-family="sans-serif" font-size="11" lengthAdjust="spacingAndGlyphs" textLength="65" x="310.5" y="789.8896">exp Score : 0</text><text fill="#000000" font-family="sans-serif" font-size="11" lengthAdjust="spacingAndGlyphs" textLength="78" x="310.5" y="804.9985">repeat Score : 0</text><text fill="#000000" font-family="sans-serif" font-size="11" lengthAdjust="spacingAndGlyphs" textLength="81" x="310.5" y="820.1074">brench Score : 0</text><text fill="#000000" font-family="sans-serif" font-size="11" lengthAdjust="spacingAndGlyphs" textLength="80" x="310.5" y="835.2163">callCountNum : 5</text><text fill="#000000" font-family="sans-serif" font-size="11" lengthAdjust="spacingAndGlyphs" textLength="66" x="310.5" y="850.3252">cyclomatic : 1</text><text fill="#000000" font-family="sans-serif" font-size="11" lengthAdjust="spacingAndGlyphs" textLength="105" x="310.5" y="865.4341">State Node lineNum: 2</text><text fill="#000000" font-family="sans-serif" font-size="11" lengthAdjust="spacingAndGlyphs" textLength="92" x="310.5" y="880.543">State Node Num : 0</text><text fill="#000000" font-family="sans-serif" font-size="11" lengthAdjust="spacingAndGlyphs" textLength="122" x="310.5" y="895.6519">State Node callListSize: 1</text><text fill="#000000" font-family="sans-serif" font-size="11" lengthAdjust="spacingAndGlyphs" textLength="123" x="310.5" y="910.7607">State Node repeatSize : 0</text><text fill="#000000" font-family="sans-serif" font-size="11" lengthAdjust="spacingAndGlyphs" textLength="117" x="310.5" y="925.8696">State Node writeSize : 0</text><text fill="#000000" font-family="sans-serif" font-size="11" lengthAdjust="spacingAndGlyphs" textLength="114" x="310.5" y="940.9785">State Node bifurSize : 0</text><text fill="#000000" font-family="sans-serif" font-size="11" lengthAdjust="spacingAndGlyphs" textLength="225" x="310.5" y="956.0874">Calculated Estunated Program Length: 35.1613</text><text fill="#000000" font-family="sans-serif" font-size="11" lengthAdjust="spacingAndGlyphs" textLength="78" x="310.5" y="971.1963">Volume : 59.207</text><text fill="#000000" font-family="sans-serif" font-size="11" lengthAdjust="spacingAndGlyphs" textLength="85" x="310.5" y="986.3052">Diffifculty: 3.4286</text><text fill="#000000" font-family="sans-serif" font-size="11" lengthAdjust="spacingAndGlyphs" textLength="81" x="310.5" y="1001.4141">Effort : 202.9956</text><text fill="#000000" font-family="sans-serif" font-size="11" lengthAdjust="spacingAndGlyphs" textLength="75" x="310.5" y="1016.5229">ABS Score : 10</text><text fill="#000000" font-family="sans-serif" font-size="11" lengthAdjust="spacingAndGlyphs" textLength="85" x="310.5" y="1031.6318">Relative Score : 5</text><line style="stroke: #A80036; stroke-width: 1.5;" x1="305.5" x2="386.5" y1="678.99" y2="678.99"/><text fill="#FFA500" font-family="sans-serif" font-size="11" font-weight="bold" lengthAdjust="spacingAndGlyphs" textLength="73" x="386.5" y="683.6274">Complex Info</text><line style="stroke: #A80036; stroke-width: 1.5;" x1="459.5" x2="540.5" y1="678.99" y2="678.99"/><!--MD5=[f04bc90bf33944b7fab332a83ab18852]
class ClassComplex--><rect codeLine="1" fill="#FEFECE" filter="url(#fk2sx6iri70dl)" height="335.0688" id="ClassComplex" style="stroke: #A80036; stroke-width: 1.5;" width="168" x="574" y="110"/><ellipse cx="613.3" cy="126" fill="#ADD1B2" rx="11" ry="11" style="stroke: #A80036; stroke-width: 1.0;"/><path d="M613.1281,119.4844 Q611.2531,119.4844 610.0969,121.2344 Q608.9094,123.0156 608.9094,126.0156 Q608.9094,129.3906 610.1125,131.1563 Q611.175,132.7813 612.925,132.7813 Q614.6125,132.7813 615.5656,131.875 Q616.6281,130.8594 616.7688,128.625 Q616.7688,128.2031 616.5344,127.9688 Q616.3469,127.7344 616.0031,127.7031 Q615.675,127.7031 615.4406,127.8906 Q615.175,128.125 615.175,128.5156 Q615.1438,129.9063 614.55,130.6406 Q614.0188,131.3438 613.0656,131.3438 Q611.9094,131.3438 611.1906,129.9063 Q610.4719,128.4063 610.4719,125.9844 Q610.4719,123.4375 611.3625,122.0469 Q612.1125,120.9219 613.2531,120.9219 Q613.9094,120.9219 614.4094,121.4688 Q614.9719,122.0781 615.0969,123.1406 Q615.1438,123.8438 615.9719,123.7344 Q616.7531,123.625 616.7063,122.9375 Q616.5188,121.4219 615.7531,120.5469 Q614.8156,119.4844 613.1281,119.4844 Z "/><text fill="#000000" font-family="sans-serif" font-size="12" lengthAdjust="spacingAndGlyphs" textLength="82" x="632.7" y="131.6045">ClassComplex</text><line style="stroke: #A80036; stroke-width: 1.5;" x1="575" x2="741" y1="142" y2="142"/><text fill="#000000" font-family="sans-serif" font-size="11" lengthAdjust="spacingAndGlyphs" textLength="79" x="580" y="177.8008">memberScor = 1</text><text fill="#000000" font-family="sans-serif" font-size="11" lengthAdjust="spacingAndGlyphs" textLength="113" x="580" y="192.9097">extendsClassScore = 0</text><text fill="#000000" font-family="sans-serif" font-size="11" lengthAdjust="spacingAndGlyphs" textLength="69" x="580" y="208.0186">callScore = 11</text><text fill="#000000" font-family="sans-serif" font-size="11" lengthAdjust="spacingAndGlyphs" textLength="82" x="580" y="223.1274">callByScore = 11</text><text fill="#000000" font-family="sans-serif" font-size="11" lengthAdjust="spacingAndGlyphs" textLength="74" x="580" y="238.2363">methodNum = 4</text><text fill="#000000" font-family="sans-serif" font-size="11" lengthAdjust="spacingAndGlyphs" textLength="77" x="580" y="253.3452">memberNum = 1</text><text fill="#000000" font-family="sans-serif" font-size="11" lengthAdjust="spacingAndGlyphs" textLength="95" x="580" y="268.4541">constructorNum = 1</text><text fill="#000000" font-family="sans-serif" font-size="11" lengthAdjust="spacingAndGlyphs" textLength="83" x="580" y="283.563">selfCoverage = 2</text><text fill="#000000" font-family="sans-serif" font-size="11" lengthAdjust="spacingAndGlyphs" textLength="72" x="580" y="298.6719">needCallBy = 3</text><text fill="#000000" font-family="sans-serif" font-size="11" lengthAdjust="spacingAndGlyphs" textLength="46" x="580" y="313.7808">ABS = 28</text><text fill="#000000" font-family="sans-serif" font-size="11" lengthAdjust="spacingAndGlyphs" textLength="37" x="580" y="328.8896">REL = 5</text><text fill="#000000" font-family="sans-serif" font-size="11" lengthAdjust="spacingAndGlyphs" textLength="89" x="580" y="343.9985">coverage = 40.0%</text><line style="stroke: #A80036; stroke-width: 1.5;" x1="575" x2="621.5" y1="157.5544" y2="157.5544"/><text fill="#FFA500" font-family="sans-serif" font-size="11" font-weight="bold" lengthAdjust="spacingAndGlyphs" textLength="73" x="621.5" y="162.1919">Complex Info</text><line style="stroke: #A80036; stroke-width: 1.5;" x1="694.5" x2="741" y1="157.5544" y2="157.5544"/><text fill="#008000" font-family="sans-serif" font-size="11" lengthAdjust="spacingAndGlyphs" textLength="33" x="580" y="378.2163">int i (1)</text><text fill="#008000" font-family="sans-serif" font-size="11" lengthAdjust="spacingAndGlyphs" textLength="92" x="580" y="393.3252">new Simple(int) (1)</text><text fill="#008000" font-family="sans-serif" font-size="11" lengthAdjust="spacingAndGlyphs" textLength="65" x="580" y="408.4341">int get(int) (1)</text><text fill="#008000" font-family="sans-serif" font-size="11" lengthAdjust="spacingAndGlyphs" textLength="66" x="580" y="423.543">void test() (4)</text><text fill="#FF0000" font-family="sans-serif" font-size="11" lengthAdjust="spacingAndGlyphs" textLength="156" x="580" y="438.6519">void main(java.lang.String[]) (10)</text><line style="stroke: #A80036; stroke-width: 1.5;" x1="575" x2="638" y1="357.97" y2="357.97"/><text fill="#008000" font-family="sans-serif" font-size="11" font-weight="bold" lengthAdjust="spacingAndGlyphs" textLength="40" x="638" y="362.6074">has list</text><line style="stroke: #A80036; stroke-width: 1.5;" x1="678" x2="741" y1="357.97" y2="357.97"/><!--MD5=[0519359539733d14af52e89bc186c11b]
link simple.Simple.Simple22600334 to simple.Simple.get1202683709--><!--MD5=[37e14d088365e197a8ac53e57d8f7dfa]
link simple.Simple.Simple22600334 to simple.Simple.test2087885397--><!--MD5=[43f2819d17bbced6610fe8704f7c26c5]
link simple.Simple.test2087885397 to simple.Simple.main1002021887--><!--MD5=[9296521cc38aa10dd18ee9310d53f4ee]
@startuml
class ClassComplex{
__**<color:orange>Complex Info</color>**__
	memberScor = 1
	extendsClassScore = 0
	callScore = 11
	callByScore = 11
	methodNum = 4
	memberNum = 1
	constructorNum = 1
	selfCoverage = 2
	needCallBy = 3
	ABS = 28
	REL = 5
	coverage = 40.0%
__**<color:green>has list</color>**__
	<color:green>int i (1)
	<color:green>new Simple(int) (1)
	<color:green>int get(int) (1)
	<color:green>void test() (4)
	<color:red>void main(java.lang.String[]) (10)
}

class simple.Simple.Simple22600334 as "Simple(int)"#line:green 
{
	pram : (int )
	SrcOwnClassName : simple.Simple
	SrcSig : simple.Simple.Simple(int)
	Sig : Simple(int)
	__**<color:orange>Complex Info</color>**__
	parameter Score : 1
	classCall Score : 0
	Call Score : 0
	CallBy Score : 2
	memberUse Score : 0
	localValue Score : 1
	exp Score : 0
	repeat Score : 0
	brench Score : 0
	callCountNum : 0
	cyclomatic : 1
	State Node lineNum: 5
	State Node Num : 0
	State Node callListSize: 0
	State Node repeatSize : 0
	State Node writeSize : 0
	State Node bifurSize : 0
	Calculated Estunated Program Length: 23.5098
	Volume : 59.7947
	Diffifculty: 6
	Effort : 358.7682
	ABS Score : 1
	Relative Score : 1
}
class simple.Simple.get1202683709 as "get(int)"#line:green 
{
	pram : (int )
	SrcOwnClassName : simple.Simple
	SrcSig : simple.Simple.get(int)
	Sig : get(int)
	__**<color:orange>Complex Info</color>**__
	parameter Score : 1
	classCall Score : 0
	Call Score : 0
	CallBy Score : 2
	memberUse Score : 0
	localValue Score : 1
	exp Score : 0
	repeat Score : 0
	brench Score : 0
	callCountNum : 0
	cyclomatic : 1
	State Node lineNum: 1
	State Node Num : 0
	State Node callListSize: 0
	State Node repeatSize : 0
	State Node writeSize : 0
	State Node bifurSize : 0
	Calculated Estunated Program Length: 8
	Volume : 16.2535
	Diffifculty: 6
	Effort : 97.521
	ABS Score : 1
	Relative Score : 1
}
class simple.Simple.test2087885397 as "test()"#line:green 
{
	pram : ( )
	SrcOwnClassName : simple.Simple
	SrcSig : simple.Simple.test()
	Sig : test()
	__**<color:orange>Complex Info</color>**__
	parameter Score : 0
	classCall Score : 2
	Call Score : 4
	CallBy Score : 0
	memberUse Score : 0
	localValue Score : 1
	exp Score : 0
	repeat Score : 0
	brench Score : 0
	callCountNum : 2
	cyclomatic : 1
	State Node lineNum: 1
	State Node Num : 0
	State Node callListSize: 1
	State Node repeatSize : 0
	State Node writeSize : 0
	State Node bifurSize : 0
	Calculated Estunated Program Length: 17.5098
	Volume : 24
	Diffifculty: 3
	Effort : 72
	ABS Score : 4
	Relative Score : 4
}
class simple.Simple.main1002021887 as "main(java.lang.String[])"#back:salmon 
{
	pram : (java.lang.String[] )
	SrcOwnClassName : simple.Simple
	SrcSig : simple.Simple.main(java.lang.String[])
	Sig : main(java.lang.String[])
	__**<color:orange>Complex Info</color>**__
	parameter Score : 2
	classCall Score : 5
	Call Score : 8
	CallBy Score : 3
	memberUse Score : 1
	localValue Score : 3
	exp Score : 0
	repeat Score : 0
	brench Score : 0
	callCountNum : 5
	cyclomatic : 1
	State Node lineNum: 2
	State Node Num : 0
	State Node callListSize: 1
	State Node repeatSize : 0
	State Node writeSize : 0
	State Node bifurSize : 0
	Calculated Estunated Program Length: 35.1613
	Volume : 59.207
	Diffifculty: 3.4286
	Effort : 202.9956
	ABS Score : 10
	Relative Score : 5
}

@enduml

PlantUML version 1.2020.19(Tue Oct 13 00:10:01 KST 2020)
(APACHE source distribution)
Java Runtime: Java(TM) SE Runtime Environment
JVM: Java HotSpot(TM) 64-Bit Server VM
Default Encoding: MS949
Language: ko
Country: KR
--></g></svg>