<?xml version="1.0" encoding="UTF-8" standalone="no"?><svg xmlns="http://www.w3.org/2000/svg" xmlns:xlink="http://www.w3.org/1999/xlink" contentScriptType="application/ecmascript" contentStyleType="text/css" height="534px" preserveAspectRatio="none" style="width:418px;height:534px;" version="1.1" viewBox="0 0 418 534" width="418px" zoomAndPan="magnify"><defs><filter height="300%" id="fw1xyr3ve26wp" width="300%" x="-1" y="-1"><feGaussianBlur result="blurOut" stdDeviation="2.0"/><feColorMatrix in="blurOut" result="blurOut2" type="matrix" values="0 0 0 0 0 0 0 0 0 0 0 0 0 0 0 0 0 0 .4 0"/><feOffset dx="4.0" dy="4.0" in="blurOut2" result="blurOut3"/><feBlend in="SourceGraphic" in2="blurOut3" mode="normal"/></filter></defs><g><!--MD5=[b712ffd9ceaba90a60462c0b6a0f2388]
cluster classRelation.Guitar--><polygon fill="#FFFFFF" filter="url(#fw1xyr3ve26wp)" points="151.5,6,298.5,6,305.5,31.2295,401.5,31.2295,401.5,527,151.5,527,151.5,6" style="stroke: #000000; stroke-width: 1.5;"/><line style="stroke: #000000; stroke-width: 1.5;" x1="151.5" x2="305.5" y1="31.2295" y2="31.2295"/><text fill="#000000" font-family="sans-serif" font-size="14" font-weight="bold" lengthAdjust="spacingAndGlyphs" textLength="141" x="155.5" y="24.1533">classRelation.Guitar</text><!--MD5=[d15667e72020e527226694cdcd6a4daa]
class classRelation.Guitar.Guitar1666607455--><rect codeLine="19" fill="#FEFECE" filter="url(#fw1xyr3ve26wp)" height="467.0488" id="classRelation.Guitar.Guitar1666607455" style="stroke: #008000; stroke-width: 1.5;" width="218" x="167.5" y="44"/><ellipse cx="251.75" cy="60" fill="#ADD1B2" rx="11" ry="11" style="stroke: #008000; stroke-width: 1.0;"/><path d="M251.5781,53.4844 Q249.7031,53.4844 248.5469,55.2344 Q247.3594,57.0156 247.3594,60.0156 Q247.3594,63.3906 248.5625,65.1563 Q249.625,66.7813 251.375,66.7813 Q253.0625,66.7813 254.0156,65.875 Q255.0781,64.8594 255.2188,62.625 Q255.2188,62.2031 254.9844,61.9688 Q254.7969,61.7344 254.4531,61.7031 Q254.125,61.7031 253.8906,61.8906 Q253.625,62.125 253.625,62.5156 Q253.5938,63.9063 253,64.6406 Q252.4688,65.3438 251.5156,65.3438 Q250.3594,65.3438 249.6406,63.9063 Q248.9219,62.4063 248.9219,59.9844 Q248.9219,57.4375 249.8125,56.0469 Q250.5625,54.9219 251.7031,54.9219 Q252.3594,54.9219 252.8594,55.4688 Q253.4219,56.0781 253.5469,57.1406 Q253.5938,57.8438 254.4219,57.7344 Q255.2031,57.625 255.1563,56.9375 Q254.9688,55.4219 254.2031,54.5469 Q253.2656,53.4844 251.5781,53.4844 Z "/><text fill="#000000" font-family="sans-serif" font-size="12" lengthAdjust="spacingAndGlyphs" textLength="41" x="272.25" y="65.6045">Guitar()</text><line style="stroke: #008000; stroke-width: 1.5;" x1="168.5" x2="384.5" y1="76" y2="76"/><text fill="#000000" font-family="sans-serif" font-size="11" lengthAdjust="spacingAndGlyphs" textLength="44" x="173.5" y="92.6919">pram : ( )</text><text fill="#000000" font-family="sans-serif" font-size="11" lengthAdjust="spacingAndGlyphs" textLength="200" x="173.5" y="107.8008">SrcOwnClassName : classRelation.Guitar</text><text fill="#000000" font-family="sans-serif" font-size="11" lengthAdjust="spacingAndGlyphs" textLength="177" x="173.5" y="122.9097">SrcSig : classRelation.Guitar.Guitar()</text><text fill="#000000" font-family="sans-serif" font-size="11" lengthAdjust="spacingAndGlyphs" textLength="61" x="173.5" y="138.0186">Sig : Guitar()</text><text fill="#000000" font-family="sans-serif" font-size="11" lengthAdjust="spacingAndGlyphs" textLength="96" x="173.5" y="172.2363">parameter Score : 0</text><text fill="#000000" font-family="sans-serif" font-size="11" lengthAdjust="spacingAndGlyphs" textLength="90" x="173.5" y="187.3452">classCall Score : 0</text><text fill="#000000" font-family="sans-serif" font-size="11" lengthAdjust="spacingAndGlyphs" textLength="64" x="173.5" y="202.4541">Call Score : 0</text><text fill="#000000" font-family="sans-serif" font-size="11" lengthAdjust="spacingAndGlyphs" textLength="77" x="173.5" y="217.563">CallBy Score : 2</text><text fill="#000000" font-family="sans-serif" font-size="11" lengthAdjust="spacingAndGlyphs" textLength="104" x="173.5" y="232.6719">memberUse Score : 0</text><text fill="#000000" font-family="sans-serif" font-size="11" lengthAdjust="spacingAndGlyphs" textLength="97" x="173.5" y="247.7808">localValue Score : 0</text><text fill="#000000" font-family="sans-serif" font-size="11" lengthAdjust="spacingAndGlyphs" textLength="65" x="173.5" y="262.8896">exp Score : 0</text><text fill="#000000" font-family="sans-serif" font-size="11" lengthAdjust="spacingAndGlyphs" textLength="78" x="173.5" y="277.9985">repeat Score : 0</text><text fill="#000000" font-family="sans-serif" font-size="11" lengthAdjust="spacingAndGlyphs" textLength="81" x="173.5" y="293.1074">brench Score : 0</text><text fill="#000000" font-family="sans-serif" font-size="11" lengthAdjust="spacingAndGlyphs" textLength="80" x="173.5" y="308.2163">callCountNum : 0</text><text fill="#000000" font-family="sans-serif" font-size="11" lengthAdjust="spacingAndGlyphs" textLength="66" x="173.5" y="323.3252">cyclomatic : 1</text><text fill="#000000" font-family="sans-serif" font-size="11" lengthAdjust="spacingAndGlyphs" textLength="105" x="173.5" y="338.4341">State Node lineNum: 0</text><text fill="#000000" font-family="sans-serif" font-size="11" lengthAdjust="spacingAndGlyphs" textLength="92" x="173.5" y="353.543">State Node Num : 0</text><text fill="#000000" font-family="sans-serif" font-size="11" lengthAdjust="spacingAndGlyphs" textLength="122" x="173.5" y="368.6519">State Node callListSize: 0</text><text fill="#000000" font-family="sans-serif" font-size="11" lengthAdjust="spacingAndGlyphs" textLength="123" x="173.5" y="383.7607">State Node repeatSize : 0</text><text fill="#000000" font-family="sans-serif" font-size="11" lengthAdjust="spacingAndGlyphs" textLength="117" x="173.5" y="398.8696">State Node writeSize : 0</text><text fill="#000000" font-family="sans-serif" font-size="11" lengthAdjust="spacingAndGlyphs" textLength="114" x="173.5" y="413.9785">State Node bifurSize : 0</text><text fill="#000000" font-family="sans-serif" font-size="11" lengthAdjust="spacingAndGlyphs" textLength="206" x="173.5" y="429.0874">Calculated Estunated Program Length: NaN</text><text fill="#000000" font-family="sans-serif" font-size="11" lengthAdjust="spacingAndGlyphs" textLength="51" x="173.5" y="444.1963">Volume : 0</text><text fill="#000000" font-family="sans-serif" font-size="11" lengthAdjust="spacingAndGlyphs" textLength="72" x="173.5" y="459.3052">Diffifculty: NaN</text><text fill="#000000" font-family="sans-serif" font-size="11" lengthAdjust="spacingAndGlyphs" textLength="56" x="173.5" y="474.4141">Effort : NaN</text><text fill="#000000" font-family="sans-serif" font-size="11" lengthAdjust="spacingAndGlyphs" textLength="69" x="173.5" y="489.5229">ABS Score : 0</text><text fill="#000000" font-family="sans-serif" font-size="11" lengthAdjust="spacingAndGlyphs" textLength="85" x="173.5" y="504.6318">Relative Score : 0</text><line style="stroke: #008000; stroke-width: 1.5;" x1="168.5" x2="240" y1="151.99" y2="151.99"/><text fill="#FFA500" font-family="sans-serif" font-size="11" font-weight="bold" lengthAdjust="spacingAndGlyphs" textLength="73" x="240" y="156.6274">Complex Info</text><line style="stroke: #008000; stroke-width: 1.5;" x1="313" x2="384.5" y1="151.99" y2="151.99"/><!--MD5=[f04bc90bf33944b7fab332a83ab18852]
class ClassComplex--><rect codeLine="1" fill="#FEFECE" filter="url(#fw1xyr3ve26wp)" height="274.6333" id="ClassComplex" style="stroke: #A80036; stroke-width: 1.5;" width="125" x="7" y="140"/><ellipse cx="26.95" cy="156" fill="#ADD1B2" rx="11" ry="11" style="stroke: #A80036; stroke-width: 1.0;"/><path d="M26.7781,149.4844 Q24.9031,149.4844 23.7469,151.2344 Q22.5594,153.0156 22.5594,156.0156 Q22.5594,159.3906 23.7625,161.1563 Q24.825,162.7813 26.575,162.7813 Q28.2625,162.7813 29.2156,161.875 Q30.2781,160.8594 30.4188,158.625 Q30.4188,158.2031 30.1844,157.9688 Q29.9969,157.7344 29.6531,157.7031 Q29.325,157.7031 29.0906,157.8906 Q28.825,158.125 28.825,158.5156 Q28.7938,159.9063 28.2,160.6406 Q27.6688,161.3438 26.7156,161.3438 Q25.5594,161.3438 24.8406,159.9063 Q24.1219,158.4063 24.1219,155.9844 Q24.1219,153.4375 25.0125,152.0469 Q25.7625,150.9219 26.9031,150.9219 Q27.5594,150.9219 28.0594,151.4688 Q28.6219,152.0781 28.7469,153.1406 Q28.7938,153.8438 29.6219,153.7344 Q30.4031,153.625 30.3563,152.9375 Q30.1688,151.4219 29.4031,150.5469 Q28.4656,149.4844 26.7781,149.4844 Z "/><text fill="#000000" font-family="sans-serif" font-size="12" lengthAdjust="spacingAndGlyphs" textLength="82" x="42.05" y="161.6045">ClassComplex</text><line style="stroke: #A80036; stroke-width: 1.5;" x1="8" x2="131" y1="172" y2="172"/><text fill="#000000" font-family="sans-serif" font-size="11" lengthAdjust="spacingAndGlyphs" textLength="79" x="13" y="207.8008">memberScor = 0</text><text fill="#000000" font-family="sans-serif" font-size="11" lengthAdjust="spacingAndGlyphs" textLength="113" x="13" y="222.9097">extendsClassScore = 1</text><text fill="#000000" font-family="sans-serif" font-size="11" lengthAdjust="spacingAndGlyphs" textLength="63" x="13" y="238.0186">callScore = 0</text><text fill="#000000" font-family="sans-serif" font-size="11" lengthAdjust="spacingAndGlyphs" textLength="76" x="13" y="253.1274">callByScore = 0</text><text fill="#000000" font-family="sans-serif" font-size="11" lengthAdjust="spacingAndGlyphs" textLength="74" x="13" y="268.2363">methodNum = 1</text><text fill="#000000" font-family="sans-serif" font-size="11" lengthAdjust="spacingAndGlyphs" textLength="77" x="13" y="283.3452">memberNum = 0</text><text fill="#000000" font-family="sans-serif" font-size="11" lengthAdjust="spacingAndGlyphs" textLength="95" x="13" y="298.4541">constructorNum = 1</text><text fill="#000000" font-family="sans-serif" font-size="11" lengthAdjust="spacingAndGlyphs" textLength="83" x="13" y="313.563">selfCoverage = 0</text><text fill="#000000" font-family="sans-serif" font-size="11" lengthAdjust="spacingAndGlyphs" textLength="72" x="13" y="328.6719">needCallBy = 1</text><text fill="#000000" font-family="sans-serif" font-size="11" lengthAdjust="spacingAndGlyphs" textLength="40" x="13" y="343.7808">ABS = 1</text><text fill="#000000" font-family="sans-serif" font-size="11" lengthAdjust="spacingAndGlyphs" textLength="37" x="13" y="358.8896">REL = 1</text><text fill="#000000" font-family="sans-serif" font-size="11" lengthAdjust="spacingAndGlyphs" textLength="83" x="13" y="373.9985">coverage = 0.0%</text><line style="stroke: #A80036; stroke-width: 1.5;" x1="8" x2="33" y1="187.5544" y2="187.5544"/><text fill="#FFA500" font-family="sans-serif" font-size="11" font-weight="bold" lengthAdjust="spacingAndGlyphs" textLength="73" x="33" y="192.1919">Complex Info</text><line style="stroke: #A80036; stroke-width: 1.5;" x1="106" x2="131" y1="187.5544" y2="187.5544"/><text fill="#008000" font-family="sans-serif" font-size="11" lengthAdjust="spacingAndGlyphs" textLength="79" x="13" y="408.2163">new Guitar() (0)</text><line style="stroke: #A80036; stroke-width: 1.5;" x1="8" x2="49.5" y1="387.97" y2="387.97"/><text fill="#008000" font-family="sans-serif" font-size="11" font-weight="bold" lengthAdjust="spacingAndGlyphs" textLength="40" x="49.5" y="392.6074">has list</text><line style="stroke: #A80036; stroke-width: 1.5;" x1="89.5" x2="131" y1="387.97" y2="387.97"/><!--MD5=[627a380beef3702ae9bee3dd5aba74df]
@startuml
class ClassComplex{
__**<color:orange>Complex Info</color>**__
	memberScor = 0
	extendsClassScore = 1
	callScore = 0
	callByScore = 0
	methodNum = 1
	memberNum = 0
	constructorNum = 1
	selfCoverage = 0
	needCallBy = 1
	ABS = 1
	REL = 1
	coverage = 0.0%
__**<color:green>has list</color>**__
	<color:green>new Guitar() (0)
}

class classRelation.Guitar.Guitar1666607455 as "Guitar()"#line:green 
{
	pram : ( )
	SrcOwnClassName : classRelation.Guitar
	SrcSig : classRelation.Guitar.Guitar()
	Sig : Guitar()
	__**<color:orange>Complex Info</color>**__
	parameter Score : 0
	classCall Score : 0
	Call Score : 0
	CallBy Score : 2
	memberUse Score : 0
	localValue Score : 0
	exp Score : 0
	repeat Score : 0
	brench Score : 0
	callCountNum : 0
	cyclomatic : 1
	State Node lineNum: 0
	State Node Num : 0
	State Node callListSize: 0
	State Node repeatSize : 0
	State Node writeSize : 0
	State Node bifurSize : 0
	Calculated Estunated Program Length: NaN
	Volume : 0
	Diffifculty: NaN
	Effort : NaN
	ABS Score : 0
	Relative Score : 0
}

@enduml

PlantUML version 1.2020.19(Tue Oct 13 00:10:01 KST 2020)
(APACHE source distribution)
Java Runtime: Java(TM) SE Runtime Environment
JVM: Java HotSpot(TM) 64-Bit Server VM
Default Encoding: MS949
Language: ko
Country: KR
--></g></svg>