<?xml version="1.0" encoding="UTF-8" standalone="no"?><svg xmlns="http://www.w3.org/2000/svg" xmlns:xlink="http://www.w3.org/1999/xlink" contentScriptType="application/ecmascript" contentStyleType="text/css" height="534px" preserveAspectRatio="none" style="width:473px;height:534px;" version="1.1" viewBox="0 0 473 534" width="473px" zoomAndPan="magnify"><defs><filter height="300%" id="f1rufpjmf48zwf" width="300%" x="-1" y="-1"><feGaussianBlur result="blurOut" stdDeviation="2.0"/><feColorMatrix in="blurOut" result="blurOut2" type="matrix" values="0 0 0 0 0 0 0 0 0 0 0 0 0 0 0 0 0 0 .4 0"/><feOffset dx="4.0" dy="4.0" in="blurOut2" result="blurOut3"/><feBlend in="SourceGraphic" in2="blurOut3" mode="normal"/></filter></defs><g><!--MD5=[124b12adc418bb435d642f2450dd98db]
cluster classRelation.Instrument--><polygon fill="#FFFFFF" filter="url(#f1rufpjmf48zwf)" points="186,6,366,6,373,31.2295,456,31.2295,456,527,186,527,186,6" style="stroke: #000000; stroke-width: 1.5;"/><line style="stroke: #000000; stroke-width: 1.5;" x1="186" x2="373" y1="31.2295" y2="31.2295"/><text fill="#000000" font-family="sans-serif" font-size="14" font-weight="bold" lengthAdjust="spacingAndGlyphs" textLength="174" x="190" y="24.1533">classRelation.Instrument</text><!--MD5=[b7744410c0adc15d0bdfb1f162cd9e15]
class classRelation.Instrument.play982757413--><rect codeLine="20" fill="#FEFECE" filter="url(#f1rufpjmf48zwf)" height="467.0488" id="classRelation.Instrument.play982757413" style="stroke: #A80036; stroke-width: 1.5;" width="237" x="202.5" y="44"/><ellipse cx="301.75" cy="60" fill="#ADD1B2" rx="11" ry="11" style="stroke: #A80036; stroke-width: 1.0;"/><path d="M301.5781,53.4844 Q299.7031,53.4844 298.5469,55.2344 Q297.3594,57.0156 297.3594,60.0156 Q297.3594,63.3906 298.5625,65.1563 Q299.625,66.7813 301.375,66.7813 Q303.0625,66.7813 304.0156,65.875 Q305.0781,64.8594 305.2188,62.625 Q305.2188,62.2031 304.9844,61.9688 Q304.7969,61.7344 304.4531,61.7031 Q304.125,61.7031 303.8906,61.8906 Q303.625,62.125 303.625,62.5156 Q303.5938,63.9063 303,64.6406 Q302.4688,65.3438 301.5156,65.3438 Q300.3594,65.3438 299.6406,63.9063 Q298.9219,62.4063 298.9219,59.9844 Q298.9219,57.4375 299.8125,56.0469 Q300.5625,54.9219 301.7031,54.9219 Q302.3594,54.9219 302.8594,55.4688 Q303.4219,56.0781 303.5469,57.1406 Q303.5938,57.8438 304.4219,57.7344 Q305.2031,57.625 305.1563,56.9375 Q304.9688,55.4219 304.2031,54.5469 Q303.2656,53.4844 301.5781,53.4844 Z "/><text fill="#000000" font-family="sans-serif" font-size="12" lengthAdjust="spacingAndGlyphs" textLength="30" x="322.25" y="65.6045">play()</text><line style="stroke: #A80036; stroke-width: 1.5;" x1="203.5" x2="438.5" y1="76" y2="76"/><text fill="#000000" font-family="sans-serif" font-size="11" lengthAdjust="spacingAndGlyphs" textLength="44" x="208.5" y="92.6919">pram : ( )</text><text fill="#000000" font-family="sans-serif" font-size="11" lengthAdjust="spacingAndGlyphs" textLength="221" x="208.5" y="107.8008">SrcOwnClassName : classRelation.Instrument</text><text fill="#000000" font-family="sans-serif" font-size="11" lengthAdjust="spacingAndGlyphs" textLength="189" x="208.5" y="122.9097">SrcSig : classRelation.Instrument.play()</text><text fill="#000000" font-family="sans-serif" font-size="11" lengthAdjust="spacingAndGlyphs" textLength="52" x="208.5" y="138.0186">Sig : play()</text><text fill="#000000" font-family="sans-serif" font-size="11" lengthAdjust="spacingAndGlyphs" textLength="96" x="208.5" y="172.2363">parameter Score : 0</text><text fill="#000000" font-family="sans-serif" font-size="11" lengthAdjust="spacingAndGlyphs" textLength="90" x="208.5" y="187.3452">classCall Score : 3</text><text fill="#000000" font-family="sans-serif" font-size="11" lengthAdjust="spacingAndGlyphs" textLength="64" x="208.5" y="202.4541">Call Score : 7</text><text fill="#000000" font-family="sans-serif" font-size="11" lengthAdjust="spacingAndGlyphs" textLength="77" x="208.5" y="217.563">CallBy Score : 2</text><text fill="#000000" font-family="sans-serif" font-size="11" lengthAdjust="spacingAndGlyphs" textLength="104" x="208.5" y="232.6719">memberUse Score : 2</text><text fill="#000000" font-family="sans-serif" font-size="11" lengthAdjust="spacingAndGlyphs" textLength="97" x="208.5" y="247.7808">localValue Score : 0</text><text fill="#000000" font-family="sans-serif" font-size="11" lengthAdjust="spacingAndGlyphs" textLength="65" x="208.5" y="262.8896">exp Score : 0</text><text fill="#000000" font-family="sans-serif" font-size="11" lengthAdjust="spacingAndGlyphs" textLength="78" x="208.5" y="277.9985">repeat Score : 0</text><text fill="#000000" font-family="sans-serif" font-size="11" lengthAdjust="spacingAndGlyphs" textLength="81" x="208.5" y="293.1074">brench Score : 0</text><text fill="#000000" font-family="sans-serif" font-size="11" lengthAdjust="spacingAndGlyphs" textLength="80" x="208.5" y="308.2163">callCountNum : 3</text><text fill="#000000" font-family="sans-serif" font-size="11" lengthAdjust="spacingAndGlyphs" textLength="66" x="208.5" y="323.3252">cyclomatic : 1</text><text fill="#000000" font-family="sans-serif" font-size="11" lengthAdjust="spacingAndGlyphs" textLength="105" x="208.5" y="338.4341">State Node lineNum: 2</text><text fill="#000000" font-family="sans-serif" font-size="11" lengthAdjust="spacingAndGlyphs" textLength="92" x="208.5" y="353.543">State Node Num : 0</text><text fill="#000000" font-family="sans-serif" font-size="11" lengthAdjust="spacingAndGlyphs" textLength="122" x="208.5" y="368.6519">State Node callListSize: 0</text><text fill="#000000" font-family="sans-serif" font-size="11" lengthAdjust="spacingAndGlyphs" textLength="123" x="208.5" y="383.7607">State Node repeatSize : 0</text><text fill="#000000" font-family="sans-serif" font-size="11" lengthAdjust="spacingAndGlyphs" textLength="117" x="208.5" y="398.8696">State Node writeSize : 1</text><text fill="#000000" font-family="sans-serif" font-size="11" lengthAdjust="spacingAndGlyphs" textLength="114" x="208.5" y="413.9785">State Node bifurSize : 0</text><text fill="#000000" font-family="sans-serif" font-size="11" lengthAdjust="spacingAndGlyphs" textLength="225" x="208.5" y="429.0874">Calculated Estunated Program Length: 16.3645</text><text fill="#000000" font-family="sans-serif" font-size="11" lengthAdjust="spacingAndGlyphs" textLength="57" x="208.5" y="444.1963">Volume : 27</text><text fill="#000000" font-family="sans-serif" font-size="11" lengthAdjust="spacingAndGlyphs" textLength="85" x="208.5" y="459.3052">Diffifculty: 3.3333</text><text fill="#000000" font-family="sans-serif" font-size="11" lengthAdjust="spacingAndGlyphs" textLength="48" x="208.5" y="474.4141">Effort : 90</text><text fill="#000000" font-family="sans-serif" font-size="11" lengthAdjust="spacingAndGlyphs" textLength="69" x="208.5" y="489.5229">ABS Score : 7</text><text fill="#000000" font-family="sans-serif" font-size="11" lengthAdjust="spacingAndGlyphs" textLength="85" x="208.5" y="504.6318">Relative Score : 7</text><line style="stroke: #A80036; stroke-width: 1.5;" x1="203.5" x2="284.5" y1="151.99" y2="151.99"/><text fill="#FFA500" font-family="sans-serif" font-size="11" font-weight="bold" lengthAdjust="spacingAndGlyphs" textLength="73" x="284.5" y="156.6274">Complex Info</text><line style="stroke: #A80036; stroke-width: 1.5;" x1="357.5" x2="438.5" y1="151.99" y2="151.99"/><!--MD5=[f04bc90bf33944b7fab332a83ab18852]
class ClassComplex--><rect codeLine="1" fill="#FEFECE" filter="url(#f1rufpjmf48zwf)" height="289.7422" id="ClassComplex" style="stroke: #A80036; stroke-width: 1.5;" width="160" x="7" y="132.5"/><ellipse cx="42.7" cy="148.5" fill="#ADD1B2" rx="11" ry="11" style="stroke: #A80036; stroke-width: 1.0;"/><path d="M42.5281,141.9844 Q40.6531,141.9844 39.4969,143.7344 Q38.3094,145.5156 38.3094,148.5156 Q38.3094,151.8906 39.5125,153.6563 Q40.575,155.2813 42.325,155.2813 Q44.0125,155.2813 44.9656,154.375 Q46.0281,153.3594 46.1688,151.125 Q46.1688,150.7031 45.9344,150.4688 Q45.7469,150.2344 45.4031,150.2031 Q45.075,150.2031 44.8406,150.3906 Q44.575,150.625 44.575,151.0156 Q44.5438,152.4063 43.95,153.1406 Q43.4188,153.8438 42.4656,153.8438 Q41.3094,153.8438 40.5906,152.4063 Q39.8719,150.9063 39.8719,148.4844 Q39.8719,145.9375 40.7625,144.5469 Q41.5125,143.4219 42.6531,143.4219 Q43.3094,143.4219 43.8094,143.9688 Q44.3719,144.5781 44.4969,145.6406 Q44.5438,146.3438 45.3719,146.2344 Q46.1531,146.125 46.1063,145.4375 Q45.9188,143.9219 45.1531,143.0469 Q44.2156,141.9844 42.5281,141.9844 Z "/><text fill="#000000" font-family="sans-serif" font-size="12" lengthAdjust="spacingAndGlyphs" textLength="82" x="61.3" y="154.1045">ClassComplex</text><line style="stroke: #A80036; stroke-width: 1.5;" x1="8" x2="166" y1="164.5" y2="164.5"/><text fill="#000000" font-family="sans-serif" font-size="11" lengthAdjust="spacingAndGlyphs" textLength="79" x="13" y="200.3008">memberScor = 2</text><text fill="#000000" font-family="sans-serif" font-size="11" lengthAdjust="spacingAndGlyphs" textLength="113" x="13" y="215.4097">extendsClassScore = 0</text><text fill="#000000" font-family="sans-serif" font-size="11" lengthAdjust="spacingAndGlyphs" textLength="63" x="13" y="230.5186">callScore = 6</text><text fill="#000000" font-family="sans-serif" font-size="11" lengthAdjust="spacingAndGlyphs" textLength="76" x="13" y="245.6274">callByScore = 6</text><text fill="#000000" font-family="sans-serif" font-size="11" lengthAdjust="spacingAndGlyphs" textLength="74" x="13" y="260.7363">methodNum = 1</text><text fill="#000000" font-family="sans-serif" font-size="11" lengthAdjust="spacingAndGlyphs" textLength="77" x="13" y="275.8452">memberNum = 1</text><text fill="#000000" font-family="sans-serif" font-size="11" lengthAdjust="spacingAndGlyphs" textLength="95" x="13" y="290.9541">constructorNum = 0</text><text fill="#000000" font-family="sans-serif" font-size="11" lengthAdjust="spacingAndGlyphs" textLength="83" x="13" y="306.063">selfCoverage = 1</text><text fill="#000000" font-family="sans-serif" font-size="11" lengthAdjust="spacingAndGlyphs" textLength="72" x="13" y="321.1719">needCallBy = 1</text><text fill="#000000" font-family="sans-serif" font-size="11" lengthAdjust="spacingAndGlyphs" textLength="46" x="13" y="336.2808">ABS = 15</text><text fill="#000000" font-family="sans-serif" font-size="11" lengthAdjust="spacingAndGlyphs" textLength="37" x="13" y="351.3896">REL = 7</text><text fill="#000000" font-family="sans-serif" font-size="11" lengthAdjust="spacingAndGlyphs" textLength="89" x="13" y="366.4985">coverage = 50.0%</text><line style="stroke: #A80036; stroke-width: 1.5;" x1="8" x2="50.5" y1="180.0544" y2="180.0544"/><text fill="#FFA500" font-family="sans-serif" font-size="11" font-weight="bold" lengthAdjust="spacingAndGlyphs" textLength="73" x="50.5" y="184.6919">Complex Info</text><line style="stroke: #A80036; stroke-width: 1.5;" x1="123.5" x2="166" y1="180.0544" y2="180.0544"/><text fill="#008000" font-family="sans-serif" font-size="11" lengthAdjust="spacingAndGlyphs" textLength="148" x="13" y="400.7163">classRelation.Sound sound (2)</text><text fill="#FFA500" font-family="sans-serif" font-size="11" lengthAdjust="spacingAndGlyphs" textLength="79" x="13" y="415.8252">Sound play() (7)</text><line style="stroke: #A80036; stroke-width: 1.5;" x1="8" x2="67" y1="380.47" y2="380.47"/><text fill="#008000" font-family="sans-serif" font-size="11" font-weight="bold" lengthAdjust="spacingAndGlyphs" textLength="40" x="67" y="385.1074">has list</text><line style="stroke: #A80036; stroke-width: 1.5;" x1="107" x2="166" y1="380.47" y2="380.47"/><!--MD5=[887edef4db414a0e47d1096281569a83]
@startuml
class ClassComplex{
__**<color:orange>Complex Info</color>**__
	memberScor = 2
	extendsClassScore = 0
	callScore = 6
	callByScore = 6
	methodNum = 1
	memberNum = 1
	constructorNum = 0
	selfCoverage = 1
	needCallBy = 1
	ABS = 15
	REL = 7
	coverage = 50.0%
__**<color:green>has list</color>**__
	<color:green>classRelation.Sound sound (2)
	<color:orange>Sound play() (7)
}

class classRelation.Instrument.play982757413 as "play()" 
{
	pram : ( )
	SrcOwnClassName : classRelation.Instrument
	SrcSig : classRelation.Instrument.play()
	Sig : play()
	__**<color:orange>Complex Info</color>**__
	parameter Score : 0
	classCall Score : 3
	Call Score : 7
	CallBy Score : 2
	memberUse Score : 2
	localValue Score : 0
	exp Score : 0
	repeat Score : 0
	brench Score : 0
	callCountNum : 3
	cyclomatic : 1
	State Node lineNum: 2
	State Node Num : 0
	State Node callListSize: 0
	State Node repeatSize : 0
	State Node writeSize : 1
	State Node bifurSize : 0
	Calculated Estunated Program Length: 16.3645
	Volume : 27
	Diffifculty: 3.3333
	Effort : 90
	ABS Score : 7
	Relative Score : 7
}

@enduml

PlantUML version 1.2020.19(Tue Oct 13 00:10:01 KST 2020)
(APACHE source distribution)
Java Runtime: Java(TM) SE Runtime Environment
JVM: Java HotSpot(TM) 64-Bit Server VM
Default Encoding: MS949
Language: ko
Country: KR
--></g></svg>