<?xml version="1.0" encoding="UTF-8" standalone="no"?><svg xmlns="http://www.w3.org/2000/svg" xmlns:xlink="http://www.w3.org/1999/xlink" contentScriptType="application/ecmascript" contentStyleType="text/css" height="434px" preserveAspectRatio="none" style="width:219px;height:434px;" version="1.1" viewBox="0 0 219 434" width="219px" zoomAndPan="magnify"><defs><filter height="300%" id="f1dq35cxhwtpiy" width="300%" x="-1" y="-1"><feGaussianBlur result="blurOut" stdDeviation="2.0"/><feColorMatrix in="blurOut" result="blurOut2" type="matrix" values="0 0 0 0 0 0 0 0 0 0 0 0 0 0 0 0 0 0 .4 0"/><feOffset dx="4.0" dy="4.0" in="blurOut2" result="blurOut3"/><feBlend in="SourceGraphic" in2="blurOut3" mode="normal"/></filter></defs><g><!--MD5=[a191f3fbcfa2575f1905b11423a4aa53]
cluster forMidEx.Game--><polygon fill="#FFFFFF" filter="url(#f1dq35cxhwtpiy)" points="16,6,129,6,136,31.2295,202,31.2295,202,427,16,427,16,6" style="stroke: #000000; stroke-width: 1.5;"/><line style="stroke: #000000; stroke-width: 1.5;" x1="16" x2="136" y1="31.2295" y2="31.2295"/><text fill="#000000" font-family="sans-serif" font-size="14" font-weight="bold" lengthAdjust="spacingAndGlyphs" textLength="107" x="20" y="24.1533">forMidEx.Game</text><!--MD5=[a9ac0d5c9c55e4d606c4656688590d73]
class forMidEx.Game.diecLotto(int[])--><rect codeLine="1" fill="#FEFECE" filter="url(#f1dq35cxhwtpiy)" height="365.2866" id="forMidEx.Game.diecLotto(int[])" style="stroke: #A80036; stroke-width: 1.5;" width="154" x="32" y="45.5"/><ellipse cx="67.25" cy="61.5" fill="#ADD1B2" rx="11" ry="11" style="stroke: #A80036; stroke-width: 1.0;"/><path d="M66.8125,55.0156 Q64.0781,55.0156 63,56.6406 Q61.8594,58.3594 61.8594,61.2813 Q61.8594,64.5781 63.0156,66.2813 Q64,67.7813 66.6094,67.7813 Q68.1875,67.7813 69.0625,66.9531 Q70.0469,66 70.1875,63.875 Q70.1875,63.5781 70.0156,63.4063 Q69.8906,63.25 69.6719,63.2344 Q68.4531,63.2344 68.2969,63.3594 Q68.125,63.5156 68.125,63.7813 Q68.0938,65.2656 67.4375,66.0781 Q66.8281,66.875 66.75,66.875 Q65.4219,66.875 64.6406,65.2813 Q63.8906,63.7344 63.8906,61.25 Q63.8906,58.625 64.8281,57.1719 Q65.6563,55.9219 66.9375,55.9219 Q66.9375,55.9219 67.2813,56.5469 Q67.9063,57.2188 68.0469,58.375 Q68.1563,58.9531 69.625,58.7344 Q70.1563,58.6563 70.125,58.2344 Q69.9531,56.7969 69.2344,55.9844 Q68.375,55.0156 66.8125,55.0156 Z "/><text fill="#000000" font-family="sans-serif" font-size="12" lengthAdjust="spacingAndGlyphs" textLength="77" x="85.75" y="67.1045">diecLotto(int[])</text><line style="stroke: #A80036; stroke-width: 1.5;" x1="33" x2="185" y1="77.5" y2="77.5"/><line style="stroke: #A80036; stroke-width: 1.5;" x1="33" x2="89" y1="93.0544" y2="93.0544"/><text fill="#008000" font-family="sans-serif" font-size="11" font-weight="bold" lengthAdjust="spacingAndGlyphs" textLength="40" x="89" y="97.6919">has list</text><line style="stroke: #A80036; stroke-width: 1.5;" x1="129" x2="185" y1="93.0544" y2="93.0544"/><line style="stroke: #A80036; stroke-width: 1.0; stroke-dasharray: 1.0,2.0;" x1="33" x2="96" y1="115.7178" y2="115.7178"/><text fill="#000000" font-family="sans-serif" font-size="11" lengthAdjust="spacingAndGlyphs" textLength="26" x="96" y="120.3552">class</text><line style="stroke: #A80036; stroke-width: 1.0; stroke-dasharray: 1.0,2.0;" x1="122" x2="185" y1="115.7178" y2="115.7178"/><text fill="#000000" font-family="sans-serif" font-size="11" lengthAdjust="spacingAndGlyphs" textLength="116" x="38" y="158.6274">int target (1150284200);</text><text fill="#000000" font-family="sans-serif" font-size="11" lengthAdjust="spacingAndGlyphs" textLength="101" x="38" y="173.7363">int[] list (439928219);</text><text fill="#000000" font-family="sans-serif" font-size="11" lengthAdjust="spacingAndGlyphs" textLength="106" x="38" y="188.8452">int ans (2138564891);</text><line style="stroke: #A80036; stroke-width: 1.0; stroke-dasharray: 1.0,2.0;" x1="33" x2="90" y1="138.3811" y2="138.3811"/><text fill="#000000" font-family="sans-serif" font-size="11" lengthAdjust="spacingAndGlyphs" textLength="38" x="90" y="143.0186">member</text><line style="stroke: #A80036; stroke-width: 1.0; stroke-dasharray: 1.0,2.0;" x1="128" x2="185" y1="138.3811" y2="138.3811"/><line style="stroke: #A80036; stroke-width: 1.0; stroke-dasharray: 1.0,2.0;" x1="33" x2="91.5" y1="202.8167" y2="202.8167"/><text fill="#000000" font-family="sans-serif" font-size="11" lengthAdjust="spacingAndGlyphs" textLength="35" x="91.5" y="207.4541">method</text><line style="stroke: #A80036; stroke-width: 1.0; stroke-dasharray: 1.0,2.0;" x1="126.5" x2="185" y1="202.8167" y2="202.8167"/><line style="stroke: #A80036; stroke-width: 1.5;" x1="33" x2="81.5" y1="225.48" y2="225.48"/><text fill="#0000FF" font-family="sans-serif" font-size="11" font-weight="bold" lengthAdjust="spacingAndGlyphs" textLength="55" x="81.5" y="230.1174">calling list</text><line style="stroke: #A80036; stroke-width: 1.5;" x1="136.5" x2="185" y1="225.48" y2="225.48"/><line style="stroke: #A80036; stroke-width: 1.0; stroke-dasharray: 1.0,2.0;" x1="33" x2="96" y1="248.1433" y2="248.1433"/><text fill="#000000" font-family="sans-serif" font-size="11" lengthAdjust="spacingAndGlyphs" textLength="26" x="96" y="252.7808">class</text><line style="stroke: #A80036; stroke-width: 1.0; stroke-dasharray: 1.0,2.0;" x1="122" x2="185" y1="248.1433" y2="248.1433"/><text fill="#000000" font-family="sans-serif" font-size="11" lengthAdjust="spacingAndGlyphs" textLength="142" x="38" y="291.053">int gameCount (2075495587);</text><line style="stroke: #A80036; stroke-width: 1.0; stroke-dasharray: 1.0,2.0;" x1="33" x2="90" y1="270.8066" y2="270.8066"/><text fill="#000000" font-family="sans-serif" font-size="11" lengthAdjust="spacingAndGlyphs" textLength="38" x="90" y="275.4441">member</text><line style="stroke: #A80036; stroke-width: 1.0; stroke-dasharray: 1.0,2.0;" x1="128" x2="185" y1="270.8066" y2="270.8066"/><line style="stroke: #A80036; stroke-width: 1.0; stroke-dasharray: 1.0,2.0;" x1="33" x2="91.5" y1="305.0244" y2="305.0244"/><text fill="#000000" font-family="sans-serif" font-size="11" lengthAdjust="spacingAndGlyphs" textLength="35" x="91.5" y="309.6619">method</text><line style="stroke: #A80036; stroke-width: 1.0; stroke-dasharray: 1.0,2.0;" x1="126.5" x2="185" y1="305.0244" y2="305.0244"/><line style="stroke: #A80036; stroke-width: 1.5;" x1="33" x2="75" y1="327.6877" y2="327.6877"/><text fill="#FFA500" font-family="sans-serif" font-size="11" font-weight="bold" lengthAdjust="spacingAndGlyphs" textLength="68" x="75" y="332.3252">called by list</text><line style="stroke: #A80036; stroke-width: 1.5;" x1="143" x2="185" y1="327.6877" y2="327.6877"/><line style="stroke: #A80036; stroke-width: 1.0; stroke-dasharray: 1.0,2.0;" x1="33" x2="96" y1="350.3511" y2="350.3511"/><text fill="#000000" font-family="sans-serif" font-size="11" lengthAdjust="spacingAndGlyphs" textLength="26" x="96" y="354.9885">class</text><line style="stroke: #A80036; stroke-width: 1.0; stroke-dasharray: 1.0,2.0;" x1="122" x2="185" y1="350.3511" y2="350.3511"/><line style="stroke: #A80036; stroke-width: 1.0; stroke-dasharray: 1.0,2.0;" x1="33" x2="90" y1="373.0144" y2="373.0144"/><text fill="#000000" font-family="sans-serif" font-size="11" lengthAdjust="spacingAndGlyphs" textLength="38" x="90" y="377.6519">member</text><line style="stroke: #A80036; stroke-width: 1.0; stroke-dasharray: 1.0,2.0;" x1="128" x2="185" y1="373.0144" y2="373.0144"/><line style="stroke: #A80036; stroke-width: 1.0; stroke-dasharray: 1.0,2.0;" x1="33" x2="91.5" y1="395.6777" y2="395.6777"/><text fill="#000000" font-family="sans-serif" font-size="11" lengthAdjust="spacingAndGlyphs" textLength="35" x="91.5" y="400.3152">method</text><line style="stroke: #A80036; stroke-width: 1.0; stroke-dasharray: 1.0,2.0;" x1="126.5" x2="185" y1="395.6777" y2="395.6777"/><!--MD5=[1d860b8f3119030c8fe9283ae2125a42]
@startuml
class forMidEx.Game.diecLotto(int[]){
__**<color:green>has list</color>**__
..class..
..member..
	int target (1150284200);
	int[] list (439928219);
	int ans (2138564891);
..method..
__**<color:blue>calling list</color>**__
..class..
..member..
	int gameCount (2075495587);
..method..
__**<color:orange>called by list</color>**__
..class..
..member..
..method..
}

@enduml

PlantUML version 1.2020.19(Tue Oct 13 00:10:01 KST 2020)
(APACHE source distribution)
Java Runtime: Java(TM) SE Runtime Environment
JVM: Java HotSpot(TM) 64-Bit Server VM
Default Encoding: MS949
Language: ko
Country: KR
--></g></svg>