<?xml version="1.0" encoding="UTF-8" standalone="no"?><svg xmlns="http://www.w3.org/2000/svg" xmlns:xlink="http://www.w3.org/1999/xlink" contentScriptType="application/ecmascript" contentStyleType="text/css" height="373px" preserveAspectRatio="none" style="width:282px;height:373px;" version="1.1" viewBox="0 0 282 373" width="282px" zoomAndPan="magnify"><defs><filter height="300%" id="fdq0llmsd0079" width="300%" x="-1" y="-1"><feGaussianBlur result="blurOut" stdDeviation="2.0"/><feColorMatrix in="blurOut" result="blurOut2" type="matrix" values="0 0 0 0 0 0 0 0 0 0 0 0 0 0 0 0 0 0 .4 0"/><feOffset dx="4.0" dy="4.0" in="blurOut2" result="blurOut3"/><feBlend in="SourceGraphic" in2="blurOut3" mode="normal"/></filter></defs><g><!--MD5=[f552da2e968eda1b29b7ebf65b378026]
cluster shop--><polygon fill="#FFFFFF" filter="url(#fdq0llmsd0079)" points="134,6,175,6,182,31.2295,265,31.2295,265,366,134,366,134,6" style="stroke: #000000; stroke-width: 1.5;"/><line style="stroke: #000000; stroke-width: 1.5;" x1="134" x2="182" y1="31.2295" y2="31.2295"/><text fill="#000000" font-family="sans-serif" font-size="14" font-weight="bold" lengthAdjust="spacingAndGlyphs" textLength="35" x="138" y="24.1533">shop</text><ellipse cx="199.7132" cy="61.0973" fill="#FEFECE" filter="url(#fdq0llmsd0079)" rx="24.2132" ry="16.5973" style="stroke: #A80036; stroke-width: 1.5;"/><text fill="#000000" font-family="sans-serif" font-size="14" lengthAdjust="spacingAndGlyphs" textLength="30" x="184.7132" y="67.2121">login</text><ellipse cx="199.6341" cy="128.8073" fill="#FEFECE" filter="url(#fdq0llmsd0079)" rx="19.6341" ry="16.3073" style="stroke: #A80036; stroke-width: 1.5;"/><text fill="#000000" font-family="sans-serif" font-size="14" lengthAdjust="spacingAndGlyphs" textLength="23" x="188.1341" y="134.922">buy</text><ellipse cx="199.6127" cy="197.0973" fill="#FEFECE" filter="url(#fdq0llmsd0079)" rx="34.1127" ry="16.5973" style="stroke: #A80036; stroke-width: 1.5;"/><text fill="#000000" font-family="sans-serif" font-size="14" lengthAdjust="spacingAndGlyphs" textLength="44" x="177.6127" y="203.2121">charge</text><ellipse cx="199.669" cy="265.0973" fill="#FEFECE" filter="url(#fdq0llmsd0079)" rx="49.669" ry="16.5973" style="stroke: #A80036; stroke-width: 1.5;"/><text fill="#000000" font-family="sans-serif" font-size="14" lengthAdjust="spacingAndGlyphs" textLength="66" x="166.669" y="271.2121">addGoods</text><ellipse cx="199.7487" cy="333.0973" fill="#FEFECE" filter="url(#fdq0llmsd0079)" rx="27.7487" ry="16.5973" style="stroke: #A80036; stroke-width: 1.5;"/><text fill="#000000" font-family="sans-serif" font-size="14" lengthAdjust="spacingAndGlyphs" textLength="35" x="182.2487" y="339.2121">regist</text><!--MD5=[6f0824a7a10e90f9828df6e0b53afd0b]
entity actor1309176095--><ellipse cx="48" cy="164.5" fill="#FEFECE" filter="url(#fdq0llmsd0079)" rx="8" ry="8" style="stroke: #A80036; stroke-width: 1.5;"/><path d="M48,172.5 L48,199.5 M35,180.5 L61,180.5 M48,199.5 L35,214.5 M48,199.5 L61,214.5 " fill="none" filter="url(#fdq0llmsd0079)" style="stroke: #A80036; stroke-width: 1.5;"/><text fill="#000000" font-family="sans-serif" font-size="14" lengthAdjust="spacingAndGlyphs" textLength="84" x="6" y="236.1533">TestScenario</text><!--MD5=[e845ea223b2317ae898f9aa4db2c9e16]
link actor1309176095 to UC1442726378--><path d="M73.93,239.08 C87.41,259.16 105.49,282.37 126,299 C140.58,310.82 159.94,319.63 174.99,325.32 " fill="none" id="actor1309176095-UC1442726378" style="stroke: #A80036; stroke-width: 1.0;"/><!--MD5=[676c9ec5683ce3e40431b9db05b6cd69]
link actor1309176095 to UC471579726--><path d="M90.25,215.76 C115.31,227.16 146.71,241.44 169.23,251.69 " fill="none" id="actor1309176095-UC471579726" style="stroke: #A80036; stroke-width: 1.0;"/><!--MD5=[43ba9f549a2d36c21de1e752a3653081]
link actor1309176095 to UC195228908--><path d="M90.25,197 C113.93,197 143.27,197 165.42,197 " fill="none" id="actor1309176095-UC195228908" style="stroke: #A80036; stroke-width: 1.0;"/><!--MD5=[79abb050d77396ab4051d8dde532b650]
link actor1309176095 to UC1229161065--><path d="M90.25,178.24 C120.5,164.48 159.98,146.52 181.93,136.54 " fill="none" id="actor1309176095-UC1229161065" style="stroke: #A80036; stroke-width: 1.0;"/><!--MD5=[b1c938b7ef3c6c2fc6b130ec4c76d2c6]
link actor1309176095 to UC914356853--><path d="M73.93,154.92 C87.41,134.84 105.49,111.63 126,95 C141.33,82.57 161.96,73.47 177.3,67.83 " fill="none" id="actor1309176095-UC914356853" style="stroke: #A80036; stroke-width: 1.0;"/><!--MD5=[e7d9b9899857f94f4dc35b510f36197b]
@startuml
 left to right direction

actor TestScenario as actor1309176095

	package shop {
		usecase login as UC914356853
		usecase buy as UC1229161065
		usecase charge as UC195228908
		usecase addGoods as UC471579726
		usecase regist as UC1442726378
	}
	actor1309176095 - - UC1442726378
	actor1309176095 - - UC471579726
	actor1309176095 - - UC195228908
	actor1309176095 - - UC1229161065
	actor1309176095 - - UC914356853

@enduml

PlantUML version 1.2020.19(Tue Oct 13 00:10:01 KST 2020)
(APACHE source distribution)
Java Runtime: Java(TM) SE Runtime Environment
JVM: Java HotSpot(TM) 64-Bit Server VM
Default Encoding: MS949
Language: ko
Country: KR
--></g></svg>