<?xml version="1.0" encoding="UTF-8" standalone="no"?><svg xmlns="http://www.w3.org/2000/svg" xmlns:xlink="http://www.w3.org/1999/xlink" contentScriptType="application/ecmascript" contentStyleType="text/css" height="328px" preserveAspectRatio="none" style="width:453px;height:328px;" version="1.1" viewBox="0 0 453 328" width="453px" zoomAndPan="magnify"><defs><filter height="300%" id="fue85agqesbq3" width="300%" x="-1" y="-1"><feGaussianBlur result="blurOut" stdDeviation="2.0"/><feColorMatrix in="blurOut" result="blurOut2" type="matrix" values="0 0 0 0 0 0 0 0 0 0 0 0 0 0 0 0 0 0 .4 0"/><feOffset dx="4.0" dy="4.0" in="blurOut2" result="blurOut3"/><feBlend in="SourceGraphic" in2="blurOut3" mode="normal"/></filter></defs><g><rect fill="#FFFFFF" filter="url(#fue85agqesbq3)" height="205.1357" style="stroke: #000000; stroke-width: 2.0;" width="429" x="10" y="60.2295"/><line style="stroke: #A80036; stroke-width: 1.0; stroke-dasharray: 5.0,5.0;" x1="33" x2="33" y1="43.2295" y2="282.3652"/><line style="stroke: #A80036; stroke-width: 1.0; stroke-dasharray: 5.0,5.0;" x1="83" x2="83" y1="43.2295" y2="282.3652"/><line style="stroke: #A80036; stroke-width: 1.0; stroke-dasharray: 5.0,5.0;" x1="121" x2="121" y1="43.2295" y2="282.3652"/><rect fill="#FEFECE" filter="url(#fue85agqesbq3)" height="33.2295" style="stroke: #A80036; stroke-width: 1.5;" width="23" x="20" y="5"/><text fill="#000000" font-family="sans-serif" font-size="14" lengthAdjust="spacingAndGlyphs" textLength="9" x="27" y="28.1533">B</text><rect fill="#FEFECE" filter="url(#fue85agqesbq3)" height="33.2295" style="stroke: #A80036; stroke-width: 1.5;" width="23" x="20" y="281.3652"/><text fill="#000000" font-family="sans-serif" font-size="14" lengthAdjust="spacingAndGlyphs" textLength="9" x="27" y="304.5186">B</text><rect fill="#FEFECE" filter="url(#fue85agqesbq3)" height="33.2295" style="stroke: #A80036; stroke-width: 1.5;" width="23" x="70" y="5"/><text fill="#000000" font-family="sans-serif" font-size="14" lengthAdjust="spacingAndGlyphs" textLength="9" x="77" y="28.1533">A</text><rect fill="#FEFECE" filter="url(#fue85agqesbq3)" height="33.2295" style="stroke: #A80036; stroke-width: 1.5;" width="23" x="70" y="281.3652"/><text fill="#000000" font-family="sans-serif" font-size="14" lengthAdjust="spacingAndGlyphs" textLength="9" x="77" y="304.5186">A</text><rect fill="#FEFECE" filter="url(#fue85agqesbq3)" height="33.2295" style="stroke: #A80036; stroke-width: 1.5;" width="24" x="107" y="5"/><text fill="#000000" font-family="sans-serif" font-size="14" lengthAdjust="spacingAndGlyphs" textLength="10" x="114" y="28.1533">C</text><rect fill="#FEFECE" filter="url(#fue85agqesbq3)" height="33.2295" style="stroke: #A80036; stroke-width: 1.5;" width="24" x="107" y="281.3652"/><text fill="#000000" font-family="sans-serif" font-size="14" lengthAdjust="spacingAndGlyphs" textLength="10" x="114" y="304.5186">C</text><path d="M10,60.2295 L434,60.2295 L434,69.2295 L424,79.2295 L10,79.2295 L10,60.2295 " fill="#EEEEEE" style="stroke: #000000; stroke-width: 1.0;"/><rect fill="none" height="205.1357" style="stroke: #000000; stroke-width: 2.0;" width="429" x="10" y="60.2295"/><text fill="#000000" font-family="sans-serif" font-size="13" font-weight="bold" lengthAdjust="spacingAndGlyphs" textLength="379" x="25" y="76.229">void connectTarget.B.Bc(connectTarget.C, connectTarget.A)</text><polygon fill="#A80036" points="71.5,99.9414,81.5,103.9414,71.5,107.9414,75.5,103.9414" style="stroke: #A80036; stroke-width: 1.0;"/><line style="stroke: #A80036; stroke-width: 1.0;" x1="33.5" x2="77.5" y1="103.9414" y2="103.9414"/><text fill="#000000" font-family="sans-serif" font-size="13" lengthAdjust="spacingAndGlyphs" textLength="24" x="40.5" y="99.085">Ba()</text><polygon fill="#A80036" points="44.5,131.7974,34.5,135.7974,44.5,139.7974,40.5,135.7974" style="stroke: #A80036; stroke-width: 1.0;"/><line style="stroke: #A80036; stroke-width: 1.0;" x1="38.5" x2="82.5" y1="135.7974" y2="135.7974"/><text fill="#000000" font-family="sans-serif" font-size="13" lengthAdjust="spacingAndGlyphs" textLength="26" x="50.5" y="130.9409">BB()</text><polygon fill="#A80036" points="109,163.6533,119,167.6533,109,171.6533,113,167.6533" style="stroke: #A80036; stroke-width: 1.0;"/><line style="stroke: #A80036; stroke-width: 1.0;" x1="33.5" x2="115" y1="167.6533" y2="167.6533"/><text fill="#000000" font-family="sans-serif" font-size="13" lengthAdjust="spacingAndGlyphs" textLength="26" x="40.5" y="162.7969">AC()</text><line style="stroke: #A80036; stroke-width: 1.0;" x1="121" x2="163" y1="199.5093" y2="199.5093"/><line style="stroke: #A80036; stroke-width: 1.0;" x1="163" x2="163" y1="199.5093" y2="212.5093"/><line style="stroke: #A80036; stroke-width: 1.0;" x1="122" x2="163" y1="212.5093" y2="212.5093"/><polygon fill="#A80036" points="132,208.5093,122,212.5093,132,216.5093,128,212.5093" style="stroke: #A80036; stroke-width: 1.0;"/><text fill="#000000" font-family="sans-serif" font-size="13" lengthAdjust="spacingAndGlyphs" textLength="33" x="128" y="194.6528">CC1()</text><line style="stroke: #A80036; stroke-width: 1.0;" x1="121" x2="163" y1="244.3652" y2="244.3652"/><line style="stroke: #A80036; stroke-width: 1.0;" x1="163" x2="163" y1="244.3652" y2="257.3652"/><line style="stroke: #A80036; stroke-width: 1.0;" x1="122" x2="163" y1="257.3652" y2="257.3652"/><polygon fill="#A80036" points="132,253.3652,122,257.3652,132,261.3652,128,257.3652" style="stroke: #A80036; stroke-width: 1.0;"/><text fill="#000000" font-family="sans-serif" font-size="13" lengthAdjust="spacingAndGlyphs" textLength="33" x="128" y="239.5088">CC2()</text><!--MD5=[fbf91dc78a03e33bbaf1fb36406765f1]
@startuml
group void connectTarget.B.Bc(connectTarget.C, connectTarget.A)
	B->A : Ba()
	A->B : BB()
	B->C : AC()
	C->C : CC1()
	C->C : CC2()
end

@enduml

PlantUML version 1.2020.19(Tue Oct 13 00:10:01 KST 2020)
(APACHE source distribution)
Java Runtime: Java(TM) SE Runtime Environment
JVM: Java HotSpot(TM) 64-Bit Server VM
Default Encoding: MS949
Language: ko
Country: KR
--></g></svg>