<?xml version="1.0" encoding="UTF-8" standalone="no"?><svg xmlns="http://www.w3.org/2000/svg" xmlns:xlink="http://www.w3.org/1999/xlink" contentScriptType="application/ecmascript" contentStyleType="text/css" height="556px" preserveAspectRatio="none" style="width:283px;height:556px;" version="1.1" viewBox="0 0 283 556" width="283px" zoomAndPan="magnify"><defs><filter height="300%" id="f1kxpol5xx2g29" width="300%" x="-1" y="-1"><feGaussianBlur result="blurOut" stdDeviation="2.0"/><feColorMatrix in="blurOut" result="blurOut2" type="matrix" values="0 0 0 0 0 0 0 0 0 0 0 0 0 0 0 0 0 0 .4 0"/><feOffset dx="4.0" dy="4.0" in="blurOut2" result="blurOut3"/><feBlend in="SourceGraphic" in2="blurOut3" mode="normal"/></filter></defs><g><!--MD5=[983d3fa1f3776918e11b7105bb8b0e68]
cluster target.Exp--><polygon fill="#FFFFFF" filter="url(#f1kxpol5xx2g29)" points="16,6,94,6,101,31.2295,266,31.2295,266,549,16,549,16,6" style="stroke: #000000; stroke-width: 1.5;"/><line style="stroke: #000000; stroke-width: 1.5;" x1="16" x2="101" y1="31.2295" y2="31.2295"/><text fill="#000000" font-family="sans-serif" font-size="14" font-weight="bold" lengthAdjust="spacingAndGlyphs" textLength="72" x="20" y="24.1533">target.Exp</text><!--MD5=[1faca72f7a7e3972aafc0f8f116f3c59]
class target.Exp.methodCall()--><rect codeLine="1" fill="#FEFECE" filter="url(#f1kxpol5xx2g29)" height="487.0488" id="target.Exp.methodCall()" style="stroke: #A80036; stroke-width: 1.5;" width="219" x="32" y="45.5"/><ellipse cx="101.25" cy="61.5" fill="#ADD1B2" rx="11" ry="11" style="stroke: #A80036; stroke-width: 1.0;"/><path d="M100.8125,55.0156 Q98.0781,55.0156 97,56.6406 Q95.8594,58.3594 95.8594,61.2813 Q95.8594,64.5781 97.0156,66.2813 Q98,67.7813 100.6094,67.7813 Q102.1875,67.7813 103.0625,66.9531 Q104.0469,66 104.1875,63.875 Q104.1875,63.5781 104.0156,63.4063 Q103.8906,63.25 103.6719,63.2344 Q102.4531,63.2344 102.2969,63.3594 Q102.125,63.5156 102.125,63.7813 Q102.0938,65.2656 101.4375,66.0781 Q100.8281,66.875 100.75,66.875 Q99.4219,66.875 98.6406,65.2813 Q97.8906,63.7344 97.8906,61.25 Q97.8906,58.625 98.8281,57.1719 Q99.6563,55.9219 100.9375,55.9219 Q100.9375,55.9219 101.2813,56.5469 Q101.9063,57.2188 102.0469,58.375 Q102.1563,58.9531 103.625,58.7344 Q104.1563,58.6563 104.125,58.2344 Q103.9531,56.7969 103.2344,55.9844 Q102.375,55.0156 100.8125,55.0156 Z "/><text fill="#000000" font-family="sans-serif" font-size="12" lengthAdjust="spacingAndGlyphs" textLength="72" x="121.75" y="67.1045">methodCall()</text><line style="stroke: #A80036; stroke-width: 1.5;" x1="33" x2="250" y1="77.5" y2="77.5"/><line style="stroke: #A80036; stroke-width: 1.5;" x1="33" x2="121.5" y1="93.0544" y2="93.0544"/><text fill="#008000" font-family="sans-serif" font-size="11" font-weight="bold" lengthAdjust="spacingAndGlyphs" textLength="40" x="121.5" y="97.6919">has list</text><line style="stroke: #A80036; stroke-width: 1.5;" x1="161.5" x2="250" y1="93.0544" y2="93.0544"/><line style="stroke: #A80036; stroke-width: 1.0; stroke-dasharray: 1.0,2.0;" x1="33" x2="128.5" y1="115.7178" y2="115.7178"/><text fill="#000000" font-family="sans-serif" font-size="11" lengthAdjust="spacingAndGlyphs" textLength="26" x="128.5" y="120.3552">class</text><line style="stroke: #A80036; stroke-width: 1.0; stroke-dasharray: 1.0,2.0;" x1="154.5" x2="250" y1="115.7178" y2="115.7178"/><text fill="#000000" font-family="sans-serif" font-size="11" lengthAdjust="spacingAndGlyphs" textLength="88" x="38" y="158.6274">int a (339099861);</text><text fill="#000000" font-family="sans-serif" font-size="11" lengthAdjust="spacingAndGlyphs" textLength="94" x="38" y="173.7363">int b (1653986196);</text><text fill="#000000" font-family="sans-serif" font-size="11" lengthAdjust="spacingAndGlyphs" textLength="94" x="38" y="188.8452">int c (1197365356);</text><text fill="#000000" font-family="sans-serif" font-size="11" lengthAdjust="spacingAndGlyphs" textLength="94" x="38" y="203.9541">int x (1702660825);</text><text fill="#000000" font-family="sans-serif" font-size="11" lengthAdjust="spacingAndGlyphs" textLength="90" x="38" y="219.063">int i (1131040331);</text><text fill="#000000" font-family="sans-serif" font-size="11" lengthAdjust="spacingAndGlyphs" textLength="88" x="38" y="234.1719">int y (254749889);</text><text fill="#000000" font-family="sans-serif" font-size="11" lengthAdjust="spacingAndGlyphs" textLength="88" x="38" y="249.2808">int z (973576304);</text><line style="stroke: #A80036; stroke-width: 1.0; stroke-dasharray: 1.0,2.0;" x1="33" x2="122.5" y1="138.3811" y2="138.3811"/><text fill="#000000" font-family="sans-serif" font-size="11" lengthAdjust="spacingAndGlyphs" textLength="38" x="122.5" y="143.0186">member</text><line style="stroke: #A80036; stroke-width: 1.0; stroke-dasharray: 1.0,2.0;" x1="160.5" x2="250" y1="138.3811" y2="138.3811"/><line style="stroke: #A80036; stroke-width: 1.0; stroke-dasharray: 1.0,2.0;" x1="33" x2="124" y1="263.2522" y2="263.2522"/><text fill="#000000" font-family="sans-serif" font-size="11" lengthAdjust="spacingAndGlyphs" textLength="35" x="124" y="267.8896">method</text><line style="stroke: #A80036; stroke-width: 1.0; stroke-dasharray: 1.0,2.0;" x1="159" x2="250" y1="263.2522" y2="263.2522"/><line style="stroke: #A80036; stroke-width: 1.5;" x1="33" x2="114" y1="285.9155" y2="285.9155"/><text fill="#0000FF" font-family="sans-serif" font-size="11" font-weight="bold" lengthAdjust="spacingAndGlyphs" textLength="55" x="114" y="290.553">calling list</text><line style="stroke: #A80036; stroke-width: 1.5;" x1="169" x2="250" y1="285.9155" y2="285.9155"/><text fill="#000000" font-family="sans-serif" font-size="11" lengthAdjust="spacingAndGlyphs" textLength="80" x="38" y="328.8252">Exp (64133603);</text><line style="stroke: #A80036; stroke-width: 1.0; stroke-dasharray: 1.0,2.0;" x1="33" x2="128.5" y1="308.5789" y2="308.5789"/><text fill="#000000" font-family="sans-serif" font-size="11" lengthAdjust="spacingAndGlyphs" textLength="26" x="128.5" y="313.2163">class</text><line style="stroke: #A80036; stroke-width: 1.0; stroke-dasharray: 1.0,2.0;" x1="154.5" x2="250" y1="308.5789" y2="308.5789"/><text fill="#000000" font-family="sans-serif" font-size="11" lengthAdjust="spacingAndGlyphs" textLength="102" x="38" y="363.043">int field (992846223);</text><line style="stroke: #A80036; stroke-width: 1.0; stroke-dasharray: 1.0,2.0;" x1="33" x2="122.5" y1="342.7966" y2="342.7966"/><text fill="#000000" font-family="sans-serif" font-size="11" lengthAdjust="spacingAndGlyphs" textLength="38" x="122.5" y="347.4341">member</text><line style="stroke: #A80036; stroke-width: 1.0; stroke-dasharray: 1.0,2.0;" x1="160.5" x2="250" y1="342.7966" y2="342.7966"/><text fill="#000000" font-family="sans-serif" font-size="11" lengthAdjust="spacingAndGlyphs" textLength="142" x="38" y="397.2607">int methodCall() (630074945);</text><line style="stroke: #A80036; stroke-width: 1.0; stroke-dasharray: 1.0,2.0;" x1="33" x2="124" y1="377.0144" y2="377.0144"/><text fill="#000000" font-family="sans-serif" font-size="11" lengthAdjust="spacingAndGlyphs" textLength="35" x="124" y="381.6519">method</text><line style="stroke: #A80036; stroke-width: 1.0; stroke-dasharray: 1.0,2.0;" x1="159" x2="250" y1="377.0144" y2="377.0144"/><line style="stroke: #A80036; stroke-width: 1.5;" x1="33" x2="107.5" y1="411.2322" y2="411.2322"/><text fill="#FFA500" font-family="sans-serif" font-size="11" font-weight="bold" lengthAdjust="spacingAndGlyphs" textLength="68" x="107.5" y="415.8696">called by list</text><line style="stroke: #A80036; stroke-width: 1.5;" x1="175.5" x2="250" y1="411.2322" y2="411.2322"/><text fill="#000000" font-family="sans-serif" font-size="11" lengthAdjust="spacingAndGlyphs" textLength="80" x="38" y="454.1418">Exp (64133603);</text><line style="stroke: #A80036; stroke-width: 1.0; stroke-dasharray: 1.0,2.0;" x1="33" x2="128.5" y1="433.8955" y2="433.8955"/><text fill="#000000" font-family="sans-serif" font-size="11" lengthAdjust="spacingAndGlyphs" textLength="26" x="128.5" y="438.533">class</text><line style="stroke: #A80036; stroke-width: 1.0; stroke-dasharray: 1.0,2.0;" x1="154.5" x2="250" y1="433.8955" y2="433.8955"/><line style="stroke: #A80036; stroke-width: 1.0; stroke-dasharray: 1.0,2.0;" x1="33" x2="122.5" y1="468.1133" y2="468.1133"/><text fill="#000000" font-family="sans-serif" font-size="11" lengthAdjust="spacingAndGlyphs" textLength="38" x="122.5" y="472.7507">member</text><line style="stroke: #A80036; stroke-width: 1.0; stroke-dasharray: 1.0,2.0;" x1="160.5" x2="250" y1="468.1133" y2="468.1133"/><text fill="#000000" font-family="sans-serif" font-size="11" lengthAdjust="spacingAndGlyphs" textLength="207" x="38" y="511.0229">void main(java.lang.String[]) (1493625803);</text><text fill="#000000" font-family="sans-serif" font-size="11" lengthAdjust="spacingAndGlyphs" textLength="142" x="38" y="526.1318">int methodCall() (630074945);</text><line style="stroke: #A80036; stroke-width: 1.0; stroke-dasharray: 1.0,2.0;" x1="33" x2="124" y1="490.7766" y2="490.7766"/><text fill="#000000" font-family="sans-serif" font-size="11" lengthAdjust="spacingAndGlyphs" textLength="35" x="124" y="495.4141">method</text><line style="stroke: #A80036; stroke-width: 1.0; stroke-dasharray: 1.0,2.0;" x1="159" x2="250" y1="490.7766" y2="490.7766"/><!--MD5=[11e5e4d524ea2db12228dbcd6867999d]
@startuml
class target.Exp.methodCall(){
__**<color:green>has list</color>**__
..class..
..member..
	int a (339099861);
	int b (1653986196);
	int c (1197365356);
	int x (1702660825);
	int i (1131040331);
	int y (254749889);
	int z (973576304);
..method..
__**<color:blue>calling list</color>**__
..class..
	Exp (64133603);
..member..
	int field (992846223);
..method..
	int methodCall() (630074945);
__**<color:orange>called by list</color>**__
..class..
	Exp (64133603);
..member..
..method..
	void main(java.lang.String[]) (1493625803);
	int methodCall() (630074945);
}

@enduml

PlantUML version 1.2020.19(Tue Oct 13 00:10:01 KST 2020)
(APACHE source distribution)
Java Runtime: Java(TM) SE Runtime Environment
JVM: Java HotSpot(TM) 64-Bit Server VM
Default Encoding: MS949
Language: ko
Country: KR
--></g></svg>