<?xml version="1.0" encoding="UTF-8" standalone="no"?><svg xmlns="http://www.w3.org/2000/svg" xmlns:xlink="http://www.w3.org/1999/xlink" contentScriptType="application/ecmascript" contentStyleType="text/css" height="404px" preserveAspectRatio="none" style="width:361px;height:404px;" version="1.1" viewBox="0 0 361 404" width="361px" zoomAndPan="magnify"><defs><filter height="300%" id="f15bmk4h702fbd" width="300%" x="-1" y="-1"><feGaussianBlur result="blurOut" stdDeviation="2.0"/><feColorMatrix in="blurOut" result="blurOut2" type="matrix" values="0 0 0 0 0 0 0 0 0 0 0 0 0 0 0 0 0 0 .4 0"/><feOffset dx="4.0" dy="4.0" in="blurOut2" result="blurOut3"/><feBlend in="SourceGraphic" in2="blurOut3" mode="normal"/></filter></defs><g><!--MD5=[bef1dc5a5f986b4abb4386fbd2f5f120]
cluster target.Coffee--><polygon fill="#FFFFFF" filter="url(#f15bmk4h702fbd)" points="16,6,115,6,122,31.2295,344,31.2295,344,397,16,397,16,6" style="stroke: #000000; stroke-width: 1.5;"/><line style="stroke: #000000; stroke-width: 1.5;" x1="16" x2="122" y1="31.2295" y2="31.2295"/><text fill="#000000" font-family="sans-serif" font-size="14" font-weight="bold" lengthAdjust="spacingAndGlyphs" textLength="93" x="20" y="24.1533">target.Coffee</text><!--MD5=[e8f97830e6b32378af65328a57f5a2ec]
class target.Coffee.addShot()--><rect codeLine="1" fill="#FEFECE" filter="url(#f15bmk4h702fbd)" height="335.0688" id="target.Coffee.addShot()" style="stroke: #A80036; stroke-width: 1.5;" width="296" x="32" y="45.5"/><ellipse cx="148.75" cy="61.5" fill="#ADD1B2" rx="11" ry="11" style="stroke: #A80036; stroke-width: 1.0;"/><path d="M148.3125,55.0156 Q145.5781,55.0156 144.5,56.6406 Q143.3594,58.3594 143.3594,61.2813 Q143.3594,64.5781 144.5156,66.2813 Q145.5,67.7813 148.1094,67.7813 Q149.6875,67.7813 150.5625,66.9531 Q151.5469,66 151.6875,63.875 Q151.6875,63.5781 151.5156,63.4063 Q151.3906,63.25 151.1719,63.2344 Q149.9531,63.2344 149.7969,63.3594 Q149.625,63.5156 149.625,63.7813 Q149.5938,65.2656 148.9375,66.0781 Q148.3281,66.875 148.25,66.875 Q146.9219,66.875 146.1406,65.2813 Q145.3906,63.7344 145.3906,61.25 Q145.3906,58.625 146.3281,57.1719 Q147.1563,55.9219 148.4375,55.9219 Q148.4375,55.9219 148.7813,56.5469 Q149.4063,57.2188 149.5469,58.375 Q149.6563,58.9531 151.125,58.7344 Q151.6563,58.6563 151.625,58.2344 Q151.4531,56.7969 150.7344,55.9844 Q149.875,55.0156 148.3125,55.0156 Z "/><text fill="#000000" font-family="sans-serif" font-size="12" lengthAdjust="spacingAndGlyphs" textLength="54" x="169.25" y="67.1045">addShot()</text><line style="stroke: #A80036; stroke-width: 1.5;" x1="33" x2="327" y1="77.5" y2="77.5"/><line style="stroke: #A80036; stroke-width: 1.5;" x1="33" x2="160" y1="93.0544" y2="93.0544"/><text fill="#008000" font-family="sans-serif" font-size="11" font-weight="bold" lengthAdjust="spacingAndGlyphs" textLength="40" x="160" y="97.6919">has list</text><line style="stroke: #A80036; stroke-width: 1.5;" x1="200" x2="327" y1="93.0544" y2="93.0544"/><line style="stroke: #A80036; stroke-width: 1.0; stroke-dasharray: 1.0,2.0;" x1="33" x2="167" y1="115.7178" y2="115.7178"/><text fill="#000000" font-family="sans-serif" font-size="11" lengthAdjust="spacingAndGlyphs" textLength="26" x="167" y="120.3552">class</text><line style="stroke: #A80036; stroke-width: 1.0; stroke-dasharray: 1.0,2.0;" x1="193" x2="327" y1="115.7178" y2="115.7178"/><line style="stroke: #A80036; stroke-width: 1.0; stroke-dasharray: 1.0,2.0;" x1="33" x2="161" y1="138.3811" y2="138.3811"/><text fill="#000000" font-family="sans-serif" font-size="11" lengthAdjust="spacingAndGlyphs" textLength="38" x="161" y="143.0186">member</text><line style="stroke: #A80036; stroke-width: 1.0; stroke-dasharray: 1.0,2.0;" x1="199" x2="327" y1="138.3811" y2="138.3811"/><line style="stroke: #A80036; stroke-width: 1.0; stroke-dasharray: 1.0,2.0;" x1="33" x2="162.5" y1="161.0444" y2="161.0444"/><text fill="#000000" font-family="sans-serif" font-size="11" lengthAdjust="spacingAndGlyphs" textLength="35" x="162.5" y="165.6819">method</text><line style="stroke: #A80036; stroke-width: 1.0; stroke-dasharray: 1.0,2.0;" x1="197.5" x2="327" y1="161.0444" y2="161.0444"/><line style="stroke: #A80036; stroke-width: 1.5;" x1="33" x2="152.5" y1="183.7078" y2="183.7078"/><text fill="#0000FF" font-family="sans-serif" font-size="11" font-weight="bold" lengthAdjust="spacingAndGlyphs" textLength="55" x="152.5" y="188.3452">calling list</text><line style="stroke: #A80036; stroke-width: 1.5;" x1="207.5" x2="327" y1="183.7078" y2="183.7078"/><line style="stroke: #A80036; stroke-width: 1.0; stroke-dasharray: 1.0,2.0;" x1="33" x2="167" y1="206.3711" y2="206.3711"/><text fill="#000000" font-family="sans-serif" font-size="11" lengthAdjust="spacingAndGlyphs" textLength="26" x="167" y="211.0085">class</text><line style="stroke: #A80036; stroke-width: 1.0; stroke-dasharray: 1.0,2.0;" x1="193" x2="327" y1="206.3711" y2="206.3711"/><line style="stroke: #A80036; stroke-width: 1.0; stroke-dasharray: 1.0,2.0;" x1="33" x2="161" y1="229.0344" y2="229.0344"/><text fill="#000000" font-family="sans-serif" font-size="11" lengthAdjust="spacingAndGlyphs" textLength="38" x="161" y="233.6719">member</text><line style="stroke: #A80036; stroke-width: 1.0; stroke-dasharray: 1.0,2.0;" x1="199" x2="327" y1="229.0344" y2="229.0344"/><line style="stroke: #A80036; stroke-width: 1.0; stroke-dasharray: 1.0,2.0;" x1="33" x2="162.5" y1="251.6978" y2="251.6978"/><text fill="#000000" font-family="sans-serif" font-size="11" lengthAdjust="spacingAndGlyphs" textLength="35" x="162.5" y="256.3352">method</text><line style="stroke: #A80036; stroke-width: 1.0; stroke-dasharray: 1.0,2.0;" x1="197.5" x2="327" y1="251.6978" y2="251.6978"/><line style="stroke: #A80036; stroke-width: 1.5;" x1="33" x2="146" y1="274.3611" y2="274.3611"/><text fill="#FFA500" font-family="sans-serif" font-size="11" font-weight="bold" lengthAdjust="spacingAndGlyphs" textLength="68" x="146" y="278.9985">called by list</text><line style="stroke: #A80036; stroke-width: 1.5;" x1="214" x2="327" y1="274.3611" y2="274.3611"/><text fill="#000000" font-family="sans-serif" font-size="11" lengthAdjust="spacingAndGlyphs" textLength="108" x="38" y="317.2708">Barista (1213349904);</text><line style="stroke: #A80036; stroke-width: 1.0; stroke-dasharray: 1.0,2.0;" x1="33" x2="167" y1="297.0244" y2="297.0244"/><text fill="#000000" font-family="sans-serif" font-size="11" lengthAdjust="spacingAndGlyphs" textLength="26" x="167" y="301.6619">class</text><line style="stroke: #A80036; stroke-width: 1.0; stroke-dasharray: 1.0,2.0;" x1="193" x2="327" y1="297.0244" y2="297.0244"/><line style="stroke: #A80036; stroke-width: 1.0; stroke-dasharray: 1.0,2.0;" x1="33" x2="161" y1="331.2422" y2="331.2422"/><text fill="#000000" font-family="sans-serif" font-size="11" lengthAdjust="spacingAndGlyphs" textLength="38" x="161" y="335.8796">member</text><line style="stroke: #A80036; stroke-width: 1.0; stroke-dasharray: 1.0,2.0;" x1="199" x2="327" y1="331.2422" y2="331.2422"/><text fill="#000000" font-family="sans-serif" font-size="11" lengthAdjust="spacingAndGlyphs" textLength="284" x="38" y="374.1519">Coffee makeCoffee(target.Coffee, boolean) (1054932644);</text><line style="stroke: #A80036; stroke-width: 1.0; stroke-dasharray: 1.0,2.0;" x1="33" x2="162.5" y1="353.9055" y2="353.9055"/><text fill="#000000" font-family="sans-serif" font-size="11" lengthAdjust="spacingAndGlyphs" textLength="35" x="162.5" y="358.543">method</text><line style="stroke: #A80036; stroke-width: 1.0; stroke-dasharray: 1.0,2.0;" x1="197.5" x2="327" y1="353.9055" y2="353.9055"/><!--MD5=[dd67eb2de5cfc1f64e504e81db73929d]
@startuml
class target.Coffee.addShot(){
__**<color:green>has list</color>**__
..class..
..member..
..method..
__**<color:blue>calling list</color>**__
..class..
..member..
..method..
__**<color:orange>called by list</color>**__
..class..
	Barista (1213349904);
..member..
..method..
	Coffee makeCoffee(target.Coffee, boolean) (1054932644);
}

@enduml

PlantUML version 1.2020.19(Tue Oct 13 00:10:01 KST 2020)
(APACHE source distribution)
Java Runtime: Java(TM) SE Runtime Environment
JVM: Java HotSpot(TM) 64-Bit Server VM
Default Encoding: MS949
Language: ko
Country: KR
--></g></svg>