<?xml version="1.0" encoding="UTF-8" standalone="no"?><svg xmlns="http://www.w3.org/2000/svg" xmlns:xlink="http://www.w3.org/1999/xlink" contentScriptType="application/ecmascript" contentStyleType="text/css" height="645px" preserveAspectRatio="none" style="width:594px;height:645px;" version="1.1" viewBox="0 0 594 645" width="594px" zoomAndPan="magnify"><defs><filter height="300%" id="f4sgebsn6i8w9" width="300%" x="-1" y="-1"><feGaussianBlur result="blurOut" stdDeviation="2.0"/><feColorMatrix in="blurOut" result="blurOut2" type="matrix" values="0 0 0 0 0 0 0 0 0 0 0 0 0 0 0 0 0 0 .4 0"/><feOffset dx="4.0" dy="4.0" in="blurOut2" result="blurOut3"/><feBlend in="SourceGraphic" in2="blurOut3" mode="normal"/></filter></defs><g><rect fill="#FFFFFF" filter="url(#f4sgebsn6i8w9)" height="65.7119" style="stroke: #000000; stroke-width: 2.0;" width="353.5" x="10" y="60.2295"/><rect fill="#FFFFFF" filter="url(#f4sgebsn6i8w9)" height="157.4238" style="stroke: #000000; stroke-width: 2.0;" width="570" x="10" y="139.9414"/><rect fill="#FFFFFF" filter="url(#f4sgebsn6i8w9)" height="111.5679" style="stroke: #000000; stroke-width: 2.0;" width="474.5" x="10" y="311.3652"/><rect fill="#FFFFFF" filter="url(#f4sgebsn6i8w9)" height="65.7119" style="stroke: #000000; stroke-width: 2.0;" width="353.5" x="10" y="436.9331"/><rect fill="#FFFFFF" filter="url(#f4sgebsn6i8w9)" height="65.7119" style="stroke: #000000; stroke-width: 2.0;" width="353.5" x="10" y="516.645"/><line style="stroke: #A80036; stroke-width: 1.0; stroke-dasharray: 5.0,5.0;" x1="71" x2="71" y1="43.2295" y2="599.3569"/><line style="stroke: #A80036; stroke-width: 1.0; stroke-dasharray: 5.0,5.0;" x1="327.5" x2="327.5" y1="43.2295" y2="599.3569"/><line style="stroke: #A80036; stroke-width: 1.0; stroke-dasharray: 5.0,5.0;" x1="450.5" x2="450.5" y1="43.2295" y2="599.3569"/><line style="stroke: #A80036; stroke-width: 1.0; stroke-dasharray: 5.0,5.0;" x1="540" x2="540" y1="43.2295" y2="599.3569"/><rect fill="#FEFECE" filter="url(#f4sgebsn6i8w9)" height="33.2295" style="stroke: #A80036; stroke-width: 1.5;" width="98" x="20" y="5"/><text fill="#000000" font-family="sans-serif" font-size="14" lengthAdjust="spacingAndGlyphs" textLength="84" x="27" y="28.1533">TestScenario</text><rect fill="#FEFECE" filter="url(#f4sgebsn6i8w9)" height="33.2295" style="stroke: #A80036; stroke-width: 1.5;" width="98" x="20" y="598.3569"/><text fill="#000000" font-family="sans-serif" font-size="14" lengthAdjust="spacingAndGlyphs" textLength="84" x="27" y="621.5103">TestScenario</text><rect fill="#FEFECE" filter="url(#f4sgebsn6i8w9)" height="33.2295" style="stroke: #A80036; stroke-width: 1.5;" width="47" x="302.5" y="5"/><text fill="#000000" font-family="sans-serif" font-size="14" lengthAdjust="spacingAndGlyphs" textLength="33" x="309.5" y="28.1533">Shop</text><rect fill="#FEFECE" filter="url(#f4sgebsn6i8w9)" height="33.2295" style="stroke: #A80036; stroke-width: 1.5;" width="47" x="302.5" y="598.3569"/><text fill="#000000" font-family="sans-serif" font-size="14" lengthAdjust="spacingAndGlyphs" textLength="33" x="309.5" y="621.5103">Shop</text><rect fill="#FEFECE" filter="url(#f4sgebsn6i8w9)" height="33.2295" style="stroke: #A80036; stroke-width: 1.5;" width="43" x="427.5" y="5"/><text fill="#000000" font-family="sans-serif" font-size="14" lengthAdjust="spacingAndGlyphs" textLength="29" x="434.5" y="28.1533">User</text><rect fill="#FEFECE" filter="url(#f4sgebsn6i8w9)" height="33.2295" style="stroke: #A80036; stroke-width: 1.5;" width="43" x="427.5" y="598.3569"/><text fill="#000000" font-family="sans-serif" font-size="14" lengthAdjust="spacingAndGlyphs" textLength="29" x="434.5" y="621.5103">User</text><rect fill="#FEFECE" filter="url(#f4sgebsn6i8w9)" height="33.2295" style="stroke: #A80036; stroke-width: 1.5;" width="56" x="510" y="5"/><text fill="#000000" font-family="sans-serif" font-size="14" lengthAdjust="spacingAndGlyphs" textLength="42" x="517" y="28.1533">Goods</text><rect fill="#FEFECE" filter="url(#f4sgebsn6i8w9)" height="33.2295" style="stroke: #A80036; stroke-width: 1.5;" width="56" x="510" y="598.3569"/><text fill="#000000" font-family="sans-serif" font-size="14" lengthAdjust="spacingAndGlyphs" textLength="42" x="517" y="621.5103">Goods</text><path d="M10,60.2295 L130,60.2295 L130,69.2295 L120,79.2295 L10,79.2295 L10,60.2295 " fill="#EEEEEE" style="stroke: #000000; stroke-width: 1.0;"/><rect fill="none" height="65.7119" style="stroke: #000000; stroke-width: 2.0;" width="353.5" x="10" y="60.2295"/><text fill="#000000" font-family="sans-serif" font-size="13" font-weight="bold" lengthAdjust="spacingAndGlyphs" textLength="75" x="25" y="76.229">void Login()</text><polygon fill="#A80036" points="316,99.9414,326,103.9414,316,107.9414,320,103.9414" style="stroke: #A80036; stroke-width: 1.0;"/><line style="stroke: #A80036; stroke-width: 1.0;" x1="71" x2="322" y1="103.9414" y2="103.9414"/><text fill="#000000" font-family="sans-serif" font-size="13" lengthAdjust="spacingAndGlyphs" textLength="219" x="78" y="99.085">login(java.lang.String, java.lang.String)</text><polygon fill="#A80036" points="82,113.9414,72,117.9414,82,121.9414,78,117.9414" style="stroke: #A80036; stroke-width: 1.0;"/><line style="stroke: #A80036; stroke-width: 1.0; stroke-dasharray: 2.0,2.0;" x1="76" x2="327" y1="117.9414" y2="117.9414"/><path d="M10,139.9414 L174,139.9414 L174,148.9414 L164,158.9414 L10,158.9414 L10,139.9414 " fill="#EEEEEE" style="stroke: #000000; stroke-width: 1.0;"/><rect fill="none" height="157.4238" style="stroke: #000000; stroke-width: 2.0;" width="570" x="10" y="139.9414"/><text fill="#000000" font-family="sans-serif" font-size="13" font-weight="bold" lengthAdjust="spacingAndGlyphs" textLength="119" x="25" y="155.9409">void Buy_Product()</text><polygon fill="#A80036" points="316,179.6533,326,183.6533,316,187.6533,320,183.6533" style="stroke: #A80036; stroke-width: 1.0;"/><line style="stroke: #A80036; stroke-width: 1.0;" x1="71" x2="322" y1="183.6533" y2="183.6533"/><text fill="#000000" font-family="sans-serif" font-size="13" lengthAdjust="spacingAndGlyphs" textLength="166" x="78" y="178.7969">buy(shop.User, shop.Goods)</text><polygon fill="#A80036" points="439,211.5093,449,215.5093,439,219.5093,443,215.5093" style="stroke: #A80036; stroke-width: 1.0;"/><line style="stroke: #A80036; stroke-width: 1.0;" x1="328" x2="445" y1="215.5093" y2="215.5093"/><text fill="#000000" font-family="sans-serif" font-size="13" lengthAdjust="spacingAndGlyphs" textLength="99" x="335" y="210.6528">buy(shop.Goods)</text><polygon fill="#A80036" points="528,243.3652,538,247.3652,528,251.3652,532,247.3652" style="stroke: #A80036; stroke-width: 1.0;"/><line style="stroke: #A80036; stroke-width: 1.0;" x1="451" x2="534" y1="247.3652" y2="247.3652"/><text fill="#000000" font-family="sans-serif" font-size="13" lengthAdjust="spacingAndGlyphs" textLength="65" x="458" y="242.5088">getMoney()</text><polygon fill="#A80036" points="462,257.3652,452,261.3652,462,265.3652,458,261.3652" style="stroke: #A80036; stroke-width: 1.0;"/><line style="stroke: #A80036; stroke-width: 1.0; stroke-dasharray: 2.0,2.0;" x1="456" x2="539" y1="261.3652" y2="261.3652"/><polygon fill="#A80036" points="339,271.3652,329,275.3652,339,279.3652,335,275.3652" style="stroke: #A80036; stroke-width: 1.0;"/><line style="stroke: #A80036; stroke-width: 1.0; stroke-dasharray: 2.0,2.0;" x1="333" x2="450" y1="275.3652" y2="275.3652"/><polygon fill="#A80036" points="82,285.3652,72,289.3652,82,293.3652,78,289.3652" style="stroke: #A80036; stroke-width: 1.0;"/><line style="stroke: #A80036; stroke-width: 1.0; stroke-dasharray: 2.0,2.0;" x1="76" x2="327" y1="289.3652" y2="289.3652"/><path d="M10,311.3652 L189,311.3652 L189,320.3652 L179,330.3652 L10,330.3652 L10,311.3652 " fill="#EEEEEE" style="stroke: #000000; stroke-width: 1.0;"/><rect fill="none" height="111.5679" style="stroke: #000000; stroke-width: 2.0;" width="474.5" x="10" y="311.3652"/><text fill="#000000" font-family="sans-serif" font-size="13" font-weight="bold" lengthAdjust="spacingAndGlyphs" textLength="134" x="25" y="327.3647">void Charge_Money()</text><polygon fill="#A80036" points="316,351.0771,326,355.0771,316,359.0771,320,355.0771" style="stroke: #A80036; stroke-width: 1.0;"/><line style="stroke: #A80036; stroke-width: 1.0;" x1="71" x2="322" y1="355.0771" y2="355.0771"/><text fill="#000000" font-family="sans-serif" font-size="13" lengthAdjust="spacingAndGlyphs" textLength="128" x="78" y="350.2207">charge(shop.User, int)</text><polygon fill="#A80036" points="439,382.9331,449,386.9331,439,390.9331,443,386.9331" style="stroke: #A80036; stroke-width: 1.0;"/><line style="stroke: #A80036; stroke-width: 1.0;" x1="328" x2="445" y1="386.9331" y2="386.9331"/><text fill="#000000" font-family="sans-serif" font-size="13" lengthAdjust="spacingAndGlyphs" textLength="79" x="335" y="382.0767">setMoney(int)</text><polygon fill="#A80036" points="339,396.9331,329,400.9331,339,404.9331,335,400.9331" style="stroke: #A80036; stroke-width: 1.0;"/><line style="stroke: #A80036; stroke-width: 1.0; stroke-dasharray: 2.0,2.0;" x1="333" x2="450" y1="400.9331" y2="400.9331"/><polygon fill="#A80036" points="82,410.9331,72,414.9331,82,418.9331,78,414.9331" style="stroke: #A80036; stroke-width: 1.0;"/><line style="stroke: #A80036; stroke-width: 1.0; stroke-dasharray: 2.0,2.0;" x1="76" x2="327" y1="414.9331" y2="414.9331"/><path d="M10,436.9331 L175,436.9331 L175,445.9331 L165,455.9331 L10,455.9331 L10,436.9331 " fill="#EEEEEE" style="stroke: #000000; stroke-width: 1.0;"/><rect fill="none" height="65.7119" style="stroke: #000000; stroke-width: 2.0;" width="353.5" x="10" y="436.9331"/><text fill="#000000" font-family="sans-serif" font-size="13" font-weight="bold" lengthAdjust="spacingAndGlyphs" textLength="120" x="25" y="452.9326">void Add_Product()</text><polygon fill="#A80036" points="316,476.645,326,480.645,316,484.645,320,480.645" style="stroke: #A80036; stroke-width: 1.0;"/><line style="stroke: #A80036; stroke-width: 1.0;" x1="71" x2="322" y1="480.645" y2="480.645"/><text fill="#000000" font-family="sans-serif" font-size="13" lengthAdjust="spacingAndGlyphs" textLength="233" x="78" y="475.7886">addGoods(shop.Goods, java.lang.String)</text><polygon fill="#A80036" points="82,490.645,72,494.645,82,498.645,78,494.645" style="stroke: #A80036; stroke-width: 1.0;"/><line style="stroke: #A80036; stroke-width: 1.0; stroke-dasharray: 2.0,2.0;" x1="76" x2="327" y1="494.645" y2="494.645"/><path d="M10,516.645 L170,516.645 L170,525.645 L160,535.645 L10,535.645 L10,516.645 " fill="#EEEEEE" style="stroke: #000000; stroke-width: 1.0;"/><rect fill="none" height="65.7119" style="stroke: #000000; stroke-width: 2.0;" width="353.5" x="10" y="516.645"/><text fill="#000000" font-family="sans-serif" font-size="13" font-weight="bold" lengthAdjust="spacingAndGlyphs" textLength="115" x="25" y="532.6445">void Registration()</text><polygon fill="#A80036" points="316,556.3569,326,560.3569,316,564.3569,320,560.3569" style="stroke: #A80036; stroke-width: 1.0;"/><line style="stroke: #A80036; stroke-width: 1.0;" x1="71" x2="322" y1="560.3569" y2="560.3569"/><text fill="#000000" font-family="sans-serif" font-size="13" lengthAdjust="spacingAndGlyphs" textLength="224" x="78" y="555.5005">regist(java.lang.String, java.lang.String)</text><polygon fill="#A80036" points="82,570.3569,72,574.3569,82,578.3569,78,574.3569" style="stroke: #A80036; stroke-width: 1.0;"/><line style="stroke: #A80036; stroke-width: 1.0; stroke-dasharray: 2.0,2.0;" x1="76" x2="327" y1="574.3569" y2="574.3569"/><!--MD5=[8793c018530fd0b7bdf1363f42131b6d]
@startuml
group void Login()
	TestScenario->Shop : login(java.lang.String, java.lang.String)
		Shop- ->TestScenario
end

group void Buy_Product()
	TestScenario->Shop : buy(shop.User, shop.Goods)
		Shop->User : buy(shop.Goods)
			User->Goods : getMoney()
				Goods- ->User
			User- ->Shop
		Shop- ->TestScenario
end

group void Charge_Money()
	TestScenario->Shop : charge(shop.User, int)
		Shop->User : setMoney(int)
			User- ->Shop
		Shop- ->TestScenario
end

group void Add_Product()
	TestScenario->Shop : addGoods(shop.Goods, java.lang.String)
		Shop- ->TestScenario
end

group void Registration()
	TestScenario->Shop : regist(java.lang.String, java.lang.String)
		Shop- ->TestScenario
end

@enduml

PlantUML version 1.2020.19(Tue Oct 13 00:10:01 KST 2020)
(APACHE source distribution)
Java Runtime: Java(TM) SE Runtime Environment
JVM: Java HotSpot(TM) 64-Bit Server VM
Default Encoding: MS949
Language: ko
Country: KR
--></g></svg>