<?xml version="1.0" encoding="UTF-8" standalone="no"?><svg xmlns="http://www.w3.org/2000/svg" xmlns:xlink="http://www.w3.org/1999/xlink" contentScriptType="application/ecmascript" contentStyleType="text/css" height="382px" preserveAspectRatio="none" style="width:380px;height:382px;" version="1.1" viewBox="0 0 380 382" width="380px" zoomAndPan="magnify"><defs><filter height="300%" id="f4w03b6z286kc" width="300%" x="-1" y="-1"><feGaussianBlur result="blurOut" stdDeviation="2.0"/><feColorMatrix in="blurOut" result="blurOut2" type="matrix" values="0 0 0 0 0 0 0 0 0 0 0 0 0 0 0 0 0 0 .4 0"/><feOffset dx="4.0" dy="4.0" in="blurOut2" result="blurOut3"/><feBlend in="SourceGraphic" in2="blurOut3" mode="normal"/></filter></defs><g><rect fill="#FFFFFF" filter="url(#f4w03b6z286kc)" height="111.5679" style="stroke: #000000; stroke-width: 2.0;" width="287.5" x="10" y="60.2295"/><rect fill="#FFFFFF" filter="url(#f4w03b6z286kc)" height="65.7119" style="stroke: #000000; stroke-width: 2.0;" width="244" x="10" y="185.7974"/><rect fill="#FFFFFF" filter="url(#f4w03b6z286kc)" height="19.856" style="stroke: #000000; stroke-width: 2.0;" width="336" x="30" y="265.5093"/><rect fill="#FFFFFF" filter="url(#f4w03b6z286kc)" height="19.856" style="stroke: #000000; stroke-width: 2.0;" width="295" x="30" y="299.3652"/><line style="stroke: #A80036; stroke-width: 1.0; stroke-dasharray: 5.0,5.0;" x1="45" x2="45" y1="43.2295" y2="336.2212"/><line style="stroke: #A80036; stroke-width: 1.0; stroke-dasharray: 5.0,5.0;" x1="168" x2="168" y1="43.2295" y2="336.2212"/><line style="stroke: #A80036; stroke-width: 1.0; stroke-dasharray: 5.0,5.0;" x1="257.5" x2="257.5" y1="43.2295" y2="336.2212"/><rect fill="#FEFECE" filter="url(#f4w03b6z286kc)" height="33.2295" style="stroke: #A80036; stroke-width: 1.5;" width="47" x="20" y="5"/><text fill="#000000" font-family="sans-serif" font-size="14" lengthAdjust="spacingAndGlyphs" textLength="33" x="27" y="28.1533">Shop</text><rect fill="#FEFECE" filter="url(#f4w03b6z286kc)" height="33.2295" style="stroke: #A80036; stroke-width: 1.5;" width="47" x="20" y="335.2212"/><text fill="#000000" font-family="sans-serif" font-size="14" lengthAdjust="spacingAndGlyphs" textLength="33" x="27" y="358.3745">Shop</text><rect fill="#FEFECE" filter="url(#f4w03b6z286kc)" height="33.2295" style="stroke: #A80036; stroke-width: 1.5;" width="43" x="145" y="5"/><text fill="#000000" font-family="sans-serif" font-size="14" lengthAdjust="spacingAndGlyphs" textLength="29" x="152" y="28.1533">User</text><rect fill="#FEFECE" filter="url(#f4w03b6z286kc)" height="33.2295" style="stroke: #A80036; stroke-width: 1.5;" width="43" x="145" y="335.2212"/><text fill="#000000" font-family="sans-serif" font-size="14" lengthAdjust="spacingAndGlyphs" textLength="29" x="152" y="358.3745">User</text><rect fill="#FEFECE" filter="url(#f4w03b6z286kc)" height="33.2295" style="stroke: #A80036; stroke-width: 1.5;" width="56" x="227.5" y="5"/><text fill="#000000" font-family="sans-serif" font-size="14" lengthAdjust="spacingAndGlyphs" textLength="42" x="234.5" y="28.1533">Goods</text><rect fill="#FEFECE" filter="url(#f4w03b6z286kc)" height="33.2295" style="stroke: #A80036; stroke-width: 1.5;" width="56" x="227.5" y="335.2212"/><text fill="#000000" font-family="sans-serif" font-size="14" lengthAdjust="spacingAndGlyphs" textLength="42" x="234.5" y="358.3745">Goods</text><path d="M10,60.2295 L286,60.2295 L286,69.2295 L276,79.2295 L10,79.2295 L10,60.2295 " fill="#EEEEEE" style="stroke: #000000; stroke-width: 1.0;"/><rect fill="none" height="111.5679" style="stroke: #000000; stroke-width: 2.0;" width="287.5" x="10" y="60.2295"/><text fill="#000000" font-family="sans-serif" font-size="13" font-weight="bold" lengthAdjust="spacingAndGlyphs" textLength="231" x="25" y="76.229">boolean buy(shop.User, shop.Goods)</text><polygon fill="#A80036" points="156.5,99.9414,166.5,103.9414,156.5,107.9414,160.5,103.9414" style="stroke: #A80036; stroke-width: 1.0;"/><line style="stroke: #A80036; stroke-width: 1.0;" x1="45.5" x2="162.5" y1="103.9414" y2="103.9414"/><text fill="#000000" font-family="sans-serif" font-size="13" lengthAdjust="spacingAndGlyphs" textLength="99" x="52.5" y="99.085">buy(shop.Goods)</text><polygon fill="#A80036" points="245.5,131.7974,255.5,135.7974,245.5,139.7974,249.5,135.7974" style="stroke: #A80036; stroke-width: 1.0;"/><line style="stroke: #A80036; stroke-width: 1.0;" x1="168.5" x2="251.5" y1="135.7974" y2="135.7974"/><text fill="#000000" font-family="sans-serif" font-size="13" lengthAdjust="spacingAndGlyphs" textLength="65" x="175.5" y="130.9409">getMoney()</text><polygon fill="#A80036" points="179.5,145.7974,169.5,149.7974,179.5,153.7974,175.5,149.7974" style="stroke: #A80036; stroke-width: 1.0;"/><line style="stroke: #A80036; stroke-width: 1.0; stroke-dasharray: 2.0,2.0;" x1="173.5" x2="256.5" y1="149.7974" y2="149.7974"/><polygon fill="#A80036" points="56.5,159.7974,46.5,163.7974,56.5,167.7974,52.5,163.7974" style="stroke: #A80036; stroke-width: 1.0;"/><line style="stroke: #A80036; stroke-width: 1.0; stroke-dasharray: 2.0,2.0;" x1="50.5" x2="167.5" y1="163.7974" y2="163.7974"/><path d="M10,185.7974 L249,185.7974 L249,194.7974 L239,204.7974 L10,204.7974 L10,185.7974 " fill="#EEEEEE" style="stroke: #000000; stroke-width: 1.0;"/><rect fill="none" height="65.7119" style="stroke: #000000; stroke-width: 2.0;" width="244" x="10" y="185.7974"/><text fill="#000000" font-family="sans-serif" font-size="13" font-weight="bold" lengthAdjust="spacingAndGlyphs" textLength="194" x="25" y="201.7969">boolean charge(shop.User, int)</text><polygon fill="#A80036" points="156.5,225.5093,166.5,229.5093,156.5,233.5093,160.5,229.5093" style="stroke: #A80036; stroke-width: 1.0;"/><line style="stroke: #A80036; stroke-width: 1.0;" x1="45.5" x2="162.5" y1="229.5093" y2="229.5093"/><text fill="#000000" font-family="sans-serif" font-size="13" lengthAdjust="spacingAndGlyphs" textLength="79" x="52.5" y="224.6528">setMoney(int)</text><polygon fill="#A80036" points="56.5,239.5093,46.5,243.5093,56.5,247.5093,52.5,243.5093" style="stroke: #A80036; stroke-width: 1.0;"/><line style="stroke: #A80036; stroke-width: 1.0; stroke-dasharray: 2.0,2.0;" x1="50.5" x2="167.5" y1="243.5093" y2="243.5093"/><path d="M30,265.5093 L361,265.5093 L361,274.5093 L351,284.5093 L30,284.5093 L30,265.5093 " fill="#EEEEEE" style="stroke: #000000; stroke-width: 1.0;"/><rect fill="none" height="19.856" style="stroke: #000000; stroke-width: 2.0;" width="336" x="30" y="265.5093"/><text fill="#000000" font-family="sans-serif" font-size="13" font-weight="bold" lengthAdjust="spacingAndGlyphs" textLength="286" x="45" y="281.5088">void addGoods(shop.Goods, java.lang.String)</text><path d="M30,299.3652 L320,299.3652 L320,308.3652 L310,318.3652 L30,318.3652 L30,299.3652 " fill="#EEEEEE" style="stroke: #000000; stroke-width: 1.0;"/><rect fill="none" height="19.856" style="stroke: #000000; stroke-width: 2.0;" width="295" x="30" y="299.3652"/><text fill="#000000" font-family="sans-serif" font-size="13" font-weight="bold" lengthAdjust="spacingAndGlyphs" textLength="245" x="45" y="315.3647">boolean check(shop.User, shop.Goods)</text><!--MD5=[90da1ce6b8ad3fee5e6d1613a034cff6]
@startuml
group boolean buy(shop.User, shop.Goods)
	Shop->User : buy(shop.Goods)
		User->Goods : getMoney()
			Goods- ->User
		User- ->Shop
end

group boolean charge(shop.User, int)
	Shop->User : setMoney(int)
		User- ->Shop
end

group void addGoods(shop.Goods, java.lang.String)
end

group boolean check(shop.User, shop.Goods)
end

@enduml

PlantUML version 1.2020.19(Tue Oct 13 00:10:01 KST 2020)
(APACHE source distribution)
Java Runtime: Java(TM) SE Runtime Environment
JVM: Java HotSpot(TM) 64-Bit Server VM
Default Encoding: MS949
Language: ko
Country: KR
--></g></svg>