<?xml version="1.0" encoding="UTF-8" standalone="no"?><svg xmlns="http://www.w3.org/2000/svg" xmlns:xlink="http://www.w3.org/1999/xlink" contentScriptType="application/ecmascript" contentStyleType="text/css" height="314px" preserveAspectRatio="none" style="width:310px;height:314px;" version="1.1" viewBox="0 0 310 314" width="310px" zoomAndPan="magnify"><defs><filter height="300%" id="fdney8ham5qhw" width="300%" x="-1" y="-1"><feGaussianBlur result="blurOut" stdDeviation="2.0"/><feColorMatrix in="blurOut" result="blurOut2" type="matrix" values="0 0 0 0 0 0 0 0 0 0 0 0 0 0 0 0 0 0 .4 0"/><feOffset dx="4.0" dy="4.0" in="blurOut2" result="blurOut3"/><feBlend in="SourceGraphic" in2="blurOut3" mode="normal"/></filter></defs><g><rect fill="#FFFFFF" filter="url(#fdney8ham5qhw)" height="111.5679" style="stroke: #000000; stroke-width: 2.0;" width="221" x="10" y="60.2295"/><rect fill="#FFFFFF" filter="url(#fdney8ham5qhw)" height="65.7119" style="stroke: #000000; stroke-width: 2.0;" width="286" x="10" y="185.7974"/><line style="stroke: #A80036; stroke-width: 1.0; stroke-dasharray: 5.0,5.0;" x1="43" x2="43" y1="43.2295" y2="268.5093"/><line style="stroke: #A80036; stroke-width: 1.0; stroke-dasharray: 5.0,5.0;" x1="114" x2="114" y1="43.2295" y2="268.5093"/><line style="stroke: #A80036; stroke-width: 1.0; stroke-dasharray: 5.0,5.0;" x1="191" x2="191" y1="43.2295" y2="268.5093"/><line style="stroke: #A80036; stroke-width: 1.0; stroke-dasharray: 5.0,5.0;" x1="258" x2="258" y1="43.2295" y2="268.5093"/><rect fill="#FEFECE" filter="url(#fdney8ham5qhw)" height="33.2295" style="stroke: #A80036; stroke-width: 1.5;" width="43" x="20" y="5"/><text fill="#000000" font-family="sans-serif" font-size="14" lengthAdjust="spacingAndGlyphs" textLength="29" x="27" y="28.1533">User</text><rect fill="#FEFECE" filter="url(#fdney8ham5qhw)" height="33.2295" style="stroke: #A80036; stroke-width: 1.5;" width="43" x="20" y="267.5093"/><text fill="#000000" font-family="sans-serif" font-size="14" lengthAdjust="spacingAndGlyphs" textLength="29" x="27" y="290.6626">User</text><rect fill="#FEFECE" filter="url(#fdney8ham5qhw)" height="33.2295" style="stroke: #A80036; stroke-width: 1.5;" width="70" x="77" y="5"/><text fill="#000000" font-family="sans-serif" font-size="14" lengthAdjust="spacingAndGlyphs" textLength="56" x="84" y="28.1533">ArrayList</text><rect fill="#FEFECE" filter="url(#fdney8ham5qhw)" height="33.2295" style="stroke: #A80036; stroke-width: 1.5;" width="70" x="77" y="267.5093"/><text fill="#000000" font-family="sans-serif" font-size="14" lengthAdjust="spacingAndGlyphs" textLength="56" x="84" y="290.6626">ArrayList</text><rect fill="#FEFECE" filter="url(#fdney8ham5qhw)" height="33.2295" style="stroke: #A80036; stroke-width: 1.5;" width="56" x="161" y="5"/><text fill="#000000" font-family="sans-serif" font-size="14" lengthAdjust="spacingAndGlyphs" textLength="42" x="168" y="28.1533">Goods</text><rect fill="#FEFECE" filter="url(#fdney8ham5qhw)" height="33.2295" style="stroke: #A80036; stroke-width: 1.5;" width="56" x="161" y="267.5093"/><text fill="#000000" font-family="sans-serif" font-size="14" lengthAdjust="spacingAndGlyphs" textLength="42" x="168" y="290.6626">Goods</text><rect fill="#FEFECE" filter="url(#fdney8ham5qhw)" height="33.2295" style="stroke: #A80036; stroke-width: 1.5;" width="51" x="231" y="5"/><text fill="#000000" font-family="sans-serif" font-size="14" lengthAdjust="spacingAndGlyphs" textLength="37" x="238" y="28.1533">String</text><rect fill="#FEFECE" filter="url(#fdney8ham5qhw)" height="33.2295" style="stroke: #A80036; stroke-width: 1.5;" width="51" x="231" y="267.5093"/><text fill="#000000" font-family="sans-serif" font-size="14" lengthAdjust="spacingAndGlyphs" textLength="37" x="238" y="290.6626">String</text><path d="M10,60.2295 L216,60.2295 L216,69.2295 L206,79.2295 L10,79.2295 L10,60.2295 " fill="#EEEEEE" style="stroke: #000000; stroke-width: 1.0;"/><rect fill="none" height="111.5679" style="stroke: #000000; stroke-width: 2.0;" width="221" x="10" y="60.2295"/><text fill="#000000" font-family="sans-serif" font-size="13" font-weight="bold" lengthAdjust="spacingAndGlyphs" textLength="161" x="25" y="76.229">boolean buy(shop.Goods)</text><polygon fill="#A80036" points="102,99.9414,112,103.9414,102,107.9414,106,103.9414" style="stroke: #A80036; stroke-width: 1.0;"/><line style="stroke: #A80036; stroke-width: 1.0;" x1="43.5" x2="108" y1="103.9414" y2="103.9414"/><text fill="#000000" font-family="sans-serif" font-size="13" lengthAdjust="spacingAndGlyphs" textLength="38" x="50.5" y="99.085">add(E)</text><polygon fill="#A80036" points="54.5,113.9414,44.5,117.9414,54.5,121.9414,50.5,117.9414" style="stroke: #A80036; stroke-width: 1.0;"/><line style="stroke: #A80036; stroke-width: 1.0; stroke-dasharray: 2.0,2.0;" x1="48.5" x2="113" y1="117.9414" y2="117.9414"/><polygon fill="#A80036" points="179,145.7974,189,149.7974,179,153.7974,183,149.7974" style="stroke: #A80036; stroke-width: 1.0;"/><line style="stroke: #A80036; stroke-width: 1.0;" x1="43.5" x2="185" y1="149.7974" y2="149.7974"/><text fill="#000000" font-family="sans-serif" font-size="13" lengthAdjust="spacingAndGlyphs" textLength="65" x="50.5" y="144.9409">getMoney()</text><polygon fill="#A80036" points="54.5,159.7974,44.5,163.7974,54.5,167.7974,50.5,163.7974" style="stroke: #A80036; stroke-width: 1.0;"/><line style="stroke: #A80036; stroke-width: 1.0; stroke-dasharray: 2.0,2.0;" x1="48.5" x2="190" y1="163.7974" y2="163.7974"/><path d="M10,185.7974 L277,185.7974 L277,194.7974 L267,204.7974 L10,204.7974 L10,185.7974 " fill="#EEEEEE" style="stroke: #000000; stroke-width: 1.0;"/><rect fill="none" height="65.7119" style="stroke: #000000; stroke-width: 2.0;" width="286" x="10" y="185.7974"/><text fill="#000000" font-family="sans-serif" font-size="13" font-weight="bold" lengthAdjust="spacingAndGlyphs" textLength="222" x="25" y="201.7969">boolean chckPwd(java.lang.String)</text><polygon fill="#A80036" points="246.5,225.5093,256.5,229.5093,246.5,233.5093,250.5,229.5093" style="stroke: #A80036; stroke-width: 1.0;"/><line style="stroke: #A80036; stroke-width: 1.0;" x1="43.5" x2="252.5" y1="229.5093" y2="229.5093"/><text fill="#000000" font-family="sans-serif" font-size="13" lengthAdjust="spacingAndGlyphs" textLength="138" x="50.5" y="224.6528">equals(java.lang.Object)</text><polygon fill="#A80036" points="54.5,239.5093,44.5,243.5093,54.5,247.5093,50.5,243.5093" style="stroke: #A80036; stroke-width: 1.0;"/><line style="stroke: #A80036; stroke-width: 1.0; stroke-dasharray: 2.0,2.0;" x1="48.5" x2="257.5" y1="243.5093" y2="243.5093"/><!--MD5=[d9b33fb5e83a5f8200eaf296a34c15bf]
@startuml
group boolean buy(shop.Goods)
	User->ArrayList : add(E)
		ArrayList- ->User
	User->Goods : getMoney()
		Goods- ->User
end

group boolean chckPwd(java.lang.String)
	User->String : equals(java.lang.Object)
		String- ->User
end

@enduml

PlantUML version 1.2020.19(Tue Oct 13 00:10:01 KST 2020)
(APACHE source distribution)
Java Runtime: Java(TM) SE Runtime Environment
JVM: Java HotSpot(TM) 64-Bit Server VM
Default Encoding: MS949
Language: ko
Country: KR
--></g></svg>