<?xml version="1.0" encoding="UTF-8" standalone="no"?><svg xmlns="http://www.w3.org/2000/svg" xmlns:xlink="http://www.w3.org/1999/xlink" contentScriptType="application/ecmascript" contentStyleType="text/css" height="2134px" preserveAspectRatio="none" style="width:299px;height:2134px;" version="1.1" viewBox="0 0 299 2134" width="299px" zoomAndPan="magnify"><defs><filter height="300%" id="f1rgvrqqra2yrj" width="300%" x="-1" y="-1"><feGaussianBlur result="blurOut" stdDeviation="2.0"/><feColorMatrix in="blurOut" result="blurOut2" type="matrix" values="0 0 0 0 0 0 0 0 0 0 0 0 0 0 0 0 0 0 .4 0"/><feOffset dx="4.0" dy="4.0" in="blurOut2" result="blurOut3"/><feBlend in="SourceGraphic" in2="blurOut3" mode="normal"/></filter></defs><g><!--MD5=[3227f0003de3d467edce8a78f70d4790]
cluster fun1342346098--><rect fill="#FFFFFF" filter="url(#f1rgvrqqra2yrj)" height="129" style="stroke: #000000; stroke-width: 1.5;" width="108" x="162" y="420"/><text fill="#000000" font-family="sans-serif" font-size="14" font-weight="bold" lengthAdjust="spacingAndGlyphs" textLength="92" x="170" y="435.5352">GameSystem</text><!--MD5=[156db6403ebb0d527bf6b7cd54549453]
cluster fun238762799--><rect fill="#FFFFFF" filter="url(#f1rgvrqqra2yrj)" height="130" style="stroke: #000000; stroke-width: 1.5;" width="142" x="145" y="80"/><text fill="#000000" font-family="sans-serif" font-size="14" font-weight="bold" lengthAdjust="spacingAndGlyphs" textLength="70" x="181" y="95.5352">playGame</text><!--MD5=[475362ab2dd822f35a64b37667908ddc]
cluster fun1358343316--><rect fill="#FFFFFF" filter="url(#f1rgvrqqra2yrj)" height="65" style="stroke: #000000; stroke-width: 1.5;" width="96" x="168.5" y="1032"/><text fill="#000000" font-family="sans-serif" font-size="14" font-weight="bold" lengthAdjust="spacingAndGlyphs" textLength="80" x="176.5" y="1047.5352">diceSetting</text><!--MD5=[9d7ea15d8b9e144c2968293c7f566cfc]
cluster fun1824837049--><rect fill="#FFFFFF" filter="url(#f1rgvrqqra2yrj)" height="65" style="stroke: #000000; stroke-width: 1.5;" width="142" x="145" y="7"/><text fill="#000000" font-family="sans-serif" font-size="14" font-weight="bold" lengthAdjust="spacingAndGlyphs" textLength="36" x="198" y="22.5352">main</text><!--MD5=[957e41a7818a26c2d816b97f5ef2991b]
cluster fun2133655103--><rect fill="#FFFFFF" filter="url(#f1rgvrqqra2yrj)" height="194" style="stroke: #000000; stroke-width: 1.5;" width="142" x="145" y="218"/><text fill="#000000" font-family="sans-serif" font-size="14" font-weight="bold" lengthAdjust="spacingAndGlyphs" textLength="76" x="178" y="233.5352">choiceDice</text><!--MD5=[1ba509f155459a73bb31f1890e06ec94]
cluster fun442199874--><rect fill="#FFFFFF" filter="url(#f1rgvrqqra2yrj)" height="65" style="stroke: #000000; stroke-width: 1.5;" width="74" x="179.5" y="959"/><text fill="#000000" font-family="sans-serif" font-size="14" font-weight="bold" lengthAdjust="spacingAndGlyphs" textLength="58" x="187.5" y="974.5352">diceRoll</text><!--MD5=[052f5801e26abbfc2c4bb03a336da8cd]
cluster fun1345900725--><rect fill="#FFFFFF" filter="url(#f1rgvrqqra2yrj)" height="193" style="stroke: #000000; stroke-width: 1.5;" width="135" x="148.5" y="557"/><text fill="#000000" font-family="sans-serif" font-size="14" font-weight="bold" lengthAdjust="spacingAndGlyphs" textLength="39" x="196.5" y="572.5352">move</text><!--MD5=[052b1ce74e9f4e183466d0b61516627a]
cluster fun672746064--><rect fill="#FFFFFF" filter="url(#f1rgvrqqra2yrj)" height="193" style="stroke: #000000; stroke-width: 1.5;" width="135" x="148.5" y="758"/><text fill="#000000" font-family="sans-serif" font-size="14" font-weight="bold" lengthAdjust="spacingAndGlyphs" textLength="61" x="185.5" y="773.5352">printPos</text><!--MD5=[e1eb67d0174e6bb0165a6e40bb097678]
cluster fun102174918--><rect fill="#FFFFFF" filter="url(#f1rgvrqqra2yrj)" height="65" style="stroke: #000000; stroke-width: 1.5;" width="103" x="164.5" y="1105"/><text fill="#000000" font-family="sans-serif" font-size="14" font-weight="bold" lengthAdjust="spacingAndGlyphs" textLength="25" x="203.5" y="1120.5352">roll</text><ellipse cx="216.0061" cy="526.159" fill="#FEFECE" filter="url(#f1rgvrqqra2yrj)" rx="23.5061" ry="14.659" style="stroke: #A80036; stroke-width: 1.5;"/><text fill="#000000" font-family="sans-serif" font-size="14" lengthAdjust="spacingAndGlyphs" textLength="29" x="201.5061" y="530.9031">Map</text><ellipse cx="215.9914" cy="462.159" fill="#FEFECE" filter="url(#f1rgvrqqra2yrj)" rx="31.9914" ry="14.659" style="stroke: #A80036; stroke-width: 1.5;"/><text fill="#000000" font-family="sans-serif" font-size="14" lengthAdjust="spacingAndGlyphs" textLength="41" x="195.4914" y="466.9031">Player</text><ellipse cx="215.9914" cy="187.159" fill="#FEFECE" filter="url(#f1rgvrqqra2yrj)" rx="31.9914" ry="14.659" style="stroke: #A80036; stroke-width: 1.5;"/><text fill="#000000" font-family="sans-serif" font-size="14" lengthAdjust="spacingAndGlyphs" textLength="41" x="195.4914" y="191.9031">Player</text><ellipse cx="215.9283" cy="121.9857" fill="#FEFECE" filter="url(#f1rgvrqqra2yrj)" rx="62.9283" ry="14.9857" style="stroke: #A80036; stroke-width: 1.5;"/><text fill="#000000" font-family="sans-serif" font-size="14" lengthAdjust="spacingAndGlyphs" textLength="87" x="172.4283" y="126.7298">GameSystem</text><!--MD5=[6a5a3c3b1576825b267441fc63ed6741]
entity fun2104973502--><rect fill="#FFFFFF" filter="url(#f1rgvrqqra2yrj)" height="36.4883" style="stroke: #000000; stroke-width: 1.5;" width="69" x="15" y="1860"/><text fill="#000000" font-family="sans-serif" font-size="14" lengthAdjust="spacingAndGlyphs" textLength="49" x="25" y="1883.5352">nextInt</text><!--MD5=[c99a8e6c57b6ae28cb488cb49aedf312]
entity fun1807015220--><rect fill="#FFFFFF" filter="url(#f1rgvrqqra2yrj)" height="36.4883" style="stroke: #000000; stroke-width: 1.5;" width="49" x="25" y="1789"/><text fill="#000000" font-family="sans-serif" font-size="14" lengthAdjust="spacingAndGlyphs" textLength="29" x="35" y="1812.5352">Map</text><!--MD5=[ce5344def1e5f0d099f7d36aacf61b78]
entity fun52514534--><rect fill="#FFFFFF" filter="url(#f1rgvrqqra2yrj)" height="36.4883" style="stroke: #000000; stroke-width: 1.5;" width="61" x="19" y="1718"/><text fill="#000000" font-family="sans-serif" font-size="14" lengthAdjust="spacingAndGlyphs" textLength="41" x="29" y="1741.5352">Player</text><ellipse cx="216.0061" cy="1074.159" fill="#FEFECE" filter="url(#f1rgvrqqra2yrj)" rx="23.5061" ry="14.659" style="stroke: #A80036; stroke-width: 1.5;"/><text fill="#000000" font-family="sans-serif" font-size="14" lengthAdjust="spacingAndGlyphs" textLength="29" x="201.5061" y="1078.9031">Dice</text><ellipse cx="215.9283" cy="48.9857" fill="#FEFECE" filter="url(#f1rgvrqqra2yrj)" rx="62.9283" ry="14.9857" style="stroke: #A80036; stroke-width: 1.5;"/><text fill="#000000" font-family="sans-serif" font-size="14" lengthAdjust="spacingAndGlyphs" textLength="87" x="172.4283" y="53.7298">GameSystem</text><!--MD5=[88582d12f00df472e4cd51bebba4a14d]
entity fun1267149311--><rect fill="#FFFFFF" filter="url(#f1rgvrqqra2yrj)" height="36.4883" style="stroke: #000000; stroke-width: 1.5;" width="49" x="25" y="1647"/><text fill="#000000" font-family="sans-serif" font-size="14" lengthAdjust="spacingAndGlyphs" textLength="29" x="35" y="1670.5352">Dice</text><ellipse cx="215.9914" cy="325.159" fill="#FEFECE" filter="url(#f1rgvrqqra2yrj)" rx="31.9914" ry="14.659" style="stroke: #A80036; stroke-width: 1.5;"/><text fill="#000000" font-family="sans-serif" font-size="14" lengthAdjust="spacingAndGlyphs" textLength="41" x="195.4914" y="329.9031">Player</text><ellipse cx="216.0685" cy="389.159" fill="#FEFECE" filter="url(#f1rgvrqqra2yrj)" rx="59.5685" ry="14.659" style="stroke: #A80036; stroke-width: 1.5;"/><text fill="#000000" font-family="sans-serif" font-size="14" lengthAdjust="spacingAndGlyphs" textLength="80" x="176.0685" y="393.9031">PrintStream</text><ellipse cx="215.9283" cy="259.9857" fill="#FEFECE" filter="url(#f1rgvrqqra2yrj)" rx="62.9283" ry="14.9857" style="stroke: #A80036; stroke-width: 1.5;"/><text fill="#000000" font-family="sans-serif" font-size="14" lengthAdjust="spacingAndGlyphs" textLength="87" x="172.4283" y="264.7298">GameSystem</text><ellipse cx="216.0061" cy="1001.159" fill="#FEFECE" filter="url(#f1rgvrqqra2yrj)" rx="23.5061" ry="14.659" style="stroke: #A80036; stroke-width: 1.5;"/><text fill="#000000" font-family="sans-serif" font-size="14" lengthAdjust="spacingAndGlyphs" textLength="29" x="201.5061" y="1005.9031">Dice</text><ellipse cx="215.9914" cy="599.159" fill="#FEFECE" filter="url(#f1rgvrqqra2yrj)" rx="31.9914" ry="14.659" style="stroke: #A80036; stroke-width: 1.5;"/><text fill="#000000" font-family="sans-serif" font-size="14" lengthAdjust="spacingAndGlyphs" textLength="41" x="195.4914" y="603.9031">Player</text><ellipse cx="216.0061" cy="727.159" fill="#FEFECE" filter="url(#f1rgvrqqra2yrj)" rx="23.5061" ry="14.659" style="stroke: #A80036; stroke-width: 1.5;"/><text fill="#000000" font-family="sans-serif" font-size="14" lengthAdjust="spacingAndGlyphs" textLength="29" x="201.5061" y="731.9031">Map</text><ellipse cx="216.0685" cy="663.159" fill="#FEFECE" filter="url(#f1rgvrqqra2yrj)" rx="59.5685" ry="14.659" style="stroke: #A80036; stroke-width: 1.5;"/><text fill="#000000" font-family="sans-serif" font-size="14" lengthAdjust="spacingAndGlyphs" textLength="80" x="176.0685" y="667.9031">PrintStream</text><!--MD5=[631fea7dba7fbd4b7bea942b888573e1]
entity fun1242027525--><rect fill="#FFFFFF" filter="url(#f1rgvrqqra2yrj)" height="36.4883" style="stroke: #000000; stroke-width: 1.5;" width="66" x="16.5" y="1576"/><text fill="#000000" font-family="sans-serif" font-size="14" lengthAdjust="spacingAndGlyphs" textLength="46" x="26.5" y="1599.5352">getPos</text><!--MD5=[ca7680b71ca66e45b23797eb0794d1ef]
entity fun2107577743--><rect fill="#FFFFFF" filter="url(#f1rgvrqqra2yrj)" height="36.4883" style="stroke: #000000; stroke-width: 1.5;" width="70" x="14.5" y="1505"/><text fill="#000000" font-family="sans-serif" font-size="14" lengthAdjust="spacingAndGlyphs" textLength="50" x="24.5" y="1528.5352">getSize</text><!--MD5=[3597b7734ac6e399e1773a03bf2175bb]
entity fun105579928--><rect fill="#FFFFFF" filter="url(#f1rgvrqqra2yrj)" height="36.4883" style="stroke: #000000; stroke-width: 1.5;" width="66" x="16.5" y="1434"/><text fill="#000000" font-family="sans-serif" font-size="14" lengthAdjust="spacingAndGlyphs" textLength="46" x="26.5" y="1457.5352">println</text><!--MD5=[7c28485f879349b2a6978f9f53bd4aab]
entity fun418958713--><rect fill="#FFFFFF" filter="url(#f1rgvrqqra2yrj)" height="36.4883" style="stroke: #000000; stroke-width: 1.5;" width="53" x="23" y="1363"/><text fill="#000000" font-family="sans-serif" font-size="14" lengthAdjust="spacingAndGlyphs" textLength="33" x="33" y="1386.5352">print</text><!--MD5=[971307ad353d2b731a2992a6a54aeb8e]
entity fun1042306518--><rect fill="#FFFFFF" filter="url(#f1rgvrqqra2yrj)" height="36.4883" style="stroke: #000000; stroke-width: 1.5;" width="66" x="16.5" y="1292"/><text fill="#000000" font-family="sans-serif" font-size="14" lengthAdjust="spacingAndGlyphs" textLength="46" x="26.5" y="1315.5352">println</text><ellipse cx="215.9914" cy="800.159" fill="#FEFECE" filter="url(#f1rgvrqqra2yrj)" rx="31.9914" ry="14.659" style="stroke: #A80036; stroke-width: 1.5;"/><text fill="#000000" font-family="sans-serif" font-size="14" lengthAdjust="spacingAndGlyphs" textLength="41" x="195.4914" y="804.9031">Player</text><ellipse cx="216.0061" cy="928.159" fill="#FEFECE" filter="url(#f1rgvrqqra2yrj)" rx="23.5061" ry="14.659" style="stroke: #A80036; stroke-width: 1.5;"/><text fill="#000000" font-family="sans-serif" font-size="14" lengthAdjust="spacingAndGlyphs" textLength="29" x="201.5061" y="932.9031">Map</text><ellipse cx="216.0685" cy="864.159" fill="#FEFECE" filter="url(#f1rgvrqqra2yrj)" rx="59.5685" ry="14.659" style="stroke: #A80036; stroke-width: 1.5;"/><text fill="#000000" font-family="sans-serif" font-size="14" lengthAdjust="spacingAndGlyphs" textLength="80" x="176.0685" y="868.9031">PrintStream</text><ellipse cx="215.8051" cy="1147.159" fill="#FEFECE" filter="url(#f1rgvrqqra2yrj)" rx="43.3051" ry="14.659" style="stroke: #A80036; stroke-width: 1.5;"/><text fill="#000000" font-family="sans-serif" font-size="14" lengthAdjust="spacingAndGlyphs" textLength="57" x="187.3051" y="1151.9031">Random</text><!--MD5=[f4f09f72c9d3780a409e6b1c2092a9eb]
entity fun1173346575--><rect fill="#FFFFFF" filter="url(#f1rgvrqqra2yrj)" height="36.4883" style="stroke: #000000; stroke-width: 1.5;" width="79" x="10" y="1221"/><text fill="#000000" font-family="sans-serif" font-size="14" lengthAdjust="spacingAndGlyphs" textLength="59" x="20" y="1244.5352">getEvent</text><!--MD5=[0ad8540f801abf38f2586dcb9a9e6f7c]
entity fun1948810915--><rect fill="#FFFFFF" filter="url(#f1rgvrqqra2yrj)" height="36.4883" style="stroke: #000000; stroke-width: 1.5;" width="64" x="17.5" y="1150"/><text fill="#000000" font-family="sans-serif" font-size="14" lengthAdjust="spacingAndGlyphs" textLength="44" x="27.5" y="1173.5352">setPos</text><!--MD5=[99d6a8fae9d72df7deea093ab072b874]
entity actor735937428--><ellipse cx="49.5" cy="91" fill="#FEFECE" filter="url(#f1rgvrqqra2yrj)" rx="8" ry="8" style="stroke: #A80036; stroke-width: 1.5;"/><path d="M49.5,99 L49.5,126 M36.5,107 L62.5,107 M49.5,126 L36.5,141 M49.5,126 L62.5,141 " fill="none" filter="url(#f1rgvrqqra2yrj)" style="stroke: #A80036; stroke-width: 1.5;"/><text fill="#000000" font-family="sans-serif" font-size="14" lengthAdjust="spacingAndGlyphs" textLength="33" x="33" y="160.0352">Main</text><!--MD5=[c72aeab93f09f59a624ad6bf23da586b]
entity actor1752461090--><ellipse cx="49.5" cy="696" fill="#FEFECE" filter="url(#f1rgvrqqra2yrj)" rx="8" ry="8" style="stroke: #A80036; stroke-width: 1.5;"/><path d="M49.5,704 L49.5,731 M36.5,712 L62.5,712 M49.5,731 L36.5,746 M49.5,731 L62.5,746 " fill="none" filter="url(#f1rgvrqqra2yrj)" style="stroke: #A80036; stroke-width: 1.5;"/><text fill="#000000" font-family="sans-serif" font-size="14" lengthAdjust="spacingAndGlyphs" textLength="29" x="35" y="765.0352">Map</text><!--MD5=[a84fb773951e92491fc19a0159c61bce]
entity actor605052357--><ellipse cx="49.5" cy="1043" fill="#FEFECE" filter="url(#f1rgvrqqra2yrj)" rx="8" ry="8" style="stroke: #A80036; stroke-width: 1.5;"/><path d="M49.5,1051 L49.5,1078 M36.5,1059 L62.5,1059 M49.5,1078 L36.5,1093 M49.5,1078 L62.5,1093 " fill="none" filter="url(#f1rgvrqqra2yrj)" style="stroke: #A80036; stroke-width: 1.5;"/><text fill="#000000" font-family="sans-serif" font-size="14" lengthAdjust="spacingAndGlyphs" textLength="29" x="35" y="1112.0352">Dice</text><!--MD5=[06a3167da358baefc36036f90fdf3fbe]
entity actor788625466--><ellipse cx="49.5" cy="1941" fill="#FEFECE" filter="url(#f1rgvrqqra2yrj)" rx="8" ry="8" style="stroke: #A80036; stroke-width: 1.5;"/><path d="M49.5,1949 L49.5,1976 M36.5,1957 L62.5,1957 M49.5,1976 L36.5,1991 M49.5,1976 L62.5,1991 " fill="none" filter="url(#f1rgvrqqra2yrj)" style="stroke: #A80036; stroke-width: 1.5;"/><text fill="#000000" font-family="sans-serif" font-size="14" lengthAdjust="spacingAndGlyphs" textLength="26" x="36.5" y="2010.0352">null</text><!--MD5=[9ca0b17054b43ccbc4f18c1b6ed7115d]
entity actor1753714541--><ellipse cx="49.5" cy="431" fill="#FEFECE" filter="url(#f1rgvrqqra2yrj)" rx="8" ry="8" style="stroke: #A80036; stroke-width: 1.5;"/><path d="M49.5,439 L49.5,466 M36.5,447 L62.5,447 M49.5,466 L36.5,481 M49.5,466 L62.5,481 " fill="none" filter="url(#f1rgvrqqra2yrj)" style="stroke: #A80036; stroke-width: 1.5;"/><text fill="#000000" font-family="sans-serif" font-size="14" lengthAdjust="spacingAndGlyphs" textLength="41" x="29" y="500.0352">Player</text><!--MD5=[fb9dfeaa039e6e6c94774505daacbae0]
entity actor1095273238--><ellipse cx="49.5" cy="2057" fill="#FEFECE" filter="url(#f1rgvrqqra2yrj)" rx="8" ry="8" style="stroke: #A80036; stroke-width: 1.5;"/><path d="M49.5,2065 L49.5,2092 M36.5,2073 L62.5,2073 M49.5,2092 L36.5,2107 M49.5,2092 L62.5,2107 " fill="none" filter="url(#f1rgvrqqra2yrj)" style="stroke: #A80036; stroke-width: 1.5;"/><text fill="#000000" font-family="sans-serif" font-size="14" lengthAdjust="spacingAndGlyphs" textLength="41" x="29" y="2126.0352">String</text><!--MD5=[a90ed273d25378dcf81eb431fe610094]
entity actor1365767549--><ellipse cx="49.5" cy="557" fill="#FEFECE" filter="url(#f1rgvrqqra2yrj)" rx="8" ry="8" style="stroke: #A80036; stroke-width: 1.5;"/><path d="M49.5,565 L49.5,592 M36.5,573 L62.5,573 M49.5,592 L36.5,607 M49.5,592 L62.5,607 " fill="none" filter="url(#f1rgvrqqra2yrj)" style="stroke: #A80036; stroke-width: 1.5;"/><text fill="#000000" font-family="sans-serif" font-size="14" lengthAdjust="spacingAndGlyphs" textLength="87" x="6" y="626.0352">GameSystem</text><!--MD5=[6e0722864720e321bdce53d0e79be67b]
entity actor177140066--><ellipse cx="216" cy="1941" fill="#FEFECE" filter="url(#f1rgvrqqra2yrj)" rx="8" ry="8" style="stroke: #A80036; stroke-width: 1.5;"/><path d="M216,1949 L216,1976 M203,1957 L229,1957 M216,1976 L203,1991 M216,1976 L229,1991 " fill="none" filter="url(#f1rgvrqqra2yrj)" style="stroke: #A80036; stroke-width: 1.5;"/><text fill="#000000" font-family="sans-serif" font-size="14" lengthAdjust="spacingAndGlyphs" textLength="57" x="187.5" y="2010.0352">Random</text><!--MD5=[3fdd56f5280146f3aeda2bd413350918]
entity actor787122337--><ellipse cx="216" cy="2057" fill="#FEFECE" filter="url(#f1rgvrqqra2yrj)" rx="8" ry="8" style="stroke: #A80036; stroke-width: 1.5;"/><path d="M216,2065 L216,2092 M203,2073 L229,2073 M216,2092 L203,2107 M216,2092 L229,2107 " fill="none" filter="url(#f1rgvrqqra2yrj)" style="stroke: #A80036; stroke-width: 1.5;"/><text fill="#000000" font-family="sans-serif" font-size="14" lengthAdjust="spacingAndGlyphs" textLength="80" x="176" y="2126.0352">PrintStream</text><!--MD5=[166c57e1b7b9ef2e2a15b9a5f310a3c0]
link actor1752461090 to UC0--><path d="M64.005,700.0027 C72.465,684.2536 83.34,664.0036 93,646 C116.1271,602.8975 107.4615,580.3617 145,549 C158.5231,537.702 177.716,531.917 192.738,528.9759 " fill="none" id="actor1752461090-UC0" style="stroke: #A80036; stroke-width: 1.0;"/><!--MD5=[a1d6c9b0ddb5a5c8d382a27f55d67da3]
link actor1365767549 to UC0--><path d="M93.4507,569.252 C109.5629,562.5914 128.0115,555.2108 145,549 C161.5502,542.9495 180.5539,536.8364 194.7334,532.4349 " fill="none" id="actor1365767549-UC0" style="stroke: #A80036; stroke-width: 1.0;"/><!--MD5=[42f84594812d1f3ddb5c37997d9ceb9f]
link actor1365767549 to UC1--><path d="M84.8551,547.1515 C101.7869,529.2645 123.1182,508.985 145,494 C159.0558,484.3744 176.4751,476.472 190.5419,470.9284 " fill="none" id="actor1365767549-UC1" style="stroke: #A80036; stroke-width: 1.0;"/><!--MD5=[1ef57b0c2d43d4f7c0ccfd96b0934fa4]
link actor1753714541 to UC1--><path d="M70.2507,462 C98.7567,462 150.3021,462 183.8301,462 " fill="none" id="actor1753714541-UC1" style="stroke: #A80036; stroke-width: 1.0;"/><!--MD5=[e540a76ff507f10a084974c53daf3fa1]
link actor1365767549 to UC2--><path d="M79.2149,547.3376 C84.485,538.6507 89.4236,529.2853 93,520 C143.2124,389.633 53.7404,315.7759 145,210 C154.8183,198.6199 170.3167,192.8306 184.3316,189.9021 " fill="none" id="actor1365767549-UC2" style="stroke: #A80036; stroke-width: 1.0;"/><!--MD5=[4f8e40129a682e9ee4df1087cf0dcacd]
link actor1753714541 to UC2--><path d="M54.0368,421.1318 C62.3325,365.7116 85.0273,267.1056 145,210 C155.7911,199.7248 171.2147,194.0399 184.9311,190.8947 " fill="none" id="actor1753714541-UC2" style="stroke: #A80036; stroke-width: 1.0;"/><!--MD5=[d81ea02c3c0621428a58db97f57c84c1]
link actor735937428 to UC3--><path d="M66.0734,122 C86.2257,122 121.4214,122 152.6491,122 " fill="none" id="actor735937428-UC3" style="stroke: #A80036; stroke-width: 1.0;"/><!--MD5=[03ee462c8f5e388918149c7345fb5bb8]
link actor1365767549 to UC3--><path d="M79.3949,547.4056 C84.6511,538.7135 89.5385,529.3288 93,520 C150.0037,366.3746 47.3258,286.5672 145,155 C152.2111,145.2866 162.9897,138.3385 173.9836,133.407 " fill="none" id="actor1365767549-UC3" style="stroke: #A80036; stroke-width: 1.0;"/><!--MD5=[085e5bafd5b6f2d99f35653e3cb4ba7b]
link actor1365767549 to UC4--><path d="M74.9926,628.7901 C81.8061,641.2895 88.5143,655.3524 93,669 C143.8904,823.8313 54.3989,896.5231 145,1032 C156.7829,1049.6191 178.672,1060.9037 195.0439,1067.2893 " fill="none" id="actor1365767549-UC4" style="stroke: #A80036; stroke-width: 1.0;"/><!--MD5=[794484d467258e161491df43ecb12ffd]
link actor605052357 to UC4--><path d="M64.2758,1074 C93.166,1074 157.3563,1074 192.2704,1074 " fill="none" id="actor605052357-UC4" style="stroke: #A80036; stroke-width: 1.0;"/><!--MD5=[c905676aa900c24ba36173df24f45f82]
link actor735937428 to UC5--><path d="M66.331,112.0725 C85.0882,101.2755 116.5317,83.9623 145,72 C154.7951,67.8841 165.5999,64.0451 175.7625,60.728 " fill="none" id="actor735937428-UC5" style="stroke: #A80036; stroke-width: 1.0;"/><!--MD5=[cfb7727603e7404cdfbdefe66e2a000e]
link actor1365767549 to UC5--><path d="M79.585,547.4748 C84.8265,538.7773 89.6599,529.3729 93,520 C126.6434,425.5915 81.4718,149.5178 145,72 C150.1742,65.6864 157.1016,61.0874 164.606,57.7414 " fill="none" id="actor1365767549-UC5" style="stroke: #A80036; stroke-width: 1.0;"/><!--MD5=[961caf1a6b62ee1d186e95d82dd216d4]
link actor1365767549 to UC6--><path d="M77.9666,547.2667 C83.3945,538.5087 88.7116,529.1338 93,520 C125.3174,451.1676 94.3988,413.7613 145,357 C156.0664,344.5864 172.8891,336.7143 187.3819,331.8852 " fill="none" id="actor1365767549-UC6" style="stroke: #A80036; stroke-width: 1.0;"/><!--MD5=[44ff6d0441c065c6ddd0efca9bbd73ef]
link actor1753714541 to UC6--><path d="M70.0345,433.6109 C87.814,410.6045 115.2916,378.5741 145,357 C158.6751,347.0692 175.9234,339.207 189.9949,333.761 " fill="none" id="actor1753714541-UC6" style="stroke: #A80036; stroke-width: 1.0;"/><!--MD5=[57722aa941ce3a1c6d78651b29ee4142]
link actor1365767549 to UC7--><path d="M76.5354,547.4931 C82.1807,538.559 87.9471,529.0565 93,520 C118.9567,473.4772 104.8667,447.0349 145,412 C151.9303,405.9501 160.4778,401.4869 169.2123,398.1955 " fill="none" id="actor1365767549-UC7" style="stroke: #A80036; stroke-width: 1.0;"/><!--MD5=[2b05488b40e5a95060395b9499ad35c2]
link actor735937428 to UC8--><path d="M66.178,141.4882 C84.3074,161.9864 114.7536,194.4725 145,218 C158.7913,228.7277 175.5627,238.7693 189.3416,246.3423 " fill="none" id="actor735937428-UC8" style="stroke: #A80036; stroke-width: 1.0;"/><!--MD5=[27a4a8cbfea4f64cc880030c820de713]
link actor1365767549 to UC8--><path d="M78.7883,547.166 C84.0915,538.4925 89.1513,529.1758 93,520 C133.0335,424.5536 79.8823,373.4511 145,293 C152.7821,283.3854 164.0031,276.4364 175.2347,271.4727 " fill="none" id="actor1365767549-UC8" style="stroke: #A80036; stroke-width: 1.0;"/><!--MD5=[18d9239f01d7ae7a0eb749df1714a557]
link actor1365767549 to UC9--><path d="M74.691,628.8921 C81.4961,641.3945 88.2752,655.4333 93,669 C136.0667,792.6597 70.3064,851.4485 145,959 C157.0906,976.4094 178.9317,987.7267 195.2082,994.1773 " fill="none" id="actor1365767549-UC9" style="stroke: #A80036; stroke-width: 1.0;"/><!--MD5=[4bcde35600fb7e2333f17429b89d02a1]
link actor605052357 to UC9--><path d="M64.0134,1065.4106 C82.4149,1054.7541 115.324,1036.4698 145,1024 C161.2456,1017.1736 180.2683,1011.1091 194.5326,1006.9235 " fill="none" id="actor605052357-UC9" style="stroke: #A80036; stroke-width: 1.0;"/><!--MD5=[36ccc41976aef23f695de8e0f2e1534e]
link actor1365767549 to UC10--><path d="M93.2459,590.8901 C121.7654,592.7743 158.3372,595.1904 184.1187,596.8937 " fill="none" id="actor1365767549-UC10" style="stroke: #A80036; stroke-width: 1.0;"/><!--MD5=[0b1ae458843405623c2f78d2de22473a]
link actor1753714541 to UC10--><path d="M70.0575,485.5275 C88.4891,505.8355 116.885,535.2483 145,557 C160.6317,569.0937 180.0422,580.3536 194.6152,588.1644 " fill="none" id="actor1753714541-UC10" style="stroke: #A80036; stroke-width: 1.0;"/><!--MD5=[dcc6e79fe6b5776062df8232db959588]
link actor1752461090 to UC11--><path d="M64.2758,727 C93.166,727 157.3563,727 192.2704,727 " fill="none" id="actor1752461090-UC11" style="stroke: #A80036; stroke-width: 1.0;"/><!--MD5=[b4a34627986184cc980358eb4cb36829]
link actor1365767549 to UC11--><path d="M79.0045,628.6604 C96.358,650.4436 119.8016,676.5198 145,695 C160.3728,706.2742 180.3501,714.8367 195.1962,720.2545 " fill="none" id="actor1365767549-UC11" style="stroke: #A80036; stroke-width: 1.0;"/><!--MD5=[c4c4603e68802699b8d2b1c4f6cc05d8]
link actor1365767549 to UC12--><path d="M93.2459,607.7054 C123.018,621.1162 161.5651,638.4798 187.4516,650.1404 " fill="none" id="actor1365767549-UC12" style="stroke: #A80036; stroke-width: 1.0;"/><!--MD5=[ba93255fef593482935db784fe6acec1]
link actor1365767549 to UC13--><path d="M71.7235,628.794 C98.3096,677.408 139.8966,752.7812 145,758 C158.5177,771.8232 177.5229,782.7471 192.4689,789.9854 " fill="none" id="actor1365767549-UC13" style="stroke: #A80036; stroke-width: 1.0;"/><!--MD5=[666a7dfef2c3cfaec97cb1d903d085bc]
link actor1753714541 to UC13--><path d="M70.2193,489.5775 C78.3361,501.4912 87.0982,515.9104 93,530 C133.1553,625.8651 83.7314,674.0433 145,758 C156.3128,773.502 175.2356,784.2828 190.7021,791.0376 " fill="none" id="actor1753714541-UC13" style="stroke: #A80036; stroke-width: 1.0;"/><!--MD5=[c50f919e651216a4d124a9905b30cec1]
link actor1752461090 to UC14--><path d="M64.0031,757.7914 C84.6982,800.7242 122.6627,875.6065 145,896 C159.0789,908.8537 179.1875,917.2558 194.4128,922.2107 " fill="none" id="actor1752461090-UC14" style="stroke: #A80036; stroke-width: 1.0;"/><!--MD5=[bda6b7e456778d3b2cac18feecc66fc5]
link actor1365767549 to UC14--><path d="M74.0577,628.623 C80.9246,641.2345 87.8965,655.4006 93,669 C129.3655,765.9033 79.415,815.9294 145,896 C157.1657,910.8527 177.6802,919.0739 193.5385,923.4505 " fill="none" id="actor1365767549-UC14" style="stroke: #A80036; stroke-width: 1.0;"/><!--MD5=[07abfdeeb94a3ea0510237ba68a45807]
link actor1365767549 to UC15--><path d="M73.3548,628.9037 C80.1976,641.5248 87.3325,655.6258 93,669 C122.6697,739.0145 94.3988,775.2387 145,832 C153.3673,841.3859 165.0253,848.1755 176.4789,853.0165 " fill="none" id="actor1365767549-UC15" style="stroke: #A80036; stroke-width: 1.0;"/><!--MD5=[a47037419d94f4c02c38a44ababb9b10]
link actor605052357 to UC16--><path d="M64.2758,1080.4783 C92.4497,1092.8308 154.195,1119.9023 189.6205,1135.4342 " fill="none" id="actor605052357-UC16" style="stroke: #A80036; stroke-width: 1.0;"/><!--MD5=[912d01cc5c4020b48d6ac1a8e5da87b9]
link actor788625466 to actor1095273238--><!--MD5=[288b842a63efbeacf4b357c98a755223]
link actor788625466 to actor177140066--><!--MD5=[385f9e833197f3354a43748a5818565b]
link actor177140066 to actor787122337--><!--MD5=[24fa1eae2e864b2c41ec96e4865224a6]
@startuml
 left to right direction

actor Main as actor735937428
actor Map as actor1752461090
actor Dice as actor605052357
actor null as actor788625466
actor Player as actor1753714541
actor String as actor1095273238
actor GameSystem as actor1365767549
actor Random as actor177140066
actor PrintStream as actor787122337
	rectangle "GameSystem" as fun1342346098{
	usecase "Map" as UC0
		actor1752461090- -UC0
		actor1365767549- -UC0
	usecase "Player" as UC1
		actor1365767549- -UC1
		actor1753714541- -UC1
	}
	rectangle "playGame" as fun238762799{
	usecase "Player" as UC2
		actor1365767549- -UC2
		actor1753714541- -UC2
	usecase "GameSystem" as UC3
		actor735937428- -UC3
		actor1365767549- -UC3
	}
	rectangle "nextInt" as fun2104973502{
	}
	rectangle "Map" as fun1807015220{
	}
	rectangle "Player" as fun52514534{
	}
	rectangle "diceSetting" as fun1358343316{
	usecase "Dice" as UC4
		actor1365767549- -UC4
		actor605052357- -UC4
	}
	rectangle "main" as fun1824837049{
	usecase "GameSystem" as UC5
		actor735937428- -UC5
		actor1365767549- -UC5
	}
	rectangle "Dice" as fun1267149311{
	}
	rectangle "choiceDice" as fun2133655103{
	usecase "Player" as UC6
		actor1365767549- -UC6
		actor1753714541- -UC6
	usecase "PrintStream" as UC7
		actor1365767549- -UC7
	usecase "GameSystem" as UC8
		actor735937428- -UC8
		actor1365767549- -UC8
	}
	rectangle "diceRoll" as fun442199874{
	usecase "Dice" as UC9
		actor1365767549- -UC9
		actor605052357- -UC9
	}
	rectangle "move" as fun1345900725{
	usecase "Player" as UC10
		actor1365767549- -UC10
		actor1753714541- -UC10
	usecase "Map" as UC11
		actor1752461090- -UC11
		actor1365767549- -UC11
	usecase "PrintStream" as UC12
		actor1365767549- -UC12
	}
	rectangle "getPos" as fun1242027525{
	}
	rectangle "getSize" as fun2107577743{
	}
	rectangle "println" as fun105579928{
	}
	rectangle "print" as fun418958713{
	}
	rectangle "println" as fun1042306518{
	}
	rectangle "printPos" as fun672746064{
	usecase "Player" as UC13
		actor1365767549- -UC13
		actor1753714541- -UC13
	usecase "Map" as UC14
		actor1752461090- -UC14
		actor1365767549- -UC14
	usecase "PrintStream" as UC15
		actor1365767549- -UC15
	}
	rectangle "roll" as fun102174918{
	usecase "Random" as UC16
		actor605052357- -UC16
	}
	rectangle "getEvent" as fun1173346575{
	}
	rectangle "setPos" as fun1948810915{
	}

@enduml

PlantUML version 1.2020.19(Tue Oct 13 00:10:01 KST 2020)
(APACHE source distribution)
Java Runtime: Java(TM) SE Runtime Environment
JVM: Java HotSpot(TM) 64-Bit Server VM
Default Encoding: UTF-8
Language: ko
Country: KR
--></g></svg>