<?xml version="1.0" encoding="UTF-8" standalone="no"?><svg xmlns="http://www.w3.org/2000/svg" xmlns:xlink="http://www.w3.org/1999/xlink" contentScriptType="application/ecmascript" contentStyleType="text/css" height="328px" preserveAspectRatio="none" style="width:453px;height:328px;" version="1.1" viewBox="0 0 453 328" width="453px" zoomAndPan="magnify"><defs><filter height="300%" id="f12p31vca45uak" width="300%" x="-1" y="-1"><feGaussianBlur result="blurOut" stdDeviation="2.0"/><feColorMatrix in="blurOut" result="blurOut2" type="matrix" values="0 0 0 0 0 0 0 0 0 0 0 0 0 0 0 0 0 0 .4 0"/><feOffset dx="4.0" dy="4.0" in="blurOut2" result="blurOut3"/><feBlend in="SourceGraphic" in2="blurOut3" mode="normal"/></filter></defs><g><rect fill="#FFFFFF" filter="url(#f12p31vca45uak)" height="205.1357" style="stroke: #000000; stroke-width: 2.0;" width="429" x="10" y="60.2295"/><line style="stroke: #A80036; stroke-width: 1.0; stroke-dasharray: 5.0,5.0;" x1="33" x2="33" y1="43.2295" y2="282.3652"/><line style="stroke: #A80036; stroke-width: 1.0; stroke-dasharray: 5.0,5.0;" x1="83.5" x2="83.5" y1="43.2295" y2="282.3652"/><line style="stroke: #A80036; stroke-width: 1.0; stroke-dasharray: 5.0,5.0;" x1="131" x2="131" y1="43.2295" y2="282.3652"/><rect fill="#FEFECE" filter="url(#f12p31vca45uak)" height="33.2295" style="stroke: #A80036; stroke-width: 1.5;" width="23" x="20" y="5"/><text fill="#000000" font-family="sans-serif" font-size="14" lengthAdjust="spacingAndGlyphs" textLength="9" x="27" y="28.1533">B</text><rect fill="#FEFECE" filter="url(#f12p31vca45uak)" height="33.2295" style="stroke: #A80036; stroke-width: 1.5;" width="23" x="20" y="281.3652"/><text fill="#000000" font-family="sans-serif" font-size="14" lengthAdjust="spacingAndGlyphs" textLength="9" x="27" y="304.5186">B</text><rect fill="#FEFECE" filter="url(#f12p31vca45uak)" height="33.2295" style="stroke: #A80036; stroke-width: 1.5;" width="24" x="69.5" y="5"/><text fill="#000000" font-family="sans-serif" font-size="14" lengthAdjust="spacingAndGlyphs" textLength="10" x="76.5" y="28.1533">C</text><rect fill="#FEFECE" filter="url(#f12p31vca45uak)" height="33.2295" style="stroke: #A80036; stroke-width: 1.5;" width="24" x="69.5" y="281.3652"/><text fill="#000000" font-family="sans-serif" font-size="14" lengthAdjust="spacingAndGlyphs" textLength="10" x="76.5" y="304.5186">C</text><rect fill="#FEFECE" filter="url(#f12p31vca45uak)" height="33.2295" style="stroke: #A80036; stroke-width: 1.5;" width="23" x="118" y="5"/><text fill="#000000" font-family="sans-serif" font-size="14" lengthAdjust="spacingAndGlyphs" textLength="9" x="125" y="28.1533">A</text><rect fill="#FEFECE" filter="url(#f12p31vca45uak)" height="33.2295" style="stroke: #A80036; stroke-width: 1.5;" width="23" x="118" y="281.3652"/><text fill="#000000" font-family="sans-serif" font-size="14" lengthAdjust="spacingAndGlyphs" textLength="9" x="125" y="304.5186">A</text><path d="M10,60.2295 L434,60.2295 L434,69.2295 L424,79.2295 L10,79.2295 L10,60.2295 " fill="#EEEEEE" style="stroke: #000000; stroke-width: 1.0;"/><rect fill="none" height="205.1357" style="stroke: #000000; stroke-width: 2.0;" width="429" x="10" y="60.2295"/><text fill="#000000" font-family="sans-serif" font-size="13" font-weight="bold" lengthAdjust="spacingAndGlyphs" textLength="379" x="25" y="76.229">void connectTarget.B.Bc(connectTarget.C, connectTarget.A)</text><polygon fill="#A80036" points="71.5,99.9414,81.5,103.9414,71.5,107.9414,75.5,103.9414" style="stroke: #A80036; stroke-width: 1.0;"/><line style="stroke: #A80036; stroke-width: 1.0;" x1="33.5" x2="77.5" y1="103.9414" y2="103.9414"/><text fill="#000000" font-family="sans-serif" font-size="13" lengthAdjust="spacingAndGlyphs" textLength="26" x="40.5" y="99.085">AC()</text><line style="stroke: #A80036; stroke-width: 1.0;" x1="83.5" x2="125.5" y1="135.7974" y2="135.7974"/><line style="stroke: #A80036; stroke-width: 1.0;" x1="125.5" x2="125.5" y1="135.7974" y2="148.7974"/><line style="stroke: #A80036; stroke-width: 1.0;" x1="84.5" x2="125.5" y1="148.7974" y2="148.7974"/><polygon fill="#A80036" points="94.5,144.7974,84.5,148.7974,94.5,152.7974,90.5,148.7974" style="stroke: #A80036; stroke-width: 1.0;"/><text fill="#000000" font-family="sans-serif" font-size="13" lengthAdjust="spacingAndGlyphs" textLength="33" x="90.5" y="130.9409">CC1()</text><line style="stroke: #A80036; stroke-width: 1.0;" x1="83.5" x2="125.5" y1="180.6533" y2="180.6533"/><line style="stroke: #A80036; stroke-width: 1.0;" x1="125.5" x2="125.5" y1="180.6533" y2="193.6533"/><line style="stroke: #A80036; stroke-width: 1.0;" x1="84.5" x2="125.5" y1="193.6533" y2="193.6533"/><polygon fill="#A80036" points="94.5,189.6533,84.5,193.6533,94.5,197.6533,90.5,193.6533" style="stroke: #A80036; stroke-width: 1.0;"/><text fill="#000000" font-family="sans-serif" font-size="13" lengthAdjust="spacingAndGlyphs" textLength="33" x="90.5" y="175.7969">CC2()</text><polygon fill="#A80036" points="119.5,221.5093,129.5,225.5093,119.5,229.5093,123.5,225.5093" style="stroke: #A80036; stroke-width: 1.0;"/><line style="stroke: #A80036; stroke-width: 1.0;" x1="83.5" x2="125.5" y1="225.5093" y2="225.5093"/><text fill="#000000" font-family="sans-serif" font-size="13" lengthAdjust="spacingAndGlyphs" textLength="24" x="90.5" y="220.6528">Ba()</text><polygon fill="#A80036" points="44.5,253.3652,34.5,257.3652,44.5,261.3652,40.5,257.3652" style="stroke: #A80036; stroke-width: 1.0;"/><line style="stroke: #A80036; stroke-width: 1.0;" x1="38.5" x2="130.5" y1="257.3652" y2="257.3652"/><text fill="#000000" font-family="sans-serif" font-size="13" lengthAdjust="spacingAndGlyphs" textLength="26" x="50.5" y="252.5088">BB()</text><!--MD5=[68977a9b0b9fec74b39f52c6019a64bd]
@startuml
group void connectTarget.B.Bc(connectTarget.C, connectTarget.A)
	B->C : AC()
	C->C : CC1()
	C->C : CC2()
	C->A : Ba()
	A->B : BB()
end

@enduml

PlantUML version 1.2020.19(Tue Oct 13 00:10:01 KST 2020)
(APACHE source distribution)
Java Runtime: Java(TM) SE Runtime Environment
JVM: Java HotSpot(TM) 64-Bit Server VM
Default Encoding: MS949
Language: ko
Country: KR
--></g></svg>