<?xml version="1.0" encoding="UTF-8" standalone="no"?><svg xmlns="http://www.w3.org/2000/svg" xmlns:xlink="http://www.w3.org/1999/xlink" contentScriptType="application/ecmascript" contentStyleType="text/css" height="408px" preserveAspectRatio="none" style="width:355px;height:408px;" version="1.1" viewBox="0 0 355 408" width="355px" zoomAndPan="magnify"><defs><filter height="300%" id="fwtozimmdr07a" width="300%" x="-1" y="-1"><feGaussianBlur result="blurOut" stdDeviation="2.0"/><feColorMatrix in="blurOut" result="blurOut2" type="matrix" values="0 0 0 0 0 0 0 0 0 0 0 0 0 0 0 0 0 0 .4 0"/><feOffset dx="4.0" dy="4.0" in="blurOut2" result="blurOut3"/><feBlend in="SourceGraphic" in2="blurOut3" mode="normal"/></filter></defs><g><!--MD5=[26c5909e3beb0655f44a32ec04b7bf98]
cluster target--><polygon fill="#FFFFFF" filter="url(#fwtozimmdr07a)" points="16,6,64,6,71,31.2295,338,31.2295,338,401,16,401,16,6" style="stroke: #000000; stroke-width: 1.5;"/><line style="stroke: #000000; stroke-width: 1.5;" x1="16" x2="71" y1="31.2295" y2="31.2295"/><text fill="#000000" font-family="sans-serif" font-size="14" font-weight="bold" lengthAdjust="spacingAndGlyphs" textLength="42" x="20" y="24.1533">target</text><!--MD5=[b4399907fd0a3f402ef141ce3b89b92a]
class target.Barista--><rect codeLine="1" fill="#FEFECE" filter="url(#fwtozimmdr07a)" height="338.6233" id="target.Barista" style="stroke: #A80036; stroke-width: 1.5;" width="290" x="32" y="45.5"/><ellipse cx="153.25" cy="61.5" fill="#ADD1B2" rx="11" ry="11" style="stroke: #A80036; stroke-width: 1.0;"/><path d="M152.8125,55.0156 Q150.0781,55.0156 149,56.6406 Q147.8594,58.3594 147.8594,61.2813 Q147.8594,64.5781 149.0156,66.2813 Q150,67.7813 152.6094,67.7813 Q154.1875,67.7813 155.0625,66.9531 Q156.0469,66 156.1875,63.875 Q156.1875,63.5781 156.0156,63.4063 Q155.8906,63.25 155.6719,63.2344 Q154.4531,63.2344 154.2969,63.3594 Q154.125,63.5156 154.125,63.7813 Q154.0938,65.2656 153.4375,66.0781 Q152.8281,66.875 152.75,66.875 Q151.4219,66.875 150.6406,65.2813 Q149.8906,63.7344 149.8906,61.25 Q149.8906,58.625 150.8281,57.1719 Q151.6563,55.9219 152.9375,55.9219 Q152.9375,55.9219 153.2813,56.5469 Q153.9063,57.2188 154.0469,58.375 Q154.1563,58.9531 155.625,58.7344 Q156.1563,58.6563 156.125,58.2344 Q155.9531,56.7969 155.2344,55.9844 Q154.375,55.0156 152.8125,55.0156 Z "/><text fill="#000000" font-family="sans-serif" font-size="12" lengthAdjust="spacingAndGlyphs" textLength="39" x="173.75" y="67.1045">Barista</text><line style="stroke: #A80036; stroke-width: 1.5;" x1="33" x2="321" y1="77.5" y2="77.5"/><line style="stroke: #A80036; stroke-width: 1.5;" x1="33" x2="157" y1="93.0544" y2="93.0544"/><text fill="#008000" font-family="sans-serif" font-size="11" font-weight="bold" lengthAdjust="spacingAndGlyphs" textLength="40" x="157" y="97.6919">has list</text><line style="stroke: #A80036; stroke-width: 1.5;" x1="197" x2="321" y1="93.0544" y2="93.0544"/><line style="stroke: #A80036; stroke-width: 1.0; stroke-dasharray: 1.0,2.0;" x1="33" x2="164" y1="115.7178" y2="115.7178"/><text fill="#000000" font-family="sans-serif" font-size="11" lengthAdjust="spacingAndGlyphs" textLength="26" x="164" y="120.3552">class</text><line style="stroke: #A80036; stroke-width: 1.0; stroke-dasharray: 1.0,2.0;" x1="190" x2="321" y1="115.7178" y2="115.7178"/><line style="stroke: #A80036; stroke-width: 1.0; stroke-dasharray: 1.0,2.0;" x1="33" x2="158" y1="138.3811" y2="138.3811"/><text fill="#000000" font-family="sans-serif" font-size="11" lengthAdjust="spacingAndGlyphs" textLength="38" x="158" y="143.0186">member</text><line style="stroke: #A80036; stroke-width: 1.0; stroke-dasharray: 1.0,2.0;" x1="196" x2="321" y1="138.3811" y2="138.3811"/><text fill="#000000" font-family="sans-serif" font-size="11" lengthAdjust="spacingAndGlyphs" textLength="231" x="38" y="181.2908">boolean getOrder(target.Barista) (1095293768);</text><text fill="#000000" font-family="sans-serif" font-size="11" lengthAdjust="spacingAndGlyphs" textLength="278" x="38" y="196.3997">Coffee makeCoffee(target.Coffee, boolean) (673186785);</text><line style="stroke: #A80036; stroke-width: 1.0; stroke-dasharray: 1.0,2.0;" x1="33" x2="159.5" y1="161.0444" y2="161.0444"/><text fill="#000000" font-family="sans-serif" font-size="11" lengthAdjust="spacingAndGlyphs" textLength="35" x="159.5" y="165.6819">method</text><line style="stroke: #A80036; stroke-width: 1.0; stroke-dasharray: 1.0,2.0;" x1="194.5" x2="321" y1="161.0444" y2="161.0444"/><line style="stroke: #A80036; stroke-width: 1.5;" x1="33" x2="149.5" y1="210.3711" y2="210.3711"/><text fill="#0000FF" font-family="sans-serif" font-size="11" font-weight="bold" lengthAdjust="spacingAndGlyphs" textLength="55" x="149.5" y="215.0085">calling list</text><line style="stroke: #A80036; stroke-width: 1.5;" x1="204.5" x2="321" y1="210.3711" y2="210.3711"/><line style="stroke: #A80036; stroke-width: 1.0; stroke-dasharray: 1.0,2.0;" x1="33" x2="164" y1="233.0344" y2="233.0344"/><text fill="#000000" font-family="sans-serif" font-size="11" lengthAdjust="spacingAndGlyphs" textLength="26" x="164" y="237.6719">class</text><line style="stroke: #A80036; stroke-width: 1.0; stroke-dasharray: 1.0,2.0;" x1="190" x2="321" y1="233.0344" y2="233.0344"/><line style="stroke: #A80036; stroke-width: 1.0; stroke-dasharray: 1.0,2.0;" x1="33" x2="158" y1="255.6978" y2="255.6978"/><text fill="#000000" font-family="sans-serif" font-size="11" lengthAdjust="spacingAndGlyphs" textLength="38" x="158" y="260.3352">member</text><line style="stroke: #A80036; stroke-width: 1.0; stroke-dasharray: 1.0,2.0;" x1="196" x2="321" y1="255.6978" y2="255.6978"/><line style="stroke: #A80036; stroke-width: 1.0; stroke-dasharray: 1.0,2.0;" x1="33" x2="159.5" y1="278.3611" y2="278.3611"/><text fill="#000000" font-family="sans-serif" font-size="11" lengthAdjust="spacingAndGlyphs" textLength="35" x="159.5" y="282.9985">method</text><line style="stroke: #A80036; stroke-width: 1.0; stroke-dasharray: 1.0,2.0;" x1="194.5" x2="321" y1="278.3611" y2="278.3611"/><line style="stroke: #A80036; stroke-width: 1.5;" x1="33" x2="143" y1="301.0244" y2="301.0244"/><text fill="#FFA500" font-family="sans-serif" font-size="11" font-weight="bold" lengthAdjust="spacingAndGlyphs" textLength="68" x="143" y="305.6619">called by list</text><line style="stroke: #A80036; stroke-width: 1.5;" x1="211" x2="321" y1="301.0244" y2="301.0244"/><line style="stroke: #A80036; stroke-width: 1.0; stroke-dasharray: 1.0,2.0;" x1="33" x2="164" y1="323.6877" y2="323.6877"/><text fill="#000000" font-family="sans-serif" font-size="11" lengthAdjust="spacingAndGlyphs" textLength="26" x="164" y="328.3252">class</text><line style="stroke: #A80036; stroke-width: 1.0; stroke-dasharray: 1.0,2.0;" x1="190" x2="321" y1="323.6877" y2="323.6877"/><line style="stroke: #A80036; stroke-width: 1.0; stroke-dasharray: 1.0,2.0;" x1="33" x2="158" y1="346.3511" y2="346.3511"/><text fill="#000000" font-family="sans-serif" font-size="11" lengthAdjust="spacingAndGlyphs" textLength="38" x="158" y="350.9885">member</text><line style="stroke: #A80036; stroke-width: 1.0; stroke-dasharray: 1.0,2.0;" x1="196" x2="321" y1="346.3511" y2="346.3511"/><line style="stroke: #A80036; stroke-width: 1.0; stroke-dasharray: 1.0,2.0;" x1="33" x2="159.5" y1="369.0144" y2="369.0144"/><text fill="#000000" font-family="sans-serif" font-size="11" lengthAdjust="spacingAndGlyphs" textLength="35" x="159.5" y="373.6519">method</text><line style="stroke: #A80036; stroke-width: 1.0; stroke-dasharray: 1.0,2.0;" x1="194.5" x2="321" y1="369.0144" y2="369.0144"/><!--MD5=[91e08f1e2248ac8a0659659e1ba210cd]
@startuml
class target.Barista{
__**<color:green>has list</color>**__
..class..
..member..
..method..
	boolean getOrder(target.Barista) (1095293768);
	Coffee makeCoffee(target.Coffee, boolean) (673186785);
__**<color:blue>calling list</color>**__
..class..
..member..
..method..
__**<color:orange>called by list</color>**__
..class..
..member..
..method..
}

@enduml

PlantUML version 1.2020.19(Tue Oct 13 00:10:01 KST 2020)
(APACHE source distribution)
Java Runtime: Java(TM) SE Runtime Environment
JVM: Java HotSpot(TM) 64-Bit Server VM
Default Encoding: MS949
Language: ko
Country: KR
--></g></svg>