<?xml version="1.0" encoding="UTF-8" standalone="no"?><svg xmlns="http://www.w3.org/2000/svg" xmlns:xlink="http://www.w3.org/1999/xlink" contentScriptType="application/ecmascript" contentStyleType="text/css" height="1284px" preserveAspectRatio="none" style="width:445px;height:1284px;" version="1.1" viewBox="0 0 445 1284" width="445px" zoomAndPan="magnify"><defs><filter height="300%" id="fr7u44qbz01bo" width="300%" x="-1" y="-1"><feGaussianBlur result="blurOut" stdDeviation="2.0"/><feColorMatrix in="blurOut" result="blurOut2" type="matrix" values="0 0 0 0 0 0 0 0 0 0 0 0 0 0 0 0 0 0 .4 0"/><feOffset dx="4.0" dy="4.0" in="blurOut2" result="blurOut3"/><feBlend in="SourceGraphic" in2="blurOut3" mode="normal"/></filter></defs><g><!--MD5=[a70b0d373322012744ecc119c63f921b]
cluster main--><rect fill="#FFFFFF" filter="url(#fr7u44qbz01bo)" height="154" style="stroke: #000000; stroke-width: 1.5;" width="104" x="136" y="70.5"/><text fill="#000000" font-family="sans-serif" font-size="14" font-weight="bold" lengthAdjust="spacingAndGlyphs" textLength="33" x="171.5" y="88.6533">main</text><!--MD5=[1e829f21a74d4de467c1b519aceec237]
cluster makeFile--><rect fill="#FFFFFF" filter="url(#fr7u44qbz01bo)" height="154" style="stroke: #000000; stroke-width: 1.5;" width="86" x="145" y="274.5"/><text fill="#000000" font-family="sans-serif" font-size="14" font-weight="bold" lengthAdjust="spacingAndGlyphs" textLength="63" x="156.5" y="292.6533">makeFile</text><!--MD5=[1cc943b86f50fda51864bd79c3035393]
cluster makeScript--><rect fill="#FFFFFF" filter="url(#fr7u44qbz01bo)" height="221" style="stroke: #000000; stroke-width: 1.5;" width="130" x="123" y="452.5"/><text fill="#000000" font-family="sans-serif" font-size="14" font-weight="bold" lengthAdjust="spacingAndGlyphs" textLength="78" x="149" y="470.6533">makeScript</text><!--MD5=[25e01daf03fc02f3d0ae647926ef4273]
cluster makeMemberInfo--><rect fill="#FFFFFF" filter="url(#fr7u44qbz01bo)" height="221" style="stroke: #000000; stroke-width: 1.5;" width="152" x="112" y="701.5"/><text fill="#000000" font-family="sans-serif" font-size="14" font-weight="bold" lengthAdjust="spacingAndGlyphs" textLength="122" x="127" y="719.6533">makeMemberInfo</text><!--MD5=[00f16b784483aebc7df27d93db3e9ac8]
cluster makeFunctionInfo--><rect fill="#FFFFFF" filter="url(#fr7u44qbz01bo)" height="87" style="stroke: #000000; stroke-width: 1.5;" width="160" x="108" y="1002.5"/><text fill="#000000" font-family="sans-serif" font-size="14" font-weight="bold" lengthAdjust="spacingAndGlyphs" textLength="126" x="125" y="1020.6533">makeFunctionInfo</text><!--MD5=[1b8ffe1225e9a60f44b59857f1cb006c]
cluster makeExpInfo--><rect fill="#FFFFFF" filter="url(#fr7u44qbz01bo)" height="87" style="stroke: #000000; stroke-width: 1.5;" width="107" x="135" y="1145.5"/><text fill="#000000" font-family="sans-serif" font-size="14" font-weight="bold" lengthAdjust="spacingAndGlyphs" textLength="90" x="143.5" y="1163.6533">makeExpInfo</text><ellipse cx="188.5269" cy="125.5973" fill="#FEFECE" filter="url(#fr7u44qbz01bo)" rx="35.5269" ry="16.5973" style="stroke: #A80036; stroke-width: 1.5;"/><text fill="#000000" font-family="sans-serif" font-size="14" lengthAdjust="spacingAndGlyphs" textLength="46" x="165.5269" y="131.7121">waitFor</text><ellipse cx="188.5772" cy="192.5973" fill="#FEFECE" filter="url(#fr7u44qbz01bo)" rx="30.5772" ry="16.5973" style="stroke: #A80036; stroke-width: 1.5;"/><text fill="#000000" font-family="sans-serif" font-size="14" lengthAdjust="spacingAndGlyphs" textLength="39" x="169.0772" y="198.7121">println</text><ellipse cx="188.5061" cy="329.5973" fill="#FEFECE" filter="url(#fr7u44qbz01bo)" rx="23.5061" ry="16.5973" style="stroke: #A80036; stroke-width: 1.5;"/><text fill="#000000" font-family="sans-serif" font-size="14" lengthAdjust="spacingAndGlyphs" textLength="29" x="174.0061" y="335.7121">write</text><ellipse cx="188.3345" cy="396.5973" fill="#FEFECE" filter="url(#fr7u44qbz01bo)" rx="26.3345" ry="16.5973" style="stroke: #A80036; stroke-width: 1.5;"/><text fill="#000000" font-family="sans-serif" font-size="14" lengthAdjust="spacingAndGlyphs" textLength="33" x="171.8345" y="402.7121">close</text><ellipse cx="187.9411" cy="574.5973" fill="#FEFECE" filter="url(#fr7u44qbz01bo)" rx="36.9411" ry="16.5973" style="stroke: #A80036; stroke-width: 1.5;"/><text fill="#000000" font-family="sans-serif" font-size="14" lengthAdjust="spacingAndGlyphs" textLength="48" x="163.9411" y="580.7121">append</text><ellipse cx="187.9619" cy="641.5973" fill="#FEFECE" filter="url(#fr7u44qbz01bo)" rx="48.9619" ry="16.5973" style="stroke: #A80036; stroke-width: 1.5;"/><text fill="#000000" font-family="sans-serif" font-size="14" lengthAdjust="spacingAndGlyphs" textLength="65" x="155.4619" y="647.7121">hashCode</text><ellipse cx="188.6482" cy="507.5973" fill="#FEFECE" filter="url(#fr7u44qbz01bo)" rx="37.6482" ry="16.5973" style="stroke: #A80036; stroke-width: 1.5;"/><text fill="#000000" font-family="sans-serif" font-size="14" lengthAdjust="spacingAndGlyphs" textLength="49" x="164.1482" y="513.7121">toString</text><ellipse cx="187.9619" cy="756.5973" fill="#FEFECE" filter="url(#fr7u44qbz01bo)" rx="48.9619" ry="16.5973" style="stroke: #A80036; stroke-width: 1.5;"/><text fill="#000000" font-family="sans-serif" font-size="14" lengthAdjust="spacingAndGlyphs" textLength="65" x="155.4619" y="762.7121">hashCode</text><ellipse cx="188.6482" cy="823.5973" fill="#FEFECE" filter="url(#fr7u44qbz01bo)" rx="37.6482" ry="16.5973" style="stroke: #A80036; stroke-width: 1.5;"/><text fill="#000000" font-family="sans-serif" font-size="14" lengthAdjust="spacingAndGlyphs" textLength="49" x="164.1482" y="829.7121">toString</text><ellipse cx="188.5685" cy="890.5973" fill="#FEFECE" filter="url(#fr7u44qbz01bo)" rx="59.5685" ry="16.5973" style="stroke: #A80036; stroke-width: 1.5;"/><text fill="#000000" font-family="sans-serif" font-size="14" lengthAdjust="spacingAndGlyphs" textLength="80" x="148.5685" y="896.7121">getImageList</text><ellipse cx="187.8112" cy="1057.5973" fill="#FEFECE" filter="url(#fr7u44qbz01bo)" rx="63.8112" ry="16.5973" style="stroke: #A80036; stroke-width: 1.5;"/><text fill="#000000" font-family="sans-serif" font-size="14" lengthAdjust="spacingAndGlyphs" textLength="86" x="144.8112" y="1063.7121">getHeadNode</text><ellipse cx="187.9836" cy="1200.5869" fill="#FEFECE" filter="url(#fr7u44qbz01bo)" rx="19.9836" ry="16.5869" style="stroke: #A80036; stroke-width: 1.5;"/><text fill="#000000" font-family="sans-serif" font-size="14" lengthAdjust="spacingAndGlyphs" textLength="24" x="175.9836" y="1206.7016">add</text><!--MD5=[f16a7d28a72966b4aad0200e9f453c28]
entity actor1974284481--><ellipse cx="35" cy="542" fill="#FEFECE" filter="url(#fr7u44qbz01bo)" rx="8" ry="8" style="stroke: #A80036; stroke-width: 1.5;"/><path d="M35,550 L35,577 M22,558 L48,558 M35,577 L22,592 M35,577 L48,592 " fill="none" filter="url(#fr7u44qbz01bo)" style="stroke: #A80036; stroke-width: 1.5;"/><text fill="#000000" font-family="sans-serif" font-size="14" lengthAdjust="spacingAndGlyphs" textLength="58" x="6" y="613.6533">ForQuiz2</text><!--MD5=[c6373e6f06c0704c33390c3718060f35]
entity actor731802107--><ellipse cx="375" cy="133" fill="#FEFECE" filter="url(#fr7u44qbz01bo)" rx="8" ry="8" style="stroke: #A80036; stroke-width: 1.5;"/><path d="M375,141 L375,168 M362,149 L388,149 M375,168 L362,183 M375,168 L388,183 " fill="none" filter="url(#fr7u44qbz01bo)" style="stroke: #A80036; stroke-width: 1.5;"/><text fill="#000000" font-family="sans-serif" font-size="14" lengthAdjust="spacingAndGlyphs" textLength="74" x="338" y="204.6533">PrintStream</text><!--MD5=[062a681f1f9b86810eaa79255c6621ce]
entity actor431996456--><ellipse cx="375.5" cy="14" fill="#FEFECE" filter="url(#fr7u44qbz01bo)" rx="8" ry="8" style="stroke: #A80036; stroke-width: 1.5;"/><path d="M375.5,22 L375.5,49 M362.5,30 L388.5,30 M375.5,49 L362.5,64 M375.5,49 L388.5,64 " fill="none" filter="url(#fr7u44qbz01bo)" style="stroke: #A80036; stroke-width: 1.5;"/><text fill="#000000" font-family="sans-serif" font-size="14" lengthAdjust="spacingAndGlyphs" textLength="51" x="350" y="85.6533">Process</text><!--MD5=[b7ff3028df048458b75b57f58ef17add]
entity actor298295476--><ellipse cx="375" cy="371" fill="#FEFECE" filter="url(#fr7u44qbz01bo)" rx="8" ry="8" style="stroke: #A80036; stroke-width: 1.5;"/><path d="M375,379 L375,406 M362,387 L388,387 M375,406 L362,421 M375,406 L388,421 " fill="none" filter="url(#fr7u44qbz01bo)" style="stroke: #A80036; stroke-width: 1.5;"/><text fill="#000000" font-family="sans-serif" font-size="14" lengthAdjust="spacingAndGlyphs" textLength="126" x="312" y="442.6533">OutputStreamWriter</text><!--MD5=[91abf8970a3ff022ed6743739d14ea1d]
entity actor1978471002--><ellipse cx="375" cy="252" fill="#FEFECE" filter="url(#fr7u44qbz01bo)" rx="8" ry="8" style="stroke: #A80036; stroke-width: 1.5;"/><path d="M375,260 L375,287 M362,268 L388,268 M375,287 L362,302 M375,287 L388,302 " fill="none" filter="url(#fr7u44qbz01bo)" style="stroke: #A80036; stroke-width: 1.5;"/><text fill="#000000" font-family="sans-serif" font-size="14" lengthAdjust="spacingAndGlyphs" textLength="38" x="356" y="323.6533">Writer</text><!--MD5=[b2b17946780437d3e03a3618b26c4aa9]
entity actor1795804759--><ellipse cx="375.5" cy="490" fill="#FEFECE" filter="url(#fr7u44qbz01bo)" rx="8" ry="8" style="stroke: #A80036; stroke-width: 1.5;"/><path d="M375.5,498 L375.5,525 M362.5,506 L388.5,506 M375.5,525 L362.5,540 M375.5,525 L388.5,540 " fill="none" filter="url(#fr7u44qbz01bo)" style="stroke: #A80036; stroke-width: 1.5;"/><text fill="#000000" font-family="sans-serif" font-size="14" lengthAdjust="spacingAndGlyphs" textLength="81" x="335" y="561.6533">StringBuilder</text><!--MD5=[e4e1039503309ab0d43884529c74cd45]
entity actor1548698416--><ellipse cx="375.5" cy="609" fill="#FEFECE" filter="url(#fr7u44qbz01bo)" rx="8" ry="8" style="stroke: #A80036; stroke-width: 1.5;"/><path d="M375.5,617 L375.5,644 M362.5,625 L388.5,625 M375.5,644 L362.5,659 M375.5,644 L388.5,659 " fill="none" filter="url(#fr7u44qbz01bo)" style="stroke: #A80036; stroke-width: 1.5;"/><text fill="#000000" font-family="sans-serif" font-size="14" lengthAdjust="spacingAndGlyphs" textLength="41" x="355" y="680.6533">Object</text><!--MD5=[7e98fb6c63a3f8812a1e24aa3667afb9]
entity actor444096469--><ellipse cx="375.5" cy="966" fill="#FEFECE" filter="url(#fr7u44qbz01bo)" rx="8" ry="8" style="stroke: #A80036; stroke-width: 1.5;"/><path d="M375.5,974 L375.5,1001 M362.5,982 L388.5,982 M375.5,1001 L362.5,1016 M375.5,1001 L388.5,1016 " fill="none" filter="url(#fr7u44qbz01bo)" style="stroke: #A80036; stroke-width: 1.5;"/><text fill="#000000" font-family="sans-serif" font-size="14" lengthAdjust="spacingAndGlyphs" textLength="51" x="350" y="1037.6533">Member</text><!--MD5=[0bf89f2900f18adf03543591753f2c09]
entity actor602572848--><ellipse cx="375" cy="847" fill="#FEFECE" filter="url(#fr7u44qbz01bo)" rx="8" ry="8" style="stroke: #A80036; stroke-width: 1.5;"/><path d="M375,855 L375,882 M362,863 L388,863 M375,882 L362,897 M375,882 L388,897 " fill="none" filter="url(#fr7u44qbz01bo)" style="stroke: #A80036; stroke-width: 1.5;"/><text fill="#000000" font-family="sans-serif" font-size="14" lengthAdjust="spacingAndGlyphs" textLength="114" x="318" y="918.6533">AbstractCollection</text><!--MD5=[4c464b33680e4db63525491c2926012d]
entity actor1134384220--><ellipse cx="375" cy="728" fill="#FEFECE" filter="url(#fr7u44qbz01bo)" rx="8" ry="8" style="stroke: #A80036; stroke-width: 1.5;"/><path d="M375,736 L375,763 M362,744 L388,744 M375,763 L362,778 M375,763 L388,778 " fill="none" filter="url(#fr7u44qbz01bo)" style="stroke: #A80036; stroke-width: 1.5;"/><text fill="#000000" font-family="sans-serif" font-size="14" lengthAdjust="spacingAndGlyphs" textLength="74" x="338" y="799.6533">AbstractList</text><!--MD5=[37661927b57d6338813e607196720b2f]
entity actor426792528--><ellipse cx="375.5" cy="1085" fill="#FEFECE" filter="url(#fr7u44qbz01bo)" rx="8" ry="8" style="stroke: #A80036; stroke-width: 1.5;"/><path d="M375.5,1093 L375.5,1120 M362.5,1101 L388.5,1101 M375.5,1120 L362.5,1135 M375.5,1120 L388.5,1135 " fill="none" filter="url(#fr7u44qbz01bo)" style="stroke: #A80036; stroke-width: 1.5;"/><text fill="#000000" font-family="sans-serif" font-size="14" lengthAdjust="spacingAndGlyphs" textLength="55" x="348" y="1156.6533">Function</text><!--MD5=[b8cdde3df73f4298fd171ae207d79fef]
entity actor1538456363--><ellipse cx="375" cy="1204" fill="#FEFECE" filter="url(#fr7u44qbz01bo)" rx="8" ry="8" style="stroke: #A80036; stroke-width: 1.5;"/><path d="M375,1212 L375,1239 M362,1220 L388,1220 M375,1239 L362,1254 M375,1239 L388,1254 " fill="none" filter="url(#fr7u44qbz01bo)" style="stroke: #A80036; stroke-width: 1.5;"/><text fill="#000000" font-family="sans-serif" font-size="14" lengthAdjust="spacingAndGlyphs" textLength="56" x="347" y="1275.6533">ArrayList</text><!--MD5=[2995fff1576425f78b90a40d7e529b12]
link actor1974284481 to UC1695161087--><path d="M36.3687,532.465 C40.2272,438.738 54.1015,216.41 100,159.5 C113.162,143.18 135.162,134.68 153.871,130.26 " fill="none" id="actor1974284481-UC1695161087" style="stroke: #A80036; stroke-width: 1.0;"/><!--MD5=[4c45c692404ca103da54574633ff0fa3]
link actor1974284481 to UC1001114349--><path d="M38.7848,532.072 C45.1437,475.861 61.3127,374.804 100,297.5 C118.522,260.49 152.519,225.28 172.399,206.53 " fill="none" id="actor1974284481-UC1001114349" style="stroke: #A80036; stroke-width: 1.0;"/><!--MD5=[816e5c10a07c33b9916dec33cc4780dc]
link UC1001114349 to actor731802107--><path d="M217.631,188.22 C250.174,183.52 302.492,175.97 337.779,170.87 " fill="none" id="UC1001114349-actor731802107" style="stroke: #A80036; stroke-width: 1.0;"/><!--MD5=[a231901502e2fae95faf822f7b0f0363]
link UC1695161087 to actor431996456--><path d="M214.002,114.52 C249.728,99.42 313.609,72.44 349.219,57.39 " fill="none" id="UC1695161087-actor431996456" style="stroke: #A80036; stroke-width: 1.0;"/><!--MD5=[585436ea210292d3f4f37c17a15e309a]
link actor1974284481 to UC743936514--><path d="M43.4351,532.327 C55.0255,478.136 77.0615,388.1 100,363.5 C116.978,345.292 144.818,336.72 164.636,332.76 " fill="none" id="actor1974284481-UC743936514" style="stroke: #A80036; stroke-width: 1.0;"/><!--MD5=[065346a22b23fcb7c95b8796e8842f16]
link actor1974284481 to UC1238292935--><path d="M59.3118,532.343 C70.6695,514.094 84.9875,492.962 100,475.5 C122.352,449.501 152.99,423.804 171.592,409.079 " fill="none" id="actor1974284481-UC1238292935" style="stroke: #A80036; stroke-width: 1.0;"/><!--MD5=[539b80ae290c703ad2aae7b318baf8e8]
link UC1238292935 to actor298295476--><path d="M214.793,397.503 C240.04,398.448 278.828,399.9 311.914,401.139 " fill="none" id="UC1238292935-actor298295476" style="stroke: #A80036; stroke-width: 1.0;"/><!--MD5=[e18b8401311afcfe65399b1f164de55e]
link UC743936514 to actor1978471002--><path d="M210.186,324.161 C247.24,315.244 321.083,297.475 355.941,289.086 " fill="none" id="UC743936514-actor1978471002" style="stroke: #A80036; stroke-width: 1.0;"/><!--MD5=[5ef3c3cb761287f85a854a6d0c3ed444]
link actor1974284481 to UC1698322791--><path d="M64.1383,584.766 C91.4495,588.093 132.038,588.078 159.23,584.721 " fill="none" id="actor1974284481-UC1698322791" style="stroke: #A80036; stroke-width: 1.0;"/><!--MD5=[5ef3c3cb761287f85a854a6d0c3ed444]
link actor1974284481 to UC1698322791--><path d="M64.1383,563.63 C91.7963,560.063 133.071,560.124 160.259,563.815 " fill="none" id="actor1974284481-UC1698322791-1" style="stroke: #A80036; stroke-width: 1.0;"/><!--MD5=[5ef3c3cb761287f85a854a6d0c3ed444]
link actor1974284481 to UC1698322791--><path d="M64.1383,605.901 C101.4202,619.794 163.444,614.637 182.355,590.428 " fill="none" id="actor1974284481-UC1698322791-2" style="stroke: #A80036; stroke-width: 1.0;"/><!--MD5=[5ef3c3cb761287f85a854a6d0c3ed444]
link actor1974284481 to UC1698322791--><path d="M64.1383,542.495 C101.5936,528.269 164.022,533.641 182.616,558.611 " fill="none" id="actor1974284481-UC1698322791-3" style="stroke: #A80036; stroke-width: 1.0;"/><!--MD5=[02a94d19db2c84342fe52ae7114833e6]
link actor1974284481 to UC1518712038--><path d="M55.7539,616.608 C68.3598,628.082 84.8854,636.744 100,643.5 C129.792,656.817 166.745,669.468 181.486,657.676 " fill="none" id="actor1974284481-UC1518712038" style="stroke: #A80036; stroke-width: 1.0;"/><!--MD5=[02a94d19db2c84342fe52ae7114833e6]
link actor1974284481 to UC1518712038--><path d="M64.0678,590.681 C75.1634,596.598 88.0246,603.147 100,608.5 C117.578,616.357 137.648,623.982 154.178,629.92 " fill="none" id="actor1974284481-UC1518712038-1" style="stroke: #A80036; stroke-width: 1.0;"/><!--MD5=[02a94d19db2c84342fe52ae7114833e6]
link actor1974284481 to UC1518712038--><path d="M64.0678,557.961 C75.1634,561.598 88.0246,568.147 100,573.5 C131.729,587.683 171.579,601.11 184.071,625.38 " fill="none" id="actor1974284481-UC1518712038-2" style="stroke: #A80036; stroke-width: 1.0;"/><!--MD5=[a2668abb26d7c92ec168ae75cf3fbad4]
link actor1974284481 to UC1986751746--><path d="M64.1416,558.914 C75.2457,553.185 88.0934,546.806 100,541.5 C119.448,532.833 141.837,524.2 159.165,517.803 " fill="none" id="actor1974284481-UC1986751746" style="stroke: #A80036; stroke-width: 1.0;"/><!--MD5=[d38bbcde15f3bbbea2f924710b14161f]
link UC1986751746 to actor1795804759--><path d="M224.945,510.464 C256.452,512.991 301.681,516.619 334.236,519.23 " fill="none" id="UC1986751746-actor1795804759" style="stroke: #A80036; stroke-width: 1.0;"/><!--MD5=[00d83c9abec1b2fe5cc1c42ef859c203]
link UC1518712038 to actor1548698416--><path d="M203.303,656.713 C236.799,670.742 316.63,671.397 354.453,658.678 " fill="none" id="UC1518712038-actor1548698416" style="stroke: #A80036; stroke-width: 1.0;"/><!--MD5=[00d83c9abec1b2fe5cc1c42ef859c203]
link UC1518712038 to actor1548698416--><path d="M237.132,641.5 C275.223,641.5 326.103,641.5 354.183,641.5 " fill="none" id="UC1518712038-actor1548698416-1" style="stroke: #A80036; stroke-width: 1.0;"/><!--MD5=[00d83c9abec1b2fe5cc1c42ef859c203]
link UC1518712038 to actor1548698416--><path d="M203.303,626.287 C236.799,612.258 316.63,611.603 354.453,624.322 " fill="none" id="UC1518712038-actor1548698416-2" style="stroke: #A80036; stroke-width: 1.0;"/><!--MD5=[69bd8bc59a152daaf90aabbb532079af]
link UC1698322791 to actor1795804759--><path d="M197.273,590.112 C222.551,605.1 293.724,589.855 337.954,564.63 " fill="none" id="UC1698322791-actor1795804759" style="stroke: #A80036; stroke-width: 1.0;"/><!--MD5=[69bd8bc59a152daaf90aabbb532079af]
link UC1698322791 to actor1795804759--><path d="M225.393,574.541 C256.942,568.751 302.015,556.313 334.431,544.507 " fill="none" id="UC1698322791-actor1795804759-1" style="stroke: #A80036; stroke-width: 1.0;"/><!--MD5=[69bd8bc59a152daaf90aabbb532079af]
link UC1698322791 to actor1795804759--><path d="M206.96,560.677 C236.673,546.947 294.885,529.822 334.366,522.437 " fill="none" id="UC1698322791-actor1795804759-2" style="stroke: #A80036; stroke-width: 1.0;"/><!--MD5=[69bd8bc59a152daaf90aabbb532079af]
link UC1698322791 to actor1795804759--><path d="M193.395,558.491 C213.755,527.632 287.159,500.888 334.179,500.346 " fill="none" id="UC1698322791-actor1795804759-3" style="stroke: #A80036; stroke-width: 1.0;"/><!--MD5=[cdd27ca3c0f729a03711dbbb7d85d057]
link actor1974284481 to UC1891930552--><path d="M59.8228,616.972 C71.1677,635.077 85.3356,656.012 100,673.5 C121.725,699.409 150.93,725.557 169.614,741.397 " fill="none" id="actor1974284481-UC1891930552" style="stroke: #A80036; stroke-width: 1.0;"/><!--MD5=[c5b741951764702a43a64aa24c8279a9]
link actor1974284481 to UC731573979--><path d="M43.0809,616.754 C54.4373,672.152 76.3881,765.264 100,790.5 C113.712,805.155 134.562,813.345 152.526,817.9 " fill="none" id="actor1974284481-UC731573979" style="stroke: #A80036; stroke-width: 1.0;"/><!--MD5=[27e28bd6937147498b8cd0c286780150]
link actor1974284481 to UC104105431--><path d="M39.7512,616.525 C48.4209,686.293 68.8349,821.887 100,857.5 C109.993,868.919 124.339,876.397 138.557,881.29 " fill="none" id="actor1974284481-UC104105431" style="stroke: #A80036; stroke-width: 1.0;"/><!--MD5=[07b0fc4933a4ee73b156128745b608ae]
link UC104105431 to actor444096469--><path d="M213.22,905.065 C248.81,925.62 313.423,962.937 349.282,983.647 " fill="none" id="UC104105431-actor444096469" style="stroke: #A80036; stroke-width: 1.0;"/><!--MD5=[6b14b171d9115a1f3fcca2a9f52c2550]
link UC731573979 to actor602572848--><path d="M218.879,832.747 C245.747,840.793 285.383,852.663 317.993,862.428 " fill="none" id="UC731573979-actor602572848" style="stroke: #A80036; stroke-width: 1.0;"/><!--MD5=[41055b7614c58a2dddfae2f83dd09b36]
link UC1891930552 to actor1134384220--><path d="M237.132,757.551 C268.622,758.225 308.852,759.085 337.716,759.702 " fill="none" id="UC1891930552-actor1134384220" style="stroke: #A80036; stroke-width: 1.0;"/><!--MD5=[eb15a120be2ac8d018b264e7cce90df7]
link actor1974284481 to UC93981118--><path d="M37.5494,616.687 C42.7569,683.675 57.9306,817.527 100,922.5 C118.838,969.505 155.028,1017.527 174.617,1041.631 " fill="none" id="actor1974284481-UC93981118" style="stroke: #A80036; stroke-width: 1.0;"/><!--MD5=[c3ca0286f536eef2c80ca6b722f672ff]
link UC93981118 to actor426792528--><path d="M227.658,1070.224 C263.574,1081.748 315.568,1098.431 347.225,1108.588 " fill="none" id="UC93981118-actor426792528" style="stroke: #A80036; stroke-width: 1.0;"/><!--MD5=[6ea23a6d20fcf09331f36385056569fb]
link actor1974284481 to UC2030748640--><path d="M37.4012,616.75 C43.958,723.965 64.1166,1004.138 100,1089.5 C117.345,1130.76 154.505,1169.457 174.54,1188.3803 " fill="none" id="actor1974284481-UC2030748640" style="stroke: #A80036; stroke-width: 1.0;"/><!--MD5=[7a3d259757281e358966309a33b62add]
link UC2030748640 to actor1538456363--><path d="M207.659,1204.2846 C240.948,1210.6932 308.523,1223.7023 346.836,1231.078 " fill="none" id="UC2030748640-actor1538456363" style="stroke: #A80036; stroke-width: 1.0;"/><!--MD5=[7f3028c7c71a535d766d6d62e3633d02]
@startuml
 left to right direction

actor ForQuiz2 as actor1974284481

	rectangle main{
	 usecase waitFor as UC1695161087
	actor1974284481- -UC1695161087
	 usecase println as UC1001114349
	actor1974284481- -UC1001114349
	}
	actor PrintStream as actor731802107
	UC1001114349 - - actor731802107
	actor Process as actor431996456
	UC1695161087 - - actor431996456
	rectangle makeFile{
	 usecase write as UC743936514
	actor1974284481- -UC743936514
	 usecase close as UC1238292935
	actor1974284481- -UC1238292935
	}
	actor OutputStreamWriter as actor298295476
	UC1238292935 - - actor298295476
	actor Writer as actor1978471002
	UC743936514 - - actor1978471002
	rectangle makeScript{
	 usecase append as UC1698322791
	actor1974284481- -UC1698322791
	 usecase hashCode as UC1518712038
	actor1974284481- -UC1518712038
	 usecase toString as UC1986751746
	actor1974284481- -UC1986751746
	}
	actor StringBuilder as actor1795804759
	UC1986751746 - - actor1795804759
	actor Object as actor1548698416
	UC1518712038 - - actor1548698416
	actor StringBuilder as actor1795804759
	UC1698322791 - - actor1795804759
	rectangle makeMemberInfo{
	 usecase append as UC1698322791
	actor1974284481- -UC1698322791
	 usecase hashCode as UC1891930552
	actor1974284481- -UC1891930552
	 usecase toString as UC731573979
	actor1974284481- -UC731573979
	 usecase getImageList as UC104105431
	actor1974284481- -UC104105431
	}
	actor Member as actor444096469
	UC104105431 - - actor444096469
	actor AbstractCollection as actor602572848
	UC731573979 - - actor602572848
	actor AbstractList as actor1134384220
	UC1891930552 - - actor1134384220
	actor StringBuilder as actor1795804759
	UC1698322791 - - actor1795804759
	rectangle makeFunctionInfo{
	 usecase append as UC1698322791
	actor1974284481- -UC1698322791
	 usecase hashCode as UC1518712038
	actor1974284481- -UC1518712038
	 usecase getHeadNode as UC93981118
	actor1974284481- -UC93981118
	}
	actor Function as actor426792528
	UC93981118 - - actor426792528
	actor Object as actor1548698416
	UC1518712038 - - actor1548698416
	actor StringBuilder as actor1795804759
	UC1698322791 - - actor1795804759
	rectangle makeExpInfo{
	 usecase add as UC2030748640
	actor1974284481- -UC2030748640
	 usecase append as UC1698322791
	actor1974284481- -UC1698322791
	 usecase hashCode as UC1518712038
	actor1974284481- -UC1518712038
	}
	actor Object as actor1548698416
	UC1518712038 - - actor1548698416
	actor StringBuilder as actor1795804759
	UC1698322791 - - actor1795804759
	actor ArrayList as actor1538456363
	UC2030748640 - - actor1538456363

@enduml

PlantUML version 1.2020.19(Tue Oct 13 00:10:01 KST 2020)
(APACHE source distribution)
Java Runtime: Java(TM) SE Runtime Environment
JVM: Java HotSpot(TM) 64-Bit Server VM
Default Encoding: MS949
Language: ko
Country: KR
--></g></svg>