<?xml version="1.0" encoding="UTF-8" standalone="no"?><svg xmlns="http://www.w3.org/2000/svg" xmlns:xlink="http://www.w3.org/1999/xlink" contentScriptType="application/ecmascript" contentStyleType="text/css" height="332px" preserveAspectRatio="none" style="width:353px;height:332px;" version="1.1" viewBox="0 0 353 332" width="353px" zoomAndPan="magnify"><defs><filter height="300%" id="f1l7f1xdmoe754" width="300%" x="-1" y="-1"><feGaussianBlur result="blurOut" stdDeviation="2.0"/><feColorMatrix in="blurOut" result="blurOut2" type="matrix" values="0 0 0 0 0 0 0 0 0 0 0 0 0 0 0 0 0 0 .4 0"/><feOffset dx="4.0" dy="4.0" in="blurOut2" result="blurOut3"/><feBlend in="SourceGraphic" in2="blurOut3" mode="normal"/></filter></defs><g><!--MD5=[a70b0d373322012744ecc119c63f921b]
cluster main--><rect fill="#FFFFFF" filter="url(#f1l7f1xdmoe754)" height="221" style="stroke: #000000; stroke-width: 1.5;" width="146" x="80" y="43.5"/><text fill="#000000" font-family="sans-serif" font-size="14" font-weight="bold" lengthAdjust="spacingAndGlyphs" textLength="33" x="136.5" y="61.6533">main</text><ellipse cx="153.7401" cy="98.5973" fill="#FEFECE" filter="url(#f1l7f1xdmoe754)" rx="56.7401" ry="16.5973" style="stroke: #A80036; stroke-width: 1.5;"/><text fill="#000000" font-family="sans-serif" font-size="14" lengthAdjust="spacingAndGlyphs" textLength="76" x="115.7401" y="104.7121">addDataList</text><ellipse cx="153.2132" cy="165.5973" fill="#FEFECE" filter="url(#f1l7f1xdmoe754)" rx="24.2132" ry="16.5973" style="stroke: #A80036; stroke-width: 1.5;"/><text fill="#000000" font-family="sans-serif" font-size="14" lengthAdjust="spacingAndGlyphs" textLength="30" x="138.2132" y="171.7121">main</text><ellipse cx="153.5772" cy="232.5973" fill="#FEFECE" filter="url(#f1l7f1xdmoe754)" rx="30.5772" ry="16.5973" style="stroke: #A80036; stroke-width: 1.5;"/><text fill="#000000" font-family="sans-serif" font-size="14" lengthAdjust="spacingAndGlyphs" textLength="39" x="134.0772" y="238.7121">println</text><!--MD5=[2f05c78f74777b41d4421c0fba8f78f9]
entity actor1430710100--><ellipse cx="21" cy="133" fill="#FEFECE" filter="url(#f1l7f1xdmoe754)" rx="8" ry="8" style="stroke: #A80036; stroke-width: 1.5;"/><path d="M21,141 L21,168 M8,149 L34,149 M21,168 L8,183 M21,168 L34,183 " fill="none" filter="url(#f1l7f1xdmoe754)" style="stroke: #A80036; stroke-width: 1.5;"/><text fill="#000000" font-family="sans-serif" font-size="14" lengthAdjust="spacingAndGlyphs" textLength="30" x="6" y="204.6533">Main</text><!--MD5=[c6373e6f06c0704c33390c3718060f35]
entity actor731802107--><ellipse cx="308" cy="252" fill="#FEFECE" filter="url(#f1l7f1xdmoe754)" rx="8" ry="8" style="stroke: #A80036; stroke-width: 1.5;"/><path d="M308,260 L308,287 M295,268 L321,268 M308,287 L295,302 M308,287 L321,302 " fill="none" filter="url(#f1l7f1xdmoe754)" style="stroke: #A80036; stroke-width: 1.5;"/><text fill="#000000" font-family="sans-serif" font-size="14" lengthAdjust="spacingAndGlyphs" textLength="74" x="271" y="323.6533">PrintStream</text><!--MD5=[15c1fd565705824a0e487ce5aa3e8082]
entity actor770921565--><ellipse cx="308.5" cy="133" fill="#FEFECE" filter="url(#f1l7f1xdmoe754)" rx="8" ry="8" style="stroke: #A80036; stroke-width: 1.5;"/><path d="M308.5,141 L308.5,168 M295.5,149 L321.5,149 M308.5,168 L295.5,183 M308.5,168 L321.5,183 " fill="none" filter="url(#f1l7f1xdmoe754)" style="stroke: #A80036; stroke-width: 1.5;"/><text fill="#000000" font-family="sans-serif" font-size="14" lengthAdjust="spacingAndGlyphs" textLength="59" x="279" y="204.6533">ForMidEx</text><!--MD5=[9e6ffdab585f7a40d2984860a76eec0e]
entity actor181451598--><ellipse cx="308.5" cy="14" fill="#FEFECE" filter="url(#f1l7f1xdmoe754)" rx="8" ry="8" style="stroke: #A80036; stroke-width: 1.5;"/><path d="M308.5,22 L308.5,49 M295.5,30 L321.5,30 M308.5,49 L295.5,64 M308.5,49 L321.5,64 " fill="none" filter="url(#f1l7f1xdmoe754)" style="stroke: #A80036; stroke-width: 1.5;"/><text fill="#000000" font-family="sans-serif" font-size="14" lengthAdjust="spacingAndGlyphs" textLength="75" x="271" y="85.6533">Test_Visitor</text><!--MD5=[9552dba03d67a39f2e474235e18f2bff]
link actor1430710100 to UC2132762784--><path d="M36.1942,154.656 C46.1161,147.831 59.5037,139.099 72,132.5 C86.9696,124.595 104.1861,117.153 118.887,111.258 " fill="none" id="actor1430710100-UC2132762784" style="stroke: #A80036; stroke-width: 1.0;"/><!--MD5=[1dbeee792d9f621441e3a5c0489b5717]
link actor1430710100 to UC2011857007--><path d="M36.1421,165.5 C58.7602,165.5 101.5979,165.5 128.65,165.5 " fill="none" id="actor1430710100-UC2011857007" style="stroke: #A80036; stroke-width: 1.0;"/><!--MD5=[cee76ff18edb3e78ea4ad59467d2eb73]
link actor1430710100 to UC1001114349--><path d="M36.1244,176.755 C46.0185,183.819 59.4013,192.821 72,199.5 C89.8437,208.959 111.01,217.497 127.229,223.517 " fill="none" id="actor1430710100-UC1001114349" style="stroke: #A80036; stroke-width: 1.0;"/><!--MD5=[816e5c10a07c33b9916dec33cc4780dc]
link UC1001114349 to actor731802107--><path d="M178.944,241.2036 C204.108,249.646 242.546,262.5412 270.932,272.0643 " fill="none" id="UC1001114349-actor731802107" style="stroke: #A80036; stroke-width: 1.0;"/><!--MD5=[260d7d56bb3fafe4f148bf621fcf43a0]
link UC2011857007 to actor770921565--><path d="M177.219,165.5 C204.55,165.5 249.017,165.5 278.389,165.5 " fill="none" id="UC2011857007-actor770921565" style="stroke: #A80036; stroke-width: 1.0;"/><!--MD5=[57e96657cf8fa28d18479c5df7842096]
link UC2132762784 to actor181451598--><path d="M189.733,86.177 C214.083,78.008 245.939,67.32 270.454,59.096 " fill="none" id="UC2132762784-actor181451598" style="stroke: #A80036; stroke-width: 1.0;"/><!--MD5=[358f2fd4941ae708c11d80b210fcc07d]
@startuml
 left to right direction

actor Main as actor1430710100

	rectangle main{
	 usecase addDataList as UC2132762784
	actor1430710100- -UC2132762784
	 usecase main as UC2011857007
	actor1430710100- -UC2011857007
	 usecase println as UC1001114349
	actor1430710100- -UC1001114349
	}
	actor PrintStream as actor731802107
	UC1001114349 - - actor731802107
	actor ForMidEx as actor770921565
	UC2011857007 - - actor770921565
	actor Test_Visitor as actor181451598
	UC2132762784 - - actor181451598

@enduml

PlantUML version 1.2020.19(Tue Oct 13 00:10:01 KST 2020)
(APACHE source distribution)
Java Runtime: Java(TM) SE Runtime Environment
JVM: Java HotSpot(TM) 64-Bit Server VM
Default Encoding: MS949
Language: ko
Country: KR
--></g></svg>