<?xml version="1.0" encoding="UTF-8" standalone="no"?><svg xmlns="http://www.w3.org/2000/svg" xmlns:xlink="http://www.w3.org/1999/xlink" contentScriptType="application/ecmascript" contentStyleType="text/css" height="1025px" preserveAspectRatio="none" style="width:1158px;height:1025px;" version="1.1" viewBox="0 0 1158 1025" width="1158px" zoomAndPan="magnify"><defs><filter height="300%" id="fq3gtlxbnioel" width="300%" x="-1" y="-1"><feGaussianBlur result="blurOut" stdDeviation="2.0"/><feColorMatrix in="blurOut" result="blurOut2" type="matrix" values="0 0 0 0 0 0 0 0 0 0 0 0 0 0 0 0 0 0 .4 0"/><feOffset dx="4.0" dy="4.0" in="blurOut2" result="blurOut3"/><feBlend in="SourceGraphic" in2="blurOut3" mode="normal"/></filter></defs><g><!--MD5=[7c6608d7cf625e90131334e1ca091b1a]
cluster Functions--><polygon fill="#FFFFFF" filter="url(#fq3gtlxbnioel)" points="16,6,92,6,99,31.2295,761,31.2295,761,1018,16,1018,16,6" style="stroke: #000000; stroke-width: 1.5;"/><line style="stroke: #000000; stroke-width: 1.5;" x1="16" x2="99" y1="31.2295" y2="31.2295"/><text fill="#000000" font-family="sans-serif" font-size="14" font-weight="bold" lengthAdjust="spacingAndGlyphs" textLength="70" x="20" y="24.1533">Functions</text><!--MD5=[debea669ed0cf6a7c4d35ffeafdae673]
class f800088638--><rect codeLine="32" fill="#FEFECE" filter="url(#fq3gtlxbnioel)" height="422.1677" id="f800088638" style="stroke: #008000; stroke-width: 1.5;" width="313" x="32.5" y="51.5"/><ellipse cx="169.25" cy="67.5" fill="#ADD1B2" rx="11" ry="11" style="stroke: #008000; stroke-width: 1.0;"/><path d="M169.0781,60.9844 Q167.2031,60.9844 166.0469,62.7344 Q164.8594,64.5156 164.8594,67.5156 Q164.8594,70.8906 166.0625,72.6563 Q167.125,74.2813 168.875,74.2813 Q170.5625,74.2813 171.5156,73.375 Q172.5781,72.3594 172.7188,70.125 Q172.7188,69.7031 172.4844,69.4688 Q172.2969,69.2344 171.9531,69.2031 Q171.625,69.2031 171.3906,69.3906 Q171.125,69.625 171.125,70.0156 Q171.0938,71.4063 170.5,72.1406 Q169.9688,72.8438 169.0156,72.8438 Q167.8594,72.8438 167.1406,71.4063 Q166.4219,69.9063 166.4219,67.4844 Q166.4219,64.9375 167.3125,63.5469 Q168.0625,62.4219 169.2031,62.4219 Q169.8594,62.4219 170.3594,62.9688 Q170.9219,63.5781 171.0469,64.6406 Q171.0938,65.3438 171.9219,65.2344 Q172.7031,65.125 172.6563,64.4375 Q172.4688,62.9219 171.7031,62.0469 Q170.7656,60.9844 169.0781,60.9844 Z "/><text fill="#000000" font-family="sans-serif" font-size="12" lengthAdjust="spacingAndGlyphs" textLength="31" x="189.75" y="73.1045">Map()</text><line style="stroke: #008000; stroke-width: 1.5;" x1="33.5" x2="344.5" y1="83.5" y2="83.5"/><text fill="#000000" font-family="sans-serif" font-size="11" lengthAdjust="spacingAndGlyphs" textLength="60" x="38.5" y="100.1919">Static : false</text><text fill="#000000" font-family="sans-serif" font-size="11" lengthAdjust="spacingAndGlyphs" textLength="87" x="38.5" y="115.3008">return Type : new</text><text fill="#000000" font-family="sans-serif" font-size="11" lengthAdjust="spacingAndGlyphs" textLength="112" x="38.5" y="130.4097">hashCode : 800088638</text><text fill="#000000" font-family="sans-serif" font-size="11" lengthAdjust="spacingAndGlyphs" textLength="37" x="38.5" y="145.5186">ABS : 2</text><text fill="#000000" font-family="sans-serif" font-size="11" lengthAdjust="spacingAndGlyphs" textLength="35" x="38.5" y="160.6274">RES : 2</text><line style="stroke: #008000; stroke-width: 1.5;" x1="33.5" x2="169" y1="174.5989" y2="174.5989"/><text fill="#008000" font-family="sans-serif" font-size="11" font-weight="bold" lengthAdjust="spacingAndGlyphs" textLength="40" x="169" y="179.2363">has list</text><line style="stroke: #008000; stroke-width: 1.5;" x1="209" x2="344.5" y1="174.5989" y2="174.5989"/><line style="stroke: #008000; stroke-width: 1.0; stroke-dasharray: 1.0,2.0;" x1="33.5" x2="176" y1="197.2622" y2="197.2622"/><text fill="#000000" font-family="sans-serif" font-size="11" lengthAdjust="spacingAndGlyphs" textLength="26" x="176" y="201.8997">class</text><line style="stroke: #008000; stroke-width: 1.0; stroke-dasharray: 1.0,2.0;" x1="202" x2="344.5" y1="197.2622" y2="197.2622"/><line style="stroke: #008000; stroke-width: 1.0; stroke-dasharray: 1.0,2.0;" x1="33.5" x2="170" y1="219.9255" y2="219.9255"/><text fill="#000000" font-family="sans-serif" font-size="11" lengthAdjust="spacingAndGlyphs" textLength="38" x="170" y="224.563">member</text><line style="stroke: #008000; stroke-width: 1.0; stroke-dasharray: 1.0,2.0;" x1="208" x2="344.5" y1="219.9255" y2="219.9255"/><line style="stroke: #008000; stroke-width: 1.0; stroke-dasharray: 1.0,2.0;" x1="33.5" x2="171.5" y1="242.5889" y2="242.5889"/><text fill="#000000" font-family="sans-serif" font-size="11" lengthAdjust="spacingAndGlyphs" textLength="35" x="171.5" y="247.2263">method</text><line style="stroke: #008000; stroke-width: 1.0; stroke-dasharray: 1.0,2.0;" x1="206.5" x2="344.5" y1="242.5889" y2="242.5889"/><line style="stroke: #008000; stroke-width: 1.5;" x1="33.5" x2="161.5" y1="265.2522" y2="265.2522"/><text fill="#0000FF" font-family="sans-serif" font-size="11" font-weight="bold" lengthAdjust="spacingAndGlyphs" textLength="55" x="161.5" y="269.8896">calling list</text><line style="stroke: #008000; stroke-width: 1.5;" x1="216.5" x2="344.5" y1="265.2522" y2="265.2522"/><line style="stroke: #008000; stroke-width: 1.0; stroke-dasharray: 1.0,2.0;" x1="33.5" x2="176" y1="287.9155" y2="287.9155"/><text fill="#000000" font-family="sans-serif" font-size="11" lengthAdjust="spacingAndGlyphs" textLength="26" x="176" y="292.553">class</text><line style="stroke: #008000; stroke-width: 1.0; stroke-dasharray: 1.0,2.0;" x1="202" x2="344.5" y1="287.9155" y2="287.9155"/><text fill="#000000" font-family="sans-serif" font-size="11" lengthAdjust="spacingAndGlyphs" textLength="200" x="38.5" y="330.8252">gameSystem.Map.eventList (105579928);</text><line style="stroke: #008000; stroke-width: 1.0; stroke-dasharray: 1.0,2.0;" x1="33.5" x2="170" y1="310.5789" y2="310.5789"/><text fill="#000000" font-family="sans-serif" font-size="11" lengthAdjust="spacingAndGlyphs" textLength="38" x="170" y="315.2163">member</text><line style="stroke: #008000; stroke-width: 1.0; stroke-dasharray: 1.0,2.0;" x1="208" x2="344.5" y1="310.5789" y2="310.5789"/><line style="stroke: #008000; stroke-width: 1.0; stroke-dasharray: 1.0,2.0;" x1="33.5" x2="171.5" y1="344.7966" y2="344.7966"/><text fill="#000000" font-family="sans-serif" font-size="11" lengthAdjust="spacingAndGlyphs" textLength="35" x="171.5" y="349.4341">method</text><line style="stroke: #008000; stroke-width: 1.0; stroke-dasharray: 1.0,2.0;" x1="206.5" x2="344.5" y1="344.7966" y2="344.7966"/><line style="stroke: #008000; stroke-width: 1.5;" x1="33.5" x2="155" y1="367.46" y2="367.46"/><text fill="#FFA500" font-family="sans-serif" font-size="11" font-weight="bold" lengthAdjust="spacingAndGlyphs" textLength="68" x="155" y="372.0974">called by list</text><line style="stroke: #008000; stroke-width: 1.5;" x1="223" x2="344.5" y1="367.46" y2="367.46"/><text fill="#000000" font-family="sans-serif" font-size="11" lengthAdjust="spacingAndGlyphs" textLength="197" x="38.5" y="410.3696">gameSystem.GameSystem (629454893);</text><line style="stroke: #008000; stroke-width: 1.0; stroke-dasharray: 1.0,2.0;" x1="33.5" x2="176" y1="390.1233" y2="390.1233"/><text fill="#000000" font-family="sans-serif" font-size="11" lengthAdjust="spacingAndGlyphs" textLength="26" x="176" y="394.7607">class</text><line style="stroke: #008000; stroke-width: 1.0; stroke-dasharray: 1.0,2.0;" x1="202" x2="344.5" y1="390.1233" y2="390.1233"/><line style="stroke: #008000; stroke-width: 1.0; stroke-dasharray: 1.0,2.0;" x1="33.5" x2="170" y1="424.3411" y2="424.3411"/><text fill="#000000" font-family="sans-serif" font-size="11" lengthAdjust="spacingAndGlyphs" textLength="38" x="170" y="428.9785">member</text><line style="stroke: #008000; stroke-width: 1.0; stroke-dasharray: 1.0,2.0;" x1="208" x2="344.5" y1="424.3411" y2="424.3411"/><text fill="#000000" font-family="sans-serif" font-size="11" lengthAdjust="spacingAndGlyphs" textLength="301" x="38.5" y="467.2507">gameSystem.GameSystem.GameSystem(int[][]) (1148255190);</text><line style="stroke: #008000; stroke-width: 1.0; stroke-dasharray: 1.0,2.0;" x1="33.5" x2="171.5" y1="447.0044" y2="447.0044"/><text fill="#000000" font-family="sans-serif" font-size="11" lengthAdjust="spacingAndGlyphs" textLength="35" x="171.5" y="451.6418">method</text><line style="stroke: #008000; stroke-width: 1.0; stroke-dasharray: 1.0,2.0;" x1="206.5" x2="344.5" y1="447.0044" y2="447.0044"/><!--MD5=[026fab8da710957eeae8371693d4a8d6]
class f1680503330--><rect codeLine="55" fill="#FEFECE" filter="url(#fq3gtlxbnioel)" height="437.2766" id="f1680503330" style="stroke: #008000; stroke-width: 1.5;" width="364" x="381" y="44"/><ellipse cx="534.75" cy="60" fill="#ADD1B2" rx="11" ry="11" style="stroke: #008000; stroke-width: 1.0;"/><path d="M534.5781,53.4844 Q532.7031,53.4844 531.5469,55.2344 Q530.3594,57.0156 530.3594,60.0156 Q530.3594,63.3906 531.5625,65.1563 Q532.625,66.7813 534.375,66.7813 Q536.0625,66.7813 537.0156,65.875 Q538.0781,64.8594 538.2188,62.625 Q538.2188,62.2031 537.9844,61.9688 Q537.7969,61.7344 537.4531,61.7031 Q537.125,61.7031 536.8906,61.8906 Q536.625,62.125 536.625,62.5156 Q536.5938,63.9063 536,64.6406 Q535.4688,65.3438 534.5156,65.3438 Q533.3594,65.3438 532.6406,63.9063 Q531.9219,62.4063 531.9219,59.9844 Q531.9219,57.4375 532.8125,56.0469 Q533.5625,54.9219 534.7031,54.9219 Q535.3594,54.9219 535.8594,55.4688 Q536.4219,56.0781 536.5469,57.1406 Q536.5938,57.8438 537.4219,57.7344 Q538.2031,57.625 538.1563,56.9375 Q537.9688,55.4219 537.2031,54.5469 Q536.2656,53.4844 534.5781,53.4844 Z "/><text fill="#000000" font-family="sans-serif" font-size="12" lengthAdjust="spacingAndGlyphs" textLength="48" x="555.25" y="65.6045">getSize()</text><line style="stroke: #008000; stroke-width: 1.5;" x1="382" x2="744" y1="76" y2="76"/><text fill="#000000" font-family="sans-serif" font-size="11" lengthAdjust="spacingAndGlyphs" textLength="60" x="387" y="92.6919">Static : false</text><text fill="#000000" font-family="sans-serif" font-size="11" lengthAdjust="spacingAndGlyphs" textLength="76" x="387" y="107.8008">return Type : int</text><text fill="#000000" font-family="sans-serif" font-size="11" lengthAdjust="spacingAndGlyphs" textLength="118" x="387" y="122.9097">hashCode : 1680503330</text><text fill="#000000" font-family="sans-serif" font-size="11" lengthAdjust="spacingAndGlyphs" textLength="37" x="387" y="138.0186">ABS : 0</text><text fill="#000000" font-family="sans-serif" font-size="11" lengthAdjust="spacingAndGlyphs" textLength="35" x="387" y="153.1274">RES : 0</text><line style="stroke: #008000; stroke-width: 1.5;" x1="382" x2="543" y1="167.0989" y2="167.0989"/><text fill="#008000" font-family="sans-serif" font-size="11" font-weight="bold" lengthAdjust="spacingAndGlyphs" textLength="40" x="543" y="171.7363">has list</text><line style="stroke: #008000; stroke-width: 1.5;" x1="583" x2="744" y1="167.0989" y2="167.0989"/><line style="stroke: #008000; stroke-width: 1.0; stroke-dasharray: 1.0,2.0;" x1="382" x2="550" y1="189.7622" y2="189.7622"/><text fill="#000000" font-family="sans-serif" font-size="11" lengthAdjust="spacingAndGlyphs" textLength="26" x="550" y="194.3997">class</text><line style="stroke: #008000; stroke-width: 1.0; stroke-dasharray: 1.0,2.0;" x1="576" x2="744" y1="189.7622" y2="189.7622"/><line style="stroke: #008000; stroke-width: 1.0; stroke-dasharray: 1.0,2.0;" x1="382" x2="544" y1="212.4255" y2="212.4255"/><text fill="#000000" font-family="sans-serif" font-size="11" lengthAdjust="spacingAndGlyphs" textLength="38" x="544" y="217.063">member</text><line style="stroke: #008000; stroke-width: 1.0; stroke-dasharray: 1.0,2.0;" x1="582" x2="744" y1="212.4255" y2="212.4255"/><line style="stroke: #008000; stroke-width: 1.0; stroke-dasharray: 1.0,2.0;" x1="382" x2="545.5" y1="235.0889" y2="235.0889"/><text fill="#000000" font-family="sans-serif" font-size="11" lengthAdjust="spacingAndGlyphs" textLength="35" x="545.5" y="239.7263">method</text><line style="stroke: #008000; stroke-width: 1.0; stroke-dasharray: 1.0,2.0;" x1="580.5" x2="744" y1="235.0889" y2="235.0889"/><line style="stroke: #008000; stroke-width: 1.5;" x1="382" x2="535.5" y1="257.7522" y2="257.7522"/><text fill="#0000FF" font-family="sans-serif" font-size="11" font-weight="bold" lengthAdjust="spacingAndGlyphs" textLength="55" x="535.5" y="262.3896">calling list</text><line style="stroke: #008000; stroke-width: 1.5;" x1="590.5" x2="744" y1="257.7522" y2="257.7522"/><line style="stroke: #008000; stroke-width: 1.0; stroke-dasharray: 1.0,2.0;" x1="382" x2="550" y1="280.4155" y2="280.4155"/><text fill="#000000" font-family="sans-serif" font-size="11" lengthAdjust="spacingAndGlyphs" textLength="26" x="550" y="285.053">class</text><line style="stroke: #008000; stroke-width: 1.0; stroke-dasharray: 1.0,2.0;" x1="576" x2="744" y1="280.4155" y2="280.4155"/><line style="stroke: #008000; stroke-width: 1.0; stroke-dasharray: 1.0,2.0;" x1="382" x2="544" y1="303.0789" y2="303.0789"/><text fill="#000000" font-family="sans-serif" font-size="11" lengthAdjust="spacingAndGlyphs" textLength="38" x="544" y="307.7163">member</text><line style="stroke: #008000; stroke-width: 1.0; stroke-dasharray: 1.0,2.0;" x1="582" x2="744" y1="303.0789" y2="303.0789"/><line style="stroke: #008000; stroke-width: 1.0; stroke-dasharray: 1.0,2.0;" x1="382" x2="545.5" y1="325.7422" y2="325.7422"/><text fill="#000000" font-family="sans-serif" font-size="11" lengthAdjust="spacingAndGlyphs" textLength="35" x="545.5" y="330.3796">method</text><line style="stroke: #008000; stroke-width: 1.0; stroke-dasharray: 1.0,2.0;" x1="580.5" x2="744" y1="325.7422" y2="325.7422"/><line style="stroke: #008000; stroke-width: 1.5;" x1="382" x2="529" y1="348.4055" y2="348.4055"/><text fill="#FFA500" font-family="sans-serif" font-size="11" font-weight="bold" lengthAdjust="spacingAndGlyphs" textLength="68" x="529" y="353.043">called by list</text><line style="stroke: #008000; stroke-width: 1.5;" x1="597" x2="744" y1="348.4055" y2="348.4055"/><text fill="#000000" font-family="sans-serif" font-size="11" lengthAdjust="spacingAndGlyphs" textLength="197" x="387" y="391.3152">gameSystem.GameSystem (629454893);</text><line style="stroke: #008000; stroke-width: 1.0; stroke-dasharray: 1.0,2.0;" x1="382" x2="550" y1="371.0688" y2="371.0688"/><text fill="#000000" font-family="sans-serif" font-size="11" lengthAdjust="spacingAndGlyphs" textLength="26" x="550" y="375.7063">class</text><line style="stroke: #008000; stroke-width: 1.0; stroke-dasharray: 1.0,2.0;" x1="576" x2="744" y1="371.0688" y2="371.0688"/><text fill="#000000" font-family="sans-serif" font-size="11" lengthAdjust="spacingAndGlyphs" textLength="220" x="387" y="425.533">gameSystem.GameSystem.map (504807594);</text><line style="stroke: #008000; stroke-width: 1.0; stroke-dasharray: 1.0,2.0;" x1="382" x2="544" y1="405.2866" y2="405.2866"/><text fill="#000000" font-family="sans-serif" font-size="11" lengthAdjust="spacingAndGlyphs" textLength="38" x="544" y="409.9241">member</text><line style="stroke: #008000; stroke-width: 1.0; stroke-dasharray: 1.0,2.0;" x1="582" x2="744" y1="405.2866" y2="405.2866"/><text fill="#000000" font-family="sans-serif" font-size="11" lengthAdjust="spacingAndGlyphs" textLength="348" x="387" y="459.7507">gameSystem.GameSystem.printPos(gameSystem.Player) (2017797638);</text><text fill="#000000" font-family="sans-serif" font-size="11" lengthAdjust="spacingAndGlyphs" textLength="352" x="387" y="474.8596">gameSystem.GameSystem.move(int, gameSystem.Player) (1834361038);</text><line style="stroke: #008000; stroke-width: 1.0; stroke-dasharray: 1.0,2.0;" x1="382" x2="545.5" y1="439.5044" y2="439.5044"/><text fill="#000000" font-family="sans-serif" font-size="11" lengthAdjust="spacingAndGlyphs" textLength="35" x="545.5" y="444.1418">method</text><line style="stroke: #008000; stroke-width: 1.0; stroke-dasharray: 1.0,2.0;" x1="580.5" x2="744" y1="439.5044" y2="439.5044"/><!--MD5=[9e0abbe6bedb332b53a1caa6623c6ece]
class f343812839--><rect codeLine="79" fill="#FEFECE" filter="url(#fq3gtlxbnioel)" height="433.7222" id="f343812839" style="stroke: #008000; stroke-width: 1.5;" width="364" x="32" y="568"/><ellipse cx="175.75" cy="584" fill="#ADD1B2" rx="11" ry="11" style="stroke: #008000; stroke-width: 1.0;"/><path d="M175.5781,577.4844 Q173.7031,577.4844 172.5469,579.2344 Q171.3594,581.0156 171.3594,584.0156 Q171.3594,587.3906 172.5625,589.1563 Q173.625,590.7813 175.375,590.7813 Q177.0625,590.7813 178.0156,589.875 Q179.0781,588.8594 179.2188,586.625 Q179.2188,586.2031 178.9844,585.9688 Q178.7969,585.7344 178.4531,585.7031 Q178.125,585.7031 177.8906,585.8906 Q177.625,586.125 177.625,586.5156 Q177.5938,587.9063 177,588.6406 Q176.4688,589.3438 175.5156,589.3438 Q174.3594,589.3438 173.6406,587.9063 Q172.9219,586.4063 172.9219,583.9844 Q172.9219,581.4375 173.8125,580.0469 Q174.5625,578.9219 175.7031,578.9219 Q176.3594,578.9219 176.8594,579.4688 Q177.4219,580.0781 177.5469,581.1406 Q177.5938,581.8438 178.4219,581.7344 Q179.2031,581.625 179.1563,580.9375 Q178.9688,579.4219 178.2031,578.5469 Q177.2656,577.4844 175.5781,577.4844 Z "/><text fill="#000000" font-family="sans-serif" font-size="12" lengthAdjust="spacingAndGlyphs" textLength="68" x="196.25" y="589.6045">getEvent(int)</text><line style="stroke: #008000; stroke-width: 1.5;" x1="33" x2="395" y1="600" y2="600"/><text fill="#000000" font-family="sans-serif" font-size="11" lengthAdjust="spacingAndGlyphs" textLength="60" x="38" y="616.6919">Static : false</text><text fill="#000000" font-family="sans-serif" font-size="11" lengthAdjust="spacingAndGlyphs" textLength="76" x="38" y="631.8008">return Type : int</text><text fill="#000000" font-family="sans-serif" font-size="11" lengthAdjust="spacingAndGlyphs" textLength="112" x="38" y="646.9097">hashCode : 343812839</text><text fill="#000000" font-family="sans-serif" font-size="11" lengthAdjust="spacingAndGlyphs" textLength="37" x="38" y="662.0186">ABS : 1</text><text fill="#000000" font-family="sans-serif" font-size="11" lengthAdjust="spacingAndGlyphs" textLength="35" x="38" y="677.1274">RES : 1</text><line style="stroke: #008000; stroke-width: 1.5;" x1="33" x2="194" y1="691.0989" y2="691.0989"/><text fill="#008000" font-family="sans-serif" font-size="11" font-weight="bold" lengthAdjust="spacingAndGlyphs" textLength="40" x="194" y="695.7363">has list</text><line style="stroke: #008000; stroke-width: 1.5;" x1="234" x2="395" y1="691.0989" y2="691.0989"/><line style="stroke: #008000; stroke-width: 1.0; stroke-dasharray: 1.0,2.0;" x1="33" x2="201" y1="713.7622" y2="713.7622"/><text fill="#000000" font-family="sans-serif" font-size="11" lengthAdjust="spacingAndGlyphs" textLength="26" x="201" y="718.3997">class</text><line style="stroke: #008000; stroke-width: 1.0; stroke-dasharray: 1.0,2.0;" x1="227" x2="395" y1="713.7622" y2="713.7622"/><text fill="#000000" font-family="sans-serif" font-size="11" lengthAdjust="spacingAndGlyphs" textLength="246" x="38" y="756.6719">gameSystem.Map.getEvent(int).index (418958713);</text><line style="stroke: #008000; stroke-width: 1.0; stroke-dasharray: 1.0,2.0;" x1="33" x2="195" y1="736.4255" y2="736.4255"/><text fill="#000000" font-family="sans-serif" font-size="11" lengthAdjust="spacingAndGlyphs" textLength="38" x="195" y="741.063">member</text><line style="stroke: #008000; stroke-width: 1.0; stroke-dasharray: 1.0,2.0;" x1="233" x2="395" y1="736.4255" y2="736.4255"/><line style="stroke: #008000; stroke-width: 1.0; stroke-dasharray: 1.0,2.0;" x1="33" x2="196.5" y1="770.6433" y2="770.6433"/><text fill="#000000" font-family="sans-serif" font-size="11" lengthAdjust="spacingAndGlyphs" textLength="35" x="196.5" y="775.2808">method</text><line style="stroke: #008000; stroke-width: 1.0; stroke-dasharray: 1.0,2.0;" x1="231.5" x2="395" y1="770.6433" y2="770.6433"/><line style="stroke: #008000; stroke-width: 1.5;" x1="33" x2="186.5" y1="793.3066" y2="793.3066"/><text fill="#0000FF" font-family="sans-serif" font-size="11" font-weight="bold" lengthAdjust="spacingAndGlyphs" textLength="55" x="186.5" y="797.9441">calling list</text><line style="stroke: #008000; stroke-width: 1.5;" x1="241.5" x2="395" y1="793.3066" y2="793.3066"/><line style="stroke: #008000; stroke-width: 1.0; stroke-dasharray: 1.0,2.0;" x1="33" x2="201" y1="815.97" y2="815.97"/><text fill="#000000" font-family="sans-serif" font-size="11" lengthAdjust="spacingAndGlyphs" textLength="26" x="201" y="820.6074">class</text><line style="stroke: #008000; stroke-width: 1.0; stroke-dasharray: 1.0,2.0;" x1="227" x2="395" y1="815.97" y2="815.97"/><line style="stroke: #008000; stroke-width: 1.0; stroke-dasharray: 1.0,2.0;" x1="33" x2="195" y1="838.6333" y2="838.6333"/><text fill="#000000" font-family="sans-serif" font-size="11" lengthAdjust="spacingAndGlyphs" textLength="38" x="195" y="843.2708">member</text><line style="stroke: #008000; stroke-width: 1.0; stroke-dasharray: 1.0,2.0;" x1="233" x2="395" y1="838.6333" y2="838.6333"/><line style="stroke: #008000; stroke-width: 1.0; stroke-dasharray: 1.0,2.0;" x1="33" x2="196.5" y1="861.2966" y2="861.2966"/><text fill="#000000" font-family="sans-serif" font-size="11" lengthAdjust="spacingAndGlyphs" textLength="35" x="196.5" y="865.9341">method</text><line style="stroke: #008000; stroke-width: 1.0; stroke-dasharray: 1.0,2.0;" x1="231.5" x2="395" y1="861.2966" y2="861.2966"/><line style="stroke: #008000; stroke-width: 1.5;" x1="33" x2="180" y1="883.96" y2="883.96"/><text fill="#FFA500" font-family="sans-serif" font-size="11" font-weight="bold" lengthAdjust="spacingAndGlyphs" textLength="68" x="180" y="888.5974">called by list</text><line style="stroke: #008000; stroke-width: 1.5;" x1="248" x2="395" y1="883.96" y2="883.96"/><text fill="#000000" font-family="sans-serif" font-size="11" lengthAdjust="spacingAndGlyphs" textLength="197" x="38" y="926.8696">gameSystem.GameSystem (629454893);</text><line style="stroke: #008000; stroke-width: 1.0; stroke-dasharray: 1.0,2.0;" x1="33" x2="201" y1="906.6233" y2="906.6233"/><text fill="#000000" font-family="sans-serif" font-size="11" lengthAdjust="spacingAndGlyphs" textLength="26" x="201" y="911.2607">class</text><line style="stroke: #008000; stroke-width: 1.0; stroke-dasharray: 1.0,2.0;" x1="227" x2="395" y1="906.6233" y2="906.6233"/><text fill="#000000" font-family="sans-serif" font-size="11" lengthAdjust="spacingAndGlyphs" textLength="220" x="38" y="961.0874">gameSystem.GameSystem.map (504807594);</text><line style="stroke: #008000; stroke-width: 1.0; stroke-dasharray: 1.0,2.0;" x1="33" x2="195" y1="940.8411" y2="940.8411"/><text fill="#000000" font-family="sans-serif" font-size="11" lengthAdjust="spacingAndGlyphs" textLength="38" x="195" y="945.4785">member</text><line style="stroke: #008000; stroke-width: 1.0; stroke-dasharray: 1.0,2.0;" x1="233" x2="395" y1="940.8411" y2="940.8411"/><text fill="#000000" font-family="sans-serif" font-size="11" lengthAdjust="spacingAndGlyphs" textLength="352" x="38" y="995.3052">gameSystem.GameSystem.move(int, gameSystem.Player) (1834361038);</text><line style="stroke: #008000; stroke-width: 1.0; stroke-dasharray: 1.0,2.0;" x1="33" x2="196.5" y1="975.0588" y2="975.0588"/><text fill="#000000" font-family="sans-serif" font-size="11" lengthAdjust="spacingAndGlyphs" textLength="35" x="196.5" y="979.6963">method</text><line style="stroke: #008000; stroke-width: 1.0; stroke-dasharray: 1.0,2.0;" x1="231.5" x2="395" y1="975.0588" y2="975.0588"/><!--MD5=[f6064968006b102cb1b3092be2f53bd9]
class cl1--><rect codeLine="1" fill="#FEFECE" filter="url(#fq3gtlxbnioel)" height="491.0488" id="cl1" style="stroke: #A80036; stroke-width: 1.5;" width="364" x="780" y="17"/><ellipse cx="946.25" cy="33" fill="#ADD1B2" rx="11" ry="11" style="stroke: #A80036; stroke-width: 1.0;"/><path d="M946.0781,26.4844 Q944.2031,26.4844 943.0469,28.2344 Q941.8594,30.0156 941.8594,33.0156 Q941.8594,36.3906 943.0625,38.1563 Q944.125,39.7813 945.875,39.7813 Q947.5625,39.7813 948.5156,38.875 Q949.5781,37.8594 949.7188,35.625 Q949.7188,35.2031 949.4844,34.9688 Q949.2969,34.7344 948.9531,34.7031 Q948.625,34.7031 948.3906,34.8906 Q948.125,35.125 948.125,35.5156 Q948.0938,36.9063 947.5,37.6406 Q946.9688,38.3438 946.0156,38.3438 Q944.8594,38.3438 944.1406,36.9063 Q943.4219,35.4063 943.4219,32.9844 Q943.4219,30.4375 944.3125,29.0469 Q945.0625,27.9219 946.2031,27.9219 Q946.8594,27.9219 947.3594,28.4688 Q947.9219,29.0781 948.0469,30.1406 Q948.0938,30.8438 948.9219,30.7344 Q949.7031,30.625 949.6563,29.9375 Q949.4688,28.4219 948.7031,27.5469 Q947.7656,26.4844 946.0781,26.4844 Z "/><text fill="#000000" font-family="sans-serif" font-size="12" lengthAdjust="spacingAndGlyphs" textLength="23" x="966.75" y="38.6045">Map</text><line style="stroke: #A80036; stroke-width: 1.5;" x1="781" x2="1143" y1="49" y2="49"/><text fill="#000000" font-family="sans-serif" font-size="11" lengthAdjust="spacingAndGlyphs" textLength="106" x="786" y="65.6919">Package gameSystem</text><text fill="#000000" font-family="sans-serif" font-size="11" lengthAdjust="spacingAndGlyphs" textLength="41" x="786" y="80.8008">Lib false</text><text fill="#000000" font-family="sans-serif" font-size="11" lengthAdjust="spacingAndGlyphs" textLength="119" x="786" y="95.9097">HashCode : 1880078449</text><text fill="#000000" font-family="sans-serif" font-size="11" lengthAdjust="spacingAndGlyphs" textLength="37" x="786" y="111.0186">ABS : 6</text><text fill="#000000" font-family="sans-serif" font-size="11" lengthAdjust="spacingAndGlyphs" textLength="35" x="786" y="126.1274">RES : 1</text><text fill="#008000" font-family="sans-serif" font-size="11" lengthAdjust="spacingAndGlyphs" textLength="81" x="786" y="160.3452">int[] eventList (2)</text><line style="stroke: #A80036; stroke-width: 1.5;" x1="781" x2="942" y1="140.0989" y2="140.0989"/><text fill="#008000" font-family="sans-serif" font-size="11" font-weight="bold" lengthAdjust="spacingAndGlyphs" textLength="40" x="942" y="144.7363">has list</text><line style="stroke: #A80036; stroke-width: 1.5;" x1="982" x2="1143" y1="140.0989" y2="140.0989"/><line style="stroke: #A80036; stroke-width: 1.0; stroke-dasharray: 1.0,2.0;" x1="781" x2="1143" y1="166.7622" y2="166.7622"/><text fill="#008000" font-family="sans-serif" font-size="11" lengthAdjust="spacingAndGlyphs" textLength="70" x="786" y="183.4541">new Map() (2)</text><text fill="#008000" font-family="sans-serif" font-size="11" lengthAdjust="spacingAndGlyphs" textLength="75" x="786" y="198.563">int getSize() (0)</text><text fill="#008000" font-family="sans-serif" font-size="11" lengthAdjust="spacingAndGlyphs" textLength="92" x="786" y="213.6719">int getEvent(int) (1)</text><line style="stroke: #A80036; stroke-width: 1.5;" x1="781" x2="934.5" y1="227.6433" y2="227.6433"/><text fill="#0000FF" font-family="sans-serif" font-size="11" font-weight="bold" lengthAdjust="spacingAndGlyphs" textLength="55" x="934.5" y="232.2808">calling list</text><line style="stroke: #A80036; stroke-width: 1.5;" x1="989.5" x2="1143" y1="227.6433" y2="227.6433"/><line style="stroke: #A80036; stroke-width: 1.0; stroke-dasharray: 1.0,2.0;" x1="781" x2="949" y1="250.3066" y2="250.3066"/><text fill="#000000" font-family="sans-serif" font-size="11" lengthAdjust="spacingAndGlyphs" textLength="26" x="949" y="254.9441">class</text><line style="stroke: #A80036; stroke-width: 1.0; stroke-dasharray: 1.0,2.0;" x1="975" x2="1143" y1="250.3066" y2="250.3066"/><text fill="#000000" font-family="sans-serif" font-size="11" lengthAdjust="spacingAndGlyphs" textLength="200" x="786" y="293.2163">gameSystem.Map.eventList (105579928);</text><line style="stroke: #A80036; stroke-width: 1.0; stroke-dasharray: 1.0,2.0;" x1="781" x2="943" y1="272.97" y2="272.97"/><text fill="#000000" font-family="sans-serif" font-size="11" lengthAdjust="spacingAndGlyphs" textLength="38" x="943" y="277.6074">member</text><line style="stroke: #A80036; stroke-width: 1.0; stroke-dasharray: 1.0,2.0;" x1="981" x2="1143" y1="272.97" y2="272.97"/><line style="stroke: #A80036; stroke-width: 1.0; stroke-dasharray: 1.0,2.0;" x1="781" x2="944.5" y1="307.1877" y2="307.1877"/><text fill="#000000" font-family="sans-serif" font-size="11" lengthAdjust="spacingAndGlyphs" textLength="35" x="944.5" y="311.8252">method</text><line style="stroke: #A80036; stroke-width: 1.0; stroke-dasharray: 1.0,2.0;" x1="979.5" x2="1143" y1="307.1877" y2="307.1877"/><line style="stroke: #A80036; stroke-width: 1.5;" x1="781" x2="928" y1="329.8511" y2="329.8511"/><text fill="#FFA500" font-family="sans-serif" font-size="11" font-weight="bold" lengthAdjust="spacingAndGlyphs" textLength="68" x="928" y="334.4885">called by list</text><line style="stroke: #A80036; stroke-width: 1.5;" x1="996" x2="1143" y1="329.8511" y2="329.8511"/><text fill="#000000" font-family="sans-serif" font-size="11" lengthAdjust="spacingAndGlyphs" textLength="197" x="786" y="372.7607">gameSystem.GameSystem (629454893);</text><text fill="#000000" font-family="sans-serif" font-size="11" lengthAdjust="spacingAndGlyphs" textLength="159" x="786" y="387.8696">gameSystem.Map (1880078449);</text><line style="stroke: #A80036; stroke-width: 1.0; stroke-dasharray: 1.0,2.0;" x1="781" x2="949" y1="352.5144" y2="352.5144"/><text fill="#000000" font-family="sans-serif" font-size="11" lengthAdjust="spacingAndGlyphs" textLength="26" x="949" y="357.1519">class</text><line style="stroke: #A80036; stroke-width: 1.0; stroke-dasharray: 1.0,2.0;" x1="975" x2="1143" y1="352.5144" y2="352.5144"/><text fill="#000000" font-family="sans-serif" font-size="11" lengthAdjust="spacingAndGlyphs" textLength="220" x="786" y="422.0874">gameSystem.GameSystem.map (504807594);</text><line style="stroke: #A80036; stroke-width: 1.0; stroke-dasharray: 1.0,2.0;" x1="781" x2="943" y1="401.8411" y2="401.8411"/><text fill="#000000" font-family="sans-serif" font-size="11" lengthAdjust="spacingAndGlyphs" textLength="38" x="943" y="406.4785">member</text><line style="stroke: #A80036; stroke-width: 1.0; stroke-dasharray: 1.0,2.0;" x1="981" x2="1143" y1="401.8411" y2="401.8411"/><text fill="#000000" font-family="sans-serif" font-size="11" lengthAdjust="spacingAndGlyphs" textLength="301" x="786" y="456.3052">gameSystem.GameSystem.GameSystem(int[][]) (1148255190);</text><text fill="#000000" font-family="sans-serif" font-size="11" lengthAdjust="spacingAndGlyphs" textLength="348" x="786" y="471.4141">gameSystem.GameSystem.printPos(gameSystem.Player) (2017797638);</text><text fill="#000000" font-family="sans-serif" font-size="11" lengthAdjust="spacingAndGlyphs" textLength="352" x="786" y="486.5229">gameSystem.GameSystem.move(int, gameSystem.Player) (1834361038);</text><text fill="#000000" font-family="sans-serif" font-size="11" lengthAdjust="spacingAndGlyphs" textLength="184" x="786" y="501.6318">gameSystem.Map.Map() (800088638);</text><line style="stroke: #A80036; stroke-width: 1.0; stroke-dasharray: 1.0,2.0;" x1="781" x2="944.5" y1="436.0588" y2="436.0588"/><text fill="#000000" font-family="sans-serif" font-size="11" lengthAdjust="spacingAndGlyphs" textLength="35" x="944.5" y="440.6963">method</text><line style="stroke: #A80036; stroke-width: 1.0; stroke-dasharray: 1.0,2.0;" x1="979.5" x2="1143" y1="436.0588" y2="436.0588"/><!--MD5=[6f1ed821f27ef37143f478d80a2a2b9e]
link f800088638 to f1680503330--><!--MD5=[3719bed2e60e704f37052715c6d19586]
link f800088638 to f343812839--><!--MD5=[0ab691a5fa5d02fb6cb3426f2d4683cd]
@startuml
class "Map" as cl1{
Package gameSystem
Lib false
HashCode : 1880078449
ABS : 6
RES : 1
__**<color:green>has list</color>**__
	<color:green>int[] eventList (2)
....
	<color:green>new Map() (2)
	<color:green>int getSize() (0)
	<color:green>int getEvent(int) (1)
__**<color:blue>calling list</color>**__
..class..
..member..
	gameSystem.Map.eventList (105579928);
..method..
__**<color:orange>called by list</color>**__
..class..
	gameSystem.GameSystem (629454893);
	gameSystem.Map (1880078449);
..member..
	gameSystem.GameSystem.map (504807594);
..method..
	 gameSystem.GameSystem.GameSystem(int[][]) (1148255190);
	 gameSystem.GameSystem.printPos(gameSystem.Player) (2017797638);
	 gameSystem.GameSystem.move(int, gameSystem.Player) (1834361038);
	 gameSystem.Map.Map() (800088638);
}

 package Functions{
class "Map()" as f800088638  #line:green
{
Static : false
return Type : new
hashCode : 800088638
ABS : 2
RES : 2
__**<color:green>has list</color>**__
..class..
..member..
..method..
__**<color:blue>calling list</color>**__
..class..
..member..
	gameSystem.Map.eventList (105579928);
..method..
__**<color:orange>called by list</color>**__
..class..
	gameSystem.GameSystem (629454893);
..member..
..method..
	 gameSystem.GameSystem.GameSystem(int[][]) (1148255190);
}
class "getSize()" as f1680503330  #line:green
{
Static : false
return Type : int
hashCode : 1680503330
ABS : 0
RES : 0
__**<color:green>has list</color>**__
..class..
..member..
..method..
__**<color:blue>calling list</color>**__
..class..
..member..
..method..
__**<color:orange>called by list</color>**__
..class..
	gameSystem.GameSystem (629454893);
..member..
	gameSystem.GameSystem.map (504807594);
..method..
	 gameSystem.GameSystem.printPos(gameSystem.Player) (2017797638);
	 gameSystem.GameSystem.move(int, gameSystem.Player) (1834361038);
}
class "getEvent(int)" as f343812839  #line:green
{
Static : false
return Type : int
hashCode : 343812839
ABS : 1
RES : 1
__**<color:green>has list</color>**__
..class..
..member..
	gameSystem.Map.getEvent(int).index (418958713);
..method..
__**<color:blue>calling list</color>**__
..class..
..member..
..method..
__**<color:orange>called by list</color>**__
..class..
	gameSystem.GameSystem (629454893);
..member..
	gameSystem.GameSystem.map (504807594);
..method..
	 gameSystem.GameSystem.move(int, gameSystem.Player) (1834361038);
}
}

@enduml

PlantUML version 1.2020.19(Tue Oct 13 00:10:01 KST 2020)
(APACHE source distribution)
Java Runtime: OpenJDK Runtime Environment
JVM: OpenJDK 64-Bit Server VM
Default Encoding: MS949
Language: ko
Country: KR
--></g></svg>