<?xml version="1.0" encoding="UTF-8" standalone="no"?><svg xmlns="http://www.w3.org/2000/svg" xmlns:xlink="http://www.w3.org/1999/xlink" contentScriptType="application/ecmascript" contentStyleType="text/css" height="564px" preserveAspectRatio="none" style="width:1134px;height:564px;" version="1.1" viewBox="0 0 1134 564" width="1134px" zoomAndPan="magnify"><defs><filter height="300%" id="f1ngi58zuhankb" width="300%" x="-1" y="-1"><feGaussianBlur result="blurOut" stdDeviation="2.0"/><feColorMatrix in="blurOut" result="blurOut2" type="matrix" values="0 0 0 0 0 0 0 0 0 0 0 0 0 0 0 0 0 0 .4 0"/><feOffset dx="4.0" dy="4.0" in="blurOut2" result="blurOut3"/><feBlend in="SourceGraphic" in2="blurOut3" mode="normal"/></filter></defs><g><!--MD5=[7c6608d7cf625e90131334e1ca091b1a]
cluster Functions--><polygon fill="#FFFFFF" filter="url(#f1ngi58zuhankb)" points="398,6,474,6,481,31.2295,1117,31.2295,1117,543,398,543,398,6" style="stroke: #000000; stroke-width: 1.5;"/><line style="stroke: #000000; stroke-width: 1.5;" x1="398" x2="481" y1="31.2295" y2="31.2295"/><text fill="#000000" font-family="sans-serif" font-size="14" font-weight="bold" lengthAdjust="spacingAndGlyphs" textLength="70" x="402" y="24.1533">Functions</text><!--MD5=[1e5ef07f60e615e51af93326dcfbe3d8]
class f2101249621--><rect codeLine="35" fill="#FEFECE" filter="url(#f1ngi58zuhankb)" height="433.7222" id="f2101249621" style="stroke: #008000; stroke-width: 1.5;" width="279" x="821.5" y="68.5"/><ellipse cx="930.75" cy="84.5" fill="#ADD1B2" rx="11" ry="11" style="stroke: #008000; stroke-width: 1.0;"/><path d="M930.5781,77.9844 Q928.7031,77.9844 927.5469,79.7344 Q926.3594,81.5156 926.3594,84.5156 Q926.3594,87.8906 927.5625,89.6563 Q928.625,91.2813 930.375,91.2813 Q932.0625,91.2813 933.0156,90.375 Q934.0781,89.3594 934.2188,87.125 Q934.2188,86.7031 933.9844,86.4688 Q933.7969,86.2344 933.4531,86.2031 Q933.125,86.2031 932.8906,86.3906 Q932.625,86.625 932.625,87.0156 Q932.5938,88.4063 932,89.1406 Q931.4688,89.8438 930.5156,89.8438 Q929.3594,89.8438 928.6406,88.4063 Q927.9219,86.9063 927.9219,84.4844 Q927.9219,81.9375 928.8125,80.5469 Q929.5625,79.4219 930.7031,79.4219 Q931.3594,79.4219 931.8594,79.9688 Q932.4219,80.5781 932.5469,81.6406 Q932.5938,82.3438 933.4219,82.2344 Q934.2031,82.125 934.1563,81.4375 Q933.9688,79.9219 933.2031,79.0469 Q932.2656,77.9844 930.5781,77.9844 Z "/><text fill="#000000" font-family="sans-serif" font-size="12" lengthAdjust="spacingAndGlyphs" textLength="52" x="951.25" y="90.1045">Dice(int[])</text><line style="stroke: #008000; stroke-width: 1.5;" x1="822.5" x2="1099.5" y1="100.5" y2="100.5"/><text fill="#000000" font-family="sans-serif" font-size="11" lengthAdjust="spacingAndGlyphs" textLength="60" x="827.5" y="117.1919">Static : false</text><text fill="#000000" font-family="sans-serif" font-size="11" lengthAdjust="spacingAndGlyphs" textLength="87" x="827.5" y="132.3008">return Type : new</text><text fill="#000000" font-family="sans-serif" font-size="11" lengthAdjust="spacingAndGlyphs" textLength="118" x="827.5" y="147.4097">hashCode : 2101249621</text><text fill="#000000" font-family="sans-serif" font-size="11" lengthAdjust="spacingAndGlyphs" textLength="37" x="827.5" y="162.5186">ABS : 4</text><text fill="#000000" font-family="sans-serif" font-size="11" lengthAdjust="spacingAndGlyphs" textLength="35" x="827.5" y="177.6274">RES : 4</text><line style="stroke: #008000; stroke-width: 1.5;" x1="822.5" x2="941" y1="191.5989" y2="191.5989"/><text fill="#008000" font-family="sans-serif" font-size="11" font-weight="bold" lengthAdjust="spacingAndGlyphs" textLength="40" x="941" y="196.2363">has list</text><line style="stroke: #008000; stroke-width: 1.5;" x1="981" x2="1099.5" y1="191.5989" y2="191.5989"/><line style="stroke: #008000; stroke-width: 1.0; stroke-dasharray: 1.0,2.0;" x1="822.5" x2="948" y1="214.2622" y2="214.2622"/><text fill="#000000" font-family="sans-serif" font-size="11" lengthAdjust="spacingAndGlyphs" textLength="26" x="948" y="218.8997">class</text><line style="stroke: #008000; stroke-width: 1.0; stroke-dasharray: 1.0,2.0;" x1="974" x2="1099.5" y1="214.2622" y2="214.2622"/><text fill="#000000" font-family="sans-serif" font-size="11" lengthAdjust="spacingAndGlyphs" textLength="219" x="827.5" y="257.1719">gameSystem.Dice.Dice(int[]).list (379303133);</text><line style="stroke: #008000; stroke-width: 1.0; stroke-dasharray: 1.0,2.0;" x1="822.5" x2="942" y1="236.9255" y2="236.9255"/><text fill="#000000" font-family="sans-serif" font-size="11" lengthAdjust="spacingAndGlyphs" textLength="38" x="942" y="241.563">member</text><line style="stroke: #008000; stroke-width: 1.0; stroke-dasharray: 1.0,2.0;" x1="980" x2="1099.5" y1="236.9255" y2="236.9255"/><line style="stroke: #008000; stroke-width: 1.0; stroke-dasharray: 1.0,2.0;" x1="822.5" x2="943.5" y1="271.1433" y2="271.1433"/><text fill="#000000" font-family="sans-serif" font-size="11" lengthAdjust="spacingAndGlyphs" textLength="35" x="943.5" y="275.7808">method</text><line style="stroke: #008000; stroke-width: 1.0; stroke-dasharray: 1.0,2.0;" x1="978.5" x2="1099.5" y1="271.1433" y2="271.1433"/><line style="stroke: #008000; stroke-width: 1.5;" x1="822.5" x2="933.5" y1="293.8066" y2="293.8066"/><text fill="#0000FF" font-family="sans-serif" font-size="11" font-weight="bold" lengthAdjust="spacingAndGlyphs" textLength="55" x="933.5" y="298.4441">calling list</text><line style="stroke: #008000; stroke-width: 1.5;" x1="988.5" x2="1099.5" y1="293.8066" y2="293.8066"/><line style="stroke: #008000; stroke-width: 1.0; stroke-dasharray: 1.0,2.0;" x1="822.5" x2="948" y1="316.47" y2="316.47"/><text fill="#000000" font-family="sans-serif" font-size="11" lengthAdjust="spacingAndGlyphs" textLength="26" x="948" y="321.1074">class</text><line style="stroke: #008000; stroke-width: 1.0; stroke-dasharray: 1.0,2.0;" x1="974" x2="1099.5" y1="316.47" y2="316.47"/><text fill="#000000" font-family="sans-serif" font-size="11" lengthAdjust="spacingAndGlyphs" textLength="210" x="827.5" y="359.3796">gameSystem.Dice.shapeList (1304589447);</text><line style="stroke: #008000; stroke-width: 1.0; stroke-dasharray: 1.0,2.0;" x1="822.5" x2="942" y1="339.1333" y2="339.1333"/><text fill="#000000" font-family="sans-serif" font-size="11" lengthAdjust="spacingAndGlyphs" textLength="38" x="942" y="343.7708">member</text><line style="stroke: #008000; stroke-width: 1.0; stroke-dasharray: 1.0,2.0;" x1="980" x2="1099.5" y1="339.1333" y2="339.1333"/><line style="stroke: #008000; stroke-width: 1.0; stroke-dasharray: 1.0,2.0;" x1="822.5" x2="943.5" y1="373.3511" y2="373.3511"/><text fill="#000000" font-family="sans-serif" font-size="11" lengthAdjust="spacingAndGlyphs" textLength="35" x="943.5" y="377.9885">method</text><line style="stroke: #008000; stroke-width: 1.0; stroke-dasharray: 1.0,2.0;" x1="978.5" x2="1099.5" y1="373.3511" y2="373.3511"/><line style="stroke: #008000; stroke-width: 1.5;" x1="822.5" x2="927" y1="396.0144" y2="396.0144"/><text fill="#FFA500" font-family="sans-serif" font-size="11" font-weight="bold" lengthAdjust="spacingAndGlyphs" textLength="68" x="927" y="400.6519">called by list</text><line style="stroke: #008000; stroke-width: 1.5;" x1="995" x2="1099.5" y1="396.0144" y2="396.0144"/><text fill="#000000" font-family="sans-serif" font-size="11" lengthAdjust="spacingAndGlyphs" textLength="197" x="827.5" y="438.9241">gameSystem.GameSystem (629454893);</text><line style="stroke: #008000; stroke-width: 1.0; stroke-dasharray: 1.0,2.0;" x1="822.5" x2="948" y1="418.6777" y2="418.6777"/><text fill="#000000" font-family="sans-serif" font-size="11" lengthAdjust="spacingAndGlyphs" textLength="26" x="948" y="423.3152">class</text><line style="stroke: #008000; stroke-width: 1.0; stroke-dasharray: 1.0,2.0;" x1="974" x2="1099.5" y1="418.6777" y2="418.6777"/><line style="stroke: #008000; stroke-width: 1.0; stroke-dasharray: 1.0,2.0;" x1="822.5" x2="942" y1="452.8955" y2="452.8955"/><text fill="#000000" font-family="sans-serif" font-size="11" lengthAdjust="spacingAndGlyphs" textLength="38" x="942" y="457.533">member</text><line style="stroke: #008000; stroke-width: 1.0; stroke-dasharray: 1.0,2.0;" x1="980" x2="1099.5" y1="452.8955" y2="452.8955"/><text fill="#000000" font-family="sans-serif" font-size="11" lengthAdjust="spacingAndGlyphs" textLength="267" x="827.5" y="495.8052">gameSystem.GameSystem.diceSetting() (1651162064);</text><line style="stroke: #008000; stroke-width: 1.0; stroke-dasharray: 1.0,2.0;" x1="822.5" x2="943.5" y1="475.5588" y2="475.5588"/><text fill="#000000" font-family="sans-serif" font-size="11" lengthAdjust="spacingAndGlyphs" textLength="35" x="943.5" y="480.1963">method</text><line style="stroke: #008000; stroke-width: 1.0; stroke-dasharray: 1.0,2.0;" x1="978.5" x2="1099.5" y1="475.5588" y2="475.5588"/><!--MD5=[025f0b4a5abb14bd833e6599a6b0c36b]
class f2113604623--><rect codeLine="59" fill="#FEFECE" filter="url(#f1ngi58zuhankb)" height="483.4944" id="f2113604623" style="stroke: #A80036; stroke-width: 1.5;" width="372" x="414" y="44"/><ellipse cx="583.25" cy="60" fill="#ADD1B2" rx="11" ry="11" style="stroke: #A80036; stroke-width: 1.0;"/><path d="M583.0781,53.4844 Q581.2031,53.4844 580.0469,55.2344 Q578.8594,57.0156 578.8594,60.0156 Q578.8594,63.3906 580.0625,65.1563 Q581.125,66.7813 582.875,66.7813 Q584.5625,66.7813 585.5156,65.875 Q586.5781,64.8594 586.7188,62.625 Q586.7188,62.2031 586.4844,61.9688 Q586.2969,61.7344 585.9531,61.7031 Q585.625,61.7031 585.3906,61.8906 Q585.125,62.125 585.125,62.5156 Q585.0938,63.9063 584.5,64.6406 Q583.9688,65.3438 583.0156,65.3438 Q581.8594,65.3438 581.1406,63.9063 Q580.4219,62.4063 580.4219,59.9844 Q580.4219,57.4375 581.3125,56.0469 Q582.0625,54.9219 583.2031,54.9219 Q583.8594,54.9219 584.3594,55.4688 Q584.9219,56.0781 585.0469,57.1406 Q585.0938,57.8438 585.9219,57.7344 Q586.7031,57.625 586.6563,56.9375 Q586.4688,55.4219 585.7031,54.5469 Q584.7656,53.4844 583.0781,53.4844 Z "/><text fill="#000000" font-family="sans-serif" font-size="12" lengthAdjust="spacingAndGlyphs" textLength="25" x="603.75" y="65.6045">roll()</text><line style="stroke: #A80036; stroke-width: 1.5;" x1="415" x2="785" y1="76" y2="76"/><text fill="#000000" font-family="sans-serif" font-size="11" lengthAdjust="spacingAndGlyphs" textLength="60" x="420" y="92.6919">Static : false</text><text fill="#000000" font-family="sans-serif" font-size="11" lengthAdjust="spacingAndGlyphs" textLength="76" x="420" y="107.8008">return Type : int</text><text fill="#000000" font-family="sans-serif" font-size="11" lengthAdjust="spacingAndGlyphs" textLength="118" x="420" y="122.9097">hashCode : 2113604623</text><text fill="#000000" font-family="sans-serif" font-size="11" lengthAdjust="spacingAndGlyphs" textLength="37" x="420" y="138.0186">ABS : 7</text><text fill="#000000" font-family="sans-serif" font-size="11" lengthAdjust="spacingAndGlyphs" textLength="35" x="420" y="153.1274">RES : 7</text><line style="stroke: #A80036; stroke-width: 1.5;" x1="415" x2="580" y1="167.0989" y2="167.0989"/><text fill="#008000" font-family="sans-serif" font-size="11" font-weight="bold" lengthAdjust="spacingAndGlyphs" textLength="40" x="580" y="171.7363">has list</text><line style="stroke: #A80036; stroke-width: 1.5;" x1="620" x2="785" y1="167.0989" y2="167.0989"/><line style="stroke: #A80036; stroke-width: 1.0; stroke-dasharray: 1.0,2.0;" x1="415" x2="587" y1="189.7622" y2="189.7622"/><text fill="#000000" font-family="sans-serif" font-size="11" lengthAdjust="spacingAndGlyphs" textLength="26" x="587" y="194.3997">class</text><line style="stroke: #A80036; stroke-width: 1.0; stroke-dasharray: 1.0,2.0;" x1="613" x2="785" y1="189.7622" y2="189.7622"/><text fill="#000000" font-family="sans-serif" font-size="11" lengthAdjust="spacingAndGlyphs" textLength="202" x="420" y="232.6719">gameSystem.Dice.roll().size (530486389);</text><text fill="#000000" font-family="sans-serif" font-size="11" lengthAdjust="spacingAndGlyphs" textLength="186" x="420" y="247.7808">gameSystem.Dice.roll().r (983595261);</text><line style="stroke: #A80036; stroke-width: 1.0; stroke-dasharray: 1.0,2.0;" x1="415" x2="581" y1="212.4255" y2="212.4255"/><text fill="#000000" font-family="sans-serif" font-size="11" lengthAdjust="spacingAndGlyphs" textLength="38" x="581" y="217.063">member</text><line style="stroke: #A80036; stroke-width: 1.0; stroke-dasharray: 1.0,2.0;" x1="619" x2="785" y1="212.4255" y2="212.4255"/><line style="stroke: #A80036; stroke-width: 1.0; stroke-dasharray: 1.0,2.0;" x1="415" x2="582.5" y1="261.7522" y2="261.7522"/><text fill="#000000" font-family="sans-serif" font-size="11" lengthAdjust="spacingAndGlyphs" textLength="35" x="582.5" y="266.3896">method</text><line style="stroke: #A80036; stroke-width: 1.0; stroke-dasharray: 1.0,2.0;" x1="617.5" x2="785" y1="261.7522" y2="261.7522"/><line style="stroke: #A80036; stroke-width: 1.5;" x1="415" x2="572.5" y1="284.4155" y2="284.4155"/><text fill="#0000FF" font-family="sans-serif" font-size="11" font-weight="bold" lengthAdjust="spacingAndGlyphs" textLength="55" x="572.5" y="289.053">calling list</text><line style="stroke: #A80036; stroke-width: 1.5;" x1="627.5" x2="785" y1="284.4155" y2="284.4155"/><text fill="#000000" font-family="sans-serif" font-size="11" lengthAdjust="spacingAndGlyphs" textLength="152" x="420" y="327.3252">java.util.Random (2142565033);</text><line style="stroke: #A80036; stroke-width: 1.0; stroke-dasharray: 1.0,2.0;" x1="415" x2="587" y1="307.0789" y2="307.0789"/><text fill="#000000" font-family="sans-serif" font-size="11" lengthAdjust="spacingAndGlyphs" textLength="26" x="587" y="311.7163">class</text><line style="stroke: #A80036; stroke-width: 1.0; stroke-dasharray: 1.0,2.0;" x1="613" x2="785" y1="307.0789" y2="307.0789"/><text fill="#000000" font-family="sans-serif" font-size="11" lengthAdjust="spacingAndGlyphs" textLength="185" x="420" y="361.543">gameSystem.Dice.rand (1783568981);</text><line style="stroke: #A80036; stroke-width: 1.0; stroke-dasharray: 1.0,2.0;" x1="415" x2="581" y1="341.2966" y2="341.2966"/><text fill="#000000" font-family="sans-serif" font-size="11" lengthAdjust="spacingAndGlyphs" textLength="38" x="581" y="345.9341">member</text><line style="stroke: #A80036; stroke-width: 1.0; stroke-dasharray: 1.0,2.0;" x1="619" x2="785" y1="341.2966" y2="341.2966"/><text fill="#000000" font-family="sans-serif" font-size="11" lengthAdjust="spacingAndGlyphs" textLength="206" x="420" y="395.7607">java.util.Random.nextInt(int) (2113748097);</text><line style="stroke: #A80036; stroke-width: 1.0; stroke-dasharray: 1.0,2.0;" x1="415" x2="582.5" y1="375.5144" y2="375.5144"/><text fill="#000000" font-family="sans-serif" font-size="11" lengthAdjust="spacingAndGlyphs" textLength="35" x="582.5" y="380.1519">method</text><line style="stroke: #A80036; stroke-width: 1.0; stroke-dasharray: 1.0,2.0;" x1="617.5" x2="785" y1="375.5144" y2="375.5144"/><line style="stroke: #A80036; stroke-width: 1.5;" x1="415" x2="566" y1="409.7322" y2="409.7322"/><text fill="#FFA500" font-family="sans-serif" font-size="11" font-weight="bold" lengthAdjust="spacingAndGlyphs" textLength="68" x="566" y="414.3696">called by list</text><line style="stroke: #A80036; stroke-width: 1.5;" x1="634" x2="785" y1="409.7322" y2="409.7322"/><text fill="#000000" font-family="sans-serif" font-size="11" lengthAdjust="spacingAndGlyphs" textLength="197" x="420" y="452.6418">gameSystem.GameSystem (629454893);</text><line style="stroke: #A80036; stroke-width: 1.0; stroke-dasharray: 1.0,2.0;" x1="415" x2="587" y1="432.3955" y2="432.3955"/><text fill="#000000" font-family="sans-serif" font-size="11" lengthAdjust="spacingAndGlyphs" textLength="26" x="587" y="437.033">class</text><line style="stroke: #A80036; stroke-width: 1.0; stroke-dasharray: 1.0,2.0;" x1="613" x2="785" y1="432.3955" y2="432.3955"/><text fill="#000000" font-family="sans-serif" font-size="11" lengthAdjust="spacingAndGlyphs" textLength="360" x="420" y="486.8596">gameSystem.GameSystem.diceRoll(gameSystem.Dice).dice (2075952726);</text><line style="stroke: #A80036; stroke-width: 1.0; stroke-dasharray: 1.0,2.0;" x1="415" x2="581" y1="466.6133" y2="466.6133"/><text fill="#000000" font-family="sans-serif" font-size="11" lengthAdjust="spacingAndGlyphs" textLength="38" x="581" y="471.2507">member</text><line style="stroke: #A80036; stroke-width: 1.0; stroke-dasharray: 1.0,2.0;" x1="619" x2="785" y1="466.6133" y2="466.6133"/><text fill="#000000" font-family="sans-serif" font-size="11" lengthAdjust="spacingAndGlyphs" textLength="337" x="420" y="521.0774">gameSystem.GameSystem.diceRoll(gameSystem.Dice) (1764996806);</text><line style="stroke: #A80036; stroke-width: 1.0; stroke-dasharray: 1.0,2.0;" x1="415" x2="582.5" y1="500.8311" y2="500.8311"/><text fill="#000000" font-family="sans-serif" font-size="11" lengthAdjust="spacingAndGlyphs" textLength="35" x="582.5" y="505.4685">method</text><line style="stroke: #A80036; stroke-width: 1.0; stroke-dasharray: 1.0,2.0;" x1="617.5" x2="785" y1="500.8311" y2="500.8311"/><!--MD5=[f6064968006b102cb1b3092be2f53bd9]
class cl1--><rect codeLine="1" fill="#FEFECE" filter="url(#f1ngi58zuhankb)" height="529.2666" id="cl1" style="stroke: #A80036; stroke-width: 1.5;" width="372" x="7" y="21"/><ellipse cx="176.25" cy="37" fill="#ADD1B2" rx="11" ry="11" style="stroke: #A80036; stroke-width: 1.0;"/><path d="M176.0781,30.4844 Q174.2031,30.4844 173.0469,32.2344 Q171.8594,34.0156 171.8594,37.0156 Q171.8594,40.3906 173.0625,42.1563 Q174.125,43.7813 175.875,43.7813 Q177.5625,43.7813 178.5156,42.875 Q179.5781,41.8594 179.7188,39.625 Q179.7188,39.2031 179.4844,38.9688 Q179.2969,38.7344 178.9531,38.7031 Q178.625,38.7031 178.3906,38.8906 Q178.125,39.125 178.125,39.5156 Q178.0938,40.9063 177.5,41.6406 Q176.9688,42.3438 176.0156,42.3438 Q174.8594,42.3438 174.1406,40.9063 Q173.4219,39.4063 173.4219,36.9844 Q173.4219,34.4375 174.3125,33.0469 Q175.0625,31.9219 176.2031,31.9219 Q176.8594,31.9219 177.3594,32.4688 Q177.9219,33.0781 178.0469,34.1406 Q178.0938,34.8438 178.9219,34.7344 Q179.7031,34.625 179.6563,33.9375 Q179.4688,32.4219 178.7031,31.5469 Q177.7656,30.4844 176.0781,30.4844 Z "/><text fill="#000000" font-family="sans-serif" font-size="12" lengthAdjust="spacingAndGlyphs" textLength="25" x="196.75" y="42.6045">Dice</text><line style="stroke: #A80036; stroke-width: 1.5;" x1="8" x2="378" y1="53" y2="53"/><text fill="#000000" font-family="sans-serif" font-size="11" lengthAdjust="spacingAndGlyphs" textLength="106" x="13" y="69.6919">Package gameSystem</text><text fill="#000000" font-family="sans-serif" font-size="11" lengthAdjust="spacingAndGlyphs" textLength="41" x="13" y="84.8008">Lib false</text><text fill="#000000" font-family="sans-serif" font-size="11" lengthAdjust="spacingAndGlyphs" textLength="113" x="13" y="99.9097">HashCode : 462526099</text><text fill="#000000" font-family="sans-serif" font-size="11" lengthAdjust="spacingAndGlyphs" textLength="43" x="13" y="115.0186">ABS : 22</text><text fill="#000000" font-family="sans-serif" font-size="11" lengthAdjust="spacingAndGlyphs" textLength="35" x="13" y="130.1274">RES : 5</text><text fill="#008000" font-family="sans-serif" font-size="11" lengthAdjust="spacingAndGlyphs" textLength="84" x="13" y="164.3452">int[] shapeList (2)</text><text fill="#008000" font-family="sans-serif" font-size="11" lengthAdjust="spacingAndGlyphs" textLength="120" x="13" y="179.4541">java.util.Random rand (2)</text><line style="stroke: #A80036; stroke-width: 1.5;" x1="8" x2="173" y1="144.0989" y2="144.0989"/><text fill="#008000" font-family="sans-serif" font-size="11" font-weight="bold" lengthAdjust="spacingAndGlyphs" textLength="40" x="173" y="148.7363">has list</text><line style="stroke: #A80036; stroke-width: 1.5;" x1="213" x2="378" y1="144.0989" y2="144.0989"/><line style="stroke: #A80036; stroke-width: 1.0; stroke-dasharray: 1.0,2.0;" x1="8" x2="378" y1="185.8711" y2="185.8711"/><text fill="#008000" font-family="sans-serif" font-size="11" lengthAdjust="spacingAndGlyphs" textLength="88" x="13" y="202.563">new Dice(int[]) (4)</text><text fill="#FA8072" font-family="sans-serif" font-size="11" lengthAdjust="spacingAndGlyphs" textLength="53" x="13" y="217.6719">int roll() (7)</text><line style="stroke: #A80036; stroke-width: 1.5;" x1="8" x2="165.5" y1="231.6433" y2="231.6433"/><text fill="#0000FF" font-family="sans-serif" font-size="11" font-weight="bold" lengthAdjust="spacingAndGlyphs" textLength="55" x="165.5" y="236.2808">calling list</text><line style="stroke: #A80036; stroke-width: 1.5;" x1="220.5" x2="378" y1="231.6433" y2="231.6433"/><text fill="#000000" font-family="sans-serif" font-size="11" lengthAdjust="spacingAndGlyphs" textLength="152" x="13" y="274.553">java.util.Random (2142565033);</text><line style="stroke: #A80036; stroke-width: 1.0; stroke-dasharray: 1.0,2.0;" x1="8" x2="180" y1="254.3066" y2="254.3066"/><text fill="#000000" font-family="sans-serif" font-size="11" lengthAdjust="spacingAndGlyphs" textLength="26" x="180" y="258.9441">class</text><line style="stroke: #A80036; stroke-width: 1.0; stroke-dasharray: 1.0,2.0;" x1="206" x2="378" y1="254.3066" y2="254.3066"/><text fill="#000000" font-family="sans-serif" font-size="11" lengthAdjust="spacingAndGlyphs" textLength="210" x="13" y="308.7708">gameSystem.Dice.shapeList (1304589447);</text><text fill="#000000" font-family="sans-serif" font-size="11" lengthAdjust="spacingAndGlyphs" textLength="185" x="13" y="323.8796">gameSystem.Dice.rand (1783568981);</text><line style="stroke: #A80036; stroke-width: 1.0; stroke-dasharray: 1.0,2.0;" x1="8" x2="174" y1="288.5244" y2="288.5244"/><text fill="#000000" font-family="sans-serif" font-size="11" lengthAdjust="spacingAndGlyphs" textLength="38" x="174" y="293.1619">member</text><line style="stroke: #A80036; stroke-width: 1.0; stroke-dasharray: 1.0,2.0;" x1="212" x2="378" y1="288.5244" y2="288.5244"/><text fill="#000000" font-family="sans-serif" font-size="11" lengthAdjust="spacingAndGlyphs" textLength="206" x="13" y="358.0974">java.util.Random.nextInt(int) (2113748097);</text><line style="stroke: #A80036; stroke-width: 1.0; stroke-dasharray: 1.0,2.0;" x1="8" x2="175.5" y1="337.8511" y2="337.8511"/><text fill="#000000" font-family="sans-serif" font-size="11" lengthAdjust="spacingAndGlyphs" textLength="35" x="175.5" y="342.4885">method</text><line style="stroke: #A80036; stroke-width: 1.0; stroke-dasharray: 1.0,2.0;" x1="210.5" x2="378" y1="337.8511" y2="337.8511"/><line style="stroke: #A80036; stroke-width: 1.5;" x1="8" x2="159" y1="372.0688" y2="372.0688"/><text fill="#FFA500" font-family="sans-serif" font-size="11" font-weight="bold" lengthAdjust="spacingAndGlyphs" textLength="68" x="159" y="376.7063">called by list</text><line style="stroke: #A80036; stroke-width: 1.5;" x1="227" x2="378" y1="372.0688" y2="372.0688"/><text fill="#000000" font-family="sans-serif" font-size="11" lengthAdjust="spacingAndGlyphs" textLength="197" x="13" y="414.9785">gameSystem.GameSystem (629454893);</text><text fill="#000000" font-family="sans-serif" font-size="11" lengthAdjust="spacingAndGlyphs" textLength="154" x="13" y="430.0874">gameSystem.Dice (462526099);</text><line style="stroke: #A80036; stroke-width: 1.0; stroke-dasharray: 1.0,2.0;" x1="8" x2="180" y1="394.7322" y2="394.7322"/><text fill="#000000" font-family="sans-serif" font-size="11" lengthAdjust="spacingAndGlyphs" textLength="26" x="180" y="399.3696">class</text><line style="stroke: #A80036; stroke-width: 1.0; stroke-dasharray: 1.0,2.0;" x1="206" x2="378" y1="394.7322" y2="394.7322"/><text fill="#000000" font-family="sans-serif" font-size="11" lengthAdjust="spacingAndGlyphs" textLength="360" x="13" y="464.3052">gameSystem.GameSystem.diceRoll(gameSystem.Dice).dice (2075952726);</text><line style="stroke: #A80036; stroke-width: 1.0; stroke-dasharray: 1.0,2.0;" x1="8" x2="174" y1="444.0588" y2="444.0588"/><text fill="#000000" font-family="sans-serif" font-size="11" lengthAdjust="spacingAndGlyphs" textLength="38" x="174" y="448.6963">member</text><line style="stroke: #A80036; stroke-width: 1.0; stroke-dasharray: 1.0,2.0;" x1="212" x2="378" y1="444.0588" y2="444.0588"/><text fill="#000000" font-family="sans-serif" font-size="11" lengthAdjust="spacingAndGlyphs" textLength="337" x="13" y="498.5229">gameSystem.GameSystem.diceRoll(gameSystem.Dice) (1764996806);</text><text fill="#000000" font-family="sans-serif" font-size="11" lengthAdjust="spacingAndGlyphs" textLength="209" x="13" y="513.6318">gameSystem.Dice.Dice(int[]) (2101249621);</text><text fill="#000000" font-family="sans-serif" font-size="11" lengthAdjust="spacingAndGlyphs" textLength="185" x="13" y="528.7407">gameSystem.Dice.roll() (2113604623);</text><text fill="#000000" font-family="sans-serif" font-size="11" lengthAdjust="spacingAndGlyphs" textLength="267" x="13" y="543.8496">gameSystem.GameSystem.diceSetting() (1651162064);</text><line style="stroke: #A80036; stroke-width: 1.0; stroke-dasharray: 1.0,2.0;" x1="8" x2="175.5" y1="478.2766" y2="478.2766"/><text fill="#000000" font-family="sans-serif" font-size="11" lengthAdjust="spacingAndGlyphs" textLength="35" x="175.5" y="482.9141">method</text><line style="stroke: #A80036; stroke-width: 1.0; stroke-dasharray: 1.0,2.0;" x1="210.5" x2="378" y1="478.2766" y2="478.2766"/><!--MD5=[999e6e9a3269ba1085b39b315b77f3c1]
@startuml
class "Dice" as cl1{
Package gameSystem
Lib false
HashCode : 462526099
ABS : 22
RES : 5
__**<color:green>has list</color>**__
	<color:green>int[] shapeList (2)
	<color:green>java.util.Random rand (2)
....
	<color:green>new Dice(int[]) (4)
	<color:salmon>int roll() (7)
__**<color:blue>calling list</color>**__
..class..
	java.util.Random (2142565033);
..member..
	gameSystem.Dice.shapeList (1304589447);
	gameSystem.Dice.rand (1783568981);
..method..
	 java.util.Random.nextInt(int) (2113748097);
__**<color:orange>called by list</color>**__
..class..
	gameSystem.GameSystem (629454893);
	gameSystem.Dice (462526099);
..member..
	gameSystem.GameSystem.diceRoll(gameSystem.Dice).dice (2075952726);
..method..
	 gameSystem.GameSystem.diceRoll(gameSystem.Dice) (1764996806);
	 gameSystem.Dice.Dice(int[]) (2101249621);
	 gameSystem.Dice.roll() (2113604623);
	 gameSystem.GameSystem.diceSetting() (1651162064);
}

 package Functions{
class "Dice(int[])" as f2101249621  #line:green
{
Static : false
return Type : new
hashCode : 2101249621
ABS : 4
RES : 4
__**<color:green>has list</color>**__
..class..
..member..
	gameSystem.Dice.Dice(int[]).list (379303133);
..method..
__**<color:blue>calling list</color>**__
..class..
..member..
	gameSystem.Dice.shapeList (1304589447);
..method..
__**<color:orange>called by list</color>**__
..class..
	gameSystem.GameSystem (629454893);
..member..
..method..
	 gameSystem.GameSystem.diceSetting() (1651162064);
}
class "roll()" as f2113604623  
{
Static : false
return Type : int
hashCode : 2113604623
ABS : 7
RES : 7
__**<color:green>has list</color>**__
..class..
..member..
	gameSystem.Dice.roll().size (530486389);
	gameSystem.Dice.roll().r (983595261);
..method..
__**<color:blue>calling list</color>**__
..class..
	java.util.Random (2142565033);
..member..
	gameSystem.Dice.rand (1783568981);
..method..
	 java.util.Random.nextInt(int) (2113748097);
__**<color:orange>called by list</color>**__
..class..
	gameSystem.GameSystem (629454893);
..member..
	gameSystem.GameSystem.diceRoll(gameSystem.Dice).dice (2075952726);
..method..
	 gameSystem.GameSystem.diceRoll(gameSystem.Dice) (1764996806);
}
}

@enduml

PlantUML version 1.2020.19(Tue Oct 13 00:10:01 KST 2020)
(APACHE source distribution)
Java Runtime: OpenJDK Runtime Environment
JVM: OpenJDK 64-Bit Server VM
Default Encoding: MS949
Language: ko
Country: KR
--></g></svg>